<?xml version="1.0" standalone="no"?>
<!DOCTYPE svg PUBLIC "-//W3C//DTD SVG 20010904//EN"
 "http://www.w3.org/TR/2001/REC-SVG-20010904/DTD/svg10.dtd">
<svg version="1.0" xmlns="http://www.w3.org/2000/svg"
 width="512.000000pt" height="512.000000pt" viewBox="0 0 512.000000 512.000000"
 preserveAspectRatio="xMidYMid meet">
<metadata>
Created by potrace 1.15, written by Peter Selinger 2001-2017
</metadata>
<g transform="translate(0.000000,512.000000) scale(0.100000,-0.100000)"
fill="#000000" stroke="none">
<path d="M3745 5110 c-5 -5 -53 -50 -105 -100 -52 -50 -113 -106 -135 -124
-22 -19 -83 -74 -135 -123 -52 -49 -102 -94 -111 -99 -9 -5 -72 -61 -140 -125
-130 -122 -213 -197 -320 -289 -35 -30 -97 -87 -139 -125 -41 -39 -102 -91
-135 -117 -34 -25 -77 -63 -96 -85 -19 -21 -73 -71 -120 -110 -47 -39 -105
-91 -130 -115 -24 -25 -71 -66 -104 -93 -33 -26 -97 -82 -141 -124 -45 -42
-139 -125 -209 -186 -70 -60 -148 -129 -173 -153 -25 -23 -84 -75 -131 -115
-47 -39 -115 -102 -151 -138 -36 -37 -85 -80 -110 -97 -25 -16 -65 -51 -90
-77 -25 -25 -74 -70 -110 -99 -36 -29 -107 -94 -159 -145 -52 -50 -100 -95
-107 -99 -13 -7 -176 -153 -334 -299 -49 -45 -102 -89 -118 -97 -16 -8 -74
-63 -129 -123 -80 -87 -99 -112 -93 -128 16 -44 1065 -1094 1093 -1095 26 0
68 31 168 126 47 45 106 95 130 111 24 17 64 53 89 80 25 27 83 80 130 118 46
39 105 92 130 119 25 26 57 54 71 61 14 8 93 80 175 162 82 81 169 164 194
183 24 19 87 76 139 126 53 51 121 113 151 138 30 25 80 70 110 99 31 28 89
81 130 117 41 35 107 97 145 136 39 40 111 105 160 147 50 41 108 94 130 117
22 23 72 69 110 102 39 33 102 90 140 127 39 36 99 91 135 121 35 30 111 101
168 158 57 57 127 121 155 144 29 22 113 98 187 169 153 146 317 300 404 380
33 30 128 119 211 199 83 80 179 169 213 198 35 30 70 68 78 85 9 18 23 40 32
50 9 10 21 33 28 53 11 31 9 38 -15 73 -44 66 -537 571 -557 571 -13 0 -120
105 -178 174 l-39 46 -241 0 c-132 -1 -245 -5 -251 -10z m261 -201 c45 -43 49
-90 12 -126 -37 -35 -42 -56 -24 -91 8 -16 132 -144 275 -284 220 -215 261
-260 261 -283 0 -40 -36 -75 -77 -75 -29 0 -50 16 -166 127 -73 70 -198 194
-278 276 -162 165 -155 161 -231 110 -20 -14 -55 -27 -77 -30 -37 -5 -41 -8
-41 -35 0 -23 -19 -48 -92 -124 -106 -110 -107 -118 -25 -187 45 -38 48 -40
74 -26 14 8 57 42 96 77 84 75 107 79 161 26 73 -71 69 -94 -34 -184 -76 -66
-85 -81 -66 -118 23 -44 136 -133 161 -126 11 3 52 37 90 74 112 109 137 114
207 43 28 -29 46 -55 44 -66 -4 -32 -52 -83 -173 -187 -172 -148 -129 -165
-486 193 -161 161 -312 308 -336 327 -39 32 -44 39 -44 78 0 51 3 54 159 193
90 79 118 99 149 103 20 3 39 7 42 9 4 5 11 31 12 51 2 17 246 258 281 277 45
25 85 18 126 -22z m-768 -692 c14 -14 26 -41 29 -66 l6 -43 -87 -81 c-103 -98
-106 -111 -41 -174 60 -57 82 -56 148 5 63 58 116 92 147 92 36 0 100 -71 100
-110 0 -28 -12 -44 -75 -105 -53 -50 -75 -78 -75 -96 0 -26 51 -87 112 -133
34 -26 38 -26 65 -12 15 8 63 46 105 85 64 59 84 72 120 77 38 5 46 3 70 -23
23 -24 33 -59 29 -99 -1 -6 -57 -66 -126 -134 -117 -117 -170 -157 -207 -157
-9 0 -171 157 -362 348 -250 251 -346 353 -346 369 0 27 194 228 255 265 49
29 98 26 133 -8z m-378 -431 c68 -37 168 -136 199 -196 13 -25 26 -71 28 -105
7 -80 14 -90 70 -105 50 -13 92 -31 250 -106 113 -54 125 -75 73 -129 -18 -19
-42 -36 -54 -38 -23 -3 -88 19 -181 63 -121 56 -187 81 -221 82 -32 1 -53 -12
-54 -34 0 -10 140 -163 174 -189 33 -26 66 -73 71 -101 5 -25 -19 -56 -53 -69
-42 -16 -94 25 -313 250 -118 121 -258 260 -312 308 -156 139 -157 147 -45
255 82 79 145 127 183 140 49 16 129 5 185 -26z m-418 -300 c23 -15 24 -20 17
-67 -6 -37 -17 -61 -43 -89 -23 -26 -33 -45 -29 -58 2 -11 126 -140 273 -286
230 -227 270 -271 276 -303 6 -31 3 -39 -16 -55 -53 -43 -65 -35 -308 204
-125 122 -250 245 -279 275 -57 58 -90 67 -127 35 -12 -10 -38 -29 -58 -41
l-37 -22 -41 41 c-49 49 -63 81 -50 114 10 27 255 250 291 266 33 13 100 6
131 -14z m-396 -394 c45 -10 96 -57 113 -104 8 -23 6 -32 -19 -58 -31 -34 -54
-37 -107 -15 -19 8 -49 14 -65 13 -30 -2 -70 -37 -74 -65 -4 -26 24 -72 54
-86 34 -17 65 -14 153 13 171 53 311 10 433 -133 101 -119 125 -213 78 -306
-26 -52 -84 -110 -113 -114 -8 -2 -20 -6 -27 -11 -23 -14 -96 -8 -149 13 -61
24 -157 77 -171 94 -29 35 -13 101 28 115 25 9 41 6 105 -20 73 -31 75 -32
110 -15 65 31 69 114 7 168 -32 29 -39 30 -96 26 -59 -4 -75 -7 -106 -20 -25
-11 -132 -25 -154 -20 -108 22 -198 79 -262 166 -74 102 -88 191 -43 264 23
37 94 98 124 106 26 7 128 1 181 -11z m-535 -378 c5 -3 4 -62 -2 -102 -3 -20
10 -37 121 -152 121 -125 138 -153 105 -180 -28 -23 -64 0 -172 109 -129 131
-152 145 -201 124 -33 -14 -36 -13 -59 10 -23 23 -24 26 -10 58 16 37 61 83
121 123 35 24 66 27 97 10z m-194 -244 c16 -32 17 -79 1 -85 -7 -2 -28 -6 -47
-9 -45 -6 -60 -22 -40 -41 14 -14 18 -14 45 0 17 8 55 15 90 15 51 0 68 -5
106 -30 52 -35 58 -41 85 -90 31 -56 23 -115 -21 -159 -34 -34 -40 -36 -102
-36 -62 0 -67 2 -95 33 -28 31 -29 36 -16 55 12 18 24 22 63 22 58 0 74 8 74
38 0 32 -45 48 -90 31 -44 -16 -120 -17 -157 -3 -39 14 -92 67 -109 109 -21
50 -10 100 32 141 19 18 34 30 34 27 0 -4 12 -3 28 2 15 4 45 7 67 6 31 -1 42
-6 52 -26z m-277 -280 c137 -122 649 -647 655 -672 13 -51 -48 -107 -102 -94
-19 5 -99 79 -243 227 -175 178 -220 219 -242 219 -23 0 -27 -5 -33 -41 -10
-57 -36 -82 -72 -68 -35 13 -82 57 -93 86 -5 12 -10 66 -11 120 -1 63 -8 119
-20 155 -17 55 -17 60 -1 88 20 34 49 51 77 43 11 -3 49 -32 85 -63z m-463
-290 c17 -7 105 -89 217 -206 104 -107 200 -201 216 -209 15 -8 50 -13 79 -13
48 1 55 -2 93 -39 41 -41 46 -57 36 -123 -3 -19 8 -38 44 -78 56 -63 61 -93
21 -134 -41 -43 -74 -38 -141 22 -31 27 -63 50 -72 50 -9 0 -47 -26 -84 -57
-114 -97 -113 -96 -138 -90 -51 13 -156 137 -163 192 -1 6 -9 27 -18 49 -9 21
-17 42 -17 47 0 5 -4 17 -9 27 -16 29 -70 175 -77 207 -4 17 -10 35 -14 40
-13 17 -62 158 -73 209 -11 48 -11 48 26 82 42 39 36 37 74 24z"/>
<path d="M2754 3625 c-16 -7 -44 -29 -63 -48 -44 -46 -38 -69 35 -136 69 -64
95 -66 147 -13 39 40 48 77 29 122 -24 59 -98 96 -148 75z"/>
</g>
</svg>
