<?xml version="1.0" encoding="UTF-8"?>
<svg width="128px" height="128px" viewBox="0 0 128 128" version="1.1" xmlns="http://www.w3.org/2000/svg" xmlns:xlink="http://www.w3.org/1999/xlink">
    <!-- Generator: Sketch 59.1 (86144) - https://sketch.com -->
    <title>Artboard Copy 2</title>
    <desc>Created with Sketch.</desc>
    <defs>
        <linearGradient x1="50%" y1="100%" x2="50%" y2="3.061617e-15%" id="linearGradient-1">
            <stop stop-color="#131720" offset="0%"></stop>
            <stop stop-color="#013025" offset="100%"></stop>
        </linearGradient>
        <linearGradient x1="50%" y1="0.0580658784%" x2="50%" y2="100%" id="linearGradient-2">
            <stop stop-color="#08C18D" offset="0.0580658784%"></stop>
            <stop stop-color="#000000" stop-opacity="0.5" offset="100%"></stop>
        </linearGradient>
        <linearGradient x1="50%" y1="0%" x2="50%" y2="100%" id="linearGradient-3">
            <stop stop-color="#013025" offset="0%"></stop>
            <stop stop-color="#08C18D" offset="100%"></stop>
        </linearGradient>
        <linearGradient x1="50%" y1="0%" x2="50%" y2="100%" id="linearGradient-4">
            <stop stop-color="#13E2C1" offset="0%"></stop>
            <stop stop-color="#08C18D" offset="100%"></stop>
        </linearGradient>
    </defs>
    <g id="Artboard-Copy-2" stroke="none" stroke-width="1" fill="none" fill-rule="evenodd">
        <g id="Group-Copy-3">
            <g id="Group-Copy">
                <path d="M63.9989045,0 C28.6533155,0 -2.84217094e-14,28.6533155 -2.84217094e-14,64 C-2.84217094e-14,99.3466845 28.6533155,128 63.9989045,128 C99.345589,128 127.998905,99.3466845 127.998905,64 C127.998905,28.6533155 99.345589,0 63.9989045,0" id="Fill-1" fill="#131720"></path>
                <path d="M69.3952,50.3446 C69.1622,50.3446 67.8522,50.4696 67.9742,50.6986 C68.7142,51.9136 69.6522,50.3756 69.3952,50.3446" id="Fill-5" fill="#0AC18E"></path>
                <path d="M60.0602,42.7577 C60.3942,43.2297 62.9232,42.0797 62.5202,42.1467 C63.3012,41.7537 62.6212,41.7117 62.1832,41.4867 C62.0342,40.7387 61.9092,39.5857 61.4432,39.1237 L61.7482,38.7697 C61.0332,37.7307 60.4982,40.0277 60.4982,40.0277 L60.8732,39.9187 C61.0952,40.1107 60.6232,40.2487 60.6962,40.3917 C60.9952,40.9307 60.7692,41.2527 60.7242,41.5447 C60.6752,41.8397 60.3632,41.7117 60.2062,41.8677 C60.0222,42.0977 61.1032,42.1287 61.1172,42.1627 C61.1552,42.2787 59.8142,42.4727 60.0602,42.7577" id="Fill-7" fill="#0AC18E"></path>
                <path d="M58.7165,41.9169 C59.1505,41.7259 59.7345,41.7319 59.7965,41.1519 C59.8485,40.6389 59.9495,40.9919 60.0745,40.8049 C60.1955,40.6209 59.8415,40.3259 59.6925,40.2979 C59.4705,40.2489 59.3175,40.5379 59.1745,40.6589 L58.9245,40.7259 L58.6885,41.0269 L58.7165,41.1939 L58.4135,41.5629 C58.1185,41.8549 58.4205,42.0449 58.7165,41.9169" id="Fill-9" fill="#0AC18E"></path>
                <path d="M58.4138,41.5624 L58.7168,41.1944 L58.6878,41.0274 L58.9248,40.7254 L59.1748,40.6594 C59.3168,40.5384 59.4708,40.2494 59.6918,40.2974 C59.8418,40.3264 60.1958,40.6214 60.0748,40.8044 C59.9498,40.9924 59.8488,40.6384 59.7968,41.1524 C59.7338,41.7324 59.1498,41.7254 58.7168,41.9164 C58.4208,42.0444 58.1188,41.8544 58.4138,41.5624 M60.2068,41.8684 C60.3628,41.7114 60.6758,41.8394 60.7248,41.5444 C60.7688,41.2524 60.9948,40.9304 60.6958,40.3914 C60.6238,40.2494 61.0958,40.1104 60.8738,39.9184 L60.4988,40.0274 C60.4988,40.0274 61.0328,37.7304 61.7488,38.7694 L61.4428,39.1244 C61.9088,39.5854 62.0338,40.7394 62.1838,41.4864 C62.6208,41.7114 63.3018,41.7534 62.5198,42.1464 C62.9238,42.0804 60.3938,43.2294 60.0598,42.7574 C59.8138,42.4724 61.1548,42.2784 61.1168,42.1634 C61.1028,42.1284 60.0218,42.0974 60.2068,41.8684 M69.3948,50.3444 C69.6518,50.3754 68.7148,51.9144 67.9748,50.6984 C67.8518,50.4694 69.1618,50.3444 69.3948,50.3444 M65.9108,29.3514 C69.7038,29.3514 75.3668,30.9114 76.6658,31.6864 C78.6358,32.8644 75.8148,32.7774 75.5058,33.5474 C75.2668,34.1424 74.7138,34.9444 74.4708,35.2644 C74.0428,35.8164 72.8098,35.5804 73.0498,34.9194 C73.2998,34.2254 74.4978,33.9614 72.6878,33.7944 C70.8368,33.6254 70.3228,32.3774 68.4638,33.9374 C67.9078,34.4064 67.4878,35.1254 67.1268,35.7444 C66.6158,36.6194 65.3758,36.5814 64.8618,37.3974 C64.3578,38.1964 65.1528,39.5304 66.1258,38.9394 C66.3838,38.7834 69.3108,41.6244 68.9358,39.3354 C68.6898,37.8174 69.7528,36.7824 69.7728,35.6394 C69.7878,34.8754 70.9408,35.3654 70.6318,35.7644 C70.2318,36.2684 69.7838,37.9914 70.8438,38.0744 C71.2728,38.1104 72.4378,37.2604 72.7098,37.7524 C72.3918,37.4154 71.2968,39.3194 71.3678,39.2904 C70.9168,39.4924 70.3928,39.2074 70.7388,40.1684 C71.0528,41.1144 69.0368,41.0024 68.6758,41.1904 C68.5228,41.2744 66.9418,40.7184 66.9768,41.0764 C66.4318,40.6214 67.1298,39.4994 66.6748,39.3144 C66.2198,40.0164 66.4318,41.4514 65.4448,41.4514 C64.6008,41.4514 63.4368,42.4034 62.9308,42.9864 C62.5688,43.3824 60.3908,44.2644 60.1538,44.2374 C61.4018,44.3694 61.3428,45.2794 61.2418,46.0614 C60.9918,47.8644 57.0948,46.1934 57.2608,46.8764 C57.4168,47.5304 56.8098,49.3194 56.6778,49.8924 C56.5598,50.4144 58.3518,50.7474 58.2508,51.0074 C58.2648,50.9764 60.6858,50.1774 60.9228,49.9654 L60.9228,49.9654 L61.4678,48.7394 C61.9268,48.4334 62.4088,48.1874 62.9238,47.9964 C63.0938,47.6144 63.3018,47.2554 63.5448,46.9164 C63.7538,46.8354 66.2338,46.4544 66.4068,46.5334 C67.0328,46.8184 68.1858,48.0064 68.6198,48.5444 C68.7728,48.7464 69.5648,49.0354 69.5648,49.3304 C69.8568,49.7784 69.3528,49.9524 69.5448,50.2604 C69.9758,51.0674 70.0898,48.5864 69.9058,49.0554 C69.9058,48.2664 70.4888,49.3474 70.6248,49.2604 L70.6248,49.2604 L67.8838,46.5334 C67.0358,45.1054 70.1558,47.2934 70.5588,47.5584 C70.9548,47.8264 71.7468,50.1804 72.7958,49.6494 C73.4558,49.3234 72.7788,49.0734 73.2408,48.6974 C73.9108,48.1974 74.4908,48.7814 75.1128,48.3264 C73.7498,49.3234 75.8548,50.5964 75.9048,50.6544 L75.9048,50.6544 L76.0616779,50.7069561 C76.6178208,50.8452264 76.9709667,50.4189 77.3468,50.5564 C77.5828,50.6464 80.1078,50.6154 79.7058,50.2154 C80.3378,50.5324 80.0458,53.3324 79.5248,53.7624 C78.6778,54.4674 74.5998,54.1754 73.6878,53.5234 C72.1848,52.4354 72.4518,54.6864 71.7198,54.9924 C70.2918,55.5834 68.1478,53.0604 66.6428,52.9814 C67.3728,53.0914 66.7098,51.1254 66.7098,50.9944 C66.1298,50.2784 62.4538,51.0744 61.4878,51.2024 C59.6758,51.4454 57.7778,51.4204 56.3888,52.5494 C55.4128,53.3424 55.3988,54.6344 54.4018,55.2634 C53.7558,55.6694 53.0508,55.5384 52.5018,56.0584 C51.5218,56.9864 50.4028,58.3584 49.8538,59.5814 C49.6248,60.0914 50.1498,61.3144 50.0208,61.9744 C48.7458,66.0044 50.3408,71.5904 55.2278,72.2084 C56.4168,72.3584 57.6458,73.0044 58.8488,72.6434 C59.8038,72.3544 60.6438,71.7024 61.6728,71.6284 C63.1008,71.5354 62.5068,73.6324 64.4658,73.0634 C65.4178,72.7854 65.8488,73.7164 65.8488,74.4244 C65.5318,75.9084 64.8338,76.7354 66.1848,77.7744 C67.0988,78.4864 67.8588,79.5004 68.0258,80.7304 C68.1238,81.4174 68.7668,82.6024 67.9708,83.0084 C67.4038,83.2934 66.9908,84.9304 66.9978,85.4684 C67.1128,86.0934 68.3848,87.2924 68.7628,87.8204 C69.3108,88.5814 68.9118,89.4734 69.3638,90.3354 C69.8258,91.2144 70.2638,91.8884 70.5898,92.7774 C71.0108,94.0034 74.2208,92.7504 74.9708,92.7534 C77.5198,92.7704 78.8118,89.1754 80.6088,88.0704 C81.6198,87.4454 81.3388,85.7364 82.5398,84.8574 C83.6618,84.0374 84.8468,83.5504 84.9478,82.0464 C85.0338,80.7444 83.9678,78.0204 84.5558,76.9194 C85.2678,75.6064 92.7698,65.0004 90.5338,64.4724 C90.1578,64.3854 88.0388,65.9174 87.3688,65.9764 C86.7538,66.0324 84.3918,63.4754 83.7728,62.8574 C82.6198,61.7074 82.1158,59.6584 81.1748,58.2504 C80.6228,57.4304 78.9548,55.7974 78.9548,54.7734 C79.0278,54.9584 79.7228,56.1354 80.0498,55.8884 L80.0498,55.8884 L80.1078,55.3124 C80.0908,55.6184 82.0678,57.8934 82.4988,58.1364 C83.4648,58.6744 83.4538,60.2344 84.4088,60.9674 C86.2258,62.3674 85.7258,66.3374 88.3928,63.9264 C90.1798,62.3154 93.6708,59.2544 92.7388,56.4614 C92.2528,54.9784 89.9918,56.0654 89.2938,56.5934 C88.5498,56.2054 85.8298,53.2414 86.9028,52.8564 C87.4278,52.6654 88.5888,54.2244 89.0048,54.4544 C89.8668,54.9334 90.6208,53.6304 90.9918,54.4254 C91.5588,55.6184 95.3128,53.1964 96.2028,53.5434 C96.7938,53.7734 97.2488,54.2524 97.4498,54.8574 C98.0748,56.7744 98.6898,60.4044 98.6898,63.9994 C98.6898,83.1664 83.1548,98.7014 63.9898,98.7014 C54.1238,98.7014 45.2238,94.5814 38.9078,87.9764 C38.1578,87.1914 37.5988,85.3264 38.8358,84.5654 L38.8358,84.5654 L40.0898,84.2424 C41.0688,83.4124 39.1688,80.0324 39.9228,79.4904 C42.2578,77.8154 41.1488,75.7664 39.7108,74.0744 C39.0998,73.3554 35.7578,69.9054 35.3828,70.5244 C35.6638,69.5794 34.7738,67.3034 34.2388,66.4044 C33.3328,64.8924 32.1478,63.9684 31.6688,62.3084 C31.4768,61.6514 31.4768,59.6434 31.0888,59.1784 C30.9328,58.9914 29.7268,58.4804 29.7718,58.2064 C30.9288,51.3104 34.1208,45.1024 38.7338,40.2004 L38.7338,40.2004 L41.8408,38.9504 C43.7928,36.0184 43.9038,38.2964 45.6578,37.5294 C46.2448,37.5294 46.9118,35.1254 47.5368,34.7474 C48.6318,34.0444 47.7978,34.0444 47.5928,33.7254 C47.1658,33.0274 56.7288,29.5454 56.8898,30.1714 C57.0208,30.6994 52.1578,33.2354 52.6888,33.1554 C51.4598,33.3194 51.2198,35.5354 51.4448,35.5214 C52.0638,35.5004 55.9238,32.5854 57.7268,33.2084 C59.4868,33.8194 62.6558,31.8074 63.8928,30.7834 C64.5178,30.2654 65.0908,29.3514 65.9108,29.3514 Z M78.952,43.97 C79.2166429,43.9384286 78.6716378,44.4630051 78.5924297,44.5381057 L78.583,44.547 C78.6874706,45.3771176 79.2693945,45.8537958 80.3662884,46.2830049 L80.578,46.363 C82.0325455,46.884697 80.7865142,47.8652663 79.9236745,47.7053794 L79.844,47.687 C79.3827407,47.5589259 77.088214,46.8652003 76.8411948,47.67301 L76.822,47.773 C76.822,48.3247778 74.6604691,47.8185089 74.8227119,47.2364421 L74.852,47.169 C75.0848333,46.7940833 75.0336528,45.9889444 75.3855255,45.3913542 L75.492,45.234 C76.13,44.3932174 76.7423819,44.7958299 76.8128046,45.275257 L76.819,45.341 C76.819,45.58425 76.8626406,45.6996406 76.9392031,45.7246875 L76.974,45.73 C77.354,45.73 78.348,44.044 78.952,43.97 Z" id="Fill-11" fill="url(#linearGradient-1)"></path>
                <path d="M75.905,50.6542 C75.893,50.6492 75.883,50.6482 75.87,50.6432 C75.904,50.6592 75.91,50.6602 75.905,50.6542" id="Fill-15" fill="#000000"></path>
                <path d="M72.7097,37.7528 C72.7287,37.7858 72.7547,37.8088 72.7647,37.8558 C72.7507,37.8098 72.7317,37.7758 72.7097,37.7528" id="Fill-17" fill="#000000"></path>
                <path d="M64,0 C28.654,0 0,28.654 0,64 L0,64 C0,99.347 28.654,128 64,128 L64,128 C99.346,128 128,99.347 128,64 L128,64 C128,28.654 99.346,0 64,0 Z M5.579,64 C5.579,31.734 31.735,5.578 64,5.578 L64,5.578 C96.265,5.578 122.422,31.734 122.422,64 L122.422,64 C122.422,96.265 96.265,122.422 64,122.422 L64,122.422 C31.735,122.422 5.579,96.265 5.579,64 L5.579,64 Z" id="Fill-20" fill="url(#linearGradient-2)"></path>
                <path d="M6.973,64 C6.973,95.495 32.504,121.027 64,121.027 L64,121.027 C95.495,121.027 121.027,95.495 121.027,64 L121.027,64 C121.027,32.505 95.495,6.973 64,6.973 L64,6.973 C32.504,6.973 6.973,32.505 6.973,64 Z M9.762,64 C9.762,34.044 34.045,9.762 64,9.762 L64,9.762 C93.955,9.762 118.238,34.044 118.238,64 L118.238,64 C118.238,93.955 93.955,118.239 64,118.239 L64,118.239 C34.045,118.239 9.762,93.955 9.762,64 Z" id="Fill-23" fill="url(#linearGradient-3)"></path>
                <path d="M25.791,64 C25.791,85.102 42.898,102.209 64,102.209 L64,102.209 C85.102,102.209 102.208,85.102 102.208,64 L102.208,64 C102.208,42.899 85.102,25.792 64,25.792 L64,25.792 C42.898,25.792 25.791,42.899 25.791,64 M65.911,29.351 C69.6067436,29.351 75.0778192,30.8320256 76.5575745,31.6248758 L76.666,31.686 C78.5854872,32.8337949 75.9565168,32.7806298 75.5346008,33.4903488 L75.506,33.548 C75.29,34.0835 74.82128,34.78667 74.552549,35.155229 L74.471,35.265 C74.0616087,35.793 72.9147807,35.5991172 73.0258674,35.003658 L73.049,34.92 C73.2919032,34.2474194 74.4207586,33.9794173 72.8547195,33.8114723 L72.689,33.795 C70.8977667,33.6306667 70.3586889,32.4590022 68.6455128,33.7902161 L68.464,33.937 C67.9775,34.347375 67.595125,34.9483906 67.2646211,35.507584 L67.126,35.744 C66.6552308,36.5516923 65.5624497,36.5814438 64.9928402,37.2230478 L64.862,37.397 C64.376,38.1674643 65.0978712,39.4353967 66.0224822,38.9959641 L66.126,38.94 C66.2127692,38.8864615 66.6096923,39.180568 67.0808111,39.5014165 L67.2,39.582 C68.0632333,40.162 69.1002733,40.7410656 68.9552723,39.4737623 L68.936,39.336 C68.705375,37.9119375 69.6252383,36.9132656 69.7584255,35.8521914 L69.774,35.639 C69.7873913,34.9082174 70.8428922,35.3247618 70.6633519,35.711551 L70.631,35.764 C70.24796,36.24784 69.8197616,37.8551104 70.7239388,38.056351 L70.844,38.074 C70.9897143,38.086 71.2213878,37.9958776 71.4735277,37.8905364 L71.601,37.837 C72.0228462,37.6616154 72.4711065,37.4853787 72.666564,37.6929017 L72.71,37.753 C72.5512143,37.5849286 72.1992857,37.9738673 71.8952117,38.4017919 L71.826,38.501 C71.5748333,38.8695 71.3715625,39.2371597 71.3648466,39.2850938 L71.368,39.29 C70.9386,39.4819 70.4451225,39.2342825 70.6935,40.0338358 L70.739,40.169 C71.03948,41.0762 69.1944752,41.0092688 68.7261196,41.1687932 L68.675,41.19 C68.619875,41.2215 68.3794687,41.1687813 68.0964746,41.1055352 L67.973,41.078 C67.5317692,40.9801538 67.0385621,40.8831598 66.981812,41.0332007 L66.977,41.076 C66.4660625,40.6494375 67.0467266,39.6366445 66.7472209,39.3592764 L66.675,39.314 C66.2407143,39.9835238 66.4132313,41.3160862 65.5780385,41.4414787 L65.445,41.451 C64.65375,41.451 63.58125,42.2877188 63.0333472,42.8726858 L62.931,42.986 C62.5871,43.36315 60.6033575,44.1780125 60.2043599,44.2345494 L60.155,44.237 C61.3468261,44.3632609 61.3446635,45.2013403 61.2547071,45.9574734 L61.242,46.06 C61.0992083,47.0911667 59.7661667,46.9881059 58.6801371,46.8369055 L58.54,46.817 C57.8359375,46.71575 57.2681055,46.6145 57.255907,46.8296563 L57.261,46.877 C57.4063125,47.4891875 56.8818984,49.0998125 56.7078384,49.7717107 L56.678,49.893 C56.5669412,50.3833529 58.1477855,50.707173 58.2499471,50.9611702 L58.251,51.008 C58.2634091,50.9774545 60.4707955,50.2489628 60.8775699,49.9975446 L60.923,49.965 L61.467,48.739 C61.8342,48.495 62.21676,48.28812 62.618776,48.117336 L62.924,47.996 C63.0515,47.7095 63.1998125,47.4365 63.3685156,47.1744688 L63.544,46.916 C63.742,46.8402105 65.9791357,46.4924765 66.3603216,46.5241044 L66.406,46.533 C66.9912,46.799 68.0346044,47.8524844 68.5239822,48.4283677 L68.62,48.544 C68.7590909,48.7276364 69.4271074,48.9831736 69.5474155,49.2497551 L69.566,49.33 C69.83275,49.7406667 69.4314792,49.9210972 69.5106372,50.1863258 L69.545,50.261 C69.756875,50.6594375 69.8922852,50.2554336 69.9528784,49.8012771 L69.964,49.71 C70.0085714,49.3032857 69.9945102,48.8965714 69.9234176,49.0182901 L69.906,49.056 C69.906,48.6024 70.0976444,48.7664178 70.2874305,48.9716101 L70.328,49.016 C70.436,49.136 70.5388571,49.2545306 70.5987872,49.2651662 L70.625,49.261 L67.883,46.533 C67.057175,45.1407 70.0024794,47.18586 70.5228582,47.5355328 L70.558,47.559 C70.9402963,47.8161111 71.6888752,50.0094198 72.6805091,49.6973762 L72.796,49.65 C73.4110667,49.3448 72.8623289,49.1066756 73.1628664,48.7705801 L73.241,48.697 C73.539375,48.47475 73.8216719,48.4676406 74.0965996,48.4874238 L74.214,48.497 C74.4765,48.51975 74.7344062,48.5425 74.9991074,48.3984395 L75.113,48.326 C73.7925937,49.2918438 75.7277627,50.516707 75.8945485,50.6450484 L75.905,50.654 C76.212125,50.784375 76.4602969,50.7355938 76.6796621,50.663748 L76.772,50.632 C76.942,50.572 77.0974167,50.512 77.2527176,50.5335972 L77.346,50.557 C77.5738846,50.6435385 79.9171538,50.6172811 79.7396917,50.2604237 L79.706,50.216 C80.3116667,50.5197917 80.0687292,53.1021406 79.588882,53.6970277 L79.525,53.763 C78.7072857,54.4418571 74.8861658,54.1955166 73.7974344,53.5915502 L73.688,53.523 C72.2319687,52.469 72.437041,54.5485732 71.7848736,54.9577755 L71.719,54.992 C70.3631481,55.5543704 68.3591152,53.3042469 66.8722053,53.0108933 L66.703,52.986 C67.3049048,52.9802857 66.7666735,51.2947528 66.7140485,51.0236676 L66.71,50.994 C66.14975,50.3035714 62.7125536,51.0190714 61.6016017,51.1858289 L61.488,51.202 C59.7747778,51.4315 57.9884136,51.4228426 56.6250934,52.3722658 L56.389,52.55 C55.4827143,53.2845 55.4067704,54.4527092 54.6014905,55.1194614 L54.402,55.264 C53.8197,55.6294 53.19123,55.55902 52.670409,55.921099 L52.501,56.059 C51.5973077,56.9146923 50.5743254,58.1495562 49.991274,59.2963946 L49.855,59.581 C49.6426923,60.0517692 50.0736982,61.1300651 50.0398011,61.812279 L50.021,61.974 C48.7687679,65.9320357 50.2849509,71.3919608 54.9702906,72.1711765 L55.229,72.209 C56.3378,72.3480667 57.4823156,72.9209467 58.6072601,72.7032062 L58.848,72.644 C59.7075,72.3839 60.47466,71.82896 61.369638,71.666627 L61.673,71.628 C62.2665385,71.5901538 62.5098757,71.9306272 62.7333532,72.3002021 L62.789,72.393 C63.0676111,72.8576667 63.356034,73.3214414 64.2928237,73.1078599 L64.465,73.063 C65.3716667,72.7982381 65.805771,73.6300748 65.8450583,74.3232224 L65.848,74.426 C65.5437037,75.8531111 64.8842524,76.6728422 66.0430944,77.6602769 L66.185,77.775 C67.0380667,78.4386 67.7569822,79.3670178 67.9856364,80.48708 L68.027,80.73 C68.11915,81.3836 68.7031625,82.48484 68.0797202,82.9422816 L67.971,83.009 C67.4373529,83.2762941 67.0401211,84.7420934 67.0010704,85.3629833 L66.998,85.469 C67.1053333,86.0514 68.2205422,87.13556 68.6760877,87.7059967 L68.763,87.82 C69.2653333,88.5175833 68.9719236,89.3260833 69.2676887,90.1199485 L69.364,90.336 C69.749,91.0676667 70.1166389,91.6576667 70.4177269,92.3490556 L70.59,92.778 C70.855913,93.5556522 72.2453648,93.3351115 73.4176193,93.0711712 L73.576,93.035 C74.1182222,92.9105556 74.5980247,92.7845309 74.8756433,92.7587641 L74.97,92.754 C77.4387097,92.7694839 78.7283351,89.4041145 80.4367077,88.1855008 L80.609,88.071 C81.5638333,87.4797778 81.3653426,85.9225463 82.3529312,85.0116996 L82.54,84.858 C83.6085714,84.0760952 84.7342857,83.5980454 84.9263211,82.2550781 L84.948,82.047 C85.0300909,80.8032273 84.0616178,78.2647004 84.4848127,77.0797801 L84.555,76.92 C85.2560462,75.6272 92.5407458,65.3251389 90.6303449,64.5044547 L90.534,64.473 C90.1768571,64.3891905 88.2378549,65.7756757 87.473499,65.9588784 L87.368,65.977 C86.7776154,66.0298846 84.570182,63.6678284 83.851853,62.9366538 L83.773,62.857 C82.6968667,61.7836667 82.1860844,59.9272044 81.3576951,58.5405034 L81.175,58.251 C80.6520526,57.4732105 79.1274875,55.9675429 78.9684556,54.9396797 L78.955,54.773 C79.0237059,54.9471176 79.6425017,55.9999619 79.9885192,55.917298 L80.05,55.888 L80.108,55.312 C80.09075,55.60525 81.9066319,57.7068351 82.437324,58.0962112 L82.499,58.137 C83.3996667,58.6391333 83.4501289,60.0306711 84.2301176,60.810747 L84.409,60.968 C86.1910577,62.3400962 85.743412,66.1852585 88.2434972,64.0580803 L88.394,63.926 C90.1354634,62.3542927 93.5007222,59.4024545 92.7993191,56.6667478 L92.739,56.462 C92.2692,55.0284333 90.1407611,55.9963889 89.3688864,56.5394526 L89.294,56.594 C88.5709118,56.2164412 85.9872915,53.4140675 86.8179345,52.8957012 L86.903,52.855 C87.4003684,52.675 88.4685512,54.0647396 88.933326,54.4070886 L89.005,54.454 C89.3614,54.652 89.69836,54.54625 89.998384,54.409396 L90.097,54.363 C90.4486923,54.1931538 90.7424438,54.0250118 90.9436472,54.337569 L90.992,54.426 C91.298087,55.0726087 92.5401512,54.6578941 93.7555233,54.1970351 L93.921,54.134 C94.8263333,53.7886667 95.6933378,53.4433333 96.118747,53.5207793 L96.203,53.544 C96.7393636,53.7521818 97.1649835,54.1669752 97.3889504,54.6952171 L97.45,54.857 C98.05,56.69732 98.640784,60.1172624 98.6870867,63.5685392 L98.69,64 C98.69,82.97434 83.4641465,98.3899369 64.5638491,98.6963514 L63.99,98.701 C54.2991964,98.701 45.5411655,94.7268291 39.2487673,88.3274527 L38.908,87.976 C38.1857778,87.2200741 37.6397421,85.4626667 38.7057619,84.6539878 L38.836,84.565 L40.09,84.242 C41.0352414,83.4406207 39.2966112,80.2620713 39.8533404,79.5559717 L39.922,79.49 C42.1981026,77.8579487 41.2036068,75.8717804 39.8209139,74.2049187 L39.711,74.074 C39.1174571,73.3765143 35.946742,70.1009127 35.4222761,70.4808324 L35.383,70.524 C35.6482632,69.6287368 34.8643407,67.5397895 34.3261935,66.5571375 L34.239,66.404 C33.3924667,64.9937333 32.3046356,64.0948089 31.773096,62.6307656 L31.668,62.308 C31.4889375,61.6920625 31.4777461,59.8887227 31.1573445,59.283387 L31.089,59.179 C30.9424667,59.0035333 29.8830089,58.5466978 29.7789858,58.2637941 L29.772,58.206 C30.8949714,51.5070286 33.9402057,45.4582482 38.3430087,40.624353 L38.735,40.201 L41.84,38.95 C43.028,37.1660714 43.5344222,37.3115753 44.1438249,37.5259874 L44.212,37.55 C44.5529091,37.6690909 44.934314,37.7890083 45.4869437,37.5964538 L45.658,37.529 C46.2183182,37.529 46.8515289,35.3376674 47.4523936,34.810563 L47.538,34.747 C48.58824,34.07212 47.8607136,34.0451248 47.620345,33.7626989 L47.593,33.726 C47.1727818,33.0397091 56.3845213,29.6706982 56.871063,30.1418336 L56.889,30.172 C57.0173333,30.6843611 52.4243125,33.0956613 52.6570134,33.1557102 L52.689,33.155 C51.5082,33.31244 51.239784,35.3610032 51.4201503,35.51225 L51.445,35.521 C52.0457941,35.5006176 55.6988028,32.7549092 57.5617109,33.1621305 L57.726,33.208 C57.89475,33.2665 58.0764375,33.3008125 58.2685312,33.3143125 L58.464,33.321 C60.266,33.321 62.814,31.676 63.892,30.783 C64.4753333,30.2995333 65.01424,29.4711067 65.750192,29.3627985 L65.911,29.351 Z M69.395,50.344 C69.161,50.344 67.852,50.469 67.974,50.698 C68.6875172,51.872069 69.5874792,50.4787943 69.4173771,50.3525079 L69.395,50.344 Z M78.952,43.9697 C79.236,43.9357 78.584,44.5467 78.584,44.5467 C78.695,45.4287 79.344,45.9117 80.578,46.3627 C82.078,46.9017 80.706,47.9267 79.844,47.6867 C79.365,47.5547 76.909,46.8117 76.822,47.7737 C76.822,48.3467 74.491,47.7777 74.852,47.1687 C75.106,46.7597 75.022,45.8387 75.492,45.2347 C76.159,44.3557 76.798,44.8347 76.819,45.3417 C76.819,46.6997 78.194,44.0637 78.952,43.9697 Z" id="Fill-29" fill="url(#linearGradient-4)"></path>
            </g>
        </g>
    </g>
</svg>