<?xml version="1.0" encoding="UTF-8"?>
<svg width="32px" height="32px" viewBox="0 0 32 32" version="1.1" xmlns="http://www.w3.org/2000/svg" xmlns:xlink="http://www.w3.org/1999/xlink">
    <!-- Generator: Sketch 52.1 (67048) - http://www.bohemiancoding.com/sketch -->
    <title>svg/icon/2give</title>
    <desc>Created with Sketch.</desc>
    <defs>
        <linearGradient x1="50%" y1="0%" x2="50%" y2="100%" id="linearGradient-1">
            <stop stop-color="#FFFFFF" stop-opacity="0.5" offset="0%"></stop>
            <stop stop-color="#000000" stop-opacity="0.5" offset="100%"></stop>
        </linearGradient>
        <circle id="path-2" cx="15" cy="15" r="15"></circle>
        <filter x="-5.8%" y="-4.2%" width="111.7%" height="111.7%" filterUnits="objectBoundingBox" id="filter-3">
            <feOffset dx="0" dy="0.5" in="SourceAlpha" result="shadowOffsetOuter1"></feOffset>
            <feGaussianBlur stdDeviation="0.5" in="shadowOffsetOuter1" result="shadowBlurOuter1"></feGaussianBlur>
            <feComposite in="shadowBlurOuter1" in2="SourceAlpha" operator="out" result="shadowBlurOuter1"></feComposite>
            <feColorMatrix values="0 0 0 0 0   0 0 0 0 0   0 0 0 0 0  0 0 0 0.199473505 0" type="matrix" in="shadowBlurOuter1"></feColorMatrix>
        </filter>
    </defs>
    <g id="icon/2give" stroke="none" stroke-width="1" fill="none" fill-rule="evenodd">
        <g id="Group" transform="translate(1.000000, 0.000000)" fill-rule="nonzero">
            <g id="Oval">
                <use fill="black" fill-opacity="1" filter="url(#filter-3)" xlink:href="#path-2"></use>
                <use fill="#F1CB60" xlink:href="#path-2"></use>
                <use fill="url(#linearGradient-1)" style="mix-blend-mode: soft-light;" xlink:href="#path-2"></use>
                <circle stroke-opacity="0.0970052083" stroke="#000000" stroke-width="1" stroke-linejoin="square" cx="15" cy="15" r="14.5"></circle>
            </g>
        </g>
        <g id="2Give-coin-(2GIVE)" transform="translate(5.000000, 4.000000)" fill="#FFFFFF" fill-rule="nonzero">
            <path d="M4.79354582,11.652988 L5.35450199,11.652988 L5.35450199,12.2113147 L4.79354582,12.2113147 L4.79354582,11.652988 Z M7.59832669,12.2121912 L8.15928287,12.2121912 L8.15928287,12.7705179 L7.59832669,12.7705179 L7.59832669,12.2121912 Z M7.03737052,12.7705179 L7.59832669,12.7705179 L7.59832669,13.3288446 L7.03737052,13.3288446 L7.03737052,12.7705179 Z M7.03737052,15.5647809 L4.79442231,15.5647809 L4.79442231,18.3581673 L7.59920319,18.3581673 L7.59920319,15.5639044 L7.03824701,15.5639044 L7.03737052,15.5647809 Z M7.59832669,17.7998406 L5.35537849,17.7998406 L5.35537849,16.1231076 L7.03824701,16.1231076 L7.59920319,17.7989641 L7.59832669,17.7998406 Z M5.35450199,15.0055777 L6.47641434,15.0055777 L6.47641434,14.447251 L7.03737052,14.447251 L7.03737052,13.3297211 L6.47641434,13.3297211 L6.47641434,12.7705179 L5.91545817,12.7705179 L5.91545817,12.2121912 L5.35450199,12.2121912 L5.35450199,13.3297211 L4.79354582,13.3297211 L4.79354582,14.447251 L5.35450199,14.447251 L5.35450199,15.0055777 Z M7.59832669,13.3297211 L8.15928287,13.3297211 L8.15928287,13.8880478 L7.59832669,13.8880478 L7.59832669,13.3297211 Z M5.35450199,9.41880478 L5.91545817,9.41880478 L5.91545817,6.62366534 L3.11067729,6.62366534 L3.11067729,9.41792829 L5.35450199,9.41792829 L5.35450199,9.41880478 Z M3.67163347,8.8587251 L3.67163347,7.18286853 L5.35450199,7.18286853 L5.35450199,8.85784861 L3.67163347,8.8587251 Z M9.28119522,16.1239841 L9.84215139,16.1239841 L9.84215139,16.6823108 L9.28119522,16.6823108 L9.28119522,16.1239841 Z M5.91545817,11.6538645 L6.47641434,11.6538645 L6.47641434,12.2121912 L5.91545817,12.2121912 L5.91545817,11.6538645 Z M7.03649402,7.74119522 L7.5974502,7.74119522 L7.5974502,8.29952191 L7.03649402,8.29952191 L7.03649402,7.74119522 Z M7.59832669,15.0055777 L8.15928287,15.0055777 L8.15928287,14.447251 L7.03824701,14.447251 L7.03824701,15.0055777 L7.59832669,15.0055777 Z M8.72023904,8.30039841 L8.72023904,8.8587251 L9.28031873,8.8587251 L9.28031873,9.41880478 L9.28031873,8.30039841 L8.72023904,8.30039841 Z M7.66844622,2.77848606 L7.60446215,2.77848606 C7.55888446,2.77848606 7.51330677,2.77848606 7.46772908,2.77848606 C7.06103586,2.77848606 6.77266932,2.85561753 6.61314741,3.00900398 C6.50270916,3.11505976 6.44924303,3.27195219 6.44924303,3.48581673 C6.44924303,4.28517928 6.82613546,4.46135458 7.47737052,4.49553785 C8.02079681,4.52446215 9.29521912,4.51569721 10.125259,4.50605578 C9.77858412,3.9611292 9.30833771,3.50559676 8.75266932,3.17641434 C8.42194533,2.97368324 8.05382074,2.83954878 7.6701992,2.78199203 L7.66844622,2.77848606 Z M9.28031873,7.73768924 L9.8412749,7.73768924 L9.8412749,8.29601594 L9.28031873,8.29601594 L9.28031873,7.73768924 Z" id="Shape"></path>
            <path d="M8.73952191,5.43601594 C8.21888446,5.43601594 7.72804781,5.43075697 7.43003984,5.41498008 C7.08908367,5.39657371 6.64820717,5.34310757 6.26167331,5.08541833 C5.77346614,4.75936255 5.52629482,4.22119522 5.52629482,3.48494024 C5.51286443,3.05974993 5.6748178,2.64773548 5.97418327,2.34549801 C6.52374502,1.81960159 7.36517928,1.85027888 7.63952191,1.86167331 L7.67633466,1.86167331 C7.85163347,1.86167331 8.45115538,1.94932271 9.1663745,2.35163347 C9.84828685,2.73553785 10.4600797,3.21410359 10.925498,3.92318725 L10.9649402,3.99330677 L10.9649402,0 C4.90924303,0 0,4.88820717 0,10.9184861 C0,16.9487649 4.90836653,21.8404781 10.9649402,21.8404781 L10.9649402,5.45003984 C10.8431076,5.45003984 9.7098008,5.43426295 8.73952191,5.43426295 L8.73952191,5.43601594 Z M7.60007968,6.06533865 L8.72111554,6.06533865 L8.72111554,6.62366534 L7.59832669,6.62366534 L7.60007968,6.06533865 Z M3.67338645,9.97713147 L2.54884462,9.97713147 L2.54884462,6.06533865 L6.47553785,6.06533865 L6.47553785,9.97625498 L3.67338645,9.97713147 Z M9.28294821,18.9173705 L8.72199203,18.9173705 L8.72199203,17.7998406 L9.28645418,17.7998406 L9.28294821,18.9173705 Z M10.9666932,9.97713147 L10.4048606,9.97713147 L10.4048606,10.5354582 L10.9658167,10.5354582 L10.9658167,15.0055777 L10.4048606,15.0055777 L10.4048606,14.447251 L8.72111554,14.447251 L8.72111554,15.5639044 L9.28645418,15.5639044 L9.28645418,15.0055777 L9.84741036,15.0055777 L9.84741036,15.5639044 L10.4083665,15.5639044 L10.4083665,16.6814343 L9.84653386,16.6814343 L9.84653386,17.2423904 L10.9684462,17.2423904 L10.9684462,18.9156175 L10.40749,18.9156175 L10.40749,17.7998406 L9.84653386,17.7998406 L9.84653386,17.2415139 L8.72111554,17.2415139 L8.72111554,15.5639044 L8.15840637,15.5639044 L8.15840637,18.9156175 L4.23258964,18.9156175 L4.23258964,15.0055777 L4.79354582,15.0055777 L4.79354582,14.447251 L4.23258964,14.447251 L4.23258964,11.652988 L4.79354582,11.652988 L4.79354582,11.0937849 L4.23258964,11.0937849 L4.23258964,10.5354582 L4.79354582,10.5354582 L4.79354582,11.0937849 L5.35450199,11.0937849 L5.35450199,10.5354582 L6.47641434,10.5354582 L6.47641434,11.0937849 L7.03737052,11.0937849 L7.03737052,10.5354582 L8.72111554,10.5354582 L8.72111554,11.0937849 L7.03824701,11.0937849 L7.03824701,11.6521116 L8.15840637,11.6521116 L8.15840637,12.2130677 L8.72111554,12.2130677 L8.72111554,13.3288446 L9.28645418,13.3288446 L9.28645418,13.8871713 L10.4083665,13.8871713 L10.4083665,12.2121912 L9.84653386,12.2121912 L9.84653386,12.7705179 L9.28645418,12.7705179 L9.28645418,12.2121912 L9.84741036,12.2121912 L9.84741036,11.0937849 L10.4083665,11.0937849 L10.4083665,10.5354582 L10.9693227,10.5354582 L10.9693227,9.97625498 L10.9666932,9.97713147 Z M10.9666932,7.74207171 L10.4048606,7.74207171 L10.4048606,8.3012749 L9.84390438,8.3012749 L9.84390438,9.41880478 L10.4048606,9.41880478 L10.4048606,9.97713147 L9.84390438,9.97713147 L9.84390438,9.41880478 L9.28294821,9.41880478 L9.28294821,9.97713147 L8.72111554,9.97713147 L8.72111554,8.85784861 L8.15840637,8.85784861 L8.15840637,8.29952191 L7.5974502,8.29952191 L7.5974502,9.41792829 L8.15840637,9.41792829 L8.15840637,9.97800797 L7.5974502,9.97800797 L7.5974502,9.41792829 L7.03649402,9.41792829 L7.03649402,9.97800797 L6.47553785,9.97800797 L6.47553785,9.41792829 L7.03649402,9.41792829 L7.03649402,8.29952191 L6.47553785,8.29952191 L6.47553785,7.74119522 L7.03649402,7.74119522 L7.03649402,7.18286853 L6.47553785,7.18286853 L6.47553785,6.06533865 L7.03649402,6.06533865 L7.03649402,7.18286853 L7.5974502,7.18286853 L7.5974502,7.74119522 L8.15752988,7.74119522 L8.15752988,7.18286853 L8.72023904,7.18286853 L8.72023904,7.74119522 L9.28645418,7.74119522 L9.28645418,7.18111554 L8.72111554,7.18111554 L8.72111554,6.06533865 L9.28645418,6.06533865 L9.28645418,7.18286853 L9.84741036,7.18286853 L9.84741036,7.7438247 L10.4083665,7.7438247 L10.4083665,7.18286853 L10.9693227,7.18286853 L10.9693227,7.74119522 L10.9666932,7.74207171 Z M10.9666932,5.50701195 L9.84302789,5.50701195 L9.84302789,6.06533865 L10.9649402,6.06533865 L10.9649402,5.50701195 L10.9666932,5.50701195 Z M15.4543426,12.2121912 L15.4543426,11.652988 L14.8960159,11.652988 L14.8960159,13.3297211 L15.4569721,13.3297211 L15.4569721,12.7705179 L16.0179283,12.7705179 L16.0179283,12.2121912 L15.4543426,12.2121912 Z M16.574502,15.5639044 L14.3306773,15.5639044 L14.3306773,18.3572908 L17.1354582,18.3572908 L17.1354582,15.5639044 L16.574502,15.5639044 Z M17.1354582,17.7989641 L14.8960159,17.7989641 L14.8960159,16.1231076 L16.5788845,16.1231076 L17.1398406,17.7989641 L17.1354582,17.7989641 Z M13.7697211,7.74119522 L13.7697211,7.18286853 L13.2087649,7.18286853 L13.2087649,8.30039841 L14.3306773,8.30039841 L14.3306773,7.74119522 L13.7697211,7.74119522 Z M17.1354582,9.41880478 L18.8192032,9.41880478 L18.8192032,6.62366534 L16.0144223,6.62366534 L16.0144223,9.41792829 L17.1363347,9.41792829 L17.1354582,9.41880478 Z M16.574502,7.18374502 L18.256494,7.18374502 L18.256494,8.85784861 L16.574502,8.85784861 L16.574502,7.18374502 Z M14.3315538,4.52007968 C14.9827888,4.48589641 15.3596813,4.30972112 15.3596813,3.51035857 C15.3596813,3.29561753 15.3062151,3.13960159 15.1957769,3.03354582 C15.0204781,2.86438247 14.6856574,2.78812749 14.2053386,2.80653386 L14.1431076,2.80653386 C14.1115538,2.80653386 13.6540239,2.85649402 13.059761,3.20095618 C12.5041698,3.52948297 12.0339066,3.98443111 11.6871713,4.52884462 C12.5154582,4.53848606 13.790757,4.547251 14.3333068,4.51832669 L14.3315538,4.52007968 Z" id="Shape"></path>
            <path d="M10.9649402,0 L10.9649402,3.99418327 L11.0184064,3.86972112 C11.4429248,3.25840179 11.9983551,2.74938218 12.6443028,2.37968127 C13.3577689,1.97649402 13.9590438,1.88709163 14.1343426,1.88709163 L14.1702789,1.88709163 C14.447251,1.87657371 15.2878088,1.84414343 15.8356175,2.37091633 C16.0398406,2.5663745 16.283506,2.92310757 16.283506,3.51035857 C16.283506,4.24661355 16.0363347,4.78565737 15.5481275,5.11083665 C15.1615936,5.36940239 14.7198406,5.42199203 14.3788845,5.44039841 C14.0808765,5.4561753 13.5900398,5.46143426 13.0694024,5.46143426 C12.2297211,5.46143426 11.2734661,5.46143426 10.9658167,5.45442231 L10.9658167,7.74207171 L11.5258964,7.74207171 L11.5258964,6.06533865 L12.0912351,6.06533865 L12.0912351,7.18286853 L13.2131474,7.18286853 L13.2131474,6.06533865 L13.7741036,6.06533865 L13.7741036,7.18286853 L14.3350598,7.18286853 L14.3350598,7.74119522 L14.8960159,7.74119522 L14.8960159,7.18286853 L15.4569721,7.18286853 L15.4569721,6.62366534 L14.3350598,6.62366534 L14.3350598,6.06533865 L19.3836653,6.06533865 L19.3836653,9.97713147 L15.4569721,9.97713147 L15.4569721,8.85784861 L14.8960159,8.85784861 L14.8960159,8.29952191 L14.3350598,8.29952191 L14.3350598,9.41792829 L14.8960159,9.41792829 L14.8960159,9.97800797 L14.3350598,9.97800797 L14.3350598,9.41792829 L13.7741036,9.41792829 L13.7741036,9.97800797 L13.2131474,9.97800797 L13.2131474,8.85784861 L12.6521912,8.85784861 L12.6521912,9.97537849 L12.0912351,9.97537849 L12.0912351,8.85784861 L11.5302789,8.85784861 L11.5302789,8.30039841 L10.9701992,8.30039841 L10.9701992,8.85784861 L11.5302789,8.85784861 L11.5302789,9.97537849 L10.9701992,9.97537849 L10.9701992,10.5354582 L11.5311554,10.5354582 L11.5311554,12.2113147 L12.0912351,12.2113147 L12.0912351,13.3288446 L13.2131474,13.3288446 L13.2131474,13.8871713 L12.6521912,13.8871713 L12.6521912,14.4481275 L13.2131474,14.4481275 L13.2131474,15.0064542 L12.6521912,15.0064542 L12.6521912,14.4463745 L12.0912351,14.4463745 L12.0912351,13.8854183 L10.9693227,13.8854183 L10.9693227,16.6788048 L11.5302789,16.6788048 L11.5302789,15.0055777 L12.0912351,15.0055777 L12.0912351,16.6814343 L11.5302789,16.6814343 L11.5302789,17.2423904 L10.9701992,17.2423904 L10.9701992,21.8431076 C17.0258964,21.9211155 21.9351394,17.0311554 21.9351394,10.9991235 C21.9351394,4.96709163 17.0206375,0.0771314741 10.9649402,0 Z M16.0135458,10.5363347 L16.574502,10.5363347 L16.574502,11.0937849 L16.0135458,11.0937849 L16.0135458,10.5363347 Z M13.2087649,11.0946614 L13.7697211,11.0946614 L13.7697211,12.7705179 L13.2087649,12.7705179 L13.2087649,11.0937849 L13.2087649,11.0946614 Z M12.0912351,11.654741 L12.0912351,10.5363347 L12.6521912,10.5363347 L12.6521912,11.0937849 L12.0912351,11.654741 Z M12.6521912,13.3305976 L12.6521912,12.2121912 L13.2131474,12.2121912 L13.2131474,12.7705179 L12.6521912,13.3314741 L12.6521912,13.3305976 Z M17.7007968,15.0082072 L16.5788845,15.0082072 L16.5788845,14.447251 L17.7007968,14.447251 L17.7007968,15.0082072 Z M17.7007968,13.8906773 L16.5788845,13.8906773 L16.5788845,13.3297211 L16.0179283,13.3297211 L16.0179283,15.5639044 L17.7007968,15.5639044 L17.7007968,18.9156175 L13.2131474,18.9156175 L13.2131474,18.3581673 L13.7741036,18.3581673 L13.7741036,17.7998406 L13.2131474,17.7998406 L13.2131474,17.2415139 L12.6521912,17.2415139 L12.6521912,17.7998406 L12.0912351,17.7998406 L12.0912351,18.916494 L11.5302789,18.916494 L11.5302789,17.7998406 L12.0912351,17.7998406 L12.0912351,17.2415139 L12.6521912,17.2415139 L12.6521912,16.6805578 L13.2131474,16.6805578 L13.2131474,16.1239841 L12.6521912,16.1239841 L12.6521912,15.5639044 L13.2131474,15.5639044 L13.2131474,15.0064542 L13.7741036,15.0064542 L13.7741036,14.4481275 L15.4569721,14.4481275 L15.4569721,13.8871713 L13.7741036,13.8871713 L13.7741036,12.2121912 L14.3350598,12.2121912 L14.3350598,11.6512351 L14.8960159,11.6512351 L14.8960159,11.0937849 L14.3350598,11.0937849 L14.3350598,10.5354582 L14.8960159,10.5354582 L14.8960159,11.0937849 L15.4569721,11.0937849 L15.4569721,11.6521116 L16.0196813,11.6521116 L16.0196813,12.2130677 L17.1415936,12.2130677 L17.1415936,12.7713944 L17.7007968,12.7713944 L17.7007968,13.8889243 L17.7007968,13.8906773 Z M17.7007968,12.2139442 L17.1398406,12.2139442 L17.1398406,10.5363347 L17.7007968,10.5363347 L17.7007968,12.2139442 Z" id="Shape"></path>
            <polygon id="Shape" points="10.9649402 12.2121912 11.5250199 12.2121912 11.5250199 12.7705179 10.9649402 12.7705179"></polygon>
        </g>
    </g>
</svg>