<svg id="svg" xmlns="http://www.w3.org/2000/svg" xmlns:xlink="http://www.w3.org/1999/xlink" width="400" height="400" viewBox="0, 0, 400,400"><g id="svgg"><path id="path0" d="M166.364 30.019 C 33.338 54.613,-18.956 222.970,76.115 320.570 C 167.284 414.164,321.963 378.136,364.984 253.286 L 371.755 233.636 371.707 200.000 C 371.661 167.639,371.456 165.754,366.284 150.281 L 360.909 134.198 354.347 140.574 L 347.786 146.950 351.258 160.293 C 394.968 328.258,168.533 431.030,71.045 287.473 C -18.383 155.784,124.933 -8.803,268.849 60.311 L 287.698 69.363 292.940 64.342 C 299.892 57.681,299.824 57.500,287.647 50.364 C 253.545 30.377,206.821 22.539,166.364 30.019 M265.455 122.727 L 215.479 172.727 177.740 172.727 L 140.000 172.727 140.000 161.818 L 140.000 150.909 173.205 150.909 L 206.411 150.909 232.727 124.545 L 259.044 98.182 172.249 98.182 L 85.455 98.182 85.455 200.432 L 85.455 302.682 112.727 275.455 L 140.000 248.227 140.000 236.841 L 140.000 225.455 176.821 225.455 L 213.642 225.455 225.190 236.818 L 236.737 248.182 202.960 249.091 L 169.183 250.000 144.619 274.545 C 131.109 288.045,120.043 299.705,120.028 300.455 C 120.012 301.205,163.364 301.818,216.364 301.818 L 312.727 301.818 312.727 275.369 L 312.727 248.921 288.046 224.111 L 263.365 199.301 306.795 155.980 L 350.224 112.658 343.163 102.238 C 335.735 91.275,319.175 72.727,316.815 72.727 C 316.053 72.727,292.941 95.227,265.455 122.727 " stroke="none" fill="#000000" fill-rule="evenodd"></path></g></svg>