<svg height="32" viewBox="0 0 32 32" width="32" xmlns="http://www.w3.org/2000/svg" xmlns:xlink="http://www.w3.org/1999/xlink"><defs><linearGradient id="a" x1="50%" x2="50%" y1="0%" y2="100%"><stop offset="0" stop-color="#fff" stop-opacity=".5"/><stop offset="1" stop-opacity=".5"/></linearGradient><circle id="b" cx="16" cy="15" r="15"/><filter id="c" height="111.7%" width="111.7%" x="-5.8%" y="-4.2%"><feOffset dy=".5" in="SourceAlpha" result="shadowOffsetOuter1"/><feGaussianBlur in="shadowOffsetOuter1" result="shadowBlurOuter1" stdDeviation=".5"/><feComposite in="shadowBlurOuter1" in2="SourceAlpha" operator="out" result="shadowBlurOuter1"/><feColorMatrix in="shadowBlurOuter1" values="0 0 0 0 0   0 0 0 0 0   0 0 0 0 0  0 0 0 0.199473505 0"/></filter><path id="d" d="m19.3333333 7.83905542c1.9564631.88391884 3.4882947 2.52191468 4.2114515 4.53594458h-2.9249565c-.9221595-1.5692293-2.6457426-2.625-4.6198283-2.625-2.9455187 0-5.3333333 2.3505051-5.3333333 5.25s2.3878146 5.25 5.3333333 5.25c1.9740857 0 3.6976688-1.0557707 4.6198274-2.6249985l2.9249574-.0000015c-.7231568 2.0140299-2.2549884 3.6520257-4.2114515 4.5359446v3.3390554h-2.6666666v-2.6519547c-.2198223.0178516-.4421645.0269547-.6666667.0269547s-.4468444-.0091031-.6666667-.0269547v2.6519547h-2.6666666v-3.3390554c-2.75403987-1.2442595-4.6666667-3.9827331-4.6666667-7.1609446s1.91262683-5.91668508 4.6666667-7.16094458v-3.33905542h2.6666666v2.65195467c.2198223-.01785161.4421645-.02695467.6666667-.02695467s.4468444.00910306.6666667.02695467v-2.65195467h2.6666666zm-1.0234192 5.84844458h5.5794746c.0727462.4268361.1106113.8653152.1106113 1.3125s-.0378651.8856639-.1106113 1.3125h-5.5794746c-.4610792.7846143-1.322871 1.3125-2.3099141 1.3125-1.4727593 0-2.6666667-1.1752525-2.6666667-2.625s1.1939074-2.625 2.6666667-2.625c.9870431 0 1.8488349.5278857 2.3099141 1.3125z"/><filter id="e" height="116.7%" width="121.9%" x="-10.9%" y="-6%"><feOffset dy=".5" in="SourceAlpha" result="shadowOffsetOuter1"/><feGaussianBlur in="shadowOffsetOuter1" result="shadowBlurOuter1" stdDeviation=".5"/><feColorMatrix in="shadowBlurOuter1" values="0 0 0 0 0   0 0 0 0 0   0 0 0 0 0  0 0 0 0.204257246 0"/></filter></defs><g fill="none" fill-rule="evenodd"><g fill-rule="nonzero"><use fill="#000" filter="url(#c)" xlink:href="#b"/><use fill="#d8d8d8" fill-rule="evenodd" xlink:href="#b"/><use fill="url(#a)" fill-rule="evenodd" xlink:href="#b"/><circle cx="16" cy="15" r="14.5" stroke="#000" stroke-opacity=".097"/></g><use fill="#000" filter="url(#e)" xlink:href="#d"/><use fill="#fff" xlink:href="#d"/></g></svg>