<svg width="32" height="32" viewBox="0 0 32 32" xmlns="http://www.w3.org/2000/svg" xmlns:xlink="http://www.w3.org/1999/xlink"><defs><linearGradient x1="50%" y1="0%" x2="50%" y2="100%" id="c"><stop stop-color="#FFF" stop-opacity=".5" offset="0%"/><stop stop-opacity=".5" offset="100%"/></linearGradient><filter x="-5.8%" y="-4.2%" width="111.7%" height="111.7%" filterUnits="objectBoundingBox" id="a"><feOffset dy=".5" in="SourceAlpha" result="shadowOffsetOuter1"/><feGaussianBlur stdDeviation=".5" in="shadowOffsetOuter1" result="shadowBlurOuter1"/><feComposite in="shadowBlurOuter1" in2="SourceAlpha" operator="out" result="shadowBlurOuter1"/><feColorMatrix values="0 0 0 0 0 0 0 0 0 0 0 0 0 0 0 0 0 0 0.199473505 0" in="shadowBlurOuter1"/></filter><circle id="b" cx="16" cy="15" r="15"/></defs><g fill="none" fill-rule="evenodd"><use fill="#000" filter="url(#a)" xlink:href="#b"/><use fill="#2EBAC6" xlink:href="#b"/><use fill="url(#c)" style="mix-blend-mode:soft-light" xlink:href="#b"/><circle stroke-opacity=".097" stroke="#000" stroke-linejoin="square" cx="16" cy="15" r="14.5"/><path d="M22.934 20.574l-5.35-13.532C17.28 6.342 16.834 6 16.243 6h-.473c-.592 0-1.039.343-1.341 1.042l-2.327 5.896h-1.761c-.528.002-.956.448-.96 1v.014c.004.553.432.999.96 1.001h.946l-2.221 5.621a1.235 1.235 0 00-.066.384c0 .315.092.562.263.754.17.192.407.288.71.288a.933.933 0 00.552-.192c.17-.123.289-.302.38-.507l2.446-6.348h1.696c.527-.002.955-.449.96-1.001v-.027c-.005-.553-.433-1-.96-1.001h-.907l1.866-4.867L21.093 21.3c.092.205.21.384.381.507.161.122.354.19.553.192.302 0 .539-.096.71-.288.17-.192.262-.439.262-.754a.944.944 0 00-.065-.384z" fill="#FFF" fill-rule="nonzero"/></g></svg>