<?xml version="1.0" encoding="UTF-8"?>
<svg width="32px" height="32px" viewBox="0 0 32 32" version="1.1" xmlns="http://www.w3.org/2000/svg" xmlns:xlink="http://www.w3.org/1999/xlink">
    <!-- Generator: Sketch 52.5 (67469) - http://www.bohemiancoding.com/sketch -->
    <title>svg/icon/add</title>
    <desc>Created with Sketch.</desc>
    <defs>
        <linearGradient x1="50%" y1="0%" x2="50%" y2="100%" id="linearGradient-1">
            <stop stop-color="#FFFFFF" stop-opacity="0.5" offset="0%"></stop>
            <stop stop-color="#000000" stop-opacity="0.5" offset="100%"></stop>
        </linearGradient>
        <circle id="path-2" cx="15" cy="15" r="15"></circle>
        <filter x="-5.8%" y="-4.2%" width="111.7%" height="111.7%" filterUnits="objectBoundingBox" id="filter-3">
            <feOffset dx="0" dy="0.5" in="SourceAlpha" result="shadowOffsetOuter1"></feOffset>
            <feGaussianBlur stdDeviation="0.5" in="shadowOffsetOuter1" result="shadowBlurOuter1"></feGaussianBlur>
            <feComposite in="shadowBlurOuter1" in2="SourceAlpha" operator="out" result="shadowBlurOuter1"></feComposite>
            <feColorMatrix values="0 0 0 0 0   0 0 0 0 0   0 0 0 0 0  0 0 0 0.199473505 0" type="matrix" in="shadowBlurOuter1"></feColorMatrix>
        </filter>
    </defs>
    <g id="icon/add" stroke="none" stroke-width="1" fill="none" fill-rule="evenodd">
        <g id="Group" transform="translate(1.000000, 0.000000)" fill-rule="nonzero">
            <g id="Oval">
                <use fill="black" fill-opacity="1" filter="url(#filter-3)" xlink:href="#path-2"></use>
                <use fill="#FEC807" xlink:href="#path-2"></use>
                <use fill="url(#linearGradient-1)" style="mix-blend-mode: soft-light;" xlink:href="#path-2"></use>
                <circle stroke-opacity="0.0970052083" stroke="#000000" stroke-width="1" stroke-linejoin="square" cx="15" cy="15" r="14.5"></circle>
            </g>
        </g>
        <g id="add" transform="translate(9.000000, 3.000000)" fill="#FFFFFF">
            <path d="M16.212,13.0116 L11.508,13.0116 L10.668,10.4916 L16.2036,10.4916 C16.5979313,10.4916 16.9176,10.1719313 16.9176,9.7776 C16.9176,9.3832687 16.5979313,9.06360002 16.2036,9.0636 L10.2144,9.0636 L7.812,1.7388 C7.75134928,1.23695274 7.33382327,0.854292402 6.8286026,0.837521592 C6.32338194,0.820750782 5.88139819,1.17487968 5.7876,1.6716 L0.042,19.1436 C0.0267780931,19.2381915 0.0267780931,19.3346085 0.042,19.4292 C0.0503773892,19.9103051 0.411553245,20.3118895 0.889080263,20.3710522 C1.36660728,20.4302148 1.81486623,20.1289143 1.9404,19.6644 L6.762,4.9644 L8.1396,9.0636 L6.9468,9.0636 C6.69171236,9.06359999 6.45600166,9.19968762 6.32845784,9.42059999 C6.20091401,9.64151236 6.20091401,9.91368764 6.32845784,10.1346 C6.45600166,10.3555124 6.69171236,10.4916 6.9468,10.4916 L8.6268,10.4916 L9.4668,13.0116 L6.9468,13.0116 C6.55246869,13.0116 6.2328,13.3312687 6.2328,13.7256 C6.2328,14.1199313 6.55246869,14.4396 6.9468,14.4396 L9.9624,14.4396 L11.3232,18.4716 L4.1076,18.4716 C3.55089697,18.4716 3.0996,18.922897 3.0996,19.4796 C3.0996,20.036303 3.55089697,20.4876 4.1076,20.4876 L12.642,20.4876 C13.1708679,20.4876 13.5996,20.0588679 13.5996,19.53 C13.6001832,19.3848955 13.5686278,19.2414621 13.5072,19.11 L11.97,14.4396 L16.17,14.4396 C16.5643313,14.4396 16.884,14.1199313 16.884,13.7256 C16.884,13.3312687 16.5643313,13.0116 16.17,13.0116 L16.212,13.0116 Z" id="Path"></path>
        </g>
    </g>
</svg>