<svg height="32" viewBox="0 0 32 32" width="32" xmlns="http://www.w3.org/2000/svg" xmlns:xlink="http://www.w3.org/1999/xlink"><defs><linearGradient id="a" x1="50%" x2="50%" y1="0%" y2="100%"><stop offset="0" stop-color="#fff" stop-opacity=".5"/><stop offset="1" stop-opacity=".5"/></linearGradient><circle id="b" cx="16" cy="15" r="15"/><filter id="c" height="111.7%" width="111.7%" x="-5.8%" y="-4.2%"><feOffset dy=".5" in="SourceAlpha" result="shadowOffsetOuter1"/><feGaussianBlur in="shadowOffsetOuter1" result="shadowBlurOuter1" stdDeviation=".5"/><feComposite in="shadowBlurOuter1" in2="SourceAlpha" operator="out" result="shadowBlurOuter1"/><feColorMatrix in="shadowBlurOuter1" values="0 0 0 0 0   0 0 0 0 0   0 0 0 0 0  0 0 0 0.199473505 0"/></filter><path id="d" d="m9.752 10h.9042c1.4124.1340426 2.7192.8212766 3.6872 1.8106383 2.0086 2.0382979 3.113 4.9148936 5.6694 6.4319149 1.848 1.0978723 4.433.2 5.3416-1.6531915.462-.0085106.9262-.0085106 1.3882-.006383-.6358 1.8829787-2.4882 3.2361702-4.5144 3.4170213h-.7458c-1.2474-.1-2.4596-.5638298-3.4034-1.3659574-1.3706-1.1234043-2.2506-2.6638298-3.3154-4.0361703-.9152-1.2127659-1.8502-2.5765957-3.366-3.1276595-1.8722-.6787234-4.1602.3829787-4.8422 2.187234-.6006 1.4851064-.1122 3.3276596 1.2298 4.2787234 1.0054.7531915 2.4068 1.0340426 3.6146.5957447 1.342-.4680851 2.3386-1.5319149 3.102-2.6595745.3014.4170213.594.8404256.8844 1.2659575-1.188 1.4468085-2.8358 2.6893617-4.796 2.8617021h-.803c-2.4706-.1659574-4.6178-2.1957447-4.7872-4.593617v-.7851064c.1606-2.393617 2.2792-4.4468085 4.752-4.6212766zm11.6798 0h.7502c2.4926.1574468 4.6134 2.2276596 4.818 4.6255319v1.2297872c-2.057.019149-4.1162.006383-6.1732.0085107.0022-.3595745.0022-.7170213 0-1.0765958 1.6258-.0042553 3.2494.006383 4.873-.0042553-.1144-.6361702-.264-1.287234-.6534-1.8255319-.9504-1.4042553-2.959-1.9787234-4.565-1.3702128-1.2804.4595745-2.244 1.4659575-2.9876 2.5404256-.286-.3978724-.5698-.8-.8448-1.206383 1.1726-1.4680851 2.8094-2.7382979 4.7828-2.9212766z"/><filter id="e" height="135%" width="115.9%" x="-8%" y="-12.5%"><feOffset dy=".5" in="SourceAlpha" result="shadowOffsetOuter1"/><feGaussianBlur in="shadowOffsetOuter1" result="shadowBlurOuter1" stdDeviation=".5"/><feColorMatrix in="shadowBlurOuter1" values="0 0 0 0 0   0 0 0 0 0   0 0 0 0 0  0 0 0 0.204257246 0"/></filter></defs><g fill="none" fill-rule="evenodd"><use fill="#000" filter="url(#c)" xlink:href="#b"/><use fill="#de3f6b" xlink:href="#b"/><use fill="url(#a)" xlink:href="#b"/><circle cx="16" cy="15" r="14.5" stroke="#000" stroke-opacity=".097"/><g fill-rule="nonzero"><use fill="#000" filter="url(#e)" xlink:href="#d"/><use fill="#fff" fill-rule="evenodd" xlink:href="#d"/></g></g></svg>