<svg width="32" height="32" viewBox="0 0 32 32" xmlns="http://www.w3.org/2000/svg" xmlns:xlink="http://www.w3.org/1999/xlink"><defs><linearGradient x1="50%" y1="0%" x2="50%" y2="100%" id="c"><stop stop-color="#FFF" stop-opacity=".5" offset="0%"/><stop stop-opacity=".5" offset="100%"/></linearGradient><filter x="-5.8%" y="-4.2%" width="111.7%" height="111.7%" filterUnits="objectBoundingBox" id="a"><feOffset dy=".5" in="SourceAlpha" result="shadowOffsetOuter1"/><feGaussianBlur stdDeviation=".5" in="shadowOffsetOuter1" result="shadowBlurOuter1"/><feComposite in="shadowBlurOuter1" in2="SourceAlpha" operator="out" result="shadowBlurOuter1"/><feColorMatrix values="0 0 0 0 0 0 0 0 0 0 0 0 0 0 0 0 0 0 0.199473505 0" in="shadowBlurOuter1"/></filter><circle id="b" cx="15" cy="15" r="15"/></defs><g fill="none"><g transform="translate(1)"><use fill="#000" filter="url(#a)" xlink:href="#b"/><use fill="#134451" fill-rule="evenodd" xlink:href="#b"/><use fill="url(#c)" fill-rule="evenodd" style="mix-blend-mode:soft-light" xlink:href="#b"/><circle stroke-opacity=".097" stroke="#000" stroke-linejoin="square" cx="15" cy="15" r="14.5"/></g><g fill="#FFF"><path d="M14.18 15.293c-.451 0-.793.076-1.029.221-.228.14-.342.353-.342.635 0 .208.071.377.205.498.137.12.33.18.57.18.373 0 .683-.116.93-.345.248-.233.417-.558.5-.976l.039-.213h-.872zm4.787-1.972c-.138-.12-.33-.18-.57-.18-.373 0-.684.116-.931.345-.248.233-.417.558-.5.976l-.039.213.873-.004c.451 0 .793-.077 1.03-.221.227-.14.34-.354.34-.635 0-.209-.066-.373-.203-.494z"/><path d="M25.969 13.827c-.3-2.694-5.01-4.361-10.52-3.723-5.508.639-9.732 3.342-9.433 6.037.298 2.694 5.006 4.361 10.518 3.722 5.513-.638 9.733-3.34 9.435-6.036zm-5.765 1.35c-.558.397-1.371.594-2.44.598l-1.037.004-.032.149a.394.394 0 00-.015.1c-.004.02-.004.04-.004.056 0 .23.106.398.314.51.208.117.519.173.924.173.385 0 .754-.044 1.104-.124.345-.08.68-.201.998-.362l-.264 1.414a10.57 10.57 0 01-1.155.22 7.876 7.876 0 01-1.096.081c-.503 0-.92-.06-1.253-.189-.346-.132-.731-.421-.924-.835a4.22 4.22 0 01-1.218.811 3.34 3.34 0 01-1.32.27c-.574.003-1.026-.137-1.348-.414-.326-.278-.487-.663-.491-1.149-.004-.747.275-1.313.829-1.707.558-.397 1.371-.594 2.44-.598l1.037-.004.032-.149a.394.394 0 00.016-.1c.004-.02.004-.04.004-.056a.547.547 0 00-.315-.51c-.208-.117-.518-.173-.923-.173a4.94 4.94 0 00-1.104.124 4.4 4.4 0 00-.998.362l.263-1.414a10.57 10.57 0 011.155-.22 7.887 7.887 0 011.096-.081c.503 0 .92.06 1.254.189.346.132.73.421.923.835a4.22 4.22 0 011.218-.811c.417-.177.857-.27 1.32-.27.574-.003 1.026.137 1.348.414.326.277.487.663.491 1.149.004.743-.27 1.313-.829 1.707z"/><path d="M16.475 20.185a20.51 20.51 0 01-2.353.136c-1.823 0-3.529-.257-4.947-.759A8.01 8.01 0 017.5 18.76c-.193 1.016-.063 1.912.436 2.578 1.434 1.916 5.446 1.306 9.415-1.273-.291.044-.582.085-.877.12zm-.931-10.362c2.692-.313 5.285-.092 7.3.623a8.01 8.01 0 011.675.803c.192-1.016.063-1.912-.436-2.578-1.435-1.916-5.446-1.306-9.415 1.273.29-.048.585-.089.876-.12z"/><path d="M12.617 22.514a8.267 8.267 0 01-1.6.22c.405 1.073 1.038 1.824 1.875 2.105 2.02.68 4.633-1.546 6.483-5.229-.436.12-.888.23-1.344.322-1.807 1.277-3.693 2.18-5.414 2.582zm6.908-15.048a8.26 8.26 0 011.599-.213c-.401-1.072-1.03-1.827-1.867-2.112-2.015-.687-4.64 1.526-6.503 5.196.437-.12.888-.225 1.348-.313C15.91 8.751 17.8 7.86 19.525 7.466z"/></g></g></svg>