<svg width="32" height="32" viewBox="0 0 32 32" version="1.1" xmlns="http://www.w3.org/2000/svg" xmlns:xlink="http://www.w3.org/1999/xlink"><title>icon/aeon</title><desc>Created with Sketch.</desc><defs><linearGradient x1="50%" y1="0%" x2="50%" y2="100%" id="linearGradient-1"><stop stop-color="#FFF" stop-opacity=".5" offset="0%"/><stop stop-color="#000" stop-opacity=".5" offset="100%"/></linearGradient><circle id="path-2" cx="15" cy="15" r="15"/><filter x="-5.8%" y="-4.2%" width="111.7%" height="111.7%" filterUnits="objectBoundingBox" id="filter-3"><feOffset dx="0" dy=".5" in="SourceAlpha" result="shadowOffsetOuter1"/><feGaussianBlur stdDeviation=".5" in="shadowOffsetOuter1" result="shadowBlurOuter1"/><feComposite in="shadowBlurOuter1" in2="SourceAlpha" operator="out" result="shadowBlurOuter1"/><feColorMatrix values="0 0 0 0 0 0 0 0 0 0 0 0 0 0 0 0 0 0 0.199473505 0" type="matrix" in="shadowBlurOuter1"/></filter></defs><g id="icon/aeon" stroke="none" stroke-width="1" fill="none" fill-rule="evenodd"><g id="Group" transform="translate(1.000000, 0.000000)" fill-rule="nonzero"><g id="Oval"><use fill="#000" fill-opacity="1" filter="url(#filter-3)" xlink:href="#path-2"/><use fill="#134451" fill-rule="evenodd" xlink:href="#path-2"/><use fill="url(#linearGradient-1)" fill-rule="evenodd" style="mix-blend-mode:soft-light" xlink:href="#path-2"/><circle stroke-opacity=".097" stroke="#000" stroke-width="1" stroke-linejoin="square" cx="15" cy="15" r="14.5"/></g></g><g id="Aeon-(AEON)" transform="translate(6.000000, -7.000000)" fill="#FFF" fill-rule="nonzero"><g id="Group" transform="translate(0.000000, 12.000000)"><path d="M8.18074656,10.2931727 C7.72888016,10.2931727 7.3870334,10.3694779 7.15127701,10.5140562 C6.92337917,10.6546185 6.80943026,10.8674699 6.80943026,11.1485944 C6.80943026,11.3574297 6.88015717,11.5261044 7.01375246,11.6465863 C7.15127701,11.7670683 7.34381139,11.8273092 7.58349705,11.8273092 C7.956778,11.8273092 8.26719057,11.7108434 8.51473477,11.4819277 C8.76227898,11.248996 8.93123772,10.9236948 9.01375246,10.5060241 L9.05304519,10.2931727 L8.18074656,10.2931727 Z" id="Shape"/><path d="M12.9666012,8.32128514 C12.8290766,8.20080321 12.6365422,8.14056225 12.3968566,8.14056225 C12.0235756,8.14056225 11.7131631,8.25702811 11.4656189,8.48594378 C11.2180747,8.7188755 11.0491159,9.04417671 10.9666012,9.46184739 L10.9273084,9.6746988 L11.7996071,9.67068273 C12.2514735,9.67068273 12.5933202,9.59437751 12.8290766,9.4497992 C13.0569745,9.30923695 13.1709234,9.09638554 13.1709234,8.81526104 C13.1709234,8.6064257 13.1041257,8.44176707 12.9666012,8.32128514 Z" id="Shape"/><path d="M19.9685658,8.82730924 C19.6699411,6.13253012 14.9587426,4.46586345 9.44990177,5.10441767 C3.9410609,5.74297189 -0.282907662,8.44578313 0.0157170923,11.1405622 C0.314341847,13.8353414 5.021611,15.502008 10.5343811,14.8634538 C16.0471513,14.2248996 20.2671906,11.5220884 19.9685658,8.82730924 Z M14.2043222,10.1767068 C13.6463654,10.5742972 12.8330059,10.7710843 11.7642436,10.7751004 L10.7269155,10.7791165 L10.6954813,10.9277108 C10.6836935,10.9718876 10.6797642,11.0040161 10.6797642,11.0281124 C10.675835,11.0481928 10.675835,11.0682731 10.675835,11.0843373 C10.675835,11.313253 10.7819253,11.4819277 10.9901768,11.5943775 C11.1984283,11.7108434 11.5088409,11.7670683 11.913556,11.7670683 C12.2986248,11.7670683 12.6679764,11.7228916 13.0176817,11.6425703 C13.3634578,11.562249 13.697446,11.4417671 14.0157171,11.2811245 L13.7524558,12.6947791 C13.3555992,12.7911647 12.9744597,12.8674699 12.5972495,12.9156627 C12.2200393,12.9678715 11.8546169,12.9959839 11.5009823,12.9959839 C10.9980354,12.9959839 10.5815324,12.935743 10.2475442,12.8072289 C9.90176817,12.6746988 9.51669941,12.3855422 9.32416503,11.9718876 C8.93123772,12.3373494 8.52259332,12.6064257 8.10609037,12.7831325 C7.68958743,12.9598394 7.24950884,13.0522088 6.78585462,13.0522088 C6.21218075,13.0562249 5.76031434,12.9156627 5.43811395,12.6385542 C5.11198428,12.3614458 4.95088409,11.9759036 4.94695481,11.4899598 C4.94302554,10.7429719 5.22200393,10.1767068 5.77603143,9.78313253 C6.33398821,9.38554217 7.14734774,9.18875502 8.21611002,9.18473896 L9.25343811,9.18072289 L9.2848723,9.03212851 C9.29666012,8.98795181 9.30058939,8.95582329 9.30058939,8.93172691 C9.30451866,8.91164659 9.30451866,8.89156627 9.30451866,8.87550201 C9.30451866,8.64658635 9.19842829,8.47791165 8.99017682,8.36546185 C8.78192534,8.24899598 8.47151277,8.19277108 8.06679764,8.19277108 C7.68172888,8.19277108 7.31237721,8.23694779 6.96267191,8.31726908 C6.61689587,8.39759036 6.28290766,8.51807229 5.96463654,8.67871486 L6.22789784,7.26506024 C6.62475442,7.1686747 7.00589391,7.09236948 7.38310413,7.04417671 C7.76031434,6.99196787 8.12573674,6.96385542 8.47937132,6.96385542 C8.98231827,6.96385542 9.39882122,7.02409639 9.73280943,7.15261044 C10.0785855,7.28514056 10.4636542,7.57429719 10.6561886,7.98795181 C11.0491159,7.62248996 11.4577603,7.35341365 11.8742633,7.17670683 C12.2907662,7 12.7308448,6.90763052 13.194499,6.90763052 C13.7681729,6.90361446 14.2200393,7.04417671 14.5422397,7.32128514 C14.8683694,7.59839357 15.0294695,7.98393574 15.0333988,8.46987952 C15.0373281,9.21285141 14.762279,9.78313253 14.2043222,10.1767068 Z" id="Shape"/><path d="M10.475442,15.184739 C9.67779961,15.2771084 8.88801572,15.3212851 8.12180747,15.3212851 C6.29862475,15.3212851 4.59332024,15.064257 3.17485265,14.562249 C2.53045187,14.3333333 1.97249509,14.064257 1.50098232,13.7590361 C1.30844794,14.7751004 1.43811395,15.6706827 1.93713163,16.3373494 C3.37131631,18.253012 7.38310413,17.6425703 11.3516699,15.064257 C11.0609037,15.1084337 10.7701375,15.1485944 10.475442,15.184739 Z" id="Shape"/><path d="M9.54420432,4.82329317 C12.2357564,4.51004016 14.8290766,4.73092369 16.8447937,5.44578313 C17.4891945,5.6746988 18.0471513,5.9437751 18.518664,6.24899598 C18.7111984,5.23293173 18.5815324,4.3373494 18.0825147,3.67068273 C16.6483301,1.75502008 12.6365422,2.36546185 8.66797642,4.9437751 C8.95874263,4.89558233 9.25343811,4.85542169 9.54420432,4.82329317 Z" id="Shape"/><path d="M6.61689587,17.5140562 C6.04715128,17.6465863 5.51277014,17.7188755 5.01768173,17.7349398 C5.42239686,18.8072289 6.05500982,19.5582329 6.89194499,19.8393574 C8.91159136,20.5180723 11.524558,18.2931727 13.3752456,14.6104418 C12.9390963,14.7309237 12.4872299,14.8393574 12.0314342,14.9317269 C10.2239686,16.2088353 8.33791749,17.1124498 6.61689587,17.5140562 Z" id="Shape"/><path d="M13.524558,2.46586345 C14.0943026,2.3373494 14.6286837,2.26506024 15.1237721,2.25301205 C14.7229862,1.18072289 14.0943026,0.425702811 13.2573674,0.140562249 C11.2416503,-0.546184739 8.61689587,1.66666667 6.75442043,5.3373494 C7.19056974,5.21686747 7.64243615,5.1124498 8.1021611,5.02409639 C9.90962672,3.75100402 11.7996071,2.85943775 13.524558,2.46586345 Z" id="Shape"/></g></g></g></svg>