<svg width="32" height="32" viewBox="0 0 32 32" xmlns="http://www.w3.org/2000/svg" xmlns:xlink="http://www.w3.org/1999/xlink"><defs><linearGradient x1="50%" y1="0%" x2="50%" y2="100%" id="c"><stop stop-color="#FFF" stop-opacity=".5" offset="0%"/><stop stop-opacity=".5" offset="100%"/></linearGradient><circle id="b" cx="15" cy="15" r="15"/><filter x="-5.8%" y="-4.2%" width="111.7%" height="111.7%" filterUnits="objectBoundingBox" id="a"><feOffset dy=".5" in="SourceAlpha" result="shadowOffsetOuter1"/><feGaussianBlur stdDeviation=".5" in="shadowOffsetOuter1" result="shadowBlurOuter1"/><feComposite in="shadowBlurOuter1" in2="SourceAlpha" operator="out" result="shadowBlurOuter1"/><feColorMatrix values="0 0 0 0 0 0 0 0 0 0 0 0 0 0 0 0 0 0 0.199473505 0" in="shadowBlurOuter1"/></filter><linearGradient x1="50%" y1="0%" x2="50%" y2="143.239%" id="d"><stop stop-color="#FFF" offset="0%"/><stop stop-color="#FFF" stop-opacity=".83" offset="3%"/><stop stop-color="#FFF" stop-opacity=".66" offset="7%"/><stop stop-color="#FFF" stop-opacity=".5" offset="11%"/><stop stop-color="#FFF" stop-opacity=".37" offset="15%"/><stop stop-color="#FFF" stop-opacity=".25" offset="19%"/><stop stop-color="#FFF" stop-opacity=".16" offset="25%"/><stop stop-color="#FFF" stop-opacity=".09" offset="30%"/><stop stop-color="#FFF" stop-opacity=".04" offset="37%"/><stop stop-color="#FFF" stop-opacity=".01" offset="47%"/><stop stop-color="#FFF" stop-opacity="0" offset="100%"/></linearGradient></defs><g fill="none"><g transform="translate(1)"><use fill="#000" filter="url(#a)" xlink:href="#b"/><use fill="#051D2D" xlink:href="#b"/><use fill="url(#c)" style="mix-blend-mode:soft-light" xlink:href="#b"/><circle stroke-opacity=".097" stroke="#000" stroke-linejoin="square" cx="15" cy="15" r="14.5"/></g><g transform="translate(9 5)" fill="url(#d)"><path d="M6.993 13.986a6.993 6.993 0 1 1 6.993-6.993 7.002 7.002 0 0 1-6.993 6.993zM7 6.951A.049.049 0 1 0 7.049 7a.055.055 0 0 0-.05-.05z"/><path d="M6.993 20.986a6.993 6.993 0 1 1 6.993-6.993 7.002 7.002 0 0 1-6.993 6.993zM7 13.951a.049.049 0 1 0 .049.049.055.055 0 0 0-.05-.05z"/></g></g></svg>