<svg xmlns="http://www.w3.org/2000/svg" xmlns:xlink="http://www.w3.org/1999/xlink" width="32" height="32" viewBox="0 0 32 32"><defs><linearGradient id="c" x1="50%" x2="50%" y1="0%" y2="100%"><stop offset="0%" stop-color="#FFF" stop-opacity=".5"/><stop offset="100%" stop-opacity=".5"/></linearGradient><circle id="b" cx="16" cy="15" r="15"/><filter id="a" width="111.7%" height="111.7%" x="-5.8%" y="-4.2%" filterUnits="objectBoundingBox"><feOffset dy=".5" in="SourceAlpha" result="shadowOffsetOuter1"/><feGaussianBlur in="shadowOffsetOuter1" result="shadowBlurOuter1" stdDeviation=".5"/><feComposite in="shadowBlurOuter1" in2="SourceAlpha" operator="out" result="shadowBlurOuter1"/><feColorMatrix in="shadowBlurOuter1" values="0 0 0 0 0 0 0 0 0 0 0 0 0 0 0 0 0 0 0.199473505 0"/></filter><filter id="d" width="135%" height="117.5%" x="-17.5%" y="-6.2%" filterUnits="objectBoundingBox"><feOffset dy=".5" in="SourceAlpha" result="shadowOffsetOuter1"/><feGaussianBlur in="shadowOffsetOuter1" result="shadowBlurOuter1" stdDeviation=".5"/><feColorMatrix in="shadowBlurOuter1" result="shadowMatrixOuter1" values="0 0 0 0 0 0 0 0 0 0 0 0 0 0 0 0 0 0 0.204257246 0"/><feMerge><feMergeNode in="shadowMatrixOuter1"/><feMergeNode in="SourceGraphic"/></feMerge></filter></defs><g fill="none"><use fill="#000" filter="url(#a)" xlink:href="#b"/><use fill="#6916FF" fill-rule="evenodd" xlink:href="#b"/><use fill="url(#c)" fill-rule="evenodd" style="mix-blend-mode:soft-light" xlink:href="#b"/><circle cx="16" cy="15" r="14.5" stroke="#000" stroke-opacity=".097"/><g fill="#FFF" filter="url(#d)" transform="translate(11 5)"><path fill-opacity=".5" d="M6.144.424a.28.28 0 0 1-.082-.363.289.289 0 0 1 .313 0A5.63 5.63 0 0 1 8.25 1.333c.303.281.557.609.75.97.204.368.371.753.5 1.152.123.413.187.842.188 1.272-.063.425-.126 2.485-1.313 3.455A.714.714 0 0 1 7.437 8a.627.627 0 0 1-.062-.727A5.047 5.047 0 0 0 7.5 2C7.1 1.434 6.646.907 6.144.424zM4.3 19.006c.125.121.125.242.063.303-.063.06-.188.121-.25.06a5.63 5.63 0 0 1-1.876-1.272 3.709 3.709 0 0 1-.75-.97 6.463 6.463 0 0 1-.5-1.151A4.482 4.482 0 0 1 .8 14.703c.063-.424.125-2.485 1.312-3.455a.714.714 0 0 1 .938.182.539.539 0 0 1 0 .728 5.047 5.047 0 0 0-.125 5.272c.405.567.866 1.095 1.375 1.576z"/><path d="M9.694 14.006a5.473 5.473 0 0 0-1.313-3.151 10.816 10.816 0 0 0-2.625-1.94 14.466 14.466 0 0 1-2.375-1.642 4.032 4.032 0 0 1-1.187-2.121 4.243 4.243 0 0 1 .306-2.48A6.692 6.692 0 0 1 4.256.43.26.26 0 0 0 4.32.127a.242.242 0 0 0-.375-.06 5.577 5.577 0 0 0-2.438 2.06A5.01 5.01 0 0 0 .625 5.4a5.25 5.25 0 0 0 .438 1.697 6 6 0 0 0 1 1.455A10.78 10.78 0 0 0 4.75 10.43c.848.44 1.645.969 2.375 1.576a3.603 3.603 0 0 1 1.188 2.182c.176.879.066 1.79-.313 2.606a6.13 6.13 0 0 1-1.813 2.182.207.207 0 0 0-.063.303.242.242 0 0 0 .375.06 7.801 7.801 0 0 0 2.376-2.12 5.18 5.18 0 0 0 .819-3.213z"/></g></g></svg>