<svg height="32" viewBox="0 0 32 32" width="32" xmlns="http://www.w3.org/2000/svg" xmlns:xlink="http://www.w3.org/1999/xlink"><defs><linearGradient id="a" x1="50%" x2="50%" y1="0%" y2="100%"><stop offset="0" stop-color="#fff" stop-opacity=".5"/><stop offset="1" stop-opacity=".5"/></linearGradient><circle id="b" cx="16" cy="15" r="15"/><filter id="c" height="111.7%" width="111.7%" x="-5.8%" y="-4.2%"><feOffset dy=".5" in="SourceAlpha" result="shadowOffsetOuter1"/><feGaussianBlur in="shadowOffsetOuter1" result="shadowBlurOuter1" stdDeviation=".5"/><feComposite in="shadowBlurOuter1" in2="SourceAlpha" operator="out" result="shadowBlurOuter1"/><feColorMatrix in="shadowBlurOuter1" values="0 0 0 0 0   0 0 0 0 0   0 0 0 0 0  0 0 0 0.199473505 0"/></filter><filter id="d" height="117.5%" width="135%" x="-17.5%" y="-6.2%"><feOffset dy=".5" in="SourceAlpha" result="shadowOffsetOuter1"/><feGaussianBlur in="shadowOffsetOuter1" result="shadowBlurOuter1" stdDeviation=".5"/><feColorMatrix in="shadowBlurOuter1" result="shadowMatrixOuter1" values="0 0 0 0 0   0 0 0 0 0   0 0 0 0 0  0 0 0 0.204257246 0"/><feMerge><feMergeNode in="shadowMatrixOuter1"/><feMergeNode in="SourceGraphic"/></feMerge></filter></defs><g fill="none"><use fill="#000" filter="url(#c)" xlink:href="#b"/><use fill="#6916ff" fill-rule="evenodd" xlink:href="#b"/><use fill="url(#a)" fill-rule="evenodd" xlink:href="#b"/><circle cx="16" cy="15" r="14.5" stroke="#000" stroke-opacity=".097"/><g fill="#fff" filter="url(#d)" transform="translate(11 5)"><path d="m6.14375.42424242c-.11625773-.08494714-.15082324-.23964595-.08125-.36363636.09458194-.06128021.21791806-.06128021.3125 0 .70834226.29515799 1.34655108.7283664 1.875 1.27272727.30331435.28101863.55671958.60865367.75.96969697.20401349.36756377.3714371.7531454.5 1.15151515.12347004.41367331.18658307.84207692.1875 1.27272728-.0625.42424242-.125 2.48484848-1.3125 3.45454545-.31316265.18799977-.722994.10851733-.9375-.18181818-.17459557-.20630215-.19947371-.49579326-.0625-.72727273 1.02993235-1.60402005 1.07783184-3.62450767.125-5.27272727-.39950159-.56578979-.85363285-1.09342169-1.35625-1.57575758zm-1.84375 18.58181818c.125.1212121.125.2424242.0625.3030303s-.1875.1212121-.25.0606061c-.70834226-.295158-1.34655108-.7283664-1.875-1.2727273-.30331435-.2810186-.55671958-.6086537-.75-.969697-.20401349-.3675637-.3714371-.7531454-.5-1.1515151-.12347004-.4136733-.18658307-.8420769-.1875-1.2727273.0625-.4242424.125-2.4848485 1.3125-3.4545455.31316265-.1879997.722994-.1085173.9375.1818182.18818472.2080839.18818472.5191889 0 .7272728-1.02993235 1.60402-1.07783184 3.6245076-.125 5.2727272.40543033.5665952.86586374 1.0942545 1.375 1.5757576z" fill-opacity=".5"/><path d="m9.69375 14.0060606c-.08778674-1.1575444-.5467073-2.2594835-1.3125-3.1515151-.76783752-.7725451-1.65308658-1.42658191-2.625-1.93939398-.84672722-.46845741-1.64244042-1.01873052-2.375-1.64242425-.60808279-.5742473-1.02215792-1.31390304-1.1875-2.12121212-.14904259-.83755152-.04260238-1.69907879.30625-2.47878788.41409396-.86020187 1.01286473-1.62472747 1.75625-2.24242424.08521924-.07781673.11029911-.19941607.0625-.3030303-.03439401-.06441677-.09807546-.10935572-.17186316-.12128101-.07378771-.01192528-.14905717.01055695-.20313684.06067495-1.00298011.44071056-1.85050858 1.1571915-2.4375 2.06060606-.66705658.96284119-.97771999 2.11656217-.88125 3.27272727.04931462.58502448.19710396 1.15826798.4375 1.6969697.25909178.5291629.59592831 1.01910694 1 1.45454545.79072214.75671914 1.69724426 1.39045412 2.6875 1.87878785.84836614.4400009 1.64473731.9683747 2.375 1.5757576.64592685.5708698 1.06594719 1.3425819 1.1875 2.1818182.17604265.8791298.06687083 1.7895566-.3125 2.6060606-.42112403.8539637-1.04170642 1.600997-1.8125 2.1818182-.05120882.0309509-.08695869.0810392-.09879266.1384159-.01183396.0573768.00129918.1169455.03629266.1646144.03439401.0644167.09807546.1093557.17186316.121281.07378771.0119253.14905717-.010557.20313684-.060675.93404238-.5406928 1.74264954-1.2628938 2.375-2.1212121.6192161-.9586295.90610221-2.0841415.81875-3.2121212z"/></g></g></svg>