<svg height="32" viewBox="0 0 32 32" width="32" xmlns="http://www.w3.org/2000/svg" xmlns:xlink="http://www.w3.org/1999/xlink"><defs><linearGradient id="a" x1="50%" x2="50%" y1="0%" y2="100%"><stop offset="0" stop-color="#fff" stop-opacity=".5"/><stop offset="1" stop-opacity=".5"/></linearGradient><circle id="b" cx="16" cy="15" r="15"/><filter id="c" height="111.7%" width="111.7%" x="-5.8%" y="-4.2%"><feOffset dy=".5" in="SourceAlpha" result="shadowOffsetOuter1"/><feGaussianBlur in="shadowOffsetOuter1" result="shadowBlurOuter1" stdDeviation=".5"/><feComposite in="shadowBlurOuter1" in2="SourceAlpha" operator="out" result="shadowBlurOuter1"/><feColorMatrix in="shadowBlurOuter1" values="0 0 0 0 0   0 0 0 0 0   0 0 0 0 0  0 0 0 0.199473505 0"/></filter><filter id="d" height="115.9%" width="115.9%" x="-8%" y="-5.7%"><feOffset dy=".5" in="SourceAlpha" result="shadowOffsetOuter1"/><feGaussianBlur in="shadowOffsetOuter1" result="shadowBlurOuter1" stdDeviation=".5"/><feColorMatrix in="shadowBlurOuter1" result="shadowMatrixOuter1" values="0 0 0 0 0   0 0 0 0 0   0 0 0 0 0  0 0 0 0.204257246 0"/><feMerge><feMergeNode in="shadowMatrixOuter1"/><feMergeNode in="SourceGraphic"/></feMerge></filter></defs><g fill="none" fill-rule="nonzero"><g><use fill="#000" filter="url(#c)" xlink:href="#b"/><use fill="#00bfec" fill-rule="evenodd" xlink:href="#b"/><use fill="url(#a)" fill-rule="evenodd" xlink:href="#b"/><circle cx="16" cy="15" r="14.5" stroke="#000" stroke-opacity=".097"/></g><g fill="#fff" filter="url(#d)" transform="translate(5 4)"><path d="m10.9712739 18.1501392c-3.95677708 0-7.17606371-3.1987721-7.17606371-7.130367 0-3.93187347 3.21928663-7.13050638 7.17606371-7.13050638 3.9569172 0 7.1760637 3.19877215 7.1760637 7.13050638 0 3.9315949-3.2191465 7.130367-7.1760637 7.130367zm0-12.86401262c-3.1817325 0-5.77030575 2.57205064-5.77030575 5.73350632 0 3.1617342 2.58857325 5.7335063 5.77030575 5.7335063s5.7703057-2.5719114 5.7703057-5.7335063c0-3.16145568-2.5885732-5.73350632-5.7703057-5.73350632zm5.0246879-2.41498734c-1.5076306-.92024051-3.2450701-1.40660759-5.0246879-1.40660759-1.63444587 0-3.24801275.41451898-4.66666244 1.19844303l-.68340127-1.22072152c1.62701911-.89949367 3.47712102-1.37486075 5.35006371-1.37486075 2.0391337 0 4.031465.55779746 5.7609172 1.6132405zm2.0949044 16.50946836-.9085859-1.0661646c2.1638471-1.8211265 3.4049554-4.4796455 3.4049554-7.2948101h1.4060382c-.0001401 3.2263418-1.4224331 6.273481-3.9024077 8.3609747zm-7.1195923 2.5909873c-2.5570446 0-5.04878982-.8897468-7.01659874-2.5052152l.89583439-1.0767468c1.71628026 1.4092532 3.89007644 2.1852405 6.12076435 2.1852405 1.5598981 0 3.0473503-.3593797 4.4215796-1.0676962l.6472484 1.2402152c-1.5535923.8010506-3.3067261 1.2242025-5.068828 1.2242025z"/><path d="m20.3505605 8.4253038c-.3695159-1.32250633-1.0075159-2.53055696-1.8964841-3.59087342l.9003185-.74521519c.9958854 1.188 1.7108153 2.54211392 2.1248917 4.02488608zm-18.49008916 8.5511772c-1.17370701-1.7693291-1.79391083-3.8291139-1.79391083-5.9568481 0-2.96206328 1.18015287-5.7279367 3.32298089-7.78841771l.81484077.83697468c-1.91273886 1.83881013-2.96635669 4.30740507-2.96635669 6.95144303 0 1.898962.55350318 3.7374937 1.60067516 5.3159241z" opacity=".5"/></g></g></svg>