<svg xmlns="http://www.w3.org/2000/svg" version="1.1" id="svg1294" width="32" height="32"><defs id="defs1264"><linearGradient id="linear-gradient" x1="23.32" y1="82.13" x2="171.76" y2="82.13" gradientUnits="userSpaceOnUse" gradientTransform="translate(-2.967 .061) scale(.19445)"><stop offset="0" stop-color="#e168fd" id="stop1259"/><stop offset="1" stop-color="#7b00fc" id="stop1261"/></linearGradient><style id="style1257"></style></defs><path d="M16 32a4.498 4.498 0 01-2.244-.599L3.812 25.66a4.5 4.5 0 01-2.244-3.89V10.29a4.5 4.5 0 012.244-3.888L13.756.66a4.496 4.496 0 014.488 0l9.944 5.74a4.5 4.5 0 012.244 3.889v11.484a4.5 4.5 0 01-2.244 3.889l-9.944 5.742A4.498 4.498 0 0116 32zm0-30.383a2.917 2.917 0 00-1.466.389L4.59 7.752a2.934 2.934 0 00-1.465 2.538v11.484a2.94 2.94 0 001.465 2.528l9.944 5.75a2.934 2.934 0 002.928 0l9.946-5.743a2.934 2.934 0 001.465-2.527V10.29a2.934 2.934 0 00-1.465-2.538l-9.944-5.746A2.93 2.93 0 0016 1.617zm0 25.172a2.417 2.417 0 01-1.21-.325l-7.223-4.167a2.423 2.423 0 01-1.2-2.096v-8.34a2.427 2.427 0 011.2-2.096l7.224-4.17a2.425 2.425 0 012.42 0l7.222 4.17a2.427 2.427 0 011.21 2.096v8.34a2.425 2.425 0 01-1.21 2.096l-7.224 4.169A2.417 2.417 0 0116 26.79zm0-20.352a1.239 1.239 0 00-.626.168l-7.224 4.17a1.26 1.26 0 00-.616 1.086v8.34a1.258 1.258 0 00.628 1.085l7.222 4.169a1.252 1.252 0 001.252 0l7.224-4.17a1.26 1.26 0 00.626-1.084v-8.34a1.258 1.258 0 00-.628-1.085l-7.232-4.17A1.235 1.235 0 0016 6.44zm0 15.065a1.256 1.256 0 01-.62-.166l-3.666-2.113a1.246 1.246 0 01-.62-1.078v-4.23a1.24 1.24 0 01.62-1.074l3.666-2.116a1.24 1.24 0 011.24 0l3.666 2.116a1.24 1.24 0 01.62 1.073v4.231a1.246 1.246 0 01-.62 1.076l-3.666 2.115a1.256 1.256 0 01-.62.168zm0-10.166a.467.467 0 00-.231.06l-3.666 2.12a.463.463 0 00-.231.388v4.241a.469.469 0 00.231.4l3.666 2.128a.469.469 0 00.462 0l3.666-2.115a.467.467 0 00.23-.413v-4.23a.46.46 0 00-.23-.39l-3.666-2.127A.467.467 0 0016 11.34z" id="path1290" fill="url(#linear-gradient)" stroke-width=".194"/></svg>
