<svg xmlns="http://www.w3.org/2000/svg" xmlns:xlink="http://www.w3.org/1999/xlink" width="32" height="32" viewBox="0 0 32 32"><defs><filter id="a" width="111.7%" height="111.7%" x="-5.8%" y="-4.2%" filterUnits="objectBoundingBox"><feOffset dy=".5" in="SourceAlpha" result="shadowOffsetOuter1"/><feGaussianBlur in="shadowOffsetOuter1" result="shadowBlurOuter1" stdDeviation=".5"/><feComposite in="shadowBlurOuter1" in2="SourceAlpha" operator="out" result="shadowBlurOuter1"/><feColorMatrix in="shadowBlurOuter1" values="0 0 0 0 0 0 0 0 0 0 0 0 0 0 0 0 0 0 0.199473505 0"/></filter><filter id="d" width="115.9%" height="126.9%" x="-8%" y="-9.6%" filterUnits="objectBoundingBox"><feOffset dy=".5" in="SourceAlpha" result="shadowOffsetOuter1"/><feGaussianBlur in="shadowOffsetOuter1" result="shadowBlurOuter1" stdDeviation=".5"/><feColorMatrix in="shadowBlurOuter1" values="0 0 0 0 0 0 0 0 0 0 0 0 0 0 0 0 0 0 0.204257246 0"/></filter><linearGradient id="c" x1="50%" x2="50%" y1="0%" y2="100%"><stop offset="0%" stop-color="#FFF" stop-opacity=".5"/><stop offset="100%" stop-opacity=".5"/></linearGradient><circle id="b" cx="16" cy="15" r="15"/><path id="e" d="M27 15.015v.008a.522.522 0 01-.063.228c-.14.255-3.491 6.249-10.936 6.249S5.203 15.506 5.064 15.251A.522.522 0 015 15.023v-.045l.001-.023a.52.52 0 01.054-.189l.002-.004a.662.662 0 01.006-.012C5.203 14.494 8.555 8.5 16 8.5c7.445 0 10.797 5.995 10.936 6.25l.006.012.003.005a.52.52 0 01.053.188v.046l.002.014zM25.89 15c-.563-.874-2.679-3.793-6.515-4.967a6.07 6.07 0 012.437 3.63c.263.06.452.296.457.57a.594.594 0 01-.437.586.584.584 0 01-.665-.29.601.601 0 01.119-.724c-.494-2.223-2.322-3.94-4.574-4.239a.267.267 0 01-.05-.011 12.37 12.37 0 00-1.325 0 .268.268 0 01-.05.011 5.372 5.372 0 00-2.43.97.272.272 0 01-.417-.14.278.278 0 01.101-.308 5.02 5.02 0 01.073-.052C8.784 11.213 6.672 14.126 6.11 15c.557.867 2.64 3.74 6.41 4.935a6.037 6.037 0 01-2.375-3.77.597.597 0 01-.38-.626c.03-.273.24-.49.508-.525a.587.587 0 01.624.377.601.601 0 01-.212.703c.43 2.21 2.148 3.927 4.332 4.33a12.003 12.003 0 001.968 0 5.375 5.375 0 002.245-.992.27.27 0 01.272-.035.278.278 0 01.052.478l-.087.065c3.778-1.193 5.865-4.072 6.423-4.94zm-5.07.017c0 2.697-2.162 4.892-4.82 4.892-2.657 0-4.82-2.195-4.82-4.892 0-2.697 2.162-4.891 4.82-4.891 2.658 0 4.82 2.193 4.82 4.891zm-.544 0c0-2.392-1.918-4.339-4.276-4.339-2.358 0-4.277 1.946-4.277 4.34 0 2.392 1.919 4.338 4.277 4.338s4.276-1.946 4.276-4.339zm-2.7-1.343c0 .524-.259 1.012-.69 1.3l.43 2.627a.314.314 0 01-.317.379h-1.92a.315.315 0 01-.318-.379l.428-2.627a1.573 1.573 0 01-.573-1.894c.28-.689 1-1.081 1.72-.937.721.145 1.24.786 1.24 1.531zm4.347 2.043a6.041 6.041 0 01-1.51 3.368.27.27 0 01-.462-.1.28.28 0 01.06-.272 5.49 5.49 0 001.372-3.06.274.274 0 01.301-.242c.15.018.256.155.239.306zm-9.87-4.868a.278.278 0 01.01.39 5.49 5.49 0 00-1.423 2.97.274.274 0 01-.31.231.276.276 0 01-.229-.313 6.04 6.04 0 011.567-3.267.27.27 0 01.385-.01z"/></defs><g fill="none"><use fill="#000" filter="url(#a)" xlink:href="#b"/><use fill="#3C5BE0" fill-rule="evenodd" xlink:href="#b"/><use fill="url(#c)" fill-rule="evenodd" style="mix-blend-mode:soft-light" xlink:href="#b"/><circle cx="16" cy="15" r="14.5" stroke="#000" stroke-opacity=".097"/><use fill="#000" filter="url(#d)" xlink:href="#e"/><use fill="#FFF" fill-rule="evenodd" xlink:href="#e"/></g></svg>