<svg width="32" height="32" viewBox="0 0 32 32" xmlns="http://www.w3.org/2000/svg" xmlns:xlink="http://www.w3.org/1999/xlink"><defs><filter x="-5.8%" y="-4.2%" width="111.7%" height="111.7%" filterUnits="objectBoundingBox" id="a"><feOffset dy=".5" in="SourceAlpha" result="shadowOffsetOuter1"/><feGaussianBlur stdDeviation=".5" in="shadowOffsetOuter1" result="shadowBlurOuter1"/><feComposite in="shadowBlurOuter1" in2="SourceAlpha" operator="out" result="shadowBlurOuter1"/><feColorMatrix values="0 0 0 0 0 0 0 0 0 0 0 0 0 0 0 0 0 0 0.199473505 0" in="shadowBlurOuter1"/></filter><filter x="-10.3%" y="-7.4%" width="120.6%" height="120.6%" filterUnits="objectBoundingBox" id="d"><feOffset dy=".5" in="SourceAlpha" result="shadowOffsetOuter1"/><feGaussianBlur stdDeviation=".5" in="shadowOffsetOuter1" result="shadowBlurOuter1"/><feColorMatrix values="0 0 0 0 0 0 0 0 0 0 0 0 0 0 0 0 0 0 0.204257246 0" in="shadowBlurOuter1"/></filter><linearGradient x1="50%" y1="0%" x2="50%" y2="100%" id="c"><stop stop-color="#FFF" stop-opacity=".5" offset="0%"/><stop stop-opacity=".5" offset="100%"/></linearGradient><circle id="b" cx="16" cy="15" r="15"/><path d="M7.511 22.25a6.278 6.278 0 01-.002-.709c.08-.024.162-.04.246-.05.242-.041.481-.097.717-.167.064-.02.128-.042.19-.066.31-.119.584-.315.792-.569.144-.177.27-.368.378-.57.152-.276.287-.561.406-.853.241-.588.481-1.178.72-1.769l2.459-6.093c.777-1.931 1.54-3.867 2.287-5.809.015-.04.032-.078.049-.118.276-.076.548-.154.83-.227.016.04.032.074.045.11l.95 2.601a919.58 919.58 0 003.273 8.854c.304.805.61 1.61.919 2.412.122.328.265.648.429.958a5 5 0 00.234.387c.257.392.656.675 1.117.791.248.065.5.114.754.147l.181.026c.026.079.01.155.012.23.003.076 0 .16 0 .241.003.078.001.155-.004.233-.026.004-.046.008-.066.01h-6.363a.16.16 0 01-.014-.043v-.639a.134.134 0 01.008-.028.955.955 0 01.161-.03c.262-.033.52-.083.776-.148.102-.028.203-.064.303-.1.05-.02.098-.043.144-.07.251-.138.352-.354.33-.63a2.086 2.086 0 00-.067-.37c-.05-.19-.12-.373-.186-.557a1449.129 1449.129 0 01-3.911-10.82c-.014-.04-.018-.083-.059-.118-.013.008-.03.014-.04.025a.246.246 0 00-.024.058c-.63 1.776-1.301 3.538-1.97 5.3-.493 1.306-.987 2.61-1.447 3.927a84.001 84.001 0 00-.535 1.59 3.728 3.728 0 00-.15.623 1.49 1.49 0 00-.012.427.667.667 0 00.276.466c.102.071.214.128.332.167.188.065.382.114.579.146.217.039.436.069.654.103l.047.008a.205.205 0 01.01.048v.618a.193.193 0 01-.008.036.563.563 0 01-.059.01H7.511v.001z" id="e"/></defs><g fill="none" fill-rule="evenodd"><use fill="#000" filter="url(#a)" xlink:href="#b"/><use fill="#000" xlink:href="#b"/><use fill="url(#c)" style="mix-blend-mode:soft-light" xlink:href="#b"/><circle stroke-opacity=".097" stroke="#000" stroke-linejoin="square" cx="16" cy="15" r="14.5"/><g fill-rule="nonzero"><use fill="#000" filter="url(#d)" xlink:href="#e"/><use fill="#FFF" xlink:href="#e"/></g></g></svg>