<svg width="32" height="32" viewBox="0 0 32 32" version="1.1" xmlns="http://www.w3.org/2000/svg" xmlns:xlink="http://www.w3.org/1999/xlink"><title>svg/icon/arg</title><desc>Created with Sketch.</desc><defs><linearGradient x1="50%" y1="0%" x2="50%" y2="100%" id="linearGradient-1"><stop stop-color="#FFF" stop-opacity=".5" offset="0%"/><stop stop-color="#000" stop-opacity=".5" offset="100%"/></linearGradient><circle id="path-2" cx="15" cy="15" r="15"/><filter x="-5.8%" y="-4.2%" width="111.7%" height="111.7%" filterUnits="objectBoundingBox" id="filter-3"><feOffset dx="0" dy=".5" in="SourceAlpha" result="shadowOffsetOuter1"/><feGaussianBlur stdDeviation=".5" in="shadowOffsetOuter1" result="shadowBlurOuter1"/><feComposite in="shadowBlurOuter1" in2="SourceAlpha" operator="out" result="shadowBlurOuter1"/><feColorMatrix values="0 0 0 0 0 0 0 0 0 0 0 0 0 0 0 0 0 0 0.199473505 0" type="matrix" in="shadowBlurOuter1"/></filter></defs><g id="icon/arg" stroke="none" stroke-width="1" fill="none" fill-rule="evenodd"><g id="Group" transform="translate(1.000000, 0.000000)" fill-rule="nonzero"><g id="Oval"><use fill="#000" fill-opacity="1" filter="url(#filter-3)" xlink:href="#path-2"/><use fill="#A71435" xlink:href="#path-2"/><use fill="url(#linearGradient-1)" style="mix-blend-mode:soft-light" xlink:href="#path-2"/><circle stroke-opacity=".097" stroke="#000" stroke-width="1" stroke-linejoin="square" cx="15" cy="15" r="14.5"/></g></g><g id="Argentum-(ARG)" transform="translate(5.000000, 4.000000)" fill="#FFF" fill-rule="nonzero"><path d="M6.19212389,1.14185841 C10.8638246,-1.17486738 16.521279,0.127160603 19.710269,4.25297552 C22.8992589,8.37879043 22.7335208,14.1817723 19.3142478,18.1188496 C18.769115,16.9312389 18.350531,15.6852212 17.8832743,14.4586726 L15.0602655,7.06044248 C14.7876991,6.31088496 14.330177,5.59053097 13.6195575,5.20115044 C12.6248464,4.72177068 11.5100651,4.54896263 10.4169027,4.70469027 C9.54079646,4.8020354 8.62575221,5.10380531 8.0319469,5.79495575 C7.46734513,6.44716814 7.21424779,7.28433628 6.89300885,8.07283186 L4.85849558,13.2321239 C4.17707965,14.8675221 3.60274336,16.5613274 2.86292035,18.1869912 C1.79717119,17.0361864 1.01396358,15.6530751 0.575309735,14.1471681 C-0.989873078,9.01630871 1.3918907,3.50693471 6.20185841,1.13212389 L6.19212389,1.14185841 Z" id="Shape"/><path d="M10.2611504,8.59849558 C10.4558407,8.01442478 11.2346018,7.81973451 11.7407965,8.15070796 C12.0133628,8.35513274 12.110708,8.70557522 12.2372566,9.01707965 C13.5027434,12.3268142 14.7487611,15.6560177 16.0045133,18.9754867 C16.17,19.4524779 16.4133628,19.91 16.510708,20.4064602 C16.4311783,20.4911901 16.339282,20.5633943 16.2381416,20.6206195 C13.4595461,22.1070571 10.175936,22.3269101 7.2239823,21.2241593 C6.67884956,21.0002655 6.11424779,20.8055752 5.63725664,20.4648673 C5.6859292,20.0170796 5.90982301,19.6179646 6.07530973,19.209115 C7.47707965,15.6754867 8.84964602,12.1321239 10.2611504,8.59849558 Z" id="Shape"/></g></g></svg>