<svg width="32" height="33" viewBox="0 0 32 33" fill="none" xmlns="http://www.w3.org/2000/svg">
<g clip-path="url(#clip0)">
<path d="M16.0001 0.928284C24.8366 0.928284 32.0001 8.09171 32.0001 16.9283C32.0001 25.7649 24.8366 32.9283 16.0001 32.9283C7.16349 32.9283 6.10352e-05 25.7649 6.10352e-05 16.9283C6.10352e-05 8.09171 7.16349 0.928284 16.0001 0.928284Z" fill="white"/>
<path d="M16.0001 0.928284C7.16166 0.928284 6.10352e-05 8.08988 6.10352e-05 16.9283C6.10352e-05 25.7667 7.16166 32.9283 16.0001 32.9283C24.8385 32.9283 32.0001 25.7667 32.0001 16.9283C32.0001 8.08988 24.8385 0.928284 16.0001 0.928284ZM8.77766 12.7923C8.77766 10.8147 10.3809 9.22268 12.3713 9.22268H16.4705H20.5697C21.5073 9.22268 22.4081 9.59068 23.0769 10.2483L18.8817 12.3587H13.1057C12.4545 12.3587 11.9361 12.8291 11.9361 13.3955V15.9635L8.78886 17.6035V12.7923H8.77766ZM24.1265 18.1347C24.1265 20.1123 22.5233 21.7043 20.5569 21.7043H11.9249V24.7555C11.9249 25.2739 11.5393 25.6963 11.0801 25.8051L10.0065 25.8291H8.77606V20.5235L12.8881 18.3779H19.7969C20.4481 18.3779 20.9905 17.9075 20.9905 17.3283V14.1907L24.1249 12.6115L24.1265 18.1347Z" fill="url(#paint0_linear)"/>
</g>
<defs>
<linearGradient id="paint0_linear" x1="6.10352e-05" y1="16.9283" x2="32.0001" y2="16.9283" gradientUnits="userSpaceOnUse">
<stop stop-color="#B38C30"/>
<stop offset="1" stop-color="#F2DE98"/>
</linearGradient>
<clipPath id="clip0">
<rect width="32" height="32" fill="white" transform="translate(6.10352e-05 0.928284)"/>
</clipPath>
</defs>
</svg>
