<svg height="32" viewBox="0 0 32 32" width="32" xmlns="http://www.w3.org/2000/svg" xmlns:xlink="http://www.w3.org/1999/xlink"><defs><linearGradient id="a" x1="50%" x2="50%" y1="0%" y2="100%"><stop offset="0" stop-color="#fff" stop-opacity=".5"/><stop offset="1" stop-opacity=".5"/></linearGradient><circle id="b" cx="16" cy="15" r="15"/><filter id="c" height="111.7%" width="111.7%" x="-5.8%" y="-4.2%"><feOffset dy=".5" in="SourceAlpha" result="shadowOffsetOuter1"/><feGaussianBlur in="shadowOffsetOuter1" result="shadowBlurOuter1" stdDeviation=".5"/><feComposite in="shadowBlurOuter1" in2="SourceAlpha" operator="out" result="shadowBlurOuter1"/><feColorMatrix in="shadowBlurOuter1" values="0 0 0 0 0   0 0 0 0 0   0 0 0 0 0  0 0 0 0.199473505 0"/></filter><path id="d" d="m23.9167628 20.1103303c.3595816-.1264933.5951696-.4680253.5703709-.8601546v1.1004919c0 .37948-.235588.7336613-.5951696.8601546l-7.5884131 2.7322558c-.1859905.075896-.3967797.075896-.5951696 0l-7.58841302-2.7322558c-.35958166-.1264933-.59516964-.4680253-.59516964-.8601546v-1.1004919c0 .37948.23558798.7336613.59516964.8601546l7.61321172 2.7322558c.1859905.075896.3967798.075896.5951697 0zm0-1.9479972c.3595816-.1391427.5951696-.4806746.5703709-.8601546v1.1004919c0 .37948-.235588.7336613-.5951696.8601546l-7.5884131 2.7322558c-.1859905.075896-.3967797.075896-.5951696 0l-7.58841302-2.7322558c-.35958166-.1264933-.59516964-.4680253-.59516964-.8601546v-1.1131412c0 .3921293.23558798.7336612.59516964.8728039l7.61321172 2.7322558c.1859905.075896.3967798.075896.5951697 0zm0-1.9606465c.3595816-.1264933.5951696-.4806747.5827703-.8475053v1.1004919c0 .37948-.235588.7336613-.5951697.8601546l-7.588413 2.7322558c-.1859905.075896-.3967798.075896-.5951696 0l-7.60081242-2.7449051c-.35958166-.1264933-.59516964-.4680253-.59516964-.8601546v-1.1004919c0 .3794799.23558798.7336613.59516964.8601546l7.61321172 2.7322558c.1859905.075896.3967798.075896.5951697 0zm-16.4167628-6.53970487c0-.39212931.23558799-.73366128.59516965-.8601546l7.60081235-2.74490513c.1859905-.075896.3967798-.075896.5951697 0l7.6008124 2.74490513c.3595816.12649332.5951696.46802529.5951696.8601546v4.83204497c0 .37948-.235588.7336613-.5951696.8601546l-7.6132118 2.7322558c-.1859905.075896-.3967798.075896-.5951696 0l-7.58841305-2.7322558c-.35958166-.1264933-.59516965-.4680253-.59516965-.8601546z"/><filter id="e" height="119.4%" width="120.6%" x="-10.3%" y="-6.9%"><feOffset dy=".5" in="SourceAlpha" result="shadowOffsetOuter1"/><feGaussianBlur in="shadowOffsetOuter1" result="shadowBlurOuter1" stdDeviation=".5"/><feColorMatrix in="shadowBlurOuter1" values="0 0 0 0 0   0 0 0 0 0   0 0 0 0 0  0 0 0 0.204257246 0"/></filter></defs><g fill="none" fill-rule="nonzero"><g><use fill="#000" filter="url(#c)" xlink:href="#b"/><use fill="#343434" fill-rule="evenodd" xlink:href="#b"/><use fill="url(#a)" fill-rule="evenodd" xlink:href="#b"/><circle cx="16" cy="15" r="14.5" stroke="#000" stroke-opacity=".097"/></g><g><use fill="#000" filter="url(#e)" xlink:href="#d"/><use fill="#fff" fill-rule="evenodd" xlink:href="#d"/></g></g></svg>