<svg width="32" height="32" viewBox="0 0 32 32" xmlns="http://www.w3.org/2000/svg" xmlns:xlink="http://www.w3.org/1999/xlink"><defs><path id="d" d="M2.5 4.938L0 0h5z"/><path d="M8.5 6.498L4.03 15.99c-.148.304-.225.55-.55.55l-2.953.002c-.423 0-.657-.109-.451-.55L7.296.447C7.445.19 7.537 0 7.862 0H9.14c.325 0 .417.19.565.448l7.22 15.544c.206.442-.028.551-.451.551l-2.953-.001c-.325 0-.402-.247-.55-.551L8.5 6.498z" id="e"/><linearGradient x1="50%" y1="0%" x2="50%" y2="100%" id="c"><stop stop-color="#FFF" stop-opacity=".5" offset="0%"/><stop stop-opacity=".5" offset="100%"/></linearGradient><filter x="-5.8%" y="-4.2%" width="111.7%" height="111.7%" filterUnits="objectBoundingBox" id="a"><feOffset dy=".5" in="SourceAlpha" result="shadowOffsetOuter1"/><feGaussianBlur stdDeviation=".5" in="shadowOffsetOuter1" result="shadowBlurOuter1"/><feComposite in="shadowBlurOuter1" in2="SourceAlpha" operator="out" result="shadowBlurOuter1"/><feColorMatrix values="0 0 0 0 0 0 0 0 0 0 0 0 0 0 0 0 0 0 0.199473505 0" in="shadowBlurOuter1"/></filter><circle id="b" cx="16" cy="15" r="15"/></defs><g fill="none" fill-rule="evenodd"><use fill="#000" filter="url(#a)" xlink:href="#b"/><use fill="#31FAFB" xlink:href="#b"/><use fill="url(#c)" style="mix-blend-mode:soft-light" xlink:href="#b"/><circle stroke-opacity=".097" stroke="#000" stroke-linejoin="square" cx="16" cy="15" r="14.5"/><g fill="#FFF"><use xlink:href="#d" transform="translate(13.5 20.312)"/><use xlink:href="#e" transform="translate(7.5 5.25)"/></g></g></svg>