<svg xmlns="http://www.w3.org/2000/svg" xmlns:xlink="http://www.w3.org/1999/xlink" width="32" height="32" viewBox="0 0 32 32"><defs><linearGradient id="atm-c" x1="50%" x2="50%" y1="0%" y2="100%"><stop offset="0%" stop-color="#FFF" stop-opacity=".5"/><stop offset="100%" stop-opacity=".5"/></linearGradient><circle id="atm-b" cx="16" cy="15" r="15"/><filter id="atm-a" width="111.7%" height="111.7%" x="-5.8%" y="-4.2%" filterUnits="objectBoundingBox"><feOffset dy=".5" in="SourceAlpha" result="shadowOffsetOuter1"/><feGaussianBlur in="shadowOffsetOuter1" result="shadowBlurOuter1" stdDeviation=".5"/><feComposite in="shadowBlurOuter1" in2="SourceAlpha" operator="out" result="shadowBlurOuter1"/><feColorMatrix in="shadowBlurOuter1" values="0 0 0 0 0 0 0 0 0 0 0 0 0 0 0 0 0 0 0.199473505 0"/></filter><filter id="atm-d" width="142.3%" height="129.5%" x="-21.2%" y="-10.2%" filterUnits="objectBoundingBox"><feOffset dy=".5" in="SourceAlpha" result="shadowOffsetOuter1"/><feGaussianBlur in="shadowOffsetOuter1" result="shadowBlurOuter1" stdDeviation=".5"/><feColorMatrix in="shadowBlurOuter1" result="shadowMatrixOuter1" values="0 0 0 0 0 0 0 0 0 0 0 0 0 0 0 0 0 0 0.104987545 0"/><feMerge><feMergeNode in="shadowMatrixOuter1"/><feMergeNode in="SourceGraphic"/></feMerge></filter><path id="atm-f" d="M8.87804878,15.5959806 L8.87804878,17.6312057 C8.87804878,20.0440242 6.92207294,22 4.50925445,22 L4.36879433,22 C1.95597584,22 1.98359273e-13,20.0440242 1.98063788e-13,17.6312057 L1.98063788e-13,10.7659574 C1.97778447e-13,8.43597874 1.82397168,6.53201144 4.12195122,6.40401938 L4.12195122,4.36879433 C4.12195122,1.95597584 6.07792706,4.43227565e-16 8.49074555,0 L8.63120567,0 C11.0440242,-4.43227565e-16 13,1.95597584 13,4.36879433 L13,11.2340426 C13,13.5640213 11.1760283,15.4679886 8.87804878,15.5959806 Z M8.87804878,15.5959806 L8.87804878,10.7659574 C8.87804878,8.35313897 6.92207294,6.39716312 4.50925445,6.39716312 L4.36879433,6.39716312 C4.28595456,6.39716312 4.2036533,6.39946876 4.12195122,6.40401938 L4.12195122,11.2340426 C4.12195122,13.646861 6.07792706,15.6028369 8.49074555,15.6028369 L8.63120567,15.6028369 C8.71404544,15.6028369 8.7963467,15.6005312 8.87804878,15.5959806 Z"/><filter id="atm-e" width="126.9%" height="115.9%" x="-13.5%" y="-5.7%" filterUnits="objectBoundingBox"><feOffset dy=".5" in="SourceAlpha" result="shadowOffsetOuter1"/><feGaussianBlur in="shadowOffsetOuter1" result="shadowBlurOuter1" stdDeviation=".5"/><feColorMatrix in="shadowBlurOuter1" values="0 0 0 0 0 0 0 0 0 0 0 0 0 0 0 0 0 0 0.204257246 0"/></filter></defs><g fill="none" fill-rule="evenodd"><use fill="#000" filter="url(#atm-a)" xlink:href="#atm-b"/><use fill="#346FCE" xlink:href="#atm-b"/><use fill="url(#atm-c)" style="mix-blend-mode:soft-light" xlink:href="#atm-b"/><circle cx="16" cy="15" r="14.5" stroke="#000" stroke-opacity=".097"/><g filter="url(#atm-d)" transform="rotate(-28 18.75 -5.975)"><use fill="#000" filter="url(#atm-e)" xlink:href="#atm-f"/><use fill="#FFF" xlink:href="#atm-f"/></g></g></svg>