<svg width="32" height="32" viewBox="0 0 32 32" xmlns="http://www.w3.org/2000/svg" xmlns:xlink="http://www.w3.org/1999/xlink"><defs><linearGradient x1="50%" y1="0%" x2="50%" y2="100%" id="c"><stop stop-color="#FFF" stop-opacity=".5" offset="0%"/><stop stop-opacity=".5" offset="100%"/></linearGradient><filter x="-5.8%" y="-4.2%" width="111.7%" height="111.7%" filterUnits="objectBoundingBox" id="a"><feOffset dy=".5" in="SourceAlpha" result="shadowOffsetOuter1"/><feGaussianBlur stdDeviation=".5" in="shadowOffsetOuter1" result="shadowBlurOuter1"/><feComposite in="shadowBlurOuter1" in2="SourceAlpha" operator="out" result="shadowBlurOuter1"/><feColorMatrix values="0 0 0 0 0 0 0 0 0 0 0 0 0 0 0 0 0 0 0.199473505 0" in="shadowBlurOuter1"/></filter><circle id="b" cx="16" cy="15" r="15"/></defs><g fill="none" fill-rule="evenodd"><use fill="#000" filter="url(#a)" xlink:href="#b"/><use fill="#E756CC" xlink:href="#b"/><use fill="url(#c)" style="mix-blend-mode:soft-light" xlink:href="#b"/><circle stroke-opacity=".097" stroke="#000" stroke-linejoin="square" cx="16" cy="15" r="14.5"/><path d="M12.77 15.533c.095.225.19.448.29.67.091.211.188.42.281.63l.214.488c.074.167.152.334.228.5l.187.42.286.644c.168.37.33.742.495 1.113.2.439.386.883.59 1.32.248.499.428 1.021.653 1.528.225-.61.471-1.2.743-1.791.169-.372.33-.747.5-1.12.133-.294.259-.593.39-.89.13-.292.265-.583.39-.876l.13-.281c.073-.164.145-.328.219-.491.074-.167.146-.335.221-.501.115-.253.227-.508.34-.763a14.4 14.4 0 00.258-.599c-2.138-.003-4.277-.003-6.415 0zm7.718-2.84H11.5l.938 2.253h7.017l1.032-2.254zm6.642-2.105c.22.533.394 1.083.532 1.642a10.487 10.487 0 00-1.867-.139c-.477-.008-.962.045-1.436 0l-.04-.163c.16-.217.367-.382.594-.526.666-.42 1.432-.724 2.217-.814zm-15.216-6.5c1.352.433 2.778.67 4.114 1.146.19.09.41.105.418.358-1.113.177-2.197.182-3.318.268-1.199.08-2.364.198-3.567.038-.375-.03-.755-.122-1.13-.11a12.496 12.496 0 013.001-1.778c.176-.035.317.031.482.078zm9.13 12.104c-.083.187-.168.372-.253.557-.094.208-.19.418-.286.625-.09.197-.176.395-.266.591-.154.332-.308.664-.457.999-.157.341-.31.684-.47 1.024l-.575 1.258c-.144.308-.282.618-.423.927-.233.523-.477 1.041-.715 1.562-.222.513-.462 1.018-.692 1.526-.264.58-.528 1.161-.798 1.739-.106 0-.212 0-.318-.002-.298-.663-.606-1.322-.901-1.986-.21-.472-.43-.939-.64-1.41-.191-.43-.39-.856-.582-1.286l-.465-1.024c-.21-.482-.437-.957-.651-1.438-.19-.424-.385-.846-.573-1.271-.075-.165-.149-.33-.225-.494-.131-.3-.27-.593-.405-.891-.096-.214-.196-.426-.292-.641l-.216-.48c-.08-.183-.163-.364-.25-.544-2.197-.005-4.394.005-6.591-.004v-.61c2.102-.004 4.203.005 6.304-.004a9.544 9.544 0 00-.22-.527c-.125-.264-.24-.53-.361-.795-.107-.234-.21-.47-.32-.703-.15-.322-.291-.649-.442-.972-.18-.388-.346-.784-.533-1.169-1 .162-1.934.54-2.73 1.165l-.017.012c-.343.247-.648.57-.942.876a6.717 6.717 0 00-.648.819 11.784 11.784 0 011.948-5.219c.454.395 1.007.65 1.62.618-.259-.574-.534-1.141-.775-1.722.467-.55.991-1.049 1.547-1.51.405.977.854 1.937 1.277 2.906.055.152.192.136.324.185.343.079.584.28.894.432.353.181.767.273 1.157.343.164.033.33.052.497.07l.043.1c-.748.203-1.494.215-2.261.251.064.259.174.497.286.738 3.548.007 7.096-.004 10.644.005.234-.465.43-.948.655-1.417-.655.227-1.308.441-1.994.557-.113.014-.232.014-.346.014.161-.1.328-.187.499-.27.747-.353 1.476-.76 2.153-1.232.196-.133.242-.326.338-.528.324-.718.641-1.44.967-2.156.941.767 1.77 1.667 2.44 2.677-.44-.182-.872-.223-1.345-.181l-.792 1.733c-.155.347-.319.69-.474 1.037l-.492 1.077c-.117.262-.245.52-.353.785-.134.253-.24.52-.364.779-.12.259-.23.521-.353.78-.072.145-.14.293-.207.441 2.125.01 4.25.001 6.375.005.003.205-.001.409-.008.612-2.21.004-4.421-.002-6.631.004-.116.213-.216.437-.317.657z" fill="#FFF" fill-rule="nonzero"/></g></svg>