<svg width="32" height="32" viewBox="0 0 32 32" xmlns="http://www.w3.org/2000/svg" xmlns:xlink="http://www.w3.org/1999/xlink"><defs><linearGradient x1="50%" y1="0%" x2="50%" y2="100%" id="c"><stop stop-color="#FFF" stop-opacity=".5" offset="0%"/><stop stop-opacity=".5" offset="100%"/></linearGradient><filter x="-5.8%" y="-4.2%" width="111.7%" height="111.7%" filterUnits="objectBoundingBox" id="a"><feOffset dy=".5" in="SourceAlpha" result="shadowOffsetOuter1"/><feGaussianBlur stdDeviation=".5" in="shadowOffsetOuter1" result="shadowBlurOuter1"/><feComposite in="shadowBlurOuter1" in2="SourceAlpha" operator="out" result="shadowBlurOuter1"/><feColorMatrix values="0 0 0 0 0 0 0 0 0 0 0 0 0 0 0 0 0 0 0.199473505 0" in="shadowBlurOuter1"/></filter><circle id="b" cx="16" cy="15" r="15"/></defs><g fill="none" fill-rule="evenodd"><use fill="#000" filter="url(#a)" xlink:href="#b"/><use fill="#E84142" xlink:href="#b"/><use fill="url(#c)" style="mix-blend-mode:soft-light" xlink:href="#b"/><circle stroke-opacity=".097" stroke="#000" stroke-linejoin="square" cx="16" cy="15" r="14.5"/><path d="M11.518 21.75H8.49c-.636 0-.95 0-1.142-.123A.77.77 0 017 21.025c-.012-.226.145-.503.46-1.055l7.472-13.193c.318-.56.48-.84.682-.944a.77.77 0 01.698 0c.203.104.364.384.682.944l1.536 2.686.008.014c.343.6.517.906.593 1.226a2.26 2.26 0 010 1.066c-.076.323-.249.63-.597 1.24l-3.926 6.95-.01.017c-.346.606-.52.913-.764 1.145a2.284 2.284 0 01-.93.54c-.319.089-.675.089-1.387.089zm7.643 0h4.336c.64 0 .962 0 1.154-.126a.768.768 0 00.348-.607c.011-.219-.142-.484-.443-1.005l-.032-.054-2.172-3.722-.025-.042c-.305-.517-.46-.778-.657-.879a.762.762 0 00-.693 0c-.2.104-.36.377-.678.925l-2.165 3.722-.007.013c-.317.548-.476.821-.464 1.046a.777.777 0 00.348.606c.188.123.51.123 1.15.123z" fill="#FFF"/></g></svg>