<svg width="32" height="32" viewBox="0 0 32 32" fill="none" xmlns="http://www.w3.org/2000/svg">
<g clip-path="url(#clip0)">
<g filter="url(#filter0_d)">
<path d="M16 31C24.2843 31 31 24.2843 31 16C31 7.71573 24.2843 1 16 1C7.71573 1 1 7.71573 1 16C1 24.2843 7.71573 31 16 31Z" fill="black"/>
</g>
<path d="M16 31C24.2843 31 31 24.2843 31 16C31 7.71573 24.2843 1 16 1C7.71573 1 1 7.71573 1 16C1 24.2843 7.71573 31 16 31Z" fill="#4AB04C"/>
<path fill-rule="evenodd" clip-rule="evenodd" d="M12.6371 5.58647C12.6371 5.3316 12.8437 5.12499 13.0986 5.12499C13.3534 5.12499 13.5601 5.3316 13.5601 5.58647V16.3543C13.5601 16.6092 13.3534 16.8158 13.0986 16.8158C12.8437 16.8158 12.6371 16.6092 12.6371 16.3543V5.58647ZM11.0373 8.663C11.0373 8.40813 11.2439 8.20152 11.4988 8.20152C11.7536 8.20152 11.9603 8.40813 11.9603 8.663V16.3543C11.9603 16.6092 11.7536 16.8158 11.4988 16.8158C11.2439 16.8158 11.0373 16.6092 11.0373 16.3543V8.663ZM9.4375 11.7395C9.4375 11.4847 9.64411 11.2781 9.89898 11.2781C10.1538 11.2781 10.3605 11.4847 10.3605 11.7395L10.3625 18.3848C10.3625 21.663 13.02 24.3205 16.2982 24.3205C19.5763 24.3205 22.2338 21.663 22.2338 18.3848C22.2338 15.4635 20.1234 13.0351 17.3439 12.541V11.6034C20.6366 12.107 23.1588 14.9514 23.1588 18.3848C23.1588 22.1739 20.0872 25.2455 16.2982 25.2455C12.5091 25.2455 9.4375 22.1739 9.4375 18.3848C9.4375 16.1697 9.4375 13.9546 9.4375 11.7395ZM16.2982 8.20152C16.0433 8.20152 15.8367 8.40813 15.8367 8.663V16.3543C15.8367 16.6092 16.0433 16.8158 16.2982 16.8158C16.553 16.8158 16.7597 16.6092 16.7597 16.3543V8.663C16.7597 8.40813 16.553 8.20152 16.2982 8.20152ZM14.6984 6.97091C14.4435 6.97091 14.2369 7.17752 14.2369 7.43239V16.3543C14.2369 16.6092 14.4435 16.8158 14.6984 16.8158C14.9532 16.8158 15.1599 16.6092 15.1599 16.3543V7.43239C15.1599 7.17752 14.9532 6.97091 14.6984 6.97091ZM20.7194 19.5214C20.7694 19.2714 20.6073 19.0283 20.3574 18.9783C20.1075 18.9284 19.8644 19.0904 19.8144 19.3404C19.5543 20.641 18.3616 21.4773 17.2563 21.8554C17.0152 21.9379 16.8866 22.2003 16.9691 22.4414C17.0516 22.6826 17.314 22.8112 17.5551 22.7287C18.788 22.3069 20.3642 21.2973 20.7194 19.5214Z" fill="white"/>
<g style="mix-blend-mode:soft-light">
<path d="M16 31C24.2843 31 31 24.2843 31 16C31 7.71573 24.2843 1 16 1C7.71573 1 1 7.71573 1 16C1 24.2843 7.71573 31 16 31Z" fill="url(#paint0_linear)"/>
<path d="M30.5 16C30.5 24.0081 24.0081 30.5 16 30.5C7.99187 30.5 1.5 24.0081 1.5 16C1.5 7.99187 7.99187 1.5 16 1.5C24.0081 1.5 30.5 7.99187 30.5 16Z" stroke="black" stroke-opacity="0.2"/>
</g>
</g>
<defs>
<filter id="filter0_d" x="0" y="0.5" width="32" height="32" filterUnits="userSpaceOnUse" color-interpolation-filters="sRGB">
<feFlood flood-opacity="0" result="BackgroundImageFix"/>
<feColorMatrix in="SourceAlpha" type="matrix" values="0 0 0 0 0 0 0 0 0 0 0 0 0 0 0 0 0 0 127 0"/>
<feOffset dy="0.5"/>
<feGaussianBlur stdDeviation="0.5"/>
<feColorMatrix type="matrix" values="0 0 0 0 0 0 0 0 0 0 0 0 0 0 0 0 0 0 0.199474 0"/>
<feBlend mode="normal" in2="BackgroundImageFix" result="effect1_dropShadow"/>
<feBlend mode="normal" in="SourceGraphic" in2="effect1_dropShadow" result="shape"/>
</filter>
<linearGradient id="paint0_linear" x1="16" y1="1" x2="16" y2="31" gradientUnits="userSpaceOnUse">
<stop stop-color="#C4C4C4"/>
<stop offset="1" stop-color="#C4C4C4" stop-opacity="0"/>
</linearGradient>
<clipPath id="clip0">
<rect width="32" height="32" fill="white"/>
</clipPath>
</defs>
</svg>
