<svg id="Layer_1" data-name="Layer 1" xmlns="http://www.w3.org/2000/svg" viewBox="0 0 788 788"><defs><style>.cls-1{fill:#f7941d;}.cls-2{fill:#fff;}</style></defs><title>12-bitcoin-cash-square-crop</title><path class="cls-1" d="M286.969.184H-.539V289.7C36.53,149.1,146.755,38.2,286.969.184Z"/><path class="cls-1" d="M788.539,289.7V.184H501.031C641.244,38.2,751.47,149.1,788.539,289.7Z"/><path class="cls-1" d="M501.031,787.816H788.539V498.3C751.47,638.9,641.244,749.8,501.031,787.816Z"/><path class="cls-1" d="M-.539,498.3V787.816H286.969C146.755,749.8,36.53,638.9-.539,498.3Z"/><circle class="cls-1" cx="394" cy="394" r="335"/><path class="cls-2" d="M551.124,407.914l-.187-.346-.031-.058c-.113-.348-.2-.713-.326-1.089l-.016-.03-.016-.029-.016-.029-.016-.029-.016-.029-.016-.029-.032-.058A68.435,68.435,0,0,0,528.08,372.71l-.015-.029c-.315-.24-.646-.51-.962-.747l-.435-.324-.315-.239-.135-.114-.3-.211-.135-.113-.3-.211-.135-.113-.315-.239-.165-.1-.315-.239-.165-.1-.34-.224-.165-.1-.2-.3-.18-.127-.34-.224-.179-.127-.341-.225-.179-.126-.34-.225-.18-.127-.36-.255-.179-.127-.388-.238-.18-.126-.387-.239-.18-.126-.388-.239-.179-.126-.388-.239-.209-.11-.388-.238-.208-.111-.418-.222-.208-.11-.433-.251-.208-.11-.433-.25-.209-.111-.433-.25-.224-.139-.433-.251-.225-.139-.461-.236-.224-.139-.462-.236-.312-.17-.016-.029c-.224-.139-.461-.236-.686-.376a95.508,95.508,0,0,0-30.588-9.665,85.552,85.552,0,0,0,8.195-10.293l.393-.584.029-.016.182-.284.238-.388.127-.18.238-.387.126-.18.239-.388.126-.179.239-.388.126-.18.238-.388.126-.179.209-.374.127-.179.208-.374.1-.165.208-.373.1-.165.208-.373.1-.165.18-.358.1-.165.179-.357.1-.165.179-.357.1-.165.195-.329.1-.165.2-.328.1-.165.171-.312.1-.165.17-.313.069-.148.171-.313.068-.149.171-.312.068-.149.171-.312.069-.149.137-.3.069-.149.138-.3.069-.149.138-.3.069-.148.151-.341.207-.445c.151-.341.273-.668.425-1.01l.029-.016a60.785,60.785,0,0,0,3.088-35.684l-.016-.029-.032-.058-.016-.029-.015-.029-.016-.029-.016-.029-.017-.029-.015-.028c-.069-.336-.138-.671-.235-.992v-.073l-.016-.029-.016-.029-.016-.028.016.028-.14-.259c-.1-.466-.2-.936-.35-1.411-.1-.466-.248-.946-.379-1.4l-.171-.317-.031-.058c-.1-.319-.195-.64-.293-.959l-.017-.029-.016-.029-.016-.029-.015-.029-.016-.028-.017-.029-.015-.029a60.8,60.8,0,0,0-19.9-29.784l-.017-.03c-.27-.227-.57-.438-.841-.663l-.374-.283-.3-.22-.135-.113-.256-.2-.135-.114-.255-.2-.135-.113-.284-.182-.136-.113-.3-.211-.135-.113-.3-.211-.136-.113-.3-.211-.165-.1-.3-.211-.165-.1-.3-.211-.165-.1-.328-.195-.165-.1-.328-.195-.165-.1-.329-.195-.165-.1-.328-.2-.165-.1-.34-.225-.165-.1-.345-.224-.165-.1-.373-.209-.165-.1-.373-.209-.18-.127-.373-.208-.179-.127-.373-.208-.18-.127-.387-.238-.209-.111-.388-.238-.208-.11-.418-.223-.208-.11-.418-.222-.3-.138-.016-.029-.626-.332c-18.294-9.508-41.536-12.371-64.92-6.372l-6.083,1.562L379.9,184.211l-35.652,9.14,15.3,59.681-28.521,7.316-15.348-59.486L280.027,210l15.335,59.676L221.833,288.6l9.783,38.025,29.627-7.609a18.335,18.335,0,0,1,22.332,13.178l.008.034h0l41.128,160.01a12.249,12.249,0,0,1-8.8,14.9l-25.96,6.678,1.525,45.223,73.435-18.874,15.537,59.568,35.636-9.169-15.35-59.706,28.521-7.316,15.35,59.7,35.636-9.169-15.4-59.938c6.04-1.576,11.233-2.921,14.827-3.85,26.353-6.779,47.663-22.232,60.558-41.494l.436-.643.029-.016.211-.3.28-.448.139-.225.28-.448.14-.225.25-.433.139-.224.25-.433.111-.209.25-.433.111-.208.25-.433.11-.209.222-.417.111-.209.222-.417.11-.209.239-.388.11-.208.238-.388.111-.208.208-.374.111-.208.208-.373.111-.208.208-.373.085-.193.209-.373.085-.193.179-.357.1-.165.18-.357.1-.165.179-.358.1-.165.179-.357.1-.165.18-.357.1-.165.18-.358.1-.165.151-.34.1-.165.151-.34.069-.149.165-.386.221-.491c.165-.386.344-.744.479-1.114l.014-.045a68.5,68.5,0,0,0,3.482-40.138l-.016-.029-.016-.029-.016-.029-.016-.029-.016-.029-.016-.029-.016-.029-.016-.029-.255-1.092v-.073l-.015-.029-.016-.029-.017-.029-.016-.029-.015-.029-.016-.029-.016-.029-.016-.029-.016-.028-.016-.029-.016-.029-.015-.029-.016-.029-.063-.115c-.132-.523-.237-1.062-.4-1.572C551.232,409.085,551.156,408.529,551.124,407.914ZM341.641,300.876c6.083-1.561,31.233-7.878,39.526-10.037,13.185-3.375,26.172-2.065,36.323,2.82l.341.151h0l.148.069.209.11.1.056.208.11.1.056.208.11.1.056.209.11.1.055.209.111.1.055.209.111.1.055.208.111.1.055.208.111.1.055.208.111.1.055.18.127.1.055.179.127.1.055.179.127.1.055.165.1.1.055.165.1.1.055.165.1.1.055.165.1.1.055.165.1.076.072.165.1.06.041.165.1.059.042.165.1.06.041.165.1.059.042.136.113.059.042.165.1.225.14c.165.1.315.241.48.34h0a30.749,30.749,0,0,1,10.9,15.612h0l.046.085c.048.16.113.348.161.51l.016.03.094.17c.066.262.146.48.214.741a4.436,4.436,0,0,1,.142.817l.093.17.016.029a2.557,2.557,0,0,0,.133.523l.046.085h0a30.857,30.857,0,0,1-2.029,18.931h0l-.234.535-.124.255-.1.165-.027.089-.069.149-.027.089-.1.165-.027.086-.1.165-.027.089-.1.165-.027.085-.1.165-.027.089-.1.165-.028.09-.1.165-.056.1-.1.165-.056.1-.1.165-.055.1-.1.165-.055.1-.127.179-.055.1-.127.18-.055.1-.127.179-.055.1-.127.179-.055.1-.127.18-.055.1-.127.18-.055.1-.127.179-.055.1-.127.179-.055.1-.156.195-.055.1-.156.195-.055.1-.156.195-.055.1-.156.195-.113.135h0l-.211.3c-6.557,9.188-17.3,16.609-30.485,19.983-8.309,2.127-33.393,8.706-39.471,10.268ZM481,423.55l.094.17.016.029c.035.2.085.364.12.568h0l.016.03h0l.016.029.017.029.016.029h0a31.694,31.694,0,0,1-2.867,20.675h0l-.319.581-.153.269-.111.208-.055.1-.1.165-.055.1-.1.165-.055.1-.127.179-.055.1-.127.179-.055.1-.127.18-.055.1-.127.179-.055.1-.127.179-.055.1-.127.18-.055.1-.127.18-.055.1-.127.179-.055.1-.127.179-.055.1-.156.195-.055.1-.156.195-.055.1-.14.225-.055.1-.141.224-.055.1-.139.225-.086.12-.139.224-.085.12-.17.239-.085.12-.17.239-.086.12-.17.239-.085.12-.17.239-.085.12-.17.239-.142.152h0l-.269.33c-7.964,10.169-20.807,18.533-36.409,22.537-9.836,2.54-39.562,10.314-46.794,12.16l-20.237-78.739c7.217-1.872,37.025-9.357,46.861-11.9,15.6-4,30.914-2.869,42.754,2.186l.386.165h0l.193.085.283.108.132.039.256.124.132.039.256.125.132.039.255.124.1.055.255.124.1.056.255.124.1.055.255.124.1.056.209.11.1.056.209.11.1.056.208.11.1.055.208.111.1.055.208.111.1.055.209.111.1.055.209.111.1.055.208.111.1.055.208.11.1.056.179.126.1.056.18.127.1.055.18.127.1.055.179.127.1.055.18.127.1.055.165.1.1.055.18.127.239.17c.179.127.388.238.569.364h0A31.789,31.789,0,0,1,480.317,421.1h0l.062.115c.064.188.113.349.177.537l.016.028.093.171c.067.262.133.523.216.815.147.063.17.385.125.782Z"/></svg>
