<svg xmlns="http://www.w3.org/2000/svg" xmlns:xlink="http://www.w3.org/1999/xlink" width="32" height="32" viewBox="0 0 32 32"><defs><linearGradient id="c" x1="50%" x2="50%" y1="0%" y2="100%"><stop offset="0%" stop-color="#FFF" stop-opacity=".5"/><stop offset="100%" stop-opacity=".5"/></linearGradient><circle id="b" cx="16" cy="15" r="15"/><filter id="a" width="111.7%" height="111.7%" x="-5.8%" y="-4.2%" filterUnits="objectBoundingBox"><feOffset dy=".5" in="SourceAlpha" result="shadowOffsetOuter1"/><feGaussianBlur in="shadowOffsetOuter1" result="shadowBlurOuter1" stdDeviation=".5"/><feComposite in="shadowBlurOuter1" in2="SourceAlpha" operator="out" result="shadowBlurOuter1"/><feColorMatrix in="shadowBlurOuter1" values="0 0 0 0 0 0 0 0 0 0 0 0 0 0 0 0 0 0 0.199473505 0"/></filter><path id="e" d="M21.207 9.534c.571 1.442.206 2.511-.642 3.301 1.747-.076 3.05.602 3.471 2.837.525 2.775-1.282 4.078-4.113 5.068l.814 2.84-1.713.492-.802-2.803c-.444.128-.9.255-1.372.38l.807 2.815-1.71.49-.817-2.845c-.401.112-.811.222-1.226.34l-2.228.64-.247-2.143s1.273-.343 1.245-.356c.485-.14.513-.525.481-.752l-1.287-4.49.18-.052c-.073.01-.136.027-.184.04l-.919-3.205c-.165-.328-.506-.666-1.2-.468.015-.029-1.243.358-1.243.358l-.525-1.829 2.362-.676.003.008c.355-.102.717-.213 1.085-.327l-.805-2.812 1.711-.491.79 2.757c.455-.14.913-.28 1.363-.41L13.7 5.502l1.712-.491.807 2.813c2.266-.44 4.212-.262 4.988 1.71zm-.65 6.77c-.637-2.217-4.18-.84-5.341-.507l1.08 3.77c1.16-.334 4.87-1.136 4.26-3.262zm-2.322-5.09c-.58-2.017-3.528-.84-4.494-.562l.98 3.42c.967-.278 4.068-.923 3.514-2.858z"/><filter id="d" width="121.7%" height="117.5%" x="-10.8%" y="-6.3%" filterUnits="objectBoundingBox"><feOffset dy=".5" in="SourceAlpha" result="shadowOffsetOuter1"/><feGaussianBlur in="shadowOffsetOuter1" result="shadowBlurOuter1" stdDeviation=".5"/><feColorMatrix in="shadowBlurOuter1" values="0 0 0 0 0 0 0 0 0 0 0 0 0 0 0 0 0 0 0.204257246 0"/></filter></defs><g fill="none" fill-rule="evenodd"><use fill="#000" filter="url(#a)" xlink:href="#b"/><use fill="#8DC351" xlink:href="#b"/><use fill="url(#c)" style="mix-blend-mode:soft-light" xlink:href="#b"/><circle cx="16" cy="15" r="14.5" stroke="#000" stroke-opacity=".097"/><g fill-rule="nonzero"><use fill="#000" filter="url(#d)" xlink:href="#e"/><use fill="#FFF" fill-rule="evenodd" xlink:href="#e"/></g></g></svg>