<svg height="32" viewBox="0 0 32 32" width="32" xmlns="http://www.w3.org/2000/svg" xmlns:xlink="http://www.w3.org/1999/xlink"><defs><linearGradient id="a" x1="50%" x2="50%" y1="0%" y2="100%"><stop offset="0" stop-color="#fff" stop-opacity=".5"/><stop offset="1" stop-opacity=".5"/></linearGradient><circle id="b" cx="16" cy="15" r="15"/><filter id="c" height="111.7%" width="111.7%" x="-5.8%" y="-4.2%"><feOffset dy=".5" in="SourceAlpha" result="shadowOffsetOuter1"/><feGaussianBlur in="shadowOffsetOuter1" result="shadowBlurOuter1" stdDeviation=".5"/><feComposite in="shadowBlurOuter1" in2="SourceAlpha" operator="out" result="shadowBlurOuter1"/><feColorMatrix in="shadowBlurOuter1" values="0 0 0 0 0   0 0 0 0 0   0 0 0 0 0  0 0 0 0.199473505 0"/></filter><path id="d" d="m21.2072761 9.53388244c.5707137 1.44241286.2054254 2.51113036-.6424083 3.30134696 1.7466978-.0761691 3.0492153.601519 3.4714082 2.8362862.524988 2.775152-1.2819518 4.078179-4.1134073 5.0688464l.8138659 2.8403033-1.7123029.491189-.8027666-2.8023709c-.4436101.1276447-.8991934.2542435-1.3716377.3792076l.807281 2.8151132-1.7105975.4902045-.8165736-2.8449931c-.4013001.1123124-.8113427.2222823-1.2261718.3407003l-2.2283668.6390632-.2461626-2.1425507s1.2723238-.3434705 1.2448477-.3565991c.4843467-.1397945.5128598-.5246238.4807064-.7516382l-1.2869443-4.4897299c.06263-.018537.1238008-.035663.1808223-.0520988-.0734737.0105859-.1364818.0264988-.1844181.0399631l-.919114-3.2047522c-.1652977-.3286424-.5065007-.6665772-1.20015636-.467901.01434161-.0293134-1.24325651.3573858-1.24325651.3573858l-.52486511-1.8287238 2.36199138-.67641861.0027254.00865893c.3549373-.10203047.717039-.21331349 1.0856019-.32718996l-.805804-2.81255507 1.7114501-.49069675.7903529 2.75723895c.4545457-.14021147.9121418-.28104715 1.3622791-.41018643l-.7855087-2.73900242 1.7123029-.49118906.8067227 2.81316162c2.2658908-.44016208 4.2115668-.26227548 4.9881043 1.70992694zm-.6512029 6.77066816c-.6357795-2.2177563-4.179167-.8404989-5.3400977-.5079052l1.0805184 3.7698513c1.1601922-.3338728 4.8702193-1.1359789 4.2595793-3.2619461zm-2.3214751-5.0902052c-.5787707-2.01759856-3.5271227-.8394942-4.4937503-.5622346l.9802769 3.4189972c.9666276-.2772595 4.0676321-.9221623 3.5134734-2.8567626z"/><filter id="e" height="117.5%" width="121.7%" x="-10.8%" y="-6.3%"><feOffset dy=".5" in="SourceAlpha" result="shadowOffsetOuter1"/><feGaussianBlur in="shadowOffsetOuter1" result="shadowBlurOuter1" stdDeviation=".5"/><feColorMatrix in="shadowBlurOuter1" values="0 0 0 0 0   0 0 0 0 0   0 0 0 0 0  0 0 0 0.204257246 0"/></filter></defs><g fill="none" fill-rule="evenodd"><use fill="#000" filter="url(#c)" xlink:href="#b"/><use fill="#8dc351" xlink:href="#b"/><use fill="url(#a)" xlink:href="#b"/><circle cx="16" cy="15" r="14.5" stroke="#000" stroke-opacity=".097"/><g fill-rule="nonzero"><use fill="#000" filter="url(#e)" xlink:href="#d"/><use fill="#fff" fill-rule="evenodd" xlink:href="#d"/></g></g></svg>