<svg height="32" viewBox="0 0 32 32" width="32" xmlns="http://www.w3.org/2000/svg" xmlns:xlink="http://www.w3.org/1999/xlink"><defs><linearGradient id="a" x1="50%" x2="50%" y1="0%" y2="100%"><stop offset="0" stop-color="#fff" stop-opacity=".5"/><stop offset="1" stop-opacity=".5"/></linearGradient><circle id="b" cx="16" cy="15" r="15"/><filter id="c" height="111.7%" width="111.7%" x="-5.8%" y="-4.2%"><feOffset dy=".5" in="SourceAlpha" result="shadowOffsetOuter1"/><feGaussianBlur in="shadowOffsetOuter1" result="shadowBlurOuter1" stdDeviation=".5"/><feComposite in="shadowBlurOuter1" in2="SourceAlpha" operator="out" result="shadowBlurOuter1"/><feColorMatrix in="shadowBlurOuter1" values="0 0 0 0 0   0 0 0 0 0   0 0 0 0 0  0 0 0 0.199473505 0"/></filter><path id="d" d="m14.1224941 19.8257808-1.5066607-.847708c-.3792422.5148372-.9982412.8501145-1.6974661.8501145-.7004162 0-1.32033287-.3364208-1.69940241-.8527476l-.48891639.2761111c.04247108.101891.06586987.2133395.06586987.3301225 0 .4840743-.40203002.876494-.89795919.876494-.49592916 0-.89795918-.3924197-.89795918-.876494s.40203002-.876494.89795918-.876494c.28857568 0 .5453576.1328712.70963644.3393556l.48052339-.2713713c-.16508445-.2918364-.25903738-.627368-.25903738-.984319 0-1.0996144.89160825-1.9959605 2.00765247-2.0378145l.0000006-1.5543914c-1.08644976-.0418222-1.95408164-.9147517-1.95408164-1.9854833 0-.3408642.08792998-.6616822.24285735-.9420217l-.50971069-.2843008c-.16386081.2124535-.42441497.3498285-.71784054.3498285-.49592916 0-.89795918-.3924198-.89795918-.8764941 0-.48407425.40203002-.87649399.89795918-.87649399.49592917 0 .89795919.39241974.89795919.87649399 0 .1121156-.02156583.2193145-.06086926.3178602l.51958181.2898066c.36860064-.5092186.97638638-.8417305 1.66373638-.8417305.7014212 0 1.3199871.3462653 1.6860719.8732248l1.5327707-.8488916c-.1407752-.27227033-.220067-.58000037-.220067-.90580732 0-1.07170496.8579428-1.94781669 1.94-2.00965807v-.58806454c-.4380023-.05829402-.7755102-.42488101-.7755102-.86841285 0-.48407428.40203-.87649402.8979591-.87649402.4959292 0 .8979592.39241974.8979592.87649402 0 .44353184-.337508.81011883-.7755102.86841285v.58806454c1.0820572.06184138 1.94.93795311 1.94 2.00965807 0 .32681831-.0797849.63544731-.2213798.90834182l1.5308165.861299c.3627198-.5464968.9929723-.908087 1.709747-.908087.7083281 0 1.3321613.3531184 1.6968129.8888444l.5051645-.3214209c-.0381938-.0973278-.0591203-.2029982-.0591203-.3134395 0-.48407425.4020301-.87649399.8979592-.87649399.4959292 0 .8979592.39241974.8979592.87649399 0 .4840743-.40203.8764941-.8979592.8764941-.2949286 0-.5566481-.1387859-.7203509-.3530992l-.5004978.3184516c.1380337.2680391.2157467.5707717.2157467.8912213 0 1.0907706-.9004117 1.9762659-2.0153061 1.986954v1.6175249c1.1296599.0106891 2.0420408.907868 2.0420408 2.0130509 0 .3353375-.0839986.6515251-.2325784.9296094l.5141697.2903728c.1646505-.1974447.4156237-.3235678.696776-.3235678.4959292 0 .8979592.3924197.8979592.876494s-.40203.876494-.8979592.876494c-.4959291 0-.8979592-.3924197-.8979592-.876494 0-.1239077.026341-.2418103.0738552-.3486635l-.5128113-.2896056c-.3714263.530403-.9960159.8785082-1.703901.8785082-.70127 0-1.3207941-.3416296-1.6934221-.8636865l-1.5337162.8629305c.1667224.29526.2615873.6346047.2615873.9955767 0 1.0871204-.8604268 1.9780812-1.9528164 2.0594415v.3852896c.4179785.0749413.7346939.4323892.7346939.8620418 0 .4840743-.40203.876494-.8979592.876494-.4959291 0-.8979591-.3924197-.8979591-.876494 0-.4572146.358653-.8326636.8163265-.8729209v-.3698627c-1.1308475-.0418689-2.034449-.9499279-2.034449-2.0639893 0-.3590889.0938777-.6967756.2589839-.9909523zm.1299923-.2027739c.3833791-.5275207 1.0140557-.8717718 1.7271054-.8717718.7111022 0 1.3402805.3423731 1.7239585.8674533l1.5363827-.8644309c-.1539214-.2819031-.2411575-.6037538-.2411575-.9454926 0-1.0377878.804498-1.8921667 1.8379592-2.0013595v-1.6410631c-1.0186646-.1090722-1.8112245-.9517461-1.8112245-1.9751072 0-.3123685.0738429-.6079023.2054192-.8708772l-1.5337178-.8629314c-.3696467.5415466-1.0009448.8983504-1.7176198.8983504-.7177137 0-1.3498028-.3578388-1.7192253-.9007062l-1.5308966.8478536c.1435669.2722139.2246117.5809842.2246117.9082311 0 1.0437745-.8244942 1.8995814-1.8724489 1.9807542v1.5637272c1.0775745.0812993 1.9260204.9605395 1.9260204 2.0332078 0 .3580969-.0945572.6946367-.2606295.9871283zm-3.3341191-.7659352c.6044137 0 1.0943878-.4782615 1.0943878-1.0682271 0-.5899655-.4899741-1.0682271-1.0943878-1.0682271-.6044136 0-1.09438771.4782616-1.09438771 1.0682271 0 .5899656.48997411 1.0682271 1.09438771 1.0682271zm0-5.6050797c.5889159 0 1.0663266-.4659984 1.0663266-1.0408366s-.4774107-1.0408367-1.0663266-1.0408367c-.5889158 0-1.06632648.4659985-1.06632648 1.0408367s.47741068 1.0408366 1.06632648 1.0408366zm5.0612245-2.8547808c.596693 0 1.0804082-.47215234 1.0804082-1.05458172 0-.58242937-.4837152-1.05458167-1.0804082-1.05458167-.5966929 0-1.0804081.4721523-1.0804081 1.05458167 0 .58242938.4837152 1.05458172 1.0804081 1.05458172zm5.0816327 2.8348605c.5889159 0 1.0663265-.4659984 1.0663265-1.0408366 0-.5748383-.4774106-1.0408367-1.0663265-1.0408367s-1.0663265.4659984-1.0663265 1.0408367c0 .5748382.4774106 1.0408366 1.0663265 1.0408366zm0 5.6312749c.5966929 0 1.0804082-.4721523 1.0804082-1.0545817 0-.5824293-.4837153-1.0545816-1.0804082-1.0545816-.596693 0-1.0804082.4721523-1.0804082 1.0545816 0 .5824294.4837152 1.0545817 1.0804082 1.0545817zm-5.0816327 3.0352988c.612157 0 1.1084082-.4843886 1.1084082-1.0819123s-.4962512-1.0819124-1.1084082-1.0819124c-.6121569 0-1.1084081.4843887-1.1084081 1.0819124s.4962512 1.0819123 1.1084081 1.0819123zm0-3.9790637c-1.6519287 0-2.9910816-1.3071413-2.9910816-2.9195817s1.3391529-2.9195817 2.9910816-2.9195817c1.6519288 0 2.9910817 1.3071413 2.9910817 2.9195817s-1.3391529 2.9195817-2.9910817 2.9195817zm0-1.7754184c.6473792 0 1.1721837-.5122593 1.1721837-1.1441633s-.5248045-1.1441633-1.1721837-1.1441633c-.6473791 0-1.1721836.5122593-1.1721836 1.1441633s.5248045 1.1441633 1.1721836 1.1441633z"/><filter id="e" height="117.5%" width="119.4%" x="-9.7%" y="-6.2%"><feOffset dy=".5" in="SourceAlpha" result="shadowOffsetOuter1"/><feGaussianBlur in="shadowOffsetOuter1" result="shadowBlurOuter1" stdDeviation=".5"/><feColorMatrix in="shadowBlurOuter1" values="0 0 0 0 0   0 0 0 0 0   0 0 0 0 0  0 0 0 0.204257246 0"/></filter></defs><g fill="none" fill-rule="evenodd"><use fill="#000" filter="url(#c)" xlink:href="#b"/><use fill="#2c76b7" xlink:href="#b"/><use fill="url(#a)" xlink:href="#b"/><circle cx="16" cy="15" r="14.5" stroke="#000" stroke-opacity=".097"/><g fill-rule="nonzero"><use fill="#000" filter="url(#e)" xlink:href="#d"/><use fill="#fff" fill-rule="evenodd" xlink:href="#d"/></g></g></svg>