<svg height="32" viewBox="0 0 32 32" width="32" xmlns="http://www.w3.org/2000/svg" xmlns:xlink="http://www.w3.org/1999/xlink"><defs><linearGradient id="a" x1="50%" x2="50%" y1="0%" y2="100%"><stop offset="0" stop-color="#fff" stop-opacity=".5"/><stop offset="1" stop-opacity=".5"/></linearGradient><circle id="b" cx="16" cy="15" r="15"/><filter id="c" height="111.7%" width="111.7%" x="-5.8%" y="-4.2%"><feOffset dy=".5" in="SourceAlpha" result="shadowOffsetOuter1"/><feGaussianBlur in="shadowOffsetOuter1" result="shadowBlurOuter1" stdDeviation=".5"/><feComposite in="shadowBlurOuter1" in2="SourceAlpha" operator="out" result="shadowBlurOuter1"/><feColorMatrix in="shadowBlurOuter1" values="0 0 0 0 0   0 0 0 0 0   0 0 0 0 0  0 0 0 0.199473505 0"/></filter><path id="d" d="m9.328 7.61664c-.01936-.14624.1176-.23424.19744-.3344.99392-.98378667 1.9830933-1.97232 2.96752-2.9656-.01424 2.716.00816 5.432-.0112 8.14816 2.04928-1.12992 4.6304-1.18016 6.736-.16768-.00176.17488-.00176.3488-.00176.52464-1.68112-.904-3.74784-1.01952-5.54144-.39056-2.06256.71168-3.70656 2.45824-4.35008 4.5368.00352-3.1176-.00096-6.2344.00352-9.35136zm13.38992 11.66272c-.0512 1.63616-.7496 3.2376-1.89696 4.40432-.98784 1.0144-2.304 1.7088-3.70288 1.9368-1.65456.2792-3.40624-.092-4.8-1.02768-1.4792-.97232-2.54976-2.5528-2.87808-4.29488-.28528-1.37952-.092-2.84496.50112-4.11904.66064-1.424 1.84272-2.59536 3.26832-3.25296 1.88368-.88768 4.17936-.81296 6.00368.192-.0112 1.4939733-.01088 2.988.00096 4.48208-.2976-.61664-.74032-1.1688-1.32528-1.53488-1.15664-.74752-2.76512-.71168-3.88176.09824-1.22912.84576-1.78544 2.52384-1.296 3.93504.43664 1.39072 1.82016 2.41136 3.2816 2.396 1.40608.03472 2.76304-.88448 3.26624-2.19552.32-.7424.24-1.56352.24752-2.34992.00608-4.05456-.01024-8.10928-.00816-12.16384.00096-.50928.00928-1.01952-.01936-1.52784 1.08912 1.07392 2.16912 2.16096 3.24992 3.24592-.02256 3.9248 0 7.85056-.01136 11.77632z"/><filter id="e" height="116.3%" width="126.1%" x="-13%" y="-5.8%"><feOffset dy=".5" in="SourceAlpha" result="shadowOffsetOuter1"/><feGaussianBlur in="shadowOffsetOuter1" result="shadowBlurOuter1" stdDeviation=".5"/><feColorMatrix in="shadowBlurOuter1" values="0 0 0 0 0   0 0 0 0 0   0 0 0 0 0  0 0 0 0.204257246 0"/></filter></defs><g fill="none" fill-rule="evenodd"><use fill="#000" filter="url(#c)" xlink:href="#b"/><use fill="#e54c40" xlink:href="#b"/><use fill="url(#a)" xlink:href="#b"/><circle cx="16" cy="15" r="14.5" stroke="#000" stroke-opacity=".097"/><g fill-rule="nonzero"><use fill="#000" filter="url(#e)" xlink:href="#d"/><use fill="#fff" fill-rule="evenodd" xlink:href="#d"/></g></g></svg>