<svg height="32" viewBox="0 0 32 32" width="32" xmlns="http://www.w3.org/2000/svg" xmlns:xlink="http://www.w3.org/1999/xlink"><defs><linearGradient id="a" x1="50%" x2="50%" y1="0%" y2="100%"><stop offset="0" stop-color="#fff" stop-opacity=".5"/><stop offset="1" stop-opacity=".5"/></linearGradient><circle id="b" cx="16" cy="15" r="15"/><filter id="c" height="111.7%" width="111.7%" x="-5.8%" y="-4.2%"><feOffset dy=".5" in="SourceAlpha" result="shadowOffsetOuter1"/><feGaussianBlur in="shadowOffsetOuter1" result="shadowBlurOuter1" stdDeviation=".5"/><feComposite in="shadowBlurOuter1" in2="SourceAlpha" operator="out" result="shadowBlurOuter1"/><feColorMatrix in="shadowBlurOuter1" values="0 0 0 0 0   0 0 0 0 0   0 0 0 0 0  0 0 0 0.199473505 0"/></filter><path id="d" d="m8.29693217 10.5682513c-.77092632-.404653-1.29693217-1.21405781-1.29693217-2.14656455 0-1.33746066 1.08205329-2.42168675 2.41683367-2.42168675.92595803 0 1.73029333.5217745 2.13613973 1.28790138 1.322172-.77283426 2.8600489-1.21561222 4.5011348-1.21561222 4.9406796 0 8.9458918 4.01325474 8.9458918 8.96385544 0 4.9506006-4.0052122 8.9638554-8.9458918 8.9638554s-8.94589177-4.0132548-8.94589177-8.9638554c0-1.6269188.43255516-3.1526061 1.18871574-4.4678933zm7.75717603 8.8775318c2.4304956 0 4.4008016-1.9742624 4.4008016-4.4096385s-1.970306-4.4096386-4.4008016-4.4096386-4.4008016 1.9742625-4.4008016 4.4096386 1.970306 4.4096385 4.4008016 4.4096385z"/><filter id="e" height="119.4%" width="119.4%" x="-9.7%" y="-6.9%"><feOffset dy=".5" in="SourceAlpha" result="shadowOffsetOuter1"/><feGaussianBlur in="shadowOffsetOuter1" result="shadowBlurOuter1" stdDeviation=".5"/><feColorMatrix in="shadowBlurOuter1" values="0 0 0 0 0   0 0 0 0 0   0 0 0 0 0  0 0 0 0.204257246 0"/></filter></defs><g fill="none" fill-rule="evenodd"><use fill="#000" filter="url(#c)" xlink:href="#b"/><use fill="#13a0f6" xlink:href="#b"/><use fill="url(#a)" xlink:href="#b"/><circle cx="16" cy="15" r="14.5" stroke="#000" stroke-opacity=".097"/><use fill="#000" filter="url(#e)" xlink:href="#d"/><use fill="#fff" xlink:href="#d"/></g></svg>