<svg height="32" viewBox="0 0 32 32" width="32" xmlns="http://www.w3.org/2000/svg" xmlns:xlink="http://www.w3.org/1999/xlink"><defs><linearGradient id="a" x1="50%" x2="50%" y1="0%" y2="100%"><stop offset="0" stop-color="#fff" stop-opacity=".5"/><stop offset="1" stop-opacity=".5"/></linearGradient><circle id="b" cx="16" cy="15" r="15"/><filter id="c" height="111.7%" width="111.7%" x="-5.8%" y="-4.2%"><feOffset dx="0" dy=".5" in="SourceAlpha" result="shadowOffsetOuter1"/><feGaussianBlur in="shadowOffsetOuter1" result="shadowBlurOuter1" stdDeviation=".5"/><feComposite in="shadowBlurOuter1" in2="SourceAlpha" operator="out" result="shadowBlurOuter1"/><feColorMatrix in="shadowBlurOuter1" type="matrix" values="0 0 0 0 0   0 0 0 0 0   0 0 0 0 0  0 0 0 0.199473505 0"/></filter></defs><g fill="none" fill-rule="evenodd"><use fill="#000" filter="url(#c)" xlink:href="#b"/><use fill="#2aabe4" fill-rule="evenodd" xlink:href="#b"/><use fill="url(#a)" fill-rule="evenodd" xlink:href="#b"/><circle cx="16" cy="15" r="14.5" stroke="#000" stroke-opacity=".097005"/><path d="m7.9 6h6.2c.4970563 0 .9.40294373.9.9v6.2c0 .4970563-.4029437.9-.9.9h-6.2c-.49705627 0-.9-.4029437-.9-.9v-6.2c0-.49705627.40294373-.9.9-.9zm10 0h6.2c.4970563 0 .9.40294373.9.9v6.2c0 .4970563-.4029437.9-.9.9h-6.2c-.4970563 0-.9-.4029437-.9-.9v-6.2c0-.49705627.4029437-.9.9-.9zm0 10h6.2c.4970563 0 .9.4029437.9.9v6.2c0 .4970563-.4029437.9-.9.9h-6.2c-.4970563 0-.9-.4029437-.9-.9v-6.2c0-.4970563.4029437-.9.9-.9zm-10 0h6.2c.4970563 0 .9.4029437.9.9v6.2c0 .4970563-.4029437.9-.9.9h-6.2c-.49705627 0-.9-.4029437-.9-.9v-6.2c0-.4970563.40294373-.9.9-.9z" fill="#fff"/></g></svg>