<svg height="32" viewBox="0 0 32 32" width="32" xmlns="http://www.w3.org/2000/svg" xmlns:xlink="http://www.w3.org/1999/xlink"><defs><linearGradient id="a" x1="50%" x2="50%" y1="0%" y2="100%"><stop offset="0" stop-color="#fff" stop-opacity=".5"/><stop offset="1" stop-opacity=".5"/></linearGradient><circle id="b" cx="16" cy="15" r="15"/><filter id="c" height="111.7%" width="111.7%" x="-5.8%" y="-4.2%"><feOffset dy=".5" in="SourceAlpha" result="shadowOffsetOuter1"/><feGaussianBlur in="shadowOffsetOuter1" result="shadowBlurOuter1" stdDeviation=".5"/><feComposite in="shadowBlurOuter1" in2="SourceAlpha" operator="out" result="shadowBlurOuter1"/><feColorMatrix in="shadowBlurOuter1" values="0 0 0 0 0   0 0 0 0 0   0 0 0 0 0  0 0 0 0.199473505 0"/></filter><path id="d" d="m23.099711 10.1297698c.0469225 2.9136734-2.4360436 3.7324349-2.4360436 3.7324349s1.0119895-1.0006696.9648964-3.5636199c-.0470931-2.56295022-1.9297929-3.82880079-1.9297929-3.82880079s3.3540176.7463124 3.4009401 3.65998579zm-11.1634511 13.6892024-3.4362599.1686404v-.3210453s2.1026382-.2168234 2.1026382-3.9892361v-9.6400867c0-3.19474073-2.1026382-3.7484958-2.1026382-3.7484958v-.2887487l3.4362599.16829126zm5.4914638.1805116c-1.4945231.0122203-4.2678966-.1965726-4.2678966-.1965726v-17.6101793c1.8280992-.02426606 2.4674391-.27705211 3.9735648-.06040329 1.5061257.21664881 2.8008445 1.72184307 3.153872 3.22686276.3530275 1.50501973-.0233759 2.93776493-.5062507 3.72021453s-1.5414456 1.3246827-1.5414456 1.3246827 1.6004826.553755 2.1655997 1.0352356c.565117.4814807 1.6591782 1.793943 1.2355111 4.6475623-.4236672 2.8536193-2.7186022 3.9007261-4.2131253 3.9125973zm3.9716879-.6497719s1.6294891-1.4208741 1.5578257-4.3017272-1.5578257-4.2350391-1.5578257-4.2350391 3.0651459.770753 3.1002951 4.2020443c.0351492 3.4312912-3.1002951 4.334722-3.1002951 4.334722zm-3.1009776-10.3348991c1.0981562-1.460852.7531482-4.20990023-.5765491-5.14999198-1.3296973-.94009176-2.7300342-.46943486-3.0008195-.20477765-.2707852.26465722-.2583295 6.43068153-.2583295 6.43068153s2.7373712.3854638 3.8356981-1.0759119zm.2037288 2.6247501c-1.0276873-.4575637-4.0399387-.3371062-4.0399387-.3371062s-.0467519 1.5570433.0626201 4.4708913 1.0827998 2.8979616 2.0947894 2.9377649c1.0119895.0398033 2.9421237-.032122 3.5775392-2.5446198.6354154-2.5124977-.6668109-4.0690173-1.69501-4.5264065z"/><filter id="e" height="119.4%" width="121.9%" x="-10.9%" y="-6.9%"><feOffset dy=".5" in="SourceAlpha" result="shadowOffsetOuter1"/><feGaussianBlur in="shadowOffsetOuter1" result="shadowBlurOuter1" stdDeviation=".5"/><feColorMatrix in="shadowBlurOuter1" values="0 0 0 0 0   0 0 0 0 0   0 0 0 0 0  0 0 0 0.204257246 0"/></filter></defs><g fill="none" fill-rule="evenodd"><use fill="#000" filter="url(#c)" xlink:href="#b"/><use fill="#181818" xlink:href="#b"/><use fill="url(#a)" xlink:href="#b"/><circle cx="16" cy="15" r="14.5" stroke="#000" stroke-opacity=".097"/><g fill-rule="nonzero"><use fill="#000" filter="url(#e)" xlink:href="#d"/><use fill="#fff" fill-rule="evenodd" xlink:href="#d"/></g></g></svg>