<?xml version="1.0" standalone="no"?>
<!DOCTYPE svg PUBLIC "-//W3C//DTD SVG 20010904//EN"
 "http://www.w3.org/TR/2001/REC-SVG-20010904/DTD/svg10.dtd">
<svg version="1.0" xmlns="http://www.w3.org/2000/svg"
 width="225.000000pt" height="225.000000pt" viewBox="0 0 225.000000 225.000000"
 preserveAspectRatio="xMidYMid meet">

<g transform="translate(0.000000,225.000000) scale(0.100000,-0.100000)"
fill="#000000" stroke="none">
<path d="M972 2230 c-235 -33 -462 -148 -633 -319 -435 -435 -436 -1137 0
-1572 330 -330 821 -420 1247 -229 179 81 363 240 473 410 414 641 76 1497
-667 1686 -109 28 -311 39 -420 24z m14 -545 c17 -13 -7 -14 -218 -15 -205 0
-238 2 -238 15 0 22 426 22 456 0z m314 0 c0 -12 -13 -15 -60 -15 -47 0 -60 3
-60 15 0 12 13 15 60 15 47 0 60 -3 60 -15z m-257 -52 c31 -18 -20 -23 -253
-23 -219 0 -260 2 -260 14 0 8 10 17 23 19 26 6 479 -4 490 -10z m241 11 c9
-3 16 -12 16 -20 0 -10 -15 -14 -59 -14 -59 0 -86 14 -60 31 16 10 80 12 103
3z m-626 -71 c-3 -15 -16 -19 -66 -21 -57 -3 -62 -1 -62 18 0 18 6 20 66 20
57 0 65 -2 62 -17z m417 -3 c0 -11 -15 -16 -60 -18 -52 -2 -62 0 -73 18 -12
21 -11 21 60 18 57 -2 73 -6 73 -18z m225 0 c0 -18 -7 -20 -59 -20 -41 0 -60
4 -64 14 -9 22 2 26 65 26 51 0 58 -2 58 -20z m-640 -55 c0 -12 -14 -15 -65
-15 -51 0 -65 3 -65 15 0 12 14 15 65 15 51 0 65 -3 65 -15z m420 0 c0 -12
-14 -15 -70 -15 -58 0 -68 3 -64 15 5 11 22 15 70 15 50 0 64 -3 64 -15z m220
0 c0 -12 -13 -15 -60 -15 -47 0 -60 3 -60 15 0 12 13 15 60 15 47 0 60 -3 60
-15z m-250 -60 c-10 -13 -53 -15 -266 -15 -219 0 -254 2 -254 15 0 13 36 15
266 15 236 0 265 -2 254 -15z m250 0 c0 -12 -13 -15 -60 -15 -47 0 -60 3 -60
15 0 12 13 15 60 15 47 0 60 -3 60 -15z m-255 -55 c18 -20 17 -20 -233 -20
-242 0 -282 3 -282 20 0 14 44 17 276 19 209 1 222 0 239 -19z m255 0 c0 -18
-7 -20 -60 -20 -53 0 -60 2 -60 20 0 18 7 20 60 20 53 0 60 -2 60 -20z m-640
-55 c0 -12 -14 -15 -65 -15 -51 0 -65 3 -65 15 0 12 14 15 65 15 51 0 65 -3
65 -15z m420 0 c0 -12 -14 -15 -64 -15 -48 0 -65 4 -70 15 -4 12 6 15 64 15
56 0 70 -3 70 -15z m220 0 c0 -12 -13 -15 -60 -15 -47 0 -60 3 -60 15 0 12 13
15 60 15 47 0 60 -3 60 -15z m-640 -60 c0 -12 -14 -15 -65 -15 -51 0 -65 3
-65 15 0 12 14 15 65 15 51 0 65 -3 65 -15z m420 0 c0 -12 -14 -15 -70 -15
-64 0 -81 6 -63 23 3 4 35 7 70 7 49 0 63 -3 63 -15z m250 0 c11 -13 2 -15
-74 -15 -70 0 -86 3 -86 15 0 12 15 15 74 15 53 0 77 -4 86 -15z m-357 -41
c63 -6 75 -9 66 -20 -18 -21 -509 -20 -509 1 0 12 23 15 123 18 67 1 149 4
183 5 34 1 95 -1 137 -4z m701 0 c29 -4 46 -12 46 -20 0 -21 -492 -20 -509 0
-10 12 -7 15 21 19 56 7 393 7 442 1z m-684 -69 c-19 -22 -460 -22 -460 0 0
13 33 15 236 15 209 0 235 -2 224 -15z m730 0 c0 -22 -441 -22 -460 0 -11 13
15 15 224 15 203 0 236 -2 236 -15z m-95 -95 c18 -20 17 -20 -218 -20 -199 0
-237 2 -237 14 0 21 23 23 241 25 184 1 197 0 214 -19z m-965 -5 c0 -12 -14
-15 -65 -15 -51 0 -65 3 -65 15 0 12 14 15 65 15 51 0 65 -3 65 -15z m420 0
c0 -12 -14 -15 -65 -15 -51 0 -65 3 -65 15 0 12 14 15 65 15 51 0 65 -3 65
-15z m-422 -52 c3 -10 -14 -13 -62 -13 -53 0 -66 3 -66 15 0 13 11 15 62 13
38 -2 63 -8 66 -15z m422 2 c0 -12 -14 -15 -65 -15 -51 0 -65 3 -65 15 0 12
14 15 65 15 51 0 65 -3 65 -15z m599 2 c9 -12 -16 -15 -147 -21 -196 -8 -362
1 -362 21 0 19 492 19 509 0z m-1019 -62 c0 -12 -14 -15 -65 -15 -51 0 -65 3
-65 15 0 12 14 15 65 15 51 0 65 -3 65 -15z m420 0 c0 -12 -14 -15 -65 -15
-51 0 -65 3 -65 15 0 12 14 15 65 15 51 0 65 -3 65 -15z m220 0 c0 -12 -14
-15 -65 -15 -51 0 -65 3 -65 15 0 12 14 15 65 15 51 0 65 -3 65 -15z m420 0
c0 -12 -14 -15 -64 -15 -48 0 -65 4 -70 15 -4 12 6 15 64 15 56 0 70 -3 70
-15z m-1060 -60 c0 -12 -14 -15 -65 -15 -51 0 -65 3 -65 15 0 12 14 15 65 15
51 0 65 -3 65 -15z m420 0 c0 -12 -14 -15 -65 -15 -51 0 -65 3 -65 15 0 12 14
15 65 15 51 0 65 -3 65 -15z m220 0 c0 -12 -14 -15 -65 -15 -51 0 -65 3 -65
15 0 12 14 15 65 15 51 0 65 -3 65 -15z m420 0 c0 -12 -14 -15 -70 -15 -58 0
-68 3 -64 15 5 11 22 15 70 15 50 0 64 -3 64 -15z m-1065 -55 c0 -11 -15 -16
-62 -18 -58 -3 -63 -1 -63 18 0 19 5 21 63 18 47 -2 62 -7 62 -18z m420 0 c0
-11 -15 -16 -62 -18 -58 -3 -63 -1 -63 18 0 19 5 21 63 18 47 -2 62 -7 62 -18z
m610 0 c-18 -20 -29 -20 -264 -18 -225 3 -246 4 -249 21 -3 16 15 17 264 17
l267 0 -18 -20z m-1025 -55 c0 -12 -14 -15 -65 -15 -51 0 -65 3 -65 15 0 12
14 15 65 15 51 0 65 -3 65 -15z m420 0 c0 -12 -14 -15 -65 -15 -51 0 -65 3
-65 15 0 12 14 15 65 15 51 0 65 -3 65 -15z m610 0 c11 -13 -18 -15 -254 -15
-230 0 -266 2 -266 15 0 23 501 23 520 0z m-1030 -60 c0 -12 -14 -15 -65 -15
-51 0 -65 3 -65 15 0 12 14 15 65 15 51 0 65 -3 65 -15z m420 0 c0 -12 -14
-15 -65 -15 -51 0 -65 3 -65 15 0 12 14 15 65 15 51 0 65 -3 65 -15z m220 0
c0 -12 -14 -15 -65 -15 -51 0 -65 3 -65 15 0 12 14 15 65 15 51 0 65 -3 65
-15z m420 0 c0 -12 -14 -15 -65 -15 -51 0 -65 3 -65 15 0 12 14 15 65 15 51 0
65 -3 65 -15z m-1039 -55 l24 -19 -87 -1 c-67 0 -88 3 -88 13 0 23 11 27 71
27 42 0 63 -5 80 -20z m394 0 c0 -12 -17 -16 -82 -18 -46 -2 -83 0 -83 4 0 4
8 13 18 20 25 20 147 15 147 -6z m225 0 c0 -18 -7 -20 -59 -20 -33 0 -63 5
-66 10 -13 21 8 30 66 30 52 0 59 -2 59 -20z m420 0 c0 -18 -7 -20 -59 -20
-58 0 -79 9 -66 30 3 6 33 10 66 10 52 0 59 -2 59 -20z m-680 -55 c-19 -22
-461 -22 -480 0 -11 13 17 15 240 15 223 0 251 -2 240 -15z m260 0 c0 -12 -14
-15 -65 -15 -51 0 -65 3 -65 15 0 12 14 15 65 15 51 0 65 -3 65 -15z m420 1
c0 -16 -60 -28 -101 -19 -16 3 -29 12 -29 19 0 11 17 14 65 14 48 0 65 -4 65
-14z m-740 -61 c-10 -12 -43 -15 -180 -15 -137 0 -170 3 -180 15 -11 13 10 15
180 15 170 0 191 -2 180 -15z m320 0 c0 -12 -14 -15 -65 -15 -51 0 -65 3 -65
15 0 12 14 15 65 15 51 0 65 -3 65 -15z m420 0 c0 -12 -14 -15 -65 -15 -51 0
-65 3 -65 15 0 12 14 15 65 15 51 0 65 -3 65 -15z"/>
</g>
</svg>
