<svg height="32" viewBox="0 0 32 32" width="32" xmlns="http://www.w3.org/2000/svg" xmlns:xlink="http://www.w3.org/1999/xlink"><defs><linearGradient id="a" x1="50%" x2="50%" y1="0%" y2="100%"><stop offset="0" stop-color="#fff" stop-opacity=".5"/><stop offset="1" stop-opacity=".5"/></linearGradient><circle id="b" cx="16" cy="15" r="15"/><filter id="c" height="111.7%" width="111.7%" x="-5.8%" y="-4.2%"><feOffset dy=".5" in="SourceAlpha" result="shadowOffsetOuter1"/><feGaussianBlur in="shadowOffsetOuter1" result="shadowBlurOuter1" stdDeviation=".5"/><feComposite in="shadowBlurOuter1" in2="SourceAlpha" operator="out" result="shadowBlurOuter1"/><feColorMatrix in="shadowBlurOuter1" values="0 0 0 0 0   0 0 0 0 0   0 0 0 0 0  0 0 0 0.199473505 0"/></filter><path id="d" d="m25.195212 18.4007634c.7698317.4198473 1.0264423 1.3854961.5132212 2.1412213-.4276843.7557252-1.4113582 1.0076336-2.1811899.5877863-.5132211-.2938931-.7698317-.7977099-.8126001-1.3015267h-3.9346954l-1.8818108 3.1908397c0 .0419847-.0427684.0839694-.0855369.1259542.4276843.2519084.7270633.7557252.7270633 1.3015267 0 .8396946-.7270633 1.5534351-1.5824318 1.5534351-.8553686 0-1.5824319-.6717557-1.5824319-1.5534351 0-.5458015.299379-1.0076336.7270633-1.3015267 0-.0419848-.0427684-.0839695-.0855368-.1259542l-1.8818109-3.1908397h-3.93469535c-.04276843.5458015-.34214743 1.0076336-.81260013 1.3015267-.76983171.4198473-1.75350555.1679389-2.18118983-.5877863s-.17107371-1.721374.59875799-2.1412213c.51322114-.2938932 1.0692107-.2938932 1.53966341-.0419848.04276843-.0419847.04276843-.1259542.08553685-.1679389l1.92457926-3.1908397-1.88181083-3.1908397c-.04276843-.0419847-.08553685-.1259542-.08553685-.1679389-.47045271.2099236-1.0692107.2519084-1.53966341-.0419848-.76983171-.4198473-1.02644227-1.3854961-.59875799-2.14122133.42768428-.75572519 1.41135812-1.00763359 2.18118982-.58778626.51322114.29389313.76983171.79770992.81260014 1.30152669h3.97746382l1.8818108-3.19083967c0-.04198473.0427684-.08396947.0855369-.1259542-.4276843-.25190839-.7270633-.75572519-.7270633-1.30152672 0-.83969465.7270633-1.55343511 1.5824318-1.55343511.8553686 0 1.5824319.67175573 1.5824319 1.55343511 0 .54580153-.299379 1.00763359-.7270633 1.30152672 0 .04198473.0427684.08396947.0855368.1259542l1.8818109 3.19083967h3.9346954c.0427684-.5458015.3421474-1.00763356.8126001-1.30152669.7698317-.41984733 1.7535055-.16793893 2.1811898.58778626.4276843.75572523.1710737 1.72137403-.598758 2.14122133-.5132211.2938932-1.0692107.2938932-1.5396634.0419848-.0427684.0419847-.0427684.1259542-.0855368.1679389l-1.8818109 3.1908397 1.8818109 3.1908397c.0427684.0419847.0855368.1259542.0855368.1679389.4704527-.2099236 1.0692107-.2519084 1.5396634.0419848zm-7.1423275-4.4503817c0-.8816794-.7270632-1.5954199-1.6252002-1.5954199h-2.0528846c-.2138421 0-.3849158.167939-.3849158.3778626v4.5343512c0 .2099236.1710737.3778626.3849158.3778626h2.0528846c.898137 0 1.6252002-.7137405 1.6252002-1.5954199 0-.3778626-.1283052-.7557252-.3849158-1.0076336.2138421-.3358778.3849158-.6717557.3849158-1.091603z"/><filter id="e" height="115.9%" width="117.5%" x="-8.8%" y="-5.7%"><feOffset dy=".5" in="SourceAlpha" result="shadowOffsetOuter1"/><feGaussianBlur in="shadowOffsetOuter1" result="shadowBlurOuter1" stdDeviation=".5"/><feColorMatrix in="shadowBlurOuter1" values="0 0 0 0 0   0 0 0 0 0   0 0 0 0 0  0 0 0 0.204257246 0"/></filter></defs><g fill="none"><use fill="#000" filter="url(#c)" xlink:href="#b"/><use fill="#fd7a3d" fill-rule="evenodd" xlink:href="#b"/><use fill="url(#a)" fill-rule="evenodd" xlink:href="#b"/><circle cx="16" cy="15" r="14.5" stroke="#000" stroke-opacity=".097"/><use fill="#000" filter="url(#e)" xlink:href="#d"/><use fill="#fff" fill-rule="evenodd" xlink:href="#d"/></g></svg>