<?xml version="1.0" encoding="UTF-8"?>
<svg width="32px" height="32px" viewBox="0 0 32 32" version="1.1" xmlns="http://www.w3.org/2000/svg" xmlns:xlink="http://www.w3.org/1999/xlink">
    <!-- Generator: Sketch 52.4 (67378) - http://www.bohemiancoding.com/sketch -->
    <title>svg/icon/booty</title>
    <desc>Created with Sketch.</desc>
    <defs>
        <linearGradient x1="50%" y1="0%" x2="50%" y2="100%" id="linearGradient-1">
            <stop stop-color="#FFFFFF" stop-opacity="0.5" offset="0%"></stop>
            <stop stop-color="#000000" stop-opacity="0.5" offset="100%"></stop>
        </linearGradient>
        <circle id="path-2" cx="15" cy="15" r="15"></circle>
        <filter x="-5.8%" y="-4.2%" width="111.7%" height="111.7%" filterUnits="objectBoundingBox" id="filter-3">
            <feOffset dx="0" dy="0.5" in="SourceAlpha" result="shadowOffsetOuter1"></feOffset>
            <feGaussianBlur stdDeviation="0.5" in="shadowOffsetOuter1" result="shadowBlurOuter1"></feGaussianBlur>
            <feComposite in="shadowBlurOuter1" in2="SourceAlpha" operator="out" result="shadowBlurOuter1"></feComposite>
            <feColorMatrix values="0 0 0 0 0   0 0 0 0 0   0 0 0 0 0  0 0 0 0.199473505 0" type="matrix" in="shadowBlurOuter1"></feColorMatrix>
        </filter>
    </defs>
    <g id="icon/booty" stroke="none" stroke-width="1" fill="none" fill-rule="evenodd">
        <g id="Group" transform="translate(1.000000, 0.000000)" fill-rule="nonzero">
            <g id="Oval">
                <use fill="black" fill-opacity="1" filter="url(#filter-3)" xlink:href="#path-2"></use>
                <use fill="#00B4F4" xlink:href="#path-2"></use>
                <use fill="url(#linearGradient-1)" style="mix-blend-mode: soft-light;" xlink:href="#path-2"></use>
                <circle stroke-opacity="0.0970052083" stroke="#000000" stroke-width="1" stroke-linejoin="square" cx="15" cy="15" r="14.5"></circle>
            </g>
        </g>
        <g id="booty-copy" transform="translate(5.000000, 4.000000)" fill="#FEFFFF" fill-rule="nonzero">
            <path d="M3.45852891,17.3982074 L3.45852891,17.5416328 L1.982181,17.5416328 L1.982181,14.8343583 L1.93639085,14.9841176 L0.524552324,14.5525142 L1.32213062,11.9439886 L1.22394788,12.0895373 L0,11.2640486 L1.52937031,8.99686855 L1.38351392,9.11497006 L0.454418088,7.96773581 L2.65529347,6.18566292 L2.37405534,6.29361038 L1.84497958,4.91544527 L4.47372003,3.90645743 L4.16649762,3.92793859 L4.06351279,2.45531991 L6.81574615,2.26288238 L6.56726979,2.20552226 L6.89937579,0.767142897 L9.52843173,1.3740535 L9.36280828,1.27843938 L10.1009822,0 L12.3940043,1.32375741 L12.3047661,1.22806983 L13.3844986,0.221293859 L15.1701382,2.135985 L15.1320752,2.05795141 L16.459008,1.41082149 L17.6045235,3.75926437 L17.5941139,3.69354748 L19.0522856,3.46261664 L19.4819078,6.17490035 L19.5124905,5.98182706 L20.970662,6.2127579 L20.5346085,8.96564279 L20.6424232,8.74460986 L21.969356,9.39173976 L20.7407659,11.9104954 L20.9202675,11.7180209 L22,12.7247968 L20.0912161,14.7715322 L20.3222945,14.638131 L21.0604685,15.9165703 L18.6610566,17.3017464 L18.9024747,17.2460157 L19.2345807,18.6843952 L16.583324,19.2964308 L16.7876087,19.3107145 L16.6846239,20.7833331 L14.0307552,20.5977733 L14.1660038,20.6496856 L13.6369281,22.0278508 L11.0965522,21.0527799 L11.257086,21.1827658 L10.3279901,22.33 L8.23119802,20.6322046 L8.33471088,20.7856548 L7.11076298,21.6111435 L5.61190268,19.3891923 L5.65646433,19.5349338 L4.24388612,19.9667633 L3.45852891,17.3982074 Z M3.45852891,15.6441058 L4.38062228,15.3622191 L5.0972455,17.7059765 L5.89452325,17.1682544 L7.25719101,19.1883101 L7.86580194,18.436806 L9.75427273,19.9659215 L10.0920763,19.0859925 L12.3678148,19.959488 L12.4344714,19.006341 L14.8696761,19.1766116 L14.6505507,18.2275611 L17.0377956,17.676472 L16.5431614,16.8198177 L18.6739978,15.5896897 L17.9441854,14.9091901 L19.627422,13.1043029 L18.7294737,12.6663837 L19.8120238,10.4470275 L18.8298469,10.29148 L19.2158656,7.85447373 L18.2767575,8.0032004 L17.8908985,5.5672024 L17.0450248,5.97972533 L15.970287,3.776385 L15.2808481,4.41923903 L13.6177965,2.63599541 L13.1419414,3.46012603 L11.0367522,2.24480411 L10.8191938,3.18706769 L8.45087538,2.64034763 L8.51963485,3.62356504 L6.08851291,3.79355031 L6.44798294,4.72991725 L4.15891621,5.60852833 L4.77479794,6.36901028 L2.85302865,7.92508791 L3.66413551,8.472137 L2.2786581,10.5260063 L3.21223288,10.811403 L2.48854692,13.1782595 L3.45852891,13.1782595 L3.45852891,15.6441058 Z M6.72144619,6.61573943 L9.69868823,6.61573943 C10.0445312,6.61573943 10.3884894,6.64017142 10.7305732,6.68903612 C11.0726571,6.73790083 11.3733855,6.83562877 11.6327679,6.98222288 C11.89215,7.128817 12.0895031,7.3336698 12.2248329,7.59678745 C12.3601629,7.8599051 12.3977539,8.20947043 12.3376073,8.64549397 C12.2774607,9.09655278 12.0989032,9.47055011 11.8019293,9.76749717 C11.5049554,10.0644442 11.1422016,10.2768146 10.7136571,10.4046146 L10.7136571,10.4271674 C10.9692802,10.4647556 11.1967061,10.5380516 11.3959417,10.6470575 C11.5951773,10.7560633 11.7586985,10.8951377 11.88651,11.0642848 C12.0143215,11.2334319 12.1045401,11.4307671 12.1571684,11.6562965 C12.2097967,11.8818259 12.2173149,12.122387 12.1797233,12.377987 C12.1195767,12.7989752 11.9804897,13.15042 11.7624583,13.4323318 C11.5444269,13.7142435 11.2812894,13.9416489 10.973038,14.1145547 C10.6647867,14.2874607 10.3264671,14.4115 9.95806916,14.4866765 C9.58967121,14.5618529 9.22879699,14.5994406 8.8754357,14.5994406 L5.60498044,14.5994406 L6.72144619,6.61573943 Z M8.0296283,9.80696462 L9.30397811,9.80696462 C9.43930798,9.80696462 9.57463581,9.79192954 9.70996566,9.76185895 C9.84529553,9.73178837 9.97122558,9.68292439 10.0877596,9.61526557 C10.2042937,9.54760675 10.3020304,9.45739634 10.3809729,9.34463164 C10.4599153,9.23186693 10.5106632,9.09655132 10.5332182,8.93868073 C10.5557732,8.77329249 10.5388572,8.63609749 10.4824698,8.52709162 C10.4260823,8.41808573 10.3452615,8.33351347 10.240005,8.27337229 C10.1347484,8.21323113 10.0125775,8.1700053 9.87348843,8.14369354 C9.7343994,8.11738178 9.59719202,8.10422609 9.46186216,8.10422609 L8.26645437,8.10422609 L8.0296283,9.80696462 Z M7.56725359,13.1109539 L9.14609407,13.1109539 C9.28142392,13.1109539 9.42239042,13.0959189 9.56899777,13.0658483 C9.71560511,13.0357777 9.84905339,12.9831549 9.9693466,12.9079785 C10.0896398,12.8328021 10.1948948,12.7350741 10.2851147,12.6147917 C10.3753346,12.4945094 10.4317212,12.3479174 10.4542762,12.1750115 C10.4768311,11.9870704 10.4505174,11.8348404 10.3753341,11.7183168 C10.3001509,11.6017933 10.1948959,11.5134623 10.0595661,11.4533211 C9.92423619,11.3931799 9.77575149,11.3518335 9.61410749,11.3292805 C9.45246349,11.3067275 9.30021969,11.2954513 9.1573715,11.2954513 L7.82663453,11.2954513 L7.56725359,13.1109539 Z M16.0549684,6.74249451 L14.188492,13.5621765 L12.6467111,13.4541262 L13.8086883,6.422546 L16.0549684,6.74249451 Z M14.4275993,14.2736008 L13.9424926,16.6831823 L11.8918561,16.086106 L12.3614631,13.7743858 L14.4275993,14.2736008 Z" id="booty"></path>
        </g>
    </g>
</svg>