<svg width="32" height="32" viewBox="0 0 32 32" xmlns="http://www.w3.org/2000/svg" xmlns:xlink="http://www.w3.org/1999/xlink"><defs><linearGradient x1="50%" y1="0%" x2="50%" y2="100%" id="c"><stop stop-color="#FFF" stop-opacity=".5" offset="0%"/><stop stop-opacity=".5" offset="100%"/></linearGradient><circle id="b" cx="15" cy="15" r="15"/><filter x="-5.8%" y="-4.2%" width="111.7%" height="111.7%" filterUnits="objectBoundingBox" id="a"><feOffset dy=".5" in="SourceAlpha" result="shadowOffsetOuter1"/><feGaussianBlur stdDeviation=".5" in="shadowOffsetOuter1" result="shadowBlurOuter1"/><feComposite in="shadowBlurOuter1" in2="SourceAlpha" operator="out" result="shadowBlurOuter1"/><feColorMatrix values="0 0 0 0 0 0 0 0 0 0 0 0 0 0 0 0 0 0 0.199473505 0" in="shadowBlurOuter1"/></filter></defs><g fill="none"><g transform="translate(1)"><use fill="#000" filter="url(#a)" xlink:href="#b"/><use fill="#EAB304" xlink:href="#b"/><use fill="url(#c)" style="mix-blend-mode:soft-light" xlink:href="#b"/><circle stroke-opacity=".097" stroke="#000" stroke-linejoin="square" cx="15" cy="15" r="14.5"/></g><path d="M22.15 13.57l.07-.14c0-.07 0-.14.14-.09a.56.56 0 0 0 0-.19.4.4 0 0 0 0-.28 1.71 1.71 0 0 1-.07-1.09.3.3 0 0 0 0-.14l.07-.07a.33.33 0 0 1 .07.09.3.3 0 0 1 0 .14v.07c0 .07.12-.07.17-.12a1 1 0 0 1 .2-.12 1.36 1.36 0 0 0-.07-.54 1.67 1.67 0 0 1 .07-1.14c0 .07.09.12.09.19.017.26.127.505.31.69.203.233.356.505.45.8 0 0 0 .09.07.09.288.083.55.237.76.45.242.218.472.448.69.69a.49.49 0 0 1 .09.14h.07a6.23 6.23 0 0 0 0-.66c0-.19.09-.38.28-.35h.09a.39.39 0 0 1 .3-.36.4.4 0 0 1 0 .4c.14.17.17.26 0 .45s-.09.21 0 .4a.86.86 0 0 1 .12-.31c.05-.1.07-.26.19-.31a.18.18 0 0 1 .12 0 .9.9 0 0 0 .35 0 .35.35 0 0 1 .35.21l-.33.16c.07.14 0 .19-.14.28a1.53 1.53 0 0 0-.19.21 3.42 3.42 0 0 0 .38-.09.37.37 0 0 1 .43.21.35.35 0 0 0 .12.14.5.5 0 0 1 .17.33.18.18 0 0 1 0 .09l-.19-.14a.13.13 0 0 0-.18 0 .18.18 0 0 1-.25 0 .44.44 0 0 0-.45 0 3.22 3.22 0 0 1-.33.19.85.85 0 0 1 .63.43c.07.14.17.28.24.43a.25.25 0 0 1-.12.33h-.05v-.05c0-.12-.07-.14-.19-.12a.26.26 0 0 1-.33-.17 1.1 1.1 0 0 0-.55-.52l-.21-.09a.85.85 0 0 1-.09.26.63.63 0 0 1-.12.14c-.14.12-.14.14 0 .31.14.17.07.09.12.17a.49.49 0 0 1-.4-.17 1.77 1.77 0 0 1-.3-.47.39.39 0 0 1 .14-.45.85.85 0 0 0 .17-.24l-.71-.19a1.6 1.6 0 0 1 0 .33c.024.403.024.807 0 1.21a7.7 7.7 0 0 1-.28 1.77 6 6 0 0 1-.5 1.28 9.54 9.54 0 0 1-.61 1.06 6.8 6.8 0 0 1-.64.8 5.9 5.9 0 0 1-.78.76c-.31.26-.64.47-1 .69a6.21 6.21 0 0 1-1.56.71 9.81 9.81 0 0 1-1.13.26 5.94 5.94 0 0 1-.64.09.43.43 0 0 0-.28.28 1.19 1.19 0 0 1-.52.78c-.12.09-.26.17-.4.26l.07-.21a.27.27 0 0 0-.07-.26c-.07-.07-.17 0-.26 0s-.17.12-.19.26a.77.77 0 0 1-.45.59h-.12a1.45 1.45 0 0 0 .07-.26c0-.07-.07-.14-.12-.21-.05-.07-.09 0-.14 0l-.43.21-.14.07.38.17a1 1 0 0 1 .47.47.32.32 0 0 1 0 .38.11.11 0 0 0 0 .12.93.93 0 0 1-.09.71c0 .07-.12.14-.17.21l-.07-.48a.09.09 0 0 0-.09-.09.74.74 0 0 1-.69-.4l-.07-.09a.87.87 0 0 1-.52.35 1.07 1.07 0 0 0-.59.69 2 2 0 0 1-.17.5.45.45 0 0 1-.57.26v.38a.42.42 0 0 1-.3-.52.4.4 0 0 0 0-.17.62.62 0 0 1 .21-.8 2.07 2.07 0 0 0 .5-.52.12.12 0 0 0 0-.07l-.71-.09a.67.67 0 0 0-.52.07l-.14.18c-.21.24-.31.26-.59.12a1 1 0 0 0-.12.64.75.75 0 0 1-.21-.38.79.79 0 0 1 0-.24v-.14a.33.33 0 0 1 0-.21.83.83 0 0 1 .43-.43 1.49 1.49 0 0 1 .71-.24c.19-.012.38-.012.57 0h.14a.8.8 0 0 0-.47-.45l-.54-.21a.23.23 0 0 1-.26-.19.09.09 0 0 0-.09-.09.85.85 0 0 0-.47.14c.07-.21.17-.43.4-.47a1.34 1.34 0 0 1 .31 0h.09c.14-.21.35-.17.54-.07.277.132.507.344.66.61a.54.54 0 0 0 .35.28 1.36 1.36 0 0 0-.07-.54.38.38 0 0 0-.28-.35c-.24-.07-.31-.24-.19-.5a.6.6 0 0 0-.59-.12c.07-.19.35-.26.54-.24a1 1 0 0 0 .57.14.43.43 0 0 1 .31.24l.14.28c.12.21.21.45.31.66.14-.4.31-.83.47-1.28l-.24-.09-.69-.28a7.8 7.8 0 0 1-1.49-.85.85.85 0 0 0-.26-.09c-.07 0-.17.09-.12.17.05.08.12.09.17.17.05.08 0 .07.09.12h-.12a.8.8 0 0 1-.76-.5 2.56 2.56 0 0 1-.26-.95.09.09 0 0 0 0-.07l-.64-.71a.52.52 0 0 0 0 .38l.07.14v.17h-.19a1.46 1.46 0 0 1-.26-.4c-.09-.35-.14-.71-.21-1.06a3.59 3.59 0 0 0-.09-.52 5.32 5.32 0 0 0-.19-.59v.55c0 .05-.12 0-.14-.09a1.43 1.43 0 0 1-.19-.61 4.63 4.63 0 0 1 .21-1.49 4.41 4.41 0 0 1 .17-.52.71.71 0 0 1-.09.16l-.09.09v-.12a1.23 1.23 0 0 1 .17-.64c.17-.38.38-.76.57-1.13a3.61 3.61 0 0 1 .26-.38l-.17.18-.12.07v-.07a3.46 3.46 0 0 1 .21-.31 3.72 3.72 0 0 1 .78-.71.32.32 0 0 1 .21 0l1 .21.35.09a1.44 1.44 0 0 0-.24.33.43.43 0 0 0 0 .39.15.15 0 0 1 0 .17 2.66 2.66 0 0 0-.57.69v.09s.33.33.5.52c.01.03.01.06 0 .09a.84.84 0 0 0 0 .85.34.34 0 0 0 .43.24.83.83 0 0 0 .17.54c.07.07.17.12.24.19a.24.24 0 0 1 .09.12 1 1 0 0 0 .8.69c.288.04.58-.02.83-.17.09 0 .12-.07.14 0 .056.349.168.686.33 1 .207.366.463.702.76 1 .267.255.594.44.95.54.44.099.9-.025 1.23-.33a3 3 0 0 0 .52-.71l.43-.69a2.3 2.3 0 0 1 .71-.64.39.39 0 0 1 .33-.07l-.07.14a.54.54 0 0 0 0 .57c.07.09.12.09.17 0 .05-.09.14-.26.33-.24.19.02.19-.12.21-.24a3 3 0 0 1 .45-1.47 1 1 0 0 1 .17-.14v.38c.019.106.05.21.09.31l.06-.13a.21.21 0 0 1 .19-.12.2.2 0 0 0 .12-.07.61.61 0 0 0 .12-.57 1.43 1.43 0 0 1 0-.45 1.1 1.1 0 0 1 .14-.54.49.49 0 0 1 .09-.14h.07v.33a.18.18 0 0 0 0 .09h.09l.18-.12a.72.72 0 0 0 .09-.4.7.7 0 0 1 0-.24v-.82c0-.11 0-.12.07-.19l.11-.06v.44a.09.09 0 0 1 .08-.05zM9.86 9.01l.59-.59a.41.41 0 0 1 .12-.09c.07-.07 0-.14 0-.21 0-.07-.09 0-.17 0h-.09V8a.59.59 0 0 1 .33-.37 1.18 1.18 0 0 1 .8 0 .16.16 0 0 0 .14 0l.57-.31c.09 0 .07-.09 0-.14-.07-.05-.17-.12-.26 0a.18.18 0 0 1-.09 0c0-.17.17-.31.33-.38.27-.083.56-.083.83 0H13c.07 0 .28.09.45 0l.35-.12c.09 0 .09-.07 0-.12-.09-.05-.12-.14-.21-.07s0 0-.09 0a.11.11 0 0 1 0-.15.83.83 0 0 1 .61-.16 1 1 0 0 1 .54.21h.07a.28.28 0 0 0 .28.09.37.37 0 0 1 .38 0h.07v-.09a.28.28 0 0 0-.28-.21h-.07a.86.86 0 0 1 .85-.12c.206.084.386.222.52.4a.57.57 0 0 0 .17.07 1 1 0 0 1 .4.07c.12.07.07 0 .09.09a.27.27 0 0 0-.13-.36h-.2v-.15a.86.86 0 0 1 .33 0c.316.037.6.208.78.47.07.12.128.247.17.38a.49.49 0 0 1 .45.19h.07a.52.52 0 0 0 .12-.04.38.38 0 0 0-.26-.35h-.07c.09 0 .17-.07.26 0 .15.014.295.055.43.12.356.145.622.449.72.82.17.09.28.19.4.26h.14v-.21a.47.47 0 0 0-.26-.33l-.09-.07a.64.64 0 0 1 .61.19c.185.156.323.36.4.59a.24.24 0 0 0 .14.17c.076.057.146.12.21.19.09-.26-.12-.4-.19-.59a.54.54 0 0 1 .4.19c.14.146.266.303.38.47.072.122.152.239.24.35.072.134.119.28.14.43a2.81 2.81 0 0 1-.14 1 6 6 0 0 0 0 .66c.01.03.01.06 0 .09a.86.86 0 0 0-.31.59 2.86 2.86 0 0 0 0 .9v.07a1 1 0 0 0-.45.83v.52a.82.82 0 0 0-.62.56c-.07.14-.09.31-.17.45-.08.14-.09.09-.14.14v-.19a4.15 4.15 0 0 0 .07-.95 3.37 3.37 0 0 0-.26-1.37v-.17a1 1 0 0 0 .28-.59 6.65 6.65 0 0 0 0-1 .93.93 0 0 0-.24-.64.58.58 0 0 0-.64-.13.77.77 0 0 0-.47.71v.35a3.44 3.44 0 0 0-1.25-.8 4.72 4.72 0 0 0-.83-.21h-.61a3.72 3.72 0 0 0-1.16.19c-.21.07-.4.17-.61.24a.15.15 0 0 1-.14 0 5.52 5.52 0 0 0-1.44-.61 3.65 3.65 0 0 0-.73-.12c-.5-.1-1-.17-1.42-.3a3.46 3.46 0 0 1-1.06-.45.36.36 0 0 0-.12-.17zm9.45 4.7c0 .17-.31.21-.64.12v.35a.48.48 0 0 1 0 .12h-.14a2.83 2.83 0 0 1-.28-.26.42.42 0 0 0-.24.28c-.07.19-.17.21-.31 0a1.06 1.06 0 0 0-.17-.14 2.51 2.51 0 0 1-.21.26.2.2 0 0 1-.14.07.5.5 0 0 1-.09-.12.72.72 0 0 1 0-.21c-.12.31-.26.57-.61.64a.7.7 0 0 1 .07-.38c.07-.12 0 0 0-.07a.85.85 0 0 0-.26.57c.016.433.128.857.33 1.24.14.35.31.69.45 1 .128.317.186.658.17 1a.9.9 0 0 1-1.44.8 2.16 2.16 0 0 1-.59-.54c-.14-.19-.28-.38-.4-.57a3.16 3.16 0 0 1-.17-.43v-.14a.26.26 0 0 1 .26.17c.05.08.26.4.4.59.115.23.288.426.5.57a.58.58 0 0 0 .76-.31v-.07a.94.94 0 0 0-.07-.76c-.17-.38-.38-.76-.57-1.13a4.11 4.11 0 0 1-.45-1.28 1.54 1.54 0 0 1 0-.33c-.15.012-.3.012-.45 0l-.45-.12-.21.14a.35.35 0 0 0 0-.14.5.5 0 0 0-.26-.45.19.19 0 0 0-.19.19.57.57 0 0 0 .26.52l.4.28c.14.09.12.09.19 0a.34.34 0 0 0 0-.14c.19 0 .26.12.28.31.046.24.11.478.19.71a.38.38 0 0 1-.09.28 1.14 1.14 0 0 1-.47.35.65.65 0 0 1-.47 0 2.5 2.5 0 0 1 .28-.24.35.35 0 0 0 .09-.33.11.11 0 0 0-.09-.07 1.14 1.14 0 0 0-.28 0 .29.29 0 0 0-.19.09 4 4 0 0 1-.52.35.79.79 0 0 1-.92-.14.93.93 0 0 1-.19-.33l-.07-.14a.5.5 0 0 1-.12.09c-.05 0-.07-.12 0-.14.029-.13.07-.257.12-.38a.15.15 0 0 0 0-.14.82.82 0 0 0-.31-.26c-.09-.07-.17 0-.24 0h-.12a1 1 0 0 0 0-.12.56.56 0 0 1 .4-.45h.12a2.11 2.11 0 0 1-.76-.5c-.07-.07-.09-.12 0-.19s.26-.23.4-.33a1.24 1.24 0 0 1 .83 0c.247.082.473.218.66.4l.07.07a1.17 1.17 0 0 0-.73-.74 3.06 3.06 0 0 0-.95-.19.33.33 0 0 1 .26-.24l.54-.1a1.2 1.2 0 0 0 .52-.26 2 2 0 0 0-.31-.21c-.28-.12-.57-.26-.85-.35a2.83 2.83 0 0 0-.8-.22 5.6 5.6 0 0 1-1.13-.28 4.63 4.63 0 0 1-1.25-.55c-.4-.26-.74-.6-1-1a1.4 1.4 0 0 1-.14-.33v-.12h.12l.16.09c.26.21.5.47.76.66a3.15 3.15 0 0 0 1.06.5c.31.07.61.14.92.19.31.05.52 0 .78.07l.57.07c.217.015.432.055.64.12.33.12.64.26.95.38a.11.11 0 0 0 .12 0c.13-.029.257-.07.38-.12v-.11a7.77 7.77 0 0 0-.71-.35 5 5 0 0 0-1.42-.33l-.66-.07a8.39 8.39 0 0 1-1.07-.25 3.42 3.42 0 0 1-1-.57 1.6 1.6 0 0 1-.54-.76v-.21a.22.22 0 0 1 .17 0l.26.28c.14.14.28.28.45.43.396.31.852.535 1.34.66.28.07.57.12.85.17.45.07.92.14 1.37.24a3 3 0 0 1 1.44.69c.17.14.31.07.47 0a.4.4 0 0 1 .43.21c.12.323.12.677 0 1a.3.3 0 0 0 .14.31h.12a.85.85 0 0 1 .85.12.21.21 0 0 0 .26 0 5.33 5.33 0 0 0 .57-.31c.19-.12.09-.17.14-.26a.73.73 0 0 1 .76-.4c.215 0 .43.023.64.07a1 1 0 0 0 .52 0 .51.51 0 0 0 .44-.41v-.64c0-.07 0-.14.12-.14s.09.09.09.17c.072.33.072.67 0 1a.55.55 0 0 1-.61.47h-.85a.48.48 0 0 0-.5.38.3.3 0 0 0 0 .14c.07.14.12.26.33.24.112.01.2.098.21.21a.55.55 0 0 0 .5.45l.22-.01zm-5.57-.69c.12.123.247.24.38.35a.39.39 0 0 0 .47 0 3.61 3.61 0 0 0 .38-.26v-.07a.32.32 0 0 0-.17-.21.51.51 0 0 0-.26 0l-.17.07a1 1 0 0 1-.52 0l-.11.12zm3.26.33a.35.35 0 0 0 .14.07.79.79 0 0 1 .45.26c.116.011.234.011.35 0 .07 0 .12-.07.19-.09a1.43 1.43 0 0 0-.19-.19 1.39 1.39 0 0 0-.94-.05zM4.54 16.43a1 1 0 0 0 1 .28.4.4 0 0 0 .26-.24 1.62 1.62 0 0 1-1.11-.14 1.33 1.33 0 0 1-.64-.87 1.3 1.3 0 0 1 .54-1.44 1.31 1.31 0 0 0 .86 1.64h.14a1.37 1.37 0 0 0 1.51-.74 3.54 3.54 0 0 0-.3.26c-.437.3-1.013.3-1.45 0a.89.89 0 0 1-.05-1.45.56.56 0 0 0 .28.4 1.6 1.6 0 0 0 .47.17 1.18 1.18 0 0 0 1-.31 1.5 1.5 0 0 0 .33-.52c.19-.45.33-.92.54-1.37a8.79 8.79 0 0 1 .45-.8c0-.07.09 0 .14 0l.52.28.33.14-.14.12a5.32 5.32 0 0 0-.8 1.11c-.17.31-.33.59-.47.9-.14.31-.28.71-.4 1.06l-.28.8c-.07.21-.17.4-.26.61a1.48 1.48 0 0 1-.66.71 1.54 1.54 0 0 1-.55.15 2.28 2.28 0 0 1-.57 0 .76.76 0 0 1-.67-.54.37.37 0 0 0-.02-.21zm14.07-.8c.012.11.012.22 0 .33 0 .14-.09.14-.21.07l-.28-.14H18a.58.58 0 0 1 0 .52.24.24 0 0 1-.09.12h-.11l-.07-.21a.23.23 0 0 0-.3-.12.87.87 0 0 0-.26.12h-.14a3.11 3.11 0 0 1-.33-1.06l.1.12a.47.47 0 0 0 .57 0 .39.39 0 0 0 0-.33c0-.07-.07-.12-.09-.19.14 0 .14-.12.5.31l.26-.14c.09 0 0-.14 0-.19v-.21l.17.07a.24.24 0 0 1 .12.09 3 3 0 0 0 .5.45.47.47 0 0 1 .17.38v.09h-.07c-.25-.08-.25-.08-.32-.08zM6.8 14.04a1.05 1.05 0 0 0-.64-.14 1.14 1.14 0 0 1-.28 0 .38.38 0 0 1-.28-.54c.09 0 .17.12.26.17.09.05.12 0 .12-.07a.29.29 0 0 1 .17-.28.45.45 0 0 1 .45.09c.202.2.28.496.2.77z" fill="#FFF"/></g></svg>