<svg height="32" viewBox="0 0 32 32" width="32" xmlns="http://www.w3.org/2000/svg" xmlns:xlink="http://www.w3.org/1999/xlink"><defs><linearGradient id="a" x1="50%" x2="50%" y1="0%" y2="100%"><stop offset="0" stop-color="#fff" stop-opacity=".5"/><stop offset="1" stop-opacity=".5"/></linearGradient><circle id="b" cx="16" cy="15" r="15"/><filter id="c" height="111.7%" width="111.7%" x="-5.8%" y="-4.2%"><feOffset dy=".5" in="SourceAlpha" result="shadowOffsetOuter1"/><feGaussianBlur in="shadowOffsetOuter1" result="shadowBlurOuter1" stdDeviation=".5"/><feComposite in="shadowBlurOuter1" in2="SourceAlpha" operator="out" result="shadowBlurOuter1"/><feColorMatrix in="shadowBlurOuter1" values="0 0 0 0 0   0 0 0 0 0   0 0 0 0 0  0 0 0 0.199473505 0"/></filter><path id="d" d="m23.1889526 13.0201846c.3136-2.0962461-1.2824615-3.22313845-3.4648615-3.97489229l.7079384-2.83963077-1.7284923-.43076923-.6892307 2.7648c-.4544-.11323077-.9211077-.22006154-1.3848616-.32590769l.6941539-2.78301539-1.7275077-.43076923-.7084308 2.83864615c-.3761231-.08566153-.7453538-.17033846-1.1037538-.25944615l.0019692-.00886154-2.3837539-.5952-.4598153 1.84615385s1.2824615.29390769 1.2553846.31212307c.7000615.17476924.8265846.63803077.8054154 1.00529232l-.8064 3.2349538c.0482461.0123077.1107692.0300308.1796923.0576-.0576-.0142769-.1191385-.0300307-.1826462-.0452923l-1.1303384 4.5316923c-.0856616.212677-.3027693.5316923-.7921231.4105847.0172307.0251076-1.25636925-.3136-1.25636925-.3136l-.85809231 1.9785846 2.24935386.5607384c.4184615.1048616.8285538.2146462 1.2322461.3180308l-.715323 2.8721231 1.726523.4307692.7084308-2.8416c.4716308.128.9294769.2461539 1.3774769.3574154l-.7059692 2.8283077 1.7284923.4307692.7153231-2.8667077c2.9474461.5577846 5.1638154.3328 6.0967384-2.3330461.7517539-2.1464616-.0374153-3.3846154-1.5881846-4.192 1.1293539-.2604308 1.9800616-1.0033231 2.2070154-2.5378462zm-3.9492923 5.5379692c-.5341538 2.1464616-4.1481846.9860924-5.3198769.6951385l.9491692-3.8050461c1.1716923.2924307 4.9289846.8713846 4.3707077 3.1099076zm.5346462-5.5689846c-.4873847 1.9524923-3.4953847.9604923-4.4711385.7172923l.8605538-3.4510769c.9757539.2432 4.1181539.6971077 3.6105847 2.7337846z"/><filter id="e" height="117.5%" width="123.2%" x="-11.6%" y="-6.3%"><feOffset dy=".5" in="SourceAlpha" result="shadowOffsetOuter1"/><feGaussianBlur in="shadowOffsetOuter1" result="shadowBlurOuter1" stdDeviation=".5"/><feColorMatrix in="shadowBlurOuter1" values="0 0 0 0 0   0 0 0 0 0   0 0 0 0 0  0 0 0 0.204257246 0"/></filter></defs><g fill="none" fill-rule="evenodd"><use fill="#000" filter="url(#c)" xlink:href="#b"/><use fill="#f7931a" xlink:href="#b"/><use fill="url(#a)" xlink:href="#b"/><circle cx="16" cy="15" r="14.5" stroke="#000" stroke-opacity=".097"/><g fill-rule="nonzero"><use fill="#000" filter="url(#e)" xlink:href="#d"/><use fill="#fff" fill-rule="evenodd" xlink:href="#d"/></g></g></svg>