<svg width="32" height="32" viewBox="0 0 32 32" xmlns="http://www.w3.org/2000/svg" xmlns:xlink="http://www.w3.org/1999/xlink"><defs><linearGradient x1="50%" y1="0%" x2="50%" y2="100%" id="c"><stop stop-color="#FFF" stop-opacity=".5" offset="0%"/><stop stop-opacity=".5" offset="100%"/></linearGradient><filter x="-5.8%" y="-4.2%" width="111.7%" height="111.7%" filterUnits="objectBoundingBox" id="a"><feOffset dy=".5" in="SourceAlpha" result="shadowOffsetOuter1"/><feGaussianBlur stdDeviation=".5" in="shadowOffsetOuter1" result="shadowBlurOuter1"/><feComposite in="shadowBlurOuter1" in2="SourceAlpha" operator="out" result="shadowBlurOuter1"/><feColorMatrix values="0 0 0 0 0 0 0 0 0 0 0 0 0 0 0 0 0 0 0.199473505 0" in="shadowBlurOuter1"/></filter><circle id="b" cx="15" cy="15" r="15"/></defs><g fill="none" fill-rule="evenodd"><g transform="translate(1)" fill-rule="nonzero"><use fill="#000" filter="url(#a)" xlink:href="#b"/><use fill="#4700C2" xlink:href="#b"/><use fill="url(#c)" style="mix-blend-mode:soft-light" xlink:href="#b"/><circle stroke-opacity=".097" stroke="#000" stroke-linejoin="square" cx="15" cy="15" r="14.5"/></g><g fill="#FFF"><path d="M13.94 13.564c-.275.18-.592.37-.919.57v1.796c.297-.15.603-.303.919-.453v-1.913zm-4.593 3.323a.692.692 0 00.924.302l.859-.433c.005-.723.008-1.27.008-1.489v-.057l-1.494.747a.691.691 0 00-.297.93zm4.852-.183a.685.685 0 00.684.687h.008c.38 0 .687-.308.687-.687v-5.691a.688.688 0 00-.777-.681.683.683 0 00-.6.678v2.843c-.002.954-.002 1.902-.002 2.85z"/><path d="M23.987 12.296c-.044-.332-.264-.517-.6-.605a3.446 3.446 0 00-.823-.084c-.654-.003-1.303.103-1.946.229a25.9 25.9 0 00-2.753.692c-.273.085-.542.172-.815.26l-.003-.012.05-.04c.525-.45 1.049-.9 1.577-1.345a27.935 27.935 0 003.181-3.194c.265-.308.494-.638.611-1.014.177-.564-.022-.916-.594-1.074a2.932 2.932 0 00-.742-.082c-.545-.002-1.084.087-1.616.197a23.83 23.83 0 00-1.905.485c-.873.267-1.95.725-2.911 1.115-.491.19-1.014.436-1.502.626l-1.848.753C8.895 10.258 8.18 9.5 8.18 9.5c0 .003.002.005.003.008a.082.082 0 01-.01-.022c-.478.94-.08 2.65 2.679 1.428.433-.169.875-.351 1.305-.517.832-.325 1.655-.725 2.489-1.047.182-.076.886-.363 1.736-.673l.526-.205c.54-.177 1.08-.354 1.63-.49.6-.156 1.123-.248 1.44-.208.032.003.065.006.095.011.144.02.22.096.207.197-.006.155-.256.67-2.538 2.57l-.499.428c-.256.22-.504.439-.755.657l-.21.185-.002.003-.098.087a.198.198 0 01-.025.022l-.024.022-.191.144a.546.546 0 01-.041.036v2.412c.807-.275 4.735-1.587 5.157-1.202.033.043.532.354-4.034 3.478-.18.136-.354.272-.534.409l-.66.504c-.826.597-1.646 1.197-2.472 1.793l-.357.26c-.006.65-.008 1.275-.011 1.847l8.711-6.427a17.063 17.063 0 001.508-1.436c.267-.286.507-.589.665-.935.081-.18.141-.355.117-.543zM9.794 22.183a.736.736 0 00.046.973.73.73 0 00.905.125l.35-.256c.002-.523.007-1.161.013-1.848l-1.178.872a.79.79 0 00-.136.134z"/><path d="M12.768 12.174a.688.688 0 00-.665-.51c-.03 0-.06.003-.09.006a.683.683 0 00-.6.678v2.843c0 .575-.024 3.43-.046 5.798a599 599 0 00-.022 3.238.685.685 0 00.684.687h.008c.38 0 .687-.308.687-.687 0-.477.006-1.347.011-2.412l.011-1.848c.02-2.963.046-6.455.044-7.619a.763.763 0 00-.022-.174z"/></g></g></svg>