<?xml version="1.0" encoding="UTF-8"?>
<svg width="32px" height="32px" viewBox="0 0 32 32" version="1.1" xmlns="http://www.w3.org/2000/svg" xmlns:xlink="http://www.w3.org/1999/xlink">
    <!-- Generator: Sketch 52.1 (67048) - http://www.bohemiancoding.com/sketch -->
    <title>svg/icon/btch</title>
    <desc>Created with Sketch.</desc>
    <defs>
        <linearGradient x1="50%" y1="0%" x2="50%" y2="100%" id="linearGradient-1">
            <stop stop-color="#FFFFFF" stop-opacity="0.5" offset="0%"></stop>
            <stop stop-color="#000000" stop-opacity="0.5" offset="100%"></stop>
        </linearGradient>
        <circle id="path-2" cx="15" cy="15" r="15"></circle>
        <filter x="-5.8%" y="-4.2%" width="111.7%" height="111.7%" filterUnits="objectBoundingBox" id="filter-3">
            <feOffset dx="0" dy="0.5" in="SourceAlpha" result="shadowOffsetOuter1"></feOffset>
            <feGaussianBlur stdDeviation="0.5" in="shadowOffsetOuter1" result="shadowBlurOuter1"></feGaussianBlur>
            <feComposite in="shadowBlurOuter1" in2="SourceAlpha" operator="out" result="shadowBlurOuter1"></feComposite>
            <feColorMatrix values="0 0 0 0 0   0 0 0 0 0   0 0 0 0 0  0 0 0 0.199473505 0" type="matrix" in="shadowBlurOuter1"></feColorMatrix>
        </filter>
    </defs>
    <g id="icon/btch" stroke="none" stroke-width="1" fill="none" fill-rule="evenodd">
        <g id="Group" transform="translate(1.000000, 0.000000)" fill-rule="nonzero">
            <g id="Oval">
                <use fill="black" fill-opacity="1" filter="url(#filter-3)" xlink:href="#path-2"></use>
                <use fill="#4700C2" xlink:href="#path-2"></use>
                <use fill="url(#linearGradient-1)" style="mix-blend-mode: soft-light;" xlink:href="#path-2"></use>
                <circle stroke-opacity="0.0970052083" stroke="#000000" stroke-width="1" stroke-linejoin="square" cx="15" cy="15" r="14.5"></circle>
            </g>
        </g>
        <g id="Bitcoin-Hush-(BTCH)" transform="translate(8.000000, 6.000000)" fill="#FFFFFF">
            <path d="M5.93989779,7.56388416 C5.66459966,7.74378194 5.34841567,7.93458262 5.02132879,8.13356048 L5.02132879,9.92981261 C5.31843271,9.77989779 5.6237138,9.62725724 5.93989779,9.47734242 L5.93989779,7.56388416 Z" id="Path"></path>
            <path d="M1.34705281,10.8865417 C1.46517185,11.1166388 1.70169853,11.2617085 1.96034072,11.2626917 C2.06815681,11.2620236 2.17441076,11.2368582 2.27107325,11.1890971 C2.480954,11.0827939 2.77260647,10.9356048 3.12967632,10.755707 C3.13512777,10.0333901 3.13785349,9.48551959 3.13785349,9.26746167 L3.13785349,9.21022147 C2.41008518,9.57274276 1.8567632,9.85076661 1.64415673,9.95706985 C1.30589122,10.1320688 1.17300865,10.547784 1.34705281,10.8865417 Z" id="Path"></path>
            <path d="M6.19884157,10.7039182 C6.19840737,10.8857515 6.27026147,11.0603018 6.39858147,11.1891331 C6.52690148,11.3179643 6.70116477,11.3905119 6.8829983,11.3908007 L6.89117547,11.3908007 C7.27040558,11.3905001 7.5777573,11.0831483 7.57805792,10.7039182 L7.57805792,5.01260647 C7.5776924,4.95290283 7.57037451,4.89344491 7.55625213,4.83543441 C7.475532,4.53454803 7.2027012,4.32545229 6.89117547,4.32572402 C6.8611925,4.32572402 6.83120954,4.32844974 6.80122658,4.33117547 C6.45847134,4.37322059 6.20106593,4.66455671 6.20156729,5.00988075 L6.20156729,7.8528109 C6.19884157,8.80681431 6.19884157,9.75536627 6.19884157,10.7039182 Z" id="Path"></path>
            <path d="M15.9869165,6.29642249 C15.9433049,5.96388416 15.7225213,5.77853492 15.3872572,5.69131175 C15.1201363,5.62316865 14.8448382,5.60954003 14.5640886,5.60681431 C13.9099148,5.60408859 13.2611925,5.71039182 12.6179216,5.83577513 C11.6882946,6.01605199 10.7692541,6.24717702 9.86494037,6.52810903 C9.59236797,6.61260647 9.32252129,6.69982964 9.04994889,6.78705281 C9.04994889,6.78432709 9.04722317,6.77887564 9.04722317,6.77614991 L9.0962862,6.73526405 C9.62235094,6.28551959 10.1456899,5.83577513 10.6744804,5.39148211 C11.8356388,4.41022147 12.8823169,3.33356048 13.8554003,2.19693356 C14.1197956,1.88892675 14.3487564,1.55911414 14.4659625,1.18296422 C14.6431346,0.618739353 14.4441567,0.267120954 13.8717547,0.109028961 C13.631891,0.0436115843 13.3811244,0.0299829642 13.1303578,0.0272572402 C12.5852129,0.0245315162 12.0455196,0.114480409 11.5140034,0.22350937 C10.9579557,0.337989779 10.1538671,0.54241908 9.60872232,0.708688245 C8.73649063,0.975809199 7.65982964,1.43373083 6.69764906,1.82350937 C6.20701874,2.01431005 5.68367973,2.25962521 5.19577513,2.45042589 L3.34773424,3.20272572 C0.894582624,4.25758092 0.18044293,3.49982964 0.18044293,3.49982964 C0.180775984,3.50271459 0.181704129,3.50549902 0.183168654,3.50800681 C0.178465148,3.50132387 0.174790013,3.4939736 0.172265758,3.48620102 C-0.304735945,4.42657581 0.0932197615,6.13560477 2.85165247,4.91448041 C3.28504259,4.74548552 3.72660988,4.56286201 4.15727428,4.39659284 C4.9886201,4.07223169 5.81178876,3.67155026 6.64586031,3.34991482 C6.82848382,3.27359455 7.53172061,2.98739353 8.38214651,2.67666099 C8.55659284,2.60851789 8.73376491,2.54037479 8.90821124,2.47223169 C9.4479046,2.29505963 9.98759796,2.11788756 10.5381942,1.98160136 C11.1378535,1.82623509 11.6611925,1.73356048 11.9773765,1.77444634 C12.0100852,1.77717206 12.0427939,1.77989779 12.0727768,1.78534923 C12.2172402,1.8044293 12.2935605,1.88074957 12.2799319,1.98160136 C12.2744804,2.13696763 12.0237138,2.65212947 9.74228279,4.55195911 C9.57601363,4.69369676 9.40974446,4.83816014 9.2434753,4.97989779 C8.98725724,5.20068143 8.73921635,5.41873935 8.48844974,5.63679727 L8.27856899,5.82214651 L8.27584327,5.82487223 L8.17771721,5.9120954 C8.1701571,5.92002987 8.16195179,5.92732348 8.15318569,5.93390119 C8.15318569,5.93390119 8.14228279,5.94480409 8.12865417,5.95570698 L7.93785349,6.10017036 C7.93240204,6.10562181 7.9051448,6.13015332 7.89696763,6.13560477 L7.89696763,8.54787053 C8.70378194,8.2725724 12.6315503,6.96149915 13.0540375,7.34582624 C13.0867462,7.38943782 13.5855537,7.70017036 9.01996593,10.8238501 C8.84006814,10.9601363 8.66562181,11.0964225 8.48572402,11.2327087 L7.82609881,11.7369676 C7.00020443,12.3339012 6.1797615,12.9335605 5.35386712,13.530494 L4.99679727,13.7894378 C4.99134583,14.4408859 4.9886201,15.0650767 4.98589438,15.6374787 L13.6973083,9.21022147 C14.2285236,8.76253369 14.7319024,8.28282192 15.2046337,7.77376491 C15.4717547,7.48756388 15.7116184,7.18500852 15.8697104,6.83884157 C15.9514821,6.65894378 16.011448,6.48449744 15.9869165,6.29642249 Z" id="Path"></path>
            <path d="M1.79407155,16.1826235 C1.5846631,16.4438321 1.57794251,16.8134642 1.77771721,17.0821124 C1.79643817,17.1084175 1.81741465,17.1330421 1.84040886,17.155707 C2.07543494,17.4043372 2.4515771,17.4564533 2.74534923,17.2810903 L3.09424191,17.0248722 C3.09696763,16.5015332 3.10241908,15.8637138 3.10787053,15.1768313 L1.93035775,16.049063 C1.87970231,16.0879164 1.83394022,16.1327632 1.79407155,16.1826235 Z" id="Path"></path>
            <path d="M4.76783646,6.17376491 C4.68711633,5.87287852 4.41428552,5.66378279 4.1027598,5.66405451 C4.07277683,5.66405451 4.04279387,5.66678024 4.0128109,5.66950596 C3.67005567,5.71155109 3.41265026,6.0028872 3.41315162,6.34821124 L3.41315162,9.1911414 C3.41315162,9.76626917 3.3886201,12.6201022 3.36681431,14.9887564 C3.36136286,15.6674617 3.35591141,16.3052811 3.35318569,16.8367973 C3.34773424,17.5127768 3.34500852,18.0197615 3.34500852,18.2269165 C3.34457432,18.4087498 3.41642842,18.5833001 3.54474842,18.7121314 C3.67306843,18.8409626 3.84733172,18.9135102 4.02916525,18.913799 L4.03734242,18.913799 C4.41657253,18.9134984 4.72392425,18.6061466 4.72422487,18.2269165 C4.72422487,17.7499148 4.72967632,16.8804089 4.73512777,15.8146508 C4.73785349,15.2449744 4.74330494,14.6180579 4.74603066,13.9666099 C4.76511073,11.0037479 4.79236797,7.5120954 4.78964225,6.34821124 C4.78911757,6.28941664 4.78180044,6.2308796 4.76783646,6.17376491 Z" id="Path"></path>
        </g>
    </g>
</svg>