<svg height="32" viewBox="0 0 32 32" width="32" xmlns="http://www.w3.org/2000/svg" xmlns:xlink="http://www.w3.org/1999/xlink"><defs><linearGradient id="a" x1="50%" x2="50%" y1="0%" y2="100%"><stop offset="0" stop-color="#fff" stop-opacity=".5"/><stop offset="1" stop-opacity=".5"/></linearGradient><circle id="b" cx="16" cy="15" r="15"/><filter id="c" height="111.7%" width="111.7%" x="-5.8%" y="-4.2%"><feOffset dy=".5" in="SourceAlpha" result="shadowOffsetOuter1"/><feGaussianBlur in="shadowOffsetOuter1" result="shadowBlurOuter1" stdDeviation=".5"/><feComposite in="shadowBlurOuter1" in2="SourceAlpha" operator="out" result="shadowBlurOuter1"/><feColorMatrix in="shadowBlurOuter1" values="0 0 0 0 0   0 0 0 0 0   0 0 0 0 0  0 0 0 0.199473505 0"/></filter><path id="d" d="m10.8269 14.3755-1.7447 3.6987.812 3.0316 2.0656.5521 2.5646 2.5669-.7728.7752-6.1116-1.64-1.64-6.1116 1.2306-1.2283 5.341-5.3433-1.7447 3.6987-1.7447 3.6987 5.4422-5.4422-1.9528-1.9552zm2.8051 2.1001 5.4422 5.4422 3.0316-.812.5544-2.0655 2.5646-2.5647.7752.7728-1.6377 6.1139-6.1139 1.6377-6.5693-6.5716zm4.736-2.9512-5.4422-5.4422-3.0339.812-.552 2.0633-2.5647 2.5669-.7752-.7728 1.64-6.1139 6.1116-1.6377 1.2283 1.2306 5.341 5.3387zm1.6723-5.1845-2.5647-2.5647.7728-.7752 6.1139 1.6377 1.6377 6.1139-6.5716 6.5693-1.9528-1.9529 5.4445-5.4445-.8143-3.0316z"/><filter id="e" height="117.5%" width="117.5%" x="-8.8%" y="-6.2%"><feOffset dy=".5" in="SourceAlpha" result="shadowOffsetOuter1"/><feGaussianBlur in="shadowOffsetOuter1" result="shadowBlurOuter1" stdDeviation=".5"/><feColorMatrix in="shadowBlurOuter1" values="0 0 0 0 0   0 0 0 0 0   0 0 0 0 0  0 0 0 0.204257246 0"/></filter></defs><g fill="none" fill-rule="nonzero"><g><use fill="#000" filter="url(#c)" xlink:href="#b"/><use fill="#504c4c" fill-rule="evenodd" xlink:href="#b"/><use fill="url(#a)" fill-rule="evenodd" xlink:href="#b"/><circle cx="16" cy="15" r="14.5" stroke="#000" stroke-opacity=".097"/></g><g><use fill="#000" filter="url(#e)" xlink:href="#d"/><use fill="#fff" fill-rule="evenodd" xlink:href="#d"/></g></g></svg>