<svg width="32" height="32" viewBox="0 0 32 32" version="1.1" xmlns="http://www.w3.org/2000/svg" xmlns:xlink="http://www.w3.org/1999/xlink"><title>svg/icon/bts</title><desc>Created with Sketch.</desc><defs><linearGradient x1="50%" y1="0%" x2="50%" y2="100%" id="linearGradient-1"><stop stop-color="#FFF" stop-opacity=".5" offset="0%"/><stop stop-color="#000" stop-opacity=".5" offset="100%"/></linearGradient><circle id="path-2" cx="15" cy="15" r="15"/><filter x="-5.8%" y="-4.2%" width="111.7%" height="111.7%" filterUnits="objectBoundingBox" id="filter-3"><feOffset dx="0" dy=".5" in="SourceAlpha" result="shadowOffsetOuter1"/><feGaussianBlur stdDeviation=".5" in="shadowOffsetOuter1" result="shadowBlurOuter1"/><feComposite in="shadowBlurOuter1" in2="SourceAlpha" operator="out" result="shadowBlurOuter1"/><feColorMatrix values="0 0 0 0 0 0 0 0 0 0 0 0 0 0 0 0 0 0 0.199473505 0" type="matrix" in="shadowBlurOuter1"/></filter></defs><g id="icon/bts" stroke="none" stroke-width="1" fill="none" fill-rule="evenodd"><g id="Group" transform="translate(1.000000, 0.000000)" fill-rule="nonzero"><g id="Oval"><use fill="#000" fill-opacity="1" filter="url(#filter-3)" xlink:href="#path-2"/><use fill="#35BAEB" xlink:href="#path-2"/><use fill="url(#linearGradient-1)" style="mix-blend-mode:soft-light" xlink:href="#path-2"/><circle stroke-opacity=".097" stroke="#000" stroke-width="1" stroke-linejoin="square" cx="15" cy="15" r="14.5"/></g></g><g id="BitsShares-(BTS)" transform="translate(10.000000, 5.000000)" fill="#FFF" fill-rule="nonzero"><path d="M0.026,0 L5.4035,4.77 C5.466,4.8275 5.5335,4.875 5.586,4.9375 C5.59214325,4.97382703 5.59465564,5.01067532 5.5935,5.0475 C5.591,7.1025 5.5985,9.155 5.591,11.2075 C5.321,11.2575 5.066,11.3675 4.8285,11.5025 L0.076,6.7525 C0.0390782265,6.7221076 0.0202238217,6.67497158 0.026,6.6275 C0.031,4.4175 0.026,2.21 0.031,0.0025 L0.026,0 Z M6.4085,7.3775 C7.71088555,7.46444868 8.9489704,7.97548796 9.9335,8.8325 C9.6535,9.1325 9.351,9.415 9.061,9.71 C8.4485,10.32 7.841,10.935 7.226,11.54 C6.97803748,11.3781798 6.70139372,11.2653159 6.411,11.2075 C6.4035,9.9325 6.411,8.655 6.411,7.3775 L6.4085,7.3775 Z M0.0285,7.95 C1.4235,9.3325 2.811,10.725 4.2035,12.11 C4.04052168,12.3623837 3.92370454,12.6417291 3.8585,12.935 L0.026,12.935 L0.026,7.9475 L0.0285,7.95 Z M9.976,9.95 C10.1585,9.775 10.326,9.5875 10.5185,9.4175 C11.3759936,10.398039 11.8880223,11.6328801 11.976,12.9325 C10.7185,12.9375 9.4585,12.9325 8.201,12.935 C8.126,12.9525 8.126,12.865 8.111,12.8175 C8.05078683,12.5693424 7.94664492,12.3339648 7.8035,12.1225 C8.5235,11.3975 9.251,10.675 9.976,9.9525 L9.976,9.95 Z M0.026,13.75 L3.301,13.75 C3.4885,13.75 3.676,13.7425 3.866,13.755 C3.92463912,14.0443674 4.03745325,14.320041 4.1985,14.5675 L1.541,17.2175 C1.521,17.2325 1.4885,17.28 1.466,17.2425 C0.618102114,16.2664431 0.112432378,15.0400184 0.026,13.75 Z M8.136,13.755 C8.676,13.7425 9.211,13.755 9.751,13.75 L11.976,13.75 C11.8920164,15.0294242 11.3935346,16.2466677 10.556,17.2175 L9.006,15.6725 C8.6185,15.2825 8.2235,14.9 7.841,14.505 C7.98352376,14.2747185 8.08344913,14.0206709 8.136,13.755 Z M7.061,15.2375 C7.121,15.2025 7.181,15.1675 7.241,15.1375 L9.946,17.8375 C8.96032107,18.7016739 7.71665763,19.2158387 6.4085,19.3 L6.4085,15.475 C6.6335,15.4225 6.8585,15.355 7.0585,15.235 L7.061,15.2375 Z M3.126,16.775 C3.676,16.23 4.221,15.6775 4.776,15.1375 C5.02532543,15.29778 5.30135416,15.4120863 5.591,15.475 L5.591,19.3 C4.2881048,19.2152414 3.04934606,18.703924 2.066,17.845 C2.411,17.4825 2.7735,17.135 3.126,16.7775 L3.126,16.775 Z" id="Shape"/></g></g></svg>