<svg xmlns="http://www.w3.org/2000/svg" xmlns:xlink="http://www.w3.org/1999/xlink" width="32" height="32"><defs><linearGradient id="c" x1="50%" x2="50%" y1="0%" y2="100%"><stop offset="0%" stop-color="#FFF" stop-opacity=".5"/><stop offset="100%" stop-opacity=".5"/></linearGradient><circle id="b" cx="16" cy="15" r="15"/><filter id="a" width="111.7%" height="111.7%" x="-5.8%" y="-4.2%" filterUnits="objectBoundingBox"><feOffset dy=".5" in="SourceAlpha" result="shadowOffsetOuter1"/><feGaussianBlur in="shadowOffsetOuter1" result="shadowBlurOuter1" stdDeviation=".5"/><feComposite in="shadowBlurOuter1" in2="SourceAlpha" operator="out" result="shadowBlurOuter1"/><feColorMatrix in="shadowBlurOuter1" values="0 0 0 0 0 0 0 0 0 0 0 0 0 0 0 0 0 0 0.199473505 0"/></filter><path id="e" d="M11 12.202l4.21 4.344a2.274 2.274 0 0 0-.344.857H11v-5.2zm0-1.168V4l5.606 5.139v6.468a2.13 2.13 0 0 0-.83.355L11 11.034zm10.528 10.862l-2.725-2.81c.168-.254.288-.544.344-.857H23a6.276 6.276 0 0 1-1.472 3.667zm-.567.585A5.887 5.887 0 0 1 17.407 24v-3.975a2.13 2.13 0 0 0 .83-.355l2.724 2.81zm-9.948-4.252h3.853c.056.313.176.603.344.856l-2.724 2.811a6.276 6.276 0 0 1-1.473-3.667zM23 17.403h-3.853a2.274 2.274 0 0 0-.344-.857l2.725-2.81A6.276 6.276 0 0 1 23 17.402zm-9.948 5.078l2.724-2.811c.245.173.527.296.83.355V24a5.887 5.887 0 0 1-3.554-1.52zm7.91-9.33l-2.725 2.81a2.13 2.13 0 0 0-.83-.354v-3.975a5.887 5.887 0 0 1 3.554 1.519z"/><filter id="d" width="129.2%" height="117.5%" x="-14.6%" y="-6.2%" filterUnits="objectBoundingBox"><feOffset dy=".5" in="SourceAlpha" result="shadowOffsetOuter1"/><feGaussianBlur in="shadowOffsetOuter1" result="shadowBlurOuter1" stdDeviation=".5"/><feColorMatrix in="shadowBlurOuter1" values="0 0 0 0 0 0 0 0 0 0 0 0 0 0 0 0 0 0 0.204257246 0"/></filter></defs><g fill="none" fill-rule="evenodd"><use fill="#000" filter="url(#a)" xlink:href="#b"/><use fill="#35BAEB" xlink:href="#b"/><use fill="url(#c)" style="mix-blend-mode:soft-light" xlink:href="#b"/><circle cx="16" cy="15" r="14.5" stroke="#000" stroke-opacity=".097"/><use fill="#000" filter="url(#d)" xlink:href="#e"/><use fill="#FFF" xlink:href="#e"/></g></svg>