<svg width="32" height="32" viewBox="0 0 32 32" xmlns="http://www.w3.org/2000/svg" xmlns:xlink="http://www.w3.org/1999/xlink"><defs><linearGradient x1="50%" y1="0%" x2="50%" y2="100%" id="c"><stop stop-color="#FFF" stop-opacity=".5" offset="0%"/><stop stop-opacity=".5" offset="100%"/></linearGradient><circle id="b" cx="15" cy="15" r="15"/><filter x="-5.8%" y="-4.2%" width="111.7%" height="111.7%" filterUnits="objectBoundingBox" id="a"><feOffset dy=".5" in="SourceAlpha" result="shadowOffsetOuter1"/><feGaussianBlur stdDeviation=".5" in="shadowOffsetOuter1" result="shadowBlurOuter1"/><feComposite in="shadowBlurOuter1" in2="SourceAlpha" operator="out" result="shadowBlurOuter1"/><feColorMatrix values="0 0 0 0 0 0 0 0 0 0 0 0 0 0 0 0 0 0 0.199473505 0" in="shadowBlurOuter1"/></filter></defs><g fill="none"><g transform="translate(1)"><use fill="#000" filter="url(#a)" xlink:href="#b"/><use fill="#000" xlink:href="#b"/><use fill="url(#c)" style="mix-blend-mode:soft-light" xlink:href="#b"/><circle stroke-opacity=".097" stroke="#000" stroke-linejoin="square" cx="15" cy="15" r="14.5"/></g><g fill="#FFF"><path d="M26.764 12.744a10.896 10.896 0 0 0-.64-2.054 10.875 10.875 0 0 0-2.346-3.48A10.875 10.875 0 0 0 20.3 4.864a10.896 10.896 0 0 0-8.508 0 10.873 10.873 0 0 0-3.48 2.346 10.875 10.875 0 0 0-2.346 3.48 10.896 10.896 0 0 0 0 8.508c.27.651.618 1.268 1.01 1.863.393.584.842 1.123 1.336 1.617a10.875 10.875 0 0 0 3.48 2.345 10.896 10.896 0 0 0 8.508 0 10.875 10.875 0 0 0 3.48-2.346 10.875 10.875 0 0 0 2.345-3.479 10.896 10.896 0 0 0 .64-6.454zM16.056 24.518c-5.287 0-9.563-4.287-9.563-9.563 0-5.275 4.288-9.563 9.563-9.563 5.276 0 9.563 4.288 9.563 9.563 0 5.276-4.287 9.563-9.563 9.563z"/><path d="M16.224 23.688h.259c.045 0 .09 0 .134-.011h.012c.044 0 .078 0 .123-.012h.034c.033 0 .067 0 .1-.01h.034c.034 0 .068-.012.113-.012h.022c.045 0 .09-.011.135-.011.045 0 .078-.012.123-.023h.023c.033 0 .067-.011.1-.011h.023c.045-.011.079-.011.124-.022.09-.012.18-.034.258-.057h.022c.034-.01.079-.01.113-.022h.01l.259-.067a10.035 10.035 0 0 1-2.503-.236c-1.235-.27-2.413-.752-3.412-1.583a6.915 6.915 0 0 1-2.492-5.376 6.533 6.533 0 0 1 1.538-4.176c1.28-1.515 3.097-2.312 4.96-2.357h.259V8.209h-.292a8.42 8.42 0 0 0-1.684.202c-.56.124-1.1.315-1.616.55a8.271 8.271 0 0 0-1.482.898 7.9 7.9 0 0 0-1.29 1.235c-.36.426-.674.887-.932 1.38-.258.472-.46.977-.617 1.493a8.159 8.159 0 0 0-.303 1.56l-.034.494v.292a8.42 8.42 0 0 0 .202 1.684c.123.561.314 1.1.55 1.616.28.618.786 1.527 1.538 2.211a8.682 8.682 0 0 0 5.387 1.864h.202z"/><path d="M18.671 22.251a11.416 11.416 0 0 1-1.65-.18c-2.312-.415-4.299-1.83-5.028-3.962-.887-2.593.471-5.399 3.053-6.252a4.776 4.776 0 0 1 1.526-.247c.663 0 1.325.135 1.931.382l.629-1.336a12.083 12.083 0 0 0-.573-.213 6.612 6.612 0 0 0-1.987-.303c-.673 0-1.346.112-1.986.325-.82.27-1.572.707-2.212 1.28-.303.27-.594.584-.841.91-.247.325-.46.673-.64 1.043a6.329 6.329 0 0 0-.629 2.368 6.378 6.378 0 0 0 .337 2.515c.28.819.73 1.571 1.347 2.233.55.595 1.19 1.044 1.964 1.46.808.426 1.807.65 2.851.796.674.09 1.572.113 2.1.113.46-.169.65-.247.897-.348.213-.101.427-.202.64-.326.213-.123.247-.146.606-.381.034-.023.067-.045.09-.068-1.235.213-1.55.202-2.425.191z"/><path d="M21.433 20.579c-.348.022-.842.056-1.403.056-1 0-2.223-.09-3.267-.438-1.616-.539-3.143-1.92-3.143-3.626a3.073 3.073 0 0 1 3.076-3.075c1.156 0 2.155.64 2.683 1.571l1.335-.662a4.34 4.34 0 0 0-.797-1.066 4.552 4.552 0 0 0-6.443 0 4.552 4.552 0 0 0-1.336 3.221c0 .618.135 1.235.394 1.819.235.516.56.999.976 1.448.73.785 1.729 1.414 2.795 1.773 1.021.337 2.526.46 3.985.36a8.262 8.262 0 0 0 1.223-.18 8.423 8.423 0 0 0 1.347-1.336c-.348.034-.988.1-1.425.135z"/></g></g></svg>