<svg height="32" width="32" xmlns="http://www.w3.org/2000/svg" xmlns:xlink="http://www.w3.org/1999/xlink"><defs><linearGradient id="c" x1="50%" x2="50%" y1="0%" y2="100%"><stop offset="0" stop-color="#fff" stop-opacity=".5"/><stop offset="1" stop-opacity=".5"/></linearGradient><circle id="b" cx="16" cy="15" r="15"/><filter id="a" height="111.7%" width="111.7%" x="-5.8%" y="-4.2%"><feOffset dy=".5" in="SourceAlpha" result="shadowOffsetOuter1"/><feGaussianBlur in="shadowOffsetOuter1" result="shadowBlurOuter1" stdDeviation=".5"/><feComposite in="shadowBlurOuter1" in2="SourceAlpha" operator="out" result="shadowBlurOuter1"/><feColorMatrix in="shadowBlurOuter1" values="0 0 0 0 0 0 0 0 0 0 0 0 0 0 0 0 0 0 0.199473505 0"/></filter><path id="e" d="M11.706 18.296L4 15.77h5.155l.51-2.443 4.578.003L15.385 7h4.606c3.118 0 4.382 1.255 3.915 3.845l-.1.555c-.273 1.509-.962 2.512-2.146 3.091 1.173.6 1.567 1.735 1.272 3.37l-.228 1.266C22.248 21.653 20.39 23 17.372 23h-4.875l1.263-6.993h-1.53zm5.066-2.747l-.944 5.23h1.945c1.154 0 1.795-.512 2.013-1.72l.245-1.353c.278-1.543-.256-2.157-1.769-2.157zm1.143-6.329l-.824 4.564h1.412c1.288 0 2.041-.55 2.272-1.83l.157-.866c.225-1.247-.241-1.868-1.422-1.868H18.1z"/><filter id="d" height="121.9%" width="117.5%" x="-8.8%" y="-7.8%"><feOffset dy=".5" in="SourceAlpha" result="shadowOffsetOuter1"/><feGaussianBlur in="shadowOffsetOuter1" result="shadowBlurOuter1" stdDeviation=".5"/><feColorMatrix in="shadowBlurOuter1" values="0 0 0 0 0 0 0 0 0 0 0 0 0 0 0 0 0 0 0.204257246 0"/></filter></defs><g fill="none" fill-rule="evenodd"><use fill="#000" filter="url(#a)" xlink:href="#b"/><use fill="#2d2d2d" xlink:href="#b"/><use fill="url(#c)" xlink:href="#b"/><circle cx="16" cy="15" r="14.5" stroke="#000" stroke-opacity=".097"/><g fill-rule="nonzero"><use fill="#000" filter="url(#d)" xlink:href="#e"/><use fill="#fff" fill-rule="evenodd" xlink:href="#e"/></g></g></svg>