<svg xmlns="http://www.w3.org/2000/svg" xmlns:xlink="http://www.w3.org/1999/xlink" width="32" height="32" viewBox="0 0 32 32">
  <defs>
    <linearGradient id="bytecoin-c" x1="50%" x2="50%" y1="0%" y2="100%">
      <stop offset="0%" stop-color="#FFF" stop-opacity=".5"/>
      <stop offset="100%" stop-opacity=".5"/>
    </linearGradient>
    <circle id="bytecoin-b" cx="16" cy="15" r="15"/>
    <filter id="bytecoin-a" width="111.7%" height="111.7%" x="-5.8%" y="-4.2%" filterUnits="objectBoundingBox">
      <feOffset dy=".5" in="SourceAlpha" result="shadowOffsetOuter1"/>
      <feGaussianBlur in="shadowOffsetOuter1" result="shadowBlurOuter1" stdDeviation=".5"/>
      <feComposite in="shadowBlurOuter1" in2="SourceAlpha" operator="out" result="shadowBlurOuter1"/>
      <feColorMatrix in="shadowBlurOuter1" values="0 0 0 0 0   0 0 0 0 0   0 0 0 0 0  0 0 0 0.199473505 0"/>
    </filter>
    <path id="bytecoin-e" d="M22.1331845,13.8984002 C22.5667076,13.5336503 22.9261508,13.0850526 23.2124771,12.5529618 C23.4991647,12.0210484 23.6427192,11.4967038 23.6427192,10.9795436 C23.6427192,10.7591325 23.622822,10.5367702 23.5848338,10.3125748 C23.5456716,10.088409 23.4680697,9.83695418 23.3521786,9.55927475 C23.2360467,9.28268924 23.0865621,9.02020649 22.9058623,8.77330477 C22.7237175,8.52619609 22.47556,8.28304919 22.162654,8.04350929 C21.8491459,7.80420591 21.4913282,7.59899159 21.0891107,7.42807328 C20.6870739,7.2571254 20.1934078,7.19308646 19.6088047,7.086621 C19.0243823,6.98089467 18.3806898,7.00164967 17.6768544,7.00164967 L11.4114787,7.00164967 L11.4114787,10.667982 L7,10.667982 L7,13.0010865 L11.4114787,13.0010865 L11.4114787,16.667271 L7,16.667271 L7,19.0003459 L11.4114787,19.0003459 L11.4114787,23 L17.2229826,23 C18.1437,23 18.9894644,22.95849 19.7591923,22.8214538 C20.5296726,22.685068 21.177188,22.5216889 21.7037251,22.3045301 C22.2296601,22.088347 22.6940374,21.8342608 23.0963151,21.5301202 C23.4991948,21.2269553 23.81779,20.9241748 24.053937,20.6162202 C24.2899034,20.3076744 24.4813496,19.9847893 24.6285764,19.643337 C24.775412,19.301323 24.8741151,18.9995476 24.9238731,18.7370649 C24.9742029,18.4748186 25,18.2189586 25,17.9680359 C25,17.0858597 24.7382365,16.2751434 24.2162147,15.5342313 C23.694524,14.7928757 22.9998997,14.2480422 22.1331845,13.8984002 Z M14.465496,9.33475413 L17.0143183,9.33475413 C17.7105983,9.33475413 18.298663,9.36727621 18.778663,9.49591582 C19.2585125,9.62452587 19.6082027,9.78349971 19.8291183,10.0032898 C20.0498232,10.2237008 20.2023178,10.4302752 20.2884084,10.639333 C20.373325,10.8483613 20.4159488,11.0701028 20.4159488,11.313634 C20.4159488,11.3974227 20.4114938,11.479201 20.4043597,11.5627531 C20.2961144,12.5887065 19.5149479,13.2452682 17.9052954,13.5342416 C17.2396588,13.6481576 15.8235294,13.7227219 14.4662787,13.7612458 L14.465496,9.33475413 L14.465496,9.33475413 Z M21.8605243,18.9434914 C21.7173611,19.1906001 21.5427418,19.3942179 21.3382616,19.5533987 C21.1331494,19.7131412 20.8640712,19.849527 20.5317196,19.9637977 C20.1987056,20.0777433 19.8934755,20.1634833 19.6144638,20.2203083 C19.3356629,20.2773697 19.1011414,20.3110744 18.7144864,20.3419704 C18.3275304,20.3722751 17.7049091,20.3660959 17.7049091,20.3660959 L14.465496,20.3660959 L14.465496,15.7112992 C16.1622626,15.6277175 17.2155475,15.5860597 17.2780986,15.5860597 C18.7707764,15.5860597 19.9178578,15.8108464 20.7961018,16.259178 C21.6749479,16.7077462 22.0942631,17.3232118 22.0942631,18.1062548 C22.0944136,18.4171659 22.0036874,18.6962053 21.8605243,18.9434914 Z"/>
    <filter id="bytecoin-d" width="119.4%" height="121.9%" x="-9.7%" y="-7.8%" filterUnits="objectBoundingBox">
      <feOffset dy=".5" in="SourceAlpha" result="shadowOffsetOuter1"/>
      <feGaussianBlur in="shadowOffsetOuter1" result="shadowBlurOuter1" stdDeviation=".5"/>
      <feColorMatrix in="shadowBlurOuter1" values="0 0 0 0 0   0 0 0 0 0   0 0 0 0 0  0 0 0 0.204257246 0"/>
    </filter>
  </defs>
  <g fill="none" fill-rule="evenodd">
    <use fill="#000" filter="url(#bytecoin-a)" xlink:href="#bytecoin-b"/>
    <use fill="#241F1F" xlink:href="#bytecoin-b"/>
    <use fill="url(#bytecoin-c)" style="mix-blend-mode:soft-light" xlink:href="#bytecoin-b"/>
    <circle cx="16" cy="15" r="14.5" stroke="#000" stroke-opacity=".097"/>
    <g fill-rule="nonzero">
      <use fill="#000" filter="url(#bytecoin-d)" xlink:href="#bytecoin-e"/>
      <use fill="#FFF" fill-rule="evenodd" xlink:href="#bytecoin-e"/>
    </g>
  </g>
</svg>
