<svg height="32" viewBox="0 0 32 32" width="32" xmlns="http://www.w3.org/2000/svg" xmlns:xlink="http://www.w3.org/1999/xlink"><defs><linearGradient id="a" x1="50%" x2="50%" y1="0%" y2="100%"><stop offset="0" stop-color="#fff" stop-opacity=".5"/><stop offset="1" stop-opacity=".5"/></linearGradient><circle id="b" cx="16" cy="15" r="15"/><filter id="c" height="111.7%" width="111.7%" x="-5.8%" y="-4.2%"><feOffset dy=".5" in="SourceAlpha" result="shadowOffsetOuter1"/><feGaussianBlur in="shadowOffsetOuter1" result="shadowBlurOuter1" stdDeviation=".5"/><feComposite in="shadowBlurOuter1" in2="SourceAlpha" operator="out" result="shadowBlurOuter1"/><feColorMatrix in="shadowBlurOuter1" values="0 0 0 0 0   0 0 0 0 0   0 0 0 0 0  0 0 0 0.199473505 0"/></filter><path id="d" d="m15.9996245 5-1.6592622 3.01631004c-.1882786.3278227-.5256169.29741654-.8629558.11431728l-1.2012616-.60627342.895319 4.6329889c.1882786.8464209-.4158035.8464209-.7139209.4804433l-2.0964351-2.2874544-.3403526 1.1616237c-.03924856.1525462-.21181793.3127676-.4707126.2746127l-2.65096609-.5432472.69629327 2.4673067c.14905777.5490033.26532634.7763095-.15048.9211064l-.94488988.4328415 4.5634666 3.6128417c.1806246.136605.2718835.3824356.2075799.6050181l-.3994005 1.2774907c1.571269-.1765314 2.9791504-.4421186 4.5512151-.605686.1387811-.0144398.3711174.208786.3701645.3655386l-.2081909 4.6802214h.7639588l-.120256-4.6701843c-.0009582-.1567526.2098193-.3900155.3486004-.3755757 1.5720648.1635679 2.9799481.4291546 4.5512166.605686l-.3993996-1.2774907c-.0643035-.2225825.0269549-.4684131.2075795-.6050181l4.5634656-3.6128417-.9448889-.4328415c-.4158073-.1447969-.2995387-.3721031-.150481-.9211064l.6962948-2.4673067-2.6509676.5432472c-.2588947.0381549-.431464-.1220665-.4707136-.2746127l-.3403521-1.1616237-2.0964341 2.2874544c-.2981184.3659776-.902201.3659776-.7139223-.4804433l.8953174-4.6329889-1.2012591.60627342c-.3373471.18309926-.6746772.21350542-.8629563-.11431728z"/><filter id="e" height="117.5%" width="118.4%" x="-9.2%" y="-6.2%"><feOffset dy=".5" in="SourceAlpha" result="shadowOffsetOuter1"/><feGaussianBlur in="shadowOffsetOuter1" result="shadowBlurOuter1" stdDeviation=".5"/><feColorMatrix in="shadowBlurOuter1" values="0 0 0 0 0   0 0 0 0 0   0 0 0 0 0  0 0 0 0.204257246 0"/></filter></defs><g fill="none" fill-rule="evenodd"><use fill="#000" filter="url(#c)" xlink:href="#b"/><use fill="#f70808" xlink:href="#b"/><use fill="url(#a)" xlink:href="#b"/><circle cx="16" cy="15" r="14.5" stroke="#000" stroke-opacity=".097"/><g fill-rule="nonzero"><use fill="#000" filter="url(#e)" xlink:href="#d"/><use fill="#fff" fill-rule="evenodd" xlink:href="#d"/></g></g></svg>