<svg height="32" viewBox="0 0 32 32" width="32" xmlns="http://www.w3.org/2000/svg" xmlns:xlink="http://www.w3.org/1999/xlink"><defs><linearGradient id="a" x1="50%" x2="50%" y1="0%" y2="100%"><stop offset="0" stop-color="#fff" stop-opacity=".5"/><stop offset="1" stop-opacity=".5"/></linearGradient><circle id="b" cx="16" cy="15" r="15"/><filter id="c" height="111.7%" width="111.7%" x="-5.8%" y="-4.2%"><feOffset dy=".5" in="SourceAlpha" result="shadowOffsetOuter1"/><feGaussianBlur in="shadowOffsetOuter1" result="shadowBlurOuter1" stdDeviation=".5"/><feComposite in="shadowBlurOuter1" in2="SourceAlpha" operator="out" result="shadowBlurOuter1"/><feColorMatrix in="shadowBlurOuter1" values="0 0 0 0 0   0 0 0 0 0   0 0 0 0 0  0 0 0 0.199473505 0"/></filter><path id="d" d="m26.9999996 15.0294902c.0007761 2.9097997-1.1452936 5.7006463-3.1859225 7.7581855-2.040629 2.0575392-4.8085385 3.213106-7.6944235 3.2123239v-2.8016089c3.9482099.0111836 7.3255564-2.8577789 7.98477-6.7828416h-3.8900161c.1533838-.4559915.232405-.9340477.2339859-1.4155495-.006369-.4810819-.0852665-.9583893-.2339859-1.4155495h3.8900161c-.668133-3.9199156-4.0400769-6.78428876-7.98477-6.78284162v-2.80160848c6.0078488.05800927 10.8550278 4.97163171 10.880346 11.0294902zm-7.253564 2.3592493h3.0710654c-1.1352848 3.3048008-4.4714754 5.2998374-7.8920677 4.7194436-3.4205922-.5803938-5.9254333-3.5665157-5.9254333-7.0639476s2.5048411-6.48355371 5.9254333-7.06394752c3.4205923-.5803938 6.7567829 1.41464277 7.8920677 4.71944362h-3.0710654c-.3465978-.5264025-.7940948-.9776077-1.3161709-1.3270777-2.0108931-1.2943642-4.6817005-.7001086-5.9655868 1.3273453-1.2838863 2.0274538-.6947273 4.7204409 1.3159614 6.0151279 2.0106887 1.2946869 4.6815898.7008601 5.9657963-1.3263876z"/><filter id="e" height="115.9%" width="119.4%" x="-9.7%" y="-5.7%"><feOffset dy=".5" in="SourceAlpha" result="shadowOffsetOuter1"/><feGaussianBlur in="shadowOffsetOuter1" result="shadowBlurOuter1" stdDeviation=".5"/><feColorMatrix in="shadowBlurOuter1" values="0 0 0 0 0   0 0 0 0 0   0 0 0 0 0  0 0 0 0.204257246 0"/></filter></defs><g fill="none"><use fill="#000" filter="url(#c)" xlink:href="#b"/><use fill="#272731" fill-rule="evenodd" xlink:href="#b"/><use fill="url(#a)" fill-rule="evenodd" xlink:href="#b"/><circle cx="16" cy="15" r="14.5" stroke="#000" stroke-opacity=".097"/><use fill="#000" filter="url(#e)" xlink:href="#d"/><use fill="#fff" fill-rule="evenodd" xlink:href="#d"/></g></svg>