<svg width="32" height="32" viewBox="0 0 32 32" fill="none" xmlns="http://www.w3.org/2000/svg">
<g clip-path="url(#clip0)">
<g filter="url(#filter0_d)">
<path d="M16 31C24.2843 31 31 24.2843 31 16C31 7.71573 24.2843 1 16 1C7.71573 1 1 7.71573 1 16C1 24.2843 7.71573 31 16 31Z" fill="black"/>
</g>
<path d="M16 31C24.2843 31 31 24.2843 31 16C31 7.71573 24.2843 1 16 1C7.71573 1 1 7.71573 1 16C1 24.2843 7.71573 31 16 31Z" fill="#027FFF"/>
<path fill-rule="evenodd" clip-rule="evenodd" d="M15.8464 20.865C15.8464 19.2583 15.8441 17.6516 15.8497 16.045C15.8503 15.8793 15.7935 15.7872 15.6521 15.7059C14.4508 15.0146 13.2535 14.3162 12.055 13.62C10.9446 12.9751 9.83418 12.3302 8.72352 11.6857C8.25638 11.4146 7.78807 11.1455 7.32118 10.8739C7.12603 10.7604 7.12597 10.7324 7.26218 10.5486C7.46619 10.2734 7.75084 10.1064 8.03977 9.94193C8.84995 9.48063 9.65994 9.01903 10.468 8.55398C11.7664 7.80664 13.0627 7.05562 14.361 6.30816C14.6738 6.12805 14.9644 5.90581 15.3114 5.78932C15.7445 5.64396 16.1686 5.64243 16.5826 5.86196C17.3888 6.28949 18.1676 6.76485 18.9541 7.22676C19.1026 7.31402 19.0993 7.33994 18.9501 7.4256C18.5127 7.67676 18.0731 7.92424 17.6391 8.18142C17.5204 8.25179 17.4247 8.24031 17.3136 8.17399C16.99 7.98055 16.6633 7.79221 16.3371 7.60313C16.0198 7.41916 15.702 7.4132 15.3817 7.59945C13.893 8.46549 12.4036 9.33055 10.9145 10.1959C10.8176 10.2522 10.7202 10.3077 10.6233 10.3642C10.3915 10.4994 10.3796 10.7331 10.6121 10.8724C11.1278 11.1816 11.6508 11.4784 12.1706 11.7806C13.2808 12.426 14.3908 13.0715 15.5008 13.7172C16.0954 14.0631 16.6869 14.4147 17.2863 14.7522C17.4399 14.8387 17.4945 14.9379 17.4941 15.1145C17.4886 17.6269 17.4903 20.1392 17.4903 22.6515C17.4903 22.7129 17.4893 22.7744 17.491 22.8358C17.4983 23.1004 17.6755 23.2118 17.9163 23.0972C18.3404 22.8955 18.7299 22.632 19.1362 22.3984C20.1656 21.8068 21.1918 21.2097 22.2191 20.6143C22.4131 20.5019 22.6082 20.3911 22.7986 20.2729C23.0478 20.1183 23.1726 19.884 23.1786 19.595C23.1871 19.1807 23.1844 18.7661 23.1795 18.3517C23.178 18.2236 23.223 18.1474 23.337 18.0842C23.7782 17.8399 24.2132 17.5843 24.6517 17.335C24.8004 17.2504 24.8248 17.2649 24.825 17.4369C24.8259 18.3426 24.848 19.249 24.8171 20.1536C24.7965 20.7586 24.4625 21.2085 23.9446 21.5112C23.0561 22.0306 22.1644 22.5444 21.2735 23.0597C19.8753 23.8683 18.4763 24.6759 17.0781 25.4848C16.77 25.6631 16.4753 25.8677 16.1102 25.9211C15.8604 25.9577 15.8466 25.9521 15.8466 25.7004C15.8463 24.0886 15.8464 22.4768 15.8464 20.865Z" fill="white"/>
<path fill-rule="evenodd" clip-rule="evenodd" d="M6.96101 16.1162C6.96101 14.7158 6.96101 13.3156 6.96107 11.9152C6.96107 11.8637 6.96151 11.8123 6.96238 11.7608C6.96362 11.6814 6.99428 11.6582 7.06841 11.7009C7.55162 11.9788 8.03546 12.2556 8.51918 12.5325C8.58405 12.5697 8.61217 12.6253 8.61062 12.6988C8.60944 12.7554 8.61105 12.8121 8.61105 12.8687C8.61111 15.0979 8.61074 17.3271 8.61186 19.5563C8.61192 19.7257 8.61502 19.8952 8.68325 20.0567C8.78332 20.2933 8.99196 20.4128 9.19986 20.5262C10.2107 21.0773 11.1884 21.6853 12.191 22.2503C13.1174 22.7723 14.0364 23.3071 14.9644 23.8261C15.1465 23.928 15.2339 24.0369 15.2244 24.2576C15.2043 24.7305 15.2176 25.2046 15.2152 25.6783C15.2143 25.8531 15.1899 25.869 15.0436 25.7848C13.997 25.1821 12.9517 24.5771 11.9051 23.9744C10.7064 23.2843 9.50666 22.5958 8.30761 21.9062C8.10629 21.7904 7.89504 21.6881 7.70719 21.5534C7.24887 21.2249 6.95822 20.7987 6.95983 20.2091C6.96355 18.8447 6.96101 17.4805 6.96101 16.1162Z" fill="white"/>
<path fill-rule="evenodd" clip-rule="evenodd" d="M25.0367 13.8424C25.0367 14.6081 25.0324 15.3739 25.0402 16.1396C25.0418 16.2984 24.993 16.3941 24.8539 16.4711C24.4234 16.7095 23.9994 16.9597 23.5723 17.2041C23.4101 17.2968 23.3816 17.2802 23.3814 17.0907C23.3807 15.5797 23.381 14.0688 23.3806 12.558C23.3805 12.0686 23.2033 11.656 22.8366 11.3312C22.6627 11.1773 22.4528 11.0754 22.2536 10.9601C21.0469 10.2613 19.8378 9.5665 18.6299 8.86972C18.4997 8.79457 18.4977 8.75891 18.6283 8.68253C19.0841 8.41613 19.5428 8.15455 19.999 7.88852C20.0929 7.83373 20.1694 7.85742 20.256 7.90789C21.2793 8.50405 22.3051 9.09583 23.328 9.69254C23.6906 9.90404 24.0863 10.0662 24.4088 10.3378C24.8009 10.6679 25.0348 11.0933 25.0362 11.6223C25.0381 12.3623 25.0367 13.1024 25.0367 13.8424Z" fill="white"/>
<g style="mix-blend-mode:soft-light">
<path d="M16 31C24.2843 31 31 24.2843 31 16C31 7.71573 24.2843 1 16 1C7.71573 1 1 7.71573 1 16C1 24.2843 7.71573 31 16 31Z" fill="url(#paint0_linear)"/>
<path d="M30.5 16C30.5 24.0081 24.0081 30.5 16 30.5C7.99187 30.5 1.5 24.0081 1.5 16C1.5 7.99187 7.99187 1.5 16 1.5C24.0081 1.5 30.5 7.99187 30.5 16Z" stroke="black" stroke-opacity="0.2"/>
</g>
</g>
<defs>
<filter id="filter0_d" x="0" y="0.5" width="32" height="32" filterUnits="userSpaceOnUse" color-interpolation-filters="sRGB">
<feFlood flood-opacity="0" result="BackgroundImageFix"/>
<feColorMatrix in="SourceAlpha" type="matrix" values="0 0 0 0 0 0 0 0 0 0 0 0 0 0 0 0 0 0 127 0"/>
<feOffset dy="0.5"/>
<feGaussianBlur stdDeviation="0.5"/>
<feColorMatrix type="matrix" values="0 0 0 0 0 0 0 0 0 0 0 0 0 0 0 0 0 0 0.199474 0"/>
<feBlend mode="normal" in2="BackgroundImageFix" result="effect1_dropShadow"/>
<feBlend mode="normal" in="SourceGraphic" in2="effect1_dropShadow" result="shape"/>
</filter>
<linearGradient id="paint0_linear" x1="16" y1="1" x2="16" y2="31" gradientUnits="userSpaceOnUse">
<stop stop-color="#C4C4C4"/>
<stop offset="1" stop-color="#C4C4C4" stop-opacity="0"/>
</linearGradient>
<clipPath id="clip0">
<rect width="32" height="32" fill="white"/>
</clipPath>
</defs>
</svg>
