<svg width="33" height="33" viewBox="0 0 33 33" fill="none" xmlns="http://www.w3.org/2000/svg">
<g clip-path="url(#clip0)">
<path d="M24.9028 14.183C25.3316 14.183 25.6792 13.8354 25.6792 13.4066C25.6792 12.9778 25.3316 12.6302 24.9028 12.6302C24.474 12.6302 24.1263 12.9778 24.1263 13.4066C24.1263 13.8354 24.474 14.183 24.9028 14.183Z" fill="#262761"/>
<path d="M16.9166 0.928284C8.04316 0.928284 0.888916 8.08253 0.888916 16.956C0.888916 25.8295 8.04316 32.9837 16.9166 32.9837C25.7901 32.9837 32.9444 25.8295 32.9444 16.956C32.9444 8.08253 25.7347 0.928284 16.9166 0.928284ZM24.1818 23.6111C22.2962 25.7186 19.5787 26.8832 16.8057 26.8832C13.9773 26.8832 11.2598 25.6631 9.37418 23.5557C7.43311 21.3928 6.60122 18.6753 6.87852 15.7914C7.37765 11.1882 11.038 7.52794 15.6411 6.97334C16.0293 6.91788 16.4175 6.91789 16.8057 6.91789C19.0241 6.91789 21.1316 7.63886 22.9062 9.02534C23.0172 9.0808 23.0726 9.24717 23.0726 9.35809C23.0726 9.52447 23.0172 9.63539 22.9062 9.74631L21.8525 10.6891C21.7416 10.8 21.5752 10.8555 21.4088 10.8555C21.2979 10.8555 21.1316 10.8 21.0761 10.7446C19.8005 9.85723 18.3031 9.41355 16.8057 9.41355C14.6428 9.41355 12.5908 10.3564 11.2043 11.9647C9.7624 13.573 9.09689 15.6805 9.37418 17.8434C9.7624 21.2818 12.5354 24.0548 15.9738 24.443C16.2511 24.4985 16.5284 24.4985 16.8612 24.4985C18.8577 24.4985 20.7433 23.722 22.1853 22.2801C22.2962 22.1692 22.4626 22.1137 22.629 22.1137C22.7399 22.1137 22.8508 22.1692 22.9617 22.2246L24.1264 23.0011C24.2373 23.0565 24.2927 23.1675 24.3482 23.3338C24.2927 23.3893 24.2373 23.5002 24.1818 23.6111ZM24.9028 15.8468C23.5718 15.8468 22.4626 14.7376 22.4626 13.4066C22.4626 12.0756 23.5718 10.9664 24.9028 10.9664C26.2338 10.9664 27.343 12.0756 27.343 13.4066C27.343 14.7376 26.2338 15.8468 24.9028 15.8468Z" fill="#262761"/>
</g>
<defs>
<clipPath id="clip0">
<rect width="32" height="32" fill="white" transform="translate(0.888916 0.928284)"/>
</clipPath>
</defs>
</svg>
