<svg height="32" viewBox="0 0 32 32" width="32" xmlns="http://www.w3.org/2000/svg" xmlns:xlink="http://www.w3.org/1999/xlink"><defs><linearGradient id="a" x1="50%" x2="50%" y1="0%" y2="100%"><stop offset="0" stop-color="#fff" stop-opacity=".5"/><stop offset="1" stop-opacity=".5"/></linearGradient><circle id="b" cx="16" cy="15" r="15"/><filter id="c" height="111.7%" width="111.7%" x="-5.8%" y="-4.2%"><feOffset dy=".5" in="SourceAlpha" result="shadowOffsetOuter1"/><feGaussianBlur in="shadowOffsetOuter1" result="shadowBlurOuter1" stdDeviation=".5"/><feComposite in="shadowBlurOuter1" in2="SourceAlpha" operator="out" result="shadowBlurOuter1"/><feColorMatrix in="shadowBlurOuter1" values="0 0 0 0 0   0 0 0 0 0   0 0 0 0 0  0 0 0 0.199473505 0"/></filter><path id="d" d="m24.6677122 17.8630181-1.0585693-.6632959 2.3100597-.0269305.0473688-.026125v.0255728l.9545715-.0111284-1.6188572 2.6352778-.1453553-1.2695141-7.3640733 4.0620141-2.7914285-3.7283333-7.83285717 4.125v-.9402778l8.07371427-4.2519445 2.7917143 3.7283334zm-10.1119979-.9052403-3.0602857 1.6116666v-10.92555551h3.0602857zm8.6537143.4813889-3.0602857 1.7002777v-11.49555551h3.0602857z"/><filter id="e" height="122.8%" width="117.7%" x="-8.9%" y="-8.1%"><feOffset dy=".5" in="SourceAlpha" result="shadowOffsetOuter1"/><feGaussianBlur in="shadowOffsetOuter1" result="shadowBlurOuter1" stdDeviation=".5"/><feColorMatrix in="shadowBlurOuter1" values="0 0 0 0 0   0 0 0 0 0   0 0 0 0 0  0 0 0 0.204257246 0"/></filter><path id="f" d="m18.8825714 19.8427778-.6565714.3647222-2.404-3.2108333v-8.10305559h3.0605714zm-8.6537143-.6063889-3.06028567 1.6116667v-10.5363889h3.06028567z"/><filter id="g" height="129.3%" width="129.9%" x="-14.9%" y="-10.5%"><feOffset dy=".5" in="SourceAlpha" result="shadowOffsetOuter1"/><feGaussianBlur in="shadowOffsetOuter1" result="shadowBlurOuter1" stdDeviation=".5"/><feComposite in="shadowBlurOuter1" in2="SourceAlpha" operator="out" result="shadowBlurOuter1"/><feColorMatrix in="shadowBlurOuter1" values="0 0 0 0 0   0 0 0 0 0   0 0 0 0 0  0 0 0 0.204257246 0"/></filter></defs><g fill="none" fill-rule="nonzero"><g><use fill="#000" filter="url(#c)" xlink:href="#b"/><use fill="#0576b4" fill-rule="evenodd" xlink:href="#b"/><use fill="url(#a)" fill-rule="evenodd" xlink:href="#b"/><circle cx="16" cy="15" r="14.5" stroke="#000" stroke-opacity=".097"/></g><g><use fill="#000" filter="url(#e)" xlink:href="#d"/><use fill="#fff" fill-rule="evenodd" xlink:href="#d"/></g><g><use fill="#000" filter="url(#g)" xlink:href="#f"/><use fill="#fff" fill-opacity=".5" fill-rule="evenodd" xlink:href="#f"/></g></g></svg>