<svg width="32" height="32" viewBox="0 0 32 32" version="1.1" xmlns="http://www.w3.org/2000/svg" xmlns:xlink="http://www.w3.org/1999/xlink"><title>svg/icon/cmm</title><desc>Created with Sketch.</desc><defs><linearGradient x1="50%" y1="0%" x2="50%" y2="100%" id="linearGradient-1"><stop stop-color="#FFF" stop-opacity=".5" offset="0%"/><stop stop-color="#000" stop-opacity=".5" offset="100%"/></linearGradient><circle id="path-2" cx="15" cy="15" r="15"/><filter x="-5.8%" y="-4.2%" width="111.7%" height="111.7%" filterUnits="objectBoundingBox" id="filter-3"><feOffset dx="0" dy=".5" in="SourceAlpha" result="shadowOffsetOuter1"/><feGaussianBlur stdDeviation=".5" in="shadowOffsetOuter1" result="shadowBlurOuter1"/><feComposite in="shadowBlurOuter1" in2="SourceAlpha" operator="out" result="shadowBlurOuter1"/><feColorMatrix values="0 0 0 0 0 0 0 0 0 0 0 0 0 0 0 0 0 0 0.199473505 0" type="matrix" in="shadowBlurOuter1"/></filter></defs><g id="icon/cmm" stroke="none" stroke-width="1" fill="none" fill-rule="evenodd"><g id="Group" transform="translate(1.000000, 0.000000)" fill-rule="nonzero"><g id="Oval"><use fill="#000" fill-opacity="1" filter="url(#filter-3)" xlink:href="#path-2"/><use fill="#2FD2E5" xlink:href="#path-2"/><use fill="url(#linearGradient-1)" style="mix-blend-mode:soft-light" xlink:href="#path-2"/><circle stroke-opacity=".097" stroke="#000" stroke-width="1" stroke-linejoin="square" cx="15" cy="15" r="14.5"/></g></g><g id="Commercium-(CMM)" transform="translate(9.000000, 4.000000)" fill="#FFF" fill-rule="nonzero"><path d="M7.85529412,0.00647058824 C5.37900231,-0.079587829 2.94835529,0.687984915 0.970588235,2.18058824 C0.582299926,2.4725028 0.345753677,2.92346068 0.32631297,3.40885123 C0.306872264,3.89424178 0.506595436,4.36267297 0.870294118,4.68470588 C1.44007928,5.22410106 2.31832483,5.26670765 2.93764706,4.785 C6.08315406,2.33715737 10.5778766,2.69954437 13.2905882,5.61970588 C13.8309936,6.17831946 13.8479404,7.05955172 13.3294118,7.63852941 C12.7808542,8.22636824 11.8596306,8.25823446 11.2717647,7.70970588 L11.2005882,7.63852941 C9.41495205,5.68125454 6.38135342,5.54036111 4.42198689,7.32370188 C2.46262035,9.10704264 2.31817124,12.140474 4.09921414,14.1019295 C5.88025704,16.063385 8.91351705,16.2113897 10.8770588,14.4326471 C10.984902,14.3334314 11.0927451,14.2255882 11.2005882,14.1091176 C11.6304682,13.6282986 12.329457,13.4956632 12.9055882,13.7855882 C13.3100476,13.9880763 13.5964732,14.3681374 13.6796762,14.8127339 C13.7628793,15.2573304 13.6332755,15.7152485 13.3294118,16.0502941 C10.6271831,19.0078888 6.11052474,19.4043088 2.93441176,16.9626471 C2.30881728,16.4858715 1.43094514,16.528195 0.854117647,17.0629412 C0.492655263,17.3937817 0.298400372,17.8691434 0.324713758,18.3584471 C0.351027143,18.8477508 0.595141531,19.2995382 0.99,19.5897059 C4.7421135,22.3723619 9.85299128,22.4449812 13.6826504,19.7700529 C17.5123095,17.0951245 19.2033095,12.2715508 17.8821781,7.79090995 C16.5610466,3.31026914 12.5235779,0.175752945 7.85529412,0.00647058824 Z M7.65470588,13.5623529 C6.17156863,13.5569975 4.97291759,12.3515974 4.97588972,10.8684534 C4.97886185,9.38530948 6.18233434,8.18472301 7.66548114,8.18531186 C9.14862794,8.1859007 10.3511467,9.3874424 10.3529412,10.8705882 C10.3538066,11.5858759 10.0695995,12.2720217 9.56320754,12.7771993 C9.05681559,13.2823768 8.36998941,13.5649357 7.65470588,13.5623529 Z" id="Shape"/></g></g></svg>