<svg xmlns="http://www.w3.org/2000/svg" xmlns:xlink="http://www.w3.org/1999/xlink" width="32" height="32" viewBox="0 0 32 32"><defs><linearGradient id="cnd-c" x1="50%" x2="50%" y1="0%" y2="100%"><stop offset="0%" stop-color="#FFF" stop-opacity=".5"/><stop offset="100%" stop-opacity=".5"/></linearGradient><circle id="cnd-b" cx="16" cy="15" r="15"/><filter id="cnd-a" width="111.7%" height="111.7%" x="-5.8%" y="-4.2%" filterUnits="objectBoundingBox"><feOffset dy=".5" in="SourceAlpha" result="shadowOffsetOuter1"/><feGaussianBlur in="shadowOffsetOuter1" result="shadowBlurOuter1" stdDeviation=".5"/><feComposite in="shadowBlurOuter1" in2="SourceAlpha" operator="out" result="shadowBlurOuter1"/><feColorMatrix in="shadowBlurOuter1" values="0 0 0 0 0 0 0 0 0 0 0 0 0 0 0 0 0 0 0.199473505 0"/></filter><polygon id="cnd-e" points="19.473 10.479 22.14 9.868 23.173 8.167 22.153 6.494 20.847 5.592 18.164 5 16.509 5.933 13.861 5.461 10.225 7.98 9.942 10.922 8.399 11.566 8.577 14.295 7.5 15.153 8.576 18.225 8.738 18.547 9.876 21.71 12.215 22.538 13.949 24.302 15.943 25 16.845 24.74 18.276 24.575 20.374 23.974 23.5 22.209 22.682 18.977 21.108 18.357 20.324 19.254 18.119 19.796 14.912 19.288 13.877 18.091 14.237 16.92 12.721 14.521 13.996 12.965 14.132 10.32 15.958 9.272 17.21 8.772 18.91 9.079"/><filter id="cnd-d" width="121.9%" height="117.5%" x="-10.9%" y="-6.2%" filterUnits="objectBoundingBox"><feOffset dy=".5" in="SourceAlpha" result="shadowOffsetOuter1"/><feGaussianBlur in="shadowOffsetOuter1" result="shadowBlurOuter1" stdDeviation=".5"/><feColorMatrix in="shadowBlurOuter1" values="0 0 0 0 0 0 0 0 0 0 0 0 0 0 0 0 0 0 0.204257246 0"/></filter></defs><g fill="none" fill-rule="evenodd"><use fill="#000" filter="url(#cnd-a)" xlink:href="#cnd-b"/><use fill="#383939" xlink:href="#cnd-b"/><use fill="url(#cnd-c)" style="mix-blend-mode:soft-light" xlink:href="#cnd-b"/><circle cx="16" cy="15" r="14.5" stroke="#000" stroke-opacity=".097"/><g><use fill="#000" filter="url(#cnd-d)" xlink:href="#cnd-e"/><use fill="#FFF" xlink:href="#cnd-e"/></g></g></svg>