<svg height="32" viewBox="0 0 32 32" width="32" xmlns="http://www.w3.org/2000/svg" xmlns:xlink="http://www.w3.org/1999/xlink"><defs><linearGradient id="a" x1="50%" x2="50%" y1="0%" y2="100%"><stop offset="0" stop-color="#fff" stop-opacity=".5"/><stop offset="1" stop-opacity=".5"/></linearGradient><circle id="b" cx="16" cy="15" r="15"/><filter id="c" height="111.7%" width="111.7%" x="-5.8%" y="-4.2%"><feOffset dy=".5" in="SourceAlpha" result="shadowOffsetOuter1"/><feGaussianBlur in="shadowOffsetOuter1" result="shadowBlurOuter1" stdDeviation=".5"/><feComposite in="shadowBlurOuter1" in2="SourceAlpha" operator="out" result="shadowBlurOuter1"/><feColorMatrix in="shadowBlurOuter1" values="0 0 0 0 0   0 0 0 0 0   0 0 0 0 0  0 0 0 0.199473505 0"/></filter><filter id="d" height="115.9%" width="115.9%" x="-8%" y="-5.7%"><feOffset dy=".5" in="SourceAlpha" result="shadowOffsetOuter1"/><feGaussianBlur in="shadowOffsetOuter1" result="shadowBlurOuter1" stdDeviation=".5"/><feColorMatrix in="shadowBlurOuter1" result="shadowMatrixOuter1" values="0 0 0 0 0   0 0 0 0 0   0 0 0 0 0  0 0 0 0.204257246 0"/><feMerge><feMergeNode in="shadowMatrixOuter1"/><feMergeNode in="SourceGraphic"/></feMerge></filter></defs><g fill="none" fill-rule="evenodd"><use fill="#000" filter="url(#c)" xlink:href="#b"/><use fill="#4c6bae" xlink:href="#b"/><use fill="url(#a)" xlink:href="#b"/><circle cx="16" cy="15" r="14.5" stroke="#000" stroke-opacity=".097"/><g fill="#fff" filter="url(#d)" transform="translate(5 4)"><path d="m1.38271561 12.009567-1.38271561.1436588c.73924731-2.0698925 2.20295699-3.72580645 4.39112903-4.96774193.20698925 1.71505376 1.02016129 3.13440863 2.43951613 4.25806453l-1.30056643.1351238c.25740216 2.4617335 2.13867111 4.4402875 4.55346217 4.8453174-.86899173.6544847-1.86458063 1.0494451-2.98676671 1.1848814.68128941 1.200367 1.48715729 2.1827218 2.41760363 2.9470642-4.30812907-.6643125-7.67786505-4.1722838-8.13166221-8.5463682zm19.23456879-2.01913404 1.3827156-.14365877c-.7392473 2.06989251-2.202957 3.72580641-4.391129 4.96774191-.2069893-1.7150537-1.0201613-3.1344086-2.4395162-4.2580645l1.3005665-.1351238c-.2599924-2.48650559-2.1766975-4.48005846-4.6265224-4.85706555.8652893-.64746487 1.8556617-1.03850927 2.9711172-1.17313322-.6860757-1.20880008-1.4984865-2.19651385-2.4372323-2.96314131 4.359872.6217456 7.7824064 4.1517615 8.2400006 8.56244524z" opacity=".5"/><path d="m11.9217619 20.6259907.1427542 1.3740093c-2.06989244-.7392473-3.72580642-2.202957-4.96774191-4.391129 1.71505377-.2069893 3.13440861-1.0201613 4.25806451-2.4395162l.1360043 1.3090412c2.5272752-.2235096 4.563459-2.1563941 4.9448948-4.6349971.6474648.8652893 1.0385092 1.8556617 1.1731332 2.9711172 1.2088001-.6860757 2.1965138-1.4984865 2.9631413-2.4372323-.625866 4.3887652-4.1986765 7.8277279-8.6502504 8.2487069zm-1.93132894-19.24327509-.14365877-1.38271561c2.06989251.73924731 3.72580641 2.20295699 4.96774191 4.39112903-1.7150537.20698925-3.1344086 1.02016129-4.2580645 2.43951613l-.1351238-1.30056643c-2.48650559.25999236-4.48005846 2.1766975-4.85706555 4.62652237-.64746487-.86528927-1.03850927-1.85566167-1.17313322-2.97111723-1.20880008.68607573-2.19651385 1.49848649-2.96314131 2.43723229.6217456-4.35987199 4.1517615-7.78240632 8.56244524-8.24000055z"/></g></g></svg>