<svg height="32" viewBox="0 0 32 32" width="32" xmlns="http://www.w3.org/2000/svg" xmlns:xlink="http://www.w3.org/1999/xlink"><defs><linearGradient id="a" x1="50%" x2="50%" y1="0%" y2="100%"><stop offset="0" stop-color="#fff" stop-opacity=".5"/><stop offset="1" stop-opacity=".5"/></linearGradient><circle id="b" cx="16" cy="15" r="15"/><filter id="c" height="111.7%" width="111.7%" x="-5.8%" y="-4.2%"><feOffset dy=".5" in="SourceAlpha" result="shadowOffsetOuter1"/><feGaussianBlur in="shadowOffsetOuter1" result="shadowBlurOuter1" stdDeviation=".5"/><feComposite in="shadowBlurOuter1" in2="SourceAlpha" operator="out" result="shadowBlurOuter1"/><feColorMatrix in="shadowBlurOuter1" values="0 0 0 0 0   0 0 0 0 0   0 0 0 0 0  0 0 0 0.199473505 0"/></filter><path id="d" d="m15.999888 23.9991995.000112.0008005h-4.5363322l2.2723184-3.9570709.000804.0008005-.000458-.0008005h4.5280277l2.2719723 3.9570709h-4.5363322l.000173-.0003024zm-2.2632686-14.04297932-.0006332.00050202-2.2723184-3.9567222h4.5363322v.00060473l.000173-.00030237-.000173-.00030236h4.5363322l-2.272145 3.95642039-4.527855.00030181zm9.9989414 9.53850592.0000793.0007408h-.0011919l.0011919.0003487-2.2723183 3.9567222-2.2640138-3.9567222.0011918-.0003487h-.0011918l2.2640138-3.9570709.00061.0004598-.000264-.0004598h4.5363322l-2.2640138 3.9570709zm-15.47171965-8.9986087-.00017333-.0003018 2.27231838-3.95707093 2.2640138 3.95707093-2.2638411 3.9564204.0001733.0003018h-4.5363322zm4.53533685 8.9996982h.000822l-2.2640138 3.9567222-2.27231838-3.9567222h.00082199l-.00082199-.0003487-2.26366782-3.9570709h4.5363322l2.2636678 3.9570709zm10.9364622-8.9993977.000346-.0006023 2.2640138 3.9567222h-4.5363322l.0001913-.0003331-.0005373.0003331-2.2640138-3.9567222 2.2640138-3.95707093 2.2723183 3.95707093z"/><filter id="e" height="119.4%" width="117.5%" x="-8.8%" y="-6.9%"><feOffset dy=".5" in="SourceAlpha" result="shadowOffsetOuter1"/><feGaussianBlur in="shadowOffsetOuter1" result="shadowBlurOuter1" stdDeviation=".5"/><feColorMatrix in="shadowBlurOuter1" values="0 0 0 0 0   0 0 0 0 0   0 0 0 0 0  0 0 0 0.204257246 0"/></filter></defs><g fill="none" fill-rule="evenodd"><use fill="#000" filter="url(#c)" xlink:href="#b"/><use fill="#13bf99" xlink:href="#b"/><use fill="url(#a)" xlink:href="#b"/><circle cx="16" cy="15" r="14.5" stroke="#000" stroke-opacity=".097"/><g fill-rule="nonzero"><use fill="#000" filter="url(#e)" xlink:href="#d"/><use fill="#fff" fill-rule="evenodd" xlink:href="#d"/></g></g></svg>