<svg width="32" height="32" viewBox="0 0 32 32" fill="none" xmlns="http://www.w3.org/2000/svg">
<g clip-path="url(#clip0)">
<g filter="url(#filter0_d)">
<path d="M16 31C24.2843 31 31 24.2843 31 16C31 7.71573 24.2843 1 16 1C7.71573 1 1 7.71573 1 16C1 24.2843 7.71573 31 16 31Z" fill="black"/>
</g>
<path d="M16 31C24.2843 31 31 24.2843 31 16C31 7.71573 24.2843 1 16 1C7.71573 1 1 7.71573 1 16C1 24.2843 7.71573 31 16 31Z" fill="#0CAEEF"/>
<path d="M5.10683 17.1576C5.07945 17.1097 5.06576 17.0891 5.07261 17.1028C5.07945 17.1097 5.0863 17.1302 5.10683 17.1576C5.12052 17.1781 5.13421 17.1987 5.14106 17.2123C5.14106 17.226 5.13421 17.2055 5.10683 17.1576C4.9494 16.8838 4.84673 16.5963 4.79197 16.2951C4.73721 15.9871 4.73721 15.6859 4.78512 15.3711C4.86042 14.933 5.03838 14.536 5.31902 14.1869C5.59966 13.8378 5.94191 13.5709 6.35944 13.3997C6.57163 13.3108 6.79067 13.2492 7.01655 13.2149C7.24243 13.1807 7.46147 13.1807 7.68735 13.2081C7.91323 13.2355 8.13227 13.2902 8.33761 13.3655C8.5498 13.4477 8.7483 13.5503 8.93312 13.6872C8.97418 13.7146 8.99472 13.742 9.00156 13.7625C9.00841 13.7831 9.00841 13.8104 8.98787 13.8447L8.80991 14.139C8.7483 14.2348 8.67986 14.2485 8.61141 14.1801C8.44713 14.05 8.26232 13.9542 8.07066 13.8994C7.87216 13.8378 7.67366 13.8036 7.46147 13.7899C7.24928 13.7899 7.05078 13.8173 6.85227 13.8789C6.65377 13.9336 6.46896 14.0158 6.29784 14.1253C6.12672 14.2348 5.97613 14.3649 5.83923 14.5155C5.70234 14.6729 5.59282 14.844 5.50383 15.0357C5.41485 15.2342 5.36009 15.4464 5.3464 15.6654C5.33271 15.8844 5.3464 16.0966 5.39432 16.302C5.44223 16.5073 5.52437 16.7058 5.63389 16.8906C5.7434 17.0754 5.88715 17.2397 6.05827 17.3835C6.22939 17.5272 6.4142 17.6367 6.61955 17.712C6.82489 17.7873 7.03709 17.8284 7.25612 17.8352C7.47516 17.8421 7.70104 17.8078 7.93376 17.7462C8.16649 17.6846 8.39237 17.5751 8.61825 17.4382C8.65932 17.4177 8.6867 17.404 8.71408 17.404C8.73461 17.404 8.76199 17.4245 8.78937 17.4724C8.83044 17.534 8.85782 17.5888 8.89205 17.6367C8.91258 17.6778 8.93996 17.7189 8.95365 17.7531C8.97418 17.7873 8.98787 17.8078 8.98787 17.8078C9.00841 17.8421 9.00841 17.8694 8.98787 17.8968C8.96734 17.9174 8.94681 17.9447 8.91943 17.9653C8.61825 18.1912 8.28285 18.3349 7.91323 18.4102C7.54361 18.4786 7.17398 18.4786 6.81121 18.3965C6.45527 18.3144 6.12672 18.1706 5.82554 17.9516C5.52437 17.7394 5.2848 17.4724 5.10683 17.1576Z" fill="white"/>
<path d="M12.3282 13.1875C12.691 13.1875 13.0332 13.2559 13.3481 13.3928C13.6698 13.5297 13.9504 13.7214 14.19 13.961C14.4296 14.2005 14.6212 14.4812 14.7581 14.8029C14.895 15.1246 14.9635 15.46 14.9635 15.8228C14.9635 16.1856 14.895 16.5278 14.7581 16.8427C14.6212 17.1644 14.4296 17.445 14.19 17.6846C13.9504 17.9242 13.6698 18.1158 13.3481 18.2527C13.0264 18.3896 12.691 18.4581 12.3282 18.4581C11.9586 18.4581 11.6163 18.3896 11.3015 18.2527C10.9798 18.1158 10.706 17.9242 10.4664 17.6846C10.2268 17.445 10.042 17.1644 9.89826 16.8427C9.76137 16.521 9.69292 16.1856 9.69292 15.8228C9.69292 15.46 9.76137 15.1178 9.89826 14.8029C10.0352 14.4812 10.2268 14.2074 10.4664 13.961C10.706 13.7214 10.9866 13.5297 11.3015 13.3928C11.6163 13.2559 11.9654 13.1875 12.3282 13.1875ZM12.3282 17.8831C12.6088 17.8831 12.8758 17.8283 13.1222 17.7188C13.3755 17.6093 13.5876 17.4587 13.7725 17.2739C13.9573 17.0891 14.1079 16.87 14.2105 16.6236C14.3132 16.3772 14.368 16.1103 14.368 15.8296C14.368 15.5421 14.3132 15.2752 14.2105 15.0288C14.1079 14.7824 13.9573 14.5633 13.7725 14.3785C13.5876 14.1937 13.3686 14.0431 13.1222 13.9404C12.8689 13.8309 12.6088 13.783 12.3282 13.783C12.0407 13.783 11.7738 13.8378 11.5273 13.9404C11.2809 14.0431 11.0619 14.1937 10.8771 14.3785C10.6923 14.5633 10.5417 14.7824 10.439 15.0288C10.3363 15.2752 10.2816 15.549 10.2816 15.8296C10.2816 16.1103 10.3363 16.3772 10.439 16.6236C10.5417 16.87 10.6923 17.0891 10.8771 17.2739C11.0619 17.4587 11.2809 17.6093 11.5273 17.7188C11.7738 17.8283 12.0407 17.8831 12.3282 17.8831Z" fill="white"/>
<path d="M16.086 13.3449C16.1681 13.3449 16.2092 13.386 16.2092 13.4613V18.3554C16.2092 18.4238 16.1681 18.4649 16.086 18.4649H15.7164C15.6479 18.4649 15.6137 18.4307 15.6137 18.3554V13.4476C15.6137 13.4134 15.6274 13.386 15.6479 13.3723C15.6685 13.3518 15.6958 13.3449 15.7232 13.3449H16.086Z" fill="white"/>
<path d="M21.6235 13.3381C21.6783 13.3381 21.7125 13.3518 21.733 13.3723C21.7536 13.3928 21.7604 13.4202 21.7604 13.4544L21.7262 18.3554C21.7262 18.4238 21.6851 18.4649 21.5961 18.4649H21.1307L17.9615 14.18V16.8358L19.2141 16.8427C19.2826 16.8427 19.3236 16.8837 19.3236 16.959V17.315C19.3236 17.3492 19.3168 17.3766 19.2963 17.4039C19.2757 17.4245 19.2483 17.4382 19.2073 17.4382L17.4755 17.4313C17.4071 17.4313 17.366 17.3971 17.366 17.3355V13.4271C17.366 13.3518 17.4071 13.3107 17.4892 13.3107H17.982C18.0299 13.3107 18.071 13.3312 18.0984 13.3655L21.1375 17.4587L21.1649 13.4339C21.1649 13.4065 21.1786 13.3791 21.1991 13.3586C21.2197 13.3381 21.247 13.3244 21.2744 13.3244H21.5893H21.6235V13.3381ZM19.837 17.8557C19.9054 17.8557 19.9465 17.8968 19.9465 17.9721V18.3348C19.9465 18.3691 19.9328 18.3964 19.9123 18.4238C19.8918 18.4444 19.8644 18.458 19.8302 18.458H17.4755C17.4071 18.458 17.366 18.4238 17.366 18.3485V17.9857C17.366 17.9447 17.3728 17.9173 17.3934 17.8899C17.4139 17.8694 17.4413 17.8557 17.4824 17.8557H19.837Z" fill="white"/>
<path d="M23.0267 18.3554C23.0267 18.4238 22.9857 18.4581 22.9035 18.4581H22.5407C22.4654 18.4581 22.4244 18.4238 22.4244 18.3554V13.4613C22.4244 13.386 22.4586 13.3449 22.5407 13.3449H25.84C25.9221 13.3449 25.9632 13.386 25.9632 13.4681V13.8172C25.9632 13.8583 25.9495 13.8857 25.929 13.9131C25.9084 13.9404 25.881 13.9473 25.84 13.9473H23.0199V15.6037H25.0186C25.087 15.6037 25.1281 15.6448 25.1281 15.7201V16.076C25.1281 16.1103 25.1213 16.1376 25.1007 16.165C25.0802 16.1924 25.0528 16.2061 25.0254 16.2061H23.0267V18.3554Z" fill="white"/>
<path d="M27.1268 13.3449C27.2089 13.3449 27.25 13.386 27.25 13.4613V18.3554C27.25 18.4238 27.2089 18.4649 27.1268 18.4649H26.7572C26.6887 18.4649 26.6545 18.4307 26.6545 18.3554V13.4476C26.6545 13.4134 26.6682 13.386 26.6887 13.3723C26.7093 13.3518 26.7366 13.3449 26.764 13.3449H27.1268Z" fill="white"/>
<g style="mix-blend-mode:soft-light">
<path d="M16 31C24.2843 31 31 24.2843 31 16C31 7.71573 24.2843 1 16 1C7.71573 1 1 7.71573 1 16C1 24.2843 7.71573 31 16 31Z" fill="url(#paint0_linear)"/>
<path d="M30.5 16C30.5 24.0081 24.0081 30.5 16 30.5C7.99187 30.5 1.5 24.0081 1.5 16C1.5 7.99187 7.99187 1.5 16 1.5C24.0081 1.5 30.5 7.99187 30.5 16Z" stroke="black" stroke-opacity="0.2"/>
</g>
</g>
<defs>
<filter id="filter0_d" x="0" y="0.5" width="32" height="32" filterUnits="userSpaceOnUse" color-interpolation-filters="sRGB">
<feFlood flood-opacity="0" result="BackgroundImageFix"/>
<feColorMatrix in="SourceAlpha" type="matrix" values="0 0 0 0 0 0 0 0 0 0 0 0 0 0 0 0 0 0 127 0"/>
<feOffset dy="0.5"/>
<feGaussianBlur stdDeviation="0.5"/>
<feColorMatrix type="matrix" values="0 0 0 0 0 0 0 0 0 0 0 0 0 0 0 0 0 0 0.199474 0"/>
<feBlend mode="normal" in2="BackgroundImageFix" result="effect1_dropShadow"/>
<feBlend mode="normal" in="SourceGraphic" in2="effect1_dropShadow" result="shape"/>
</filter>
<linearGradient id="paint0_linear" x1="16" y1="1" x2="16" y2="31" gradientUnits="userSpaceOnUse">
<stop stop-color="#C4C4C4"/>
<stop offset="1" stop-color="#C4C4C4" stop-opacity="0"/>
</linearGradient>
<clipPath id="clip0">
<rect width="32" height="32" fill="white"/>
</clipPath>
</defs>
</svg>
