<svg width="32" height="32" viewBox="0 0 32 32" version="1.1" xmlns="http://www.w3.org/2000/svg" xmlns:xlink="http://www.w3.org/1999/xlink"><title>icon/colx</title><desc>Created with Sketch.</desc><defs><linearGradient x1="50%" y1="0%" x2="50%" y2="100%" id="linearGradient-1"><stop stop-color="#FFF" stop-opacity=".5" offset="0%"/><stop stop-color="#000" stop-opacity=".5" offset="100%"/></linearGradient><circle id="path-2" cx="15" cy="15" r="15"/><filter x="-5.8%" y="-4.2%" width="111.7%" height="111.7%" filterUnits="objectBoundingBox" id="filter-3"><feOffset dx="0" dy=".5" in="SourceAlpha" result="shadowOffsetOuter1"/><feGaussianBlur stdDeviation=".5" in="shadowOffsetOuter1" result="shadowBlurOuter1"/><feComposite in="shadowBlurOuter1" in2="SourceAlpha" operator="out" result="shadowBlurOuter1"/><feColorMatrix values="0 0 0 0 0 0 0 0 0 0 0 0 0 0 0 0 0 0 0.199473505 0" type="matrix" in="shadowBlurOuter1"/></filter></defs><g id="icon/colx" stroke="none" stroke-width="1" fill="none" fill-rule="evenodd"><g id="Group" transform="translate(1.000000, 0.000000)" fill-rule="nonzero"><g id="Oval"><use fill="#000" fill-opacity="1" filter="url(#filter-3)" xlink:href="#path-2"/><use fill="#77C3B0" fill-rule="evenodd" xlink:href="#path-2"/><use fill="url(#linearGradient-1)" fill-rule="evenodd" style="mix-blend-mode:soft-light" xlink:href="#path-2"/><circle stroke-opacity=".097" stroke="#000" stroke-width="1" stroke-linejoin="square" cx="15" cy="15" r="14.5"/></g></g><g id="ColossusXT-(COLX)-Copy" transform="translate(6.000000, 5.000000)" fill="#FFF" fill-rule="nonzero"><path d="M19.2356021,6.77486911 L17.6649215,5.20418848 C17.1832461,4.72251309 16.5445026,4.46073298 15.8638743,4.46073298 L15.6230366,4.46073298 L15.6230366,4.20942408 C15.6230366,3.76963351 15.5183246,3.35078534 15.2984293,2.97382199 C15.1832461,2.7539267 15.0366492,2.55497382 14.8586387,2.38743455 L13.2879581,0.816753927 C12.8062827,0.335078534 12.1675393,0.0732984293 11.486911,0.0732984293 L4.2513089,0.0732984293 C3.57068063,0.0732984293 2.93193717,0.335078534 2.45026178,0.816753927 L0.879581152,2.38743455 C0.397905759,2.85863874 0.136125654,3.4973822 0.136125654,4.17801047 L0.0942408377,10.9633508 C0.0837696335,11.6439791 0.356020942,12.3036649 0.837696335,12.7853403 L2.40837696,14.3560209 C2.89005236,14.8376963 3.52879581,15.0994764 4.20942408,15.0994764 L4.4921466,15.0994764 L4.4921466,15.3507853 C4.4921466,15.7905759 4.59685864,16.2094241 4.81675393,16.5863874 C4.93193717,16.8062827 5.07853403,17.0052356 5.2565445,17.1727749 L6.82722513,18.7434555 C7.30890052,19.2251309 7.94764398,19.486911 8.62827225,19.486911 L15.8743455,19.486911 C16.5549738,19.486911 17.1937173,19.2251309 17.6753927,18.7434555 L19.2460733,17.1727749 C19.7277487,16.6910995 19.9895288,16.052356 19.9895288,15.3717277 L19.9895288,8.56544503 C19.9790576,7.88481675 19.7172775,7.2460733 19.2356021,6.77486911 Z M4.20942408,12.7958115 C4.13612565,12.7958115 4.07329843,12.7643979 4.03141361,12.7225131 L3.2460733,11.9371728 L2.46073298,11.1518325 C2.45026178,11.1413613 2.43979058,11.1308901 2.42931937,11.1099476 C2.40837696,11.078534 2.39790576,11.0471204 2.38743455,11.0157068 C2.38743455,10.9947644 2.38743455,10.9842932 2.38743455,10.9633508 L2.38743455,4.18848168 C2.38743455,4.11518325 2.41884817,4.05235602 2.46073298,4.0104712 L4.03141361,2.43979058 C4.05235602,2.41884817 4.07329843,2.40837696 4.09424084,2.39790576 C4.13612565,2.37696335 4.17801047,2.36649215 4.21989529,2.36649215 L11.4659686,2.36649215 C11.5078534,2.36649215 11.539267,2.37696335 11.5811518,2.39790576 C11.6125654,2.40837696 11.6335079,2.42931937 11.6544503,2.45026178 L13.2251309,4.02094241 C13.2460733,4.04188482 13.2670157,4.06282723 13.2774869,4.09424084 C13.2879581,4.10471204 13.2879581,4.11518325 13.2879581,4.12565445 C13.2879581,4.13612565 13.2984293,4.14659686 13.2984293,4.15706806 C13.2984293,4.16753927 13.3089005,4.19895288 13.3089005,4.21989529 L13.3089005,4.55497382 C13.3089005,4.70157068 13.1937173,4.80628272 13.0575916,4.80628272 L11.8010471,4.80628272 C11.7277487,4.80628272 11.6649215,4.77486911 11.6230366,4.73298429 L10.9109948,4.02094241 L4.77486911,4.02094241 L4.51308901,4.28272251 L4.15706806,4.63874346 L4.15706806,10.5340314 L4.77486911,11.1518325 L10.9005236,11.1518325 L11.6125654,10.4293194 C11.6125654,10.4293194 11.6230366,10.4188482 11.6230366,10.4188482 C11.6439791,10.408377 11.6649215,10.3874346 11.6858639,10.3769634 C11.7172775,10.3560209 11.7591623,10.3560209 11.7905759,10.3560209 L13.0471204,10.3560209 C13.1308901,10.3560209 13.2041885,10.3979058 13.2565445,10.460733 C13.2879581,10.5026178 13.3089005,10.5549738 13.3089005,10.6073298 L13.3089005,10.9633508 C13.3089005,11.0366492 13.2774869,11.0994764 13.2356021,11.1413613 L12.4502618,11.9267016 L11.6649215,12.7120419 C11.6544503,12.7225131 11.6335079,12.7329843 11.6230366,12.7434555 C11.6230366,12.7434555 11.6125654,12.7539267 11.6020942,12.7539267 C11.591623,12.7643979 11.5811518,12.7643979 11.5706806,12.7643979 C11.5602094,12.7643979 11.5602094,12.7643979 11.5497382,12.7748691 C11.539267,12.7748691 11.5287958,12.7853403 11.5183246,12.7853403 C11.5183246,12.7853403 11.5078534,12.7853403 11.5078534,12.7853403 C11.4973822,12.7853403 11.4973822,12.7853403 11.486911,12.7853403 C11.4764398,12.7853403 11.4659686,12.7853403 11.4554974,12.7853403 L4.20942408,12.7853403 L4.20942408,12.7958115 Z M17.6963351,15.3507853 C17.6963351,15.4240838 17.6649215,15.486911 17.6230366,15.5287958 L16.052356,17.0994764 C16.0314136,17.1204188 16.0104712,17.1308901 15.9895288,17.1413613 C15.947644,17.1623037 15.9057592,17.1727749 15.8638743,17.1727749 L8.61780105,17.1727749 C8.57591623,17.1727749 8.54450262,17.1623037 8.5026178,17.1413613 C8.47120419,17.1308901 8.45026178,17.1099476 8.42931937,17.0890052 L6.85863874,15.5183246 C6.83769634,15.4973822 6.81675393,15.4764398 6.80628272,15.4450262 C6.79581152,15.434555 6.79581152,15.4240838 6.79581152,15.4136126 C6.79581152,15.4031414 6.78534031,15.3926702 6.78534031,15.382199 C6.78534031,15.3717277 6.77486911,15.3403141 6.77486911,15.3193717 L6.77486911,14.9842932 C6.77486911,14.8376963 6.89005236,14.7329843 7.02617801,14.7329843 L8.28272251,14.7329843 C8.35602094,14.7329843 8.41884817,14.7643979 8.46073298,14.8062827 L9.17277487,15.5183246 L15.2984293,15.5183246 L15.5602094,15.2565445 L15.9162304,14.9005236 L15.9162304,9.0052356 L15.2984293,8.38743455 L9.18324607,8.38743455 L8.47120419,9.10994764 C8.47120419,9.10994764 8.46073298,9.12041885 8.46073298,9.12041885 C8.43979058,9.13089005 8.41884817,9.15183246 8.39790576,9.16230366 C8.36649215,9.18324607 8.32460733,9.18324607 8.29319372,9.18324607 L7.03664921,9.18324607 C6.95287958,9.18324607 6.87958115,9.14136126 6.82722513,9.07853403 C6.79581152,9.03664921 6.77486911,8.98429319 6.77486911,8.93193717 L6.77486911,8.57591623 C6.77486911,8.5026178 6.80628272,8.43979058 6.84816754,8.39790576 L7.63350785,7.61256545 L8.41884817,6.82722513 C8.42931937,6.81675393 8.45026178,6.80628272 8.46073298,6.79581152 C8.46073298,6.79581152 8.47120419,6.78534031 8.48167539,6.78534031 C8.4921466,6.77486911 8.5026178,6.77486911 8.51308901,6.77486911 C8.52356021,6.77486911 8.52356021,6.77486911 8.53403141,6.76439791 C8.54450262,6.76439791 8.55497382,6.7539267 8.56544503,6.7539267 C8.56544503,6.7539267 8.57591623,6.7539267 8.57591623,6.7539267 C8.58638743,6.7539267 8.58638743,6.7539267 8.59685864,6.7539267 C8.60732984,6.7539267 8.61780105,6.7539267 8.62827225,6.7539267 L15.8638743,6.7539267 C15.9371728,6.7539267 16,6.78534031 16.0418848,6.82722513 L16.8272251,7.61256545 L17.6125654,8.39790576 C17.6230366,8.40837696 17.6335079,8.41884817 17.6439791,8.43979058 C17.6649215,8.47120419 17.6753927,8.5026178 17.6858639,8.53403141 C17.6858639,8.55497382 17.6858639,8.56544503 17.6858639,8.58638743 C17.6963351,8.56544503 17.6963351,15.3507853 17.6963351,15.3507853 Z" id="Shape"/></g></g></svg>