<svg width="32" height="32" viewBox="0 0 32 32" xmlns="http://www.w3.org/2000/svg" xmlns:xlink="http://www.w3.org/1999/xlink"><defs><filter x="-5.8%" y="-4.2%" width="111.7%" height="111.7%" filterUnits="objectBoundingBox" id="a"><feOffset dy=".5" in="SourceAlpha" result="shadowOffsetOuter1"/><feGaussianBlur stdDeviation=".5" in="shadowOffsetOuter1" result="shadowBlurOuter1"/><feComposite in="shadowBlurOuter1" in2="SourceAlpha" operator="out" result="shadowBlurOuter1"/><feColorMatrix values="0 0 0 0 0 0 0 0 0 0 0 0 0 0 0 0 0 0 0.199473505 0" in="shadowBlurOuter1"/></filter><filter x="-10.9%" y="-6.2%" width="121.9%" height="117.5%" filterUnits="objectBoundingBox" id="d"><feOffset dy=".5" in="SourceAlpha" result="shadowOffsetOuter1"/><feGaussianBlur stdDeviation=".5" in="shadowOffsetOuter1" result="shadowBlurOuter1"/><feColorMatrix values="0 0 0 0 0 0 0 0 0 0 0 0 0 0 0 0 0 0 0.204257246 0" in="shadowBlurOuter1"/></filter><linearGradient x1="50%" y1="0%" x2="50%" y2="100%" id="c"><stop stop-color="#FFF" stop-opacity=".5" offset="0%"/><stop stop-opacity=".5" offset="100%"/></linearGradient><circle id="b" cx="16" cy="15" r="15"/><path d="M8.57 20.587a1.67 1.67 0 01-.82-1.429v-3.253c0-.387.322-.7.716-.698.126 0 .25.033.36.095l7.503 4.281c.439.25.71.71.71 1.207v3.37a.845.845 0 01-.855.84.883.883 0 01-.45-.123l-7.164-4.29zm11.184-6.176c.44.25.708.711.71 1.207v6.84c0 .202-.11.389-.291.487l-1.642.904a.29.29 0 01-.067.027v-3.798c0-.492-.263-.948-.696-1.2L11.18 15.02v-4.287c0-.387.322-.7.717-.698a.73.73 0 01.359.095l7.5 4.281zm3.285-5.052c.44.25.711.71.711 1.209v9.99a.564.564 0 01-.301.492l-1.557.823v-6.956c0-.491-.264-.946-.693-1.199l-6.736-3.953V5.7c0-.124.035-.245.096-.352a.725.725 0 01.977-.253l7.503 4.265z" id="e"/></defs><g fill="none" fill-rule="evenodd"><use fill="#000" filter="url(#a)" xlink:href="#b"/><use fill="#00D395" xlink:href="#b"/><use fill="url(#c)" style="mix-blend-mode:soft-light" xlink:href="#b"/><circle stroke-opacity=".097" stroke="#000" stroke-linejoin="square" cx="16" cy="15" r="14.5"/><g fill-rule="nonzero"><use fill="#000" filter="url(#d)" xlink:href="#e"/><use fill="#FFF" xlink:href="#e"/></g></g></svg>