<svg xmlns="http://www.w3.org/2000/svg" xmlns:xlink="http://www.w3.org/1999/xlink" width="32" height="32" viewBox="0 0 32 32"><defs><linearGradient id="ctr-c" x1="50%" x2="50%" y1="0%" y2="100%"><stop offset="0%" stop-color="#FFF" stop-opacity=".5"/><stop offset="100%" stop-opacity=".5"/></linearGradient><circle id="ctr-b" cx="16" cy="15" r="15"/><filter id="ctr-a" width="111.7%" height="111.7%" x="-5.8%" y="-4.2%" filterUnits="objectBoundingBox"><feOffset dy=".5" in="SourceAlpha" result="shadowOffsetOuter1"/><feGaussianBlur in="shadowOffsetOuter1" result="shadowBlurOuter1" stdDeviation=".5"/><feComposite in="shadowBlurOuter1" in2="SourceAlpha" operator="out" result="shadowBlurOuter1"/><feColorMatrix in="shadowBlurOuter1" values="0 0 0 0 0 0 0 0 0 0 0 0 0 0 0 0 0 0 0.199473505 0"/></filter><path id="ctr-e" d="M16,26 C9.92486775,26 5,21.0751322 5,15 C5,8.92486775 9.92486775,4 16,4 C22.0751322,4 27,8.92486775 27,15 C27,21.0751322 22.0751322,26 16,26 Z M16,24.4540541 C21.2213299,24.4540541 25.4540541,20.2213299 25.4540541,15 C25.4540541,9.77867012 21.2213299,5.54594595 16,5.54594595 C10.7786701,5.54594595 6.54594595,9.77867012 6.54594595,15 C6.54594595,20.2213299 10.7786701,24.4540541 16,24.4540541 Z M16.0722198,21.5405405 C12.4745237,21.5405405 9.57837838,18.7913573 9.57837838,15.035937 L9.57837838,15 C9.57837838,11.3344223 12.4025698,8.45945946 16.2161276,8.45945946 C18.7884803,8.45945946 20.4434205,9.53757054 21.5587062,11.0828631 L18.9323881,13.1133056 C18.2128489,12.2148797 17.3853788,11.6398871 16.1801506,11.6398871 C14.4172796,11.6398871 13.1760744,13.1312741 13.1760744,14.964063 L13.1760744,15 C13.1760744,16.8866944 14.4172796,18.3601129 16.1801506,18.3601129 C17.4933097,18.3601129 18.2668144,17.7491832 19.0223305,16.8327888 L21.6486486,18.7015147 C20.4614089,20.3366498 18.8604342,21.5405405 16.0722198,21.5405405 Z"/><filter id="ctr-d" width="115.9%" height="115.9%" x="-8%" y="-5.7%" filterUnits="objectBoundingBox"><feOffset dy=".5" in="SourceAlpha" result="shadowOffsetOuter1"/><feGaussianBlur in="shadowOffsetOuter1" result="shadowBlurOuter1" stdDeviation=".5"/><feColorMatrix in="shadowBlurOuter1" values="0 0 0 0 0 0 0 0 0 0 0 0 0 0 0 0 0 0 0.204257246 0"/></filter></defs><g fill="none" fill-rule="evenodd"><g fill-rule="nonzero"><use fill="#000" filter="url(#ctr-a)" xlink:href="#ctr-b"/><use fill="#FDDE6C" fill-rule="evenodd" xlink:href="#ctr-b"/><use fill="url(#ctr-c)" fill-rule="evenodd" style="mix-blend-mode:soft-light" xlink:href="#ctr-b"/><circle cx="16" cy="15" r="14.5" stroke="#000" stroke-opacity=".097"/></g><use fill="#000" filter="url(#ctr-d)" xlink:href="#ctr-e"/><use fill="#FFF" xlink:href="#ctr-e"/></g></svg>