<svg height="32" viewBox="0 0 32 32" width="32" xmlns="http://www.w3.org/2000/svg" xmlns:xlink="http://www.w3.org/1999/xlink"><defs><linearGradient id="a" x1="50%" x2="50%" y1="0%" y2="100%"><stop offset="0" stop-color="#fff" stop-opacity=".5"/><stop offset="1" stop-opacity=".5"/></linearGradient><circle id="b" cx="16" cy="15" r="15"/><filter id="c" height="111.7%" width="111.7%" x="-5.8%" y="-4.2%"><feOffset dy=".5" in="SourceAlpha" result="shadowOffsetOuter1"/><feGaussianBlur in="shadowOffsetOuter1" result="shadowBlurOuter1" stdDeviation=".5"/><feComposite in="shadowBlurOuter1" in2="SourceAlpha" operator="out" result="shadowBlurOuter1"/><feColorMatrix in="shadowBlurOuter1" values="0 0 0 0 0   0 0 0 0 0   0 0 0 0 0  0 0 0 0.199473505 0"/></filter><path id="d" d="m17.1611168 15.7785c.8152542-.3946162 1.3314329-1.2118536 1.3305583-2.1066 0-1.2941-1.0622335-2.3429-2.3714721-2.3429-1.3092385 0-2.3719796 1.0487-2.3719796 2.3428-.0010475.8950731.5156714 1.712542 1.3315736 2.1066v2.8936h2.0812182v-2.8935m-1.0407106 6.7215c-4.1854823 0-7.59015232-3.3642-7.59015232-7.5s3.40517762-7.4994 7.59015232-7.4994c3.4154314 0 6.3104568 2.24 7.2603045 5.3116h2.6159391c-1.0093401-4.4705-5.0479188-7.8122-9.8762436-7.8122-5.5892386 0-10.1203046 4.4771-10.1203046 10s4.531066 10 10.1203046 10c4.8283248 0 8.8669035-3.3417 9.8763451-7.8123h-2.615939c-.9505584 3.0723-3.8449747 5.3123-7.2604061 5.3123"/><filter id="e" height="117.5%" width="117.5%" x="-8.8%" y="-6.2%"><feOffset dy=".5" in="SourceAlpha" result="shadowOffsetOuter1"/><feGaussianBlur in="shadowOffsetOuter1" result="shadowBlurOuter1" stdDeviation=".5"/><feColorMatrix in="shadowBlurOuter1" values="0 0 0 0 0   0 0 0 0 0   0 0 0 0 0  0 0 0 0.204257246 0"/></filter></defs><g fill="none" fill-rule="nonzero"><g><use fill="#000" filter="url(#c)" xlink:href="#b"/><use fill="#3ab03e" fill-rule="evenodd" xlink:href="#b"/><use fill="url(#a)" fill-rule="evenodd" xlink:href="#b"/><circle cx="16" cy="15" r="14.5" stroke="#000" stroke-opacity=".097"/></g><g><use fill="#000" filter="url(#e)" xlink:href="#d"/><use fill="#fff" fill-rule="evenodd" xlink:href="#d"/></g></g></svg>