<svg height="32" viewBox="0 0 32 32" width="32" xmlns="http://www.w3.org/2000/svg" xmlns:xlink="http://www.w3.org/1999/xlink"><defs><linearGradient id="a" x1="50%" x2="50%" y1="0%" y2="100%"><stop offset="0" stop-color="#fff" stop-opacity=".5"/><stop offset="1" stop-opacity=".5"/></linearGradient><circle id="b" cx="16" cy="15" r="15"/><filter id="c" height="111.7%" width="111.7%" x="-5.8%" y="-4.2%"><feOffset dy=".5" in="SourceAlpha" result="shadowOffsetOuter1"/><feGaussianBlur in="shadowOffsetOuter1" result="shadowBlurOuter1" stdDeviation=".5"/><feComposite in="shadowBlurOuter1" in2="SourceAlpha" operator="out" result="shadowBlurOuter1"/><feColorMatrix in="shadowBlurOuter1" values="0 0 0 0 0   0 0 0 0 0   0 0 0 0 0  0 0 0 0.199473505 0"/></filter><path id="d" d="m20.0538667 4.6064c.3925333 0 .7082666.11946667.9472.3584.2389333.23893333.3584.55466667.3584.9472v11.6736c0 1.3312-.3157334 2.5429333-.9472 3.6352-.6144 1.0752-1.4592 1.9285333-2.5344 2.56-1.0581334.6144-2.2442667.9216-3.5584.9216-1.3141334 0-2.5173334-.3072-3.6096-.9216-1.07520003-.6314667-1.92000003-1.4848-2.53440003-2.56-.6144-1.0922667-.9216-2.304-.9216-3.6352s.2816-2.5344.8448-3.6096c.58026666-1.0922667 1.36533333-1.9456 2.35520003-2.56 1.0069333-.6144 2.1248-.9216 3.3536-.9216.9898666 0 1.9114666.2048 2.7648.6144.8533333.4096 1.5786666.9813333 2.176 1.7152v-6.912c0-.39253333.1194666-.70826667.3584-.9472.256-.23893333.5717333-.3584.9472-.3584zm-5.7344 17.792c.8533333 0 1.6213333-.2048 2.304-.6144.6997333-.4266667 1.2458666-1.0069333 1.6384-1.7408.3925333-.7338667.5888-1.5530667.5888-2.4576s-.1962667-1.7152-.5888-2.432c-.3925334-.7338667-.9386667-1.3056-1.6384-1.7152-.6826667-.4266667-1.4506667-.64-2.304-.64-.8533334 0-1.6298667.2133333-2.3296.64-.6826667.4096-1.2288.9813333-1.6384 1.7152-.39253337.7168-.58880003 1.5274667-.58880003 2.432s.19626666 1.7237333.58880003 2.4576c.4096.7338667.9557333 1.3141333 1.6384 1.7408.6997333.4096 1.4762666.6144 2.3296.6144z"/><filter id="e" height="117.4%" width="124.8%" x="-12.4%" y="-6.2%"><feOffset dy=".5" in="SourceAlpha" result="shadowOffsetOuter1"/><feGaussianBlur in="shadowOffsetOuter1" result="shadowBlurOuter1" stdDeviation=".5"/><feColorMatrix in="shadowBlurOuter1" values="0 0 0 0 0   0 0 0 0 0   0 0 0 0 0  0 0 0 0.204257246 0"/></filter></defs><g fill="none" fill-rule="evenodd"><use fill="#000" filter="url(#c)" xlink:href="#b"/><use fill="#2d9cdb" xlink:href="#b"/><use fill="url(#a)" xlink:href="#b"/><circle cx="16" cy="15" r="14.5" stroke="#000" stroke-opacity=".097"/><g fill-rule="nonzero"><use fill="#000" filter="url(#e)" xlink:href="#d"/><use fill="#fff" fill-rule="evenodd" xlink:href="#d"/></g></g></svg>