<svg height="32" viewBox="0 0 32 32" width="32" xmlns="http://www.w3.org/2000/svg" xmlns:xlink="http://www.w3.org/1999/xlink"><defs><linearGradient id="a" x1="50%" x2="50%" y1="0%" y2="100%"><stop offset="0" stop-color="#fff" stop-opacity=".5"/><stop offset="1" stop-opacity=".5"/></linearGradient><circle id="b" cx="16" cy="15" r="15"/><filter id="c" height="111.7%" width="111.7%" x="-5.8%" y="-4.2%"><feOffset dy=".5" in="SourceAlpha" result="shadowOffsetOuter1"/><feGaussianBlur in="shadowOffsetOuter1" result="shadowBlurOuter1" stdDeviation=".5"/><feComposite in="shadowBlurOuter1" in2="SourceAlpha" operator="out" result="shadowBlurOuter1"/><feColorMatrix in="shadowBlurOuter1" values="0 0 0 0 0   0 0 0 0 0   0 0 0 0 0  0 0 0 0.199473505 0"/></filter><path id="d" d="m24.1396455 8.91370737 1.6070564-1.59330335c.3794355-.37641179.3017138-1.06406797-.1735887-1.53553223-.4753024-.47146427-1.1693548-.54842579-1.5487903-.172014l-3.0163306 2.9906047-.1029234.10204898-2.6278226 2.60539733c-1.7683468-1.2824588-4.2706653-1.1323339-5.8669355.4503748-1.5962701 1.5827086-1.7476814 4.0635682-.4542339 5.8170914l-2.00604835 1.9890055c-.48719758-.643878-.89445564-1.4014992-1.18891129-2.2928535-.67338709-2.0374813-.49233871-4.2699651.59919355-6.1091455 1.70362899-2.87006494 4.75141129-4.117941 7.63850809-3.75212391.6200605.07846077 1.1780242-.36781609 1.2157258-.98610694.0424395-.69365318-.4760081-1.30234883-1.173992-1.3738131-2.901008-.29745127-5.9.64897552-8.11502011 2.84517741-3.66935484 3.63818094-3.88457662 9.40929534-.6592742 13.33843074l-1.84082661 1.8252874c-.36290323.3598201-.27217742 1.0342829.20332661 1.5056472.47550404.4713643 1.15554436.562019 1.51844758.2021989l1.98094763-1.9642179.001008-.0007996 1.4314516-1.4192904c.0011089-.0010994.0020162-.0022988.003125-.0034982l2.3222783-2.3025487c1.6377016.6662668 3.5926411.3412293 4.9207661-.9756122 1.328125-1.3168416 1.655746-3.2549725.983871-4.8786607l2.6344758-2.6118941c1.9308467 2.9085458 1.547379 6.934033-1.1097783 9.5685158-1.6920363 1.6777611-3.9537298 2.4400799-6.1305443 2.2788606-.521875-.0390805-.9840726.3685157-1.0299395.8883558l-.0280242.3198401c-.0518145.594003.3931451 1.0962518.9915322 1.1294352 2.7876008.1563219 5.6625-.8455772 7.8313508-2.996002 3.5971775-3.5669165 4.0130041-9.0605697 1.1899194-12.88885553m-7.0011089 7.53543233c-.8433468.8361819-2.2160282.8361819-3.059375 0-.8433468-.836182-.8433468-2.1970015 0-3.0333834.8433468-.8363818 2.2161291-.8361819 3.059375 0 .843246.836182.8433468 2.1972014 0 3.0333834"/><filter id="e" height="117.5%" width="117.5%" x="-8.8%" y="-6.3%"><feOffset dy=".5" in="SourceAlpha" result="shadowOffsetOuter1"/><feGaussianBlur in="shadowOffsetOuter1" result="shadowBlurOuter1" stdDeviation=".5"/><feColorMatrix in="shadowBlurOuter1" values="0 0 0 0 0   0 0 0 0 0   0 0 0 0 0  0 0 0 0.204257246 0"/></filter></defs><g fill="none" fill-rule="nonzero"><g><use fill="#000" filter="url(#c)" xlink:href="#b"/><use fill="#e9570f" fill-rule="evenodd" xlink:href="#b"/><use fill="url(#a)" fill-rule="evenodd" xlink:href="#b"/><circle cx="16" cy="15" r="14.5" stroke="#000" stroke-opacity=".097"/></g><g><use fill="#000" filter="url(#e)" xlink:href="#d"/><use fill="#fff" fill-rule="evenodd" xlink:href="#d"/></g></g></svg>