<svg height="32" viewBox="0 0 32 32" width="32" xmlns="http://www.w3.org/2000/svg" xmlns:xlink="http://www.w3.org/1999/xlink"><defs><linearGradient id="a" x1="50%" x2="50%" y1="0%" y2="100%"><stop offset="0" stop-color="#fff" stop-opacity=".5"/><stop offset="1" stop-opacity=".5"/></linearGradient><circle id="b" cx="16" cy="15" r="15"/><filter id="c" height="111.7%" width="111.7%" x="-5.8%" y="-4.2%"><feOffset dy=".5" in="SourceAlpha" result="shadowOffsetOuter1"/><feGaussianBlur in="shadowOffsetOuter1" result="shadowBlurOuter1" stdDeviation=".5"/><feComposite in="shadowBlurOuter1" in2="SourceAlpha" operator="out" result="shadowBlurOuter1"/><feColorMatrix in="shadowBlurOuter1" values="0 0 0 0 0   0 0 0 0 0   0 0 0 0 0  0 0 0 0.199473505 0"/></filter><path id="d" d="m14.8560388 16.6191919h4.4198437c1.6449456 0 2.9784375-1.340975 2.9784375-2.9951515s-1.3334919-2.9951515-2.9784375-2.9951515h-1.40625l-3.0135937-2.6288889h4.4198437c2.6746811.00059197 4.9747463 1.9050849 5.4886174 4.5446682.513871 2.6395834-.9022374 5.2756792-3.3792424 6.2904833l3.4846875 3.0418182h-3.9909375zm2.1571875-3.36h-4.4198438c-1.6449456 0-2.97843749 1.340975-2.97843749 2.9951515s1.33349189 2.9951515 2.97843749 2.9951515h1.40625l3.0121875 2.6288889h-4.4184375c-2.67468112-.0005919-4.97474626-1.9050849-5.48861735-4.5446682-.51387108-2.6395833.90223738-5.2756792 3.37924235-6.2904833l-3.48187499-3.0432323h3.99093749z"/><filter id="e" height="125.2%" width="119.6%" x="-9.8%" y="-9%"><feOffset dy=".5" in="SourceAlpha" result="shadowOffsetOuter1"/><feGaussianBlur in="shadowOffsetOuter1" result="shadowBlurOuter1" stdDeviation=".5"/><feColorMatrix in="shadowBlurOuter1" values="0 0 0 0 0   0 0 0 0 0   0 0 0 0 0  0 0 0 0.204257246 0"/></filter></defs><g fill="none" fill-rule="evenodd"><use fill="#000" filter="url(#c)" xlink:href="#b"/><use fill="#2ed6a1" xlink:href="#b"/><use fill="url(#a)" xlink:href="#b"/><circle cx="16" cy="15" r="14.5" stroke="#000" stroke-opacity=".097"/><g fill-rule="nonzero"><use fill="#000" filter="url(#e)" xlink:href="#d"/><use fill="#fff" fill-rule="evenodd" xlink:href="#d"/></g></g></svg>