<svg xmlns="http://www.w3.org/2000/svg" xmlns:xlink="http://www.w3.org/1999/xlink" width="32" height="32" viewBox="0 0 32 32"><defs><linearGradient id="c" x1="50%" x2="50%" y1="0%" y2="100%"><stop offset="0%" stop-color="#FFF" stop-opacity=".5"/><stop offset="100%" stop-opacity=".5"/></linearGradient><circle id="b" cx="16" cy="15" r="15"/><filter id="a" width="111.7%" height="111.7%" x="-5.8%" y="-4.2%" filterUnits="objectBoundingBox"><feOffset dy=".5" in="SourceAlpha" result="shadowOffsetOuter1"/><feGaussianBlur in="shadowOffsetOuter1" result="shadowBlurOuter1" stdDeviation=".5"/><feComposite in="shadowBlurOuter1" in2="SourceAlpha" operator="out" result="shadowBlurOuter1"/><feColorMatrix in="shadowBlurOuter1" values="0 0 0 0 0 0 0 0 0 0 0 0 0 0 0 0 0 0 0.199473505 0"/></filter><path id="e" d="M13.707 18.86c.365-.237 2.818-1.74 5.208-3.204 1.723-1.054 1.723-1.054 1.693-1.157-.03-.125-10.7-6.609-10.809-6.674a21.481 21.481 0 0 1-.602-.369c.196-.136.577-.396 1.033-.706L11.34 6l.762.456c.94.562 11.26 6.892 12.706 7.793-.59.355-2.68 1.592-5.49 3.247l-5.583 3.29a36.218 36.218 0 0 1-.02-.874 46.32 46.32 0 0 1-.007-1.051zm-2.368-6.296c.185.11.505.303.899.548l1.029.638.022 1.93c.065 5.577.065 5.577.146 5.634l.054.037.06-.022c.03-.009.041-.013 10.871-6.402l.58-.342-.191 2.683-.07.04a5095.12 5095.12 0 0 1-13.389 7.664c-.004-.699-.01-3.085-.011-6.196v-6.212zM9 23.8l.025-15.967.388.229c.312.182 2.416 1.465 4.793 2.919a1210.99 1210.99 0 0 0 5.114 3.118l.715.43-2.364 1.446-.472-.275a279.81 279.81 0 0 1-2.83-1.732 260.976 260.976 0 0 0-2.76-1.688l-.652-.38-.005 6.769c-.002 3.054-.005 5.592-.007 6.332-.193-.117-.522-.32-.908-.56L9 23.8z"/><filter id="d" width="121.9%" height="118.4%" x="-10.9%" y="-6.6%" filterUnits="objectBoundingBox"><feOffset dy=".5" in="SourceAlpha" result="shadowOffsetOuter1"/><feGaussianBlur in="shadowOffsetOuter1" result="shadowBlurOuter1" stdDeviation=".5"/><feColorMatrix in="shadowBlurOuter1" values="0 0 0 0 0 0 0 0 0 0 0 0 0 0 0 0 0 0 0.204257246 0"/></filter></defs><g fill="none" fill-rule="evenodd"><g fill-rule="nonzero"><use fill="#000" filter="url(#a)" xlink:href="#b"/><use fill="#939393" fill-rule="evenodd" xlink:href="#b"/><use fill="url(#c)" fill-rule="evenodd" style="mix-blend-mode:soft-light" xlink:href="#b"/><circle cx="16" cy="15" r="14.5" stroke="#000" stroke-linejoin="square" stroke-opacity=".097"/></g><use fill="#000" filter="url(#d)" xlink:href="#e"/><use fill="#FFF" xlink:href="#e"/></g></svg>