<svg xmlns="http://www.w3.org/2000/svg" xmlns:xlink="http://www.w3.org/1999/xlink" width="32" height="32" viewBox="0 0 32 32"><defs><linearGradient id="c" x1="50%" x2="50%" y1="0%" y2="100%"><stop offset="0%" stop-color="#FFF" stop-opacity=".5"/><stop offset="100%" stop-opacity=".5"/></linearGradient><circle id="b" cx="16" cy="15" r="15"/><filter id="a" width="111.7%" height="111.7%" x="-5.8%" y="-4.2%" filterUnits="objectBoundingBox"><feOffset dy=".5" in="SourceAlpha" result="shadowOffsetOuter1"/><feGaussianBlur in="shadowOffsetOuter1" result="shadowBlurOuter1" stdDeviation=".5"/><feComposite in="shadowBlurOuter1" in2="SourceAlpha" operator="out" result="shadowBlurOuter1"/><feColorMatrix in="shadowBlurOuter1" values="0 0 0 0 0 0 0 0 0 0 0 0 0 0 0 0 0 0 0.199473505 0"/></filter><path id="e" d="M25.082 20.15a1.533 1.533 0 0 1-2.072.545l-4.779-2.71v-1.72l1.518-.86 4.778 2.709c.726.411.974 1.323.555 2.035zm-7.565 3.659c0 .823-.679 1.49-1.517 1.49-.838 0-1.517-.667-1.517-1.49V18.39L16 17.53l1.517.86v5.418zM8.99 20.695a1.533 1.533 0 0 1-2.072-.546 1.476 1.476 0 0 1 .555-2.035l4.778-2.71 1.518.861v1.72l-4.779 2.71zm-1.517-8.809a1.476 1.476 0 0 1-.555-2.035 1.533 1.533 0 0 1 2.072-.546l4.779 2.71v1.72l-1.518.86-4.778-2.709zm7.01-5.695c0-.823.68-1.49 1.517-1.49.838 0 1.517.667 1.517 1.49v5.418L16 12.47l-1.517-.86V6.191zm3.748 8.354l.804.455-.804.455v-.91zm-1.517-1.67l.803-.456v.911l-.803-.455zm-2.231.455v-.91l.803.455-.803.455zm-.714 2.125L12.965 15l.804-.455v.91zm1.517 1.67l-.803.456v-.911l.803.455zm2.231-.455v.91l-.803-.455.803-.455zM16 16.72l-1.517-.86v-1.72L16 13.28l1.517.86v1.72L16 16.72zm7.01-7.415a1.533 1.533 0 0 1 2.072.546c.42.712.17 1.624-.555 2.035l-4.778 2.71-1.518-.861v-1.72l4.779-2.71zm1.874 8.202L20.463 15l4.421-2.507a2.17 2.17 0 0 0 .817-2.993c-.616-1.048-1.981-1.407-3.048-.802l-4.422 2.507V6.19C18.231 4.981 17.232 4 16 4c-1.232 0-2.231.981-2.231 2.191v5.014L9.347 8.698C8.28 8.093 6.915 8.452 6.3 9.5a2.17 2.17 0 0 0 .817 2.993L11.537 15l-4.42 2.507a2.17 2.17 0 0 0-.818 2.993c.616 1.048 1.981 1.407 3.048.802l4.422-2.507v5.014c0 1.21.999 2.191 2.231 2.191 1.232 0 2.231-.981 2.231-2.191v-5.014l4.422 2.507c1.067.605 2.432.246 3.048-.802a2.17 2.17 0 0 0-.817-2.993z"/><filter id="d" width="117.5%" height="115.9%" x="-8.8%" y="-5.7%" filterUnits="objectBoundingBox"><feOffset dy=".5" in="SourceAlpha" result="shadowOffsetOuter1"/><feGaussianBlur in="shadowOffsetOuter1" result="shadowBlurOuter1" stdDeviation=".5"/><feColorMatrix in="shadowBlurOuter1" values="0 0 0 0 0 0 0 0 0 0 0 0 0 0 0 0 0 0 0.204257246 0"/></filter></defs><g fill="none" fill-rule="evenodd"><use fill="#000" filter="url(#a)" xlink:href="#b"/><use fill="#666" xlink:href="#b"/><use fill="url(#c)" style="mix-blend-mode:soft-light" xlink:href="#b"/><circle cx="16" cy="15" r="14.5" stroke="#000" stroke-opacity=".097"/><use fill="#000" filter="url(#d)" xlink:href="#e"/><use fill="#FFF" xlink:href="#e"/></g></svg>