<svg height="32" viewBox="0 0 32 32" width="32" xmlns="http://www.w3.org/2000/svg" xmlns:xlink="http://www.w3.org/1999/xlink"><defs><linearGradient id="a" x1="50%" x2="50%" y1="0%" y2="100%"><stop offset="0" stop-color="#fff" stop-opacity=".5"/><stop offset="1" stop-opacity=".5"/></linearGradient><circle id="b" cx="16" cy="15" r="15"/><filter id="c" height="111.7%" width="111.7%" x="-5.8%" y="-4.2%"><feOffset dy=".5" in="SourceAlpha" result="shadowOffsetOuter1"/><feGaussianBlur in="shadowOffsetOuter1" result="shadowBlurOuter1" stdDeviation=".5"/><feComposite in="shadowBlurOuter1" in2="SourceAlpha" operator="out" result="shadowBlurOuter1"/><feColorMatrix in="shadowBlurOuter1" values="0 0 0 0 0   0 0 0 0 0   0 0 0 0 0  0 0 0 0.199473505 0"/></filter><path id="d" d="m12.1610502 21.8163043c.6180889.0002086 1.1190356.4889844 1.1190355 1.0918478.0000001.6028634-.5009466 1.0916393-1.1190355 1.0918479h-1.453313c-.3203789 0-.6276303-.1241608-.85413608-.3451579-.2265058-.2209971-.35370381-.5207197-.35360106-.8332066v-15.67273946c-.00010279-.30473689.12396526-.59702133.34488885-.81250286.22092359-.21548152.52058979-.33649338.83302289-.33639312h1.5567337c.6182402 0 1.1194229.48883694 1.1194229 1.09184787 0 .28954133-.1179512.56721828-.3278949.77191949-.2099436.20470121-.4946742.3196508-.791528.31955058h-.3447357v13.6329863zm12.1703343-11.4526908c.7785605 1.3385526 1.1686155 2.8354043 1.1686155 4.4916884s-.3950904 3.1531357-1.1821725 4.4920661-1.6617038 2.3642851-3.0987484 3.2936781c-1.3192921.8534548-2.6982351 1.3581983-4.4068075 1.3581983h-.567071c-.6182402 0-1.1194228-.4888369-1.1194228-1.0918479 0-.6030109.5011826-1.0918478 1.1194228-1.0918478h.6894715c1.210836 0 2.0893311-.5005877 3.0758951-1.0691798.9865641-.568592 1.6187087-1.4991184 2.1912025-2.5029384.5722355-1.0031904.8583533-2.1240031.8583533-3.3624381-.0002582-1.2548065-.2905077-2.3841827-.8707483-3.3881286-.560611-.9834118-1.3811941-1.80230653-2.3763527-2.37146336-1.0039944-.5772815-2.1195439-.86592226-3.3466482-.86592226h-.2970925c-.6182402 0-1.1194229-.48883694-1.1194229-1.09184786 0-.28954133.1179512-.56721829.3278949-.77191949.2099436-.20470121.4946742-.3196508.791528-.31955058h.3486092c1.6919166 0 3.2221818.38057258 4.5907957 1.14171774 1.3493698.74265747 2.4640407 1.83209186 3.2226983 3.14973551z"/><filter id="e" height="119.4%" width="121.9%" x="-10.9%" y="-6.9%"><feOffset dy=".5" in="SourceAlpha" result="shadowOffsetOuter1"/><feGaussianBlur in="shadowOffsetOuter1" result="shadowBlurOuter1" stdDeviation=".5"/><feColorMatrix in="shadowBlurOuter1" values="0 0 0 0 0   0 0 0 0 0   0 0 0 0 0  0 0 0 0.204257246 0"/></filter></defs><g fill="none" fill-rule="evenodd"><use fill="#000" filter="url(#c)" xlink:href="#b"/><use fill="#fec907" xlink:href="#b"/><use fill="url(#a)" xlink:href="#b"/><circle cx="16" cy="15" r="14.5" stroke="#000" stroke-opacity=".097"/><g fill-rule="nonzero"><use fill="#000" filter="url(#e)" xlink:href="#d"/><use fill="#fff" fill-rule="evenodd" xlink:href="#d"/></g></g></svg>