<svg height="32" viewBox="0 0 32 32" width="32" xmlns="http://www.w3.org/2000/svg" xmlns:xlink="http://www.w3.org/1999/xlink"><defs><linearGradient id="a" x1="50%" x2="50%" y1="0%" y2="100%"><stop offset="0" stop-color="#fff" stop-opacity=".5"/><stop offset="1" stop-opacity=".5"/></linearGradient><circle id="b" cx="16" cy="15" r="15"/><filter id="c" height="111.7%" width="111.7%" x="-5.8%" y="-4.2%"><feOffset dy=".5" in="SourceAlpha" result="shadowOffsetOuter1"/><feGaussianBlur in="shadowOffsetOuter1" result="shadowBlurOuter1" stdDeviation=".5"/><feComposite in="shadowBlurOuter1" in2="SourceAlpha" operator="out" result="shadowBlurOuter1"/><feColorMatrix in="shadowBlurOuter1" values="0 0 0 0 0   0 0 0 0 0   0 0 0 0 0  0 0 0 0.199473505 0"/></filter><path id="d" d="m12.3680548 23.9999014c.1631625-.437012.3150339-.8437143.4787728-1.282285-.2999111.0297207-.5715096.056601-.8496522.0841394-.1035532.2736866-.2047669.5416578-.3064553.8094211-.0234978.0619008-.0432658.126261-.0742911.1841436-.0670011.1250139-.1699779.2028489-.3134403.2031953-.62922.0014548-1.25844.0002771-1.887694-.0006928-.01529225-.0000347-.0305845-.008556-.06350861-.0183589.13261193-.3576529.26417274-.712396.40234548-1.0849784-.7331802-.0196406-1.44642285-.0321455-2.15569832-.1133058.01166415-.1331542 4.06166845-10.3448437 4.22235575-10.6525463.0403159-.0027712.0876507-.0088331.1349516-.0088331 1.090361-.0005542 2.180688-.0004503 3.271049-.0003464.0325173 0 .0651701-.0005542.0975856.0018359.3305974.0243862.5141383.3043426.3988191.6226796-.152346.4205582-.3139149.8376524-.4713471 1.2563053-.6861167 1.8245317-1.3721995 3.649098-2.0579771 5.4737682-.0211243.0561506-.0388579.1136175-.0645597.1893395.0576765.0031522.1030785.0095258.1481076.0075514 3.0958155-.1350594 5.3679859-1.6127111 6.8360416-4.3898983.3209677-.6071957.545367-1.2544001.6700107-1.9347199.0724602-.3953405.0955172-.7914086-.0031534-1.1866452-.1077917-.4316428-.3449741-.7733615-.6986963-1.0291742-.4671765-.3378736-.99403-.4818008-1.5617759-.4848837-.0651023-.000381-.1302045-.0003464-.1953068-.0003464-3.5313903 0-7.0627806 0-10.59417087 0h-.23036703c.0237352-.0597185.03489074-.1000042.05448923-.1354058.46185301-.83408445.92465542-1.66761469 1.38715267-2.50131814.15563508-.28047601.38952848-.41809874.7066307-.41785626 1.887728.00138558 3.7754898.00065815 5.6632517.00065815h.2019865c.2014779-.53289404.4001076-1.05823667.6014499-1.59071504h.1711647c.5370257 0 1.0740854-.00006928 1.6110773.00013856.0434015 0 .0874811-.00322147.1299671.00353323.1266103.02002163.1997147.11909059.1808283.2495083-.0077987.0539337-.0284144.10662038-.0476738.15809467-.1236265.33108433-.2488466.66157978-.3726426.99259482-.0207175.05538856-.0372643.11237054-.0595415.18022931h.805064c.0191577-.04374968.0405533-.08729153.0576087-.13256536.165909-.43905564.3306991-.87856159.496642-1.31761723.0500135-.1322536.0511663-.13346599.1848633-.13360454.5641517-.00065815 1.1283034-.00145486 1.6924551.00031175.2386065.00079671.3228665.12674593.2382675.35723715-.1350872.36811394-.2745145.73453056-.4118057 1.10177852-.0190899.05109326-.0362809.10294859-.0608299.17295501.055676.0099069.1005355.02012555.1459375.02570251.7843466.096471 1.5482808.27392915 2.2738657.60116849.551233.24857304 1.0520117.57390721 1.4640548 1.02900094.5573702.61554388.8345634 1.35087116.8785074 2.18173416.0425199.8037403-.1052148 1.5802539-.3721679 2.3298873-.6318309 1.7741658-1.5296995 3.3870848-2.8300152 4.7461655-.8953256.935786-1.9293324 1.6798078-3.0635357 2.2817037-1.2241258.6496292-2.5176601 1.1054157-3.8576475 1.4278055-.119761.0288201-.1829306.0816453-.2248741.1994889-.1462766.4110323-.3028611.8182542-.4568686 1.2263768-.0945678.2506514-.1900172.3172631-.4513756.317471-.5641856.0004849-1.1283373.0001732-1.692489.0001732z"/><filter id="e" height="119.4%" width="119.4%" x="-9.7%" y="-6.9%"><feOffset dy=".5" in="SourceAlpha" result="shadowOffsetOuter1"/><feGaussianBlur in="shadowOffsetOuter1" result="shadowBlurOuter1" stdDeviation=".5"/><feColorMatrix in="shadowBlurOuter1" values="0 0 0 0 0   0 0 0 0 0   0 0 0 0 0  0 0 0 0.204257246 0"/></filter></defs><g fill="none" fill-rule="evenodd"><use fill="#000" filter="url(#c)" xlink:href="#b"/><use fill="#006ad2" xlink:href="#b"/><use fill="url(#a)" xlink:href="#b"/><circle cx="16" cy="15" r="14.5" stroke="#000" stroke-opacity=".097"/><use fill="#000" filter="url(#e)" xlink:href="#d"/><use fill="#fff" xlink:href="#d"/></g></svg>