<svg width="32" height="32" viewBox="0 0 32 32" fill="none" xmlns="http://www.w3.org/2000/svg">
<g clip-path="url(#clip0)">
<g filter="url(#filter0_d)">
<path d="M16 31C24.2843 31 31 24.2843 31 16C31 7.71573 24.2843 1 16 1C7.71573 1 1 7.71573 1 16C1 24.2843 7.71573 31 16 31Z" fill="black"/>
</g>
<path d="M16 31C24.2843 31 31 24.2843 31 16C31 7.71573 24.2843 1 16 1C7.71573 1 1 7.71573 1 16C1 24.2843 7.71573 31 16 31Z" fill="#131E32"/>
<path fill-rule="evenodd" clip-rule="evenodd" d="M5.6875 16L16 5.6875L26.3125 16L22.5915 19.721L16 13.1295L9.40851 19.721L5.6875 16ZM16 15.0432L10.3653 20.6778L16 26.3125L21.6347 20.6778L16 15.0432Z" fill="white"/>
<g style="mix-blend-mode:soft-light">
<path d="M16 31C24.2843 31 31 24.2843 31 16C31 7.71573 24.2843 1 16 1C7.71573 1 1 7.71573 1 16C1 24.2843 7.71573 31 16 31Z" fill="url(#paint0_linear)"/>
<path d="M30.5 16C30.5 24.0081 24.0081 30.5 16 30.5C7.99187 30.5 1.5 24.0081 1.5 16C1.5 7.99187 7.99187 1.5 16 1.5C24.0081 1.5 30.5 7.99187 30.5 16Z" stroke="black" stroke-opacity="0.2"/>
</g>
</g>
<defs>
<filter id="filter0_d" x="0" y="0.5" width="32" height="32" filterUnits="userSpaceOnUse" color-interpolation-filters="sRGB">
<feFlood flood-opacity="0" result="BackgroundImageFix"/>
<feColorMatrix in="SourceAlpha" type="matrix" values="0 0 0 0 0 0 0 0 0 0 0 0 0 0 0 0 0 0 127 0"/>
<feOffset dy="0.5"/>
<feGaussianBlur stdDeviation="0.5"/>
<feColorMatrix type="matrix" values="0 0 0 0 0 0 0 0 0 0 0 0 0 0 0 0 0 0 0.199474 0"/>
<feBlend mode="normal" in2="BackgroundImageFix" result="effect1_dropShadow"/>
<feBlend mode="normal" in="SourceGraphic" in2="effect1_dropShadow" result="shape"/>
</filter>
<linearGradient id="paint0_linear" x1="16" y1="1" x2="16" y2="31" gradientUnits="userSpaceOnUse">
<stop stop-color="#C4C4C4"/>
<stop offset="1" stop-color="#C4C4C4" stop-opacity="0"/>
</linearGradient>
<clipPath id="clip0">
<rect width="32" height="32" fill="white"/>
</clipPath>
</defs>
</svg>
