<svg height="32" viewBox="0 0 32 32" width="32" xmlns="http://www.w3.org/2000/svg" xmlns:xlink="http://www.w3.org/1999/xlink"><defs><linearGradient id="a" x1="50%" x2="50%" y1="0%" y2="100%"><stop offset="0" stop-color="#fff" stop-opacity=".5"/><stop offset="1" stop-opacity=".5"/></linearGradient><circle id="b" cx="16" cy="15" r="15"/><filter id="c" height="111.7%" width="111.7%" x="-5.8%" y="-4.2%"><feOffset dy=".5" in="SourceAlpha" result="shadowOffsetOuter1"/><feGaussianBlur in="shadowOffsetOuter1" result="shadowBlurOuter1" stdDeviation=".5"/><feComposite in="shadowBlurOuter1" in2="SourceAlpha" operator="out" result="shadowBlurOuter1"/><feColorMatrix in="shadowBlurOuter1" values="0 0 0 0 0   0 0 0 0 0   0 0 0 0 0  0 0 0 0.199473505 0"/></filter><path id="d" d="m13.2477876 13.6106443h4.3141593v2.2857142h-4.3141593v4.8179272h2.7212389c1.0767016 0 1.9579612-.1456568 2.6438054-.4369748.6858441-.291318 1.2241868-.6946753 1.6150442-1.210084s.6563415-1.1204447.7964602-1.8151261c.1401187-.6946813.210177-1.4453741.210177-2.2521008s-.0700583-1.5574195-.210177-2.2521008c-.1401187-.6946814-.4056028-1.2997174-.7964602-1.8151261s-.9292001-.918766-1.6150442-1.21008402c-.6858442-.29131799-1.5671038-.43697479-2.6438054-.43697479h-2.7212389zm-2.7654867 2.2857142h-1.4823009v-2.2857142h1.4823009v-6.6106443h6.5486726c1.2094455 0 2.2566327.20914824 3.1415929.62745098.8849601.41830275 1.6076668.9897256 2.1681416 1.71428571.5604747.72456011.9771372 1.57235741 1.25 2.54341741.2728627.9710599.409292 2.0093315.409292 3.1148459s-.1364293 2.143786-.409292 3.1148459c-.2728628.97106-.6895253 1.8188573-1.25 2.5434174-.5604748.7245601-1.2831815 1.295983-2.1681416 1.7142857-.8849602.4183028-1.9321474.627451-3.1415929.627451h-6.5486726z"/><filter id="e" height="121.9%" width="123.3%" x="-11.7%" y="-7.8%"><feOffset dy=".5" in="SourceAlpha" result="shadowOffsetOuter1"/><feGaussianBlur in="shadowOffsetOuter1" result="shadowBlurOuter1" stdDeviation=".5"/><feColorMatrix in="shadowBlurOuter1" values="0 0 0 0 0   0 0 0 0 0   0 0 0 0 0  0 0 0 0.204257246 0"/></filter></defs><g fill="none" fill-rule="evenodd"><use fill="#000" filter="url(#c)" xlink:href="#b"/><use fill="#c3a634" xlink:href="#b"/><use fill="url(#a)" xlink:href="#b"/><circle cx="16" cy="15" r="14.5" stroke="#000" stroke-opacity=".097"/><use fill="#000" filter="url(#e)" xlink:href="#d"/><use fill="#fff" xlink:href="#d"/></g></svg>