<svg width="32" height="32" viewBox="0 0 32 32" version="1.1" xmlns="http://www.w3.org/2000/svg" xmlns:xlink="http://www.w3.org/1999/xlink"><title>icon/drop</title><desc>Created with Sketch.</desc><defs><linearGradient x1="50%" y1="0%" x2="50%" y2="100%" id="linearGradient-1"><stop stop-color="#FFF" stop-opacity=".5" offset="0%"/><stop stop-color="#000" stop-opacity=".5" offset="100%"/></linearGradient><circle id="path-2" cx="15" cy="15" r="15"/><filter x="-5.8%" y="-4.2%" width="111.7%" height="111.7%" filterUnits="objectBoundingBox" id="filter-3"><feOffset dx="0" dy=".5" in="SourceAlpha" result="shadowOffsetOuter1"/><feGaussianBlur stdDeviation=".5" in="shadowOffsetOuter1" result="shadowBlurOuter1"/><feComposite in="shadowBlurOuter1" in2="SourceAlpha" operator="out" result="shadowBlurOuter1"/><feColorMatrix values="0 0 0 0 0 0 0 0 0 0 0 0 0 0 0 0 0 0 0.199473505 0" type="matrix" in="shadowBlurOuter1"/></filter></defs><g id="icon/drop" stroke="none" stroke-width="1" fill="none" fill-rule="evenodd"><g id="Group" transform="translate(1.000000, 0.000000)" fill-rule="nonzero"><g id="Oval"><use fill="#000" fill-opacity="1" filter="url(#filter-3)" xlink:href="#path-2"/><use fill="#242D3D" fill-rule="evenodd" xlink:href="#path-2"/><use fill="url(#linearGradient-1)" fill-rule="evenodd" style="mix-blend-mode:soft-light" xlink:href="#path-2"/><circle stroke-opacity=".097" stroke="#000" stroke-width="1" stroke-linejoin="square" cx="15" cy="15" r="14.5"/></g></g><g id="Dropil-(DROP)" transform="translate(9.000000, 4.000000)" fill="#FFF" fill-rule="nonzero"><g id="Group"><path d="M13.242486,12.6583333 C12.7599251,10.5350655 11.2614466,8.19337547 11.2614466,8.19337547 C12.9885066,12.9072331 12.3230805,16.4629448 11.8659176,18.4795412 C11.8659176,18.4795412 11.2614466,20.7348783 12.5618212,18.8554307 C14.1822097,16.5035815 13.242486,12.6583333 13.242486,12.6583333 Z" id="Shape"/><path d="M8.97563202,4.29733146 C9.8747191,7.49747191 10.2810861,10.2150515 10.4080758,12.4805478 C10.6315777,16.3410346 10.0423455,18.8808287 9.67661517,20.2218399 C9.55978464,20.6586845 10.0474251,20.9837781 10.331882,20.6536049 C10.3369616,20.6485253 10.3369616,20.6485253 10.3369616,20.6485253 C11.0481039,19.8357912 11.3833567,17.9309457 11.540824,16.2597612 C11.5560627,16.0768961 11.5713015,15.8940309 11.5865403,15.7111657 C11.7338483,13.6996489 11.6474953,11.6678137 11.1750936,9.72233146 C10.3064841,6.13106273 8.97563202,4.29733146 8.97563202,4.29733146 Z" id="Shape"/><path d="M7.36540262,9.93567416 C7.14698034,4.67830056 6.75077247,0.010159176 6.75077247,0.010159176 C6.75077247,0.010159176 6.34948502,4.44463951 6.13106273,9.58518258 C6.09550562,10.418235 6.06502809,11.2665262 6.03963015,12.119897 C6.00407303,13.3593165 5.98883427,14.6038155 5.98883427,15.8076779 C5.99391386,17.9461845 6.07518727,19.9526217 6.26821161,21.5526919 C6.34440543,22.1876404 7.16729869,22.1876404 7.24349251,21.5526919 C7.3755618,20.4605805 7.45175562,19.1195693 7.48223315,17.6464888 C7.51271067,16.1480103 7.5025515,14.5174625 7.46191479,12.8665964 C7.43651685,11.8913155 7.40603933,10.9058755 7.36540262,9.93567416 Z" id="Shape"/><path d="M1.22418071,16.2699204 C1.11750936,15.4013109 1.07179307,14.400632 1.1429073,13.2831227 C1.19370318,12.5008661 1.30545412,11.6627341 1.49847846,10.7687266 C1.67626404,9.95091292 1.92008427,9.09246255 2.25025749,8.18829588 C2.25025749,8.18829588 1.19370318,9.83916199 0.573993446,11.6220974 C0.452083333,11.9624298 0.350491573,12.3129213 0.274297753,12.6532537 C0.274297753,12.6532537 0.0761938202,13.5472612 0.0457162921,14.7409644 C0.0253979401,15.5689373 0.0914325843,16.5492978 0.355571161,17.4737828 C0.492720037,17.9563436 0.685744382,18.4236657 0.949882959,18.8503511 C0.949882959,18.8503511 2.25025749,20.7856742 1.64578652,18.4744616 C1.49339888,17.8801498 1.33085206,17.13853 1.22418071,16.2699204 Z" id="Shape"/><path d="M3.07823034,15.2336845 C3.03759363,14.2990403 3.04775281,13.2526451 3.12902622,12.0944991 C3.15442416,11.7338483 3.18490169,11.3579588 3.22553839,10.9769897 C3.26617509,10.590941 3.31697097,10.1998127 3.37284644,9.7883661 C3.6014279,8.14257959 3.97223783,6.31900749 4.5360721,4.29733146 C4.5360721,4.29733146 3.20014045,6.13106273 2.3315309,9.72233146 C2.28581461,9.91535581 2.2451779,10.1083801 2.2045412,10.2963249 C2.04707397,11.0785815 1.94548221,11.8709972 1.89468633,12.6735721 C1.83373127,13.6793305 1.84897004,14.6952481 1.92008427,15.7060861 C1.93532303,15.8889513 1.9505618,16.0768961 1.96580056,16.2597612 C2.12326779,17.9309457 2.45344101,19.8357912 3.16966292,20.6485253 C3.16966292,20.6485253 3.16966292,20.6485253 3.17474251,20.6536049 C3.45919944,20.9786985 3.95191948,20.6536049 3.83000936,20.2218399 C3.56587079,19.2313202 3.17474251,17.5855337 3.07823034,15.2336845 Z" id="Shape"/><path d="M5.2980103,15.4317884 C5.27261236,14.3853933 5.26245318,13.217088 5.28277154,11.9370318 C5.29293071,11.170014 5.31324906,10.3623596 5.34880618,9.51406835 C5.43515918,7.32476592 5.84660581,4.16018258 6.13106273,1.47816011 C6.13106273,1.47816011 4.72909644,4.37860487 4.08906835,9.61058052 C4.00271536,10.3268024 3.92144195,11.0988998 3.86048689,11.9319522 C3.84524813,12.1351358 3.83000936,12.3383193 3.8147706,12.551662 C3.8147706,12.551662 3.73857678,13.6590122 3.76905431,15.152411 C3.80969101,17.0724953 4.02303371,19.6326077 4.81544944,21.3088717 C4.84084738,21.3596676 4.87132491,21.4053839 4.91196161,21.440941 C4.91196161,21.440941 4.9170412,21.4460206 4.9170412,21.4460206 C5.21673689,21.7304775 5.6789794,21.4612594 5.6383427,21.0193352 C5.54183052,20.0592931 5.36404494,18.1544476 5.2980103,15.4317884 Z" id="Shape"/><path d="M8.20353464,15.4317884 C8.22893258,14.3853933 8.23909176,13.217088 8.21877341,11.9370318 C8.20861423,11.170014 8.18829588,10.3623596 8.15273876,9.51406835 C8.06638577,7.32476592 7.65493914,4.16018258 7.37048221,1.47816011 C7.37048221,1.47816011 8.7724485,4.37860487 9.41247659,9.61058052 C9.49882959,10.3268024 9.580103,11.0988998 9.64105805,11.9319522 C9.65629682,12.1351358 9.67153558,12.3383193 9.68677434,12.551662 C9.68677434,12.551662 9.76296816,13.6590122 9.73249064,15.152411 C9.69185393,17.0724953 9.47851124,19.6326077 8.68609551,21.3088717 C8.66069757,21.3596676 8.63022004,21.4053839 8.58958333,21.440941 C8.58958333,21.440941 8.58450375,21.4460206 8.58450375,21.4460206 C8.28480805,21.7304775 7.82256554,21.4612594 7.86320225,21.0193352 C7.96479401,20.0592931 8.1375,18.1544476 8.20353464,15.4317884 Z" id="Shape"/></g></g></g></svg>