<svg height="32" viewBox="0 0 32 32" width="32" xmlns="http://www.w3.org/2000/svg" xmlns:xlink="http://www.w3.org/1999/xlink"><defs><linearGradient id="a" x1="50%" x2="50%" y1="0%" y2="100%"><stop offset="0" stop-color="#fff" stop-opacity=".5"/><stop offset="1" stop-opacity=".5"/></linearGradient><circle id="b" cx="16" cy="15" r="15"/><filter id="c" height="111.7%" width="111.7%" x="-5.8%" y="-4.2%"><feOffset dy=".5" in="SourceAlpha" result="shadowOffsetOuter1"/><feGaussianBlur in="shadowOffsetOuter1" result="shadowBlurOuter1" stdDeviation=".5"/><feComposite in="shadowBlurOuter1" in2="SourceAlpha" operator="out" result="shadowBlurOuter1"/><feColorMatrix in="shadowBlurOuter1" values="0 0 0 0 0   0 0 0 0 0   0 0 0 0 0  0 0 0 0.199473505 0"/></filter><path id="d" d="m24.9630289 13.5121335.0194758-.0006972.0174953 4.9674127-11.1770822 6.521151-2.9922993-1.6818449v.0014465l-.0184238-.0118018-.0008813-.0004953-2.8113134-1.80091v-13.02262667l3.0731396-1.81320708.0062953.00373141 2.712112-1.67429216 11.1505376 6.5629611zm-3.2754599 3.1123072-2.3383439-1.3390599-7.8073322 4.5941076 2.291884 1.3625185zm-2.865329-1.6408395-4.8162496-2.7580402-.0211895 5.6819084zm-4.8139828-3.3658598 7.7418404 4.5314224v-2.7053615l-7.731815-4.51433678zm-3.1889557 10.9529695.0294158-2.7124672-.0180988.0107922v-9.572061l-2.34557645-1.40125429v12.28049679zm.4155188-3.001085 2.3449732-1.41736v-9.25654529l-2.3449732 1.40125429zm2.8812945 2.0314562-.0470563 2.8357108 10.4368502-6.1362518.0307675-2.8191097zm7.7932503-8.5839891 2.4282267-1.3864978-10.4543454-6.10427941-2.4059051 1.39141663z"/><filter id="e" height="117.5%" width="120.6%" x="-10.3%" y="-6.2%"><feOffset dy=".5" in="SourceAlpha" result="shadowOffsetOuter1"/><feGaussianBlur in="shadowOffsetOuter1" result="shadowBlurOuter1" stdDeviation=".5"/><feColorMatrix in="shadowBlurOuter1" values="0 0 0 0 0   0 0 0 0 0   0 0 0 0 0  0 0 0 0.204257246 0"/></filter></defs><g fill="none" fill-rule="evenodd"><use fill="#000" filter="url(#c)" xlink:href="#b"/><use fill="#74d269" xlink:href="#b"/><use fill="url(#a)" xlink:href="#b"/><circle cx="16" cy="15" r="14.5" stroke="#000" stroke-opacity=".097"/><g fill-rule="nonzero"><use fill="#000" filter="url(#e)" xlink:href="#d"/><use fill="#fff" fill-rule="evenodd" xlink:href="#d"/></g></g></svg>