<svg height="32" viewBox="0 0 32 32" width="32" xmlns="http://www.w3.org/2000/svg" xmlns:xlink="http://www.w3.org/1999/xlink"><defs><linearGradient id="a" x1="50%" x2="50%" y1="0%" y2="100%"><stop offset="0" stop-color="#fff" stop-opacity=".5"/><stop offset="1" stop-opacity=".5"/></linearGradient><circle id="b" cx="16" cy="15" r="15"/><filter id="c" height="111.7%" width="111.7%" x="-5.8%" y="-4.2%"><feOffset dy=".5" in="SourceAlpha" result="shadowOffsetOuter1"/><feGaussianBlur in="shadowOffsetOuter1" result="shadowBlurOuter1" stdDeviation=".5"/><feComposite in="shadowBlurOuter1" in2="SourceAlpha" operator="out" result="shadowBlurOuter1"/><feColorMatrix in="shadowBlurOuter1" values="0 0 0 0 0   0 0 0 0 0   0 0 0 0 0  0 0 0 0.199473505 0"/></filter><filter id="d" height="119.4%" width="119.4%" x="-9.7%" y="-6.9%"><feOffset dy=".5" in="SourceAlpha" result="shadowOffsetOuter1"/><feGaussianBlur in="shadowOffsetOuter1" result="shadowBlurOuter1" stdDeviation=".5"/><feColorMatrix in="shadowBlurOuter1" result="shadowMatrixOuter1" values="0 0 0 0 0   0 0 0 0 0   0 0 0 0 0  0 0 0 0.204257246 0"/><feMerge><feMergeNode in="shadowMatrixOuter1"/><feMergeNode in="SourceGraphic"/></feMerge></filter></defs><g fill="none" fill-rule="evenodd"><use fill="#000" filter="url(#c)" xlink:href="#b"/><use fill="#121747" xlink:href="#b"/><use fill="url(#a)" xlink:href="#b"/><circle cx="16" cy="15" r="14.5" stroke="#000" stroke-opacity=".097"/><g fill="#fff" fill-rule="nonzero" filter="url(#d)" transform="translate(7 6)"><path d="m11.0316667 15.8691589c0 1.1458618-.9203036 2.0747663-2.05555559 2.0747663-1.13525198 0-2.05555555-.9289045-2.05555555-2.0747663v-13.78934582c0-1.14586181.92030357-2.07476635 2.05555555-2.07476635 1.13525199 0 2.05555559.92890454 2.05555559 2.07476635zm-6.92055559.0061682c.0121839.7466528-.37548664 1.4419117-1.01416618 1.8188333-.63867953.3769216-1.42909922.3769216-2.06777875 0-.63867954-.3769216-1.02635008-1.0721805-1.01416618-1.8188333v-3.1009346c-.0121839-.7466527.37548664-1.4419117 1.01416618-1.8188332.63867953-.3769216 1.42909922-.3769216 2.06777875 0 .63867954.3769215 1.02635008 1.0721805 1.01416618 1.8188332z"/><path d="m17.9555556 10.3990654c0 1.1458618-.9203036 2.0747664-2.0555556 2.0747664s-2.0555556-.9289046-2.0555556-2.0747664v-5.23345792c0-1.14586182.9203036-2.07476636 2.0555556-2.07476636s2.0555556.92890454 2.0555556 2.07476636z" opacity=".5"/></g></g></svg>