<svg height="32" viewBox="0 0 32 32" width="32" xmlns="http://www.w3.org/2000/svg" xmlns:xlink="http://www.w3.org/1999/xlink"><defs><linearGradient id="a" x1="50%" x2="50%" y1="0%" y2="100%"><stop offset="0" stop-color="#fff" stop-opacity=".5"/><stop offset="1" stop-opacity=".5"/></linearGradient><circle id="b" cx="16" cy="15" r="15"/><filter id="c" height="111.7%" width="111.7%" x="-5.8%" y="-4.2%"><feOffset dy=".5" in="SourceAlpha" result="shadowOffsetOuter1"/><feGaussianBlur in="shadowOffsetOuter1" result="shadowBlurOuter1" stdDeviation=".5"/><feComposite in="shadowBlurOuter1" in2="SourceAlpha" operator="out" result="shadowBlurOuter1"/><feColorMatrix in="shadowBlurOuter1" values="0 0 0 0 0   0 0 0 0 0   0 0 0 0 0  0 0 0 0.199473505 0"/></filter><path id="d" d="m9.47149597 8.01564778h5.43166753c2.1535262 0 3.2243303-.06791573 4.8307171.07923502 1.6063868.16978933 3.2127736.82630807 4.2528801 2.0827491 1.2250144 1.4601882 1.5832734 3.4297445 1.5023762 5.2634692-.0808972 1.8224055-.7049611 3.7353652-2.1379968 4.980487-1.2712414 1.1432481-3.0509792 1.5620618-4.7382632 1.5733811-3.282114.0113193-6.5526713 0-9.8347853 0-.35825892-.0226386-.7627448.0113193-1.04010655-.2377051-.48538306-.4867294-.19646457-1.5281039.57783698-1.4828268 1.82596487-.0565964 3.66348637 0 5.48945127-.0339578-.0346702-1.5394233-.0115568-3.0788465-.0115568-4.6069505-1.4099222-.0113193-2.8082877 0-4.21820987 0-.31203197-.0113193-.65873415-.0113193-.90142568-.2150665-.28891849-.2603436-.28891849-.7017959-.16179435-1.0413745.16179435-.3735365.60095045-.4414523.97076611-.4414523 1.43303569-.0113193 2.87762809 0 4.31066379 0 .0231135-1.4035918-.0231134-2.8071836.0231135-4.19945605-1.6063868-.01131929-3.2127736 0-4.81916035 0-.35825892-.01131929-.7627448-.01131929-1.04010655-.26034364-.28891848-.37353652-.23113479-.90554308.01155674-1.27907961.46226958-.22638577.9938796-.18110862 1.50237613-.18110862zm6.33309323 5.91998792c.6587342.0113193 1.3174683-.0452771 1.9762025.0452772.7858582.1131929.7858582 1.4941461-.0115568 1.607339-.6471774.1018736-1.3174683.0339578-1.9762024.0452771.0115567 1.3356761 0 2.6600328 0 3.9957089.0115567.2263858.0231134.5659644.3120319.588603.7858583.0679157 1.4705048.0452771 2.3575749.0452771 1.3174683.0565965 2.704277-.3508979 3.6288162-1.3130374.9476526-1.0074167 1.2943548-2.4110085 1.3174683-3.7466846.0346702-1.4828268-.2426916-3.1128043-1.3290251-4.2220946-.9823228-.9960974-2.4615855-1.33567606-3.8368375-1.25644104-.7839622 0-1.4561491-.02263857-2.1842237.04527716-.2311348.06791573-.2426916.35089798-.2542483.55464518z"/><filter id="e" height="125%" width="119.4%" x="-9.7%" y="-8.9%"><feOffset dy=".5" in="SourceAlpha" result="shadowOffsetOuter1"/><feGaussianBlur in="shadowOffsetOuter1" result="shadowBlurOuter1" stdDeviation=".5"/><feColorMatrix in="shadowBlurOuter1" values="0 0 0 0 0   0 0 0 0 0   0 0 0 0 0  0 0 0 0.204257246 0"/></filter></defs><g fill="none" fill-rule="nonzero"><g><use fill="#000" filter="url(#c)" xlink:href="#b"/><use fill="#0facf3" fill-rule="evenodd" xlink:href="#b"/><use fill="url(#a)" fill-rule="evenodd" xlink:href="#b"/><circle cx="16" cy="15" r="14.5" stroke="#000" stroke-opacity=".097"/></g><g><use fill="#000" filter="url(#e)" xlink:href="#d"/><use fill="#fff" fill-rule="evenodd" xlink:href="#d"/></g></g></svg>