<svg height="32" viewBox="0 0 32 32" width="32" xmlns="http://www.w3.org/2000/svg" xmlns:xlink="http://www.w3.org/1999/xlink"><defs><linearGradient id="a" x1="50%" x2="50%" y1="0%" y2="100%"><stop offset="0" stop-color="#fff" stop-opacity=".5"/><stop offset="1" stop-opacity=".5"/></linearGradient><circle id="b" cx="16" cy="15" r="15"/><filter id="c" height="111.7%" width="111.7%" x="-5.8%" y="-4.2%"><feOffset dy=".5" in="SourceAlpha" result="shadowOffsetOuter1"/><feGaussianBlur in="shadowOffsetOuter1" result="shadowBlurOuter1" stdDeviation=".5"/><feComposite in="shadowBlurOuter1" in2="SourceAlpha" operator="out" result="shadowBlurOuter1"/><feColorMatrix in="shadowBlurOuter1" values="0 0 0 0 0   0 0 0 0 0   0 0 0 0 0  0 0 0 0.199473505 0"/></filter><filter id="d" height="125%" width="117.5%" x="-8.8%" y="-8.9%"><feOffset dy=".5" in="SourceAlpha" result="shadowOffsetOuter1"/><feGaussianBlur in="shadowOffsetOuter1" result="shadowBlurOuter1" stdDeviation=".5"/><feColorMatrix in="shadowBlurOuter1" result="shadowMatrixOuter1" values="0 0 0 0 0   0 0 0 0 0   0 0 0 0 0  0 0 0 0.204257246 0"/><feMerge><feMergeNode in="shadowMatrixOuter1"/><feMergeNode in="SourceGraphic"/></feMerge></filter></defs><g fill="none" fill-rule="nonzero"><g><use fill="#000" filter="url(#c)" xlink:href="#b"/><use fill="#0cf" fill-rule="evenodd" xlink:href="#b"/><use fill="url(#a)" fill-rule="evenodd" xlink:href="#b"/><circle cx="16" cy="15" r="14.5" stroke="#000" stroke-opacity=".097"/></g><g fill="#fff" filter="url(#d)" transform="translate(6 8)"><path d="m1.8937 10.1609985h4.3978l-1.8937 3.8390015h-4.3978zm2.5058-5.07967691h4.3978l-1.8886 3.82861967h-4.3978zm2.5058-5.07967695h4.3978l-1.8886 3.82861968h-4.3978z" fill-opacity=".4"/><path d="m6.2768 10.1594567h4.3978l-1.8938 3.8388987h-4.3977zm2.5058-5.07977975h4.3978l-1.8887 3.82861967h-4.3977zm2.5058-5.07967695h4.3978l-1.8887 3.82851689h-4.3977z" fill-opacity=".6"/><path d="m10.5906 10.1594567h4.3978l-1.8937 3.8388987h-4.3978zm2.5058-5.07977975h4.3978l-1.8886 3.82861967h-4.3978zm2.5058-5.07967695h4.3978l-1.8886 3.82851689h-4.3978z"/></g></g></svg>