<svg height="32" viewBox="0 0 32 32" width="32" xmlns="http://www.w3.org/2000/svg" xmlns:xlink="http://www.w3.org/1999/xlink"><defs><linearGradient id="a" x1="50%" x2="50%" y1="0%" y2="100%"><stop offset="0" stop-color="#fff" stop-opacity=".5"/><stop offset="1" stop-opacity=".5"/></linearGradient><circle id="b" cx="16" cy="15" r="15"/><filter id="c" height="111.7%" width="111.7%" x="-5.8%" y="-4.2%"><feOffset dy=".5" in="SourceAlpha" result="shadowOffsetOuter1"/><feGaussianBlur in="shadowOffsetOuter1" result="shadowBlurOuter1" stdDeviation=".5"/><feComposite in="shadowBlurOuter1" in2="SourceAlpha" operator="out" result="shadowBlurOuter1"/><feColorMatrix in="shadowBlurOuter1" values="0 0 0 0 0   0 0 0 0 0   0 0 0 0 0  0 0 0 0.199473505 0"/></filter><path id="d" d="m16.7191076 9.07822743s-4.1258354.60578659-4.7275197 5.19245647c0 0-.6377854 5.134474 4.6080424 6.5199945.3634024.0956553.7374997.143936 1.113116.1436579h.2578647c.5342747-.0002295 1.0467448.2132963 1.4246146.5935802.3778699.3802838.5901685.8961568.5901684 1.4340741.0042835 1.0602848-.8064423 1.9434255-1.8566259 2.0224618-2.5786472.1730819-6.0400512-1.0921467-8.28605286-4.136657 0 0-4.39831247-6.3252774.39539256-12.13650156 1.1338301-1.38356916 2.6087543-2.44299026 4.2771161-3.0722034 1.9700864-.73732882 4.8555925-1.21157317 7.361178.75636782 0 0 3.3522413 2.59622823 1.6331432 6.83673434 0 0-1.2033687 3.3750967-5.3292041 3.6347195l-.5733192-.0320201c-.5484225-.0138741-1.0641094-.2657826-1.4143548-.6908998-.3502454-.4251173-.5008459-.9819283-.4130465-1.5271445.1461517-.9041394.9085237-1.5769879 1.8179463-1.6044691l.5827742-.0398088s1.9769628-.086541 1.805053-2.4231464c0 0-.1719098-2.07698255-3.2662864-1.47119597"/><filter id="e" height="117.5%" width="121.9%" x="-10.9%" y="-6.2%"><feOffset dy=".5" in="SourceAlpha" result="shadowOffsetOuter1"/><feGaussianBlur in="shadowOffsetOuter1" result="shadowBlurOuter1" stdDeviation=".5"/><feColorMatrix in="shadowBlurOuter1" values="0 0 0 0 0   0 0 0 0 0   0 0 0 0 0  0 0 0 0.204257246 0"/></filter></defs><g fill="none" fill-rule="nonzero"><g><use fill="#000" filter="url(#c)" xlink:href="#b"/><use fill="#f68922" fill-rule="evenodd" xlink:href="#b"/><use fill="url(#a)" fill-rule="evenodd" xlink:href="#b"/><circle cx="16" cy="15" r="14.5" stroke="#000" stroke-opacity=".097"/></g><g><use fill="#000" filter="url(#e)" xlink:href="#d"/><use fill="#fff" fill-rule="evenodd" xlink:href="#d"/></g></g></svg>