<svg height="32" viewBox="0 0 32 32" width="32" xmlns="http://www.w3.org/2000/svg" xmlns:xlink="http://www.w3.org/1999/xlink"><defs><linearGradient id="a" x1="50%" x2="50%" y1="0%" y2="100%"><stop offset="0" stop-color="#fff" stop-opacity=".5"/><stop offset="1" stop-opacity=".5"/></linearGradient><circle id="b" cx="16" cy="15" r="15"/><filter id="c" height="111.7%" width="111.7%" x="-5.8%" y="-4.2%"><feOffset dy=".5" in="SourceAlpha" result="shadowOffsetOuter1"/><feGaussianBlur in="shadowOffsetOuter1" result="shadowBlurOuter1" stdDeviation=".5"/><feComposite in="shadowBlurOuter1" in2="SourceAlpha" operator="out" result="shadowBlurOuter1"/><feColorMatrix in="shadowBlurOuter1" values="0 0 0 0 0   0 0 0 0 0   0 0 0 0 0  0 0 0 0.199473505 0"/></filter><filter id="d" height="114.6%" width="125%" x="-12.5%" y="-5.2%"><feOffset dy=".5" in="SourceAlpha" result="shadowOffsetOuter1"/><feGaussianBlur in="shadowOffsetOuter1" result="shadowBlurOuter1" stdDeviation=".5"/><feColorMatrix in="shadowBlurOuter1" result="shadowMatrixOuter1" values="0 0 0 0 0   0 0 0 0 0   0 0 0 0 0  0 0 0 0.204257246 0"/><feMerge><feMergeNode in="shadowMatrixOuter1"/><feMergeNode in="SourceGraphic"/></feMerge></filter></defs><g fill="none" fill-rule="evenodd"><use fill="#000" filter="url(#c)" xlink:href="#b"/><use fill="#328332" xlink:href="#b"/><use fill="url(#a)" xlink:href="#b"/><circle cx="16" cy="15" r="14.5" stroke="#000" stroke-opacity=".097"/><g fill="#fff" filter="url(#d)" transform="translate(9 3)"><path d="m6.98852447 12.5527163-6.72076491-.5770409 6.72076491-3.80133724zm0 4.4610551.00000001 6.9386117c-2.33671856-3.6360264-4.9128898-7.6408627-6.98852448-10.8821128 2.45074991 1.3793733 5.0075075 2.8229476 6.98852448 3.9435011zm0-10.06831953-6.98852447 3.89914273 6.98852447-10.84459442z" fill-rule="nonzero"/><path d="m13.7092894 11.9756755-6.72076492.5770409v-4.37837842zm-6.72076493 5.0380958c1.98101698-1.1205536 4.53777453-2.5641279 6.98852453-3.9435012-2.0756347 3.2412501-4.65180597 7.2460864-6.98852453 10.8821128l.00000001-6.9386117zm.00000001-10.06831962v-6.94545168l6.98852452 10.8445944z" fill-opacity=".601" fill-rule="nonzero"/><path d="m6.989 12.553 6.72-.577-6.72 3.775z" opacity=".2"/><path d="m.268 12.553 6.721-.577-6.721 3.775z" opacity=".603" transform="matrix(-1 0 0 1 7.256 0)"/></g></g></svg>