<svg height="32" viewBox="0 0 32 32" width="32" xmlns="http://www.w3.org/2000/svg" xmlns:xlink="http://www.w3.org/1999/xlink"><defs><linearGradient id="a" x1="50%" x2="50%" y1="0%" y2="100%"><stop offset="0" stop-color="#fff" stop-opacity=".5"/><stop offset="1" stop-opacity=".5"/></linearGradient><circle id="b" cx="16" cy="15" r="15"/><filter id="c" height="111.7%" width="111.7%" x="-5.8%" y="-4.2%"><feOffset dy=".5" in="SourceAlpha" result="shadowOffsetOuter1"/><feGaussianBlur in="shadowOffsetOuter1" result="shadowBlurOuter1" stdDeviation=".5"/><feComposite in="shadowBlurOuter1" in2="SourceAlpha" operator="out" result="shadowBlurOuter1"/><feColorMatrix in="shadowBlurOuter1" values="0 0 0 0 0   0 0 0 0 0   0 0 0 0 0  0 0 0 0.199473505 0"/></filter><filter id="d" height="116.7%" width="117.5%" x="-8.8%" y="-6%"><feOffset dy=".5" in="SourceAlpha" result="shadowOffsetOuter1"/><feGaussianBlur in="shadowOffsetOuter1" result="shadowBlurOuter1" stdDeviation=".5"/><feColorMatrix in="shadowBlurOuter1" result="shadowMatrixOuter1" values="0 0 0 0 0   0 0 0 0 0   0 0 0 0 0  0 0 0 0.204257246 0"/><feMerge><feMergeNode in="shadowMatrixOuter1"/><feMergeNode in="SourceGraphic"/></feMerge></filter></defs><g fill="none" fill-rule="nonzero"><g><use fill="#000" filter="url(#c)" xlink:href="#b"/><use fill="#00ffba" fill-rule="evenodd" xlink:href="#b"/><use fill="url(#a)" fill-rule="evenodd" xlink:href="#b"/><circle cx="16" cy="15" r="14.5" stroke="#000" stroke-opacity=".097"/></g><g fill="#fff" filter="url(#d)" transform="translate(6 5)"><path d="m4.87099031 4.90417743c-.56579065.57833391-.64815679 1.47607168-.19426703 2.14827012.18619745.27568692.44807985.4917078.75414585.62207792.21037753.08887142.43655778.13427058.66493507.13346654 1.2083916 0 2.18781218.98011988 2.18781218 2.18881119 0 1.2086913-.97902098 2.1885115-2.18781218 2.1885115-2.46285763.0013565-4.68373986-1.4818179-5.62607488-3.75726821-.94233502-2.27545034-.42032862-4.89454054 1.32237857-6.6348397.00882293-.00882809.01770247-.01756498.02663744-.02621069 1.43012075-1.41458424 3.46795093-2.03139551 5.44380831-1.6457448 1.02338201.19974519 1.96104282.65492978 2.73745686 1.30421026-1.36573606 1.14183331-2.18293167 2.84530931-2.18172878 4.67234064 0 1.20879121.97972028 2.18851149 2.18781218 2.18851149.0094973 0 .0189804-.00006055.0284491-.00018128-.013715.00025368-.0274608.00038108-.04123631.00038108-1.2080919 0-2.18781218-.97972028-2.18781218-2.18851149.00138146-.3402515-.09993745-.6730023-.2907093-.95474526-.18620595-.27567919-.44808581-.49169799-.75414585-.62207792-.42543659-.17792424-.90443354-.17792424-1.32987013 0-.20328949.08625876-.38799434.21098966-.54395604.36733267-.00525429.00525428-.01052866.01047626-.01582288.01566594zm14.63949919 6.62799037c.9507558 2.2534639.4621006 4.857029-1.2410589 6.6123876h-.0004995c-1.7258474 1.7789314-4.358324 2.3330735-6.6548721 1.400865-2.29654817-.9322084-3.79800933-3.164387-3.79567738-5.6429229 0-1.2086913.97972028-2.1887113 2.18781218-2.1887113s2.1878122.9799201 2.1878122 2.1887113c-.0010779.3402069.1002144.6728702.2907093.9547453.1862144.2756714.4480918.4916881.7541458.6220779.4294424.1795711.9132656.1777694 1.3413587-.004995.2065392-.0896297.3934866-.2189113.5502497-.3805195.1509756-.1553385.2712044-.3378341.3543457-.5378621.2174618-.5296239.1566959-1.132787-.162038-1.6083917-.1862017-.275683-.4480828-.4917028-.7541458-.6220779-.2103816-.0888582-.4365592-.1342568-.6649351-.1334665-1.2080919 0-2.1878122-.9799201-2.1878122-2.1887113 0-1.20879121.979021-2.18851149 2.1878122-2.18851149 2.446568-.00158313 4.655835 1.46319193 5.6067932 3.71738259z"/><path d="m9.99360639 11.7136863c1.20839161 0 2.18811191.98002 2.18791211 2.1887113.0016299 2.4823775-1.5048721 4.7168509-3.8067205 5.6462027-2.30184842.9293518-4.93745603.3672201-6.65981299-1.4204285-1.69594231-1.7575502-2.17710355-4.3586253-1.22211775-6.6065588.9549858-2.24793355 3.16115987-3.70735254 5.60353634-3.70682779 1.2080919 0 2.18781218.97992008 2.18781218 2.18871129 0 1.2087912-.97902097 2.1885115-2.18781218 2.1885115-.34012437-.00105-.67269325.1002801-.95444556.2908092-.27568747.1863603-.49164375.4484219-.62187812.7546453-.17582292.4205017-.17794216.8935243-.00589411 1.3155845.08230837.1993583.20158846.3813461.35154846.5363636l.0011988.0012987c.44820802.4658606 1.1212626.6383018 1.73826174.4453546.15815364-.0491763.30818714-.1214159.44525474-.2143856.27573176-.186182.49170784-.4481636.62187812-.7543456.08870275-.2103945.13409521-.4365074.13346654-.6648352 0-1.2087912.97902097-2.1888112 2.18781218-2.1888112zm9.32607391-8.39540458c.9674293 1.8873637.8831941 4.14212014-.2223613 5.95203952-1.1055555 1.80991936-3.0731592 2.91425526-5.1940223 2.91519326-1.2080919 0-2.1878122-.9801199-2.1878122-2.1888112 0-1.20869131.979021-2.18851149 2.1878122-2.18851149.1727258.00034337.3445063-.02549107.5094905-.07662338.158135-.04922383.3081617-.12146017.4452548-.21438561.2756737-.18624588.491634-.44820841.6218781-.75434566.1949229-.46587861.1753815-.99386095-.0534466-1.44405594-.1205826-.23421726-.2931499-.43774417-.5044955-.595005-.4381532-.32617605-1.0060304-.42274747-1.5273726-.25974026-.1580774.04916612-.3080417.12137116-.445055.21428572-.2757356.18617775-.4917127.44816062-.6218781.75434565-.0888713.21045792-.1343677.43668294-.1337662.66513487 0 1.20879121-.9797203 2.18851149-2.1878122 2.18851149s-2.18781218-.97972028-2.18781218-2.18851149c-.00151505-2.30115866 1.29524271-4.40631435 3.35108918-5.44015602 2.0558466-1.03384168 4.519038-.81948484 6.3653943.55394223.0015984.0010989.0028971.0023976.0043956.00359641.7460827.55611935 1.3551127 1.27548765 1.7805195 2.1030969z" opacity=".7"/></g></g></svg>