<svg height="32" viewBox="0 0 32 32" width="32" xmlns="http://www.w3.org/2000/svg" xmlns:xlink="http://www.w3.org/1999/xlink"><defs><linearGradient id="a" x1="50%" x2="50%" y1="0%" y2="100%"><stop offset="0" stop-color="#fff" stop-opacity=".5"/><stop offset="1" stop-opacity=".5"/></linearGradient><circle id="b" cx="16" cy="15" r="15"/><filter id="c" height="111.7%" width="111.7%" x="-5.8%" y="-4.2%"><feOffset dy=".5" in="SourceAlpha" result="shadowOffsetOuter1"/><feGaussianBlur in="shadowOffsetOuter1" result="shadowBlurOuter1" stdDeviation=".5"/><feComposite in="shadowBlurOuter1" in2="SourceAlpha" operator="out" result="shadowBlurOuter1"/><feColorMatrix in="shadowBlurOuter1" values="0 0 0 0 0   0 0 0 0 0   0 0 0 0 0  0 0 0 0.199473505 0"/></filter><path id="d" d="m18.0799626 11.5742409c-.0033899.8923862-.0086867 1.7845603-.009746 2.6767344-.001695 1.4844114-.0033899 2.9690349.0033899 4.4532342.0008475.1790288-.0487302.2863612-.2067856.3818149-.6093396.3667544-1.2089332.7496299-1.854079 1.1528688v-.3249669c0-2.2972528-.0025424-4.5947178.0046612-6.8919707.0006356-.1913316-.0502133-.298664-.2224641-.3922087-.5347612-.2901793-1.0578695-.6013584-1.5860627-.9034164-.0582644-.0333028-.1201306-.0602419-.2089043-.1045749v.3154215c0 2.0588307-.0036018 4.1176614.0057205 6.17628.0008475.2070285-.065468.3141487-.2402612.4110873-.5239558.2910278-1.0377418.6007221-1.5559771.9021437-.0735191.042636-.1504281.0793327-.2665331.1402109v-.3207245c0-2.0675275-.0050849-4.1350551.0067798-6.2025827.0014831-.2401191-.0796633-.3591181-.2790334-.4700565-.5849746-.325179-1.1578725-.6717821-1.76445776-1.0268699.67226516-.3862694 1.31741086-.7623571 1.97103146-1.1233843.0597475-.0330906.1843274.0103939.2597533.0526056.5688723.3196639 1.135626.6435702 1.696871.9763855.135809.0803933.2351763.0897265.3767058.0031818.5188709-.3175427 1.0540558-.6083583 1.5699606-.9303556.186446-.1162414.3209838-.0971506.4974719.0084848.5974749.3578454 1.204484.6997818 1.8076793 1.0476576zm.0057841.0070423c.0447047-.0460299.0819939-.1054233.1353853-.1363927.5633637-.3277245 1.1256681-.6579943 1.698566-.968325.0923755-.049848.2582701-.0470905.3514931.0031818.5817965.3130882 1.15533.6416611 1.723143.9789309.0775446.04603.1557248.1682107.1559367.2556039.0086867 2.1631934.0074155 4.3263868.0040256 6.4895802-.0002119.07106-.0182209.1796651-.0652562.207877-.6483238.3860573-1.3032156.7612965-1.9977271 1.1630506v-.3287851c0-2.0838607-.0019069-4.1675094.0033899-6.2513701.0004237-.1771197-.0419504-.2831794-.207845-.3750271-.6082803-.3374819-1.2055433-.6953273-1.8068318-1.0455364 0 .0002121.0057205.007212.0057205.007212zm-11.14646583 6.2066555c-.7949382.003606-1.43309222-.6232068-1.43923646-1.4131393-.00614425-.7912053.62607739-1.4288362 1.41995624-1.4328664.79790439-.0040303 1.43415157.621934 1.43796524 1.4139877.00381367.7943871-.62438243 1.428624-1.41868502 1.432018zm1.91480104 4.2867205c-.74366554.0046666-1.35003898-.5877828-1.36020876-1.3297764-.01016979-.7335088.59048315-1.3482308 1.33245372-1.3641397.72502093-.0152726 1.35194583.6009342 1.35936123 1.3369884.0074155.7394481-.59366116 1.3520489-1.33160619 1.3569277zm-1.08740428-11.6752627c.7195123.0019091 1.29855444.579298 1.29855444 1.2949888-.00021187.726721-.59260185 1.3117462-1.31995336 1.3034736-.72057165-.0084848-1.2786386-.5822677-1.27546055-1.3121705.00317806-.7269331.56887236-1.288201 1.29685947-1.2862919zm17.52226427 4.9052606c-.6701464.0042424-1.2176199-.5326318-1.2246116-1.2001714-.0069917-.6783578.5464141-1.2345348 1.223976-1.2300803.669299.0046666 1.2138062.5510861 1.2116875 1.2160804-.0019068.6705093-.5404817 1.210141-1.2110519 1.2141713zm-15.74700115-7.68756684c.0021187-.62447945.48624285-1.1089601 1.10532855-1.10577831.6169669.00296967 1.106176.4980563 1.1017267 1.11468733-.0046612.62002494-.4987432 1.11214189-1.1104134 1.10599043-.6228994-.00636358-1.09876056-.49020788-1.09664185-1.11489945zm15.09441875 12.29183004c-.6237468.0040303-1.1076591-.4742989-1.1108371-1.0985662-.0033899-.6191765.4813698-1.1163843 1.0951587-1.1233843.6080684-.0067878 1.1087185.4919049 1.1116846 1.1072632.0029662.6268127-.4726831 1.110657-1.0960062 1.1146873zm-8.6502709-14.05486024c-.0101697.47260197-.3836975.82938676-.8525669.81475052-.4699289-.01463623-.8222695-.39114813-.806803-.86226526.0148309-.45245064.3902655-.8122051.8417616-.80647788.4652677.00593935.82799.38457243.8176083.85399262zm5.7709929 17.50201224c-.4625134-.0040303-.821422-.3665423-.8180321-.8259928.0031781-.4715414.3728921-.8317201.8485415-.8266293.4601827.0050909.8195151.369512.8186677.8304474-.0010594.4706929-.368231.8264171-.8491771.8221747zm-4.2796363 1.6439252c-.4493773-.0008485-.7860396-.339391-.7839209-.7882356.0021187-.4412083.3523407-.7867508.7951501-.7844175.4347583.0023333.7970569.3663302.7915483.7954477-.0055087.4435416-.3512814.778266-.8027775.7772054zm2.6270886-17.7234649c-.3881468-.00148483-.7044695-.32369417-.7017152-.71441806.0029662-.39051178.3226788-.7082666.7104019-.70550905.3836975.00254543.7097662.33154259.708495.71441806-.0014831.38075428-.3332723.70699389-.7171817.70550905zm-6.537265 16.2829622c-.006568.3485121-.2826353.6149341-.6307385.6085705-.3500101-.0061515-.6131533-.2810582-.6046785-.6319036.0084748-.3472395.2887795-.620025.6290436-.6123887.3428065.0078484.6129414.2908157.6063734.6357218zm10.6631468-13.97979121c.0059324.30375495-.2188622.54387411-.518659.55363161-.291322.0093332-.5404817-.22930108-.5478972-.52520761-.0076273-.30163376.2184385-.54111654.5197184-.55023767.2991612-.00912113.5406936.22124051.5468378.52181367z"/><filter id="e" height="117.5%" width="116.7%" x="-8.3%" y="-6.2%"><feOffset dy=".5" in="SourceAlpha" result="shadowOffsetOuter1"/><feGaussianBlur in="shadowOffsetOuter1" result="shadowBlurOuter1" stdDeviation=".5"/><feColorMatrix in="shadowBlurOuter1" values="0 0 0 0 0   0 0 0 0 0   0 0 0 0 0  0 0 0 0.204257246 0"/></filter></defs><g fill="none" fill-rule="evenodd"><use fill="#000" filter="url(#c)" xlink:href="#b"/><use fill="#00a5ff" xlink:href="#b"/><use fill="url(#a)" xlink:href="#b"/><circle cx="16" cy="15" r="14.5" stroke="#000" stroke-opacity=".097"/><use fill="#000" filter="url(#e)" xlink:href="#d"/><use fill="#fff" xlink:href="#d"/></g></svg>