<svg height="32" viewBox="0 0 32 32" width="32" xmlns="http://www.w3.org/2000/svg" xmlns:xlink="http://www.w3.org/1999/xlink"><defs><linearGradient id="a" x1="50%" x2="50%" y1="0%" y2="100%"><stop offset="0" stop-color="#fff" stop-opacity=".5"/><stop offset="1" stop-opacity=".5"/></linearGradient><circle id="b" cx="16" cy="15" r="15"/><filter id="c" height="111.7%" width="111.7%" x="-5.8%" y="-4.2%"><feOffset dy=".5" in="SourceAlpha" result="shadowOffsetOuter1"/><feGaussianBlur in="shadowOffsetOuter1" result="shadowBlurOuter1" stdDeviation=".5"/><feComposite in="shadowBlurOuter1" in2="SourceAlpha" operator="out" result="shadowBlurOuter1"/><feColorMatrix in="shadowBlurOuter1" values="0 0 0 0 0   0 0 0 0 0   0 0 0 0 0  0 0 0 0.199473505 0"/></filter><path id="d" d="m7.5 10.669873 4.2979234 2.4814072c-.254704.5755213-.3962841 1.2130111-.3962841 1.8838075 0 .6490771.1325603 1.2669695.3719001 1.8277102l-4.2735394 2.4673291zm.57040821-.82537523 7.42959179-4.53902821v5.12510304c-1.3109934.1427838-2.4567721.8405598-3.201012 1.8552969zm16.42959179 9.48562923-4.2735394-2.4673291c.2393398-.5607407.3719001-1.1786331.3719001-1.8277102 0-.6707964-.1415801-1.3082862-.3962841-1.8838075l4.2979234-2.4814072zm-.45867.8898873-7.54133 4.4827721v-5.0631836c1.3322046-.1450939 2.4938051-.8632844 3.2368199-1.9047985zm-16.08266005 0 4.30451015-2.48521c.7430148 1.0415141 1.9046153 1.7597046 3.2368199 1.9047985v5.0631836zm15.97092185-10.37551653-4.2285798 2.44137173c-.7442399-1.0147371-1.8900186-1.7125131-3.201012-1.8552969v-5.12510304z"/><filter id="e" height="118%" width="120.6%" x="-10.3%" y="-6.4%"><feOffset dy=".5" in="SourceAlpha" result="shadowOffsetOuter1"/><feGaussianBlur in="shadowOffsetOuter1" result="shadowBlurOuter1" stdDeviation=".5"/><feColorMatrix in="shadowBlurOuter1" values="0 0 0 0 0   0 0 0 0 0   0 0 0 0 0  0 0 0 0.204257246 0"/></filter></defs><g fill="none" fill-rule="evenodd"><use fill="#000" filter="url(#c)" xlink:href="#b"/><use fill="#ffaa5c" xlink:href="#b"/><use fill="url(#a)" xlink:href="#b"/><circle cx="16" cy="15" r="14.5" stroke="#000" stroke-opacity=".097"/><use fill="#000" filter="url(#e)" xlink:href="#d"/><use fill="#fff" xlink:href="#d"/></g></svg>