<svg height="32" viewBox="0 0 32 32" width="32" xmlns="http://www.w3.org/2000/svg" xmlns:xlink="http://www.w3.org/1999/xlink"><defs><linearGradient id="a" x1="50%" x2="50%" y1="0%" y2="100%"><stop offset="0" stop-color="#fff" stop-opacity=".5"/><stop offset="1" stop-opacity=".5"/></linearGradient><circle id="b" cx="16" cy="15" r="15"/><filter id="c" height="111.7%" width="111.7%" x="-5.8%" y="-4.2%"><feOffset dy=".5" in="SourceAlpha" result="shadowOffsetOuter1"/><feGaussianBlur in="shadowOffsetOuter1" result="shadowBlurOuter1" stdDeviation=".5"/><feComposite in="shadowBlurOuter1" in2="SourceAlpha" operator="out" result="shadowBlurOuter1"/><feColorMatrix in="shadowBlurOuter1" values="0 0 0 0 0   0 0 0 0 0   0 0 0 0 0  0 0 0 0.199473505 0"/></filter><path id="d" d="m26 13.7173145c-.00358.0384028-.01016.0767668-.0103.115189-.0044 1.2209223-.0088 2.4418446-.0119 3.6628057-.00212.8355919-.00198 1.6711837-.00384 2.5067756-.00018.0804205-.00738.1608216-.01222.2594329-.04352-.01994-.0757-.0320866-.10532-.0485866-1.55138-.865424-3.10224-1.7317226-4.65456-2.5955141-.08312-.0462545-.0902-.0871643-.05026-.1691007.79356-1.6279417.79636-3.2598092.01522-4.8924541-.03726-.0778746-.02992-.1164717.04988-.1611714 1.55276-.869583 3.10382-1.742023 4.65584-2.61288868.03908-.02192226.08482-.03265018.12746-.04858657zm-9.7-9.7173145c.07836.0474788.15538.09721201.23526.14210601 3.016 1.69504947 6.03228 3.38965194 9.04842 5.08444876.03386.0190265.06648.04017138.11366.06883746-.04258.02685865-.07128.04691519-.10178.06395936-1.53922.85969081-3.07856 1.71914841-4.61796 2.57852831-.12062.0673409-.1191.0659417-.20036-.0479647-1.02344-1.4345088-2.4276-2.25509718-4.21076-2.4633781-.05286-.00618021-.1064-.01020318-.15956-.00983392-.09536.00066078-.13168-.03599293-.13172-.1345265-.00048-1.01349647-.00634-2.02699293-.00944-3.04050884-.00214-.69947173-.00264-1.39898233-.00258-2.09847349.00002-.04773145.01096-.0954629.01682-.14319435zm-.62 22c-.03352-.0245848-.0648-.0529011-.10086-.0731908-3.03848-1.7085371-6.07732-3.4164329-9.11606-5.1245035-.04276-.0240407-.08452-.0497527-.14356-.084599.04002-.0269753.06676-.0479452.0962-.0643869 1.53026-.8551043 3.06118-1.7091007 4.59012-2.5664205.09246-.0518322.1356-.0321643.1925.0467986.95536 1.3258109 2.26166 2.1108922 3.90078 2.3772049.16712.0271308.33746.0399771.50686.0476537.09618.004334.13368.0303764.1336.1302121-.00076.8969469.0036 1.7939134.006 2.6908798.00226.8483604.00408 1.6967403.00544 2.5451202.00004.0250706-.00718.0501607-.01102.0752314zm-9.68-6.54947c.00544-.0308816.01548-.0617243.01566-.0926254.00238-.4209541.0037-.8419081.0047-1.2628622.00224-.9422297.00368-1.8844594.0063-2.8266696.0041-1.486341.00882-2.9727014.01352-4.4590424.00102-.3205937.00292-.6411679.00488-.96174206.00018-.02792756.0039-.05583569.00722-.10061307.04392.02116431.07572.0345159.10556.05117137 1.52212.84960426 3.04364 1.70016076 4.56706 2.54754946.08866.0493251.10152.0873975.05668.1794982-.79934 1.6417792-.79596 3.2852492.00064 4.9274947.06436.1326608.06684.1315919-.06308.2045884-1.5282.8588162-3.05626 1.7178463-4.5854 2.5750883-.03856.0216113-.0889.0233993-.13374.0344188zm13.472792-.9313249c.16344-.5719417.21582-1.1500053.18102-1.7350265-.0427-.7178957-.2205-1.3995653-.5944-2.0260406-.4312-.7224823-1.05244-1.2449823-1.80996-1.6252014-.20102-.1009241-.222-.0507827-.1032-.299818.26878-.5635654.73884-.9128057 1.31974-1.1366343.40384-.1555742.82736-.2222739 1.25814-.24647.05272-.0029541.12342.0320671.16062.0717527.73132.7806501 1.18294 1.6935335 1.33678 2.7389028.38364 2.6068445-1.31548 5.0538392-3.95372 5.7028198-2.92636.7198586-5.89548-1.0827226-6.50334-3.944841-.56886-2.6786361 1.14764-5.2695442 3.70782-5.9532739 1.9232-.51363777 3.62842-.10428618 5.12208 1.16944.05624.0479452.11222.0961819.16834.1443021-.007.010553-.01402.021106-.02104.031659-.14654-.0180353-.29272-.0396855-.4397-.0535424-.91294-.0860565-1.81146-.026159-2.68198.2729788-1.1104.3815795-1.94084 1.0848798-2.50844 2.0850442-.08024.1414258-.08562.142825-.24026.0902155-.20272-.0689929-.37138-.1875442-.5179-.3376572-.29186-.2989824-.49574-.6518181-.62896-1.0383534-.11712-.3398145-.20352-.6896378-.30326-1.0350883-.00794-.0274806-.0142-.0554082-.03788-.0842297-.01408.0792738-.02964.1583339-.04184.2378798-.01228.0800124-.0229.1603552-.03134.240834-.09366.8928074-.04292 1.7726908.26568 2.6263374.3845 1.0636184 1.10698 1.8293039 2.1637 2.2962403.13706.0605777.13778.0613551.06326.1880106-.39072.6639841-1.00378.9974823-1.76116 1.1113304-.3515.0528233-.70396.0325919-1.06262.0058109.03278.0132545.06502.0280637.09842.039569 1.72892.595613 3.63034.3287173 5.061-1.1851237.36484-.3860495.67076-.812659.93716-1.2671961.0688-.1174435.07322-.1188817.18376-.0383446.46858.3413887.74762.8102492.94054 1.3342262.1779.4831643.24854.9856078.26586 1.4963887.00142.0410654.00468.0820724.00708.1230989zm6.267774 2.212549c-3.16074 1.7533533-6.30308 3.4965035-9.46238 5.24906-.00564-.0544947-.0122-.0883692-.0122-.1222438-.0005-1.7296042 0-3.4592279-.00184-5.1888321-.00008-.0775442.02246-.1054912.1054-.1123516 1.84104-.1520566 3.29906-.9583799 4.36952-2.4233039.09402-.1286573.09292-.1291626.23016-.0530566 1.54792.8584082 3.09588 1.7167191 4.64372 2.5752244.03638.0201732.07162.0422898.12762.0755036zm-10.001856-16.69538997c.00312.05581626.00668.08988516.00668.12395407.00028 1.70667138-.00012 3.41334275.00146 5.1199947.00008.07970141-.01148.11985335-.11054.12702473-1.87706.13594523-3.3626.94852647-4.45072 2.44291347-.08542.1172879-.08398.1186872-.2105.0484505-1.5068-.836447-3.01364-1.672894-4.52006-2.51000178-.05318-.02956007-.10226-.0661166-.15324-.09940812.0519-.03620672.10092-.07725265.15608-.10788163 3.03656-1.68607067 6.07364-3.37126678 9.11076-5.05636572.05046-.02796643.10236-.05346467.17008-.08868022z"/><filter id="e" height="115.9%" width="117.5%" x="-8.8%" y="-5.7%"><feOffset dy=".5" in="SourceAlpha" result="shadowOffsetOuter1"/><feGaussianBlur in="shadowOffsetOuter1" result="shadowBlurOuter1" stdDeviation=".5"/><feColorMatrix in="shadowBlurOuter1" values="0 0 0 0 0   0 0 0 0 0   0 0 0 0 0  0 0 0 0.204257246 0"/></filter></defs><g fill="none" fill-rule="evenodd"><use fill="#000" filter="url(#c)" xlink:href="#b"/><use fill="#ffaa5c" xlink:href="#b"/><use fill="url(#a)" xlink:href="#b"/><circle cx="16" cy="15" r="14.5" stroke="#000" stroke-opacity=".097"/><use fill="#000" filter="url(#e)" xlink:href="#d"/><use fill="#fff" xlink:href="#d"/></g></svg>