<svg height="32" viewBox="0 0 32 32" width="32" xmlns="http://www.w3.org/2000/svg" xmlns:xlink="http://www.w3.org/1999/xlink"><defs><linearGradient id="a" x1="50%" x2="50%" y1="0%" y2="100%"><stop offset="0" stop-color="#fff" stop-opacity=".5"/><stop offset="1" stop-opacity=".5"/></linearGradient><circle id="b" cx="16" cy="15" r="15"/><filter id="c" height="111.7%" width="111.7%" x="-5.8%" y="-4.2%"><feOffset dy=".5" in="SourceAlpha" result="shadowOffsetOuter1"/><feGaussianBlur in="shadowOffsetOuter1" result="shadowBlurOuter1" stdDeviation=".5"/><feComposite in="shadowBlurOuter1" in2="SourceAlpha" operator="out" result="shadowBlurOuter1"/><feColorMatrix in="shadowBlurOuter1" values="0 0 0 0 0   0 0 0 0 0   0 0 0 0 0  0 0 0 0.199473505 0"/></filter><path id="d" d="m8 23.253546c.0144017-.0583386.02821614-.1168639.04328898-.1750425.15450362-.5967177.56107886-.964747 1.16656528-1.1314706.61532992-.1694167 1.20202424-.1045456 1.73561404.2569512.1746101.1182503.306071.2687096.3916422.4575635.0234342.0516729.0712814.0933205.1079148.1395541.0399613-.0455137.0972884-.0850816.1170593-.1375277.131349-.3482986.2779387-.6935043.3766532-1.0504951.5359388-1.938506 1.0595453-3.8801582 1.5865915-5.8209039.0207776-.0764161.0334454-.1548053.0531604-.2476458-.1405214 0-.2699689.0017331-.3993325-.00032-.442118-.0069057-.8859978.0059459-1.3258788-.0280228-.5989707-.0462869-1.0066365-.4147161-1.0175986-.9819179-.0095918-.4957983.2836155-.8770257.8440512-.9741857.3927329-.0680706.8042578-.0420475 1.2075612-.0488999.3862451-.0065591.7727139.0006133 1.1589869-.004426.0361021-.00048.0948275-.0394879.1037482-.0707636.0981832-.3443792.1888439-.6907047.2803716-1.0367637.0053692-.0202639.0006991-.0429274.0006991-.0774293-.4379513 0-.8712047.0128516-1.3031437-.0041061-.3394326-.0133315-.6681268-.0907875-.9521897-.2866805-.3526039-.2431931-.4497804-.5901053-.3924812-.9738123.0580263-.3885065.306854-.6479907.7050119-.757069.1401579-.0383947.2913058-.0544458.4376718-.0555923.6244183-.0048527 1.2490604-.0059725 1.8733669.004826.151064.002613.2175635-.0466869.2781065-.1725629.2080556-.43252698.4111335-.86905344.6526625-1.28470279.4400207-.7572289.9557971-1.46798421 1.5962951-2.0856057.8429885-.81287456 1.8357827-1.38815522 3.0256423-1.59937943.7893248-.14014067 1.5860881-.17410932 2.3615705.09214729.4662234.16005793.8127589.45700364 1.0302106.88329152.1376131.26969614.2702205.53744588.2549799.85484211-.0432051.89920932-.8079771 1.47147706-1.5010761 1.49480718-.5319399.01789087-.9894384-.12659587-1.3437481-.51144947-.3327211-.36144348-.3736611-.78301201-.2402147-1.23129685.0100113-.03367536.0233503-.06647083.0351793-.09966626l-.0270416-.03495518c-.0678418.04415391-.1446043.07974901-.2020992.13390154-.306826.28924011-.5472085.62607365-.7491678.98767712-.4200261.75194963-.7234125 1.54805317-.9734987 2.36383402-.0076622.0249032-.006236.0523128-.010962.0961467.2172279 0 .4293942.0028796.6414487-.0006932.3075531-.0051726.6135681-.0032796.9058806.1064653.3575536.1342748.6307104.3532846.702607.7275263.0733228.3816807-.0020414.6806528-.3578612.9717327-.2901871.2374072-.6300392.2864138-.98502.2984122-.4745009.0159978-.9494492.0200772-1.4242018.0281561-.062948.0010665-.1126968-.0006133-.1314609.0801223-.0760913.3271548-.1606838.65247-.2411935.9786917-.0039709.0159977.0010627.0340486.002405.0619647.3332804 0 .6639601-.009492.9937729.0025597.3559316.0130115.6837869.1056121.942542.3621634.3159984.3133168.3605737.763868.0960579 1.1168326-.0862144.1150775-.188788.2189298-.2823851.3290746-.1941852.2283952-.4644057.307131-.7527472.3185161-.4928736.019464-.986642.0247699-1.479963.0222903-.1335862-.0006399-.1868585.0389813-.2166686.1573649-.1750016.6944643-.3437111 1.3907149-.5373091 2.0805131-.3892652 1.3870087-.8243642 2.7592195-1.5358918 4.0356568-.3448857.618768-.767121 1.1836234-1.2814433 1.6834478-.7430436.7220871-1.6222461 1.2170588-2.6744368 1.3993004-.7181552.1243561-1.44243464.1673902-2.15060655-.0472202-.60011724-.1818683-1.01463439-.5553367-1.17467497-1.1541608-.01552028-.0582053-.03003383-.1166239-.04502278-.1749359z"/><filter id="e" height="117.5%" width="121.9%" x="-10.9%" y="-6.2%"><feOffset dy=".5" in="SourceAlpha" result="shadowOffsetOuter1"/><feGaussianBlur in="shadowOffsetOuter1" result="shadowBlurOuter1" stdDeviation=".5"/><feColorMatrix in="shadowBlurOuter1" values="0 0 0 0 0   0 0 0 0 0   0 0 0 0 0  0 0 0 0.204257246 0"/></filter></defs><g fill="none" fill-rule="evenodd"><use fill="#000" filter="url(#c)" xlink:href="#b"/><use fill="#c99705" xlink:href="#b"/><use fill="url(#a)" xlink:href="#b"/><circle cx="16" cy="15" r="14.5" stroke="#000" stroke-opacity=".097"/><use fill="#000" filter="url(#e)" xlink:href="#d"/><use fill="#fff" xlink:href="#d"/></g></svg>