<svg height="32" viewBox="0 0 32 32" width="32" xmlns="http://www.w3.org/2000/svg" xmlns:xlink="http://www.w3.org/1999/xlink"><defs><linearGradient id="a" x1="50%" x2="50%" y1="0%" y2="100%"><stop offset="0" stop-color="#fff" stop-opacity=".5"/><stop offset="1" stop-opacity=".5"/></linearGradient><circle id="b" cx="16" cy="15" r="15"/><filter id="c" height="111.7%" width="111.7%" x="-5.8%" y="-4.2%"><feOffset dy=".5" in="SourceAlpha" result="shadowOffsetOuter1"/><feGaussianBlur in="shadowOffsetOuter1" result="shadowBlurOuter1" stdDeviation=".5"/><feComposite in="shadowBlurOuter1" in2="SourceAlpha" operator="out" result="shadowBlurOuter1"/><feColorMatrix in="shadowBlurOuter1" values="0 0 0 0 0   0 0 0 0 0   0 0 0 0 0  0 0 0 0.199473505 0"/></filter><path id="d" d="m15.9320926 11.9075167c.3717071-1.5623907.8205846-2.96716401 1.2959561-3.88471948.1751606-.43813042.8847595-1.4866325 1.6638356-2.18001875 1.2970827-1.15441782 2.7521178-1.44786607 4.2667418-.4972125l-.132903.21174701.1329264-.21173227c.7729741.48527657 1.083381.98429348.9476714 1.45454676-.1009675.34986667-.4834701.62898675-.6881379.60091398-.3000844.02933557-.6019081-.03048982-.8898236-.24190931-.2221882-.16315522-.406367-.4017433-.5417161-.72120849-.2114084-.4993562-.4897305-.66998948-.830958-.63046919-.2467912.02858287-.5338861.18690474-.6246081.29287634-.0441747.04916923-.2010726.22122438-.2352359.2592075-.2136549.23754386-.3470998.40926962-.4833603.63585366-.4769351.79308341-.9154081 2.24533162-1.5245584 5.25691784l4.0363069.5908111-.2221439 1.6170888-4.0963978-.599801-.1751501 1.0634476c-.0075351.048447-.022325.1387651-.0442894.2657236-.0239968.1387059-.0510251.2887198-.0810633.4485566l4.1363971.605893-.2370547 1.6146694-4.2322468-.61945c-.4890708 2.0776693-1.1329895 4.3044433-1.5884489 5.1836563-.1757128.4387155-.8848391 1.4863662-1.6638728 2.179693-1.2971319 1.1544255-2.7521289 1.4479376-4.26667872.4973729-.77308146-.4853885-1.08350845-.9844777-.94774985-1.4547725.10099912-.349881.48355434-.6290001.68821185-.6009248.30008451-.0293441.60193132.0305407.88984842.2421288.2220697.1631974.406159.4018003.5414371.7211805.2115079.4992864.4898791.669917.8310693.6303978.246781-.028584.5338276-.1869329.6245439-.2930274.9078425-1.0101731 1.6263353-2.9563593 2.5355604-7.4503156l-4.0365554-.5915417.2221504-1.6167843 4.0964344.5995263.1753302-1.063033c.0075066-.0484673.0222529-.1388137.0441743-.2658163.0239544-.1387811.0509554-.2888891.0809857-.4488401l-4.1204213-.6032104.2370452-1.6149564z"/><filter id="e" height="116.8%" width="122.9%" x="-11.5%" y="-6%"><feOffset dy=".5" in="SourceAlpha" result="shadowOffsetOuter1"/><feGaussianBlur in="shadowOffsetOuter1" result="shadowBlurOuter1" stdDeviation=".5"/><feColorMatrix in="shadowBlurOuter1" values="0 0 0 0 0   0 0 0 0 0   0 0 0 0 0  0 0 0 0.204257246 0"/></filter></defs><g fill="none" fill-rule="nonzero"><g><use fill="#000" filter="url(#c)" xlink:href="#b"/><use fill="#42c1ca" fill-rule="evenodd" xlink:href="#b"/><use fill="url(#a)" fill-rule="evenodd" xlink:href="#b"/><circle cx="16" cy="15" r="14.5" stroke="#000" stroke-opacity=".097"/></g><g><use fill="#000" filter="url(#e)" xlink:href="#d"/><use fill="#fff" fill-rule="evenodd" xlink:href="#d"/></g></g></svg>