<svg xmlns="http://www.w3.org/2000/svg" xmlns:xlink="http://www.w3.org/1999/xlink" width="32" height="32" viewBox="0 0 32 32"><defs><linearGradient id="c" x1="50%" x2="50%" y1="0%" y2="100%"><stop offset="0%" stop-color="#FFF" stop-opacity=".5"/><stop offset="100%" stop-opacity=".5"/></linearGradient><circle id="b" cx="16" cy="15" r="15"/><filter id="a" width="111.7%" height="111.7%" x="-5.8%" y="-4.2%" filterUnits="objectBoundingBox"><feOffset dy=".5" in="SourceAlpha" result="shadowOffsetOuter1"/><feGaussianBlur in="shadowOffsetOuter1" result="shadowBlurOuter1" stdDeviation=".5"/><feComposite in="shadowBlurOuter1" in2="SourceAlpha" operator="out" result="shadowBlurOuter1"/><feColorMatrix in="shadowBlurOuter1" values="0 0 0 0 0 0 0 0 0 0 0 0 0 0 0 0 0 0 0.199473505 0"/></filter><path id="e" d="M15.932 11.908c.372-1.563.82-2.968 1.296-3.885.175-.438.885-1.487 1.664-2.18 1.297-1.155 2.752-1.448 4.267-.497l-.133.211.133-.211c.773.485 1.083.984.947 1.454-.1.35-.483.63-.688.601-.3.03-.602-.03-.89-.242a1.685 1.685 0 0 1-.541-.721c-.212-.5-.49-.67-.831-.63-.247.028-.534.186-.625.292l-.235.26a3.894 3.894 0 0 0-.484.635c-.476.793-.915 2.246-1.524 5.257l4.036.591-.222 1.617-4.096-.6-.175 1.064-.045.266c-.024.138-.05.288-.08.448l4.136.606-.237 1.615-4.233-.62c-.489 2.078-1.133 4.305-1.588 5.184-.176.439-.885 1.486-1.664 2.18-1.297 1.154-2.752 1.448-4.267.497-.773-.485-1.083-.985-.947-1.455.1-.35.483-.629.688-.6.3-.03.602.03.89.241.222.164.406.402.541.722.212.499.49.67.831.63.247-.029.534-.187.625-.293.907-1.01 1.626-2.956 2.535-7.45l-4.036-.592.222-1.617 4.096.6.176-1.063a31.19 31.19 0 0 1 .125-.715l-4.12-.603.236-1.615 4.217.618z"/><filter id="d" width="122.9%" height="116.8%" x="-11.5%" y="-6%" filterUnits="objectBoundingBox"><feOffset dy=".5" in="SourceAlpha" result="shadowOffsetOuter1"/><feGaussianBlur in="shadowOffsetOuter1" result="shadowBlurOuter1" stdDeviation=".5"/><feColorMatrix in="shadowBlurOuter1" values="0 0 0 0 0 0 0 0 0 0 0 0 0 0 0 0 0 0 0.204257246 0"/></filter></defs><g fill="none"><use fill="#000" filter="url(#a)" xlink:href="#b"/><use fill="#42C1CA" fill-rule="evenodd" xlink:href="#b"/><use fill="url(#c)" fill-rule="evenodd" style="mix-blend-mode:soft-light" xlink:href="#b"/><circle cx="16" cy="15" r="14.5" stroke="#000" stroke-opacity=".097"/><use fill="#000" filter="url(#d)" xlink:href="#e"/><use fill="#FFF" fill-rule="evenodd" xlink:href="#e"/></g></svg>