<svg width="32" height="32" viewBox="0 0 32 32" version="1.1" xmlns="http://www.w3.org/2000/svg" xmlns:xlink="http://www.w3.org/1999/xlink"><title>svg/icon/fjc</title><desc>Created with Sketch.</desc><defs><linearGradient x1="50%" y1="0%" x2="50%" y2="100%" id="linearGradient-1"><stop stop-color="#FFF" stop-opacity=".5" offset="0%"/><stop stop-color="#000" stop-opacity=".5" offset="100%"/></linearGradient><circle id="path-2" cx="15" cy="15" r="15"/><filter x="-5.8%" y="-4.2%" width="111.7%" height="111.7%" filterUnits="objectBoundingBox" id="filter-3"><feOffset dx="0" dy=".5" in="SourceAlpha" result="shadowOffsetOuter1"/><feGaussianBlur stdDeviation=".5" in="shadowOffsetOuter1" result="shadowBlurOuter1"/><feComposite in="shadowBlurOuter1" in2="SourceAlpha" operator="out" result="shadowBlurOuter1"/><feColorMatrix values="0 0 0 0 0 0 0 0 0 0 0 0 0 0 0 0 0 0 0.199473505 0" type="matrix" in="shadowBlurOuter1"/></filter></defs><g id="icon/fjc" stroke="none" stroke-width="1" fill="none" fill-rule="evenodd"><g id="Group" transform="translate(1.000000, 0.000000)" fill-rule="nonzero"><g id="Oval"><use fill="#000" fill-opacity="1" filter="url(#filter-3)" xlink:href="#path-2"/><use fill="#00AFEC" xlink:href="#path-2"/><use fill="url(#linearGradient-1)" style="mix-blend-mode:soft-light" xlink:href="#path-2"/><circle stroke-opacity=".097" stroke="#000" stroke-width="1" stroke-linejoin="square" cx="15" cy="15" r="14.5"/></g></g><g id="FujiCoin-(FJC)" transform="translate(5.000000, 4.000000)" fill="#FFF" fill-rule="nonzero"><path d="M14.947625,7.1754375 C14.991625,7.10359375 15.0321875,7.00665625 15.0734375,6.92415625 C16.0071435,5.27101198 16.4985021,3.40491477 16.5,1.5063125 C15.1848125,0.74765625 13.7950313,0.26984375 12.285625,0.10346875 C12.8435312,2.54409375 13.6362187,4.90634375 14.78125,7.13315625 L14.947625,7.1754375 Z" id="Shape"/><path d="M7.404375,6.7588125 L7.363125,6.74884375 L7.0434375,6.6763125 L7.0434375,6.67046875 L7.038625,6.67046875 L7.327375,5.41234375 C7.5405,5.45703125 7.753625,5.50859375 7.96675,5.56015625 L7.97121875,5.56015625 C8.74957946,3.80388404 9.35636932,1.97649225 9.783125,0.10346875 C7.81451118,0.32093432 5.94138062,1.06686076 4.3621875,2.26221875 L4.3621875,2.26565625 C1.67755598,4.29870139 0.0705615746,7.44823313 -2.84217094e-14,10.8150625 L-2.84217094e-14,11.0347188 C1.17406251,11.7095955 2.46120222,12.1650449 3.7984375,12.3787813 L3.8053125,12.3719063 C5.20855596,10.6391087 6.41656606,8.75694621 7.40746875,6.7595 L7.404375,6.7588125 Z" id="Shape"/><path d="M14.2914062,8.61471875 C14.5320312,8.743625 14.62175,8.9258125 14.7365625,9.28571875 C14.8946875,9.82884375 14.788125,10.3994688 14.6746875,10.9357187 L16.005,11.2450938 L16.335,9.81165625 C17.6776875,11.8793125 19.1678437,14.0136563 20.975625,15.6897813 C20.6480313,16.4350313 20.4452188,16.6949063 19.9615625,17.3500938 C17.0001562,16.4384688 13.8472812,15.9555 10.7490625,15.9854063 L11.01375,14.9266563 L10.1303125,14.7204063 C9.9928125,14.6860313 9.851875,14.6241563 9.769375,14.5038438 C9.66625,14.3663438 9.66625,14.1841563 9.700625,14.0225938 L10.2540625,11.6190938 C10.539375,11.6878438 10.8384375,11.7325313 11.1065625,11.8597188 C11.3606387,11.9617909 11.5508665,12.1788292 11.61875,12.4440938 C11.6909375,12.8084688 11.53625,13.1590938 11.474375,13.5097188 L12.66375,13.7847187 L13.6554688,9.48784375 L13.5550937,9.45346875 L13.4767187,9.43903125 C13.7517188,9.15028125 13.9923437,8.8935 14.2405313,8.57965625 L14.2914062,8.61471875 Z M3.8328125,12.6544688 L3.86134375,12.6152813 C4.09165625,12.6668438 4.269375,12.6475938 4.5065625,12.6716563 C5.3521875,12.7472813 6.17375,12.7644688 7.0159375,12.6441563 C7.08087165,12.6347198 7.14628963,12.6289814 7.211875,12.6269688 L7.0159375,13.3763438 C6.9815625,13.5241563 6.91625,13.6788438 6.7890625,13.7716563 C6.66163944,13.8563841 6.50453329,13.8838154 6.3559375,13.8472813 C6.0534375,13.7854063 5.7509375,13.7029063 5.445,13.6444688 C5.3521875,14.0638438 5.2525,14.4832188 5.15625,14.8991563 L7.1878125,15.3700938 C7.1053125,15.7482188 7.0846875,15.8513438 6.99875,16.2260313 C5.37659375,16.446375 3.5688125,16.8337813 2.0040625,17.3157188 C1.5228125,16.6625937 1.3165625,16.5044688 0.9934375,15.7585313 C2.022625,14.8042813 2.94834375,13.7441562 3.8328125,12.6544687 Z M8.5490625,15.6829063 L9.36375,15.8719688 L9.33625,16.0335313 L8.4665625,16.0954063 L8.5490625,15.6829063 Z" id="Shape"/><path d="M7.046875,12.4031875 C7.11035303,12.3941725 7.17426674,12.38855 7.23834375,12.3863438 L7.23834375,12.3825625 L8.28678125,7.8450625 C8.32803125,7.6388125 8.41053125,7.4325625 8.34521875,7.2263125 C8.31146335,7.12606491 8.24730009,7.03883171 8.16165625,6.97675 C8.15134375,6.96953125 8.1406875,6.963 8.1296875,6.95646875 C8.09692505,6.93717668 8.06239289,6.92106167 8.0265625,6.90834375 C8.014875,6.90421875 8.0031875,6.89975 7.9921875,6.89665625 C7.81859375,6.85025 7.951625,6.88325 7.7749375,6.8413125 C7.7556875,6.8371875 7.6676875,6.86709375 7.64809375,6.86296875 C6.66809256,8.83744304 5.47147251,10.6967639 4.0803125,12.406625 C4.310625,12.45475 4.2728125,12.441 4.503125,12.4650625 C5.35059261,12.542542 6.20417669,12.5217792 7.046875,12.4031875 Z" id="Shape"/><path d="M9.3775,5.88225 L9.3775,5.8856875 C9.5390625,5.2050625 9.6903125,4.521 9.8553125,3.840375 L11.2096875,4.1531875 L10.73875,6.1985 L11.55,6.3875625 C11.6308958,6.04725 11.7104167,5.70636458 11.7885625,5.36490625 L11.9064687,4.85340625 C11.9456562,4.68290625 11.9850729,4.51252083 12.0247187,4.34225 L13.3790937,4.651625 C13.3598437,4.74329167 13.3401354,4.83495833 13.3199687,4.926625 C13.1893437,5.51959375 13.04325,6.10671875 12.9122812,6.70175 L14.471875,7.06475 C13.3268437,4.8379375 12.5685312,2.50971875 12.010625,0.06909375 C11.66,0.02784375 11.5121875,0.04159375 11.158125,0.03471875 L10.9415625,0.03471875 C10.553125,0.03471875 10.40875,0.02440625 10.0271875,0.06909375 C9.598875,1.94184375 9.09321875,3.906375 8.31325,5.66225 L9.3775,5.88225 Z" id="Shape"/><polygon id="Shape" points="11.1753125 7.63228125 11.2203125 7.64228125 11.2253125 7.63228125"/><path d="M11.1784063,7.63159375 L10.5500312,10.3575313 C10.9405313,10.4434688 11.3482188,10.5864688 11.7490312,10.473375 C12.0108908,10.3907727 12.2144934,10.1833042 12.2921562,9.9199375 C12.3677813,9.6793125 12.4055937,9.4318125 12.4709062,9.1911875 L13.1346875,9.35996875 C13.16425,9.365125 13.1302187,9.38196875 13.149125,9.36271875 L13.165625,9.35034375 C13.440625,9.05471875 13.7534375,8.73159375 14.0009375,8.41878125 C13.5839688,8.20496875 13.1759375,8.0829375 12.7153125,7.98909375 L11.1784063,7.63159375 Z" id="Shape"/><path d="M21.05125,6.5594375 C20.1025,4.43884375 18.750875,2.8428125 16.740625,1.6781875 C16.7385625,3.57775 16.2817187,5.27278125 15.3484375,6.92725 C15.3044375,7.00871875 15.225375,7.16375 15.19375,7.24521875 C15.8228125,7.38271875 16.2146875,7.4669375 16.84375,7.607875 L16.84375,7.61440625 L16.438125,9.43628125 C17.77875,11.5022188 19.2740625,13.7778438 21.07875,15.4553438 C21.6547917,14.1424421 21.9677807,12.7293203 22,11.2959688 L22,10.7803438 C21.9650021,9.3245998 21.6425716,7.89013434 21.05125,6.5594375 Z" id="Shape"/><path d="M0,11.2753437 L0,11.4334687 C0.0213125,12.8992188 0.33446875,14.1050938 0.92125,15.4484688 C1.9525,14.4931875 2.7410625,13.6382813 3.6265625,12.5472188 C2.2928125,12.3347813 1.16875,11.9532188 0,11.2753437 Z" id="Shape"/><path d="M10.71125,16.2253438 L10.250625,18.2328438 L10.2475313,18.2328438 L8.88628125,17.9200313 L9.26440625,16.2738125 L8.39815625,16.3353438 L8.07846875,17.7309688 L8.075375,17.7309688 L6.714125,17.4181563 C6.782875,17.1087813 6.851625,16.806625 6.92725,16.5006875 C5.30590074,16.7213029 3.70532828,17.074252 2.1415625,17.556 C4.17626869,20.3174413 7.38138814,21.9732502 10.8109375,22.0347188 L11.26125,22.0347188 C14.6642204,21.9468172 17.8363978,20.2941393 19.8584375,17.5556563 C16.8961128,16.643646 13.8106377,16.1949128 10.71125,16.2253438 Z" id="Shape"/></g></g></svg>