<svg height="32" viewBox="0 0 32 32" width="32" xmlns="http://www.w3.org/2000/svg" xmlns:xlink="http://www.w3.org/1999/xlink"><defs><linearGradient id="a" x1="50%" x2="50%" y1="0%" y2="100%"><stop offset="0" stop-color="#fff" stop-opacity=".5"/><stop offset="1" stop-opacity=".5"/></linearGradient><circle id="b" cx="16" cy="15" r="15"/><filter id="c" height="111.7%" width="111.7%" x="-5.8%" y="-4.2%"><feOffset dy=".5" in="SourceAlpha" result="shadowOffsetOuter1"/><feGaussianBlur in="shadowOffsetOuter1" result="shadowBlurOuter1" stdDeviation=".5"/><feComposite in="shadowBlurOuter1" in2="SourceAlpha" operator="out" result="shadowBlurOuter1"/><feColorMatrix in="shadowBlurOuter1" values="0 0 0 0 0   0 0 0 0 0   0 0 0 0 0  0 0 0 0.199473505 0"/></filter><path id="d" d="m25 10.8441064c-.9310345-.97535954-2.8448276-1.79255266-6.4137931-2.29341295-1.1637931-.15816641-2.3017241-.28997175-3.387931-.36905496-.8793104-.05272213-1.7327587-.10544427-2.5603449-.10544427-1.3706896 2.05616328-2.66379307 4.53410368-3.8017241 7.51290448-1.24137931 3.2687724-2.35344828 6.4848227-3.12931035 9.4109013h-.23275862c.07758621-3.1369671.59482759-6.6957113 1.65517241-10.3862609.69827587-2.3988572 1.52586207-4.5077426 2.45689656-6.3530174-4.18965518.44813816-7.18965518 1.7398305-8.5862069 3.5851053 1.18965517-2.9260786 4.73275862-5.40401901 10.137931-6.27393426 2.8706897-4.29685411 6.2586207-6.22121209 9.0775862-5.37765791.9827587.28997175 1.8103449.92263739 2.4827587 1.8189137-.0775862-.05272213-.1551725-.10544427-.2586207-.13180534-2.0689655-.84355418-4.862069.36905496-7.5775862 3.37421673h.1293103c6.0775862-.02636107 9.1551724 2.55702362 10.0086207 5.58854648zm-7.6034483 3.9541602c1.6551724 0 3 1.3971366 3 3.1106061 0 1.7134694-1.3448276 3.110606-3 3.110606s-3-1.3971366-3-3.110606c0-1.7398305 1.3448276-3.1106061 3-3.1106061z"/><filter id="e" height="114%" width="114.6%" x="-7.3%" y="-5%"><feOffset dy=".5" in="SourceAlpha" result="shadowOffsetOuter1"/><feGaussianBlur in="shadowOffsetOuter1" result="shadowBlurOuter1" stdDeviation=".5"/><feColorMatrix in="shadowBlurOuter1" values="0 0 0 0 0   0 0 0 0 0   0 0 0 0 0  0 0 0 0.204257246 0"/></filter></defs><g fill="none" fill-rule="evenodd"><use fill="#000" filter="url(#c)" xlink:href="#b"/><use fill="#1d9ad7" xlink:href="#b"/><use fill="url(#a)" xlink:href="#b"/><circle cx="16" cy="15" r="14.5" stroke="#000" stroke-opacity=".097"/><use fill="#000" filter="url(#e)" xlink:href="#d"/><use fill="#fff" xlink:href="#d"/></g></svg>