<svg height="32" viewBox="0 0 32 32" width="32" xmlns="http://www.w3.org/2000/svg" xmlns:xlink="http://www.w3.org/1999/xlink"><defs><linearGradient id="a" x1="50%" x2="50%" y1="0%" y2="100%"><stop offset="0" stop-color="#fff" stop-opacity=".5"/><stop offset="1" stop-opacity=".5"/></linearGradient><circle id="b" cx="16" cy="15" r="15"/><filter id="c" height="111.7%" width="111.7%" x="-5.8%" y="-4.2%"><feOffset dy=".5" in="SourceAlpha" result="shadowOffsetOuter1"/><feGaussianBlur in="shadowOffsetOuter1" result="shadowBlurOuter1" stdDeviation=".5"/><feComposite in="shadowBlurOuter1" in2="SourceAlpha" operator="out" result="shadowBlurOuter1"/><feColorMatrix in="shadowBlurOuter1" values="0 0 0 0 0   0 0 0 0 0   0 0 0 0 0  0 0 0 0.199473505 0"/></filter><path id="d" d="m25.5324213 9h-6.4954856l-1.925855 4.8294595h-6.0738714v-2.4864865h6.0738714l.8889193-2.342973h-9.19753762c-.23859306 0-.43201094.19106551-.43201094.42675676v4.40270274h-1.48153215l-.88891929 2.3416216h2.37045144v4.3964865c0 .2388258.19599026.4324324.43775649.4324324h4.45116277l.8886457-2.3413514h-3.1110807v-2.4875675h5.0372093l-1.9261286 4.8289189h2.9630643l2.074145-4.8291892h6.3794802c.2402995.0000001.4351431-.1923528.4352941-.4297297v-6.27918921c0-.25509585-.2093421-.46189189-.4675787-.46189189zm-2.0495212 4.4594595c0 .2046438-.1679391.3705405-.3751026.3705405h-3.0336525l1.0369357-2.4864865h1.9953488c.2069069-.0008978.3754154.1639887.3764706.3683784z"/><filter id="e" height="129.2%" width="117.5%" x="-8.8%" y="-10.4%"><feOffset dy=".5" in="SourceAlpha" result="shadowOffsetOuter1"/><feGaussianBlur in="shadowOffsetOuter1" result="shadowBlurOuter1" stdDeviation=".5"/><feColorMatrix in="shadowBlurOuter1" values="0 0 0 0 0   0 0 0 0 0   0 0 0 0 0  0 0 0 0.204257246 0"/></filter></defs><g fill="none"><use fill="#000" filter="url(#c)" xlink:href="#b"/><use fill="#4096d0" fill-rule="evenodd" xlink:href="#b"/><use fill="url(#a)" fill-rule="evenodd" xlink:href="#b"/><circle cx="16" cy="15" r="14.5" stroke="#000" stroke-opacity=".097"/><use fill="#000" filter="url(#e)" xlink:href="#d"/><use fill="#fff" fill-rule="evenodd" xlink:href="#d"/></g></svg>