<svg xmlns="http://www.w3.org/2000/svg" xmlns:xlink="http://www.w3.org/1999/xlink" width="32" height="32" viewBox="0 0 32 32"><defs><linearGradient id="gas-c" x1="50%" x2="50%" y1="0%" y2="100%"><stop offset="0%" stop-color="#FFF" stop-opacity=".5"/><stop offset="100%" stop-opacity=".5"/></linearGradient><circle id="gas-b" cx="16" cy="15" r="15"/><filter id="gas-a" width="111.7%" height="111.7%" x="-5.8%" y="-4.2%" filterUnits="objectBoundingBox"><feOffset dy=".5" in="SourceAlpha" result="shadowOffsetOuter1"/><feGaussianBlur in="shadowOffsetOuter1" result="shadowBlurOuter1" stdDeviation=".5"/><feComposite in="shadowBlurOuter1" in2="SourceAlpha" operator="out" result="shadowBlurOuter1"/><feColorMatrix in="shadowBlurOuter1" values="0 0 0 0 0 0 0 0 0 0 0 0 0 0 0 0 0 0 0.199473505 0"/></filter><path id="gas-e" d="M25,21.5792095 L18.0093653,18.3222295 L18.0093653,11.1025447 L25,8.62203372 L25,21.5792095 Z M14.823082,25 L8,21.820976 L8,8.95789691 L14.823082,12.138638 L14.823082,25 Z M24.8324472,8.15738865 L24.720166,8.19722518 L18.0093653,10.5781449 L17.8418125,10.6378997 L14.9989776,11.646176 L8.26975299,8.51007933 L17.8418125,5.1140149 L17.9255889,5.0841375 L18.1032226,5.02129194 L18.165099,5 L24.8943236,8.13575329 L24.8324472,8.15738865 Z"/><filter id="gas-d" width="120.6%" height="117.5%" x="-10.3%" y="-6.2%" filterUnits="objectBoundingBox"><feOffset dy=".5" in="SourceAlpha" result="shadowOffsetOuter1"/><feGaussianBlur in="shadowOffsetOuter1" result="shadowBlurOuter1" stdDeviation=".5"/><feColorMatrix in="shadowBlurOuter1" values="0 0 0 0 0 0 0 0 0 0 0 0 0 0 0 0 0 0 0.204257246 0"/></filter></defs><g fill="none" fill-rule="evenodd"><use fill="#000" filter="url(#gas-a)" xlink:href="#gas-b"/><use fill="#58BF00" xlink:href="#gas-b"/><use fill="url(#gas-c)" style="mix-blend-mode:soft-light" xlink:href="#gas-b"/><circle cx="16" cy="15" r="14.5" stroke="#000" stroke-opacity=".097"/><g fill-rule="nonzero"><use fill="#000" filter="url(#gas-d)" xlink:href="#gas-e"/><use fill="#FFF" fill-rule="evenodd" xlink:href="#gas-e"/></g></g></svg>