<svg height="32" viewBox="0 0 32 32" width="32" xmlns="http://www.w3.org/2000/svg" xmlns:xlink="http://www.w3.org/1999/xlink"><defs><linearGradient id="a" x1="50%" x2="50%" y1="0%" y2="100%"><stop offset="0" stop-color="#fff" stop-opacity=".5"/><stop offset="1" stop-opacity=".5"/></linearGradient><circle id="b" cx="16" cy="15" r="15"/><filter id="c" height="111.7%" width="111.7%" x="-5.8%" y="-4.2%"><feOffset dy=".5" in="SourceAlpha" result="shadowOffsetOuter1"/><feGaussianBlur in="shadowOffsetOuter1" result="shadowBlurOuter1" stdDeviation=".5"/><feComposite in="shadowBlurOuter1" in2="SourceAlpha" operator="out" result="shadowBlurOuter1"/><feColorMatrix in="shadowBlurOuter1" values="0 0 0 0 0   0 0 0 0 0   0 0 0 0 0  0 0 0 0.199473505 0"/></filter><path id="d" d="m15.6985697 10.0061376v2.0605902h-4.7004694c-.60923 0-1.36022159.2129653-1.91887078.6095544-.69305481.4920046-1.07952442 1.2283332-1.07952442 2.3267866s.38646961 1.8347819 1.07952442 2.3267866c.55864919.3965891 1.30964078.6095544 1.91887078.6095544h2.0008676v2.0605902h-2.0008676c-.9940952 0-2.14021024-.325014-3.05336137-.9732666-1.2275322-.871434-1.94473893-2.2379058-1.94473893-4.0236646s.71720673-3.1522306 1.94473893-4.0236646c.91315113-.6482527 2.05926617-.9732666 3.05336137-.9732666zm-4.9992627 6.1817705v-2.0605901h5.0005781v5.872682h-1.9997051v-3.8120919zm8.2987762-4.1273179v-2.0605902h7.0019168v10h-9.0016219v-7.9332722h1.9997051v5.872682h5.0022117v-5.8788196z"/><filter id="e" height="135%" width="117.5%" x="-8.8%" y="-12.5%"><feOffset dy=".5" in="SourceAlpha" result="shadowOffsetOuter1"/><feGaussianBlur in="shadowOffsetOuter1" result="shadowBlurOuter1" stdDeviation=".5"/><feColorMatrix in="shadowBlurOuter1" values="0 0 0 0 0   0 0 0 0 0   0 0 0 0 0  0 0 0 0.204257246 0"/></filter></defs><g fill="none" fill-rule="evenodd"><use fill="#000" filter="url(#c)" xlink:href="#b"/><use fill="#1666af" xlink:href="#b"/><use fill="url(#a)" xlink:href="#b"/><circle cx="16" cy="15" r="14.5" stroke="#000" stroke-opacity=".097"/><g fill-rule="nonzero"><use fill="#000" filter="url(#e)" xlink:href="#d"/><use fill="#fff" fill-rule="evenodd" xlink:href="#d"/></g></g></svg>