<?xml version="1.0" standalone="no"?>
<!DOCTYPE svg PUBLIC "-//W3C//DTD SVG 20010904//EN"
 "http://www.w3.org/TR/2001/REC-SVG-20010904/DTD/svg10.dtd">
<svg version="1.0" xmlns="http://www.w3.org/2000/svg"
 width="200.000000pt" height="200.000000pt" viewBox="0 0 200.000000 200.000000"
 preserveAspectRatio="xMidYMid meet">

<g transform="translate(0.000000,200.000000) scale(0.100000,-0.100000)"
fill="#000000" stroke="none">
<path d="M0 1000 l0 -1000 1000 0 1000 0 0 1000 0 1000 -1000 0 -1000 0 0
-1000z m1090 570 l0 -80 137 0 138 0 -90 -90 -90 -90 -227 0 -228 0 0 -173 0
-172 90 -90 90 -90 0 173 0 172 90 0 90 0 2 -166 3 -166 88 82 87 82 0 82 0
81 90 90 90 90 0 -209 0 -209 -180 -174 -180 -175 0 -78 0 -78 -47 -41 -47
-42 -43 43 c-43 42 -43 42 -43 115 l0 73 -185 181 -185 182 0 298 0 299 185 0
185 0 0 80 0 80 90 0 90 0 0 -80z"/>
</g>
</svg>
