<?xml version="1.0" encoding="UTF-8"?>
<svg width="32px" height="32px" viewBox="0 0 32 32" version="1.1" xmlns="http://www.w3.org/2000/svg" xmlns:xlink="http://www.w3.org/1999/xlink">
    <!-- Generator: Sketch 53 (72520) - https://sketchapp.com -->
    <title>svg/icon/gin</title>
    <desc>Created with Sketch.</desc>
    <defs>
        <linearGradient x1="50%" y1="0%" x2="50%" y2="100%" id="linearGradient-1">
            <stop stop-color="#FFFFFF" stop-opacity="0.5" offset="0%"></stop>
            <stop stop-color="#000000" stop-opacity="0.5" offset="100%"></stop>
        </linearGradient>
        <circle id="path-2" cx="15" cy="15" r="15"></circle>
        <filter x="-5.8%" y="-4.2%" width="111.7%" height="111.7%" filterUnits="objectBoundingBox" id="filter-3">
            <feOffset dx="0" dy="0.5" in="SourceAlpha" result="shadowOffsetOuter1"></feOffset>
            <feGaussianBlur stdDeviation="0.5" in="shadowOffsetOuter1" result="shadowBlurOuter1"></feGaussianBlur>
            <feComposite in="shadowBlurOuter1" in2="SourceAlpha" operator="out" result="shadowBlurOuter1"></feComposite>
            <feColorMatrix values="0 0 0 0 0   0 0 0 0 0   0 0 0 0 0  0 0 0 0.199473505 0" type="matrix" in="shadowBlurOuter1"></feColorMatrix>
        </filter>
    </defs>
    <g id="icon/gin" stroke="none" stroke-width="1" fill="none" fill-rule="evenodd">
        <g id="Group" transform="translate(1.000000, 0.000000)" fill-rule="nonzero">
            <g id="Oval">
                <use fill="black" fill-opacity="1" filter="url(#filter-3)" xlink:href="#path-2"></use>
                <use fill="#008DDE" xlink:href="#path-2"></use>
                <use fill="url(#linearGradient-1)" style="mix-blend-mode: soft-light;" xlink:href="#path-2"></use>
                <circle stroke-opacity="0.0970052083" stroke="#000000" stroke-width="1" stroke-linejoin="square" cx="15" cy="15" r="14.5"></circle>
            </g>
        </g>
        <g id="gin" transform="translate(5.000000, 5.000000)" fill="#FFFFFF" fill-rule="nonzero">
            <path d="M18.3595408,11.2990666 C18.7274138,11.2990666 19.0256195,11.000861 19.0256195,10.6329879 C19.0256195,10.2651149 18.7274138,9.96690921 18.3595408,9.96690921 L16.8390518,9.96690921 L16.8390518,8.46198698 L20.0203122,8.46198698 C20.3881853,8.46198698 20.686391,8.16378129 20.686391,7.79590826 C20.686391,7.42803524 20.3881853,7.12982955 20.0203122,7.12982955 L16.825555,7.12982955 C16.6952371,5.65725996 15.5748888,4.46545796 14.1359478,4.2258613 L14.1359478,2.6225485 C14.1359478,2.25467547 13.8377421,1.95646978 13.4698691,1.95646978 C13.1019961,1.95646978 12.8037904,2.25467547 12.8037904,2.6225485 L12.8037904,4.1811744 L11.2989532,4.1811744 L11.2989532,0.678230692 C11.2989532,0.310357665 11.0007759,0.012151974 10.6329029,0.012151974 C10.2650298,0.012151974 9.96679579,0.310357665 9.96679579,0.678230692 L9.96679579,4.1811744 L8.46201534,4.1811744 L8.46201534,2.6225485 C8.46198698,2.25467547 8.16378129,1.95646978 7.79590826,1.95646978 C7.42803524,1.95646978 7.12982955,2.25467547 7.12982955,2.6225485 L7.12982955,4.22583295 C5.6908602,4.46542961 4.57048353,5.65723161 4.44022234,7.12980119 L0.678429175,7.12980119 C0.310556147,7.12980119 0.0123504565,7.42800688 0.0123504565,7.79587991 C0.0123504565,8.16375294 0.310556147,8.46195863 0.678429175,8.46195863 L4.42678224,8.46195863 L4.42678224,9.96688085 L2.90629332,9.96688085 C2.5384203,9.96688085 2.24021461,10.2650865 2.24021461,10.6329596 C2.24021461,11.0008326 2.5384203,11.2990383 2.90629332,11.2990383 L4.42678224,11.2990383 L4.42678224,12.8039322 L1.52906821,12.8039322 C1.16119518,12.8039322 0.862989491,13.1021378 0.862989491,13.4700109 C0.862989491,13.8378839 1.16119518,14.1360896 1.52906821,14.1360896 L4.44027905,14.1360896 C4.57054024,15.6086025 5.69094527,16.8004328 7.12988626,17.0399728 L7.12988626,18.0763063 C7.12988626,18.4441793 7.42809195,18.742385 7.79596497,18.742385 C8.163838,18.742385 8.46204369,18.4441793 8.46204369,18.0763063 L8.46204369,17.0846313 L9.96682414,17.0846313 L9.96682414,20.1016373 C9.96682414,20.4695103 10.2650582,20.767716 10.6329312,20.767716 C11.0008042,20.767716 11.2990099,20.4695103 11.2990099,20.1016373 L11.2990099,17.0846313 L12.8038471,17.0846313 L12.8038471,18.643399 C12.8038471,19.011272 13.1020528,19.3094777 13.4699258,19.3094777 C13.8377988,19.3094777 14.1360045,19.011272 14.1360045,18.643399 L14.1360045,17.0400862 C15.5749739,16.8005462 16.6953222,15.6087442 16.8256117,14.136203 L21.2355675,14.136203 C21.6034405,14.136203 21.9016462,13.8379973 21.9016462,13.4701243 C21.9016462,13.1022513 21.6034405,12.8040456 21.2355675,12.8040456 L16.8391085,12.8040456 L16.8391085,11.2991517 L18.3595408,11.2991517 L18.3595408,11.2990666 Z M15.7751576,13.8487721 C15.7751576,15.0464151 14.8007789,16.0207938 13.6029941,16.0207938 L7.66281161,16.0207938 C6.4650835,16.0207938 5.49070484,15.0464718 5.49070484,13.8487721 L5.49070484,7.41709035 C5.49070484,6.21939059 6.4650835,5.24501193 7.66281161,5.24501193 L13.6029941,5.24501193 C14.8007222,5.24501193 15.7751576,6.21939059 15.7751576,7.41709035 L15.7751576,13.8487721 Z" id="path22579"></path>
            <path d="M9.07588276,6.81496148 C8.81820425,6.81355723 8.56070361,6.81730191 8.30456276,6.84186233 C7.90028935,6.88739765 7.60177978,7.25480701 7.58910169,7.65274488 C7.56888042,8.5546185 7.58563786,9.45770914 7.58018467,10.3600625 C7.59268254,10.8205155 7.54919978,11.2852608 7.61600957,11.7417702 C7.6816468,12.1486579 8.07938574,12.4100483 8.47454318,12.4095802 C9.70261127,12.4180057 10.9309836,12.4127164 12.1592085,12.4136759 L12.1592085,12.9222574 L8.20497765,12.9222574 C8.03538105,13.4310332 7.86586637,13.939823 7.6962768,14.4485987 L11.632044,14.4485987 C12.0924994,14.4361242 12.55724,14.4796889 13.0137517,14.4128908 C13.420637,14.3472536 13.6820321,13.949517 13.681564,13.5543619 C13.6907853,11.9476551 13.6827342,10.3405551 13.6855194,8.73371254 C13.6710789,8.30193212 13.7235068,7.86344403 13.636787,7.43801552 C13.543603,7.0041451 13.078874,6.79096744 12.6680006,6.81700935 L9.84873574,6.81700935 C9.59145978,6.8222051 9.3335285,6.81607318 9.07585467,6.81490297 L9.07588276,6.81496148 Z M9.10652127,8.34335531 L12.1592062,8.34335531 L12.1592062,10.88722 L9.10652127,10.88722 L9.10652127,8.34335531 Z" id="path22617"></path>
        </g>
    </g>
</svg>