<svg height="32" viewBox="0 0 32 32" width="32" xmlns="http://www.w3.org/2000/svg" xmlns:xlink="http://www.w3.org/1999/xlink"><defs><linearGradient id="a" x1="50%" x2="50%" y1="0%" y2="100%"><stop offset="0" stop-color="#fff" stop-opacity=".5"/><stop offset="1" stop-opacity=".5"/></linearGradient><circle id="b" cx="16" cy="15" r="15"/><filter id="c" height="111.7%" width="111.7%" x="-5.8%" y="-4.2%"><feOffset dy=".5" in="SourceAlpha" result="shadowOffsetOuter1"/><feGaussianBlur in="shadowOffsetOuter1" result="shadowBlurOuter1" stdDeviation=".5"/><feComposite in="shadowBlurOuter1" in2="SourceAlpha" operator="out" result="shadowBlurOuter1"/><feColorMatrix in="shadowBlurOuter1" values="0 0 0 0 0   0 0 0 0 0   0 0 0 0 0  0 0 0 0.199473505 0"/></filter><path id="d" d="m24.7772063 9.5.1994814.33110368c.9974069 1.67391302 1.5233123 3.58695652 1.5233123 5.53678932-.0181347 5.867893-4.7150142 10.632107-10.4999739 10.632107h-.0181347c-5.7849597 0-10.49997393-4.8010033-10.48183926-10.6688963 0-1.9682274.5440401-3.8812709 1.54144695-5.53678932l.1813467-.31270903.96113751.97491635c-.1813467.2759198-.34455873.5702342-.45336675.9013378-.76165614 2.1153846.32642406 4.451505 2.43004575 5.2240803 1.2512923.4414716 2.5751232.2391304 3.6087994-.4598662l2.2305644 2.2809364 2.5569884-2.5936455c.2357507.1655519.5077708.2943144.7979255.4046823 2.0492177.735786 4.2979168-.3494983 5.0233036-2.409699.4352321-1.2140468.2357507-2.4832776-.3989627-3.4949833zm-15.41446945 2.1521739 3.01035525 3.0351171c-.3626934.2943144-.8160602.4598662-1.3056963.4598662-1.17875352 0-2.13989103-.9749164-2.13989103-2.1705686 0-.4966555.16321203-.9565217.43523208-1.3244147zm10.49997395 2.8511706 2.9740859-3.0167224c.2357507.3494983.3626934.7725752.3626934 1.2140468 0 1.1956522-.9611376 2.1705686-2.1398911 2.1705686-.4533668 0-.8523295-.1287626-1.1968882-.367893zm-3.8264154 2.2809364-8.66837225-8.8294314.34455873-.36789298c2.13989106-2.2993311 5.05957292-3.58695652 8.19687082-3.58695652h.0181347c3.1735672 0 6.2201918 1.37959866 8.3419482 3.77090301l.326424.36789298zm-7.25386799-8.8294314 7.25386799 7.3762542 7.1631947-7.22909701c-1.9222751-1.94983278-4.5336675-3.07190636-7.253868-3.07190636h-.0181347c-2.7020658 0-5.222785 1.03010034-7.14505999 2.92474917z"/><filter id="e" height="115.9%" width="116.7%" x="-8.3%" y="-5.7%"><feOffset dy=".5" in="SourceAlpha" result="shadowOffsetOuter1"/><feGaussianBlur in="shadowOffsetOuter1" result="shadowBlurOuter1" stdDeviation=".5"/><feColorMatrix in="shadowBlurOuter1" values="0 0 0 0 0   0 0 0 0 0   0 0 0 0 0  0 0 0 0.204257246 0"/></filter></defs><g fill="none" fill-rule="evenodd"><use fill="#000" filter="url(#c)" xlink:href="#b"/><use fill="#00a6c4" xlink:href="#b"/><use fill="url(#a)" xlink:href="#b"/><circle cx="16" cy="15" r="14.5" stroke="#000" stroke-opacity=".097"/><g fill-rule="nonzero"><use fill="#000" filter="url(#e)" xlink:href="#d"/><use fill="#fff" fill-rule="evenodd" xlink:href="#d"/></g></g></svg>