<svg height="32" viewBox="0 0 32 32" width="32" xmlns="http://www.w3.org/2000/svg" xmlns:xlink="http://www.w3.org/1999/xlink"><defs><linearGradient id="a" x1="50%" x2="50%" y1="0%" y2="100%"><stop offset="0" stop-color="#fff" stop-opacity=".5"/><stop offset="1" stop-opacity=".5"/></linearGradient><circle id="b" cx="16" cy="15" r="15"/><filter id="c" height="111.7%" width="111.7%" x="-5.8%" y="-4.2%"><feOffset dy=".5" in="SourceAlpha" result="shadowOffsetOuter1"/><feGaussianBlur in="shadowOffsetOuter1" result="shadowBlurOuter1" stdDeviation=".5"/><feComposite in="shadowBlurOuter1" in2="SourceAlpha" operator="out" result="shadowBlurOuter1"/><feColorMatrix in="shadowBlurOuter1" values="0 0 0 0 0   0 0 0 0 0   0 0 0 0 0  0 0 0 0.199473505 0"/></filter><path id="d" d="m16.0527013 4c.5300819.319 1.0560571.645315 1.5910668.95579 2.5340551 1.47048 5.0699718 2.93777 7.6076954 4.40187.1670023.096305.2408666.203555.2405929.408595-.0048732 3.49206-.0035591 6.98412.0079394 10.476125.0007666.227865-.10387.32263-.2698319.41866-3.016774 1.74636-6.0322338 3.495085-9.0475293 5.243975-.0461036.026785-.0867317.06314-.1299333.094985h-.1095097c-.9109019-.53625-1.8193398-1.076845-2.7332532-1.607815-2.1539468-1.25147-4.30931723-2.500465-6.4681372-3.74341-.18271697-.10516-.24234502-.22462-.24179747-.434555.00908931-3.46434.01242935-6.92868.00481843-10.39302-.00054755-.248655.08530807-.373505.28921518-.49104 2.98857516-1.722985 5.97309846-3.45312 8.95767646-5.18309.0689912-.039985.1279074-.09768.1914778-.14707zm2.8062086 17.4795665c.4133993.283415.8171616.58102 1.2330248.880385.0231065-.010725.056945-.023485.0878268-.041305 1.3510215-.780725 2.7032476-1.559415 4.0488483-2.34949.0795041-.046695.1503021-.184745.1505211-.280445.0069539-3.125375.0060778-6.250805-.0028472-9.37618-.0002738-.093775-.0758903-.22781-.1559966-.27489-1.3297219-.78122-2.6672737-1.548965-3.9981453-2.32826-.1384203-.08107-.2153509-.05599-.3316502.03476-.323656.25256-3.4991643 2.19296-4.7436876 2.9392-.9718988.58278-1.9220599 1.196415-2.6742275 2.070695-1.0365643 1.20483-1.1331518 2.87518-.2270136 4.18539.4494279.64988 1.0479533 1.143285 1.6910492 1.58257.5109176.348975 1.0386997.67287 1.5596375 1.00837-.0144553.019415-.0220662.038995-.0361382.04719-.686407.398805-1.3709523.80113-2.0643131 1.18734-.0663082.037015-.2053855.000715-.281659-.047685-.7435163-.472065-1.4050646-1.042855-2.0138291-1.68102-1.72965138-1.81313-2.08205368-4.785935-.8204469-6.95497.5913525-1.01662 1.3918139-1.84712 2.3606464-2.481215 1.25865-.82379 4.7694771-2.9073 5.2340173-3.191595-.0394782-.052085-.0509768-.080685-.0719479-.09295-.5514909-.32252-1.100518-.649715-1.6601126-.957385-.081092-.044605-.2309013-.027665-.3196042.018095-.3077771.15862-.6029605.34188-.9023054.51689-.2639732.154275-.5270155.310035-.8299742.488455.5029782.31614.9603456.60368 1.438465.904255-.7347007.434335-1.4304708.84975-2.1330852 1.253285-.0557952.032065-.1758726.007095-.2365957-.03465-.3458317-.237655-.6911707-.47773-1.0186595-.73964-.1444433-.1155-.2410856-.127215-.4031053-.03223-1.3069986.765875-2.61947261 1.522455-3.93353456 2.27612-.14493612.08316-.19229908.180785-.1920253.34804.00470892 3.09793.00377808 6.195805-.00136887 9.29379-.00027378.165055.04369438.26323.19246334.34859 1.3056297.74932 2.60742659 1.50535 3.90664989 2.26589.1445529.084535.2392788.081235.3847625-.01606.9319825-.62326 5.1963459-3.29593 6.3815149-4.03249.2012242-.12507.3689931-.30448.5523123-.45881-.0101844-.023045-.0203688-.046145-.0305532-.069245h-4.425507c.4504135-.78254.8692335-1.52086 1.3048631-2.249005.0395878-.066165.1873164-.09405.2848896-.094325 2.0074228-.005005 4.0147908-.00352 6.0222136-.002585.0800516.000055.1601579.00825.2568003.01353.0044351.094765.0268298.179135.0088703.253825-.1318498.5489-.2201146 1.115785-.4194771 1.63955-.4745603 1.24663-1.3532664 2.20484-2.4247095 2.94217-1.1703852.805365-4.8944277 3.000195-5.5270654 3.37744.0297867.05302.0345503.07513.0476915.082885.3844339.227535.7975046.417395 1.1482095.688655.5051683.390665.9450689.38819 1.4509491.00022.363408-.278685.7890723-.47542 1.2308345-.734415-.513272-.32087-.9819737-.61391-1.464145-.91531.0401901-.035365.0628586-.06281.0916597-.079585.6706923-.389235 1.339961-.781 2.0165668-1.15962.0632966-.035475.1936679-.016555.2584429.027775zm2.893904-9.336415c.3447367.61149.6020298 1.39843.6398654 2.006235-.6772629 0-1.3320763.00341-1.9867255-.00572-.059847-.000825-.1540802-.0704-.1726421-.1276-.3200421-.98813-1.0032185-1.690205-1.8095934-2.279585-.5735024-.419155-1.1833621-.788205-1.7768501-1.17986-.0499911-.033-.0986135-.06809-.1793769-.124025.134478-.080575.2404286-.14564.3478577-.20812.55171-.32098 1.1002442-.64779 1.6590723-.95579.1004752-.055385.281221-.08965.3617106-.03674 1.1692901.768845 2.2152722 1.66705 2.916682 2.911205z"/><filter id="e" height="115.9%" width="118.4%" x="-9.2%" y="-5.7%"><feOffset dy=".5" in="SourceAlpha" result="shadowOffsetOuter1"/><feGaussianBlur in="shadowOffsetOuter1" result="shadowBlurOuter1" stdDeviation=".5"/><feColorMatrix in="shadowBlurOuter1" values="0 0 0 0 0   0 0 0 0 0   0 0 0 0 0  0 0 0 0.204257246 0"/></filter></defs><g fill="none" fill-rule="evenodd"><use fill="#000" filter="url(#c)" xlink:href="#b"/><use fill="#5411b3" xlink:href="#b"/><use fill="url(#a)" xlink:href="#b"/><circle cx="16" cy="15" r="14.5" stroke="#000" stroke-opacity=".097"/><use fill="#000" filter="url(#e)" xlink:href="#d"/><use fill="#fff" xlink:href="#d"/></g></svg>