<?xml version="1.0" encoding="UTF-8"?>
<svg width="32px" height="32px" viewBox="0 0 32 32" version="1.1" xmlns="http://www.w3.org/2000/svg" xmlns:xlink="http://www.w3.org/1999/xlink">
    <!-- Generator: Sketch 53 (72520) - https://sketchapp.com -->
    <title>svg/icon/grin</title>
    <desc>Created with Sketch.</desc>
    <defs>
        <linearGradient x1="50%" y1="0%" x2="50%" y2="100%" id="linearGradient-1">
            <stop stop-color="#FFFFFF" stop-opacity="0.5" offset="0%"></stop>
            <stop stop-color="#000000" stop-opacity="0.5" offset="100%"></stop>
        </linearGradient>
        <circle id="path-2" cx="15" cy="15" r="15"></circle>
        <filter x="-5.8%" y="-4.2%" width="111.7%" height="111.7%" filterUnits="objectBoundingBox" id="filter-3">
            <feOffset dx="0" dy="0.5" in="SourceAlpha" result="shadowOffsetOuter1"></feOffset>
            <feGaussianBlur stdDeviation="0.5" in="shadowOffsetOuter1" result="shadowBlurOuter1"></feGaussianBlur>
            <feComposite in="shadowBlurOuter1" in2="SourceAlpha" operator="out" result="shadowBlurOuter1"></feComposite>
            <feColorMatrix values="0 0 0 0 0   0 0 0 0 0   0 0 0 0 0  0 0 0 0.199473505 0" type="matrix" in="shadowBlurOuter1"></feColorMatrix>
        </filter>
    </defs>
    <g id="icon/grin" stroke="none" stroke-width="1" fill="none" fill-rule="evenodd">
        <g id="Group" transform="translate(1.000000, 0.000000)" fill-rule="nonzero">
            <g id="Oval">
                <use fill="black" fill-opacity="1" filter="url(#filter-3)" xlink:href="#path-2"></use>
                <use fill="#FFF300" xlink:href="#path-2"></use>
                <use fill="url(#linearGradient-1)" style="mix-blend-mode: soft-light;" xlink:href="#path-2"></use>
                <circle stroke-opacity="0.0970052083" stroke="#000000" stroke-width="1" stroke-linejoin="square" cx="15" cy="15" r="14.5"></circle>
            </g>
        </g>
        <g id="grin" transform="translate(5.000000, 4.000000)" fill="#FFFFFF" fill-rule="nonzero">
            <path d="M17.0866574,4.56793554 C16.7758211,3.80672409 16.4862268,2.30280634 15.6891165,1.96838011 C14.6629286,1.5379272 14.0285719,4.35604335 13.8774327,5.06807447 L13.7246124,5.06807447 C13.4658878,3.84806891 13.1186802,2.11892192 11.8907697,1.73381495 C11.3222785,4.33853848 12.4846291,7.14848569 13.5717922,9.40261184 C14.7326147,8.79744373 15.2982023,6.90225063 15.4056349,5.56821339 L15.5584552,5.56821339 L16.781017,9.56932481 C17.764568,9.26090581 18.1067325,8.19911086 18.4618867,7.23534315 C19.2243068,5.16676855 19.8640123,2.62272854 19.3789609,0.400111142 C17.9111226,0.853570436 17.4645819,3.14337316 17.0866574,4.56793554 L17.0866574,4.56793554 Z M2.41591557,9.90275076 C3.72940543,9.21856071 4.35444016,7.05295916 4.55539876,5.56821339 L4.70821899,5.56821339 C4.86363716,6.2839122 5.27915536,8.13025841 6.09888306,8.24879133 C7.1432565,8.39949986 7.69081138,5.8714643 7.76462355,5.06807447 L7.91744378,5.06807447 C8.25043905,6.32325646 8.6013143,7.95554321 9.75128651,8.56904696 C10.1755155,6.62517366 9.66754103,4.5520978 9.01591557,2.7340928 C8.8484246,2.26662962 8.50442627,1.00627952 7.91362327,1.00627952 C6.94565995,1.00627952 6.40146712,3.78971937 6.23642127,4.56793554 L6.08360104,4.56793554 L4.86103922,0.566824118 C2.71055297,1.68713532 1.54239515,7.64429008 2.41591557,9.90275076 L2.41591557,9.90275076 Z M0.123612156,11.9033065 C1.7195138,19.4972492 9.08071135,23.8022784 15.7112754,20.5953876 C18.1244596,19.4282301 20.0386858,17.3486524 21.1423535,14.7374271 C21.427516,14.0627396 21.9876022,12.8415671 21.6610253,11.9563212 C21.3358239,11.0745763 18.1817672,12.5153098 17.3936733,12.891581 C17.2830314,12.9452626 17.2049403,13.0566268 17.1867547,13.1873298 C17.1867547,13.1873298 17.1867547,13.1873298 17.1867547,13.1873298 C17.1609281,13.3722145 17.2067741,13.5606002 17.3135955,13.7071409 C17.420264,13.8536816 17.5781273,13.9450403 17.7491331,13.9593776 C18.3269464,14.0078911 19.0733204,14.0705752 19.0733204,14.0705752 C16.6760295,19.1328147 10.1943124,21.3711031 5.62514036,17.326813 C4.60246739,16.4217283 3.69013063,15.3462629 3.07609896,14.0705752 C2.77916926,13.4537371 2.5037872,12.6648513 1.99902199,12.2415671 C1.51412341,11.8347874 0.778446832,11.6954154 0.123612156,11.9033065 Z" id="path847"></path>
        </g>
    </g>
</svg>