<svg xmlns="http://www.w3.org/2000/svg" xmlns:xlink="http://www.w3.org/1999/xlink" width="32" height="32" viewBox="0 0 32 32"><defs><filter id="a" width="111.7%" height="111.7%" x="-5.8%" y="-4.2%" filterUnits="objectBoundingBox"><feOffset dy=".5" in="SourceAlpha" result="shadowOffsetOuter1"/><feGaussianBlur in="shadowOffsetOuter1" result="shadowBlurOuter1" stdDeviation=".5"/><feComposite in="shadowBlurOuter1" in2="SourceAlpha" operator="out" result="shadowBlurOuter1"/><feColorMatrix in="shadowBlurOuter1" values="0 0 0 0 0 0 0 0 0 0 0 0 0 0 0 0 0 0 0.199473505 0"/></filter><filter id="d" width="111.7%" height="111.7%" x="-5.8%" y="-4.2%" filterUnits="objectBoundingBox"><feOffset dy=".5" in="SourceAlpha" result="shadowOffsetOuter1"/><feGaussianBlur in="shadowOffsetOuter1" result="shadowBlurOuter1" stdDeviation=".5"/><feColorMatrix in="shadowBlurOuter1" values="0 0 0 0 0 0 0 0 0 0 0 0 0 0 0 0 0 0 0.204257246 0"/></filter><linearGradient id="c" x1="50%" x2="50%" y1="0%" y2="100%"><stop offset="0%" stop-color="#FFF" stop-opacity=".5"/><stop offset="100%" stop-opacity=".5"/></linearGradient><circle id="b" cx="16" cy="15" r="15"/><path id="e" d="M23.148 28.19l.08-.058c-.218-.398-.57-.607-.968-.702-.565-.135-1.141-.26-1.719-.3-1.283-.092-2.57-.114-3.854-.192-1.432-.087-2.86-.208-4.292-.302-.124-.008-.303.039-.375.127-.375.46-.737.932-1.075 1.42-.165.238-.267.52-.396.777.032.02.065.038.099.057a14.922 14.922 0 01-1.649-.748c.097.019.225.004.273-.043.587-.588 1.154-1.195 1.726-1.795-.428-.342-.844-.644-1.224-.987-.355-.32-.502-.746-.472-1.232.047-.747.374-1.384.856-1.918.569-.63 1.207-1.2 1.816-1.794.075-.072.153-.14.223-.203-.024-.041-.026-.053-.033-.058l-.18-.104c-1.956-1.128-2.931-2.843-2.958-5.081-.022-1.915.794-3.467 2.237-4.693 1.406-1.193 3.063-1.612 4.88-1.571 1.345.03 2.603.328 3.774.996.065.037.23-.006.29-.069.555-.58 1.117-1.155 1.635-1.767.645-.76 1.191-1.585 1.417-2.58.177-.776.101-1.505-.461-2.111-.826-.89-2.247-.77-2.972.243-.143.2-.226.441-.364.644-.052.076-.184.097-.28.144-.022-.084-.075-.171-.062-.249.032-.214.073-.431.144-.635.356-1.021 1.017-1.718 2.127-1.874.361-.051.736-.008 1.113-.008-.018-.026-.026-.047-.04-.054a3.697 3.697 0 00-.214-.106 15.5 15.5 0 00-2.186-.807c1.422.4 2.758 1.003 3.975 1.777.007.08.003.102.012.113.828 1.021.722 2.105.2 3.206-.441.933-1.087 1.724-1.783 2.475-.638.689-1.279 1.374-1.92 2.063.025.016.04.035.055.035.982.001 1.963.015 2.944-.005.512-.01.967-.18 1.282-.632.06-.087.224-.103.34-.152l.066.091c-.273.783-.541 1.568-.827 2.346-.025.066-.17.119-.262.123-.346.014-.693.006-1.04.006H21.86l.14.281c.675 1.323.855 2.723.514 4.154-.503 2.11-1.884 3.472-3.891 4.181-1.638.579-3.32.558-5.004.156-.148-.035-.38-.066-.459.014-.361.362-.744.727-1.005 1.16-.537.892-.225 1.513.799 1.729l.03.003c1.004.078 2.008.173 3.014.229 1.423.078 2.848.109 4.27.194.862.052 1.712.204 2.489.615.999.528 1.707 1.306 2.017 2.443l.22-.157a15.07 15.07 0 01-1.847 1.186zm-4.546 1.585a15.094 15.094 0 01-2.757.224 19.322 19.322 0 002.757-.224zM31 15.048V15c0-1.294-.164-2.549-.472-3.746A16.212 16.212 0 0131 15.048zm-3.487-9.663a15.085 15.085 0 00-2.99-2.73 16.999 16.999 0 012.99 2.73zM8.786 28.155c-.708-.459-1.437-.893-2.106-1.4.66.522 1.363.991 2.106 1.4zM1 15.028a15.992 15.992 0 01.184-2.387A15.111 15.111 0 001 15.03zm2.734-8.665a16.504 16.504 0 011.978-2.28 15.082 15.082 0 00-1.978 2.28zM11.437.707A15.932 15.932 0 0116 0c-1.59 0-3.124.248-4.563.707zm7.906 14.908l-.057-.014c-.032-.454-.05-.91-.098-1.361-.111-1.047-.409-2.034-.985-2.926-.852-1.32-2.278-1.852-3.645-1.323-1.122.433-1.717 1.323-1.986 2.459-.254 1.074-.234 2.163-.104 3.247.124 1.031.418 2.013 1.012 2.886.763 1.12 1.827 1.609 3.15 1.388 1.255-.209 2.046-1.021 2.368-2.23.184-.69.235-1.416.345-2.126z"/></defs><g fill="none" fill-rule="evenodd"><use fill="#000" filter="url(#a)" xlink:href="#b"/><use fill="#377E96" xlink:href="#b"/><use fill="url(#c)" style="mix-blend-mode:soft-light" xlink:href="#b"/><circle cx="16" cy="15" r="14.5" stroke="#000" stroke-opacity=".097"/><use fill="#000" filter="url(#d)" xlink:href="#e"/><use fill="#FFF" xlink:href="#e"/></g></svg>