<svg height="32" viewBox="0 0 32 32" width="32" xmlns="http://www.w3.org/2000/svg" xmlns:xlink="http://www.w3.org/1999/xlink"><defs><linearGradient id="a" x1="50%" x2="50%" y1="0%" y2="100%"><stop offset="0" stop-color="#fff" stop-opacity=".5"/><stop offset="1" stop-opacity=".5"/></linearGradient><circle id="b" cx="16" cy="15" r="15"/><filter id="c" height="111.7%" width="111.7%" x="-5.8%" y="-4.2%"><feOffset dy=".5" in="SourceAlpha" result="shadowOffsetOuter1"/><feGaussianBlur in="shadowOffsetOuter1" result="shadowBlurOuter1" stdDeviation=".5"/><feComposite in="shadowBlurOuter1" in2="SourceAlpha" operator="out" result="shadowBlurOuter1"/><feColorMatrix in="shadowBlurOuter1" values="0 0 0 0 0   0 0 0 0 0   0 0 0 0 0  0 0 0 0.199473505 0"/></filter><path id="d" d="m23.1480137 28.1906005c.0268869-.0192918.0533922-.0387277.0795087-.0583073-.2173835-.3979628-.5701051-.6074822-.9671958-.7019518-.5656434-.1348859-1.1414496-.2596057-1.7192388-.3007657-1.2829845-.0917422-2.5704306-.1138099-3.8544065-.1916668-1.4312118-.0870312-2.8604407-.2082796-4.2914046-.3020055-.1246795-.0081824-.303643.0386805-.3752779.1269514-.3750301.4599508-.7371708.9320512-1.0752679 1.4197727-.1648347.2382817-.2672058.5199551-.3956034.7773292.0322738.01925.0650861.0382228.0984245.0569191-.5668169-.2165716-1.11712973-.4665361-1.6485325-.7474873.09689837.0186476.22506076.0040494.27260151-.0436918.58696043-.587894 1.15483469-1.1951282 1.72617929-1.7946759-.427331-.3416778-.8442514-.6436832-1.22374314-.9868486-.35470455-.3210978-.50218828-.7458394-.47194792-1.2320731.04684777-.747575.37428643-1.3843155.85565346-1.918156.5691137-.6307896 1.2076314-1.1993434 1.8166525-1.79418.0741136-.072154.152689-.139349.2225888-.2030726-.0235478-.04116-.0262744-.0530617-.0334626-.0575249-.0592414-.0352091-.1189785-.0694265-.1787156-.1038918-1.9564522-1.1284292-2.93232346-2.8432646-2.95835-5.0815265-.0220606-1.9151806.79343764-3.4671116 2.2365473-4.6924899 1.405681-1.19339256 3.0629519-1.61267924 4.8801001-1.57127128 1.3452003.03049809 2.6026539.32828834 3.7738482.99627078.0654381.03719279.2307686-.00644674.2905057-.06917858.5544893-.58020747 1.1164147-1.15520795 1.6349625-1.76665737.6447145-.75997261 1.1907761-1.58515657 1.4168352-2.58043554.1762369-.77608948.1011317-1.50531605-.4615373-2.11106257-.8259088-.88940351-2.2472058-.77013864-2.9717351.24324082-.1425262.19935334-.2255633.4408585-.3643715.64393112-.0515573.07587328-.1834251.09719714-.2788558.14356415-.0228042-.08331184-.075353-.17083886-.0632073-.24869577.0322233-.21423045.0731222-.43094042.1442614-.63450894.3564396-1.02156187 1.0175137-1.71855469 2.1269879-1.87451645.361645-.05107809.7364272-.00818241 1.1131923-.00818241-.0180946-.02529109-.0260265-.04636701-.040651-.05405352-.0696519-.03744074-.1407911-.07289786-.2129218-.10587546-.7196593-.32786821-1.4485388-.59684136-2.1860981-.80668084 1.4215329.39921496 2.7576184 1.00265269 3.974602 1.77665859.0071928.08097134.0033182.10255184.0123095.11362169.827644 1.02106597.721307 2.10436787.2002804 3.20577026-.4417075.933291-1.0874136 1.72351374-1.7836855 2.47480803-.6375263.68856246-1.2787706 1.37365359-1.9207586 2.06271199.0257787.0166127.0408989.0354571.0562669.0354571.9813245.0012397 1.9628968.0146291 2.9437256-.005207.5118552-.010166.9664521-.1797651 1.2819929-.63227738.0607286-.08703112.2235804-.10290004.3395844-.15149862.0220606.03049809.0441212.06074822.0659339.09099836-.272659.78303214-.5406084 1.56779994-.8269003 2.34562504-.0242915.0659552-.1697922.119017-.2612569.1227362-.3465248.0143812-.6937932.0059509-1.0405659.0059509-.4015523.0002479-.8031046 0-1.2453079 0 .0639509.1274473.1021232.2048083.1412869.2819213.6742113 1.3223275.8541663 2.7227599.5128468 4.1531945-.5031798 2.1098228-1.88333 3.4720706-3.8908437 4.1814611-1.6381848.5787197-3.3202428.5576438-5.0035403.1559617-.1484752-.0352092-.3794917-.0659552-.4590585.0138853-.361645.3617619-.7443591.7267471-1.0048723 1.1596711-.537634.8928748-.2258113 1.5137464.7986429 1.7289687.009667.0022315.0195819.0029754.0294968.0037193 1.0048722.077361 2.0085052.1730704 3.0146168.2283637 1.4227842.0781048 2.8480471.1093468 4.2700876.1946422.8616024.051574 1.7120506.2035685 2.4886329.6144249.9991713.5278896 1.7070931 1.3067065 2.0171808 2.4433181.073339-.0512764.1464874-.1035361.2194176-.1567697-.5839324.438188-1.2008791.8347674-1.8464396 1.1853376zm-4.5464449 1.5846033c-.8449798.1477561-1.7142775.2247962-2.6015688.2247962-.0517242 0-.1033872-.0002618-.1549879-.0007842.9174294-.008407 1.8549616-.0843353 2.7565567-.224012zm12.3983575-14.7276812c.0000491-.0158351.0000737-.031676.0000737-.0475226 0-1.2935392-.1637358-2.5488358-.4716124-3.7462949.1738152.7002763.301645 1.4277915.3824667 2.1831974.0585047.5469242.0874352 1.0840566.089072 1.6106201zm-3.4866147-9.66285509c-.8682452-1.03851267-1.8743775-1.95777634-2.9902498-2.72964396 1.1411255.82506792 2.1400906 1.73353779 2.9902498 2.72964396zm-18.72762961 22.76970959c-.70759651-.4581237-1.43676676-.8925738-2.10539769-1.4002017.65903175.5232386 1.36308164.9922231 2.10539769 1.4002017zm-7.78565363-13.1248931c.0008601-.4498908.02128101-.9021053.06083913-1.3565809.03028707-.3477307.07140173-.6913481.12338871-1.0307867-.12127942.7681361-.1842562 1.5556553-.1842562 2.3578836 0 .0098302.00000946.0196582.00002836.029484zm2.73415806-8.66587294c.12086461-.16866258.24578157-.33564909.37476065-.5009452.50296985-.64454313 1.03728718-1.23757882 1.60282014-1.77841099-.73258294.690723-1.39564527 1.45437713-1.97758079 2.27935619zm7.70311338-5.65706231c.7854191-.24337573 1.6050095-.42664925 2.4586176-.54900842.7200799-.10330734 1.4340178-.15574321 2.1413896-.15749492-.0124321-.00003027-.0248678-.00004541-.037307-.00004541-1.5908968 0-3.1239479.24766724-4.5627002.70654875zm7.9060962 14.90876005c-.0190861-.004959-.0381722-.0094222-.0572584-.0143812-.0319754-.453752-.0503179-.9089917-.0984051-1.3610081-.1110465-1.0468529-.4082448-2.0341974-.9845468-2.9258325-.8524311-1.31984803-2.277694-1.85195283-3.6452027-1.32356731-1.1221157.43341991-1.7172559 1.32381521-1.9859489 2.45918701-.2540686 1.0743757-.2344867 2.1631325-.1041062 3.2471783.1241838 1.031232.4184076 2.0128736 1.0125563 2.8856643.7622058 1.1195029 1.8263195 1.6092079 3.1499549 1.3885307 1.254975-.2090234 2.0451903-1.0210659 2.3671758-2.2295836.1841687-.6902981.2349824-1.4163013.3457811-2.1261876z"/><filter id="e" height="111.7%" width="111.7%" x="-5.8%" y="-4.2%"><feOffset dy=".5" in="SourceAlpha" result="shadowOffsetOuter1"/><feGaussianBlur in="shadowOffsetOuter1" result="shadowBlurOuter1" stdDeviation=".5"/><feColorMatrix in="shadowBlurOuter1" values="0 0 0 0 0   0 0 0 0 0   0 0 0 0 0  0 0 0 0.204257246 0"/></filter></defs><g fill="none" fill-rule="evenodd"><use fill="#000" filter="url(#c)" xlink:href="#b"/><use fill="#377e96" xlink:href="#b"/><use fill="url(#a)" xlink:href="#b"/><circle cx="16" cy="15" r="14.5" stroke="#000" stroke-opacity=".097"/><use fill="#000" filter="url(#e)" xlink:href="#d"/><use fill="#fff" xlink:href="#d"/></g></svg>