<svg height="32" viewBox="0 0 32 32" width="32" xmlns="http://www.w3.org/2000/svg" xmlns:xlink="http://www.w3.org/1999/xlink"><defs><linearGradient id="a" x1="50%" x2="50%" y1="0%" y2="100%"><stop offset="0" stop-color="#fff" stop-opacity=".5"/><stop offset="1" stop-opacity=".5"/></linearGradient><circle id="b" cx="16" cy="15" r="15"/><filter id="c" height="111.7%" width="111.7%" x="-5.8%" y="-4.2%"><feOffset dy=".5" in="SourceAlpha" result="shadowOffsetOuter1"/><feGaussianBlur in="shadowOffsetOuter1" result="shadowBlurOuter1" stdDeviation=".5"/><feComposite in="shadowBlurOuter1" in2="SourceAlpha" operator="out" result="shadowBlurOuter1"/><feColorMatrix in="shadowBlurOuter1" values="0 0 0 0 0   0 0 0 0 0   0 0 0 0 0  0 0 0 0.199473505 0"/></filter><path id="d" d="m15.3761334 12.999082h-7.35741448v7.2227875c-.00746247.7389916.28827672 1.44985.8205887 1.9724217s1.25642028.8128994 2.00918608.8055734h4.5276397zm.1704051-3.77807341h.7910996c.7847591-1.34931492 1.5025611-2.26759587 2.1769129-2.7641052.8320734-.61263594 1.6846467-.61814234 2.3527352.03772141.6237469.61233345.7410261 1.38044971.3289941 2.11989242-.1149578.20630613-.2698013.40863271-.462633.60649137h2.9080608c.679146 0 1.3582919.55818322 1.3582919 1.33343771 0 .6667188-.5685873 1.3334377-1.3582919 1.3334377h-7.1336648v-1.777917h-1.1319099v1.777917h-7.0178415c-.67914595 0-1.3582919-.5581833-1.3582919-1.3334377 0-.66671887.56858731-1.33343771 1.3582919-1.33343771h2.9392463c-.1977649-.18827931-.3609906-.3792564-.48764-.57241936-.4873893-.74335543-.4282412-1.53035463.2069922-2.15396443.6680886-.65586375 1.5206619-.65035735 2.3527352-.03772141.6743518.49650933 1.3921539 1.41479028 2.1769129 2.7641052zm-1.3155102 0c-.5793214-.92281248-1.098288-1.54952072-1.5405486-1.87514674-.4082696-.30059924-.6322546-.30204586-.8732081-.06550136-.2470485.242528-.2627094.45090448-.0555845.76680677.2367151.36103272.7332422.76756373 1.4490982 1.17384133zm3.4221201 0h1.2206942c.6817052-.39245908 1.1331689-.78761769 1.3293947-1.13976931.1693931-.303997.1340556-.53543851-.1363322-.80087879-.2409536-.2365445-.4649385-.23509788-.8732081.06550136-.4422606.32562602-.9612273.95233426-1.5405486 1.87514674zm-1.1451051 3.77807341h7.3574144v7.2227875c.0074625.7389916-.2882767 1.44985-.8205887 1.9724217-.5323119.5225717-1.2564202.8128994-2.0091861.8055734h-4.5276396z"/><filter id="e" height="120.6%" width="119.4%" x="-9.7%" y="-7.4%"><feOffset dy=".5" in="SourceAlpha" result="shadowOffsetOuter1"/><feGaussianBlur in="shadowOffsetOuter1" result="shadowBlurOuter1" stdDeviation=".5"/><feColorMatrix in="shadowBlurOuter1" values="0 0 0 0 0   0 0 0 0 0   0 0 0 0 0  0 0 0 0.204257246 0"/></filter></defs><g fill="none"><use fill="#000" filter="url(#c)" xlink:href="#b"/><use fill="#7f27ff" fill-rule="evenodd" xlink:href="#b"/><use fill="url(#a)" fill-rule="evenodd" xlink:href="#b"/><circle cx="16" cy="15" r="14.5" stroke="#000" stroke-opacity=".097"/><use fill="#000" filter="url(#e)" xlink:href="#d"/><use fill="#fff" fill-rule="evenodd" xlink:href="#d"/></g></svg>