<svg xmlns="http://www.w3.org/2000/svg" xmlns:xlink="http://www.w3.org/1999/xlink" width="32" height="32" viewBox="0 0 32 32"><defs><linearGradient id="gvt-c" x1="50%" x2="50%" y1="0%" y2="100%"><stop offset="0%" stop-color="#FFF" stop-opacity=".5"/><stop offset="100%" stop-opacity=".5"/></linearGradient><circle id="gvt-b" cx="16" cy="15" r="15"/><filter id="gvt-a" width="111.7%" height="111.7%" x="-5.8%" y="-4.2%" filterUnits="objectBoundingBox"><feOffset dy=".5" in="SourceAlpha" result="shadowOffsetOuter1"/><feGaussianBlur in="shadowOffsetOuter1" result="shadowBlurOuter1" stdDeviation=".5"/><feComposite in="shadowBlurOuter1" in2="SourceAlpha" operator="out" result="shadowBlurOuter1"/><feColorMatrix in="shadowBlurOuter1" values="0 0 0 0 0 0 0 0 0 0 0 0 0 0 0 0 0 0 0.199473505 0"/></filter><path id="gvt-e" d="M25.9999965,12.1931192 C25.9999965,17.6007578 21.5130415,22 16,22 C10.4869585,22 6.00000353,17.6007578 6.00000353,12.1954874 C5.99966054,11.7966712 6.02434484,11.398212 6.07391654,11.0023682 L7.87101736,11.0023682 C7.81079036,11.3973302 7.78059443,11.7961357 7.78067923,12.1954874 C7.78067923,16.6401998 11.4690837,20.2565019 16.0024155,20.2565019 C20.3275347,20.2565019 23.8840552,16.9646486 24.2014464,12.8017568 L11.4801948,12.8017568 C11.7505353,14.7459956 13.2825651,16.2900256 15.257372,16.6085201 C17.2321789,16.9270145 19.1879313,15.9454898 20.0792256,14.188598 L22.0043457,14.188598 C21.1291162,16.7105267 18.7146218,18.4072721 15.9975845,18.4097485 C12.5019336,18.4097485 9.65700707,15.6204358 9.65700707,12.1931192 C9.65692977,11.7926377 9.69624214,11.3930821 9.77439833,11 L25.9260835,11 C25.9756552,11.3958438 26.0003395,11.7943029 25.9999965,12.1931192 Z"/><filter id="gvt-d" width="117.5%" height="131.8%" x="-8.8%" y="-11.4%" filterUnits="objectBoundingBox"><feOffset dy=".5" in="SourceAlpha" result="shadowOffsetOuter1"/><feGaussianBlur in="shadowOffsetOuter1" result="shadowBlurOuter1" stdDeviation=".5"/><feColorMatrix in="shadowBlurOuter1" values="0 0 0 0 0 0 0 0 0 0 0 0 0 0 0 0 0 0 0.204257246 0"/></filter></defs><g fill="none" fill-rule="evenodd"><use fill="#000" filter="url(#gvt-a)" xlink:href="#gvt-b"/><use fill="#16B9AD" xlink:href="#gvt-b"/><use fill="url(#gvt-c)" style="mix-blend-mode:soft-light" xlink:href="#gvt-b"/><circle cx="16" cy="15" r="14.5" stroke="#000" stroke-opacity=".097"/><g fill-rule="nonzero"><use fill="#000" filter="url(#gvt-d)" xlink:href="#gvt-e"/><use fill="#FFF" fill-rule="evenodd" xlink:href="#gvt-e"/></g></g></svg>