<svg height="32" viewBox="0 0 32 32" width="32" xmlns="http://www.w3.org/2000/svg" xmlns:xlink="http://www.w3.org/1999/xlink"><defs><linearGradient id="a" x1="50%" x2="50%" y1="0%" y2="100%"><stop offset="0" stop-color="#fff" stop-opacity=".5"/><stop offset="1" stop-opacity=".5"/></linearGradient><circle id="b" cx="16" cy="15" r="15"/><filter id="c" height="111.7%" width="111.7%" x="-5.8%" y="-4.2%"><feOffset dy=".5" in="SourceAlpha" result="shadowOffsetOuter1"/><feGaussianBlur in="shadowOffsetOuter1" result="shadowBlurOuter1" stdDeviation=".5"/><feComposite in="shadowBlurOuter1" in2="SourceAlpha" operator="out" result="shadowBlurOuter1"/><feColorMatrix in="shadowBlurOuter1" values="0 0 0 0 0   0 0 0 0 0   0 0 0 0 0  0 0 0 0.199473505 0"/></filter><path id="d" d="m25.9999965 12.1931192c0 5.4076386-4.486955 9.8068808-9.9999965 9.8068808s-9.99999647-4.3992422-9.99999647-9.8045126c-.00034299-.3988162.02434131-.7972754.07391301-1.1931192h1.79710082c-.060227.394962-.09042293.7937675-.09033813 1.1931192 0 4.4447124 3.68840447 8.0610145 8.22173627 8.0610145 4.3251192 0 7.8816397-3.2918533 8.1990309-7.4547451h-12.7212516c.2703405 1.9442388 1.8023703 3.4882688 3.7771772 3.8067633 1.9748069.3184944 3.9305593-.6630303 4.8218536-2.4199221h1.9251201c-.8752295 2.5219287-3.2897239 4.2186741-6.0067612 4.2211505-3.4956509 0-6.34057743-2.7893127-6.34057743-6.2166293-.0000773-.4004815.03923507-.8000371.11739126-1.1931192h16.15168517c.0495717.3958438.074256.7943029.073913 1.1931192z"/><filter id="e" height="131.8%" width="117.5%" x="-8.8%" y="-11.4%"><feOffset dy=".5" in="SourceAlpha" result="shadowOffsetOuter1"/><feGaussianBlur in="shadowOffsetOuter1" result="shadowBlurOuter1" stdDeviation=".5"/><feColorMatrix in="shadowBlurOuter1" values="0 0 0 0 0   0 0 0 0 0   0 0 0 0 0  0 0 0 0.204257246 0"/></filter></defs><g fill="none" fill-rule="evenodd"><use fill="#000" filter="url(#c)" xlink:href="#b"/><use fill="#16b9ad" xlink:href="#b"/><use fill="url(#a)" xlink:href="#b"/><circle cx="16" cy="15" r="14.5" stroke="#000" stroke-opacity=".097"/><g fill-rule="nonzero"><use fill="#000" filter="url(#e)" xlink:href="#d"/><use fill="#fff" fill-rule="evenodd" xlink:href="#d"/></g></g></svg>