<svg height="32" viewBox="0 0 32 32" width="32" xmlns="http://www.w3.org/2000/svg" xmlns:xlink="http://www.w3.org/1999/xlink"><defs><linearGradient id="a" x1="50%" x2="50%" y1="0%" y2="100%"><stop offset="0" stop-color="#fff" stop-opacity=".5"/><stop offset="1" stop-opacity=".5"/></linearGradient><circle id="b" cx="16" cy="15" r="15"/><filter id="c" height="111.7%" width="111.7%" x="-5.8%" y="-4.2%"><feOffset dy=".5" in="SourceAlpha" result="shadowOffsetOuter1"/><feGaussianBlur in="shadowOffsetOuter1" result="shadowBlurOuter1" stdDeviation=".5"/><feComposite in="shadowBlurOuter1" in2="SourceAlpha" operator="out" result="shadowBlurOuter1"/><feColorMatrix in="shadowBlurOuter1" values="0 0 0 0 0   0 0 0 0 0   0 0 0 0 0  0 0 0 0.199473505 0"/></filter><path id="d" d="m7.020763 6.02748221c1.2691-1.3276 3.5884-1.3803 4.9006-.0903 1.3703333 1.33953334 2.7261333 2.6917 4.0674 4.0565 1.4284-1.357 2.7638-2.8043 4.198-4.1555 1.3645-1.2318 3.6842-1.0833 4.8948.297 1.2426 1.3017 1.2222 3.5731-.0668 4.83689999-1.3268 1.3512-2.6709 2.682-4.0093 4.0215 1.3674 1.4094 2.7929 2.7635 4.1487 4.19 1.2164 1.3337 1.1 3.6051-.2177 4.8311-1.2977 1.31-3.6232 1.3133-4.918-.0029-1.3471-1.3221-2.6651-2.6762-4.0035-4.0041-1.4284 1.3745-2.79 2.8159-4.2329 4.1759-1.3822 1.2263-3.7132 1.043-4.9035-.3637-1.1987-1.2986-1.17-3.5118.0813-4.77 1.17-1.2056 2.3661-2.3879 3.5651-3.5673.5023.5009 1.0045 1.0047 1.5068 1.5055-1.1758 1.2143-2.4126 2.3762-3.5709 3.608-.781.8008-.0929 2.2918 1.0045 2.2743.6648.0582 1.1235-.4921 1.5561-.9086 1.1468-1.1677 2.3109-2.3151 3.4577-3.4828-2.5-2.5218-5.04-5.0087-7.528-7.5422-1.2977-1.30749999-1.2571-3.63999999.07-4.90999999zm1.452 3.3893c1.3235 1.38059999 2.6971 2.71139999 4.0438 4.06839999.6503333-.6581333 1.3045333-1.3123667 1.9626-1.9627-1.3036-1.3133-2.6013-2.63539999-3.9223-3.93119999-.421-.4543-1.141-.6232-1.69-.297-.7635.37-1.0045 1.5055-.3948 2.1229zm12.9393-1.7905c-2.4851 2.43999999-4.9209 4.93299999-7.3944 7.38489999.6677.6465 1.3326 1.2959 1.9829 1.96.4994-.4921.9958-.99 1.4922-1.4881.5023.5009 1.0016 1.0047 1.5068 1.5026-.4906.5009-.9842.9959-1.4835 1.491 1.3413 1.3483 2.6564 2.7228 4.0413 4.0274.7026.74 2.0671.2912 2.27-.6843.2177-.69-.2787-1.2871-.7461-1.721-2.2035333-2.1928-4.4022333-4.3904333-6.5961-6.5929.5022667-.5008667 1.0026-1.0036667 1.501-1.5084.4993.498.9987.9959 1.51 1.4851 1.3151-1.3628 2.7087-2.65 4.0035-4.03319999.6532-.6348.3919-1.8491-.4413-2.1928-.5606-.2885-1.2429-.0847-1.6464.3696z"/><filter id="e" height="117.5%" width="117.5%" x="-8.8%" y="-6.3%"><feOffset dy=".5" in="SourceAlpha" result="shadowOffsetOuter1"/><feGaussianBlur in="shadowOffsetOuter1" result="shadowBlurOuter1" stdDeviation=".5"/><feColorMatrix in="shadowBlurOuter1" values="0 0 0 0 0   0 0 0 0 0   0 0 0 0 0  0 0 0 0.204257246 0"/></filter></defs><g fill="none" fill-rule="nonzero"><g><use fill="#000" filter="url(#c)" xlink:href="#b"/><use fill="#35a5f3" fill-rule="evenodd" xlink:href="#b"/><use fill="url(#a)" fill-rule="evenodd" xlink:href="#b"/><circle cx="16" cy="15" r="14.5" stroke="#000" stroke-opacity=".097"/></g><g><use fill="#000" filter="url(#e)" xlink:href="#d"/><use fill="#fff" fill-rule="evenodd" xlink:href="#d"/></g></g></svg>