<svg width="32" height="32" viewBox="0 0 32 32" version="1.1" xmlns="http://www.w3.org/2000/svg" xmlns:xlink="http://www.w3.org/1999/xlink"><title>svg/icon/gzr</title><desc>Created with Sketch.</desc><defs><linearGradient x1="50%" y1="0%" x2="50%" y2="100%" id="linearGradient-1"><stop stop-color="#FFF" stop-opacity=".5" offset="0%"/><stop stop-color="#000" stop-opacity=".5" offset="100%"/></linearGradient><circle id="path-2" cx="15" cy="15" r="15"/><filter x="-5.8%" y="-4.2%" width="111.7%" height="111.7%" filterUnits="objectBoundingBox" id="filter-3"><feOffset dx="0" dy=".5" in="SourceAlpha" result="shadowOffsetOuter1"/><feGaussianBlur stdDeviation=".5" in="shadowOffsetOuter1" result="shadowBlurOuter1"/><feComposite in="shadowBlurOuter1" in2="SourceAlpha" operator="out" result="shadowBlurOuter1"/><feColorMatrix values="0 0 0 0 0 0 0 0 0 0 0 0 0 0 0 0 0 0 0.199473505 0" type="matrix" in="shadowBlurOuter1"/></filter></defs><g id="icon/gzr" stroke="none" stroke-width="1" fill="none" fill-rule="evenodd"><g id="Group" transform="translate(1.000000, 0.000000)" fill-rule="nonzero"><g id="Oval"><use fill="#000" fill-opacity="1" filter="url(#filter-3)" xlink:href="#path-2"/><use fill="#56C9E9" xlink:href="#path-2"/><use fill="url(#linearGradient-1)" style="mix-blend-mode:soft-light" xlink:href="#path-2"/><circle stroke-opacity=".097" stroke="#000" stroke-width="1" stroke-linejoin="square" cx="15" cy="15" r="14.5"/></g></g><g id="Gizer-(GZR)" transform="translate(8.000000, 4.000000)" fill="#FFF" fill-rule="nonzero"><path d="M14.5563636,4.98909091 C13.8654545,4.73454545 12.3381818,5.11636364 12.2654545,5.22545455 C12.5563636,5.28 12.6472727,5.31636364 13.0836364,5.38909091 C13.5513477,5.4739112 14.0005701,5.64006197 14.4109091,5.88 C14.8472727,6.13454545 15.0290909,5.78909091 15.0290909,5.78909091 C15.1018182,5.62545455 14.9018182,5.11636364 14.5563636,4.98909091 Z" id="Shape"/><path d="M2.13818182,1.97090909 C2.02657619,1.79455161 1.90517368,1.6245881 1.77454545,1.46181818 C1.42909091,1.09818182 0.756363636,0.916363636 0.392727273,1.09818182 C0.192727273,1.18909091 0.101818182,1.31636364 0.265454545,1.53454545 C0.464645582,1.73113089 0.717800307,1.86403712 0.992727273,1.91636364 C1.15636364,1.95272727 1.88363636,2.11636364 2.06545455,2.15272727 C2.24909091,2.15272727 2.13818182,1.97090909 2.13818182,1.97090909 Z" id="Shape"/><path d="M2.86545455,3.80727273 C2.85116665,3.77478391 2.82521609,3.74883335 2.79272727,3.73454545 C2.34401564,3.79097649 1.88936036,3.69492256 1.50181818,3.46181818 C1.32198569,3.33479846 1.08165067,3.33479846 0.901818182,3.46181818 C0.665454545,3.66181818 1.01090909,3.89818182 1.02909091,3.89818182 C1.17454545,3.98909091 1.33818182,3.95272727 1.48363636,3.98909091 C1.83959631,4.09238143 2.20509419,4.15938938 2.57454545,4.18909091 C2.88363636,4.18909091 2.95636364,4.08 2.86545455,3.80727273 Z" id="Shape"/><path d="M14.9018182,3.13454545 C14.9381818,3.02545455 14.9018182,2.66181818 14.2472727,2.75272727 C13.7018182,2.84363636 13.32,2.98909091 13.3381818,3.06181818 C13.3563636,3.13454545 13.9563636,3.24363636 14.0836364,3.26181818 C14.5927273,3.35272727 14.8836364,3.20727273 14.9018182,3.13454545 Z" id="Shape"/><path d="M8.28363636,0.0981818182 C8.15207787,-0.0235592997 7.9514298,-0.0312765334 7.81090909,0.08 C7.26545455,0.425454545 7.66545455,1.60727273 7.72,1.60727273 C7.77454545,1.60727273 7.82909091,1.18909091 8.37454545,0.570909091 C8.42677305,0.49666564 8.44658929,0.404386286 8.42944697,0.315246213 C8.41230465,0.226106139 8.35967554,0.147758581 8.28363636,0.0981818182 Z" id="Shape"/><path id="Shape"/><path d="M6.55232323,3.61295455 C6.55232323,3.56295455 6.50232323,3.56295455 6.55232323,3.61295455 Z" id="Shape"/><path d="M6.02909091,3.02545455 C5.68363636,2.84363636 5.97454545,1.95272727 5.84727273,1.62545455 C5.82297267,1.52311071 5.74912265,1.43968773 5.65048167,1.40315403 C5.55184069,1.36662033 5.44146667,1.38181219 5.35636364,1.44363636 C5.26084349,1.48260426 5.18745056,1.56182584 5.15588175,1.66003991 C5.12431294,1.75825399 5.13780144,1.86540174 5.19272727,1.95272727 C5.26545455,2.09818182 5.70181818,2.93454545 5.35636364,3.08 C5.22909091,3.13454545 4.95636364,3.02545455 4.77454545,2.91636364 C4.12,2.62545455 4.01090909,1.62545455 3.81090909,1.49818182 C3.61983857,1.357206 3.35725509,1.36470839 3.17454545,1.51636364 C2.98914478,1.62070593 2.91104463,1.84719638 2.99272727,2.04363636 C3.08363636,2.20727273 3.42909091,2.29818182 3.50181818,2.86181818 L3.72,3.02545455 C3.82909091,3.11636364 3.93818182,3.20727273 4.06545455,3.29818182 C4.39272727,3.62545455 4.32,3.68 4.99272727,3.57090909 C5.21090909,3.49818182 5.17454545,3.20727273 5.39272727,3.13454545 C5.52853913,3.11669566 5.66665332,3.13552941 5.79272727,3.18909091 C5.99302079,3.29545964 6.16219743,3.45210468 6.28363636,3.64363636 C6.57454545,3.98909091 6.70181818,4.42545455 6.95636364,4.80727273 C7.04456282,4.9672831 7.15472218,5.11416224 7.28363636,5.24363636 L7.55636364,5.46181818 C7.93818182,5.71636364 8.28363636,5.69818182 8.55636364,5.40727273 C8.70613696,5.299916 8.80484595,5.13540102 8.82909091,4.95272727 C8.97331903,4.51918721 9.15585775,4.09934815 9.37454545,3.69818182 C9.37454545,3.6933597 9.37646103,3.68873508 9.37987079,3.68532533 C9.38328054,3.68191558 9.38790515,3.68 9.39272727,3.68 C9.39441832,3.6606606 9.40975151,3.64532741 9.42909091,3.64363636 C9.53268815,3.57068455 9.67094821,3.57068455 9.77454545,3.64363636 C9.82909091,3.71636364 9.72,4.38909091 9.77454545,4.46181818 C9.81090909,4.60727273 10.0836364,4.51636364 10.32,4.49818182 C10.3421527,4.47044556 10.3604971,4.4398716 10.3745455,4.40727273 C10.7745455,4.28 11.1563636,4.08 11.5563636,3.97090909 L11.7745455,3.97090909 C11.9973128,3.93453476 12.2245054,3.93453476 12.4472727,3.97090909 C12.6654545,3.97090909 12.7381818,4.09818182 12.72,4.29818182 C13.0836364,4.28 13.4472727,4.28 13.8109091,4.24363636 C13.9745455,4.22545455 14.2290909,4.22545455 14.2109091,3.91636364 C14.1745455,3.73454545 13.8836364,3.22545455 12.5563636,3.53454545 C12.4290909,3.57090909 11.7018182,3.78909091 11.4472727,3.66181818 C11.8352138,3.41117752 12.2357386,3.18057237 12.6472727,2.97090909 C12.8290909,2.82545455 12.9745455,2.62545455 12.8654545,2.40727273 C12.7563636,2.18909091 12.5381818,2.20727273 12.3381818,2.28 C11.9615461,2.39689133 11.6185615,2.60268208 11.3381818,2.88 C11.1538476,3.06734044 10.9530388,3.23772366 10.7381818,3.38909091 C10.2109091,3.64363636 10.2109091,3.64363636 10.0836364,3.60727273 C9.92,3.53454545 9.73818182,3.40727273 9.86545455,3.22545455 C9.93951587,3.10746166 9.99472456,2.97864138 10.0290909,2.84363636 C10.0836364,2.60727273 10.0109091,2.53454545 9.84727273,2.53454545 C9.52,2.55272727 9.41090909,3.02545455 9.35636364,3.09818182 C9.32155108,3.16939764 9.27885992,3.23648374 9.22909091,3.29818182 C9.1428683,3.38298572 9.01584267,3.41121364 8.90181818,3.37090909 C8.79272727,3.35272727 8.70181818,3.29818182 8.79272727,3.15272727 C8.95636364,2.89818182 9.46545455,2.49818182 9.61090909,1.97090909 C9.61090909,1.97090909 9.86545455,1.28 9.15636364,1.26181818 C8.77454545,1.24363636 8.46545455,1.51636364 8.35636364,1.93454545 C8.24727273,2.37090909 8.48363636,2.97090909 8.35636364,3.26181818 C8.31044393,3.38412064 8.24936083,3.50017852 8.17454545,3.60727273 C7.92106171,3.83455239 7.53712011,3.83455239 7.28363636,3.60727273 C7.14201609,3.44185636 7.0819693,3.22168481 7.12,3.00727273 C7.18245916,2.767854 7.23102503,2.52502465 7.26545455,2.28 C7.28363636,2.09818182 6.95636364,1.77090909 6.68363636,1.98909091 C6.55636364,2.08 6.61090909,2.22545455 6.66545455,2.35272727 C6.75636364,2.62545455 6.92,3.40727273 6.02909091,3.02545455 Z M6.53818182,3.58909091 C6.52,3.57090909 6.53818182,3.57090909 6.53818182,3.58909091 Z" id="Shape"/><path d="M7.13818182,4.4097086 L8.33818182,4.4097086 C8.44691801,4.38367413 8.55470187,4.4754948 8.62909091,4.65753296 C8.6348338,4.75767171 8.61325561,4.85571108 8.57454545,4.90535731 C8.15517366,4.69882636 7.72118997,4.69882636 7.30181818,4.90535731 L7.24727273,4.90535731 L7.13818182,4.4097086 Z" id="Shape"/><path d="M11.5381818,3.91636364 C11.0746262,4.04663756 10.6192693,4.20449464 10.1745455,4.38909091 C10.0937507,4.41384182 10.0061489,4.3846412 9.95636364,4.31636364 C9.91980445,4.23545327 9.91980445,4.14272855 9.95636364,4.06181818 C9.97459208,4.00258276 9.97459208,3.93923542 9.95636364,3.88 C9.91917713,3.78064931 9.85646534,3.69285282 9.77454545,3.62545455 C9.70291986,3.56568561 9.60824167,3.54123698 9.51663278,3.55885407 C9.42502389,3.57647117 9.34616674,3.63429198 9.30181818,3.71636364 C9.05772838,4.09810416 8.87376243,4.51509366 8.75636364,4.95272727 C8.71262783,5.12797099 8.61768162,5.28621467 8.48363636,5.40727273 C8.21090909,5.64363636 7.95636364,5.66181818 7.59272727,5.46181818 C7.49138383,5.38857147 7.39425938,5.30965786 7.30181818,5.22545455 C7.1767549,5.08610413 7.06703368,4.93371355 6.97454545,4.77090909 C6.82909091,4.49818182 6.68363636,4.20727273 6.53818182,3.95272727 C6.33818182,3.62545455 6.13818182,3.31636364 5.77454545,3.15272727 C5.65786232,3.11052117 5.53122035,3.10418907 5.41090909,3.13454545 C5.30370016,3.15535055 5.21081459,3.22169738 5.15636364,3.31636364 C5.10181818,3.40727273 4.37454545,3.42545455 4.12,3.28 C3.99272727,3.20727273 3.62909091,2.84363636 3.50181818,2.88 C3.39272727,2.88 3.33818182,2.80727273 3.26545455,2.75272727 C2.93490752,2.52590017 2.51547973,2.47178046 2.13818182,2.60727273 C1.97899647,2.64477376 1.85744188,2.77347862 1.82909091,2.93454545 C1.83125289,3.10631358 1.94003601,3.25860993 2.10181818,3.31636364 C2.28231922,3.38411195 2.45841871,3.46305309 2.62909091,3.55272727 C2.72,3.58909091 2.86545455,3.60727273 2.84727273,3.77090909 C2.84572609,3.81407649 2.8518829,3.85717417 2.86545455,3.89818182 C2.88363636,4.13454545 2.72,4.15272727 2.55636364,4.15272727 C2.32360044,4.13416379 2.09261369,4.09769219 1.86545455,4.04363636 C1.61410997,3.95883008 1.34773412,3.92785615 1.08363636,3.95272727 C1.01090909,4.04363636 0.92,3.98909091 0.829090909,4.00727273 C0.501818182,4.06181818 0.247272727,4.29818182 0.265454545,4.57090909 C0.283636364,4.88 0.538181818,4.95272727 0.792727273,5.00727273 C1.41090909,5.15272727 2.02909091,5.09818182 2.64727273,5.11636364 C3.39272727,5.11636364 3.81090909,5.48 3.92,6.22545455 C3.99272727,6.77090909 5.62909091,21.0981818 5.64727273,21.4072727 C5.65066009,21.5368053 5.73982486,21.6482613 5.86545455,21.68 C6.48369207,21.8683293 7.12856182,21.9543119 7.77454545,21.9345455 C8.4994122,21.953415 9.22290824,21.8614452 9.92,21.6618182 C10.0290909,21.6254545 10.12,21.5890909 10.12,21.4436364 C10.1381818,21.0618182 11.1745455,7.37090909 11.1745455,7.15272727 C11.1636504,6.51599724 11.3687306,5.89434775 11.7563636,5.38909091 C12.0654545,5.02545455 12.4109091,4.69818182 12.72,4.33454545 C12.8109091,3.82545455 12.1563636,3.82545455 11.5381818,3.91636364 Z" id="Shape"/></g></g></svg>