<svg width="32" height="32" viewBox="0 0 32 32" version="1.1" xmlns="http://www.w3.org/2000/svg" xmlns:xlink="http://www.w3.org/1999/xlink"><title>icon/hodl</title><desc>Created with Sketch.</desc><defs><linearGradient x1="50%" y1="0%" x2="50%" y2="100%" id="linearGradient-1"><stop stop-color="#FFF" stop-opacity=".5" offset="0%"/><stop stop-color="#000" stop-opacity=".5" offset="100%"/></linearGradient><circle id="path-2" cx="15" cy="15" r="15"/><filter x="-5.8%" y="-4.2%" width="111.7%" height="111.7%" filterUnits="objectBoundingBox" id="filter-3"><feOffset dx="0" dy=".5" in="SourceAlpha" result="shadowOffsetOuter1"/><feGaussianBlur stdDeviation=".5" in="shadowOffsetOuter1" result="shadowBlurOuter1"/><feComposite in="shadowBlurOuter1" in2="SourceAlpha" operator="out" result="shadowBlurOuter1"/><feColorMatrix values="0 0 0 0 0 0 0 0 0 0 0 0 0 0 0 0 0 0 0.199473505 0" type="matrix" in="shadowBlurOuter1"/></filter></defs><g id="icon/hodl" stroke="none" stroke-width="1" fill="none" fill-rule="evenodd"><g id="Group" transform="translate(1.000000, 0.000000)" fill-rule="nonzero"><g id="Oval"><use fill="#000" fill-opacity="1" filter="url(#filter-3)" xlink:href="#path-2"/><use fill="#D59143" fill-rule="evenodd" xlink:href="#path-2"/><use fill="url(#linearGradient-1)" fill-rule="evenodd" style="mix-blend-mode:soft-light" xlink:href="#path-2"/><circle stroke-opacity=".097" stroke="#000" stroke-width="1" stroke-linejoin="square" cx="15" cy="15" r="14.5"/></g></g><g id="HOdlcoin-(HODL)" transform="translate(8.000000, 5.000000)" fill="#FFF" fill-rule="nonzero"><path d="M0.864778761,10.180885 C0.40460177,10.5463717 -0.00690265487,11.1975221 0.0143362832,12.1923894 C0.0290265487,12.880354 0.398938053,13.3511504 0.864778761,13.6715044 L0.864778761,14.9 C0.864781781,15.6673251 1.23899987,16.3864316 1.86743363,16.8267257 L6.18123894,19.7766372 L6.18123894,4.70300885 L0.864778761,6.25734513 L0.864778761,10.180885 Z M2.02300885,9.8180531 C2.9180531,10.4729204 2.9180531,14.3651327 2.9180531,14.3651327 C2.9180531,14.3651327 1.9060177,14.2672566 1.06920354,13.799646 C1.75946903,14.0320354 2.31292035,13.980708 2.5539823,14.0067257 L2.56973451,14.0083186 L2.57345133,14.0083186 L2.58619469,14.0095575 L2.61911504,14.0127434 L2.63079646,14.0138053 L2.64,14.0138053 L2.64283186,14.0138053 C2.64283186,14.0138053 2.78442478,10.6169912 1.75628319,10.0210619 C1.58902655,9.96318584 1.29415929,9.99752212 0.968672566,10.1015929 C1.38300885,9.8219469 1.81557522,9.72743363 2.02300885,9.8180531 Z M6.5539823,15.9548673 L9.4539823,15.9548673 L9.4539823,19.7826549 L6.55451327,19.7826549 L6.5539823,15.9548673 Z M5.89681416,4.41752212 L0.864778761,5.85840708 L0.864778761,0.462300885 C0.864778761,0.0585840708 1.35292035,-0.143716814 1.63840708,0.14159292 L6.15345133,4.67504425 L5.89681416,4.41752212 Z M6.55451327,9.81345133 L9.4539823,9.81345133 L9.4539823,15.5856637 L6.55451327,15.5856637 L6.55451327,9.81345133 Z M10.1031858,4.41752212 L9.91681416,4.60460177 L14.3615929,0.14159292 C14.6470796,-0.143893805 15.1353982,0.0582300885 15.1353982,0.462123894 L15.1353982,5.85840708 L10.1031858,4.41752212 Z M6.55451327,4.70318584 L9.4539823,4.70318584 L9.4539823,9.44070796 L6.55451327,9.44070796 L6.55451327,4.70318584 Z M15.1352212,10.180885 L15.1352212,6.25734513 L9.82725664,4.70548673 L9.82725664,19.7826549 L14.1325664,16.8269027 C14.7610001,16.3866086 15.1352182,15.6675021 15.1352212,14.900177 L15.1352212,13.6715044 C15.6010619,13.3509735 15.9709735,12.880354 15.9856637,12.1923894 C16.0069027,11.1973451 15.5957522,10.5463717 15.1352212,10.180885 Z M13.3923894,14.0684956 L13.3952212,14.0684956 L13.4044248,14.0684956 L13.4150442,14.0674336 L13.4304425,14.0660177 L13.4336283,14.0660177 L13.4653097,14.0628319 L13.4669027,14.0628319 L13.480531,14.0614159 C13.5159292,14.0576991 13.560177,14.0525664 13.6130973,14.0458407 L13.619115,14.0458407 C13.9095575,14.0086726 14.2647788,14.0123894 14.8104425,13.8412389 C14.8506785,13.8286136 14.8909145,13.8155162 14.9311504,13.8019469 C14.0943363,14.2693805 13.0823009,14.3674336 13.0823009,14.3674336 C13.0823009,14.3674336 13.0823009,10.4757522 13.9773451,9.82035398 C14.1847788,9.72973451 14.6171681,9.82424779 15.0313274,10.1054867 C14.7058407,10.0012389 14.4118584,9.96707965 14.2437168,10.0249558 C13.2153982,10.619469 13.3923894,14.0684956 13.3923894,14.0684956 Z" id="Shape"/></g></g></svg>