<?xml version="1.0" encoding="UTF-8"?>
<svg width="32px" height="32px" viewBox="0 0 32 32" version="1.1" xmlns="http://www.w3.org/2000/svg" xmlns:xlink="http://www.w3.org/1999/xlink">
    <!-- Generator: Sketch 53 (72520) - https://sketchapp.com -->
    <title>svg/icon/hot</title>
    <desc>Created with Sketch.</desc>
    <defs>
        <linearGradient x1="50%" y1="0%" x2="50%" y2="100%" id="linearGradient-1">
            <stop stop-color="#FFFFFF" stop-opacity="0.5" offset="0%"></stop>
            <stop stop-color="#000000" stop-opacity="0.5" offset="100%"></stop>
        </linearGradient>
        <circle id="path-2" cx="15" cy="15" r="15"></circle>
        <filter x="-5.8%" y="-4.2%" width="111.7%" height="111.7%" filterUnits="objectBoundingBox" id="filter-3">
            <feOffset dx="0" dy="0.5" in="SourceAlpha" result="shadowOffsetOuter1"></feOffset>
            <feGaussianBlur stdDeviation="0.5" in="shadowOffsetOuter1" result="shadowBlurOuter1"></feGaussianBlur>
            <feComposite in="shadowBlurOuter1" in2="SourceAlpha" operator="out" result="shadowBlurOuter1"></feComposite>
            <feColorMatrix values="0 0 0 0 0   0 0 0 0 0   0 0 0 0 0  0 0 0 0.199473505 0" type="matrix" in="shadowBlurOuter1"></feColorMatrix>
        </filter>
    </defs>
    <g id="icon/hot" stroke="none" stroke-width="1" fill="none" fill-rule="evenodd">
        <g id="Group" transform="translate(1.000000, 0.000000)" fill-rule="nonzero">
            <g id="Oval">
                <use fill="black" fill-opacity="1" filter="url(#filter-3)" xlink:href="#path-2"></use>
                <use fill="#8834FF" xlink:href="#path-2"></use>
                <use fill="url(#linearGradient-1)" style="mix-blend-mode: soft-light;" xlink:href="#path-2"></use>
                <circle stroke-opacity="0.0970052083" stroke="#000000" stroke-width="1" stroke-linejoin="square" cx="15" cy="15" r="14.5"></circle>
            </g>
        </g>
        <g id="hot" transform="translate(6.000000, 8.000000)" fill="#FFFFFF" fill-rule="nonzero">
            <path d="M1.00045475,12.2305593 C1.19145066,12.2305593 1.39154161,12.2396544 1.58253752,12.2305593 C1.94633925,12.2032742 2.31014097,12.1305139 2.66484766,12.0395634 C3.36516598,11.8485675 4.0200091,11.521146 4.59299682,11.0754889 C4.75670759,10.9481583 4.92041837,10.8117326 5.07503411,10.6662119 C5.40245566,10.3387904 5.684402,9.96589359 5.91177808,9.56571169 C6.11186903,9.211005 6.25738972,8.82901319 6.36653024,8.43792633 C6.37562528,8.4106412 6.37562528,8.37426103 6.38472033,8.3469759 L6.03001364,8.3469759 C5.67530696,8.3469759 5.31150523,8.3469759 4.95679854,8.3469759 C4.65666212,8.3469759 4.36562074,8.31059573 4.07457935,8.24693042 C4.04729422,8.23783538 4.0200091,8.22874034 3.99272397,8.22874034 C3.97453388,8.21964529 3.96543884,8.21055025 3.95634379,8.20145521 C4.03819918,8.01955434 4.11095953,7.84674852 4.18371987,7.66484766 L4.73851751,6.38244657 C4.75670759,6.31878126 4.78399272,6.26421101 4.8203729,6.20964075 C4.85675307,6.17326057 4.91132333,6.15507049 4.96589359,6.15507049 C5.4115507,6.14597544 5.84811278,6.15507049 6.2937699,6.15507049 L6.41200546,6.15507049 C6.39381537,6.08231014 6.39381537,6.02773988 6.37562528,5.96407458 C6.21191451,5.34561164 5.92996817,4.77262392 5.53888131,4.27239654 C5.3478854,4.02683038 5.13869941,3.7994543 4.91132333,3.58117326 C4.62937699,3.31741701 4.32014552,3.09004093 3.97453388,2.89904502 C3.61982719,2.69895407 3.24693042,2.53524329 2.86493861,2.40791269 C2.5466121,2.30786721 2.21919054,2.23510687 1.88267394,2.18963165 C1.61891769,2.16234652 1.36425648,2.15325148 1.10050023,2.13506139 C1.03683492,2.13506139 0.973169623,2.12596635 0.90950432,2.11687131 C0.882219191,2.10777626 0.864029104,2.08958618 0.854934061,2.06230105 C0.763983629,1.85311505 0.673033197,1.6530241 0.582082765,1.44383811 C0.472942246,1.19827194 0.372896771,0.952705775 0.263756253,0.716234652 C0.181900864,0.516143702 0.090950432,0.325147794 0,0.115961801 C0.0636653024,0.0977717144 0.127330605,0.079581628 0.190995907,0.0613915416 C0.591177808,0.0068212824 1.00045475,-0.011368804 1.4097317,0.0068212824 C2.05547976,0.0250113688 2.70122783,0.125056844 3.33788085,0.288767622 C3.73806276,0.39790814 4.13824466,0.534333788 4.52023647,0.698044566 C5.05684402,0.925420646 5.56616644,1.20736698 6.03910869,1.54388358 C6.24829468,1.69849932 6.45748067,1.8622101 6.65757162,2.02592087 C6.74852206,2.09868122 6.83947249,2.18053661 6.93042292,2.262392 C7.38517508,2.69895407 7.78535698,3.19918145 8.12187358,3.73578899 C8.45839018,4.27239654 8.70395634,4.85447931 8.86766712,5.4638472 C8.92223738,5.66393815 8.95861755,5.87312415 9.00409277,6.0732151 C9.01318781,6.10050023 9.04047294,6.12778536 9.07685312,6.12778536 C9.68622101,6.12778536 10.3046839,6.12778536 10.9231469,6.12778536 C10.9595271,5.98226467 10.9868122,5.83674397 11.0140973,5.69122328 C11.1232378,5.26375625 11.2687585,4.85447931 11.4506594,4.46339245 C11.5961801,4.1359709 11.7780809,3.81764438 11.9872669,3.526603 C12.1782628,3.26284675 12.3783538,2.9990905 12.5966348,2.75352433 C12.7603456,2.56252842 12.9331514,2.38062756 13.1150523,2.21691678 C13.4970441,1.87130514 13.9063211,1.56207367 14.3519782,1.28922237 C14.8067303,1.00727603 15.2796726,0.779899955 15.7799,0.59799909 C16.1255116,0.479763529 16.4711232,0.37062301 16.8167349,0.279672578 C17.0804911,0.216007276 17.3351523,0.17053206 17.6080036,0.134151887 C17.8262847,0.0977717144 18.0536608,0.079581628 18.2810368,0.0613915416 C18.4265575,0.0522964984 18.5629832,0.0432014552 18.7085039,0.0432014552 C18.9267849,0.0432014552 19.1359709,0.034106412 19.3451569,0.0432014552 C19.5543429,0.0522964984 19.7635289,0.0977717144 19.9727149,0.134151887 C19.9818099,0.134151887 19.9818099,0.14324693 20,0.161437017 L19.8453843,0.525238745 C19.6816735,0.907230559 19.5179627,1.28922237 19.3451569,1.68030923 C19.2814916,1.81673488 19.2178263,1.95316053 19.163256,2.09868122 C19.1268759,2.18963165 19.0359254,2.15325148 18.9722601,2.17144156 C18.9176899,2.18053661 18.8722146,2.18053661 18.8176444,2.17144156 C18.2446567,2.18053661 17.680764,2.262392 17.1350614,2.41700773 C16.7894497,2.51705321 16.4529332,2.64438381 16.1346066,2.79899955 C15.7435198,2.98999545 15.3797181,3.22646658 15.0432015,3.50841291 C14.9067758,3.62664848 14.7521601,3.74488404 14.6248295,3.88130969 C14.2974079,4.20873124 14.0154616,4.58162801 13.7880855,4.99090496 C13.6061846,5.32742156 13.4606639,5.68212824 13.3515234,6.05502501 C13.3424284,6.08231014 13.3424284,6.11869031 13.3333333,6.14597544 L13.4333788,6.14597544 C13.9063211,6.14597544 14.3883583,6.1368804 14.8613006,6.14597544 C15.1432469,6.14597544 15.4251933,6.19145066 15.6980446,6.28240109 C15.7071396,6.29149613 15.7162347,6.29149613 15.7253297,6.30059118 L15.4615734,6.90086403 C15.2796726,7.32833106 15.0886767,7.75579809 14.9067758,8.19236016 C14.8522055,8.31969077 14.8158254,8.3469759 14.6703047,8.3469759 L13.3424284,8.3469759 C13.3788085,8.4743065 13.4060937,8.58344702 13.4424739,8.69258754 C13.5698045,9.07457935 13.7517053,9.43838108 13.9790814,9.77489768 C14.115507,9.97498863 14.2610277,10.1568895 14.4156435,10.3387904 C14.5065939,10.4479309 14.6066394,10.5570714 14.7066849,10.6480218 C15.0432015,10.9754434 15.4251933,11.2573897 15.8344702,11.4847658 C16.1800819,11.6848568 16.5529786,11.8485675 16.9349704,11.9758981 C17.2987722,12.1032287 17.680764,12.1850841 18.0718508,12.2214643 C18.308322,12.2396544 18.5538881,12.2578445 18.7903593,12.2760346 C18.8813097,12.2851296 18.9722601,12.2851296 19.0632106,12.2942246 C19.0814006,12.3033197 19.0995907,12.3124147 19.1086858,12.3306048 C19.2633015,12.6944065 19.4179172,13.0582083 19.581628,13.42201 C19.7089586,13.7130514 19.8362892,14.0040928 19.9727149,14.3133242 C19.8453843,14.3406094 19.7271487,14.3678945 19.5998181,14.3769895 C19.2905866,14.3951796 18.9722601,14.4133697 18.6630286,14.4133697 C18.3810823,14.4133697 18.099136,14.3860846 17.8262847,14.3497044 C17.4533879,14.2951342 17.0713961,14.2314688 16.6984993,14.1496135 C16.2528422,14.0404729 15.8162801,13.8949523 15.3888131,13.7130514 C14.8794907,13.4947704 14.4065484,13.2310141 13.9517963,12.9126876 C13.7153251,12.7398818 13.4879491,12.5579809 13.260573,12.37608 C13.1150523,12.2578445 12.9695316,12.1214188 12.842201,11.9849932 C12.5511596,11.6848568 12.2783083,11.3665302 12.0418372,11.0209186 C11.8144611,10.693497 11.6143702,10.3478854 11.4415643,9.98408367 C11.2323784,9.5475216 11.0868577,9.0836744 10.9868122,8.61073215 C10.9686221,8.56525693 10.9595271,8.51068668 10.950432,8.46521146 C10.950432,8.37426103 10.9049568,8.35607094 10.8231014,8.35607094 C10.2410186,8.35607094 9.66803092,8.35607094 9.08594816,8.35607094 L8.98590268,8.35607094 C8.89495225,8.84720327 8.74943156,9.32924056 8.54934061,9.79308777 C8.38562983,10.1841746 8.18553888,10.5570714 7.93997271,10.902683 C7.74897681,11.1664393 7.54888586,11.4301955 7.33060482,11.6757617 C7.17598909,11.8667576 7.00318327,12.0395634 6.8212824,12.2032742 C6.53933606,12.4488404 6.23919964,12.6762165 5.93906321,12.9035925 C5.57526148,13.1582538 5.19326967,13.3856298 4.79308777,13.5675307 C4.31105048,13.7949068 3.8108231,13.9768076 3.30150068,14.1041382 C3.0104593,14.1768986 2.71941792,14.2314688 2.42837653,14.2769441 C2.1464302,14.3224193 1.86448386,14.3497044 1.58253752,14.3769895 C1.41882674,14.3860846 1.25511596,14.3860846 1.10050023,14.3769895 C0.864029104,14.3769895 0.627557981,14.3678945 0.400181901,14.3587995 C0.318326512,14.3497044 0.236471123,14.3406094 0.154615734,14.3224193 C0.109140518,14.3133242 0.090950432,14.2951342 0.118235562,14.2405639 C0.300136426,13.8221919 0.491132333,13.4038199 0.673033197,12.9854479 C0.782173715,12.7307867 0.882219191,12.4943156 1.00045475,12.2305593 Z" id="Path"></path>
        </g>
    </g>
</svg>