<svg xmlns="http://www.w3.org/2000/svg" xmlns:xlink="http://www.w3.org/1999/xlink" width="32" height="32" viewBox="0 0 32 32"><defs><linearGradient id="ignis-c" x1="50%" x2="50%" y1="0%" y2="100%"><stop offset="0%" stop-color="#FFF" stop-opacity=".5"/><stop offset="100%" stop-opacity=".5"/></linearGradient><circle id="ignis-b" cx="16" cy="15" r="15"/><filter id="ignis-a" width="111.7%" height="111.7%" x="-5.8%" y="-4.2%" filterUnits="objectBoundingBox"><feOffset dy=".5" in="SourceAlpha" result="shadowOffsetOuter1"/><feGaussianBlur in="shadowOffsetOuter1" result="shadowBlurOuter1" stdDeviation=".5"/><feComposite in="shadowBlurOuter1" in2="SourceAlpha" operator="out" result="shadowBlurOuter1"/><feColorMatrix in="shadowBlurOuter1" values="0 0 0 0 0 0 0 0 0 0 0 0 0 0 0 0 0 0 0.199473505 0"/></filter><path id="ignis-e" d="M14.8116525,5 C16.3301533,5.8875 17.758092,6.9144 19.2625894,7.8246 C17.4152981,11.0474667 15.5670528,14.2713 13.7178535,17.4961 C12.981908,16.2047 12.292368,14.8877 11.5651107,13.5905 C12.612402,10.7147 13.8080068,7.89 14.8116525,5 Z M10,25 C13.1389097,19.291 16.3999659,13.6446 19.5040204,7.9213 C20.3331175,9.37776667 21.1651107,10.8342 22,12.2906 C19.5941738,16.5233 17.1708688,20.7446 14.7825213,24.9858 C13.1883816,24.9858 11.5945486,24.9659 10,25 Z M15.0822147,24.9772 C16.4116184,22.7016 17.6654855,20.3861 19.012368,18.1218 C19.8152641,19.1487 20.6298126,20.1699 21.4268825,21.2024 C19.3207496,22.4769 17.202862,23.7285 15.0822147,24.9772 Z"/><filter id="ignis-d" width="129.2%" height="117.5%" x="-14.6%" y="-6.2%" filterUnits="objectBoundingBox"><feOffset dy=".5" in="SourceAlpha" result="shadowOffsetOuter1"/><feGaussianBlur in="shadowOffsetOuter1" result="shadowBlurOuter1" stdDeviation=".5"/><feColorMatrix in="shadowBlurOuter1" values="0 0 0 0 0 0 0 0 0 0 0 0 0 0 0 0 0 0 0.204257246 0"/></filter></defs><g fill="none" fill-rule="evenodd"><use fill="#000" filter="url(#ignis-a)" xlink:href="#ignis-b"/><use fill="#F9C011" xlink:href="#ignis-b"/><use fill="url(#ignis-c)" style="mix-blend-mode:soft-light" xlink:href="#ignis-b"/><circle cx="16" cy="15" r="14.5" stroke="#000" stroke-opacity=".097"/><g fill-rule="nonzero"><use fill="#000" filter="url(#ignis-d)" xlink:href="#ignis-e"/><use fill="#FFF" fill-rule="evenodd" xlink:href="#ignis-e"/></g></g></svg>