<svg height="32" viewBox="0 0 32 32" width="32" xmlns="http://www.w3.org/2000/svg" xmlns:xlink="http://www.w3.org/1999/xlink"><defs><linearGradient id="a" x1="50%" x2="50%" y1="0%" y2="100%"><stop offset="0" stop-color="#fff" stop-opacity=".5"/><stop offset="1" stop-opacity=".5"/></linearGradient><circle id="b" cx="16" cy="15" r="15"/><filter id="c" height="111.7%" width="111.7%" x="-5.8%" y="-4.2%"><feOffset dy=".5" in="SourceAlpha" result="shadowOffsetOuter1"/><feGaussianBlur in="shadowOffsetOuter1" result="shadowBlurOuter1" stdDeviation=".5"/><feComposite in="shadowBlurOuter1" in2="SourceAlpha" operator="out" result="shadowBlurOuter1"/><feColorMatrix in="shadowBlurOuter1" values="0 0 0 0 0   0 0 0 0 0   0 0 0 0 0  0 0 0 0.199473505 0"/></filter><path id="d" d="m14.8116525 5c1.5185008.8875 2.9464395 1.9144 4.4509369 2.8246-1.8472913 3.2228667-3.6955366 6.4467-5.5447359 9.6715-.7359455-1.2914-1.4254855-2.6084-2.1527428-3.9056 1.0472913-2.8758 2.2428961-5.7005 3.2465418-8.5905zm-4.8116525 20c3.1389097-5.709 6.3999659-11.3554 9.5040204-17.0787.8290971 1.45646667 1.6610903 2.9129 2.4959796 4.3693-2.4058262 4.2327-4.8291312 8.454-7.2174787 12.6952-1.5941397 0-3.1879727-.0199-4.7825213.0142zm5.0822147-.0228c1.3294037-2.2756 2.5832708-4.5911 3.9301533-6.8554.8028961 1.0269 1.6174446 2.0481 2.4145145 3.0806-2.1061329 1.2745-4.2240205 2.5261-6.3446678 3.7748z"/><filter id="e" height="117.5%" width="129.2%" x="-14.6%" y="-6.2%"><feOffset dy=".5" in="SourceAlpha" result="shadowOffsetOuter1"/><feGaussianBlur in="shadowOffsetOuter1" result="shadowBlurOuter1" stdDeviation=".5"/><feColorMatrix in="shadowBlurOuter1" values="0 0 0 0 0   0 0 0 0 0   0 0 0 0 0  0 0 0 0.204257246 0"/></filter></defs><g fill="none" fill-rule="evenodd"><use fill="#000" filter="url(#c)" xlink:href="#b"/><use fill="#f9c011" xlink:href="#b"/><use fill="url(#a)" xlink:href="#b"/><circle cx="16" cy="15" r="14.5" stroke="#000" stroke-opacity=".097"/><g fill-rule="nonzero"><use fill="#000" filter="url(#e)" xlink:href="#d"/><use fill="#fff" fill-rule="evenodd" xlink:href="#d"/></g></g></svg>