<?xml version="1.0" encoding="UTF-8"?>
<svg width="32px" height="32px" viewBox="0 0 32 32" version="1.1" xmlns="http://www.w3.org/2000/svg" xmlns:xlink="http://www.w3.org/1999/xlink">
    <!-- Generator: Sketch 53 (72520) - https://sketchapp.com -->
    <title>svg/icon/ilk</title>
    <desc>Created with Sketch.</desc>
    <defs>
        <linearGradient x1="50%" y1="0%" x2="50%" y2="100%" id="linearGradient-1">
            <stop stop-color="#FFFFFF" stop-opacity="0.5" offset="0%"></stop>
            <stop stop-color="#000000" stop-opacity="0.5" offset="100%"></stop>
        </linearGradient>
        <circle id="path-2" cx="15" cy="15" r="15"></circle>
        <filter x="-5.8%" y="-4.2%" width="111.7%" height="111.7%" filterUnits="objectBoundingBox" id="filter-3">
            <feOffset dx="0" dy="0.5" in="SourceAlpha" result="shadowOffsetOuter1"></feOffset>
            <feGaussianBlur stdDeviation="0.5" in="shadowOffsetOuter1" result="shadowBlurOuter1"></feGaussianBlur>
            <feComposite in="shadowBlurOuter1" in2="SourceAlpha" operator="out" result="shadowBlurOuter1"></feComposite>
            <feColorMatrix values="0 0 0 0 0   0 0 0 0 0   0 0 0 0 0  0 0 0 0.199473505 0" type="matrix" in="shadowBlurOuter1"></feColorMatrix>
        </filter>
    </defs>
    <g id="icon/ilk" stroke="none" stroke-width="1" fill="none" fill-rule="evenodd">
        <g id="Group" transform="translate(1.000000, 0.000000)" fill-rule="nonzero">
            <g id="Oval">
                <use fill="black" fill-opacity="1" filter="url(#filter-3)" xlink:href="#path-2"></use>
                <use fill="#98C23A" xlink:href="#path-2"></use>
                <use fill="url(#linearGradient-1)" style="mix-blend-mode: soft-light;" xlink:href="#path-2"></use>
                <circle stroke-opacity="0.0970052083" stroke="#000000" stroke-width="1" stroke-linejoin="square" cx="15" cy="15" r="14.5"></circle>
            </g>
        </g>
        <g id="ilk" transform="translate(5.000000, 4.000000)" fill="#FFFFFF" fill-rule="nonzero">
            <path d="M10.8075,1.52655666e-16 C4.83868257,-3.05311332e-16 2.48874995e-15,4.83868257 1.77635684e-15,10.8075 C1.06396373e-15,16.7763174 4.83868257,21.615 10.8075,21.615 C16.7763174,21.615 21.615,16.7763174 21.615,10.8075 C21.6049075,4.842868 16.772132,0.0100924616 10.8075,1.52655666e-16 Z M10.8075,20.1666667 C5.6448314,20.1666642 1.45919048,15.9823875 1.45750499,10.8197192 C1.4558195,5.6570509 5.63872738,1.47004213 10.8013949,1.46666866 C15.9640624,1.4632952 20.1524386,5.64483388 20.1575,10.8075 C20.1524469,15.9692679 15.9692679,20.1524469 10.8075,20.1575 L10.8075,20.1666667 Z M6.03166667,9.845 L4.29,9.845 L4.29,6.03166667 C4.29,5.31666667 4.62916667,4.95916667 5.3075,4.95916667 L9.08416667,4.95916667 C9.37966402,4.90908968 9.68097959,5.00663144 9.89107216,5.22037779 C10.1011647,5.43412414 10.1934973,5.73707656 10.1383333,6.03166667 L10.1383333,9.845 L8.415,9.845 L8.415,6.45333333 L6.03166667,6.45333333 L6.03166667,9.845 Z M8.415,10.9633333 L10.1566667,10.9633333 L10.1566667,15.5466667 L10.1566667,15.5466667 C10.2083903,15.8398439 10.1145183,16.1398803 9.90492239,16.3512988 C9.69532647,16.5627173 9.39611406,16.6591834 9.1025,16.61 L5.3075,16.61 C5.01742433,16.6443599 4.72834004,16.5384148 4.52916151,16.3247506 C4.32998297,16.1110863 4.24456012,15.8152874 4.29916667,15.5283333 L4.29916667,10.945 L8.42416667,10.945 L8.415,10.9633333 Z M15.565,11.0275 L17.325,11.0275 L17.325,15.6108333 L17.325,15.6108333 C17.3776037,15.9058738 17.282661,16.2079974 17.0707458,16.4199125 C16.8588307,16.6318276 16.5567072,16.7267703 16.2616667,16.6741667 L12.4391667,16.6741667 C12.1469932,16.719982 11.8506639,16.6220198 11.6433678,16.4110868 C11.4360716,16.2001539 11.3432774,15.9021659 11.3941667,15.6108333 L11.3941667,11.0275 L11.3941667,11.0275 L11.3941667,6.11416667 C11.3371276,5.81583356 11.4315693,5.50861812 11.6463437,5.29384371 C11.8611181,5.0790693 12.1683336,4.98462762 12.4666667,5.04166667 L16.225,5.04166667 C16.527469,4.97375992 16.8437672,5.06332656 17.0657259,5.27973626 C17.2876846,5.49614597 17.3852288,5.81007571 17.325,6.11416667 L17.325,8.86416667 L15.4916667,8.86416667 L15.4916667,6.53583333 L13.2,6.53583333 L13.2,11.0275 L15.565,11.0275 Z" id="Shape"></path>
        </g>
    </g>
</svg>