<svg xmlns="http://www.w3.org/2000/svg" xmlns:xlink="http://www.w3.org/1999/xlink" width="32" height="32" viewBox="0 0 32 32"><defs><filter id="a" width="111.7%" height="111.7%" x="-5.8%" y="-4.2%" filterUnits="objectBoundingBox"><feOffset dy=".5" in="SourceAlpha" result="shadowOffsetOuter1"/><feGaussianBlur in="shadowOffsetOuter1" result="shadowBlurOuter1" stdDeviation=".5"/><feComposite in="shadowBlurOuter1" in2="SourceAlpha" operator="out" result="shadowBlurOuter1"/><feColorMatrix in="shadowBlurOuter1" values="0 0 0 0 0 0 0 0 0 0 0 0 0 0 0 0 0 0 0.199473505 0"/></filter><filter id="d" width="115.9%" height="115.9%" x="-8%" y="-5.7%" filterUnits="objectBoundingBox"><feOffset dy=".5" in="SourceAlpha" result="shadowOffsetOuter1"/><feGaussianBlur in="shadowOffsetOuter1" result="shadowBlurOuter1" stdDeviation=".5"/><feColorMatrix in="shadowBlurOuter1" values="0 0 0 0 0 0 0 0 0 0 0 0 0 0 0 0 0 0 0.204257246 0"/></filter><linearGradient id="c" x1="50%" x2="50%" y1="0%" y2="100%"><stop offset="0%" stop-color="#FFF" stop-opacity=".5"/><stop offset="100%" stop-opacity=".5"/></linearGradient><circle id="b" cx="16" cy="15" r="15"/><path id="e" d="M7.026 18.009A2.712 2.712 0 014 15.309a2.712 2.712 0 012.682-2.718c.96-4.41 4.87-7.711 9.546-7.711.873 0 1.72.115 2.525.33A2.7 2.7 0 0121.005 4a2.712 2.712 0 012.705 2.718c0 .469-.118.91-.326 1.294A9.809 9.809 0 0126 14.698a9.811 9.811 0 01-2.904 6.985c.326.448.518 1.001.518 1.599A2.712 2.712 0 0120.908 26a2.707 2.707 0 01-2.519-1.724 9.76 9.76 0 01-2.16.24c-4.241 0-7.851-2.714-9.203-6.507zm.49-.105c1.3 3.568 4.71 6.115 8.712 6.115.695 0 1.372-.077 2.023-.222a2.712 2.712 0 012.657-3.233c.72 0 1.376.283 1.86.744a9.314 9.314 0 002.737-6.61c0-2.41-.91-4.606-2.405-6.26-.496.61-1.25.999-2.095.999a2.712 2.712 0 01-2.706-2.719c0-.374.076-.731.212-1.056a9.253 9.253 0 00-2.283-.284c-4.416 0-8.112 3.101-9.047 7.255a2.715 2.715 0 012.23 2.676 2.718 2.718 0 01-1.896 2.595zm8.712-.484a2.715 2.715 0 01-2.708-2.722 2.715 2.715 0 012.708-2.721 2.715 2.715 0 012.709 2.721 2.715 2.715 0 01-2.709 2.722z"/></defs><g fill="none" fill-rule="evenodd"><use fill="#000" filter="url(#a)" xlink:href="#b"/><use fill="#57BEEA" xlink:href="#b"/><use fill="url(#c)" style="mix-blend-mode:soft-light" xlink:href="#b"/><circle cx="16" cy="15" r="14.5" stroke="#000" stroke-opacity=".097"/><g fill-rule="nonzero"><use fill="#000" filter="url(#d)" xlink:href="#e"/><use fill="#FFF" fill-rule="evenodd" xlink:href="#e"/></g></g></svg>