<?xml version="1.0" encoding="UTF-8"?>
<svg width="32px" height="32px" viewBox="0 0 32 32" version="1.1" xmlns="http://www.w3.org/2000/svg" xmlns:xlink="http://www.w3.org/1999/xlink">
    <!-- Generator: Sketch 53 (72520) - https://sketchapp.com -->
    <title>svg/icon/iop</title>
    <desc>Created with Sketch.</desc>
    <defs>
        <linearGradient x1="50%" y1="0%" x2="50%" y2="100%" id="linearGradient-1">
            <stop stop-color="#FFFFFF" stop-opacity="0.5" offset="0%"></stop>
            <stop stop-color="#000000" stop-opacity="0.5" offset="100%"></stop>
        </linearGradient>
        <circle id="path-2" cx="15" cy="15" r="15"></circle>
        <filter x="-5.8%" y="-4.2%" width="111.7%" height="111.7%" filterUnits="objectBoundingBox" id="filter-3">
            <feOffset dx="0" dy="0.5" in="SourceAlpha" result="shadowOffsetOuter1"></feOffset>
            <feGaussianBlur stdDeviation="0.5" in="shadowOffsetOuter1" result="shadowBlurOuter1"></feGaussianBlur>
            <feComposite in="shadowBlurOuter1" in2="SourceAlpha" operator="out" result="shadowBlurOuter1"></feComposite>
            <feColorMatrix values="0 0 0 0 0   0 0 0 0 0   0 0 0 0 0  0 0 0 0.199473505 0" type="matrix" in="shadowBlurOuter1"></feColorMatrix>
        </filter>
    </defs>
    <g id="icon/iop" stroke="none" stroke-width="1" fill="none" fill-rule="evenodd">
        <g id="Group" transform="translate(1.000000, 0.000000)" fill-rule="nonzero">
            <g id="Oval">
                <use fill="black" fill-opacity="1" filter="url(#filter-3)" xlink:href="#path-2"></use>
                <use fill="#0CAFA5" xlink:href="#path-2"></use>
                <use fill="url(#linearGradient-1)" style="mix-blend-mode: soft-light;" xlink:href="#path-2"></use>
                <circle stroke-opacity="0.0970052083" stroke="#000000" stroke-width="1" stroke-linejoin="square" cx="15" cy="15" r="14.5"></circle>
            </g>
        </g>
        <g id="iop" transform="translate(9.000000, 7.000000)" fill="#FFFFFF" fill-rule="nonzero">
            <path d="M0.361789474,4.30389474 C0.332561404,4.28719298 0.308736842,4.30070175 0.308736842,4.33459649 L0.308736842,6.34863158 C0.310714519,6.38603888 0.330424083,6.42025687 0.361789474,6.44073684 L2.90782456,7.91245614 C2.93918995,7.93293611 2.95889952,7.96715411 2.96087719,8.0045614 L2.96087719,15.2926667 C2.963066,15.3300731 2.98283434,15.364235 3.01417544,15.3847719 L4.75803509,16.3917895 C4.78726316,16.4084912 4.81108772,16.3949825 4.81108772,16.3610877 L4.81108772,6.93638596 C4.80911004,6.89897867 4.78940048,6.86476068 4.75803509,6.8442807 L0.361789474,4.30389474 Z" id="Path"></path>
            <path d="M13.6382105,4.30389474 C13.6674386,4.28719298 13.6915088,4.30070175 13.6915088,4.33459649 L13.6915088,6.34863158 C13.6894364,6.38607283 13.6696398,6.42028346 13.6382105,6.44073684 L11.0924211,7.91147368 C11.0609917,7.93192707 11.0411952,7.9661377 11.0391228,8.00357895 L11.0391228,15.2926667 C11.0370284,15.3300393 11.017347,15.3642083 10.9860702,15.3847719 L9.24221053,16.3917895 C9.21322807,16.4084912 9.18915789,16.3949825 9.18915789,16.3610877 L9.18915789,6.93638596 C9.19125233,6.89901332 9.21093369,6.86484429 9.24221053,6.8442807 L13.6382105,4.30389474 Z" id="Path"></path>
            <path d="M13.9832982,0.440385965 C13.9832982,0.406736842 13.9587368,0.392736842 13.9302456,0.409929825 L7.05305263,4.38715789 C7.0197111,4.40409162 6.9802889,4.40409162 6.94694737,4.38715789 L0.069754386,0.409929825 C0.0405263158,0.392736842 0.0164561404,0.406736842 0.0164561404,0.440385965 L0.0164561404,2.45442105 C0.0185285329,2.4918623 0.0383250821,2.52607293 0.069754386,2.54652632 L6.02221053,5.9885614 C6.05348736,6.00912499 6.07316872,6.04329402 6.07526316,6.08066667 L6.07526316,18.5799649 C6.07733555,18.6174062 6.0971321,18.6516168 6.1285614,18.6720702 L6.94670175,19.1446316 C6.98018458,19.1613346 7.01956981,19.1613346 7.05305263,19.1446316 L7.8714386,18.6720702 C7.9028679,18.6516168 7.92266445,18.6174062 7.92473684,18.5799649 L7.92473684,6.08066667 C7.92683128,6.04329402 7.94651264,6.00912499 7.97778947,5.9885614 L13.9302456,2.54603509 C13.961611,2.52555511 13.9813206,2.49133712 13.9832982,2.45392982 L13.9832982,0.440385965 Z M7.03778531,5.53677851 C7.02978531,5.53677851 7.02678531,5.53077851 7.03078531,5.52377851 C7.03478531,5.51677851 7.04078531,5.51677851 7.04478531,5.52377851 C7.04878531,5.53077851 7.04478531,5.53677851 7.03778531,5.53677851 L7.03778531,5.53677851 Z" id="Shape"></path>
            <path d="M6.13568421,0.176596491 C6.10091495,0.184209409 6.07591777,0.214693771 6.07526316,0.250280702 L6.07526316,2.76414035 C6.07745197,2.80154677 6.09722031,2.83570865 6.1285614,2.85624561 L6.94670175,3.3285614 C6.98012898,3.34549874 7.01962541,3.34549874 7.05305263,3.3285614 L7.87119298,2.85624561 C7.90259275,2.83576421 7.92237983,2.80156995 7.92449123,2.76414035 L7.92449123,0.249298246 C7.92383661,0.213711315 7.89883944,0.183226953 7.86407018,0.175614035 L7.06017544,0.028245614 C7.02012878,0.0221047464 6.97937999,0.0221047464 6.93933333,0.028245614 L6.13568421,0.176596491 Z" id="Path"></path>
        </g>
    </g>
</svg>