<svg height="32" viewBox="0 0 32 32" width="32" xmlns="http://www.w3.org/2000/svg" xmlns:xlink="http://www.w3.org/1999/xlink"><defs><linearGradient id="a" x1="50%" x2="50%" y1="0%" y2="100%"><stop offset="0" stop-color="#fff" stop-opacity=".5"/><stop offset="1" stop-opacity=".5"/></linearGradient><circle id="b" cx="16" cy="15" r="15"/><filter id="c" height="111.7%" width="111.7%" x="-5.8%" y="-4.2%"><feOffset dy=".5" in="SourceAlpha" result="shadowOffsetOuter1"/><feGaussianBlur in="shadowOffsetOuter1" result="shadowBlurOuter1" stdDeviation=".5"/><feComposite in="shadowBlurOuter1" in2="SourceAlpha" operator="out" result="shadowBlurOuter1"/><feColorMatrix in="shadowBlurOuter1" values="0 0 0 0 0   0 0 0 0 0   0 0 0 0 0  0 0 0 0.199473505 0"/></filter><path id="d" d="m10.1228558 7.28273892.3979572-.71639203c.1944606-.35006275.5579558-.56634689.9518238-.56634689h8.9552239c.3714514 0 .7161716.19239714.9173732.50847458h4.0577512v7.13945842l.4490227.7903561c.1973229.3473218.1973229.7761 0 1.1234218l-.4490227.7903561v3.0716618l-3.4371609 2.978324-.5914283 1.041014c-.1958691.3447629-.556463.5569332-.9465352.5569332h-8.9552239c-.393868 0-.7573632-.2162841-.9518238-.5663469l-.0243435-.0438226h-3.99895706v-7.1988159l-.35480885-.6387174c-.19027145-.3425216-.19027145-.7620728 0-1.1045944l.35480885-.6387174v-3.2327142zm1.349781-.16409485-4.37810944 7.88135593 4.37810944 7.8813559h8.9552239l4.4776119-7.8813559-4.4776119-7.88135593zm.4055017.7118644h8.1487327l4.0731825 7.16949153-4.0731825 7.1694915h-8.1487327l-3.98266732-7.1694915zm1.8830555 3.05084743-2.1890547 4.0677966 2.1890547 4.0677967h4.6766169l2.1890548-4.0677967-2.1890548-4.0677966z"/><filter id="e" height="119.4%" width="117.5%" x="-8.8%" y="-6.9%"><feOffset dy=".5" in="SourceAlpha" result="shadowOffsetOuter1"/><feGaussianBlur in="shadowOffsetOuter1" result="shadowBlurOuter1" stdDeviation=".5"/><feColorMatrix in="shadowBlurOuter1" values="0 0 0 0 0   0 0 0 0 0   0 0 0 0 0  0 0 0 0.204257246 0"/></filter></defs><g fill="none" fill-rule="evenodd"><g fill-rule="nonzero"><use fill="#000" filter="url(#c)" xlink:href="#b"/><use fill="#4cb8d1" fill-rule="evenodd" xlink:href="#b"/><use fill="url(#a)" fill-rule="evenodd" xlink:href="#b"/><circle cx="16" cy="15" r="14.5" stroke="#000" stroke-opacity=".097"/></g><use fill="#000" filter="url(#e)" xlink:href="#d"/><use fill="#fff" xlink:href="#d"/></g></svg>