<svg width="32" height="32" viewBox="0 0 32 32" version="1.1" xmlns="http://www.w3.org/2000/svg" xmlns:xlink="http://www.w3.org/1999/xlink"><title>svg/icon/iotx</title><desc>Created with Sketch.</desc><defs><linearGradient x1="50%" y1="0%" x2="50%" y2="100%" id="linearGradient-1"><stop stop-color="#FFF" stop-opacity=".5" offset="0%"/><stop stop-color="#000" stop-opacity=".5" offset="100%"/></linearGradient><circle id="path-2" cx="15" cy="15" r="15"/><filter x="-5.8%" y="-4.2%" width="111.7%" height="111.7%" filterUnits="objectBoundingBox" id="filter-3"><feOffset dx="0" dy=".5" in="SourceAlpha" result="shadowOffsetOuter1"/><feGaussianBlur stdDeviation=".5" in="shadowOffsetOuter1" result="shadowBlurOuter1"/><feComposite in="shadowBlurOuter1" in2="SourceAlpha" operator="out" result="shadowBlurOuter1"/><feColorMatrix values="0 0 0 0 0 0 0 0 0 0 0 0 0 0 0 0 0 0 0.199473505 0" type="matrix" in="shadowBlurOuter1"/></filter></defs><g id="icon/iotx" stroke="none" stroke-width="1" fill="none" fill-rule="evenodd"><g id="Group" transform="translate(1.000000, 0.000000)" fill-rule="nonzero"><g id="Oval"><use fill="#000" fill-opacity="1" filter="url(#filter-3)" xlink:href="#path-2"/><use fill="#00D4D5" xlink:href="#path-2"/><use fill="url(#linearGradient-1)" style="mix-blend-mode:soft-light" xlink:href="#path-2"/><circle stroke-opacity=".097" stroke="#000" stroke-width="1" stroke-linejoin="square" cx="15" cy="15" r="14.5"/></g></g><g id="IoTeX-(IOTX)-Copy" transform="translate(3.000000, 5.000000)" fill="#FFF" fill-rule="nonzero"><polygon id="Shape" points="13.3090598 0 13.3090598 5.00233618 17.6518139 2.50461538"/><polygon id="Shape" opacity=".9" points="17.6518139 2.50461538 17.6518139 7.50695157 21.9945679 5.00233618"/><polygon id="Shape" opacity=".8" points="13.3090598 5.00233618 13.3090598 10.0046724 17.6518139 7.50695157"/><polygon id="Shape" opacity=".8" points="17.6518139 7.50695157 17.6518139 12.5092877 21.9945679 10.0046724"/><polygon id="Shape" opacity=".8" points="13.3090598 10.0046724 13.3090598 15.0067996 17.6518139 12.5092877"/><polygon id="Shape" points="17.6518139 12.5092877 17.6518139 17.511415 21.9945679 15.0067996"/><polygon id="Shape" opacity=".4" points="2.08362773 4.83394112 2.08362773 9.8362773 6.42659069 7.33145299"/><polygon id="Shape" opacity=".2" points="7.5631529 6.69318139 7.5631529 11.6953086 11.8988034 9.19779677"/><polygon id="Shape" opacity=".3" points="4.34275404 9.85716999 4.34275404 14.8595062 8.68550807 12.3548908"/><polygon id="Shape" opacity=".9" points="7.20526116 13.6318519 7.20526116 18.6339791 11.5411206 16.1293637"/><polygon id="Shape" opacity=".7" points="13.2739601 15.785679 13.2739601 20.7880152 17.6098196 18.2831909"/><polygon id="Shape" opacity=".9" points="8.28562203 4.22345679 8.28562203 9.22579297 12.6214815 6.7282811"/><polygon id="Shape" opacity=".8" points="13.3090598 0 13.3090598 5.00233618 8.96630579 2.50461538"/><polygon id="Shape" opacity=".6" points="8.28562203 2.12583096 8.28562203 7.12816714 3.942868 4.62334283"/><polygon id="Shape" opacity=".6" points="12.628585 4.60245014 12.628585 9.6045774 8.28562203 7.09996201"/><polygon id="Shape" opacity=".95" points="7.54205128 6.69318139 7.54205128 11.6953086 3.19929725 9.19779677"/><polygon id="Shape" opacity=".6" points="13.3090598 10.0046724 13.3090598 15.0067996 8.97320038 12.5092877"/><polygon id="Shape" opacity=".55" points="4.34275404 11.1692308 4.34275404 16.171567 0 13.6667426"/><polygon id="Shape" points="21.9945679 5.00233618 21.9945679 10.0046724 17.6518139 7.50695157"/><polygon id="Shape" opacity=".95" points="17.6518139 7.50695157 17.6518139 12.5092877 13.3090598 10.0046724"/><polygon id="Shape" opacity=".9" points="21.9945679 10.0046724 21.9945679 15.0067996 17.6518139 12.5092877"/><polygon id="Shape" opacity=".7" points="17.6518139 12.5092877 17.6518139 17.511415 13.3090598 15.0067996"/><polygon id="Shape" opacity=".4" points="12.3477873 14.5929155 12.3477873 19.5952517 8.00503324 17.0975309"/><polygon id="Shape" points="17.6518139 2.50461538 17.6518139 7.50695157 13.3090598 5.00233618"/></g></g></svg>