<?xml version="1.0" encoding="UTF-8"?>
<svg width="32px" height="32px" viewBox="0 0 32 32" version="1.1" xmlns="http://www.w3.org/2000/svg" xmlns:xlink="http://www.w3.org/1999/xlink">
    <!-- Generator: Sketch 52.5 (67469) - http://www.bohemiancoding.com/sketch -->
    <title>svg/icon/iq</title>
    <desc>Created with Sketch.</desc>
    <defs>
        <linearGradient x1="50%" y1="0%" x2="50%" y2="100%" id="linearGradient-1">
            <stop stop-color="#FFFFFF" stop-opacity="0.5" offset="0%"></stop>
            <stop stop-color="#000000" stop-opacity="0.5" offset="100%"></stop>
        </linearGradient>
        <circle id="path-2" cx="15" cy="15" r="15"></circle>
        <filter x="-5.8%" y="-4.2%" width="111.7%" height="111.7%" filterUnits="objectBoundingBox" id="filter-3">
            <feOffset dx="0" dy="0.5" in="SourceAlpha" result="shadowOffsetOuter1"></feOffset>
            <feGaussianBlur stdDeviation="0.5" in="shadowOffsetOuter1" result="shadowBlurOuter1"></feGaussianBlur>
            <feComposite in="shadowBlurOuter1" in2="SourceAlpha" operator="out" result="shadowBlurOuter1"></feComposite>
            <feColorMatrix values="0 0 0 0 0   0 0 0 0 0   0 0 0 0 0  0 0 0 0.199473505 0" type="matrix" in="shadowBlurOuter1"></feColorMatrix>
        </filter>
    </defs>
    <g id="icon/iq" stroke="none" stroke-width="1" fill="none" fill-rule="evenodd">
        <g id="Group" transform="translate(1.000000, 0.000000)" fill-rule="nonzero">
            <g id="Oval">
                <use fill="black" fill-opacity="1" filter="url(#filter-3)" xlink:href="#path-2"></use>
                <use fill="#55DDFF" xlink:href="#path-2"></use>
                <use fill="url(#linearGradient-1)" style="mix-blend-mode: soft-light;" xlink:href="#path-2"></use>
                <circle stroke-opacity="0.0970052083" stroke="#000000" stroke-width="1" stroke-linejoin="square" cx="15" cy="15" r="14.5"></circle>
            </g>
        </g>
        <g id="iq" transform="translate(4.000000, 3.000000)" fill="#FFFFFF" fill-rule="nonzero">
            <path d="M7.83,6.12 C7.83644968,4.22394427 8.54955275,2.39840042 9.83,1 C10.18,0.65 10.22,0.58 10.22,0.3 C10.22,0.02 10.22,0 10.01,0 C9.75039658,0.0287490124 9.49310845,0.0755286735 9.24,0.14 C6.25529098,0.845071258 3.64967049,2.65721061 1.95,5.21 C1.12939117,6.42052395 0.552008681,7.77907098 0.25,9.21 C-0.000383676914,10.5279342 -0.0609973002,11.8749036 0.07,13.21 C0.437412155,16.1725268 1.92615783,18.8816144 4.23,20.78 C5.46,21.78 6.84,22.58 6.84,22.22 C6.75929211,22.0649217 6.65083193,21.9259571 6.52,21.81 C5.26754549,20.4295518 4.68600903,18.5679036 4.93,16.72 C5.11037476,14.4195284 6.37215891,12.3412956 8.33,11.12 C8.57390734,10.9462531 8.83140566,10.792423 9.1,10.66 C9.25,10.66 9.16,10.36 8.79,9.66 C8.15694985,8.58802448 7.8252644,7.36493437 7.83,6.12 Z M23.34,9.24 C22.624041,5.75280156 20.3967161,2.76349711 17.26,1.08 C16.7,0.77 16.42,0.7 16.42,0.89 C16.4728817,1.04990917 16.5541843,1.19896391 16.66,1.33 C17.2798244,2.21054547 17.6275323,3.25366896 17.66,4.33 C17.7874148,5.46507496 17.4235042,6.60047601 16.66,7.45 C16.2568014,7.87745186 15.5858436,7.90411244 15.15,7.51 C14.75,7.22 14.75,7.02 15,6.65 C15.5297496,5.87090048 15.7928823,4.94116516 15.75,4 C15.8286831,3.23364339 15.5566885,2.47279382 15.01,1.93 C14.5094002,1.41090767 13.7611627,1.21420604 13.07,1.42 C12.085222,1.81676719 11.3644577,2.68018279 11.15,3.72 C10.920682,4.4600016 10.7862733,5.22613092 10.75,6 C10.7573906,7.184996 11.048876,8.35093736 11.6,9.4 C11.9845005,10.0029874 12.4601477,10.5427288 13.01,11 C13.1190824,11.0717318 13.2168292,11.1593669 13.3,11.26 C13.2033393,11.3394868 13.0908366,11.3974428 12.97,11.43 C11.4086645,12.1688286 10.2115915,13.5065217 9.65,15.14 C9.28396843,16.0785388 9.12039524,17.0838323 9.17,18.09 C9.12911175,19.0488415 9.49180303,19.9809581 10.17,20.66 C10.9391429,21.3257635 11.9710539,21.6021682 12.97,21.41 C14.2909725,21.3111835 15.5262839,20.7185197 16.43,19.75 C16.84,19.31 16.92,19.26 17,19.36 C17.08,19.46 17.06,19.52 16.91,19.77 C15.960433,21.3918743 14.436551,22.5981322 12.64,23.15 C12.29,23.24 12.14,23.31 12.14,23.39 C12.14,23.65 14.33,23.29 15.66,22.82 C19.0958776,21.5646292 21.779406,18.8222837 22.96,15.36 C23.3912213,14.1695003 23.5782732,12.9043497 23.51,11.64 C23.5556039,10.836026 23.4984763,10.0295184 23.34,9.24 Z" id="Shape"></path>
        </g>
    </g>
</svg>