<svg height="32" viewBox="0 0 32 32" width="32" xmlns="http://www.w3.org/2000/svg" xmlns:xlink="http://www.w3.org/1999/xlink"><defs><linearGradient id="a" x1="50%" x2="50%" y1="0%" y2="100%"><stop offset="0" stop-color="#fff" stop-opacity=".5"/><stop offset="1" stop-opacity=".5"/></linearGradient><circle id="b" cx="16" cy="15" r="15"/><filter id="c" height="111.7%" width="111.7%" x="-5.8%" y="-4.2%"><feOffset dy=".5" in="SourceAlpha" result="shadowOffsetOuter1"/><feGaussianBlur in="shadowOffsetOuter1" result="shadowBlurOuter1" stdDeviation=".5"/><feComposite in="shadowBlurOuter1" in2="SourceAlpha" operator="out" result="shadowBlurOuter1"/><feColorMatrix in="shadowBlurOuter1" values="0 0 0 0 0   0 0 0 0 0   0 0 0 0 0  0 0 0 0.199473505 0"/></filter><path id="d" d="m13.7014925 17.0072993v-4.8175183h1.1249553c.2423283 0 .4386865.1939854.4386865.4334161v.4162336c0 .4514014.393209.839854.8497911.839854.4567462 0 .8036567-.3884526.8038209-.839854l-.0001642-.4000146c0-.2484234.2039104-.4496351.4551045-.4496351h1.2531791v1.2170657c0 .2484234-.2037463.4497956-.4549403.4497956h-.0001642-.4245672c-.4567462 0-.8268059.3658103-.8284477.8172117 0 .4514015.4245671.8172117.8813134.8172117h.3753134c.2493881 0 .4514926.1997664.4514926.4459416v1.070292h1.0087164c.3495373 0 .6330746.2773284.6330746.6192116v.3675767c0 .3418832-.2835373.6190511-.6330746.6190511h-.3756418c-.3495373 0-.6330746-.2771679-.6330746-.6190511v-.8262044h-1.2567911c-.2492239 0-.4513283-.1997664-.4514925-.4461022l.0001642-.4120584c0-.4512408-.3854926-.832146-.8420747-.8337518-.4567462 0-.8115373.3992117-.8115373.8747007v.374803c0 .2442481-.2004627.4424087-.4478806.4424087h-1.1157612v.8262044c0 .3418832-.2835373.6190511-.6330746.6190511h-.3756418c-.3495373 0-.6330746-.2771679-.6330746-.6190511v-.3675767c0-.3418832.2835373-.6192116.6330746-.6192116zm5.9340896-4.9781022h-1.0087164v-.9866278c0-.3418832.2835373-.6192116.6330746-.6192116h.3756418c.3495373 0 .6330746.2773284.6330746.6192116v.3675767c0 .3418832-.2835373.6190511-.6330746.6190511zm-5.9340896 0h-1.0087164c-.3495373 0-.6330746-.2771679-.6330746-.6190511v-.3675767c0-.3418832.2835373-.6192116.6330746-.6192116h.3756418c.3495373 0 .6330746.2773284.6330746.6192116zm2.2748657-1.4452555c-.3495373 0-.6330746-.2773285-.6330746-.61921167v-.36757665c0-.34188321.2835373-.61905109.6330746-.61905109h.3756418c.3495373 0 .6330746.27716788.6330746.61905109v.36757665c0 .34188317-.2835373.61921167-.6330746.61921167zm0 9.7956204c-.3495373 0-.6330746-.2771678-.6330746-.6190511v-.3675766c0-.3418832.2835373-.6192117.6330746-.6192117h.3756418c.3495373 0 .6330746.2773285.6330746.6192117v.3675766c0 .3418833-.2835373.6190511-.6330746.6190511zm4.9253731-4.9781021c-.3497014 0-.6330746-.2771679-.6330746-.6190511v-.3675767c0-.3418832.2833732-.6192117.6330746-.6192117h.3756418c.3495373 0 .6330747.2773285.6330747.6192117v.3675767c0 .3418832-.2835374.6190511-.6330747.6190511zm-10.0149253 0c-.3497015 0-.6330747-.2771679-.6330747-.6190511v-.3675767c0-.3418832.2833732-.6192117.6330747-.6192117h.3756418c.3495373 0 .6330746.2773285.6330746.6192117v.3675767c0 .3418832-.2835373.6190511-.6330746.6190511zm7.7664925 5.0209781c.2930597-.1186716.6291343.0175036.7504627.3041459.1216567.286803-.0177313.6153577-.3107911.7341898-.2930597.1186716-.6291343-.017343-.7506268-.304146-.1213284-.2868029.0178955-.6153576.3109552-.7341897zm-5.2537313-12.52554749c.2930597-.11867153.6292985.01750365.7506268.30414599.1213284.28680292-.0178955.61535766-.3109552.73418978-.2932239.11867153-.6292985-.01734307-.7506269-.30414599-.1213283-.28680292.0178956-.61535766.3109553-.73418978zm8.5547164 4.42762039c-.1213284-.2868029.0178955-.6153576.3109552-.7341897.2932239-.1186716.6289702.0175036.7506269.304146.1213283.2868029-.0178956.6155182-.3109553.7341897-.2932238.1186716-.6292985-.017343-.7506268-.304146zm-12.64179106 5.1386862c-.12132836-.2866424.01789552-.6153577.31095522-.7340292.29322388-.1189927.62897014.017343.75062684.3039854.1213284.2866423-.0178955.6155182-.3109552.7341898-.29322388.1186715-.6292985-.0173431-.75062686-.304146zm0-5.5687299c.12165671-.2866424.45740298-.4228176.75062686-.304146.2930597.1188321.4322836.4475474.3109552.7341897-.1216567.286803-.45740296.4228176-.75062684.304146-.2930597-.1186715-.43228358-.4473868-.31095522-.7341897zm9.17662686-2.95924092c-.2930597-.11883212-.4322836-.44738686-.3109552-.73418978.1213283-.28664234.457403-.42281752.7506268-.30414599.2930597.11883212.4322836.44738686.3109553.73418978-.1213284.28680292-.4575672.42281752-.7506269.30414599zm3.4651642 8.09792702c.1216567-.2866424.4575671-.4229781.7506268-.3039854.2930597.1186715.4322836.4473868.3109553.7340292-.1213284.2868029-.457403.4228175-.7506269.304146-.2930597-.1186716-.4322836-.4475475-.3109552-.7341898zm-8.8830746 4.5882044c-.2930597-.1188322-.4324478-.4473869-.3107911-.7341898.1213284-.2866424.457403-.4228175.7504627-.304146.2930597.1188321.4322836.4473869.3109552.7341898-.1214925.2868029-.4575671.4228175-.7506268.304146zm8.4429104-1.6294453c.1283881-.125416.3360746-.125416.4642985 0 .1282239.1254161.1282239.3287153 0 .4541314s-.3359104.1254161-.4642985 0c-.1282239-.1254161-.1282239-.3287153 0-.4541314zm-11.1641791-11.08029196c.1282239-.12541606.3360746-.12541606.4642985 0s.1282239.32871533 0 .45413138c-.1282239.12541606-.3360746.12541606-.4642985 0-.1282239-.12541605-.1282239-.32871532 0-.45413138zm11.1641791.45413138c-.1282239-.12541605-.1282239-.32871532 0-.45413138.1283881-.12541606.3360746-.12541606.4642985 0s.1282239.32871533 0 .45413138c-.1282239.12541606-.3359104.12541606-.4642985 0zm-11.1641791 11.08029198c-.1282239-.1254161-.1282239-.3287153 0-.4541314.1282239-.125416.3360746-.125416.4642985 0 .1282239.1254161.1282239.3287153 0 .4541314s-.3360746.1254161-.4642985 0zm13.5306567-5.8473431c0-.1774452.1471045-.3213284.328194-.3213284.181418 0 .3285224.1438832.3285224.3213284 0 .1771241-.1471044.3210073-.3285224.3210073-.1810895 0-.328194-.1438832-.328194-.3210073zm-15.92537312 0c0-.1774452.1469403-.3213284.32835821-.3213284.18125373 0 .32835821.1438832.32835821.3213284 0 .1771241-.14710448.3210073-.32835821.3210073-.18141791 0-.32835821-.1438832-.32835821-.3210073zm8.20911942-7.38702187c-.1814179 0-.3285224-.14372263-.3285224-.32116788 0-.17744526.1471045-.32116788.3285224-.32116788.1810895 0 .328194.14372262.328194.32116788 0 .17744525-.1471045.32116788-.328194.32116788zm0 15.57664237c-.1814179 0-.3285224-.1438832-.3285224-.3211679 0-.1774453.1471045-.3211679.3285224-.3211679.1810895 0 .328194.1437226.328194.3211679 0 .1772847-.1471045.3211679-.328194.3211679zm10.1789403-8.1897811c0-.177124.1472686-.3211678.3283582-.3211678.1810895 0 .3283582.1440438.3283582.3211678 0 .1771241-.1472687.3211679-.3283582.3211679-.1810896 0-.3283582-.1440438-.3283582-.3211679zm-21.09701494-.1605839c.1359403 0 .24626865.1079124.24626865.2408759s-.11032835.2408759-.24626865.2408759c-.13577612 0-.24626866-.1079124-.24626866-.2408759s.11049254-.2408759.24626866-.2408759zm10.42537314-10.11678832c0-.17712408.1472686-.32116788.3283582-.32116788s.3283582.1440438.3283582.32116788c0 .17712409-.1472686.32116789-.3283582.32116789s-.3283582-.1440438-.3283582-.32116789zm9.7253134 14.10472992c.1055672-.2447299.3950149-.3600292.6453881-.2564525.2502089.103416.3677612.3863649.262194.6312554-.0792985.1837081-.262194.2941898-.4544477.2941898-.0637015 0-.1285523-.0122044-.1909403-.0378978-.2500448-.1032555-.3677612-.3865255-.2621941-.6310949zm-5.3290895 5.1907153c.0809403.0335621.1434925.0957081.1764925.1750365.033.0794891.0323433.1666862-.0016418.2455329-.0341492.0791679-.0976865.1403503-.1789552.1726277-.0814328.032438-.1704179.0316351-.2510299-.0017664-.0807761-.0332409-.1434925-.0953869-.1764925-.1748759-.033-.0794891-.0323433-.1666861.0016418-.2455329.0341493-.0790073.0976866-.1403503.1789552-.1726277.0398955-.0157372.0817612-.0237664.1236269-.0237664.0433433 0 .0865224.0085109.127403.0253722zm-13.6268657-13.3284671c.08077612.033562.14349254.0955474.17649254.1750365.033.0793284.03234328.1666861-.00164179.2455328-.03414926.0790073-.09768657.1401898-.17895523.1724672-.08126865.0324379-.17041791.0317956-.25102985-.0016059-.0809403-.0332408-.14349254-.0953868-.17649254-.1748759-.033-.0793284-.03234328-.1666861.0016418-.2455328.03398507-.0790073.09752238-.1403504.17895522-.1726278.03989552-.0157372.08176119-.0237664.12329851-.0237664.04350746 0 .08668656.008511.12773134.0253723zm-.9161194 8.2491971c.08816418-.2042628.32885074-.2998103.53768656-.2137373.20883583.0862336.30652239.3216497.21852239.5259124-.08816418.2042628-.32885074.2998103-.53768656.2137373-.20883583-.0862336-.30652239-.3218102-.21852239-.5259124zm14.3379254-13.2843066c-.2088359-.08623358-.3065224-.32164964-.2185224-.52591241.0881642-.20426278.3288507-.29981022.5376865-.21373723.2088359.08623358.3065224.32164964.2185224.52591241-.0881641.20426277-.3290149.29981022-.5376865.21373723zm6.1416119 4.8669781c.0298806-.0118832.061403-.0178248.0927612-.0178248.0325075 0 .0648508.0062628.0957164.0191095.1249403.051708.1837164.1931825.1310149.3155474-.0256119.0592555-.073388.1050219-.1342985.1292701-.0607462.0242482-.1277313.0237664-.1883134-.0012847-.0605821-.0248905-.1075373-.0716204-.1323284-.1310365-.024791-.0595766-.0242985-.1250949.0013135-.1843503.0254477-.0592555.0732239-.1051825.1341343-.1294307zm-14.4178806-5.17c.0395672-.09185402.1310149-.14709489.2272239-.14709489.0318507 0 .064194.00610219.0953881.01910949.1251044.05154744.1840447.19286131.1311791.31522627-.025612.05925548-.0733881.10534307-.1342985.12959125-.0607463.02408759-.1277314.023927-.1884777-.00128468-.1251044-.05170803-.1838806-.19318248-.1310149-.31554744zm.0630448 18.9623942c.0320149 0 .0643582.0061021.0955522.0191094.1251045.0515475.1838806.1931825.131015.3153869-.0527015.122365-.1975075.1800146-.322612.1283066-.1251045-.0517081-.1840448-.1933431-.1311791-.3155475.0397314-.0920146.1311791-.1472554.2272239-.1472554zm11.6424328-1.6997811c-.128388.1254161-.3365671.1252555-.4646268 0-.1280597-.125416-.1280597-.3290365 0-.4541313.0620597-.0608614.1444776-.0942628.2323134-.0942628.0876716 0 .1702537.0334014.2323134.0942628.1280597.1250948.1280597.3287153 0 .4541313zm-15.35698505-15.18112405c.19208955-.1880438.50485075-.1880438.69710448 0 .19192537.18788321.19192537.49379562 0 .68151825-.09620896.0939416-.22229851.1409927-.34855224.1409927s-.25234328-.0470511-.34855224-.1409927c-.19192537-.18772263-.19192537-.49363504 0-.68151825zm15.52526865.09008759c.0479403-.04705109.1109851-.07049635.174194-.07049635.0630448 0 .1260896.02344526.1741941.07049635.0958806.09394161.0958806.24681752-.0001642.34075912-.0958806.09394161-.2523433.09410219-.3482239-.00016058-.0466269-.04528467-.0722388-.10582482-.0722388-.17021898s.0256119-.12477372.0722388-.17037956zm-15.43299999 14.61329926c.04662686-.0456058.10835821-.0706569.17419403-.0706569s.12773134.0250511.17419403.0706569c.09604477.093781.09604477.2468175 0 .3405986-.0958806.0939416-.25234329.0941021-.34855224 0-.0958806-.0937811-.0958806-.2468176.00016418-.3405986zm8.05495519 4.2651095c-.2268955 0-.4106119-.1796934-.4106119-.4012993 0-.2217664.1837164-.4016204.4106119-.4016204.2265672 0 .4102836.179854.4102836.4016204 0 .2216059-.1837164.4012993-.4102836.4012993z"/><filter id="e" height="115.9%" width="115.9%" x="-8%" y="-5.7%"><feOffset dy=".5" in="SourceAlpha" result="shadowOffsetOuter1"/><feGaussianBlur in="shadowOffsetOuter1" result="shadowBlurOuter1" stdDeviation=".5"/><feColorMatrix in="shadowBlurOuter1" values="0 0 0 0 0   0 0 0 0 0   0 0 0 0 0  0 0 0 0.204257246 0"/></filter></defs><g fill="none" fill-rule="evenodd"><use fill="#000" filter="url(#c)" xlink:href="#b"/><use fill="#005fff" xlink:href="#b"/><use fill="url(#a)" xlink:href="#b"/><circle cx="16" cy="15" r="14.5" stroke="#000" stroke-opacity=".097"/><use fill="#000" filter="url(#e)" xlink:href="#d"/><use fill="#fff" xlink:href="#d"/></g></svg>