<svg xmlns="http://www.w3.org/2000/svg" xmlns:xlink="http://www.w3.org/1999/xlink" width="32" height="32" viewBox="0 0 32 32">
  <defs>
    <linearGradient id="lrc-c" x1="50%" x2="50%" y1="0%" y2="100%">
      <stop offset="0%" stop-color="#FFF" stop-opacity=".5"/>
      <stop offset="100%" stop-opacity=".5"/>
    </linearGradient>
    <circle id="lrc-b" cx="16" cy="15" r="15"/>
    <filter id="lrc-a" width="111.7%" height="111.7%" x="-5.8%" y="-4.2%" filterUnits="objectBoundingBox">
      <feOffset dy=".5" in="SourceAlpha" result="shadowOffsetOuter1"/>
      <feGaussianBlur in="shadowOffsetOuter1" result="shadowBlurOuter1" stdDeviation=".5"/>
      <feComposite in="shadowBlurOuter1" in2="SourceAlpha" operator="out" result="shadowBlurOuter1"/>
      <feColorMatrix in="shadowBlurOuter1" values="0 0 0 0 0   0 0 0 0 0   0 0 0 0 0  0 0 0 0.199473505 0"/>
    </filter>
    <path id="lrc-e" d="M15.9339076,4.06937494 C15.9468669,4.02477677 15.9805611,4 16.0272145,4 C16.5455862,5.03319114 17.0587742,6.06885996 17.5719622,7.10452878 C17.8674341,7.15160464 18.1499466,7.24575635 18.4298674,7.33990806 C18.6760939,7.44892583 18.9352798,7.5901534 19.0570971,7.83544338 C19.1400366,7.98905933 19.1348529,8.17984043 19.0389541,8.32602335 C18.8886263,8.53910354 18.6501753,8.67785343 18.4091325,8.77943817 C18.7097881,9.40133499 19.0285867,10.0133211 19.334426,10.6327403 C19.7620826,10.7665348 20.1975149,10.9350168 20.5266809,11.239771 C20.7210703,11.4231191 20.8532551,11.6857528 20.8195609,11.9533419 C20.7780912,12.235797 20.5474158,12.4463995 20.3141485,12.6000155 C20.798826,13.5861308 21.2809117,14.5722461 21.7681811,15.553406 C21.861488,15.6178256 21.9781217,15.6475577 22.0792041,15.7020666 C22.3461656,15.8432942 22.6183107,15.9845217 22.851578,16.1753028 C23.1340906,16.3908607 23.3803171,16.6584498 23.5176856,16.9830254 C23.6783809,17.3224671 23.6783809,17.7263284 23.5306449,18.0682477 C23.4658485,18.2342521 23.3569904,18.3779573 23.2429486,18.5167072 C23.6628297,19.3591173 24.0853026,20.2015273 24.5,21.046415 C24.2874676,21.1653435 24.0801189,21.291705 23.8701784,21.4155888 C23.6602378,21.5270843 23.4658485,21.6658342 23.2584998,21.7798073 C20.8895411,23.1846499 18.5179905,24.5870149 16.14644,25.9918575 C16.0479494,25.9992906 15.944275,26.0067236 15.8483763,25.9893798 C13.3524165,24.5894926 10.8590486,23.1970383 8.36568074,21.797151 C8.34235402,21.7847627 8.31902729,21.7723743 8.29829242,21.7599859 C8.03392285,21.6088476 7.76436957,21.4626647 7.5,21.3090487 C7.83175789,20.6375984 8.15055649,19.9611927 8.47713066,19.2872646 C8.580805,19.054363 8.70780607,18.8313721 8.80629669,18.5959929 C8.72854094,18.4944081 8.63523403,18.4052118 8.56784571,18.2986717 C8.3682726,17.9815291 8.28792499,17.5925338 8.37864004,17.2307931 C8.45898765,16.8517085 8.7181735,16.5320883 9.0058698,16.2744099 C9.39464857,15.9374459 9.86118311,15.6971112 10.3380851,15.4964194 C10.24737,15.6748122 10.1618387,15.8532049 10.0711236,16.0291199 C10.0218783,16.1183163 10.0141028,16.227334 9.94153072,16.304142 C9.79379479,16.3859053 9.64865071,16.4676687 9.51646592,16.5717311 C9.27023937,16.7699452 9.08103369,17.0251459 8.9618082,17.3100787 C8.8685013,17.560324 8.94107333,17.8427792 9.10436042,18.050904 C9.12509529,18.0087835 9.14583016,17.9641853 9.16656503,17.9220648 C9.42056716,17.4091858 9.66938558,16.8963067 9.91820399,16.3834277 C9.98300046,16.2347671 10.0840829,16.1034502 10.1411038,15.9523119 C10.1851654,15.9002807 10.1799817,15.8309058 10.2136759,15.7739192 C10.283656,15.6401247 10.3536362,15.5063301 10.4158408,15.3700579 C10.7450069,14.6936522 11.0767648,14.0172465 11.4059308,13.3408408 C11.512197,13.1029838 11.6443818,12.8799929 11.7428724,12.6396583 C11.5277481,12.5157745 11.3333587,12.3398594 11.2322763,12.1168685 C11.1363775,11.8938777 11.1933984,11.6361993 11.328175,11.4429405 C11.5018295,11.1827845 11.7921177,11.0217355 12.0746303,10.887941 C12.281979,10.7838785 12.5048788,10.7120259 12.7277786,10.6451286 C13.0284342,10.0356202 13.3264979,9.42363408 13.6271535,8.81412564 C13.4275804,8.74227302 13.2461503,8.62829989 13.0932307,8.48459465 C12.9662296,8.36071082 12.8625553,8.19222881 12.8910657,8.0138361 C12.9092087,7.80818894 13.0621284,7.64466228 13.233191,7.53564451 C13.4198048,7.40432765 13.637521,7.32256432 13.8552371,7.25814473 C14.0496265,7.19124746 14.2491996,7.14169393 14.4513645,7.10700646 C14.5109773,6.99055566 14.57059,6.87410486 14.6250191,6.75765406 C14.8608782,6.26707409 15.1045129,5.78144948 15.3377801,5.29086951 C15.5399451,4.88453055 15.7395182,4.47819158 15.9339076,4.06937494 Z M14.4176704,8.44495182 C14.6120598,8.4796393 14.809041,8.51432677 15.0060223,8.53414818 C15.0941454,8.55149192 15.1848605,8.54901424 15.2729837,8.5539696 C15.4103522,8.57874636 15.5503125,8.56635798 15.687681,8.58122404 C15.6954566,8.57874636 15.7084159,8.57131333 15.7135996,8.56883566 C15.7084159,7.64713996 15.7187834,6.72544426 15.7084159,5.80622624 C15.2807593,6.68580144 14.8505107,7.56537663 14.4176704,8.44495182 Z M16.2889922,5.79136018 C16.2838085,6.72048891 16.2864004,7.64961764 16.2864004,8.57626868 C16.4315444,8.57131333 16.5740967,8.57131333 16.7192407,8.5638803 C17.0198963,8.53414818 17.3205519,8.50441606 17.6160238,8.44247415 C17.6108401,8.43504112 17.5978808,8.42017506 17.5926971,8.41521971 C17.3594298,7.93207277 17.1132032,7.45388118 16.879936,6.97073425 C16.6803629,6.57926134 16.493749,6.18035541 16.2889922,5.79136018 Z M13.4301723,8.07082266 C13.5390303,8.19718416 13.710093,8.2467377 13.8656045,8.30620194 C13.9589114,8.11294316 14.0522183,7.91968439 14.1429334,7.72642561 C13.8967068,7.81809964 13.6271535,7.88995227 13.4301723,8.07082266 Z M17.8829852,7.72642561 C17.9711084,7.91225136 18.0670072,8.09559942 18.1629059,8.27894749 L18.217335,8.2566484 C18.3391523,8.20213952 18.4817045,8.15754134 18.5542766,8.04109054 C18.3728465,7.87013085 18.1136606,7.80818894 17.8829852,7.72642561 Z M12.4815521,12.4117121 C12.665574,12.4711763 12.8470041,12.5306405 13.0362098,12.5752387 C13.4794176,12.6941672 13.9278091,12.7932743 14.3865681,12.8428278 C14.5576307,12.8676046 14.7338771,12.8849483 14.9075316,12.887426 C15.1744931,12.9171581 15.4466382,12.9072474 15.7135996,12.9122027 C15.7135996,11.6485877 15.7187834,10.3874503 15.7187834,9.12383521 C15.2030035,9.10896915 14.6872237,9.05941562 14.1844031,8.9454425 C13.6141942,10.1000398 13.0491691,11.2571148 12.4815521,12.4117121 Z M16.952508,9.09658077 C16.7322,9.12383521 16.5093002,9.12879057 16.2864004,9.14117895 L16.2864004,12.9270688 C16.587056,12.9320242 16.8877115,12.9122027 17.1857753,12.8998144 C17.263531,12.8849483 17.3412868,12.8824706 17.4190425,12.8750376 C17.9711084,12.8155734 18.5179905,12.7040779 19.0493215,12.550462 C19.2229761,12.5058638 19.3940387,12.4463995 19.5651014,12.3869353 C19.4536515,12.13669 19.316283,11.8938777 19.1996493,11.6436323 C18.7538497,10.7467134 18.3028663,9.84979446 17.8596585,8.95287553 C17.5590029,9.00986209 17.2583473,9.07428168 16.952508,9.09658077 Z M11.9709559,11.5717797 C11.8750572,11.64611 11.768791,11.7328287 11.7532398,11.8567125 C11.7532398,11.9929847 11.8906083,12.0772257 11.9865071,12.1565114 C12.1109163,11.8814893 12.2560604,11.6163779 12.3830614,11.3413558 C12.2353255,11.4032977 12.1005489,11.485061 11.9709559,11.5717797 Z M19.6946943,11.3413558 C19.8165117,11.5965565 19.9409209,11.8492795 20.0731057,12.0995248 C20.140494,12.0375829 20.2182497,11.9781187 20.249352,11.8914 C20.2726788,11.8096367 20.2208416,11.7328287 20.1715963,11.6708868 C20.0471871,11.5271815 19.8683488,11.4330298 19.6946943,11.3413558 Z M19.6065711,12.9369795 C19.2074249,13.0831624 18.7901357,13.1822695 18.3728465,13.2640328 C17.6911877,13.4151711 16.988794,13.4647246 16.2889922,13.4572916 C16.2889922,15.6227809 16.2864004,17.790748 16.2915841,19.9562373 C16.5274432,19.9339382 16.7633023,19.9562373 16.9991615,19.9240275 C17.0872846,19.9240275 17.1754078,19.9215498 17.263531,19.9190722 C17.7145144,19.881907 18.1680896,19.8496972 18.6138893,19.7753669 C19.2748132,19.6713045 19.9409209,19.5622867 20.5759262,19.3591173 C20.9491538,19.2575325 21.3094222,19.1138273 21.6645068,18.962689 C21.9807135,18.80164 22.2995121,18.6381134 22.5664735,18.4052118 C22.0973472,17.4587393 21.6282208,16.5122668 21.1565025,15.5682721 C20.7107029,14.6738308 20.267495,13.7769119 19.8216954,12.8824706 C19.7439396,12.8750376 19.6765513,12.9196358 19.6065711,12.9369795 Z M12.2482848,12.894859 C11.3333587,14.7506388 10.4288001,16.6113739 9.51387407,18.4696314 C9.64865071,18.5736938 9.79120293,18.6703232 9.94412258,18.7520865 C10.3614118,18.9924211 10.814987,19.1757692 11.2763379,19.3194744 C11.6599329,19.4284922 12.043528,19.544943 12.4374905,19.6167956 C13.2617015,19.7778446 14.0962799,19.8942954 14.9386339,19.9265052 C15.1900442,19.9611927 15.4492301,19.9314606 15.7006403,19.9611927 C15.7239671,19.8794293 15.7135996,19.7951883 15.7161915,19.7109473 L15.7161915,13.4572916 C14.7105504,13.4795907 13.7075011,13.3259747 12.7459216,13.0509526 C12.5774508,13.0063545 12.4167556,12.9369795 12.2482848,12.894859 Z M22.1802866,16.3933384 C22.4472481,16.9111728 22.6986583,17.4339625 22.9656198,17.9517969 C23.0096814,17.8725113 23.0433755,17.7857926 23.0692941,17.7015516 C23.0848453,17.5974892 23.0848453,17.4909491 23.071886,17.384409 C23.0589267,17.3521992 23.0511511,17.3199894 23.0381918,17.2877796 C22.869721,16.9062174 22.5690654,16.5766864 22.1802866,16.3933384 Z M21.6489556,19.5647644 C21.3223815,19.6911259 20.9932154,19.8174874 20.6510901,19.9042061 C20.5862936,19.9240275 20.5189053,19.9413713 20.4541089,19.9611927 C20.0005336,20.0825988 19.5417747,20.1866612 19.0752401,20.2560362 C18.1525385,20.4046968 17.2194694,20.4914155 16.2812166,20.4938931 C16.2838085,22.0845615 16.2812166,23.6727522 16.2838085,25.2634206 C18.7797683,23.7916807 21.2705443,22.3125078 23.7639122,20.8407679 C23.6524623,20.5632681 23.4969508,20.3080674 23.3725415,20.035523 C23.1833359,19.6638715 23.0044976,19.2872646 22.8101082,18.9180908 C22.4576155,19.1881576 22.0558774,19.383894 21.6489556,19.5647644 Z M9.27023937,18.9725997 C8.97217564,19.5895412 8.66633633,20.204005 8.3682726,20.8234241 C8.32680287,20.9150982 8.26459826,21.0018168 8.24127154,21.1009239 C10.7294557,22.5008112 13.2228236,23.8932654 15.7135996,25.2931527 C15.7161915,23.6950513 15.7135996,22.0969499 15.7135996,20.4988485 C14.7649794,20.4938931 13.8215429,20.3997414 12.885882,20.2535585 C12.7951669,20.2436478 12.7070438,20.2263041 12.6189206,20.2089603 C12.2586522,20.1470184 11.9061595,20.0602997 11.5536667,19.9636703 C11.1182345,19.8571303 10.6983534,19.705992 10.2862479,19.53751 C9.93375515,19.376461 9.58385425,19.2030236 9.27023937,18.9725997 Z"/>
    <filter id="lrc-d" width="120.6%" height="115.9%" x="-10.3%" y="-5.7%" filterUnits="objectBoundingBox">
      <feOffset dy=".5" in="SourceAlpha" result="shadowOffsetOuter1"/>
      <feGaussianBlur in="shadowOffsetOuter1" result="shadowBlurOuter1" stdDeviation=".5"/>
      <feColorMatrix in="shadowBlurOuter1" values="0 0 0 0 0   0 0 0 0 0   0 0 0 0 0  0 0 0 0.204257246 0"/>
    </filter>
  </defs>
  <g fill="none" fill-rule="evenodd">
    <use fill="#000" filter="url(#lrc-a)" xlink:href="#lrc-b"/>
    <use fill="#404040" xlink:href="#lrc-b"/>
    <use fill="url(#lrc-c)" style="mix-blend-mode:soft-light" xlink:href="#lrc-b"/>
    <circle cx="16" cy="15" r="14.5" stroke="#000" stroke-opacity=".097"/>
    <g fill-rule="nonzero">
      <use fill="#000" filter="url(#lrc-d)" xlink:href="#lrc-e"/>
      <use fill="#FFF" fill-rule="evenodd" xlink:href="#lrc-e"/>
    </g>
  </g>
</svg>
