<svg height="32" viewBox="0 0 32 32" width="32" xmlns="http://www.w3.org/2000/svg" xmlns:xlink="http://www.w3.org/1999/xlink"><defs><linearGradient id="a" x1="50%" x2="50%" y1="0%" y2="100%"><stop offset="0" stop-color="#fff" stop-opacity=".5"/><stop offset="1" stop-opacity=".5"/></linearGradient><circle id="b" cx="16" cy="15" r="15"/><filter id="c" height="111.7%" width="111.7%" x="-5.8%" y="-4.2%"><feOffset dy=".5" in="SourceAlpha" result="shadowOffsetOuter1"/><feGaussianBlur in="shadowOffsetOuter1" result="shadowBlurOuter1" stdDeviation=".5"/><feComposite in="shadowBlurOuter1" in2="SourceAlpha" operator="out" result="shadowBlurOuter1"/><feColorMatrix in="shadowBlurOuter1" values="0 0 0 0 0   0 0 0 0 0   0 0 0 0 0  0 0 0 0.199473505 0"/></filter><path id="d" d="m14.2486775 23.9582111c-.0138628.0139297-.0415885.0278593-.0554513.0417889h-1.5526387c-.0277257 0-.0415886-.0139296-.0554514-.0278592l-4.57473897-5.1678886c-.01386284-.0278592-.01386284-.0557185 0-.0835777l5.69762947-9.83431086c.0277257-.04178886.0970399-.04178886.1247656 0l1.5942272 2.75806456c.0138628.0139296.0138628.0417888 0 .069648l-3.853871 6.6444282c-.0138629.0278592 0 .0557185.0138628.0835777l2.3012324 2.5909091c.0138628.0139296.0415885.0278592.0554513.0278592h2.7171177c.0693143 0 .0970399.0696481.0554514.111437zm1.6912672-18.91642224c.0277257-.05571848.0970399-.05571848.1109027 0l7.9434104 13.65102634c.0138629.0278593 0 .0557185-.0138628.0835778l-4.574739 5.1678885c-.0138628.0139296-.0415885.0278593-.0554514.0278593h-3.7152425c-.0693143 0-.0970399-.0696481-.0554514-.111437l2.4814493-2.813783 2.328958-2.6187683c.0277257-.0278592.0277257-.0557185.0138629-.0835777l-4.4083848-7.6055719-1.6635415-2.86950143c-.0138628-.01392962-.0138628-.04178886 0-.0696481z"/><filter id="e" height="118.4%" width="121.9%" x="-10.9%" y="-6.6%"><feOffset dy=".5" in="SourceAlpha" result="shadowOffsetOuter1"/><feGaussianBlur in="shadowOffsetOuter1" result="shadowBlurOuter1" stdDeviation=".5"/><feColorMatrix in="shadowBlurOuter1" values="0 0 0 0 0   0 0 0 0 0   0 0 0 0 0  0 0 0 0.204257246 0"/></filter></defs><g fill="none" fill-rule="nonzero"><g><use fill="#000" filter="url(#c)" xlink:href="#b"/><use fill="#0d4ea0" fill-rule="evenodd" xlink:href="#b"/><use fill="url(#a)" fill-rule="evenodd" xlink:href="#b"/><circle cx="16" cy="15" r="14.5" stroke="#000" stroke-opacity=".097"/></g><g><use fill="#000" filter="url(#e)" xlink:href="#d"/><use fill="#fff" fill-rule="evenodd" xlink:href="#d"/></g></g></svg>