<svg height="32" viewBox="0 0 32 32" width="32" xmlns="http://www.w3.org/2000/svg" xmlns:xlink="http://www.w3.org/1999/xlink"><defs><linearGradient id="a" x1="50%" x2="50%" y1="0%" y2="100%"><stop offset="0" stop-color="#fff" stop-opacity=".5"/><stop offset="1" stop-opacity=".5"/></linearGradient><circle id="b" cx="16" cy="15" r="15"/><filter id="c" height="111.7%" width="111.7%" x="-5.8%" y="-4.2%"><feOffset dy=".5" in="SourceAlpha" result="shadowOffsetOuter1"/><feGaussianBlur in="shadowOffsetOuter1" result="shadowBlurOuter1" stdDeviation=".5"/><feComposite in="shadowBlurOuter1" in2="SourceAlpha" operator="out" result="shadowBlurOuter1"/><feColorMatrix in="shadowBlurOuter1" values="0 0 0 0 0   0 0 0 0 0   0 0 0 0 0  0 0 0 0.199473505 0"/></filter><path id="d" d="m16 4c6.061 0 11 4.939 11 11s-4.939 11-11 11-11-4.939-11-11 4.939-11 11-11zm8.855 9.889 1.265 1.43v-.319c0-5.577-4.543-10.12-10.12-10.12-5.533 0-10.054 4.466-10.12 9.988l.517-.011 1.683-2.948h2.31l.946 3.102 1.881-.484.979.539 1.221-1.54.869.506.88.319.539-.275.055-.055c-1.573-.451-2.739-1.903-2.739-3.619 0-2.068 1.694-3.74 3.762-3.74s3.751 1.683 3.751 3.751c.0002681.609081-.1469244 1.2091731-.429 1.749h.44l1.364 1.892zm-8.855 11.231c1.2246601.0013508 2.4394948-.2185119 3.586-.649-.704-.209-1.584-.385-2.442-.561-.473-.099-.968-.198-1.43-.297-.418-.099-.825-.176-1.188-.242-1.287-.242-2.134-.407-2.266-1.056-.11-.539.319-1.056 1.562-1.914.594-.396.66-.627.649-.671 0-.022-.198-.55-3.124-.869-.11-.011-.231-.022-.341-.033-.022.462-.528.792-1.221.792-.715 0-1.232-.352-1.232-.836 0-.022 0-.044.022-.11-.06929555-.008866-.13915661-.0125429-.209-.011-.121.033-.264.044-.407.044-.17093052.0018943-.34127423-.0203245-.506-.066-.308 0-.616-.011-.902-.011 1.463 3.795 5.148 6.49 9.449 6.49zm4.708-1.166c2.794-1.474 4.807-4.202 5.291-7.414l-1.485-1.683-1.012.176-1.43-1.969h-.165l-.66.528-.825-1.111-1.375 1.463c.033-.022.077-.033.11-.044.495-.154.88-.385 1.012-.836.121.407.484.638.902.792.055.022.11.033.165.055h.011c.836.319 1.419.979 1.474 1.76.121.165.297.297.495.396.132.044.275.088.396.154.022 0 .033.011.044.011h-.011c.715.363 1.199 1.001 1.199 1.738 0 .275-.165.825-1.419 1.034-.3989007.0654903-.6919954.4097603-.693.814v1.012c0 .253-.22.462-.484.44-.231-.022-.396-.231-.396-.462v-.99c-.0010046-.4042397-.2940993-.7485097-.693-.814-.209-.033-.385-.077-.539-.132v1.727c0 .33-.242 1.111-2.552 1.111-2.299 0-2.552-.781-2.552-1.111 0-.913.737-1.683 1.76-1.958.396-.154.704-.374.814-.759.143.473.594.704 1.078.858h-.011c.22.077.418.187.594.308v-1.43c-.0010046-.4042397-.2940993-.7485097-.693-.814-1.254-.209-1.419-.77-1.419-1.034s.066-.517.176-.748l-.572.297-1.32-.484-.286-.165-2.442 3.091-.693-.55 1.144-1.441-.539-.297-2.354.605-1.001-3.289h-1.155l-1.672 2.926-1.012.033c.05463421.6732371.17248683 1.339841.352 1.991h.506c.044-.187.209-.682.781-2.354l.418-1.221.385 1.243c.341.99.539 1.562.649 1.914.099-.286.209-.616.352-1.023l.418-1.221.418 1.221c.253.748.429 1.265.55 1.628.242.022.473.044.693.066 2.442.264 3.641.726 3.872 1.485.253.814-.682 1.452-.99 1.661-.858.583-1.1.869-1.177.99.231.132.946.275 1.54.385.374.066.792.143 1.221.242.462.099.946.198 1.408.286 1.32.264 2.574.506 3.399.913zm-.968-3.421c-.044-.616-.792-1.122-1.672-1.122s-1.628.506-1.672 1.122c.154.11.726.286 1.672.286s1.518-.176 1.672-.286zm2.563-3.751c-.88 0-1.628.506-1.672 1.122.154.11.737.286 1.672.286s1.518-.176 1.672-.286c-.044-.616-.792-1.122-1.672-1.122zm-.451-1.078c-.044-.616-.792-1.122-1.672-1.122s-1.628.506-1.672 1.122c.154.11.737.286 1.672.286s1.518-.176 1.672-.286zm-.671-3.729c.3071042-.4631705.4715633-1.0062682.473-1.562 0-1.584-1.287-2.871-2.871-2.871s-2.871 1.287-2.871 2.871c0 1.485 1.122 2.706 2.563 2.86l2.046-2.189zm-11.682 6.721c.19365383.05867.40034617.05867.594 0l-.297-.891zm-1.815-.935c.187 0 .374.011.572.011-.055-.198-.165-.517-.286-.869-.121.341-.22.66-.286.858zm4.224-5.907c-1.408 0-2.552-1.144-2.552-2.552s1.144-2.552 2.552-2.552 2.552 1.144 2.552 2.552-1.155 2.552-2.552 2.552zm0-4.224c-.9234201 0-1.672.7485799-1.672 1.672s.7485799 1.672 1.672 1.672 1.672-.7485799 1.672-1.672c0-.924-.759-1.672-1.672-1.672z"/><filter id="e" height="115.9%" width="115.9%" x="-8%" y="-5.7%"><feOffset dy=".5" in="SourceAlpha" result="shadowOffsetOuter1"/><feGaussianBlur in="shadowOffsetOuter1" result="shadowBlurOuter1" stdDeviation=".5"/><feColorMatrix in="shadowBlurOuter1" values="0 0 0 0 0   0 0 0 0 0   0 0 0 0 0  0 0 0 0.204257246 0"/></filter></defs><g fill="none" fill-rule="nonzero"><g><use fill="#000" filter="url(#c)" xlink:href="#b"/><use fill="#bfb5af" fill-rule="evenodd" xlink:href="#b"/><use fill="url(#a)" fill-rule="evenodd" xlink:href="#b"/><circle cx="16" cy="15" r="14.5" stroke="#000" stroke-opacity=".097"/></g><g><use fill="#000" filter="url(#e)" xlink:href="#d"/><use fill="#fff" fill-rule="evenodd" xlink:href="#d"/></g></g></svg>