<?xml version="1.0" encoding="UTF-8"?>
<svg width="32px" height="32px" viewBox="0 0 32 32" version="1.1" xmlns="http://www.w3.org/2000/svg" xmlns:xlink="http://www.w3.org/1999/xlink">
    <!-- Generator: Sketch 53 (72520) - https://sketchapp.com -->
    <title>svg/icon/meetone</title>
    <desc>Created with Sketch.</desc>
    <defs>
        <linearGradient x1="50%" y1="0%" x2="50%" y2="100%" id="linearGradient-1">
            <stop stop-color="#FFFFFF" stop-opacity="0.5" offset="0%"></stop>
            <stop stop-color="#000000" stop-opacity="0.5" offset="100%"></stop>
        </linearGradient>
        <circle id="path-2" cx="15" cy="15" r="15"></circle>
        <filter x="-5.8%" y="-4.2%" width="111.7%" height="111.7%" filterUnits="objectBoundingBox" id="filter-3">
            <feOffset dx="0" dy="0.5" in="SourceAlpha" result="shadowOffsetOuter1"></feOffset>
            <feGaussianBlur stdDeviation="0.5" in="shadowOffsetOuter1" result="shadowBlurOuter1"></feGaussianBlur>
            <feComposite in="shadowBlurOuter1" in2="SourceAlpha" operator="out" result="shadowBlurOuter1"></feComposite>
            <feColorMatrix values="0 0 0 0 0   0 0 0 0 0   0 0 0 0 0  0 0 0 0.199473505 0" type="matrix" in="shadowBlurOuter1"></feColorMatrix>
        </filter>
    </defs>
    <g id="icon/meetone" stroke="none" stroke-width="1" fill="none" fill-rule="evenodd">
        <g id="Group" transform="translate(1.000000, 0.000000)" fill-rule="nonzero">
            <g id="Oval">
                <use fill="black" fill-opacity="1" filter="url(#filter-3)" xlink:href="#path-2"></use>
                <use fill="#000000" xlink:href="#path-2"></use>
                <use fill="url(#linearGradient-1)" style="mix-blend-mode: soft-light;" xlink:href="#path-2"></use>
                <circle stroke-opacity="0.0970052083" stroke="#000000" stroke-width="1" stroke-linejoin="square" cx="15" cy="15" r="14.5"></circle>
            </g>
        </g>
        <g id="meetone" transform="translate(8.000000, 3.000000)" fill="#FFFFFF" fill-rule="nonzero">
            <polygon id="Path" fill-opacity="0.703370848" points="0.673170732 18.0073171 7.62926829 22.3829268 8.47073171 22.3829268 15.3146341 18.0073171 14.2487805 17.1658537 8.02195122 21.1487805 1.57073171 17.1658537"></polygon>
            <path d="M4.03902439,7.85365854 L7.96585366,1.90731707 L12.004878,7.9097561 L12.9585366,7.06829268 L8.47073171,0.336585366 C8.47073171,0.336585366 8.07804878,-0.168292683 7.46097561,0.336585366 L2.86097561,7.23658537 L4.03902439,7.85365854 Z" id="Path" fill-opacity="0.703370848"></path>
            <path d="M8.07804878,19.8585366 C8.30243902,19.0731707 8.58292683,18.3439024 8.80731707,17.5585366 C9.81707317,14.4170732 10.8268293,11.2195122 11.8365854,8.07804878 C11.8926829,7.9097561 11.9487805,7.68536585 12.004878,7.51707317 C12.1170732,7.1804878 12.2853659,7.01219512 12.6219512,7.01219512 C12.9585366,7.01219512 13.1829268,7.23658537 13.2390244,7.51707317 C13.5195122,8.63902439 13.7439024,9.81707317 14.0243902,10.9390244 C14.5292683,13.0707317 14.9780488,15.2585366 15.4829268,17.3902439 C15.595122,17.895122 15.4268293,18.2317073 15.0341463,18.3439024 C14.6414634,18.4560976 14.3609756,18.1756098 14.2487805,17.6707317 C13.6878049,15.2585366 13.1268293,12.8463415 12.6219512,10.3780488 C12.6219512,10.2658537 12.5658537,10.2097561 12.5097561,10.0414634 C12.4536585,10.2097561 12.397561,10.3780488 12.3414634,10.4902439 C11.2756098,13.7439024 10.2658537,16.997561 9.2,20.2512195 C9.03170732,20.8682927 8.80731707,21.4292683 8.63902439,22.0463415 C8.52682927,22.4390244 8.30243902,22.6073171 7.96585366,22.6073171 C7.62926829,22.6073171 7.40487805,22.4390244 7.29268293,22.0463415 C6.05853659,18.1756098 4.82439024,14.304878 3.64634146,10.4341463 C3.5902439,10.3219512 3.5902439,10.2658537 3.53414634,10.0414634 C3.42195122,10.602439 3.3097561,11.1073171 3.19756098,11.5560976 C2.74878049,13.5756098 2.3,15.6512195 1.85121951,17.6707317 C1.73902439,18.2317073 1.2902439,18.5121951 0.841463415,18.2317073 C0.56097561,18.0634146 0.504878049,17.7829268 0.56097561,17.4463415 C1.17804878,14.6414634 1.85121951,11.8365854 2.46829268,9.03170732 C2.5804878,8.58292683 2.69268293,8.13414634 2.74878049,7.68536585 C2.86097561,7.23658537 3.08536585,7.01219512 3.42195122,7.01219512 C3.75853659,7.01219512 3.98292683,7.23658537 4.09512195,7.68536585 C5.38536585,11.7243902 6.67560976,15.8195122 7.9097561,19.8585366 C8.02195122,19.8585366 8.02195122,19.8585366 8.07804878,19.8585366 Z" id="Path"></path>
        </g>
    </g>
</svg>