<svg height="32" viewBox="0 0 32 32" width="32" xmlns="http://www.w3.org/2000/svg" xmlns:xlink="http://www.w3.org/1999/xlink"><defs><linearGradient id="a" x1="50%" x2="50%" y1="0%" y2="100%"><stop offset="0" stop-color="#fff" stop-opacity=".5"/><stop offset="1" stop-opacity=".5"/></linearGradient><circle id="b" cx="16" cy="15" r="15"/><filter id="c" height="111.7%" width="111.7%" x="-5.8%" y="-4.2%"><feOffset dy=".5" in="SourceAlpha" result="shadowOffsetOuter1"/><feGaussianBlur in="shadowOffsetOuter1" result="shadowBlurOuter1" stdDeviation=".5"/><feComposite in="shadowBlurOuter1" in2="SourceAlpha" operator="out" result="shadowBlurOuter1"/><feColorMatrix in="shadowBlurOuter1" values="0 0 0 0 0   0 0 0 0 0   0 0 0 0 0  0 0 0 0.199473505 0"/></filter><path id="d" d="m22.256625 5.77011184c0 .70134017-.5700657 1.26949091-1.2731468 1.26949091-.7041713 0-1.27486-.56815074-1.27486-1.26949091 0-.70165064.5706887-1.27011184 1.27486-1.27011184.7030811 0 1.2731468.5684612 1.2731468 1.27011184zm-.9178681 4.42365886c-.5960428 0-1.0792309-.48156498-1.0792309-1.07560555 0-.59404056.4831881-1.07560559 1.0792309-1.07560559s1.0792309.48156503 1.0792309 1.07560559c0 .59404057-.4831881 1.07560555-1.0792309 1.07560555zm-.3347189 2.6529225c-.5038278 0-.9122609-.4070611-.9122609-.9091964s.4084331-.9091964.9122609-.9091964.9122609.4070611.9122609.9091964-.4084331.9091964-.9122609.9091964zm-.0537357 1.3725652c0 .428752-.3493599.7770936-.7794013.7770936-.4306644 0-.7800243-.3483416-.7800243-.7770936 0-.4285967.3493599-.7767831.7800243-.7767831.4300414 0 .7794013.3481864.7794013.7767831zm-1.2342078 1.7241668c0 .368677-.2993624.6670338-.6686591.6670338-.3702312 0-.6702165-.2983568-.6702165-.6670338 0-.3685219.2999853-.66781.6702165-.66781.3692967 0 .6686591.2992881.6686591.66781zm-1.3499343 1.2226107c0 .3171399-.2573083.5734286-.5752056.5734286-.3174301 0-.5742711-.2562887-.5742711-.5734286 0-.3163637.2566853-.5726525.5742711-.5726525.3177415-.0001552.5752056.2562888.5752056.5726525zm6.8733413-7.40862355c-.1361304.58056935-.7189681.94117425-1.3018057.80565635-.5822147-.1359836-.9440351-.71655293-.8072816-1.29712226.1365977-.58056934.7189681-.9407086 1.3011828-.80488021.5826819.13613885.944035.71639772.8079045 1.29634612zm-.5177318 2.80287695c-.1157264.4914659-.6088488.7968081-1.1029058.6810047-.4926551-.1145615-.798715-.6068036-.6829885-1.097959.1151034-.4913107.6090046-.7969634 1.1011925-.6814704.4937454.1154929.8001168.6069588.6847018 1.0984247zm-.9633487 2.2368995c-.0973473.4152468-.5146167.6732431-.9318861.5757571-.4164906-.0973307-.6755123-.5124222-.5780092-.9284452.0970358-.4155572.5150839-.6732431.9318861-.5762228.4168021.0970203.676291.512888.5780092.9289109zm-1.2424629 1.7021237c-.084108.3556376-.4396982.5752915-.7963786.4923973-.3562132-.0836702-.5776978-.4383764-.4939012-.793393.0825505-.3550166.4392309-.5760676.7957556-.4923973.3562132.0830494.577542.4385317.4945242.793393zm-1.3569432 1.1883044c-.0718034.304566-.377396.4947258-.6834559.4226979-.3059041-.0710964-.4957702-.3764386-.4244341-.6819361.0713361-.3042556.3778632-.4942601.6839231-.4222322.3063713.0712517.4956145.3759729.4239669.6814704zm-1.3547627.7514802c-.0616793.2620324-.3249063.4240951-.5873546.363244-.2629156-.0617826-.4261475-.3235045-.3647798-.5856921.0616793-.2617218.3245948-.4244054.5868874-.3635543.263227.0617825.4264589.3236596.365247.5860024zm7.1033924-4.8564469c-.221796.4571595-.7736383.6480954-1.2317157.4268892-.4587004-.221051-.6502799-.7708843-.4280166-1.2281991.2213288-.4562281.7722366-.6476297 1.2312485-.4268892.4582331.2215167.6505914.77135.4284838 1.2281991zm-.9608566 2.2150117c-.1895547.389323-.6574447.5516961-1.0479241.3632439-.3906352-.187676-.5530883-.6555466-.365247-1.0444039.1895546-.388702.6583792-.5507647 1.0483913-.3637096.390791.1887627.5540229.656478.3647798 1.0448696zm-1.2080409 1.6811674c-.1629204.3360782-.5686639.4759426-.9058749.3135695-.336588-.1622179-.4775468-.5658223-.3143149-.9023662.1629204-.3356125.5686639-.4765636.9052519-.3134143.3375225.1625284.4781698.5664432.3149379.902211zm-1.3452616 1.1870624c-.1418934.2916818-.4931224.4129183-.785943.2725882-.2926649-.1409511-.4150889-.4927078-.2739742-.7843895.1422049-.2913713.4942127-.4132288.7860988-.2725882.2926648.1412615.4154003.4923973.2738184.7843895zm-1.35523.7322315c-.1205548.249148-.4210075.3531538-.6711511.2325382-.2499878-.1199947-.3546556-.4203695-.2336335-.6692071.1210222-.2486824.4213191-.3531538.6714627-.2325382.2504551.1203052.3543441.4194381.2333219.6692071zm-1.2728352.368677c-.102643.2118923-.3583937.3006853-.5706887.1982318-.2116719-.1021429-.3010757-.3567241-.1984327-.5681507s.3583938-.3002195.570533-.1979214c.2121392.1024535.3012314.3571899.1985884.5678403zm1.0359309 4.8561365c-.6097834-.3489625-.8194305-1.1262114-.4680458-1.7336359.3518521-.6072693 1.1298516-.8162122 1.7401022-.4660078.6093162.3502044.8198978 1.1265218.468513 1.7337911-.351852.6077351-1.130786.8166779-1.7405694.4658526zm-2.9905086-1.5321442c-.5160185-.2960283-.694826-.9531272-.3962424-1.4681884.2971818-.5142851.9563397-.6912501 1.47376-.3950666.515707.2961835.6929569.9543691.3953079 1.4686541-.2971818.5147508-.9564955.6917158-1.4728255.3946009zm-2.2014504-1.8399701c-.4368947-.2514766-.5870431-.8065878-.335342-1.2424805.2518569-.4348061.8096179-.5844501 1.2460453-.3337498.4362716.2510109.5871988.8064326.3350304 1.2412387-.2510781.4362031-.8086834.585071-1.2457337.3349916zm-1.5017961-1.9737805c-.3725675-.2146865-.5009102-.6893873-.2861231-1.0616347.2154101-.371316.6912436-.4993828 1.0650572-.2848515.3725675.214376.5007544.6890768.2853443 1.0611689-.2144755.3716265-.6912436.4993828-1.0642784.2853173zm-.8822-1.9258137c-.3205452-.1844162-.4306644-.5920565-.246094-.9116801.184882-.3197789.5946751-.4285968.9149088-.2446464.3194548.1837952.4298856.5919013.2456266.9104383-.1845704.3202445-.5945193.4296834-.9144414.2458882zm-.3892334-1.7772562c-.2749087-.1577162-.3697639-.5077654-.2108932-.7825268.1585593-.2741405.5097883-.3679009.7850085-.2101847.2745973.1580266.3692967.5083862.2108932.7828372-.1585592.2735196-.5102555.3677456-.7850085.2098743zm3.7495059 9.926028c-.5981933 0-1.0831248-.4833025-1.0831248-1.0794864s.4849315-1.0794864 1.0831248-1.0794864 1.0831248.4833025 1.0831248 1.0794864-.4849315 1.0794864-1.0831248 1.0794864zm-2.9179265-2.137706c-.3697639-.3457026-.3886103-.923633-.0425212-1.2921548.3465563-.3686771.9267461-.3869945 1.29651-.0425337.3694525.3458579.3886104.923633.0425213 1.2923101-.3462448.3685218-.9261231.3868392-1.2965101.0423784zm-1.4644146-1.9481671c-.3122901-.2924579-.328333-.7815954-.0356681-1.0931469.2932879-.3117067.7837625-.3276957 1.0963641-.0355482.3129131.2916818.3288002.7809744.035668 1.0925259-.2923533.3115515-.7832952.3273853-1.096364.0361692zm-.8588367-1.9239509c-.2674325-.2486824-.2809832-.6668786-.0308396-.9332574.2509223-.2659132.6691263-.2801946.936403-.0308913.2674324.249769.2809832.6674995.0309953.9340336-.2501435.2659132-.669282.2800393-.9365587.0301151zm-.3565247-1.7639062c-.2292723-.2140656-.2406425-.572963-.0263227-.8016204.2149428-.2291231.5750499-.2409207.8049452-.0270104.2298954.214376.240954.5732734.0263227.8022412-.2150985.2288127-.5747384.2406103-.8049452.0263896zm.0238306-1.5462704c-.1971867-.1834847-.2074665-.4919316-.0227403-.6883006.1845704-.1965243.4939012-.2066144.6910878-.0221983.1967194.1837952.2073108.4917764.0222731.6883007-.1844147.196369-.494057.2069248-.6906206.0221982zm.6752008 8.5598273c-.2853444-.4199037-.1770942-.9919353.2442248-1.276942.4214748-.2862487.9951229-.1771203 1.2814018.2426283.2864347.4195933.1775615.9914696-.2437576 1.2764763-.4214748.2860934-.9943441.1772755-1.281869-.2421626zm-1.4461913-1.936059c-.2440691-.3573451-.1507715-.8438435.2076223-1.0866271.3579265-.2426283.8463762-.1504202 1.0901338.2061487.2439134.3573451.1507715.844154-.2073107 1.0867823-.3588611.243094-.8462205.150886-1.0904454-.2063039zm-.8580579-1.8831247c-.2107374-.3082917-.1302117-.7281954.1789632-.9380697.309798-.2101847.7317401-.1303952.9418545.1786726.2112047.3087573.130679.7288163-.1786517.939001-.3099538.2087876-.7320516.1299295-.942166-.1796039zm-.3599513-1.7533505c-.1823899-.2680864-.11323438-.6324169.1552884-.8149703.2691457-.1823981.6345485-.1131644.8177172.154922.1833244.2677759.1137016.6333483-.1559115.8149703-.2685227.1825534-.6339255.1123883-.8170941-.154922zm.0395619-1.5358698c-.15622291-.2289678-.09734727-.5403641.1330153-.6963727.2294281-.1555429.5420297-.0957784.6982527.132258.1566901.2295888.0973472.5420717-.1330154.6963728-.2297396.1561638-.5420297.096865-.6982526-.1322581zm.3147822-1.2837723c-.1323923-.1949719-.081616-.4590223.1122998-.5920565.1953176-.1316371.4611925-.0811866.5937406.1133197.1327038.1938853.082239.4593328-.1126114.5909699-.1962521.1324133-.4611925.082118-.593429-.1122331zm-4.73964461-1.5416133c.60947188-.3503597 1.38825016-.1418825 1.73994643.4655421.35200778.6072693.1418934 1.3838972-.46695546 1.7345673-.60993915.3498939-1.38825016.1412615-1.73947916-.4650764-.35247505-.6082007-.14220492-1.3849839.46648819-1.735033zm2.82976875-1.8106312c.51555122-.2974254 1.17626672-.1210813 1.47376002.3936694.29718184.5145956.12055484 1.1718497-.39577512 1.4686542-.51601849.2961835-1.17611096.1196842-1.47360426-.3936695-.29780482-.5150612-.12008761-1.1724706.39561936-1.4686541zm2.70080306-.9767226c.4362716-.2505451.9949671-.1013668 1.2463568.3331289.2517011.4357374.1017084.9920905-.3340959 1.2429461-.4373619.2503899-.9941884.1009011-1.2465125-.3340602-.2517012-.4344956-.1017085-.9908487.3342516-1.2420148zm2.4665466-.3058079c.372879-.2145312.8491798-.0869301 1.0641226.2848516.2157216.3720921.0872232.8464825-.2848771 1.0610137-.3733463.2146865-.8501143.0873959-1.0655244-.2853172-.2149428-.3711608-.0869117-.8458616.2862789-1.0605481zm2.1140715.2039755c.3211682-.1839505.7295595-.0745116.9144415.2449567.1850377.3188475.0747627.7274193-.2451594.910904-.3200779.1847266-.729871.0752877-.9139742-.2441806-.1853493-.3193131-.0753858-.727264.2446921-.9116801zm1.7379216.5546455c.275376-.157561.6269165-.0636453.78532.2101847.1590266.2742957.0644829.6246553-.2107374.782682-.2750645.1575609-.6262935.0645767-.7851642-.2098743-.1584035-.2742957-.0638599-.6245001.2105816-.7829924zm-9.872728-2.2327082c.57240204-.1718424 1.17688974.1511964 1.34946701.7218308.17304453.5706345-.15123875 1.1730916-.72364078 1.3449339-.57193477.1719975-1.17657823-.1508859-1.34915549-.7212099-.17335605-.570945.15061572-1.1730916.72332926-1.3455548zm2.6942613-.95266155c.4850232-.14591849.9959017.12791154 1.142935.61068443.1464104.48354902-.1284984.99364282-.6128985 1.14002702-.4851788.1452976-.99636889-.128222-1.14355799-.6113053-.14578729-.48292815.12818691-.99364288.61352149-1.13940615zm2.4255829-.28609339c.4093258-.12418595.8424823.10711039.9661523.51599264.1238257.40919272-.1079387.8399627-.5186663.963683-.4093259.1234098-.8427939-.1078865-.9663081-.51599264-.124293-.40903748.1084059-.84011797.5188221-.963683zm2.1011438.22306902c.3495157-.10540282.7188123.09158714.8253492.44148107.1054466.34896255-.0926746.71748435-.4429691.82319765-.3504502.1049371-.7208372-.0926738-.8258165-.4417915-.1057581-.3495835.0923631-.71810532.4434364-.82288722zm1.7098856.57684376c.3004526-.09034528.6177269.07854761.7093112.37861196.0906498.3003747-.0800584.6167385-.3808226.7073942-.3012314.0906557-.6181942-.079479-.7093112-.3795433-.0911171-.2991329.0792796-.61596235.3808226-.70646286zm1.329686.79525576c.2593332-.0783923.5308153.0678366.6093161.3249015.0778778.2583068-.068221.5294979-.3267753.6072694-.2585544.0776162-.5305038-.0681471-.6088489-.3256777-.0777221-.2579963.0683767-.5296531.3263081-.6064932zm-7.7697151-3.70695068c.5079191-.03679009.9501095.3430637.9868678.84989762.0364468.50605776-.3457776.94629697-.8533852.98355276-.50776349.03679008-.9499538-.34415033-.98640062-.85005286-.03629107-.50698915.34531029-.94722836.85291802-.98339752zm2.4061133-.27786607c.4319105-.03104649.8083719.29276839.8393673.72322795.0311511.43139095-.2932879.80550114-.7266002.83670286-.4317547.03182265-.8075931-.29276838-.8385884-.72260702-.0317742-.43139095.2932879-.80565637.7258213-.83732379zm2.0642297.20350973c.3731906-.02701044.6982526.25287365.7250426.62527628.0269457.37209216-.2535702.69528611-.6267607.72276225-.3738136.02623428-.6982527-.25333935-.7258214-.62527628-.0269457-.37286832.2535702-.69590704.6275395-.72276225zm1.7033439.5684612c.3239718-.02344009.6058895.21965391.6295643.54269262.0232076.32319395-.22055.60416467-.5445217.62744953-.3245948.02359533-.6063568-.21934344-.6297201-.54191645-.0236749-.32381488.2202385-.60416467.5446775-.6282257zm1.3133317.80332789c.277245-.01971452.5183548.18721033.5384473.46383454.0199367.27600328-.1883086.5158374-.4652422.53617285-.277245.02002499-.5183548-.18736555-.53798-.46352407-.020404-.27615851.1878413-.5158374.4647749-.53648332zm.956807.91540571c.2355025-.01614417.4401655.15926849.4569871.39366948.0166658.23424575-.1598053.43837641-.3948406.45545198-.2347238.01707557-.4393867-.15957895-.4566756-.39397994-.0169774-.23409052.1598053-.43775548.3945291-.45514152z"/><filter id="e" height="116.7%" width="115.9%" x="-8%" y="-6%"><feOffset dy=".5" in="SourceAlpha" result="shadowOffsetOuter1"/><feGaussianBlur in="shadowOffsetOuter1" result="shadowBlurOuter1" stdDeviation=".5"/><feColorMatrix in="shadowBlurOuter1" values="0 0 0 0 0   0 0 0 0 0   0 0 0 0 0  0 0 0 0.204257246 0"/></filter></defs><g fill="none" fill-rule="evenodd"><use fill="#000" filter="url(#c)" xlink:href="#b"/><use fill="#242424" xlink:href="#b"/><use fill="url(#a)" xlink:href="#b"/><circle cx="16" cy="15" r="14.5" stroke="#000" stroke-opacity=".097"/><g fill-rule="nonzero"><use fill="#000" filter="url(#e)" xlink:href="#d"/><use fill="#fff" fill-rule="evenodd" xlink:href="#d"/></g></g></svg>