<svg width="33" height="33" viewBox="0 0 33 33" fill="none" xmlns="http://www.w3.org/2000/svg">
<g clip-path="url(#clip0)">
<path d="M16.6667 32.9462C25.5032 32.9462 32.6667 25.7828 32.6667 16.9462C32.6667 8.10967 25.5032 0.946228 16.6667 0.946228C7.83013 0.946228 0.666687 8.10967 0.666687 16.9462C0.666687 25.7828 7.83013 32.9462 16.6667 32.9462Z" fill="#EFF2F5"/>
<path d="M19.6764 10.137V6.61083L16.6667 6.00287V9.52906L13.6569 8.79951V12.3257L10.6472 11.5962V22.9043L13.6569 23.6339V27.1601L16.6667 27.8896V24.3634L19.6764 25.093V21.5668L22.6861 22.2963V10.9882L19.6764 10.137ZM17.2686 22.1748L13.055 21.202V14.5144L17.2686 15.4871V22.1748Z" fill="#232C45"/>
</g>
<defs>
<clipPath id="clip0">
<rect width="32" height="32" fill="white" transform="translate(0.666687 0.946228)"/>
</clipPath>
</defs>
</svg>
