<svg height="32" viewBox="0 0 32 32" width="32" xmlns="http://www.w3.org/2000/svg" xmlns:xlink="http://www.w3.org/1999/xlink"><defs><linearGradient id="a" x1="50%" x2="50%" y1="0%" y2="100%"><stop offset="0" stop-color="#fff" stop-opacity=".5"/><stop offset="1" stop-opacity=".5"/></linearGradient><circle id="b" cx="16" cy="15" r="15"/><filter id="c" height="111.7%" width="111.7%" x="-5.8%" y="-4.2%"><feOffset dy=".5" in="SourceAlpha" result="shadowOffsetOuter1"/><feGaussianBlur in="shadowOffsetOuter1" result="shadowBlurOuter1" stdDeviation=".5"/><feComposite in="shadowBlurOuter1" in2="SourceAlpha" operator="out" result="shadowBlurOuter1"/><feColorMatrix in="shadowBlurOuter1" values="0 0 0 0 0   0 0 0 0 0   0 0 0 0 0  0 0 0 0.199473505 0"/></filter><path id="d" d="m8.62721993 19.123718 5.27145847 3.0918159v1.7291484l-6.8986784-4.0589178v-10.59050967l9-5.29525483 9 5.29525483v10.59050967l-6.8986784 4.0589178v-1.7291484l5.2711172-3.0916158-1.3605546-.7855166.1784141-.3090223 1.3427413.7752321v-7.852063l-6.8193832 4.0421793v9.7664037 1.794229l-.7136564.4446397-.7136564-.4446397v-1.794229-9.7664037l-6.81938325-4.0421793v7.8516659l1.34205346-.774835.1784141.3090223zm7.17454217-13.30967255-6.62114536 3.88542731 6.81938326 4.04217924 6.8193833-4.04217924-6.660793-3.90869334v1.60465116h-.3568282zm0 2.59192995h.3568282v1.6572935h-.3568282zm0 2.6678383h.3568282v1.6572935l-.1784141.0808436-.1784141-.0808436zm5.560313 6.4502931-.1784141.3090223-1.4352583-.8286467.1784141-.3090223zm-2.2654929-1.3339191-.1784141.3090223-1.4352583-.8286468.0191945-.1949329.1592196-.1140894zm-8.4593452 1.3339191 1.4352582-.8286467.1784141.3090223-1.4352582.8286467zm2.2654929-1.3339191 1.4352582-.8286468.1592197.1140894.0191944.1949329-1.4352582.8286468z"/><filter id="e" height="115.2%" width="119.4%" x="-9.7%" y="-5.4%"><feOffset dy=".5" in="SourceAlpha" result="shadowOffsetOuter1"/><feGaussianBlur in="shadowOffsetOuter1" result="shadowBlurOuter1" stdDeviation=".5"/><feColorMatrix in="shadowBlurOuter1" values="0 0 0 0 0   0 0 0 0 0   0 0 0 0 0  0 0 0 0.204257246 0"/></filter></defs><g fill="none" fill-rule="evenodd"><use fill="#000" filter="url(#c)" xlink:href="#b"/><use fill="#0b1529" xlink:href="#b"/><use fill="url(#a)" xlink:href="#b"/><circle cx="16" cy="15" r="14.5" stroke="#000" stroke-opacity=".097"/><use fill="#000" filter="url(#e)" xlink:href="#d"/><use fill="#fff" xlink:href="#d"/></g></svg>