<svg xmlns="http://www.w3.org/2000/svg" xmlns:xlink="http://www.w3.org/1999/xlink" width="32" height="32" viewBox="0 0 32 32"><defs><linearGradient id="mnx-c" x1="50%" x2="50%" y1="0%" y2="100%"><stop offset="0%" stop-color="#FFF" stop-opacity=".5"/><stop offset="100%" stop-opacity=".5"/></linearGradient><circle id="mnx-b" cx="16" cy="15" r="15"/><filter id="mnx-a" width="111.7%" height="111.7%" x="-5.8%" y="-4.2%" filterUnits="objectBoundingBox"><feOffset dy=".5" in="SourceAlpha" result="shadowOffsetOuter1"/><feGaussianBlur in="shadowOffsetOuter1" result="shadowBlurOuter1" stdDeviation=".5"/><feComposite in="shadowBlurOuter1" in2="SourceAlpha" operator="out" result="shadowBlurOuter1"/><feColorMatrix in="shadowBlurOuter1" values="0 0 0 0 0 0 0 0 0 0 0 0 0 0 0 0 0 0 0.199473505 0"/></filter><path id="mnx-e" d="M14.8627438,25.9857621 C9.32027081,25.4047343 5,20.707954 5,15 C5,9.292046 9.32027081,4.59526571 14.8627438,4.01423795 L14.8627438,7.38388925 C11.1678052,7.94448071 8.33592805,11.1408352 8.33592805,15 C8.33592805,18.8591648 11.1678052,22.0555193 14.8627438,22.6161108 L14.8627438,25.9857621 Z M17.038349,4 C22.2675338,4.4785304 26.4408257,8.6168895 26.9857919,13.8372389 L23.6232066,13.8372389 C23.113787,10.4654548 20.4232628,7.81086217 17.038349,7.36330012 L17.038349,4 Z M27,16.0174159 C26.5180497,21.306129 22.3159719,25.517037 17.038349,26 L17.038349,22.6366999 C20.4717536,22.1827263 23.1907309,19.4580353 23.6437526,16.0174159 L27,16.0174159 Z"/><filter id="mnx-d" width="115.9%" height="115.9%" x="-8%" y="-5.7%" filterUnits="objectBoundingBox"><feOffset dy=".5" in="SourceAlpha" result="shadowOffsetOuter1"/><feGaussianBlur in="shadowOffsetOuter1" result="shadowBlurOuter1" stdDeviation=".5"/><feColorMatrix in="shadowBlurOuter1" values="0 0 0 0 0 0 0 0 0 0 0 0 0 0 0 0 0 0 0.204257246 0"/></filter></defs><g fill="none" fill-rule="evenodd"><g fill-rule="nonzero"><use fill="#000" filter="url(#mnx-a)" xlink:href="#mnx-b"/><use fill="#00ADEF" fill-rule="evenodd" xlink:href="#mnx-b"/><use fill="url(#mnx-c)" fill-rule="evenodd" style="mix-blend-mode:soft-light" xlink:href="#mnx-b"/><circle cx="16" cy="15" r="14.5" stroke="#000" stroke-opacity=".097"/></g><use fill="#000" filter="url(#mnx-d)" xlink:href="#mnx-e"/><use fill="#FFF" xlink:href="#mnx-e"/></g></svg>