<svg height="32" viewBox="0 0 32 32" width="32" xmlns="http://www.w3.org/2000/svg" xmlns:xlink="http://www.w3.org/1999/xlink"><defs><linearGradient id="a" x1="50%" x2="50%" y1="0%" y2="100%"><stop offset="0" stop-color="#fff" stop-opacity=".5"/><stop offset="1" stop-opacity=".5"/></linearGradient><circle id="b" cx="16" cy="15" r="15"/><filter id="c" height="111.7%" width="111.7%" x="-5.8%" y="-4.2%"><feOffset dy=".5" in="SourceAlpha" result="shadowOffsetOuter1"/><feGaussianBlur in="shadowOffsetOuter1" result="shadowBlurOuter1" stdDeviation=".5"/><feComposite in="shadowBlurOuter1" in2="SourceAlpha" operator="out" result="shadowBlurOuter1"/><feColorMatrix in="shadowBlurOuter1" values="0 0 0 0 0   0 0 0 0 0   0 0 0 0 0  0 0 0 0.199473505 0"/></filter><path id="d" d="m23.529471 12.4135726-1.4236775-6.4135726-2.7969774 4.4136848c-2.1743073-.52495794-4.4423174-.52495794-6.6166247 0l-2.79093195-4.4136848-1.42871537 6.4135726c-1.53652393 1.2286035-2.47254408 2.8337634-2.47254408 4.595401 0 3.8594504 4.4755668 6.9890073 9.9969773 6.9890073 5.5214106 0 9.9969774-3.1295569 9.9969774-6.9890073-.0010076-1.7616376-.9299749-3.3667975-2.4644837-4.595401zm-13.0861461 2.9377454h-.66599493l1.62619643-1.8767246h1.1848867zm5.5032746 4.5832866-2.7657431-4.8720135.6831234-.3896803.6166247 1.0852496h3.0216625l.6438287-1.0902972.6760705.4017947zm5.6130982-4.5832866-2.1460957-1.8767246h1.1919396l1.6251889 1.8767246zm-5.6 3.01447-1.0327456-1.8191812h2.1078086z"/><filter id="e" height="119.4%" width="117.5%" x="-8.8%" y="-6.9%"><feOffset dy=".5" in="SourceAlpha" result="shadowOffsetOuter1"/><feGaussianBlur in="shadowOffsetOuter1" result="shadowBlurOuter1" stdDeviation=".5"/><feColorMatrix in="shadowBlurOuter1" values="0 0 0 0 0   0 0 0 0 0   0 0 0 0 0  0 0 0 0.204257246 0"/></filter></defs><g fill="none" fill-rule="nonzero"><g><use fill="#000" filter="url(#c)" xlink:href="#b"/><use fill="#dec799" fill-rule="evenodd" xlink:href="#b"/><use fill="url(#a)" fill-rule="evenodd" xlink:href="#b"/><circle cx="16" cy="15" r="14.5" stroke="#000" stroke-opacity=".097"/></g><g><use fill="#000" filter="url(#e)" xlink:href="#d"/><use fill="#fff" fill-rule="evenodd" xlink:href="#d"/></g></g></svg>