<svg width="32" height="32" viewBox="0 0 32 32" version="1.1" xmlns="http://www.w3.org/2000/svg" xmlns:xlink="http://www.w3.org/1999/xlink"><title>icon/msr</title><desc>Created with Sketch.</desc><defs><linearGradient x1="50%" y1="0%" x2="50%" y2="100%" id="linearGradient-1"><stop stop-color="#FFF" stop-opacity=".5" offset="0%"/><stop stop-color="#000" stop-opacity=".5" offset="100%"/></linearGradient><circle id="path-2" cx="15" cy="15" r="15"/><filter x="-5.8%" y="-4.2%" width="111.7%" height="111.7%" filterUnits="objectBoundingBox" id="filter-3"><feOffset dx="0" dy=".5" in="SourceAlpha" result="shadowOffsetOuter1"/><feGaussianBlur stdDeviation=".5" in="shadowOffsetOuter1" result="shadowBlurOuter1"/><feComposite in="shadowBlurOuter1" in2="SourceAlpha" operator="out" result="shadowBlurOuter1"/><feColorMatrix values="0 0 0 0 0 0 0 0 0 0 0 0 0 0 0 0 0 0 0.199473505 0" type="matrix" in="shadowBlurOuter1"/></filter></defs><g id="icon/msr" stroke="none" stroke-width="1" fill="none" fill-rule="evenodd"><g id="Group" transform="translate(1.000000, 0.000000)" fill-rule="nonzero"><g id="Oval"><use fill="#000" fill-opacity="1" filter="url(#filter-3)" xlink:href="#path-2"/><use fill="#47B95C" fill-rule="evenodd" xlink:href="#path-2"/><use fill="url(#linearGradient-1)" fill-rule="evenodd" style="mix-blend-mode:soft-light" xlink:href="#path-2"/><circle stroke-opacity=".097" stroke="#000" stroke-width="1" stroke-linejoin="square" cx="15" cy="15" r="14.5"/></g></g><g id="Masari-(MSR)" transform="translate(7.000000, 6.000000)" fill="#FFF" fill-rule="nonzero"><path d="M9,0 C4.032,0 0,4.032 0,9 C0,9.12 0.012,9.234 0.018,9.354 L4.242,9.354 L6.282,5.844 L9,9.738 L11.712,5.844 L13.752,9.354 L17.976,9.354 C17.982,9.234 17.994,9.12 17.994,9 C18,4.032 13.968,0 9,0 Z M15.204,8.268 C14.838,5.166 12.198,2.754 9,2.754 C5.802,2.754 3.162,5.172 2.796,8.268 L1.704,8.268 C2.07,4.566 5.202,1.668 9,1.668 C12.798,1.668 15.924,4.566 16.296,8.268 L15.204,8.268 Z" id="Shape"/><path d="M11.634,7.86 L9,11.64 L6.366,7.86 L4.866,10.44 L0.126,10.44 C0.816,14.724 4.518,18 9,18 C13.482,18 17.184,14.724 17.874,10.434 L13.134,10.434 L11.634,7.86 Z M14.712,11.52 L15.876,11.52 C14.844,14.322 12.156,16.332 9,16.332 C5.844,16.332 3.156,14.322 2.124,11.52 L3.288,11.52 C4.26,13.71 6.45,15.246 9,15.246 C11.55,15.246 13.74,13.71 14.712,11.52 Z" id="Shape"/></g></g></svg>