<svg xmlns="http://www.w3.org/2000/svg" xmlns:xlink="http://www.w3.org/1999/xlink" width="32" height="32" viewBox="0 0 32 32"><defs><linearGradient id="c" x1="50%" x2="50%" y1="0%" y2="100%"><stop offset="0%" stop-color="#FFF" stop-opacity=".5"/><stop offset="100%" stop-opacity=".5"/></linearGradient><circle id="b" cx="16" cy="15" r="15"/><filter id="a" width="111.7%" height="111.7%" x="-5.8%" y="-4.2%" filterUnits="objectBoundingBox"><feOffset dy=".5" in="SourceAlpha" result="shadowOffsetOuter1"/><feGaussianBlur in="shadowOffsetOuter1" result="shadowBlurOuter1" stdDeviation=".5"/><feComposite in="shadowBlurOuter1" in2="SourceAlpha" operator="out" result="shadowBlurOuter1"/><feColorMatrix in="shadowBlurOuter1" values="0 0 0 0 0 0 0 0 0 0 0 0 0 0 0 0 0 0 0.199473505 0"/></filter><path id="e" d="M16.811 10.567v1.863h2.214l-1 1.148h-1.487v1.443h1.547l-.758 1.148h-.789v2.944l-1.273 1.736v-4.68h-1.76l.971-1.148h.789v-1.443h-2.487l1-1.148h1.487V10.5c-.733-.793-1.744-1.19-3.033-1.19-2.472 0-4.428 2.635-4.428 5.255 0 1.746.4 3.228 1.198 4.445l-1.38 1.604C6.541 19.012 6 17.182 6 15.124 6 10.605 9.89 8 12.641 8c1.684 0 2.974.706 3.87 2.117 1.714-1.176 3.467-1.764 5.259-1.764 2.744 0 4.23 3.35 4.23 6.55 0 4.258-2.866 5.902-3.912 6.094a.207.207 0 0 1-.205-.082.194.194 0 0 1 .051-.276c1.619-1.088 2.428-2.755 2.428-5 0-4.901-2.517-6.035-4.367-6.035a5.693 5.693 0 0 0-3.184.963z"/><filter id="d" width="117.5%" height="126.9%" x="-8.8%" y="-9.6%" filterUnits="objectBoundingBox"><feOffset dy=".5" in="SourceAlpha" result="shadowOffsetOuter1"/><feGaussianBlur in="shadowOffsetOuter1" result="shadowBlurOuter1" stdDeviation=".5"/><feColorMatrix in="shadowBlurOuter1" values="0 0 0 0 0 0 0 0 0 0 0 0 0 0 0 0 0 0 0.204257246 0"/></filter></defs><g fill="none" fill-rule="evenodd"><use fill="#000" filter="url(#a)" xlink:href="#b"/><use fill="#FFAA05" xlink:href="#b"/><use fill="url(#c)" style="mix-blend-mode:soft-light" xlink:href="#b"/><circle cx="16" cy="15" r="14.5" stroke="#000" stroke-opacity=".097"/><use fill="#000" filter="url(#d)" xlink:href="#e"/><use fill="#FFF" xlink:href="#e"/></g></svg>