<svg height="32" viewBox="0 0 32 32" width="32" xmlns="http://www.w3.org/2000/svg" xmlns:xlink="http://www.w3.org/1999/xlink"><defs><linearGradient id="a" x1="50%" x2="50%" y1="0%" y2="100%"><stop offset="0" stop-color="#fff" stop-opacity=".5"/><stop offset="1" stop-opacity=".5"/></linearGradient><circle id="b" cx="16" cy="15" r="15"/><filter id="c" height="111.7%" width="111.7%" x="-5.8%" y="-4.2%"><feOffset dy=".5" in="SourceAlpha" result="shadowOffsetOuter1"/><feGaussianBlur in="shadowOffsetOuter1" result="shadowBlurOuter1" stdDeviation=".5"/><feComposite in="shadowBlurOuter1" in2="SourceAlpha" operator="out" result="shadowBlurOuter1"/><feColorMatrix in="shadowBlurOuter1" values="0 0 0 0 0   0 0 0 0 0   0 0 0 0 0  0 0 0 0.199473505 0"/></filter><path id="d" d="m16.8112206 10.5669777v1.863337h2.2137984l-1.0007582 1.148055h-1.4859742v1.442428h1.5466262l-.7581501 1.148055h-.7884761v2.9437307l-1.2736922 1.7368011v-4.6805318h-1.7589083l.9704322-1.148055h.7884761v-1.442428h-2.4867324l1.0007582-1.148055h1.4859742v-1.9305215c-.7322865-.79322203-1.7431533-1.18983304-3.0326005-1.18983304-2.47156934 0-4.42759663 2.63463894-4.42759663 5.25455924 0 1.7466136.39929239 3.2282914 1.19787718 4.4450334l-1.37983321 1.6043332c-1.08162749-1.6020334-1.62244124-3.4320527-1.62244124-5.4900577 0-4.5186266 3.88931008-7.1238283 6.641395-7.1238283 1.6835763 0 2.9735462.70570908 3.8699098 2.1171272 1.7139738-1.17591966 3.4667129-1.76387952 5.2582176-1.76387952 2.7445034 0 4.2304776 3.34906862 4.2304776 6.54980082 0 4.2581179-2.8658074 5.90218-3.9120546 6.0935225-.079072.0144611-.1595098-.017576-.2053306-.0817799-.0641182-.089842-.0410661-.2131283.0514882-.2753675l-.0000011-.0000016c1.6188626-1.0886224 2.4282939-2.7554361 2.4282939-5.0004409 0-4.9013116-2.5170584-6.03464787-4.3669447-6.03464787-1.1440525 0-2.2054628.32088157-3.1842308.96264467z"/><filter id="e" height="126.9%" width="117.5%" x="-8.8%" y="-9.6%"><feOffset dy=".5" in="SourceAlpha" result="shadowOffsetOuter1"/><feGaussianBlur in="shadowOffsetOuter1" result="shadowBlurOuter1" stdDeviation=".5"/><feColorMatrix in="shadowBlurOuter1" values="0 0 0 0 0   0 0 0 0 0   0 0 0 0 0  0 0 0 0.204257246 0"/></filter></defs><g fill="none" fill-rule="evenodd"><use fill="#000" filter="url(#c)" xlink:href="#b"/><use fill="#ffaa05" xlink:href="#b"/><use fill="url(#a)" xlink:href="#b"/><circle cx="16" cy="15" r="14.5" stroke="#000" stroke-opacity=".097"/><use fill="#000" filter="url(#e)" xlink:href="#d"/><use fill="#fff" xlink:href="#d"/></g></svg>