<svg height="32" viewBox="0 0 32 32" width="32" xmlns="http://www.w3.org/2000/svg" xmlns:xlink="http://www.w3.org/1999/xlink"><defs><linearGradient id="a" x1="50%" x2="50%" y1="0%" y2="100%"><stop offset="0" stop-color="#fff" stop-opacity=".5"/><stop offset="1" stop-opacity=".5"/></linearGradient><circle id="b" cx="16" cy="15" r="15"/><filter id="c" height="111.7%" width="111.7%" x="-5.8%" y="-4.2%"><feOffset dy=".5" in="SourceAlpha" result="shadowOffsetOuter1"/><feGaussianBlur in="shadowOffsetOuter1" result="shadowBlurOuter1" stdDeviation=".5"/><feComposite in="shadowBlurOuter1" in2="SourceAlpha" operator="out" result="shadowBlurOuter1"/><feColorMatrix in="shadowBlurOuter1" values="0 0 0 0 0   0 0 0 0 0   0 0 0 0 0  0 0 0 0.199473505 0"/></filter><path id="d" d="m20.3594663 12.6609039v4.7349679l.0000985.0470513-4.306798 2.3675611v-4.7820652zm5.1405337-1.226628v7.1311813c-.0007851.5065855-.1402986 1.0029618-.4029378 1.4336159-.2605202.4294024-.6373199.7948981-1.1040674 1.0514383l-3.2120829 1.7657963v-4.7075236l.4058912-.2231869v-5.6781667l3.9345751-2.162973c.2436529.4186754.3786218.8949474.3786218 1.3898184zm-17.49319171 9.6163355c-.45017924-.2471787-.81589685-.5971456-1.07480751-1.0071069-.27744119-.4390083-.43200078-.9479784-.43200078-1.4779473v-3.5315926-1.0339646l4.4235544 3.4546225v.1926886l.0077772.1976884.3432798.2030881 4.41608 2.4278075.3644381.2003382v4.3231462c-.5444609.0108573-1.0824944-.120937-1.5622331-.3826775zm-.18419171-11.99089611 4.67738342-2.55971529 3.1800003 3.07999992-4.7564459 2.62273088v.3993765l-4.41370984 2.4261576-.00984456-3.593989c.00083338-.5076305.14094639-1.004978.4046114-1.4362157.23219586-.37927906.54606391-.70012616.91800518-.93834491zm16.17037822-.1106935c.482285.26538442.8676011.64706201 1.1283834 1.09533571l-3.9345751 2.162973v-.0362979l-.4059896-.2230869-4.3335752-2.38236011 4.3335752-2.38226015zm-17.48305179 6.07934311 4.41361139-2.4261576v4.8523152zm9.54528499-5.64806843v-4.37974288c.5069603.00751533 1.0047105.13872873 1.451285.38257754l3.2740051 1.79989433-4.3334766 2.38236014zm-.3644456.20048823-4.4081969-2.42315775 3.4028705-1.87069018c.4299712-.1974304.8977914-.29525331 1.3695751-.28638318v4.38024285zm.3920103 11.1106477.3644456-.1999882 4.2818912 2.3537618-3.2223212 1.771296c-.4466624.2439337-.9445046.3752476-1.4515803.3828775v-4.3230462zm4.6980208-2.5825483v4.7074236l-.051684.0284983-4.2818912-2.3537618z"/><filter id="e" height="117.5%" width="118.4%" x="-9.2%" y="-6.2%"><feOffset dy=".5" in="SourceAlpha" result="shadowOffsetOuter1"/><feGaussianBlur in="shadowOffsetOuter1" result="shadowBlurOuter1" stdDeviation=".5"/><feColorMatrix in="shadowBlurOuter1" values="0 0 0 0 0   0 0 0 0 0   0 0 0 0 0  0 0 0 0.204257246 0"/></filter></defs><g fill="none" fill-rule="evenodd"><use fill="#000" filter="url(#c)" xlink:href="#b"/><use fill="#50479e" xlink:href="#b"/><use fill="url(#a)" xlink:href="#b"/><circle cx="16" cy="15" r="14.5" stroke="#000" stroke-opacity=".097"/><g fill-rule="nonzero"><use fill="#000" filter="url(#e)" xlink:href="#d"/><use fill="#fff" fill-rule="evenodd" xlink:href="#d"/></g></g></svg>