<svg height="32" width="32" xmlns="http://www.w3.org/2000/svg" xmlns:xlink="http://www.w3.org/1999/xlink"><defs><linearGradient id="c" x1="50%" x2="50%" y1="0%" y2="100%"><stop offset="0" stop-color="#fff" stop-opacity=".5"/><stop offset="1" stop-opacity=".5"/></linearGradient><circle id="b" cx="16" cy="15" r="15"/><filter id="a" height="111.7%" width="111.7%" x="-5.8%" y="-4.2%"><feOffset dy=".5" in="SourceAlpha" result="shadowOffsetOuter1"/><feGaussianBlur in="shadowOffsetOuter1" result="shadowBlurOuter1" stdDeviation=".5"/><feComposite in="shadowBlurOuter1" in2="SourceAlpha" operator="out" result="shadowBlurOuter1"/><feColorMatrix in="shadowBlurOuter1" values="0 0 0 0 0 0 0 0 0 0 0 0 0 0 0 0 0 0 0.199473505 0"/></filter><path id="e" d="M20.5 15.842L13.804 25l.247-7.441H12.5l.634-6.532 7.084-.976-2.326 5.925zm-5.498 6.498v-1.75c0-.13-.11-.236-.246-.236s-.247.105-.247.235v1.751c0 .13.11.236.247.236s.246-.106.246-.236zm-1.832-5.286h1.41l-.065 2.693c-.001.071.027.14.079.19s.123.08.197.08h.012a.27.27 0 0 0 .275-.258l.065-3.177h-1.41l.473-5.219c.005-.06-.016-.12-.059-.165s-.103-.07-.167-.07h-.04a.223.223 0 0 0-.226.197zm0-6.6L15.778 8.3c.14-2.155-1.27-2.492-1.27-2.492L14.72 5c2.326.673 1.974 3.232 1.974 3.232l3.383 1.414z"/><filter id="d" height="117.5%" width="143.8%" x="-21.9%" y="-6.2%"><feOffset dy=".5" in="SourceAlpha" result="shadowOffsetOuter1"/><feGaussianBlur in="shadowOffsetOuter1" result="shadowBlurOuter1" stdDeviation=".5"/><feColorMatrix in="shadowBlurOuter1" values="0 0 0 0 0 0 0 0 0 0 0 0 0 0 0 0 0 0 0.204257246 0"/></filter></defs><g fill="none" fill-rule="evenodd"><use fill="#000" filter="url(#a)" xlink:href="#b"/><use fill="#f80000" xlink:href="#b"/><use fill="url(#c)" xlink:href="#b"/><circle cx="16" cy="15" r="14.5" stroke="#000" stroke-opacity=".097"/><g fill-rule="nonzero"><use fill="#000" filter="url(#d)" xlink:href="#e"/><use fill="#fff" fill-rule="evenodd" xlink:href="#e"/></g></g></svg>