<svg height="32" viewBox="0 0 32 32" width="32" xmlns="http://www.w3.org/2000/svg" xmlns:xlink="http://www.w3.org/1999/xlink"><defs><linearGradient id="a" x1="50%" x2="50%" y1="0%" y2="100%"><stop offset="0" stop-color="#fff" stop-opacity=".5"/><stop offset="1" stop-opacity=".5"/></linearGradient><circle id="b" cx="16" cy="15" r="15"/><filter id="c" height="111.7%" width="111.7%" x="-5.8%" y="-4.2%"><feOffset dy=".5" in="SourceAlpha" result="shadowOffsetOuter1"/><feGaussianBlur in="shadowOffsetOuter1" result="shadowBlurOuter1" stdDeviation=".5"/><feComposite in="shadowBlurOuter1" in2="SourceAlpha" operator="out" result="shadowBlurOuter1"/><feColorMatrix in="shadowBlurOuter1" values="0 0 0 0 0   0 0 0 0 0   0 0 0 0 0  0 0 0 0.199473505 0"/></filter><path id="d" d="m20.5 15.8417508-6.6960352 9.1582492.246696-7.4410774h-1.5506608l.6343612-6.5319866 7.0837005-.9764309-2.3259912 5.9259259zm-5.4977974 6.4983165v-1.7508417c0-.1301681-.1104495-.2356902-.246696-.2356902s-.246696.1055221-.246696.2356902v1.7508417c0 .1301682.1104495.2356903.246696.2356903s.246696-.1055221.246696-.2356903zm-1.8325991-5.2861952h1.4096917l-.064141 2.6936026c-.0015134.0708221.0268302.1392536.0786585.1899094s.1227918.079285.1969362.0794509h.0119824c.1500316.00003.272525-.1146042.2755947-.2579124l.0648458-3.176431h-1.4096916l.4722467-5.2195286c.0055359-.060403-.0157365-.1202503-.0586278-.1649417s-.1034574-.0701174-.1669229-.0700752h-.0401762c-.1169926.0002081-.2146509.0853457-.2255507.196633zm0-6.5993266 2.6079295-2.1548822c.1409692-2.15488216-1.2687224-2.49158249-1.2687224-2.49158249l.2114537-.80808081c2.3259912.67340067 1.9735683 3.23232323 1.9735683 3.23232323l3.3832599 1.41414142z"/><filter id="e" height="117.5%" width="143.8%" x="-21.9%" y="-6.2%"><feOffset dy=".5" in="SourceAlpha" result="shadowOffsetOuter1"/><feGaussianBlur in="shadowOffsetOuter1" result="shadowBlurOuter1" stdDeviation=".5"/><feColorMatrix in="shadowBlurOuter1" values="0 0 0 0 0   0 0 0 0 0   0 0 0 0 0  0 0 0 0.204257246 0"/></filter></defs><g fill="none" fill-rule="evenodd"><use fill="#000" filter="url(#c)" xlink:href="#b"/><use fill="#f80000" xlink:href="#b"/><use fill="url(#a)" xlink:href="#b"/><circle cx="16" cy="15" r="14.5" stroke="#000" stroke-opacity=".097"/><g fill-rule="nonzero"><use fill="#000" filter="url(#e)" xlink:href="#d"/><use fill="#fff" fill-rule="evenodd" xlink:href="#d"/></g></g></svg>