<svg width="32" height="32" viewBox="0 0 32 32" xmlns="http://www.w3.org/2000/svg" xmlns:xlink="http://www.w3.org/1999/xlink"><defs><linearGradient x1="50%" y1="0%" x2="50%" y2="100%" id="c"><stop stop-color="#FFF" stop-opacity=".5" offset="0%"/><stop stop-opacity=".5" offset="100%"/></linearGradient><filter x="-5.8%" y="-4.2%" width="111.7%" height="111.7%" filterUnits="objectBoundingBox" id="a"><feOffset dy=".5" in="SourceAlpha" result="shadowOffsetOuter1"/><feGaussianBlur stdDeviation=".5" in="shadowOffsetOuter1" result="shadowBlurOuter1"/><feComposite in="shadowBlurOuter1" in2="SourceAlpha" operator="out" result="shadowBlurOuter1"/><feColorMatrix values="0 0 0 0 0 0 0 0 0 0 0 0 0 0 0 0 0 0 0.199473505 0" in="shadowBlurOuter1"/></filter><circle id="b" cx="16" cy="15" r="15"/></defs><g fill="none" fill-rule="evenodd"><use fill="#000" filter="url(#a)" xlink:href="#b"/><use fill="#0D1E67" xlink:href="#b"/><use fill="url(#c)" style="mix-blend-mode:soft-light" xlink:href="#b"/><circle stroke-opacity=".097" stroke="#000" stroke-linejoin="square" cx="16" cy="15" r="14.5"/><path d="M16.565 18.788s3.058.73 5.482-1.115c2.423-1.847 2.344-4.635 2.344-4.635s-2.74-.828-5.23.934-2.596 4.816-2.596 4.816zm0 1.372s.42 1.94 2.072 2.763c1.652.823 3.146-.04 3.146-.04s-.283-1.79-1.906-2.676c-1.623-.887-3.312-.047-3.312-.047zm4.348-1.137s.934.85 2.297.772c1.364-.077 2.05-.954 2.05-.954s-.792-.815-2.159-.779c-1.366.037-2.188.96-2.188.96zm-.87-6.873S18.44 9.735 15.43 9.405c-3.01-.329-4.952 1.54-4.952 1.54s1.314 2.28 4.308 2.707c2.994.428 5.257-1.5 5.257-1.5zm.221-1.045s1.124-1.752.414-3.651c-.711-1.9-2.565-2.436-2.565-2.436s-1.121 1.534-.48 3.458c.641 1.923 2.631 2.629 2.631 2.629zm-3.7-2.635s.079-1.628-1.027-2.676c-1.105-1.048-2.442-.731-2.442-.731s-.155 1.477.916 2.568 2.553.84 2.553.84zm-2.431 6.113s-2.417 1.604-2.746 4.613c-.33 3.01 1.539 4.952 1.539 4.952s2.28-1.313 2.708-4.307c.428-2.995-1.5-5.258-1.5-5.258zm-1.046-.221s-1.752-1.123-3.65-.414C7.538 14.658 7 16.512 7 16.512s1.534 1.122 3.455.483c1.921-.64 2.632-2.633 2.632-2.633zm-1.764 2.831s-1.63-.08-2.678 1.027c-1.048 1.106-.73 2.442-.73 2.442s1.477.155 2.568-.917c1.091-1.07.84-2.552.84-2.552z" fill="#FFF" fill-rule="nonzero"/></g></svg>