<svg height="32" viewBox="0 0 32 32" width="32" xmlns="http://www.w3.org/2000/svg" xmlns:xlink="http://www.w3.org/1999/xlink"><defs><linearGradient id="a" x1="50%" x2="50%" y1="0%" y2="100%"><stop offset="0" stop-color="#fff" stop-opacity=".5"/><stop offset="1" stop-opacity=".5"/></linearGradient><circle id="b" cx="16" cy="15" r="15"/><filter id="c" height="111.7%" width="111.7%" x="-5.8%" y="-4.2%"><feOffset dy=".5" in="SourceAlpha" result="shadowOffsetOuter1"/><feGaussianBlur in="shadowOffsetOuter1" result="shadowBlurOuter1" stdDeviation=".5"/><feComposite in="shadowBlurOuter1" in2="SourceAlpha" operator="out" result="shadowBlurOuter1"/><feColorMatrix in="shadowBlurOuter1" values="0 0 0 0 0   0 0 0 0 0   0 0 0 0 0  0 0 0 0.199473505 0"/></filter><path id="d" d="m18.1514006 12.7186544-1.9427835-3.81604259c.4041318-.88045751.6061977-1.37873912.6061977-1.49484482 0-.41262136-.2716049-.71521036-.8148148-.90776699h5.9481481c-.7333333.33009709-1.3851851 1.15533981-1.9555555 2.47572816zm-2.9160933 5.9280737-.9056777 1.841136h5.3370371c2.4172839 0 4.0333333-.4538835 4.8481481-1.3616505l-2.8518518 4.3737864c-8.5283951 0-13.39012349 0-14.58518522 0 1.57530864-.302589 3.16419752-2.2006472 4.76666662-5.6941748.5393425-1.0741952 1.0347912-2.0653726 1.4863464-2.973532zm-10.2353073.6032719c1.18148148-.7014563 5.5-8.1715147 5.5-10.27427184 0-.49514564-.2985251-.96278318-.89557528-1.40291263h4.64372338l4.0333334 7.92233007 3.9111111-7.92233007h4.8074074c-2.037037.53640777-6.0703704 10.14653657-6.0703704 11.26456307 0 .2200648.0408061.3576052.1224181.4126214h-4.2372329l-3.6259259-7.2621359-3.58446418 7.2621359z"/><filter id="e" height="120.6%" width="115.9%" x="-8%" y="-7.4%"><feOffset dy=".5" in="SourceAlpha" result="shadowOffsetOuter1"/><feGaussianBlur in="shadowOffsetOuter1" result="shadowBlurOuter1" stdDeviation=".5"/><feColorMatrix in="shadowBlurOuter1" values="0 0 0 0 0   0 0 0 0 0   0 0 0 0 0  0 0 0 0.204257246 0"/></filter></defs><g fill="none" fill-rule="evenodd"><use fill="#000" filter="url(#c)" xlink:href="#b"/><use fill="#f28f01" xlink:href="#b"/><use fill="url(#a)" xlink:href="#b"/><circle cx="16" cy="15" r="14.5" stroke="#000" stroke-opacity=".097"/><use fill="#000" filter="url(#e)" xlink:href="#d"/><use fill="#fff" xlink:href="#d"/></g></svg>