<svg height="32" viewBox="0 0 32 32" width="32" xmlns="http://www.w3.org/2000/svg" xmlns:xlink="http://www.w3.org/1999/xlink"><defs><linearGradient id="a" x1="50%" x2="50%" y1="0%" y2="100%"><stop offset="0" stop-color="#fff" stop-opacity=".5"/><stop offset="1" stop-opacity=".5"/></linearGradient><circle id="b" cx="16" cy="15" r="15"/><filter id="c" height="111.7%" width="111.7%" x="-5.8%" y="-4.2%"><feOffset dy=".5" in="SourceAlpha" result="shadowOffsetOuter1"/><feGaussianBlur in="shadowOffsetOuter1" result="shadowBlurOuter1" stdDeviation=".5"/><feComposite in="shadowBlurOuter1" in2="SourceAlpha" operator="out" result="shadowBlurOuter1"/><feColorMatrix in="shadowBlurOuter1" values="0 0 0 0 0   0 0 0 0 0   0 0 0 0 0  0 0 0 0.199473505 0"/></filter><path id="d" d="m25.515224 13.8042885c.1644358-.0023654.2689348.0192691.3359712.0804211.0689143.0628651.0982377.1674929.1123867.330742.466335 5.3783431-3.6017218 10.2409026-8.9980559 10.7401307-5.5635188.5147125-10.39307341-3.5010001-10.92182701-9.0812878-.51324919-5.4168533 3.5557432-10.33289441 8.98769731-10.82703538 3.0757305-.27979084 5.7320401.68582224 7.9675032 2.81542323.0229447.02184332.0179103.11394671-.0077299.1400516-.5026902.51138804-1.0089668 1.01927312-1.5207681 1.5215133-.0281574.02759978-.1324111.02378445-.1645338-.0056449-2.3071264-2.11349182-4.9798537-2.7398083-7.9030797-1.67477353-2.9570638 1.07735092-4.64797934 3.30644048-4.98145766 6.44732698-.45107564 4.2485369 2.75617496 7.9935172 7.03434306 8.3164369 3.8785511.2927317 7.3926151-2.4525207 8.035179-6.2841157.0064602-.0385549-.0804625-.1338489-.1239906-.1339381-2.3945838-.0066266-4.789212-.004507-7.1837958-.0136995-.0625077-.0002231-.1774318-.1150177-.1786793-.1781156-.013054-.6690661-.0124302-1.3386006-.0003564-2.0077113.0010693-.0597066.1083526-.16841.1667837-.1687447 1.596352-.0092817 7.8262705.0047748 9.34441-.0169793z"/><filter id="e" height="117.5%" width="117.5%" x="-8.8%" y="-6.2%"><feOffset dy=".5" in="SourceAlpha" result="shadowOffsetOuter1"/><feGaussianBlur in="shadowOffsetOuter1" result="shadowBlurOuter1" stdDeviation=".5"/><feColorMatrix in="shadowBlurOuter1" values="0 0 0 0 0   0 0 0 0 0   0 0 0 0 0  0 0 0 0.204257246 0"/></filter></defs><g fill="none" fill-rule="evenodd"><use fill="#000" filter="url(#c)" xlink:href="#b"/><use fill="#2ab0fd" xlink:href="#b"/><use fill="url(#a)" xlink:href="#b"/><circle cx="16" cy="15" r="14.5" stroke="#000" stroke-opacity=".097"/><use fill="#000" filter="url(#e)" xlink:href="#d"/><use fill="#fff" xlink:href="#d"/></g></svg>