<svg height="32" viewBox="0 0 32 32" width="32" xmlns="http://www.w3.org/2000/svg" xmlns:xlink="http://www.w3.org/1999/xlink"><defs><linearGradient id="a" x1="50%" x2="50%" y1="0%" y2="100%"><stop offset="0" stop-color="#fff" stop-opacity=".5"/><stop offset="1" stop-opacity=".5"/></linearGradient><circle id="b" cx="16" cy="15" r="15"/><filter id="c" height="111.7%" width="111.7%" x="-5.8%" y="-4.2%"><feOffset dy=".5" in="SourceAlpha" result="shadowOffsetOuter1"/><feGaussianBlur in="shadowOffsetOuter1" result="shadowBlurOuter1" stdDeviation=".5"/><feComposite in="shadowBlurOuter1" in2="SourceAlpha" operator="out" result="shadowBlurOuter1"/><feColorMatrix in="shadowBlurOuter1" values="0 0 0 0 0   0 0 0 0 0   0 0 0 0 0  0 0 0 0.199473505 0"/></filter><path id="d" d="m19.2613073 22.5.0008469-.0017157c.1462267.0025735.299793-.0122955.4578759-.0494681.8756665-.2055931 1.6166803-.9710626 1.7931121-1.7968661l3.4868578-13.09619121-2.7720971-.01343932-2.2859921 8.56799723-6.1796311-8.59687748-.0039521.00314538.0031052-.00886424-1.0221755-.00772046-.0011292.00142972c-.1459444-.00257349-.299793.0120096-.4581582.04861031-.8753842.20587899-1.6155511.97106257-1.7925475 1.79572229l-3.4874224 13.09905068 2.77322627.0120096 2.28486293-8.5674254 6.1807603 8.5980213.0016938-.0008578zm-6.5931874-10.8944298.4827176-1.81030542 6.1816071 8.59945102-.4832821 1.8108772z"/><filter id="e" height="123.3%" width="119.4%" x="-9.7%" y="-8.3%"><feOffset dy=".5" in="SourceAlpha" result="shadowOffsetOuter1"/><feGaussianBlur in="shadowOffsetOuter1" result="shadowBlurOuter1" stdDeviation=".5"/><feColorMatrix in="shadowBlurOuter1" values="0 0 0 0 0   0 0 0 0 0   0 0 0 0 0  0 0 0 0.204257246 0"/></filter></defs><g fill="none" fill-rule="evenodd"><use fill="#000" filter="url(#c)" xlink:href="#b"/><use fill="#186c9d" xlink:href="#b"/><use fill="url(#a)" xlink:href="#b"/><circle cx="16" cy="15" r="14.5" stroke="#000" stroke-opacity=".097"/><g fill-rule="nonzero"><use fill="#000" filter="url(#e)" xlink:href="#d"/><use fill="#fff" fill-rule="evenodd" xlink:href="#d"/></g></g></svg>