<svg xmlns="http://www.w3.org/2000/svg" xmlns:xlink="http://www.w3.org/1999/xlink" width="32" height="32" viewBox="0 0 32 32"><defs><linearGradient id="nmc-c" x1="50%" x2="50%" y1="0%" y2="100%"><stop offset="0%" stop-color="#FFF" stop-opacity=".5"/><stop offset="100%" stop-opacity=".5"/></linearGradient><circle id="nmc-b" cx="16" cy="15" r="15"/><filter id="nmc-a" width="111.7%" height="111.7%" x="-5.8%" y="-4.2%" filterUnits="objectBoundingBox"><feOffset dy=".5" in="SourceAlpha" result="shadowOffsetOuter1"/><feGaussianBlur in="shadowOffsetOuter1" result="shadowBlurOuter1" stdDeviation=".5"/><feComposite in="shadowBlurOuter1" in2="SourceAlpha" operator="out" result="shadowBlurOuter1"/><feColorMatrix in="shadowBlurOuter1" values="0 0 0 0 0 0 0 0 0 0 0 0 0 0 0 0 0 0 0.199473505 0"/></filter><path id="nmc-e" d="M19.2613073,22.5 L19.2621542,22.4982843 C19.4083809,22.5008578 19.5619472,22.4859888 19.7200301,22.4488162 C20.5956966,22.2432231 21.3367104,21.4777536 21.5131422,20.6519501 L25,7.55575889 L22.2279029,7.54231957 L19.9419108,16.1103168 L13.7622797,7.51343932 L13.7583276,7.5165847 L13.7614328,7.50772046 L12.7392573,7.5 L12.7381281,7.50142972 C12.5921837,7.49885623 12.4383351,7.51343932 12.2799699,7.55004003 C11.4045857,7.75591902 10.6644188,8.5211026 10.4874224,9.34576232 L7,22.444813 L9.77322627,22.4568226 L12.0580892,13.8893972 L18.2388495,22.4874185 L18.2405433,22.4865607 L19.2613073,22.5 Z M12.6681199,11.6055702 L13.1508375,9.79526478 L19.3324446,18.3947158 L18.8491625,20.205593 L12.6681199,11.6055702 Z"/><filter id="nmc-d" width="119.4%" height="123.3%" x="-9.7%" y="-8.3%" filterUnits="objectBoundingBox"><feOffset dy=".5" in="SourceAlpha" result="shadowOffsetOuter1"/><feGaussianBlur in="shadowOffsetOuter1" result="shadowBlurOuter1" stdDeviation=".5"/><feColorMatrix in="shadowBlurOuter1" values="0 0 0 0 0 0 0 0 0 0 0 0 0 0 0 0 0 0 0.204257246 0"/></filter></defs><g fill="none" fill-rule="evenodd"><use fill="#000" filter="url(#nmc-a)" xlink:href="#nmc-b"/><use fill="#186C9D" xlink:href="#nmc-b"/><use fill="url(#nmc-c)" style="mix-blend-mode:soft-light" xlink:href="#nmc-b"/><circle cx="16" cy="15" r="14.5" stroke="#000" stroke-opacity=".097"/><g fill-rule="nonzero"><use fill="#000" filter="url(#nmc-d)" xlink:href="#nmc-e"/><use fill="#FFF" fill-rule="evenodd" xlink:href="#nmc-e"/></g></g></svg>