<svg width="32" height="32" viewBox="0 0 32 32" fill="none" xmlns="http://www.w3.org/2000/svg">
<g clip-path="url(#clip0)">
<g filter="url(#filter0_d)">
<path d="M16 31C24.2843 31 31 24.2843 31 16C31 7.71573 24.2843 1 16 1C7.71573 1 1 7.71573 1 16C1 24.2843 7.71573 31 16 31Z" fill="black"/>
</g>
<path d="M16 31C24.2843 31 31 24.2843 31 16C31 7.71573 24.2843 1 16 1C7.71573 1 1 7.71573 1 16C1 24.2843 7.71573 31 16 31Z" fill="black"/>
<path fill-rule="evenodd" clip-rule="evenodd" d="M15.393 5.41836C15.7549 5.15221 16.2451 5.15221 16.607 5.41836L24.9499 11.5542C25.217 11.7506 25.375 12.0645 25.375 12.3985V19.4676C25.375 19.8016 25.217 20.1155 24.9499 20.3119L16.607 26.4477C16.2451 26.7139 15.7549 26.7139 15.393 26.4477L7.05013 20.3119C6.78303 20.1155 6.625 19.8016 6.625 19.4676V12.3985C6.625 12.0645 6.78303 11.7506 7.05013 11.5542L15.393 5.41836ZM7.35608 13.606H8.73323L8.24411 13.9493L8.48927 14.3066L10.1074 13.171H7.35608V13.606ZM10.3879 12.0401H8.5387V11.6051H10.3879V12.0401ZM11.377 9.75655H11.8225L10.9604 10.3126L11.1916 10.6794L13.2967 9.32159H11.377V9.75655ZM12.769 10.5315L12.7747 9.95228L13.5946 10.9842L14.4341 9.95228V10.5343L13.5888 11.7477L12.769 10.5315ZM10.7749 12.0401H11.076V11.6051H10.7749V12.0401ZM15.8759 9.3608L15.3814 8.44738L15.7586 8.23846L16.2531 9.15188L15.8759 9.3608ZM15.0754 9.53907V9.95228H15.5054V9.53907H15.0754ZM18.7143 10.8292L18.3603 11.0762L17.4622 9.75903V11.3659H17.0321V8.36219L18.7143 10.8292ZM17.8277 8.5604H18.9458V8.12544H17.8277V8.5604ZM19.1608 9.62606H18.8168V9.1911H19.1608V9.62606ZM19.4189 10.4525H21.4186V10.0175H19.4189V10.4525ZM15.6775 12.1923V10.6047H16.1075V12.6273H14.2583V11.9531H14.6884V12.1923H15.6775ZM12.3446 11.6486V12.2358H12.7747V11.6486H12.3446ZM11.7084 12.6209H12.4521L11.1548 13.5224L12.4521 14.3066H11.7084L10.3951 13.5155L11.7084 12.6209ZM9.37729 15.3241V16.716H9.80734V15.3241H9.37729ZM8.36669 16.1505H7.95814V15.7156H8.36669V16.1505ZM8.10866 17.8251V17.3902H7.33458V19.2605H9.33429V18.8255H7.76462V17.8251H8.10866ZM12.3142 16.4583L11.902 16.5822L11.4746 15.1284H11.3418L10.8943 16.5848L10.4836 16.4557L11.0251 14.6934H11.7954L12.3142 16.4583ZM10.2159 17.7164H12.1081V17.2814H10.2159V17.7164ZM10.1236 18.9688V18.2166L10.9713 19.4628L11.8331 18.2166V18.9715L10.9656 20.2326L10.1236 18.9688ZM9.76433 21.3918H10.8394V20.9569H9.76433V21.3918ZM13.2836 19.8594L13.5129 20.2274L12.5731 20.8264H14.1078V21.2613H11.084L13.2836 19.8594ZM12.3231 23.1099H14.0003V22.675H12.3231V23.1099ZM14.4127 24.8654L13.9182 23.9302L14.2974 23.725L14.792 24.6602L14.4127 24.8654ZM14.4733 22.327H16.1075V23.3057H15.785V23.7406H16.5376V21.892H14.4733V22.327ZM19.3036 22.1869L19.5341 22.5541L18.5673 23.1752H19.0318V23.6101H17.0881L19.3036 22.1869ZM15.785 24.7628V25.7197H16.215V24.7628H15.785ZM16.8171 24.7628V24.3061H17.2471V24.7628H16.8171ZM16.0481 20.1483L16.5212 21.0182L16.898 20.8086L16.4249 19.9386L16.0481 20.1483ZM14.8819 21.1743V19.6085H15.3119V21.1743H14.8819ZM14.6669 18.2601V17.5207L13.1832 15.2412V18.2601H13.6132V16.6249L14.6669 18.2601ZM15.1399 17.1509V16.107H15.57V17.1509H15.1399ZM15.0324 15.0196H16.6021V16.0418H16.3225V16.4767H17.0321V14.5846H15.0324V15.0196ZM15.4624 14.0409H13.5917V13.606H15.4624V14.0409ZM12.6456 15.0196H13.5917V14.5846H12.6456V15.0196ZM16.3225 14.0409H16V13.606H16.3225V14.0409ZM17.0321 12.3011V13.693H17.4622V12.3011H17.0321ZM18.9458 12.8883H18.5373V12.4533H18.9458V12.8883ZM21.2984 13.1675L21.7108 13.0441L21.2137 11.3442H20.3548L19.8577 13.0441L20.2701 13.1675L20.6761 11.7791H20.8924L21.2984 13.1675ZM18.6878 13.9105V14.3454H18.4083V15.3458H19.9564V15.7808H17.9782V13.9105H18.6878ZM17.0321 17.3684H17.4192V16.9335H17.0321V17.3684ZM18.1932 17.0204H17.8277V16.5855H18.1932V17.0204ZM20.5155 16.5855H19.2468V17.0204H20.5155V16.5855ZM20.4295 14.5412H20.0639V14.1062H20.4295V14.5412ZM21.5046 14.5412H23.3753V14.1062H21.5046V14.5412ZM22.4722 12.4098V11.0397H22.9022V12.4098H22.4722ZM22.4722 13.5625H22.8592V13.1275H22.4722V13.5625ZM24.0674 12.9476L23.5944 12.0559L23.9733 11.8503L24.4464 12.742L24.0674 12.9476ZM24.2139 17.5424H24.6439V15.2588H22.8377V16.02H23.2678V15.6938H24.2139V17.5424ZM23.2583 17.7079L23.4923 18.0728L22.5107 18.7168H24.0419V19.1518H21.0575L23.2583 17.7079ZM21.0315 16.803V18.1513H21.4616V16.803H21.0315ZM20.4725 19.304H20.0424V18.1079H19.0318V18.4558H18.6018V17.6729H20.4725V19.304ZM19.1537 21.6408L18.7029 19.913H17.903L17.4062 21.6354L17.8191 21.7572L18.2255 20.3479H18.3716L18.7379 21.7518L19.1537 21.6408ZM19.9755 21.0406L20.3244 20.7862L20.8193 21.4805L21.3321 20.7835L21.6771 21.0432L20.8138 22.2166L19.9755 21.0406ZM22.1282 20.6306H22.4722V20.1957H22.1282V20.6306ZM16.8601 8.19068H16.43V7.08152H15.4624V7.386H15.0324V6.64656H16.8601V8.19068ZM14.3658 9.36508V7.40775H13.9358V9.36508H14.3658ZM17.3225 17.7739L17.5588 18.1373L16.5245 18.8255H18.1932V19.2605H15.0884L17.3225 17.7739ZM12.8392 19.2605H13.2692V18.8255H12.8392V19.2605ZM11.8286 22.4792H11.463V22.0443H11.8286V22.4792Z" fill="white"/>
</g>
<defs>
<filter id="filter0_d" x="0" y="0.5" width="32" height="32" filterUnits="userSpaceOnUse" color-interpolation-filters="sRGB">
<feFlood flood-opacity="0" result="BackgroundImageFix"/>
<feColorMatrix in="SourceAlpha" type="matrix" values="0 0 0 0 0 0 0 0 0 0 0 0 0 0 0 0 0 0 127 0"/>
<feOffset dy="0.5"/>
<feGaussianBlur stdDeviation="0.5"/>
<feColorMatrix type="matrix" values="0 0 0 0 0 0 0 0 0 0 0 0 0 0 0 0 0 0 0.199474 0"/>
<feBlend mode="normal" in2="BackgroundImageFix" result="effect1_dropShadow"/>
<feBlend mode="normal" in="SourceGraphic" in2="effect1_dropShadow" result="shape"/>
</filter>
<clipPath id="clip0">
<rect width="32" height="32" fill="white"/>
</clipPath>
</defs>
</svg>
