<svg width="32" height="32" viewBox="0 0 32 32" xmlns="http://www.w3.org/2000/svg" xmlns:xlink="http://www.w3.org/1999/xlink"><defs><filter x="-5.8%" y="-4.2%" width="111.7%" height="111.7%" filterUnits="objectBoundingBox" id="a"><feOffset dy=".5" in="SourceAlpha" result="shadowOffsetOuter1"/><feGaussianBlur stdDeviation=".5" in="shadowOffsetOuter1" result="shadowBlurOuter1"/><feComposite in="shadowBlurOuter1" in2="SourceAlpha" operator="out" result="shadowBlurOuter1"/><feColorMatrix values="0 0 0 0 0 0 0 0 0 0 0 0 0 0 0 0 0 0 0.199473505 0" in="shadowBlurOuter1"/></filter><filter x="-9.2%" y="-5.7%" width="118.4%" height="115.9%" filterUnits="objectBoundingBox" id="d"><feOffset dy=".5" in="SourceAlpha" result="shadowOffsetOuter1"/><feGaussianBlur stdDeviation=".5" in="shadowOffsetOuter1" result="shadowBlurOuter1"/><feColorMatrix values="0 0 0 0 0 0 0 0 0 0 0 0 0 0 0 0 0 0 0.204257246 0" in="shadowBlurOuter1"/></filter><linearGradient x1="50%" y1="0%" x2="50%" y2="100%" id="c"><stop stop-color="#FFF" stop-opacity=".5" offset="0%"/><stop stop-opacity=".5" offset="100%"/></linearGradient><circle id="b" cx="16" cy="15" r="15"/><path d="M15.855 4.014a.77.77 0 01.627.154l8.702 6.465c.2.15.325.4.315.654v7.424a.802.802 0 01-.346.682l-8.671 6.442a.782.782 0 01-.992-.025c-2.88-2.14-5.759-4.28-8.639-6.418a.826.826 0 01-.35-.68v-7.42a.826.826 0 01.347-.68l8.641-6.42a.901.901 0 01.366-.178zm-.104 20.014c-.005.116-.007.233-.008.349l.002.697c.15.002.3.003.45 0V24.05a5.023 5.023 0 00-.444-.022zm-1.71-.918l-.252.001c.18.315.351.635.535.947.15 0 .3 0 .452-.01-.12-.332-.327-.621-.482-.936a17.125 17.125 0 00-.505 0zm2.727.48a9.27 9.27 0 00.003.458h.42c.019-.149.02-.298.017-.448a5.86 5.86 0 00-.44-.01zm-.475-2.457c-.63.004-1.261-.004-1.892.005a15.41 15.41 0 000 .43c.558.013 1.117.003 1.676.006v1.029c-.116.001-.23-.003-.344.009-.033.136-.016.277-.018.416.202.006.404.005.606.001.061-.069.124-.136.187-.204 0-.49-.001-.98.001-1.47a51.921 51.921 0 00-.216-.222zm3.344.576c-.143-.07-.295-.308-.462-.165-.497.331-1.009.64-1.5.98.002.142.003.284.013.425.46.004.919.006 1.378-.001.002-.15.002-.3.001-.45a14.925 14.925 0 00-.338-.004l-.212.002c.365-.258.747-.489 1.12-.734zm-6.542.248l-.895.003c-.003.15-.003.3 0 .452.596.003 1.193.006 1.79-.002v-.449c-.597-.007-1.194-.004-1.79-.001zm-1.503-.657l-.221.001c-.002.15-.003.301 0 .452.147.002.295.002.443 0 .002-.15.002-.3 0-.45a12.723 12.723 0 00-.443-.002zm8.593-1.614c-.006.246-.004.492-.003.738.24.37.475.743.718 1.111.202-.31.4-.626.605-.935.038-.068.099-.134.094-.218.005-.225.002-.45-.004-.675-.186.303-.385.597-.57.9-.042.058-.073.132-.14.162-.242-.356-.465-.724-.7-1.083zm-1.435-.553c-.281.001-.562-.002-.844.003a83.136 83.136 0 01-.514 1.837l.434.003.388-1.421.236.012c.126.469.26.935.383 1.405.144.003.29.003.434.003zm-8.752 1.03l-.393.008v.444c.391.007.783.017 1.174-.003.019-.147.01-.296.007-.445-.394-.002-.788-.009-1.181.004zm3.15-1.048c-.543.337-1.077.689-1.612 1.039-.002.144-.002.288.002.432.843.009 1.686.005 2.529.002.004-.152.004-.304.001-.456-.57-.008-1.138.004-1.707-.007.393-.239.773-.497 1.162-.743-.124-.091-.25-.178-.375-.267zm1.9-.334l-.224.001c-.006.562 0 1.125-.003 1.687l.135.025c.106-.01.212-.015.318-.02-.003-.564.001-1.128-.003-1.692a20.223 20.223 0 00-.447 0zm1.378.416c-.155.021-.312.03-.469.03.177.31.352.623.525.937l.44-.003c-.095-.35-.312-.656-.496-.964zm5.959.213l-.23.004c-.003.148-.003.296 0 .444.153.007.307.007.46.003v-.449a8.59 8.59 0 00-.46.002zm-10.788-1.792c-.245.362-.467.74-.714 1.099-.231-.364-.465-.727-.699-1.09a20.66 20.66 0 00-.003.747c.243.354.468.72.7 1.08.251-.359.475-.737.72-1.101-.002-.245.001-.49-.004-.735zm1.15.475c-.01.155-.009.31-.003.465.148.002.296.001.443 0a10.04 10.04 0 000-.454 4.732 4.732 0 00-.44-.011zm6.116-1.224l-.224.21c0 .2-.001.399.003.598.143 0 .287 0 .43-.002.003-.123.004-.246.003-.37l1.004.001c-.005.405-.002.809-.001 1.213.145.004.29.005.436.004V17.08l-.217-.21c-.478-.001-.956.002-1.434-.002zm-11.197-.287h-.282l-.212.211-.002.981.006.49c.037.089.12.166.202.214.49.014.981 0 1.472.006h.205l.206-.001c.001-.142.001-.284-.002-.426-.552-.006-1.105-.001-1.658-.003-.004-.344 0-.687-.003-1.031l.35-.005a19.27 19.27 0 00-.001-.433 21.315 21.315 0 00-.563-.002zm9.654.38c-.532.36-1.08.693-1.613 1.053.002.146.002.291.023.435.84 0 1.681.004 2.521-.001a9.131 9.131 0 000-.472c-.56-.007-1.122.004-1.684-.006.375-.253.766-.482 1.134-.745-.129-.086-.254-.176-.38-.265zm5.989-.07c-.535.343-1.07.685-1.6 1.036-.002.146-.002.293 0 .44.84.003 1.679.003 2.518 0 .002-.152.002-.306 0-.458-.565-.004-1.13.003-1.694-.003l1.153-.747c-.124-.09-.25-.182-.377-.268zm-9.95-1.983l-.222.001c-.003.855-.003 1.709 0 2.563.15.004.3.004.449.003.018-.57-.027-1.142.028-1.708.304.521.637 1.026.955 1.54l.153-.003c-.024-.233.067-.501-.086-.701-.353-.564-.71-1.125-1.057-1.693a11.843 11.843 0 00-.442 0zm8.183.924c-.146-.023-.295-.013-.443-.01a85.573 85.573 0 000 1.586c.149.003.298.004.447 0 .002-.525.01-1.051-.004-1.576zm-9.91.595c-.515.016-1.034-.029-1.548.028-.001.149-.001.297.002.446.649.005 1.296 0 1.946.002v-.458a3.414 3.414 0 00-.4-.018zm12.928-2.022a41.8 41.8 0 00-1.46-.002l-.197.204c0 .194 0 .39.002.584.143.001.286 0 .429-.002l.003-.355c.34.003.68-.004 1.02.005l-.001 1.908.415.001c-.007-.138.03-.274.022-.412.005-.17-.003-.339.002-.508-.003-.352 0-.705 0-1.057.026-.164-.112-.29-.235-.366zm-7.322 1.726l-.217.001v.455c.145.002.289.002.433 0 .002-.152.002-.304 0-.454a28.388 28.388 0 00-.433-.001zm-1.91-.896l-.225.003c-.004.372-.003.745-.001 1.117.15.004.3.004.451.002.001-.374.002-.747 0-1.12-.15-.003-.3-.003-.45 0zm4.612.518l-.686.004c-.005.15-.005.3-.002.45.387.045.778.01 1.167.022.078-.008.181.027.225-.062a1.794 1.794 0 00-.017-.412c-.458 0-.915-.004-1.373.002zm-1.896-.017l-.221.001c-.002.152-.002.304 0 .455.147.001.294.002.442.001a12.64 12.64 0 000-.456 23.627 23.627 0 00-.442 0zm-8.35-1.315h-.452l-.001 1.448h.454v-1.448zm1.635-.575l-.419.002c-.176.613-.347 1.228-.52 1.842l.434.002c.115-.473.266-.936.372-1.41l.24-.018c.147.472.258.954.402 1.428l.42-.001c-.16-.617-.34-1.228-.51-1.842-.28-.004-.558-.002-.838 0zm5.396-.136l-.069.002h-1.715a22.12 22.12 0 000 .438c.557.015 1.117-.027 1.672.024v1.009l-.356.004v.44c.19.002.379.002.568.002l.22-.24v-1.282c.027-.209-.18-.428-.389-.395zm-8.902 1.115c-.005.147-.005.294-.004.441.15.003.3.002.449 0v-.43a5.402 5.402 0 00-.445-.011zm10.64-1.845h-.285c-.081.107-.238.187-.218.343-.002.413-.002.826 0 1.24-.019.154.135.235.215.341.629-.002 1.258.002 1.886-.002.004-.146.004-.293.003-.44-.559-.006-1.117 0-1.675-.004v-1.035l.36-.003a9.783 9.783 0 00-.002-.437c-.19-.004-.38-.002-.57-.003zm-4.833.732h-1.093c-.006.154-.005.308.001.462h1.092a11.86 11.86 0 000-.462zm8.893-.531l-.976.004c-.002.15-.001.302 0 .452.65.009 1.3.003 1.95.003.002-.152.002-.305.001-.458-.65 0-1.3-.006-1.95.003zm-2.215 0l-.231.004c-.002.15-.002.3 0 .45.154.006.308.006.462 0 .002-.15.003-.3 0-.45a6.196 6.196 0 00-.462 0zm-12.016-.94l-1.12.003c-.003.152-.003.305 0 .457.468.005.937 0 1.406.002-.18.127-.367.242-.552.36.124.09.234.213.379.267.343-.207.677-.43 1.01-.653l-.001-.432c-.748-.007-1.496-.005-2.243-.001zm3.098-.369c-.359.246-.732.471-1.082.73.347.252.712.476 1.064.719.244 0 .488.002.732-.003-.362-.235-.72-.479-1.084-.712.354-.253.73-.474 1.082-.73-.238-.004-.474 0-.712-.004zm3.144.813h-.97c0 .15 0 .301.002.453.644 0 1.287.001 1.932-.001.02-.15.022-.3.006-.45-.646-.006-1.293 0-1.94-.003zm1.625 0l-.233.002v.446c.155.002.31.002.466-.002v-.442a8.23 8.23 0 00-.466-.002zm1.079-1.339h-.217v1.45h.434c0-.483.003-.966 0-1.449a24.331 24.331 0 00-.434 0zm5.509.833l-.225.003c-.003.151-.002.303 0 .454.15.004.3.004.448 0a8.52 8.52 0 00.001-.455c-.15-.003-.3-.002-.449 0zm-1.504-1.777c-.28-.046-.563-.002-.844 0-.171.612-.339 1.224-.517 1.832.145.001.29.002.435.001.122-.474.264-.942.381-1.417l.238-.003c.142.471.26.949.397 1.42h.432zm-2.48 1.077l-.219.001a18.66 18.66 0 000 .454h.437c.002-.15.002-.301.001-.452a10.58 10.58 0 00-.438-.002zm5.32-.512c-.167 0-.334 0-.5.003l.532.94c.151 0 .304 0 .455-.006-.123-.332-.323-.626-.488-.937zm-8.22-1.375l-.215.003c-.007.564-.002 1.13-.003 1.694-.341-.008-.682.02-1.021-.019a7.101 7.101 0 00-.002-.34h-.412c0 .198-.018.398.007.595.058.068.125.128.19.192.492-.003.984.002 1.477-.003.065-.066.131-.131.198-.195-.005-.642.003-1.284-.004-1.925a14.004 14.004 0 00-.43 0zm-3.395 1.061h-.217c-.01.354-.005.707-.004 1.06h.44c0-.353.002-.706-.002-1.058-.145-.002-.29-.002-.434-.001zm10.277-.619l-.223.003a79.94 79.94 0 000 1.453c.149.002.298.003.447 0 .005-.484.005-.969 0-1.453a9.335 9.335 0 00-.447 0zm-13.402.597l-.973.004c-.002.15-.002.303 0 .455.649.004 1.297.005 1.946 0a9.76 9.76 0 000-.455 127.41 127.41 0 00-1.946 0zm1.72.004h-.442v.456c.148.001.295.002.443 0a10.7 10.7 0 000-.456zm3.21-1.682c-.241.365-.473.738-.712 1.105-.24-.362-.47-.732-.707-1.097-.001.246-.019.494.006.74.074.123.15.246.228.368l.471.727c.236-.371.49-.733.71-1.115.02-.242.004-.486.004-.728zm2.929-1.096l-.216.002c-.005.854-.003 1.708-.001 2.562.15.003.3.003.45 0l.003-1.716c.33.508.638 1.032.972 1.538l.168.03c.004-.187.003-.374.003-.56-.393-.615-.773-1.238-1.163-1.855a11.263 11.263 0 00-.432.001zm-5.302.48l-.322.013a14.56 14.56 0 00-.362 0c-.002.15-.001.301.002.452.161.002.323 0 .485.009-.32.19-.629.397-.945.592.116.097.225.213.367.268.483-.278.94-.6 1.417-.891.002-.142.002-.285.001-.427a7.62 7.62 0 00-.965-.003zm8.578.683l-1.067.002v.441c.712.002 1.422.001 2.133 0v-.44a217.69 217.69 0 00-2.133 0zm-5.231-.504l-.222.003c-.003.151-.003.302 0 .453.148.004.296.004.444 0 .003-.152.003-.302 0-.453a7.954 7.954 0 00-.444 0zm3.752-.313l-.23.003.001.442c.153.003.306.003.459-.001v-.44a9.118 9.118 0 00-.46-.001zm-4.91-1.839l-.23.005c.01.662-.03 1.327.02 1.988.147 0 .294 0 .441-.003.007-.662.004-1.324.002-1.987a7.242 7.242 0 00-.464.002zm1.702.94c-.166 0-.332 0-.498.003.172.316.346.63.527.94.152 0 .305 0 .457-.007-.128-.33-.328-.622-.486-.936zm2.612-.226l-.617.003c-.002.152-.002.305 0 .457.411.007.822.005 1.233 0a18.52 18.52 0 000-.458 61.4 61.4 0 00-1.233.001zM15.97 5.577l-.686.001c-.134-.018-.212.12-.288.207-.027.19-.007.385-.008.577h.426l.003-.36h1.006c.03.357-.001.715-.001 1.073l.033.134c.135.01.272.003.408.001-.002-.479-.002-.958 0-1.437l-.134-.133-.074-.057c-.456-.012-.914-.002-1.37-.005z" id="e"/></defs><g fill="none" fill-rule="evenodd"><use fill="#000" filter="url(#a)" xlink:href="#b"/><use fill="#050708" xlink:href="#b"/><use fill="url(#c)" style="mix-blend-mode:soft-light" xlink:href="#b"/><circle stroke-opacity=".097" stroke="#000" stroke-linejoin="square" cx="16" cy="15" r="14.5"/><g fill-rule="nonzero"><use fill="#000" filter="url(#d)" xlink:href="#e"/><use fill="#FFF" xlink:href="#e"/></g></g></svg>