<svg width="32" height="32" viewBox="0 0 32 32" version="1.1" xmlns="http://www.w3.org/2000/svg" xmlns:xlink="http://www.w3.org/1999/xlink"><title>icon/npxs</title><desc>Created with Sketch.</desc><defs><linearGradient x1="50%" y1="0%" x2="50%" y2="100%" id="linearGradient-1"><stop stop-color="#FFF" stop-opacity=".5" offset="0%"/><stop stop-color="#000" stop-opacity=".5" offset="100%"/></linearGradient><circle id="path-2" cx="15" cy="15" r="15"/><filter x="-5.8%" y="-4.2%" width="111.7%" height="111.7%" filterUnits="objectBoundingBox" id="filter-3"><feOffset dx="0" dy=".5" in="SourceAlpha" result="shadowOffsetOuter1"/><feGaussianBlur stdDeviation=".5" in="shadowOffsetOuter1" result="shadowBlurOuter1"/><feComposite in="shadowBlurOuter1" in2="SourceAlpha" operator="out" result="shadowBlurOuter1"/><feColorMatrix values="0 0 0 0 0 0 0 0 0 0 0 0 0 0 0 0 0 0 0.199473505 0" type="matrix" in="shadowBlurOuter1"/></filter></defs><g id="icon/npxs" stroke="none" stroke-width="1" fill="none" fill-rule="evenodd"><g id="Group" transform="translate(1.000000, 0.000000)" fill-rule="nonzero"><g id="Oval"><use fill="#000" fill-opacity="1" filter="url(#filter-3)" xlink:href="#path-2"/><use fill="#F5D100" fill-rule="evenodd" xlink:href="#path-2"/><use fill="url(#linearGradient-1)" fill-rule="evenodd" style="mix-blend-mode:soft-light" xlink:href="#path-2"/><circle stroke-opacity=".097" stroke="#000" stroke-width="1" stroke-linejoin="square" cx="15" cy="15" r="14.5"/></g></g><g id="Pundi-X-(NPXS)" transform="translate(5.000000, 4.000000)" fill="#FFF" fill-rule="nonzero"><path d="M10.9746154,0 C4.92461538,0 0,4.92461538 0,10.9746154 C0,17.0246154 4.92461538,21.9576923 10.9830769,21.9576923 C17.0415385,21.9576923 21.9661538,17.0330769 21.9661538,10.9746154 C21.9661538,4.91615385 17.0330769,0 10.9746154,0 Z M10.9746154,21.1115385 C5.39,21.1115385 0.837692308,16.5676923 0.837692308,10.9746154 C0.846153846,5.39 5.39,0.846153846 10.9746154,0.846153846 C16.5592308,0.846153846 21.1115385,5.39 21.1115385,10.9830769 C21.1115385,16.5676923 16.5676923,21.1115385 10.9746154,21.1115385 Z" id="Shape"/><rect id="Rectangle-path" transform="translate(7.844573, 7.846016) rotate(-45.000000) translate(-7.844573, -7.846016)" x="7.273" y="4.808" width="1.142" height="6.075"/><rect id="Rectangle-path" transform="translate(14.094458, 14.098163) rotate(-45.000000) translate(-14.094458, -14.098163)" x="13.523" y="11.06" width="1.142" height="6.075"/><rect id="Rectangle-path" transform="translate(10.982383, 10.980129) rotate(-45.000000) translate(-10.982383, -10.980129)" x="10.411" y="10.405" width="1.142" height="1.151"/><rect id="Rectangle-path" transform="translate(14.106352, 7.881390) rotate(-45.000000) translate(-14.106352, -7.881390)" x="11.069" y="7.31" width="6.075" height="1.142"/><rect id="Rectangle-path" transform="translate(7.875384, 14.104133) rotate(-45.000000) translate(-7.875384, -14.104133)" x="4.838" y="13.533" width="6.075" height="1.142"/></g></g></svg>