<svg height="32" viewBox="0 0 32 32" width="32" xmlns="http://www.w3.org/2000/svg" xmlns:xlink="http://www.w3.org/1999/xlink"><defs><linearGradient id="a" x1="50%" x2="50%" y1="0%" y2="100%"><stop offset="0" stop-color="#fff" stop-opacity=".5"/><stop offset="1" stop-opacity=".5"/></linearGradient><circle id="b" cx="15" cy="15" r="15"/><filter id="c" height="111.7%" width="111.7%" x="-5.8%" y="-4.2%"><feOffset dy=".5" in="SourceAlpha" result="shadowOffsetOuter1"/><feGaussianBlur in="shadowOffsetOuter1" result="shadowBlurOuter1" stdDeviation=".5"/><feComposite in="shadowBlurOuter1" in2="SourceAlpha" operator="out" result="shadowBlurOuter1"/><feColorMatrix in="shadowBlurOuter1" values="0 0 0 0 0   0 0 0 0 0   0 0 0 0 0  0 0 0 0.199473505 0"/></filter><path id="d" d="m1.8792425 22.2751537c.56796518-1.6539281 1.66089644-3.4444347 3.18304479-5.2127541-.23533776-.3133555-.37478729-.7028424-.37478729-1.1248996 0-1.0355339.83946609-1.875 1.875-1.875.41680005 0 .80183624.1359972 1.11315489.366038 1.15350335-1.0194163 2.44309381-2.0023561 3.84833261-2.9149288 6.5004702-4.22145474 13.369967-5.56967604 16.7208246-3.56087798.9424386 1.76755319 1.5414025 3.74596708 1.7077982 5.84614788-1.0820397 3.5424627-4.6557962 7.7738418-9.7484382 11.0810422-3.5132954 2.2815607-7.1343855 3.7238341-10.24951028 4.2504429-3.45091101-1.2322841-6.31821261-3.6928494-8.07541932-6.8552105zm3.51539171-4.8706899c-2.19685935 2.5392281-3.07738697 5.1508434-2.012153 6.7911598 1.60920931 2.4779651 7.04947029 1.8009722 12.15116299-1.5121057 5.1016928-3.313078 7.93291-8.007646 6.3237006-10.485611-1.6092093-2.47796504-7.0494703-1.8009722-12.15116298 1.5121058-.56567733.3673551-1.10344042.7516949-1.61033118 1.1481144.21523316.3051987.34164936.6775228.34164936 1.0793729 0 1.0355339-.83946609 1.875-1.875 1.875-.44156854 0-.84748591-.1526408-1.16786579-.4080362z"/><filter id="e" height="115.8%" width="112.5%" x="-6.2%" y="-5.7%"><feOffset dy=".5" in="SourceAlpha" result="shadowOffsetOuter1"/><feGaussianBlur in="shadowOffsetOuter1" result="shadowBlurOuter1" stdDeviation=".5"/><feColorMatrix in="shadowBlurOuter1" values="0 0 0 0 0   0 0 0 0 0   0 0 0 0 0  0 0 0 0.204257246 0"/></filter></defs><g fill="none" fill-rule="evenodd" transform="translate(1)"><use fill="#000" filter="url(#c)" xlink:href="#b"/><use fill="#4099cd" xlink:href="#b"/><use fill="url(#a)" xlink:href="#b"/><circle cx="15" cy="15" r="14.5" stroke="#000" stroke-opacity=".097"/><use fill="#000" filter="url(#e)" xlink:href="#d"/><use fill="#fff" xlink:href="#d"/></g></svg>