<svg height="32" viewBox="0 0 32 32" width="32" xmlns="http://www.w3.org/2000/svg" xmlns:xlink="http://www.w3.org/1999/xlink"><defs><linearGradient id="a" x1="50%" x2="50%" y1="0%" y2="100%"><stop offset="0" stop-color="#fff" stop-opacity=".5"/><stop offset="1" stop-opacity=".5"/></linearGradient><circle id="b" cx="16" cy="15" r="15"/><filter id="c" height="111.7%" width="111.7%" x="-5.8%" y="-4.2%"><feOffset dy=".5" in="SourceAlpha" result="shadowOffsetOuter1"/><feGaussianBlur in="shadowOffsetOuter1" result="shadowBlurOuter1" stdDeviation=".5"/><feComposite in="shadowBlurOuter1" in2="SourceAlpha" operator="out" result="shadowBlurOuter1"/><feColorMatrix in="shadowBlurOuter1" values="0 0 0 0 0   0 0 0 0 0   0 0 0 0 0  0 0 0 0.199473505 0"/></filter><path id="d" d="m26.082202 15.8333455c-.5067913 0-.9179854-.3730352-.9179854-.8335249v-.8333729h-4.6123759c-.5067913 0-.917584-.3730413-.917584-.8330809 0-.4603012.4107927-.8333668.917584-.8333668h5.5303613c.5069786 0 .917798.3730656.917798.8333668v1.6664538c0 .4604897-.4108194.8335249-.917798.8335249zm-4.5491375 0h.8540109.9814046c.5065704 0 .9174032.3730717.9174032.8331113 0 .4604593-.4108328.8335432-.9174032.8335432h-.9814046-.8540109-.9812238c-.1526798 0-.2963063-.0338553-.4228034-.0936831 0 0-5.3518402-3.2398692-5.3518402-3.2398692h-1.5425082c-.5068314 0-.9176509-.3730413-.9176509-.8330809 0-.4603012.4108195-.8333668.9176509-.8333668h1.8353485c.197678 0 .3811573.0568047.5310334.1535169 0 0 5.2319942 3.1798286 5.2319942 3.1798286zm-6.4629468 0c.5065972 0 .9175103.3730717.9175103.8331113 0 .4604593-.4109131.8335432-.9175103.8335432h-1.8355693c-.1522515 0-.2963063-.0338553-.4226897-.0936831 0 0-5.35191373-3.2398692-5.35191373-3.2398692h-1.54222054c-.50689832 0-.91772443-.3730413-.91772443-.8330809 0-.4603012.41082611-.8333668.91772443-.8333668h1.83528159c.19767803 0 .38118411.0568047.53125428.1535169 0 0 5.2317599 3.1798286 5.2317599 3.1798286zm-9.15239327-.0000791h1.83528159c.50689832 0 .91769098.3730656.91769098.8333668 0 .46021-.41079266.8332877-.91769098.8332877h-1.83528159c-.50689832 0-.91772443-.3730777-.91772443-.8332877 0-.4603012.41082611-.8333668.91772443-.8333668z"/><filter id="e" height="170%" width="115.9%" x="-8%" y="-25%"><feOffset dy=".5" in="SourceAlpha" result="shadowOffsetOuter1"/><feGaussianBlur in="shadowOffsetOuter1" result="shadowBlurOuter1" stdDeviation=".5"/><feColorMatrix in="shadowBlurOuter1" values="0 0 0 0 0   0 0 0 0 0   0 0 0 0 0  0 0 0 0.204257246 0"/></filter></defs><g fill="none" fill-rule="evenodd"><use fill="#000" filter="url(#c)" xlink:href="#b"/><use fill="#008fbb" xlink:href="#b"/><use fill="url(#a)" xlink:href="#b"/><circle cx="16" cy="15" r="14.5" stroke="#000" stroke-opacity=".097"/><use fill="#000" filter="url(#e)" xlink:href="#d"/><use fill="#fff" xlink:href="#d"/></g></svg>