<svg width="33" height="33" viewBox="0 0 33 33" fill="none" xmlns="http://www.w3.org/2000/svg">
<g clip-path="url(#clip0)">
<path d="M16.7778 0.928284C25.6144 0.928284 32.7778 8.09171 32.7778 16.9283C32.7778 25.7649 25.6144 32.9283 16.7778 32.9283C7.94126 32.9283 0.777832 25.7649 0.777832 16.9283C0.777832 8.09171 7.94126 0.928284 16.7778 0.928284Z" fill="#1A82FF"/>
<path d="M22.6274 23.5166C21.2423 25.2135 19.2942 26.062 16.7833 26.062C14.2724 26.062 12.324 25.2135 10.9383 23.5166C9.55224 21.8188 8.85951 19.6242 8.86012 16.9329C8.86073 14.2415 9.55315 12.0472 10.9374 10.35C12.3225 8.65217 14.2709 7.80341 16.7824 7.80371C19.2939 7.80402 21.242 8.65278 22.6265 10.35C24.0116 12.0469 24.7043 14.2412 24.7047 16.9329C24.705 19.6245 24.0125 21.8191 22.6274 23.5166Z" fill="white"/>
<path d="M16.7541 22.5137C17.4151 22.5137 17.9771 22.3336 18.44 21.9733C18.9029 21.6131 19.2382 21.1246 19.4457 20.5077C19.653 19.8906 19.7992 19.2991 19.8846 18.7331C19.9699 18.1672 20.0123 17.5671 20.0117 16.9329C20.0117 16.1521 19.9644 15.4533 19.8699 14.8364L14.1749 20.7711C14.7015 21.9322 15.5612 22.5131 16.7541 22.5137Z" fill="#1A82FF"/>
<path d="M16.8108 11.3521C16.1497 11.3521 15.5877 11.5322 15.1248 11.8924C14.6619 12.2526 14.3266 12.7411 14.1191 13.358C13.9106 13.9751 13.7644 14.5666 13.6802 15.1326C13.5949 15.6985 13.5525 16.2986 13.5532 16.9328C13.5532 17.3506 13.5666 17.745 13.5934 18.1159L19.0252 12.4565C18.4976 11.7205 17.7595 11.3524 16.8108 11.3521Z" fill="#1A82FF"/>
<path d="M9.30264 22.5904L8.60321 21.9193L13.907 16.3907L14.6064 17.0617L9.30264 22.5904ZM19.2958 16.8213L18.5964 16.1502L23.9001 10.6215L24.5996 11.2926L19.2958 16.8213Z" fill="#1A82FF"/>
</g>
<defs>
<clipPath id="clip0">
<rect width="32" height="32" fill="white" transform="translate(0.777832 0.928284)"/>
</clipPath>
</defs>
</svg>
