<svg width="33" height="33" viewBox="0 0 33 33" fill="none" xmlns="http://www.w3.org/2000/svg">
<g clip-path="url(#clip0)">
<path d="M16.6667 32.1152C25.5032 32.1152 32.6667 24.9517 32.6667 16.1152C32.6667 7.27862 25.5032 0.115173 16.6667 0.115173C7.83013 0.115173 0.666687 7.27862 0.666687 16.1152C0.666687 24.9517 7.83013 32.1152 16.6667 32.1152Z" fill="#EFF2F5"/>
<path d="M16.6667 15.1246C19.2927 15.1246 21.4214 12.9958 21.4214 10.3699C21.4214 7.74393 19.2927 5.61517 16.6667 5.61517C14.0407 5.61517 11.912 7.74393 11.912 10.3699C11.912 12.9958 14.0407 15.1246 16.6667 15.1246Z" fill="#88BDF3"/>
<path d="M16.6667 26.6151C19.2927 26.6151 21.4214 24.4864 21.4214 21.8604C21.4214 19.2345 19.2927 17.1057 16.6667 17.1057C14.0407 17.1057 11.912 19.2345 11.912 21.8604C11.912 24.4864 14.0407 26.6151 16.6667 26.6151Z" fill="#3075EE"/>
<path d="M22.412 20.8699C25.038 20.8699 27.1667 18.7411 27.1667 16.1152C27.1667 13.4892 25.038 11.3605 22.412 11.3605C19.786 11.3605 17.6573 13.4892 17.6573 16.1152C17.6573 18.7411 19.786 20.8699 22.412 20.8699Z" fill="#5795F1"/>
<path d="M10.9214 20.8699C13.5474 20.8699 15.6761 18.7411 15.6761 16.1152C15.6761 13.4892 13.5474 11.3605 10.9214 11.3605C8.29545 11.3605 6.16669 13.4892 6.16669 16.1152C6.16669 18.7411 8.29545 20.8699 10.9214 20.8699Z" fill="#205FEC"/>
<path d="M15.5474 14.9958C14.6999 14.7898 13.9254 14.3546 13.3087 13.7378C12.6919 13.1211 12.2567 12.3466 12.0507 11.4991C12.8966 11.7084 13.6694 12.1446 14.2857 12.7608C14.9019 13.3771 15.3382 14.1499 15.5474 14.9958Z" fill="#134BEF"/>
<path d="M12.0407 20.7411C12.2468 19.8936 12.682 19.1191 13.2987 18.5024C13.9154 17.8857 14.6899 17.4505 15.5374 17.2444C15.3282 18.0904 14.8919 18.8632 14.2757 19.4794C13.6595 20.0956 12.8867 20.5319 12.0407 20.7411Z" fill="#0932E8"/>
<path d="M17.7861 17.2344C18.6336 17.4405 19.408 17.8757 20.0248 18.4924C20.6415 19.1092 21.0767 19.8836 21.2828 20.7311C20.4368 20.5219 19.664 20.0857 19.0478 19.4695C18.4315 18.8532 17.9953 18.0804 17.7861 17.2344Z" fill="#164BEA"/>
<path d="M21.2927 11.4892C21.0866 12.3367 20.6514 13.1112 20.0347 13.7279C19.4179 14.3446 18.6434 14.7798 17.796 14.9859C18.0052 14.1399 18.4414 13.3671 19.0576 12.7509C19.6739 12.1347 20.4467 11.6984 21.2927 11.4892Z" fill="#3170F1"/>
</g>
<defs>
<clipPath id="clip0">
<rect width="32" height="32" fill="white" transform="translate(0.666687 0.115173)"/>
</clipPath>
</defs>
</svg>
