<?xml version="1.0" encoding="UTF-8"?>
<svg width="32px" height="32px" viewBox="0 0 32 32" version="1.1" xmlns="http://www.w3.org/2000/svg" xmlns:xlink="http://www.w3.org/1999/xlink">
    <!-- Generator: Sketch 52.1 (67048) - http://www.bohemiancoding.com/sketch -->
    <title>svg/icon/ong</title>
    <desc>Created with Sketch.</desc>
    <defs>
        <linearGradient x1="50%" y1="0%" x2="50%" y2="100%" id="linearGradient-1">
            <stop stop-color="#FFFFFF" stop-opacity="0.5" offset="0%"></stop>
            <stop stop-color="#000000" stop-opacity="0.5" offset="100%"></stop>
        </linearGradient>
        <circle id="path-2" cx="15" cy="15" r="15"></circle>
        <filter x="-5.8%" y="-4.2%" width="111.7%" height="111.7%" filterUnits="objectBoundingBox" id="filter-3">
            <feOffset dx="0" dy="0.5" in="SourceAlpha" result="shadowOffsetOuter1"></feOffset>
            <feGaussianBlur stdDeviation="0.5" in="shadowOffsetOuter1" result="shadowBlurOuter1"></feGaussianBlur>
            <feComposite in="shadowBlurOuter1" in2="SourceAlpha" operator="out" result="shadowBlurOuter1"></feComposite>
            <feColorMatrix values="0 0 0 0 0   0 0 0 0 0   0 0 0 0 0  0 0 0 0.199473505 0" type="matrix" in="shadowBlurOuter1"></feColorMatrix>
        </filter>
    </defs>
    <g id="icon/ong" stroke="none" stroke-width="1" fill="none" fill-rule="evenodd">
        <g id="Group" transform="translate(1.000000, 0.000000)" fill-rule="nonzero">
            <g id="Oval">
                <use fill="black" fill-opacity="1" filter="url(#filter-3)" xlink:href="#path-2"></use>
                <use fill="#000000" xlink:href="#path-2"></use>
                <use fill="url(#linearGradient-1)" style="mix-blend-mode: soft-light;" xlink:href="#path-2"></use>
                <circle stroke-opacity="0.0970052083" stroke="#000000" stroke-width="1" stroke-linejoin="square" cx="15" cy="15" r="14.5"></circle>
            </g>
        </g>
        <g id="SoMee.Social-(ONG)" transform="translate(6.000000, 5.000000)" fill="#FFFFFF">
            <path d="M9.9480226,19.3740113 C15.1661017,19.3740113 19.1186441,15.8768362 19.9389831,11.3028249 L15.4870056,11.3028249 C14.8214689,13.7322034 12.7559322,15.5096045 10.0011299,15.5096045 C7.26553672,15.5096045 5.1740113,13.719774 4.48022599,11.3028249 L0,11.3028249 C0.789830508,15.8937853 4.70960452,19.3740113 9.9480226,19.3740113 Z" id="Path"></path>
            <circle id="Oval" cx="9.9740113" cy="2.29717514" r="2.29717514"></circle>
            <path d="M4.23163842,11.3028249 L4.23163842,11.2564972 C4.23163842,7.99096045 6.57175141,5.32429379 9.94576271,5.32429379 C13.319774,5.32429379 15.7084746,8.03615819 15.7141243,11.3028249 L4.23163842,11.3028249 Z" id="Path"></path>
        </g>
    </g>
</svg>