<svg width="33" height="33" viewBox="0 0 33 33" fill="none" xmlns="http://www.w3.org/2000/svg">
<g clip-path="url(#clip0)">
<path d="M16.3338 32.9462C25.1704 32.9462 32.3338 25.7828 32.3338 16.9462C32.3338 8.10967 25.1704 0.946228 16.3338 0.946228C7.49724 0.946228 0.333801 8.10967 0.333801 16.9462C0.333801 25.7828 7.49724 32.9462 16.3338 32.9462Z" fill="#EFF2F5"/>
<path d="M12.2957 19.4601C12.2923 19.5015 12.2758 19.541 12.2484 19.5732C12.2209 19.6055 12.1837 19.6289 12.1419 19.6405C12.1001 19.6521 12.0555 19.6513 12.0142 19.6382C11.9728 19.625 11.9367 19.6001 11.9106 19.5669L8.82981 16.8321C8.79138 16.8084 8.76117 16.7745 8.74301 16.7344C8.72486 16.6944 8.71957 16.6502 8.72782 16.6073C8.73607 16.5644 8.75748 16.5248 8.78934 16.4936C8.82121 16.4623 8.8621 16.4408 8.90682 16.4316L13.2199 14.7926C13.4202 14.7165 13.5406 14.8166 13.4874 15.0168L12.2957 19.4601Z" fill="#404A72"/>
<path d="M9.74706 22.0588C9.58322 22.1923 9.41797 22.1376 9.38017 21.9347L8.53995 17.4901C8.50074 17.2872 8.59877 17.2365 8.75701 17.3766L11.6837 19.9793C11.721 20.011 11.7507 20.0499 11.7707 20.0934C11.7907 20.137 11.8005 20.1842 11.7996 20.2317C11.7987 20.2793 11.787 20.3261 11.7653 20.3689C11.7436 20.4117 11.7124 20.4496 11.6739 20.4799L9.74706 22.0588Z" fill="#556195"/>
<path d="M13.2759 13.9076C13.3096 13.9381 13.3341 13.9765 13.3472 14.019C13.3602 14.0614 13.3612 14.1064 13.3501 14.1494C13.339 14.1923 13.3162 14.2317 13.284 14.2636C13.2518 14.2954 13.2113 14.3186 13.1667 14.3307L8.88023 15.9657C8.67858 16.0418 8.57635 15.947 8.65197 15.7535L10.4136 11.2408C10.421 11.1998 10.4415 11.162 10.4722 11.1324C10.5029 11.1029 10.5424 11.083 10.5854 11.0756C10.6283 11.0682 10.6726 11.0735 10.7123 11.0909C10.752 11.1083 10.7851 11.1368 10.8071 11.1728L13.2759 13.9076Z" fill="#556195"/>
<path d="M8.78362 21.3034C8.82283 21.5063 8.75701 21.5303 8.64359 21.3581L6.97436 18.9089C6.91704 18.8147 6.88874 18.707 6.8927 18.5982C6.89666 18.4894 6.93273 18.3838 6.99677 18.2936L7.73896 17.3446C7.86919 17.1791 8.00642 17.2112 8.04423 17.4127L8.78362 21.3034Z" fill="#556195"/>
<path d="M8.25988 15.4759C8.18426 15.6695 8.06663 15.6681 7.99802 15.4759L7.43087 13.8462C7.40024 13.74 7.39951 13.6279 7.42877 13.5213C7.45802 13.4147 7.51622 13.3173 7.59751 13.2389L9.62383 11.4891C9.78347 11.3557 9.85348 11.3957 9.77786 11.5892L8.25988 15.4759Z" fill="#556195"/>
<path d="M7.72494 16.1033C7.75631 16.2133 7.76267 16.3284 7.74359 16.441C7.72451 16.5536 7.68044 16.6609 7.61431 16.756L7.03317 17.5021C6.90293 17.6676 6.81611 17.6355 6.83712 17.43L7.11439 14.85C7.13539 14.6444 7.21101 14.6364 7.27823 14.8326L7.72494 16.1033Z" fill="#556195"/>
<path d="M10.0117 10.2933C10.0846 10.372 10.0117 10.5509 9.8507 10.6937L8.93487 11.4772C8.77383 11.6106 8.74862 11.5933 8.87745 11.4278L9.63504 10.4494C9.77508 10.2839 9.94032 10.2159 10.0117 10.2933Z" fill="#556195"/>
<path d="M15.763 24.0248C15.7461 24.0639 15.7177 24.0974 15.6814 24.1216C15.645 24.1457 15.6021 24.1593 15.5579 24.1609C15.5136 24.1624 15.4698 24.1518 15.4317 24.1303C15.3936 24.1088 15.3627 24.0773 15.3429 24.0395L12.9623 20.7348C12.9317 20.7052 12.9113 20.6674 12.9038 20.6265C12.8963 20.5856 12.9021 20.5435 12.9203 20.5058C12.9386 20.4681 12.9685 20.4366 13.006 20.4155C13.0435 20.3944 13.0869 20.3847 13.1303 20.3877L17.9181 19.9166C18.1324 19.8952 18.2192 20.0233 18.11 20.2022L15.763 24.0248Z" fill="#556195"/>
<path d="M14.7645 24.0275C14.8878 24.1983 14.8205 24.2824 14.6147 24.217L10.1336 22.7622C9.9291 22.6954 9.89549 22.5313 10.0593 22.3964L11.9764 20.8188C12.0135 20.787 12.0573 20.7631 12.1049 20.7489C12.1526 20.7348 12.2029 20.7306 12.2523 20.7367C12.3018 20.7427 12.3493 20.759 12.3916 20.7842C12.4339 20.8094 12.47 20.8431 12.4973 20.8829L14.7645 24.0275Z" fill="#556195"/>
<path d="M18.0147 19.1491C18.1548 19.3053 18.0945 19.4494 17.8747 19.4708L13.0155 19.9486C12.9706 19.9576 12.924 19.9549 12.8806 19.9409C12.8372 19.9268 12.7985 19.902 12.7686 19.8688C12.7387 19.8357 12.7187 19.7955 12.7107 19.7525C12.7026 19.7095 12.7068 19.6652 12.7228 19.6243L13.9383 15.1156C13.9929 14.9167 14.1525 14.8807 14.2926 15.0369L18.0147 19.1491Z" fill="#6ECCE0"/>
<path d="M21.5058 23.0118C21.5402 23.0378 21.5652 23.0733 21.5776 23.1134C21.59 23.1535 21.5891 23.1963 21.575 23.2359C21.5609 23.2755 21.5343 23.31 21.4989 23.3346C21.4634 23.3592 21.4208 23.3728 21.377 23.3735L16.4337 24.3639C16.2223 24.4066 16.1383 24.2958 16.2475 24.117L18.5791 20.317C18.5986 20.2771 18.6288 20.2427 18.6666 20.2174C18.7044 20.192 18.7486 20.1766 18.7946 20.1725C18.8406 20.1685 18.887 20.176 18.929 20.1943C18.971 20.2126 19.0073 20.2411 19.0342 20.277L21.5058 23.0118Z" fill="#556195"/>
<path d="M13.556 25.5477C13.4529 25.5944 13.3381 25.6125 13.2247 25.6C13.1113 25.5875 13.0039 25.5449 12.9146 25.477L10.6153 23.5456C10.4542 23.4122 10.4892 23.3521 10.6937 23.4122L14.6147 24.6842C14.8205 24.7509 14.8317 24.8857 14.6413 24.9831L13.556 25.5477Z" fill="#556195"/>
<path d="M18.8858 25.7319C18.7925 25.7968 18.683 25.8372 18.5682 25.8489C18.4534 25.8606 18.3373 25.8433 18.2318 25.7986L16.6368 25.0232C16.4435 24.9284 16.459 24.8176 16.6704 24.7749L20.9289 23.9207C21.1403 23.878 21.1767 23.9501 21.0101 24.0809L18.8858 25.7319Z" fill="#556195"/>
<path d="M14.4256 25.832C14.2086 25.8227 14.189 25.7346 14.3794 25.6371L15.2364 25.194C15.3457 25.1448 15.4648 25.1186 15.5856 25.1172C15.7064 25.1158 15.8262 25.1393 15.9366 25.186L17.1885 25.7933C17.3818 25.8867 17.3622 25.9548 17.1465 25.9455L14.4256 25.832Z" fill="#556195"/>
<path d="M22.3012 23.8927C22.3727 23.9714 22.276 24.1169 22.0856 24.2144L20.9569 24.7883C20.765 24.8857 20.7454 24.8577 20.9135 24.7269L21.8657 23.9848C22.0338 23.854 22.2298 23.8126 22.3012 23.8927Z" fill="#556195"/>
<path d="M19.4487 19.101C19.2471 19.1771 19.1266 19.077 19.1813 18.8768L20.3786 14.4349C20.382 14.3934 20.3987 14.3539 20.4262 14.3216C20.4537 14.2894 20.4909 14.2658 20.5328 14.2541C20.5747 14.2424 20.6193 14.2431 20.6608 14.256C20.7022 14.269 20.7386 14.2937 20.7651 14.3268L23.8458 17.0629C23.8849 17.0862 23.9157 17.1201 23.9343 17.1602C23.9529 17.2004 23.9584 17.2449 23.9501 17.2881C23.9418 17.3313 23.9201 17.3711 23.8878 17.4023C23.8554 17.4336 23.814 17.4548 23.7688 17.4633L19.4487 19.101Z" fill="#404A72"/>
<path d="M24.1315 16.4037C24.1693 16.6065 24.0727 16.6586 23.9145 16.5171L20.9863 13.9144C20.9491 13.8827 20.9196 13.8437 20.8997 13.8001C20.8798 13.7564 20.8701 13.7092 20.8711 13.6617C20.8722 13.6141 20.8841 13.5674 20.9059 13.5246C20.9277 13.4818 20.9589 13.4441 20.9975 13.4139L22.9202 11.8349C23.084 11.7014 23.2507 11.7562 23.2885 11.959L24.1315 16.4037Z" fill="#556195"/>
<path d="M22.255 22.654C22.247 22.6949 22.2262 22.7324 22.1952 22.7616C22.1643 22.7909 22.1247 22.8104 22.0818 22.8177C22.0389 22.8249 21.9947 22.8195 21.9551 22.8022C21.9155 22.7849 21.8823 22.7565 21.8601 22.7208L19.3899 19.9859C19.3552 19.9557 19.3296 19.9171 19.3158 19.8742C19.302 19.8313 19.3006 19.7857 19.3116 19.7421C19.3226 19.6984 19.3457 19.6584 19.3784 19.6262C19.4111 19.594 19.4523 19.5707 19.4977 19.5588L23.7884 17.9238C23.9887 17.8477 24.0923 17.9425 24.0167 18.136L22.255 22.654Z" fill="#556195"/>
<path d="M25.6915 14.9848C25.7487 15.0789 25.777 15.1865 25.7733 15.2953C25.7696 15.404 25.734 15.5096 25.6705 15.6001L24.9269 16.549C24.7981 16.7145 24.6608 16.6825 24.6216 16.481L23.8836 12.5903C23.8458 12.3874 23.9102 12.3634 24.0237 12.5355L25.6915 14.9848Z" fill="#556195"/>
<path d="M25.2378 20.0474C25.2684 20.1536 25.2691 20.2657 25.2399 20.3723C25.2106 20.4789 25.1524 20.5763 25.0711 20.6546L23.0448 22.4045C22.8838 22.5379 22.8152 22.4979 22.8908 22.3057L24.4088 18.4177C24.483 18.2241 24.6006 18.2255 24.6692 18.4177L25.2378 20.0474Z" fill="#556195"/>
<path d="M25.5514 19.0436C25.529 19.2492 25.4548 19.2558 25.3862 19.061L24.9423 17.7903C24.9105 17.6799 24.9039 17.5643 24.923 17.4512C24.9421 17.3382 24.9864 17.2303 25.0529 17.135L25.6355 16.3915C25.7643 16.226 25.8525 16.2581 25.8301 16.4636L25.5514 19.0436Z" fill="#556195"/>
<path d="M23.0224 23.4442C22.8922 23.6111 22.7283 23.6805 22.6555 23.6004C22.5827 23.5203 22.6555 23.3428 22.8165 23.2L23.7282 22.4125C23.8878 22.279 23.9144 22.2964 23.7856 22.4619L23.0224 23.4442Z" fill="#556195"/>
<path d="M19.7092 13.1589C19.7397 13.1884 19.7601 13.2262 19.7676 13.2671C19.7751 13.308 19.7693 13.3501 19.7511 13.3878C19.7328 13.4255 19.703 13.457 19.6654 13.4781C19.6279 13.4992 19.5846 13.5089 19.5411 13.5059L14.7533 13.977C14.5377 13.9984 14.4508 13.8703 14.5601 13.6927L16.9057 9.86878C16.9226 9.82975 16.9509 9.79618 16.9872 9.77206C17.0236 9.74795 17.0665 9.7343 17.1108 9.73275C17.155 9.73121 17.1988 9.74182 17.2369 9.76334C17.2751 9.78485 17.3059 9.81636 17.3258 9.8541L19.7092 13.1589Z" fill="#404A72"/>
<path d="M20.6978 13.0748C20.6608 13.1067 20.6169 13.1305 20.5693 13.1447C20.5217 13.1589 20.4714 13.1631 20.4219 13.157C20.3724 13.1509 20.3249 13.1347 20.2826 13.1094C20.2403 13.0842 20.2042 13.0505 20.1769 13.0108L17.8971 9.86618C17.7753 9.69534 17.8425 9.61125 18.0469 9.67799L22.5281 11.1302C22.7325 11.1969 22.7661 11.3611 22.6023 11.4959L20.6978 13.0748Z" fill="#556195"/>
<path d="M18.7233 18.778C18.6701 18.9782 18.5105 19.0129 18.369 18.8568L14.6539 14.7458C14.5138 14.5897 14.5727 14.4442 14.7939 14.4228L19.6517 13.945C19.6967 13.9358 19.7435 13.9382 19.7871 13.9521C19.8307 13.966 19.8696 13.9909 19.8997 14.0241C19.9298 14.0572 19.9499 14.0975 19.958 14.1407C19.9662 14.1838 19.9619 14.2283 19.9458 14.2693L18.7233 18.778Z" fill="#556195"/>
<path d="M14.0881 13.5766C14.0689 13.6168 14.0389 13.6515 14.001 13.6771C13.9632 13.7027 13.919 13.7184 13.8728 13.7224C13.8266 13.7265 13.7801 13.7188 13.738 13.7003C13.6959 13.6817 13.6597 13.6528 13.633 13.6166L11.1628 10.8831C11.1285 10.8572 11.1035 10.8218 11.0911 10.7818C11.0786 10.7419 11.0795 10.6992 11.0934 10.6597C11.1073 10.6201 11.1337 10.5856 11.1689 10.5609C11.2041 10.5362 11.2465 10.5224 11.2902 10.5214L16.2335 9.52973C16.4463 9.48702 16.5304 9.5978 16.4211 9.77665L14.0881 13.5766Z" fill="#556195"/>
<path d="M18.0456 9.20409C17.8411 9.13736 17.8299 9.00389 18.0204 8.90512L19.1154 8.34721C19.2185 8.30053 19.3334 8.28242 19.4468 8.29493C19.5601 8.30743 19.6676 8.35006 19.7568 8.41795L22.0506 10.3493C22.213 10.4828 22.178 10.5428 21.9735 10.4828L18.0456 9.20409Z" fill="#556195"/>
<path d="M11.7454 9.97295C11.5339 10.0157 11.4975 9.94893 11.6655 9.81546L13.7815 8.16174C13.875 8.09681 13.9848 8.05647 14.0998 8.04476C14.2148 8.03304 14.3311 8.05037 14.4368 8.09501L16.0388 8.87181C16.2321 8.96524 16.2167 9.07602 16.0052 9.11873L11.7454 9.97295Z" fill="#556195"/>
<path d="M17.4322 8.69965C17.323 8.7489 17.2039 8.7751 17.083 8.77649C16.9622 8.77787 16.8425 8.75439 16.732 8.70766L15.4717 8.10036C15.2897 8.00693 15.3079 7.93886 15.5249 7.94687L18.243 8.06699C18.4572 8.08034 18.4797 8.16443 18.2892 8.26186L17.4322 8.69965Z" fill="#556195"/>
<path d="M10.8029 9.90883C10.6349 10.0423 10.4388 10.081 10.3674 10.0023C10.296 9.92352 10.3926 9.7767 10.5831 9.6806L11.7117 9.10533C11.9022 9.0079 11.9218 9.03593 11.7552 9.16673L10.8029 9.90883Z" fill="#556195"/>
<path d="M9.35495 22.9731C9.43757 22.9037 9.62522 22.9731 9.77506 23.1252L10.6013 23.9941C10.7413 24.1476 10.7231 24.1717 10.5495 24.0489L9.52159 23.3214C9.34235 23.1987 9.26953 23.0412 9.35495 22.9731Z" fill="#556195"/>
<path d="M23.6204 11.2596C23.7044 11.1902 23.857 11.2836 23.9578 11.4651L24.5614 12.5409C24.6622 12.7238 24.6342 12.7411 24.497 12.5823L23.7184 11.6747C23.5811 11.5145 23.5377 11.3277 23.6204 11.2596Z" fill="#556195"/>
<path d="M23.1512 10.5722C23.3249 10.695 23.3991 10.8525 23.3151 10.9205C23.2311 10.9886 23.0448 10.9205 22.895 10.7684L22.0688 9.89949C21.9287 9.74599 21.9469 9.72197 22.1206 9.84476L23.1512 10.5722Z" fill="#556195"/>
<path d="M8.95026 22.2189C9.0903 22.3791 9.13091 22.566 9.04689 22.634C8.96286 22.7021 8.81163 22.61 8.7094 22.4285L8.10725 21.3527C8.00502 21.1699 8.03443 21.1525 8.17166 21.3113L8.95026 22.2189Z" fill="#556195"/>
</g>
<defs>
<clipPath id="clip0">
<rect width="32" height="32" fill="white" transform="translate(0.333801 0.946228)"/>
</clipPath>
</defs>
</svg>
