<svg width="32" height="32" viewBox="0 0 32 32" xmlns="http://www.w3.org/2000/svg" xmlns:xlink="http://www.w3.org/1999/xlink"><defs><linearGradient x1="50%" y1="0%" x2="50%" y2="100%" id="c"><stop stop-color="#FFF" stop-opacity=".5" offset="0%"/><stop stop-opacity=".5" offset="100%"/></linearGradient><filter x="-5.8%" y="-4.2%" width="111.7%" height="111.7%" filterUnits="objectBoundingBox" id="a"><feOffset dy=".5" in="SourceAlpha" result="shadowOffsetOuter1"/><feGaussianBlur stdDeviation=".5" in="shadowOffsetOuter1" result="shadowBlurOuter1"/><feComposite in="shadowBlurOuter1" in2="SourceAlpha" operator="out" result="shadowBlurOuter1"/><feColorMatrix values="0 0 0 0 0 0 0 0 0 0 0 0 0 0 0 0 0 0 0.199473505 0" in="shadowBlurOuter1"/></filter><circle id="b" cx="15" cy="15" r="15"/></defs><g fill="none"><g transform="translate(1)"><use fill="#000" filter="url(#a)" xlink:href="#b"/><use fill="#34445B" fill-rule="evenodd" xlink:href="#b"/><use fill="url(#c)" fill-rule="evenodd" style="mix-blend-mode:soft-light" xlink:href="#b"/><circle stroke-opacity=".097" stroke="#000" stroke-linejoin="square" cx="15" cy="15" r="14.5"/></g><g fill="#FFF"><path d="M15.82 10.319l1.76-2.743a1.776 1.776 0 10-1.06-.675l-2.182 3.405a6.965 6.965 0 00-6.25 7.618 6.97 6.97 0 007.618 6.25 6.97 6.97 0 006.25-7.618 6.971 6.971 0 00-6.136-6.237zm-.801 10.607a3.693 3.693 0 01-3.696-3.695 3.693 3.693 0 013.696-3.696c1.539 0 2.913.952 3.456 2.39a2.137 2.137 0 00-2.996-.378 2.136 2.136 0 00-.378 2.995 2.136 2.136 0 003.367.007 3.688 3.688 0 01-3.45 2.377z"/><path d="M15.82 10.319l1.76-2.743a1.776 1.776 0 10-1.06-.675l-2.182 3.405a6.965 6.965 0 00-6.25 7.618 6.97 6.97 0 007.618 6.25 6.97 6.97 0 006.25-7.618 6.971 6.971 0 00-6.136-6.237zm-.801 10.607a3.693 3.693 0 01-3.696-3.695 3.693 3.693 0 013.696-3.696c1.539 0 2.913.952 3.456 2.39a2.137 2.137 0 00-2.996-.378 2.136 2.136 0 00-.378 2.995 2.136 2.136 0 003.367.007 3.688 3.688 0 01-3.45 2.377z"/></g></g></svg>