<svg width="32" height="32" viewBox="0 0 32 32" xmlns="http://www.w3.org/2000/svg" xmlns:xlink="http://www.w3.org/1999/xlink"><defs><linearGradient x1="50%" y1="0%" x2="50%" y2="100%" id="c"><stop stop-color="#FFF" stop-opacity=".5" offset="0%"/><stop stop-opacity=".5" offset="100%"/></linearGradient><filter x="-5.8%" y="-4.2%" width="111.7%" height="111.7%" filterUnits="objectBoundingBox" id="a"><feOffset dy=".5" in="SourceAlpha" result="shadowOffsetOuter1"/><feGaussianBlur stdDeviation=".5" in="shadowOffsetOuter1" result="shadowBlurOuter1"/><feComposite in="shadowBlurOuter1" in2="SourceAlpha" operator="out" result="shadowBlurOuter1"/><feColorMatrix values="0 0 0 0 0 0 0 0 0 0 0 0 0 0 0 0 0 0 0.199473505 0" in="shadowBlurOuter1"/></filter><circle id="b" cx="16" cy="15" r="15"/></defs><g fill="none" fill-rule="evenodd"><use fill="#000" filter="url(#a)" xlink:href="#b"/><use fill="#2261F6" xlink:href="#b"/><use fill="url(#c)" style="mix-blend-mode:soft-light" xlink:href="#b"/><circle stroke-opacity=".097" stroke="#000" stroke-linejoin="square" cx="16" cy="15" r="14.5"/><g transform="translate(6.5 4.5)" fill="#FFF" fill-rule="nonzero"><ellipse cx="9.5" cy="19.456" rx="1.583" ry="1.544"/><ellipse cx="9.5" cy="1.544" rx="1.583" ry="1.544"/><ellipse cx="9.5" cy="6.074" rx="1.267" ry="1.235"/><ellipse cx="5.067" cy="3.809" rx="1.267" ry="1.235"/><ellipse cx="5.067" cy="17.294" rx="1.267" ry="1.235"/><ellipse cx="13.458" cy="8.39" rx="1.267" ry="1.235"/><ellipse cx="13.458" cy="12.662" rx="1.267" ry="1.235"/><ellipse cx="9.5" cy="14.927" rx="1.267" ry="1.235"/><ellipse cx="9.5" cy="10.5" rx="1.003" ry="1"/><ellipse cx="5.067" cy="12.713" rx="1.003" ry="1"/><ellipse cx="5.067" cy="8.39" rx="1.003" ry="1"/><circle cx=".739" cy="6.074" r="1"/><circle cx=".739" cy="10.5" r="1"/><circle cx=".739" cy="14.926" r="1"/><ellipse cx="13.458" cy="3.809" rx="1.583" ry="1.544"/><ellipse cx="13.458" cy="17.243" rx="1.583" ry="1.544"/><ellipse cx="17.417" cy="6.073" rx="1.583" ry="1.544"/><ellipse cx="17.417" cy="14.927" rx="1.583" ry="1.544"/><ellipse cx="17.417" cy="10.5" rx="1.583" ry="1.544"/></g></g></svg>