<svg height="32" viewBox="0 0 32 32" width="32" xmlns="http://www.w3.org/2000/svg" xmlns:xlink="http://www.w3.org/1999/xlink"><defs><linearGradient id="a" x1="50%" x2="50%" y1="0%" y2="100%"><stop offset="0" stop-color="#fff" stop-opacity=".5"/><stop offset="1" stop-opacity=".5"/></linearGradient><circle id="b" cx="16" cy="15" r="15"/><filter id="c" height="111.7%" width="111.7%" x="-5.8%" y="-4.2%"><feOffset dy=".5" in="SourceAlpha" result="shadowOffsetOuter1"/><feGaussianBlur in="shadowOffsetOuter1" result="shadowBlurOuter1" stdDeviation=".5"/><feComposite in="shadowBlurOuter1" in2="SourceAlpha" operator="out" result="shadowBlurOuter1"/><feColorMatrix in="shadowBlurOuter1" values="0 0 0 0 0   0 0 0 0 0   0 0 0 0 0  0 0 0 0.199473505 0"/></filter><path id="d" d="m9.00861985 18.1983687c0-2.0518886-.00063-4.1037773.000315-6.1555885.00039375-.8885632.22798131-1.730042.57085892-2.54309975.41973762-.99520007 1.03721653-1.85944665 1.85196433-2.5799619.7874214-.69619864 1.6817067-1.21598565 2.692857-1.54201415.8161653-.26322349 1.652963-.40416693 2.506692-.37357755.4921089.01765665.983509.11964704 1.4699479.21110539.6904802.12986931 1.3463892.36591085 1.9704831.6869831.677014.34817676 1.2994542.77170405 1.8366081 1.30674702.7582839.75551879 1.3270954 1.63486645 1.725098 2.6212382.074655.18516254.1523813.36924084.2204213.55680404.0781988.2157519.0136238.3093786-.2142788.3098432-.846484.0016263-1.6935193.0180439-2.5390583-.0085185-.4094213-.0128553-.8249852-.0957951-1.1818016-.3134056-.16758-.1022227-.3009038-.2649272-.4347788-.41322756-.4118627-.45628502-.9038928-.80182877-1.4795555-1.0221497-.6726039-.25741538-1.3642654-.31991063-2.0809694-.18616924-.854674.15960683-1.5747642.54286456-2.1508206 1.17896863-.4980151.54975687-.8381365 1.18020767-.9261003 1.92225167-.032445.2736781-.0603225.5499117-.0605587.8249838-.0026775 2.8390035-.01134 5.6782394.0085837 8.5171655.0077175 1.1076451-.4040664 2.0179693-1.1945591 2.7745723-.4672239.446992-1.029814.74731-1.66572048.8999471-.24656632.0591652-.4988814.0999769-.75088147.1283979-.05229002.005963-.13710379-.0686906-.1671863-.1262296-.02953126-.0566097-.0096075-.1387751-.0096075-.2097114-.00023625-2.1551181-.0001575-4.3102362-.0001575-6.4653544zm4.50609205-3.5021037c.4317864.5089452.9012941.9036643 1.4745155 1.1673525.6423639.2955165 1.3233154.434369 2.0239543.3433753 1.1098241-.1441185 2.0282069-.6437707 2.7055358-1.5410074.2016001-.2670955.4981727-.4017662.8180553-.4524129.3272851-.0518858.6622877-.0705492.994219-.0751182.747889-.0102997 1.4959355-.004027 2.2438244-.0021684.2463301.0006195.2588514.0140944.1869526.2337958-.3461851 1.0566111-.8678253 2.0203699-1.5709055 2.8911216-.749779.9286004-1.6429617 1.6841192-2.7634958 2.134751-.5030552.2021996-1.0396578.368389-1.575788.435221-.7037889.0875862-1.4236429.0974213-2.1338106.0706266-.4709251-.017889-.9385428-.151553-1.4048217-.2470383-.26145-.0534346-.5171514-.1340511-.7752152-.2032838-.1440338-.0386433-.2402663-.1037715-.2397151-.2782471.0048038-1.4452898.0027563-2.8904247.0032288-4.335637.0000787-.0313638.0057487-.0626501.0134662-.1413307z"/><filter id="e" height="117.5%" width="123.3%" x="-11.7%" y="-6.2%"><feOffset dy=".5" in="SourceAlpha" result="shadowOffsetOuter1"/><feGaussianBlur in="shadowOffsetOuter1" result="shadowBlurOuter1" stdDeviation=".5"/><feColorMatrix in="shadowBlurOuter1" values="0 0 0 0 0   0 0 0 0 0   0 0 0 0 0  0 0 0 0.204257246 0"/></filter></defs><g fill="none" fill-rule="evenodd"><use fill="#000" filter="url(#c)" xlink:href="#b"/><use fill="#f8e42c" xlink:href="#b"/><use fill="url(#a)" xlink:href="#b"/><circle cx="16" cy="15" r="14.5" stroke="#000" stroke-opacity=".097"/><use fill="#000" filter="url(#e)" xlink:href="#d"/><use fill="#fff" xlink:href="#d"/></g></svg>