<svg width="32" height="32" viewBox="0 0 32 32" version="1.1" xmlns="http://www.w3.org/2000/svg" xmlns:xlink="http://www.w3.org/1999/xlink"><title>svg/icon/pasc</title><desc>Created with Sketch.</desc><defs><linearGradient x1="50%" y1="0%" x2="50%" y2="100%" id="linearGradient-1"><stop stop-color="#FFF" stop-opacity=".5" offset="0%"/><stop stop-color="#000" stop-opacity=".5" offset="100%"/></linearGradient><circle id="path-2" cx="15" cy="15" r="15"/><filter x="-5.8%" y="-4.2%" width="111.7%" height="111.7%" filterUnits="objectBoundingBox" id="filter-3"><feOffset dx="0" dy=".5" in="SourceAlpha" result="shadowOffsetOuter1"/><feGaussianBlur stdDeviation=".5" in="shadowOffsetOuter1" result="shadowBlurOuter1"/><feComposite in="shadowBlurOuter1" in2="SourceAlpha" operator="out" result="shadowBlurOuter1"/><feColorMatrix values="0 0 0 0 0 0 0 0 0 0 0 0 0 0 0 0 0 0 0.199473505 0" type="matrix" in="shadowBlurOuter1"/></filter></defs><g id="icon/pasc" stroke="none" stroke-width="1" fill="none" fill-rule="evenodd"><g id="Group" transform="translate(1.000000, 0.000000)" fill-rule="nonzero"><g id="Oval"><use fill="#000" fill-opacity="1" filter="url(#filter-3)" xlink:href="#path-2"/><use fill="#F7931E" xlink:href="#path-2"/><use fill="url(#linearGradient-1)" style="mix-blend-mode:soft-light" xlink:href="#path-2"/><circle stroke-opacity=".097" stroke="#000" stroke-width="1" stroke-linejoin="square" cx="15" cy="15" r="14.5"/></g></g><g id="PascalCoin-(PASC)" transform="translate(5.000000, 4.000000)" fill="#FFF" fill-rule="nonzero"><path d="M11,0 C4.92486775,-3.71994563e-16 7.43989126e-16,4.92486775 0,11 C-7.43989126e-16,17.0751322 4.92486775,22 11,22 C17.0751322,22 22,17.0751322 22,11 C22,8.08261861 20.8410748,5.28472557 18.7781746,3.22182541 C16.7152744,1.15892524 13.9173814,1.78638089e-16 11,0 Z M16.5,5.328125 C17.6390873,5.328125 18.5625,6.2515377 18.5625,7.390625 L18.5625,10.484375 C18.5625,11.6234623 17.6390873,12.546875 16.5,12.546875 L13.9459375,12.546875 L13.7817969,13.3203125 C13.7354368,13.5152521 13.5651999,13.6556537 13.365,13.6640625 L12.849375,13.6640625 C12.7627933,13.6676735 12.6797452,13.6294832 12.6261315,13.5614024 C12.5725178,13.4933215 12.5548625,13.4036344 12.5786719,13.3203125 L12.7428125,12.546875 L11.5396875,12.546875 L11.3755469,13.3203125 C11.3291868,13.5152521 11.1589499,13.6556537 10.95875,13.6640625 L10.443125,13.6640625 C10.3565433,13.6676735 10.2734952,13.6294832 10.2198815,13.5614024 C10.1662678,13.4933215 10.1486125,13.4036344 10.1724219,13.3203125 L10.3365625,12.546875 L9.0475,12.546875 L7.91484375,17.875 L5.16484375,17.875 L7.1740625,8.421875 L9.9240625,8.421875 L9.48578125,10.484375 L14.78125,10.484375 C15.3507936,10.484375 15.8125,10.0226686 15.8125,9.453125 L15.8125,8.421875 C15.8125,7.85233135 15.3507936,7.390625 14.78125,7.390625 L3.4375,7.390625 L5.15625,5.328125 L11.8714062,5.328125 L12.0355469,4.5546875 C12.0819069,4.35974785 12.2521438,4.21934629 12.4523437,4.2109375 L12.9679687,4.2109375 C13.0545504,4.20732649 13.1375985,4.24551676 13.1912122,4.31359762 C13.2448259,4.38167848 13.2624812,4.47136556 13.2386719,4.5546875 L13.0745312,5.328125 L14.2776562,5.328125 L14.4417969,4.5546875 C14.4881569,4.35974785 14.6583938,4.21934629 14.8585937,4.2109375 L15.3742187,4.2109375 C15.4608004,4.20732649 15.5438485,4.24551676 15.5974622,4.31359762 C15.6510759,4.38167848 15.6687312,4.47136556 15.6449219,4.5546875 L15.4807812,5.328125 L16.5,5.328125 Z" id="Shape"/></g></g></svg>