<svg height="32" viewBox="0 0 32 32" width="32" xmlns="http://www.w3.org/2000/svg" xmlns:xlink="http://www.w3.org/1999/xlink"><defs><linearGradient id="a" x1="50%" x2="50%" y1="0%" y2="100%"><stop offset="0" stop-color="#fff" stop-opacity=".5"/><stop offset="1" stop-opacity=".5"/></linearGradient><circle id="b" cx="16" cy="15" r="15"/><filter id="c" height="111.7%" width="111.7%" x="-5.8%" y="-4.2%"><feOffset dy=".5" in="SourceAlpha" result="shadowOffsetOuter1"/><feGaussianBlur in="shadowOffsetOuter1" result="shadowBlurOuter1" stdDeviation=".5"/><feComposite in="shadowBlurOuter1" in2="SourceAlpha" operator="out" result="shadowBlurOuter1"/><feColorMatrix in="shadowBlurOuter1" values="0 0 0 0 0   0 0 0 0 0   0 0 0 0 0  0 0 0 0.199473505 0"/></filter><path id="d" d="m15.0808004 19.1558894c.2609718-.1083153.5598609.016593.6675877.2789905.1077267.2623974-.016503.5629193-.2774747.6712345l-3.4061447 1.4137057-.4521759 2.4801799h-2.34342001l.25671309-1.4264275-1.38227509.5737073c-.26097177.1083152-.55986096-.0165931-.66758768-.2789905-.10772671-.2623974.01650295-.5629194.27747472-.6712346l1.98869625-.8253998.15093234-.8386563-2.68672875 1.1151152c-.26097177.1083152-.55986096-.0165931-.66758767-.2789905-.10772672-.2623974.01650294-.5629194.27747471-.6712346l3.29314989-1.3668077 2.3973835-13.32107322h6.7736801c4.1463345-.14277771 6.2195018 1.24216613 6.2195018 4.15483152 0 3.6953773-2.7019761 6.5534972-7.284702 6.5534972h-5.2751433l-.283606 1.5555758 1.4870386-.617189c.2609717-.1083152.5598609.0165931.6675876.2789905.1077268.2623974-.0165029.5629194-.2774747.6712346l-2.0965108.8701478-.1530614.83954zm-.5709991-11.04704919-1.1713781 6.42499719h5.2176796c3.2117688 0 4.430462-2.184499 4.430462-3.7693317 0-1.58483262-.7668107-2.65566549-3.3228465-2.65566549z"/><filter id="e" height="119.4%" width="118.4%" x="-9.2%" y="-6.9%"><feOffset dy=".5" in="SourceAlpha" result="shadowOffsetOuter1"/><feGaussianBlur in="shadowOffsetOuter1" result="shadowBlurOuter1" stdDeviation=".5"/><feColorMatrix in="shadowBlurOuter1" values="0 0 0 0 0   0 0 0 0 0   0 0 0 0 0  0 0 0 0.204257246 0"/></filter></defs><g fill="none" fill-rule="evenodd"><use fill="#000" filter="url(#c)" xlink:href="#b"/><use fill="#00acff" xlink:href="#b"/><use fill="url(#a)" xlink:href="#b"/><circle cx="16" cy="15" r="14.5" stroke="#000" stroke-opacity=".097"/><use fill="#000" filter="url(#e)" xlink:href="#d"/><use fill="#fff" xlink:href="#d"/></g></svg>