<svg xmlns="http://www.w3.org/2000/svg" xmlns:xlink="http://www.w3.org/1999/xlink" width="32" height="32" viewBox="0 0 32 32"><defs><linearGradient id="c" x1="50%" x2="50%" y1="0%" y2="100%"><stop offset="0%" stop-color="#FFF" stop-opacity=".5"/><stop offset="100%" stop-opacity=".5"/></linearGradient><circle id="b" cx="16" cy="15" r="15"/><filter id="a" width="111.7%" height="111.7%" x="-5.8%" y="-4.2%" filterUnits="objectBoundingBox"><feOffset dy=".5" in="SourceAlpha" result="shadowOffsetOuter1"/><feGaussianBlur in="shadowOffsetOuter1" result="shadowBlurOuter1" stdDeviation=".5"/><feComposite in="shadowBlurOuter1" in2="SourceAlpha" operator="out" result="shadowBlurOuter1"/><feColorMatrix in="shadowBlurOuter1" values="0 0 0 0 0 0 0 0 0 0 0 0 0 0 0 0 0 0 0.199473505 0"/></filter><path id="e" d="M15.08 19.156a.51.51 0 0 1 .668.279.515.515 0 0 1-.277.671l-3.406 1.414-.452 2.48H9.269l.257-1.426-1.382.573a.51.51 0 0 1-.668-.279.515.515 0 0 1 .277-.67l1.99-.826.15-.839-2.687 1.115a.51.51 0 0 1-.667-.279.515.515 0 0 1 .277-.671l3.293-1.367L12.507 6.01h6.773c4.147-.143 6.22 1.242 6.22 4.155 0 3.695-2.702 6.553-7.285 6.553H12.94l-.283 1.556 1.487-.617a.51.51 0 0 1 .667.279.515.515 0 0 1-.277.67l-2.097.871-.153.84 2.797-1.161zm-.57-11.047l-1.172 6.425h5.218c3.212 0 4.43-2.185 4.43-3.77 0-1.584-.766-2.655-3.322-2.655H14.51z"/><filter id="d" width="118.4%" height="119.4%" x="-9.2%" y="-6.9%" filterUnits="objectBoundingBox"><feOffset dy=".5" in="SourceAlpha" result="shadowOffsetOuter1"/><feGaussianBlur in="shadowOffsetOuter1" result="shadowBlurOuter1" stdDeviation=".5"/><feColorMatrix in="shadowBlurOuter1" values="0 0 0 0 0 0 0 0 0 0 0 0 0 0 0 0 0 0 0.204257246 0"/></filter></defs><g fill="none" fill-rule="evenodd"><use fill="#000" filter="url(#a)" xlink:href="#b"/><use fill="#00ACFF" xlink:href="#b"/><use fill="url(#c)" style="mix-blend-mode:soft-light" xlink:href="#b"/><circle cx="16" cy="15" r="14.5" stroke="#000" stroke-opacity=".097"/><use fill="#000" filter="url(#d)" xlink:href="#e"/><use fill="#FFF" xlink:href="#e"/></g></svg>