<svg height="32" viewBox="0 0 32 32" width="32" xmlns="http://www.w3.org/2000/svg" xmlns:xlink="http://www.w3.org/1999/xlink"><defs><linearGradient id="a" x1="50%" x2="50%" y1="0%" y2="100%"><stop offset="0" stop-color="#fff" stop-opacity=".5"/><stop offset="1" stop-opacity=".5"/></linearGradient><circle id="b" cx="16" cy="15" r="15"/><filter id="c" height="111.7%" width="111.7%" x="-5.8%" y="-4.2%"><feOffset dy=".5" in="SourceAlpha" result="shadowOffsetOuter1"/><feGaussianBlur in="shadowOffsetOuter1" result="shadowBlurOuter1" stdDeviation=".5"/><feComposite in="shadowBlurOuter1" in2="SourceAlpha" operator="out" result="shadowBlurOuter1"/><feColorMatrix in="shadowBlurOuter1" values="0 0 0 0 0   0 0 0 0 0   0 0 0 0 0  0 0 0 0.199473505 0"/></filter><path id="d" d="m26.9101661 14.6957203c-.05038-.1143917-.1320001-.2098674-.2150501-.300642-1.9019013-2.1522877-5.7726939-6.3950783-5.7726939-6.3950783l-4.9170034 5.3775294-4.9809134-5.32671352s-3.91600261 4.27905562-5.83396391 6.45596782c-.24959017.2462444-.24959017.6894843-.02574002.9522942.99693068 1.1356342 5.89424403 6.5361091 5.89424403 6.5361091l4.9402133-5.4142422 4.9049033 5.4190552 5.9172341-6.545959s.12485-.129614.1512501-.2170308c.0583-.1794226.01683-.3759704-.0624801-.5412899m-18.99239286.5991573c-.15939011-.1887127-.10593007-.4862207.04290003-.664524.62612042-.7128774 3.13148213-3.4007467 3.13148213-3.4007467l3.4894224 3.7058659-3.4956924 3.8232797s-2.13917146-2.2840285-3.16811216-3.4638749m15.98829086.1264801c-.0635801.1333078-.2565202.3545919-.2565202.3545919l-2.7104018 2.9447469-3.4980024-3.7204167 3.4438823-3.7742546s1.9840714 2.0551331 2.893002 3.1593153c.077.0970426.1677501.1881531.2068001.3092605.0836001.238969.0309101.5055845-.07876.7266448"/><filter id="e" height="125%" width="115.9%" x="-8%" y="-8.9%"><feOffset dy=".5" in="SourceAlpha" result="shadowOffsetOuter1"/><feGaussianBlur in="shadowOffsetOuter1" result="shadowBlurOuter1" stdDeviation=".5"/><feColorMatrix in="shadowBlurOuter1" values="0 0 0 0 0   0 0 0 0 0   0 0 0 0 0  0 0 0 0.204257246 0"/></filter></defs><g fill="none" fill-rule="nonzero"><g><use fill="#000" filter="url(#c)" xlink:href="#b"/><use fill="#302c2c" fill-rule="evenodd" xlink:href="#b"/><use fill="url(#a)" fill-rule="evenodd" xlink:href="#b"/><circle cx="16" cy="15" r="14.5" stroke="#000" stroke-opacity=".097"/></g><g><use fill="#000" filter="url(#e)" xlink:href="#d"/><use fill="#fff" fill-rule="evenodd" xlink:href="#d"/></g></g></svg>