<?xml version="1.0" encoding="utf-8"?>
<!-- Generator: Adobe Illustrator 16.0.0, SVG Export Plug-In . SVG Version: 6.00 Build 0)  -->
<!DOCTYPE svg PUBLIC "-//W3C//DTD SVG 1.1//EN" "http://www.w3.org/Graphics/SVG/1.1/DTD/svg11.dtd">
<svg version="1.1" id="Capa_1" xmlns="http://www.w3.org/2000/svg" xmlns:xlink="http://www.w3.org/1999/xlink" x="0px" y="0px"
	 width="32px" height="32px" viewBox="0 0 32 32" enable-background="new 0 0 32 32" xml:space="preserve">
<g>
	<g>
		<circle id="b_12_" cx="16" cy="15" r="15"/>
	</g>
	<g>
		<circle id="b_1_" fill="#22B573" cx="16" cy="15" r="15"/>
	</g>
	<g>
		
			<linearGradient id="b_3_" gradientUnits="userSpaceOnUse" x1="-449.5171" y1="287.1309" x2="-449.5171" y2="286.1309" gradientTransform="matrix(30 0 0 -30 13501.5156 8613.9063)">
			<stop  offset="0" style="stop-color:#FFFFFF;stop-opacity:0.5"/>
			<stop  offset="1" style="stop-color:#000000;stop-opacity:0.5"/>
		</linearGradient>
		<circle id="b_2_" fill="url(#b_3_)" cx="16" cy="15" r="15"/>
	</g>
	<g>
		<g>
			<polygon fill="#FFFFFF" points="10.34,11.402 6.666,18.751 14.014,18.751 			"/>
			<polygon fill="#FFFFFF" points="21.66,3.853 17.984,11.204 25.336,11.204 			"/>
			<polygon fill="#FFFFFF" points="17.887,11.402 14.212,18.751 21.563,18.751 			"/>
			<polygon fill="#FFFFFF" points="14.014,18.872 6.666,18.872 10.34,26.223 			"/>
			<polygon fill="#FFFFFF" points="25.336,11.326 17.984,11.326 21.66,18.675 			"/>
			<polygon fill="#FFFFFF" points="17.788,11.326 10.439,11.326 14.113,18.675 			"/>
			<polygon fill="#FFFFFF" points="21.563,3.779 14.212,3.779 17.887,11.13 			"/>
		</g>
	</g>
	<circle fill="none" stroke="#000000" stroke-opacity="0.097" cx="16" cy="15" r="14.5"/>
</g>
</svg>
