<svg height="32" viewBox="0 0 32 32" width="32" xmlns="http://www.w3.org/2000/svg" xmlns:xlink="http://www.w3.org/1999/xlink"><defs><linearGradient id="a" x1="50%" x2="50%" y1="0%" y2="100%"><stop offset="0" stop-color="#fff" stop-opacity=".5"/><stop offset="1" stop-opacity=".5"/></linearGradient><circle id="b" cx="16" cy="15" r="15"/><filter id="c" height="111.7%" width="111.7%" x="-5.8%" y="-4.2%"><feOffset dy=".5" in="SourceAlpha" result="shadowOffsetOuter1"/><feGaussianBlur in="shadowOffsetOuter1" result="shadowBlurOuter1" stdDeviation=".5"/><feComposite in="shadowBlurOuter1" in2="SourceAlpha" operator="out" result="shadowBlurOuter1"/><feColorMatrix in="shadowBlurOuter1" values="0 0 0 0 0   0 0 0 0 0   0 0 0 0 0  0 0 0 0.199473505 0"/></filter><filter id="d" height="117.5%" width="120.6%" x="-10.3%" y="-6.2%"><feOffset dy=".5" in="SourceAlpha" result="shadowOffsetOuter1"/><feGaussianBlur in="shadowOffsetOuter1" result="shadowBlurOuter1" stdDeviation=".5"/><feColorMatrix in="shadowBlurOuter1" result="shadowMatrixOuter1" values="0 0 0 0 0   0 0 0 0 0   0 0 0 0 0  0 0 0 0.204257246 0"/><feMerge><feMergeNode in="shadowMatrixOuter1"/><feMergeNode in="SourceGraphic"/></feMerge></filter></defs><g fill="none" fill-rule="evenodd"><use fill="#000" filter="url(#c)" xlink:href="#b"/><use fill="#ed79aa" xlink:href="#b"/><use fill="url(#a)" xlink:href="#b"/><circle cx="16" cy="15" r="14.5" stroke="#000" stroke-opacity=".097"/><g fill="#fff" filter="url(#d)" transform="translate(6.5 5)"><path d="m16.9518413 2.92893219-1.8699046 1.8830561c-1.318455-1.32772798-3.1398835-2.14894481-5.15177797-2.14894481-3.91528098 0-7.10923417 3.11009265-7.27864712 7.01086642l-.00706717.00000314v7.12093666c-1.6412098-1.783765-2.64444444-4.1713243-2.64444444-6.7948497 0-5.5228475 4.4458835-10 9.93015873-10 2.74213757 0 5.22467727 1.11928813 7.02168257 2.92893219zm0 14.14213561c-1.7615714 1.773961-4.1819086 2.8845229-6.8597778 2.9276299v-2.663517c1.9475974-.0427624 3.706877-.8551491 4.9898732-2.147169z" opacity=".5"/><path d="m5.18095238 18.7843352v-9.11042216h.00728754c.14007942-2.60502899 2.28203203-4.67391304 4.90382358-4.67391304 2.7123318 0 4.9111111 2.2142439 4.9111111 4.94565217 0 2.73140823-2.1987793 4.94565213-4.9111111 4.94565213-.90568832 0-1.75411593-.2468865-2.48253969-.6774751v5.5116238c-.85821171-.2069157-1.67311829-.5260423-2.42857143-.9411178zm4.91111112-6.338683c1.3710688 0 2.4825397-1.1192882 2.4825397-2.50000003 0-1.38071187-1.1114709-2.5-2.4825397-2.5-1.37106882 0-2.48253969 1.11928813-2.48253969 2.5 0 1.38071183 1.11147087 2.50000003 2.48253969 2.50000003z"/></g></g></svg>