<svg height="32" viewBox="0 0 32 32" width="32" xmlns="http://www.w3.org/2000/svg" xmlns:xlink="http://www.w3.org/1999/xlink"><defs><linearGradient id="a" x1="50%" x2="50%" y1="0%" y2="100%"><stop offset="0" stop-color="#fff" stop-opacity=".5"/><stop offset="1" stop-opacity=".5"/></linearGradient><circle id="b" cx="16" cy="15" r="15"/><filter id="c" height="111.7%" width="111.7%" x="-5.8%" y="-4.2%"><feOffset dy=".5" in="SourceAlpha" result="shadowOffsetOuter1"/><feGaussianBlur in="shadowOffsetOuter1" result="shadowBlurOuter1" stdDeviation=".5"/><feComposite in="shadowBlurOuter1" in2="SourceAlpha" operator="out" result="shadowBlurOuter1"/><feColorMatrix in="shadowBlurOuter1" values="0 0 0 0 0   0 0 0 0 0   0 0 0 0 0  0 0 0 0.199473505 0"/></filter><path id="d" d="m24.7584869 6.73227751c-.8050436-.79286072-1.8816683-1.23227751-3.0164888-1.23227751-1.1445199 0-2.2114452.43941679-3.0164889 1.23227751l-9.8545102 9.70537959c-.09699318.0955254-.1551891.2388135-.14548978.3821016v4.9959779l-2.72550922 2.6842634h1.50339477l2.01745877-1.9869281h5.04364696c.1454898 0 .2812803-.0573152.3782735-.1623932l9.8060136-9.6576169.0096993-.0095525c.7953443-.7928607 1.2415131-1.84364 1.2415131-2.96128708 0-1.13675216-.4364694-2.18753145-1.2415131-2.98994471zm-5.7322987 1.1271996.4170708-.41075917c.6110572-.60180998 1.4258002-.93614883 2.2987391-.93614883.8632395 0 1.6779825.33433885 2.2987391.93614883.0096993.00955252.0193986.02865762.0387973.03821014.5916585.60180998.9117361 1.38511818.9117361 2.22574158 0 .85017594-.3394762 1.65258924-.9505334 2.26395174l-.4267702.4203117h-3.8118331l2.5024248-2.46455504c.2036857-.20060333.2036857-.50628455.0193986-.7164404-.0096993-.00955255-.0096993-.0191051-.0193986-.02865762-.2036857-.20060333-.543162-.20060333-.7468477 0l-2.5218235 2.48366016v-3.81146309zm-8.4772066 13.64102569 2.056256-2.0251383h3.8118332l-2.056256 2.0251383zm5.9844811-5.9034691 2.4345296-2.3976873h3.8118331l-2.4345295 2.3976873zm2.9776915.8215183-2.2696411 2.2352941h-3.8118332l2.2696412-2.2352941zm-3.7536372-5.3398693 2.4442289-2.40723977v3.80191047l-2.4442289 2.4167924zm-3.1037828 3.0568125 2.2696411-2.2352941v3.8019105l-2.2696411 2.2352941zm-2.90979627 2.8657617 2.08535397-2.0442433v3.8019105l-2.08535397 2.0442433z"/><filter id="e" height="118.4%" width="117.5%" x="-8.8%" y="-6.6%"><feOffset dy=".5" in="SourceAlpha" result="shadowOffsetOuter1"/><feGaussianBlur in="shadowOffsetOuter1" result="shadowBlurOuter1" stdDeviation=".5"/><feColorMatrix in="shadowBlurOuter1" values="0 0 0 0 0   0 0 0 0 0   0 0 0 0 0  0 0 0 0.204257246 0"/></filter></defs><g fill="none" fill-rule="evenodd"><use fill="#000" filter="url(#c)" xlink:href="#b"/><use fill="#dcd6cc" xlink:href="#b"/><use fill="url(#a)" xlink:href="#b"/><circle cx="16" cy="15" r="14.5" stroke="#000" stroke-opacity=".097"/><g fill-rule="nonzero"><use fill="#000" filter="url(#e)" xlink:href="#d"/><use fill="#fff" fill-rule="evenodd" xlink:href="#d"/></g></g></svg>