<?xml version="1.0" encoding="UTF-8"?>
<svg width="32px" height="32px" viewBox="0 0 32 32" version="1.1" xmlns="http://www.w3.org/2000/svg" xmlns:xlink="http://www.w3.org/1999/xlink">
    <!-- Generator: Sketch 52.1 (67048) - http://www.bohemiancoding.com/sketch -->
    <title>svg/icon/polis</title>
    <desc>Created with Sketch.</desc>
    <defs>
        <linearGradient x1="50%" y1="0%" x2="50%" y2="100%" id="linearGradient-1">
            <stop stop-color="#FFFFFF" stop-opacity="0.5" offset="0%"></stop>
            <stop stop-color="#000000" stop-opacity="0.5" offset="100%"></stop>
        </linearGradient>
        <circle id="path-2" cx="15" cy="15" r="15"></circle>
        <filter x="-5.8%" y="-4.2%" width="111.7%" height="111.7%" filterUnits="objectBoundingBox" id="filter-3">
            <feOffset dx="0" dy="0.5" in="SourceAlpha" result="shadowOffsetOuter1"></feOffset>
            <feGaussianBlur stdDeviation="0.5" in="shadowOffsetOuter1" result="shadowBlurOuter1"></feGaussianBlur>
            <feComposite in="shadowBlurOuter1" in2="SourceAlpha" operator="out" result="shadowBlurOuter1"></feComposite>
            <feColorMatrix values="0 0 0 0 0   0 0 0 0 0   0 0 0 0 0  0 0 0 0.199473505 0" type="matrix" in="shadowBlurOuter1"></feColorMatrix>
        </filter>
    </defs>
    <g id="icon/polis" stroke="none" stroke-width="1" fill="none" fill-rule="evenodd">
        <g id="Group" transform="translate(1.000000, 0.000000)" fill-rule="nonzero">
            <g id="Oval">
                <use fill="black" fill-opacity="1" filter="url(#filter-3)" xlink:href="#path-2"></use>
                <use fill="#2C3E50" xlink:href="#path-2"></use>
                <use fill="url(#linearGradient-1)" style="mix-blend-mode: soft-light;" xlink:href="#path-2"></use>
                <circle stroke-opacity="0.0970052083" stroke="#000000" stroke-width="1" stroke-linejoin="square" cx="15" cy="15" r="14.5"></circle>
            </g>
        </g>
        <g id="Polis-(POLIS)" transform="translate(7.000000, 6.000000)" fill="#FFFFFF" fill-rule="nonzero">
            <path d="M17.6721854,15.0124172 L17.6721854,14.1124172 C17.6721854,13.9336093 17.5529801,13.814404 17.3711921,13.814404 L16.7721854,13.814404 L16.7721854,12.9114238 C16.7721854,12.7326159 16.6529801,12.6104305 16.4741722,12.6104305 L15.8751656,12.6104305 L15.8751656,6.00049669 L16.4711921,6.00049669 C16.65,6.00049669 16.7721854,5.88129139 16.7721854,5.69950331 L16.7721854,4.79950331 L17.3711921,4.79950331 C17.5171546,4.80560014 17.6448591,4.70215947 17.6692053,4.55811258 C17.6990066,4.40910596 17.639404,4.28990066 17.5201987,4.22731788 L9.13410596,0.0223509934 C9.04718354,-0.00743898269 8.95281646,-0.00743898269 8.86589404,0.0223509934 L0.178807947,4.22731788 C0.0616624266,4.29119827 0.000903190558,4.42486859 0.0298013245,4.55513245 C0.0298013245,4.70711921 0.149006623,4.79950331 0.298013245,4.79950331 L1.19801325,4.79950331 L1.19801325,5.69950331 C1.19801325,5.87831126 1.31721854,5.99751656 1.49602649,5.99751656 L2.09503311,5.99751656 L2.09503311,12.6104305 L1.49900662,12.6104305 C1.32019868,12.6104305 1.19801325,12.7296358 1.19801325,12.9084437 L1.19801325,13.8114238 L0.599006623,13.8114238 C0.420198675,13.8114238 0.300993377,13.9306291 0.300993377,14.1094371 L0.300993377,15.0124172 C0.12218543,15.0124172 0,15.1316225 0,15.3134106 C0,15.4951987 0.119205298,15.614404 0.298013245,15.614404 L17.6721854,15.614404 C17.8509934,15.614404 17.9731788,15.4951987 17.9731788,15.3163907 C17.9731788,15.1375828 17.8539735,15.0124172 17.6751656,15.0124172 L17.6721854,15.0124172 Z M1.79403974,5.39850993 L1.79403974,4.79950331 L16.1701987,4.79950331 L16.1701987,5.39850993 L1.79403974,5.39850993 Z M14.0721854,6.00049669 L14.0721854,12.6104305 L12.8771523,12.6104305 L12.8771523,6.00049669 L14.0721854,6.00049669 Z M11.0771523,6.00049669 L11.0771523,12.6104305 L9.87913907,12.6104305 L9.87913907,6.00049669 L11.0771523,6.00049669 Z M8.08211921,6.00049669 L8.08211921,12.6104305 L6.88708609,12.6104305 L6.88708609,6.00049669 L8.08211921,6.00049669 Z M5.08708609,6.00049669 L5.08708609,12.6104305 L3.89205298,12.6104305 L3.89205298,6.00049669 L5.08708609,6.00049669 Z M16.1701987,13.8114238 L1.79701987,13.8114238 L1.79701987,13.2094371 L16.1731788,13.2094371 L16.1731788,13.8114238 L16.1701987,13.8114238 Z" id="Shape"></path>
        </g>
    </g>
</svg>