<svg xmlns="http://www.w3.org/2000/svg" xmlns:xlink="http://www.w3.org/1999/xlink" width="32" height="32" viewBox="0 0 32 32"><defs><linearGradient id="poly-c" x1="50%" x2="50%" y1="0%" y2="100%"><stop offset="0%" stop-color="#FFF" stop-opacity=".5"/><stop offset="100%" stop-opacity=".5"/></linearGradient><circle id="poly-b" cx="16" cy="15" r="15"/><filter id="poly-a" width="111.7%" height="111.7%" x="-5.8%" y="-4.2%" filterUnits="objectBoundingBox"><feOffset dy=".5" in="SourceAlpha" result="shadowOffsetOuter1"/><feGaussianBlur in="shadowOffsetOuter1" result="shadowBlurOuter1" stdDeviation=".5"/><feComposite in="shadowBlurOuter1" in2="SourceAlpha" operator="out" result="shadowBlurOuter1"/><feColorMatrix in="shadowBlurOuter1" values="0 0 0 0 0 0 0 0 0 0 0 0 0 0 0 0 0 0 0.199473505 0"/></filter><polygon id="poly-e" points="27 10.263 26.956 9.556 26.738 10.149 25.512 11.179 24.108 11.388 23.688 10.999 24.919 9.366 26.179 9 24.815 9.028 22.832 10.41 20.973 10.282 18.363 9 16.821 9.299 12.01 13.145 9.692 13.862 8.738 14.793 7.032 14.816 6.187 16.326 5 16.654 6.122 16.801 7.165 15.448 8.777 15.771 8.747 17.219 7.942 19.303 7.482 21.231 6.987 22 8.243 21.734 8.1 20.946 9.168 18.828 11.224 18.031 12.02 16.763 13.365 15.823 16.035 16.198 18.724 15.063 18.269 16.858 17.073 16.962 16.732 18.434 17.755 17.779 19.451 17.072 20.776 15.073 20.86 14.128 21.572 14.835 23.643 16.084 24.82 15.547 24.751 12.908 24.409 11.887 25.947 11.512"/><filter id="poly-d" width="115.9%" height="126.9%" x="-8%" y="-9.6%" filterUnits="objectBoundingBox"><feOffset dy=".5" in="SourceAlpha" result="shadowOffsetOuter1"/><feGaussianBlur in="shadowOffsetOuter1" result="shadowBlurOuter1" stdDeviation=".5"/><feColorMatrix in="shadowBlurOuter1" values="0 0 0 0 0 0 0 0 0 0 0 0 0 0 0 0 0 0 0.204257246 0"/></filter></defs><g fill="none" fill-rule="evenodd"><g fill-rule="nonzero"><use fill="#000" filter="url(#poly-a)" xlink:href="#poly-b"/><use fill="#4C5A95" fill-rule="evenodd" xlink:href="#poly-b"/><use fill="url(#poly-c)" fill-rule="evenodd" style="mix-blend-mode:soft-light" xlink:href="#poly-b"/><circle cx="16" cy="15" r="14.5" stroke="#000" stroke-opacity=".097"/></g><g fill-rule="nonzero"><use fill="#000" filter="url(#poly-d)" xlink:href="#poly-e"/><use fill="#FFF" fill-rule="evenodd" xlink:href="#poly-e"/></g></g></svg>