<svg height="32" viewBox="0 0 32 32" width="32" xmlns="http://www.w3.org/2000/svg" xmlns:xlink="http://www.w3.org/1999/xlink"><defs><linearGradient id="a" x1="50%" x2="50%" y1="0%" y2="100%"><stop offset="0" stop-color="#fff" stop-opacity=".5"/><stop offset="1" stop-opacity=".5"/></linearGradient><circle id="b" cx="16" cy="15" r="15"/><filter id="c" height="111.7%" width="111.7%" x="-5.8%" y="-4.2%"><feOffset dy=".5" in="SourceAlpha" result="shadowOffsetOuter1"/><feGaussianBlur in="shadowOffsetOuter1" result="shadowBlurOuter1" stdDeviation=".5"/><feComposite in="shadowBlurOuter1" in2="SourceAlpha" operator="out" result="shadowBlurOuter1"/><feColorMatrix in="shadowBlurOuter1" values="0 0 0 0 0   0 0 0 0 0   0 0 0 0 0  0 0 0 0.199473505 0"/></filter><path id="d" d="m12.0325653 17.1807346c-.1321463.6748529-.2608884 1.3305168-.3888268 1.9862269-.237296 1.2170008-.4748756 2.433863-.7098075 3.6512338-.0210867.1092619-.0488871.1837986-.1887399.1817641-.88199955-.0129006-1.76404638-.019559-2.64609321-.0295003-.02151219-.0002312-.04283525-.0147964-.09909789-.0355575.66096777-3.3012998 1.32236105-6.6047729 1.99018436-9.9404743h-1.67676838c.00387692-.073057.00108743-.1173999.0092195-.1597545.10292753-.537108.21412898-1.0728288.3071278-1.6115551.0258619-.1499057.09342435-.1880526.23280439-.1868041.40953525.0035604.8195433-.0116984 1.22855843.0024044.1952172.0067508.2705808-.0503076.3075061-.2421517.2283601-1.18708452.4723697-2.37134845.7065925-3.55746192.0279422-.1415827.0582956-.23812897.2431113-.23762034 2.0081506.0058723 4.0165376-.01354792 6.0243099.01262314 1.1722013.01525875 2.3470975.07444421 3.4996305.31229575.3978572.08207357.8006315.18749766 1.1690335.35136739 1.0581631.47066306 1.6946401 1.28427809 1.8718437 2.41148358.2752142 1.7508259-.0962138 3.3590981-1.2210883 4.7615621-.8281481 1.032555-1.9671119 1.6114627-3.2377964 1.9629226-1.0082359.2788652-2.0418609.3659788-3.0846109.3681982-1.354842.0028206-2.7096841-.0005086-4.0644789-.0012022-.0849614-.0000462-.1699227 0-.2726138 0zm.5557236-2.7391305h.2824478c1.4330897.0003699 2.866274.0035604 4.2993164-.0011559.3063241-.0010173.6145866-.0139179.9183575-.0503077 1.1561736-.1384385 2.0358564-.6927472 2.5973481-1.7010269.249825-.4486072.3133687-.9320784.2289747-1.4333052-.1173005-.6966775-.5342114-1.1521281-1.2410403-1.28007039-.5162451-.09344828-1.0442156-.1610954-1.5682618-.17034313-1.4720008-.02593988-2.9447107-.01581361-4.417137-.0191428-.0533313-.00013871-.1067099.00809176-.1776292.01382536-.0798551.40787096-.1582918.80880616-.2441515 1.24742586h4.0901518c-.1286003.664403-.250676 1.2950517-.3752103 1.9382312h-4.10339c-.0966394.4854131-.190442.9569085-.2897762 1.4558696z"/><filter id="e" height="121.9%" width="121.9%" x="-10.9%" y="-7.8%"><feOffset dy=".5" in="SourceAlpha" result="shadowOffsetOuter1"/><feGaussianBlur in="shadowOffsetOuter1" result="shadowBlurOuter1" stdDeviation=".5"/><feColorMatrix in="shadowBlurOuter1" values="0 0 0 0 0   0 0 0 0 0   0 0 0 0 0  0 0 0 0.204257246 0"/></filter></defs><g fill="none" fill-rule="evenodd"><use fill="#000" filter="url(#c)" xlink:href="#b"/><use fill="#105b2f" xlink:href="#b"/><use fill="url(#a)" xlink:href="#b"/><circle cx="16" cy="15" r="14.5" stroke="#000" stroke-opacity=".097"/><use fill="#000" filter="url(#e)" xlink:href="#d"/><use fill="#fff" xlink:href="#d"/></g></svg>