<svg height="32" viewBox="0 0 32 32" width="32" xmlns="http://www.w3.org/2000/svg" xmlns:xlink="http://www.w3.org/1999/xlink"><defs><linearGradient id="a" x1="50%" x2="50%" y1="0%" y2="100%"><stop offset="0" stop-color="#fff" stop-opacity=".5"/><stop offset="1" stop-opacity=".5"/></linearGradient><circle id="b" cx="16" cy="15" r="15"/><filter id="c" height="111.7%" width="111.7%" x="-5.8%" y="-4.2%"><feOffset dy=".5" in="SourceAlpha" result="shadowOffsetOuter1"/><feGaussianBlur in="shadowOffsetOuter1" result="shadowBlurOuter1" stdDeviation=".5"/><feComposite in="shadowBlurOuter1" in2="SourceAlpha" operator="out" result="shadowBlurOuter1"/><feColorMatrix in="shadowBlurOuter1" values="0 0 0 0 0   0 0 0 0 0   0 0 0 0 0  0 0 0 0.199473505 0"/></filter><path id="d" d="m11.191913 7h7.7645386c2.1472113.12663356 4.5106917 1.00915839 5.4597379 3.06 1.1871852 2.611495.5972375 6.2828019-2.0776416 7.7729901-2.46599 1.4106534-5.4157281.8536435-8.1236371.9693465-.0732597 1.3346733.3005088 2.8863566-.6299975 4.0148615-.3740385.5389702-2.0888915 1.1828019-2.0888915 1.1828019s-.1580394-1.4485102-.2159991-4.7093466c-.0366299-.9006534.1098895-1.9098118.8830764-2.4957031.9050363-.7776633 2.1875311-.5353267 3.2867867-.5751385 1.6598633-.0433664 3.4040562.2098118 4.9796798-.4304652 2.3120906-.9440199 2.3964203-4.8033665.0659697-5.7762677-2.3780603-.92233661-5.0053297-.08317822-7.4493598-.59317822-1.1104155-.31120753-1.6091935-1.40354417-1.8542625-2.41990068zm-4.191913 4.4308416c2.02994178.0361683 4.0636635-.0723366 6.0899153.0506534 1.4730241.1121485 2.4403402 1.4468218 2.5942395 2.8104653-2.0446117-.0108416-4.0929134.0651385-6.13797511-.0253267-1.25639491-.0723367-2.18339116-1.0923367-2.54617969-2.217287z"/><filter id="e" height="120.6%" width="119.4%" x="-9.7%" y="-7.4%"><feOffset dy=".5" in="SourceAlpha" result="shadowOffsetOuter1"/><feGaussianBlur in="shadowOffsetOuter1" result="shadowBlurOuter1" stdDeviation=".5"/><feColorMatrix in="shadowBlurOuter1" values="0 0 0 0 0   0 0 0 0 0   0 0 0 0 0  0 0 0 0.204257246 0"/></filter></defs><g fill="none" fill-rule="evenodd"><use fill="#000" filter="url(#c)" xlink:href="#b"/><use fill="#333" xlink:href="#b"/><use fill="url(#a)" xlink:href="#b"/><circle cx="16" cy="15" r="14.5" stroke="#000" stroke-opacity=".097"/><g fill-rule="nonzero"><use fill="#000" filter="url(#e)" xlink:href="#d"/><use fill="#fff" fill-rule="evenodd" xlink:href="#d"/></g></g></svg>