<svg xmlns="http://www.w3.org/2000/svg" xmlns:xlink="http://www.w3.org/1999/xlink" width="32" height="32" viewBox="0 0 32 32"><defs><filter id="a" width="111.7%" height="111.7%" x="-5.8%" y="-4.2%" filterUnits="objectBoundingBox"><feOffset dy=".5" in="SourceAlpha" result="shadowOffsetOuter1"/><feGaussianBlur in="shadowOffsetOuter1" result="shadowBlurOuter1" stdDeviation=".5"/><feComposite in="shadowBlurOuter1" in2="SourceAlpha" operator="out" result="shadowBlurOuter1"/><feColorMatrix in="shadowBlurOuter1" values="0 0 0 0 0 0 0 0 0 0 0 0 0 0 0 0 0 0 0.199473505 0"/></filter><filter id="d" width="115.9%" height="115.9%" x="-8%" y="-5.7%" filterUnits="objectBoundingBox"><feOffset dy=".5" in="SourceAlpha" result="shadowOffsetOuter1"/><feGaussianBlur in="shadowOffsetOuter1" result="shadowBlurOuter1" stdDeviation=".5"/><feColorMatrix in="shadowBlurOuter1" values="0 0 0 0 0 0 0 0 0 0 0 0 0 0 0 0 0 0 0.204257246 0"/></filter><linearGradient id="c" x1="50%" x2="50%" y1="0%" y2="100%"><stop offset="0%" stop-color="#FFF" stop-opacity=".5"/><stop offset="100%" stop-opacity=".5"/></linearGradient><circle id="b" cx="16" cy="15" r="15"/><path id="e" d="M16 4C9.925 4 5 8.925 5 15s4.925 11 11 11 11-4.925 11-11S22.075 4 16 4zm10.44 10.55l-.89.009-.004-.373.891-.008.004.372zm-.228-1.923l-.883.123-.051-.37.882-.122.052.37zm-.76-2.342l.154.34-.811.368-.154-.339.81-.369zM24.34 8.59l.246.28-.67.588-.245-.28.669-.588zm-1.305-1.393l.282.244-.581.674-.283-.243.582-.675zM21.48 5.938l.312.203-.485.747-.312-.202.485-.748zm-1.77-.873l.361.095-.226.861-.361-.095.227-.86zm-1.945-.478l.371.03-.074.888-.371-.031.074-.887zm-2.014-.235h.372v.891h-.372v-.891zm-1.654.235l.074.887-.372.032-.074-.888.372-.031zm-1.946.478l.226.861-.36.095-.227-.86.36-.096zm-1.769.873l.485.748-.313.202-.485-.747.313-.203zm-1.555 1.26l.581.674-.282.243-.581-.674.282-.244zm-1.304 1.39l.67.588-.247.28-.669-.587.246-.28zm-1.111 1.696l.81.369-.153.34-.811-.37.154-.339zm-.709 1.973l.883.122-.052.37-.882-.123.051-.37zm-.276 1.92l.89.008-.003.373-.89-.009.003-.372zm.082 2.092l.886-.09.037.37-.886.09-.037-.37zm.403 1.894l.868-.202.085.363-.868.202-.085-.363zm.971 2.263l-.184-.324.773-.442.185.324-.774.442zm1.262 1.587l-.271-.256.613-.647.27.256-.612.647zM9.57 23.28l-.303-.216.517-.726.303.217-.517.725zm1.664 1.111l-.33-.173.414-.788.33.173-.414.788zm1.841.708l-.368-.062.147-.878.368.062-.147.878zm1.609.302l-.007-.891.373-.004.007.891-.373.004zM6.74 15c0-5.106 4.154-9.26 9.26-9.26s9.26 4.154 9.26 9.26-4.154 9.26-9.26 9.26S6.74 20.106 6.74 15zm9.986 10.481l-.012.001-.081-.886.371-.034.012-.002.081.887-.371.034zm1.985-.418l-.155-.877.367-.065.155.878-.367.064zm1.894-.654l-.305-.837.35-.127.305.837-.35.127zm1.681-1.03l-.55-.7.292-.232.551.7-.293.231zm1.434-1.397l-.64-.618.258-.269.64.62-.258.267zm1.172-1.505l-.72-.525.22-.301.72.524-.22.302zm.952-1.79l-.842-.294.123-.352.841.294-.122.351zm.525-2.03l-.89-.04.017-.373.89.041-.017.372zm-6.833 3.075h-.001c.149.16.153.404.006.55-.147.145-.39.138-.549-.014v.001l-.278-.28-.632-.641a2.77 2.77 0 01-1.316.267h-1.738c-1.574.058-3.028-.728-2.91-3.284.004-.107-.007-1.483-.007-1.592l.003-1.032c-.003-2.55.62-3.706 2.338-4.115.195-.047 1.258-.07 1.461-.07h.091c.204 0 1.142.023 1.337.07 1.718.409 2.341 1.565 2.338 4.115l.003 1.033c0 .109-.011 1.484-.006 1.592.064 1.38-.332 1.98-.957 2.574l.54.545.277.281zm-2.659-.928c.199 0 .396-.028.586-.084l-.356-.36-.278-.282c-.15-.16-.153-.403-.006-.548.147-.146.39-.139.549.012l.277.28.499.506a1.27 1.27 0 00.074-.073c.466-.488.688-.896.643-1.886-.003-.07-.004-.071.003-1.313l.002-.317-.001-.698c-.001-.426-.002-.276-.002-.335.001-1.13-.127-2.112-.402-2.555-.163-.264-.445-.56-1.298-.766a15.308 15.308 0 00-1.162-.051h-.092c-.257 0-1.117.026-1.285.051-.854.206-1.136.502-1.299.766-.275.443-.403 1.425-.401 2.555 0 .06-.001-.091-.002.335a617.092 617.092 0 000 1.015c.007 1.242.007 1.244.003 1.313-.045.99.178 1.398.644 1.886.433.454.97.55 1.344.55l.081-.002.015-.001h1.783c.027.002.054.002.081.002z"/></defs><g fill="none"><use fill="#000" filter="url(#a)" xlink:href="#b"/><use fill="#1347E8" fill-rule="evenodd" xlink:href="#b"/><use fill="url(#c)" fill-rule="evenodd" style="mix-blend-mode:soft-light" xlink:href="#b"/><circle cx="16" cy="15" r="14.5" stroke="#000" stroke-opacity=".097"/><use fill="#000" filter="url(#d)" xlink:href="#e"/><use fill="#FFF" fill-rule="evenodd" xlink:href="#e"/></g></svg>