<svg height="32" viewBox="0 0 32 32" width="32" xmlns="http://www.w3.org/2000/svg" xmlns:xlink="http://www.w3.org/1999/xlink"><defs><linearGradient id="a" x1="50%" x2="50%" y1="0%" y2="100%"><stop offset="0" stop-color="#fff" stop-opacity=".5"/><stop offset="1" stop-opacity=".5"/></linearGradient><circle id="b" cx="16" cy="15" r="15"/><filter id="c" height="111.7%" width="111.7%" x="-5.8%" y="-4.2%"><feOffset dy=".5" in="SourceAlpha" result="shadowOffsetOuter1"/><feGaussianBlur in="shadowOffsetOuter1" result="shadowBlurOuter1" stdDeviation=".5"/><feComposite in="shadowBlurOuter1" in2="SourceAlpha" operator="out" result="shadowBlurOuter1"/><feColorMatrix in="shadowBlurOuter1" values="0 0 0 0 0   0 0 0 0 0   0 0 0 0 0  0 0 0 0.199473505 0"/></filter><path id="d" d="m16 4c-6.07508 0-11 4.92492-11 11s4.92492 11 11 11 11-4.92481 11-11-4.92481-11-11-11zm10.44065 10.55032-.891.00869-.00363-.3729.891-.00858zm-.22891-1.92313-.88253.12243-.05126-.36927.88242-.12243zm-.75999-2.34179.154.33946-.81092.36861-.154-.33935zm-1.111-1.69587.24607.28017-.66924.58795-.24607-.28017zm-1.30504-1.39227.28226.24332-.58135.67474-.28237-.24332zm-1.55518-1.25895.31284.20295-.48499.74723-.31262-.20295zm-1.76869-.87318.36047.09482-.22671.86141-.36058-.09493zm-1.94612-.47839.37158.03102-.07425.8877-.37147-.03146zm-2.01421-.23474h.37279v.891h-.37279zm-1.65363.23474.07414.8877-.37202.03113-.07414-.8877zm-1.94612.47839.22671.8613-.36047.09504-.22671-.86141zm-1.7688.87318.48477.74723-.31273.20295-.48488-.74723zm-1.55496 1.25895.58146.67474-.28237.24332-.58146-.67474zm-1.30504 1.39216.66913.58806-.24607.28017-.66902-.58795zm-1.111 1.69587.81081.36872-.154.33935-.81092-.36861zm-.70873 1.97252.88231.12243-.05126.36927-.88231-.12232zm-.27665 1.91972.891.00858-.00352.3729-.891-.00869zm.08206 2.09242.88616-.08998.03762.37092-.88616.08998zm.4037 1.89409.86746-.20251.08481.363-.86746.20262zm.97086 2.2627-.18458-.32395.77385-.44143.18458.32406zm1.26137 1.58708-.2706-.25619.6127-.64691.27071.25652zm1.4267 1.2672-.30327-.21648.517-.72512.30349.2167zm1.66353 1.111-.33-.17314.41459-.78837.33.17336zm1.84129.70796-.36762-.06149.14696-.87846.36773.06149zm1.60886.30162-.00726-.891.3729-.00319.00726.891zm-7.94475-10.4016c0-5.10598 4.15382-9.2598 9.2598-9.2598s9.2598 4.15382 9.2598 9.2598-4.15393 9.2598-9.2598 9.2598-9.2598-4.15393-9.2598-9.2598zm9.9858 10.48146-.01199.00099-.0814-.88693.37136-.03399.0121-.0011.0814.88704zm1.98462-.418-.15499-.87725.36707-.0649.15499.87725zm1.8942-.65417-.30448-.83721.35035-.12749.30426.83721zm1.68157-1.03114-.5511-.69982.29282-.231.55132.69982zm1.43352-1.3959-.64075-.61864.25905-.26818.64064.61875zm1.17216-1.50557-.72017-.52437.21945-.30129.72028.52437zm.9515-1.79025-.84128-.29293.12265-.352.84128.29315zm.52547-2.02895-.88979-.04136.01716-.37224.8899.04114zm-6.83342 3.0745-.00099.00033c.14927.1606.15345.40348.00627.5489s-.38995.13849-.5489-.01287v.00066l-.27753-.28083-.63261-.6402c-.40392.19624-.8547.28413-1.31593.2673h-1.738c-1.57399.05742-3.02786-.72787-2.91071-3.28383.00473-.10714-.00627-1.48357-.00627-1.59214s.00352-.92565.00352-1.03257c-.00363-2.54969.6193-3.70612 2.33794-4.11521.19437-.04631 1.25741-.0704 1.46069-.0704h.09119c.2035 0 1.14202.02409 1.3365.0704 1.71853.40953 2.34157 1.56585 2.33805 4.11576-.00011.10692.00352.92345.00352 1.03257s-.01133 1.48456-.00627 1.59214c.06391 1.38061-.33176 1.98-.957 2.574l.539.54527zm-2.65837-.92785c.1983194.0005877.3956582-.0278365.58575-.08437l-.3564-.36058-.27753-.28083c-.14927-.16038-.15345-.40326-.00627-.54868s.39017-.13849.5489.01254l.27764.28072.49863.50468c.02475-.0231.0495-.04708.07359-.07216.46618-.4884.6886-.89672.64328-1.88672-.00319-.06886-.00352-.07117.00363-1.31252.0011-.1683.00176-.28974.00176-.3168 0-.04818-.00077-.35871-.00154-.69828-.0011-.42614-.00209-.27577-.00209-.3355.00165-1.12981-.12617-2.11134-.40117-2.55508-.16313-.26312-.44517-.55957-1.29877-.76527-.16819-.02541-.90398-.05159-1.16138-.05159h-.09185c-.25751 0-1.11738.02618-1.28568.05159-.8536.2057-1.13564.50215-1.29877.76527-.27522.44374-.40282 1.42538-.40117 2.55508 0 .05973-.00121-.09064-.00209.3355-.00088.33946-.00154.6501-.00154.69828 0 .02695.00066.1485.00165.3168.00704 1.24135.00682 1.24366.00363 1.31252-.04543.98989.1771 1.39865.64339 1.88672.43318.45342.96976.54868 1.34376.54868.02695 0 .05434-.00055.0814-.00154l.01485-.00066h1.76814l.01485.00066c.02728.00154.05434.00154.0814.00154z"/><filter id="e" height="115.9%" width="115.9%" x="-8%" y="-5.7%"><feOffset dy=".5" in="SourceAlpha" result="shadowOffsetOuter1"/><feGaussianBlur in="shadowOffsetOuter1" result="shadowBlurOuter1" stdDeviation=".5"/><feColorMatrix in="shadowBlurOuter1" values="0 0 0 0 0   0 0 0 0 0   0 0 0 0 0  0 0 0 0.204257246 0"/></filter></defs><g fill="none" fill-rule="nonzero"><g><use fill="#000" filter="url(#c)" xlink:href="#b"/><use fill="#1347e8" fill-rule="evenodd" xlink:href="#b"/><use fill="url(#a)" fill-rule="evenodd" xlink:href="#b"/><circle cx="16" cy="15" r="14.5" stroke="#000" stroke-opacity=".097"/></g><g><use fill="#000" filter="url(#e)" xlink:href="#d"/><use fill="#fff" fill-rule="evenodd" xlink:href="#d"/></g></g></svg>