<svg xmlns="http://www.w3.org/2000/svg" xmlns:xlink="http://www.w3.org/1999/xlink" width="32" height="32" viewBox="0 0 32 32"><defs><linearGradient id="c" x1="50%" x2="50%" y1="0%" y2="100%"><stop offset="0%" stop-color="#FFF" stop-opacity=".5"/><stop offset="100%" stop-opacity=".5"/></linearGradient><circle id="b" cx="16" cy="15" r="15"/><filter id="a" width="111.7%" height="111.7%" x="-5.8%" y="-4.2%" filterUnits="objectBoundingBox"><feOffset dy=".5" in="SourceAlpha" result="shadowOffsetOuter1"/><feGaussianBlur in="shadowOffsetOuter1" result="shadowBlurOuter1" stdDeviation=".5"/><feComposite in="shadowBlurOuter1" in2="SourceAlpha" operator="out" result="shadowBlurOuter1"/><feColorMatrix in="shadowBlurOuter1" values="0 0 0 0 0 0 0 0 0 0 0 0 0 0 0 0 0 0 0.199473505 0"/></filter><path id="e" d="M25.313 22.636L23.34 20.88l-3.992 2.995a.8.8 0 0 1 .072.333.786.786 0 0 1-.778.792.783.783 0 0 1-.766-.644h-4.31a.783.783 0 0 1-.765.644.786.786 0 0 1-.779-.792.8.8 0 0 1 .071-.331l-3.546-2.64a.768.768 0 0 1-.516.199.786.786 0 0 1-.779-.792c0-.3.164-.561.406-.696l-1.303-4.16A.786.786 0 0 1 5.5 15a.786.786 0 0 1 .88-.785l1.281-4.161a.794.794 0 0 1-.409-.698c0-.437.349-.792.779-.792.202 0 .386.078.524.206l3.573-2.58a.799.799 0 0 1-.106-.398c0-.437.349-.792.779-.792.38 0 .697.277.765.644h4.31A.783.783 0 0 1 18.642 5c.43 0 .778.355.778.792a.8.8 0 0 1-.095.38l3.55 2.61a.77.77 0 0 1 .537-.218c.43 0 .778.355.778.792a.795.795 0 0 1-.354.665l1.276 4.189a.777.777 0 0 1 .83.79.786.786 0 0 1-.804.792l-1.497 4.83 1.917 1.706a1.15 1.15 0 0 1 .774-.298c.645 0 1.168.532 1.168 1.188 0 .656-.523 1.188-1.168 1.188a1.178 1.178 0 0 1-1.168-1.188c0-.212.054-.41.15-.582zm-6.605.783l1.487-3.349a.794.794 0 0 1-.256-.388l-3.45.502a.795.795 0 0 1-.188.395l2.047 2.895a.765.765 0 0 1 .36-.055zm.393.15l3.869-2.903-1.668-.726a.773.773 0 0 1-.753.295l-1.473 3.316a.78.78 0 0 1 .025.017zm-1.065.141l-2.06-2.912a.766.766 0 0 1-.51 0l-2.06 2.912a.795.795 0 0 1 .135.25h4.36a.795.795 0 0 1 .135-.25zm6.728-8.03a.794.794 0 0 1-.379-.68c0-.28.142-.525.357-.666l-1.206-3.96-.27 3.874c.31.104.535.401.535.752a.791.791 0 0 1-.529.75l.266 3.886 1.226-3.956zm-2.254-1.277l-1.584-3.105a.766.766 0 0 1-.4.022l-1.392 3.067a.796.796 0 0 1 .286.613.796.796 0 0 1-.295.62l1.435 3.054a.771.771 0 0 1 .31.012l1.619-3.11a.796.796 0 0 1-.246-.576c0-.238.104-.452.267-.597zm.374 1.377a.763.763 0 0 1-.054-.012l-1.617 3.104a.796.796 0 0 1 .243.704l1.74.758-.312-4.554zm-.006-1.558l.286-4.114a.781.781 0 0 1-.376-.277l-1.338.559a.81.81 0 0 1-.195.695l1.604 3.14a.763.763 0 0 1 .019-.003zm-4.108 1.56a.771.771 0 0 1-.335-.018l-2.123 3.77a.8.8 0 0 1 .145.254l3.468-.504c.04-.181.14-.34.278-.45L18.77 15.78zm.01-1.561l1.397-3.077a.795.795 0 0 1-.262-.483l-3.475-.505a.794.794 0 0 1-.164.251l2.139 3.835a.767.767 0 0 1 .366-.021zm-.682 1.346a.796.796 0 0 1-.235-.567c0-.214.084-.409.22-.551l-2.14-3.838a.767.767 0 0 1-.368.019l-2.207 3.827a.797.797 0 0 1 .212.543.796.796 0 0 1-.227.559l2.168 3.725a.768.768 0 0 1 .47.023l2.107-3.74zm-11.377.085l1.242 3.966.293-3.844A.79.79 0 0 1 7.642 15a.79.79 0 0 1 .627-.777l-.303-3.834-1.223 3.975a.795.795 0 0 1 .315.636c0 .27-.134.51-.337.652zm3.888 3.026a.77.77 0 0 1 .348.012l1.37-3.061a.796.796 0 0 1-.305-.629c0-.248.112-.469.287-.614l-1.392-3.066a.77.77 0 0 1-.292.005l-1.679 3.091A.796.796 0 0 1 9.2 15a.796.796 0 0 1-.24.572l1.65 3.106zm.324 1.55a.769.769 0 0 1-.78-.273l-1.35.588a.813.813 0 0 1-.038.365l3.575 2.662a.78.78 0 0 1 .032-.023l-1.44-3.32zm-.943-.633a.796.796 0 0 1 .267-.748l-1.613-3.035-.313 4.1a.784.784 0 0 1 .328.263l1.331-.58zm1.53-.299l3.465.494a.794.794 0 0 1 .197-.312l-2.164-3.717a.767.767 0 0 1-.332.023l-1.39 3.101a.79.79 0 0 1 .224.411zm-.02.397a.794.794 0 0 1-.222.35l1.463 3.375a.776.776 0 0 1 .353.056l2.048-2.895a.795.795 0 0 1-.188-.393l-3.454-.493zm-1.503-9.322l-1.331-.556a.784.784 0 0 1-.333.272l.32 4.051 1.616-2.976a.796.796 0 0 1-.272-.79zm.95-.595l1.375-3.24-3.553 2.566a.803.803 0 0 1 .036.343l1.37.573a.771.771 0 0 1 .772-.242zm.582.873a.795.795 0 0 1-.263.495l1.396 3.077a.77.77 0 0 1 .378.025l2.182-3.786a.794.794 0 0 1-.22-.306l-3.473.495zm-.24-.682c.084.08.15.179.193.289l3.465-.494a.796.796 0 0 1 .16-.398l-1.99-2.848a.765.765 0 0 1-.39.065L11.29 9.967zm9.323-.211a.775.775 0 0 1 .668.277l1.36-.568a.813.813 0 0 1 .029-.347L19.14 6.524l1.471 3.232zm-.656.51a.793.793 0 0 1 .29-.375l-1.51-3.313a.774.774 0 0 1-.41-.062l-1.99 2.848a.81.81 0 0 1 .16.4l3.46.503zM18.02 6.27a.795.795 0 0 1-.118-.23H13.54a.795.795 0 0 1-.119.23l1.994 2.853a.765.765 0 0 1 .61 0L18.02 6.27z"/><filter id="d" width="115.9%" height="117.5%" x="-8%" y="-6.2%" filterUnits="objectBoundingBox"><feOffset dy=".5" in="SourceAlpha" result="shadowOffsetOuter1"/><feGaussianBlur in="shadowOffsetOuter1" result="shadowBlurOuter1" stdDeviation=".5"/><feColorMatrix in="shadowBlurOuter1" values="0 0 0 0 0 0 0 0 0 0 0 0 0 0 0 0 0 0 0.204257246 0"/></filter></defs><g fill="none" fill-rule="evenodd"><use fill="#000" filter="url(#a)" xlink:href="#b"/><use fill="#2E9AD0" xlink:href="#b"/><use fill="url(#c)" style="mix-blend-mode:soft-light" xlink:href="#b"/><circle cx="16" cy="15" r="14.5" stroke="#000" stroke-opacity=".097"/><g fill-rule="nonzero"><use fill="#000" filter="url(#d)" xlink:href="#e"/><use fill="#FFF" fill-rule="evenodd" xlink:href="#e"/></g></g></svg>