<svg width="32" height="32" viewBox="0 0 32 32" version="1.1" xmlns="http://www.w3.org/2000/svg" xmlns:xlink="http://www.w3.org/1999/xlink"><title>svg/icon/rap</title><desc>Created with Sketch.</desc><defs><linearGradient x1="50%" y1="0%" x2="50%" y2="100%" id="linearGradient-1"><stop stop-color="#FFF" offset="0%"/><stop stop-color="#000" offset="100%"/></linearGradient><circle id="path-2" cx="15" cy="15" r="15"/><filter x="-5.8%" y="-4.2%" width="111.7%" height="111.7%" filterUnits="objectBoundingBox" id="filter-3"><feOffset dx="0" dy=".5" in="SourceAlpha" result="shadowOffsetOuter1"/><feGaussianBlur stdDeviation=".5" in="shadowOffsetOuter1" result="shadowBlurOuter1"/><feComposite in="shadowBlurOuter1" in2="SourceAlpha" operator="out" result="shadowBlurOuter1"/><feColorMatrix values="0 0 0 0 0 0 0 0 0 0 0 0 0 0 0 0 0 0 0.199473505 0" type="matrix" in="shadowBlurOuter1"/></filter></defs><g id="icon/rap" stroke="none" stroke-width="1" fill="none" fill-rule="evenodd"><g id="Group" transform="translate(1.000000, 0.000000)" fill-rule="nonzero"><g id="Oval"><use fill="#000" fill-opacity="1" filter="url(#filter-3)" xlink:href="#path-2"/><use fill="#000" xlink:href="#path-2"/><use fill="url(#linearGradient-1)" style="mix-blend-mode:soft-light" xlink:href="#path-2"/><circle stroke-opacity=".097" stroke="#000" stroke-width="1" stroke-linejoin="square" cx="15" cy="15" r="14.5"/></g></g><g id="Rapture-(RAP)" transform="translate(9.000000, 5.000000)" fill="#FFF" fill-rule="nonzero"><path d="M3.47826087,0.434782609 L3.47826087,19.9130435 L0,19.9130435 L0,0 L3.47826087,0 L3.47826087,0.434782609 Z M5.95652174,0 L7.91304348,0 C11.9565217,0 14.6521739,2.56521739 14.6521739,6.2173913 C14.6521739,9.17391304 13.0434783,11.4347826 10.1304348,12.173913 L15.2173913,19.9130435 L11.1304348,19.9130435 L4.17391304,9.13043478 L7.52173913,9.13043478 C9.73913043,9.13043478 11.1304348,8.13043478 11.1304348,6.17391304 C11.1304348,4.2173913 9.73913043,3.2173913 7.52173913,3.2173913 L6,3.2173913 L6,0 L5.95652174,0 Z" id="Shape"/></g></g></svg>