<svg height="32" viewBox="0 0 32 32" width="32" xmlns="http://www.w3.org/2000/svg" xmlns:xlink="http://www.w3.org/1999/xlink"><defs><linearGradient id="a" x1="50%" x2="50%" y1="0%" y2="100%"><stop offset="0" stop-color="#fff" stop-opacity=".5"/><stop offset="1" stop-opacity=".5"/></linearGradient><circle id="b" cx="16" cy="15" r="15"/><filter id="c" height="111.7%" width="111.7%" x="-5.8%" y="-4.2%"><feOffset dy=".5" in="SourceAlpha" result="shadowOffsetOuter1"/><feGaussianBlur in="shadowOffsetOuter1" result="shadowBlurOuter1" stdDeviation=".5"/><feComposite in="shadowBlurOuter1" in2="SourceAlpha" operator="out" result="shadowBlurOuter1"/><feColorMatrix in="shadowBlurOuter1" values="0 0 0 0 0   0 0 0 0 0   0 0 0 0 0  0 0 0 0.199473505 0"/></filter><path id="d" d="m14.3593872 5.62706515c.8501849-.15827388 1.7211596-.13986994 2.5813543-.09743262.991754.11626959 1.9853779.32477539 2.8977124.7342089 1.8199389.75293761 3.3802794 2.08343412 4.422633 3.73058664.3930276.57268723.656696 1.21498473.9223444 1.85121973.2456285-.3921122.4658472-.7992722.6793559-1.2090305.0920694-.1931331.2850083-.3428546.5098469-.3330031.3022781-.0315032.5992763.2114288.6246862.5096809.0246398.2403338-.1261692.4478652-.2256086.6553967-.3116281.6311469-.7149957 1.2124948-1.1318932 1.7797692-.0769995.0827094-.0446597.1963808-.0354197.2961951.4638671 2.7373153-.4190975 5.6510918-2.300416 7.7126577-1.0697435 1.2004781-2.4546351 2.1205668-3.9769158 2.6703033-1.7578993.6146915-3.6938875.7532624-5.5125065.3231515-2.6354739-.5707386-4.9678997-2.3083952-6.29394163-4.6148418-.28962824-.4669187-.47453711-.9858016-.70344572-1.4816253-.24958848.3842093-.46199718.7894207-.67539588 1.193333-.10020197.2029256-.30256253.3380346-.53118677.3546547-.38103768.0006496-.72676557-.4097582-.57331651-.774914.32790801-.7546698.77692527-1.4520708 1.27962221-2.1042198.10812934-.1135631.09272944-.2732443.07270956-.4144134-.1814989-1.1998285-.13683917-2.4358154.16081902-3.6139923.76999531-3.32353478 3.52910852-6.10047262 6.87495812-6.96469994.3096481-.07350749.6192962-.150371.9343343-.20298461zm-2.3612456 2.0102514c-1.7729692.93188885-3.19933051 2.49081075-3.940836 4.33120455-.4271274 1.112464-.64536607 2.3083953-.57859647 3.4984805.18778292-.1412493.36660923-.2936733.53547674-.4564176.99505394-.8877194 2.16027683-1.5754855 3.37818943-2.1239228 2.2630162-1.0284554 4.754391-1.4717738 7.231026-1.5913994-.8375349-.8682329-1.7451394-1.66880425-2.5820143-2.53692886.2639984-.28959139.5492266-.55883019.8359949-.82612034.324388.29424651.6246862.61274291.9430243.91348492 1.0290437 1.02520764 2.0908672 2.01945338 3.1039611 3.05905938-1.0798635 1.077713-2.1883267 2.1271706-3.2680801 3.2044505-.0909588.0854273-.1864236.1660832-.2859983.2416329-.2722483-.2738939-.5886064-.5142277-.8061851-.8346727.664066-.696102 1.4189914-1.3062467 2.0569875-2.0267067-1.1419031.0158057-2.2784161.1773273-3.3962293.3986076-.9029845.1623877-1.7709893.4669188-2.637454.7578093-1.8166389.6797549-3.49170872 1.7646129-4.76836095 3.2140855-.07611953.0749148-.0654496.1858798-.04465972.2803894.15080908.6474939.43515735 1.2537413.74799544 1.8388783 1.02970373 1.8579317 2.80894293 3.2928976 4.85449043 3.940608 1.1959127.3680788 2.471905.5095726 3.7165474.3369004 1.7318294-.216517 3.3879794-.971295 4.6722215-2.1350734 1.8652587-1.6437965 2.9117923-4.1485726 2.7499833-6.6080966-.1962388.1529692-.3723477.3276983-.5565966.4932255-1.2471084 1.074202-2.6864132 1.9106594-4.2444342 2.4666691-2.0204677.7491486-4.1719446 1.138013-6.3269415 1.1984212.1882089.2456384.4204175.4525204.6393162.6712025.644706.6278991 1.2813822 1.2642423 1.9359882 1.8815321-.2522285.2974942-.5459267.5562319-.824225.8281772-.2782983-.226585-.5205168-.4912769-.7787953-.738864-.975034-.9450964-1.9387382-1.9012351-2.9103623-2.8489297-.1319991-.1254716-.2615784-.2541909-.3697077-.3999068.4204174-.4525204.9043045-.8419261 1.3347319-1.2845949.7400755-.7145059 1.4602411-1.4506634 2.2090065-2.1567251.2796183.271837.5739765.5326316.823565.8335901-.6660459.6896065-1.3749916 1.3383994-2.0495075 2.020103.7394155.0368078 1.470251-.0912619 2.2029566-.1602226.5311867-.0558613 1.0518136-.1766778 1.5743104-.2850445 2.6855236-.6193467 5.3003177-1.8953892 7.1022167-3.9962529-.6906857-2.9836033-3.2273803-5.43933823-6.2465319-6.13392453-2.0107878-.51119647-4.2031844-.22019772-6.0324733.73529148z"/><filter id="e" height="118.4%" width="115.9%" x="-8%" y="-6.6%"><feOffset dy=".5" in="SourceAlpha" result="shadowOffsetOuter1"/><feGaussianBlur in="shadowOffsetOuter1" result="shadowBlurOuter1" stdDeviation=".5"/><feColorMatrix in="shadowBlurOuter1" values="0 0 0 0 0   0 0 0 0 0   0 0 0 0 0  0 0 0 0.204257246 0"/></filter></defs><g fill="none" fill-rule="evenodd"><use fill="#000" filter="url(#c)" xlink:href="#b"/><use fill="#3555f9" xlink:href="#b"/><use fill="url(#a)" xlink:href="#b"/><circle cx="16" cy="15" r="14.5" stroke="#000" stroke-opacity=".097"/><g fill-rule="nonzero"><use fill="#000" filter="url(#e)" xlink:href="#d"/><use fill="#fff" fill-rule="evenodd" xlink:href="#d"/></g></g></svg>