<svg height="32" viewBox="0 0 32 32" width="32" xmlns="http://www.w3.org/2000/svg" xmlns:xlink="http://www.w3.org/1999/xlink"><defs><linearGradient id="a" x1="50%" x2="50%" y1="0%" y2="100%"><stop offset="0" stop-color="#fff" stop-opacity=".5"/><stop offset="1" stop-opacity=".5"/></linearGradient><circle id="b" cx="16" cy="15" r="15"/><filter id="c" height="111.7%" width="111.7%" x="-5.8%" y="-4.2%"><feOffset dy=".5" in="SourceAlpha" result="shadowOffsetOuter1"/><feGaussianBlur in="shadowOffsetOuter1" result="shadowBlurOuter1" stdDeviation=".5"/><feComposite in="shadowBlurOuter1" in2="SourceAlpha" operator="out" result="shadowBlurOuter1"/><feColorMatrix in="shadowBlurOuter1" values="0 0 0 0 0   0 0 0 0 0   0 0 0 0 0  0 0 0 0.199473505 0"/></filter></defs><g fill="none" fill-rule="evenodd"><use fill="#000" filter="url(#c)" xlink:href="#b"/><use fill="#e30613" xlink:href="#b"/><use fill="url(#a)" xlink:href="#b"/><circle cx="16" cy="15" r="14.5" stroke="#000" stroke-opacity=".097"/><g fill="#fff" transform="translate(5 4)"><path d="m10.3614336 22c-5.72246175 0-10.3614336-4.5926053-10.3614336-10.2578711 0-5.66526572 4.63897185-10.25787103 10.3614336-10.25787103 5.7224618 0 10.3614336 4.59260531 10.3614336 10.25787103 0 5.6652658-4.6389718 10.2578711-10.3614336 10.2578711zm1.7876527-17.57702149c2.4156689.98862569 4.1523473 2.84922539 5.3839475 5.35784108l.9307522-.64702649c-1.0449167-2.51136431-2.9739425-4.48575712-6.0768198-5.76628685z" opacity=".75"/><path d="m21.991893 4.32149925c0-2.38646677-1.9545684-4.32149925-4.3651287-4.32149925-2.4105604 0-4.3651288 1.93503248-4.3651288 4.32149925.0000538.22731522.0180999.45427678.0539728.6788006 1.453155.84657671 2.6208985 2.06069965 3.5537607 3.57651174.2502439.04367739.5038475.06574937.7579505.06596702 2.4100051.00021989 4.3645735-1.9345927 4.3645735-4.32127936z" fill-rule="nonzero"/></g></g></svg>