<svg height="32" viewBox="0 0 32 32" width="32" xmlns="http://www.w3.org/2000/svg" xmlns:xlink="http://www.w3.org/1999/xlink"><defs><linearGradient id="a" x1="50%" x2="50%" y1="0%" y2="100%"><stop offset="0" stop-color="#fff" stop-opacity=".5"/><stop offset="1" stop-opacity=".5"/></linearGradient><circle id="b" cx="16" cy="15" r="15"/><filter id="c" height="111.7%" width="111.7%" x="-5.8%" y="-4.2%"><feOffset dy=".5" in="SourceAlpha" result="shadowOffsetOuter1"/><feGaussianBlur in="shadowOffsetOuter1" result="shadowBlurOuter1" stdDeviation=".5"/><feComposite in="shadowBlurOuter1" in2="SourceAlpha" operator="out" result="shadowBlurOuter1"/><feColorMatrix in="shadowBlurOuter1" values="0 0 0 0 0   0 0 0 0 0   0 0 0 0 0  0 0 0 0.199473505 0"/></filter><path id="d" d="m10 5.00570995h8.1114222c.0973999-.02909998.1479882.05999997.2115963.10999995.7687633.71589964 1.4448974 1.52879924 2.0459938 2.39089881.8391298 1.21149939 1.5170528 2.53999869 1.97195 3.94489799.4824276 1.4840993.7107209 3.0540985.6492 4.6148977-1.3781752-.0003333-2.7563503-.0003333-4.1345255 0 .0233561-.2071999.0251451-.4160997.0224616-.6241996-.0434324-1.4715993-.4969382-2.9137986-1.2119328-4.191798-.7652847-1.36939928-1.833503-2.55069869-3.047026-3.5315982-1.3218555-1.06879947-2.8102847-1.91239905-4.3607318-2.59519871-.0856721-.03959998-.1754191-.07159996-.2584078-.11789994zm3.0015065 7.32689635c1.3873851 2.5099321 2.7725174 5.0211975 4.1553969 7.5337963.3328492.6055997.6695745 1.2091994.9996408 1.8162991-1.7205987 1.1026994-3.4356317 2.2140988-5.1560316 3.3172983.0011927-4.2224646.001524-8.4449291.0009939-12.6673937z"/><filter id="e" height="117.5%" width="126.9%" x="-13.5%" y="-6.2%"><feOffset dy=".5" in="SourceAlpha" result="shadowOffsetOuter1"/><feGaussianBlur in="shadowOffsetOuter1" result="shadowBlurOuter1" stdDeviation=".5"/><feColorMatrix in="shadowBlurOuter1" values="0 0 0 0 0   0 0 0 0 0   0 0 0 0 0  0 0 0 0.204257246 0"/></filter></defs><g fill="none" fill-rule="nonzero"><g><use fill="#000" filter="url(#c)" xlink:href="#b"/><use fill="#2a2a2a" fill-rule="evenodd" xlink:href="#b"/><use fill="url(#a)" fill-rule="evenodd" xlink:href="#b"/><circle cx="16" cy="15" r="14.5" stroke="#000" stroke-opacity=".097"/></g><g><use fill="#000" filter="url(#e)" xlink:href="#d"/><use fill="#fff" fill-rule="evenodd" xlink:href="#d"/></g></g></svg>