<svg width="32" height="32" viewBox="0 0 32 32" xmlns="http://www.w3.org/2000/svg" xmlns:xlink="http://www.w3.org/1999/xlink"><defs><linearGradient x1="50%" y1="0%" x2="50%" y2="100%" id="c"><stop stop-color="#FFF" stop-opacity=".5" offset="0%"/><stop stop-opacity=".5" offset="100%"/></linearGradient><filter x="-5.8%" y="-4.2%" width="111.7%" height="111.7%" filterUnits="objectBoundingBox" id="a"><feOffset dy=".5" in="SourceAlpha" result="shadowOffsetOuter1"/><feGaussianBlur stdDeviation=".5" in="shadowOffsetOuter1" result="shadowBlurOuter1"/><feComposite in="shadowBlurOuter1" in2="SourceAlpha" operator="out" result="shadowBlurOuter1"/><feColorMatrix values="0 0 0 0 0 0 0 0 0 0 0 0 0 0 0 0 0 0 0.199473505 0" in="shadowBlurOuter1"/></filter><circle id="b" cx="15" cy="15" r="15"/></defs><g fill="none"><g transform="translate(1)"><use fill="#000" filter="url(#a)" xlink:href="#b"/><use fill="#001B3A" xlink:href="#b"/><use fill="url(#c)" style="mix-blend-mode:soft-light" xlink:href="#b"/><circle stroke-opacity=".097" stroke="#000" stroke-linejoin="square" cx="15" cy="15" r="14.5"/></g><path d="M9.026 8.636l-.228-.374L6 9.872v-.244L15.743 4l.21.13.442.244.438.26-5.97 3.448-.227-.374-1.61.928zm0 3.545l-.228-.374L6 13.417v-.261l12.816-7.383.214.13.438.243.439.26-5.987 3.45-.21-.375-4.684 2.7zm0 1.772l-.228-.388L6 15.189v-.258L20.346 6.65l.21.13.442.261.438.246-5.987 3.447-.21-.373-6.213 3.592zm0 1.758l-.228-.374L6 16.947v-.243l15.875-9.159.21.115.44.259.44.245-5.936 3.433-.213-.376-7.79 4.49zm0 1.772l-.228-.373L6 18.72v-.244l17.404-10.05.229.127.42.246.442.26-5.937 3.433-.213-.391-9.319 5.382zm16.133-8.05l.326.195v.635l-6.927 3.984-.213-.374-9.319 5.383-.228-.374L6 20.492v-.243L24.934 9.303l.225.13zM7.203 21.567l-.21-.13 18.492-10.67v1.251l-6.962 4.034-.226-.389-9.303 5.383-.229-.374-1.562.895zm11.094-4.131l-7.744 4.472-.226-.373-1.594.927-.21-.13 16.962-9.793v1.254l-6.962 4.034-.226-.391zm-8.035 5.904l-.213-.13 15.436-8.913v1.268l-6.962 4.017-.226-.374-6.215 3.595-.21-.39-1.61.927zm1.544.877l-.228-.112 13.907-8.036v1.269l-6.962 4.016-.226-.373-4.685 2.7-.211-.374-1.595.91zm1.302.765l12.377-7.14v1.268l-6.962 4.02-.226-.377-3.156 1.823-.21-.391-1.595.927-.228-.13zm1.757 1.008l-.213-.113 10.833-6.263v1.269l-6.962 4.019-.226-.391-1.612.942-.225-.373-1.595.91zm3.513-20.478l-5.985 3.45-.213-.374-3.154 1.82-.228-.373L6 11.645V11.4l11.272-6.524.228.13.439.262.439.243z" fill="#FFF"/></g></svg>