<svg height="32" viewBox="0 0 32 32" width="32" xmlns="http://www.w3.org/2000/svg" xmlns:xlink="http://www.w3.org/1999/xlink"><defs><linearGradient id="a" x1="50%" x2="50%" y1="0%" y2="100%"><stop offset="0" stop-color="#fff" stop-opacity=".5"/><stop offset="1" stop-opacity=".5"/></linearGradient><circle id="b" cx="16" cy="15" r="15"/><filter id="c" height="111.7%" width="111.7%" x="-5.8%" y="-4.2%"><feOffset dy=".5" in="SourceAlpha" result="shadowOffsetOuter1"/><feGaussianBlur in="shadowOffsetOuter1" result="shadowBlurOuter1" stdDeviation=".5"/><feComposite in="shadowBlurOuter1" in2="SourceAlpha" operator="out" result="shadowBlurOuter1"/><feColorMatrix in="shadowBlurOuter1" values="0 0 0 0 0   0 0 0 0 0   0 0 0 0 0  0 0 0 0.199473505 0"/></filter><path id="d" d="m20.582449 15.3116046c-.2439692-.6891496-.6647981-1.3047853-1.2217892-1.7873703-.0675499-.058653-.1366707-.1149906-.2073625-.169013l-.0082474-.0069458c-.0691208-.0524789-.1402053-.1030285-.2132534-.1516486l-.0141384-.009261c-.0714772-.0470767-.1441326-.092224-.2179662-.1354419l-.0188512-.0115763c-.0730481-.0424462-.1476672-.0810336-.2238572-.1157623l-.0223857-.0115762c-.0785464-.037044-.1570928-.0721586-.2356392-.1053438l-.0259203-.0104186c-.0683354-.0277829-.1366708-.0555659-.2073625-.079876-.1921197-.0685433-.3889894-.123478-.589098-.1643825-.156224.2844413-.3579045.5423997-.5973454.7640314.5625637.0452357 1.1053539.2248611 1.581139.5232457l.0270985.0162067c.0447715.0289406.0883647.0590388.131958.0902947l.060088.0416744c.0388804.0289406.0765827.0590388.1178196.089137l.0671571.0544083c.0353459.0300982.0683354.0601964.1025031.0914522l.0683354.0648269c.0318112.0312559.0624443.0625117.0930774.0937675l.0671572.0729303c.0282767.0316417.0561607.0640551.0836519.0972403l.0648008.0810337c.0259203.0324134.0506624.0659845.0754045.0995556.0247422.033571.0412369.0590388.0612662.0879793.0200294.0289406.0459497.0671422.0671572.1018709s.0388805.0636693.0577316.0960827c.0188511.0324135.0400587.0682998.0589098.1018709.0188511.033571.0353459.070615.0530188.1065013.017673.0358863.0341677.0659845.0494842.1007132.0153166.0347287.0365241.0879794.0541971.1331267.0950884.2371191.1622887.4841375.2002933.7362484l.108394.4040105c.0459496.1678554.4712784 1.6554013 1.4562502 2.1566522 1.1287118.5788117 2.6238424 1.2942228 3.2117622 1.5766829l-7.7654896 4.5610358v-3.1255829c0-.4931475 1.0002884-1.0708015 1.4621412-1.2733856l.0270985-.0150491c.0954339-.0463049.1896896-.0972404.2804107-.1516487l.0388804-.0208372c.200987-.120017.3916989-.2559075.5702469-.4063258l.048306-.042832.054197-.0486202c.0565534-.0509354.1115359-.1030285.1649475-.1562791l.0282767-.0266254c.0589098-.0590388.1178196-.1157623.1696602-.1840621l.0494842-.0567235c.043986-.0517072.086401-.104572.1272452-.1585944l.0353458-.0451473c.0494843-.0659845.0966121-.1342843.1425618-.2025841l.0153165-.0208372c.0624444-.0960827.1178196-.1933231.1755512-.2940363-.2182185-.2636291-.4048169-.5510691-.5561085-.8566412-.0624476.1733698-.1392889.3414047-.2297482.5024085-.0384877.0694574-.0777609.1373713-.1178196.2037417l-.0188511.0266253c-.0377023.0563377-.0769755.1115177-.1178196.1655401l-.0353459.0463049c-.0408441.052479-.0836519.1034144-.1284234.1528063l-.0235639.027783c-.2882317.3152153-.6338774.5747326-1.0191395.765189l-.0730481.0370439c-.1967588.0868218-1.9334196.8566412-1.9334196 2.028156v3.1255829l-7.79023173-4.5679815c.50191148-.3056125 1.96523083-1.1576233 3.16934713-1.5326932.4712784-.1447029 1.4715668.4723103 2.038279.9260986l.0341677.0300982c.0742264.0694574.1531655.1365995.2356392.2002688l.0282767.0243101c.1800214.1437406.3715051.2730386.5726032.3866462l.1354926.0729303.0270985.0138914c.1307132.0665164.2648107.1264055.4017648.1794317l.0589098.0231524.0412369.0162067c.1969267.071285.3989491.1281637.6044145.1701707.1609775-.2877729.3691718-.5474807.6161965-.7686619-.3290352-.0241993-.6528185-.0947648-.9614079-.2095298l-.0530188-.0196796-.1013249-.0416744-.0518406-.0219949-.0989685-.0463049c-.2298262-.1111431-.4463719-.2470328-.6456514-.4051682l-.3098655-.2766719c-.2841871-.2447372-.5924255-.4611184-.9201711-.6459538-.7705401-.4306359-1.4138351-.5707083-1.9074992-.417902-1.0297433.3183464-2.19026631.9365172-2.89836209 1.3440006l7.77844979-13.71667827v6.00690717c0 .2130027-.3204693.7686619-1.3890931 1.2409722l-.0742263.0393592c-.1036813.0497778-.2050061.1041861-.3039746.1620673l-.0200293.0104186c-.2020958.1191575-.3939894.2542734-.5737814.4040105-.1131406.0944406-.2212836.1945131-.3240039.2998244l-.0106038.0104186c-.1009943.1039867-.1965512.2129435-.2863016.3264498l-.011782.0150491c-.0432005.0555659-.0852228.1119036-.1260669.169013l-.0141384.0208372c-.0369168.0532507-.0730481.107659-.108394.1632249l-.011782.0173643c-.0353459.0563377-.0691208.113833-.1013248.1724859l-.0223858.0416745c-.0294549.0555659-.0589098.1157623-.0871865.1678553l-.0129601.0266254c-.0259203.0532506-.0494842.1065013-.0730482.1609096l-.0247421.0590388c-.0235639.0567235-.0447714.1157623-.065979.1701706l-.0200293.0601964c-.0149238.0424462-.0286694.0856641-.0412368.1296538-.0070692.0243101-.0153166.0474626-.0212076.0717727-.0157093.0555659-.0302403.1115177-.0435932.1678553-.0070692.0266254-.0129602.0544083-.0188512.0821913-.0058909.027783-.0164947.0787184-.0235639.1157623-.0070692.037044-.0129601.0694574-.0188511.1053437-.005891.0358864-.0141384.0949252-.0200293.1423877-.005891.0474626-.0070692.061354-.0106038.0926099-.0035346.0312558-.0082474.0845065-.0106038.1273385-.0023564.0428321 0 .0845065-.0070692.1273386-.0070691.0428321 0 .052093 0 .0787184v.0960827c.0001716.2104185.0163184.4205313.0483061.6285895.3354996.0822563.6598267.203504.9661207.3611784-.0941972-.3025737-.1445685-.6166711-.1496309-.9330443v-.0567236c0-.0764031 0-.1516486.0082474-.2315246v-.0590388c0-.0659846.0129601-.1319691.0223857-.196796v-.0277829c.0106037-.0729303.0247421-.144703.0412368-.215318l.0129602-.0544083c.0141383-.0594246.0302404-.1184634.048306-.1771163l.011782-.0382016c.0212075-.0686857.0451642-.1362137.0718699-.2025841l.0188512-.0451473c.0227784-.0555659.0467351-.1107459.0718699-.1655401l.0188512-.0416745c.0314185-.0648269.0648007-.1284961.1001466-.1910078l.0188512-.0312558c.0314185-.0540224.064408-.1072731.0989684-.159752l.0247421-.037044c.0412369-.0601964.083652-.1157623.1284234-.178274l.0082474-.0104186c.042415-.0544083.0871865-.1076589.1331361-.159752l.0259203-.0300982c.2105147-.23191.4523219-.4344415.7186996-.6019641l.3687753-.1701706c.1967587-.0868218 1.9251722-.8786361 1.9251722-2.0501509v-6.00690717l7.8385377 13.81970677c-.6998484-.3368684-1.9287067-.9318868-2.8889365-1.4204038-.5490393-.2801448-.9225274-1.2664399-1.0191395-1.6206726l-.1060376-.4144291c-.0391935-.2226198-.0967214-.4417449-.1720166-.6552148zm5.3101292 4.3503483-8.6420674-15.22621903c-.1527422-.26901342-.4417057-.43573387-.7552236-.43573387-.3135178 0-.6024814.16672045-.7552236.43573387l-8.63146362 15.22737663c-.22602912.3988911-.08821027.9020711.31104373 1.1356285l8.63617639 5.0808086c.2735629.1606032.6147969.1606032.8883598 0l8.6361764-5.0761781c.399254-.2335574.5370728-.7367375.3110437-1.1356285z"/><filter id="e" height="115.9%" width="118.4%" x="-9.2%" y="-5.7%"><feOffset dy=".5" in="SourceAlpha" result="shadowOffsetOuter1"/><feGaussianBlur in="shadowOffsetOuter1" result="shadowBlurOuter1" stdDeviation=".5"/><feColorMatrix in="shadowBlurOuter1" values="0 0 0 0 0   0 0 0 0 0   0 0 0 0 0  0 0 0 0.204257246 0"/></filter></defs><g fill="none" fill-rule="evenodd"><use fill="#000" filter="url(#c)" xlink:href="#b"/><use fill="#602a52" xlink:href="#b"/><use fill="url(#a)" xlink:href="#b"/><circle cx="16" cy="15" r="14.5" stroke="#000" stroke-opacity=".097"/><use fill="#000" filter="url(#e)" xlink:href="#d"/><use fill="#fff" xlink:href="#d"/></g></svg>