<?xml version="1.0" encoding="UTF-8"?>
<svg width="32px" height="32px" viewBox="0 0 32 32" version="1.1" xmlns="http://www.w3.org/2000/svg" xmlns:xlink="http://www.w3.org/1999/xlink">
    <title>svg/icon/req</title>
    <defs>
        <linearGradient x1="50%" y1="0%" x2="50%" y2="100%" id="linearGradient-1">
            <stop stop-color="#FFFFFF" stop-opacity="0.5" offset="0%"></stop>
            <stop stop-color="#000000" stop-opacity="0.5" offset="100%"></stop>
        </linearGradient>
        <circle id="path-2" cx="16" cy="15" r="15"></circle>
        <filter x="-5.8%" y="-4.2%" width="111.7%" height="111.7%" filterUnits="objectBoundingBox" id="filter-3">
            <feOffset dx="0" dy="0.5" in="SourceAlpha" result="shadowOffsetOuter1"></feOffset>
            <feGaussianBlur stdDeviation="0.5" in="shadowOffsetOuter1" result="shadowBlurOuter1"></feGaussianBlur>
            <feComposite in="shadowBlurOuter1" in2="SourceAlpha" operator="out" result="shadowBlurOuter1"></feComposite>
            <feColorMatrix values="0 0 0 0 0   0 0 0 0 0   0 0 0 0 0  0 0 0 0.199473505 0" type="matrix" in="shadowBlurOuter1"></feColorMatrix>
        </filter>
    </defs>
    <g id="icon/req" stroke="none" stroke-width="1" fill="none" fill-rule="evenodd">
        <g id="Oval">
            <use fill="black" fill-opacity="1" filter="url(#filter-3)" xlink:href="#path-2"></use>
            <use fill="#00E6A0" fill-rule="evenodd" xlink:href="#path-2"></use>
            <use fill="url(#linearGradient-1)" fill-rule="evenodd" style="mix-blend-mode: soft-light;" xlink:href="#path-2"></use>
            <circle stroke-opacity="0.0970052083" stroke="#000000" stroke-width="1" stroke-linejoin="square" cx="16" cy="15" r="14.5"></circle>
        </g>
        <path d="M18.9934489,15.9950207 L23.2338714,11.7677672 C23.5520991,11.4507534 23.7305273,11.0197673 23.7295052,10.5705841 L23.7366883,7.15382354 C23.736289,6.97854171 23.6685736,6.81011048 23.5475334,6.68333058 L15.4126742,14.800232 C15.0933263,15.1167675 14.9136802,15.5477732 14.9136802,15.9974151 C14.9136802,16.447057 15.0933263,16.8780627 15.4126742,17.1945982 L21.1483785,22.9123447 C21.5760908,23.3379184 22.1983542,23.502983 22.780768,23.3453601 C23.3631819,23.1877373 23.8172637,22.7313737 23.9719652,22.148177 C24.1266668,21.5649804 23.9584852,20.9435522 23.5307728,20.5179785 L18.9934489,15.9950207 Z" id="Path" fill="#FFFFFF" fill-rule="nonzero"></path>
        <path d="M23.0734489,6.5 L10.2959137,6.5 C9.26274467,6.5 8.5,7.28072495 8.5,8.34621791 L8.5,21.6768517 C8.49428396,22.1344606 8.67356709,22.5750229 8.99728461,22.898515 C9.32100213,23.2220071 9.76168928,23.4009833 10.219294,23.3948095 L10.219294,23.3948095 C10.6772887,23.4026682 11.1188389,23.2241943 11.4427377,22.9002954 C11.7666365,22.5763966 11.9451104,22.1348464 11.9372517,21.6768517 L11.9372517,9.78882354 L20.4372517,9.78882354 L23.5499278,6.69171086 C23.4239626,6.56541342 23.2517815,6.49619489 23.0734489,6.5 Z" id="Path" fill="#FFFFFF" fill-rule="nonzero"></path>
    </g>
</svg>