<svg height="32" viewBox="0 0 32 32" width="32" xmlns="http://www.w3.org/2000/svg" xmlns:xlink="http://www.w3.org/1999/xlink"><defs><linearGradient id="a" x1="50%" x2="50%" y1="0%" y2="100%"><stop offset="0" stop-color="#fff" stop-opacity=".5"/><stop offset="1" stop-opacity=".5"/></linearGradient><circle id="b" cx="16" cy="15" r="15"/><filter id="c" height="111.7%" width="111.7%" x="-5.8%" y="-4.2%"><feOffset dy=".5" in="SourceAlpha" result="shadowOffsetOuter1"/><feGaussianBlur in="shadowOffsetOuter1" result="shadowBlurOuter1" stdDeviation=".5"/><feComposite in="shadowBlurOuter1" in2="SourceAlpha" operator="out" result="shadowBlurOuter1"/><feColorMatrix in="shadowBlurOuter1" values="0 0 0 0 0   0 0 0 0 0   0 0 0 0 0  0 0 0 0.199473505 0"/></filter><path id="d" d="m11.8163536 8.24048566c1.6648-1.24801599 3.67712-2.03178411 5.75232-2.20129935.212-.04205897.44272.09227386.43488.32575712.02064.55924038.00688 1.12087956.00688 1.6805997.01376.17351324-.0784.39916042-.27872.40411794-1.84528.20405797-3.59936.95856072-5.12384 2.00043973-.144.0810795-.112.2675463-.1008.4042779.1072.982069.03456 1.9710145.064 2.955962 4.97408.0137532 9.95008-.001919 14.92608.0078361.23648-.0206297.48688.1146627.46816.3806097.02448 1.6737231.0048 3.3484058.00976 5.0230885.00384.9104247-.1904 1.8521939-.74112 2.5958221-.86976 1.1693353-2.39904 1.8709045-3.85376 1.611834-1.02944-.154003-1.92-.7927236-2.544-1.6030384-1.68736 1.2707246-3.73584 2.0514542-5.84432 2.2142528-.21456.0028786-.376-.2080559-.34256-.414033.00688-.5857871-.0128-1.1734932.0088-1.7591204.05008-.3108846.43296-.2501149.65968-.302089 1.74432-.2717041 3.41232-1.0026986 4.83632-2.0386606-.07952-1.0879361-.0936-2.1789106-.0776-3.2698851-4.99136-.031984-9.98512-.0022389-14.97711998-.015992-.22096.0246277-.432-.1392903-.41136-.3727736-.00362667-1.7635982-.00298667-3.5268766.00192-5.2898351.01088-.92209893.30144-1.853953.912-2.55760118.80496-.91538231 2.01904-1.50100949 3.25104-1.42840579 1.18079998.04701649 2.26255998.71804097 2.96335998 1.64813593zm-5.11599998 2.64139934c-.00192 1.0335632-.00384 2.0676062.00192 3.1024487 1.2336-.0017591 2.4656.0169516 3.69871998-.0103948.00192-1.0074962.01472-2.0149925-.00592-3.0224887-.01872-.96623691-.89231998-1.81989008-1.86207998-1.80117944-.9472-.03822089-1.80912.78984508-1.83264 1.73161424zm15.70831998 5.2895152c-.0088.9830285-.00192 1.9658971-.0056 2.947966-.0061945.3925548.1131444.7768368.34064 1.0968916.47312.6769415 1.41744.9723138 2.18992.6740629.71264-.263868 1.18288-1.0105347 1.17504-1.7610394 0-.9851075.00576-1.970055-.004-2.9550025-1.232-.0097552-2.464-.0047976-3.696-.0028786z"/><filter id="e" height="119.4%" width="115%" x="-7.5%" y="-6.9%"><feOffset dy=".5" in="SourceAlpha" result="shadowOffsetOuter1"/><feGaussianBlur in="shadowOffsetOuter1" result="shadowBlurOuter1" stdDeviation=".5"/><feColorMatrix in="shadowBlurOuter1" values="0 0 0 0 0   0 0 0 0 0   0 0 0 0 0  0 0 0 0.204257246 0"/></filter></defs><g fill="none" fill-rule="nonzero"><g><use fill="#000" filter="url(#c)" xlink:href="#b"/><use fill="#cc1e46" fill-rule="evenodd" xlink:href="#b"/><use fill="url(#a)" fill-rule="evenodd" xlink:href="#b"/><circle cx="16" cy="15" r="14.5" stroke="#000" stroke-opacity=".097"/></g><g><use fill="#000" filter="url(#e)" xlink:href="#d"/><use fill="#fff" fill-rule="evenodd" xlink:href="#d"/></g></g></svg>