<svg height="32" viewBox="0 0 32 32" width="32" xmlns="http://www.w3.org/2000/svg" xmlns:xlink="http://www.w3.org/1999/xlink"><defs><linearGradient id="a" x1="50%" x2="50%" y1="0%" y2="100%"><stop offset="0" stop-color="#fff" stop-opacity=".5"/><stop offset="1" stop-opacity=".5"/></linearGradient><circle id="b" cx="16" cy="15" r="15"/><filter id="c" height="111.7%" width="111.7%" x="-5.8%" y="-4.2%"><feOffset dy=".5" in="SourceAlpha" result="shadowOffsetOuter1"/><feGaussianBlur in="shadowOffsetOuter1" result="shadowBlurOuter1" stdDeviation=".5"/><feComposite in="shadowBlurOuter1" in2="SourceAlpha" operator="out" result="shadowBlurOuter1"/><feColorMatrix in="shadowBlurOuter1" values="0 0 0 0 0   0 0 0 0 0   0 0 0 0 0  0 0 0 0.199473505 0"/></filter><path id="d" d="m10.1443414 19.0241935c.2994658-.455066.5833436-.8811686.8516335-1.2795698h-3.06357397c-.05149508 0-.09324009-.0417451-.09324009-.0932401v-.6361005c0-.0514951.04174501-.0932401.09324009-.0932401h3.62201657c1.9365266-2.8289035 2.90479-3.9938946 2.90479-4.1129032 0-.1827957-.0401097-.2741936-.6993007-.2741936-1.3053613 0-3.4498835-.9310709-3.4498835-3.47311824 0-1.38254965 2.2367921-3.06182796 3.5431236-3.06182796.6060606 0 .6986199.25709816.4195804.27419355-.7459208.04569892-2.3776224 1.53606849-2.3776224 2.97043011 0 .95967744.8518174 2.60483874 2.7505827 2.60483874 2.2409492 0 4.1563775-3.56451616 8.8111889-3.56451616 2.7972028 0 3.5431235 2.18761286 3.5431235 2.78763436 0 .6000216-.8733974.9139785-2.0512821.9139785-1.1778846 0-1.2215453-2.1021505-3.5897435-2.1021505-3.7176729 0-6.8843865 4.0259314-8.4052938 7.0376344h2.624408c.0514951 0 .0932401.041745.0932401.0932401v.6361005c0 .051495-.041745.0932401-.0932401.0932401h-3.0106503c-.2074687.4797631-.3626485.9149689-.4598811 1.2795698h2.6313705c.0514951 0 .0932401.0417451.0932401.0932401v.6361005c0 .0514951-.041745.0932401-.0932401.0932401h-2.7486917c.0484555 1.1664905 1.0268948 2.2175657 2.9353204 3.1532258-3.4810625 0-5.9208944 0-7.31949579 0 .72429214-1.1663982 1.39117279-2.2144996 2.00064196-3.1532258h-2.51346248c-.05149508 0-.09324009-.041745-.09324009-.0932401v-.6361005c0-.051495.04174501-.0932401.09324009-.0932401z"/><filter id="e" height="120.6%" width="117.5%" x="-8.8%" y="-7.4%"><feOffset dy=".5" in="SourceAlpha" result="shadowOffsetOuter1"/><feGaussianBlur in="shadowOffsetOuter1" result="shadowBlurOuter1" stdDeviation=".5"/><feColorMatrix in="shadowBlurOuter1" values="0 0 0 0 0   0 0 0 0 0   0 0 0 0 0  0 0 0 0.204257246 0"/></filter></defs><g fill="none" fill-rule="evenodd"><use fill="#000" filter="url(#c)" xlink:href="#b"/><use fill="#60e4dd" xlink:href="#b"/><use fill="url(#a)" xlink:href="#b"/><circle cx="16" cy="15" r="14.5" stroke="#000" stroke-opacity=".097"/><use fill="#000" filter="url(#e)" xlink:href="#d"/><use fill="#fff" xlink:href="#d"/></g></svg>