<svg height="32" viewBox="0 0 32 32" width="32" xmlns="http://www.w3.org/2000/svg" xmlns:xlink="http://www.w3.org/1999/xlink"><defs><linearGradient id="a" x1="50%" x2="50%" y1="0%" y2="100%"><stop offset="0" stop-color="#fff" stop-opacity=".5"/><stop offset="1" stop-opacity=".5"/></linearGradient><circle id="b" cx="16" cy="15" r="15"/><filter id="c" height="111.7%" width="111.7%" x="-5.8%" y="-4.2%"><feOffset dy=".5" in="SourceAlpha" result="shadowOffsetOuter1"/><feGaussianBlur in="shadowOffsetOuter1" result="shadowBlurOuter1" stdDeviation=".5"/><feComposite in="shadowBlurOuter1" in2="SourceAlpha" operator="out" result="shadowBlurOuter1"/><feColorMatrix in="shadowBlurOuter1" values="0 0 0 0 0   0 0 0 0 0   0 0 0 0 0  0 0 0 0.199473505 0"/></filter><path id="d" d="m12.6052399 8.15505704c-.8574823 0-1.5526091-.70628358-1.5526091-1.57752852s.6951268-1.57752852 1.5526091-1.57752852c.8574824 0 1.5526092.70628358 1.5526092 1.57752852s-.6951268 1.57752852-1.5526092 1.57752852zm6.8420064 16.84479606c-.8574824 0-1.5526091-.7062836-1.5526091-1.5775285 0-.871245.6951267-1.5775285 1.5526091-1.5775285.8574823 0 1.5526091.7062835 1.5526091 1.5775285 0 .8712449-.6951268 1.5775285-1.5526091 1.5775285zm-6.2052365-11.7885842c-.6118786.475417-1.4872178.3568319-1.9551249-.2648673-.4679072-.6216992-.3511953-1.5110876.2606833-1.9865047l7.1577912-5.56145646c.6118786-.47541703 1.4872178-.35683191 1.9551249.26486729.4679072.62169921.3511953 1.51108765-.2606833 1.98650469zm.0526308 5.6684076c-.6118786.475417-1.4872178.3568319-1.9551249-.2648673-.4679072-.6216992-.3511953-1.5110877.2606833-1.9865047l7.1577912-5.5614565c.6118786-.475417 1.4872178-.3568319 1.9551249.2648673.4679072.6216992.3511953 1.5110876-.2606833 1.9865047zm0 5.8288341c-.6118786.4754171-1.4872178.356832-1.9551249-.2648672-.4679072-.6216993-.3511953-1.5110877.2606833-1.9865047l7.1577912-5.5614565c.6118786-.475417 1.4872178-.3568319 1.9551249.2648673.4679072.6216992.3511953 1.5110876-.2606833 1.9865047z"/><filter id="e" height="117.5%" width="135%" x="-17.5%" y="-6.2%"><feOffset dy=".5" in="SourceAlpha" result="shadowOffsetOuter1"/><feGaussianBlur in="shadowOffsetOuter1" result="shadowBlurOuter1" stdDeviation=".5"/><feColorMatrix in="shadowBlurOuter1" values="0 0 0 0 0   0 0 0 0 0   0 0 0 0 0  0 0 0 0.204257246 0"/></filter></defs><g fill="none" fill-rule="evenodd"><use fill="#000" filter="url(#c)" xlink:href="#b"/><use fill="#f49352" xlink:href="#b"/><use fill="url(#a)" xlink:href="#b"/><circle cx="16" cy="15" r="14.5" stroke="#000" stroke-opacity=".097"/><use fill="#000" filter="url(#e)" xlink:href="#d"/><use fill="#fff" xlink:href="#d"/></g></svg>