<svg xmlns="http://www.w3.org/2000/svg" xmlns:xlink="http://www.w3.org/1999/xlink" width="32" height="32" viewBox="0 0 32 32"><defs><filter id="a" width="111.7%" height="111.7%" x="-5.8%" y="-4.2%" filterUnits="objectBoundingBox"><feOffset dy=".5" in="SourceAlpha" result="shadowOffsetOuter1"/><feGaussianBlur in="shadowOffsetOuter1" result="shadowBlurOuter1" stdDeviation=".5"/><feComposite in="shadowBlurOuter1" in2="SourceAlpha" operator="out" result="shadowBlurOuter1"/><feColorMatrix in="shadowBlurOuter1" values="0 0 0 0 0 0 0 0 0 0 0 0 0 0 0 0 0 0 0.199473505 0"/></filter><filter id="d" width="118.4%" height="115.9%" x="-9.2%" y="-5.7%" filterUnits="objectBoundingBox"><feOffset dy=".5" in="SourceAlpha" result="shadowOffsetOuter1"/><feGaussianBlur in="shadowOffsetOuter1" result="shadowBlurOuter1" stdDeviation=".5"/><feColorMatrix in="shadowBlurOuter1" values="0 0 0 0 0 0 0 0 0 0 0 0 0 0 0 0 0 0 0.204257246 0"/></filter><linearGradient id="c" x1="50%" x2="50%" y1="0%" y2="100%"><stop offset="0%" stop-color="#FFF" stop-opacity=".5"/><stop offset="100%" stop-opacity=".5"/></linearGradient><circle id="b" cx="16" cy="15" r="15"/><path id="e" d="M23.683 11.886c.057-.057.17-.057.281-.057 1.687 0 3.036 1.428 3.036 3.143 0 1.6-1.18 2.857-2.698 3.142h-.338c-.562 0-1.124-.171-1.63-.457a.939.939 0 00-.562-.171c-.225 0-.45.057-.618.171-.394.229-.562.629-.562 1.086v.514a3.08 3.08 0 01-2.699 2.8h-.337c-.562 0-1.124-.171-1.63-.457-.225-.114-.393-.171-.618-.171-.225 0-.45.057-.619.171-.393.229-.562.629-.562 1.086v.514c-.112 1.486-1.293 2.629-2.754 2.8h-.281c-1.687 0-3.036-1.429-3.036-3.143.056-1.6 1.18-2.914 2.698-3.086h.338c.562 0 1.124.172 1.63.458a.939.939 0 00.562.171c.225 0 .45-.057.618-.171.394-.229.562-.629.562-1.086-.112-1.657 1.069-3.143 2.699-3.314h.337c.562 0 1.124.171 1.63.457.225.114.394.171.619.171.224 0 .45-.057.618-.171.393-.229.562-.629.562-1.086-.112-1.657 1.124-3.143 2.754-3.314zM17.22 7.943c.112-.057.169-.057.337-.057 1.687 0 3.036 1.428 3.036 3.143-.056 1.6-1.18 2.914-2.699 3.085h-.337c-.562 0-1.124-.171-1.63-.457a.939.939 0 00-.562-.171c-.225 0-.45.057-.618.171-.394.229-.563.629-.563 1.086v.514c-.112 1.485-1.292 2.628-2.754 2.8h-.281c-1.686 0-3.036-1.428-3.036-3.143 0-1.542 1.125-2.8 2.642-3.028h.338c.562 0 1.124.171 1.63.457a.939.939 0 00.562.171c.225 0 .45-.057.618-.171.394-.229.562-.629.562-1.086-.112-1.657 1.125-3.143 2.755-3.314zM11.036 4c1.676 0 3.035 1.382 3.035 3.086s-1.36 3.085-3.035 3.085C9.359 10.171 8 8.79 8 7.086S9.36 4 11.036 4z"/></defs><g fill="none" fill-rule="evenodd"><use fill="#000" filter="url(#a)" xlink:href="#b"/><use fill="#FFD800" xlink:href="#b"/><use fill="url(#c)" style="mix-blend-mode:soft-light" xlink:href="#b"/><circle cx="16" cy="15" r="14.5" stroke="#000" stroke-opacity=".097"/><use fill="#000" filter="url(#d)" xlink:href="#e"/><use fill="#FFF" xlink:href="#e"/></g></svg>