<svg height="32" viewBox="0 0 32 32" width="32" xmlns="http://www.w3.org/2000/svg" xmlns:xlink="http://www.w3.org/1999/xlink"><defs><linearGradient id="a" x1="50%" x2="50%" y1="0%" y2="100%"><stop offset="0" stop-color="#fff" stop-opacity=".5"/><stop offset="1" stop-opacity=".5"/></linearGradient><circle id="b" cx="16" cy="15" r="15"/><filter id="c" height="111.7%" width="111.7%" x="-5.8%" y="-4.2%"><feOffset dy=".5" in="SourceAlpha" result="shadowOffsetOuter1"/><feGaussianBlur in="shadowOffsetOuter1" result="shadowBlurOuter1" stdDeviation=".5"/><feComposite in="shadowBlurOuter1" in2="SourceAlpha" operator="out" result="shadowBlurOuter1"/><feColorMatrix in="shadowBlurOuter1" values="0 0 0 0 0   0 0 0 0 0   0 0 0 0 0  0 0 0 0.199473505 0"/></filter><path id="d" d="m23.683432 11.8858243c.056213-.0571424.168639-.0571424.281065-.0571424 1.6863906 0 3.035503 1.4285603 3.035503 3.1428326 0 1.5999875-1.1804734 2.8571206-2.6982249 3.1428327h-.3372781c-.5621301 0-1.1242603-.1714273-1.6301775-.4571393-.168639-.1142849-.3372781-.1714273-.5621302-.1714273-.224852 0-.4497041.0571424-.6183431.1714273-.3934912.2285696-.5621302.6285665-.5621302 1.0857058v.5142817c-.1124261 1.4285603-1.2366864 2.6285509-2.6982249 2.7999782h-.3372781c-.5621302 0-1.1242603-.1714273-1.6301775-.4571393-.2248521-.1142848-.3934911-.1714273-.6183432-.1714273s-.4497041.0571425-.6183432.1714273c-.3934911.2285696-.5621302.6285665-.5621302 1.0857058v.5142817c-.112426 1.4857027-1.2928994 2.628551-2.7544378 2.7999782h-.2810651c-1.68639056 0-3.03550298-1.4285603-3.03550298-3.1428327.05621302-1.5999875 1.18047337-2.914263 2.69822488-3.0856902h.3372781c.5621302 0 1.1242603.1714272 1.6301775.4571393.168639.1142848.3372781.1714272.5621302.1714272.224852 0 .4497041-.0571424.6183432-.1714272.3934911-.2285696.5621301-.6285665.5621301-1.0857058-.112426-1.65713 1.0680474-3.1428327 2.6982249-3.3142599h.3372781c.5621302 0 1.1242604.1714272 1.6301775.4571393.2248521.1142848.3934911.1714272.6183432.1714272s.4497042-.0571424.6183432-.1714272c.3934911-.2285697.5621302-.6285665.5621302-1.0857058-.1124261-1.65713 1.1242603-3.1428327 2.7544379-3.3142599zm-6.4644971-3.94276931c.112426-.05714241.1686391-.05714241.3372781-.05714241 1.6863906 0 3.035503 1.42856029 3.035503 3.14283262-.056213 1.5999876-1.1804734 2.914263-2.6982249 3.0856903h-.3372781c-.5621302 0-1.1242603-.1714273-1.6301775-.4571393-.1686391-.1142848-.3372781-.1714273-.5621302-.1714273-.224852 0-.4497041.0571425-.6183432.1714273-.3934911.2285696-.5621301.6285665-.5621301 1.0857058v.5142817c-.1124261 1.4851313-1.2928995 2.6279795-2.7544379 2.7999782h-.2810651c-1.68639054 0-3.03550296-1.4285603-3.03550296-3.1428327 0-1.5428451 1.12426035-2.7999781 2.64201186-3.0285478h.3372781c.5621302 0 1.1242603.1714272 1.6301775.4571393.168639.1142848.3372781.1714272.5621302.1714272.224852 0 .4497041-.0571424.6183432-.1714272.3934911-.2285696.5621301-.6285665.5621301-1.0857058-.112426-1.65712997 1.1242604-3.14283268 2.7544379-3.31425991zm-6.1834319-3.94305499c1.6762721 0 3.0355029 1.38170352 3.0355029 3.08569024s-1.3592308 3.08569026-3.0355029 3.08569026c-1.67627223 0-3.035503-1.38170354-3.035503-3.08569026s1.35923077-3.08569024 3.035503-3.08569024z"/><filter id="e" height="115.9%" width="118.4%" x="-9.2%" y="-5.7%"><feOffset dy=".5" in="SourceAlpha" result="shadowOffsetOuter1"/><feGaussianBlur in="shadowOffsetOuter1" result="shadowBlurOuter1" stdDeviation=".5"/><feColorMatrix in="shadowBlurOuter1" values="0 0 0 0 0   0 0 0 0 0   0 0 0 0 0  0 0 0 0.204257246 0"/></filter></defs><g fill="none" fill-rule="evenodd"><use fill="#000" filter="url(#c)" xlink:href="#b"/><use fill="#ffd800" xlink:href="#b"/><use fill="url(#a)" xlink:href="#b"/><circle cx="16" cy="15" r="14.5" stroke="#000" stroke-opacity=".097"/><use fill="#000" filter="url(#e)" xlink:href="#d"/><use fill="#fff" xlink:href="#d"/></g></svg>