<svg height="32" width="32" xmlns="http://www.w3.org/2000/svg" xmlns:xlink="http://www.w3.org/1999/xlink"><defs><linearGradient id="c" x1="50%" x2="50%" y1="0%" y2="100%"><stop offset="0" stop-color="#fff" stop-opacity=".5"/><stop offset="1" stop-opacity=".5"/></linearGradient><circle id="b" cx="16" cy="15" r="15"/><filter id="a" height="111.7%" width="111.7%" x="-5.8%" y="-4.2%"><feOffset dy=".5" in="SourceAlpha" result="shadowOffsetOuter1"/><feGaussianBlur in="shadowOffsetOuter1" result="shadowBlurOuter1" stdDeviation=".5"/><feComposite in="shadowBlurOuter1" in2="SourceAlpha" operator="out" result="shadowBlurOuter1"/><feColorMatrix in="shadowBlurOuter1" values="0 0 0 0 0 0 0 0 0 0 0 0 0 0 0 0 0 0 0.199473505 0"/></filter><path id="e" d="M10.5 14.238h1.764V6h4.547c.844 0 1.614.099 2.31.297.696.198 1.292.5 1.789.904s.886.917 1.168 1.536c.281.62.422 1.36.422 2.221s-.15 1.61-.447 2.247a4.478 4.478 0 0 1-1.218 1.588 5.113 5.113 0 0 1-1.813.943 7.91 7.91 0 0 1-2.261.31h-2.51v2.608h4v1.705h-4V24h-1.987v-3.641H10.5v-1.705h1.764v-2.608H10.5zm6.31 0c1.143 0 2.042-.271 2.696-.813.654-.543.982-1.365.982-2.467 0-1.101-.328-1.902-.982-2.401s-1.553-.75-2.695-.75h-2.56v6.431z"/><filter id="d" height="119.4%" width="129.2%" x="-14.6%" y="-6.9%"><feOffset dy=".5" in="SourceAlpha" result="shadowOffsetOuter1"/><feGaussianBlur in="shadowOffsetOuter1" result="shadowBlurOuter1" stdDeviation=".5"/><feColorMatrix in="shadowBlurOuter1" values="0 0 0 0 0 0 0 0 0 0 0 0 0 0 0 0 0 0 0.204257246 0"/></filter></defs><g fill="none" fill-rule="evenodd"><use fill="#000" filter="url(#a)" xlink:href="#b"/><use fill="#64d1ff" xlink:href="#b"/><use fill="url(#c)" xlink:href="#b"/><circle cx="16" cy="15" r="14.5" stroke="#000" stroke-opacity=".097"/><use fill="#000" filter="url(#d)" xlink:href="#e"/><use fill="#fff" xlink:href="#e"/></g></svg>