<svg height="32" viewBox="0 0 32 32" width="32" xmlns="http://www.w3.org/2000/svg" xmlns:xlink="http://www.w3.org/1999/xlink"><defs><linearGradient id="a" x1="50%" x2="50%" y1="0%" y2="100%"><stop offset="0" stop-color="#fff" stop-opacity=".5"/><stop offset="1" stop-opacity=".5"/></linearGradient><circle id="b" cx="16" cy="15" r="15"/><filter id="c" height="111.7%" width="111.7%" x="-5.8%" y="-4.2%"><feOffset dy=".5" in="SourceAlpha" result="shadowOffsetOuter1"/><feGaussianBlur in="shadowOffsetOuter1" result="shadowBlurOuter1" stdDeviation=".5"/><feComposite in="shadowBlurOuter1" in2="SourceAlpha" operator="out" result="shadowBlurOuter1"/><feColorMatrix in="shadowBlurOuter1" values="0 0 0 0 0   0 0 0 0 0   0 0 0 0 0  0 0 0 0.199473505 0"/></filter><path id="d" d="m10.5 14.2381636h1.7639752v-8.2381636h4.5465838c.8447247 0 1.6149034.09899471 2.310559.29698709.6956557.19799238 1.291923.49928061 1.7888199.90387374s.8861269.91678313 1.1677019 1.53658537c.2815749.61980224.4223602 1.3601105.4223602 2.2209469 0 .8608365-.1490668 1.6097529-.447205 2.2467719-.2981381.637019-.7039311 1.1664254-1.2173913 1.5882353-.5134601.4218098-1.1180089.7360104-1.8136646.9426112-.6956556.2066007-1.4492713.3098995-2.2608695.3098995h-2.5093168v2.6083214h4v1.7044477h-4v3.6413199h-1.9875776v-3.6413199h-1.7639752v-1.7044477h1.7639752v-2.6083214h-1.7639752zm6.310559 0c1.1428629 0 2.0414046-.2711595 2.6956522-.8134864.6542476-.542327.9813664-1.3644134.9813664-2.4662841 0-1.10187063-.3271188-1.90243651-.9813664-2.40172165s-1.5527893-.74892396-2.6956522-.74892396h-2.5590062v6.43041611z"/><filter id="e" height="119.4%" width="129.2%" x="-14.6%" y="-6.9%"><feOffset dy=".5" in="SourceAlpha" result="shadowOffsetOuter1"/><feGaussianBlur in="shadowOffsetOuter1" result="shadowBlurOuter1" stdDeviation=".5"/><feColorMatrix in="shadowBlurOuter1" values="0 0 0 0 0   0 0 0 0 0   0 0 0 0 0  0 0 0 0.204257246 0"/></filter></defs><g fill="none" fill-rule="evenodd"><use fill="#000" filter="url(#c)" xlink:href="#b"/><use fill="#64d1ff" xlink:href="#b"/><use fill="url(#a)" xlink:href="#b"/><circle cx="16" cy="15" r="14.5" stroke="#000" stroke-opacity=".097"/><use fill="#000" filter="url(#e)" xlink:href="#d"/><use fill="#fff" xlink:href="#d"/></g></svg>