<svg width="32" height="32" viewBox="0 0 32 32" version="1.1" xmlns="http://www.w3.org/2000/svg" xmlns:xlink="http://www.w3.org/1999/xlink"><title>icon/safe</title><desc>Created with Sketch.</desc><defs><linearGradient x1="50%" y1="0%" x2="50%" y2="100%" id="linearGradient-1"><stop stop-color="#FFF" stop-opacity=".5" offset="0%"/><stop stop-color="#000" stop-opacity=".5" offset="100%"/></linearGradient><circle id="path-2" cx="15" cy="15" r="15"/><filter x="-5.8%" y="-4.2%" width="111.7%" height="111.7%" filterUnits="objectBoundingBox" id="filter-3"><feOffset dx="0" dy=".5" in="SourceAlpha" result="shadowOffsetOuter1"/><feGaussianBlur stdDeviation=".5" in="shadowOffsetOuter1" result="shadowBlurOuter1"/><feComposite in="shadowBlurOuter1" in2="SourceAlpha" operator="out" result="shadowBlurOuter1"/><feColorMatrix values="0 0 0 0 0 0 0 0 0 0 0 0 0 0 0 0 0 0 0.199473505 0" type="matrix" in="shadowBlurOuter1"/></filter></defs><g id="icon/safe" stroke="none" stroke-width="1" fill="none" fill-rule="evenodd"><g id="Group" transform="translate(1.000000, 0.000000)" fill-rule="nonzero"><g id="Oval"><use fill="#000" fill-opacity="1" filter="url(#filter-3)" xlink:href="#path-2"/><use fill="#00688C" fill-rule="evenodd" xlink:href="#path-2"/><use fill="url(#linearGradient-1)" fill-rule="evenodd" style="mix-blend-mode:soft-light" xlink:href="#path-2"/><circle stroke-opacity=".097" stroke="#000" stroke-width="1" stroke-linejoin="square" cx="15" cy="15" r="14.5"/></g></g><g id="SafeCoin-(SAFE)" transform="translate(7.000000, 5.000000)" fill="#FFF" fill-rule="nonzero"><path d="M17.9909478,15.5603925 L17.9903274,5.19176035 L8.9883398,0.00496284895 L8.97593267,0.0117867662 L0.00434249283,5.19610285 L0.00434249283,15.5622536 L8.98337695,20.7354032 L8.98461766,20.7360236 L17.9909478,15.5603925 Z M14.0064004,13.902801 L12.471019,13.0218953 L9.04417185,15.0119977 C9.02432045,15.0237845 8.99950621,15.0237845 8.97903445,15.0119977 L5.04721738,12.7334297 L5.04597667,8.76935409 L1.5918338,6.78917736 L8.95422021,2.47335984 C8.96042377,2.46963771 8.96786804,2.46963771 8.97407161,2.47335984 L15.8116367,6.3828441 L14.6019423,7.08198544 L8.97717339,3.84558758 L3.98826948,6.77366845 L5.71906305,7.76809931 L8.98027517,5.8710503 L8.98213623,5.86980959 L12.9666836,8.14837761 L12.9648225,11.9201428 L16.3612723,13.8649592 L16.3600315,13.9226524 L8.9839973,18.2291645 L2.14519146,14.3246431 L3.34247876,13.6236407 L8.97221054,16.8525943 L14.0064004,13.902801 Z" id="Shape"/><path d="M10.0677594,9.40273768 C10.0677594,9.39343234 10.0677594,9.384127 10.0671391,9.37482166 C10.0671391,9.3686181 10.0665187,9.36303489 10.0665187,9.35683133 C10.0665187,9.35372955 10.0665187,9.35000741 10.0658984,9.34690563 C10.065278,9.34008171 10.065278,9.3332578 10.0646577,9.32643388 C10.0646577,9.32395246 10.0646577,9.32209139 10.0640373,9.31960996 C10.0634169,9.31216569 10.0627966,9.30472142 10.0621762,9.2978975 C10.0621762,9.29603643 10.0621762,9.29417536 10.0615559,9.29231429 C10.0609355,9.28487002 10.0596948,9.27680539 10.0590745,9.26936112 C10.0590745,9.26812041 10.0590745,9.26625934 10.0584541,9.26501862 C10.0572134,9.25695399 10.056593,9.24888937 10.0553523,9.24144509 C10.0553523,9.24020438 10.0553523,9.23958402 10.054732,9.23834331 C10.0534913,9.23027868 10.0522505,9.22221405 10.0510098,9.21414942 C10.0510098,9.21352907 10.0510098,9.21228835 10.0503895,9.211668 C10.0491488,9.20360337 10.0472877,9.19553874 10.0454266,9.18685375 C10.0454266,9.1862334 10.0454266,9.18561304 10.0448063,9.18499269 C10.0429452,9.17692806 10.0410841,9.16824307 10.0392231,9.16017844 C10.0392231,9.15955808 10.0392231,9.15893773 10.0392231,9.15893773 C10.037362,9.15025274 10.0355009,9.14218811 10.0330195,9.13412348 C10.0330195,9.13350313 10.0330195,9.13350313 10.0330195,9.13288277 C10.0311584,9.12419779 10.028677,9.11613316 10.0261956,9.10744817 C10.0261956,9.10744817 10.0261956,9.10682781 10.0261956,9.10682781 C10.0237142,9.09814283 10.0212327,9.0900782 10.0187513,9.08139321 C10.0187513,9.08139321 10.0187513,9.08139321 10.0187513,9.08077286 C10.0162699,9.07208787 10.0137885,9.06402324 10.0106867,9.05595861 C10.0106867,9.05595861 10.0106867,9.05595861 10.0106867,9.05595861 C10.0082053,9.04789398 10.0051035,9.039209 10.0020017,9.03114437 C10.0020017,9.03114437 10.0020017,9.03114437 10.0020017,9.03114437 C9.99889991,9.02307974 9.99579813,9.01439475 9.99269635,9.00633012 C9.99269635,9.00633012 9.99269635,9.00633012 9.99269635,9.00633012 C9.98959457,8.99826549 9.98649279,8.99020086 9.98277065,8.98213623 C9.98277065,8.98213623 9.98277065,8.98213623 9.98277065,8.98213623 C9.97966887,8.97407161 9.97594674,8.96600698 9.9722246,8.95794235 C9.9722246,8.95794235 9.9722246,8.95794235 9.9722246,8.95794235 C9.96850246,8.94987772 9.96478033,8.94181309 9.96105819,8.93436881 C9.96105819,8.93436881 9.96105819,8.93436881 9.96105819,8.93436881 C9.95733605,8.92630418 9.95361392,8.91885991 9.94989178,8.91079528 C9.94989178,8.91079528 9.94989178,8.91079528 9.94989178,8.91017492 C9.94616964,8.90273065 9.94182715,8.89466602 9.93810501,8.88722175 C9.93810501,8.88722175 9.93810501,8.88660139 9.93810501,8.88660139 C9.93438288,8.87915712 9.93004038,8.87171285 9.92569789,8.86426857 C9.92569789,8.86426857 9.92569789,8.86364822 9.92507753,8.86364822 C9.92073504,8.85620394 9.91639255,8.84875967 9.91267041,8.84193575 C9.91267041,8.84193575 9.91205006,8.8413154 9.91205006,8.8413154 C9.90770756,8.83387112 9.90336507,8.82704721 9.89902258,8.82022329 C9.89902258,8.81960293 9.89840222,8.81960293 9.89840222,8.81898258 C9.89405973,8.81215866 9.88971724,8.80533474 9.88475439,8.79851082 C9.88475439,8.79789047 9.88413403,8.79789047 9.88413403,8.79727011 C9.87979154,8.79044619 9.87482869,8.78362228 9.8704862,8.77741872 C9.86986584,8.77679836 9.86986584,8.776178 9.86924548,8.776178 C9.86490299,8.76935409 9.85994014,8.76315052 9.85497729,8.75632661 C9.85435694,8.75570625 9.85435694,8.7550859 9.85373658,8.75446554 C9.84877373,8.74826198 9.84443124,8.74143806 9.83946839,8.7352345 C9.83884803,8.73461414 9.83822768,8.73399379 9.83822768,8.73337343 C9.83326483,8.72716987 9.82830198,8.72096631 9.82333913,8.71476275 C9.82271877,8.71414239 9.82209842,8.71352204 9.82147806,8.71290168 C9.81651521,8.70669812 9.81155236,8.70111491 9.80658952,8.69491135 C9.80596916,8.694291 9.8053488,8.69367064 9.80472845,8.69305028 C9.7997656,8.68746708 9.79480275,8.68126352 9.78921954,8.67568031 C9.78859919,8.67505996 9.78797883,8.6744396 9.78735848,8.67319889 C9.78239563,8.66761568 9.77681242,8.66203248 9.77184957,8.65644927 C9.77122922,8.65582892 9.77060886,8.65520856 9.7699885,8.65396785 C9.76502566,8.64838464 9.75944245,8.64280144 9.7544796,8.63721823 C9.75385925,8.63659788 9.75323889,8.63535716 9.75199818,8.63473681 C9.74641497,8.6291536 9.74145212,8.62419075 9.73586892,8.61860755 C9.73524856,8.61798719 9.73400785,8.61674648 9.73338749,8.61612612 C9.72780429,8.61116328 9.72222108,8.60558007 9.71725823,8.60061722 C9.71663788,8.59999687 9.71539717,8.59875615 9.71477681,8.5981358 C9.70919361,8.59317295 9.7036104,8.5882101 9.69802719,8.58324725 C9.69740684,8.58262689 9.69616613,8.58200654 9.69554577,8.58076583 C9.68996257,8.57580298 9.68437936,8.57084013 9.6781758,8.56587728 C9.67755544,8.56525692 9.67631473,8.56463657 9.67569437,8.56339585 C9.67011117,8.55843301 9.66390761,8.55347016 9.6583244,8.54912766 C9.65770405,8.54850731 9.65646334,8.54788695 9.65584298,8.5472666 C9.64963942,8.54230375 9.64405621,8.53796125 9.63785265,8.53299841 C9.6372323,8.53237805 9.63599158,8.53175769 9.63537123,8.53113734 C9.62916767,8.52679484 9.6229641,8.52183199 9.61676054,8.5174895 C9.61614019,8.51686915 9.61489948,8.51624879 9.61427912,8.51562843 C9.60807556,8.51128594 9.601872,8.50632309 9.59566844,8.5019806 C9.59504808,8.50136024 9.59442772,8.50073989 9.59318701,8.50011953 C9.58698345,8.49577704 9.58015953,8.49143455 9.57395597,8.48709205 C9.57333562,8.4864717 9.57271526,8.4864717 9.5720949,8.48585134 C9.56527099,8.48150885 9.55844707,8.47716635 9.55224351,8.47282386 C9.55162315,8.47220351 9.55100279,8.47220351 9.55038244,8.47158315 C9.54355852,8.46724066 9.5367346,8.46289816 9.52991069,8.45917603 C9.52929033,8.45917603 9.52929033,8.45855567 9.52866997,8.45855567 C9.52184606,8.45421318 9.51440178,8.45049104 9.50695751,8.44614855 C9.50633715,8.44614855 9.50633715,8.44552819 9.5057168,8.44552819 C9.49827252,8.4411857 9.49082825,8.43746356 9.48338398,8.43312107 C9.48338398,8.43312107 9.48276362,8.43312107 9.48276362,8.43312107 C9.32953566,8.35185442 9.15521559,8.30594807 8.96972911,8.30594807 C8.36302083,8.30594807 7.87169878,8.79727011 7.87169878,9.40397839 C7.87169878,9.84753302 8.13845191,10.2476627 8.54788695,10.4176403 L8.07331452,12.587646 L9.00570977,12.587646 L9.86800477,12.587646 L9.3897102,10.418881 C9.80038595,10.2476627 10.0677594,9.84691266 10.0677594,9.40273768 Z" id="Shape"/></g></g></svg>