<svg xmlns="http://www.w3.org/2000/svg" xmlns:xlink="http://www.w3.org/1999/xlink" width="32" height="32" viewBox="0 0 32 32"><defs><linearGradient id="c" x1="50%" x2="50%" y1="0%" y2="100%"><stop offset="0%" stop-color="#FFF" stop-opacity=".5"/><stop offset="100%" stop-opacity=".5"/></linearGradient><circle id="b" cx="16" cy="15" r="15"/><filter id="a" width="111.7%" height="111.7%" x="-5.8%" y="-4.2%" filterUnits="objectBoundingBox"><feOffset dy=".5" in="SourceAlpha" result="shadowOffsetOuter1"/><feGaussianBlur in="shadowOffsetOuter1" result="shadowBlurOuter1" stdDeviation=".5"/><feComposite in="shadowBlurOuter1" in2="SourceAlpha" operator="out" result="shadowBlurOuter1"/><feColorMatrix in="shadowBlurOuter1" values="0 0 0 0 0 0 0 0 0 0 0 0 0 0 0 0 0 0 0.199473505 0"/></filter><path id="e" d="M22.681 6.368l.945.858-11.932 6.812-5.776-3.325.54-1.073 5.236 2.977 10.987-6.25zM20.279 5l1.268.644-9.853 5.632-4.588-2.602.782-.938 3.806 2.172L20.28 5zm4.184 3.111l.701.939-13.47 7.697-6.505-3.701.297-1.18 6.208 3.54 12.769-7.295zm1.943 3.46c.396 1.109.594 2.27.594 3.486 0 1.216-.198 2.397-.594 3.54l-.27.725a11.142 11.142 0 0 1-2.348 3.486 10.85 10.85 0 0 1-3.51 2.307c-1.385.59-2.815.885-4.291.885-1.494 0-2.925-.295-4.293-.885a11.341 11.341 0 0 1-3.482-2.307 10.568 10.568 0 0 1-2.348-3.486c-.57-1.35-.865-2.8-.864-4.265v-.724l6.694 3.782 14.118-8.046.594 1.502z"/><filter id="d" width="115.9%" height="116.7%" x="-8%" y="-6%" filterUnits="objectBoundingBox"><feOffset dy=".5" in="SourceAlpha" result="shadowOffsetOuter1"/><feGaussianBlur in="shadowOffsetOuter1" result="shadowBlurOuter1" stdDeviation=".5"/><feColorMatrix in="shadowBlurOuter1" values="0 0 0 0 0 0 0 0 0 0 0 0 0 0 0 0 0 0 0.204257246 0"/></filter></defs><g fill="none" fill-rule="evenodd"><g fill-rule="nonzero"><use fill="#000" filter="url(#a)" xlink:href="#b"/><use fill="#48B254" fill-rule="evenodd" xlink:href="#b"/><use fill="url(#c)" fill-rule="evenodd" style="mix-blend-mode:soft-light" xlink:href="#b"/><circle cx="16" cy="15" r="14.5" stroke="#000" stroke-opacity=".097"/></g><use fill="#000" filter="url(#d)" xlink:href="#e"/><use fill="#FFF" xlink:href="#e"/></g></svg>