<svg height="32" viewBox="0 0 32 32" width="32" xmlns="http://www.w3.org/2000/svg" xmlns:xlink="http://www.w3.org/1999/xlink"><defs><linearGradient id="a" x1="50%" x2="50%" y1="0%" y2="100%"><stop offset="0" stop-color="#fff" stop-opacity=".5"/><stop offset="1" stop-opacity=".5"/></linearGradient><circle id="b" cx="16" cy="15" r="15"/><filter id="c" height="111.7%" width="111.7%" x="-5.8%" y="-4.2%"><feOffset dy=".5" in="SourceAlpha" result="shadowOffsetOuter1"/><feGaussianBlur in="shadowOffsetOuter1" result="shadowBlurOuter1" stdDeviation=".5"/><feComposite in="shadowBlurOuter1" in2="SourceAlpha" operator="out" result="shadowBlurOuter1"/><feColorMatrix in="shadowBlurOuter1" values="0 0 0 0 0   0 0 0 0 0   0 0 0 0 0  0 0 0 0.199473505 0"/></filter><path id="d" d="m22.6809817 6.36781609.9447853.85823755-11.931288 6.81226056-5.77668693-3.3256705.53987728-1.07279696 5.23680965 2.97701146zm-2.4024539-1.36781609 1.2687116.64367816-9.8527604 5.63218394-4.58895691-2.6015326.78282206-.93869732 3.80613485 2.1724138zm4.184049 3.11111111.7018404.93869732-13.4699382 7.69731797-6.50552127-3.7011494.29693251-1.1800766 6.20858876 3.5402299zm1.9435582 3.45977009c.39573 1.1087357.593865 2.2705747.593865 3.4865901 0 1.2160153-.198135 2.3960919-.593865 3.5402298l-.2699387.724138c-.5536456 1.2994116-1.3505811 2.4825614-2.3484661 3.48659-1.0069406.9891098-2.1991146 1.7726967-3.5092024 2.3065134-1.3853251.5900383-2.8159999.8850575-4.2920244.8850575-1.4938404 0-2.9245152-.2950192-4.2920244-.8850575-1.2778895-.5363984-2.43862569-1.3050574-3.48220848-2.3065134-1.02576684-1.0191571-1.8085889-2.1809961-2.34846618-3.48659-.57064998-1.3501905-.86432105-2.7999661-.86380366-4.2643678v-.724138l6.69447832 3.7816092 14.117791-8.045977z"/><filter id="e" height="116.7%" width="115.9%" x="-8%" y="-6%"><feOffset dy=".5" in="SourceAlpha" result="shadowOffsetOuter1"/><feGaussianBlur in="shadowOffsetOuter1" result="shadowBlurOuter1" stdDeviation=".5"/><feColorMatrix in="shadowBlurOuter1" values="0 0 0 0 0   0 0 0 0 0   0 0 0 0 0  0 0 0 0.204257246 0"/></filter></defs><g fill="none" fill-rule="evenodd"><g fill-rule="nonzero"><use fill="#000" filter="url(#c)" xlink:href="#b"/><use fill="#48b254" fill-rule="evenodd" xlink:href="#b"/><use fill="url(#a)" fill-rule="evenodd" xlink:href="#b"/><circle cx="16" cy="15" r="14.5" stroke="#000" stroke-opacity=".097"/></g><use fill="#000" filter="url(#e)" xlink:href="#d"/><use fill="#fff" xlink:href="#d"/></g></svg>