<svg xmlns="http://www.w3.org/2000/svg" xmlns:xlink="http://www.w3.org/1999/xlink" width="32" height="32" viewBox="0 0 32 32"><defs><linearGradient id="sc-c" x1="50%" x2="50%" y1="0%" y2="100%"><stop offset="0%" stop-color="#FFF" stop-opacity=".5"/><stop offset="100%" stop-opacity=".5"/></linearGradient><circle id="sc-b" cx="16" cy="15" r="15"/><filter id="sc-a" width="111.7%" height="111.7%" x="-5.8%" y="-4.2%" filterUnits="objectBoundingBox"><feOffset dy=".5" in="SourceAlpha" result="shadowOffsetOuter1"/><feGaussianBlur in="shadowOffsetOuter1" result="shadowBlurOuter1" stdDeviation=".5"/><feComposite in="shadowBlurOuter1" in2="SourceAlpha" operator="out" result="shadowBlurOuter1"/><feColorMatrix in="shadowBlurOuter1" values="0 0 0 0 0 0 0 0 0 0 0 0 0 0 0 0 0 0 0.199473505 0"/></filter><path id="sc-e" d="M16.0000108,6.5 C20.6944491,6.5 24.5,10.3054751 24.5,15.0000718 L24.5,23.5 L16.0000108,23.5 C11.3054648,23.5 7.5,19.6944531 7.5,15.0000718 C7.5,10.3054751 11.3054648,6.5 16.0000108,6.5 Z M21.1000905,20.1001005 L21.1000905,15.0771089 C21.1000905,12.2577519 18.84495,9.9139715 16.0256707,9.90004308 C13.193339,9.88611465 10.88606,12.193279 10.9000459,15.025703 C10.9140319,17.8449882 13.2577258,20.1001005 16.0771127,20.1001005 L21.1000905,20.1001005 Z"/><filter id="sc-d" width="120.6%" height="120.6%" x="-10.3%" y="-7.4%" filterUnits="objectBoundingBox"><feOffset dy=".5" in="SourceAlpha" result="shadowOffsetOuter1"/><feGaussianBlur in="shadowOffsetOuter1" result="shadowBlurOuter1" stdDeviation=".5"/><feColorMatrix in="shadowBlurOuter1" values="0 0 0 0 0 0 0 0 0 0 0 0 0 0 0 0 0 0 0.204257246 0"/></filter></defs><g fill="none" fill-rule="evenodd"><use fill="#000" filter="url(#sc-a)" xlink:href="#sc-b"/><use fill="#20EE82" xlink:href="#sc-b"/><use fill="url(#sc-c)" style="mix-blend-mode:soft-light" xlink:href="#sc-b"/><circle cx="16" cy="15" r="14.5" stroke="#000" stroke-opacity=".097"/><g><use fill="#000" filter="url(#sc-d)" xlink:href="#sc-e"/><use fill="#FFF" xlink:href="#sc-e"/></g></g></svg>