<svg width="32" height="32" viewBox="0 0 32 32" version="1.1" xmlns="http://www.w3.org/2000/svg" xmlns:xlink="http://www.w3.org/1999/xlink"><title>svg/icon/shift</title><desc>Created with Sketch.</desc><defs><linearGradient x1="50%" y1="0%" x2="50%" y2="100%" id="linearGradient-1"><stop stop-color="#FFF" stop-opacity=".5" offset="0%"/><stop stop-color="#000" stop-opacity=".5" offset="100%"/></linearGradient><circle id="path-2" cx="15" cy="15" r="15"/><filter x="-5.8%" y="-4.2%" width="111.7%" height="111.7%" filterUnits="objectBoundingBox" id="filter-3"><feOffset dx="0" dy=".5" in="SourceAlpha" result="shadowOffsetOuter1"/><feGaussianBlur stdDeviation=".5" in="shadowOffsetOuter1" result="shadowBlurOuter1"/><feComposite in="shadowBlurOuter1" in2="SourceAlpha" operator="out" result="shadowBlurOuter1"/><feColorMatrix values="0 0 0 0 0 0 0 0 0 0 0 0 0 0 0 0 0 0 0.199473505 0" type="matrix" in="shadowBlurOuter1"/></filter></defs><g id="icon/shift" stroke="none" stroke-width="1" fill="none" fill-rule="evenodd"><g id="Group" transform="translate(1.000000, 0.000000)" fill-rule="nonzero"><g id="Oval"><use fill="#000" fill-opacity="1" filter="url(#filter-3)" xlink:href="#path-2"/><use fill="#964B9C" xlink:href="#path-2"/><use fill="url(#linearGradient-1)" style="mix-blend-mode:soft-light" xlink:href="#path-2"/><circle stroke-opacity=".097" stroke="#000" stroke-width="1" stroke-linejoin="square" cx="15" cy="15" r="14.5"/></g></g><g id="Shift-(SHIFT)" transform="translate(8.000000, 3.000000)" fill="#FFF" fill-rule="nonzero"><polygon id="Shape" opacity=".6" points="12.0061736 11.9161415 8.03138264 15.8909325 15.9799357 15.8909325 12.0061736 11.9161415"/><polygon id="Shape" opacity=".7" points="4.025209 11.9202572 8 7.94546624 0.0504180064 7.94546624 4.02572347 11.9202572"/><polygon id="Shape" opacity=".4" points="8.03086817 15.8914469 11.9958842 11.9264309 8.01286174 7.94340836 0.0637942122 15.8919614 8.01286174 23.8410289 15.9614148 15.8919614 15.9603859 15.8914469"/><polygon id="Shape" opacity=".8" points="8.04938907 0 0.105466238 7.94392283 8 7.94392283 4.04784566 11.8960772 8.04938907 15.8971061 15.9979421 7.94855305"/></g></g></svg>