<svg height="32" viewBox="0 0 32 32" width="32" xmlns="http://www.w3.org/2000/svg" xmlns:xlink="http://www.w3.org/1999/xlink"><defs><linearGradient id="a" x1="50%" x2="50%" y1="0%" y2="100%"><stop offset="0" stop-color="#fff" stop-opacity=".5"/><stop offset="1" stop-opacity=".5"/></linearGradient><circle id="b" cx="16" cy="15" r="15"/><filter id="c" height="111.7%" width="111.7%" x="-5.8%" y="-4.2%"><feOffset dy=".5" in="SourceAlpha" result="shadowOffsetOuter1"/><feGaussianBlur in="shadowOffsetOuter1" result="shadowBlurOuter1" stdDeviation=".5"/><feComposite in="shadowBlurOuter1" in2="SourceAlpha" operator="out" result="shadowBlurOuter1"/><feColorMatrix in="shadowBlurOuter1" values="0 0 0 0 0   0 0 0 0 0   0 0 0 0 0  0 0 0 0.199473505 0"/></filter><path id="d" d="m11.9213042 21c.1162243.363598 1.5651813 1.8635453 3.071238 1.8635453 2.2341798 0 3.539375-1.3476748 3.539375-3.2972688 0-1.8066013-.903877-2.8387641-3.1878673-3.842244-2.7610364-1.1182116-4.4679547-2.7527154-4.4679547-5.4767479 0-3.01086153 2.1839644-5.2472846 5.4718575-5.2472846 1.732026 0 3.4867298 1.09079405 4.0686614 1.81799009l-1.3967167 1.45481387c-.5519643-.34419487-1.2148885-1.20847832-2.7472678-1.20847832-2.308288 0-3.1878672 1.57713803-3.1878672 2.89612991 0 1.80660125 1.0294155 2.69534955 3.3636211 3.72751235 2.8614672 1.2616261 4.3173086 2.8387641 4.3173086 5.6775283 0 2.9821786-1.9438215 5.6345038-5.935135 5.6345038-1.6315952 0-3.3749601-1.0907941-4.422194-2.4241274zm1.862019-10.3030686c-.3490779-.72719608-.1166293-1.45439212-.1166293-1.45439212 8.8443879-1.45481388 7.2152225 7.15132342 7.2152225 7.15132342-.6981559-1.3333333-1.3963118-1.5754508-1.3963118-1.5754508.1162243-4.97015713-5.7022814-4.1214805-5.7022814-4.1214805zm3.9564867 7.8789412c.3511028.8486766-.05386 1.7319414-.05386 1.7319414-10.07061527 1.2983233-7.350885-7.9093114-7.3529098-7.9093114.533741 1.4130549 1.19788 1.7441738 1.19788 1.7441738-.1895226 5.7665295 6.2088898 4.4331962 6.2088898 4.4331962z"/><filter id="e" height="117.5%" width="131.8%" x="-15.9%" y="-6.2%"><feOffset dy=".5" in="SourceAlpha" result="shadowOffsetOuter1"/><feGaussianBlur in="shadowOffsetOuter1" result="shadowBlurOuter1" stdDeviation=".5"/><feColorMatrix in="shadowBlurOuter1" values="0 0 0 0 0   0 0 0 0 0   0 0 0 0 0  0 0 0 0.204257246 0"/></filter></defs><g fill="none" fill-rule="evenodd"><use fill="#000" filter="url(#c)" xlink:href="#b"/><use fill="#fda616" xlink:href="#b"/><use fill="url(#a)" xlink:href="#b"/><circle cx="16" cy="15" r="14.5" stroke="#000" stroke-opacity=".097"/><g fill-rule="nonzero"><use fill="#000" filter="url(#e)" xlink:href="#d"/><use fill="#fff" fill-rule="evenodd" xlink:href="#d"/></g></g></svg>