<svg height="32" viewBox="0 0 32 32" width="32" xmlns="http://www.w3.org/2000/svg" xmlns:xlink="http://www.w3.org/1999/xlink"><defs><linearGradient id="a" x1="50%" x2="50%" y1="0%" y2="100%"><stop offset="0" stop-color="#fff" stop-opacity=".5"/><stop offset="1" stop-opacity=".5"/></linearGradient><circle id="b" cx="16" cy="15" r="15"/><filter id="c" height="111.7%" width="111.7%" x="-5.8%" y="-4.2%"><feOffset dy=".5" in="SourceAlpha" result="shadowOffsetOuter1"/><feGaussianBlur in="shadowOffsetOuter1" result="shadowBlurOuter1" stdDeviation=".5"/><feComposite in="shadowBlurOuter1" in2="SourceAlpha" operator="out" result="shadowBlurOuter1"/><feColorMatrix in="shadowBlurOuter1" values="0 0 0 0 0   0 0 0 0 0   0 0 0 0 0  0 0 0 0.199473505 0"/></filter><path id="d" d="m16.9126638 20.2335878-.9318778 1.7366412-.9318777-1.7366412c-5.62969433-.4366412-10.0489083-4.6343512-10.0489083-4.6343512 0-.0099236 4.29432314-4.0786259 9.8087336-4.6145038l.730131-1.25038165.4419214-.73435115.749345 1.2503817.4227074.7343511c5.5144105.5259542 9.8087337 4.6145038 9.8087337 4.6145038s-4.419214 4.19771-10.0489083 4.6343512zm-10.98078607-4.6343512c-.00960699 0 4.24628817 2.9076336 8.52139737 3.5229008l-2.0847161-3.9.5668122-.9824427.5187773.972519-.009607.0099237 2.0270742 3.989313c.1633188.0099236.3266376.0099236.4899564.0099236.1633187 0 .3170305 0 .4803493-.0099236l1.489083-2.9671756 1.0855895-2.0244275.5668122.9824428-2.0847161 3.9099236c4.2751091-.6053435 8.5310043-3.4435114 8.5310043-3.5229007 0-.0694657-4.0541484-2.778626-8.2235808-3.4732825l.6340612 1.1015268-.5283843 1.061832-1.3737991-2.3022901c-.1825328-.0099236-.3746725-.0198473-.5572053-.0198473-.1825327 0-.3746725.0099237-.5668122.0198473l-1.4026201 2.3022901-.5187773-1.0122137.6628821-1.1412214c-4.1694323.7045802-8.22358077 3.4732824-8.22358077 3.4732824z"/><filter id="e" height="127%" width="115.9%" x="-8%" y="-9.6%"><feOffset dy=".5" in="SourceAlpha" result="shadowOffsetOuter1"/><feGaussianBlur in="shadowOffsetOuter1" result="shadowBlurOuter1" stdDeviation=".5"/><feColorMatrix in="shadowBlurOuter1" values="0 0 0 0 0   0 0 0 0 0   0 0 0 0 0  0 0 0 0.204257246 0"/></filter></defs><g fill="none" fill-rule="evenodd"><use fill="#000" filter="url(#c)" xlink:href="#b"/><use fill="#b30d23" xlink:href="#b"/><use fill="url(#a)" xlink:href="#b"/><circle cx="16" cy="15" r="14.5" stroke="#000" stroke-opacity=".097"/><g fill-rule="nonzero"><use fill="#000" filter="url(#e)" xlink:href="#d"/><use fill="#fff" fill-rule="evenodd" xlink:href="#d"/></g></g></svg>