<svg width="32" height="32" viewBox="0 0 32 32" version="1.1" xmlns="http://www.w3.org/2000/svg" xmlns:xlink="http://www.w3.org/1999/xlink"><title>svg/icon/soc</title><desc>Created with Sketch.</desc><defs><linearGradient x1="50%" y1="0%" x2="50%" y2="100%" id="linearGradient-1"><stop stop-color="#FFF" stop-opacity=".5" offset="0%"/><stop stop-color="#000" stop-opacity=".5" offset="100%"/></linearGradient><circle id="path-2" cx="15" cy="15" r="15"/><filter x="-5.8%" y="-4.2%" width="111.7%" height="111.7%" filterUnits="objectBoundingBox" id="filter-3"><feOffset dx="0" dy=".5" in="SourceAlpha" result="shadowOffsetOuter1"/><feGaussianBlur stdDeviation=".5" in="shadowOffsetOuter1" result="shadowBlurOuter1"/><feComposite in="shadowBlurOuter1" in2="SourceAlpha" operator="out" result="shadowBlurOuter1"/><feColorMatrix values="0 0 0 0 0 0 0 0 0 0 0 0 0 0 0 0 0 0 0.199473505 0" type="matrix" in="shadowBlurOuter1"/></filter></defs><g id="icon/soc" stroke="none" stroke-width="1" fill="none" fill-rule="evenodd"><g id="Group" transform="translate(1.000000, 0.000000)" fill-rule="nonzero"><g id="Oval"><use fill="#000" fill-opacity="1" filter="url(#filter-3)" xlink:href="#path-2"/><use fill="#199248" xlink:href="#path-2"/><use fill="url(#linearGradient-1)" style="mix-blend-mode:soft-light" xlink:href="#path-2"/><circle stroke-opacity=".097" stroke="#000" stroke-width="1" stroke-linejoin="square" cx="15" cy="15" r="14.5"/></g></g><g id="All-Sports-(SOC)" transform="translate(5.000000, 4.000000)" fill="#FFF" fill-rule="nonzero"><path d="M11,0 C4.92486775,-3.71994563e-16 7.43989126e-16,4.92486775 0,11 C-7.43989126e-16,17.0751322 4.92486775,22 11,22 C17.0751322,22 22,17.0751322 22,11 C22,8.08261861 20.8410748,5.28472557 18.7781746,3.22182541 C16.7152744,1.15892524 13.9173814,1.78638089e-16 11,0 Z M13.5145312,20.3826562 C10.0683032,21.3010015 6.39597306,20.2567272 3.94860123,17.6624611 C1.5012294,15.068195 0.67254076,11.3412937 1.7899779,7.95438073 C2.90741505,4.56746772 5.7912085,2.06541795 9.301875,1.436875 C14.4168665,0.54246319 19.3308679,3.82871867 20.4579342,8.8975284 C21.5850006,13.9663381 18.5265827,19.025287 13.5145312,20.3826562 Z" id="Shape"/><path d="M13.6864063,3.01296875 C13.6864063,3.48734375 13.6864063,3.96 13.7035938,4.434375 C13.069919,4.18828317 12.4102367,4.01528958 11.7373438,3.91875 C11.7098438,3.4890625 11.831875,3.01640625 11.7064063,2.6090625 C11.2270593,2.57497869 10.7461175,2.56923953 10.2660938,2.591875 C10.2420313,3.03359375 10.250625,3.47703125 10.2660938,3.92046875 C9.59238818,4.02109597 8.93221057,4.19752772 8.298125,4.44640625 C8.311875,3.96859375 8.31703125,3.49078125 8.31015625,3.01125 C4.87986122,4.16737788 2.56989318,7.38355412 2.56989318,11.0034375 C2.56989318,14.6233209 4.87986122,17.8394971 8.31015625,18.995625 C8.31015625,18.5269792 8.30557292,18.0589062 8.29640625,17.5914062 C8.92561658,17.8377651 9.58239554,18.0068655 10.2523437,18.095 C10.2523437,18.5246875 10.2523437,18.954375 10.2265625,19.380625 C10.7396386,19.4531307 11.2603614,19.4531307 11.7734375,19.380625 C11.749375,18.9560937 11.7390625,18.5332812 11.7373438,18.10875 C12.4072215,18.0144097 13.0648091,17.8472753 13.6984375,17.6103125 C13.6864063,18.074375 13.68125,18.5384375 13.6984375,19.0042187 C17.1279885,17.8458795 19.4358835,14.6282124 19.4335481,11.0083279 C19.4312126,7.38844331 17.1191677,4.17375679 13.688125,3.01984375 L13.6864063,3.01296875 Z M14.9410937,15.7867188 C13.8342187,16.7904687 12.2615625,17.0276562 10.8160937,17.0070312 C9.549375,17.0070312 8.20703125,16.6632812 7.2909375,15.7454687 C6.80453125,15.27625 6.52953125,14.6489062 6.28375,14.0267187 C7.16890625,13.798125 8.08328125,13.7207812 8.9753125,13.53 C9.08827878,14.0788816 9.48626176,14.5253831 10.0185937,14.7004688 C10.828125,14.953125 11.8301562,14.9892187 12.505625,14.4117188 C12.9834375,14.0146875 12.9971875,13.1467188 12.4042187,12.849375 C11.01375,12.1309375 9.28125,12.375 7.96640625,11.4657812 C6.1565625,10.3245312 6.0225,7.2978125 7.79453125,6.06546875 C9.14890625,5.115 10.9604687,4.99640625 12.5314062,5.37796875 C13.9528125,5.7371875 14.9651562,6.94203125 15.4532812,8.27578125 C14.5784375,8.42703125 13.7053125,8.58171875 12.8304687,8.72953125 C12.6001562,7.34078125 10.65625,7.01078125 9.6903125,7.8203125 C9.1403125,8.2775 9.28125,9.25203125 9.96875,9.49609375 C11.4726562,10.1182813 13.2773437,9.93953125 14.609375,10.9828125 C16.15625,12.03125 16.3178125,14.5354687 14.9410937,15.7867188 Z" id="Shape"/></g></g></svg>