<svg height="32" viewBox="0 0 32 32" width="32" xmlns="http://www.w3.org/2000/svg" xmlns:xlink="http://www.w3.org/1999/xlink"><defs><linearGradient id="a" x1="50%" x2="50%" y1="0%" y2="100%"><stop offset="0" stop-color="#fff" stop-opacity=".5"/><stop offset="1" stop-opacity=".5"/></linearGradient><circle id="b" cx="16" cy="15" r="15"/><filter id="c" height="111.7%" width="111.7%" x="-5.8%" y="-4.2%"><feOffset dy=".5" in="SourceAlpha" result="shadowOffsetOuter1"/><feGaussianBlur in="shadowOffsetOuter1" result="shadowBlurOuter1" stdDeviation=".5"/><feComposite in="shadowBlurOuter1" in2="SourceAlpha" operator="out" result="shadowBlurOuter1"/><feColorMatrix in="shadowBlurOuter1" values="0 0 0 0 0   0 0 0 0 0   0 0 0 0 0  0 0 0 0.199473505 0"/></filter><path id="d" d="m6 11.3909575v-.3559461h8.4174441v.3559461zm0-1.0345823v-.3563752h8.4174441v.3563752zm3.55052538 10.6399774v-8.8930738h.33712017v8.8930738zm.97947632 0v-8.8930738h.3371201v8.8930738zm15.2315162-.7282842-3.7978822-4.0126002.238218-.2516725 3.7980854 4.0123856zm-9.2423325-10.2680255 3.7980853 4.0126002-.2384211.2516726-3.7980853-4.0123857zm8.5497739 10.9998927-3.7978822-4.0126002.2382181-.2518871 3.7980853 4.0126002zm-9.2423325-10.2681328 3.7978823 4.0126002-.2384212.2516726-3.7980853-4.0123857zm5.4218064 4.7680899.2384212-.2518871 4.2747245-4.5161598.2384211.2518871-4.2747245 4.5161598-.2384211.2518871-.4542999.4799587-.2384212.2518871-4.2747245 4.5163744-.2386242-.2518871 4.2749276-4.5163744.2384211-.2518871zm-.4543608-.9836256 4.2749276-4.5161598.2384211.2518871-4.2749276 4.5161599-.2384211.2518871-.4540969.479744-.2386242.2521017-4.2747245 4.5161598-.2384211-.2518871 4.2747245-4.5163744.2384211-.2516725.4542999-.4799586z"/><filter id="e" height="131.8%" width="117.5%" x="-8.8%" y="-11.4%"><feOffset dy=".5" in="SourceAlpha" result="shadowOffsetOuter1"/><feGaussianBlur in="shadowOffsetOuter1" result="shadowBlurOuter1" stdDeviation=".5"/><feColorMatrix in="shadowBlurOuter1" values="0 0 0 0 0   0 0 0 0 0   0 0 0 0 0  0 0 0 0.204257246 0"/></filter></defs><g fill="none" fill-rule="evenodd"><use fill="#000" filter="url(#c)" xlink:href="#b"/><use fill="#00b098" xlink:href="#b"/><use fill="url(#a)" xlink:href="#b"/><circle cx="16" cy="15" r="14.5" stroke="#000" stroke-opacity=".097"/><g fill-rule="nonzero"><use fill="#000" filter="url(#e)" xlink:href="#d"/><use fill="#fff" fill-rule="evenodd" xlink:href="#d"/></g></g></svg>