<svg xmlns="http://www.w3.org/2000/svg" xmlns:xlink="http://www.w3.org/1999/xlink" width="32" height="32" viewBox="0 0 32 32"><defs><filter id="a" width="111.7%" height="111.7%" x="-5.8%" y="-4.2%" filterUnits="objectBoundingBox"><feOffset dy=".5" in="SourceAlpha" result="shadowOffsetOuter1"/><feGaussianBlur in="shadowOffsetOuter1" result="shadowBlurOuter1" stdDeviation=".5"/><feComposite in="shadowBlurOuter1" in2="SourceAlpha" operator="out" result="shadowBlurOuter1"/><feColorMatrix in="shadowBlurOuter1" values="0 0 0 0 0 0 0 0 0 0 0 0 0 0 0 0 0 0 0.199473505 0"/></filter><filter id="d" width="115.9%" height="129.2%" x="-8%" y="-10.4%" filterUnits="objectBoundingBox"><feOffset dy=".5" in="SourceAlpha" result="shadowOffsetOuter1"/><feGaussianBlur in="shadowOffsetOuter1" result="shadowBlurOuter1" stdDeviation=".5"/><feColorMatrix in="shadowBlurOuter1" values="0 0 0 0 0 0 0 0 0 0 0 0 0 0 0 0 0 0 0.204257246 0"/></filter><linearGradient id="c" x1="50%" x2="50%" y1="0%" y2="100%"><stop offset="0%" stop-color="#FFF" stop-opacity=".5"/><stop offset="100%" stop-opacity=".5"/></linearGradient><circle id="b" cx="16" cy="15" r="15"/><path id="e" d="M15.715 12.433c.306.125.612.062.857 0 .184.624.49 1.185.795 1.434-.183 1.56-.734 2.121-1.346 2.121-.856 0-1.285-1.809-1.285-2.12.184-.125.735-.5.98-1.435zm-.918 5.489c.368-.312.612-.811.918-1.622.245.125.612.062.857 0 .184.873.367 1.435.795 1.684-.122.998-.734 1.684-1.285 1.684-.795 0-1.162-1.247-1.285-1.746zm-4.895 1.933c.245-.312.245-.81.123-1.746.183.062.367.062.49 0 .366.873.672 1.434 1.162 1.746.061.437 0 .936-.184.998-.673.312-1.285-.499-1.59-.998zm-2.57-1.684c.123 0 .184 0 .306.063.429 1.122 1.163 1.746 1.163 1.746.245.499.367.998.183.998-.55.062-.979-.312-1.407-1.123.061-.187 0-.312-.245-1.684zm-1.652 0c.612 2.62 1.775 2.495 1.714 2.37-.245-.436-.49-.623-.735-.81-.55-.562-.979-1.747-.979-1.56zm7.465 1.684c.429-.312.49-.998.551-1.87.245.061.55.061.734 0 .123.56.306 1.371.857 1.746-.061.686-.245 1.06-.673 1.122-.306.125-1.163.125-1.469-.998zm-5.262-1.933c.245-.312.306-.811.367-1.497.184.062.429.062.55 0 .184.81.49 1.31.858 1.56.122 1.309 0 1.746-.245 1.746-.55 0-1.285-1.186-1.53-1.81zm-1.897 0c0-.125.061-.936.123-1.497h.244c.306 1.185.735 1.56.735 1.56.306 1.434.306 1.808.06 1.683-.55-.187-.978-1.247-1.162-1.746zm4.895 0c.306-.25.49-.686.612-1.497.306.124.612.062.796 0 .183.81.49 1.31.918 1.56 0 .685-.062 1.808-.918 1.62-.735-.186-1.346-1.434-1.408-1.683zm-.55-.187c-.735 0-1.163-1.186-1.163-1.56.367-.374.55-1.06.734-2.245.123.062.306.062.49 0 .061 1.31.428 1.871.734 2.183-.122 1.06-.428 1.622-.795 1.622zm-3.794-1.56c.122-.25.122-.312.49-2.245h.305c0 1.31.367 1.933.551 2.183-.061.686.061 1.622-.49 1.622-.244 0-.55-.312-.856-1.56zm-1.224-2.183c.184.063.061 1.684.306 2.246 0 0 0 1.559-.122 1.434-.918-1.123-.306-3.742-.184-3.68zm7.343 2.183c.428-.312.673-.998 1.04-2.245.245.062.55.062.734 0 .123.935.367 1.622.857 2.12-.122.998-.612 1.685-1.224 1.685-.979 0-1.346-1.373-1.407-1.56zm-5.018-2.432c.49-.187.796-1.248.857-1.373a.367.367 0 00.49 0c0 .811.244 1.186.428 1.31-.184 1.06-.429 2.308-.98 2.308-.489 0-.734-1.123-.795-2.245zm-1.53 2.307c-.428 0-.55-1.621-.428-2.307 0 0 .367-.562.612-1.373.061 0 .184.063.245 0-.061.811.061 1.186.183 1.373 0 0-.305 2.307-.611 2.307zm4.651-2.307c.245-.125.734-.811.979-1.435.245.125.49.125.795.062.123.687.306 1.123.735 1.373-.184 1.122-.551 2.245-1.346 2.245-.735 0-1.102-1.497-1.163-2.245zm.55-1.684c-.366.998-.734 1.559-1.223 1.559-.612 0-.673-1.31-.673-1.435.49-.374.856-1.122 1.162-1.746h.429c-.123.935.122 1.372.306 1.622zm-2.998-1.56c-.306.873-.183 1.31-.06 1.622-.49 1.247-.735 1.56-1.102 1.56-.367-.063-.367-.812-.245-1.435.367-.25 1.163-1.684 1.163-1.747h.244zm-1.774.063c.183-.063-.49.873-.428 1.31.06.623-.674 1.684-.735 1.621-.244-.062.245-2.308 1.163-2.931zm8.689 1.497c-.184.686-.429 1.559-1.469 1.559-.55-.062-.856-.81-.979-1.435.612-.436.918-1.185 1.102-1.746.183.062.49.062.673 0 .122.935.428 1.372.673 1.622zm-8.322-1.685c.122-.062.918-1.122 1.346-1.122.245.062-.428.686-.367.998-.184.312-1.04 1.87-1.346 1.87-.245 0-.245-.81.367-1.746zm15.053 7.735c-.062.935-.062 1.434.122 1.746-.245.5-.918 1.248-1.59.998-.246-.062-.246-.561-.185-.998.551-.312.918-.935 1.163-1.746.122.062.306.062.49 0zm2.447 0c.061.062.184.062.306-.063-.245 1.373-.306 1.497-.245 1.685-.428.81-.856 1.122-1.407 1.122-.245 0-.122-.436.184-.998 0 0 .734-.623 1.162-1.746zm.98 1.622c-.246.249-.49.374-.674.81-.061.125 1.102.25 1.713-2.37-.122-.187-.49.998-1.04 1.56zm-7.038-1.622c0 .748.184 1.434.551 1.871-.306 1.06-1.162 1.06-1.468.998-.429-.125-.551-.499-.673-1.123.489-.436.734-1.185.856-1.746.245.062.49.062.734 0zm5.507-1.747c0 .749.062 1.248.368 1.497-.245.624-1.04 1.81-1.53 1.81-.245 0-.367-.437-.245-1.747.367-.25.673-.874.857-1.56a.562.562 0 00.55 0zm2.203.125c0 .5 0 1.31.123 1.497-.245.5-.673 1.56-1.163 1.747-.306.062-.245-.312.061-1.685 0 0 .429-.436.735-1.559h.244zm-5.446-.125c.123.874.245 1.31.612 1.497-.06.312-.734 1.56-1.407 1.684-.857.188-.918-.998-.918-1.621.428-.25.734-.811.918-1.56.184.063.49.125.795 0zm2.326-.187c-.062.374-.551 1.56-1.163 1.56-.367 0-.673-.624-.795-1.622.306-.25.673-.873.734-2.183a.664.664 0 00.49 0c.244 1.123.428 1.871.734 2.245zm2.141-2.245c.306 1.933.367 1.996.49 2.245-.306 1.185-.612 1.56-.857 1.56-.55 0-.428-.998-.49-1.622.245-.25.551-.873.551-2.183.123.062.184 0 .306 0zm1.285 2.245c.306-.499.184-2.12.306-2.245.184-.063.734 2.682-.183 3.68-.123.125-.123-1.435-.123-1.435zM18.53 13.93c.184 1.247.49 1.933 1.04 2.245-.061.187-.55 1.56-1.407 1.56-.673.062-1.04-.749-1.224-1.685.428-.498.734-1.185.857-2.12.122.062.428.062.734 0zm5.079-1.56c0 .125.367 1.186.795 1.497 0 1.06-.306 2.246-.795 2.246-.551 0-.796-1.185-.98-2.308.184-.187.429-.624.429-1.372a.585.585 0 00.55-.063zm2.753 1.373c.061.686-.061 2.307-.367 2.245-.306 0-.612-2.308-.612-2.308.123-.187.245-.623.184-1.31a.183.183 0 00.245 0c.244.811.55 1.373.55 1.373zm-5.996-1.373c.244.562.673 1.248 1.04 1.435-.061.749-.49 2.245-1.163 2.245-.918.063-1.162-1.06-1.346-2.245.367-.25.612-.748.673-1.372.245.062.55.062.796-.063zm1.53 1.186c-.429.062-.796-.5-1.224-1.497.244-.25.428-.749.306-1.622.183.062.306.062.428 0 .367.686.734 1.372 1.162 1.684 0 .187-.06 1.435-.673 1.435zm1.957-1.497c.062-.25.184-.687-.183-1.622h.245c0 .062.856 1.56 1.162 1.746.123.686.123 1.373-.245 1.435-.305 0-.55-.312-.979-1.56zm2.08-.188c.062-.436-.55-1.372-.489-1.31.98.624 1.347 2.87 1.163 2.932-.061.063-.734-1.06-.673-1.622zm-7.77 1.685c-.918.062-1.163-.811-1.346-1.497.306-.188.612-.749.673-1.622.183.062.49.062.673 0 .183.561.49 1.31.979 1.684-.061.748-.367 1.372-.98 1.435zm5.69-4.304c.306 0 1.224 1.06 1.285 1.122.674.998.674 1.747.429 1.747-.367 0-1.163-1.56-1.346-1.871.06-.312-.612-.998-.368-.998zm-13.584.187c-.122.374-.183.748 0 .935-.367.749-.979 1.81-1.53 1.747-.611-.125-.122-1.56-.06-1.684.367-.187 1.223-1.372 1.53-1.372.183.062.06.374.06.374zm2.876-.062c0 .374.062.81.367.997-.244.749-.734 1.747-1.53 1.685-.55-.063-.672-.998-.55-1.685.55-.187 1.04-1.372 1.407-1.372.306 0 .306.312.306.375zm8.69.997c.122-.187.122-.56 0-.935 0-.062-.123-.374.06-.374.306 0 1.163 1.185 1.53 1.372.061.125.55 1.56-.061 1.684-.612.062-1.163-1.06-1.53-1.747zm-3.244 0c.245-.187.306-.623.367-.997 0-.063 0-.375.306-.375.306-.062.918 1.185 1.408 1.372.183.811.06 1.622-.551 1.685-.857.124-1.285-.998-1.53-1.685zm-2.57-1.372c.612 0 .612 1.185 1.102 1.435 0 .312-.184 1.684-1.163 1.684-.857 0-1.04-1.123-1.101-1.684.734-.312.49-1.435 1.162-1.435z"/></defs><g fill="none" fill-rule="evenodd"><use fill="#000" filter="url(#a)" xlink:href="#b"/><use fill="#1C1C1C" xlink:href="#b"/><use fill="url(#c)" style="mix-blend-mode:soft-light" xlink:href="#b"/><circle cx="16" cy="15" r="14.5" stroke="#000" stroke-opacity=".097"/><g fill-rule="nonzero"><use fill="#000" filter="url(#d)" xlink:href="#e"/><use fill="#FFF" fill-rule="evenodd" xlink:href="#e"/></g></g></svg>