<svg xmlns="http://www.w3.org/2000/svg" xmlns:xlink="http://www.w3.org/1999/xlink" width="32" height="32" viewBox="0 0 32 32"><defs><linearGradient id="srn-c" x1="50%" x2="50%" y1="0%" y2="100%"><stop offset="0%" stop-color="#FFF" stop-opacity=".5"/><stop offset="100%" stop-opacity=".5"/></linearGradient><circle id="srn-b" cx="16" cy="15" r="15"/><filter id="srn-a" width="111.7%" height="111.7%" x="-5.8%" y="-4.2%" filterUnits="objectBoundingBox"><feOffset dy=".5" in="SourceAlpha" result="shadowOffsetOuter1"/><feGaussianBlur in="shadowOffsetOuter1" result="shadowBlurOuter1" stdDeviation=".5"/><feComposite in="shadowBlurOuter1" in2="SourceAlpha" operator="out" result="shadowBlurOuter1"/><feColorMatrix in="shadowBlurOuter1" values="0 0 0 0 0 0 0 0 0 0 0 0 0 0 0 0 0 0 0.199473505 0"/></filter><path id="srn-e" d="M15.7152874,12.4328186 C16.0212339,12.5575662 16.3271804,12.4951924 16.5719375,12.4328186 C16.7555054,13.0565564 17.0614519,13.6179204 17.3673983,13.8674156 C17.1838304,15.4267601 16.6331268,15.9881241 16.0212339,15.9881241 C15.1645838,15.9881241 14.7362588,14.1792845 14.7362588,13.8674156 C14.9198266,13.742668 15.4705303,13.3684253 15.7152874,12.4328186 Z M14.7974483,17.9217113 C15.164584,17.6098424 15.4093412,17.1108521 15.7152877,16.299993 C15.9600448,16.4247405 16.3271806,16.3623668 16.5719378,16.299993 C16.7555056,17.1732259 16.9390735,17.7345899 17.3673986,17.9840851 C17.24502,18.9820655 16.6331271,19.6681771 16.0824234,19.6681771 C15.2869626,19.6681771 14.9198269,18.4207015 14.7974483,17.9217113 Z M9.90230493,19.8552985 C10.1470621,19.5434296 10.1470621,19.0444393 10.0246835,18.1088326 C10.2082514,18.1712064 10.3918193,18.1712064 10.5141979,18.1088326 C10.8813336,18.9820655 11.1872801,19.5434296 11.6767944,19.8552985 C11.7379837,20.2919149 11.6767944,20.7909052 11.4932265,20.8532789 C10.8201443,21.1651478 10.2082514,20.3542887 9.90230493,19.8552985 Z M7.33235467,18.1712064 C7.45473325,18.1712064 7.51592254,18.1712064 7.63830113,18.2335802 C8.06662617,19.3563082 8.80089767,19.980046 8.80089767,19.980046 C9.04565484,20.4790363 9.16803343,20.9780265 8.98446555,20.9780265 C8.43376192,21.0404003 8.00543688,20.6661576 7.57711183,19.8552985 C7.63830113,19.6681771 7.57711183,19.5434296 7.33235467,18.1712064 Z M5.68024378,18.1712064 C6.2921367,20.7909052 7.45473325,20.6661576 7.39354396,20.54141 C7.14878679,20.1047936 6.90402962,19.9176722 6.65927245,19.7305509 C6.10856883,19.1691869 5.68024378,17.9840851 5.68024378,18.1712064 Z M13.1453374,19.8552985 C13.5736625,19.5434296 13.6348517,18.857318 13.696041,17.9840851 C13.9407982,18.0464588 14.2467447,18.0464588 14.4303125,17.9840851 C14.5526911,18.5454491 14.736259,19.3563082 15.2869626,19.7305509 C15.2257733,20.4166625 15.0422055,20.7909052 14.6138804,20.8532789 C14.307934,20.9780265 13.4512839,20.9780265 13.1453374,19.8552985 Z M7.88305829,17.9217113 C8.12781546,17.6098424 8.18900475,17.1108521 8.25019405,16.4247405 C8.43376192,16.4871143 8.67851909,16.4871143 8.80089767,16.4247405 C8.98446555,17.2355997 9.29041201,17.7345899 9.65754776,17.9840851 C9.77992635,19.2939344 9.65754776,19.7305509 9.4127906,19.7305509 C8.86208697,19.7305509 8.12781546,18.5454491 7.88305829,17.9217113 Z M5.98619024,17.9217113 C5.98619024,17.7969637 6.04737953,16.9861046 6.10856883,16.4247405 C6.16975812,16.4247405 6.2921367,16.4247405 6.35332599,16.4247405 C6.65927245,17.6098424 7.0875975,17.9840851 7.0875975,17.9840851 C7.39354396,19.418682 7.39354396,19.7929247 7.14878679,19.6681771 C6.59808316,19.4810558 6.16975812,18.4207015 5.98619024,17.9217113 Z M10.8813336,17.9217113 C11.1872801,17.6722162 11.3708479,17.2355997 11.4932265,16.4247405 C11.799173,16.5494881 12.1051194,16.4871143 12.2886873,16.4247405 C12.4722552,17.2355997 12.7782017,17.7345899 13.2065267,17.9840851 C13.2065267,18.6701966 13.1453374,19.7929247 12.2886873,19.6058033 C11.5544158,19.418682 10.9425229,18.1712064 10.8813336,17.9217113 Z M10.33063,17.7345899 C9.59635847,17.7345899 9.16803343,16.5494881 9.16803343,16.1752454 C9.53516918,15.8010027 9.71873706,15.1148912 9.90230493,13.9297893 C10.0246835,13.9921631 10.2082514,13.9921631 10.3918193,13.9297893 C10.4530086,15.2396387 10.8201443,15.8010027 11.1260908,16.1128716 C11.0037122,17.1732259 10.6977657,17.7345899 10.33063,17.7345899 Z M6.53689387,16.1752454 C6.65927245,15.9257503 6.65927245,15.8633765 7.02640821,13.9297893 C7.14878679,13.9297893 7.20997608,13.9297893 7.33235467,13.9297893 C7.33235467,15.2396387 7.69949042,15.8633765 7.88305829,16.1128716 C7.821869,16.7989832 7.94424759,17.7345899 7.39354396,17.7345899 C7.14878679,17.7345899 6.84284033,17.422721 6.53689387,16.1752454 Z M5.31310803,13.9921631 C5.49667591,14.0545369 5.37429732,15.6762552 5.61905449,16.2376192 C5.61905449,16.2376192 5.61905449,17.7969637 5.49667591,17.6722162 C4.57883653,16.5494881 5.19072945,13.9297893 5.31310803,13.9921631 Z M12.6558231,16.1752454 C13.0841481,15.8633765 13.3289053,15.1772649 13.696041,13.9297893 C13.9407982,13.9921631 14.2467447,13.9921631 14.4303125,13.9297893 C14.5526911,14.865396 14.7974483,15.5515076 15.2869626,16.0504979 C15.164584,17.0484783 14.6750697,17.7345899 14.0631768,17.7345899 C13.0841481,17.7345899 12.7170124,16.3623668 12.6558231,16.1752454 Z M7.63830113,13.742668 C8.12781546,13.5555467 8.43376192,12.4951924 8.49495121,12.3704448 C8.6173298,12.4951924 8.86208697,12.4951924 8.98446555,12.3704448 C8.98446555,13.181304 9.22922272,13.5555467 9.4127906,13.6802942 C9.22922272,14.7406485 8.98446555,15.9881241 8.43376192,15.9881241 C7.94424759,15.9881241 7.69949042,14.865396 7.63830113,13.742668 Z M6.10856883,16.0504979 C5.68024378,16.0504979 5.5578652,14.4287796 5.68024378,13.742668 C5.68024378,13.742668 6.04737953,13.181304 6.2921367,12.3704448 C6.35332599,12.3704448 6.47570458,12.4328186 6.53689387,12.3704448 C6.47570458,13.181304 6.59808316,13.5555467 6.72046175,13.742668 C6.72046175,13.742668 6.41451529,16.0504979 6.10856883,16.0504979 Z M10.758955,13.742668 C11.0037122,13.6179204 11.4932265,12.9318089 11.7379837,12.3080711 C11.9827409,12.4328186 12.227498,12.4328186 12.5334445,12.3704448 C12.6558231,13.0565564 12.8393909,13.4931729 13.267716,13.742668 C13.0841481,14.865396 12.7170124,15.9881241 11.9215516,15.9881241 C11.1872801,15.9881241 10.8201443,14.4911534 10.758955,13.742668 Z M11.3096586,12.0585759 C10.9425229,13.0565564 10.5753871,13.6179204 10.0858728,13.6179204 C9.47397989,13.6179204 9.4127906,12.3080711 9.4127906,12.1833235 C9.90230493,11.8090808 10.2694407,11.0605955 10.5753871,10.4368577 C10.6977657,10.4368577 10.8201443,10.4368577 11.0037122,10.4368577 C10.8813336,11.3724644 11.1260908,11.8090808 11.3096586,12.0585759 Z M8.31138334,10.4992314 C8.00543688,11.3724644 8.12781546,11.8090808 8.25019405,12.1209497 C7.76067971,13.3684253 7.51592254,13.6802942 7.14878679,13.6802942 C6.78165104,13.6179204 6.78165104,12.8694351 6.90402962,12.2456973 C7.27116537,11.9962022 8.06662617,10.5616052 8.06662617,10.4992314 C8.12781546,10.4992314 8.25019405,10.4992314 8.31138334,10.4992314 Z M6.53689387,10.5616052 C6.72046175,10.4992314 6.04737953,11.4348381 6.10856883,11.8714546 C6.16975812,12.4951924 5.43548661,13.5555467 5.37429732,13.4931729 C5.12954015,13.4307991 5.61905449,11.185343 6.53689387,10.5616052 Z M15.2257733,12.0585759 C15.0422055,12.7446875 14.7974483,13.6179204 13.7572303,13.6179204 C13.2065267,13.5555467 12.9005802,12.8070613 12.7782017,12.1833235 C13.3900946,11.746707 13.696041,10.9982217 13.8796089,10.4368577 C14.0631768,10.4992314 14.3691232,10.4992314 14.5526911,10.4368577 C14.6750697,11.3724644 14.9810162,11.8090808 15.2257733,12.0585759 Z M6.90402962,10.3744839 C7.02640821,10.3121101 7.821869,9.25175583 8.25019405,9.25175583 C8.49495121,9.31412961 7.821869,9.93786741 7.88305829,10.2497363 C7.69949042,10.5616052 6.84284033,12.1209497 6.53689387,12.1209497 C6.2921367,12.1209497 6.2921367,11.3100906 6.90402962,10.3744839 Z M21.9565955,18.1088326 C21.8954062,19.0444393 21.8954062,19.5434296 22.078974,19.8552985 C21.8342169,20.3542887 21.1611347,21.1027741 20.4880525,20.8532789 C20.2432953,20.7909052 20.2432953,20.2919149 20.3044846,19.8552985 C20.8551882,19.5434296 21.222324,18.9196918 21.4670811,18.1088326 C21.5894597,18.1712064 21.7730276,18.1712064 21.9565955,18.1088326 Z M24.4041671,18.1088326 C24.4653564,18.1712064 24.587735,18.1712064 24.7101136,18.0464588 C24.4653564,19.418682 24.4041671,19.5434296 24.4653564,19.7305509 C24.0370314,20.54141 23.6087063,20.8532789 23.0580027,20.8532789 C22.8132455,20.8532789 22.9356241,20.4166625 23.2415706,19.8552985 C23.2415706,19.8552985 23.9758421,19.2315607 24.4041671,18.1088326 Z M25.3831958,19.7305509 C25.1384386,19.980046 24.8936815,20.1047936 24.7101136,20.54141 C24.6489243,20.6661576 25.8115209,20.7909052 26.4234138,18.1712064 C26.3010352,17.9840851 25.9338994,19.1691869 25.3831958,19.7305509 Z M18.3464272,18.1088326 C18.3464272,18.857318 18.5299951,19.5434296 18.8971309,19.980046 C18.5911844,21.0404003 17.7345343,21.0404003 17.4285879,20.9780265 C17.0002628,20.8532789 16.8778842,20.4790363 16.7555056,19.8552985 C17.24502,19.418682 17.4897771,18.6701966 17.6121557,18.1088326 C17.8569129,18.1712064 18.1016701,18.1712064 18.3464272,18.1088326 Z M23.8534635,16.3623668 C23.8534635,17.1108521 23.9146528,17.6098424 24.2205993,17.8593375 C23.9758421,18.4830753 23.1803813,19.6681771 22.690867,19.6681771 C22.4461098,19.6681771 22.3237312,19.2315607 22.4461098,17.9217113 C22.8132455,17.6722162 23.119192,17.0484783 23.3027599,16.3623668 C23.4251385,16.4247405 23.6087063,16.4871143 23.8534635,16.3623668 Z M26.056278,16.4871143 C26.056278,16.9861046 26.056278,17.7969637 26.1786566,17.9840851 C25.9338994,18.4830753 25.5055744,19.5434296 25.0160601,19.7305509 C24.7101136,19.7929247 24.7713029,19.418682 25.0772494,18.0464588 C25.0772494,18.0464588 25.5055744,17.6098424 25.8115209,16.4871143 C25.8727101,16.4871143 25.9950887,16.4871143 26.056278,16.4871143 Z M20.610431,16.3623668 C20.7328096,17.2355997 20.8551882,17.6722162 21.222324,17.8593375 C21.1611347,18.1712064 20.4880525,19.418682 19.8149702,19.5434296 C18.9583202,19.7305509 18.8971309,18.5454491 18.8971309,17.9217113 C19.3254559,17.6722162 19.6314024,17.1108521 19.8149702,16.3623668 C19.9985381,16.4247405 20.3044846,16.4871143 20.610431,16.3623668 Z M22.9356241,16.1752454 C22.8744348,16.5494881 22.3849205,17.7345899 21.7730276,17.7345899 C21.4058918,17.7345899 21.0999454,17.1108521 20.9775668,16.1128716 C21.2835132,15.8633765 21.650649,15.2396387 21.7118383,13.9297893 C21.8954062,13.9921631 22.0177848,13.9921631 22.2013526,13.9297893 C22.4461098,15.0525174 22.6296777,15.8010027 22.9356241,16.1752454 Z M25.0772494,13.9297893 C25.3831958,15.8633765 25.4443851,15.9257503 25.5667637,16.1752454 C25.2608172,17.3603472 24.9548708,17.7345899 24.7101136,17.7345899 C24.15941,17.7345899 24.2817886,16.7366094 24.2205993,16.1128716 C24.4653564,15.8633765 24.7713029,15.2396387 24.7713029,13.9297893 C24.8936815,13.9921631 24.9548708,13.9297893 25.0772494,13.9297893 Z M26.3622245,16.1752454 C26.6681709,15.6762552 26.5457924,14.0545369 26.6681709,13.9297893 C26.8517388,13.8674156 27.4024425,16.6118619 26.4846031,17.6098424 C26.3622245,17.7345899 26.3622245,16.1752454 26.3622245,16.1752454 Z M18.5299951,13.9297893 C18.713563,15.1772649 19.0195094,15.8633765 19.5702131,16.1752454 C19.5090238,16.3623668 19.0195094,17.7345899 18.1628594,17.7345899 C17.4897771,17.7969637 17.1226414,16.9861046 16.9390735,16.0504979 C17.3673986,15.5515076 17.673345,14.865396 17.7957236,13.9297893 C17.9181022,13.9921631 18.2240486,13.9921631 18.5299951,13.9297893 Z M23.6087063,12.3704448 C23.6087063,12.4951924 23.9758421,13.5555467 24.4041671,13.8674156 C24.4041671,14.9277698 24.0982207,16.1128716 23.6087063,16.1128716 C23.0580027,16.1128716 22.8132455,14.9277698 22.6296777,13.8050418 C22.8132455,13.6179204 23.0580027,13.181304 23.0580027,12.4328186 C23.2415706,12.4951924 23.4251385,12.4951924 23.6087063,12.3704448 Z M26.3622245,13.742668 C26.4234138,14.4287796 26.3010352,16.0504979 25.9950887,15.9881241 C25.6891423,15.9881241 25.3831958,13.6802942 25.3831958,13.6802942 C25.5055744,13.4931729 25.627953,13.0565564 25.5667637,12.3704448 C25.627953,12.4328186 25.7503316,12.4328186 25.8115209,12.3704448 C26.056278,13.181304 26.3622245,13.742668 26.3622245,13.742668 Z M20.3656739,12.3704448 C20.610431,12.9318089 21.0387561,13.6179204 21.4058918,13.8050418 C21.3447025,14.5535271 20.9163775,16.0504979 20.2432953,16.0504979 C19.3254559,16.1128716 19.0806987,14.9901436 18.8971309,13.8050418 C19.2642666,13.5555467 19.5090238,13.0565564 19.5702131,12.4328186 C19.8149702,12.4951924 20.1209167,12.4951924 20.3656739,12.3704448 Z M21.8954062,13.5555467 C21.4670811,13.6179204 21.0999454,13.0565564 20.6716203,12.0585759 C20.9163775,11.8090808 21.0999454,11.3100906 20.9775668,10.4368577 C21.1611347,10.4992314 21.2835132,10.4992314 21.4058918,10.4368577 C21.7730276,11.1229692 22.1401633,11.8090808 22.5684884,12.1209497 C22.5684884,12.3080711 22.5072991,13.5555467 21.8954062,13.5555467 Z M23.8534635,12.0585759 C23.9146528,11.8090808 24.0370314,11.3724644 23.6698956,10.4368577 C23.7922742,10.4368577 23.8534635,10.4368577 23.9146528,10.4368577 C23.9146528,10.4992314 24.7713029,11.9962022 25.0772494,12.1833235 C25.1996279,12.8694351 25.1996279,13.5555467 24.8324922,13.6179204 C24.5265457,13.6179204 24.2817886,13.3060515 23.8534635,12.0585759 Z M25.9338994,11.8714546 C25.9950887,11.4348381 25.3831958,10.4992314 25.4443851,10.5616052 C26.4234138,11.185343 26.7905495,13.4307991 26.6069817,13.4931729 C26.5457924,13.5555467 25.8727101,12.4328186 25.9338994,11.8714546 Z M18.1628594,13.5555467 C17.24502,13.6179204 17.0002628,12.7446875 16.8166949,12.0585759 C17.1226414,11.8714546 17.4285879,11.3100906 17.4897771,10.4368577 C17.673345,10.4992314 17.9792915,10.4992314 18.1628594,10.4368577 C18.3464272,10.9982217 18.6523737,11.746707 19.141888,12.1209497 C19.0806987,12.8694351 18.7747523,13.4931729 18.1628594,13.5555467 Z M23.8534635,9.25175583 C24.15941,9.25175583 25.0772494,10.3121101 25.1384386,10.3744839 C25.8115209,11.3724644 25.8115209,12.1209497 25.5667637,12.1209497 C25.1996279,12.1209497 24.4041671,10.5616052 24.2205993,10.2497363 C24.2817886,9.93786741 23.6087063,9.25175583 23.8534635,9.25175583 Z M10.2694407,9.43887717 C10.1470621,9.81311985 10.0858728,10.1873625 10.2694407,10.3744839 C9.90230493,11.1229692 9.29041201,12.1833235 8.73970838,12.1209497 C8.12781546,11.9962022 8.6173298,10.5616052 8.67851909,10.4368577 C9.04565484,10.2497363 9.90230493,9.06463449 10.2082514,9.06463449 C10.3918193,9.12700827 10.2694407,9.43887717 10.2694407,9.43887717 Z M13.1453374,9.37650339 C13.1453374,9.75074607 13.2065267,10.1873625 13.5124732,10.3744839 C13.267716,11.1229692 12.7782017,12.1209497 11.9827409,12.0585759 C11.4320372,11.9962022 11.3096586,11.0605955 11.4320372,10.3744839 C11.9827409,10.1873625 12.4722552,9.00226071 12.8393909,9.00226071 C13.1453374,9.00226071 13.1453374,9.31412961 13.1453374,9.37650339 Z M21.8342169,10.3744839 C21.9565955,10.1873625 21.9565955,9.81311985 21.8342169,9.43887717 C21.8342169,9.37650339 21.7118383,9.06463449 21.8954062,9.06463449 C22.2013526,9.06463449 23.0580027,10.2497363 23.4251385,10.4368577 C23.4863278,10.5616052 23.9758421,11.9962022 23.3639492,12.1209497 C22.7520563,12.1833235 22.2013526,11.0605955 21.8342169,10.3744839 Z M18.5911844,10.3744839 C18.8359416,10.1873625 18.8971309,9.75074607 18.9583202,9.37650339 C18.9583202,9.31412961 18.9583202,9.00226071 19.2642666,9.00226071 C19.5702131,8.93988693 20.182106,10.1873625 20.6716203,10.3744839 C20.8551882,11.185343 20.7328096,11.9962022 20.1209167,12.0585759 C19.2642666,12.1833235 18.8359416,11.0605955 18.5911844,10.3744839 Z M16.0212341,9.00226071 C16.6331271,9.00226071 16.6331271,10.1873625 17.1226414,10.4368577 C17.1226414,10.7487266 16.9390735,12.1209497 15.9600448,12.1209497 C15.1033948,12.1209497 14.9198269,10.9982217 14.8586376,10.4368577 C15.5929091,10.1249888 15.3481519,9.00226071 16.0212341,9.00226071 Z"/><filter id="srn-d" width="115.9%" height="129.2%" x="-8%" y="-10.4%" filterUnits="objectBoundingBox"><feOffset dy=".5" in="SourceAlpha" result="shadowOffsetOuter1"/><feGaussianBlur in="shadowOffsetOuter1" result="shadowBlurOuter1" stdDeviation=".5"/><feColorMatrix in="shadowBlurOuter1" values="0 0 0 0 0 0 0 0 0 0 0 0 0 0 0 0 0 0 0.204257246 0"/></filter></defs><g fill="none" fill-rule="evenodd"><use fill="#000" filter="url(#srn-a)" xlink:href="#srn-b"/><use fill="#1C1C1C" xlink:href="#srn-b"/><use fill="url(#srn-c)" style="mix-blend-mode:soft-light" xlink:href="#srn-b"/><circle cx="16" cy="15" r="14.5" stroke="#000" stroke-opacity=".097"/><g fill-rule="nonzero"><use fill="#000" filter="url(#srn-d)" xlink:href="#srn-e"/><use fill="#FFF" fill-rule="evenodd" xlink:href="#srn-e"/></g></g></svg>