<svg height="32" viewBox="0 0 32 32" width="32" xmlns="http://www.w3.org/2000/svg" xmlns:xlink="http://www.w3.org/1999/xlink"><defs><linearGradient id="a" x1="50%" x2="50%" y1="0%" y2="100%"><stop offset="0" stop-color="#fff" stop-opacity=".5"/><stop offset="1" stop-opacity=".5"/></linearGradient><circle id="b" cx="16" cy="15" r="15"/><filter id="c" height="111.7%" width="111.7%" x="-5.8%" y="-4.2%"><feOffset dy=".5" in="SourceAlpha" result="shadowOffsetOuter1"/><feGaussianBlur in="shadowOffsetOuter1" result="shadowBlurOuter1" stdDeviation=".5"/><feComposite in="shadowBlurOuter1" in2="SourceAlpha" operator="out" result="shadowBlurOuter1"/><feColorMatrix in="shadowBlurOuter1" values="0 0 0 0 0   0 0 0 0 0   0 0 0 0 0  0 0 0 0.199473505 0"/></filter><path id="d" d="m24.9774944 17.9713284c.8704696.5239262 1.1672053 1.6299682.6729822 2.5324016-.5146335.9023235-1.6821751 1.2225311-2.6017642.7179648-.0890432-.0486197-.1681054-.1068092-.2472798-.1649988l-4.9260817 2.7845197c.0118505.0901233.0184404.1808372.0197376.2716981 0 .1068092 0 .2038285-.0197376.3105277-.1681053 1.0188126-1.1473556 1.7174175-2.1860426 1.5524187-1.0386871-.1649988-1.7509201-1.1255118-1.5827026-2.1442144l-4.95568795-2.8039896c-.07917438.0581896-.15823661.1066992-.23741099.1552089-.07906223.0387197-.1582366.0872293-.24727974.1163791-.97936237.3880772-2.08724292-.0779894-2.48289052-1.0381724-.39564759-.960183.07928652-2.0471951 1.05864889-2.4352723v-5.6079792c-.09005198-.0288189-.17635537-.0678777-.2571485-.1163792-.07906224-.0485096-.14836785-.0970193-.21756132-.1455289-.55128472-.4042459-.83853261-1.0679163-.75211099-1.737711.08642162-.66979463.53317587-1.24234849 1.16975195-1.49913737.63657608-.25678887 1.36473535-.1581842 1.90656436.25817998l5.00514391-2.84281933c-.0098687-.08722936-.0197375-.1648888-.0197375-.25222816 0-1.02838253.8803383-1.88219632 1.9288942-1.88219632 1.0485558 0 1.908708.83434393 1.9088202 1.87240639 0 .08722936-.0098688.1648888-.0197375.25222816l5.0447311 2.86217919c.0691934-.04850964.1383869-.09701929.2175613-.13584901.9201498-.50434633 2.0875794-.17489873 2.6017642.72764471.5141849.90254346.1777499 2.04741516-.7418392 2.55198146-.0890432.0387197-.1780863.0872294-.2671294.1163791v5.6176592c.0785763.029673.1546573.0653489.2275422.1066992zm.3461916 2.347933h.0002243c.4149366-.688815.177862-1.5620987-.5046525-1.9598558-.5520082-.3192119-1.2523355-.2441947-1.7210895.1843587l-2.2653292-1.2904007c.5638651-1.1351917.1879551-2.4934618-.8704695-3.2017467-.0593248-.2139484-.1483679-.4172269-.2472798-.6209455l3.4224414-1.9014461c.3565245.3301415.8571061.4647263 1.3354228.3590373.7914073-.1745687 1.2759859-.950723 1.0980118-1.7269874-.1779741-.77626435-.9692693-1.2515709-1.7606767-1.07700216-.7914073.17456873-1.276098.95083306-1.0980118 1.72698746l-3.4620286 1.9307059c-.6726457-.7858342-2.8092324-1.3097604-2.8092324-1.3097604v-4.27896893c.4373032-.12815343.7794033-.46370776.9100567-.89264351.2175613-.70828485-.187955-1.45539941-.9100567-1.66879786-.7221018-.21339845-1.4843514.17467873-1.7019127.88296358s.187955 1.45539942.9100567 1.66879786v4.36597826s-1.1663081.3783973-1.6215047.7468946c-.4840084.0110526-.9585135.1340706-1.3848787.3590374l-3.25433602-1.8336867c.1088928-.4657366-.01962538-.95083309-.35606041-1.30008055-.5538842-.58211577-1.46394095-.61115556-2.05741234-.06786951-.28448977.2592521-.45177727.61911726-.46476672.99979576-.01298946.3806785.12939265.7507097.39557324 1.0280395.55388421.5821158 1.4742583.6111556 2.05741235.0678695l2.9381993 1.649438c-1.0684055 1.0478524-1.2069046 2.6972904-.3364351 3.9003517l-2.58169024 1.4650793c-.36648989-.3298876-.87091815-.4656266-1.34574012-.3492475-.78902353.1850749-1.27574459.9624423-1.0871839 1.7363977.18856069.7739553.98101572 1.251486 1.77009878 1.0666555.78908306-.1848306 1.27605428-.9620472 1.08774268-1.7360609l2.7597765-1.5619887c.7095721.5626476 1.6374896.7866411 2.5322344.6112656.2760091.1251574.5602164.2321303.850732.3202077v4.0750303c-.3953111.1261691-.731634.3977571-.9195891.7664745-.37591.7373246-.0791743 1.649328.6825146 2.0180453.0593247.0291498.1187615.0582996.187955.0776594.0099809 0 .0198497.00968.0297184.00968.8111449.2419982 1.6723064-.1944786 1.9190254-.9899928.2467191-.7955143-.1981602-1.6396481-1.0093051-1.8821964v-3.9973709s.741615-.0679795 1.0878066-.1746787c.965385.3799928 2.0689744.1544956 2.7993638-.5719959l2.314673 1.3292304c-.1483679.6111555.1286303 1.2417809.6825145 1.5619886.6923833.3977571 1.5925713.1648888 1.9980876-.5142462zm-17.33997351-1.3582702v.00011c.21965097.0008696.42260203.115136.53414668.3007378.04945595.0970193.07917438.1940386.07917438.3007379 0 .3322465-.27459319.6015856-.61332106.6015856s-.61332106-.2693391-.61332106-.6015856c0-.3322466.27459319-.6015857.61332106-.6015857zm8.66499631-13.08847481c-.0018994.33147178-.2753831.59972253-.613321.60158562-.3387279 0-.6133211-.26933906-.6133211-.60158562 0-.33224657.2745932-.60158563.6133211-.60158563.3387278 0 .613321.26933906.613321.60158563zm7.4786143 5.21990201c-.2223524-.0006015-.4268637-.1194947-.5341467-.3105277-.0515076-.0887116-.07878-.1889693-.0791744-.2910579 0-.3322466.2745932-.60158562.6133211-.60158562.3387278 0 .613321.26933902.613321.60158562s-.2745932.6015856-.613321.6015856zm-15.8573044-1.15466157c.29673569.16488877.39575974.53360617.22754222.81498407-.16810537.2910579-.53414668.3880772-.83088237.2231884-.2967357-.1648888-.3956476-.5239262-.22754223-.8149841.16810537-.29105788.53414668-.38818717.83088238-.22318837zm16.1040234 9.13961357c.2967357.1648888.3957597.5336061.2275422.8149841-.1192101.1843586-.3165853.3007378-.5341467.3007378-.2210748.0029324-.4266477-.111073-.5380572-.2983926-.1114094-.1873195-.1114094-.4189566 0-.6062761.1114095-.1873196.3169824-.301325.5380572-.2983926.1087807.0096799.2175614.0291498.3066045.0873394zm-8.9519754 5.0159635v-.00011c.0010429-.0073381.0045095-.0141386.0098688-.0193598.051904-.3243044.3605294-.5470149.6916237-.4990902.3310943.0479246.5609796.3485826.5151687.6737689-.058146.2980522-.3236793.5137503-.6330586.5142462-.0593247 0-.1286303-.0194698-.187955-.0388297-.2571485-.0970193-.425366-.3589274-.3956476-.6306254zm3.5215776-9.2849225-.0003364.00033c.6037887.1843587 1.009305.7374347 1.009305 1.37774 0 .0485096-.0098687.0970193-.0098687.1455289-.0098688.0387198-.0098688.0775495-.0197375.1163792v.0291498c-.0198497.0872293-.0395872.1745687-.0791744.2619081-.1087807.2620181-.2967357.4948864-.5440155.6500953-.0594368.0291497-.1088928.0581895-.1682175.0873393l-.0297184.0096799c-.0576141.0268098-.1171319.0494923-.1780863.0678696-.0618064.0166069-.1245702.0295733-.187955.0388297l-.049456.0096799c-.0691934 0-.1286303.0096799-.1978238.0096799-.3225893-.0002719-.635865-.1061056-.890207-.3007378l-.2671295.1163792c-.0818157.0391687-.1681579.0684944-.2571485.0873393h-.0098687c-.6121355.1639864-1.2646112.0982538-1.8299823-.1843586h-.0096445c-.0594368-.0291498-.1187615-.0581896-.1682175-.0873394l-.0197375-.0096799c-.0594369-.0387197-.1088928-.0775495-.1682175-.1163792-.237411.1066993-.4945595.1552089-.7616889.1552089-.0790623 0-.1483679 0-.2175613-.0096799l-.0395872-.00968-.1780863-.0291497-.0197375-.00968c-.0637836-.0116101-.1266061-.027824-.1879551-.0485096-.1582366-.0483997-.3066044-.1260591-.4549723-.2133985-.2992257-.1859366-.5338599-.4565867-.67287-.7761543 0-.0193599-.0098688-.0291498-.0197375-.0485097-.0114743-.0329902-.0246878-.0653736-.0395872-.0970193-.0116947-.0218287-.0216311-.0445211-.0297185-.0678695-.0099809-.0291498-.0297184-.0581896-.0297184-.0873393-.0018209-.0299549-.0084831-.0594356-.0197375-.0873394-.0098688-.0291498-.0098688-.0389397-.0197375-.0776594-.0098688-.0387198-.0098688-.0775495-.0197376-.1163792 0-.0290398-.0098687-.0485096-.0098687-.0678695-.0082171-.0611036-.0115169-.122747-.0098688-.1843587-.0016518-.0745273.0016447-.1490811.0098688-.2231883 0-.0290398.0098687-.0485097.0098687-.0678695.0099809-.0581896.0198497-.1066993.0297185-.1552089.0098687-.0193599.0098687-.0485097.0197375-.0678695.0119503-.053023.0284957-.104948.0494559-.1552089.0098688-.0193599.0098688-.0291498.0197376-.0485096.0222279-.0599574.0486833-.1183247.0791743-.1746788l.0105417-.0197998c.108332-.1939286.246719-.3783973.4149365-.5239262.3363229-.3008478.7715577-.4852065 1.22653-.5045664.0297184-.0096799.0593247-.0096799.0989119-.0096799.1193033.0000666.2383965.0098165.3560604.0291498.0494559-.0582996.0989119-.1068092.1582366-.1649988l.0494559-.0485096c.0594369-.0485097.1088928-.0970193.1682176-.1358491l.0297184-.0193598c.0395872-.0291498.1088928-.0776595.1384991-.0970193.0296063-.0193599.0790622-.0581896.1087806-.0678695.0348317-.0122274.0680402-.0285139.0989119-.0485097.0593247-.0291498.1582366-.0776594.2175613-.0970193l.049456-.0388297c.3954679-.1540768.8250875-.2042398 1.2463796-.1455289h.0098688c.0798663.0082107.1591496.0211778.237411.0388297h.0098687c.0791744.0096799.1483679.0388297.2275423.0581896l.0098687.0096799c.0790623.0291498.1483679.0581896.2175613.0873394l.0197376.0096799c.0678605.0284292.1339205.0608272.1978238.0970193l.0098687.0096799c.0593247.0290398.1286304.0775495.1879551.1163792l.0098687.0096799c.0693056.0388297.1286303.0873394.1879551.135849l.0098687.00968c.0693056.0582995.1187616.1068092.1780863.1649988.2462593.250632.4380875.5476877.5638651.8731736v.0096799c.0197375.0581896.0395872.1261691.0593247.1843587 0 .0193599.0098688.0388297.0098688.0581896.0166814.0508204.0299062.1026706.0395872.1552088.0099809.0776595.0198496.145529.0297184.2231884z"/><filter id="e" height="115.9%" width="117.5%" x="-8.8%" y="-5.7%"><feOffset dy=".5" in="SourceAlpha" result="shadowOffsetOuter1"/><feGaussianBlur in="shadowOffsetOuter1" result="shadowBlurOuter1" stdDeviation=".5"/><feColorMatrix in="shadowBlurOuter1" values="0 0 0 0 0   0 0 0 0 0   0 0 0 0 0  0 0 0 0.204257246 0"/></filter></defs><g fill="none" fill-rule="evenodd"><use fill="#000" filter="url(#c)" xlink:href="#b"/><use fill="#2683ff" xlink:href="#b"/><use fill="url(#a)" xlink:href="#b"/><circle cx="16" cy="15" r="14.5" stroke="#000" stroke-opacity=".097"/><g fill-rule="nonzero"><use fill="#000" filter="url(#e)" xlink:href="#d"/><use fill="#fff" fill-rule="evenodd" xlink:href="#d"/></g></g></svg>