<svg xmlns="http://www.w3.org/2000/svg" xmlns:xlink="http://www.w3.org/1999/xlink" width="32" height="32" viewBox="0 0 32 32"><defs><linearGradient id="c" x1="50%" x2="50%" y1="0%" y2="100%"><stop offset="0%" stop-color="#FFF" stop-opacity=".5"/><stop offset="100%" stop-opacity=".5"/></linearGradient><circle id="b" cx="16" cy="15" r="15"/><filter id="a" width="111.7%" height="111.7%" x="-5.8%" y="-4.2%" filterUnits="objectBoundingBox"><feOffset dy=".5" in="SourceAlpha" result="shadowOffsetOuter1"/><feGaussianBlur in="shadowOffsetOuter1" result="shadowBlurOuter1" stdDeviation=".5"/><feComposite in="shadowBlurOuter1" in2="SourceAlpha" operator="out" result="shadowBlurOuter1"/><feColorMatrix in="shadowBlurOuter1" values="0 0 0 0 0 0 0 0 0 0 0 0 0 0 0 0 0 0 0.199473505 0"/></filter><path id="e" d="M24.977 17.971a1.881 1.881 0 0 1 .673 2.533c-.514.902-1.682 1.222-2.601.718-.09-.049-.168-.107-.248-.165l-4.926 2.784c.012.09.019.181.02.272 0 .107 0 .204-.02.31-.168 1.02-1.147 1.718-2.186 1.553-1.038-.165-1.75-1.126-1.582-2.144L9.15 21.028a3.31 3.31 0 0 1-.237.155c-.08.039-.159.087-.248.116a1.919 1.919 0 0 1-2.483-1.038c-.395-.96.08-2.047 1.059-2.435v-5.608a1.225 1.225 0 0 1-.257-.117 4.16 4.16 0 0 1-.218-.145 1.86 1.86 0 0 1-.752-1.738 1.881 1.881 0 0 1 1.17-1.499 1.943 1.943 0 0 1 1.906.258l5.006-2.843c-.01-.087-.02-.164-.02-.252 0-1.028.88-1.882 1.929-1.882 1.048 0 1.908.834 1.909 1.872 0 .088-.01.165-.02.253l5.045 2.862a1.936 1.936 0 0 1 2.82.592c.513.902.177 2.047-.743 2.552-.089.038-.178.087-.267.116v5.618c.079.03.155.065.227.106zm.347 2.348a1.415 1.415 0 0 0-.505-1.96 1.468 1.468 0 0 0-1.72.185l-2.266-1.29a2.502 2.502 0 0 0-.87-3.202 3.679 3.679 0 0 0-.248-.621l3.423-1.902c.356.33.857.465 1.335.36a1.438 1.438 0 0 0 1.098-1.728c-.178-.776-.97-1.251-1.76-1.077a1.438 1.438 0 0 0-1.099 1.727l-3.462 1.931c-.672-.786-2.809-1.31-2.809-1.31V7.153a1.34 1.34 0 0 0 .91-.892 1.333 1.333 0 0 0-.91-1.67c-.722-.213-1.484.175-1.702.884a1.333 1.333 0 0 0 .91 1.669v4.366s-1.166.378-1.621.746a3.121 3.121 0 0 0-1.385.36l-3.255-1.834a1.4 1.4 0 0 0-.356-1.3 1.465 1.465 0 0 0-2.057-.068 1.415 1.415 0 0 0-.07 2.028 1.466 1.466 0 0 0 2.058.068l2.938 1.649a2.991 2.991 0 0 0-.336 3.9l-2.582 1.465a1.49 1.49 0 0 0-1.345-.349 1.44 1.44 0 0 0-1.088 1.737c.189.774.981 1.251 1.77 1.066a1.44 1.44 0 0 0 1.088-1.736l2.76-1.562c.71.563 1.637.787 2.532.611.276.126.56.233.85.32v4.076a1.557 1.557 0 0 0-.919.766 1.49 1.49 0 0 0 .683 2.018c.06.03.119.058.188.078.01 0 .02.01.03.01.81.242 1.672-.195 1.919-.99a1.498 1.498 0 0 0-1.01-1.883V18.69s.742-.068 1.088-.175c.965.38 2.069.155 2.8-.572l2.314 1.33a1.417 1.417 0 0 0 .683 1.562 1.482 1.482 0 0 0 1.998-.515zm-17.34-1.358c.22.001.422.115.534.3a.65.65 0 0 1 .079.302.608.608 0 0 1-.613.601.608.608 0 0 1-.614-.601c0-.333.275-.602.614-.602zm8.665-13.088a.611.611 0 0 1-.614.601.608.608 0 0 1-.613-.601c0-.333.275-.602.613-.602.34 0 .614.27.614.602zm7.478 5.22a.614.614 0 0 1-.613-.602c0-.332.275-.602.613-.602.34 0 .614.27.614.602a.608.608 0 0 1-.614.601zM8.27 9.937a.588.588 0 0 1 .228.815.61.61 0 0 1-.831.223.586.586 0 0 1-.228-.815.61.61 0 0 1 .831-.223zm16.104 9.14a.588.588 0 0 1 .228.814.639.639 0 0 1-.535.301.616.616 0 0 1-.538-.298.592.592 0 0 1 0-.607.616.616 0 0 1 .538-.298.66.66 0 0 1 .307.087zm-8.952 5.015a.034.034 0 0 1 .01-.02.608.608 0 0 1 .692-.498.6.6 0 0 1 .515.674.642.642 0 0 1-.633.514.613.613 0 0 1-.584-.67zm3.522-9.285a1.429 1.429 0 0 1 1.009 1.378c0 .049-.01.098-.01.146-.01.039-.01.078-.02.116v.03c-.02.087-.04.174-.08.261a1.403 1.403 0 0 1-.543.65c-.06.03-.11.059-.168.088l-.03.01a1.274 1.274 0 0 1-.366.107l-.05.009c-.069 0-.128.01-.197.01-.323 0-.636-.106-.89-.301l-.268.116c-.082.04-.168.069-.257.088h-.01a2.595 2.595 0 0 1-1.83-.185h-.01c-.059-.029-.118-.058-.168-.087l-.02-.01c-.059-.038-.108-.077-.168-.116a1.844 1.844 0 0 1-.761.155c-.08 0-.149 0-.218-.01l-.04-.01-.178-.028-.02-.01a1.339 1.339 0 0 1-.187-.049 2.141 2.141 0 0 1-.455-.213 1.725 1.725 0 0 1-.673-.776c0-.02-.01-.03-.02-.049a.995.995 0 0 0-.04-.097.468.468 0 0 1-.03-.068c-.01-.029-.029-.058-.029-.087a.279.279 0 0 0-.02-.087c-.01-.03-.01-.04-.02-.078-.01-.039-.01-.077-.019-.116 0-.03-.01-.049-.01-.068a1.152 1.152 0 0 1-.01-.185 1.85 1.85 0 0 1 .01-.223c0-.029.01-.048.01-.068.01-.058.02-.106.03-.155.01-.02.01-.048.02-.068a.94.94 0 0 1 .049-.155c.01-.02.01-.029.02-.048a1.25 1.25 0 0 1 .079-.175l.01-.02a1.977 1.977 0 0 1 1.641-1.028c.03-.01.06-.01.1-.01.119 0 .238.01.356.03.05-.06.099-.108.158-.166l.05-.048c.059-.049.108-.097.168-.136l.03-.02c.039-.029.108-.077.138-.097.03-.019.079-.058.109-.068a.466.466 0 0 0 .099-.048c.059-.03.158-.078.217-.097l.05-.039a2.489 2.489 0 0 1 1.246-.145h.01c.08.008.159.02.237.038h.01c.08.01.149.04.228.059l.01.01c.079.028.148.057.217.087l.02.01c.068.028.134.06.198.096l.01.01c.059.03.128.078.188.116l.01.01c.069.039.128.087.187.136l.01.01a2.566 2.566 0 0 1 .742 1.038v.01c.02.058.04.126.06.184 0 .02.01.039.01.058.016.05.03.103.039.155l.03.223z"/><filter id="d" width="117.5%" height="115.9%" x="-8.8%" y="-5.7%" filterUnits="objectBoundingBox"><feOffset dy=".5" in="SourceAlpha" result="shadowOffsetOuter1"/><feGaussianBlur in="shadowOffsetOuter1" result="shadowBlurOuter1" stdDeviation=".5"/><feColorMatrix in="shadowBlurOuter1" values="0 0 0 0 0 0 0 0 0 0 0 0 0 0 0 0 0 0 0.204257246 0"/></filter></defs><g fill="none" fill-rule="evenodd"><use fill="#000" filter="url(#a)" xlink:href="#b"/><use fill="#2683FF" xlink:href="#b"/><use fill="url(#c)" style="mix-blend-mode:soft-light" xlink:href="#b"/><circle cx="16" cy="15" r="14.5" stroke="#000" stroke-opacity=".097"/><g fill-rule="nonzero"><use fill="#000" filter="url(#d)" xlink:href="#e"/><use fill="#FFF" fill-rule="evenodd" xlink:href="#e"/></g></g></svg>