<svg xmlns="http://www.w3.org/2000/svg" xmlns:xlink="http://www.w3.org/1999/xlink" width="32" height="32" viewBox="0 0 32 32"><defs><filter id="a" width="111.7%" height="111.7%" x="-5.8%" y="-4.2%" filterUnits="objectBoundingBox"><feOffset dy=".5" in="SourceAlpha" result="shadowOffsetOuter1"/><feGaussianBlur in="shadowOffsetOuter1" result="shadowBlurOuter1" stdDeviation=".5"/><feComposite in="shadowBlurOuter1" in2="SourceAlpha" operator="out" result="shadowBlurOuter1"/><feColorMatrix in="shadowBlurOuter1" values="0 0 0 0 0 0 0 0 0 0 0 0 0 0 0 0 0 0 0.199473505 0"/></filter><filter id="d" width="121.1%" height="116.2%" x="-10.6%" y="-5.8%" filterUnits="objectBoundingBox"><feOffset dy=".5" in="SourceAlpha" result="shadowOffsetOuter1"/><feGaussianBlur in="shadowOffsetOuter1" result="shadowBlurOuter1" stdDeviation=".5"/><feColorMatrix in="shadowBlurOuter1" values="0 0 0 0 0 0 0 0 0 0 0 0 0 0 0 0 0 0 0.204257246 0"/></filter><linearGradient id="c" x1="50%" x2="50%" y1="0%" y2="100%"><stop offset="0%" stop-color="#FFF" stop-opacity=".5"/><stop offset="100%" stop-opacity=".5"/></linearGradient><circle id="b" cx="16" cy="15" r="15"/><path id="e" d="M12.117 4.314a.24.24 0 01.15-.05.25.25 0 01.15.05l1.257.942a.25.25 0 11-.301.4l-1.106-.827L8.67 7.526l15.8 11.854a.252.252 0 010 .403l-1.161.87a.25.25 0 01-.3-.402l.893-.67L8.101 7.729a.248.248 0 010-.4l4.016-3.014zm4.017 0a.247.247 0 01.3-.002l8.035 6.027a.246.246 0 01.086.279.249.249 0 01-.237.172h-4.017a.255.255 0 01-.15-.05l-5.273-3.954a.25.25 0 11.301-.402l5.207 3.904h3.179l-7.28-5.46-5.04 3.78a.25.25 0 11-.301-.402l5.19-3.892zM9.21 9.509a.252.252 0 01.3.402l-.841.63L24.47 22.395a.25.25 0 010 .402l-4.017 3.013a.253.253 0 01-.3 0l-1.163-.872a.251.251 0 01.303-.402l1.01.757 3.6-2.7L8.098 10.742a.253.253 0 010-.402l1.11-.83zm-.959 9.819v.002h4.015a.24.24 0 01.15.05l5.216 3.911a.25.25 0 11-.3.402l-5.146-3.861H9.005l7.281 5.46 5.03-3.772a.251.251 0 01.302.402l-5.181 3.884a.25.25 0 01-.15.05.246.246 0 01-.151-.05l-8.037-6.025a.251.251 0 11.152-.453z"/></defs><g fill="none"><use fill="#000" filter="url(#a)" xlink:href="#b"/><use fill="#E53431" fill-rule="evenodd" xlink:href="#b"/><use fill="url(#c)" fill-rule="evenodd" style="mix-blend-mode:soft-light" xlink:href="#b"/><circle cx="16" cy="15" r="14.5" stroke="#000" stroke-opacity=".097"/><use fill="#000" filter="url(#d)" xlink:href="#e"/><use fill="#FFF" fill-rule="evenodd" xlink:href="#e"/></g></svg>