<svg height="32" viewBox="0 0 32 32" width="32" xmlns="http://www.w3.org/2000/svg" xmlns:xlink="http://www.w3.org/1999/xlink"><defs><linearGradient id="a" x1="50%" x2="50%" y1="0%" y2="100%"><stop offset="0" stop-color="#fff" stop-opacity=".5"/><stop offset="1" stop-opacity=".5"/></linearGradient><circle id="b" cx="16" cy="15" r="15"/><filter id="c" height="111.7%" width="111.7%" x="-5.8%" y="-4.2%"><feOffset dy=".5" in="SourceAlpha" result="shadowOffsetOuter1"/><feGaussianBlur in="shadowOffsetOuter1" result="shadowBlurOuter1" stdDeviation=".5"/><feComposite in="shadowBlurOuter1" in2="SourceAlpha" operator="out" result="shadowBlurOuter1"/><feColorMatrix in="shadowBlurOuter1" values="0 0 0 0 0   0 0 0 0 0   0 0 0 0 0  0 0 0 0.199473505 0"/></filter><path id="d" d="m4 12h1.29805014v1.2209607h-1.29805014zm1.29805014 4.7737991h3.77715877v1.2262009h-5.07520891v-3.5580786h3.81058496v1.2209607h-2.51253482zm17.62674096-2.3318777h5.0752089v3.5580786h-3.810585v-1.2262009h2.5125349v-1.110917h-3.7771588zm3.7984011-1.1620821h-3.7994429v-1.2209607h3.7994429zm-16.4112145 1.1620821h5.0752089v2.3842795h-1.2646239v1.1737991h-3.810585zm3.7771588 2.3318777v-1.110917h-2.4791086v1.110917zm-3.7771588-4.7737991h5.0752089v1.2209607h-5.0752089zm6.3342619 2.4419214h5.0752089v2.3842795h-1.264624v1.1737991h-3.8105849zm3.7715877 2.3318777v-1.110917h-2.4791086v1.110917zm-3.7715877-4.7737991h5.0752089v1.2209607h-5.0752089z"/><filter id="e" height="158.3%" width="114.6%" x="-7.3%" y="-20.8%"><feOffset dy=".5" in="SourceAlpha" result="shadowOffsetOuter1"/><feGaussianBlur in="shadowOffsetOuter1" result="shadowBlurOuter1" stdDeviation=".5"/><feColorMatrix in="shadowBlurOuter1" values="0 0 0 0 0   0 0 0 0 0   0 0 0 0 0  0 0 0 0.204257246 0"/></filter></defs><g fill="none" fill-rule="nonzero"><g><use fill="#000" filter="url(#c)" xlink:href="#b"/><use fill="#002342" fill-rule="evenodd" xlink:href="#b"/><use fill="url(#a)" fill-rule="evenodd" xlink:href="#b"/><circle cx="16" cy="15" r="14.5" stroke="#000" stroke-opacity=".097"/></g><g><use fill="#000" filter="url(#e)" xlink:href="#d"/><use fill="#fff" fill-rule="evenodd" xlink:href="#d"/></g></g></svg>