<svg height="32" width="32" xmlns="http://www.w3.org/2000/svg" xmlns:xlink="http://www.w3.org/1999/xlink"><defs><linearGradient id="c" x1="50%" x2="50%" y1="0%" y2="100%"><stop offset="0" stop-color="#fff" stop-opacity=".5"/><stop offset="1" stop-opacity=".5"/></linearGradient><circle id="b" cx="16" cy="15" r="15"/><filter id="a" height="111.7%" width="111.7%" x="-5.8%" y="-4.2%"><feOffset dy=".5" in="SourceAlpha" result="shadowOffsetOuter1"/><feGaussianBlur in="shadowOffsetOuter1" result="shadowBlurOuter1" stdDeviation=".5"/><feComposite in="shadowBlurOuter1" in2="SourceAlpha" operator="out" result="shadowBlurOuter1"/><feColorMatrix in="shadowBlurOuter1" values="0 0 0 0 0 0 0 0 0 0 0 0 0 0 0 0 0 0 0.199473505 0"/></filter><path id="e" d="M8.094 12.678l2.11 2.11H6zm2.11 2.55l-2.11 2.094L6 15.228zm2.852-2.853l-2.11 2.094v-4.203zm-2.55 2.094l-2.093-2.094 2.094-2.11zm2.854-2.413l-2.094-2.094h4.203zm0-4.643l2.109 2.109h-4.203zm4.962-.304l-2.11 2.094V5zm-2.55 2.094L13.678 7.11 15.772 5zm-2.716 8.437l-2.11 2.094v-4.203zm-4.643 0l2.094-2.109v4.203zm10.212-5.584l-2.094-2.094h4.203zm-2.094-2.534l2.094-2.11 2.11 2.11zM15.47 20.493l-2.11 2.094-2.093-2.094zm-2.11-2.55l2.11 2.11h-4.203zm10.228-5.568l-2.109 2.094v-4.203zm-4.643 0l2.094-2.11v4.204zm-5.266 10.53l2.094-2.108V25zm2.534-2.108l2.11 2.109L16.212 25zm2.413 1.79l-2.094-2.094h4.203zm0-4.643l2.11 2.11H16.53zm2.853-2.413l2.11 2.11-2.11 2.093zm-2.534 2.11l2.094-2.11v4.203zm4.947-.32l-2.094-2.093H26zm0-4.643L26 14.788h-4.203z"/><filter id="d" height="117.5%" width="117.5%" x="-8.8%" y="-6.2%"><feOffset dy=".5" in="SourceAlpha" result="shadowOffsetOuter1"/><feGaussianBlur in="shadowOffsetOuter1" result="shadowBlurOuter1" stdDeviation=".5"/><feColorMatrix in="shadowBlurOuter1" values="0 0 0 0 0 0 0 0 0 0 0 0 0 0 0 0 0 0 0.204257246 0"/></filter></defs><g fill="none" fill-rule="evenodd"><use fill="#000" filter="url(#a)" xlink:href="#b"/><use fill="#7b346e" xlink:href="#b"/><use fill="url(#c)" xlink:href="#b"/><circle cx="16" cy="15" r="14.5" stroke="#000" stroke-opacity=".097"/><g fill-rule="nonzero"><use fill="#000" filter="url(#d)" xlink:href="#e"/><use fill="#fff" fill-rule="evenodd" xlink:href="#e"/></g></g></svg>