<svg height="32" viewBox="0 0 32 32" width="32" xmlns="http://www.w3.org/2000/svg" xmlns:xlink="http://www.w3.org/1999/xlink"><defs><linearGradient id="a" x1="50%" x2="50%" y1="0%" y2="100%"><stop offset="0" stop-color="#fff" stop-opacity=".5"/><stop offset="1" stop-opacity=".5"/></linearGradient><circle id="b" cx="16" cy="15" r="15"/><filter id="c" height="111.7%" width="111.7%" x="-5.8%" y="-4.2%"><feOffset dy=".5" in="SourceAlpha" result="shadowOffsetOuter1"/><feGaussianBlur in="shadowOffsetOuter1" result="shadowBlurOuter1" stdDeviation=".5"/><feComposite in="shadowBlurOuter1" in2="SourceAlpha" operator="out" result="shadowBlurOuter1"/><feColorMatrix in="shadowBlurOuter1" values="0 0 0 0 0   0 0 0 0 0   0 0 0 0 0  0 0 0 0.199473505 0"/></filter><path id="d" d="m8.09408194 12.6783005 2.10925646 2.1092564h-4.2033384zm2.10925646 2.5493171-2.10925646 2.0940819-2.09408194-2.0940819zm2.8528073-2.8528073-2.1092565 2.094082v-4.2033384zm-2.5493172 2.094082-2.09408191-2.094082 2.09408191-2.1092564zm2.8528073-2.4127466-2.0940819-2.09408197h4.2033384zm0-4.64339911 2.1092565 2.10925644h-4.2033384zm4.9620637-.30349014-2.1092564 2.09408194v-4.20333839zm-2.5493171 2.09408194-2.0940819-2.09408194 2.0940819-2.10925645zm-2.7162367 8.43702581-2.1092565 2.0940819v-4.2033384zm-4.64339911 0 2.09408191-2.1092565v4.2033384zm10.21244311-5.5842185-2.094082-2.09408197h4.2033384zm-2.094082-2.53414267 2.094082-2.10925644 2.1092564 2.10925644zm-1.0622154 10.97116847-2.1092565 2.0940819-2.0940819-2.0940819zm-2.1092565-2.5493172 2.1092565 2.1092565h-4.2033384zm10.2276176-5.569044-2.1092564 2.094082v-4.2033384zm-4.6433991 0 2.094082-2.1092564v4.2033384zm-5.2655538 10.5311078 2.0940819-2.1092565v4.2033384zm2.5341426-2.1092565 2.1092564 2.1092565-2.1092564 2.0940819zm2.4127466 1.7905918-2.094082-2.0940819h4.2033384zm0-4.6433991 2.1092564 2.1092565h-4.2033384zm2.8528073-2.4127466 2.1092564 2.1092565-2.1092564 2.0940819zm-2.5341427 2.1092565 2.094082-2.1092565v4.2033384zm4.9468893-.3186647-2.094082-2.0940819h4.2033384zm0-4.643399 2.1092564 2.1092564h-4.2033384z"/><filter id="e" height="117.5%" width="117.5%" x="-8.8%" y="-6.2%"><feOffset dy=".5" in="SourceAlpha" result="shadowOffsetOuter1"/><feGaussianBlur in="shadowOffsetOuter1" result="shadowBlurOuter1" stdDeviation=".5"/><feColorMatrix in="shadowBlurOuter1" values="0 0 0 0 0   0 0 0 0 0   0 0 0 0 0  0 0 0 0.204257246 0"/></filter></defs><g fill="none" fill-rule="evenodd"><use fill="#000" filter="url(#c)" xlink:href="#b"/><use fill="#7b346e" xlink:href="#b"/><use fill="url(#a)" xlink:href="#b"/><circle cx="16" cy="15" r="14.5" stroke="#000" stroke-opacity=".097"/><g fill-rule="nonzero"><use fill="#000" filter="url(#e)" xlink:href="#d"/><use fill="#fff" fill-rule="evenodd" xlink:href="#d"/></g></g></svg>