<svg height="32" viewBox="0 0 32 32" width="32" xmlns="http://www.w3.org/2000/svg" xmlns:xlink="http://www.w3.org/1999/xlink"><defs><linearGradient id="a" x1="50%" x2="50%" y1="0%" y2="100%"><stop offset="0" stop-color="#fff" stop-opacity=".5"/><stop offset="1" stop-opacity=".5"/></linearGradient><circle id="b" cx="16" cy="15" r="15"/><filter id="c" height="111.7%" width="111.7%" x="-5.8%" y="-4.2%"><feOffset dy=".5" in="SourceAlpha" result="shadowOffsetOuter1"/><feGaussianBlur in="shadowOffsetOuter1" result="shadowBlurOuter1" stdDeviation=".5"/><feComposite in="shadowBlurOuter1" in2="SourceAlpha" operator="out" result="shadowBlurOuter1"/><feColorMatrix in="shadowBlurOuter1" values="0 0 0 0 0   0 0 0 0 0   0 0 0 0 0  0 0 0 0.199473505 0"/></filter><path id="d" d="m15.5977558 10.8571429h.0029043l-.0304951.1292857-.259934 1.2278571h-.0290429l-1.7135313 7.2857143h-2.1782179l1.7462047-7.2857143h-2.9318812l-1.64600662 7.2857143h-2.39603961l2.17821782-9h.65346535 1.59735976 5.0825082zm4.1415181-.3571429h3.6303631c3.1221122.1428571 2.8316831 2.2142857 2.8316831 2.2142857h.7986799l-.290429.8571429h-.7260727c-.2178217.7857143-1.6699669 1.2142857-1.6699669 1.2142857 1.6699669.2142857 1.5973597 1.5 1.5973597 1.5h.7986799l-.2178218.8571428h-.6534654c-.1669967 1.1907143-1.2219802 1.7678572-2.0889109 2.0435715-.5242822.1634616-1.0713463.2451652-1.6213201.2421428l-4.5669967.0000809zm-12.41584156 1.7142857h-2.32343234l.43564356-1.7142857h2.32343235zm9.94719476 6.2857143-1.8877888-4.4285714.7986799-3.4285715 1.8877887 4.2142858zm5.5544554-4.4285714c.2600238.0001897.509453-.1013435.6933176-.2822233s.2870733-.4262599.2868804-.6820624c.0001929-.2558026-.1030158-.5011827-.2868804-.6820625s-.4332938-.282413-.6933176-.2822233h-1.4158416l-.4356435 1.9285717zm-.4886469 3.7142857c.6505611 0 1.1784159-.4957143 1.1784159-1.1071429 0-.6114285-.5249505-1.1071428-1.1784159-1.1071428h-1.7026402l-.5234984 2.2142857z"/><filter id="e" height="138.9%" width="115.9%" x="-8%" y="-13.9%"><feOffset dy=".5" in="SourceAlpha" result="shadowOffsetOuter1"/><feGaussianBlur in="shadowOffsetOuter1" result="shadowBlurOuter1" stdDeviation=".5"/><feColorMatrix in="shadowBlurOuter1" values="0 0 0 0 0   0 0 0 0 0   0 0 0 0 0  0 0 0 0.204257246 0"/></filter></defs><g fill="none" fill-rule="evenodd"><use fill="#000" filter="url(#c)" xlink:href="#b"/><use fill="#ffc04e" xlink:href="#b"/><use fill="url(#a)" xlink:href="#b"/><circle cx="16" cy="15" r="14.5" stroke="#000" stroke-opacity=".097"/><g fill-rule="nonzero"><use fill="#000" filter="url(#e)" xlink:href="#d"/><use fill="#fff" fill-rule="evenodd" xlink:href="#d"/></g></g></svg>