<svg width="32" height="32" viewBox="0 0 32 32" xmlns="http://www.w3.org/2000/svg" xmlns:xlink="http://www.w3.org/1999/xlink"><defs><linearGradient x1="50%" y1="0%" x2="50%" y2="100%" id="c"><stop stop-color="#FFF" stop-opacity=".5" offset="0%"/><stop stop-opacity=".5" offset="100%"/></linearGradient><filter x="-5.8%" y="-4.2%" width="111.7%" height="111.7%" filterUnits="objectBoundingBox" id="a"><feOffset dy=".5" in="SourceAlpha" result="shadowOffsetOuter1"/><feGaussianBlur stdDeviation=".5" in="shadowOffsetOuter1" result="shadowBlurOuter1"/><feComposite in="shadowBlurOuter1" in2="SourceAlpha" operator="out" result="shadowBlurOuter1"/><feColorMatrix values="0 0 0 0 0 0 0 0 0 0 0 0 0 0 0 0 0 0 0.199473505 0" in="shadowBlurOuter1"/></filter><circle id="b" cx="15" cy="15" r="15"/></defs><g fill="none" fill-rule="evenodd"><g transform="translate(1)" fill-rule="nonzero"><use fill="#000" filter="url(#a)" xlink:href="#b"/><use fill="#3058A6" xlink:href="#b"/><use fill="url(#c)" style="mix-blend-mode:soft-light" xlink:href="#b"/><circle stroke-opacity=".097" stroke="#000" stroke-linejoin="square" cx="15" cy="15" r="14.5"/></g><g fill="#FFF"><path d="M15.995 25.292c-5.681 0-10.287-4.606-10.287-10.287 0-5.682 4.606-10.288 10.287-10.288 5.682 0 10.288 4.606 10.288 10.288 0 5.681-4.606 10.287-10.288 10.287m0-21.23c-6.034 0-10.943 4.909-10.943 10.943s4.91 10.943 10.943 10.943c6.034 0 10.944-4.91 10.944-10.943 0-6.034-4.91-10.944-10.944-10.944" fill-rule="nonzero"/><path d="M19.849 18.919l-.57 2.473-.139.6-.615-.001-3.157-.001h-.012c-1.266-.022-2.26-.358-2.912-.952.563.993 1.758 1.568 3.427 1.595h.012l3.158.002h.614l.138-.599.57-2.473-.445-.946-.07.302zm-.993-10.607l-.45-.938-.065.294-.428 1.95h.656zm2.28 2.255l-.569 2.407-.14.594h-3.422l-.869 3.968c-.018.113-.03.229-.03.292a.41.41 0 00.012.11c.02.01.08.03.204.035h.375l.823-3.76h3.422l.14-.595.57-2.407-.444-.95-.072.306zm-8.49 3.001h-2.385l.822.644h1.422z"/><path d="M16.398 18.745h-.087c-.664-.017-.977-.362-.977-.917 0-.131.022-.306.043-.438l1.007-4.594h3.432l.568-2.406h-3.431l.634-2.888h-2.8l-.635 2.888h-3.038l-.547 2.406h3.038L12.424 18.2a3.352 3.352 0 00-.088.722c0 1.542 1.217 2.265 3.033 2.295l3.157.002.57-2.474h-2.698z"/></g></g></svg>