<?xml version="1.0" encoding="UTF-8"?>
<svg width="32px" height="32px" viewBox="0 0 32 32" version="1.1" xmlns="http://www.w3.org/2000/svg" xmlns:xlink="http://www.w3.org/1999/xlink">
    <!-- Generator: Sketch 52.4 (67378) - http://www.bohemiancoding.com/sketch -->
    <title>svg/icon/tpay</title>
    <desc>Created with Sketch.</desc>
    <defs>
        <linearGradient x1="50%" y1="0%" x2="50%" y2="100%" id="linearGradient-1">
            <stop stop-color="#FFFFFF" stop-opacity="0.5" offset="0%"></stop>
            <stop stop-color="#000000" stop-opacity="0.5" offset="100%"></stop>
        </linearGradient>
        <circle id="path-2" cx="15" cy="15" r="15"></circle>
        <filter x="-5.8%" y="-4.2%" width="111.7%" height="111.7%" filterUnits="objectBoundingBox" id="filter-3">
            <feOffset dx="0" dy="0.5" in="SourceAlpha" result="shadowOffsetOuter1"></feOffset>
            <feGaussianBlur stdDeviation="0.5" in="shadowOffsetOuter1" result="shadowBlurOuter1"></feGaussianBlur>
            <feComposite in="shadowBlurOuter1" in2="SourceAlpha" operator="out" result="shadowBlurOuter1"></feComposite>
            <feColorMatrix values="0 0 0 0 0   0 0 0 0 0   0 0 0 0 0  0 0 0 0.199473505 0" type="matrix" in="shadowBlurOuter1"></feColorMatrix>
        </filter>
    </defs>
    <g id="icon/tpay" stroke="none" stroke-width="1" fill="none" fill-rule="evenodd">
        <g id="Group" transform="translate(1.000000, 0.000000)" fill-rule="nonzero">
            <g id="Oval">
                <use fill="black" fill-opacity="1" filter="url(#filter-3)" xlink:href="#path-2"></use>
                <use fill="#3058A6" xlink:href="#path-2"></use>
                <use fill="url(#linearGradient-1)" style="mix-blend-mode: soft-light;" xlink:href="#path-2"></use>
                <circle stroke-opacity="0.0970052083" stroke="#000000" stroke-width="1" stroke-linejoin="square" cx="15" cy="15" r="14.5"></circle>
            </g>
        </g>
        <g id="tpay-copy" transform="translate(5.000000, 4.000000)" fill="#FFFFFF">
            <path d="M10.995358,21.292266 C5.3135604,21.292266 0.707544729,16.6864781 0.707544729,11.0045663 C0.707544729,5.32288124 5.3135604,0.716752581 10.995358,0.716752581 C16.6771564,0.716752581 21.2831711,5.32288124 21.2831711,11.0045663 C21.2831711,16.6864781 16.6771564,21.292266 10.995358,21.292266 M10.995358,0.0614141085 C4.96121847,0.0614141085 0.0520926744,4.97054101 0.0520926744,11.0045663 C0.0520926744,17.038705 4.96121932,21.947831 10.995358,21.947831 C17.0294975,21.947831 21.9386236,17.038705 21.9386236,11.0045663 C21.9386236,4.97054101 17.0294967,0.0614141085 10.995358,0.0614141085" id="path3741" fill-rule="nonzero"></path>
            <path d="M14.848768,14.9186784 L14.2782458,17.3924556 L14.1399928,17.9912879 L13.5254706,17.9910321 L10.3680442,17.9897786 L10.3619047,17.9897786 L10.3556543,17.9895228 C9.08954575,17.9683755 8.09573753,17.6324065 7.44380932,17.0380083 C8.00716878,18.0305664 9.2022173,18.6059773 10.8709207,18.6334918 L10.8769494,18.6334918 L10.8833192,18.6334918 L14.0406321,18.6348561 L14.6552678,18.6351972 L14.7934073,18.0363649 L15.3639287,15.5625877 L14.9184713,14.6170993 L14.848768,14.9186784 Z" id="path3745"></path>
            <polygon id="path3749" points="13.8563233 4.31172287 13.4057496 3.37396605 13.3411702 3.66775388 12.9127671 5.61773837 13.5694706 5.61773837"></polygon>
            <path d="M16.1357851,6.56747752 L15.5670825,8.97383411 L15.4265554,9.56845915 L14.8156716,9.56845915 L12.0050147,9.56845915 L11.1360437,13.5357353 C11.117852,13.6492033 11.105914,13.7648312 11.105914,13.8280454 C11.105914,13.8851201 11.1129659,13.9208206 11.118193,13.9376472 C11.1387724,13.9471976 11.1984623,13.9689136 11.3222763,13.9730067 L11.3981106,13.9730067 L11.6965602,13.9730067 L12.5202812,10.2124281 L15.3307096,10.2124281 L15.9415933,10.2124281 L16.0821204,9.6178031 L16.6510506,7.21144651 L16.2080951,6.26163744 L16.1357851,6.56747752 Z" id="path3753"></path>
            <polygon id="path3757" points="7.64622978 9.56840287 5.56742932 9.56840287 5.26147583 9.56840287 6.08258149 10.2123719 7.50536157 10.2123719"></polygon>
            <path d="M11.3980552,14.7452467 L11.3110785,14.7452467 C10.6466444,14.7281925 10.3336415,14.382674 10.3336415,13.8280684 C10.3336415,13.6968649 10.3556986,13.5216605 10.3774138,13.3904569 L11.3837288,8.79637938 L14.8157288,8.79637938 L15.3844313,6.38990853 L11.9525456,6.38990853 L12.5869642,3.5020538 L9.7868818,3.5020538 L9.15223552,6.38990853 L6.11430327,6.38990853 L5.56743017,8.79637938 L8.60536242,8.79637938 L7.4239573,14.1999657 C7.35835467,14.4623736 7.3364118,14.7685548 7.3364118,14.9218155 C7.3364118,16.4637486 8.55260847,17.1874173 10.3685464,17.2174328 L13.5258585,17.2190274 L14.0964942,14.7452493 L12.1382102,14.7452493 L11.3980552,14.7452467 Z" id="path3761"></path>
        </g>
    </g>
</svg>