<svg height="32" viewBox="0 0 32 32" width="32" xmlns="http://www.w3.org/2000/svg" xmlns:xlink="http://www.w3.org/1999/xlink"><defs><linearGradient id="a" x1="50%" x2="50%" y1="0%" y2="100%"><stop offset="0" stop-color="#fff" stop-opacity=".5"/><stop offset="1" stop-opacity=".5"/></linearGradient><circle id="b" cx="16" cy="15" r="15"/><filter id="c" height="111.7%" width="111.7%" x="-5.8%" y="-4.2%"><feOffset dy=".5" in="SourceAlpha" result="shadowOffsetOuter1"/><feGaussianBlur in="shadowOffsetOuter1" result="shadowBlurOuter1" stdDeviation=".5"/><feComposite in="shadowBlurOuter1" in2="SourceAlpha" operator="out" result="shadowBlurOuter1"/><feColorMatrix in="shadowBlurOuter1" values="0 0 0 0 0   0 0 0 0 0   0 0 0 0 0  0 0 0 0.199473505 0"/></filter><path id="d" d="m10.1233647 6h11.7735039s.3125709 1.55440415 1.9796157 1.65803109c0 0 5.5220858 12.84974091-7.9184628 18.34196891 0 0-12.39864567-3.9378238-8.02265309-18.23834197 0 0 1.8754254-.10362694 2.18799629-1.76165803zm11.1488237 1.02264249h-10.5195142l-.0135747.22462138c-.0879668.48852232-.332855.82933904-.692219 1.05905493-.16184609.10345674-.33693146.17739416-.51204917.22601907-.0609939.01693617-.11721008.02941871-.16691886.03808629-.02788772.0048627-.04598173.00727004-.05255864.00790728l-.18479855.01790517-.05187595.17731526c-.96832782 3.30980493-1.00157873 6.17089333-.23854532 8.61095553.625522 2.000322 1.75874059 3.6395142 3.25176829 4.95022.8260594.7251848 1.7104773 1.3043183 2.5953255 1.7521473.3102777.1570342.5988495.2865775.8585294.3904201.1576032.0630234.2718407.1038516.335531.1242466l.0978567.0313357.0944473-.0403795c3.706248-1.5845486 5.9482484-3.978585 6.9525029-6.9598122.8289839-2.4609198.7557886-5.0794302.1365959-7.5594644-.102245-.40951878-.211902-.77981476-.3217649-1.10477998-.0386445-.11430709-.0746341-.21496213-.1070702-.30119923-.0197971-.05263406-.0342401-.08930429-.0424312-.10924348l-.0648181-.15778272-.1710023-.01118247c-.4852119-.03172982-.7949068-.23030239-.9860059-.54826351-.0743571-.12371932-.1255485-.25824895-.1570061-.39295627-.0185374-.07938004-.0261309-.13845983-.0275-.16596194zm-10.0445566.5453886c6.3670518.00140829 9.5506601.00246549 9.550825.0031716.0435642.18654952.1146179.37327674.2204687.54939714.2555074.42512718.6665613.71252434 1.2423411.79430476.0247205.06742089.0514932.14332848.0799019.22735888.1052837.31142027.2107733.66764369.3093318 1.06239713.5962272 2.3880512.6666299 4.9066559-.1243526 7.2547645-.9455396 2.8069266-3.0463106 5.0666154-6.5515593 6.5899657-.0597222-.0216382-.1280305-.0476274-.2042744-.0781163-.2450824-.0980052-.5189601-.2209522-.8143972-.3704754-.8457657-.4280491-1.6919616-.9821541-2.4811417-1.674963-1.4212347-1.2476799-2.4970427-2.8038281-3.09102844-4.7033021-.71743785-2.2942547-.69869382-4.9928699.1944455-8.13366539.03813892-.00855545.07964982-.01888974.12408973-.03122937.22481102-.06242323.44965441-.15737312.66107501-.29251936.4247176-.27149176.7364637-.66697291.8842749-1.19708879zm7.3611948 5.58222801h-.3042357c.0302152-.6082902-.1041903-1.9326425-1.7493552-2.3005182-.4779765-.114191-.9787155-.0911939-1.4440775.0663213-.6418123.2279793-1.4086529.8010362-1.4367842 2.2341969h-.2229673c-.4742521.0011393-.8584244.3832344-.85957.8549222v3.5751296c.0011456.4716878.3853179.8537829.85957.8549223h5.1574199c.474252-.0011394.8584244-.3832345.8595699-.8549223v-3.5751296c-.0011455-.4716878-.3853179-.8537829-.8595699-.8549222zm-2.0056633 4.0414507h-1.1460933l.3031938-1.5067357c-.2943355-.1271796-.4585163-.4423591-.3932145-.7548577.0653017-.3124985.3421556-.5365105.6630673-.5365105s.5977656.224012.6630674.5365105c.0653018.3124986-.0988791.6276781-.3932145.7548577zm-2.1879963-4.0414507c.0281314-.4683938.2260929-1.5761658 1.4586642-1.6580311 0 0 1.6264106-.0891192 1.5972373 1.6580311z"/><filter id="e" height="117.5%" width="119.4%" x="-9.7%" y="-6.2%"><feOffset dy=".5" in="SourceAlpha" result="shadowOffsetOuter1"/><feGaussianBlur in="shadowOffsetOuter1" result="shadowBlurOuter1" stdDeviation=".5"/><feColorMatrix in="shadowBlurOuter1" values="0 0 0 0 0   0 0 0 0 0   0 0 0 0 0  0 0 0 0.204257246 0"/></filter></defs><g fill="none" fill-rule="evenodd"><use fill="#000" filter="url(#c)" xlink:href="#b"/><use fill="#30c0f2" xlink:href="#b"/><use fill="url(#a)" xlink:href="#b"/><circle cx="16" cy="15" r="14.5" stroke="#000" stroke-opacity=".097"/><g fill-rule="nonzero"><use fill="#000" filter="url(#e)" xlink:href="#d"/><use fill="#fff" fill-rule="evenodd" xlink:href="#d"/></g></g></svg>