<svg width="32" height="32" viewBox="0 0 32 32" version="1.1" xmlns="http://www.w3.org/2000/svg" xmlns:xlink="http://www.w3.org/1999/xlink"><title>svg/icon/trtl</title><desc>Created with Sketch.</desc><defs><linearGradient x1="50%" y1="0%" x2="50%" y2="100%" id="linearGradient-1"><stop stop-color="#FFF" stop-opacity=".5" offset="0%"/><stop stop-color="#000" stop-opacity=".5" offset="100%"/></linearGradient><circle id="path-2" cx="15" cy="15" r="15"/><filter x="-5.8%" y="-4.2%" width="111.7%" height="111.7%" filterUnits="objectBoundingBox" id="filter-3"><feOffset dx="0" dy=".5" in="SourceAlpha" result="shadowOffsetOuter1"/><feGaussianBlur stdDeviation=".5" in="shadowOffsetOuter1" result="shadowBlurOuter1"/><feComposite in="shadowBlurOuter1" in2="SourceAlpha" operator="out" result="shadowBlurOuter1"/><feColorMatrix values="0 0 0 0 0 0 0 0 0 0 0 0 0 0 0 0 0 0 0.199473505 0" type="matrix" in="shadowBlurOuter1"/></filter></defs><g id="icon/trtl" stroke="none" stroke-width="1" fill="none" fill-rule="evenodd"><g id="Group" transform="translate(1.000000, 0.000000)" fill-rule="nonzero"><g id="Oval"><use fill="#000" fill-opacity="1" filter="url(#filter-3)" xlink:href="#path-2"/><use fill="#00843D" xlink:href="#path-2"/><use fill="url(#linearGradient-1)" style="mix-blend-mode:soft-light" xlink:href="#path-2"/><circle stroke-opacity=".097" stroke="#000" stroke-width="1" stroke-linejoin="square" cx="15" cy="15" r="14.5"/></g></g><g id="TurtleCoin-(TRTL)" transform="translate(6.000000, 4.000000)" fill="#FFF" fill-rule="nonzero"><path d="M10.0053191,1.45390071 C10.3636146,1.45383363 10.7156087,1.54813087 11.0258865,1.72730496 L17.5343972,5.48546099 C18.1659438,5.85008459 18.5549845,6.52394429 18.5549645,7.25319149 L18.5549645,14.9205674 C18.5549845,15.6498146 18.1659438,16.3236743 17.5343972,16.6882979 L11.0244681,20.4471631 C10.3929388,20.8117767 9.61486262,20.8117767 8.98333333,20.4471631 L2.47340426,16.6882979 C1.84191119,16.3236207 1.45289002,15.649795 1.45283688,14.9205674 L1.45283688,7.2535461 C1.45289002,6.5243185 1.84191119,5.85049274 2.47340426,5.4858156 L8.98333333,1.72695035 C9.29361112,1.54777626 9.64560522,1.45347902 10.0039007,1.4535461 L10.0053191,1.45390071 Z M10.0039007,0.035106383 C9.39664888,0.0353168455 8.80012073,0.195149213 8.27411348,0.49858156 L1.7641844,4.25744681 C0.695276583,4.876937 0.0364303857,6.01809967 0.0343971631,7.2535461 L0.0343971631,14.9205674 C0.0363041918,16.1561405 0.695167236,17.2974674 1.7641844,17.9170213 L8.27411348,21.6758865 C9.34450954,22.29388 10.6632919,22.29388 11.7336879,21.6758865 L18.243617,17.9170213 C19.312578,17.2975842 19.9714436,16.1563879 19.9734043,14.920922 L19.9734043,7.2535461 C19.9715698,6.01795344 19.3126874,4.8765929 18.243617,4.2570922 L11.7336879,0.49822695 C11.2076807,0.194794603 10.6111525,0.0349622356 10.0039007,0.034751773 L10.0039007,0.035106383 Z" id="Shape"/><path d="M9.20602837,12.2907801 C9.05402966,12.2907509 8.91358801,12.2096489 8.83758865,12.0780142 L8.05425532,10.720922 C7.97824136,10.589262 7.97824136,10.4270501 8.05425532,10.2953901 L8.83758865,8.93829787 C8.91358801,8.80666312 9.05402966,8.72556111 9.20602837,8.72553191 L10.8042553,8.72553191 C10.956254,8.72556111 11.0966957,8.80666312 11.172695,8.93829787 L11.9560284,10.2953901 C12.0320423,10.4270501 12.0320423,10.589262 11.9560284,10.720922 L11.172695,12.0780142 C11.0966957,12.2096489 10.956254,12.2907509 10.8042553,12.2907801 L9.20602837,12.2907801 Z" id="Shape"/><path d="M7.0712766,10.1535461 C7.22327531,10.1535169 7.36371696,10.0724149 7.43971631,9.94078014 L8.22304965,8.58368794 C8.2990636,8.45202791 8.2990636,8.28981606 8.22304965,8.15815603 L7.24609929,6.46595745 L5.34042553,7.50638298 C5.20076571,7.58257538 5.11527168,7.73030907 5.11879433,7.8893617 C5.13478303,8.65092077 5.22348377,9.4092112 5.38368794,10.1539007 L7.0712766,10.1535461 Z" id="Shape"/><path d="M12.9390071,10.1535461 C12.7870084,10.1535169 12.6465667,10.0724149 12.5705674,9.94078014 L11.7868794,8.58368794 C11.7108655,8.45202791 11.7108655,8.28981606 11.7868794,8.15815603 L12.7638298,6.46595745 L14.6695035,7.50602837 C14.8091634,7.58222077 14.8946574,7.72995446 14.8911348,7.88900709 C14.8752627,8.65055477 14.7866807,9.40884508 14.6265957,10.1535461 L12.9390071,10.1535461 Z" id="Shape"/><path d="M10.2092199,5.0712766 C10.082138,5.0019001 9.92850033,5.0019001 9.80141844,5.0712766 L7.86914894,6.12624113 L8.83794326,7.80390071 C8.91394262,7.93553546 9.05438427,8.01663747 9.20638298,8.01666667 L10.8046099,8.01666667 C10.9566086,8.01663747 11.0970503,7.93553546 11.1730496,7.80390071 L12.141844,6.12624113 L10.2092199,5.0712766 Z" id="Shape"/><path d="M5.55992908,10.862766 C5.92468743,12.1597435 6.50734253,13.3852498 7.28297872,14.4868794 L8.22340426,12.858156 C8.29941821,12.726496 8.29941821,12.5642841 8.22340426,12.4326241 L7.44007092,11.0755319 C7.36407157,10.9438972 7.22362992,10.8627952 7.07163121,10.862766 L5.55992908,10.862766 Z" id="Shape"/><path d="M14.4492908,10.862766 C14.084526,12.1597411 13.5018714,13.3852463 12.7262411,14.4868794 L11.7858156,12.858156 C11.7098016,12.726496 11.7098016,12.5642841 11.7858156,12.4326241 L12.5698582,11.0755319 C12.6458575,10.9438972 12.7862992,10.8627952 12.9382979,10.862766 L14.4492908,10.862766 Z" id="Shape"/><path d="M9.20602837,13 C9.05402966,13.0000292 8.91358801,13.0811312 8.83758865,13.212766 L7.74716312,15.1028369 C8.33437432,15.8329229 9.00501154,16.4917778 9.74539007,17.0659574 C9.89881484,17.1848394 10.1132419,17.1848394 10.2666667,17.0659574 C11.0070431,16.4917754 11.67768,15.8329207 12.2648936,15.1028369 L11.1737589,13.212766 C11.0977595,13.0811312 10.9573179,13.0000292 10.8053191,13 L9.20602837,13 Z" id="Shape"/></g></g></svg>