<svg height="32" viewBox="0 0 32 32" width="32" xmlns="http://www.w3.org/2000/svg" xmlns:xlink="http://www.w3.org/1999/xlink"><defs><linearGradient id="a" x1="50%" x2="50%" y1="0%" y2="100%"><stop offset="0" stop-color="#fff" stop-opacity=".5"/><stop offset="1" stop-opacity=".5"/></linearGradient><circle id="b" cx="16" cy="15" r="15"/><filter id="c" height="111.7%" width="111.7%" x="-5.8%" y="-4.2%"><feOffset dy=".5" in="SourceAlpha" result="shadowOffsetOuter1"/><feGaussianBlur in="shadowOffsetOuter1" result="shadowBlurOuter1" stdDeviation=".5"/><feComposite in="shadowBlurOuter1" in2="SourceAlpha" operator="out" result="shadowBlurOuter1"/><feColorMatrix in="shadowBlurOuter1" values="0 0 0 0 0   0 0 0 0 0   0 0 0 0 0  0 0 0 0.199473505 0"/></filter><path id="d" d="m24.7453798 11.2657306c-.7993793-.5670632-1.6542069-1.1716182-2.4905518-1.77148663-.0184827-.01405941-.0369655-.02811883-.0600689-.04217825-.0924138-.07029709-.1986897-.14528064-.328069-.1874589l-.0092414-.00468647c-2.2364138-.54831728-4.5097932-1.11069397-6.7092416-1.65432478-1.996138-.49207961-3.9876553-.98415922-5.98379327-1.47623883-.05082759-.01405941-.10165518-.02811883-.15710345-.04217825-.18020691-.0515512-.38813795-.10778887-.60993106-.07967003-.06468965.00937294-.12013793.03280531-.17096552.06561061l-.05544828.04686473c-.0877931.0843565-.134.19214537-.15710345.25306951l-.01386207.03749178v.21557773l.00924138.03280531c1.26144832 3.58515147 2.55524142 7.22185407 3.80282772 10.74139487.9611035 2.7087811 1.9591725 5.5159781 2.934138 8.2716239.060069.1874589.2310345.3093072.4435862.3280531h.0462069c.1986897 0 .3742759-.0984159.462069-.257756l3.6595863-5.4128757c.8917932-1.3168987 1.7835863-2.638484 2.6753794-3.9553827.3650345-.5389444.730069-1.0825752 1.0951035-1.6215195.6006897-.8904298 1.2198621-1.8089784 1.8344139-2.7040946l.0323448-.0468648v-.0562376c.0138621-.1640266.0184828-.5014526-.2495173-.6795385m-4.2880001 1.9730049c-.8594483.4545878-1.7373794.9232351-2.6199311 1.3871958.5128966-.5576902 1.0304138-1.1200669 1.5433104-1.6777571.6422759-.7029709 1.3122759-1.4293741 1.9684138-2.1417179l.0138621-.0140595c.0554483-.0749835.1247586-.1452806.1986897-.2202642.0508276-.0515512.1062758-.1031024.1571034-.1640265.3419311.2390101.6884828.4827067 1.0211725.7217168.2402758.1733994.4851724.3467989.7346897.5201984-1.0165518.5248849-2.0331036 1.0638293-3.0173105 1.5887142m-2.2086897-.2249507c-.6607587.7264032-1.3446207 1.4715524-2.0238622 2.2073285-1.3168965-1.6215194-2.6615173-3.2664713-3.9645518-4.8551854-.5914483-.72171681-1.1875173-1.44812004-1.7789656-2.1698368l-.0046207-.00468647c-.134-.15465359-.2633793-.3233666-.3927586-.48270667-.0831724-.10778886-.17096552-.21089126-.25875863-.31868012.53600003.14059417 1.07662073.2718154 1.60800003.39835016.4666897.11247534.9518621.22963715 1.4277932.35148543 2.6800001.66079262 5.3646208 1.32158524 8.0446209 1.98237787-.8917931.9654133-1.7882069 1.9448861-2.6568966 2.8915535m-2.324207 9.1339348c.0508276-.4920796.1062759-.9982186.1524828-1.4949847.0415862-.3983501.0831724-.8060732.1247586-1.1950505.0646897-.6233008.134-1.270034.1894483-1.9027078l.0138621-.1124753c.0462069-.4030367.0924137-.8201327.1201379-1.2372288.0508276-.0281188.1062759-.0562376.1663448-.07967.0693104-.0328053.1386207-.0609241.2079311-.1031024 1.0673793-.5670631 2.1347587-1.1341263 3.2067587-1.696503 1.0673793-.5623767 2.1624828-1.1434993 3.2483449-1.7199354-.9888276 1.4528065-1.9822759 2.9196723-2.9433794 4.3490464-.8271035 1.2231694-1.6773104 2.4838304-2.5228966 3.7257457-.3326897.496766-.6792414 1.0029051-1.0073104 1.4902982-.3696552.5436308-.7485517 1.101321-1.1182069 1.6590112.0462069-.5623766.1016551-1.1294398.1617241-1.6824436m-6.44124157-13.65169426c-.06006897-.16871301-.12475863-.34211249-.18020691-.50613903 1.24758628 1.52779003 2.50441388 3.06495299 3.72889668 4.55525119.6330345.773268 1.266069 1.5418495 1.8991035 2.3198039.1247586.1452807.2495173.2999343.3696552.4499014.1571034.1921453.3142069.3936637.4851724.585809-.0554483.4827067-.1016552.9700998-.1524827 1.4387471-.0323449.3280531-.0646897.6561061-.1016552.9888457v.0046864c-.0138621.2108913-.0415862.4217826-.0646897.6279874-.0323448.2858748-.1062758.932608-.1062758.932608l-.0046207.0328053c-.0831724.9466674-.1848276 1.9027078-.2818621 2.8306294-.0415862.3842907-.0785517.7779544-.1201379 1.1716181-.0231035-.0702971-.0508276-.1405942-.0739311-.2062048-.0693103-.1874589-.1386207-.3842908-.2033103-.5764361l-.4944138-1.3918824c-1.5664139-4.4193435-3.1328277-8.8340006-4.69924157-13.25803056"/><filter id="e" height="117.5%" width="120.6%" x="-10.3%" y="-6.2%"><feOffset dy=".5" in="SourceAlpha" result="shadowOffsetOuter1"/><feGaussianBlur in="shadowOffsetOuter1" result="shadowBlurOuter1" stdDeviation=".5"/><feColorMatrix in="shadowBlurOuter1" values="0 0 0 0 0   0 0 0 0 0   0 0 0 0 0  0 0 0 0.204257246 0"/></filter></defs><g fill="none" fill-rule="nonzero"><g><use fill="#000" filter="url(#c)" xlink:href="#b"/><use fill="#2a2a2a" fill-rule="evenodd" xlink:href="#b"/><use fill="url(#a)" fill-rule="evenodd" xlink:href="#b"/><circle cx="16" cy="15" r="14.5" stroke="#000" stroke-opacity=".097"/></g><g><use fill="#000" filter="url(#e)" xlink:href="#d"/><use fill="#fff" fill-rule="evenodd" xlink:href="#d"/></g></g></svg>