<svg width="33" height="33" viewBox="0 0 33 33" fill="none" xmlns="http://www.w3.org/2000/svg">
<g clip-path="url(#clip0)">
<path d="M16.5558 32.9462C25.3923 32.9462 32.5558 25.7828 32.5558 16.9462C32.5558 8.10967 25.3923 0.946228 16.5558 0.946228C7.71923 0.946228 0.555786 8.10967 0.555786 16.9462C0.555786 25.7828 7.71923 32.9462 16.5558 32.9462Z" fill="#EFF2F5"/>
<path d="M13.9696 9.05106C13.9837 9.0567 13.9922 9.06797 13.9894 9.08207C13.9894 9.11025 13.9894 9.13561 13.9894 9.1638V19.1155C13.9894 19.1493 13.9865 19.1803 13.9865 19.2141C14.0007 19.2423 14.0261 19.2282 14.043 19.2282C15.8342 19.2282 17.6254 19.2282 19.4194 19.2311C19.4759 19.2311 19.5013 19.217 19.4928 19.1578C19.4928 19.138 19.4928 19.1211 19.4928 19.1014C19.4928 15.787 19.4928 12.4754 19.4928 9.16098C19.4928 9.12716 19.473 9.08207 19.5154 9.0567C19.5295 9.04543 19.5521 9.04824 19.5634 9.06234C19.5634 9.06234 19.5634 9.06516 19.5663 9.06516C19.5804 9.08488 19.5945 9.10461 19.6058 9.12716C19.8092 9.53019 20.0183 9.93603 20.2189 10.3391C20.3856 10.6773 20.5551 11.0155 20.7218 11.3509C20.9082 11.7229 21.0975 12.0977 21.284 12.4698C21.4535 12.8051 21.6202 13.1434 21.7868 13.4787C21.9366 13.7831 22.092 14.0819 22.2389 14.3863C22.2615 14.4314 22.2954 14.468 22.3095 14.5159C22.318 14.5723 22.318 14.6315 22.3152 14.6878V24.3831C22.3152 24.4112 22.3152 24.4366 22.3152 24.4648C22.3152 24.5719 22.3152 24.5719 22.4197 24.5916C22.4338 24.5944 22.4451 24.6001 22.4564 24.6113C22.3858 24.6452 22.3123 24.6564 22.2361 24.6734C21.9027 24.7523 21.5665 24.803 21.2246 24.8284C21.0664 24.8396 20.9082 24.8425 20.75 24.8453C19.9335 24.8594 19.1142 24.8537 18.2978 24.8537C16.8795 24.8537 15.4585 24.8537 14.0374 24.8509C14.0091 24.8509 13.9781 24.8594 13.9498 24.8425C13.9583 24.8368 13.9668 24.8284 13.9781 24.8255C14.0289 24.8143 14.0798 24.8115 14.1334 24.8143H19.3289C19.3741 24.8171 19.4222 24.8143 19.4674 24.8086C19.5098 24.7889 19.4928 24.7523 19.4956 24.7213C19.4956 23.5714 19.4956 22.4186 19.4956 21.2687V19.4678C19.4928 19.4312 19.4956 19.3945 19.4985 19.3579C19.4561 19.4903 19.3855 19.6144 19.3233 19.7412C19.0945 20.2175 18.8713 20.6966 18.6424 21.1757C18.5181 21.4378 18.3938 21.6971 18.2695 21.9592C18.2526 21.9959 18.2356 22.0353 18.1961 22.0551C18.1565 22.0663 18.1141 22.0692 18.0746 22.0663H15.402C15.3652 22.0692 15.3313 22.0663 15.2946 22.0579C15.2409 22.041 15.224 21.9931 15.2042 21.948C15.0488 21.6182 14.8906 21.2885 14.7352 20.9559C14.5657 20.598 14.3962 20.2429 14.2267 19.8849C14.1447 19.7158 14.0685 19.5439 13.9781 19.3663C13.9781 19.4143 13.9781 19.4537 13.9781 19.4932C13.9781 21.2237 13.9781 22.9513 13.9781 24.6818C13.9781 24.7354 13.9922 24.7917 13.9526 24.8396C13.9244 24.8396 13.899 24.8453 13.8707 24.8453C13.4667 24.8453 13.0627 24.8453 12.6587 24.8453C12.5542 24.8453 12.4525 24.8396 12.3479 24.8368C12.3282 24.8368 12.3084 24.8396 12.2943 24.8255C12.314 24.8086 12.3366 24.8171 12.3564 24.8171C12.8508 24.8171 13.3452 24.8171 13.8396 24.8171C13.8594 24.8171 13.8764 24.8143 13.882 24.8171C13.3904 24.8171 12.8875 24.8171 12.3818 24.8171C12.3536 24.8171 12.3225 24.8058 12.2943 24.8284C12.17 24.834 12.0428 24.8171 11.9185 24.803C11.6755 24.7804 11.4382 24.7297 11.2009 24.6903C11.1924 24.6874 11.1868 24.6846 11.1783 24.679C11.2066 24.617 11.2037 24.5522 11.2037 24.4873C11.2037 21.2349 11.2037 17.9825 11.2037 14.7301C11.2009 14.6737 11.2037 14.6145 11.2094 14.5582C11.2235 14.499 11.2461 14.4426 11.2744 14.3919C11.4439 14.0565 11.6134 13.7211 11.7801 13.3829C12.396 12.1231 13.0316 10.8746 13.656 9.62038C13.7351 9.46255 13.8142 9.31035 13.8905 9.15252C13.9018 9.12716 13.9103 9.07361 13.9611 9.1187C13.9611 12.2302 13.9611 15.3417 13.9611 18.4532C13.9611 18.6956 13.9611 18.9379 13.9611 19.1831C13.9611 15.8546 13.9611 12.5289 13.9611 9.20044C13.9583 9.14689 13.9413 9.09898 13.9696 9.05106Z" fill="#E85C50"/>
<path d="M11.2264 14.5215C11.2264 17.8641 11.2264 21.2067 11.2264 24.5465C11.2264 24.5747 11.2264 24.6 11.2264 24.6282C11.2292 24.6677 11.2038 24.6733 11.1755 24.6761C10.7715 24.5831 10.3788 24.4591 10.0115 24.2703C9.80812 24.166 9.61035 24.0561 9.43519 23.9123C8.94926 23.515 8.61024 23.0274 8.53679 22.3876C8.53679 22.3651 8.53679 22.3453 8.53679 22.3228C8.52831 22.2946 8.52549 22.2636 8.53114 22.2326C8.53114 17.8951 8.53114 13.5604 8.53114 9.22294C8.52831 9.19194 8.53114 9.16375 8.53679 9.13275C8.57634 9.13557 8.58482 9.16939 8.59612 9.19476C8.74585 9.49914 8.89559 9.80071 9.04814 10.1023C9.23178 10.4658 9.41542 10.8266 9.59623 11.193C9.76574 11.5312 9.93807 11.8694 10.1048 12.2104C10.2093 12.4246 10.3195 12.636 10.424 12.8474C10.5229 13.0418 10.6218 13.2363 10.7178 13.4336C10.8308 13.6703 10.9495 13.9043 11.071 14.1354C11.1246 14.234 11.1642 14.3383 11.2151 14.4398C11.232 14.4623 11.2348 14.4933 11.2264 14.5215Z" fill="#CF3339"/>
<path d="M22.4564 24.6113C22.4169 24.6085 22.3802 24.6141 22.3434 24.6254C22.3124 24.6311 22.2898 24.6226 22.2898 24.5831C22.2898 24.5634 22.2898 24.5465 22.2898 24.5268V14.4905C22.2643 14.4454 22.2982 14.4116 22.3152 14.3778C22.5864 13.8507 22.8548 13.3209 23.1204 12.7882C23.126 12.7769 23.1345 12.7629 23.143 12.7516C23.1458 12.7459 23.1486 12.7403 23.1514 12.7347C23.1571 12.7262 23.1599 12.7178 23.1656 12.7093C23.1712 12.7009 23.1712 12.698 23.174 12.6924C23.1825 12.6755 23.191 12.6558 23.1995 12.6388C23.2023 12.6332 23.2079 12.6248 23.2108 12.6191C23.352 12.3542 23.482 12.0836 23.6176 11.8131C23.691 11.6721 23.7588 11.5312 23.8295 11.3875C23.8944 11.2607 23.9566 11.1366 24.0188 11.0098C24.0244 11.0014 24.0272 10.9929 24.0329 10.9873C24.2419 10.5814 24.4397 10.1699 24.6488 9.76692C24.7363 9.60063 24.8211 9.43153 24.9087 9.26524C24.9228 9.23424 24.9341 9.1976 24.9793 9.18915C24.9963 9.22297 24.9878 9.25679 24.9878 9.29061C24.9878 11.8666 24.9878 14.4426 24.9878 17.0158C24.9878 18.7265 24.9878 20.4373 24.9878 22.1481C24.9906 22.1819 24.9906 22.2129 24.9821 22.2467C24.9934 22.3651 24.9482 22.4722 24.92 22.5821C24.8296 22.9316 24.6375 23.2219 24.4002 23.4868C24.2222 23.6925 24.0159 23.8757 23.7871 24.0251C23.4989 24.2139 23.1882 24.3689 22.8633 24.4873C22.7333 24.5324 22.5949 24.5775 22.4564 24.6113Z" fill="#CF3339"/>
<path d="M11.2268 14.5218C11.2212 14.4936 11.2127 14.4683 11.1957 14.4457C11.1194 14.2851 11.0347 14.1301 10.9612 13.9694C10.8878 13.8144 10.7974 13.6679 10.7296 13.51C10.6674 13.3635 10.5798 13.231 10.5177 13.0873C10.4386 12.9041 10.3284 12.7378 10.2549 12.5518C10.2267 12.4785 10.1787 12.4137 10.1448 12.3432C10.0911 12.2361 10.0487 12.1234 9.98938 12.0191C9.87355 11.8162 9.78032 11.5992 9.67296 11.3934C9.60233 11.2581 9.52888 11.1257 9.46672 10.9848C9.39892 10.8326 9.30851 10.6917 9.24353 10.5395C9.16443 10.3534 9.05425 10.1843 8.97514 9.99833C8.93842 9.90814 8.87909 9.82641 8.83953 9.73622C8.74913 9.53893 8.6333 9.35292 8.53442 9.15282V22.2245C8.53442 22.2583 8.53442 22.2893 8.53442 22.3231C8.50616 22.2329 8.51464 22.1399 8.51464 22.0469C8.51181 20.8914 8.51181 19.733 8.51464 18.5775V9.29655C8.51747 9.21482 8.51464 9.13309 8.50616 9.05135C8.53159 9.0429 8.55984 9.04008 8.58527 9.04572C10.3454 9.04572 12.1083 9.04572 13.8683 9.04572H13.9164C13.9757 9.04572 13.9531 9.07672 13.9361 9.10209L12.8654 11.23C12.6422 11.6753 12.419 12.1178 12.1987 12.5631C12.1167 12.7265 12.0405 12.8928 11.9585 13.0563C11.7325 13.5072 11.5065 13.9582 11.2805 14.4091L11.2268 14.5218Z" fill="#E33936"/>
<path d="M23.1429 12.7713C23.1401 12.7938 23.1316 12.8136 23.1203 12.8305C22.9424 13.1884 22.7644 13.5491 22.5807 13.9043C22.4932 14.0734 22.4084 14.2425 22.3208 14.4144C22.3067 14.4369 22.2954 14.4623 22.2897 14.4905C22.2587 14.4905 22.2502 14.4623 22.2417 14.4426C22.205 14.3721 22.1767 14.2988 22.14 14.2284C22.0976 14.1438 22.0496 14.0593 22.0072 13.9747C21.9281 13.8197 21.8462 13.6647 21.7727 13.5069C21.6965 13.3406 21.6004 13.1856 21.5269 13.0165C21.4478 12.8361 21.3433 12.6698 21.267 12.4894C21.2247 12.3908 21.1653 12.2978 21.1173 12.1991C21.041 12.047 20.9591 11.8948 20.8885 11.7397C20.8065 11.5622 20.7048 11.3931 20.6285 11.2127C20.5862 11.1141 20.524 11.0211 20.4788 10.9224C20.3941 10.7336 20.2867 10.556 20.2048 10.3644C20.1624 10.2657 20.1031 10.1727 20.055 10.0741C19.8997 9.76125 19.7414 9.45122 19.5861 9.13838C19.5691 9.11302 19.5578 9.08483 19.5522 9.05665L19.5663 9.0482C20.637 9.04538 21.7078 9.0482 22.7813 9.0482C23.4933 9.0482 24.2024 9.0482 24.9143 9.0482C24.9426 9.0482 24.9737 9.03974 25.0019 9.05665C25.0047 9.0792 25.0302 9.09893 25.0047 9.12429C24.9256 9.2173 24.8889 9.33285 24.8352 9.43713C24.564 9.96135 24.3013 10.4912 24.0357 11.0211C23.9679 11.1451 23.9029 11.2719 23.8436 11.3987C23.7701 11.5396 23.6995 11.6806 23.6289 11.8243C23.4876 12.0949 23.3577 12.3739 23.2136 12.6416C23.1994 12.6614 23.1881 12.6839 23.1797 12.7065C23.1684 12.7149 23.1712 12.7318 23.1627 12.7403C23.1486 12.7459 23.1514 12.7628 23.1429 12.7713Z" fill="#E33936"/>
<path d="M24.0301 11.0183C24.0724 10.8718 24.1515 10.7393 24.225 10.6069C24.2504 10.5618 24.2674 10.5138 24.29 10.4659C24.3889 10.2743 24.4821 10.0826 24.5781 9.89098C24.6544 9.74161 24.7251 9.58942 24.8042 9.44004C24.8578 9.3414 24.903 9.24276 24.9539 9.14129C24.9652 9.11875 24.9737 9.10184 25.0019 9.11875C25.0019 9.6486 25.0019 10.1785 25.0019 10.7055C25.0019 14.4765 25.0019 18.2475 25.0019 22.0185C25.0019 22.0918 25.0076 22.165 24.9878 22.2383C24.9878 22.2101 24.985 22.1848 24.985 22.1566V9.20048C24.9595 9.2033 24.9567 9.22303 24.9511 9.23994C24.9228 9.29349 24.8974 9.34704 24.8691 9.40059C24.6007 9.91635 24.3408 10.4349 24.0809 10.9563C24.0668 10.9789 24.0583 11.0071 24.0301 11.0183Z" fill="#E34C37"/>
<path d="M19.5493 9.05387C19.5154 9.05951 19.4928 9.09051 19.4985 9.12433V9.12715C19.4985 9.14969 19.4985 9.16942 19.4985 9.19197C19.4985 12.5007 19.4985 15.8123 19.4985 19.1211C19.4985 19.2508 19.5126 19.2395 19.3798 19.2395C17.6169 19.2395 15.8512 19.2395 14.0883 19.2395C14.0544 19.2395 14.012 19.2592 13.9837 19.2169C14.012 19.2282 14.0431 19.231 14.0713 19.2282H19.3996C19.4109 19.2282 19.4222 19.2282 19.4335 19.2282C19.473 19.231 19.49 19.217 19.4872 19.1775C19.4843 19.1521 19.4872 19.1296 19.4872 19.1042V9.16097C19.4872 9.14124 19.4872 9.12433 19.4872 9.1046C19.4815 9.05669 19.507 9.03978 19.5493 9.0426V9.05387Z" fill="#E9654C"/>
<path d="M13.9329 9.10427C13.9329 9.08172 13.9526 9.05072 13.9046 9.05635C13.882 9.05635 13.8594 9.05635 13.8396 9.05635H8.50006C8.52266 9.02535 8.55656 9.04226 8.58199 9.04226C8.95774 9.03944 9.33066 9.04226 9.70359 9.04226C11.0879 9.04226 12.4751 9.04226 13.8594 9.04226C13.8933 9.04226 13.93 9.03099 13.9639 9.05635C13.9639 10.1922 13.9639 11.328 13.9639 12.461V19.2053C13.9385 19.1941 13.9498 19.1743 13.947 19.1602C13.947 19.1405 13.947 19.1236 13.947 19.1039C13.947 15.8092 13.947 12.5117 13.947 9.21418C13.9498 9.17473 13.9639 9.13527 13.9329 9.10427Z" fill="#E7563D"/>
<path d="M19.4985 24.8368C19.4617 24.8368 19.4278 24.8368 19.3911 24.8368H14.0657C14.0318 24.8368 14.0007 24.834 13.9668 24.834C13.9611 24.8001 13.9668 24.7691 13.9837 24.7381C14.125 24.4422 14.2634 24.1463 14.4047 23.8504C14.6844 23.267 14.9584 22.6807 15.2381 22.1001C15.2466 22.0776 15.2607 22.055 15.2777 22.041H18.1989C18.2695 22.165 18.326 22.2946 18.3853 22.4214C18.4984 22.6666 18.617 22.909 18.7328 23.1542C18.9815 23.6756 19.2301 24.1998 19.4759 24.7212C19.4985 24.7579 19.5069 24.7973 19.4985 24.8368Z" fill="#CF3339"/>
<path d="M15.2805 22.041C15.2692 22.0889 15.2522 22.134 15.2268 22.1791C15.0912 22.4609 14.9528 22.7427 14.82 23.0246C14.7296 23.2162 14.6392 23.4079 14.5488 23.5995C14.4442 23.8222 14.3397 24.042 14.2323 24.2618C14.1532 24.4253 14.077 24.5916 14.0007 24.7579C13.9894 24.7832 13.9809 24.8086 13.9696 24.834L13.9498 24.8396C13.9498 24.803 13.9498 24.7691 13.9498 24.7325V19.293C13.9753 19.3099 13.995 19.3353 14.0035 19.3635C14.0572 19.4819 14.1109 19.6031 14.1674 19.7186C14.2549 19.9018 14.3454 20.0822 14.4301 20.2626C14.5798 20.5838 14.7324 20.9023 14.885 21.2208C14.9754 21.4096 15.0629 21.6013 15.1562 21.7901C15.1957 21.8747 15.224 21.9649 15.2805 22.041Z" fill="#E33937"/>
<path d="M19.4985 24.8368C19.4787 24.7381 19.4222 24.6564 19.3855 24.5662C19.3374 24.4506 19.2809 24.3407 19.2244 24.2252C19.0973 23.9602 18.9673 23.6953 18.843 23.4304C18.7413 23.2162 18.6396 23.002 18.5379 22.7878C18.4277 22.5623 18.326 22.334 18.2187 22.1086C18.2074 22.086 18.1989 22.0635 18.1989 22.0381C18.3627 21.6943 18.5294 21.3504 18.6905 21.0038C18.7865 20.8009 18.8826 20.6007 18.9786 20.3978C19.086 20.1724 19.1905 19.9497 19.2979 19.727C19.3544 19.6087 19.4081 19.4903 19.4617 19.3719C19.4702 19.3437 19.4872 19.3156 19.5126 19.2958V19.3804C19.5126 21.1672 19.5126 22.9569 19.5126 24.7438C19.5154 24.7776 19.5267 24.8114 19.4985 24.8368Z" fill="#E33937"/>
<path d="M12.2886 24.8256C12.3056 24.803 12.3338 24.8058 12.3564 24.8058H13.8905C13.9018 24.8058 13.9131 24.8087 13.9244 24.8115C13.8933 24.8227 13.8623 24.8256 13.8312 24.8199H12.3621C12.3395 24.8227 12.3141 24.8256 12.2886 24.8256Z" fill="#E75840"/>
<path d="M23.2079 12.6388C23.2107 12.6191 23.2164 12.6022 23.2277 12.5853C23.3492 12.3429 23.4707 12.1005 23.5921 11.8581C23.5978 11.8412 23.6063 11.8299 23.6204 11.8187C23.626 11.8102 23.6317 11.8102 23.6373 11.8187C23.513 12.0695 23.3859 12.3175 23.2616 12.5683C23.2475 12.5937 23.239 12.6275 23.2079 12.6388Z" fill="#E04437"/>
<path d="M23.1768 12.7037C23.1712 12.6755 23.1853 12.6501 23.2107 12.6389C23.2079 12.6642 23.1966 12.6896 23.1768 12.7037Z" fill="#E04437"/>
<path d="M23.1599 12.7412C23.157 12.7267 23.1657 12.7152 23.1773 12.7065C23.1773 12.7209 23.1715 12.7325 23.1599 12.7412Z" fill="#E04437"/>
<path d="M23.143 12.7722C23.1401 12.7577 23.1487 12.7462 23.1603 12.7375C23.1603 12.7519 23.1545 12.7635 23.143 12.7722Z" fill="#E04437"/>
</g>
<defs>
<clipPath id="clip0">
<rect width="32" height="32" fill="white" transform="translate(0.555786 0.946228)"/>
</clipPath>
</defs>
</svg>
