<svg width="32" height="32" viewBox="0 0 32 32" xmlns="http://www.w3.org/2000/svg" xmlns:xlink="http://www.w3.org/1999/xlink"><defs><linearGradient x1="50%" y1="0%" x2="50%" y2="100%" id="c"><stop stop-color="#FFF" stop-opacity=".5" offset="0%"/><stop stop-opacity=".5" offset="100%"/></linearGradient><filter x="-5.8%" y="-4.2%" width="111.7%" height="111.7%" filterUnits="objectBoundingBox" id="a"><feOffset dy=".5" in="SourceAlpha" result="shadowOffsetOuter1"/><feGaussianBlur stdDeviation=".5" in="shadowOffsetOuter1" result="shadowBlurOuter1"/><feComposite in="shadowBlurOuter1" in2="SourceAlpha" operator="out" result="shadowBlurOuter1"/><feColorMatrix values="0 0 0 0 0 0 0 0 0 0 0 0 0 0 0 0 0 0 0.199473505 0" in="shadowBlurOuter1"/></filter><circle id="b" cx="15" cy="15" r="15"/></defs><g fill="none"><g transform="translate(1)"><use fill="#000" filter="url(#a)" xlink:href="#b"/><use fill="#2775C9" xlink:href="#b"/><use fill="url(#c)" style="mix-blend-mode:soft-light" xlink:href="#b"/><circle stroke-opacity=".097" stroke="#000" stroke-linejoin="square" cx="15" cy="15" r="14.5"/></g><path d="M15.75 26.5C9.26 26.5 4 21.24 4 14.75S9.26 3 15.75 3 27.5 8.26 27.5 14.75A11.75 11.75 0 0115.75 26.5zm-.7-16.11a2.58 2.58 0 00-2.45 2.47c0 1.21.74 2 2.31 2.33l1.1.26c1.07.25 1.51.61 1.51 1.22s-.77 1.21-1.77 1.21a1.9 1.9 0 01-1.8-.91.68.68 0 00-.61-.39h-.59a.35.35 0 00-.28.41 2.73 2.73 0 002.61 2.08v.84a.705.705 0 001.41 0v-.85a2.62 2.62 0 002.59-2.58c0-1.27-.73-2-2.46-2.37l-1-.22c-1-.25-1.47-.58-1.47-1.14 0-.56.6-1.18 1.6-1.18a1.64 1.64 0 011.59.81.8.8 0 00.72.46h.47a.42.42 0 00.31-.5 2.65 2.65 0 00-2.38-2v-.69a.705.705 0 00-1.41 0v.74zm-8.11 4.36a8.79 8.79 0 006 8.33h.14a.45.45 0 00.45-.45v-.21a.94.94 0 00-.58-.87 7.36 7.36 0 010-13.65.93.93 0 00.58-.86v-.23a.42.42 0 00-.56-.4 8.79 8.79 0 00-6.03 8.34zm17.62 0a8.79 8.79 0 00-6-8.32h-.15a.47.47 0 00-.47.47v.15a1 1 0 00.61.9 7.36 7.36 0 010 13.64 1 1 0 00-.6.89v.17a.47.47 0 00.62.44 8.79 8.79 0 005.99-8.34z" fill="#FFF"/></g></svg>