<svg height="32" viewBox="0 0 32 32" width="32" xmlns="http://www.w3.org/2000/svg" xmlns:xlink="http://www.w3.org/1999/xlink"><defs><linearGradient id="a" x1="50%" x2="50%" y1="0%" y2="100%"><stop offset="0" stop-color="#fff" stop-opacity=".5"/><stop offset="1" stop-opacity=".5"/></linearGradient><circle id="b" cx="16" cy="15" r="15"/><filter id="c" height="111.7%" width="111.7%" x="-5.8%" y="-4.2%"><feOffset dy=".5" in="SourceAlpha" result="shadowOffsetOuter1"/><feGaussianBlur in="shadowOffsetOuter1" result="shadowBlurOuter1" stdDeviation=".5"/><feComposite in="shadowBlurOuter1" in2="SourceAlpha" operator="out" result="shadowBlurOuter1"/><feColorMatrix in="shadowBlurOuter1" values="0 0 0 0 0   0 0 0 0 0   0 0 0 0 0  0 0 0 0.199473505 0"/></filter><path id="d" d="m17.9224002 16.3834496v-.002048c-.110592.007168-.677888.041216-1.942272.041216-1.010176 0-1.721088-.028672-1.971456-.041728v.003072c-3.88736-.171264-6.78988801-.848384-6.78988801-1.658368 0-.808448 2.90252801-1.48608 6.78988801-1.65888v2.643712c.254464.017664.982784.060672 1.988096.060672 1.20704 0 1.81248-.050176 1.925632-.060672v-2.642432c3.87968.1728 6.774784.850432 6.774784 1.6576 0 .809472-2.895104 1.485056-6.774784 1.657856m0-3.590656v-2.365952h5.413376v-3.608064h-14.74124801v3.608064h5.41414401v2.36544c-4.39987201.201984-7.70867201 1.073408-7.70867201 2.117376s3.3088 1.915136 7.70867201 2.118656v7.58144h3.913728v-7.583488c4.392192-.202752 7.69408-1.073408 7.69408-2.116608 0-1.042944-3.301888-1.913856-7.69408-2.116864"/><filter id="e" height="119.7%" width="118.1%" x="-9.1%" y="-7%"><feOffset dy=".5" in="SourceAlpha" result="shadowOffsetOuter1"/><feGaussianBlur in="shadowOffsetOuter1" result="shadowBlurOuter1" stdDeviation=".5"/><feColorMatrix in="shadowBlurOuter1" values="0 0 0 0 0   0 0 0 0 0   0 0 0 0 0  0 0 0 0.204257246 0"/></filter></defs><g fill="none" fill-rule="evenodd"><use fill="#000" filter="url(#c)" xlink:href="#b"/><use fill="#26a17b" xlink:href="#b"/><use fill="url(#a)" xlink:href="#b"/><circle cx="16" cy="15" r="14.5" stroke="#000" stroke-opacity=".097"/><use fill="#000" filter="url(#e)" xlink:href="#d"/><use fill="#fff" xlink:href="#d"/></g></svg>