<svg width="32" height="32" viewBox="0 0 32 32" xmlns="http://www.w3.org/2000/svg" xmlns:xlink="http://www.w3.org/1999/xlink"><defs><linearGradient x1="50%" y1="0%" x2="50%" y2="100%" id="c"><stop stop-color="#FFF" stop-opacity=".5" offset="0%"/><stop stop-opacity=".5" offset="100%"/></linearGradient><filter x="-5.8%" y="-4.2%" width="111.7%" height="111.7%" filterUnits="objectBoundingBox" id="a"><feOffset dy=".5" in="SourceAlpha" result="shadowOffsetOuter1"/><feGaussianBlur stdDeviation=".5" in="shadowOffsetOuter1" result="shadowBlurOuter1"/><feComposite in="shadowBlurOuter1" in2="SourceAlpha" operator="out" result="shadowBlurOuter1"/><feColorMatrix values="0 0 0 0 0 0 0 0 0 0 0 0 0 0 0 0 0 0 0.199473505 0" in="shadowBlurOuter1"/></filter><circle id="b" cx="16" cy="15" r="15"/></defs><g fill="none" fill-rule="evenodd"><use fill="#000" filter="url(#a)" xlink:href="#b"/><use fill="#3165D4" xlink:href="#b"/><use fill="url(#c)" style="mix-blend-mode:soft-light" xlink:href="#b"/><circle stroke-opacity=".097" stroke="#000" stroke-linejoin="square" cx="16" cy="15" r="14.5"/><path d="M8.846 6.428c.551-.473 1.324-.86 1.996-.587 1.21.49 4.456 7.044 4.456 7.044s4.543-6.46 6.174-7.048c.557-.201 1.32.152 1.902.588 2.042 1.528 2.253 3.66 2.077 4.252-.222.744-11.505 15.073-11.505 15.073-.338-.138-7.023-12.557-7.385-14.682-.346-2.031.832-3.411 2.285-4.64z" fill="#FFF"/></g></svg>