<svg width="32" height="32" viewBox="0 0 32 32" version="1.1" xmlns="http://www.w3.org/2000/svg" xmlns:xlink="http://www.w3.org/1999/xlink"><title>icon/vrsc</title><desc>Created with Sketch.</desc><defs><linearGradient x1="50%" y1="0%" x2="50%" y2="100%" id="linearGradient-1"><stop stop-color="#FFF" stop-opacity=".5" offset="0%"/><stop stop-color="#000" stop-opacity=".5" offset="100%"/></linearGradient><circle id="path-2" cx="15" cy="15" r="15"/><filter x="-5.8%" y="-4.2%" width="111.7%" height="111.7%" filterUnits="objectBoundingBox" id="filter-3"><feOffset dx="0" dy=".5" in="SourceAlpha" result="shadowOffsetOuter1"/><feGaussianBlur stdDeviation=".5" in="shadowOffsetOuter1" result="shadowBlurOuter1"/><feComposite in="shadowBlurOuter1" in2="SourceAlpha" operator="out" result="shadowBlurOuter1"/><feColorMatrix values="0 0 0 0 0 0 0 0 0 0 0 0 0 0 0 0 0 0 0.199473505 0" type="matrix" in="shadowBlurOuter1"/></filter></defs><g id="icon/vrsc" stroke="none" stroke-width="1" fill="none" fill-rule="evenodd"><g id="Group" transform="translate(1.000000, 0.000000)" fill-rule="nonzero"><g id="Oval"><use fill="#000" fill-opacity="1" filter="url(#filter-3)" xlink:href="#path-2"/><use fill="#FFB500" fill-rule="evenodd" xlink:href="#path-2"/><use fill="url(#linearGradient-1)" fill-rule="evenodd" style="mix-blend-mode:soft-light" xlink:href="#path-2"/><circle stroke-opacity=".097" stroke="#000" stroke-width="1" stroke-linejoin="square" cx="15" cy="15" r="14.5"/></g></g><g id="VerusCoin-(VRSC)" transform="translate(5.000000, 4.000000)" fill="#FFF" fill-rule="nonzero"><path d="M21.9060976,9.6495935 C21.646748,7.52560976 20.7479675,5.48658537 19.3573171,3.86341463 C18.3869919,2.71422764 17.1662602,1.7796748 15.8158537,1.12235772 C14.004878,0.232520325 11.9479675,-0.134146341 9.9402439,0.062601626 C7.58821138,0.286178862 5.31666667,1.29227642 3.57723577,2.89756098 C2.55772358,3.82317073 1.72154472,4.95447154 1.11788618,6.19308943 C0.138617886,8.19634146 -0.205691057,10.5036585 0.143089431,12.7036585 C0.469512195,14.8097561 1.42642276,16.8130081 2.86626016,18.3869919 C4.92317073,20.6808943 7.99065041,22.0223577 11.0715447,21.9865854 C13.4593496,21.9776423 15.8337398,21.1593496 17.7207317,19.6926829 C19.0577236,18.6642276 20.1443089,17.3227642 20.8821138,15.8069106 C21.8077236,13.9154472 22.1699187,11.746748 21.9060976,9.6495935 Z M18.5569106,7.27520325 C18.5077236,7.34674797 18.4630081,7.41829268 18.4272358,7.49878049 C16.8130081,10.8971545 15.203252,14.2910569 13.5890244,17.6894309 C13.3565041,18.1768293 13.1239837,18.6686992 12.8601626,19.1382114 C11.6617886,19.1292683 10.4634146,19.1337398 9.26504065,19.1337398 C7.35569106,15.203252 5.45528455,11.2682927 3.54146341,7.34227642 C3.50121951,7.26626016 3.46097561,7.18577236 3.42073171,7.1097561 C3.45203252,7.08739837 3.52357724,7.04715447 3.55487805,7.02926829 C4.30162602,6.09918699 5.05731707,5.17357724 5.80853659,4.24349593 C5.90243902,4.12276423 6.0097561,4.00650407 6.11707317,3.89918699 C6.16626016,3.9796748 6.21544715,4.0601626 6.25569106,4.1495935 C6.67154472,5.10650407 7.09634146,6.06788618 7.52113821,7.02479675 C7.9504065,7.02479675 8.3796748,7.03373984 8.81341463,7.00691057 C8.9699187,7.15447154 9.05487805,7.35121951 9.11747967,7.55243902 C9.19796748,7.34674797 9.22926829,7.12764228 9.23821138,6.90406504 C9.37682927,5.62073171 9.39918699,4.32398374 9.53780488,3.04065041 C9.5601626,2.76341463 9.97601626,2.76341463 10.0117886,3.03170732 C10.145935,4.24796748 10.1772358,5.47764228 10.2756098,6.69837398 C10.2934959,7.06504065 10.3069106,7.43170732 10.3873984,7.78943089 C10.5707317,7.54796748 10.5126016,7.12317073 10.8479675,7.02479675 C11.1252033,6.93089431 11.4382114,7.08739837 11.7020325,6.92195122 C12.0642276,6.70284553 12.198374,6.27357724 12.4264228,5.93821138 C12.5560976,5.71910569 12.8556911,5.56260163 13.0971545,5.68780488 C13.3386179,5.78170732 13.4414634,6.04105691 13.5666667,6.24674797 C13.7097561,6.48373984 13.8394309,6.74756098 14.0719512,6.90406504 C14.2776423,6.99349593 14.5101626,7.00691057 14.7337398,7.00243902 C15.1853659,5.98292683 15.6504065,4.96788618 16.1109756,3.95284553 C16.9158537,4.96341463 17.6760163,6.00528455 18.4808943,7.01585366 C18.601626,7.0695122 18.6239837,7.15894309 18.5569106,7.27520325 Z" id="Shape"/><path d="M12.9004065,5.99634146 C12.5382114,6.3898374 12.4085366,7.02479675 11.8674797,7.22601626 C11.5902439,7.3601626 11.254878,7.24837398 10.9776423,7.35121951 C10.7361789,7.82520325 10.7674797,8.38414634 10.5841463,8.87601626 C10.4589431,9.10853659 10.0833333,8.99227642 10.0833333,8.73739837 C9.92682927,7.4004065 9.91341463,6.05 9.7703252,4.71300813 C9.61829268,5.91585366 9.57804878,7.13211382 9.3902439,8.32601626 C9.3902439,8.63455285 8.90284553,8.68373984 8.85813008,8.37520325 C8.76422764,8.02642276 8.74186992,7.6597561 8.56747967,7.33333333 C8.26341463,7.32886179 7.95934959,7.32886179 7.6597561,7.33333333 C8.8,9.91788618 9.93130081,12.502439 11.0715447,15.0869919 C12.2252033,12.502439 13.4191057,9.93577236 14.5638211,7.34674797 L14.5682927,7.33780488 C14.2686992,7.30203252 13.9422764,7.27073171 13.6918699,7.08292683 C13.3430894,6.79227642 13.2089431,6.32723577 12.9004065,5.99634146 Z" id="Shape"/></g></g></svg>