<svg xmlns="http://www.w3.org/2000/svg" xmlns:xlink="http://www.w3.org/1999/xlink" width="32" height="32" viewBox="0 0 32 32"><defs><linearGradient id="vtc-c" x1="50%" x2="50%" y1="0%" y2="100%"><stop offset="0%" stop-color="#FFF" stop-opacity=".5"/><stop offset="100%" stop-opacity=".5"/></linearGradient><circle id="vtc-b" cx="16" cy="15" r="15"/><filter id="vtc-a" width="111.7%" height="111.7%" x="-5.8%" y="-4.2%" filterUnits="objectBoundingBox"><feOffset dy=".5" in="SourceAlpha" result="shadowOffsetOuter1"/><feGaussianBlur in="shadowOffsetOuter1" result="shadowBlurOuter1" stdDeviation=".5"/><feComposite in="shadowBlurOuter1" in2="SourceAlpha" operator="out" result="shadowBlurOuter1"/><feColorMatrix in="shadowBlurOuter1" values="0 0 0 0 0 0 0 0 0 0 0 0 0 0 0 0 0 0 0.199473505 0"/></filter><path id="vtc-e" d="M3.46749725,15.533857 L5.29555501,13.4521193 L11.8001785,13.4521193 L15.7962589,18.5502525 L26.2544497,4.06305758 C26.8772556,4.62158011 27.4582663,5.25884674 27.9974815,5.97485747 C28.5366968,6.69086821 29.0043396,7.45558818 29.4004096,8.26901735 L16.5614923,26.0275142 C16.318874,26.2824209 16.0637962,26.4098742 15.7962589,26.4098742 C15.5287215,26.4098742 15.2594727,26.2824209 14.9885124,26.0275142 L6.86853493,15.533857 L3.46749725,15.533857 Z"/><filter id="vtc-d" width="113.5%" height="115.7%" x="-6.7%" y="-5.6%" filterUnits="objectBoundingBox"><feOffset dy=".5" in="SourceAlpha" result="shadowOffsetOuter1"/><feGaussianBlur in="shadowOffsetOuter1" result="shadowBlurOuter1" stdDeviation=".5"/><feColorMatrix in="shadowBlurOuter1" values="0 0 0 0 0 0 0 0 0 0 0 0 0 0 0 0 0 0 0.204257246 0"/></filter></defs><g fill="none" fill-rule="evenodd"><use fill="#000" filter="url(#vtc-a)" xlink:href="#vtc-b"/><use fill="#048657" xlink:href="#vtc-b"/><use fill="url(#vtc-c)" style="mix-blend-mode:soft-light" xlink:href="#vtc-b"/><circle cx="16" cy="15" r="14.5" stroke="#000" stroke-opacity=".097"/><g fill-rule="nonzero"><use fill="#000" filter="url(#vtc-d)" xlink:href="#vtc-e"/><use fill="#FFF" fill-rule="evenodd" xlink:href="#vtc-e"/></g></g></svg>