<svg xmlns="http://www.w3.org/2000/svg" xmlns:xlink="http://www.w3.org/1999/xlink" width="32" height="32" viewBox="0 0 32 32">
  <defs>
    <linearGradient id="waves-c" x1="50%" x2="50%" y1="0%" y2="100%">
      <stop offset="0%" stop-color="#FFF" stop-opacity=".5"/>
      <stop offset="100%" stop-opacity=".5"/>
    </linearGradient>
    <circle id="waves-b" cx="16" cy="15" r="15"/>
    <filter id="waves-a" width="111.7%" height="111.7%" x="-5.8%" y="-4.2%" filterUnits="objectBoundingBox">
      <feOffset dy=".5" in="SourceAlpha" result="shadowOffsetOuter1"/>
      <feGaussianBlur in="shadowOffsetOuter1" result="shadowBlurOuter1" stdDeviation=".5"/>
      <feComposite in="shadowBlurOuter1" in2="SourceAlpha" operator="out" result="shadowBlurOuter1"/>
      <feColorMatrix in="shadowBlurOuter1" values="0 0 0 0 0   0 0 0 0 0   0 0 0 0 0  0 0 0 0.199473505 0"/>
    </filter>
    <path id="waves-e" d="M22.5197925,10.6178653 C22.8057657,10.9046129 22.8057657,11.3722434 22.5197925,11.6590635 L21.0284709,13.1544238 L20.0287923,14.0816471 C19.7325645,14.3567366 19.2790514,14.3567366 18.9827513,14.0816471 L16.9835385,12.2272005 C16.4344121,11.7174992 15.5900689,11.7174992 15.0407981,12.2271281 L13.0416575,14.0816471 C12.7454297,14.3567366 12.2919888,14.3567366 11.9955443,14.0816471 L10.9960823,13.1543514 L9.49450621,11.6487087 C9.20853298,11.3620334 9.20853298,10.8943306 9.49450621,10.6075829 L14.4443706,5.64431338 C15.3011349,4.78522887 16.7029814,4.78522887 17.5596734,5.64431338 L22.5197925,10.6178653 Z M6.67145937,16.562087 C5.26361893,15.1504339 6.34908954,14.7103197 7.38220394,13.7518148 L8.5019769,12.7130061 C8.79834915,12.4382062 9.25164561,12.4381338 9.54809008,12.7130061 L11.5471585,14.5675975 C12.0965015,15.0772988 12.9407003,15.0772988 13.4901877,14.5675975 L15.4891839,12.7130061 C15.785484,12.4381338 16.2389971,12.4381338 16.5352249,12.7130061 L18.5344377,14.5675975 C19.0837086,15.0772988 19.9279795,15.0772988 20.4773225,14.5675975 L22.4763187,12.7130061 C22.7727632,12.4381338 23.2293816,12.4346581 23.5225041,12.7130061 L24.7420789,13.8714378 C25.7303475,14.8102469 26.6796919,15.2106799 25.3322958,16.5616526 L17.5593846,24.3556866 C16.7025481,25.2147711 15.3007016,25.2147711 14.4440095,24.3556866 L6.67145937,16.562087 Z"/>
    <filter id="waves-d" width="117.5%" height="117.5%" x="-8.8%" y="-6.3%" filterUnits="objectBoundingBox">
      <feOffset dy=".5" in="SourceAlpha" result="shadowOffsetOuter1"/>
      <feGaussianBlur in="shadowOffsetOuter1" result="shadowBlurOuter1" stdDeviation=".5"/>
      <feComposite in="shadowBlurOuter1" in2="SourceAlpha" operator="out" result="shadowBlurOuter1"/>
      <feColorMatrix in="shadowBlurOuter1" values="0 0 0 0 0   0 0 0 0 0   0 0 0 0 0  0 0 0 0.204257246 0"/>
    </filter>
  </defs>
  <g fill="none" fill-rule="evenodd">
    <use fill="#000" filter="url(#waves-a)" xlink:href="#waves-b"/>
    <use fill="#0096DC" xlink:href="#waves-b"/>
    <use fill="url(#waves-c)" style="mix-blend-mode:soft-light" xlink:href="#waves-b"/>
    <circle cx="16" cy="15" r="14.5" stroke="#000" stroke-opacity=".097"/>
    <g fill="#FFF" transform="translate(6 5)">
      <path d="M16.5197925,5.61786525 L11.5596734,0.64431338 C10.7029814,-0.214771127 9.30113487,-0.214771127 8.44437062,0.64431338 L3.49450621,5.60758288 C3.20853298,5.89433058 3.20853298,6.36203345 3.49450621,6.64870873 L4.99608231,8.15435136 L5.99554431,9.08164706 C6.29198878,9.35673658 6.74542966,9.35673658 7.04165749,9.08164706 L9.04079813,7.22712807 C9.59006893,6.71749921 10.4344121,6.71749921 10.9835385,7.22720048 L12.9827513,9.08164706 C13.2790514,9.35673658 13.7325645,9.35673658 14.0287923,9.08164706 L15.0284709,8.15442377 L16.5197925,6.65906351 C16.8057657,6.3722434 16.8057657,5.90461294 16.5197925,5.61786525 Z"/>
      <path d="M0.671459366,11.562087 L8.44400955,19.3556866 C9.30070157,20.2147711 10.7025481,20.2147711 11.5593846,19.3556866 L19.3322958,11.5616526 C20.6796919,10.2106799 19.7303475,9.81024689 18.7420789,8.87143783 L17.5225041,7.71300611 C17.2293816,7.43465809 16.7727632,7.43813382 16.4763187,7.71300611 L14.4773225,9.56759751 C13.9279795,10.0772988 13.0837086,10.0772988 12.5344377,9.56759751 L10.5352249,7.71300611 C10.2389971,7.43813382 9.78548397,7.43813382 9.48918393,7.71300611 L7.49018772,9.56759751 C6.94070027,10.0772988 6.09650152,10.0772988 5.5471585,9.56759751 L3.54809008,7.71300611 C3.25164561,7.43813382 2.79834915,7.43820623 2.5019769,7.71300611 L1.38220394,8.7518148 C0.349089544,9.71031966 -0.736381067,10.1504339 0.671459366,11.562087 Z" opacity=".7"/>
    </g>
    <g>
      <use fill="#000" filter="url(#waves-d)" xlink:href="#waves-e"/>
      <use fill="#FFF" fill-opacity="0" xlink:href="#waves-e"/>
    </g>
  </g>
</svg>
