<svg height="32" viewBox="0 0 32 32" width="32" xmlns="http://www.w3.org/2000/svg" xmlns:xlink="http://www.w3.org/1999/xlink"><defs><linearGradient id="a" x1="50%" x2="50%" y1="0%" y2="100%"><stop offset="0" stop-color="#fff" stop-opacity=".5"/><stop offset="1" stop-opacity=".5"/></linearGradient><circle id="b" cx="16" cy="15" r="15"/><filter id="c" height="111.7%" width="111.7%" x="-5.8%" y="-4.2%"><feOffset dy=".5" in="SourceAlpha" result="shadowOffsetOuter1"/><feGaussianBlur in="shadowOffsetOuter1" result="shadowBlurOuter1" stdDeviation=".5"/><feComposite in="shadowBlurOuter1" in2="SourceAlpha" operator="out" result="shadowBlurOuter1"/><feColorMatrix in="shadowBlurOuter1" values="0 0 0 0 0   0 0 0 0 0   0 0 0 0 0  0 0 0 0.199473505 0"/></filter><filter id="d" height="126.9%" width="117.5%" x="-8.8%" y="-9.6%"><feOffset dy=".5" in="SourceAlpha" result="shadowOffsetOuter1"/><feGaussianBlur in="shadowOffsetOuter1" result="shadowBlurOuter1" stdDeviation=".5"/><feColorMatrix in="shadowBlurOuter1" result="shadowMatrixOuter1" values="0 0 0 0 0   0 0 0 0 0   0 0 0 0 0  0 0 0 0.204257246 0"/><feMerge><feMergeNode in="shadowMatrixOuter1"/><feMergeNode in="SourceGraphic"/></feMerge></filter></defs><g fill="none" fill-rule="evenodd"><g fill-rule="nonzero"><use fill="#000" filter="url(#c)" xlink:href="#b"/><use fill="#8200ff" fill-rule="evenodd" xlink:href="#b"/><use fill="url(#a)" fill-rule="evenodd" xlink:href="#b"/><circle cx="16" cy="15" r="14.5" stroke="#000" stroke-opacity=".097"/></g><g fill="#fff" filter="url(#d)" transform="translate(6 9)"><path d="m12.4137931 3.16638383-.6793595.16631073c-.6140234.15031613-1.0447784.69055305-1.0447784 1.31032233v4.5376575l-2.24652718.54996151c-.36951373.09045888-.74395131-.12953535-.83632974-.49137087-.01367597-.05356716-.02059138-.10857453-.02059138-.1637903v-7.55583446c0-.30988464.2153775-.5800031.52238922-.65516117l3.44827588-.84415584c.3695137-.09045888.7439513.12953535.8363297.49137087.013676.05356717.0205914.10857453.0205914.1637903zm-7.58620689-.0422078-.85177328.20851853c-.61402345.15031613-1.04477845.69055305-1.04477845 1.31032233v4.57986529l-2.07411336.50775372c-.36951373.09045888-.74395131-.12953535-.83632974-.49137087-.01367597-.05356716-.02059138-.10857453-.02059138-.1637903v-7.55583446c0-.30988464.2153775-.5800031.52238922-.65516117l3.44827587-.84415584c.36951373-.09045888.74395131.12953535.83632974.49137087.01367596.05356717.02059138.10857453.02059138.1637903zm10.86721679-2.23907261 3.4482759-.84415585c.3695137-.09045888.7439513.12953536.8363297.49137088.013676.05356716.0205914.10857453.0205914.16379029v7.55583447c0 .30988464-.2153775.5800031-.5223892.65516116l-3.4482759.84415585c-.3695137.09045888-.7439513-.12953536-.8363297-.49137088-.013676-.05356716-.0205914-.10857452-.0205914-.16379029v-7.55583446c0-.30988465.2153775-.58000311.5223892-.65516117z"/><path d="m6.89655172 3.31379127v5.76168346c0 .11043154.01383083.22044627.04118276.32758059.17124148.67073288.82708688 1.09776908 1.51054138 1.01260948v.9390307c0 .3098847-.2153775.5800031-.52238922.6551612l-3.44827586.8441558c-.36951373.0904589-.74395131-.1295353-.83632975-.4913709-.01367596-.0535671-.02059137-.1085745-.02059137-.1637902v-7.55583451c0-.30988464.21537749-.5800031.52238922-.65516117zm7.58620688.04220779v5.74009999c0 .11043153.0138308.22044626.0411828.32758058.1847568.72367107.933632 1.16365947 1.6726595.98274177l.0102957-.0025205v.9507946c0 .3098847-.2153775.5800031-.5223893.6551612l-3.4482758.8441558c-.3695138.0904589-.7439513-.1295353-.8363298-.4913709-.0136759-.0535671-.0205914-.1085745-.0205914-.1637902v-7.55583451c0-.30988464.2153775-.5800031.5223893-.65516117z" opacity=".504"/></g></g></svg>