<?xml version="1.0" encoding="UTF-8"?>
<svg width="32px" height="32px" viewBox="0 0 32 32" version="1.1" xmlns="http://www.w3.org/2000/svg" xmlns:xlink="http://www.w3.org/1999/xlink">
    <!-- Generator: Sketch 52.4 (67378) - http://www.bohemiancoding.com/sketch -->
    <title>svg/icon/x</title>
    <desc>Created with Sketch.</desc>
    <defs>
        <linearGradient x1="50%" y1="0%" x2="50%" y2="100%" id="linearGradient-1">
            <stop stop-color="#FFFFFF" stop-opacity="0.5" offset="0%"></stop>
            <stop stop-color="#000000" stop-opacity="0.5" offset="100%"></stop>
        </linearGradient>
        <circle id="path-2" cx="15" cy="15" r="15"></circle>
        <filter x="-5.8%" y="-4.2%" width="111.7%" height="111.7%" filterUnits="objectBoundingBox" id="filter-3">
            <feOffset dx="0" dy="0.5" in="SourceAlpha" result="shadowOffsetOuter1"></feOffset>
            <feGaussianBlur stdDeviation="0.5" in="shadowOffsetOuter1" result="shadowBlurOuter1"></feGaussianBlur>
            <feComposite in="shadowBlurOuter1" in2="SourceAlpha" operator="out" result="shadowBlurOuter1"></feComposite>
            <feColorMatrix values="0 0 0 0 0   0 0 0 0 0   0 0 0 0 0  0 0 0 0.199473505 0" type="matrix" in="shadowBlurOuter1"></feColorMatrix>
        </filter>
    </defs>
    <g id="icon/x" stroke="none" stroke-width="1" fill="none" fill-rule="evenodd">
        <g id="Group" transform="translate(1.000000, 0.000000)" fill-rule="nonzero">
            <g id="Oval">
                <use fill="black" fill-opacity="1" filter="url(#filter-3)" xlink:href="#path-2"></use>
                <use fill="#3B5998" xlink:href="#path-2"></use>
                <use fill="url(#linearGradient-1)" style="mix-blend-mode: soft-light;" xlink:href="#path-2"></use>
                <circle stroke-opacity="0.0970052083" stroke="#000000" stroke-width="1" stroke-linejoin="square" cx="15" cy="15" r="14.5"></circle>
            </g>
        </g>
        <g id="x-copy" transform="translate(7.000000, 6.000000)" fill="#FFFFFF">
            <polygon id="Path" points="7.30420168 0.00840336134 8.99663866 0.00840336134 8.99663866 5.30252101 7.30420168 3.53613445"></polygon>
            <path d="M0.0100840336,1.79327731 L4.46386555,1.79327731 C5.97310924,3.37310924 7.48907563,4.94957983 8.99831933,6.53277311 C9.87226891,5.62521008 10.7428571,4.71092437 11.6134454,3.8 C12.2571429,3.13277311 12.897479,2.46218487 13.5394958,1.79327731 L17.9831933,1.79327731 C15.9092437,3.88907563 13.8386555,5.98823529 11.7647059,8.08403361 C11.5462185,8.30252101 11.3277311,8.52268908 11.1142857,8.74453782 C11.1663866,8.8 11.2218487,8.85546218 11.2689076,8.91428571 L17.3630252,15.0756303 L17.9848739,15.702521 L14.5378151,15.702521 C14.4487395,15.702521 14.3596639,15.707563 14.2722689,15.6957983 C14.0268908,15.6890756 13.7798319,15.6991597 13.5344538,15.6907563 C13.0890756,15.2302521 12.6487395,14.7647059 12.2033613,14.302521 C11.3277311,13.3915966 10.4554622,12.4756303 9.57983193,11.5630252 C9.38487395,11.3613445 9.19495798,11.1546218 8.99663866,10.9579832 C8.57310924,11.4084034 8.1394958,11.8521008 7.71428571,12.302521 L5.30420168,14.8168067 C5.02352941,15.1092437 4.74621849,15.4033613 4.46386555,15.6907563 C4.22016807,15.697479 3.97647059,15.6907563 3.73109244,15.6941176 C3.59159664,15.7109244 3.45042017,15.6991597 3.31092437,15.702521 L0.0100840336,15.702521 L6.5512605,9.08739496 C6.66386555,8.97478992 6.77478992,8.8605042 6.88403361,8.74453782 L0.0100840336,1.79327731 Z" id="Path"></path>
            <path d="M9,12.1781513 C9.56302521,12.7747899 10.1344538,13.3647059 10.6991597,13.9596639 C10.702521,15.1361345 10.6991597,16.3109244 10.6991597,17.487395 L8.99831933,17.487395 C8.99831933,15.7176471 8.99831933,13.9478992 9.00168067,12.1781513 L9,12.1781513 Z" id="Path"></path>
        </g>
    </g>
</svg>