<?xml version="1.0" encoding="UTF-8"?>
<svg width="32px" height="32px" viewBox="0 0 32 32" version="1.1" xmlns="http://www.w3.org/2000/svg" xmlns:xlink="http://www.w3.org/1999/xlink">
    <!-- Generator: Sketch 53 (72520) - https://sketchapp.com -->
    <title>svg/icon/xbp</title>
    <desc>Created with Sketch.</desc>
    <defs>
        <linearGradient x1="50%" y1="0%" x2="50%" y2="100%" id="linearGradient-1">
            <stop stop-color="#FFFFFF" stop-opacity="0.5" offset="0%"></stop>
            <stop stop-color="#000000" stop-opacity="0.5" offset="100%"></stop>
        </linearGradient>
        <circle id="path-2" cx="15" cy="15" r="15"></circle>
        <filter x="-5.8%" y="-4.2%" width="111.7%" height="111.7%" filterUnits="objectBoundingBox" id="filter-3">
            <feOffset dx="0" dy="0.5" in="SourceAlpha" result="shadowOffsetOuter1"></feOffset>
            <feGaussianBlur stdDeviation="0.5" in="shadowOffsetOuter1" result="shadowBlurOuter1"></feGaussianBlur>
            <feComposite in="shadowBlurOuter1" in2="SourceAlpha" operator="out" result="shadowBlurOuter1"></feComposite>
            <feColorMatrix values="0 0 0 0 0   0 0 0 0 0   0 0 0 0 0  0 0 0 0.199473505 0" type="matrix" in="shadowBlurOuter1"></feColorMatrix>
        </filter>
    </defs>
    <g id="icon/xbp" stroke="none" stroke-width="1" fill="none" fill-rule="evenodd">
        <g id="Group" transform="translate(1.000000, 0.000000)" fill-rule="nonzero">
            <g id="Oval">
                <use fill="black" fill-opacity="1" filter="url(#filter-3)" xlink:href="#path-2"></use>
                <use fill="#21AF67" xlink:href="#path-2"></use>
                <use fill="url(#linearGradient-1)" style="mix-blend-mode: soft-light;" xlink:href="#path-2"></use>
                <circle stroke-opacity="0.0970052083" stroke="#000000" stroke-width="1" stroke-linejoin="square" cx="15" cy="15" r="14.5"></circle>
            </g>
        </g>
        <g id="xbp" transform="translate(5.000000, 4.000000)" fill="#FFFFFF" fill-rule="nonzero">
            <path d="M11,22 C4.92486775,22 0,17.0751322 0,11 C0,4.92486775 4.92486775,0 11,0 C17.0751322,0 22,4.92486775 22,11 C22,17.0751322 17.0751322,22 11,22 Z M15.2290286,7.0136 C15.0674857,6.7936 14.8041143,6.61445714 14.4433143,6.47554286 C14.0825143,6.33662857 13.5865714,6.26685714 12.958,6.26685714 L11.6285714,6.26685714 L12.7078286,3.30188571 L13.4275429,1.32502857 C12.7042101,1.14436827 11.9628821,1.04548237 11.2174857,1.03022857 C11.1445714,1.03022857 11.0722857,1.02457143 10.9987429,1.02457143 C10.8856,1.02457143 10.7730857,1.0296 10.6612,1.03337143 C5.31771429,1.21251429 1.02457143,5.61314286 1.02457143,11 C1.0243096,13.8715558 2.26447027,16.6032549 4.4264,18.4932 L5.20771429,16.3428571 C3.86090326,14.8896775 3.11282733,12.9813205 3.11331429,11 C3.11331429,7.03308571 6.05754286,3.74251429 9.87548571,3.19502857 C10.0640571,3.16737143 10.2589143,3.14788571 10.4531429,3.13217143 L7.57302857,11.0471429 L13.3188,10.4814286 C13.3157712,10.4799032 13.3126167,10.4786414 13.3093714,10.4776571 C13.4882934,10.4201091 13.6604736,10.3433973 13.8229143,10.2488571 C14.0233335,10.134168 14.212712,10.0011822 14.3886286,9.8516 C14.5812847,9.68930308 14.7559789,9.50681189 14.9097143,9.30725714 C15.0730743,9.09548416 15.2022409,8.85942092 15.2925143,8.60765714 C15.3939692,8.33824587 15.4514829,8.05428488 15.4628571,7.76662857 C15.4743055,7.49613602 15.3916758,7.2300328 15.2290286,7.0136 Z M12.7776,8.94331429 C12.6518857,9.284 12.4570286,9.52411429 12.1861143,9.66302857 C11.9328584,9.797777 11.6508055,9.86936842 11.3639429,9.87171429 L10.3280571,9.87171429 L11.0232571,7.96148571 L12.0591429,7.96148571 C12.1826186,7.96119876 12.3056025,7.97704721 12.4249714,8.00862857 C12.5341774,8.03490026 12.6350836,8.08805432 12.7185143,8.16325714 C12.7999738,8.24409778 12.849333,8.35175011 12.8574286,8.46622857 C12.8678168,8.62927773 12.8405009,8.79252826 12.7776,8.94331429 Z M13.9335429,1.4652 L13.2169714,3.43262857 C16.0254367,4.25337873 18.148627,6.56161357 18.7323801,9.42872718 C19.3161332,12.2958408 18.2644808,15.2504833 16.000504,17.1039982 C13.7365272,18.957513 10.632421,19.4051847 7.93697143,18.2669143 C7.77542857,18.1984 7.61765714,18.1229714 7.46177143,18.0444 L8.27891429,15.8035429 L9.60708571,15.8035429 C10.8089143,15.8035429 11.7955619,15.5994667 12.5670286,15.1913143 C13.3384952,14.7831619 13.8876571,14.1309143 14.2145143,13.2345714 C14.3352,12.9026857 14.3792,12.6110286 14.344,12.3602286 C14.317715,12.1315057 14.2420036,11.911235 14.1221143,11.7146857 C14.0144338,11.5420854 13.8705207,11.3949552 13.7003429,11.2834857 C13.5673803,11.1974472 13.4263292,11.1246059 13.2792,11.066 L7.48,11.638 L5.61502857,16.7539429 L4.8532,18.8477143 C5.43783449,19.3071575 6.07177229,19.7001272 6.74331429,20.0193714 C6.90129524,20.0935429 7.06095238,20.1637333 7.22228571,20.2299429 C8.42074672,20.7227901 9.70415786,20.9760556 11,20.9754286 C16.5006286,20.9754286 20.9754286,16.5006286 20.9754286,11 C20.9754286,6.52017143 18.0066857,2.72108571 13.9335429,1.4652 Z M9.68,11.9837143 L10.8906286,11.9837143 C11.0348623,11.9847263 11.1787288,11.9983979 11.3205714,12.0245714 C11.4589834,12.0467588 11.5913932,12.0970275 11.7096571,12.1722857 C11.8195882,12.2462341 11.8983713,12.3581418 11.9309143,12.4865714 C11.9698857,12.6252762 11.9489333,12.8067238 11.8680571,13.0309143 C11.7958527,13.2463896 11.6781648,13.4438223 11.5229714,13.6098286 C11.393126,13.744673 11.2392028,13.8540395 11.0691429,13.9322857 C10.9119941,14.0032109 10.7453476,14.0508545 10.5744571,14.0737143 C10.4232364,14.0947988 10.2707939,14.1059275 10.1181143,14.1070286 L8.90497143,14.1070286 L9.68,11.9837143 Z" id="Combined-Shape"></path>
        </g>
    </g>
</svg>