<svg width="32" height="32" viewBox="0 0 32 32" xmlns="http://www.w3.org/2000/svg" xmlns:xlink="http://www.w3.org/1999/xlink"><defs><linearGradient x1="50%" y1="0%" x2="50%" y2="100%" id="c"><stop stop-color="#FFF" stop-opacity=".5" offset="0%"/><stop stop-opacity=".5" offset="100%"/></linearGradient><filter x="-5.8%" y="-4.2%" width="111.7%" height="111.7%" filterUnits="objectBoundingBox" id="a"><feOffset dy=".5" in="SourceAlpha" result="shadowOffsetOuter1"/><feGaussianBlur stdDeviation=".5" in="shadowOffsetOuter1" result="shadowBlurOuter1"/><feComposite in="shadowBlurOuter1" in2="SourceAlpha" operator="out" result="shadowBlurOuter1"/><feColorMatrix values="0 0 0 0 0 0 0 0 0 0 0 0 0 0 0 0 0 0 0.199473505 0" in="shadowBlurOuter1"/></filter><circle id="b" cx="15" cy="15" r="15"/></defs><g fill="none"><g transform="translate(1)"><use fill="#000" filter="url(#a)" xlink:href="#b"/><use fill="#21AF67" xlink:href="#b"/><use fill="url(#c)" style="mix-blend-mode:soft-light" xlink:href="#b"/><circle stroke-opacity=".097" stroke="#000" stroke-linejoin="square" cx="15" cy="15" r="14.5"/></g><path d="M16 26C9.925 26 5 21.075 5 15S9.925 4 16 4s11 4.925 11 11-4.925 11-11 11zm4.229-14.986c-.162-.22-.425-.4-.786-.538-.36-.14-.856-.21-1.485-.21h-1.33l1.08-2.964.72-1.977a9.962 9.962 0 00-2.21-.295c-.073 0-.146-.005-.22-.005-.112 0-.225.005-.337.008-5.343.18-9.636 4.58-9.636 9.967a9.952 9.952 0 003.401 7.493l.782-2.15A7.857 7.857 0 018.113 15c0-3.967 2.945-7.257 6.762-7.805.19-.028.384-.047.578-.063l-2.88 7.915 5.746-.566a.06.06 0 00-.01-.003 2.61 2.61 0 00.514-.23 3.744 3.744 0 001.087-.94 2.56 2.56 0 00.383-.7c.101-.27.158-.554.17-.841a1.171 1.171 0 00-.234-.753zm-2.451 1.93c-.126.34-.321.58-.592.719a1.781 1.781 0 01-.822.209h-1.036l.695-1.91h1.036c.124 0 .247.015.366.047.11.026.21.08.294.154.081.081.13.189.138.303.01.163-.016.327-.08.477zm1.156-7.479l-.717 1.968a7.886 7.886 0 11-5.28 14.834 7.978 7.978 0 01-.475-.223l.817-2.24h1.328c1.202 0 2.189-.205 2.96-.613.771-.408 1.32-1.06 1.648-1.956.12-.332.164-.624.129-.875a1.588 1.588 0 00-.222-.645 1.404 1.404 0 00-.422-.432 2.431 2.431 0 00-.42-.217l-5.8.572-1.865 5.116-.762 2.094a10.024 10.024 0 002.37 1.382 9.92 9.92 0 003.777.745c5.5 0 9.975-4.474 9.975-9.975 0-4.48-2.968-8.279-7.041-9.535zM14.68 15.984h1.21c.145 0 .289.014.43.04.139.023.271.073.39.148.11.074.188.186.22.315.04.138.019.32-.062.544a1.59 1.59 0 01-.345.579c-.13.135-.284.244-.454.322a1.777 1.777 0 01-.495.142 3.487 3.487 0 01-.456.033h-1.213l.775-2.123z" fill="#FFF"/></g></svg>