<svg height="32" viewBox="0 0 32 32" width="32" xmlns="http://www.w3.org/2000/svg" xmlns:xlink="http://www.w3.org/1999/xlink"><defs><linearGradient id="a" x1="50%" x2="50%" y1="0%" y2="100%"><stop offset="0" stop-color="#fff" stop-opacity=".5"/><stop offset="1" stop-opacity=".5"/></linearGradient><circle id="b" cx="16" cy="15" r="15"/><filter id="c" height="111.7%" width="111.7%" x="-5.8%" y="-4.2%"><feOffset dy=".5" in="SourceAlpha" result="shadowOffsetOuter1"/><feGaussianBlur in="shadowOffsetOuter1" result="shadowBlurOuter1" stdDeviation=".5"/><feComposite in="shadowBlurOuter1" in2="SourceAlpha" operator="out" result="shadowBlurOuter1"/><feColorMatrix in="shadowBlurOuter1" values="0 0 0 0 0   0 0 0 0 0   0 0 0 0 0  0 0 0 0.199473505 0"/></filter><path id="d" d="m23.4803823 8.99997951h-4.0446463c-.1652683 0-.3237622.06699512-.4404695.18616586l-7.3740244 7.52844873c-.1167073.1191708-.2752012.1861659-.4404695.1861659h-1.35199394c-.165 0-.32329268-.066722-.43993293-.1855512l-.95632927-.9737171c-.11670731-.118761-.1822378-.2798634-.1822378-.4478634v-1.3770537c0-.168.06553049-.3291024.1822378-.4479317l.95632927-.973717c.11664025-.118761.27493293-.1855513.43993293-.1855513h1.35246344c.165 0 .3232256.0667903.4399329.1855513l.5872256.5979024c.2430061.2474244.6369268.2474244.8798659 0l1.4184634-1.4441854c.2430061-.2474244.2430061-.6485073 0-.8958634l-1.5392622-1.56724877c-.1167073-.11876097-.2749329-.18555122-.4399329-.18555122h-4.04504882c-.165 0-.32329269.06679025-.44.18555122l-2.8602683 2.91234147c-.11664024.118761-.1822378.2798634-.1822378.4479317v4.1185951c0 .168.06559756.3291025.1822378.4479317l2.8602683 2.9123415c.11670731.118761.275.1855512.44.1855512h4.04457922c.1652683 0 .3237622-.0669951.4405366-.1861658l7.3739573-7.5285171c.1167074-.1191707.2752683-.1861659.4405366-.1861659h1.3519939c.165 0 .3232256.0667903.4398659.1855513l.9563293.9736487c.1167073.118761.1823048.2799317.1823048.4479317v1.377122c0 .168-.0655975.3291024-.1823048.4478634l-.9563293.9737171c-.1166403.1188292-.2748659.1855512-.4398659.1855512h-1.3524634c-.165 0-.3232927-.066722-.4399329-.1855512l-.592189-.6028878c-.241061-.2454439-.6311586-.2476293-.8749025-.0049854l-1.7493353 1.7414634c-.1197256.1191708-.1872013.2824586-.1872013.4529171v4.0411512c0 .3498634.2785549.6335512.6221708.6335512h2.0407012c.3436158 0 .6222378-.2836878.6222378-.6335512v-1.4992293c0-.3498634.2784878-.6334146.6221037-.6334146h2.6351036c.165 0 .3232256-.0667902.4399329-.1855512l2.8602683-2.9123415c.1167074-.1188292.1822378-.2799317.1822378-.4479317v-4.1185951c0-.1680683-.0655304-.3291707-.1822378-.4479317l-2.8602683-2.91234147c-.1167073-.11876097-.2749329-.18555122-.4399329-.18555122"/><filter id="e" height="125%" width="115.9%" x="-8%" y="-8.9%"><feOffset dy=".5" in="SourceAlpha" result="shadowOffsetOuter1"/><feGaussianBlur in="shadowOffsetOuter1" result="shadowBlurOuter1" stdDeviation=".5"/><feColorMatrix in="shadowBlurOuter1" values="0 0 0 0 0   0 0 0 0 0   0 0 0 0 0  0 0 0 0.204257246 0"/></filter></defs><g fill="none" fill-rule="evenodd"><use fill="#000" filter="url(#c)" xlink:href="#b"/><use fill="#ed1650" xlink:href="#b"/><use fill="url(#a)" xlink:href="#b"/><circle cx="16" cy="15" r="14.5" stroke="#000" stroke-opacity=".097"/><use fill="#000" filter="url(#e)" xlink:href="#d"/><use fill="#fff" xlink:href="#d"/></g></svg>