<svg height="32" viewBox="0 0 32 32" width="32" xmlns="http://www.w3.org/2000/svg" xmlns:xlink="http://www.w3.org/1999/xlink"><defs><linearGradient id="a" x1="50%" x2="50%" y1="0%" y2="100%"><stop offset="0" stop-color="#fff" stop-opacity=".5"/><stop offset="1" stop-opacity=".5"/></linearGradient><circle id="b" cx="16" cy="15" r="15"/><filter id="c" height="111.7%" width="111.7%" x="-5.8%" y="-4.2%"><feOffset dy=".5" in="SourceAlpha" result="shadowOffsetOuter1"/><feGaussianBlur in="shadowOffsetOuter1" result="shadowBlurOuter1" stdDeviation=".5"/><feComposite in="shadowBlurOuter1" in2="SourceAlpha" operator="out" result="shadowBlurOuter1"/><feColorMatrix in="shadowBlurOuter1" values="0 0 0 0 0   0 0 0 0 0   0 0 0 0 0  0 0 0 0.199473505 0"/></filter><path id="d" d="m6.14530978 10.9536742c-.0944684-.7868586-.14343773-1.55799896-.14530978-2.31729162 1.32182033-.75173855 2.70274296-1.34337994 4.1519743-1.77919723 2.0343463-.61186796 4.1220185-.89539642 6.2622166-.85306093.5677512.01119205 1.3889585.07372532 2.0138077.14116146-1.5948957.85433903-2.7206641 2.38031088-3.0650882 4.19035662-.0595672.3133278-.0927971.6391657-.1034905.9874973-.0164092.5355491-.0686922.9580513-.1796136 1.3524373-.4451391 1.5834689-1.7425291 2.8203121-3.3401094 3.1831789-2.09913427.4767485-4.21495168-.5594331-5.12891327-2.5111414-.04294684-.0916828-.07560403-.1895106-.1010369-.3005394-.15877184-.6946984-.28039396-1.3926383-.36443695-2.093401zm16.61239002 8.560399c-.238029.369107-.488776.7306544-.7521777 1.0847008.0069851-1.0169412-.2370342-1.9826896-.7289556-2.8904589-.5111418-.9430728-1.2289945-1.6986483-2.146816-2.2621835-.0434357-.0265232-.0434357-.0265232-.0906817-.0550616-.0761904-.046027-.1081299-.0655688-.1480522-.0909348-1.1372693-.722351-1.8296889-1.7338298-2.073564-3.0401291-.4409781-2.36154519 1.0459994-4.65382558 3.3812182-5.21878888.8198694-.19839324 1.6307991-.17068642 2.4370695.08288859.6192808.1948604 1.2447845.45016524 2.0078774.80729779.4406126.20627987.884377.43675094 1.3563823.70406454-.0016954.54058473-.027985 1.09329895-.0778764 1.66343116-.0733147.8379788-.197971 1.6660248-.3742486 2.4844776-.5186028 2.4083534-1.4491437 4.6510524-2.7901752 6.7306963zm-3.0363253 3.6728262c-1.1427366 1.0854633-2.3777231 2.0214577-3.7194796 2.8131006-.2093793-.1146236-.6088544-.3638234-1.0179117-.6390233-1.1680823-.7864788-2.2429781-1.6834325-3.2244201-2.6910042-.9834122-1.009704-1.85247548-2.1084069-2.60689356-3.2962616-.55724196-.8773625-1.04281382-1.7888688-1.456475-2.7347254.19476053.1138827.3953649.2163325.60188079.3072558.58597864.2579909 1.19219906.4181472 1.81851757.47822 1.2790506.1226491 2.4837179-.1363006 3.6133098-.7729749.5384541-.3034685 1.1071484-.494258 1.7062375-.5693923 2.1783265-.2731538 4.2582012 1.0513958 4.9016902 3.2060599.3348153 1.1210605.2372141 2.2213736-.2830486 3.3064198-.0441295.0919519-.08173.1668819-.1715065.3431489-.0221974.0435899-.0221974.0435899-.0444702.0874646-.0330976.0651464-.0714059.1179904-.1174306.1617121z"/><filter id="e" height="117.5%" width="117.5%" x="-8.8%" y="-6.2%"><feOffset dy=".5" in="SourceAlpha" result="shadowOffsetOuter1"/><feGaussianBlur in="shadowOffsetOuter1" result="shadowBlurOuter1" stdDeviation=".5"/><feColorMatrix in="shadowBlurOuter1" values="0 0 0 0 0   0 0 0 0 0   0 0 0 0 0  0 0 0 0.204257246 0"/></filter></defs><g fill="none" fill-rule="evenodd"><use fill="#000" filter="url(#c)" xlink:href="#b"/><use fill="#67b2e8" xlink:href="#b"/><use fill="url(#a)" xlink:href="#b"/><circle cx="16" cy="15" r="14.5" stroke="#000" stroke-opacity=".097"/><use fill="#000" filter="url(#e)" xlink:href="#d"/><use fill="#fff" xlink:href="#d"/></g></svg>