<svg width="32" height="32" viewBox="0 0 32 32" version="1.1" xmlns="http://www.w3.org/2000/svg" xmlns:xlink="http://www.w3.org/1999/xlink"><title>svg/icon/xin</title><desc>Created with Sketch.</desc><defs><linearGradient x1="50%" y1="0%" x2="50%" y2="100%" id="linearGradient-1"><stop stop-color="#FFF" stop-opacity=".5" offset="0%"/><stop stop-color="#000" stop-opacity=".5" offset="100%"/></linearGradient><circle id="path-2" cx="15" cy="15" r="15"/><filter x="-5.8%" y="-4.2%" width="111.7%" height="111.7%" filterUnits="objectBoundingBox" id="filter-3"><feOffset dx="0" dy=".5" in="SourceAlpha" result="shadowOffsetOuter1"/><feGaussianBlur stdDeviation=".5" in="shadowOffsetOuter1" result="shadowBlurOuter1"/><feComposite in="shadowBlurOuter1" in2="SourceAlpha" operator="out" result="shadowBlurOuter1"/><feColorMatrix values="0 0 0 0 0 0 0 0 0 0 0 0 0 0 0 0 0 0 0.199473505 0" type="matrix" in="shadowBlurOuter1"/></filter></defs><g id="icon/xin" stroke="none" stroke-width="1" fill="none" fill-rule="evenodd"><g id="Group" transform="translate(1.000000, 0.000000)" fill-rule="nonzero"><g id="Oval"><use fill="#000" fill-opacity="1" filter="url(#filter-3)" xlink:href="#path-2"/><use fill="#1EB5FA" xlink:href="#path-2"/><use fill="url(#linearGradient-1)" style="mix-blend-mode:soft-light" xlink:href="#path-2"/><circle stroke-opacity=".097" stroke="#000" stroke-width="1" stroke-linejoin="square" cx="15" cy="15" r="14.5"/></g></g><g id="Mixin-(XIN)" transform="translate(6.000000, 7.000000)" fill="#FFF" fill-rule="nonzero"><path d="M19.4590909,0.137272727 L16.1590909,1.60090909 C15.9630304,1.70816683 15.8410498,1.91379138 15.8409091,2.13727273 L15.8409091,13.9372727 C15.8401823,14.1634555 15.9667139,14.3708266 16.1681818,14.4736364 L19.4681818,15.9009091 C19.563864,15.9531683 19.6800734,15.9508137 19.7735603,15.8947216 C19.8670471,15.8386295 19.9238114,15.7371999 19.9227273,15.6281818 L19.9227273,0.41 C19.9192366,0.300928783 19.8600932,0.20125557 19.7660329,0.145925955 C19.6719725,0.0905963392 19.5561191,0.0873302288 19.4590909,0.137272727 Z M3.65454545,1.58272727 L0.454545455,0.128181818 C0.358863235,0.0759225789 0.242653867,0.0782771672 0.14916702,0.134369276 C0.0556801727,0.190461384 -0.00108416673,0.29189102 -1.04965339e-15,0.400909091 L-1.04965339e-15,15.6190909 C7.94577226e-05,15.7314131 0.0609105472,15.8349058 0.159008745,15.8896144 C0.257106943,15.944323 0.377124492,15.9416882 0.472727273,15.8827273 L3.69090909,14.1827273 C3.87167285,14.0726122 3.98193511,13.8762076 3.98181818,13.6645455 L3.98181818,2.11909091 C3.97475254,1.89515725 3.85044911,1.69143774 3.65454545,1.58272727 Z M13.6909091,5.61 L10.2454545,3.63727273 C10.0571022,3.52809269 9.82471598,3.52809269 9.63636364,3.63727273 L6.12727273,5.59181818 C5.93624371,5.70297087 5.81857046,5.90716858 5.81818182,6.12818182 L5.81818182,10.1281818 C5.81857046,10.3491951 5.93624371,10.5533928 6.12727273,10.6645455 L9.63636364,12.6827273 C9.82471598,12.7919073 10.0571022,12.7919073 10.2454545,12.6827273 L13.6909091,10.6827273 C13.8819381,10.5715746 13.9996114,10.3673769 14,10.1463636 L14,6.14636364 C14.0018884,5.92474537 13.8836033,5.7194859 13.6909091,5.61 Z" id="Shape"/></g></g></svg>