<?xml version="1.0" encoding="UTF-8"?>
<svg width="32px" height="32px" viewBox="0 0 32 32" version="1.1" xmlns="http://www.w3.org/2000/svg" xmlns:xlink="http://www.w3.org/1999/xlink">
    <!-- Generator: Sketch 53 (72520) - https://sketchapp.com -->
    <title>svg/icon/xlm</title>
    <desc>Created with Sketch.</desc>
    <defs>
        <linearGradient x1="50%" y1="0%" x2="50%" y2="100%" id="linearGradient-1">
            <stop stop-color="#FFFFFF" stop-opacity="0.5" offset="0%"></stop>
            <stop stop-color="#000000" stop-opacity="0.5" offset="100%"></stop>
        </linearGradient>
        <circle id="path-2" cx="15" cy="15" r="15"></circle>
        <filter x="-5.8%" y="-4.2%" width="111.7%" height="111.7%" filterUnits="objectBoundingBox" id="filter-3">
            <feOffset dx="0" dy="0.5" in="SourceAlpha" result="shadowOffsetOuter1"></feOffset>
            <feGaussianBlur stdDeviation="0.5" in="shadowOffsetOuter1" result="shadowBlurOuter1"></feGaussianBlur>
            <feComposite in="shadowBlurOuter1" in2="SourceAlpha" operator="out" result="shadowBlurOuter1"></feComposite>
            <feColorMatrix values="0 0 0 0 0   0 0 0 0 0   0 0 0 0 0  0 0 0 0.199473505 0" type="matrix" in="shadowBlurOuter1"></feColorMatrix>
        </filter>
    </defs>
    <g id="icon/xlm" stroke="none" stroke-width="1" fill="none" fill-rule="evenodd">
        <g id="Group" transform="translate(1.000000, 0.000000)" fill-rule="nonzero">
            <g id="Oval">
                <use fill="black" fill-opacity="1" filter="url(#filter-3)" xlink:href="#path-2"></use>
                <use fill="#000000" xlink:href="#path-2"></use>
                <use fill="url(#linearGradient-1)" style="mix-blend-mode: soft-light;" xlink:href="#path-2"></use>
                <circle stroke-opacity="0.0970052083" stroke="#000000" stroke-width="1" stroke-linejoin="square" cx="15" cy="15" r="14.5"></circle>
            </g>
        </g>
        <g id="xlm" transform="translate(6.000000, 6.000000)" fill="#FFFFFF" fill-rule="nonzero">
            <path d="M17.1308017,2.29198312 L14.7291139,3.51561181 L3.13164557,9.42278481 C3.09242915,9.12367917 3.07269698,8.82234064 3.07257384,8.52067511 C3.07580048,6.07158957 4.37535664,3.80724161 6.48836228,2.56900192 C8.60136791,1.33076223 11.2119973,1.3037074 13.350211,2.4978903 L14.7248945,1.79746835 L14.9299578,1.692827 C12.3622552,-0.170850975 8.96620491,-0.436817586 6.13967434,1.00440318 C3.31314376,2.44562395 1.53384964,5.35044892 1.53417722,8.52320675 C1.53417722,8.73811533 1.54233474,8.95218003 1.55864979,9.16540084 C1.60537279,9.78281144 1.27658347,10.3678434 0.724894515,10.6489451 L0,11.0185654 L0,12.742616 L2.13417722,11.6548523 L2.13417722,11.6548523 L2.82531646,11.3021097 L3.50632911,10.9552743 L3.50632911,10.9552743 L15.7324895,4.7257384 L17.1063291,4.02616034 L19.9459916,2.57890295 L19.9459916,0.855696203 L17.1308017,2.29198312 Z" id="Path"></path>
            <path d="M19.9459916,4.30379747 L4.20084388,12.3206751 L2.82700422,13.0219409 L0,14.4624473 L0,16.1848101 L2.80759494,14.7544304 L5.2092827,13.5308017 L16.8185654,7.61518987 C16.8578103,7.91627221 16.877542,8.21957749 16.8776371,8.52320675 C16.8761174,10.9752241 15.575061,13.2427299 13.4589194,14.4814132 C11.3427777,15.7200964 8.72863505,15.7443517 6.58987342,14.5451477 L6.50548523,14.5898734 L5.01518987,15.3493671 C7.58228888,17.2130916 10.9777297,17.4796922 13.8042463,16.0394596 C16.6307629,14.599227 18.4107861,11.6955033 18.4118143,8.52320675 C18.4118143,8.30632911 18.4033755,8.08945148 18.3873418,7.87510549 C18.3406963,7.25793884 18.6690561,6.67307902 19.2202532,6.39156118 L19.9459916,6.02194093 L19.9459916,4.30379747 Z" id="Path"></path>
        </g>
    </g>
</svg>