<svg xmlns="http://www.w3.org/2000/svg" xmlns:xlink="http://www.w3.org/1999/xlink" width="32" height="32" viewBox="0 0 32 32"><defs><linearGradient id="xmr-c" x1="50%" x2="50%" y1="0%" y2="100%"><stop offset="0%" stop-color="#FFF" stop-opacity=".5"/><stop offset="100%" stop-opacity=".5"/></linearGradient><circle id="xmr-b" cx="16" cy="15" r="15"/><filter id="xmr-a" width="111.7%" height="111.7%" x="-5.8%" y="-4.2%" filterUnits="objectBoundingBox"><feOffset dy=".5" in="SourceAlpha" result="shadowOffsetOuter1"/><feGaussianBlur in="shadowOffsetOuter1" result="shadowBlurOuter1" stdDeviation=".5"/><feComposite in="shadowBlurOuter1" in2="SourceAlpha" operator="out" result="shadowBlurOuter1"/><feColorMatrix in="shadowBlurOuter1" values="0 0 0 0 0 0 0 0 0 0 0 0 0 0 0 0 0 0 0.199473505 0"/></filter><path id="xmr-e" d="M15.9706667,4.23466667 C21.9546667,4.23466667 26.7946667,9.07466667 26.7946667,15.0586667 C26.7946667,16.2613333 26.5893333,17.4053333 26.2373333,18.4906667 L23.0106667,18.4906667 L23.0106667,9.39733333 L15.9706667,16.4373333 L8.93066667,9.39733333 L8.93066667,18.4906667 L5.704,18.4906667 C5.352,17.4053333 5.14666667,16.2613333 5.14666667,15.0586667 C5.14666667,9.07466667 9.98666667,4.23466667 15.9706667,4.23466667 Z M14.3573333,18.0213333 L16,19.6346667 L17.6133333,18.0213333 L20.664,14.9413333 L20.664,20.6613333 L20.8986667,20.6613333 L23.0106667,20.6613333 L25.2106667,20.6613333 C23.3333333,23.7706667 19.872,25.8533333 15.9706667,25.8533333 C12.0693333,25.8533333 8.63733333,23.7706667 6.73066667,20.6613333 L8.93066667,20.6613333 L10.104,20.6613333 L11.2773333,20.6613333 L11.2773333,14.9413333 L14.3573333,18.0213333 Z"/><filter id="xmr-d" width="116.2%" height="116.2%" x="-8.1%" y="-5.8%" filterUnits="objectBoundingBox"><feOffset dy=".5" in="SourceAlpha" result="shadowOffsetOuter1"/><feGaussianBlur in="shadowOffsetOuter1" result="shadowBlurOuter1" stdDeviation=".5"/><feColorMatrix in="shadowBlurOuter1" values="0 0 0 0 0 0 0 0 0 0 0 0 0 0 0 0 0 0 0.204257246 0"/></filter></defs><g fill="none" fill-rule="evenodd"><use fill="#000" filter="url(#xmr-a)" xlink:href="#xmr-b"/><use fill="#F60" xlink:href="#xmr-b"/><use fill="url(#xmr-c)" style="mix-blend-mode:soft-light" xlink:href="#xmr-b"/><circle cx="16" cy="15" r="14.5" stroke="#000" stroke-opacity=".097"/><g fill-rule="nonzero"><use fill="#000" filter="url(#xmr-d)" xlink:href="#xmr-e"/><use fill="#FFF" fill-rule="evenodd" xlink:href="#xmr-e"/></g></g></svg>