<svg height="32" viewBox="0 0 32 32" width="32" xmlns="http://www.w3.org/2000/svg" xmlns:xlink="http://www.w3.org/1999/xlink"><defs><linearGradient id="a" x1="50%" x2="50%" y1="0%" y2="100%"><stop offset="0" stop-color="#fff" stop-opacity=".5"/><stop offset="1" stop-opacity=".5"/></linearGradient><circle id="b" cx="16" cy="15" r="15"/><filter id="c" height="111.7%" width="111.7%" x="-5.8%" y="-4.2%"><feOffset dy=".5" in="SourceAlpha" result="shadowOffsetOuter1"/><feGaussianBlur in="shadowOffsetOuter1" result="shadowBlurOuter1" stdDeviation=".5"/><feComposite in="shadowBlurOuter1" in2="SourceAlpha" operator="out" result="shadowBlurOuter1"/><feColorMatrix in="shadowBlurOuter1" values="0 0 0 0 0   0 0 0 0 0   0 0 0 0 0  0 0 0 0.199473505 0"/></filter><path id="d" d="m15.9706667 4.23466667c5.984 0 10.824 4.84 10.824 10.82400003 0 1.2026666-.2053334 2.3466666-.5573334 3.432h-3.2266666v-9.09333337l-7.04 7.03999997-7.04000003-7.03999997v9.09333337h-3.22666667c-.352-1.0853334-.55733333-2.2293334-.55733333-3.432 0-5.98400003 4.84-10.82400003 10.82400003-10.82400003zm-1.6133334 13.78666663 1.6426667 1.6133334 1.6133333-1.6133334 3.0506667-3.08v5.72h.2346667 2.112 2.2c-1.8773334 3.1093334-5.3386667 5.192-9.24 5.192-3.9013334 0-7.33333337-2.0826666-9.24000003-5.192h2.2 1.17333333 1.1733333v-5.72z"/><filter id="e" height="116.2%" width="116.2%" x="-8.1%" y="-5.8%"><feOffset dy=".5" in="SourceAlpha" result="shadowOffsetOuter1"/><feGaussianBlur in="shadowOffsetOuter1" result="shadowBlurOuter1" stdDeviation=".5"/><feColorMatrix in="shadowBlurOuter1" values="0 0 0 0 0   0 0 0 0 0   0 0 0 0 0  0 0 0 0.204257246 0"/></filter></defs><g fill="none" fill-rule="evenodd"><use fill="#000" filter="url(#c)" xlink:href="#b"/><use fill="#f60" xlink:href="#b"/><use fill="url(#a)" xlink:href="#b"/><circle cx="16" cy="15" r="14.5" stroke="#000" stroke-opacity=".097"/><g fill-rule="nonzero"><use fill="#000" filter="url(#e)" xlink:href="#d"/><use fill="#fff" fill-rule="evenodd" xlink:href="#d"/></g></g></svg>