<svg xmlns="http://www.w3.org/2000/svg" xmlns:xlink="http://www.w3.org/1999/xlink" width="32" height="32"><defs><linearGradient id="c" x1="50%" x2="50%" y1="0%" y2="100%"><stop offset="0%" stop-color="#FFF" stop-opacity=".5"/><stop offset="100%" stop-opacity=".5"/></linearGradient><circle id="b" cx="16" cy="15" r="15"/><filter id="a" width="111.7%" height="111.7%" x="-5.8%" y="-4.2%" filterUnits="objectBoundingBox"><feOffset dy=".5" in="SourceAlpha" result="shadowOffsetOuter1"/><feGaussianBlur in="shadowOffsetOuter1" result="shadowBlurOuter1" stdDeviation=".5"/><feComposite in="shadowBlurOuter1" in2="SourceAlpha" operator="out" result="shadowBlurOuter1"/><feColorMatrix in="shadowBlurOuter1" values="0 0 0 0 0 0 0 0 0 0 0 0 0 0 0 0 0 0 0.199473505 0"/></filter><path id="e" d="M21.96 17.205c-.69-.408-1.467-.526-2.237-.554-.646-.023-1.61-.447-1.61-1.65 0-.898.71-1.62 1.61-1.652.77-.027 1.548-.146 2.238-.554 1.713-1.014 2.47-3.141 1.793-5.046-.677-1.905-2.591-3.037-4.54-2.685-1.949.352-3.37 2.086-3.37 4.114 0 .809.282 1.554.64 2.244.302.581.454 1.66-.58 2.271-.77.455-1.73.167-2.21-.619-.404-.664-.893-1.286-1.578-1.691-1.713-1.014-3.89-.62-5.162.932a4.255 4.255 0 0 0 0 5.37c1.272 1.553 3.449 1.946 5.162.932.685-.404 1.174-1.026 1.579-1.69.332-.545 1.162-1.24 2.209-.62.768.455 1.006 1.45.58 2.271-.359.69-.64 1.435-.64 2.245 0 2.027 1.421 3.761 3.37 4.113 1.949.352 3.863-.78 4.54-2.685.676-1.905-.08-4.032-1.793-5.046z"/><filter id="d" width="119.4%" height="117.5%" x="-9.7%" y="-6.2%" filterUnits="objectBoundingBox"><feOffset dy=".5" in="SourceAlpha" result="shadowOffsetOuter1"/><feGaussianBlur in="shadowOffsetOuter1" result="shadowBlurOuter1" stdDeviation=".5"/><feColorMatrix in="shadowBlurOuter1" values="0 0 0 0 0 0 0 0 0 0 0 0 0 0 0 0 0 0 0.204257246 0"/></filter></defs><g fill="none" fill-rule="evenodd"><use fill="#000" filter="url(#a)" xlink:href="#b"/><use fill="#00AAE4" xlink:href="#b"/><use fill="url(#c)" style="mix-blend-mode:soft-light" xlink:href="#b"/><circle cx="16" cy="15" r="14.5" stroke="#000" stroke-opacity=".097"/><g fill-rule="nonzero"><use fill="#000" filter="url(#d)" xlink:href="#e"/><use fill="#FFF" fill-rule="evenodd" xlink:href="#e"/></g></g></svg>