<svg width="32" height="32" viewBox="0 0 32 32" xmlns="http://www.w3.org/2000/svg" xmlns:xlink="http://www.w3.org/1999/xlink"><defs><linearGradient x1="50%" y1="0%" x2="50%" y2="100%" id="c"><stop stop-color="#FFF" offset="0%"/><stop offset="100%"/></linearGradient><circle id="b" cx="15" cy="15" r="15"/><filter x="-5.8%" y="-4.2%" width="111.7%" height="111.7%" filterUnits="objectBoundingBox" id="a"><feOffset dy=".5" in="SourceAlpha" result="shadowOffsetOuter1"/><feGaussianBlur stdDeviation=".5" in="shadowOffsetOuter1" result="shadowBlurOuter1"/><feComposite in="shadowBlurOuter1" in2="SourceAlpha" operator="out" result="shadowBlurOuter1"/><feColorMatrix values="0 0 0 0 0 0 0 0 0 0 0 0 0 0 0 0 0 0 0.199473505 0" in="shadowBlurOuter1"/></filter></defs><g fill="none"><g transform="translate(1)"><use fill="#000" filter="url(#a)" xlink:href="#b"/><use fill="#D21E2B" xlink:href="#b"/><use fill="url(#c)" style="mix-blend-mode:soft-light" xlink:href="#b"/><circle stroke-opacity=".097" stroke="#000" stroke-linejoin="square" cx="15" cy="15" r="14.5"/></g><path d="M16.128 6.596V4l9.66 5.574-2.235 1.298zm7.574 13.106V11.15l2.255-1.298V21l-2.255-1.298zm-7.574 4.553l7.425-4.276 2.234 1.298-9.66 5.574v-2.596zm-9.98-2.978l2.256-1.298 7.405 4.276v2.596l-9.66-5.574zM6 9.851l2.234 1.298v8.553L6 21zm.149-.277L15.809 4v2.596l-7.405 4.276zM15.99 6.84l-7.447 4.277v8.596l7.446 4.298 7.426-4.298v-8.596L15.989 6.84zm5.978 7.681l-.32.553-2.127-1.191-2.723 1.532 2.723 1.532 2.128-1.192.32.554-1.788 1 1.787 1-.32.553-1.786-1v2h-.66V17.5l-2.723-1.532v3.064l2.106 1.17-.319.543-1.787-1v2h-.66v-2l-1.787 1-.34-.554 2.127-1.17v-3.053L13.096 17.5v2.362h-.681v-2l-1.766 1-.34-.553 1.787-1-1.787-1 .34-.554 2.106 1.192 2.745-1.532-2.745-1.532-2.106 1.191-.34-.553 1.787-1-1.787-1 .34-.553 1.766 1v-2.01h.68v2.361l2.724 1.532v-3.053l-2.106-1.17.319-.554 1.787 1v-2h.66v2l1.787-1 .32.554-2.107 1.17v3.064l2.723-1.532v-2.373h.66v2l1.787-1 .32.554-1.788 1 1.787 1.01z" fill="#FFF"/></g></svg>