<svg height="32" viewBox="0 0 32 32" width="32" xmlns="http://www.w3.org/2000/svg" xmlns:xlink="http://www.w3.org/1999/xlink"><defs><linearGradient id="a" x1="50%" x2="50%" y1="0%" y2="100%"><stop offset="0" stop-color="#fff" stop-opacity=".5"/><stop offset="1" stop-opacity=".5"/></linearGradient><circle id="b" cx="16" cy="15" r="15"/><filter id="c" height="111.7%" width="111.7%" x="-5.8%" y="-4.2%"><feOffset dy=".5" in="SourceAlpha" result="shadowOffsetOuter1"/><feGaussianBlur in="shadowOffsetOuter1" result="shadowBlurOuter1" stdDeviation=".5"/><feComposite in="shadowBlurOuter1" in2="SourceAlpha" operator="out" result="shadowBlurOuter1"/><feColorMatrix in="shadowBlurOuter1" values="0 0 0 0 0   0 0 0 0 0   0 0 0 0 0  0 0 0 0.199473505 0"/></filter><path id="d" d="m18.1894175 25c-1.4597016 0-2.5231677-.3435413-3.190938-1.0308895s-1.0016555-1.4280594-1.0016555-2.2223992c0-.2901783.0583017-.5344272.1749051-.7330121.1163334-.198585.2755834-.3549573.47748-.4696481.2016267-.1144253.4502187-.1717707.745236-.1717707.2950174 0 .5433394.0573454.745236.1717707.2018966.1146908.3611466.2710631.4774801.4696481.1166034.1985849.1749051.4428338.1749051.7330121 0 .3515059-.0855631.6377019-.2564195.8591188-.1708563.2216824-.372483.3666388-.6054199.4354002.2018966.2750454.5201267.4696481.9549602.5840734.4345635.1223899.869397.1834521 1.3042304.1834521.6056898 0 1.152808-.1603547 1.6421644-.4810641.4890864-.3207094.8499631-.7943398 1.0829-1.4203603.2329368-.6262859.3495402-1.336466.3495402-2.1308058 0-.8628357-.1282097-1.5998301-.3843593-2.2107178-.248592-.6185868-.6172962-1.0768189-1.1063826-1.3744308-.4890864-.2978775-1.0170407-.4468162-1.5838627-.4468162-.3727529 0-.8383567.1526556-1.3973512.4582321l-1.0248682.5038961v-.5038961l4.6117719-6.0480798h-6.382146v6.2771959c0 .5192943.1166034.9467298.3495402 1.2828375.2329369.3361077.5900348.5038961 1.0712937.5038961.3727529 0 .7298508-.1221245 1.0715635-.3663733.3414428-.2445144.6364601-.5421263.8850521-.8936323.0310402-.0684959.069908-.1181421.1163334-.1489387.0466954-.0379648.0971695-.0570799.1514225-.0570799.0855631 0 .1862415.0419471.3028449.1258412.1087759.12239.1630288.2636295.1630288.4239842-.0078275.076195-.0272614.1831867-.0583017.3207094-.2639771.5803566-.6289025 1.0231904-1.0945063 1.3287669-.4658737.3053111-.9784428.4582322-1.5374372.4582322-1.3819661 0-2.3369262-.2673464-2.8648805-.802039-.5279542-.5344271-.7919313-1.2600056-.7919313-2.1762043v-6.2771959h-3.2608461v-1.16841228h3.2608461v-2.65753388l-.745236-.73327758v-.59548936h2.1660699l.815144.41230271v3.57399811l8.4316125-.02309744.8386266.8248709-5.1707663 5.08595172c.3104025-.1221244.6364601-.198585.9781728-.2291161.5589945 0 1.187897.1754875 1.8867076.5269935.7063682.3435414 1.2499775.8169063 1.6302881 1.4203603.3805805.5954893.6251237 1.1684122.7336296 1.7182377.1166034.5498254.1749051 1.0385886.1749051 1.4660242 0 .9775264-.2097241 1.8862915-.6289025 2.7262952s-1.0559085 1.4662897-1.9099203 1.8785924-1.7779317.6185868-2.7717597.6185868z"/><filter id="e" height="117.5%" width="123.3%" x="-11.7%" y="-6.2%"><feOffset dy=".5" in="SourceAlpha" result="shadowOffsetOuter1"/><feGaussianBlur in="shadowOffsetOuter1" result="shadowBlurOuter1" stdDeviation=".5"/><feColorMatrix in="shadowBlurOuter1" values="0 0 0 0 0   0 0 0 0 0   0 0 0 0 0  0 0 0 0.204257246 0"/></filter></defs><g fill="none" fill-rule="evenodd"><use fill="#000" filter="url(#c)" xlink:href="#b"/><use fill="#a6e000" xlink:href="#b"/><use fill="url(#a)" xlink:href="#b"/><circle cx="16" cy="15" r="14.5" stroke="#000" stroke-opacity=".097"/><use fill="#000" filter="url(#e)" xlink:href="#d"/><use fill="#fff" xlink:href="#d"/></g></svg>