<svg height="32" viewBox="0 0 32 32" width="32" xmlns="http://www.w3.org/2000/svg" xmlns:xlink="http://www.w3.org/1999/xlink"><defs><linearGradient id="a" x1="50%" x2="50%" y1="0%" y2="100%"><stop offset="0" stop-color="#fff" stop-opacity=".5"/><stop offset="1" stop-opacity=".5"/></linearGradient><circle id="b" cx="16" cy="15" r="15"/><filter id="c" height="111.7%" width="111.7%" x="-5.8%" y="-4.2%"><feOffset dy=".5" in="SourceAlpha" result="shadowOffsetOuter1"/><feGaussianBlur in="shadowOffsetOuter1" result="shadowBlurOuter1" stdDeviation=".5"/><feComposite in="shadowBlurOuter1" in2="SourceAlpha" operator="out" result="shadowBlurOuter1"/><feColorMatrix in="shadowBlurOuter1" values="0 0 0 0 0   0 0 0 0 0   0 0 0 0 0  0 0 0 0.199473505 0"/></filter><path id="d" d="m15.9922462 26c-6.0753761-.0038821-10.9922462-4.9302977-10.9922462-11.0135863 0-6.0716422 4.93236851-10.99029353 11.0154938-10.9864114 6.0637524.00388212 10.9922463 4.93417982 10.9844971 11.0019399-.0116238 6.001764-4.8355035 10.9902936-11.0077447 10.9980578zm-4.4829146-5.970707c.0309968-.0582318.0542444-.1048173.077492-.1436386.984149-1.7353095 1.9695894-3.4693249 2.9563214-5.2020464.8640363-1.5179105 1.7254895-3.0371151 2.5843597-4.5576138.0248346-.0602186.0864954-.0966533.1511094-.0892888 1.003522.0038821 2.0109185.0038821 3.0144405.0038821h.1433603c-1.3948568 2.4612667-2.7780898 4.9031228-4.1729465 7.3605075.0503698.0038821.077492.0038821.1046142.0038821 2.5184914 0 5.0356913.001294 7.5515996.0038821.0852412 0 .1123634-.031057.1317365-.1048174.3810716-1.3448036.4170553-2.7642451.1046142-4.126698-.3758364-1.6499027-1.2011266-3.0435853-2.4177517-4.20822256-.546407-.52065422-1.1665796-.95758007-1.840436-1.29662947-1.6738281-.85406732-3.4367721-1.12581601-5.2849573-.79971758-1.840436.32609843-3.3902769 1.19569424-4.66114638 2.5699662-.16660789.17857771-.31771738.37268392-.47657606.55902591.0038746.0116463.0116238.0194106.0154984.031057h7.17963774c-.038746.0737603-.0658682.1281101-.096865.1785777-.4378301.7764248-.8795347 1.5489675-1.3134902 2.3253924-.0350166.0783368-.1162663.1253027-.2014793.1164637-2.2627676-.0038821-4.5242437-.0051762-6.7844283-.0038821h-.13561108c-1.14688223 3.6026112.47270146 8.1214037 4.53328448 9.9304736 3.9327212 1.7547201 8.0552978.1397565 9.9887243-2.5583198-3.7157434.0077642-7.4327784.0103523-11.1511049.0077642zm12.6428267 1.8983587c1.3948568-1.5489675 2.6347295-4.0995231 2.5572374-7.1625191-.0619936-2.5233807-.9260299-4.7400736-2.541739-6.70054629-.5036983.50855827-.9957727 1.00158804-1.4839726 1.49461781 2.561112 3.07852448 2.6696009 7.63225608.0271222 10.90100468z"/><filter id="e" height="115.9%" width="115.9%" x="-8%" y="-5.7%"><feOffset dy=".5" in="SourceAlpha" result="shadowOffsetOuter1"/><feGaussianBlur in="shadowOffsetOuter1" result="shadowBlurOuter1" stdDeviation=".5"/><feColorMatrix in="shadowBlurOuter1" values="0 0 0 0 0   0 0 0 0 0   0 0 0 0 0  0 0 0 0.204257246 0"/></filter></defs><g fill="none" fill-rule="evenodd"><use fill="#000" filter="url(#c)" xlink:href="#b"/><use fill="#c87035" xlink:href="#b"/><use fill="url(#a)" xlink:href="#b"/><circle cx="16" cy="15" r="14.5" stroke="#000" stroke-opacity=".097"/><g fill-rule="nonzero"><use fill="#000" filter="url(#e)" xlink:href="#d"/><use fill="#fff" fill-rule="evenodd" xlink:href="#d"/></g></g></svg>