<svg height="32" viewBox="0 0 32 32" width="32" xmlns="http://www.w3.org/2000/svg" xmlns:xlink="http://www.w3.org/1999/xlink"><defs><linearGradient id="a" x1="50%" x2="50%" y1="0%" y2="100%"><stop offset="0" stop-color="#fff" stop-opacity=".5"/><stop offset="1" stop-opacity=".5"/></linearGradient><circle id="b" cx="16" cy="15" r="15"/><filter id="c" height="111.7%" width="111.7%" x="-5.8%" y="-4.2%"><feOffset dy=".5" in="SourceAlpha" result="shadowOffsetOuter1"/><feGaussianBlur in="shadowOffsetOuter1" result="shadowBlurOuter1" stdDeviation=".5"/><feComposite in="shadowBlurOuter1" in2="SourceAlpha" operator="out" result="shadowBlurOuter1"/><feColorMatrix in="shadowBlurOuter1" values="0 0 0 0 0   0 0 0 0 0   0 0 0 0 0  0 0 0 0.199473505 0"/></filter><path id="d" d="m15.095746 18.8461538h6.2974835v3.3504274c-1.2594967 0-2.5189934 0-3.8753745 0 .0645896.957265.0968844 1.8461538.1614739 2.8034188-1.0980227 0-2.1314559 0-3.2617735 0 0-.8888889 0-1.8119658 0-2.7692308-1.3240863 0-2.5512882 0-3.8753745 0 0-1.0940171-.1291791-2.1880342.0645896-3.2136752.0968844-.5470085.6781906-1.025641 1.0334332-1.5042735 1.2272019-1.5384615 2.4544038-3.042735 3.7139006-4.5811966.4844218-.5811965.9688436-1.1282051 1.517855-1.7777777-2.0668664 0-4.0368485 0-6.0391253 0 0-1.1282052 0-2.22222227 0-3.3504274h3.5847214c0-.95726495 0-1.84615384 0-2.8034188h3.1325944v2.73504274h3.9076693c0 1.12820512.1291791 2.22222222-.0645896 3.24786326-.0968844.5470085-.6781906 1.025641-1.065728 1.5042735-1.2272019 1.5384615-2.4544038 3.042735-3.7139005 4.5811966-.4844219.6153846-.9688437 1.1623931-1.517855 1.7777777z"/><filter id="e" height="117.5%" width="131.8%" x="-15.9%" y="-6.2%"><feOffset dy=".5" in="SourceAlpha" result="shadowOffsetOuter1"/><feGaussianBlur in="shadowOffsetOuter1" result="shadowBlurOuter1" stdDeviation=".5"/><feColorMatrix in="shadowBlurOuter1" values="0 0 0 0 0   0 0 0 0 0   0 0 0 0 0  0 0 0 0.204257246 0"/></filter></defs><g fill="none" fill-rule="evenodd"><use fill="#000" filter="url(#c)" xlink:href="#b"/><use fill="#ecb244" xlink:href="#b"/><use fill="url(#a)" xlink:href="#b"/><circle cx="16" cy="15" r="14.5" stroke="#000" stroke-opacity=".097"/><g fill-rule="nonzero"><use fill="#000" filter="url(#e)" xlink:href="#d"/><use fill="#fff" fill-rule="evenodd" xlink:href="#d"/></g></g></svg>