<svg width="32" height="32" viewBox="0 0 32 32" xmlns="http://www.w3.org/2000/svg"><path d="M16 0c8.837 0 16 7.163 16 16s-7.163 16-16 16S0 24.837 0 16 7.163 0 16 0zm-2.158 5.5h-.111c-.7.011-2.772.262-3.596 2.769-.255-.645-.49-1.584-.49-1.584s-.008.006-.02.019l-.055.055c-.29.303-1.301 1.533-.706 3.407a250.273 250.273 0 00-4.09-1.477l-.086-.028a.244.244 0 00-.019-.005c-.127-.019-.163.036-.163.036s-.037.056.072.148c.2.165 4.013 3.02 4.848 3.572-.181.663-.181.976 0 1.29.255.423.273.644.237.957-.037.313-.364 3.02-.436 3.352-.073.331-.835 1.51-.8 1.86.037.35.51 1.841.927 2.007.309.11 1.071.35 1.58.35.181 0 .345-.037.417-.11.309-.277.4-.332.618-.332h.054c.09 0 .2.018.327.018.29 0 .672-.055.944-.313.4-.405 1.09-.958 1.307-1.215.273-.35.418-.83.345-1.308-.054-.442.182-.829.454-1.215.345-.46.98-1.29.98-1.29 1.254.958 2.034 2.413 2.034 4.034 0 2.872-2.469 5.193-5.52 5.193a5.81 5.81 0 01-1.38-.166c1.399.497 2.579.663 3.541.663 2.052 0 3.142-.755 3.142-.755s-.382.497-1 1.068h.02c3.395-.479 5.047-3.315 5.047-3.315s-.127.921-.29 1.547c4.52-3.444 3.758-7.753 3.74-7.9.036.055.49.608.726.902.62-6.467-3.736-9.201-5.035-9.867l-.136-.068a3.867 3.867 0 00-.222-.101s.908.037 1.852.147c-2.124-1.694-4.14-2.191-5.774-2.191-2.251 0-3.776.939-3.867.994l.708-1.141s-.044-.005-.124-.006zm2.248 3.966c3.723.405 6.628 3.61 6.628 7.495a7.549 7.549 0 01-4.23 6.795c1.18-.92 2.087-2.21 2.487-3.665.018-.055.181-.147.29-.22.182-.093.363-.203.4-.35.072-.424.109-.866.109-1.308 0-.166-.164-.331-.327-.497-.091-.11-.236-.24-.236-.332a7.25 7.25 0 00-1.49-3.664c-.362-2.21-1.815-2.891-1.851-2.91l.023.036.049.08c.217.37.808 1.57.255 2.941-.672 1.64-2.397 1.381-2.542 1.4-.146 0-.709.736-1.417 2.099a1.967 1.967 0 00-.908-.055c.327-.921.817-2.228.908-2.339.037-.037.309-.11.49-.166.345-.092.509-.147.563-.22.037-.056.218-.48.4-.921.163 0 .58-.037.617-.056.037-.037.382-.939.382-1.05 0-.091-.709-1.878-.981-2.56a4.31 4.31 0 00.381-.533zm3.686 4.64a6.805 6.805 0 011.271 3.315c.018.148.164.295.309.442.127.11.272.258.272.35 0 .424-.036.847-.109 1.27-.018.056-.181.148-.308.222-.182.092-.345.184-.382.331l-.085.282a6.868 6.868 0 01-2.087 3.09l-.223.18.154-.168c1.582-1.8 2.31-4.635 1.043-6.901.182-.94.2-1.75.145-2.413zM14.783 7.11s.672 1.491-.036 2.578c-.727 1.086-1.435 1.289-1.435 1.289s.999.184 1.925-.497c.381.902.744 1.841.763 1.97l-.347.834-.147.353c-.171.406-.328.772-.36.82-.036.037-.29.11-.472.148-.309.092-.49.147-.563.202-.127.11-.708 1.731-.98 2.523a1.5 1.5 0 00-.89.645c.127-.092.526-.148.817-.184.254-.019 1.035.405 1.235 1.197v.036c.036.295-.055.571-.2.792-.073.092-.381.369-.6.571-.217.203-.453.405-.635.59-.072.073-.218.11-.436.11h-.544c.272-.368 1.071-1.216 1.343-1.4.327-.22.49-.442.29-.828-.199-.387-.725-.295-.725-.295s.308-.129.58-.129c-.344-.092-.78 0-.98.203-.218.202-.181.92-.272 1.38-.091.48-.4.719-.872 1.161-.254.24-.436.313-.58.313a6.189 6.189 0 01-.927-.24c-.181-.239-.454-1.03-.526-1.362.054-.184.272-.571.38-.792.219-.424.346-.663.382-.884.073-.313.309-2.247.4-3.057.236.313.563.829.49 1.16.527-.755.145-1.491-.036-1.786-.164-.295-.382-.884-.2-1.51.181-.626.835-2.357.835-2.357s.218.387.527.313c.308-.074 2.796-3.867 2.796-3.867zm-4.35 11.584s-.595 1.056-.649 1.202c-.054.164.036.455.27.437.235-.018.523-.364.523-.62 0-.327-.288-.29-.288-.29zm2.316.165c.146-.037.49.018.49.276 0 .24-.254.295-.435.46-.127.13-.382.405-.418.442l.001-.001.052-.095c.091-.206.096-.473.105-.617l.006-.06c.018-.13.054-.369.2-.405zm.853-7.464s-1.845 2.937-2.008 2.993c-.163.055-.325-.588-.325-.588-.344 1.34.579 1.524.687 1.102.507-.129 1.375-.68 1.719-1.065.343-.404.162-1.157-.47-1.285.162-.386.397-1.157.397-1.157zm1.02-3.162l-1.198 1.835h.016c.086-.006.482-.063.932-.593.412-.5.25-1.242.25-1.242z" fill="#FFF" fill-rule="evenodd"/></svg>