<svg width="32" height="32" viewBox="0 0 32 32" xmlns="http://www.w3.org/2000/svg"><path d="M16 0c8.837 0 16 7.163 16 16s-7.163 16-16 16S0 24.837 0 16 7.163 0 16 0zm.243 7h-.473c-.592 0-1.039.343-1.341 1.042l-2.327 5.896h-1.761c-.528.002-.956.448-.96 1v.014c.004.553.432.999.96 1.001h.946l-2.221 5.621a1.235 1.235 0 00-.066.384c0 .315.092.562.263.754.17.192.407.288.71.288a.933.933 0 00.552-.192c.17-.123.289-.302.38-.507l2.446-6.348h1.696c.527-.002.955-.449.96-1.001v-.027c-.005-.553-.433-1-.96-1.001h-.907l1.866-4.867L21.093 22.3c.092.205.21.384.381.507.161.122.354.19.553.192.302 0 .539-.096.71-.288.17-.192.262-.439.262-.754a.944.944 0 00-.065-.384l-5.35-13.532C17.28 7.342 16.834 7 16.243 7z" fill="#FFF" fill-rule="evenodd"/></svg>