<svg width="32" height="32" viewBox="0 0 32 32" fill="none" xmlns="http://www.w3.org/2000/svg">
<path fill-rule="evenodd" clip-rule="evenodd" d="M32 16C32 24.8365 24.8365 32 16 32C7.1635 32 0 24.8365 0 16C0 7.1635 7.1635 0 16 0C24.8365 0 32 7.1635 32 16ZM7.38479 21.4998H4L8.89765 10.4998H12.282L7.38479 21.4998ZM20.4998 21.4998H23.8846L28.7822 10.4998H25.3974L20.4998 21.4998ZM12.8846 21.4998H9.49978L16.8462 5H20.231L12.8846 21.4998ZM12.5512 27H15.936L23.282 10.4998H19.8972L12.5512 27Z" fill="white"/>
</svg>
