<svg width="32" height="32" viewBox="0 0 32 32" fill="none" xmlns="http://www.w3.org/2000/svg">
<path fill-rule="evenodd" clip-rule="evenodd" d="M31.4585 15.9871C31.4585 24.5318 24.5317 31.4585 15.9871 31.4585C7.4425 31.4585 0.515717 24.5318 0.515717 15.9871C0.515717 7.44253 7.4425 0.515747 15.9871 0.515747C24.5317 0.515747 31.4585 7.44253 31.4585 15.9871ZM14.9815 9.05078C15.0846 8.71557 15.2393 8.53507 15.3682 8.43193C15.4972 8.32879 15.6519 8.25143 15.9871 8.25143C16.3223 8.25143 16.5028 8.32879 16.6317 8.43193C16.7607 8.53507 16.9154 8.71557 17.0185 9.05078C17.1217 9.386 17.689 11.0363 18.411 13.0991H13.589C14.311 11.0363 14.8783 9.386 14.9815 9.05078ZM11.5262 13.0991H8.25141C7.7357 13.0991 7.29734 13.5375 7.29734 14.079C7.29734 14.6205 7.70991 15.0588 8.25141 15.0588H10.8815H12.9186H19.0814H21.1185H23.7228C24.2643 15.0588 24.7027 14.6205 24.7027 14.079C24.7027 13.5375 24.2643 13.0991 23.7228 13.0991H20.3965C19.5971 10.7269 18.9267 8.79293 18.7977 8.43193C18.5915 7.81307 18.2562 7.27157 17.7405 6.88479C17.2248 6.47222 16.606 6.3175 15.9613 6.3175C15.3167 6.3175 14.6978 6.498 14.1821 6.88479C13.6664 7.27157 13.3312 7.81307 13.1249 8.43193C13.0672 8.6339 12.8239 9.33627 12.4807 10.3268C12.2105 11.1068 11.8783 12.0654 11.5262 13.0991ZM7.29734 17.9468C7.29734 17.4053 7.70991 16.967 8.25141 16.967H10.2627H12.2998H19.7776H21.8147H23.7744C24.3159 16.967 24.7542 17.4053 24.7542 17.9468C24.7542 18.4883 24.3159 18.9267 23.7744 18.9267H22.4851L23.0008 20.4223L23.5165 21.9178L23.7228 22.4851C23.9033 23.0008 23.6454 23.5423 23.1297 23.7228C22.614 23.9033 22.0725 23.6455 21.892 23.1298L21.8725 23.076L21.6857 22.5625L21.17 21.0669C20.938 20.448 20.6801 19.7003 20.4222 18.9267H11.6035C11.5749 19.0075 11.5465 19.0875 11.5184 19.1666C11.2683 19.8709 11.0412 20.5106 10.8558 21.0669L10.34 22.5625L10.1338 23.1298C9.95326 23.6197 9.41176 23.9033 8.89605 23.7228C8.40612 23.5423 8.12248 23.0008 8.30298 22.4851L8.50927 21.9178L9.02498 20.4223L9.54069 18.9267H8.25141C7.7357 18.9267 7.29734 18.4883 7.29734 17.9468Z" fill="white"/>
</svg>
