<?xml version="1.0" encoding="UTF-8"?>
<svg width="32px" height="32px" viewBox="0 0 32 32" version="1.1" xmlns="http://www.w3.org/2000/svg" xmlns:xlink="http://www.w3.org/1999/xlink">
    <title>svg/white/ampl</title>
    <g id="white/ampl" stroke="none" stroke-width="1" fill="none" fill-rule="evenodd">
        <path d="M16,-3.3553407e-15 C24.836556,-3.3553407e-15 32,7.163444 32,16 C32,24.836556 24.836556,32 16,32 C7.163444,32 0,24.836556 0,16 C0,7.163444 7.163444,-3.3553407e-15 16,-3.3553407e-15 Z M16.5825711,6 C16.3011461,6.07322665 16.0285659,6.15078391 15.7527694,6.22716009 C15.7358839,6.26652926 15.7189984,6.30589843 15.7041231,6.34526759 C14.9563367,8.28669245 14.193809,10.2229993 13.41654,12.1541882 L13.41654,12.1541882 L10.9580917,18.2469605 C10.7192825,18.8377604 10.4792672,19.4275106 10.2380458,20.0162108 C10.1189654,20.3078097 9.98354142,20.5927509 9.8323918,20.8697344 C9.72489518,21.0708718 9.59822679,21.2616105 9.45407621,21.4394062 C9.24582148,21.693483 8.97294623,21.8894112 8.66286996,22.0075033 C8.59975036,22.0319122 8.53582668,22.0535652 8.47150097,22.0740372 C8.23624879,22.1439099 7.99686042,22.1996553 7.75467132,22.2409625 C7.6713668,22.2502362 7.58912856,22.267107 7.50902751,22.291355 C7.49635393,22.5274256 7.49702502,22.764002 7.51103769,23 L7.51103769,22.9988189 L13.202255,22.9988189 C13.2221147,22.9967181 13.2418434,22.9935639 13.2613542,22.9893703 C13.2653283,22.9775848 13.2681551,22.9654575 13.269797,22.9531507 L13.269797,22.9531507 L13.269797,22.3354485 C13.2678961,22.3190756 13.26412,22.3029641 13.25854,22.2874181 C13.2396443,22.2838749 13.2259751,22.281119 13.2119039,22.2787569 C12.9935985,22.2445057 12.7752931,22.2149788 12.5577918,22.1756096 C12.3608368,22.1437221 12.1671174,22.09498 11.9788604,22.0299437 C11.8605909,21.9905878 11.7488452,21.9344819 11.6471809,21.8634121 C11.4924777,21.7528017 11.3922758,21.5836943 11.3709824,21.3972812 C11.3544301,21.2548932 11.3587623,21.1109187 11.3838475,20.9697321 C11.4154407,20.7583952 11.4652019,20.5500482 11.5326008,20.3469118 C11.7062802,19.8162155 11.8835779,19.2851254 12.0681123,18.7571849 C12.5280411,17.4406799 13.022143,16.135592 13.5154408,14.8305042 C14.1836241,13.0675529 14.8554258,11.3061763 15.4854157,9.5302332 C15.4908127,9.51004454 15.498782,9.49060098 15.5091358,9.47236053 C15.5187847,9.46054978 15.5364742,9.4546444 15.5493394,9.44677057 C15.589945,9.48220282 15.5943674,9.5255089 15.6080366,9.56487807 C16.8972311,13.1768679 18.2007648,16.7837398 19.5186378,20.3854936 C19.5845717,20.5693476 19.6549279,20.7528079 19.7051824,20.9421736 C19.7388353,21.0634637 19.7614378,21.1874372 19.7727244,21.3126375 C19.7940323,21.5882217 19.6931213,21.803571 19.441849,21.9425442 C19.3957845,21.9691564 19.3476609,21.9921923 19.2979202,22.0114402 C19.1982154,22.0480535 19.0973044,22.0842732 18.9947853,22.1122253 C18.7396351,22.1772516 18.4806353,22.2268194 18.2192584,22.260647 C18.1648771,22.2658794 18.1110673,22.2757594 18.0584442,22.2901739 C18.054617,22.2991688 18.0517866,22.3085398 18.0500014,22.318126 L18.0500014,22.318126 L18.0500014,22.9566939 C18.0527675,22.9715868 18.0576387,22.9860297 18.0644747,22.9996063 L18.0644747,22.9996063 L24.4266896,22.9996063 C24.4471934,22.9984252 24.4672952,22.9937009 24.4930255,22.989764 C24.4984686,22.9123278 24.5,22.8346731 24.4974479,22.7570922 C24.4974479,22.6767791 24.5,22.5917417 24.4974479,22.5161529 C24.4950356,22.4405641 24.510715,22.3645816 24.4849847,22.2858433 L24.4849847,22.2858433 L24.3040687,22.2598597 C24.0497636,22.2266444 23.7978556,22.1777292 23.5498497,22.1134064 C23.0889364,21.9968618 22.6899266,21.714255 22.4325925,21.3220861 C22.3489691,21.1968922 22.2705721,21.0673676 22.1986077,20.9350872 C22.0347551,20.6252118 21.8915979,20.3052563 21.7700377,19.9772354 C21.4612743,19.1743668 21.1550571,18.3704484 20.8513861,17.5654802 C19.7405615,14.6210602 18.6570753,11.6667979 17.5776095,8.71096084 C17.2613414,7.84300194 16.9448053,6.97596165 16.6280012,6.10983998 C16.615136,6.07440773 16.5994566,6.03936917 16.5825711,6 Z" id="Combined-Shape" fill="#FFFFFF"></path>
    </g>
</svg>