<svg width="32" height="32" viewBox="0 0 32 32" fill="none" xmlns="http://www.w3.org/2000/svg">
<path d="M16 0C7.1616 0 0 7.1616 0 16C0 24.8384 7.1616 32 16 32C24.8384 32 32 24.8384 32 16C32 7.1616 24.8384 0 16 0ZM8.7776 11.864C8.7776 9.8864 10.3808 8.2944 12.3712 8.2944H16.4704H20.5696C21.5072 8.2944 22.408 8.6624 23.0768 9.32L18.8816 11.4304H13.1056C12.4544 11.4304 11.936 11.9008 11.936 12.4672V15.0352L8.7888 16.6752V11.864H8.7776ZM24.1264 17.2064C24.1264 19.184 22.5232 20.776 20.5568 20.776H11.9248V23.8272C11.9248 24.3456 11.5392 24.768 11.08 24.8768L10.0064 24.9008H8.776V19.5952L12.888 17.4496H19.7968C20.448 17.4496 20.9904 16.9792 20.9904 16.4V13.2624L24.1248 11.6832L24.1264 17.2064Z" fill="white"/>
</svg>
