<svg width="32" height="32" viewBox="0 0 32 32" xmlns="http://www.w3.org/2000/svg"><path d="M16 32C7.163 32 0 24.837 0 16S7.163 0 16 0s16 7.163 16 16-7.163 16-16 16zm-1.605-8.418c.421 1.813.994 2.927 1.625 2.927.995 0 1.846-2.776 2.186-6.693 3.56 1.67 6.39 2.324 6.89 1.461.499-.861-1.477-2.99-4.695-5.248 3.23-2.245 5.213-4.365 4.718-5.23-.32-.557-1.614-.486-3.45.078a.711.711 0 0 0-.614-.361.728.728 0 0 0-.712.82c-.67.254-1.386.558-2.135.905-.34-3.926-1.191-6.71-2.188-6.71-.996 0-1.846 2.776-2.186 6.692-3.56-1.669-6.391-2.323-6.89-1.46-.312.54.344 1.576 1.669 2.828a.766.766 0 0 0-.022.183c0 .409.32.74.715.74a.692.692 0 0 0 .284-.06 31.631 31.631 0 0 0 2.049 1.557c-3.23 2.245-5.213 4.365-4.717 5.23.496.864 3.335.217 6.91-1.442.076.879.178 1.701.3 2.448a.747.747 0 0 0-.309.61c0 .357.246.656.572.725zm.464-.063a.743.743 0 0 0 .396-.663.73.73 0 0 0-.674-.739c-.124-.8-.212-1.671-.273-2.543a43.428 43.428 0 0 0 1.705-.868c.592.32 1.173.619 1.738.893a42.963 42.963 0 0 1-.377 2.912c-.497 2.814-1.192 3.406-1.192 3.406-.148.198-.297.05-.297.05-.596-.692-.894-1.975-.894-1.975a9.193 9.193 0 0 1-.132-.473zm-4.917-9.405a.758.758 0 0 0 .08-.34c0-.41-.32-.74-.716-.74a.697.697 0 0 0-.426.145c-1.386-1.33-1.505-1.981-1.505-1.981v-.002c-.097-.228.106-.283.106-.283.897-.17 2.157.217 2.157.217 1.185.27 2.69.904 4.154 1.618a43.36 43.36 0 0 0-.098 1.924c-.571.35-1.119.702-1.637 1.053a45.36 45.36 0 0 1-2.115-1.61zM20.56 11.79a.701.701 0 0 0 .496.207c.356 0 .651-.27.706-.622 1.83-.574 2.572-.507 2.832-.436a.185.185 0 0 1 .135.198c-.05.537-1 1.507-1 1.507a29.526 29.526 0 0 1-3.72 3.113 43.305 43.305 0 0 0-1.663-1.08 43.344 43.344 0 0 0-.097-1.935 40.542 40.542 0 0 1 2.31-.952zm-.574 4.524c3.981 2.888 4.625 4.191 4.726 4.578a.185.185 0 0 1-.103.215c-.49.225-1.805-.11-1.805-.11a29.616 29.616 0 0 1-4.558-1.661c.047-.631.08-1.29.1-1.967.573-.35 1.12-.704 1.64-1.055zm-6.303.518a38.497 38.497 0 0 1-1.191-.8c.4-.263.8-.518 1.19-.76a47.517 47.517 0 0 0 .001 1.56zm.012.53c.02.667.052 1.314.098 1.936a42.6 42.6 0 0 1-2.73 1.127c-2.687.968-3.547.66-3.547.66-.246-.03-.19-.234-.19-.234.302-.86 1.266-1.758 1.266-1.758.827-.89 2.13-1.875 3.48-2.783.514.35 1.057.703 1.623 1.053zm4.664-2.12c.513.305.818.496.818.496.146.103.289.203.427.302-.477.328-.9.602-1.246.816a47.441 47.441 0 0 0 .001-1.615zm-.563 3.884c-.521-.247-.97-.477-1.326-.667a47.51 47.51 0 0 0 1.426-.818c-.024.512-.06 1.012-.1 1.485zm-3.585-1.45a47.58 47.58 0 0 0 1.341.776c-.434.223-.864.432-1.276.624a53.88 53.88 0 0 1-.065-1.4zm-.016-.52a71.817 71.817 0 0 1-.023-2.184 71.966 71.966 0 0 1 1.832-1.076c.732.4 1.392.778 1.918 1.086.004.334 0 .52 0 .52a26.59 26.59 0 0 1-.006 1.622c-.317.19-.5.288-.5.288a26.69 26.69 0 0 1-1.401.799c-.323-.18-.5-.29-.5-.29a26 26 0 0 1-1.32-.766zm2.327-3.551c.52-.29.839-.458.839-.458.156-.073.31-.144.46-.212.047.571.073 1.071.087 1.474a47.467 47.467 0 0 0-1.386-.804zm-2.284-.636c.43.216.854.436 1.26.653a47.584 47.584 0 0 0-1.32.759c.007-.594.02-.953.02-.953l.04-.46zm.052-.529c.503-4.892 1.308-6.103 1.592-6.385a.185.185 0 0 1 .238-.019c.44.313.81 1.617.81 1.617.467 1.736.716 3.427.848 4.792a44.56 44.56 0 0 0-1.75.888 43.16 43.16 0 0 0-1.738-.893zm1.706 4.789a1.234 1.234 0 1 0 0-2.468 1.234 1.234 0 0 0 0 2.468z" fill="#FFF"/></svg>