<svg width="32" height="32" viewBox="0 0 32 32" fill="none" xmlns="http://www.w3.org/2000/svg">
<path fill-rule="evenodd" clip-rule="evenodd" d="M16 32C24.8365 32 32 24.8365 32 16C32 7.1635 24.8365 0 16 0C7.1635 0 0 7.1635 0 16C0 24.8365 7.1635 32 16 32ZM13.5965 7.0006C13.3578 7.00055 13.1191 7.0005 12.8804 7.00127C12.8799 7.20019 12.8802 7.3991 12.8805 7.59802C12.8809 7.92132 12.8814 8.24461 12.8783 8.56791C12.8426 10.1093 12.7466 11.6518 12.5162 13.1769C12.3323 14.3768 12.0618 15.5749 11.5565 16.6842C11.1273 17.6493 10.5618 18.5577 9.85246 19.3425C9.16544 20.1027 8.3493 20.7476 7.44264 21.2269C6.67844 21.6283 5.85581 21.9319 5 22.0607C5.00072 22.9432 5.00072 23.826 5 24.7085C5.71083 24.6083 6.40904 24.4283 7.08741 24.1946C8.28655 23.7802 9.4269 23.1682 10.3822 22.3276C11.4501 21.4205 12.4001 20.3422 13.0045 19.0681C13.3752 18.2772 13.6738 17.4444 13.8181 16.5807C14.028 15.3282 14.1073 14.0584 14.1672 12.7914C14.2036 11.914 14.2285 11.0358 14.2238 10.1573C14.2235 9.72391 14.2237 9.29056 14.2238 8.85721C14.224 8.2382 14.2242 7.61919 14.2231 7.00019C14.0142 7.00069 13.8054 7.00065 13.5965 7.0006ZM16.3012 7.00041H16.3012C16.6125 7.00074 16.9239 7.00107 17.2352 7.00052C17.2356 12.9032 17.2356 18.8058 17.2352 24.7081C16.933 24.7088 16.6307 24.7084 16.3284 24.7081H16.3267C15.8075 24.7074 15.2882 24.7068 14.7691 24.7114C14.7626 23.5431 14.7637 22.3747 14.7647 21.2063C14.7653 20.4923 14.7659 19.7783 14.7648 19.0644C14.7644 17.4561 14.7645 15.8477 14.7647 14.2394V14.2394C14.7649 11.8272 14.7651 9.41501 14.7634 7.00268C15.2759 6.99932 15.7885 6.99986 16.3012 7.00041ZM17.9761 7.00072C17.9125 7.00078 17.8488 7.00084 17.7852 7.00089C17.7849 7.64574 17.785 8.29074 17.7851 8.9357C17.7851 9.25815 17.7852 9.58059 17.7852 9.903C17.774 11.6128 17.8321 13.3244 17.9868 15.0277C18.0668 15.8161 18.1548 16.6084 18.3611 17.3752C18.5862 18.1379 18.8736 18.8859 19.2674 19.578C19.7709 20.467 20.4413 21.2521 21.1904 21.9427C21.6448 22.3607 22.118 22.761 22.638 23.0953C23.3506 23.5588 24.1264 23.9201 24.9285 24.1993C25.6021 24.4283 26.2942 24.6101 27 24.706C26.9993 23.8238 26.9996 22.9417 27 22.0596C26.6408 22.0073 26.2874 21.9204 25.9419 21.81C24.7034 21.4133 23.5634 20.7238 22.6229 19.8268C21.6379 18.8888 20.882 17.7254 20.3577 16.4736C19.8044 15.1796 19.557 13.7806 19.3814 12.3918C19.1668 10.6037 19.1055 8.80087 19.1199 7.00125C18.7388 7.00002 18.3575 7.00037 17.9761 7.00072Z" fill="white"/>
</svg>
