<svg xmlns="http://www.w3.org/2000/svg" width="32" height="32" viewBox="0 0 32 32"><path fill="#FFF" fill-rule="evenodd" d="M16,32 C7.163444,32 0,24.836556 0,16 C0,7.163444 7.163444,0 16,0 C24.836556,0 32,7.163444 32,16 C32,24.836556 24.836556,32 16,32 Z M24.5,19.2673835 L24.5,11.0666667 L16,6 L7.5,11.0666667 L7.5,21.0222222 L16,26 L23.0151183,21.8918 L15.4769231,17.4222222 L16.8418761,16.6666667 L16.8418761,8.76704233 L22.5820513,12.1886369 L22.5820513,15.8222222 L20.7948718,14.767492 L20.3153846,16.7555556 L24.5,19.2673835 Z M9.41794872,12.1886369 L14.9358072,8.89956049 L14.9358072,15.4666667 L9.41794872,18.6666667 L9.41794872,12.1886369 Z M13.5153846,18.5333333 L19.1746935,21.8856712 L16,23.7448381 L10.3770677,20.4519313 L13.5153846,18.5333333 Z"/></svg>