<svg width="32" height="32" viewBox="0 0 32 32" fill="none" xmlns="http://www.w3.org/2000/svg">
<path fill-rule="evenodd" clip-rule="evenodd" d="M16 32C24.8366 32 32 24.8366 32 16C32 7.16344 24.8366 0 16 0C7.16344 0 0 7.16344 0 16C0 24.8366 7.16344 32 16 32ZM25.153 22.2509C22.052 26.999 15.75 28.6497 10.7419 25.84C8.84683 24.821 7.38126 23.3121 6.40518 21.55C5.46037 19.9189 4.91953 18.0246 4.91953 16.004C4.91953 9.88446 9.88042 4.92356 16 4.92356C22.1196 4.92356 27.0805 9.88446 27.0805 16.004C27.0805 18.3213 26.3692 20.4724 25.153 22.2509Z" fill="white"/>
<path d="M7.61876 14.1375C7.92863 14.1375 8.17983 13.8863 8.17983 13.5765C8.17983 13.2666 7.92863 13.0154 7.61876 13.0154C7.30888 13.0154 7.05768 13.2666 7.05768 13.5765C7.05768 13.8863 7.30888 14.1375 7.61876 14.1375Z" fill="white"/>
<path d="M15.9484 24.1568C16.2583 24.1568 16.5095 23.9056 16.5095 23.5957C16.5095 23.2859 16.2583 23.0347 15.9484 23.0347C15.6385 23.0347 15.3873 23.2859 15.3873 23.5957C15.3873 23.9056 15.6385 24.1568 15.9484 24.1568Z" fill="white"/>
<path d="M12.4239 25.0385C12.9547 25.0385 13.385 24.6079 13.385 24.0767C13.385 23.5454 12.9547 23.1148 12.4239 23.1148C11.8931 23.1148 11.4628 23.5454 11.4628 24.0767C11.4628 24.6079 11.8931 25.0385 12.4239 25.0385Z" fill="white"/>
<circle cx="16.0674" cy="16.1486" r="5.18829" fill="white"/>
<path d="M29.9317 13.4798C27.452 15.3574 23.9196 14.8691 22.0421 12.3893C20.1645 9.90956 20.6528 6.37723 23.1326 4.49969C25.6123 2.62214 24.6546 6.50996 26.5321 8.98975C28.4097 11.4695 32.4115 11.6023 29.9317 13.4798Z" fill="white"/>
</svg>
