<svg width="32" height="32" viewBox="0 0 32 32" fill="none" xmlns="http://www.w3.org/2000/svg">
<path fill-rule="evenodd" clip-rule="evenodd" d="M32 16C32 24.8366 24.8366 32 16 32C7.16344 32 0 24.8366 0 16C0 7.16344 7.16344 0 16 0C24.8366 0 32 7.16344 32 16ZM21.1494 8.89301C22.2056 9.66607 22.8928 10.9253 22.8928 12.3479C22.8928 13.898 22.0721 15.2568 20.851 16.01C22.0721 16.7551 22.8928 18.11 22.8928 19.6601C22.8928 22.0072 21.012 23.9199 18.6955 23.9199H11.7458L9.6962 26H8L18.4481 15.3963H18.6955C20.3485 15.3963 21.6952 14.0295 21.6952 12.3519C21.6952 11.264 21.1298 10.3076 20.2856 9.76967L10.8977 19.2975V8.08807H18.6955C19.1627 8.08807 19.6103 8.16378 20.0304 8.30723L22.296 6.00797L24 6L21.1494 8.89301ZM12.0952 9.30345V16.3566L19.0292 9.32337C18.9193 9.31142 18.8093 9.30345 18.6955 9.30345H12.0952ZM18.6955 22.6966C20.3485 22.6966 21.6952 21.3297 21.6952 19.6521C21.6952 18.0542 20.4663 16.7511 18.9193 16.6316L12.9433 22.6966H18.6955Z" fill="white"/>
</svg>
