<svg width="32" height="32" viewBox="0 0 32 32" fill="none" xmlns="http://www.w3.org/2000/svg">
<path fill-rule="evenodd" clip-rule="evenodd" d="M32 16C32 24.8365 24.8365 32 16 32C7.1635 32 0 24.8365 0 16C0 7.1635 7.1635 0 16 0C24.8365 0 32 7.1635 32 16ZM19.25 7H10C8.34315 7 7 8.34315 7 10V22C7 23.6569 8.34315 25 10 25H19.25C20.9069 25 22.25 23.6569 22.25 22V19.25H24C24.5523 19.25 25 18.8023 25 18.25V13.75C25 13.1977 24.5523 12.75 24 12.75H22.25V10C22.25 8.34315 20.9069 7 19.25 7Z" fill="white"/>
<path d="M22.25 12.75V19.25H12.25C11.6977 19.25 11.25 18.8023 11.25 18.25V13.75C11.25 13.1977 11.6977 12.75 12.25 12.75H22.25Z" fill="white"/>
</svg>
