<svg height="32" width="32" xmlns="http://www.w3.org/2000/svg"><path d="M16 32C7.163 32 0 24.837 0 16S7.163 0 16 0s16 7.163 16 16-7.163 16-16 16zm-1.878-11.174a2.018 2.018 0 00-.258.99c0 1.115.903 2.023 2.034 2.065v.37a.885.885 0 00-.816.873c0 .484.402.876.898.876a.887.887 0 00.898-.876.883.883 0 00-.735-.863v-.385c1.092-.081 1.953-.972 1.953-2.06 0-.36-.095-.7-.262-.995l1.534-.863c.372.522.992.864 1.693.864.708 0 1.333-.348 1.704-.879l.513.29a.856.856 0 00-.074.349c0 .484.402.876.898.876s.898-.392.898-.876-.402-.877-.898-.877a.905.905 0 00-.697.324l-.514-.29c.149-.279.233-.595.233-.93 0-1.105-.913-2.003-2.042-2.013v-1.618c1.115-.01 2.015-.896 2.015-1.987 0-.32-.078-.623-.216-.891l.5-.318a.904.904 0 00.721.353c.496 0 .898-.393.898-.877s-.402-.876-.898-.876a.887.887 0 00-.898.876c0 .11.021.216.06.314l-.506.321a2.047 2.047 0 00-1.697-.889c-.717 0-1.347.362-1.71.908l-1.53-.861c.141-.273.221-.582.221-.908 0-1.072-.858-1.948-1.94-2.01v-.588a.884.884 0 00.776-.869A.887.887 0 0015.98 6a.887.887 0 00-.898.876c0 .444.337.81.775.869v.588c-1.082.062-1.94.938-1.94 2.01 0 .325.08.633.22.905l-1.533.85a2.048 2.048 0 00-1.686-.874c-.687 0-1.295.333-1.663.842l-.52-.29a.856.856 0 00.06-.318.887.887 0 00-.897-.876c-.496 0-.898.392-.898.876s.402.877.898.877a.904.904 0 00.718-.35l.51.284a1.94 1.94 0 00-.243.942c0 1.07.867 1.944 1.954 1.986v1.554c-1.116.042-2.008.938-2.008 2.038 0 .357.094.692.26.984l-.481.272a.904.904 0 00-.71-.34c-.496 0-.898.393-.898.877s.402.876.898.876a.887.887 0 00.898-.876.856.856 0 00-.066-.33l.489-.277c.379.517.999.853 1.7.853.699 0 1.318-.335 1.697-.85zm.13-.203l-1.505-.847c.166-.293.26-.63.26-.987 0-1.073-.848-1.952-1.925-2.033v-1.564c1.048-.081 1.872-.937 1.872-1.98a1.94 1.94 0 00-.225-.91l1.531-.847c.37.543 1.002.9 1.72.9.716 0 1.348-.356 1.717-.898l1.534.863a1.94 1.94 0 00-.205.871c0 1.024.792 1.866 1.81 1.975v1.641c-1.033.11-1.837.964-1.837 2.002 0 .342.087.663.24.945l-1.535.865a2.13 2.13 0 00-1.724-.868 2.13 2.13 0 00-1.728.872zm-3.334-.766a1.082 1.082 0 01-1.094-1.068c0-.59.49-1.068 1.094-1.068.605 0 1.095.478 1.095 1.068 0 .59-.49 1.068-1.095 1.068zm0-5.605c-.589 0-1.066-.466-1.066-1.04s.477-1.042 1.066-1.042c.59 0 1.067.466 1.067 1.041s-.478 1.041-1.067 1.041zm5.062-2.855c-.597 0-1.08-.472-1.08-1.054 0-.583.483-1.055 1.08-1.055.596 0 1.08.472 1.08 1.055 0 .582-.484 1.054-1.08 1.054zm5.081 2.835a1.054 1.054 0 01-1.066-1.04c0-.576.477-1.042 1.066-1.042s1.067.466 1.067 1.041-.478 1.041-1.067 1.041zm0 5.631c-.596 0-1.08-.472-1.08-1.054 0-.583.484-1.055 1.08-1.055.597 0 1.08.472 1.08 1.055 0 .582-.483 1.054-1.08 1.054zM15.98 22.9c-.613 0-1.109-.485-1.109-1.082s.496-1.082 1.109-1.082c.612 0 1.108.484 1.108 1.082S16.592 22.9 15.98 22.9zm0-3.98c1.652 0 2.99-1.307 2.99-2.919s-1.338-2.92-2.99-2.92c-1.652 0-2.991 1.308-2.991 2.92s1.339 2.92 2.99 2.92zm0-1.775c-.648 0-1.173-.512-1.173-1.144s.525-1.144 1.173-1.144c.647 0 1.172.512 1.172 1.144s-.525 1.144-1.172 1.144z" fill="#fff" fill-rule="evenodd"/></svg>