<svg height="32" viewBox="0 0 32 32" width="32" xmlns="http://www.w3.org/2000/svg"><path d="m16 32c-8.836556 0-16-7.163444-16-16s7.163444-16 16-16 16 7.163444 16 16-7.163444 16-16 16zm-1.8775059-11.1742192c-.1651062.2941767-.2589839.6318634-.2589839.9909523 0 1.1140614.9036015 2.0221204 2.034449 2.0639893v.3698627c-.4576735.0402573-.8163265.4157063-.8163265.8729209 0 .4840743.40203.876494.8979591.876494.4959292 0 .8979592-.3924197.8979592-.876494 0-.4296526-.3167154-.7871005-.7346939-.8620418v-.3852896c1.0923896-.0813603 1.9528164-.9723211 1.9528164-2.0594415 0-.360972-.0948649-.7003167-.2615873-.9955767l1.5337162-.8629305c.372628.5220569.9921521.8636865 1.6934221.8636865.7078851 0 1.3324747-.3481052 1.703901-.8785082l.5128113.2896056c-.0475142.1068532-.0738552.2247558-.0738552.3486635 0 .4840743.4020301.876494.8979592.876494.4959292 0 .8979592-.3924197.8979592-.876494s-.40203-.876494-.8979592-.876494c-.2811523 0-.5321255.1261231-.696776.3235678l-.5141697-.2903728c.1485798-.2780843.2325784-.5942719.2325784-.9296094 0-1.1051829-.9123809-2.0023618-2.0420408-2.0130509v-1.6175249c1.1148944-.0106881 2.0153061-.8961834 2.0153061-1.986954 0-.3204496-.077713-.6231822-.2157467-.8912213l.5004978-.3184516c.1637028.2143133.4254223.3530992.7203509.3530992.4959292 0 .8979592-.3924198.8979592-.8764941s-.40203-.876494-.8979592-.876494c-.4959291 0-.8979592.3924197-.8979592.876494 0 .1104413.0209265.2161117.0591203.3134395l-.5051645.3214209c-.3646516-.535726-.9884848-.8888444-1.6968129-.8888444-.7167747 0-1.3470272.3615902-1.709747.908087l-1.5308165-.861299c.1415949-.2728945.2213798-.5815235.2213798-.9083418 0-1.07170498-.8579428-1.94781671-1.94-2.00965809v-.58806454c.4380022-.05829402.7755102-.42488101.7755102-.86841285 0-.48407428-.40203-.87649402-.8979592-.87649402-.4959291 0-.8979591.39241974-.8979591.87649402 0 .44353184.3375079.81011883.7755102.86841285v.58806454c-1.0820572.06184138-1.94.93795311-1.94 2.00965809 0 .3258069.0792918.633537.220067.9058073l-1.5327707.8488916c-.3660848-.5269595-.9846507-.8732248-1.6860719-.8732248-.68735 0-1.29513574.3325119-1.66373638.8417305l-.51958181-.2898066c.03930343-.0985457.06086926-.2057446.06086926-.3178602 0-.4840743-.40203002-.876494-.89795919-.876494-.49592916 0-.89795918.3924197-.89795918.876494s.40203002.8764941.89795918.8764941c.29342557 0 .55397973-.137375.71784054-.3498285l.50971069.2843008c-.15492737.2803395-.24285735.6011575-.24285735.9420217 0 1.0707316.86763188 1.9436611 1.95408164 1.9854833l-.0000006 1.5543914c-1.11604422.041854-2.00765247.9382001-2.00765247 2.0378145 0 .356951.09395293.6924826.25903738.984319l-.48052339.2713713c-.16427884-.2064844-.42106076-.3393556-.70963644-.3393556-.49592916 0-.89795918.3924197-.89795918.876494s.40203002.876494.89795918.876494c.49592917 0 .89795919-.3924197.89795919-.876494 0-.116783-.02339879-.2282315-.06586987-.3301225l.48891639-.2761111c.37906954.5163268.99898621.8527476 1.69940241.8527476.6992249 0 1.3182239-.3352773 1.6974661-.8501145zm.1299923-.2027739-1.5054628-.847034c.1660723-.2924916.2606295-.6290314.2606295-.9871283 0-1.0726683-.8484459-1.9519085-1.9260204-2.0332078v-1.5637272c1.0479547-.0811728 1.8724489-.9369797 1.8724489-1.9807542 0-.3272469-.0810448-.6360172-.2246117-.9082311l1.5308966-.8478536c.3694225.5428674 1.0015116.9007062 1.7192253.9007062.716675 0 1.3479731-.3568038 1.7176198-.8983504l1.5337178.8629314c-.1315763.2629749-.2054192.5585087-.2054192.8708772 0 1.0233611.7925599 1.866035 1.8112245 1.9751072v1.6410631c-1.0334612.1091928-1.8379592.9635717-1.8379592 2.0013595 0 .3417388.0872361.6635895.2411575.9454926l-1.5363827.8644309c-.383678-.5250802-1.0128563-.8674533-1.7239585-.8674533-.7130497 0-1.3437263.3442511-1.7271054.8717718zm-3.3341191-.7659352c-.6044136 0-1.09438771-.4782615-1.09438771-1.0682271 0-.5899655.48997411-1.0682271 1.09438771-1.0682271.6044137 0 1.0943878.4782616 1.0943878 1.0682271 0 .5899656-.4899741 1.0682271-1.0943878 1.0682271zm0-5.6050797c-.5889158 0-1.06632648-.4659984-1.06632648-1.0408366s.47741068-1.0408367 1.06632648-1.0408367c.5889159 0 1.0663266.4659985 1.0663266 1.0408367s-.4774107 1.0408366-1.0663266 1.0408366zm5.0612245-2.8547808c-.5966929 0-1.0804081-.4721523-1.0804081-1.0545817 0-.58242939.4837152-1.05458169 1.0804081-1.05458169.596693 0 1.0804082.4721523 1.0804082 1.05458169 0 .5824294-.4837152 1.0545817-1.0804082 1.0545817zm5.0816327 2.8348605c-.5889159 0-1.0663265-.4659984-1.0663265-1.0408366 0-.5748383.4774106-1.0408367 1.0663265-1.0408367s1.0663265.4659984 1.0663265 1.0408367c0 .5748382-.4774106 1.0408366-1.0663265 1.0408366zm0 5.6312749c-.596693 0-1.0804082-.4721523-1.0804082-1.0545817 0-.5824293.4837152-1.0545816 1.0804082-1.0545816.5966929 0 1.0804082.4721523 1.0804082 1.0545816 0 .5824294-.4837153 1.0545817-1.0804082 1.0545817zm-5.0816327 3.0352988c-.6121569 0-1.1084081-.4843886-1.1084081-1.0819123s.4962512-1.0819124 1.1084081-1.0819124c.612157 0 1.1084082.4843887 1.1084082 1.0819124s-.4962512 1.0819123-1.1084082 1.0819123zm0-3.9790637c1.6519288 0 2.9910817-1.3071413 2.9910817-2.9195817s-1.3391529-2.9195817-2.9910817-2.9195817c-1.6519287 0-2.9910816 1.3071413-2.9910816 2.9195817s1.3391529 2.9195817 2.9910816 2.9195817zm0-1.7754184c-.6473791 0-1.1721836-.5122593-1.1721836-1.1441633s.5248045-1.1441633 1.1721836-1.1441633c.6473792 0 1.1721837.5122593 1.1721837 1.1441633s-.5248045 1.1441633-1.1721837 1.1441633z" fill="#fff" fill-rule="evenodd"/></svg>