<svg height="32" viewBox="0 0 32 32" width="32" xmlns="http://www.w3.org/2000/svg"><path d="m16 32c-8.836556 0-16-7.163444-16-16s7.163444-16 16-16 16 7.163444 16 16-7.163444 16-16 16zm0-5c6.0751322 0 11-4.9248678 11-11 0-6.07513225-4.9248678-11-11-11-6.07513225 0-11 4.92486775-11 11 0 6.0751322 4.92486775 11 11 11zm0-1.102367c-5.4663117 0-9.89763295-4.4313213-9.89763295-9.897633s4.43132125-9.89763295 9.89763295-9.89763295 9.897633 4.43132125 9.897633 9.89763295-4.4313213 9.897633-9.897633 9.897633zm6.0427298-13.7778974s0-3.32569933-5.0996311-3.54752533h-6.0981863v14.85693203h6.762988s4.8220105-.1690747 4.8220105-4.4913003c0 0 .1663695-2.6605595-2.937842-3.1042115 0 0 2.7163541-.7760529 2.5506609-3.7138949zm-7.7057486-.8869658h2.6054412c1.6630187.110913 1.6630187 1.2741469 1.6630187 1.2741469v.8869659c-.110913 1.3864125-1.8293882 1.4411927-1.8293882 1.4411927h-2.4390717zm4.6008608 8.1494005c-.110913 1.3864125-1.8290501 1.4415309-1.8290501 1.4415309h-2.7728251v-3.6043345h2.9388564c1.6630188.110913 1.6630188 1.2751614 1.6630188 1.2751614z" fill="#fff"/></svg>