<svg height="32" viewBox="0 0 32 32" width="32" xmlns="http://www.w3.org/2000/svg"><path d="m16 32c-8.836556 0-16-7.163444-16-16s7.163444-16 16-16 16 7.163444 16 16-7.163444 16-16 16zm.9413314-7.4227245 6.2379046-3.5429556c.1912242.2084798.4680143.3395119.7759091.3395119.5770574 0 1.0448549-.460268 1.0448549-1.0280374 0-.4866895-.3437304-.8943887-.8053648-1.0009059l.0185057-7.0213265c.4522849-.1130182.7868591-.5162956.7868591-.9964592 0-.5677694-.4677975-1.0280374-1.0448549-1.0280374-.3527586 0-.6646874.1719999-.8538812.4354129l-6.1081069-3.46923421c.0182788-.07614695.0279512-.15556545.0279512-.23720671 0-.56776937-.4677975-1.02803738-1.0448549-1.02803738s-1.0448549.46026801-1.0448549 1.02803738c0 .08391109.0102177.16547412.0294957.24355035l-6.07236195 3.44893207c-.19009111-.2555144-.4971885-.4214544-.84367727-.4214544-.57705742 0-1.04485488.460268-1.04485488 1.0280374 0 .4790242.33298814.8815266.78364116.9956497v7.0273922c-.45065302.1141231-.78364116.5166255-.78364116.9956497 0 .5677694.46779746 1.0280374 1.04485488 1.0280374.29505669 0 .5615484-.1203327.75154662-.3138411l6.2105518 3.5274201c-.0487287.1187896-.0755549.2485883-.0755549.3845518 0 .5677694.4677975 1.0280374 1.0448549 1.0280374s1.0448549-.460268 1.0448549-1.0280374c0-.1398406-.0283779-.2731599-.0797768-.3946871zm-.27928-.3809361c-.1835165-.157215-.423358-.2524142-.6857981-.2524142-.2666261 0-.5099269.0982604-.6945363.2599843l-6.24137838-3.5449287c.03206358-.0987445.04937114-.2039768.04937114-.3131864 0-.1054967-.01615071-.2072819-.04615209-.3030926l5.97744843-4.0264379c.2257684.2884969.5803172.4743903.9789939.4743903.3568664 0 .6783751-.1489475.9038116-.3871053l6.0659322 3.8995681c-.038503.1071824-.0594536.2225226-.0594536.3426774 0 .0968882.0136225.1906459.0390858.2795202zm.1186416-16.51220956 6.1413716 3.48812756c-.0077544.050504-.0117744.1022128-.0117744.1548454 0 .4945733.3549566.9075764.8278903 1.0058442l-.0184785 7.0110161c-.1894874.0429356-.3592794.1365745-.4938275.2656187l-6.0710161-3.9028363c.0516783-.1339624.0799701-.2792527.0799701-.4310446 0-.5977962-.4388031-1.0947541-1.0167849-1.196072l.015959-6.05507074c.2174594-.05428353.4077218-.17566266.5466904-.34042832zm-1.6047442.00487224c.1472295.17239447.3509402.29653286.5830937.34482834l-.0159542 6.05324928c-.5586723.1163215-.9779168.6042995-.9779168 1.1886212 0 .1099686.0148491.2165248.0426821.3178334l-6.00482277 4.0448774c-.14368355-.1490339-.33227774-.2557385-.54445563-.2991303v-7.0056656c.47455375-.0970494.83113456-.5108095.83113456-1.006513 0-.058932-.00503984-.1167059-.01471859-.1729271z" fill="#fff" fill-rule="evenodd"/></svg>