<svg height="32" viewBox="0 0 32 32" width="32" xmlns="http://www.w3.org/2000/svg"><path d="m16 32c-8.836556 0-16-7.163444-16-16s7.163444-16 16-16 16 7.163444 16 16-7.163444 16-16 16zm-4.3671123-11.6644656c-.6621567-.6753294-1.73614707-.6765745-2.39981089-.0027823-.3200828.3243258-.50004883.7652596-.50004883 1.2251669 0 .4599074.17996603.9008412.50004883 1.225167.66366382.6737922 1.73765419.672547 2.39981089-.0027823s.6621567-1.76944 0-2.4447693zm11.0630962-11.60890797c-.634472-.26771753-1.3647737-.11971074-1.8503579.37500327-.3188014.32415613-.4979533.76417702-.4979533 1.2230399 0 .4588629.1791519.8988838.4979533 1.2230399.4855842.494714 1.2158859.6427208 1.8503579.3750033s1.0481619-.8984353 1.0481619-1.5980432c0-.69960785-.4136899-1.33032564-1.0481619-1.59804317zm-11.2856324 10.27545827 1.7914285 1.8249882 1.6410989-1.6718424c-.8184422-.3346488-1.4671094-.9954678-1.7956044-1.8292423zm9.6966811-6.1373207-1.7914285-1.8249883-1.6410989 1.6718424c.4050418.1655743.7729555.4130331 1.0815384.7274429.308172.3122471.5498335.6858746.7098901 1.0975454zm-.6867227 7.9426891c-.2627945.6463578-.1175094 1.3903406.3681073 1.8850216.3181952.3247737.7501246.5072817 1.2005494.5072817.4504249 0 .8823543-.182508 1.2005495-.5072817.4856167-.494681.6309018-1.2386638.3681073-1.8850216-.2627945-.6463579-.881914-1.0677977-1.5686568-1.0677977-.6867427 0-1.3058622.4214398-1.5686567 1.0677977zm-11.3849668-11.29876183c-.26279447.64635783-.11750938 1.39034063.36810733 1.88502163.31819522.3247737.75012457.5072817 1.20054947.5072817.4504248 0 .8823542-.182508 1.2005494-.5072817.4856167-.494681.6309018-1.2386638.3681073-1.88502163-.2627945-.64635786-.881914-1.06779765-1.5686567-1.06779765-.68674281 0-1.30586233.42143979-1.5686568 1.06779765zm10.1449643 11.24563733 1.7914285-1.8249882-1.6410989-1.6718424c-.3284949.8337744-.9771622 1.4945935-1.7956043 1.8292423zm-5.8415604-9.8094182-1.7914285 1.8249882 1.6410989 1.6718424c.1625296-.4126297.4054378-.7874356.7140659-1.1017994.3065051-.3139451.6732621-.5601338 1.0773626-.7231888zm2.9418681-1.48211169c.9386413 0 1.6995604-.77517379 1.6995604-1.73139912.0003327-.45929942-.1786208-.89988451-.4974223-1.22465832-.3188016-.32477382-.7512847-.50707972-1.2021381-.5067408-.9386413 0-1.6995604.77517379-1.6995604 1.73139912s.7609191 1.73139912 1.6995604 1.73139912zm1.6995604 14.80580219c.0003327-.4592994-.1786208-.8998845-.4974223-1.2246583-.3188016-.3247739-.7512847-.5070798-1.2021381-.5067408-.9386413 0-1.6995604.7751738-1.6995604 1.7313991s.7609191 1.7313991 1.6995604 1.7313991 1.6995604-.7751738 1.6995604-1.7313991zm-1.0823736-13.8996891h-1.0690109v2.1440421c.3537037-.0624119.7153072-.0624119 1.0690109 0zm0 9.2125747c-.3537037.062412-.7153072.062412-1.0690109 0v2.1440422h1.0690109zm5.3324482-3.3928099c.2630596.6469795.882781 1.0688214 1.570189 1.0688214.4508534.0003389.8833366-.181967 1.2021381-.5067408.3188016-.3247738.497755-.7653589.4974223-1.2246583 0-.7002856-.4140846-1.3316166-1.0491668-1.5996043-.6350822-.2679876-1.3660934-.1198565-1.8521643.3753202-.4860708.4951767-.631478 1.2398823-.3684183 1.8868618zm-15.7302501-.368481c.00007685.9561699.76097342 1.7312573 1.69956035 1.7312574.45089177.0002259.88337379-.1821747 1.2021633-.507016.3187895-.3248414.49772967-.7654701.4973971-1.2248086-.00023061-.9561699-.76125181-1.7311303-1.69983872-1.7309737-.93858692.0001567-1.69935888.775371-1.69928203 1.7315409zm15.0834941.5443769v-1.0907389h-2.1046153c.0612642.3603298.0612642.7287074 0 1.0890373zm-8.6439558 0c-.0612643-.3603299-.0612643-.7287075 0-1.0890373h-2.1046154v1.0890373zm3.2901318 2.0376908c1.3307027 0 2.4094505-1.0989564 2.4094505-2.4545879-.000461-1.3554369-1.0789387-2.4541184-2.4094505-2.4545879-1.3307028 0-2.4094505 1.0989564-2.4094505 2.4545879s1.0787477 2.4545879 2.4094505 2.4545879z" fill="#fff" fill-rule="evenodd"/></svg>