<svg width="32" height="32" viewBox="0 0 32 32" fill="none" xmlns="http://www.w3.org/2000/svg">
<path fill-rule="evenodd" clip-rule="evenodd" d="M16 32C24.8365 32 32 24.8365 32 16C32 7.1635 24.8365 0 16 0C7.1635 0 0 7.1635 0 16C0 24.8365 7.1635 32 16 32ZM5 24.3133V26H27V24.3133H25.7533L25.3133 13.6067H27V10.38H5V13.6067H6.46667L6.1 24.3133H5ZM20.9867 24.24H18.42L17.98 13.6067H21.4267L20.9867 24.24ZM13.5067 24.24H10.94L10.5733 13.6067H13.9467L13.5067 24.24ZM16.0733 4L7.78667 8.91333H24.2133L16.0733 4Z" fill="white"/>
</svg>
