<svg width="32" height="32" viewBox="0 0 32 32" fill="none" xmlns="http://www.w3.org/2000/svg">
<path fill-rule="evenodd" clip-rule="evenodd" d="M16 32C24.8365 32 32 24.8365 32 16C32 7.1635 24.8365 0 16 0C7.1635 0 0 7.1635 0 16C0 24.8365 7.1635 32 16 32ZM16 32C11.7149 32 7.8232 30.3154 4.95105 27.5724L8.95022 24.597V16.1592L7.11939 14.7263L15.5572 8.35815L23.995 14.7263L22.1642 16.1592V24.597L26.6538 27.9373C23.8247 30.464 20.0917 32 16 32ZM15.478 14.3286H15.6373C17.707 14.4083 19.4582 16.1596 19.4582 18.3088V22.6072L15.5577 19.662L11.6572 22.6072V18.3088C11.6572 16.0799 13.3289 14.3286 15.478 14.3286Z" fill="white"/>
</svg>
