<svg width="32" height="32" viewBox="0 0 32 32" xmlns="http://www.w3.org/2000/svg"><path d="M16 32C7.163 32 0 24.837 0 16S7.163 0 16 0s16 7.163 16 16-7.163 16-16 16zm-8.227-9.02l.857 2.802 1.54-.471-.048-.16 1.635 2.425 1.335-.9-.113-.168 2.288 1.852 1.013-1.252-.175-.141 2.772 1.063.577-1.503-.148-.057 2.895.203.113-1.607-.223-.015 2.892-.668-.362-1.57-.263.062 2.617-1.511-.805-1.395-.252.145L28 17.882l-1.178-1.099-.196.21 1.34-2.747-1.447-.706-.118.24.476-3.002-1.59-.252-.034.21-.469-2.959-1.59.252.01.072-1.249-2.562-1.447.706.041.085-1.948-2.089-1.178 1.099.098.104L15.019 4l-.805 1.395.18.104-2.867-.662-.363 1.569.271.063-3.002.21.112 1.606.335-.023-2.867 1.1.577 1.504.307-.118-2.401 1.944 1.013 1.252.16-.13L4 16.289l1.335.9.107-.158-.87 2.845 1.54.471.05-.163v2.953h1.61v-.156zm0-1.914v-2.69H6.715l.79-2.582-1.02-.311 1.512-2.24-.885-.597 2.097-1.698-.672-.83 2.497-.958-.392-1.022 2.652-.185-.075-1.073 2.584.597.237-1.028 2.297 1.326.519-.9 1.814 1.946.752-.701 1.173 2.403.922-.45.421 2.658 1.025-.162-.421 2.658 1.071.17-1.18 2.42.979.479-1.837 1.969.797.742-2.325 1.342.54.934-2.605.602.24 1.035-2.657-.186-.073 1.04-2.482-.953-.369.96-2.06-1.668-.664.82-1.487-2.204-.87.587-.781-2.557-1.006.307zm3.56-9.849l-1.218 8.71h3.567c.386 0 .78-.041 1.181-.123a3.8 3.8 0 0 0 1.108-.406c.336-.189.623-.437.86-.745.239-.307.39-.69.456-1.15a2.098 2.098 0 0 0-.025-.787 1.696 1.696 0 0 0-.295-.646 1.656 1.656 0 0 0-.535-.455 2.206 2.206 0 0 0-.744-.24v-.025c.467-.139.863-.37 1.187-.695.324-.323.519-.731.584-1.224.066-.475.025-.857-.123-1.144a1.59 1.59 0 0 0-.646-.67 2.782 2.782 0 0 0-.984-.32 7.95 7.95 0 0 0-1.126-.08h-3.248zM12.76 14.7l.258-1.858h1.304c.148 0 .297.014.45.043.15.029.284.076.399.141a.662.662 0 0 1 .264.277.75.75 0 0 1 .056.45c-.025.172-.08.32-.166.442a1 1 0 0 1-.32.295 1.436 1.436 0 0 1-.412.16c-.148.033-.296.05-.443.05h-1.39zm-.505 3.604l.283-1.98h1.452c.156 0 .322.012.498.036.176.025.338.07.486.136a.771.771 0 0 1 .345.289c.082.127.11.293.086.498a1 1 0 0 1-.185.48 1.272 1.272 0 0 1-.781.492c-.16.032-.314.049-.461.049h-1.723zm9.26-6.948l-2.451-.349-1.268 7.671 1.682.118 2.037-7.44zm-1.776 8.216l-2.254-.544-.512 2.521 2.237.652.53-2.629z" fill="#FFF"/></svg>