<svg height="32" viewBox="0 0 32 32" width="32" xmlns="http://www.w3.org/2000/svg"><path d="m16 32c-8.836556 0-16-7.163444-16-16s7.163444-16 16-16 16 7.163444 16 16-7.163444 16-16 16zm9.8836586-11.262576c.0196589-.0412832.0432496-.0766689.0629085-.1179521 1.2643719-2.6623322 1.3961426-5.7233328.3652415-8.4844702-1.0309011-2.76113728-3.1365089-4.9868079-5.8363157-6.16910551v-.01572694c-.1100899-.04914668-.2221457-.0845323-.3322356-.12974725-.1454759-.06094189-.2929177-.11795204-.4403596-.17103046-.196589-.0727371-.3931781-.13761072-.6035284-.19658674-.1435101-.04324909-.2870201-.08256644-.4305301-.11991792-.2149374-.05504428-.4298748-.10288039-.6448122-.14350832-.1317147-.02555628-.2634294-.04718082-.3931782-.06683949-.222801-.03407504-.4456019-.06094189-.6684029-.08060057-.1218852-.00982933-.2457364-.01965867-.3676216-.02555627-.2332857-.01310578-.4659161-.0183481-.6978913-.01572694-.1238511 0-.2477022 0-.3695874.00982934-.2260775.00982933-.450189.02555627-.6723347.04914668-.1356465.01376107-.2693271.03145388-.4030076.05111255-.1965891.02948802-.4108712.06290776-.613358.10419098-.1533395.03145388-.306679.06487362-.4600185.1022251-.1533394.03735148-.3558262.0904299-.5307905.14350832-.1749643.05307843-.3479627.11008858-.5209611.17103047s-.2968495.10812271-.4423254.16709873c-.1965891.07666883-.3813828.16120113-.5701084.2476993-.1238511.05701015-.2457363.11598617-.3656557.17889393-.196589.10222511-.3931781.21231368-.5897672.32633399-.1061581.06290776-.2103503.12778138-.3145426.19658674-.19527844.13105783-.38662515.26211566-.57404008.39317349-.09960514.07339238-.19789968.14809534-.29488363.22410888-.18217256.14023188-.36106862.28767194-.53668821.44232017-.10026043.08846404-.19658908.1808598-.29488363.27325557-.15727127.15202708-.31061075.30929648-.46001846.47180818-.10026043.11008858-.19658908.22214302-.29488363.33616333-.13564647.16120113-.26736115.32633399-.39317817.49539859-.09436276.12581552-.18479374.2535969-.27325883.39317348-.06684029.09829338-.14154414.19658675-.20641854.29094839-.0648744.0943616-.09829454.1749622-.1494077.2614604-.07077208.117952-.13957826.2378699-.19658909.3597537-.11991934.2182113-.23394101.4383884-.33813323.6605314-.03735192.0393174-.0648744.0864982-.07863563.1317132-.01376124.0452149-.04128371.1120544-.0648744.1670987-.10484751.242457-.19986557.4868798-.28505418.7332685-.03538603.1035357-.06946147.2070714-.10222632.3106071-.07470385.2398358-.14023355.4803269-.19658909.7214733-.02883306.1192627-.05570024.2385253-.08060152.3577879-.04587079.2254195-.08453331.4508389-.11598756.6762584-.01965891.1376107-.03735193.2732556-.05111317.4108663-.02162479.2103478-.03538603.4187298-.04521548.6290776 0 .1513718-.01179535.3007777-.01179535.4521495 0 .1965867 0 .3931735.01572713.5897602 0 .1553035.01769301.310607.03145425.4659106.01769302.1965867.04521549.3931735.07273796.5897602.01376124.1415425.04718138.3007777.06684029.4501836.03735193.1965868.08453331.3931735.13368058.5897603.0432496.1454742.06880618.281119.108124.4226615.05897672.1965867.1277829.4049686.19658908.6054871.04521549.1277814.09043098.2555628.13957825.3813783.08060153.1965867.17103251.4049687.26342938.6035213.05504494.117952.11008989.2359041.16906661.3518903.10026044.1965867.20838444.3931735.31847432.5759991.06880618.1179521.13761236.2339382.21035033.3479586.11205577.1749622.23197512.3459926.35386035.5150572.08846509.1238497.17889607.2457334.27325883.3656514.09436276.1199179.24377047.2929142.36958748.4364225.12581702.1435083.23394101.2653921.35779214.3931735.12385112.1277814.23394101.2319724.35582624.3459927.12188524.1140203.30078131.2791531.46001847.4128321.11008988.0923958.22411155.1828257.34009911.2712897.17889607.1395766.35975803.2732556.54848355.3931735.04914728.0334198.09239687.0707712.14154415.104191 2.445822 1.6405063 5.4515292 2.2211858 8.3324178 1.6097589 2.8808885-.611427 5.3916202-2.3628909 6.9602472-4.855406h.0117953c.037352-.058976.0668403-.1218838.1041923-.1828257.0806015-.1317131.1553053-.2693238.2319751-.4069345.1140217-.1867574.2201798-.3813783.3165084-.5799309zm-14.0561196 4.4998705c-.5495808-.248139-1.075908-.5448524-1.5727127-.8866062-.1749643-.1199179-.34403093-.2457334-.50916576-.3754807-.10419222-.0806006-.20838443-.163167-.30864487-.2476993-.14744181-.1238496-.28702006-.2535969-.42463242-.3833441-.13761236-.1297473-.22017978-.208382-.32633789-.3184706-.1061581-.1100885-.22411155-.2418016-.33026966-.3636854s-.22804334-.2634263-.33616734-.3931735c-.108124-.1297473-.16906661-.2241089-.25163403-.3381292-.11205578-.1572694-.22411156-.3145388-.32633788-.4757399-.06684029-.1061569-.1297488-.2123137-.19658909-.3204364-.10222632-.1749622-.19658908-.3518903-.29488363-.5307842-.05504494-.1061569-.10419221-.2142796-.15530537-.3224023-.07666975-.1946208-.15923716-.3774465-.23394102-.5661698-.04521549-.1140203-.0845333-.2300065-.12581701-.3440268-.06684029-.1867574-.1297488-.3735148-.18479374-.5642039-.03735193-.1277814-.06880618-.2535969-.10026044-.3794124-.04521549-.1847916-.08846509-.3695831-.12385112-.5543747-.02555658-.1454741-.04718138-.2732555-.07273796-.4089004-.02752247-.1828257-.05111317-.3656513-.06880618-.5504429-.01376124-.1395765-.0216248-.2791531-.02948837-.4187297 0-.1867574-.01572712-.3735148-.01572712-.5602722 0-.1356449 0-.2712897.01179534-.4049687 0-.1965868.0216248-.3931735.04128371-.5897602.01179535-.1218838.02948836-.2457335.04521549-.3676173.02948836-.2123136.0648744-.4246273.108124-.6349751.0216248-.1061569.04521549-.2123137.07077207-.3165047.05504494-.22673.12057464-.4521495.19658908-.6762584.02883307-.0917405.05897673-.1834809.09043098-.2752214.07994623-.2319724.16841132-.4613236.26539527-.6880536.03931782-.0923958.07863563-.1828257.12188523-.2732556.09829455-.2123137.19658909-.4167639.31650843-.6192482.06094262-.1081227.11991934-.2162454.18479374-.3243681.10615811-.1769281.21821389-.3479586.33420145-.5170232.08060152-.117952.16316894-.2339382.24770225-.34795851.11926404-.15857997.24245987-.3132282.36958748-.46394471.08780979-.10746741.17627488-.20772665.26539527-.30077771.14154414-.15202708.28570947-.30208829.43249599-.45018364.08649919-.08387701.17496428-.16578815.26539526-.24573343.15989246-.14285303.3237167-.28046375.49147272-.41283215.08780979-.06946065.17693017-.13498957.26736115-.19658675.17430899-.13105782.35189449-.2529416.53275639-.36565134.0956734-.06159718.192002-.1205732.288986-.17692806.1795514-.10615684.3617239-.20707137.5465177-.30274359.1100898-.05635486.2214903-.11074386.3342014-.16316699.174309-.08125586.3499286-.15792468.5268587-.23000649.1310594-.05373371.2667059-.10484626.4069395-.15333766.1585818-.05635486.3191296-.108778.4816432-.15726939.1625137-.0484914.3256826-.09239577.4895068-.13171312.1402336-.03407503.2811224-.06552891.4226666-.09436163.1874149-.03800677.3761404-.07011594.5661765-.09632751.1231959-.01703752.247047-.03276446.3715534-.04718082.2070739-.02096925.414803-.0360409.6231874-.04521495h.3381332c.2149374 0 .4305301.00524232.6467781.01572694l.3361674.02359041c.2123162.0183481.4239771.04390437.6349827.07666883.1192641.0183481.2385281.03866206.3577922.06094189.2005208.03800677.4010417.08256643.6015626.13367899.1297488.03341974.2594976.06880535.3931781.1081227.1887256.05635487.3767958.11795205.5642107.18479154.1336806.04914669.2653953.10025924.3931782.15530353 2.5904134 1.04809131 4.6299626 3.12380333 5.6323505 5.73221662 1.0023879 2.6084132.8777832 5.5157687-.3441041 8.0288553-.090431.1965867-.1965891.3695831-.2909518.5504429-.0688062.1218838-.1356465.2457334-.2083845.3656513-2.6715035 4.332165-8.1393294 6.0146176-12.7841882 3.9337007zm4.1519615-.8256643c4.6460867-.0086689 8.4088037-3.7757377 8.4120469-8.421776-.0015911-3.4048785-2.0542042-6.47349528-5.200624-7.7748324s-6.7669447-.57909032-9.1731801 1.829928c-2.40623534 2.4090183-3.12426216 6.0303411-1.81923598 9.1752015s4.37607458 5.193864 7.78099318 5.1914789zm0-14.0775766v-.0039317c3.1221702.0064982 5.6506588 2.5375942 5.6539021 5.6597323.0015896 2.2900415-1.3770063 4.3553642-3.4925265 5.2322758-2.1155203.8769116-4.5510082.392578-6.1700504-1.2270078-1.6190421-1.6195858-2.10253475-4.0552129-1.2248773-6.1704029.8776574-2.11519 2.9434838-3.4930514 5.2335521-3.4906657z" fill="#fff"/></svg>