<svg height="32" viewBox="0 0 32 32" width="32" xmlns="http://www.w3.org/2000/svg"><path d="M16 32C7.163 32 0 24.837 0 16S7.163 0 16 0s16 7.163 16 16-7.163 16-16 16zm9.884-11.263c.02-.04.043-.076.063-.118a10.895 10.895 0 00-5.472-14.653V5.95c-.11-.049-.222-.084-.332-.13a9.252 9.252 0 00-.44-.17 7.744 7.744 0 00-.604-.197 10.34 10.34 0 00-1.469-.33A10.559 10.559 0 0015.898 5c-.124 0-.248 0-.37.01a10.814 10.814 0 00-2.148.306 10.556 10.556 0 00-1.494.482 10.603 10.603 0 00-.936.426c-.197.103-.393.213-.59.327a7.59 7.59 0 00-.315.196 40.79 40.79 0 00-.574.393 12.45 12.45 0 00-.831.667 11.18 11.18 0 00-.755.745 10.595 10.595 0 00-.688.832 6.02 6.02 0 00-.273.393c-.067.098-.142.196-.207.29-.065.095-.098.176-.15.262-.07.118-.139.238-.196.36-.12.218-.234.438-.338.66a.34.34 0 00-.079.132 1.906 1.906 0 01-.064.167 10.451 10.451 0 00-.584 1.766 11.047 11.047 0 00-.293 2.074c0 .15-.012.3-.012.452 0 .196 0 .393.016.59 0 .155.017.31.031.465.018.197.045.394.073.59.014.142.047.3.067.45.037.197.084.393.133.59.044.146.07.281.109.423.059.196.127.405.196.605.045.128.09.256.14.382.08.196.17.405.263.603a9.464 9.464 0 00.488.928c.069.118.137.234.21.348.112.175.232.346.354.515.088.124.179.246.273.366.095.12.244.293.37.436a9.447 9.447 0 00.713.739 9.346 9.346 0 00.8.684c.18.14.36.274.549.394.05.033.092.07.142.104a10.897 10.897 0 0015.292-3.246h.012c.037-.059.067-.122.104-.183.08-.131.155-.269.232-.407.114-.186.22-.381.317-.58zm-14.056 4.5a10.13 10.13 0 01-2.816-1.893 8.744 8.744 0 01-.326-.318c-.106-.11-.224-.242-.33-.364s-.228-.263-.336-.393c-.109-.13-.17-.224-.252-.338-.112-.158-.224-.315-.326-.476-.067-.106-.13-.212-.197-.32-.102-.175-.197-.352-.295-.531-.055-.106-.104-.215-.155-.323-.077-.194-.16-.377-.234-.566-.045-.114-.085-.23-.126-.344a9.452 9.452 0 01-.185-.564c-.037-.128-.068-.254-.1-.38-.045-.184-.088-.37-.124-.554-.025-.145-.047-.273-.073-.409a10.262 10.262 0 01-.068-.55c-.014-.14-.022-.28-.03-.419 0-.187-.016-.373-.016-.56 0-.136 0-.271.012-.405 0-.197.022-.393.042-.59.011-.122.029-.246.045-.368a9.955 9.955 0 01.179-.951c.055-.227.12-.452.196-.676.029-.092.06-.184.09-.275a10.198 10.198 0 01.388-.962c.098-.212.197-.417.316-.62.061-.107.12-.215.185-.323a11.091 11.091 0 01.582-.865 10.615 10.615 0 01.635-.765c.142-.152.286-.302.433-.45a10.497 10.497 0 01.757-.659c.087-.07.176-.135.267-.196.174-.132.352-.253.533-.366a11.112 11.112 0 01.836-.48 11.651 11.651 0 01.861-.393 9.842 9.842 0 011.8-.537 8.91 8.91 0 01.566-.096c.123-.017.247-.033.372-.047.207-.021.414-.036.623-.045h.338c.215 0 .43.005.647.015l.336.024a9.427 9.427 0 01.993.138 9.896 9.896 0 01.994.241 9.174 9.174 0 01.958.34 10.087 10.087 0 015.288 13.762c-.09.196-.197.37-.29.55-.07.122-.137.246-.21.366a10.146 10.146 0 01-12.783 3.933zm4.152-.825a8.428 8.428 0 008.412-8.422 8.418 8.418 0 10-8.412 8.422zm0-14.078v-.004a5.666 5.666 0 015.653 5.66 5.66 5.66 0 11-5.653-5.656z" fill="#fff"/></svg>