<svg width="32" height="32" viewBox="0 0 32 32" fill="none" xmlns="http://www.w3.org/2000/svg">
<g clip-path="url(#clip0)">
<path fill-rule="evenodd" clip-rule="evenodd" d="M32 16C32 24.8346 24.836 31.9974 15.9962 31.9987C7.16275 31.9987 -0.00127952 24.8346 6.861e-07 15.9987C-0.00255972 7.16288 7.16147 0 15.9987 0C24.836 0 32 7.16416 32 16ZM22.2948 12.0816C22.0886 9.93887 20.2388 9.22079 17.9011 9.01599V6.04254H16.0922V8.93663C15.6172 8.93663 15.1308 8.94559 14.6481 8.95583V6.04254H12.8392L12.8379 9.01343L12.8185 9.01381C12.4335 9.02136 12.0547 9.02879 11.6858 9.02879V9.01983L9.19064 9.01855V10.9513C9.19064 10.9513 10.5272 10.9257 10.5041 10.9501C11.2377 10.9501 11.4758 11.375 11.5449 11.7424V15.1293C11.5458 15.1293 11.5466 15.1293 11.5475 15.1293V15.1421H11.5449L11.5436 19.887C11.5116 20.1174 11.3759 20.4848 10.8639 20.4861C10.8869 20.5066 9.5491 20.4861 9.5491 20.4861L9.18936 22.6467H11.5449C11.8105 22.6467 12.0738 22.6496 12.3341 22.6523C12.5029 22.6542 12.6705 22.656 12.8366 22.657L12.8379 25.6637H14.6456V22.689C15.141 22.6992 15.6211 22.703 16.0909 22.703L16.0896 25.6637H17.8986V22.6634C20.9403 22.4893 23.0718 21.7226 23.3356 18.8656C23.5494 16.5654 22.4676 15.5376 20.7406 15.1229C21.7916 14.5904 22.4484 13.6496 22.2948 12.0816ZM19.7625 18.5098C19.7625 20.5731 16.517 20.5264 15.0367 20.505C14.9053 20.5031 14.7879 20.5014 14.6878 20.5014V16.5168C14.8128 16.5171 14.965 16.5136 15.1375 16.5098L15.1376 16.5098C16.6593 16.4756 19.7625 16.4059 19.7625 18.5098ZM18.9202 12.8893C18.9202 14.7607 16.2291 14.7182 14.9904 14.6987C14.8761 14.6969 14.7741 14.6952 14.6878 14.6954V11.0832C14.7914 11.0832 14.9175 11.0799 15.0603 11.0761C16.3281 11.0425 18.9213 10.9739 18.9202 12.8893Z" fill="white"/>
</g>
<defs>
<clipPath id="clip0">
<rect width="32" height="32" fill="white"/>
</clipPath>
</defs>
</svg>
