<svg width="32" height="32" viewBox="0 0 32 32" fill="none" xmlns="http://www.w3.org/2000/svg">
<path fill-rule="evenodd" clip-rule="evenodd" d="M16 32V0C7.16344 0 0 7.16344 0 16C0 24.8366 7.16344 32 16 32ZM8.37474 9L4.00002 16.1298L8.37474 18.6696L12.7489 16.1298L8.37474 9ZM12.7518 16.9442L8.37476 22.9999L4 16.9442L8.37476 19.4834L12.7518 16.9442Z" fill="white"/>
<path fill-rule="evenodd" clip-rule="evenodd" d="M32 16C32 24.8366 24.8366 32 16 32V0C24.8366 0 32 7.16344 32 16ZM27.3586 13.3084C27.4681 14.4272 26.9993 15.0987 26.2502 15.4801C27.4835 15.7758 28.2565 16.5082 28.1041 18.1492C27.915 20.1874 26.3943 20.7342 24.222 20.8588L24.2213 23H22.929L22.9293 20.8876C22.5945 20.8881 22.2517 20.885 21.8965 20.8777L21.8969 23L20.6061 22.9996L20.6049 20.8549C20.5011 20.854 20.3966 20.8529 20.2913 20.8518C20.0906 20.8496 19.8873 20.8475 19.6817 20.8472H18.0002L18.2566 19.3058C18.2566 19.3058 19.2133 19.3205 19.1967 19.3059C19.5626 19.3054 19.6595 19.0427 19.6825 18.8782V15.4845L19.6821 13.0685C19.633 12.8065 19.4621 12.5029 18.9389 12.5025C18.9546 12.4851 18.0002 12.503 18.0002 12.503L18 11.1245L19.7825 11.1253V11.1315C20.0509 11.1315 20.3257 11.1261 20.6055 11.1204L20.6057 9.00016L21.8969 9.00028L21.8972 11.0786C22.2422 11.0717 22.5889 11.065 22.9289 11.065L22.9292 9H24.2216L24.2219 11.1208C25.8898 11.2668 27.2111 11.7795 27.3586 13.3084ZM22.1934 12.591C22.0916 12.5937 22.0018 12.5961 21.9281 12.5961V15.1734C21.9889 15.1734 22.0605 15.1746 22.1407 15.176C23.0236 15.1905 24.9492 15.2223 24.9495 13.8854C24.9492 12.5181 23.0974 12.5671 22.1934 12.591ZM21.9281 16.4746L21.9275 19.3164C21.9997 19.3163 22.0847 19.3175 22.1797 19.3188C23.238 19.3337 25.5512 19.3661 25.5508 17.8948C25.5505 16.3901 23.326 16.4433 22.2425 16.4691C22.1221 16.472 22.0157 16.4746 21.9281 16.4746Z" fill="white" fill-opacity="0.8"/>
<path d="M8.37476 9V14.1752L12.7489 16.1298L8.37476 9Z" fill="white" fill-opacity="0.602"/>
<path d="M8.37474 9L4 16.1298L8.37474 14.1752V9Z" fill="white" fill-opacity="0.8"/>
<path d="M8.37476 19.4834V22.9999L12.7518 16.9442L8.37476 19.4834Z" fill="white" fill-opacity="0.602"/>
<path d="M8.37474 22.9999V19.4828L4 16.9442L8.37474 22.9999Z" fill="white" fill-opacity="0.8"/>
<path d="M8.37476 18.6696L12.7489 16.1298L8.37476 14.1764V18.6696Z" fill="white" fill-opacity="0.2"/>
<path d="M4 16.1298L8.37474 18.6696V14.1764L4 16.1298Z" fill="white" fill-opacity="0.602"/>
</svg>
