<svg xmlns="http://www.w3.org/2000/svg" width="32" height="32" viewBox="0 0 32 32">
  <path fill="#FFF" d="M16,32 C7.163444,32 0,24.836556 0,16 C0,7.163444 7.163444,0 16,0 C24.836556,0 32,7.163444 32,16 C32,24.836556 24.836556,32 16,32 Z M17.0784132,19.3558047 L17.0787132,19.3558047 C17.9856142,20.7781419 18.4226148,23.755938 18.3461147,24.8226401 C30.3091289,20.7114285 26.5617244,7.56665687 18.5861149,7 C18.5861149,9.94454112 17.9084141,12.3223237 17.0784132,12.3223237 C20.345117,12.5223621 22.1584192,17.7890574 17.0784132,19.3558047 Z M6,17.7998373 C11.9544071,17.7998373 16.7725128,12.9774571 16.7725128,7.01067821 L11.2115062,7.01067821 C11.2224062,9.93294764 8.89530344,12.3219169 6.01090001,12.3330019 L6,12.3330019 L6,17.7998373 Z M13.2873087,16.8109336 C11.7800069,18.1665574 10.9383059,18.8665394 6.80850096,19.5331646 C9.24490385,19.5331646 11.2115062,21.9776605 11.2115062,25 L16.7726128,25 C16.7726128,24.0888947 16.5869126,19.5220796 13.2874087,16.8109336 L13.2873087,16.8109336 Z"/>
</svg>
