<?xml version="1.0" encoding="UTF-8"?>
<svg width="32px" height="32px" viewBox="0 0 32 32" version="1.1" xmlns="http://www.w3.org/2000/svg" xmlns:xlink="http://www.w3.org/1999/xlink">
    <!-- Generator: Sketch 52.1 (67048) - http://www.bohemiancoding.com/sketch -->
    <title>svg/white/btch</title>
    <desc>Created with Sketch.</desc>
    <g id="white/btch" stroke="none" stroke-width="1" fill="none" fill-rule="evenodd">
        <path d="M16,32 C7.163444,32 0,24.836556 0,16 C0,7.163444 7.163444,0 16,0 C24.836556,0 32,7.163444 32,16 C32,24.836556 24.836556,32 16,32 Z M13.682385,14.5093697 C13.3726746,14.7117547 13.0169676,14.9264055 12.6489949,15.1502555 L12.6489949,17.1710392 C12.9832368,17.002385 13.326678,16.8306644 13.682385,16.6620102 L13.682385,14.5093697 Z M8.51543441,18.2473595 C8.64831833,18.5062186 8.91441084,18.669422 9.2053833,18.6705281 C9.32667641,18.6697765 9.44621211,18.6414654 9.55495741,18.5877342 C9.79107325,18.4681431 10.1191823,18.3025554 10.5208859,18.1001704 C10.5270187,17.2875639 10.5300852,16.6712095 10.5300852,16.4258944 L10.5300852,16.3614991 C9.71134583,16.7693356 9.0888586,17.0821124 8.84967632,17.2017036 C8.46912763,17.3985774 8.31963473,17.866257 8.51543441,18.2473595 Z M13.9736968,18.041908 C13.9732083,18.2464704 14.0540441,18.4428396 14.1984042,18.5877747 C14.3427642,18.7327099 14.5388104,18.8143259 14.7433731,18.8146508 L14.7525724,18.8146508 C15.1792063,18.8143126 15.524977,18.4685419 15.5253152,18.041908 L15.5253152,11.6391823 C15.524904,11.5720157 15.5166713,11.5051255 15.5007836,11.4398637 C15.4099735,11.1013665 15.1030388,10.8661338 14.7525724,10.8664395 C14.7188416,10.8664395 14.6851107,10.869506 14.6513799,10.8725724 C14.2657803,10.9198732 13.9761992,11.2476263 13.9767632,11.6361158 L13.9767632,14.8344123 C13.9736968,15.9076661 13.9736968,16.9747871 13.9736968,18.041908 Z M24.9852811,13.0834753 C24.9362181,12.7093697 24.6878365,12.5008518 24.3106644,12.4027257 C24.0101533,12.3260647 23.7004429,12.3107325 23.3845997,12.3076661 C22.6486542,12.3045997 21.9188416,12.4241908 21.1951618,12.565247 C20.1493314,12.7680585 19.1154109,13.0280741 18.0980579,13.3441227 C17.791414,13.4391823 17.4878365,13.5373083 17.1811925,13.6354344 C17.1811925,13.632368 17.1781261,13.6262351 17.1781261,13.6231687 L17.233322,13.5771721 C17.8251448,13.0712095 18.4139012,12.565247 19.0087905,12.0654174 C20.3150937,10.9614991 21.4926065,9.75025554 22.5873254,8.47155026 C22.88477,8.12504259 23.1423509,7.75400341 23.2742078,7.33083475 C23.4735264,6.69608177 23.2496763,6.30051107 22.605724,6.12265758 C22.3358773,6.04906303 22.0537649,6.03373083 21.7716525,6.0306644 C21.1583646,6.02759796 20.5512095,6.12879046 19.9532538,6.25144804 C19.3277002,6.3802385 18.4231005,6.61022147 17.8098126,6.79727428 C16.828552,7.09778535 15.6173083,7.61294719 14.5348552,8.05144804 C13.9828961,8.26609881 13.3941397,8.54207836 12.845247,8.75672913 L10.766201,9.60306644 C8.00640545,10.7897785 7.2029983,9.93730835 7.2029983,9.93730835 C7.20337298,9.94055391 7.20441715,9.9436864 7.20606474,9.94650767 C7.20077329,9.93898935 7.19663876,9.9307203 7.19379898,9.92197615 C6.65717206,10.9798978 7.10487223,12.9025554 10.208109,11.5287905 C10.6956729,11.3386712 11.1924361,11.1332198 11.6769336,10.946167 C12.6121976,10.5812606 13.5382624,10.130494 14.4765928,9.76865417 C14.6820443,9.68279387 15.4731857,9.36081772 16.4299148,9.01124361 C16.626167,8.93458262 16.8254855,8.85792164 17.0217376,8.78126065 C17.6288927,8.58194208 18.2360477,8.38262351 18.8554685,8.22930153 C19.5300852,8.05451448 20.1188416,7.95025554 20.4745486,7.99625213 C20.5113458,7.99931857 20.5481431,8.00238501 20.5818739,8.00851789 C20.7443952,8.02998296 20.8302555,8.11584327 20.8149233,8.22930153 C20.8087905,8.40408859 20.526678,8.98364566 17.9600681,11.120954 C17.7730153,11.2804089 17.5859625,11.4429302 17.3989097,11.602385 C17.1106644,11.8507666 16.8316184,12.0960818 16.549506,12.3413969 L16.3133901,12.5499148 L16.3103237,12.5529813 L16.1999319,12.6511073 C16.1914267,12.6600336 16.1821958,12.6682389 16.1723339,12.6756388 C16.1723339,12.6756388 16.1600681,12.6879046 16.1447359,12.7001704 L15.9300852,12.8626917 C15.9239523,12.8688245 15.8932879,12.8964225 15.8840886,12.9025554 L15.8840886,15.6163543 C16.7917547,15.306644 21.210494,13.8316865 21.6857922,14.2640545 C21.7225894,14.3131175 22.2837479,14.6626917 17.1474617,18.1768313 C16.9450767,18.3301533 16.7488245,18.4834753 16.5464395,18.6367973 L15.8043612,19.2040886 C14.87523,19.8756388 13.9522317,20.5502555 13.0231005,21.2218058 L12.6213969,21.5131175 C12.6152641,22.2459966 12.6121976,22.9482112 12.6091312,23.5921635 L22.4094719,16.3614991 C23.0070891,15.8578504 23.5733902,15.3181747 24.1052129,14.7454855 C24.405724,14.4235094 24.6755707,14.0831346 24.8534242,13.6936968 C24.9454174,13.4913118 25.012879,13.2950596 24.9852811,13.0834753 Z M9.01833049,24.2054514 C8.78274598,24.4993111 8.77518533,24.9151472 8.99993186,25.2173765 C9.02099294,25.2469697 9.04459148,25.2746723 9.07045997,25.3001704 C9.3348643,25.5798794 9.75802423,25.63851 10.0885179,25.4412266 L10.4810221,25.1529813 C10.4840886,24.5642249 10.4902215,23.846678 10.4963543,23.0739353 L9.17165247,24.0551959 C9.1146651,24.0989059 9.06318275,24.1493586 9.01833049,24.2054514 Z M12.363816,12.9454855 C12.2730059,12.6069883 11.9660712,12.3717556 11.6156048,12.3720613 C11.5818739,12.3720613 11.5481431,12.3751278 11.5144123,12.3781942 C11.1288126,12.425495 10.8392315,12.7532481 10.8397956,13.1417376 L10.8397956,16.3400341 C10.8397956,16.9870528 10.8121976,20.197615 10.7876661,22.8623509 C10.7815332,23.6258944 10.7754003,24.3434412 10.7723339,24.9413969 C10.766201,25.7018739 10.7631346,26.2722317 10.7631346,26.5052811 C10.7626461,26.7098435 10.843482,26.9062127 10.987842,27.0511478 C11.132202,27.1960829 11.3282482,27.277699 11.5328109,27.2780239 L11.5420102,27.2780239 C11.9686441,27.2776857 12.3144148,26.931915 12.314753,26.5052811 C12.314753,25.9686542 12.3208859,24.99046 12.3270187,23.7914821 C12.3300852,23.1505963 12.3362181,22.4453152 12.3392845,21.7124361 C12.3607496,18.3792164 12.391414,14.4511073 12.3883475,13.1417376 C12.3877573,13.0755937 12.3795255,13.0097395 12.363816,12.9454855 Z" id="Combined-Shape" fill="#FFFFFF" fill-rule="nonzero"></path>
        <g id="Bitcoin-Hush-(BTCH)" transform="translate(10.000000, 12.000000)"></g>
    </g>
</svg>