<svg xmlns="http://www.w3.org/2000/svg" viewBox="0 0 32 32"><path fill="#FFF" d="M16 32C7.163 32 0 24.837 0 16S7.163 0 16 0s16 7.163 16 16-7.163 16-16 16zm0-5c1.135 0 2.263-.174 3.344-.519a.888.888 0 10-.538-1.692 9.224 9.224 0 01-2.806.435c-5.086 0-9.224-4.138-9.224-9.224S10.914 6.776 16 6.776s9.224 4.138 9.224 9.224c0 .84-.114 1.678-.34 2.488a.888.888 0 101.711.478C26.865 18 27 17.002 27 16c0-6.063-4.937-11-11-11S5 9.934 5 16s4.934 11 11 11zm3.375-11.026a2.352 2.352 0 00-1.382-.532 2.06 2.06 0 00.767-1.06c.13-.412.148-.85.054-1.27a2.537 2.537 0 00-.894-1.434 2.138 2.138 0 00-.752-.377 1.795 1.795 0 00-.88-.015l-.561.122a.296.296 0 01-.353-.224l-.148-.668a.296.296 0 00-.353-.224l-.677.15a.296.296 0 00-.227.35l.15.673a.296.296 0 01-.225.353l-1.833.406a.722.722 0 00-.55.86l1.65 7.46a.722.722 0 00.86.55l1.833-.407a.296.296 0 01.353.225l.148.667a.296.296 0 00.353.225l.677-.15a.296.296 0 00.225-.353l-.149-.672a.296.296 0 01.22-.352l.253-.061c.408-.09.489-.147.831-.324a3.14 3.14 0 00.868-.637c.23-.241.398-.532.494-.85.096-.343.102-.706.016-1.052-.132-.601-.388-1.061-.768-1.379zm-5.43-1.597a.722.722 0 01.55-.86l1.38-.306a.767.767 0 01.611.114c.19.124.316.332.38.624.07.316.035.569-.107.757a.916.916 0 01-.55.358l-1.305.289a.722.722 0 01-.861-.55l-.098-.426zm3.909 3.767a.916.916 0 01-.604.409l-1.569.347a.722.722 0 01-.86-.55l-.117-.527a.722.722 0 01.55-.86l1.656-.367a.764.764 0 01.663.156c.204.162.343.391.392.647a.951.951 0 01-.109.745h-.002zm3.298 5.383a.277.277 0 00-.065.18v.28c0 .153.124.277.277.277h2.452a.277.277 0 00.278-.277v-.215a.277.277 0 00-.278-.277h-1.051a.277.277 0 01-.217-.45l1.466-1.842a.272.272 0 00.061-.172v-.284a.277.277 0 00-.277-.277H21.44a.277.277 0 00-.278.277v.216c0 .153.124.277.278.277h1.032a.277.277 0 01.213.455l-1.533 1.832z"/></svg>