<svg height="32" width="32" xmlns="http://www.w3.org/2000/svg"><path d="m10.827 15.376 1.745-3.7-5.342 5.344-1.23 1.228 3.894 3.858-.812-3.032 1.745-3.699-1.745 3.7 5.442-5.443-1.952-1.955zm5.173 16.624c-8.837 0-16-7.163-16-16s7.163-16 16-16 16 7.163 16 16-7.163 16-16 16zm-3.074-22.918 5.442 5.442-4.616-8.524-3.86 3.894zm6.148 13.836-5.442-5.442 4.616 8.524 3.858-3.894zm.966-13.578 2.066.552.814 3.032-5.444 5.444 1.952 1.953 6.572-6.571-1.638-6.113-6.114-1.637-.772.775zm-6.288 16.66.772-.775-2.564-2.567-2.066-.552-3.894-3.858 1.64 6.112zm12.248-7.752-.775-.772-2.565 2.564-.554 2.066-3.858 3.894 6.114-1.638zm-20-4.496.775.772 2.565-2.566.552-2.064 3.86-3.894-6.112 1.638zm14.32-1.183-5.34-5.338-1.228-1.231 4.616 8.524 1.953-1.955zm-8.64 6.86 6.567 6.571-4.616-8.524-1.953 1.952z" fill="#fff"/></svg>