<svg width="32" height="32" viewBox="0 0 32 32" version="1.1" xmlns="http://www.w3.org/2000/svg" xmlns:xlink="http://www.w3.org/1999/xlink"><title>svg/white/bts</title><desc>Created with Sketch.</desc><g id="white/bts" stroke="none" stroke-width="1" fill="none" fill-rule="evenodd"><path d="M16,32 C7.163444,32 0,24.836556 0,16 C0,7.163444 7.163444,0 16,0 C24.836556,0 32,7.163444 32,16 C32,24.836556 24.836556,32 16,32 Z M9.03033333,5 L9.03616667,5.00291667 C9.03033333,7.57833333 9.03616667,10.15375 9.03033333,12.7320833 C9.02359446,12.7874668 9.04559126,12.8424589 9.08866667,12.8779167 L14.63325,18.4195833 C14.9103333,18.2620833 15.2078333,18.13375 15.5228333,18.0754167 C15.5315833,15.6808333 15.5228333,13.28625 15.52575,10.88875 C15.5270982,10.8457879 15.5241671,10.8027982 15.517,10.7604167 C15.45575,10.6875 15.377,10.6320833 15.3040833,10.565 L9.03033333,5 Z M16.4765833,13.6070833 L16.4795,13.6070833 C16.4795,15.0975 16.47075,16.5879167 16.4795,18.0754167 C16.8182927,18.1428686 17.1410437,18.2745431 17.4303333,18.4633333 C18.1478333,17.7575 18.8565833,17.04 19.5711667,16.3283333 C19.9095,15.9841667 20.2624167,15.6545833 20.5890833,15.3045833 C19.4404655,14.3047359 17.9960331,13.7085235 16.4765833,13.6070833 Z M9.03325,14.275 L9.03033333,14.2720833 L9.03033333,20.0908333 L13.5015833,20.0908333 C13.5776553,19.7486839 13.713942,19.422781 13.9040833,19.1283333 C12.2795,17.5125 10.66075,15.8879167 9.03325,14.275 Z M20.6386667,16.6083333 L20.6386667,16.61125 C19.7928333,17.4541667 18.9440833,18.2970833 18.1040833,19.1429167 C18.2710857,19.3896256 18.3925846,19.6642328 18.4628333,19.95375 C18.4803333,20.0091667 18.4803333,20.11125 18.5678333,20.0908333 C20.0349167,20.0879167 21.5049167,20.09375 22.972,20.0879167 C22.8693593,18.5716934 22.2719925,17.1310455 21.2715833,15.9870833 C21.047,16.1854167 20.8515833,16.4041667 20.6386667,16.6083333 Z M9.03033333,21.0416667 C9.13117111,22.5466881 9.72111913,23.9775169 10.7103333,25.11625 C10.7365833,25.16 10.7745,25.1045833 10.7978333,25.0870833 L13.89825,21.9954167 C13.7103621,21.7067145 13.5787456,21.3850953 13.5103333,21.0475 C13.2886667,21.0329167 13.0699167,21.0416667 12.8511667,21.0416667 L9.03033333,21.0416667 Z M18.492,21.0475 C18.4306907,21.3574494 18.3141111,21.6538382 18.1478333,21.9225 C18.5940833,22.3833333 19.0549167,22.8295833 19.507,23.2845833 L21.3153333,25.0870833 C22.292457,23.9544456 22.8740192,22.5343283 22.972,21.0416667 L20.3761667,21.0416667 C19.7461667,21.0475 19.122,21.0329167 18.492,21.0475 Z M17.2378333,22.7770833 L17.2349167,22.7741667 C17.0015833,22.9141667 16.7390833,22.9929167 16.4765833,23.0541667 L16.4765833,27.5166667 C18.0027672,27.4184784 19.4537079,26.8186196 20.6036667,25.8104167 L17.4478333,22.6604167 C17.3778333,22.6954167 17.3078333,22.73625 17.2378333,22.7770833 Z M12.647,24.5708333 L12.647,24.57375 C12.23575,24.9908333 11.8128333,25.39625 11.4103333,25.8191667 C12.5575704,26.8212447 14.0027889,27.4177817 15.5228333,27.5166667 L15.5228333,23.0541667 C15.1849132,22.9807674 14.8628797,22.84741 14.572,22.6604167 C13.9245,23.2904167 13.2886667,23.935 12.647,24.5708333 Z" id="Combined-Shape" fill="#FFF" fill-rule="nonzero"/></g></svg>