<svg xmlns="http://www.w3.org/2000/svg" width="32" height="32"><path fill="#FFF" fill-rule="evenodd" d="M16 32C7.163 32 0 24.837 0 16S7.163 0 16 0s16 7.163 16 16-7.163 16-16 16zm-5-18.798v5.2h3.866c.056-.312.176-.603.344-.856L11 13.202zm0-1.168l4.776 4.928a2.13 2.13 0 0 1 .83-.355v-6.468L11 5v7.034zm10.528 10.862A6.276 6.276 0 0 0 23 19.23h-3.853a2.274 2.274 0 0 1-.344.856l2.725 2.811zm-.567.585l-2.724-2.811a2.13 2.13 0 0 1-.83.355V25a5.887 5.887 0 0 0 3.554-1.52zm-9.948-4.252c.09 1.4.63 2.674 1.473 3.667l2.724-2.81a2.274 2.274 0 0 1-.344-.857h-3.853zM23 18.403a6.276 6.276 0 0 0-1.472-3.668l-2.725 2.811c.168.253.288.544.344.857H23zm-9.948 5.078A5.887 5.887 0 0 0 16.606 25v-3.975a2.13 2.13 0 0 1-.83-.355l-2.724 2.81zm7.91-9.33a5.887 5.887 0 0 0-3.555-1.52v3.976c.303.058.585.181.83.355l2.724-2.811z"/></svg>