<svg width="32" height="32" viewBox="0 0 32 32" fill="none" xmlns="http://www.w3.org/2000/svg">
<path fill-rule="evenodd" clip-rule="evenodd" d="M32 16C32 24.8366 24.8366 32 16 32C7.16344 32 0 24.8366 0 16C0 7.16344 7.16344 0 16 0C24.8366 0 32 7.16344 32 16ZM24.3546 16.456C24.8949 16.1875 25.3736 15.8571 25.7022 15.5256C26.0229 15.2022 26.08 14.9974 26.0792 14.9503L25.9827 14.7625C25.9497 14.6984 25.8627 14.687 25.8145 14.7408L25.7927 14.7648C25.3898 15.2051 24.7879 15.6364 24.098 15.9792C23.4081 16.322 22.7005 16.5414 22.1053 16.5971L22.1038 16.5972C22.0306 16.604 21.9868 16.6813 22.0203 16.7465L22.1105 16.9219C22.1467 16.9508 22.3447 17.0293 22.7983 16.9686C23.2615 16.9065 23.8143 16.7245 24.3546 16.456ZM21.5701 15.3683C21.4809 15.5015 21.5697 15.6795 21.7302 15.6887C21.8324 15.6946 21.9643 15.691 22.1305 15.6687C22.5938 15.6066 23.1466 15.4246 23.6868 15.1561C24.2272 14.8877 24.7058 14.5572 25.0345 14.2257C25.1524 14.1068 25.2348 14.0039 25.2916 13.9189C25.3809 13.7857 25.292 13.6078 25.1315 13.5986C25.0293 13.5927 24.8974 13.5963 24.7312 13.6186C24.2679 13.6807 23.7152 13.8627 23.1749 14.1312C22.6345 14.3997 22.1559 14.7302 21.8272 15.0616C21.7093 15.1805 21.627 15.2834 21.5701 15.3683ZM26.2381 13.2429L26.9082 14.5474C27.0323 14.7957 27.139 15.323 26.4605 16.0646C26.0576 16.505 25.4558 16.9363 24.7658 17.2791C24.0759 17.6219 23.3682 17.8414 22.7731 17.8969C22.6718 17.9064 22.5771 17.9108 22.4886 17.9108C21.704 17.9108 21.4029 17.5657 21.2903 17.3424L20.6236 16.0444L20.6237 16.0443L20.6212 16.0398C20.4972 15.7915 20.3904 15.2642 21.069 14.5226C21.4719 14.0822 22.0738 13.6508 22.7636 13.308C23.4535 12.9652 24.1612 12.7458 24.7563 12.6902C25.7525 12.5975 26.1119 12.9943 26.2381 13.2429H26.2381ZM15.7778 25.4777C18.3424 25.497 20.7634 24.5281 22.6 22.7477C22.798 22.5556 22.9 22.2874 22.8797 22.0118C22.8592 21.7346 22.7178 21.4823 22.4917 21.3199L21.1437 20.3512C20.7841 20.0928 20.298 20.1214 19.9615 20.4207C18.8428 21.4157 17.4008 21.9696 15.9012 21.9806L15.8555 21.9807C12.4943 21.9811 9.731 19.268 9.68529 15.912C9.66271 14.2512 10.2938 12.686 11.4625 11.5045C12.5511 10.404 13.9792 9.76439 15.5145 9.68179C15.5507 9.58092 15.5891 9.47998 15.6304 9.37912C15.9214 8.66724 16.3076 8.03639 16.7176 7.60262C17.4041 6.87657 17.9371 6.93823 18.1964 7.04177L19.5633 7.58002C19.8209 7.68482 20.2501 8.01049 20.2316 9.01432C20.2236 9.45077 19.9762 10.3354 19.8443 10.7779C19.7954 10.9418 19.8506 11.1186 19.9841 11.2259C20.0871 11.3085 20.1968 11.3918 20.2427 11.4103C20.5343 11.5273 20.8776 11.4936 21.1437 11.3024L22.4707 10.3488C22.7095 10.1773 22.8678 9.91005 22.8832 9.61699C22.8973 9.34928 22.8002 9.10038 22.6087 8.91417C20.7916 7.14791 18.3931 6.17509 15.8551 6.17509C10.5193 6.17509 6.17823 10.5048 6.17823 15.8268C6.17823 18.3981 7.1729 20.8144 8.97909 22.6303C10.7854 24.4464 13.1998 25.4576 15.7778 25.4777ZM18.9094 10.6952C19.1374 10.1376 19.278 9.57431 19.3053 9.10889C19.332 8.65488 19.2394 8.46347 19.2074 8.42859L19.0108 8.35119C18.9434 8.32465 18.8707 8.37347 18.87 8.4456L18.8695 8.47796C18.8585 9.07401 18.6922 9.79431 18.4011 10.5061C18.1101 11.2179 17.7239 11.8488 17.3138 12.2825L17.3124 12.2839C17.2621 12.337 17.2807 12.4239 17.3489 12.4507L17.5326 12.5231C17.5791 12.5209 17.7798 12.4494 18.0801 12.1052C18.3869 11.7534 18.6814 11.2526 18.9094 10.6952ZM16.4306 11.8475C16.5113 11.7846 16.6079 11.6951 16.718 11.5688C17.0248 11.217 17.3193 10.7163 17.5473 10.1588C17.7753 9.60124 17.9159 9.03794 17.9433 8.57244C17.9531 8.40552 17.9467 8.2741 17.9332 8.17292C17.912 8.01403 17.7274 7.93899 17.6009 8.03773C17.5202 8.10064 17.4236 8.19017 17.3135 8.31639C17.0067 8.66811 16.7122 9.16889 16.4842 9.72636C16.2562 10.2839 16.1156 10.8472 16.0882 11.3126C16.0784 11.4796 16.0847 11.611 16.0982 11.7123C16.1194 11.8711 16.304 11.9462 16.4306 11.8475ZM18.1268 15.9234C18.0448 15.715 17.9023 15.5733 17.6785 15.4773C16.8883 15.1381 15.4178 15.4917 14.6223 15.8121C13.5017 16.2636 12.5555 16.884 11.75 17.6965C11.5511 17.8972 11.5028 18.2762 11.6562 18.5133C11.9903 19.03 12.4174 19.4815 12.9136 19.844C13.0869 18.8229 13.6339 17.9593 14.4728 17.413C14.7216 17.2511 15.0549 17.3208 15.2173 17.5689C15.3797 17.817 15.3097 18.1494 15.061 18.3114C14.3667 18.7635 13.9701 19.509 13.9334 20.4203C14.5261 20.6684 15.1758 20.8056 15.8556 20.8056C15.8629 20.8056 16.0389 20.7982 16.2305 20.7849C16.4375 20.7706 16.572 20.5217 16.5659 20.2396C16.5517 19.585 16.6714 19.0674 16.724 18.8741C16.9134 18.1791 17.3256 17.6744 17.6571 17.2688C18.1667 16.6449 18.3155 16.4029 18.1268 15.9234ZM21.8323 19.3977L23.1804 20.3665C23.69 20.7325 24.0086 21.3009 24.0547 21.9257C24.1007 22.5487 23.8698 23.1554 23.4212 23.5902C21.3819 25.5673 18.6978 26.6531 15.8554 26.6531C15.8264 26.6531 15.7977 26.6531 15.7686 26.6528C12.8776 26.6302 10.1693 25.4956 8.14263 23.458C6.11602 21.4204 5 18.7103 5 15.8268C5 9.8569 9.86963 5 15.8551 5C18.7021 5 21.3926 6.09124 23.431 8.07269C23.8748 8.50402 24.1029 9.10653 24.0568 9.72557C24.0102 10.3512 23.6909 10.9203 23.1809 11.2869L21.8324 12.2558C21.038 12.8268 19.9359 12.7736 19.2032 12.1321C19.0364 12.3932 18.8585 12.6257 18.676 12.8188C18.2096 13.312 17.814 13.4418 17.527 13.4419C17.3905 13.4419 17.2787 13.4125 17.1953 13.379L15.8351 12.8434L15.8352 12.8431L15.8303 12.8414C15.5727 12.7366 15.1434 12.4109 15.162 11.4072C15.165 11.243 15.1802 11.0692 15.2062 10.889C14.1069 11.0303 13.093 11.5293 12.3013 12.3298C11.3558 13.2856 10.8452 14.5522 10.8634 15.8961C10.8677 16.2117 10.9021 16.5201 10.9632 16.8191C11.8701 15.9172 12.9304 15.2263 14.181 14.7225C14.4302 14.6222 16.6587 13.7603 18.1442 14.3978C18.6542 14.6167 19.0274 14.9958 19.2235 15.4939C19.6798 16.6529 19.0648 17.4059 18.5706 18.0109L18.5705 18.011C18.2692 18.3797 17.9848 18.7279 17.8611 19.1821C17.7741 19.5019 17.7166 19.955 17.7556 20.4301C18.272 20.2181 18.7535 19.9205 19.1773 19.5437C19.9293 18.8749 21.0211 18.8147 21.8323 19.3977Z" fill="white"/>
</svg>
