<svg width="32" height="32" viewBox="0 0 32 32" fill="none" xmlns="http://www.w3.org/2000/svg">
<path fill-rule="evenodd" clip-rule="evenodd" d="M32 16C32 24.8366 24.8366 32 16 32C7.16344 32 0 24.8366 0 16C0 7.16344 7.16344 0 16 0C24.8366 0 32 7.16344 32 16ZM11.8299 4.95441C10.0058 4.95441 8.60261 6.62241 8.9534 8.42941L9.72513 12.6689C6.98898 13.8504 4.95441 15.9354 4.95441 18.5069V20.1054C4.95441 22.2599 6.35756 24.0669 8.32198 25.2484C10.3566 26.4994 13.0225 27.1944 16.0393 27.1944C19.0561 27.1944 21.7221 26.4994 23.7567 25.2484C25.7913 24.0669 27.1944 22.2599 27.1944 20.1054V18.5069C27.1944 15.9354 25.0897 13.8504 22.3535 12.6689L23.1253 8.42941C23.4059 6.62241 22.0027 4.95441 20.1786 4.95441C18.565 4.95441 17.232 6.27491 17.232 7.87341V11.4874C16.8111 11.4179 16.4603 11.4179 16.0393 11.4179C15.8289 11.4179 15.6184 11.4353 15.4079 11.4527C15.1974 11.47 14.987 11.4874 14.7765 11.4874V7.87341C14.7765 6.27491 13.4435 4.95441 11.8299 4.95441ZM22.2132 8.22091L21.3012 13.2249C24.3179 14.3369 26.2824 16.2829 26.2122 18.5764V20.1749C26.2122 23.5804 21.6519 26.3604 16.0393 26.3604C10.4267 26.3604 5.86646 23.5804 5.86646 20.1749V18.5764C5.86646 16.3524 7.83087 14.4064 10.7775 13.2944L9.86545 8.29041C9.58482 7.03941 10.567 5.85791 11.8299 5.85791C12.9524 5.85791 13.8644 6.76141 13.8644 7.87341V12.3909C14.0048 12.3909 14.1626 12.3735 14.3205 12.3562C14.4783 12.3388 14.6362 12.3214 14.7765 12.3214C15.1974 12.2519 15.6184 12.2519 16.0393 12.2519C16.2498 12.2519 16.4427 12.2693 16.6357 12.2867C16.8286 12.304 17.0215 12.3214 17.232 12.3214C17.5126 12.3214 17.8634 12.3214 18.1441 12.3909V7.80391C18.1441 6.69191 19.0561 5.78841 20.1786 5.78841C21.5116 5.78841 22.4237 6.96991 22.2132 8.22091ZM12.8441 17.5779C12.8441 18.86 12.3264 19.9449 11.6607 19.9449C10.995 19.9449 10.4772 18.86 10.4772 17.5779C10.4772 16.2959 10.995 15.211 11.6607 15.211C12.3264 15.211 12.8441 16.2959 12.8441 17.5779ZM20.3393 19.9449C21.005 19.9449 21.5228 18.86 21.5228 17.5779C21.5228 16.2959 21.005 15.211 20.3393 15.211C19.6736 15.211 19.1559 16.2959 19.1559 17.5779C19.1559 18.86 19.6736 19.9449 20.3393 19.9449Z" fill="white"/>
</svg>
