<svg width="32" height="32" viewBox="0 0 32 32" fill="none" xmlns="http://www.w3.org/2000/svg">
<path fill-rule="evenodd" clip-rule="evenodd" d="M32 16C32 24.8366 24.8366 32 16 32C7.16344 32 0 24.8366 0 16C0 7.16344 7.16344 0 16 0C24.8366 0 32 7.16344 32 16ZM15.8359 20.0434L15.8361 21.1893L15.8361 22.3364V22.3502C15.8361 23.6825 15.8361 25.0148 15.8363 26.3471C15.8363 26.6155 15.8511 26.6215 16.1176 26.5825C16.4483 26.5341 16.7248 26.3695 17.0019 26.2045L17.0021 26.2043C17.0513 26.1751 17.1005 26.1458 17.15 26.1171C17.9442 25.6577 18.7386 25.1986 19.533 24.7396L19.5357 24.738L19.5383 24.7365L19.5413 24.7348C20.236 24.3334 20.9306 23.932 21.6251 23.5303L22.1789 23.2102L22.1795 23.2098L22.1796 23.2098C22.9452 22.7673 23.7108 22.3249 24.4743 21.8786C25.0267 21.5557 25.383 21.0759 25.405 20.4305C25.4285 19.7411 25.4232 19.0506 25.4179 18.3602C25.4158 18.0843 25.4137 17.8085 25.4134 17.5327C25.4132 17.3493 25.3872 17.3338 25.2285 17.424C25.0613 17.5191 24.8945 17.615 24.7277 17.711L24.7275 17.7111L24.7273 17.7112C24.4278 17.8835 24.1283 18.0558 23.8261 18.2232C23.7045 18.2905 23.6566 18.3719 23.6582 18.5084C23.6634 18.9505 23.6662 19.3927 23.6571 19.8347C23.6508 20.1429 23.5177 20.3928 23.2519 20.5578C23.0848 20.6615 22.9144 20.7598 22.744 20.8582L22.6337 20.9219L21.8276 21.3894L21.8269 21.3898C21.0003 21.8693 20.1738 22.3488 19.3453 22.825C19.2037 22.9064 19.064 22.9912 18.9243 23.076L18.9243 23.076L18.9243 23.076C18.6364 23.2507 18.3486 23.4255 18.0441 23.5703C17.7872 23.6926 17.5982 23.5738 17.5904 23.2915C17.5891 23.244 17.5893 23.1964 17.5895 23.1488L17.5897 23.095L17.5896 21.5306C17.5893 19.3723 17.589 17.2139 17.5937 15.0555C17.5942 14.8671 17.5359 14.7613 17.372 14.669C16.917 14.4129 16.4664 14.149 16.0157 13.8852L16.0153 13.885C15.8328 13.7782 15.6503 13.6713 15.4675 13.565C14.2836 12.8762 13.0995 12.1878 11.9153 11.4993C11.7472 11.4016 11.5788 11.3044 11.4104 11.2072C11.0233 10.9838 10.6362 10.7604 10.253 10.5305C10.005 10.3819 10.0176 10.1327 10.2649 9.98845C10.3213 9.95555 10.3779 9.92296 10.4344 9.89038C10.4815 9.86328 10.5285 9.83618 10.5754 9.80891L11.6244 9.1994L11.6255 9.19878L11.6266 9.19816C12.8647 8.4788 14.1028 7.75943 15.3405 7.03941C15.6821 6.84075 16.0212 6.8471 16.3596 7.04334L16.4912 7.11957L16.4914 7.11971L16.4915 7.11975C16.7956 7.29587 17.0996 7.47199 17.4012 7.65225C17.5197 7.72299 17.6218 7.73524 17.7484 7.66018C18.0845 7.461 18.4237 7.26728 18.763 7.07355L18.7631 7.0735L18.7638 7.07308C18.8915 7.00015 19.0193 6.92721 19.1468 6.85398C19.3059 6.7626 19.3095 6.73496 19.1511 6.64188C18.967 6.53376 18.7832 6.42494 18.5995 6.31613L18.5995 6.31611C17.9461 5.92907 17.2927 5.54204 16.6214 5.1861C16.1799 4.95192 15.7274 4.95356 15.2655 5.10861C15.0006 5.19753 14.7666 5.3442 14.5326 5.49084L14.5326 5.49088C14.4396 5.54914 14.3466 5.60741 14.2518 5.66203C13.5706 6.05415 12.8901 6.44719 12.2095 6.84023C11.5062 7.24635 10.803 7.65247 10.0992 8.05758C9.23728 8.55363 8.37329 9.04601 7.5091 9.53806C7.20091 9.71347 6.89728 9.89164 6.67967 10.1852C6.53438 10.3812 6.53444 10.4111 6.7426 10.5322C7.01598 10.6912 7.28981 10.8494 7.56364 11.0076C7.78865 11.1377 8.01367 11.2677 8.23843 11.3981C9.42314 12.0856 10.6076 12.7735 11.792 13.4614C12.1042 13.6427 12.4163 13.8242 12.7284 14.0057C13.6944 14.5673 14.6605 15.129 15.629 15.6863C15.7797 15.773 15.8403 15.8713 15.8397 16.048C15.8351 17.3798 15.8355 18.7116 15.8359 20.0434ZM6.35841 16.1239L6.35848 11.6429C6.35848 11.588 6.35894 11.5331 6.35987 11.4782C6.36119 11.3935 6.3939 11.3688 6.47297 11.4143C6.91431 11.6681 7.35614 11.921 7.79795 12.174L8.02046 12.3013C8.08965 12.341 8.11965 12.4004 8.11799 12.4787C8.1172 12.517 8.1176 12.5553 8.118 12.5936C8.11823 12.6157 8.11846 12.6379 8.11846 12.66L8.11845 14.2728C8.11843 16.113 8.1184 17.9532 8.11932 19.7934C8.11938 19.9741 8.12269 20.1549 8.19547 20.3271C8.30221 20.5795 8.52476 20.707 8.74652 20.8279C9.36084 21.1628 9.96363 21.5174 10.5664 21.872L10.5665 21.8721C11.0217 22.1399 11.4769 22.4077 11.9371 22.667C12.3797 22.9164 12.8208 23.1686 13.2619 23.4207L13.2619 23.4208C13.8055 23.7315 14.349 24.0423 14.8954 24.3478C15.0896 24.4565 15.1828 24.5727 15.1727 24.8081C15.1581 25.1518 15.16 25.4962 15.1619 25.8406C15.1628 26.0016 15.1637 26.1626 15.1629 26.3235C15.1619 26.5099 15.1359 26.5269 14.9799 26.4371C14.4162 26.1126 13.8529 25.7874 13.2897 25.4622L13.2891 25.4619C12.7369 25.1431 12.1846 24.8243 11.6321 24.5061C10.8498 24.0557 10.0671 23.6059 9.28448 23.1562C8.78788 22.8709 8.29128 22.5855 7.79479 22.3C7.73138 22.2635 7.66705 22.2283 7.60272 22.1931C7.44916 22.109 7.29555 22.0249 7.15434 21.9236C6.66546 21.5732 6.35543 21.1186 6.35715 20.4897C6.35998 19.4546 6.35942 18.4196 6.35887 17.3845C6.35864 16.9643 6.35841 16.5441 6.35841 16.1239ZM25.6385 14.3389C25.6388 14.1255 25.6391 13.912 25.6391 13.6986C25.6391 13.4627 25.6392 13.2269 25.6394 12.991C25.6397 12.4375 25.64 11.884 25.6386 11.3305C25.6371 10.7662 25.3876 10.3124 24.9694 9.96028C24.7323 9.76065 24.4582 9.61646 24.1841 9.47228C24.0604 9.40723 23.9367 9.34219 23.8165 9.27206C23.2371 8.93406 22.6568 8.59754 22.0766 8.26102C21.5641 7.96383 21.0517 7.66664 20.5398 7.36842C20.4473 7.31459 20.3658 7.28932 20.2656 7.34776C20.0331 7.48337 19.7999 7.6179 19.5668 7.75242C19.3121 7.89939 19.0574 8.04635 18.8035 8.19471C18.6642 8.27618 18.6663 8.31422 18.8053 8.39437C19.2401 8.64523 19.6751 8.89583 20.1101 9.14644C20.9639 9.63835 21.8178 10.1303 22.6705 10.6241C22.7157 10.6503 22.7614 10.6758 22.8071 10.7013C22.9765 10.7959 23.1463 10.8907 23.2924 11.02C23.6835 11.3664 23.8725 11.8065 23.8726 12.3285C23.8728 12.9954 23.8729 13.6624 23.8729 14.3293C23.873 15.274 23.8731 16.2187 23.8735 17.1634C23.8737 17.3655 23.9041 17.3832 24.0771 17.2843C24.227 17.1986 24.3766 17.1121 24.5262 17.0256C24.8311 16.8494 25.1361 16.6731 25.4442 16.5025C25.5926 16.4204 25.6446 16.3183 25.6428 16.1489C25.6367 15.5456 25.6376 14.9423 25.6385 14.3389Z" fill="white"/>
</svg>
