<svg width="32" height="35" viewBox="0 0 32 35" fill="none" xmlns="http://www.w3.org/2000/svg">
<path fill-rule="evenodd" clip-rule="evenodd" d="M32 17C32 25.8365 24.8365 33 16 33C7.16345 33 0 25.8365 0 17C0 8.16345 7.16345 1 16 1C24.8365 1 32 8.16345 32 17ZM15.8463 26.8C19.3291 26.8 21.4611 25.612 23.9186 23.17L21.5099 20.6455C19.7523 22.4275 18.2061 23.368 15.8951 23.368C12.217 23.368 9.46655 20.7775 9.46655 16.8835C9.46655 13.171 12.3146 10.4485 15.8137 10.4485C17.9946 10.4485 19.8336 11.389 21.5099 13.204L24 10.7785C21.9656 8.386 19.0036 7 15.8951 7C10.557 7 6 10.9105 6 16.867C6 22.675 10.0199 26.8 15.8463 26.8Z" fill="white"/>
</svg>
