<svg height="32" viewBox="0 0 32 32" width="32" xmlns="http://www.w3.org/2000/svg"><path d="m16 32c-8.836556 0-16-7.163444-16-16s7.163444-16 16-16 16 7.163444 16 16-7.163444 16-16 16zm-3.0157867-21.3783047c.1638452.0195091.2817905.0282956.3978475.0482515 1.0831504.1863791 2.1650661.3805023 3.2490879.5609989 1.3639241.22711 2.2683408 1.1050948 2.3988506 2.4340976.0651458.6632356-.0089331 1.3398744.0297041 2.0074288.0116929.2020162.1457613.4810264.3046678.5660623.1622474.0869719.4862339.0606123.6319225-.0566658.9408752-.7576538 1.8588005-1.5462094 2.7661949-2.3460832.1252806-.1104276.2036444-.3363462.2133037-.5140131.0302127-.5567546.0262908-1.1161152.0191734-1.6742845-.0251287-1.96632566-1.2892641-3.52891672-3.1812548-3.91433351-1.06572-.21713202-2.1440044-.37268373-3.2050764-.61036735-1.9107283-.4278603-3.5178056.2691067-4.5083573 1.98687717-.0814142.14125495-.2424996.27685077-.3940709.3261448-1.4759867.48013282-2.6398976 1.93281759-2.66655149 3.49920619-.04277697 2.5054325-.05417931 5.0124287-.01815661 7.5178613.02672652 1.861706 1.2614482 3.4181912 2.9330904 3.7759825 1.2987782.2778932 2.6020592.5555631 3.9164521.7296559 1.603446.2124409 3.0994048-.3848211 3.9723018-1.9352003.1379901-.2449065.3023437-.3828107.5603853-.4701549 1.4167236-.4792393 2.5206451-1.9784629 2.5687963-3.4998763.0267992-.8427641.0087878-1.6869431.0209165-2.5303775.0048659-.3376119-.0790901-.6054528-.4007526-.7609301-.3034332-.1465417-.5354745-.0173496-.7611975.172827-.8309914.7003178-1.6733851 1.3872324-2.4849854 2.1103357-.1581803.1409571-.2696618.4176589-.2798295.637695-.0342797.7427613-.0095867 1.4882777-.0146706 2.2327517-.0032681.4863131-.0195365.4956954-.5046809.4417102-.0719728-.0079675-.1441635-.0157115-.2152647-.0289658-1.0219263-.1898043-2.0422548-.3898101-3.0659242-.5690408-1.4175223-.2481828-2.3095926-1.3082279-2.3120619-2.7846661-.0037039-2.245857-.0015978-4.491714.000218-6.737571.0001452-.1839963.0174302-.3680671.029922-.6153563zm8.6427613 7.2559774c.2011752 1.464971-.300746 2.6986621-1.261884 3.104705 0-.6602571-.0019609-1.2977287.003704-1.9352004.000581-.0529426.0422685-.1189907.0842466-.1557006.3735177-.3277085.7515382-.6503536 1.1739334-1.013804zm-1.1575925-3.8968348c-.1510629-.5920497-.2255776-1.2042785-.460524-1.7429387-.6059222-1.3893173-1.7147823-2.1179308-3.1676012-2.35412518-1.0581669-.17200787-2.1094342-.38861866-3.2408811-.59971924.4670604-.53218196.9735571-.85750768 1.5941498-.87813374.5129604-.0169774 1.0346359.05718704 1.5438923.14363775.9994848.16947617 1.9980253.35220661 2.9877782.57276391 1.1020332.24565107 1.8980187 1.2723371 1.943628 2.4356613.0038492.0991094.0013074.198442.0010169.2977747-.0034861 1.2664546-.1304371 1.486863-1.2014589 2.1250792zm-8.823601-3.007904v.5262994c0 2.2316347-.0019609 4.4631949.0007262 6.6948296.0022515 1.95188 1.4705397 3.6288451 3.3631114 3.910387 1.1059552.1644871 2.201234.4047025 3.3670333.6232493-.3652382.5145344-.8292484.7334535-1.3495441.862869-.6359168.158009-1.2461966-.0236046-1.8620686-.1431165-.9716689-.1884641-1.9532874-.3325486-2.9142075-.5667325-1.1221508-.2734256-1.8992534-1.282464-1.9087675-2.4594893-.0196091-2.4298533-.0271623-4.8602279.0069721-7.2897833.012637-.9006213.4370658-1.6240969 1.2967447-2.1585127z" fill="#fff" fill-rule="evenodd"/></svg>