<svg width="32" height="32" viewBox="0 0 32 32" fill="none" xmlns="http://www.w3.org/2000/svg">
<path fill-rule="evenodd" clip-rule="evenodd" d="M32 16C32 24.8365 24.8365 32 16 32C7.1635 32 0 24.8365 0 16C0 7.1635 7.1635 0 16 0C24.8365 0 32 7.1635 32 16ZM18.4582 16.5826V7.29127L22.2968 5V14.2376L18.4582 16.5826ZM14.5885 23.0589L22.2968 27.7139L22.3072 23.0642L14.5885 18.4548V23.0589ZM14.617 14.208L6.84378 18.8309L3 16.5047L10.7317 11.9061L14.617 14.208ZM11.3706 10.7456L17.461 14.3827L17.4194 9.77325L9.68248 5.1531V7.72104C9.68248 8.96741 10.3265 10.1224 11.3706 10.7456ZM29 16.3301L21.2501 20.9073L17.3959 18.6053L23.4006 15.0193C24.4602 14.3853 25.7691 14.388 26.8288 15.0246L29 16.3301ZM13.5392 23.4994L13.5522 16.2737L9.68247 18.6053L9.66689 27.8294L11.8147 26.5616C12.8796 25.933 13.5366 24.7646 13.5392 23.4994Z" fill="white"/>
</svg>
