<svg xmlns="http://www.w3.org/2000/svg" width="32" height="32" viewBox="0 0 32 32"><path fill="#FFF" fill-rule="evenodd" d="M16 32C7.163 32 0 24.837 0 16S7.163 0 16 0s16 7.163 16 16-7.163 16-16 16zm.28-8.675c1.028.711 2.332 1.134 3.744 1.134.351 0 .698-.026 1.039-.077.117.048.23.107.369.187.3.176.701.446 1.2.81.409.299.988.01.988-.493v-1.461c.21-.136.408-.283.595-.442C25.345 22.025 26 20.715 26 19.31c0-.925-.28-1.79-.772-2.537a7.929 7.929 0 0 1-.627 1.53c.104.323.159.66.159 1.007 0 1.034-.488 2.01-1.352 2.742a4.679 4.679 0 0 1-.717.499.612.612 0 0 0-.311.531v.624c-.593-.38-1-.559-1.31-.559a.627.627 0 0 0-.104.009 5.696 5.696 0 0 1-2.602-.17 11.45 11.45 0 0 1-2.083.34zm-7.466-2.922a9.27 9.27 0 0 0 1.044.765v2.492c0 .63.725.99 1.236.616 1.41-1.03 2.39-1.612 2.635-1.67.566.09 1.144.135 1.728.135 5.2 0 9.458-3.607 9.458-8.12 0-4.514-4.259-8.121-9.458-8.121S6 10.107 6 14.62c0 2.21 1.03 4.271 2.814 5.783zm4.949.666c-.503 0-1.238.355-2.354 1.104v-1.437a.765.765 0 0 0-.39-.664 7.815 7.815 0 0 1-1.196-.833C8.37 18.01 7.55 16.366 7.55 14.62c0-3.61 3.516-6.588 7.907-6.588 4.392 0 7.907 2.978 7.907 6.588s-3.515 6.589-7.907 6.589c-.53 0-1.053-.044-1.564-.13a.784.784 0 0 0-.13-.01zm-2.337-4.916c.685 0 1.24-.55 1.24-1.226 0-.677-.555-1.226-1.24-1.226-.685 0-1.24.549-1.24 1.226 0 .677.555 1.226 1.24 1.226zm4.031 0c.685 0 1.24-.55 1.24-1.226 0-.677-.555-1.226-1.24-1.226-.685 0-1.24.549-1.24 1.226 0 .677.555 1.226 1.24 1.226zm4.031 0c.685 0 1.24-.55 1.24-1.226 0-.677-.555-1.226-1.24-1.226-.685 0-1.24.549-1.24 1.226 0 .677.555 1.226 1.24 1.226z"/></svg>