<svg height="32" viewBox="0 0 32 32" width="32" xmlns="http://www.w3.org/2000/svg"><path d="M13.548 25.408c1.005.334 2.055.515 3.14.573a10.47 10.47 0 002.122-.082 9.368 9.368 0 003.379-1.17c.27-.157.522-.342.777-.511l-3.072-3.038c-.033.025-.073.059-.116.085-.304.184-.593.402-.916.542-.894.388-1.83.472-2.778.324a295794.354 295794.354 0 01-2.536 3.277zm-.966-.376a.49.49 0 01.036-.149l1.445-3.49a5.052 5.052 0 01-1.124-.971 6.278 6.278 0 01-1.19-2.035l-.112.014c-.441.058-.746-.418-.498-.778l.308-.447a7.81 7.81 0 01-.089-1.004c-.016-.654.059-1.3.217-1.935.373-1.499 1.17-2.715 2.5-3.56a5.29 5.29 0 012.409-.815 683038.836 683038.836 0 002.572-3.734c-.397-.063-.8-.103-1.21-.12-.663-.03-1.333.028-1.996.084a9.661 9.661 0 00-2.565.59c-1.737.648-3.205 1.657-4.323 3.13C7.751 11.41 7.15 13.226 7.027 15.2c-.048.77-.034 1.542.062 2.308.125.989.376 1.946.786 2.86.794 1.768 2.024 3.157 3.711 4.15.326.192.658.363.996.514zm7.443-18.698a.49.49 0 01-.02.28l-.034.088-1.283 3.375c.425.134.826.33 1.2.596.122.086.185.07.285-.03.908-.9 1.82-1.796 2.732-2.694.029-.028.053-.06.095-.108l-.083-.058c-.132-.103-.258-.214-.396-.308a8.188 8.188 0 00-2.496-1.141zM16 32C7.163 32 0 24.837 0 16S7.163 0 16 0s16 7.163 16 16-7.163 16-16 16zm.321-14.718l-3.223 7.789.043.03 8.9-11.51-5.576.88 3.055-8.03-.044-.02-7.908 11.482 4.753-.62z" fill="#fff"/></svg>