<svg width="32" height="32" viewBox="0 0 32 32" xmlns="http://www.w3.org/2000/svg"><path d="M16 0c8.837 0 16 7.163 16 16s-7.163 16-16 16S0 24.837 0 16 7.163 0 16 0zm2.503 5.5l-1.722.978v8.304l.94.534V8.992l3.23 1.833.003-.001.627.355.524-.295v-.5L17.722 7.9v-.864l.781-.444 4.54 2.577v2.294l-2.18 1.23-.073-.037a.95.95 0 00-.305-.092l-.103-.007a.946.946 0 00-.934.842l-.006.111a.95.95 0 00.83.946l.11.007a.937.937 0 00.913-.746l.017-.11.008-.082 2.2-1.241 2.04 1.158v5.123l-2.043 1.158-8.298-4.712V6.478L13.496 5.5 8.017 8.61v2.84L5.5 12.877v6.24l2.517 1.429v2.843l5.48 3.111 1.722-.978V17.2l-.94-.534v6.342l-3.86-2.187-.524.295v.5l4.383 2.484v.864l-.782.444-4.539-2.577v-2.294l2.18-1.229.073.036c.1.049.202.08.305.092l.103.006c.482 0 .88-.368.934-.841l.006-.111a.95.95 0 00-.83-.946l-.11-.007a.936.936 0 00-.912.746l-.018.11-.008.082-2.2 1.241-2.04-1.158v-5.123l2.043-1.158 8.298 4.712v8.533l1.722.978 5.48-3.11v-2.84l2.517-1.427v-6.24l-2.517-1.428V8.611L18.503 5.5zm4.54 15.584v1.747l-4.54 2.577-.781-.444V24.1l5.32-3.016zm-5.321-3.56l4.833 2.744-4.833 2.74v-5.485zm-3.444-8.532v5.484l-4.833-2.744 4.833-2.74zm-.782-2.4l.782.444V7.9l-5.32 3.016V9.17l4.538-2.577z" fill="#FFF" fill-rule="evenodd"/></svg>