<svg width="32" height="32" viewBox="0 0 32 32" fill="none" xmlns="http://www.w3.org/2000/svg">
<path fill-rule="evenodd" clip-rule="evenodd" d="M27.5731 4.96235C29.0219 6.48488 30.1561 8.27835 30.9105 10.24V10.2541C31.7149 12.3295 32.0754 14.5504 31.9689 16.7736C31.9061 18.1791 31.6545 19.5698 31.221 20.9083C30.4895 23.177 29.26 25.2533 27.6225 26.9855C25.985 28.7177 23.9809 30.0618 21.7569 30.9194C19.5329 31.7771 17.1452 32.1267 14.7687 31.9425C12.3922 31.7583 10.0869 31.0451 8.02158 29.855C6.7978 29.1623 5.67288 28.3079 4.67714 27.315C2.94925 25.584 1.6411 23.4801 0.853178 21.1648C0.0652542 18.8494 -0.181475 16.3843 0.131942 13.9587C0.44536 11.5331 1.31058 9.21163 2.66115 7.17261C4.01172 5.13358 5.81169 3.43125 7.9228 2.19639C8.65791 1.76279 9.42719 1.38995 10.223 1.08157C12.1824 0.321376 14.2726 -0.0446917 16.3737 0.00434968C18.4748 0.0533911 20.5456 0.516577 22.4675 1.36736C24.3893 2.21815 26.1243 3.43981 27.5731 4.96235ZM19.4294 6.38299V13.2828C18.2739 12.6213 16.9295 12.2594 15.5297 12.2594C11.54 12.2594 8 15.1995 8 19.6391C8 21.5992 8.69946 23.2689 9.82695 24.5191C9.82048 24.5143 9.814 24.5095 9.80751 24.5047C13.558 28.6078 18.5701 26.4144 18.5701 26.4144C18.5701 26.4144 22.2838 25.0557 22.9608 20.9264C22.9589 20.9253 22.957 20.9241 22.9551 20.923C23.0235 20.5109 23.0593 20.0824 23.0593 19.6391C23.0593 19.5314 23.0572 19.4245 23.0531 19.3185V5.00002L19.4294 6.38299ZM19.0024 20.3912C19.0464 20.1507 19.0695 19.8995 19.0695 19.6391C19.0695 17.4493 17.4794 15.9194 15.5297 15.9194C13.5801 15.9194 11.9898 17.4493 11.9898 19.6391C11.9898 21.7993 13.5798 23.3289 15.5297 23.3289C15.6066 23.3289 15.683 23.3265 15.7587 23.3218C15.8699 23.1949 15.9811 23.0664 16.0925 22.9376C16.9714 21.9215 17.8708 20.8817 19.0024 20.3912Z" fill="white"/>
</svg>
