<svg height="32" viewBox="0 0 32 32" width="32" xmlns="http://www.w3.org/2000/svg"><path d="m16 32c-8.836556 0-16-7.163444-16-16s7.163444-16 16-16 16 7.163444 16 16-7.163444 16-16 16zm-.000112-7.0008005.000285.0004981-.000173.0003024h4.5363322l-2.2719723-3.9570709h-4.5280277l.000458.0008005-.000804-.0008005-2.2723184 3.9570709h4.5363322zm-2.2632686-14.0429793-.0002872.000502 4.527855-.0003018 2.272145-3.9564204h-4.5363322l.000173.00030236-.000173.00030237v-.00060473h-4.5363322l2.2723184 3.9567222zm9.9989414 9.5385059.0004254.0007408 2.2640138-3.9570709h-4.5363322l.000264.0004598-.00061-.0004598-2.2640138 3.9570709h.0011918l-.0011918.0003487 2.2640138 3.9567222 2.2723183-3.9567222-.0011919-.0003487h.0011919zm-15.47171965-8.9986087-2.26384115 3.9564204h4.5363322l-.0001733-.0003018 2.2638411-3.9564204-2.2640138-3.95707093-2.27231838 3.95707093zm4.53533685 8.9996982.000822-.0003487-2.2636678-3.9570709h-4.5363322l2.26366782 3.9570709.00082199.0003487h-.00082199l2.27231838 3.9567222 2.2640138-3.9567222zm10.9364622-8.9993977-.0000001-.0006023-2.2723183-3.95707093-2.2640138 3.95707093 2.2640138 3.9567222.0005373-.0003331-.0001913.0003331h4.5363322l-2.2640138-3.9567222z" fill="#fff" fill-rule="evenodd"/></svg>