<svg width="32" height="32" viewBox="0 0 32 32" fill="none" xmlns="http://www.w3.org/2000/svg">
<path fill-rule="evenodd" clip-rule="evenodd" d="M16 32C24.8365 32 32 24.8365 32 16C32 7.1635 24.8365 0 16 0C7.1635 0 0 7.1635 0 16C0 24.8365 7.1635 32 16 32ZM20.1981 6.69932C18.6987 6.19953 17.1992 5.69971 15.7998 5L15.7 5.19995L15.0999 5.5C14.8 5.69987 14.5003 5.79977 14.2005 5.89971L14.2 5.8999L14.1985 5.90053C13.299 6.30032 12.3994 6.70016 11.3999 7C9.9999 7.4 8.6998 7.60005 7.2998 7.80005C7.1498 7.80005 6.9748 7.82501 6.7998 7.84998C6.6248 7.87494 6.4498 7.8999 6.2998 7.8999C6.0998 7.8999 6 7.99995 6 8.19995V9V10.7V11.2V11.3999H6.19995H12.3999H12.5999C12.7999 11.3999 13.0999 11.6 13.0999 11.8C13.1999 12 13.1999 12.1 13.0999 12.3C12.9999 12.5 12.9 12.6001 12.7 12.6001H12.3999H6.09985L6.5 15.3999H7.2998H13.5H13.7998H14.5999H15.7C15.7 15.3999 15.7999 15.4 15.8999 15.5C16.0999 15.7 16.0999 16.0999 15.8999 16.3999C15.8499 16.3999 15.7999 16.4249 15.7499 16.45C15.6999 16.475 15.6499 16.5 15.5999 16.5H15.2998H6.7998V16.7C6.7998 16.9371 6.86243 17.1118 6.93808 17.3229C6.95811 17.3787 6.97906 17.4372 7 17.5C7.05 17.75 7.12498 17.975 7.19995 18.2C7.27493 18.4249 7.3499 18.6499 7.3999 18.8999C7.3999 18.9999 7.49985 19.1001 7.59985 19.1001H8.3999H11.7998H12.7C12.9 19.1001 13.1 19.1999 13.2 19.3999C13.3 19.5999 13.3 19.9001 13.2 20.1001C13.2 20.2001 12.9999 20.3 12.8999 20.3H12.5999H8.3999H8.19995V20.3999C8.59995 21.1999 9 21.9001 9.5 22.6001L9.50007 22.6002C9.60005 22.7001 9.69995 22.8 9.8999 22.8H11.5H14.0999H14.5H14.5999C14.7999 22.9 15 23.0999 15 23.3999V23.5C15 23.8 14.8 24 14.5 24H14.2998H10.8999H10.5999L10.7 24.1001C10.7697 24.2395 10.888 24.3303 10.9871 24.4064C11.0301 24.4394 11.0696 24.4697 11.0999 24.5C12.3999 25.7 13.8999 26.7 15.5999 27.3C15.7999 27.4 16.0998 27.4 16.2998 27.3C18.0998 26.6 19.6999 25.5001 21.0999 24.1001C21.7999 23.4001 22.3999 22.6 22.8999 21.7C23.2999 21 23.5999 20.3001 23.8999 19.6001C24.2999 18.6001 24.6999 17.4999 24.8999 16.3999C25.1999 14.8999 25.4 13.3999 25.5 11.8999C25.5999 11.5005 25.5999 11.1011 25.5999 10.7017V10.7V10V8.1001C25.5999 7.8001 25.5998 7.69995 25.2998 7.69995C25.1001 7.6001 24.9005 7.6001 24.7008 7.6001H24.7C24.45 7.5501 24.2249 7.52505 23.9999 7.5C23.7748 7.47495 23.5498 7.4499 23.2998 7.3999C22.1998 7.1999 21.2 6.99995 20.2 6.69995L20.1981 6.69932Z" fill="white"/>
</svg>
