<svg width="32" height="32" viewBox="0 0 32 32" fill="none" xmlns="http://www.w3.org/2000/svg">
<g clip-path="url(#clip0)">
<path fill-rule="evenodd" clip-rule="evenodd" d="M2 8.08101L16 0L30 8.08101V24.243L16 32.324L2 24.243V8.08101ZM10.4709 6.98228H21.4583L22.8051 12.5823H9.19497L10.4709 6.98228ZM12.4203 16.5519V20.2734L14.9013 22.6481V23.7468L12.5266 25.9798H10.5064L5.47345 17.2253L9.15953 14.4962L12.4203 16.5519ZM19.5443 13.4328H12.4557L13.6254 16.5518L13.2709 20.0606H18.7292L18.3747 16.5518L19.5443 13.4328ZM19.5798 16.5518L22.8051 14.4607L26.4912 17.2252L21.4937 25.9442H19.5089L17.1342 23.7468V22.648L19.5798 20.2733V16.5518Z" fill="white"/>
</g>
<defs>
<clipPath id="clip0">
<rect width="32" height="32" fill="white"/>
</clipPath>
</defs>
</svg>
