<svg height="32" viewBox="0 0 32 32" width="32" xmlns="http://www.w3.org/2000/svg"><path d="m16 32c-8.836556 0-16-7.163444-16-16s7.163444-16 16-16 16 7.163444 16 16-7.163444 16-16 16zm5.8334405-22.25568878.5755627-.58810514c-1.6038585-1.34330054-3.5774919-2.09915378-5.6340836-2.09915378-4.6469453 0-8.47202571 3.6529618-8.7601286 8.397273h.82250804c.28810289-4.2404091 3.74276526-7.55721679 7.93762056-7.55721679 1.8508039 0 3.6192926.62954879 5.0585209 1.84720271zm-.2881029 2.77080408.5762058-.5874473c-1.2654603-1.7167766-3.2447131-2.7271515-5.3466238-2.72936043-3.7016077 0-6.703537 3.06551443-6.703537 6.80202133 0 3.7779506 3.0019293 6.8428072 6.703537 6.8428072 2.0977492 0 4.0713827-1.0078043 5.3466238-2.7287026l-.5762058-.5881051c-1.1124415 1.5573348-2.8848716 2.4778065-4.770418 2.4774093-3.2488746 0-5.8810289-2.6872589-5.8810289-6.0040666 0-3.2747062 2.6321543-5.9613073 5.8810289-5.9613073 1.8855464-.001055 3.6579765.9194167 4.770418 2.4767515zm.9459807-2.1412553c.2057878.2105074.370418.4196992.5350483.6295488l.5755627-.5874473c-.1646303-.2105074-.3292605-.4196992-.5344052-.6295488zm-5.7575562 14.6105314c2.0565916 0 4.0713826-.7558533 5.6340836-2.0991538l-.5755627-.5874473c-1.4392283 1.2169961-3.2077171 1.8472027-5.0585209 1.8472027-4.1948553 0-7.64951773-3.3168077-7.93762062-7.5572168h-.82250804c.28810289 4.7443112 4.11318326 8.3966152 8.76012866 8.3966152zm5.7575562-3.3168078.5762058.5881052c.2057878-.2105074.3697749-.420357.5344052-.6302066l-.5755627-.5874473c-.1646303.2098496-.3292605.4196992-.5350483.6295487zm-15.66881026-5.6679125c0-5.5837096 4.48231516-10.15961488 9.95241156-10.15961488 2.9614148 0 5.7575563 1.34395837 7.6495177 3.69506324l.5755627-.58810514c-2.0559486-2.52016864-5.0585209-3.94701432-8.2250804-3.94701432-5.9215434 0-10.7749196 4.91205932-10.7749196 10.9996711 0 6.0455103 4.8115756 11.0003289 10.7749196 11.0003289 3.2077171 0 6.1691318-1.4275035 8.2250804-3.9470143l-.5755627-.5874473c-1.8919614 2.3932063-4.6881029 3.6944054-7.6495177 3.6944054-5.4694534.0006578-9.95241156-4.5759053-9.95241156-10.1602727z" fill="#fff" fill-rule="evenodd"/></svg>