<svg width="32" height="32" viewBox="0 0 32 32" fill="none" xmlns="http://www.w3.org/2000/svg">
<path fill-rule="evenodd" clip-rule="evenodd" d="M31.104 15.968C31.104 24.3239 24.3302 31.0976 15.9744 31.0976C7.61854 31.0976 0.844788 24.3239 0.844788 15.968C0.844788 7.61216 7.61854 0.838409 15.9744 0.838409C24.3302 0.838409 31.104 7.61216 31.104 15.968ZM16.2179 19.1287C17.8665 19.0373 19.1778 17.6741 19.1778 16.0028C19.1778 14.2724 17.7775 12.8664 16.0471 12.8664C15.218 12.8664 14.4655 13.1844 13.9056 13.7058C14.4655 13.1844 15.218 12.8664 16.0471 12.8664C17.7776 12.8664 19.1779 14.2723 19.1779 16.0028C19.1779 17.6797 17.8715 19.038 16.2179 19.1287ZM12.9155 16.1737C13.0029 17.7654 14.2648 19.0355 15.8549 19.1281C14.2698 19.0349 13.0035 17.7604 12.9155 16.1737ZM16.0414 15.4735C16.326 15.4735 16.5651 15.7125 16.5708 15.9972C16.5708 16.2818 16.3374 16.5208 16.0471 16.5265C15.7625 16.5379 15.5234 16.3045 15.512 16.0142C15.5063 15.7239 15.7511 15.4735 16.0414 15.4735ZM16.0415 24.843C11.1632 24.843 7.20134 20.8754 7.20134 16.0028C7.20134 11.1246 11.1689 7.16274 16.0415 7.16274C18.2444 7.16274 20.2651 7.97673 21.8134 9.31442L23.3219 7.08305C21.3353 5.46075 18.8022 4.48737 16.0415 4.48737C9.69456 4.48737 4.52597 9.65026 4.52597 15.9972C4.52597 22.3441 9.68887 27.5126 16.0415 27.5126C18.8193 27.5126 21.3694 26.5222 23.356 24.8828L21.8533 22.6514C20.2993 24.0119 18.2671 24.843 16.0415 24.843ZM16.0244 24.2851C20.6067 24.2908 24.3237 20.5851 24.3237 16.0085C24.3237 11.4433 20.6237 7.72622 16.0699 7.72622C11.4876 7.71484 7.77056 11.4148 7.76487 15.9914C7.75918 20.5623 11.4592 24.2794 16.0244 24.2851ZM23.1056 13.4868C23.1226 13.5323 23.1397 13.5779 23.1625 13.6633C23.1475 13.6764 23.132 13.6943 23.116 13.7128C23.0833 13.7506 23.0489 13.7904 23.0145 13.7942C22.9519 13.7885 22.8608 13.7316 22.8323 13.669C22.7761 13.5488 22.7256 13.4252 22.6751 13.3017C22.6133 13.1503 22.5515 12.9992 22.4794 12.855C21.5345 10.9594 20.0317 9.71852 18.0053 9.10945C17.9967 9.1066 17.9882 9.10518 17.9797 9.10375C17.9711 9.10233 17.9626 9.10091 17.9541 9.09806C17.8402 9.06391 17.7264 9.01837 17.7719 8.87037C17.8174 8.72806 17.937 8.75083 18.0508 8.78499C18.9673 9.04114 19.8097 9.45098 20.5668 10.0259C21.7565 10.9253 22.599 12.0865 23.1056 13.4868ZM14.2217 23.2303C14.2063 23.2427 14.1916 23.2547 14.1801 23.2662C14.0321 23.2206 13.9125 23.1922 13.793 23.1694C11.4535 22.3895 9.85394 20.8412 8.97732 18.5416C8.97163 18.5245 8.96594 18.5088 8.96025 18.4932C8.95456 18.4775 8.94886 18.4619 8.94317 18.4448C8.91471 18.3423 8.93748 18.2626 9.03994 18.2228C9.14809 18.1829 9.21071 18.2342 9.25055 18.3309C9.29683 18.4367 9.3397 18.5442 9.38245 18.6514C9.45014 18.8211 9.51755 18.9902 9.59778 19.1506C10.5484 21.0519 12.0512 22.2985 14.0833 22.9075C14.0961 22.9104 14.1096 22.9125 14.1231 22.9147C14.1637 22.9211 14.2043 22.9275 14.2256 22.9531C14.2655 22.9986 14.311 23.0726 14.3053 23.1295C14.3012 23.166 14.2597 23.1996 14.2217 23.2303ZM14.5159 22.2814C14.5615 22.3668 14.4647 22.4635 14.3395 22.4692C14.3265 22.4628 14.3063 22.4581 14.2849 22.4533C14.2686 22.4495 14.2518 22.4457 14.237 22.4408C12.0682 21.7919 10.5825 20.4029 9.76286 18.3025C9.75717 18.2854 9.75147 18.2697 9.74578 18.2541C9.74009 18.2384 9.7344 18.2228 9.72871 18.2057C9.69455 18.0976 9.71163 18.0065 9.81978 17.9666C9.93363 17.9211 9.99624 17.9894 10.0361 18.0919C10.0741 18.1806 10.1104 18.2711 10.1469 18.3619C10.2249 18.5563 10.3034 18.7519 10.4004 18.9343C11.2542 20.5452 12.5692 21.6097 14.3224 22.1277C14.3964 22.1505 14.4818 22.2131 14.5159 22.2814ZM22.3524 13.781C22.3617 13.8152 22.3723 13.8542 22.3883 13.9023C22.3797 13.9124 22.3707 13.9247 22.3613 13.9375C22.3333 13.9756 22.3014 14.0191 22.2631 14.0276C22.2062 14.039 22.1265 13.9991 22.081 13.9536C22.0491 13.9297 22.0367 13.8862 22.0244 13.8428C22.0191 13.8242 22.0138 13.8056 22.007 13.7885C21.2328 11.8019 19.8211 10.5041 17.7833 9.8779C17.7662 9.87221 17.7506 9.86794 17.7349 9.86367C17.7192 9.8594 17.7036 9.85513 17.6865 9.84944C17.5897 9.81529 17.5328 9.74698 17.567 9.64452C17.6011 9.54206 17.6865 9.5136 17.7833 9.54206C17.8141 9.55087 17.8447 9.55946 17.8752 9.56801C18.0021 9.60365 18.1261 9.63845 18.2501 9.68437C20.2196 10.4073 21.58 11.7507 22.3314 13.7088C22.3389 13.7312 22.3452 13.7546 22.3524 13.781ZM21.563 13.9763C21.58 14.0219 21.5971 14.0731 21.6199 14.1471C21.6068 14.1602 21.5943 14.1776 21.5817 14.1952C21.5558 14.2313 21.5291 14.2685 21.4947 14.2723C21.432 14.278 21.358 14.2439 21.3068 14.204C21.2878 14.1927 21.279 14.161 21.2701 14.1294C21.2657 14.1136 21.2613 14.0978 21.2556 14.0845C20.5839 12.354 19.36 11.2156 17.5897 10.6634C17.5727 10.6577 17.5499 10.6521 17.5271 10.6464C17.4076 10.6179 17.3222 10.5553 17.3621 10.4244C17.3962 10.3048 17.4987 10.2934 17.6068 10.3333C17.7036 10.3688 17.8018 10.4024 17.9003 10.4362C18.1493 10.5216 18.4005 10.6078 18.6371 10.7261C20.0374 11.4205 21.0108 12.5134 21.563 13.9763ZM14.6407 21.666C14.6236 21.6779 14.607 21.6893 14.5956 21.7008C14.5622 21.6924 14.5326 21.6856 14.506 21.6795C14.4601 21.6689 14.4231 21.6604 14.3907 21.6495C12.5407 21.0632 11.2485 19.8736 10.537 18.0634C10.5332 18.0538 10.5291 18.044 10.525 18.034C10.4798 17.9252 10.4262 17.7958 10.5825 17.7333C10.7353 17.6721 10.7788 17.7933 10.8188 17.9051C10.8236 17.9183 10.8282 17.9313 10.833 17.9439C11.5161 19.6686 12.7399 20.8014 14.5159 21.3479C14.5311 21.3535 14.5488 21.3573 14.5665 21.3611C14.6019 21.3687 14.6373 21.3763 14.6525 21.3991C14.6924 21.4503 14.7265 21.53 14.7151 21.5869C14.7114 21.6172 14.6748 21.6425 14.6407 21.666ZM14.8303 20.8922C14.8117 20.9054 14.7932 20.9186 14.7778 20.9323C14.706 20.9065 14.6361 20.8821 14.5677 20.8583C14.3647 20.7875 14.1753 20.7215 13.9922 20.6363C12.7001 20.05 11.8007 19.0937 11.2884 17.7674C11.2851 17.7586 11.2813 17.7495 11.2775 17.7403C11.2618 17.7022 11.2451 17.6618 11.2542 17.6251C11.2656 17.5739 11.2998 17.4999 11.3453 17.4885C11.3965 17.4714 11.4705 17.4999 11.5218 17.5283C11.5477 17.5413 11.5605 17.5771 11.5726 17.6111C11.5765 17.6219 11.5803 17.6325 11.5844 17.6422C12.165 19.1392 13.2295 20.1069 14.7607 20.5737C14.768 20.5752 14.7761 20.5763 14.7842 20.5773C14.8077 20.5805 14.8319 20.5838 14.8404 20.5965C14.8461 20.6055 14.8522 20.6147 14.8584 20.6241C14.8952 20.68 14.9355 20.7413 14.9258 20.79C14.9178 20.8298 14.8737 20.8613 14.8303 20.8922ZM17.2595 11.1031C17.2803 11.0884 17.302 11.073 17.3222 11.0562C17.4221 11.0971 17.5215 11.1359 17.6199 11.1743C17.8918 11.2805 18.1556 11.3835 18.3981 11.5173C19.5251 12.1093 20.3107 13.0144 20.7774 14.1983C20.7788 14.2007 20.7803 14.2031 20.7817 14.2055C20.7981 14.2324 20.8168 14.2633 20.8116 14.2894C20.8061 14.3085 20.8013 14.3293 20.7965 14.3502C20.7811 14.4167 20.7651 14.4855 20.7262 14.5114C20.6351 14.5683 20.5497 14.5114 20.5099 14.4033C20.5044 14.3888 20.4989 14.3743 20.4934 14.3598C20.4532 14.2537 20.4119 14.1448 20.3619 14.0447C19.7414 12.724 18.7282 11.8531 17.3336 11.4319C17.3269 11.4306 17.3189 11.4295 17.3105 11.4284C17.2832 11.4249 17.2512 11.4208 17.2425 11.4034C17.2368 11.3944 17.2307 11.3852 17.2245 11.3758C17.1877 11.3199 17.1474 11.2586 17.1571 11.2099C17.1651 11.1698 17.2099 11.1382 17.2595 11.1031ZM15.035 20.1143C15.011 20.1306 14.9848 20.1485 14.9599 20.1695C14.8399 20.115 14.7194 20.0634 14.5995 20.0121C14.3441 19.9027 14.092 19.7947 13.8556 19.6629C13.0132 19.1734 12.4212 18.4562 12.0625 17.5511C12.0585 17.5417 12.0535 17.5317 12.0484 17.5214C12.0319 17.4881 12.014 17.452 12.0227 17.4259C12.0398 17.3576 12.0739 17.2722 12.1252 17.2437C12.165 17.2209 12.2618 17.2665 12.3073 17.3063C12.3356 17.3306 12.3495 17.3749 12.3634 17.4189C12.3691 17.4369 12.3747 17.4549 12.3813 17.4714C12.8765 18.6269 13.7133 19.4011 14.9144 19.7768C14.9296 19.7825 14.9473 19.7863 14.965 19.7901C15.0004 19.7977 15.0358 19.8052 15.051 19.828C15.0908 19.8792 15.1364 19.9589 15.125 20.0216C15.1212 20.0555 15.0824 20.082 15.035 20.1143ZM17.0533 11.8832C17.0758 11.8671 17.1 11.8498 17.123 11.8304C17.2288 11.8777 17.3351 11.9229 17.441 11.968C17.717 12.0854 17.9909 12.2019 18.2501 12.354C19.0754 12.8379 19.6617 13.5494 20.0204 14.4374C20.0244 14.4468 20.0293 14.4568 20.0345 14.4671C20.051 14.5005 20.0689 14.5365 20.0602 14.5627C20.0431 14.6367 20.0147 14.7391 19.9634 14.7562C19.9122 14.779 19.8211 14.7163 19.7642 14.6708C19.7402 14.6508 19.7303 14.614 19.7206 14.5781C19.7164 14.5628 19.7124 14.5478 19.7073 14.5342C19.212 13.373 18.3639 12.5988 17.1571 12.2231C17.1411 12.2171 17.1236 12.2132 17.1068 12.2094C17.0757 12.2025 17.0467 12.196 17.0319 12.1776C16.9921 12.1207 16.9465 12.0467 16.9579 11.984C16.9618 11.9488 17.0036 11.9189 17.0533 11.8832Z" fill="white"/>
</svg>
