<svg height="32" viewBox="0 0 32 32" width="32" xmlns="http://www.w3.org/2000/svg"><path d="m16 32c-8.836556 0-16-7.163444-16-16s7.163444-16 16-16 16 7.163444 16 16-7.163444 16-16 16zm8.8330498-16.6535728c-.0638648.1209744-.0911186.1799635-.1247316.2351136-.3940901.6470073-.7921773 1.2915802-1.1833603 1.9404601-.7306746 1.2118044-1.4579879 2.4257624-2.1851194 3.639814-.0814889.1361431-.1690645.2068363-.3328599.1226599-1.14575-.5882055-2.3914307-.7725698-3.6404727-.9125519-1.3382528-.1500008-2.6747795-.0941016-4.0016765.1629223-.4726719.0914799-.4748522.0793075-.266088.5271564.1909583.4095528.2616365.4436354.66254.3746275 2.5572248-.4397964 5.0355951-.2181659 7.401589.9430764.358115.17575.4356067.1496263.6417363-.1966303 1.6770176-2.8172439 3.3533993-5.6348624 5.0294176-8.4526681.0480576-.0808057.0894833-.1657312.1659757-.3082414-.1114681.0433523-.1525305.0558056-.190595.0747195-1.1484754.5693852-2.3191173 1.075755-3.5872369 1.288303-.8967411.1503753-1.7903026.2001883-2.6668759-.1339895-.8939249-.3408259-1.570001-.9806234-2.2035612-1.6818445-.1365415-.1510308-.2740824-.3011252-.4386954-.4819314-.1240957.2012183-.2240263.3642342-.3249563.5267819-.1275478.2054318-.0868487.3853953.0794903.5436359.344579.3278108.6782564.6692921 1.0385518.9778144.8910178.7628319 1.9007713 1.2355873 3.0770457 1.2798759.879662.0332399 1.7305259-.1414802 2.5758481-.3629233.1351789-.0353935.2725381-.06133.4740346-.1061804zm-17.6542896.1209276c.01498959-.0188203.02988834-.037547.04478709-.0563673.39118298.0779967.78163919.1602069 1.17373063.2330537.85640547.158896 1.71453698.1998138 2.56939808-.0050562 1.0874269-.260582 2.0133296-.8333379 2.8394834-1.59102.9242674-.8477574 1.6231459-1.8817519 2.3172095-2.9263269.3110568-.4679801.3972697-.8696677.0289799-1.32107465-.0672261-.08239746-.1204618-.17696727-.2034043-.30056345-.0715866.12780969-.112649.2005629-.1531664.27359701-.628927 1.13249689-1.3223547 2.21845789-2.1777609 3.18597249-.5338112.603655-1.12749 1.1328714-1.8468088 1.491394-1.1572875.5767822-2.35654585.5417633-3.57061212.2404507-.9458888-.2347391-1.83872353-.6188236-2.7213835-1.0314663-.14535364-.0680715-.2937052-.1293078-.44069407-.1937276-.01290013.0174158-.02570942.0349252-.03851871.0523411.04451455.0867046.08466849.1762182.13417958.2597392.34675927.5854901.69569885 1.1695757 1.04354828 1.7543168 1.28865085 2.1661167 2.57557563 4.3333571 3.86649764 6.4979757.3646559.6113329.2903439.5408269.8881107.2658254.2766262-.1273415.2772621-.1351131.1169189-.4013131-1.12076744-1.8605907-2.24298838-3.7201514-3.36430085-5.5803676-.16988207-.2817432-.33758383-.5648908-.50619405-.847383z" fill="#fff" fill-rule="evenodd"/></svg>