<svg height="32" viewBox="0 0 32 32" width="32" xmlns="http://www.w3.org/2000/svg"><path d="m16.9311313 9.62521437c.0613385-1.1878622.4536457-3.82606907 1.7041146-3.82606907.3306011 0 .6010929.09401709.8114754.28205128-.3005464.15669516-.4508197.42307692-.4508197.7991453 0 .56410256.4733607.94017094.9467214.94017094.4733606 0 .9467213-.28205128.9467213-.94017094s-.6311476-1.88034188-2.1188525-1.88034188c-2.4582145.04577261-3.420439 2.85483413-3.4693367 4.69501004-2.5014834.39507656-5.0511551 2.16524686-5.0511551 6.25798146 0 3.6391648 2.4489036 6.1432717 5.0767279 6.5650747-.115807 2.0979952-.7939133 3.729797-1.6955804 3.729797-.2704918 0-.5409836-.094017-.8114754-.2820512.2704918-.1566952.4057377-.4387465.4057377-.8461539 0-.6111111-.4508196-.9401709-.9016393-.9401709s-.9467213.2820513-.9467213.9401709c0 1.0103395.9467213 1.8803419 2.0737705 1.8803419 2.380833 0 3.3410357-2.4442128 3.5268336-4.4729187 2.489896-.3111643 4.2723467-1.8828516 4.2723467-2.5783634 0-.3290598-.2254098-.4700854-.4057377-.4700854-.3249079 0-1.5768383 1.6848309-3.8324023 2.0132595-.0058063-2.1744723-.0680558-8.4951102-.0853146-10.7912765.8465856.0474397 1.5748227.2735607 2.2947661 1.3506666.6680996.9995426.5409836 1.5042735.9918033 1.5042735.3005464 0 .4658469-.1253562.4959016-.3760684-.1202186-.3657595-.1803279-.6321413-.1803279-.7991453 0-.2505061.045082-.6581197.045082-.8461539 0-.2645054-1.1894256-1.72792485-3.6426392-1.90897363zm-1.5872957 11.78784063c-1.7258977-.5213327-3.110229-2.5319212-3.110229-5.4600635 0-1.8466306.7597695-4.5925291 3.0675294-5.160067.0080925 2.5769571.0387216 8.1856821.0426996 10.6201305zm.6561644 10.586945c-8.836556 0-16-7.163444-16-16s7.163444-16 16-16 16 7.163444 16 16-7.163444 16-16 16z" fill="#fff" fill-rule="evenodd"/></svg>