<svg width="32" height="32" viewBox="0 0 32 32" fill="none" xmlns="http://www.w3.org/2000/svg">
<path fill-rule="evenodd" clip-rule="evenodd" d="M32 16C32 24.8365 24.8365 32 16 32C7.16345 32 0 24.8365 0 16C0 7.16345 7.16345 0 16 0C24.8365 0 32 7.16345 32 16ZM23.6348 24.7824C23.7766 24.1339 24.3441 23.6678 25.0129 23.6678C25.7931 23.6678 26.4214 24.296 26.4214 25.056C26.4315 25.8261 25.8033 26.4645 25.023 26.4645C24.2428 26.4645 23.6145 25.8464 23.6044 25.0661L18.2439 24.8027C18.1527 25.0661 18.0109 25.3195 17.8183 25.5221L19.1052 26.6266C19.5612 26.0288 20.4023 25.8869 21.0305 26.3125C21.6487 26.7381 21.8311 27.569 21.446 28.2176C21.0609 28.8661 20.2402 29.0991 19.5714 28.7445C18.9026 28.3999 18.629 27.5893 18.9431 26.9002L17.5954 25.7349C17.1495 26.0896 16.5618 26.2314 15.9944 26.12C15.4269 25.9984 14.9405 25.6437 14.6669 25.1371L11.0595 26.0187C11.0392 26.272 10.9582 26.5152 10.8366 26.7381L13.6029 27.9744C13.917 27.3258 14.6669 27.0117 15.3458 27.2549C16.0247 27.4981 16.4199 28.2074 16.2578 28.9066C16.0957 29.6058 15.437 30.0719 14.7176 29.9909C13.9981 29.9098 13.4611 29.3018 13.4611 28.5823C13.4611 28.481 13.4813 28.3696 13.5016 28.2682L10.6643 27.0016C10.1475 27.6805 9.25579 27.944 8.45527 27.6602C7.65475 27.3765 7.12782 26.6165 7.14809 25.7653C7.17849 24.9243 7.74594 24.1845 8.5566 23.9413L7.94861 20.5062C7.90807 20.5163 7.86754 20.5163 7.82701 20.5163C7.55341 20.5163 7.27982 20.4657 7.03662 20.3542L6.21583 21.4283C6.65156 22.0363 6.55023 22.8774 5.9625 23.3536C5.37478 23.8299 4.53373 23.7691 4.02707 23.2118C3.52041 22.6544 3.54067 21.8134 4.0676 21.2763C4.59452 20.7393 5.44571 20.7089 6.00304 21.2054L6.76303 20.2123C6.19557 19.8577 5.86117 19.2396 5.86117 18.5708V18.4796L4.67559 18.135C4.35133 18.7734 3.60147 19.0673 2.93268 18.8241C2.25376 18.5809 1.8687 17.8716 2.04096 17.1724C2.21323 16.4732 2.87188 16.0172 3.58121 16.0983C4.29053 16.1793 4.82759 16.7772 4.82759 17.4966C4.82759 17.6081 4.81745 17.7297 4.78706 17.8412L5.90171 18.1654C5.9929 17.6993 6.2665 17.2737 6.65156 16.99L5.12145 14.0007C4.26013 14.2743 3.32788 13.9298 2.85162 13.1596C2.37536 12.3895 2.48682 11.4066 3.11508 10.7581C3.75347 10.1096 4.73639 9.97783 5.51664 10.444L6.80356 8.11333C6.1753 7.77893 5.88144 7.02908 6.13477 6.36029C6.3881 5.6915 7.09742 5.31657 7.79661 5.48883C8.48567 5.6611 8.95179 6.31975 8.86059 7.02908C8.76939 7.7384 8.17154 8.27546 7.45208 8.27546C7.33048 8.27546 7.21902 8.25519 7.09742 8.22479L5.76997 10.6162C6.01317 10.8189 6.2057 11.0722 6.3273 11.3661L9.73205 9.80557C9.39765 9.21784 9.38752 8.50852 9.70165 7.91066C10.0158 7.32294 10.6136 6.92774 11.2824 6.87708V5.40777C10.5326 5.3267 9.98538 4.67818 10.0259 3.92832C10.0664 3.17847 10.6846 2.59074 11.4344 2.59074C12.1843 2.59074 12.7923 3.16833 12.8328 3.91819C12.8733 4.66805 12.316 5.31657 11.5763 5.39763V6.87708C12.0829 6.91761 12.5592 7.16081 12.8936 7.54587L15.0621 5.42803C14.3325 4.77951 14.1906 3.69526 14.7277 2.88461C15.2648 2.07395 16.3085 1.76996 17.1901 2.18542C18.0717 2.60088 18.5175 3.59393 18.2439 4.52618L20.1895 4.85044C20.1996 4.10059 20.7772 3.4926 21.5271 3.45206C22.2668 3.41153 22.9153 3.96886 22.9964 4.70858C23.0774 5.4483 22.5708 6.12722 21.8311 6.24882C21.1015 6.38055 20.3921 5.90429 20.23 5.1747L18.1325 4.83018C18.0007 5.09364 17.8082 5.33684 17.5751 5.51923L19.9666 8.24506C20.4023 7.81946 21.0204 7.62693 21.6183 7.71813C22.2161 7.80933 22.743 8.17412 23.0369 8.71118L23.7564 8.30586C23.4118 7.63707 23.6449 6.82641 24.2833 6.44135C24.9217 6.05629 25.7526 6.24882 26.1681 6.86695C26.5835 7.48507 26.4417 8.32612 25.8438 8.77198C25.2459 9.22798 24.4049 9.12664 23.9185 8.55919L23.1585 8.98478C23.4726 9.86637 23.1281 10.8493 22.3175 11.3357C21.5068 11.8221 20.4732 11.6599 19.845 10.9607C19.2268 10.2616 19.1863 9.21784 19.7538 8.46799L17.3117 5.68136C17.0685 5.81309 16.805 5.89416 16.5213 5.91443V6.87708C17.2711 6.95814 17.8183 7.60667 17.7778 8.35652C17.7373 9.10638 17.1191 9.6941 16.3693 9.6941C15.6194 9.6941 15.0013 9.10638 14.9608 8.35652C14.9202 7.60667 15.4776 6.95814 16.2173 6.87708V5.91443C15.9032 5.89416 15.589 5.7827 15.3154 5.61043L13.0861 7.78906C13.6536 8.66052 13.4307 9.82583 12.5795 10.4338C11.7283 11.0418 10.5528 10.8696 9.90431 10.0589L6.40836 11.6701C6.5097 12.0754 6.4793 12.501 6.31717 12.8861L7.50275 13.2002C7.76621 12.5111 8.50593 12.1362 9.21525 12.3389C9.92458 12.5314 10.3603 13.2306 10.2286 13.9602C10.0968 14.6898 9.42805 15.1863 8.69846 15.1154C7.96887 15.0444 7.41155 14.4263 7.41155 13.6967C7.41155 13.6338 7.41953 13.5788 7.42841 13.5176C7.42954 13.5099 7.43068 13.502 7.43182 13.494L6.1753 13.1596C5.98277 13.4636 5.71931 13.717 5.39505 13.8791L6.90489 16.8279C7.57368 16.4732 8.39447 16.534 9.00246 17.0001C9.61045 17.4561 9.89418 18.2262 9.73205 18.9761C9.56992 19.7158 8.99232 20.3035 8.24247 20.4657L8.84033 23.8806C9.34699 23.8198 9.86378 23.9515 10.2691 24.2555L10.8467 23.455C10.2083 23.0598 9.98538 22.2288 10.34 21.5702C10.6947 20.9115 11.5155 20.6379 12.1944 20.9622C12.8733 21.2763 13.1875 22.0768 12.9037 22.776C12.62 23.4752 11.8397 23.8299 11.1304 23.5867L10.5022 24.4581C10.8366 24.8027 11.0392 25.2485 11.0595 25.7248L14.5453 24.8837C14.2008 23.9008 14.6872 22.8166 15.6498 22.4214C16.6125 22.0262 17.717 22.4518 18.1629 23.3942L20.0375 22.3099C19.693 21.631 19.9463 20.8001 20.6049 20.4251C21.2636 20.0502 22.1047 20.2529 22.5201 20.8913C22.9356 21.5297 22.7734 22.3808 22.1553 22.8267C21.5372 23.2726 20.6759 23.151 20.1996 22.5632L18.2642 23.6779C18.3148 23.8603 18.3452 24.0427 18.3452 24.2251C18.3452 24.3264 18.3351 24.4277 18.3148 24.5291L23.6348 24.7824Z" fill="white"/>
</svg>
