<svg height="32" viewBox="0 0 32 32" width="32" xmlns="http://www.w3.org/2000/svg"><path d="m16 32c-8.836556 0-16-7.163444-16-16s7.163444-16 16-16 16 7.163444 16 16-7.163444 16-16 16zm0-5c6.0751322 0 11-4.9248678 11-11 0-6.07513225-4.9248678-11-11-11-6.07513225 0-11 4.92486775-11 11 0 6.0751322 4.92486775 11 11 11zm0-1.5459459c-5.2213299 0-9.45405405-4.2327242-9.45405405-9.4540541s4.23272415-9.45405405 9.45405405-9.45405405 9.4540541 4.23272415 9.4540541 9.45405405-4.2327242 9.4540541-9.4540541 9.4540541zm.0722198-2.9135136c2.7882144 0 4.3891891-1.2038907 5.5764288-2.8390258l-2.6263181-1.8687259c-.7555161.9163944-1.5290208 1.5273241-2.8421799 1.5273241-1.762871 0-3.0040762-1.4734185-3.0040762-3.3601129v-.035937c0-1.8327889 1.2412052-3.3241759 3.0040762-3.3241759 1.2052282 0 2.0326983.5749926 2.7522375 1.4734185l2.6263181-2.0304425c-1.1152857-1.5452926-2.7702259-2.62340364-5.3425786-2.62340364-3.8135578 0-6.63774922 2.87496284-6.63774922 6.54054054v.035937c0 3.7554203 2.89614532 6.5046035 6.49384142 6.5046035z" fill="#fff"/></svg>