<svg width="32" height="32" viewBox="0 0 32 32" fill="none" xmlns="http://www.w3.org/2000/svg">
<path fill-rule="evenodd" clip-rule="evenodd" d="M32 16C32 24.8365 24.8365 32 16 32C7.16345 32 0 24.8365 0 16C0 7.16345 7.16345 0 16 0C24.8365 0 32 7.16345 32 16ZM5 10L15.5913 4L26.1826 10V22L26.0783 22.0522L25.9739 22.1043L25.8174 22.2087L15.5913 28L5 22V10ZM25.2435 9.94783L15.6957 4.52174L12.513 9.94783H25.2435ZM15.0696 4.78261L5.67826 10.1043L8.8087 15.5304L15.0696 4.78261ZM25.713 10.3652H19.2435L25.713 21.2696V10.3652ZM18.3565 10.3652H12.4087V13.7043L18.3565 10.3652ZM11.8348 21.6348L5.41739 10.5217V21.6348H11.8348ZM18.8783 10.5739L16.0087 12.1913L21.8 15.4783L18.8783 10.5739ZM11.9913 10.887L9.06956 15.8957L11.9913 17.5652V10.887ZM18.1478 13.8609L15.6435 12.4522L14.8087 13.8609H18.1478ZM15.0696 12.713L12.513 14.1217L13.3478 15.6348L15.0696 12.713ZM18.7739 14.2783H17.1043L18.7739 17.1478V14.2783ZM14.5478 14.3304L13.5565 16.0522L14.4435 17.7217H16.4783L17.5217 16L16.5826 14.3304H14.5478ZM22.113 16.0522L19.1913 14.4348V21.0087L22.113 16.0522ZM14.0783 17.7217L12.4087 14.8522V17.7217H14.0783ZM18.6696 17.8261L17.8348 16.3652L16.113 19.2348L18.6696 17.8261ZM25.6087 21.8435L22.3739 16.4174L16.0609 27.2696L25.6087 21.8435ZM15.1739 19.8087L9.38261 16.5217L12.2 21.4783L15.1739 19.8087ZM16.3217 18.087H12.9826L15.487 19.4957L16.3217 18.087ZM18.7739 21.687V18.2957L12.7739 21.687H18.7739ZM18.6174 22.0522H5.93913L15.4348 27.4783L18.6174 22.0522Z" fill="white"/>
</svg>
