<svg width="32" height="32" viewBox="0 0 32 32" xmlns="http://www.w3.org/2000/svg"><path d="M16 32C7.163 32 0 24.837 0 16S7.163 0 16 0s16 7.163 16 16-7.163 16-16 16zm3.086-23.996H11.81l-.602 3.367 6.562.01c3.231 0 4.19 1.173 4.159 3.12-.014.998-.449 2.686-.633 3.23-.497 1.46-1.521 3.122-5.359 3.117l-6.378-.004-.602 3.371h7.257c2.559 0 3.649-.299 4.8-.83 2.554-1.178 4.075-3.701 4.686-6.994.906-4.9-.224-8.387-6.615-8.387zm-3.28 7.794c.238-.985.313-1.38.313-1.38H8.673c-1.904 0-2.176 1.24-2.357 1.99-.237.981-.312 1.381-.312 1.381h7.447c1.903 0 2.175-1.24 2.356-1.991z" fill="#FFF"/></svg>