<svg width="32" height="32" viewBox="0 0 32 32" version="1.1" xmlns="http://www.w3.org/2000/svg" xmlns:xlink="http://www.w3.org/1999/xlink"><title>white/dash</title><desc>Created with Sketch.</desc><g id="white/dash" stroke="none" stroke-width="1" fill="none" fill-rule="evenodd"><path d="M16,32 C7.163444,32 0,24.836556 0,16 C0,7.163444 7.163444,0 16,0 C24.836556,0 32,7.163444 32,16 C32,24.836556 24.836556,32 16,32 Z M19.0857143,8.0043956 L11.810989,8.0043956 L11.2087912,11.3714286 L17.7714286,11.3802198 C21.0021978,11.3802198 21.9604396,12.5538462 21.9296703,14.5010989 C21.9164835,15.4989011 21.4813187,17.1868132 21.2967033,17.7318681 C20.8,19.1912088 19.7758242,20.8527473 15.9384615,20.8483516 L9.56043956,20.843956 L8.95824176,24.2153846 L16.2153846,24.2153846 C18.7736264,24.2153846 19.8637363,23.9164835 21.0153846,23.3846154 C23.5692308,22.2065934 25.0901099,19.6835165 25.7010989,16.3912088 C26.6065934,11.4901099 25.4769231,8.0043956 19.0857143,8.0043956 Z M15.8065934,15.7978022 C16.043956,14.8131868 16.1186813,14.4175824 16.1186813,14.4175824 L8.67252747,14.4175824 C6.76923077,14.4175824 6.4967033,15.6571429 6.31648352,16.4087912 C6.07912088,17.389011 6.0043956,17.789011 6.0043956,17.789011 L13.4505495,17.789011 C15.3538462,17.789011 15.6263736,16.5494505 15.8065934,15.7978022 Z" id="Combined-Shape" fill="#FFF" fill-rule="nonzero"/></g></svg>