<svg width="32" height="32" viewBox="0 0 32 32" fill="none" xmlns="http://www.w3.org/2000/svg">
<path fill-rule="evenodd" clip-rule="evenodd" d="M16 32C24.8366 32 32 24.8366 32 16C32 7.16344 24.8366 0 16 0C7.16344 0 0 7.16344 0 16C0 24.8366 7.16344 32 16 32ZM5.4 9.83463L6.58462 9.20001L11.9577 12.3308L15.6385 10.2577L18.5154 11.95L17.0346 12.7962L15.6385 12.0769L12.2538 13.9808V17.9577L15.6385 19.8616L17.0346 19.1423L18.5154 19.9885L15.6385 21.6808L11.9577 19.6077L6.58462 22.7385L5.4 22.1039V9.83463ZM10.6462 18.5077V13.4308L7.00769 11.3154V20.6231L10.6462 18.5077ZM22.45 10.2577L17.4577 13.0923V18.8462L22.45 21.6808L27.4 18.8462L25.7923 17.9577L22.45 19.8616L19.0231 17.9154V14.0231L22.45 12.0769L25.7923 13.9808L27.4 13.0923L22.45 10.2577Z" fill="white"/>
</svg>
