<svg height="32" viewBox="0 0 32 32" width="32" xmlns="http://www.w3.org/2000/svg"><path d="m4.77362519 27.4003773c-2.94670998-2.9020132-4.77362519-6.9378458-4.77362519-11.4003773 0-8.836556 7.163444-16 16-16s16 7.163444 16 16c0 4.60932-1.9490793 8.7634081-5.0680181 11.6830443-.8095692-1.2903843-1.3828169-2.2111325-1.719743-2.7622443-2.8880657-4.7236923-5.0678356-9.763956-6.6172493-15.07692308-.8505863-2.91674725-1.6438356-5.85037362-2.4638247-8.77608791-.0419068-.14918681-.0924054-.296-.2297863-.45441758-.1283507.40325275-.2669589.80360439-.3835616 1.2101978-1.3070028 4.56043956-2.6775671 9.10197807-4.390926 13.52764837-1.58421264 4.0919147-4.00773066 8.327838-6.35326581 12.0491597zm16.37340851 4.5996227h-7.6297913l-3.1460876-.8115997c2.4038117-6.7756163 4.1937577-11.8166699 5.3698381-15.1231607l.1537753.0026373c1.1153534 3.351033 2.8661086 8.6617407 5.2522655 15.9321231z" fill="#fff" fill-rule="evenodd"/></svg>