<svg height="32" viewBox="0 0 32 32" width="32" xmlns="http://www.w3.org/2000/svg"><path d="m16 32c-8.836556 0-16-7.163444-16-16s7.163444-16 16-16 16 7.163444 16 16-7.163444 16-16 16zm-2.2927418-12.1392616c-.0020338.1335731-.0010169.5077815.0071183 1.0512504.0061014.3895031.011186.7015134.0193212.8748525.3426974-.2018891 1.516207-.8942257 5.5828143-3.2903832 2.8107284-1.6558978 4.9004703-2.892723 5.4902758-3.2475582-1.4460404-.9013631-11.76662-7.23129767-12.7062412-7.79312014l-.7616627-.45577976-1.1084276.75045616c-.45659079.30997102-.83793056.5699796-1.03317652.70559192.12711325.08157133.33456209.21004616.60200839.36911023.10779204.06525706 10.77920423 6.54915749 10.80869453 6.67355369.0305072.1029838.0305072.1029838-1.6931486 1.1572932-2.3897292 1.4631855-4.8425067 2.9671568-5.2075759 3.2047332zm-2.3683743-6.2962863c-.0010169.7300633-.0010169 3.2577546 0 6.2116561.0020339 3.1109263.0071184 5.4968874.011186 6.1963615 1.5873904-.9003435 12.9736876-7.417892 13.3885852-7.6636257l.0701666-.0407856.1911783-2.6826768-.5796365.3415799c-10.8300495 6.3890737-10.8422524 6.3931523-10.8707258 6.402329l-.0610143.0214125-.0538961-.0367071c-.0803355-.0570999-.0803355-.0570999-.1454175-5.6335194l-.022372-1.9301813-1.0291089-.6382956c-.3935426-.244714-.7138681-.4384459-.898945-.5475475zm-2.3388839 11.2344102 1.0372442.6413545c.3854074.2396158.7148849.4425244.9080971.5597832.0020338-.7402597.0050845-3.2781475.0071183-6.3319738l.0040677-6.7683804.6518368.3793067c.2491419.1458087 1.4877335.9023827 2.759883 1.6885263 1.2660481.782065 2.5361637 1.5580122 2.8310665 1.7313513l.4718444.2753032 2.3643066-1.4458517-.7159019-.4302887c-.487098-.2916175-2.7812381-1.6905656-5.1140206-3.1180637-2.3765094-1.4540088-4.48048808-2.73671787-4.79267824-2.9192337l-.38744121-.2283997z" fill="#fff"/></svg>