<svg height="32" viewBox="0 0 32 32" width="32" xmlns="http://www.w3.org/2000/svg"><path d="m16 32c-8.836556 0-16-7.163444-16-16s7.163444-16 16-16 16 7.163444 16 16-7.163444 16-16 16zm3.3333333-23.16094458v-3.33905542h-2.6666666v2.65195467c-.2198223-.01785161-.4421645-.02695467-.6666667-.02695467s-.4468444.00910306-.6666667.02695467v-2.65195467h-2.6666666v3.33905542c-2.75403987 1.24425948-4.6666667 3.98273308-4.6666667 7.16094458s1.91262683 5.9166851 4.6666667 7.1609446v3.3390554h2.6666666v-2.6519547c.2198223.0178516.4421645.0269547.6666667.0269547s.4468444-.0091031.6666667-.0269547v2.6519547h2.6666666v-3.3390554c1.9564631-.8839189 3.4882947-2.5219147 4.2114515-4.5359446l-2.9249574.0000015c-.9221586 1.5692278-2.6457417 2.6249985-4.6198274 2.6249985-2.9455187 0-5.3333333-2.3505051-5.3333333-5.25s2.3878146-5.25 5.3333333-5.25c1.9740857 0 3.6976688 1.0557707 4.6198283 2.625h2.9249565c-.7231568-2.0140299-2.2549884-3.65202574-4.2114515-4.53594458zm-1.0234192 5.84844458c-.4610792-.7846143-1.322871-1.3125-2.3099141-1.3125-1.4727593 0-2.6666667 1.1752525-2.6666667 2.625s1.1939074 2.625 2.6666667 2.625c.9870431 0 1.8488349-.5278857 2.3099141-1.3125h5.5794746c.0727462-.4268361.1106113-.8653152.1106113-1.3125s-.0378651-.8856639-.1106113-1.3125z" fill="#fff"/></svg>