<svg height="32" width="32" xmlns="http://www.w3.org/2000/svg"><path d="m16 32c-8.837 0-16-7.163-16-16s7.163-16 16-16 16 7.163 16 16-7.163 16-16 16zm8.884-13.493-4.421-2.507 4.421-2.507a2.17 2.17 0 0 0 .817-2.993c-.616-1.048-1.981-1.407-3.048-.802l-4.422 2.507v-5.015c0-1.209-.999-2.19-2.231-2.19s-2.231.981-2.231 2.191v5.014l-4.422-2.507c-1.067-.605-2.432-.246-3.047.802a2.17 2.17 0 0 0 .817 2.993l4.42 2.507-4.42 2.507a2.17 2.17 0 0 0 -.818 2.993c.616 1.048 1.981 1.407 3.048.802l4.422-2.507v5.014c0 1.21.999 2.191 2.231 2.191s2.231-.981 2.231-2.191v-5.014l4.422 2.507c1.067.605 2.432.246 3.048-.802a2.17 2.17 0 0 0 -.817-2.993zm.198 2.642a1.533 1.533 0 0 1 -2.072.546l-4.779-2.71v-1.72l1.518-.86 4.778 2.709c.726.411.974 1.323.555 2.035zm-7.565 3.66c0 .823-.679 1.49-1.517 1.49s-1.517-.667-1.517-1.49v-5.419l1.517-.86 1.517.86zm-8.527-3.114a1.533 1.533 0 0 1 -2.072-.546 1.476 1.476 0 0 1 .555-2.035l4.778-2.71 1.518.861v1.72zm-1.517-8.809a1.476 1.476 0 0 1 -.555-2.035 1.533 1.533 0 0 1 2.072-.546l4.779 2.71v1.72l-1.518.86zm7.01-5.695c0-.823.68-1.49 1.517-1.49.838 0 1.517.667 1.517 1.49v5.418l-1.517.861-1.517-.86zm3.748 8.354.804.455-.804.455zm-1.517-1.67.803-.456v.911zm-2.231.455v-.91l.803.455zm-.714 2.125-.804-.455.804-.455zm1.517 1.67-.803.456v-.911zm2.231-.455v.91l-.803-.455zm-1.517.05-1.517-.86v-1.72l1.517-.86 1.517.86v1.72zm7.01-7.415a1.533 1.533 0 0 1 2.072.546c.42.712.17 1.624-.555 2.035l-4.778 2.71-1.518-.861v-1.72z" fill="#fff" fill-rule="evenodd"/></svg>