<svg width="32" height="32" viewBox="0 0 32 32" fill="none" xmlns="http://www.w3.org/2000/svg">
<path fill-rule="evenodd" clip-rule="evenodd" d="M32 16C32 24.8366 24.8366 32 16 32C7.16344 32 0 24.8366 0 16C0 7.16344 7.16344 0 16 0C24.8366 0 32 7.16344 32 16ZM30 16C30 8.26111 23.7389 2 16 2C16 2 16 13.7833 15.9222 13.8222L14.1333 12.0333L13.9 7.6L15.7667 2.03889H15.4944C14.4444 2.07778 13.3944 2.23333 12.3444 2.50556L11.45 5.18889L8.92222 3.90556L8.68889 4.06111C7.79445 4.60556 6.93889 5.26667 6.16111 6.00556L10.8667 8.37778L11.0222 11.0611L8.33889 10.9056L5.96667 6.2L5.77222 6.39444C5.03333 7.17222 4.41111 8.02778 3.86667 8.96111L5.15 11.4889L2.46667 12.3833L2.38889 12.6556C2.15556 13.6667 2 14.7556 2 15.8444L7.63889 14.0167L12.0722 14.25L13.8611 16.0389L12.0722 17.8278L7.63889 18.0611L2.03889 16.1944V16.4667C2.07778 17.5167 2.23333 18.5667 2.50556 19.6167L5.18889 20.5111L3.90556 23.0389L4.06111 23.2722C4.60556 24.1667 5.26667 25.0222 6.00556 25.8L8.37778 21.0944L11.0611 20.9389L10.9056 23.6222L6.2 25.9944L6.39444 26.1889C7.17222 26.9278 8.02778 27.55 8.96111 28.0944L11.4889 26.8111L12.3833 29.4944L12.6556 29.5722C13.7056 29.8444 14.7556 30 15.8444 30L13.9778 24.4389L14.2111 20.0056L16 18.2167V30H16.2333C23.8556 29.8833 30 23.6611 30 16ZM19.1111 26.4611V5.57778L19.2667 5.61667C23.6611 7.01667 26.8889 11.1389 26.8889 16C26.8889 20.9389 23.5833 25.1 19.1111 26.4611Z" fill="white"/>
</svg>
