<svg width="32" height="32" viewBox="0 0 32 32" fill="none" xmlns="http://www.w3.org/2000/svg">
<path fill-rule="evenodd" clip-rule="evenodd" d="M16.058 31.9165C24.818 31.9165 31.9193 24.7905 31.9193 16C31.9193 7.20953 24.818 0.0834961 16.058 0.0834961C7.29807 0.0834961 0.196777 7.20953 0.196777 16C0.196777 24.7905 7.29807 31.9165 16.058 31.9165ZM16.2211 19.4967C15.5467 19.6865 14.8304 19.7813 14.0725 19.7813H12.2611V9.73543H14.4772C15.2221 9.73543 15.9062 9.83026 16.5295 10.02C17.1525 10.2097 17.692 10.5049 18.1482 10.9055C18.6041 11.306 18.9606 11.8297 19.2177 12.4761C19.4746 13.1228 19.6031 13.8223 19.6031 14.7215C19.6031 15.6353 19.4586 16.4118 19.1695 17.0511C18.8805 17.6909 18.4854 18.2107 17.9844 18.6113C17.4834 19.0118 16.8956 19.3069 16.2211 19.4967ZM15.2094 7.33203H9.83302V22.1847H14.9204C15.7424 22.1847 16.5806 22.0338 17.4352 21.7314C18.2894 21.4293 19.0666 20.9725 19.7669 20.3611C20.4669 19.7496 21.0387 18.9769 21.4819 18.042C21.9252 17.1074 22.1468 16.0006 22.1468 14.7215C22.1468 13.4567 21.9541 12.4305 21.5687 11.4957C21.1834 10.5612 20.6694 9.78485 20.027 9.16622C19.3845 8.54781 18.6459 8.08768 17.811 7.78526C16.9757 7.48318 16.1085 7.33203 15.2094 7.33203Z" fill="white"/>
</svg>
