<svg height="32" viewBox="0 0 32 32" width="32" xmlns="http://www.w3.org/2000/svg"><path d="m16 32c-8.836556 0-16-7.163444-16-16s7.163444-16 16-16 16 7.163444 16 16-7.163444 16-16 16zm7.1342697-14.5333333c-.5514982-2.4265918-2.264045-5.102809-2.264045-5.102809 1.9737828 5.3872659 1.2132959 9.4509363.690824 11.755618 0 0-.690824 2.577528.7953183.429588 1.8518727-2.6878277.7779027-7.082397.7779027-7.082397zm-4.8764045-9.55543074c1.0275281 3.65730334 1.4919475 6.76310864 1.6370786 9.35224714.2554307 4.4119851-.4179775 7.3146068-.835955 8.8471911-.1335206.4992509.4237827.8707865.7488764.4934457.0058052-.0058053.0058052-.0058053.0058052-.0058053.8127341-.9288389 1.1958802-3.1058052 1.3758427-5.0157303.0174157-.2089888.0348315-.4179776.0522472-.6269663.1683521-2.2988764.0696629-4.6209738-.4702247-6.844382-.9926966-4.1043072-2.5136704-6.20000004-2.5136704-6.20000004zm-1.8402622 6.44382024c-.2496255-6.00842699-.7024345-11.34344571-.7024345-11.34344571s-.4586142 5.06797752-.7082397 10.94288391c-.0406367.9520599-.0754681 1.9215356-.1044943 2.8968165-.0406367 1.4164794-.0580525 2.838764-.0580525 4.2146067.0058053 2.4440075.0986892 4.7370787.3192884 6.5657303.0870787.7256555 1.0275281.7256555 1.1146068 0 .1509363-1.2481273.2380149-2.7807116.2728464-4.4642322.0348315-1.7125468.023221-3.5760299-.023221-5.4627341-.0290262-1.1146067-.0638577-2.2408239-.1102996-3.3496254zm-7.01853933 7.2391386c-.12191011-.9926967-.1741573-2.1363296-.09288389-3.4134832.05805243-.8940075.18576779-1.8518726.40636704-2.8735955.20318352-.9346442.48183518-1.9157303.85917598-2.9490637 0 0-1.20749059 1.8867042-1.91573029 3.9243446-.13932584.3889513-.25543071.7895131-.34250936 1.1784644 0 0-.2264045 1.0217229-.26123596 2.3859551-.02322097.9462547.05224719 2.0666666.35411985 3.123221.15674157.5514981.37734083 1.0855805.67921348 1.5732209 0 0 1.48614228 2.2117978.79531836-.429588-.17415731-.6792135-.3599251-1.526779-.48183521-2.5194756zm2.11891383-1.1842697c-.0464419-1.0681648-.0348314-2.264045.0580525-3.5876405.0290262-.4121722.0638576-.8417603.1102996-1.2771535.0464419-.4411985.1044944-.8882023.168352-1.358427.261236-1.8808989.6850188-3.9649813 1.3294008-6.27546814 0 0-1.526779 2.09569284-2.5194757 6.20000004-.0522471.2205992-.0986891.4411985-.145131.6559925-.1799626.8940075-.2960675 1.7996254-.3541199 2.7168539-.0696629 1.1494382-.0522472 2.3104869.0290262 3.4657303.0174158.2089888.0348315.4237828.0522472.6327716.1799626 1.9099251.5573034 4.0868914 1.3758427 5.0157303 0 0 0 0 .0058053.0058053.3250936.3715355.8882022 0 .7488764-.4934457-.3018727-1.1320225-.7488764-3.0129214-.8591761-5.7007491zm2.5368914.2264045c-.0290262-1.1958802-.0406367-2.5310862-.0174157-3.9940075.0116105-.8765918.0348314-1.7996255.0754681-2.7691011.0986892-2.50206.5689139-6.11872662.8940075-9.18389516 0 0-1.6022472 3.31479401-2.3337078 9.29419476-.0986892.8185393-.1915731 1.7009363-.261236 2.6529963-.0174157.2322097-.0348314.4644194-.0522472.7082397 0 0-.0870786 1.265543-.0522472 2.9722846.046442 2.194382.2902622 5.1202247 1.1958802 7.0359551.0290262.0580524.0638577.1102996.1102996.1509363 0 0 .0058053.0058052.0058053.0058052.3425093.3250937.8707865.0174158.8243445-.4876404-.1102996-1.097191-.3134831-3.2741573-.3889513-6.3857678zm3.3205993 0c-.0754682 3.1116105-.2728465 5.2885768-.3889513 6.3857678-.046442.5050562.4818352.8127341.8243445.4876404 0 0 .0058053-.0058052.0058053-.0058052.0464419-.0406367.0812734-.0928839.1102996-.1509363.905618-1.9157304 1.1494382-4.8415731 1.1958801-7.0359551.0348315-1.7067416-.0522471-2.9722846-.0522471-2.9722846-.0174158-.2438203-.0348315-.47603-.0522472-.7082397-.069663-.95206-.1625469-1.834457-.261236-2.6529963-.7314607-5.97940075-2.3337079-9.29419476-2.3337079-9.29419476.3250937 3.06516854.7953184 6.68183516.8940075 9.18389516.0406367.9694756.0638577 1.8925093.0754682 2.7691011.023221 1.4629213.0116105 2.7981273-.0174157 3.9940075z" fill="#fff"/></svg>