<svg width="32" height="32" viewBox="0 0 32 32" fill="none" xmlns="http://www.w3.org/2000/svg">
<path fill-rule="evenodd" clip-rule="evenodd" d="M16 0C24.8365 0 32 7.16347 32 16C32 24.8365 24.8365 32 16 32C7.16347 32 0 24.8365 0 16C0 7.16347 7.16347 0 16 0ZM6.00006 10.4981L15.5272 5L25.0543 10.4981V21.5019L15.5272 27L6.00006 21.5019V10.4981ZM21.3954 11.6358L23.1605 10.763L18.7691 8.22636L21.3954 11.6358ZM23.8658 17.1534V11.7255L21.9838 12.6762L23.8658 17.1534ZM16.0961 6.68332L15.5272 5.94297L14.9544 6.68721L11.0227 11.7878H20.0277L16.0961 6.68332ZM9.65893 11.632L12.2813 8.22636L7.89379 10.763L9.65893 11.632ZM9.07445 12.6645L7.19241 11.7333V17.1378L9.07445 12.6645ZM7.19631 20.1888L6.8612 20.9681L7.58596 21.0383L14.4673 21.5877L9.9239 13.7166L7.19631 20.1888ZM9.95507 22.3943L14.9427 25.2738V22.7839L9.95507 22.3943ZM10.8552 12.9724L15.5311 21.0733L20.2069 12.9724H10.8552ZM16.1194 22.8034V25.2738L21.107 22.4137L16.1194 22.8034ZM16.5987 21.5721L23.48 21.0227L24.2009 20.9525L23.8697 20.1732L21.1421 13.701L16.5987 21.5721Z" fill="white"/>
</svg>
