<svg height="32" viewBox="0 0 32 32" width="32" xmlns="http://www.w3.org/2000/svg"><path d="m9.92778895 16.5738397h-2.80433216l-3.12345679 2.4978903h6.5219037c1.2113288 2.893777 4.0825988 4.92827 7.4318 4.92827 4.4438467 0 8.0462963-3.581722 8.0462963-8s-3.6024496-8-8.0462963-8c-3.3751867 0-6.2649971 2.0661856-7.4596947 4.9957806h-6.494009l3.12345679 2.4978903h2.79980563c-.01051752.1674325-.01585501.3362611-.01585501.5063291 0 .1929516.0068705.3843077.02038154.5738397zm6.07221105 15.4261603c-8.836556 0-16-7.163444-16-16s7.163444-16 16-16 16 7.163444 16 16-7.163444 16-16 16zm6.537037-15.8514236v.3061895c0 .1020637-.0064268.2041259-.0192806.3061896h-7.037418c.0257076.331707.1124694.6347041.260288.9090003.1478187.2742962.3438361.510315.5880583.7080634.2442221.1977484.5205745.3540311.8290656.4688528s.6298312.1722316.9640299.1722316c.5784208 0 1.0668578-.1052516 1.4653254-.315758.3984677-.2105064.7262346-.5007457.9833105-.8707266l1.5424478 1.2247583c-.9126195 1.2247644-2.2365406 1.8371375-3.9718031 1.8371375-.7198126 0-1.3817731-.1116305-1.9859015-.3348949-.6041284-.2232643-1.1279128-.5390192-1.5713687-.947274-.443456-.4082548-.7905033-.9089973-1.0411523-1.5022426-.250649-.5932452-.3759716-1.2662177-.3759716-2.0189375 0-.7399618.1253226-1.4129343.3759716-2.0189375s.5944829-1.122693 1.031512-1.5500847c.437029-.4273918.9543866-.7590938 1.5520881-.9951161s1.243595-.3540317 1.9377-.3540317c.6426898 0 1.237169.1052516 1.7834553.315758s1.0186562.5230718 1.4171239.9377056c.3984677.4146337.7101676.9313235.935109 1.5500847s.3374104 1.3427647.3374104 2.1720323zm-2.3136717-1.0333898c0-.2934332-.0417742-.5741042-.1253238-.8420214-.0835497-.2679172-.2152991-.503936-.3952523-.7080634-.1799531-.2041274-.4081046-.366789-.6844612-.4879896s-.6009101-.1818001-.9736702-.1818001c-.694105 0-1.2821573.2073138-1.7641746.6219476-.4820174.4146338-.7487297.9472708-.8001448 1.5979269z" fill="#fff"/></svg>