<svg height="32" viewBox="0 0 32 32" width="32" xmlns="http://www.w3.org/2000/svg"><path d="m16 32c-8.836556 0-16-7.163444-16-16s7.163444-16 16-16 16 7.163444 16 16-7.163444 16-16 16zm-.0009501-6.387763c-.2409872 0-.4363459.1987325-.4363459.4438815s.1953587.4438815.4363459.4438815.4363459-.1987325.4363459-.4438815c-.0010436-.2447079-.1957923-.4428199-.4363459-.4438815zm-8.78027029-14.2546055c.15345868.0903593.34532037.0777489.48607272-.0319479.14075234-.1096968.20265828-.2948629.15683583-.4691098-.04582245-.1742468-.1903434-.3032367-.36613712-.32679s-.34821781.0629715-.43682844.2192066c-.12083827.2130578-.0492145.485418.16005701.6086411zm0 9.2943749c-.20859919.1225964-.28006109.3939682-.15964083.6062256.12042025.2122574.38715265.2850767.59586129.1626733.20870865-.1224034.280413-.3937091.16018245-.6060777-.12107452-.2117272-.38738887-.2844324-.59640291-.1628212zm17.56054059-9.2943749c.1541201-.0896722.2398267-.2650787.2170436-.4442001-.0227831-.1791213-.1495536-.3265606-.321034-.3733757-.1714804-.046815-.3537838.0162454-.4616657.1596946-.1078818.1434491-.1200232.3389393-.0307468.49506.1210745.2117271.3873888.2844324.5964029.1628212zm-8.7802703-4.96992234c.1771462.00314818.338578-.10298122.408524-.2685742.0699461-.16559298.034519-.35777193-.0896527-.48633376-.1241718-.12856183-.3124347-.16798127-.4764236-.09975601-.1639889.06822527-.2711448.23054947-.2711718.41078246-.0000364.24215275.1907186.43965177.4287241.44388151zm7.8008738 14.19451674c.2177731-.3883713.6837751-.5538337 1.0918175-.3876694v-8.3949819c-.4061171.1666007-.8708303.0034787-1.089532-.3824436-.2187016-.3859223-.1245883-.8767632.2206511-1.150789l-7.153024-4.19846013c-.0610255.44104079-.4320065.76902889-.8698337.76902889s-.8088081-.3279881-.8698336-.76902889l-7.15111859 4.20039843c.34333257.2749476.43580484.7648066.21700733 1.1495661-.2187975.3847596-.68233367.5474235-1.08779368.3817282v8.4007969c.40611711-.1666006.87083032-.0034786 1.08953197.3824436.21870165.3859223.12458834.8767632-.22065106 1.1507891l7.15302403 4.2003984c.0610255-.4410408.4320064-.7690289.8698336-.7690289s.8088082.3279881.8698337.7690289l7.1511185-4.2003984c-.3456856-.273978-.4399914-.7652285-.2210311-1.1513783zm-6.1126534-1.2870625c.7692017-.4493962 1.351591-1.1679105 1.6386789-2.0216962.4249132-1.2657407 2.3360702-.5601824 1.6215299 1.0835361 0 .0155068-.013338.0310136-.0190544.044582l2.3513137 1.3801032c.1968362.1194428.2628816.3775577.1482721.5794683-.1146095.2019105-.3673795.2727533-.567469.159042l-2.3360702-1.3684731c-.470528.7496118-1.1100316 1.3742439-1.8654263 1.8220464-.6734098.4017271-1.4240715.6509797-2.2007839.7307569v2.5993236c0 .2430079-.1936525.4400048-.432535.4400048s-.432535-.1969969-.432535-.4400048v-2.5780018c-1.7342884-.1006532-3.3278757-1.003332-4.3253502-2.4500709l-2.12647172 1.2463572c-.20047187.1182925-.45725341.0488663-.57353762-.1550677s-.04803663-.4651501.15243524-.5834425l2.11885-1.244419c-.1378335-.2910724-.251909-.5931799-.3410739-.9032698l-.2019767-1.1436248c-.0770401-1.0369714.1272821-2.0755552.5906866-3.0024999l-2.166486-1.2734941c-.19994569-.1172219-.26861983-.3771363-.15338796-.580535.11523186-.2033987.37073376-.2732589.57067946-.156037l2.1836349 1.2812475c.4662051-.6555739 1.0636585-1.2032287 1.7530054-1.6068898.7690402-.452546 1.6334599-.7110996 2.5208979-.7540171v-2.70399436c0-.24300795.1936525-.44000482.432535-.44000482s.432535.19699687.432535.44000482v2.72919286c1.6306344.1844406 3.1013302 1.0825219 4.0281015 2.4597627l2.3818007-1.4053018c.0957031-.0579081.2103211-.074101.3179145-.0449139s.1990664.1012866.2537177.1999817c.1134887.2046244.0437817.4640543-.1562461.5815042l-3.2392491 1.9053953-.0438251.0213218-.7621762.4496966-1.6081919.9439751-4.7178709 2.7640831c1.1135946 1.5137834 3.1642225 1.9409848 4.7731287.9943722zm7.0920499 1.356843c-.2087633-.1223069-.4754632-.0493642-.5957886.1629488s-.0487423.4836518.1599117.6061517c.2086539.1224999.4754188.0498039.5959339-.1623978.0579435-.1020264.0736325-.2233026.0436097-.3371052s-.1032935-.2107924-.2036667-.2695975zm-12.4958795-4.0647141 5.8592299-3.4425047c-1.1801667-.9588396-2.8172876-1.0842249-4.1252789-.3159506-1.5796103.9284683-1.7777761 2.0914767-1.733951 3.7584553z" fill="#fff"/></svg>