<svg height="32" viewBox="0 0 32 32" width="32" xmlns="http://www.w3.org/2000/svg"><path d="m16 32c-8.836556 0-16-7.163444-16-16s7.163444-16 16-16 16 7.163444 16 16-7.163444 16-16 16zm-2.940768-8.1257639 1.70941 1.7214015c.2582909.2588772.6089614.4043624.9746557.4043624.3656942 0 .7163647-.1454852.9746556-.4043624l1.71861-1.7214015-2.6932156-2.6977024zm6.9514405-9.2426081 2.6923157-2.6968024-2.6923157-2.69680232-2.6923157 2.69680232zm-.6692039 8.3636073 6.2548364-6.2652054c.53826-.5395846.53826-1.4130172 0-1.9526018l-1.71851-1.7215015-7.2300421 7.2416064zm-7.4032431-.2783002 7.218242-7.2303063-2.6923156-2.6968024-7.21824205 7.2302063zm-3.82222223-3.8002033 2.70541573-2.6977024-2.69321566-2.6978024-1.71831 1.7215015c-.5416471.5361831-.54719365 1.4095828-.01240007 1.9526018zm10.76696263-10.78790949-1.71861-1.72450151c-.258304-.25885261-.6089696-.4043208-.9746556-.4043208-.3656861 0-.7163517.14546819-.9746557.4043208l-6.25513642 6.2657055 2.69351572 2.6974024z" fill="#fff" fill-rule="evenodd"/></svg>