<svg width="32" height="32" viewBox="0 0 32 32" fill="none" xmlns="http://www.w3.org/2000/svg">
<g clip-path="url(#clip0)">
<path fill-rule="evenodd" clip-rule="evenodd" d="M25.6351 6.34999C25.5098 6.22499 25.4346 6.09999 25.4346 5.92499C25.4346 5.74999 25.5098 5.62499 25.6351 5.49999C25.8857 5.27499 26.2866 5.27499 26.5623 5.49999C26.6876 5.62499 26.7627 5.74999 26.7627 5.92499C26.7627 6.09999 26.6876 6.22499 26.5623 6.34999C26.437 6.44999 26.2616 6.52499 26.1112 6.52499C25.9358 6.54999 25.7604 6.49999 25.6351 6.34999Z" fill="white"/>
<path fill-rule="evenodd" clip-rule="evenodd" d="M24.0313 8.07502C23.9311 7.95002 23.8559 7.82502 23.8559 7.65002C23.8559 7.47502 23.9311 7.35002 24.0313 7.22502C24.2568 7.00002 24.6578 7.00002 24.8833 7.22502C24.9835 7.35002 25.0587 7.47502 25.0587 7.65002C25.0587 7.82502 24.9835 7.95002 24.8833 8.07502C24.758 8.17502 24.6327 8.25002 24.4573 8.25002C24.2819 8.25002 24.1566 8.17502 24.0313 8.07502Z" fill="white"/>
<path fill-rule="evenodd" clip-rule="evenodd" d="M22.2772 9.72499C22.177 9.62499 22.1018 9.47499 22.1018 9.29999C22.1018 9.12499 22.177 8.99999 22.2772 8.87499C22.5027 8.64999 22.9037 8.64999 23.1292 8.87499C23.2295 8.97499 23.3046 9.12499 23.3046 9.29999C23.3046 9.47499 23.2295 9.59999 23.1292 9.72499C23.0039 9.84999 22.8786 9.89999 22.7032 9.89999C22.5278 9.89999 22.3775 9.82499 22.2772 9.72499Z" fill="white"/>
<path fill-rule="evenodd" clip-rule="evenodd" d="M20.5983 11.4C20.473 11.3 20.3978 11.15 20.3978 10.975C20.3978 10.8 20.473 10.675 20.5983 10.55C20.8489 10.325 21.2498 10.325 21.5255 10.55C21.6508 10.65 21.7259 10.8 21.7259 10.975C21.7259 11.15 21.6508 11.3 21.5255 11.4C21.4002 11.525 21.2248 11.575 21.0744 11.575C20.899 11.575 20.7486 11.55 20.5983 11.4Z" fill="white"/>
<path fill-rule="evenodd" clip-rule="evenodd" d="M18.9945 13.075C18.8692 12.975 18.8191 12.825 18.8191 12.65C18.8191 12.475 18.8943 12.35 18.9945 12.225C19.22 12 19.621 12 19.8465 12.225C19.9718 12.325 20.0219 12.475 20.0219 12.65C20.0219 12.825 19.9467 12.975 19.8465 13.075C19.7463 13.2 19.5959 13.25 19.4205 13.25C19.2701 13.275 19.0947 13.225 18.9945 13.075Z" fill="white"/>
<path fill-rule="evenodd" clip-rule="evenodd" d="M17.065 14.325C17.065 14.15 17.1402 14.025 17.2404 13.9C17.4659 13.675 17.8669 13.675 18.0924 13.9C18.2177 14.025 18.2678 14.15 18.2678 14.325C18.2678 14.5 18.1926 14.625 18.0924 14.75C17.9922 14.85 17.8418 14.925 17.6664 14.925C17.491 14.925 17.3657 14.85 17.2404 14.75C17.1151 14.65 17.065 14.5 17.065 14.325Z" fill="white"/>
<path fill-rule="evenodd" clip-rule="evenodd" d="M13.9327 18.025C13.8324 17.925 13.7573 17.775 13.7573 17.6C13.7573 17.425 13.8324 17.3 13.9327 17.175C14.1582 16.95 14.5591 16.95 14.7847 17.175C14.91 17.3 14.9601 17.425 14.9601 17.6C14.9601 17.775 14.8849 17.9 14.7847 18.025C14.6844 18.15 14.5341 18.2 14.3587 18.2C14.2083 18.225 14.058 18.175 13.9327 18.025Z" fill="white"/>
<path fill-rule="evenodd" clip-rule="evenodd" d="M12.2036 19.7C12.0783 19.6 12.0031 19.45 12.0031 19.275C12.0031 19.1 12.0783 18.975 12.2036 18.85C12.4542 18.625 12.8551 18.625 13.1308 18.85C13.256 18.975 13.3312 19.1 13.3312 19.275C13.3312 19.45 13.256 19.575 13.1308 19.7C13.0055 19.825 12.8301 19.875 12.6797 19.875C12.4792 19.9 12.3289 19.825 12.2036 19.7Z" fill="white"/>
<path fill-rule="evenodd" clip-rule="evenodd" d="M10.5748 21.4C10.4745 21.3 10.3994 21.15 10.3994 20.975C10.3994 20.8 10.4745 20.65 10.5748 20.55C10.8003 20.325 11.2012 20.325 11.4268 20.55C11.527 20.65 11.6022 20.8 11.6022 20.975C11.6022 21.15 11.527 21.275 11.4268 21.4C11.3015 21.525 11.1762 21.575 11.0008 21.575C10.8254 21.575 10.7251 21.5 10.5748 21.4Z" fill="white"/>
<path fill-rule="evenodd" clip-rule="evenodd" d="M8.89587 23.075C8.77058 22.975 8.72046 22.825 8.72046 22.65C8.72046 22.475 8.79564 22.35 8.89587 22.225C9.1214 22 9.52234 22 9.74787 22.225C9.8481 22.35 9.92328 22.475 9.92328 22.65C9.92328 22.825 9.8481 22.975 9.74787 23.075C9.62257 23.2 9.49728 23.25 9.32187 23.25C9.17152 23.25 8.99611 23.2 8.89587 23.075Z" fill="white"/>
<path fill-rule="evenodd" clip-rule="evenodd" d="M7.16678 24.75C7.04149 24.65 6.96631 24.5 6.96631 24.325C6.96631 24.15 7.04149 24.025 7.16678 23.9C7.41737 23.675 7.81831 23.675 8.04383 23.9C8.16913 24.025 8.2443 24.15 8.2443 24.325C8.2443 24.5 8.16913 24.65 8.04383 24.75C7.91854 24.85 7.74313 24.925 7.59278 24.925C7.41737 24.925 7.26701 24.875 7.16678 24.75Z" fill="white"/>
<path fill-rule="evenodd" clip-rule="evenodd" d="M5.51294 26.425C5.38764 26.3 5.33752 26.175 5.33752 26C5.33752 25.825 5.4127 25.7 5.51294 25.575C5.73846 25.35 6.1394 25.35 6.36493 25.575C6.49023 25.7 6.54034 25.825 6.54034 26C6.54034 26.175 6.46517 26.3 6.36493 26.425C6.2647 26.525 6.11435 26.6 5.93893 26.6C5.81364 26.625 5.66329 26.55 5.51294 26.425Z" fill="white"/>
<path fill-rule="evenodd" clip-rule="evenodd" d="M6.36493 6.34999C6.46517 6.22499 6.54034 6.09999 6.54034 5.92499C6.54034 5.74999 6.46517 5.62499 6.36493 5.49999C6.1394 5.27499 5.73846 5.27499 5.51294 5.49999C5.38764 5.62499 5.33752 5.74999 5.33752 5.92499C5.33752 6.09999 5.4127 6.22499 5.51294 6.34999C5.61317 6.44999 5.76352 6.52499 5.93893 6.52499C6.11435 6.54999 6.2647 6.49999 6.36493 6.34999Z" fill="white"/>
<path fill-rule="evenodd" clip-rule="evenodd" d="M8.04384 8.07502C8.16913 7.95002 8.24431 7.82502 8.24431 7.65002C8.24431 7.47502 8.16913 7.35002 8.04384 7.22502C7.79325 7.00002 7.39231 7.00002 7.11667 7.22502C6.99137 7.35002 6.9162 7.47502 6.9162 7.65002C6.9162 7.82502 6.99137 7.95002 7.11667 8.07502C7.24196 8.17502 7.41737 8.25002 7.56772 8.25002C7.74314 8.22502 7.91855 8.17502 8.04384 8.07502Z" fill="white"/>
<path fill-rule="evenodd" clip-rule="evenodd" d="M9.74787 9.72499C9.8481 9.62499 9.92328 9.47499 9.92328 9.29999C9.92328 9.12499 9.8481 8.99999 9.74787 8.87499C9.52234 8.64999 9.1214 8.64999 8.89587 8.87499C8.79564 8.97499 8.72046 9.12499 8.72046 9.29999C8.72046 9.47499 8.79564 9.59999 8.89587 9.72499C9.02116 9.84999 9.14646 9.89999 9.32187 9.89999C9.47222 9.89999 9.62257 9.82499 9.74787 9.72499Z" fill="white"/>
<path fill-rule="evenodd" clip-rule="evenodd" d="M11.4268 11.4C11.527 11.3 11.6022 11.15 11.6022 10.975C11.6022 10.8 11.527 10.675 11.4268 10.55C11.2012 10.325 10.8003 10.325 10.5748 10.55C10.4745 10.65 10.3994 10.8 10.3994 10.975C10.3994 11.15 10.4745 11.3 10.5748 11.4C10.7001 11.525 10.8254 11.575 11.0008 11.575C11.1511 11.575 11.3015 11.55 11.4268 11.4Z" fill="white"/>
<path fill-rule="evenodd" clip-rule="evenodd" d="M13.0806 13.075C13.2059 12.975 13.2811 12.825 13.2811 12.65C13.2811 12.475 13.2059 12.35 13.0806 12.225C12.8551 12 12.4291 12 12.2036 12.225C12.0783 12.325 12.0031 12.475 12.0031 12.65C12.0031 12.825 12.0783 12.975 12.2036 13.075C12.3289 13.2 12.5043 13.25 12.6546 13.25C12.805 13.275 12.9804 13.225 13.0806 13.075Z" fill="white"/>
<path fill-rule="evenodd" clip-rule="evenodd" d="M14.9601 14.325C14.9601 14.15 14.8849 14.025 14.7847 13.9C14.5591 13.675 14.1582 13.675 13.9327 13.9C13.8074 14.025 13.7573 14.15 13.7573 14.325C13.7573 14.5 13.8324 14.625 13.9327 14.75C14.0329 14.85 14.1833 14.925 14.3587 14.925C14.5341 14.925 14.6594 14.85 14.7847 14.75C14.91 14.65 14.9601 14.5 14.9601 14.325Z" fill="white"/>
<path fill-rule="evenodd" clip-rule="evenodd" d="M16.4636 16.45C16.5889 16.325 16.639 16.2 16.639 16.025C16.639 15.85 16.5638 15.725 16.4636 15.6C16.238 15.375 15.8371 15.375 15.6116 15.6C15.4863 15.725 15.4362 15.85 15.4362 16.025C15.4362 16.2 15.5113 16.325 15.6116 16.45C15.7118 16.55 15.8622 16.625 16.0376 16.625C16.213 16.625 16.3633 16.55 16.4636 16.45Z" fill="white"/>
<path fill-rule="evenodd" clip-rule="evenodd" d="M18.1425 18.025C18.2678 17.925 18.343 17.775 18.343 17.6C18.343 17.425 18.2678 17.3 18.1425 17.175C17.8919 16.95 17.491 16.95 17.2655 17.175C17.1402 17.3 17.065 17.425 17.065 17.6C17.065 17.775 17.1402 17.9 17.2655 18.025C17.3908 18.15 17.5662 18.2 17.7165 18.2C17.8418 18.225 18.0172 18.175 18.1425 18.025Z" fill="white"/>
<path fill-rule="evenodd" clip-rule="evenodd" d="M19.8465 19.7C19.9467 19.6 20.0219 19.45 20.0219 19.275C20.0219 19.1 19.9467 18.975 19.8465 18.85C19.621 18.625 19.22 18.625 18.9945 18.85C18.8943 18.975 18.8191 19.1 18.8191 19.275C18.8191 19.45 18.8943 19.575 18.9945 19.7C19.1198 19.825 19.2451 19.875 19.4205 19.875C19.5458 19.9 19.7212 19.825 19.8465 19.7Z" fill="white"/>
<path fill-rule="evenodd" clip-rule="evenodd" d="M21.5255 21.4C21.6257 21.3 21.7009 21.15 21.7009 20.975C21.7009 20.8 21.6257 20.65 21.5255 20.55C21.2999 20.325 20.899 20.325 20.6735 20.55C20.5732 20.65 20.498 20.8 20.498 20.975C20.498 21.15 20.5732 21.275 20.6735 21.4C20.7988 21.525 20.924 21.575 21.0995 21.575C21.2749 21.575 21.4002 21.5 21.5255 21.4Z" fill="white"/>
<path fill-rule="evenodd" clip-rule="evenodd" d="M23.1041 23.075C23.2294 22.975 23.2795 22.825 23.2795 22.65C23.2795 22.475 23.2044 22.35 23.1041 22.225C22.8786 22 22.4777 22 22.2521 22.225C22.1519 22.35 22.0767 22.475 22.0767 22.65C22.0767 22.825 22.1519 22.975 22.2521 23.075C22.3774 23.2 22.5027 23.25 22.6781 23.25C22.8285 23.25 23.0039 23.2 23.1041 23.075Z" fill="white"/>
<path fill-rule="evenodd" clip-rule="evenodd" d="M24.8833 24.75C25.0086 24.65 25.0587 24.5 25.0587 24.325C25.0587 24.15 24.9835 24.025 24.8833 23.9C24.6578 23.675 24.2568 23.675 24.0313 23.9C23.906 24.025 23.8559 24.15 23.8559 24.325C23.8559 24.5 23.9311 24.65 24.0313 24.75C24.1315 24.85 24.2819 24.925 24.4573 24.925C24.6327 24.925 24.7831 24.875 24.8833 24.75Z" fill="white"/>
<path fill-rule="evenodd" clip-rule="evenodd" d="M26.5623 26.425C26.6876 26.3 26.7627 26.175 26.7627 26C26.7627 25.825 26.6876 25.7 26.5623 25.575C26.3117 25.35 25.9107 25.35 25.6852 25.575C25.5599 25.7 25.4847 25.825 25.4847 26C25.4847 26.175 25.5599 26.3 25.6852 26.425C25.8105 26.525 25.9859 26.6 26.1363 26.6C26.2616 26.625 26.4119 26.55 26.5623 26.425Z" fill="white"/>
<path fill-rule="evenodd" clip-rule="evenodd" d="M10.3493 6.825C12.0533 5.7 13.9327 5.175 16.0125 5.15C18.0423 5.15 19.9217 5.7 21.6758 6.825L25.2843 3.225C22.4526 1.075 19.3955 0 16.0125 0C12.6296 0 9.52233 1.075 6.76587 3.225L10.3493 6.825Z" fill="white"/>
<path fill-rule="evenodd" clip-rule="evenodd" d="M6.7408 21.6C5.5881 19.85 5.03681 18 5.03681 16C5.03681 13.975 5.5881 12.1 6.7408 10.4L3.1574 6.82501C1.05247 9.57501 0 12.625 0 16.025C0 19.375 1.05247 22.45 3.18246 25.25L6.7408 21.6Z" fill="white"/>
<path fill-rule="evenodd" clip-rule="evenodd" d="M21.6507 25.175C19.9467 26.325 18.0673 26.925 16.0376 26.95C13.9577 26.95 12.0532 26.4 10.3492 25.2L6.74078 28.775C9.5223 30.95 12.6296 32.025 16.0376 32C19.4205 31.975 22.4777 30.875 25.2341 28.775L21.6507 25.175Z" fill="white"/>
<path fill-rule="evenodd" clip-rule="evenodd" d="M25.184 10.35C26.3367 12.1 26.9381 14 26.888 16.05C26.863 18.05 26.2866 19.875 25.184 21.55L28.7925 25.125C30.9225 22.375 32.0251 19.325 32.0251 15.975C32.0501 12.575 30.9726 9.47501 28.7925 6.70001L25.184 10.35Z" fill="white"/>
<path fill-rule="evenodd" clip-rule="evenodd" d="M28.9429 26.3C30.3211 26.3 31.4738 27.425 31.4738 28.825C31.4738 30.2 30.3461 31.35 28.9429 31.35C27.5646 31.35 26.4119 30.225 26.4119 28.825C26.4119 27.425 27.5396 26.3 28.9429 26.3Z" fill="white"/>
<path fill-rule="evenodd" clip-rule="evenodd" d="M3.13234 26.3C4.51057 26.3 5.63821 27.425 5.63821 28.825C5.63821 30.2 4.51057 31.35 3.13234 31.35C1.75411 31.35 0.626465 30.225 0.626465 28.825C0.626465 27.425 1.75411 26.3 3.13234 26.3Z" fill="white"/>
<path fill-rule="evenodd" clip-rule="evenodd" d="M28.9929 0.549988C30.3712 0.549988 31.4988 1.67499 31.4988 3.07499C31.4988 4.47499 30.3712 5.59999 28.9929 5.59999C27.6147 5.59999 26.4871 4.47499 26.4871 3.07499C26.4871 1.67499 27.6147 0.549988 28.9929 0.549988Z" fill="white"/>
<path fill-rule="evenodd" clip-rule="evenodd" d="M3.0822 0.549988C4.46043 0.549988 5.61313 1.67499 5.61313 3.04999C5.61313 4.42499 4.48549 5.54999 3.0822 5.54999C1.70397 5.54999 0.55127 4.42499 0.55127 3.04999C0.55127 1.67499 1.67891 0.549988 3.0822 0.549988Z" fill="white"/>
</g>
<defs>
<clipPath id="clip0">
<rect width="32" height="32" fill="white"/>
</clipPath>
</defs>
</svg>
