<svg viewBox="0 0 32 32" xmlns="http://www.w3.org/2000/svg">
  <g fill="#FFFFFF">
    <path d="M16,32 C7.163444,32 0,24.836556 0,16 C0,7.163444 7.163444,0 16,0 C24.836556,0 32,7.163444 32,16 C32,24.836556 24.836556,32 16,32 Z M10.4423014,7.02929688 L5.03108724,10.2405599 L16.0209147,16.6164551 L27.0521647,10.2405599 L21.548584,7.02929688 L16.0209147,10.2405599 L10.4423014,7.02929688 Z M10.4890951,16.4080404 L5.04744466,19.589681 L16.0333659,25.9427897 L27.0448405,19.589681 L21.5145671,16.4080404 L16.0333659,19.589681 L10.4890951,16.4080404 Z" fill-rule="nonzero"></path>
    <g transform="translate(5, 7)">
      <path d="M10.9937727,18.9406531 C10.4925318,18.7089347 10.0318788,18.4046163 9.5540298,18.1314122 C8.24687061,17.3841306 6.94500939,16.6276898 5.64126245,15.8745265 C5.62200122,15.8634367 5.60547878,15.8477224 5.58769918,15.8342531 C5.5808298,15.8226245 5.57077265,15.8179551 5.55752776,15.8203796 C5.53579714,15.8059224 5.51402163,15.7914204 5.49233592,15.7770531 C5.59851959,15.62 5.77770735,15.5664816 5.92973184,15.478751 C7.03844204,14.8387306 8.14796041,14.1999224 9.26354,13.5719347 C9.82727878,13.254551 10.372789,12.9040776 10.9597849,12.6285388 C11.0722992,12.7132612 11.0245727,12.835249 11.0247522,12.9405347 C11.0281645,14.9358 11.0280298,16.9310653 11.0286135,18.9263306 C11.0286135,18.9263306 11.0220584,18.9316286 11.0221482,18.931449 C11.01254,18.9337837 11.0030665,18.9369265 10.9937727,18.9406531" id="Fill-1" opacity="0.498980978"></path>
      <path d="M16.4990347,0.117686531 C16.5705122,0.0251069388 16.6350306,0.0995926531 16.6921408,0.132682449 C17.9129612,0.840319184 19.1324347,1.55020082 20.3521327,2.25967837 C20.849198,2.54882122 21.3462184,2.83787429 21.8428796,3.12755592 C22.0475245,3.24689469 22.0471653,3.27917633 21.8372224,3.4008498 C20.1247245,4.3930049 18.4120469,5.38484571 16.6990102,6.37610286 C16.6221898,6.42055184 16.5458184,6.46895184 16.4534184,6.47698857 C16.441251,6.44793959 16.4290388,6.41893551 16.4169163,6.38988653 C16.6002796,6.39424163 16.5406551,6.25339673 16.5407898,6.16503755 C16.5436633,4.23617633 16.5429,2.30736 16.542451,0.378498776 C16.542451,0.289421224 16.5533612,0.197964082 16.4990347,0.117686531" id="Fill-3" opacity="0.245810688"></path>
      <path d="M16.535209,9.44558776 C16.7685437,9.45757551 16.9339478,9.61822041 17.1197804,9.72552653 C18.4838253,10.5130816 19.8427518,11.3095714 21.2033396,12.1031429 C21.4290865,12.2348286 21.6556865,12.3650327 21.88076,12.4978857 C22.0086743,12.5734041 22.0379478,12.6359918 21.879009,12.7272245 C20.7784702,13.3590735 19.6818824,13.9977469 18.5841273,14.6344449 C17.9707763,14.9902163 17.3585478,15.3478735 16.7435804,15.7007714 C16.654458,15.7519102 16.552809,15.7812286 16.4569069,15.8206939 C16.4424049,15.7904776 16.4279029,15.7602612 16.4134457,15.7300449 C16.5753927,15.7392939 16.5415396,15.6193265 16.5417641,15.5289469 C16.5433804,14.7357347 16.5438743,13.9425224 16.5427967,13.1493551 C16.5410906,11.914751 16.537858,10.6801918 16.535209,9.44558776" id="Fill-6" opacity="0.245810688"></path>
      <path d="M5.49252449,6.4333702 C5.7211898,6.1738151 6.04907959,6.06592531 6.33530408,5.89926408 C7.77756122,5.05953755 9.22969592,4.23678245 10.6785082,3.4083702 C10.7679449,3.35727633 10.873949,3.33208857 10.9363571,3.23986816 C10.9603327,3.2457498 10.9843082,3.25167633 11.0083286,3.25760286 C11.0138061,3.36944367 11.0238184,3.48128449 11.0239082,3.59308041 C11.0257041,5.58910898 11.0262429,7.58518245 11.027051,9.58121102 C10.9103612,9.60653347 10.8322388,9.52329265 10.7461694,9.47372531 C9.27778163,8.62784776 7.8110551,7.77914163 6.34401429,6.93106408 C6.34410408,6.93115388 6.34100612,6.9285049 6.34100612,6.9285049 C6.32964694,6.92590082 6.32066735,6.91979469 6.31406735,6.91018653 C6.2908551,6.85657837 6.24627143,6.84010082 6.19221429,6.84010082 C6.16743061,6.82622735 6.14260204,6.81230898 6.11795306,6.79848041 C6.10434898,6.76417837 6.07772449,6.75201102 6.04256939,6.7545702 C5.99273265,6.72637429 5.94289592,6.69817837 5.89314898,6.67002735 C5.88735714,6.64537837 5.87334898,6.63330082 5.84708367,6.63990082 C5.82122245,6.62544367 5.79540612,6.61103143 5.7695898,6.59666408 C5.75329184,6.54839878 5.7188102,6.53196612 5.67023061,6.54022735 C5.64279796,6.52410898 5.61527551,6.50799061 5.58784286,6.49187224 C5.58384694,6.48244367 5.57684286,6.47880694 5.56692041,6.48096204 C5.54209184,6.46511306 5.51730816,6.44926408 5.49252449,6.4333702" id="Fill-17" opacity="0.501528533"></path>
      <path d="M11.1106241,12.5976759 C11.3110486,12.8173167 11.5889669,12.9190555 11.8363547,13.0643902 C13.1472404,13.8343902 14.4639629,14.5946922 15.7784404,15.358631 C15.9904935,15.481831 16.2017833,15.6062433 16.4134322,15.7301167 C16.4279343,15.7602433 16.4423914,15.7904596 16.4568935,15.8206759 C15.5551629,16.3444555 14.6542404,16.8697167 13.7513424,17.3916555 C12.912918,17.8763739 12.0726976,18.3580392 11.2321629,18.8392555 C11.1684976,18.8756678 11.096571,18.8976678 11.0285506,18.9263576 C11.0280118,16.9310922 11.0281465,14.935782 11.0247792,12.9405616 C11.0245547,12.835231 11.0722812,12.7132433 10.9598118,12.6285208 C10.9725629,12.6200351 10.9784894,12.608182 10.9775914,12.5929167 C11.0219506,12.5944882 11.0663098,12.5961045 11.1106241,12.5976759" id="Fill-19" opacity="0.245810688"></path>
      <path d="M11.027051,9.58122449 C11.0262429,7.58515102 11.0257041,5.58912245 11.0239082,3.59304898 C11.0238184,3.48125306 11.0138061,3.36945714 11.0083286,3.25761633 C11.0385449,3.25312653 11.0688061,3.24868163 11.0989776,3.24423673 C11.3481163,3.47146531 11.6538265,3.61096327 11.9404551,3.77874694 C13.3158592,4.58394694 14.6946306,5.3834 16.0720102,6.18518776 C16.1875327,6.2524 16.3018429,6.32163265 16.4168265,6.38992245 C16.4290388,6.41892653 16.441251,6.44793061 16.4534184,6.47697959 C15.5713082,6.9893551 14.6901857,7.50357143 13.8067286,8.01374694 C12.9361122,8.51660408 12.0633408,9.01577959 11.1906592,9.5150449 C11.1400592,9.54400408 11.0817816,9.55949388 11.027051,9.58122449" id="Fill-21" opacity="0.245810688"></path>
      <path d="M5.34138898,0.103633469 C5.51186653,0.104666122 5.45044612,0.235992653 5.45071551,0.316539592 C5.45408286,1.45084163 5.45255633,2.58518857 5.45242163,3.71958041 C5.45233184,4.51809061 5.45314,5.31660082 5.45188286,6.11511102 C5.45174816,6.20275184 5.47294,6.2959151 5.40761347,6.37313959 C4.0474298,5.58122939 2.68724612,4.78927429 1.32697265,3.99749878 C0.940266531,3.77238041 0.553111429,3.5480702 0.166495102,3.32286204 C0.0596379592,3.26063347 -0.0334804082,3.21510694 0.150197143,3.10937224 C1.61813592,2.26457224 3.0815849,1.4120498 4.54656041,0.562131429 C4.81114408,0.408670204 5.07644612,0.256421224 5.34138898,0.103633469" id="Fill-23" opacity="0.502264493"></path>
      <path d="M5.40695796,9.42478653 C5.43852122,9.4936151 5.45356204,9.56477837 5.45351714,9.64164367 C5.45239469,11.6011702 5.45261918,13.5606069 5.45203551,15.5201784 C5.45203551,15.6052151 5.47964776,15.7194355 5.32219061,15.6656478 C4.52713755,15.2065661 3.73073755,14.7495498 2.93707633,14.2878192 C2.01451306,13.7510641 1.09423959,13.210358 0.173427347,12.6706845 C0.122692653,12.6410069 0.0759987755,12.6044151 -1.34693878e-05,12.5521539 C0.13706,12.4707988 0.255545714,12.3990518 0.375333469,12.3295049 C1.82773755,11.4860069 3.28005184,10.6422845 4.73326408,9.80004367 C4.95564367,9.67118653 5.18228857,9.54969265 5.40695796,9.42478653" id="Fill-25" opacity="0.496376812"></path>
    </g>
  </g>
</svg>
