<svg height="32" viewBox="0 0 32 32" width="32" xmlns="http://www.w3.org/2000/svg"><path d="m16 32c-8.836556 0-16-7.163444-16-16s7.163444-16 16-16 16 7.163444 16 16-7.163444 16-16 16zm6.3132663-23c-3.0218354 0-6.0436709 0-9.0523393.00630239-.8295234.08193103-1.6722139.11974535-2.4951539.29621219-2.31739881.4915862-3.37076193 1.60080632-3.64726975 3.85706092-.04608464.3529337-.07900223.7121698-.11850335 1.0714059v3.6364774c.05925168.4600742.10533631.9264509.18433855 1.3865251.34892653 1.9915544 1.38253909 2.9999363 3.45634775 3.4095915.8821916.1701644 1.7775502.277305 2.6729089.2962122 2.9099156.0567215 5.8198312.0504191 8.7297468 0 .6978531-.0063024 1.4022897-.0567215 2.0738087-.2647003.7834388-.2394907 1.1323653-1.172244.684686-1.840297-.2304232-.3466313-.5991003-.3970504-.9941114-.3970504-3.1008377 0-6.1950919.0063024-9.2959296-.0126048-.8887751-.0063024-1.7775502-.0567215-2.6399913-.2899098-.7768553-.2079788-1.2574522-.6743554-1.4549578-1.4243395-.1053363-.4033528-.1316704-.813008-.164588-1.2289655-.0395011-.4537719-.0460846-.4537719.4345123-.4537719h12.989284c.1843385 0 .3752606-.0063024.5595991-.0378143.4410958-.081931.6978531-.308817.7241872-.7184721.0329176-.5104934.177755-1.0651035-.4015947-1.4180372-.1711715-.1071405-.3686771-.1449549-.5727662-.1512572-.1250869 0-.2435902 0-.3686771 0-4.220036 0-8.440072 0-12.660108 0-.7439377 0-.7439377 0-.684686-.7121698.1316704-1.5188753.7241871-2.1428116 2.2976483-2.3886047.4674299-.0756287.9414433-.1197454 1.4220402-.1197454 3.1732564-.0126048 6.3530963-.0189072 9.5263527-.0252095.2370067-.0063024.4674299-.0126048.6978531-.0504191.3884276-.0630239.6320178-.2962122.697853-.6743555.164588-.93275327-.1514209-1.39282753-1.1191983-1.57559676-.4871804-.08823342-.9875279-.11974536-1.4812919-.17646684z" fill="#fff"/></svg>