<svg width="32" height="32" viewBox="0 0 32 32" fill="none" xmlns="http://www.w3.org/2000/svg">
<path fill-rule="evenodd" clip-rule="evenodd" d="M32 16C32 24.8366 24.8366 32 16 32C7.16344 32 0 24.8366 0 16C0 7.16344 7.16344 0 16 0C24.8366 0 32 7.16344 32 16ZM10.548 11.372L16.632 3L22.664 11.32L25.264 23.748L16.632 29L8 23.748L10.548 11.372ZM11.328 13.764L9.404 23.176L15.696 27.024L11.328 13.764ZM16.632 5.184L11.952 11.632L16.632 25.776L21.312 11.632L16.632 5.184ZM21.884 13.764L17.516 27.024L23.808 23.176L21.884 13.764Z" fill="white"/>
</svg>
