<svg height="32" width="32" xmlns="http://www.w3.org/2000/svg"><path d="m16 32c-8.837 0-16-7.163-16-16s7.163-16 16-16 16 7.163 16 16-7.163 16-16 16zm3.7-18.945-.529-1.055-1.1.5-2.885 7.797 1.1-.5.526 1.055.018-.047 2.868-7.75zm7.18.183.064-.183-.525-1.055-1.1.5-2.867 7.76-.067.182 1.1-.5.527 1.058zm-6.14 6.712 1.689-4.563-1.103.5-.524-1.057-1.694 4.562.525 1.058zm-9.137-4.5h-5.045l.86.8-.86.813h5.04l.856-.813zm-5.743 3.383-.86.807.86.805h8.155l-.857-.805.857-.808h-8.155zm2.501-6.768-.86.808.86.805h8.15l-.854-.806.855-.807h-8.15z" fill="#fff"/></svg>