<svg height="32" viewBox="0 0 32 32" width="32" xmlns="http://www.w3.org/2000/svg"><path d="m16 32c-8.836556 0-16-7.163444-16-16s7.163444-16 16-16 16 7.163444 16 16-7.163444 16-16 16zm10-17.2826855v-3.984099c-.04264.0159364-.08838.0266644-.12746.0485866-1.55202.8708657-3.10308 1.7433057-4.65584 2.6128887-.0798.0446997-.08714.0832968-.04988.1611714.78114 1.6326449.77834 3.2645124-.01522 4.8924541-.03994.0819364-.03286.1228462.05026.1691007 1.55232.8637915 3.10318 1.7300901 4.65456 2.5955141.02962.0165.0618.0286466.10532.0485866.00484-.0986113.01204-.1790124.01222-.2594329.00186-.8355919.00172-1.6711837.00384-2.5067756.0031-1.2209611.0075-2.4418834.0119-3.6628057.00014-.0384222.00672-.0767862.0103-.115189zm-9.7-9.7173145h-.02c-.00586.04773145-.0168.0954629-.01682.14319435-.00006.69949116.00044 1.39900176.00258 2.09847349.0031 1.01351591.00896 2.02701237.00944 3.04050886.00004.0985335.03636.1351873.13172.1345265.05316-.0003693.1067.0036537.15956.0098339 1.78316.2082809 3.18732 1.0288693 4.21076 2.4633781.08126.1139064.07974.1153056.20036.0479647 1.5394-.8593799 3.07874-1.7188375 4.61796-2.5785283.0305-.0170442.0592-.0371007.10178-.0639594-.04718-.0286661-.0798-.0498109-.11366-.0688374-3.01614-1.69479685-6.03242-3.38939932-9.04842-5.08444879-.07988-.044894-.1569-.09462721-.23526-.14210601zm-.62 22h.06c.00384-.0250707.01106-.0501608.01102-.0752314-.00136-.8483799-.00318-1.6967598-.00544-2.5451202-.0024-.8969664-.00676-1.7939329-.006-2.6908798.00008-.0998357-.03742-.1258781-.1336-.1302121-.1694-.0076766-.33974-.0205229-.50686-.0476537-1.63912-.2663127-2.94542-1.051394-3.90078-2.3772049-.0569-.0789629-.10004-.0986308-.1925-.0467986-1.52894.8573198-3.05986 1.7113162-4.59012 2.5664205-.02944.0164417-.05618.0374116-.0962.0643869.05904.0348463.1008.0605583.14356.084599 3.03874 1.7080706 6.07758 3.4159664 9.11606 5.1245035.03606.0202897.06734.048606.10086.0731908zm-9.68-6.54947v.8162545c.04484-.0110195.09518-.0128075.13374-.0344188 1.52914-.857242 3.0572-1.7162721 4.5854-2.5750883.12992-.0729965.12744-.0719276.06308-.2045884-.7966-1.6422455-.79998-3.2857155-.00064-4.9274947.04484-.0921007.03198-.1301731-.05668-.1794982-1.52342-.8473887-3.04494-1.6979452-4.56706-2.5475495-.02984-.0166554-.06164-.030007-.10556-.0511713-.00332.0447774-.00704.0726855-.00722.100613-.00196.3205742-.00386.6411484-.00488.9617421-.0047 1.486341-.00942 2.9727014-.01352 4.4590424-.00262.9422102-.00406 1.8844399-.0063 2.8266696-.001.4209541-.00232.8419081-.0047 1.2628622-.00018.0309011-.01022.0617438-.01566.0926254zm13.472792-.9313249c-.0024-.0410265-.00566-.0820335-.00708-.1230989-.01732-.5107809-.08796-1.0132244-.26586-1.4963887-.19292-.523977-.47196-.9928375-.94054-1.3342262-.11054-.0805371-.11496-.0790989-.18376.0383446-.2664.4545371-.57232.8811466-.93716 1.2671961-1.43066 1.513841-3.33208 1.7807367-5.061 1.1851237-.0334-.0115053-.06564-.0263145-.09842-.039569.35866.026781.71112.0470124 1.06262-.0058109.75738-.1138481 1.37044-.4473463 1.76116-1.1113304.07452-.1266555.0738-.1274329-.06326-.1880106-1.05672-.4669364-1.7792-1.2326219-2.1637-2.2962403-.3086-.8536466-.35934-1.73353-.26568-2.6263374.00844-.0804788.01906-.1608216.03134-.240834.0122-.0795459.02776-.158606.04184-.2378798.02368.0288215.02994.0567491.03788.0842297.09974.3454505.18614.6952738.30326 1.0350883.13322.3865353.3371.739371.62896 1.0383534.14652.150113.31518.2686643.5179.3376572.15464.0526095.16002.0512103.24026-.0902155.5676-1.0001644 1.39804-1.7034647 2.50844-2.0850442.87052-.2991378 1.76904-.3590353 2.68198-.2729788.14698.0138569.29316.0355071.4397.0535424.00702-.010553.01404-.021106.02104-.031659-.05612-.0481202-.1121-.0963569-.16834-.1443021-1.49366-1.2737262-3.19888-1.6830778-5.12208-1.16944-2.56018.6837297-4.27668 3.2746378-3.70782 5.9532739.60786 2.8621184 3.57698 4.6646996 6.50334 3.944841 2.63824-.6489806 4.33736-3.0959753 3.95372-5.7028198-.15384-1.0453693-.60546-1.9582527-1.33678-2.7389028-.0372-.0396856-.1079-.0747068-.16062-.0717527-.43078.0241961-.8543.0908958-1.25814.24647-.5809.2238286-1.05096.5730689-1.31974 1.1366343-.1188.2490353-.09782.1988939.1032.299818.75752.3802191 1.37876.9027191 1.80996 1.6252014.3739.6264753.5517 1.3081449.5944 2.0260406.0348.5850212-.01758 1.1630848-.18102 1.7350265zm6.267774 2.212549c-.056-.0332138-.09124-.0553304-.12762-.0755036-1.54784-.8585053-3.0958-1.7168162-4.64372-2.5752244-.13724-.076106-.13614-.0756007-.23016.0530566-1.07046 1.464924-2.52848 2.2712473-4.36952 2.4233039-.08294.0068604-.10548.0348074-.1054.1123516.00184 1.7296042.00134 3.4592279.00184 5.1888321 0 .0338746.00656.0677491.0122.1222438 3.1593-1.7525565 6.30164-3.4957067 9.46238-5.24906zm-10.001856-16.69538997c-.06772.03521555-.11962.06071379-.17008.08868022-3.03712 1.68509894-6.0742 3.37029505-9.11076 5.05636575-.05516.0306289-.10418.0716749-.15608.1078816.05098.0332915.10006.0698481.15324.0994081 1.50642.8371078 3.01326 1.6735548 4.52006 2.5100018.12652.0702367.12508.0688374.2105-.0484505 1.08812-1.494387 2.57366-2.3069682 4.45072-2.4429135.09906-.0071713.11062-.0473233.11054-.1270247-.00158-1.70665195-.00118-3.41332332-.00146-5.1199947 0-.03406891-.00356-.06813781-.00668-.12395407z" fill="#fff" fill-rule="evenodd"/></svg>