<svg width="33" height="33" viewBox="0 0 33 33" fill="none" xmlns="http://www.w3.org/2000/svg">
<g clip-path="url(#clip0)">
<path fill-rule="evenodd" clip-rule="evenodd" d="M32.444 16.009C32.444 24.8455 25.2805 32.009 16.444 32.009C7.60741 32.009 0.44397 24.8455 0.44397 16.009C0.44397 7.17242 7.60741 0.00897217 16.444 0.00897217C25.2805 0.00897217 32.444 7.17242 32.444 16.009ZM15.259 8.36928H13.3793V10.2993H15.259V8.36928ZM10.6006 8.36928H8.63919V10.2993H10.6006V8.36928ZM10.5189 14.9635V13.0335H8.55746V14.9635H10.5189ZM9.21127 23.6487H9.9468V22.9249H9.21127V23.6487ZM8.63919 19.7886H10.6006V17.939H8.63919V19.7886ZM14.0331 23.6487H14.7686V22.9249H14.0331V23.6487ZM14.0331 19.1453H14.7686V18.4215H14.0331V19.1453ZM13.3793 15.044H15.3407V13.1139H13.3793V15.044ZM18.7731 23.6487H19.5087V22.9249H18.7731V23.6487ZM18.7731 19.1453H19.5087V18.4215H18.7731V19.1453ZM18.7731 14.4006H19.5087V13.6769H18.7731V14.4006ZM18.2011 10.2993H20.1625V8.36928H18.2011V10.2993ZM23.595 23.6487H24.3305V22.9249H23.595V23.6487ZM23.595 19.1453H24.3305V18.4215H23.595V19.1453ZM23.595 14.4006H24.3305V13.6769H23.595V14.4006ZM23.595 9.73638H24.3305V9.01262H23.595V9.73638Z" fill="white"/>
</g>
<defs>
<clipPath id="clip0">
<rect width="32" height="32" fill="white" transform="translate(0.44397 0.00897217)"/>
</clipPath>
</defs>
</svg>
