<svg width="32" height="32" viewBox="0 0 32 32" fill="none" xmlns="http://www.w3.org/2000/svg">
<path fill-rule="evenodd" clip-rule="evenodd" d="M32 16C32 24.8366 24.8366 32 16 32C7.16344 32 0 24.8366 0 16C0 7.16344 7.16344 0 16 0C24.8366 0 32 7.16344 32 16ZM18.496 13.504H23.008V18.016H18.496V13.504ZM13.984 19.712C13.984 20.64 13.216 21.408 12.288 21.408C11.36 21.408 10.592 20.64 10.592 19.712C10.592 18.784 11.36 18.016 12.288 18.016H13.984V19.712ZM18.4959 18.016H13.984V13.504H12.288C8.86395 13.504 6.07996 16.288 6.07996 19.712C6.07996 23.136 8.86395 25.92 12.288 25.92C15.712 25.92 18.4959 23.136 18.4959 19.712V18.016ZM25.28 11.232H20.192C19.264 11.232 18.496 12 18.496 12.928V13.504H13.984V12.928C13.984 9.50397 16.768 6.71997 20.192 6.71997H25.28V11.232Z" fill="white"/>
<path d="M18.496 13.504H13.984V18.016H18.496V13.504Z" fill="white"/>
</svg>
