<svg width="32" height="32" viewBox="0 0 32 32" fill="none" xmlns="http://www.w3.org/2000/svg">
<path fill-rule="evenodd" clip-rule="evenodd" d="M32 16C32 24.8366 24.8366 32 16 32C7.16344 32 0 24.8366 0 16C0 7.16344 7.16344 0 16 0C24.8366 0 32 7.16344 32 16ZM9.02 6.88948C8.905 6.89848 8.79 6.90748 8.675 6.91248L8.675 6.91249C8.6625 6.97499 8.65 7.03748 8.65 7.09998C8.875 7.16248 9.1125 7.22498 9.3375 7.27498C10.5875 7.53748 11.025 8.02498 11.1125 9.29998C11.15 9.67498 11.1625 10.0625 11.1625 10.4375C11.1625 11.3916 11.1639 12.3458 11.1653 13.3C11.1681 15.2083 11.1708 17.1166 11.1625 19.025C11.1625 20.2625 11.1625 21.5 11.1125 22.725C11.05 23.95 10.625 24.4375 9.45 24.75C9.23615 24.8034 9.02866 24.876 8.81846 24.9494C8.73378 24.979 8.64865 25.0088 8.5625 25.0375C8.56875 25.0562 8.57187 25.075 8.575 25.0937C8.57812 25.1125 8.58125 25.1312 8.5875 25.15H16.55C16.55 25.1086 16.5586 25.0757 16.5686 25.0372C16.5707 25.0293 16.5729 25.0211 16.575 25.0125L15.4125 24.7125C14.525 24.475 14.05 23.875 13.925 22.975C13.9 22.775 13.8875 22.575 13.8875 22.375C13.875 18.225 13.875 14.075 13.8875 9.92498C13.8875 9.53748 13.95 9.12498 14.05 8.74998C14.2 8.18748 14.55 7.83748 15.175 7.83748C15.6905 7.84132 16.2049 7.84043 16.7184 7.83955C17.8734 7.83755 19.0242 7.83556 20.175 7.88748C21.25 7.93748 22 8.59998 22.4875 9.54998C22.5861 9.74712 22.6648 9.95615 22.7438 10.1659C22.8051 10.3286 22.8665 10.4917 22.9375 10.65C23.0042 10.812 23.1 10.9595 23.1972 11.1092C23.2274 11.1557 23.2578 11.2025 23.2875 11.25C23.3125 11.2437 23.3406 11.2344 23.3687 11.225C23.3969 11.2156 23.425 11.2062 23.45 11.2C23.45 11.1213 23.4527 11.0412 23.4555 10.9606C23.4611 10.7981 23.4667 10.6338 23.45 10.475C23.3875 9.62498 23.3125 8.78748 23.2125 7.93748C23.1 6.96248 22.975 6.84998 21.9875 6.84998C19.9125 6.84998 17.8375 6.8531 15.7625 6.85623C13.6875 6.85935 11.6125 6.86248 9.5375 6.86248C9.365 6.86248 9.1925 6.87598 9.02 6.88948Z" fill="white"/>
</svg>
