<svg height="32" viewBox="0 0 32 32" width="32" xmlns="http://www.w3.org/2000/svg"><path d="m16 32c-8.836556 0-16-7.163444-16-16s7.163444-16 16-16 16 7.163444 16 16-7.163444 16-16 16zm8.6026605-26c-5.8287697 3.02179916-8.0497595 5.5645326-8.0497595 5.5645326l-.3453692 2.4058575c-.3453692.4106278-.626978-.068438-.626978-.068438l-.2072215-1.2371477-1.6630857 1.5793375c0 3.0217992-.6269779 4.0536331-.6269779 4.0536331-.2762954.4106277-.5525908.0684379-.5525908.0684379l-.1381477-3.1586751-1.041421.894958.0690738 5.0170289c-.9723471-.2053139-1.1795687-2.6111714-1.1795687-2.6111714-.76512563.6843796-.62166457 3.1586751-.62166457 3.1586751l-1.73215948-2.2005437 1.04142104 2.5427335-2.42821129-1.3055857 1.87562054 1.8583538c-.97234719.894958-.13814769 1.5793376-.13814769 1.5793376-.20722153-.6212061.34536922-.82652.34536922-.82652.8341995-.4106278.69605181.758082.69605181.758082l-1.38679025 1.6477755c-.20722154.3421898.13814769.2737518.13814769.2737518l1.66308563-1.7846514c.97234715 1.2371477 2.15191595.9633959 2.15191595.9633959-1.4558641-.6159416-1.4558641-2.0636677-1.4558641-2.0636677 1.2486425 1.9952297 3.3314846 1.3055857 3.3314846 1.3055857-2.3591375-.4106278-2.4282113-1.8583538-2.4282113-1.8583538 5.2017918 1.0318338 6.5195082-.4106278 6.5195082-.4106278l-6.174139-.2737518c1.4558641-1.5108996 5.2017918-.894958 5.2017918-.894958l3.2624108-4.2589469 4.0647301-4.7695993c.3825628-.447479.6907384-.9581315.9139001-1.5056352 1.1689419-2.97968345-.4782036-4.4432029-.4782036-4.4432029zm-11.0996354 13.9508149s5.9616041-8.4547203 8.8042654-10.44468557c.0053064 0-3.0498828 5.15390487-8.8042654 10.44468557z" fill="#fff"/></svg>