<svg width="32" height="32" viewBox="0 0 32 32" fill="none" xmlns="http://www.w3.org/2000/svg">
<path fill-rule="evenodd" clip-rule="evenodd" d="M32 16C32 24.8366 24.8366 32 16 32C7.16344 32 0 24.8366 0 16C0 7.16344 7.16344 0 16 0C24.8366 0 32 7.16344 32 16ZM20.8 10.8L17.2 12.9L20.8 15V10.8ZM16 24.7L20.8 21.9V17L16 19.8L11.2 17V21.9L16 24.7ZM14.8 12.9L11.2 10.8V15L14.8 12.9ZM20.2 16L16.6 13.9V18.1L20.2 16ZM11.8 16L15.4 18.1V13.9L11.8 16ZM16 12.2L20.2 9.8L16 7.3L11.8 9.8L16 12.2ZM10 22.5V9.4L16 6L22 9.4V22.5L16 25.9L10 22.5Z" fill="white"/>
</svg>
