<svg height="32" viewBox="0 0 32 32" width="32" xmlns="http://www.w3.org/2000/svg"><path d="m16 32c-8.836556 0-16-7.163444-16-16s7.163444-16 16-16 16 7.163444 16 16-7.163444 16-16 16zm-3.3-5.1c1.4227541.4385602 2.9214851.5748085 4.4.4-1.4-1.9-2.9-3.8-4.3-5.6 1.4-1.2 2.9-2.3 4.3-3.4-1-1.3-2-2.5-3-3.8l-4.3 3.4c-.33247875-1.0704938-.36704981-2.2113386-.1-3.3.28982714-.9004407.7293133-1.7456063 1.3-2.5.5800051-.7006579 1.2939308-1.2785977 2.1-1.7.9117897-.42015539 1.8969432-.65795105 2.9-.7-.1-.2-.3-.3-.4-.5-1-1.3-2-2.6-3-3.8-.6573101.20570065-1.2935198.47357841-1.9.8-1.72699651.85017904-3.18179228 2.16642283-4.2 3.8-.69549998 1.1805006-1.20164398 2.4627321-1.5 3.8-.35008651 1.5808499-.35008651 3.2191501 0 4.8.30579655 1.3197441.84786128 2.5732688 1.6 3.7.70534853 1.0710955 1.5840155 2.0173522 2.6 2.8 1.0310949.8333458 2.2223807 1.4460071 3.5 1.8zm9.5294288-12.1142353c.1665582 1.1171817.1567486 2.0552602-.0294288 2.8142353-.2146138.910268-.6240162 1.7631896-1.2 2.5-1.1706554 1.5191794-2.9821109 2.4064228-4.9 2.4.2333882.3897513.5011183.7578803.8 1.1.8 1.1 1.6 2.1 2.5 3.2 1.2171681-.3544365 2.3430261-.9685409 3.3-1.8.9825877-.7493309 1.8283548-1.6627594 2.5-2.7.7695949-1.0804239 1.3137438-2.3047589 1.6-3.6.3339544-1.5458132.3679026-3.1413813.1-4.7-.1753184-1.355744-.6538328-2.6545687-1.4-3.8-.6335549-1.06402678-1.4453878-2.01116517-2.4-2.8-1.9587914-1.65636434-4.4348815-2.57605494-7-2.6h-1.4c0 .1.1.1.1.2 1.5 1.9 2.9 3.7 4.3 5.5-1.4 1.2-2.9 2.3-4.3 3.4 1 1.3 2 2.5 3 3.8 1.1891282-1.0192527 4.1649246-3.2938693 4.3-3.4.049842.1604782.0929891.3225373.1294288.4857647zm-4.7228767 8.3731065c-.0120883-.0140133-.0240713-.027983-.0359512-.0419121 1.623637-.3234375 3.0943116-1.223604 4.1234783-2.5591711.6395543-.8181015 1.0964144-1.7698935 1.3359062-2.7856794.297931-1.2144246.2591576-2.4939459-.1137359-3.6945646l-.3230907-1.0402667-.856525.6729839c-.4507889.3541914-2.0488099 1.5839727-2.1463816 1.6596749-.6060282.4701943-1.1121867.8719892-1.5762184 1.2546272-.2632199-.3350619-.5676066-.7171151-1.0283822-1.2930846-.4659803-.5824754-.7702078-.964371-1.0333567-1.299529.6378383-.493616 1.4871484-1.1473392 1.5574529-1.2018858.8769023-.6803552 1.5447064-1.217502 2.1783457-1.7606214l.5429714-.4654041-.4390507-.5644939c-1.637288-2.10508452-2.5760646-3.309189-3.5029356-4.48832266 2.3515861.04252779 4.6241605.89727995 6.4266478 2.42147276.894845.73950933 1.6503006 1.62087422 2.2398587 2.6110103.7006628 1.0766951 1.1397392 2.2684738 1.3006082 3.5124807.2562794 1.4948304.2243928 2.9935017-.0892809 4.4454396-.263767 1.1934439-.7666091 2.3248385-1.4777833 3.3232464-.6433701.9922206-1.4300202 1.8418028-2.3439275 2.5387573-.7833859.6789022-1.653304 1.188941-2.5883253 1.5247458-.894358-1.1000712-1.5222775-1.9059392-2.1503242-2.7695035z" fill="#fff" fill-rule="evenodd"/></svg>