<svg height="32" viewBox="0 0 32 32" width="32" xmlns="http://www.w3.org/2000/svg"><path d="m16 32c-8.836556 0-16-7.163444-16-16s7.163444-16 16-16 16 7.163444 16 16-7.163444 16-16 16zm-3.1311787-19.315036v2.4875879h11.0851821v-2.4875879zm11.0851821 4.1441371h-11.0851821v2.4875879h8.2333925v2.3355686c-1.1039185.9521933-3.265759 1.4437223-3.265759 1.4437223-6.3475316 1.1055946-8.3713823-4.3302455-8.3713823-4.3302455-1.83986424-6.2650361 2.6218065-8.752624 2.6218065-8.752624 5.4735962-3.31678377 9.5672941.9213289 9.5672941.9213289l1.9318574-1.88872415c-3.2197624-3.68531533-8.1873958-2.99431871-8.1873958-2.99431871-8.04940607.82919595-9.10732801 7.60096286-9.10732801 7.60096286-1.33390158 5.4358401 2.3458269 9.1672219 2.3458269 9.1672219 6.71550451 6.8178334 15.36286641.5527973 15.36286641.5527973v-6.5432774z" fill="#fff" fill-rule="evenodd"/></svg>