<svg xmlns="http://www.w3.org/2000/svg" width="32" height="32" viewBox="0 0 32 32">
  <path fill="#FFF" fill-rule="evenodd" d="M16,32 C7.163444,32 0,24.836556 0,16 C0,7.163444 7.163444,0 16,0 C24.836556,0 32,7.163444 32,16 C32,24.836556 24.836556,32 16,32 Z M25,22.5792095 L25,9.62203372 L18.0093653,12.1025447 L18.0093653,19.3222295 L25,22.5792095 Z M14.823082,26 L14.823082,13.138638 L8,9.95789691 L8,22.820976 L14.823082,26 Z M24.8324472,9.15738865 L24.8943236,9.13575329 L18.165099,6 L18.1032226,6.02129194 L17.9255889,6.0841375 L17.8418125,6.1140149 L8.26975299,9.51007933 L14.9989776,12.646176 L17.8418125,11.6378997 L18.0093653,11.5781449 L24.720166,9.19722518 L24.8324472,9.15738865 Z"/>
</svg>
