<?xml version="1.0" encoding="utf-8"?><svg version="1.1" id="Layer_1" xmlns="http://www.w3.org/2000/svg" xmlns:xlink="http://www.w3.org/1999/xlink" x="0px" y="0px" viewBox="0 0 122.88 122.88" style="enable-background:new 0 0 122.88 122.88" xml:space="preserve"><style type="text/css"><![CDATA[
	.st0{fill-rule:evenodd;clip-rule:evenodd;}
]]></style><g><path class="st0" d="M61.44,0c16.96,0,32.33,6.88,43.44,18c11.12,11.12,18,26.48,18,43.44c0,16.97-6.88,32.33-18,43.45 c-11.12,11.12-26.48,18-43.44,18S29.11,116,18,104.88C6.88,93.77,0,78.41,0,61.44C0,44.48,6.88,29.11,18,18 C29.11,6.88,44.48,0,61.44,0L61.44,0z M59.56,57.82h9.74v7.69h-8.61c-0.11,1.81-0.44,3.44-1,4.9c-0.45,1.11-1.19,2.26-2.25,3.45 c1.19-0.26,2.22-0.39,3.08-0.39c1.1,0,2.52,0.21,4.27,0.62c2.4,0.55,4.32,0.82,5.75,0.82c1.17,0,2.19-0.1,3.06-0.3 c0.88-0.2,2.02-0.61,3.42-1.25l4.37,9.6c-2.12,1.05-3.98,1.79-5.59,2.19c-1.6,0.41-3.32,0.6-5.16,0.6c-2.02,0-4.31-0.35-6.9-1.05 c-3.4-0.93-5.5-1.47-6.32-1.62c-0.81-0.14-1.69-0.22-2.63-0.22c-2.76,0-5.81,0.96-9.14,2.89l-4.16-9.14 c4.51-3.22,6.77-6.44,6.77-9.66c0-0.18-0.02-0.66-0.07-1.45h-6.71v-7.69h4.8C45.48,55,45,53.36,44.91,52.91 c-0.13-0.68-0.2-1.52-0.2-2.53c0-2.67,0.71-5.07,2.14-7.2c1.41-2.13,3.29-3.67,5.61-4.62c2.32-0.96,5.45-1.45,9.38-1.45 c3.68,0,6.6,0.42,8.74,1.24c2.15,0.82,3.97,2.19,5.45,4.1c1.49,1.92,2.51,4.23,3.07,6.95L66.8,51.31 c-0.61-2.28-1.33-3.79-2.13-4.54c-0.8-0.75-1.71-1.12-2.73-1.12c-1.24,0-2.23,0.41-3,1.22c-0.77,0.81-1.15,1.96-1.15,3.45 c0,0.8,0.08,1.56,0.23,2.29C58.16,53.36,58.68,55.09,59.56,57.82L59.56,57.82z M61.44,17.24c24.41,0,44.2,19.79,44.2,44.19 c0,24.41-19.79,44.2-44.2,44.2c-24.41,0-44.2-19.79-44.2-44.2C17.24,37.03,37.03,17.24,61.44,17.24L61.44,17.24z M61.44,8.74 c29.11,0,52.7,23.6,52.7,52.7c0,29.11-23.6,52.7-52.7,52.7c-29.11,0-52.7-23.59-52.7-52.7C8.74,32.33,32.33,8.74,61.44,8.74 L61.44,8.74z"/></g></svg>