<svg width="32" height="32" viewBox="0 0 32 32" fill="none" xmlns="http://www.w3.org/2000/svg">
<path fill-rule="evenodd" clip-rule="evenodd" d="M18.3081 0.0206601C18.3588 0.0499795 18.4114 0.0685128 18.465 0.0739818C19.2623 0.149483 20.0364 0.32874 20.7883 0.594133C22.0715 1.04729 23.2326 1.69018 24.1332 2.72533C25.0448 3.77383 25.4194 4.98457 25.2189 6.35195C25.0549 7.46942 24.5743 8.46248 23.9084 9.37244C22.9165 10.7267 21.6572 11.8137 20.3244 12.8247C18.3652 14.3113 16.2587 15.5733 14.116 16.779C11.8619 18.0473 9.55679 19.2196 7.2535 20.3977C5.87862 21.1013 4.50729 21.8119 3.19077 22.6181C2.81486 22.8476 2.4672 23.1108 2.18377 23.4523C1.92226 23.7689 1.96193 24.0883 2.16432 24.4028C2.83092 25.4335 3.60588 26.3809 4.49278 27.2367C4.75877 27.4934 5.01983 27.7611 5.37751 28C5.34154 27.7376 5.47662 27.6116 5.62559 27.4978C5.72022 27.4246 5.82011 27.3564 5.92338 27.2957C6.77354 26.7929 7.714 26.4806 8.61401 26.0871C10.0042 25.4796 11.4269 24.9463 12.8149 24.3336C14.9626 23.3855 17.0726 22.3618 19.1242 21.2231C21.4938 19.9068 23.7768 18.4628 25.814 16.6724C27.0508 15.5861 28.1619 14.3924 28.9809 12.9613C29.5788 11.9155 29.9642 10.8029 29.9974 9.59362C30.0365 8.23613 29.6273 6.99621 28.905 5.85535C28.1684 4.69229 27.2272 3.7126 26.1255 2.8704C24.0305 1.26771 21.6992 0.253239 19.0361 0.0413204C18.8705 0.0285597 18.7028 0 18.5337 0C18.4592 0 18.384 0.0057727 18.3081 0.0206601Z" fill="white"/>
<path fill-rule="evenodd" clip-rule="evenodd" d="M16.3129 1.07737C16.386 1.10802 16.4597 1.12409 16.5336 1.1409C17.2256 1.28924 17.8984 1.48921 18.4926 1.8765C19.3817 2.45633 19.6021 3.2748 19.1461 4.2196C18.7989 4.93929 18.2764 5.53235 17.7023 6.07914C16.6788 7.05534 15.5342 7.88795 14.3495 8.66893C11.6981 10.417 8.89289 11.9059 6.05548 13.3411C4.80645 13.9725 3.55161 14.5953 2.35058 15.313C1.75504 15.6676 1.16789 16.0354 0.683473 16.5315C0.233144 16.9927 -0.0661589 17.5361 0.0125647 18.1799C0.175973 19.524 0.488728 20.8387 1.01121 22.0983C1.13869 22.4061 1.26252 22.7178 1.45848 23C1.48019 22.6502 1.66041 22.3972 1.90315 22.1736C2.39124 21.7214 2.96386 21.389 3.54091 21.0589C5.45565 19.9664 7.432 18.9882 9.40039 17.9925C11.5987 16.8807 13.7912 15.7561 15.8964 14.4802C17.9184 13.2548 19.8814 11.9492 21.5677 10.291C22.2083 9.66045 22.7986 8.9915 23.2533 8.21811C23.7051 7.45111 24.0049 6.63383 23.9999 5.74199C23.995 4.62519 23.514 3.69573 22.6985 2.93482C21.9376 2.22437 21.0202 1.76938 20.0223 1.45365C19.1856 1.1897 18.3237 1.06695 17.4511 1.01607C17.3036 1.00714 17.1553 1 17.0073 1C16.7745 1 16.5427 1.01756 16.3129 1.07737Z" fill="white"/>
<path fill-rule="evenodd" clip-rule="evenodd" d="M29.4753 7.26962C30.0306 8.2881 30.3881 9.36853 30.4503 10.5321C30.534 12.1095 30.0861 13.5505 29.2997 14.8963C28.4206 16.4003 27.236 17.6403 25.9315 18.7652C24.2532 20.2118 22.4017 21.4123 20.4864 22.5132C18.1819 23.8392 15.7714 24.9479 13.3481 26.0333C11.8597 26.7002 10.317 27.2324 8.81935 27.8795C8.2815 28.1124 7.72415 28.3093 7.24448 28.6599C6.91235 28.9034 6.92015 29.0461 7.25857 29.2642C8.26126 29.912 9.31658 30.4526 10.4322 30.878C10.7517 30.9994 11.0284 31.0652 11.3717 30.9056C11.9228 30.6501 12.5401 30.583 13.118 30.3941C14.4576 29.9557 15.8113 29.5627 17.1483 29.116C19.0258 28.4878 20.8493 27.7263 22.6189 26.8399C24.5721 25.8618 26.4251 24.7227 28.0591 23.252C29.3321 22.1059 30.4153 20.8117 31.1407 19.2429C31.7137 18.0058 32.0437 16.7086 31.9953 15.3338C31.9482 14.0332 31.7741 12.7524 31.4223 11.4947C31.0458 10.1496 30.5102 8.87587 29.8094 7.67246C29.6796 7.4488 29.5546 7.21883 29.3656 7C29.3712 7.12569 29.433 7.19351 29.4753 7.26962Z" fill="white"/>
<path fill-rule="evenodd" clip-rule="evenodd" d="M13.637 1C13.5729 1 13.5097 1 13.4454 1.00057C13.4102 1.00057 13.3748 1.00525 13.3396 1.00852C12.0012 1.12294 10.7526 1.51248 9.55371 2.05293C7.27062 3.08131 5.33731 4.52463 3.7204 6.32272C2.01257 8.21989 0.833572 10.3658 0.283987 12.7909C0.128326 13.4769 0.0281918 14.169 0.00450418 14.8702C0.00311986 14.9134 -0.0164147 14.9698 0.0383438 14.9939C0.0946409 15.0185 0.124788 14.9626 0.160012 14.9346C1.52051 13.8643 3.05052 13.0256 4.58761 12.2012C6.62091 11.1102 8.67881 10.0593 10.7121 8.96974C12.6358 7.9381 14.5526 6.89241 16.2531 5.55215C16.8186 5.10682 17.3573 4.62954 17.7217 4.01598C18.0344 3.49015 18.1439 2.95965 17.7296 2.43112C17.6 2.2663 17.4445 2.11937 17.2606 2.00708C16.2208 1.37095 15.0747 1.03648 13.8288 1H13.637Z" fill="white"/>
<path fill-rule="evenodd" clip-rule="evenodd" d="M31.8601 20.2436C31.5885 20.9781 31.2184 21.6673 30.7612 22.3133C29.5742 23.9933 27.9932 25.2838 26.2246 26.3845C24.5053 27.4523 22.6639 28.2967 20.7584 29.0194C18.9236 29.7162 17.0459 30.2941 15.1353 30.7742C14.3177 30.9804 13.5153 31.2414 12.6852 31.4067C12.4569 31.4517 12.2207 31.4727 12 31.557C12.0256 31.6224 12.0736 31.6243 12.1141 31.632C13.5647 31.9049 15.0191 32.0991 16.5073 31.9461C18.3531 31.7553 20.1407 31.3411 21.8683 30.7027C24.4914 29.735 26.8186 28.3593 28.6349 26.2806C30.1225 24.5786 31.2051 22.678 31.8425 20.5521C31.8933 20.3857 31.9388 20.2172 32 20C31.894 20.0961 31.8858 20.1748 31.8601 20.2436Z" fill="white"/>
</svg>
