<svg width="32" height="32" viewBox="0 0 32 32" fill="none" xmlns="http://www.w3.org/2000/svg">
<path d="M31.5 16C31.5 24.5603 24.5603 31.5 16 31.5C7.43964 31.5 0.5 24.5603 0.5 16C0.5 7.43964 7.43964 0.5 16 0.5C24.5603 0.5 31.5 7.43964 31.5 16Z" stroke="white"/>
<path d="M19.9012 6L17.8197 8.08306C17.2909 7.7069 16.684 7.45481 16.0443 7.34555C15.4046 7.2363 14.7484 7.27268 14.1247 7.45201C13.501 7.63133 12.9258 7.94897 12.4418 8.3813C11.9578 8.81364 11.5775 9.34954 11.3292 9.94914C11.0808 10.5487 10.9709 11.1966 11.0076 11.8446C11.0442 12.4925 11.2265 13.1238 11.5408 13.6916C11.8551 14.2594 12.2935 14.749 12.8231 15.124C13.3528 15.499 13.9602 15.7498 14.6001 15.8576V17.4207C13.5321 17.6011 12.5708 18.1762 11.9068 19.032C11.2428 19.8879 10.9246 20.9619 11.0151 22.0413C11.1057 23.1207 11.5984 24.1266 12.3957 24.8599C13.193 25.5931 14.2367 26 15.3199 26C16.4031 26 17.4467 25.5931 18.244 24.8599C19.0413 24.1266 19.5341 23.1207 19.6246 22.0413C19.7152 20.9619 19.3969 19.8879 18.7329 19.032C18.0689 18.1762 17.1076 17.6011 16.0396 17.4207V15.8546C16.7608 15.7335 17.4393 15.431 18.0115 14.9756C18.5837 14.5202 19.0307 13.9268 19.3105 13.2512C19.5904 12.5756 19.6939 11.84 19.6114 11.1134C19.5288 10.3868 19.2629 9.69307 18.8386 9.09746L20.9187 7.01741L19.9012 6ZM18.1995 21.6757C18.1995 22.2451 18.0307 22.8017 17.7143 23.2751C17.398 23.7486 16.9484 24.1176 16.4223 24.3355C15.8963 24.5534 15.3174 24.6104 14.759 24.4993C14.2005 24.3882 13.6876 24.114 13.2849 23.7114C12.8823 23.3088 12.6081 22.7958 12.497 22.2373C12.386 21.6789 12.443 21.1 12.6609 20.574C12.8788 20.0479 13.2478 19.5983 13.7212 19.282C14.1946 18.9656 14.7512 18.7968 15.3206 18.7968C16.0837 18.7976 16.8152 19.101 17.3549 19.6404C17.8946 20.1798 18.1983 20.9112 18.1995 21.6742V21.6757ZM15.3206 14.4784C14.7512 14.4784 14.1946 14.3096 13.7212 13.9933C13.2478 13.6769 12.8788 13.2273 12.6609 12.7013C12.443 12.1752 12.386 11.5963 12.497 11.0379C12.6081 10.4794 12.8823 9.96647 13.2849 9.56385C13.6876 9.16123 14.2005 8.88704 14.759 8.77596C15.3174 8.66487 15.8963 8.72189 16.4223 8.93978C16.9484 9.15768 17.398 9.52668 17.7143 10.0001C18.0307 10.4735 18.1995 11.0301 18.1995 11.5995C18.1983 12.3626 17.8946 13.094 17.3549 13.6334C16.8152 14.1728 16.0837 14.4761 15.3206 14.4769V14.4784Z" fill="white"/>
</svg>
