<svg width="32" height="32" viewBox="0 0 32 32" xmlns="http://www.w3.org/2000/svg"><path d="M16 32C7.163 32 0 24.837 0 16S7.163 0 16 0s16 7.163 16 16-7.163 16-16 16zM12.328 4.598c-.676.212-1.324.502-1.95.826-.48.265-.955.546-1.394.876a12.04 12.04 0 0 0-4.354 5.935 12.31 12.31 0 0 0-.543 2.506c-.046.576-.09 1.156-.05 1.733.032 1.203.28 2.39.67 3.525a12.033 12.033 0 0 0 7.618 7.4c.873.27 1.77.47 2.684.532.2.035.408.013.61.04 1.22.035 2.444-.108 3.62-.445.7-.184 1.38-.455 2.032-.773a12.032 12.032 0 0 0 5.41-5.336 11.86 11.86 0 0 0 .78-1.942c.24-.81.414-1.642.474-2.484.034-.202.012-.408.04-.61.006-.256.01-.509 0-.761-.028-.203-.006-.409-.04-.611-.066-.935-.275-1.858-.555-2.75a12.998 12.998 0 0 0-.804-1.882 12.16 12.16 0 0 0-.876-1.393 12.035 12.035 0 0 0-5.745-4.295c-1.415-.483-2.92-.726-4.416-.658-1.091.034-2.173.24-3.21.567zm2.31 4.33c.452-.003.907 0 1.359 0a973.586 973.586 0 0 0 0 4.267c-.43-.452-.863-.901-1.294-1.353-.025-.034-.071-.062-.065-.112V8.928zm-5.91 1.45c1.197 0 2.397 0 3.594.002 1.225 1.278 2.456 2.556 3.678 3.84 1.225-1.28 2.453-2.559 3.678-3.84 1.197-.006 2.394-.003 3.594-.003-.11.075-.187.18-.28.271-1.569 1.58-3.13 3.167-4.698 4.747-.206.197-.393.406-.592.605.823.85 1.667 1.683 2.496 2.528.854.87 1.718 1.736 2.575 2.602.171.16.315.343.499.49-1.197-.003-2.394.003-3.591-.006-1.225-1.282-2.453-2.563-3.678-3.844-1.222 1.285-2.453 2.562-3.678 3.844-1.2.009-2.4.006-3.597.006.019-.013.05-.038.066-.05.81-.82 1.624-1.64 2.437-2.46 1.016-1.044 2.054-2.069 3.073-3.113-.841-.854-1.689-1.705-2.534-2.56-.922-.94-1.851-1.872-2.777-2.807-.087-.085-.162-.184-.265-.253zm7.278 8.415c.2.23.421.436.627.66.227.25.47.484.701.733a.092.092 0 0 1 .031.081v2.805c-.452 0-.907-.003-1.362 0 .006-1.427.003-2.852.003-4.28z" fill="#FFF"/></svg>