<svg xmlns="http://www.w3.org/2000/svg" width="32" height="32"><path fill="#FFF" fill-rule="evenodd" d="M16 32C7.163 32 0 24.837 0 16S7.163 0 16 0s16 7.163 16 16-7.163 16-16 16zm8.777-21.5l-.798.81c.635 1.011.834 2.28.4 3.494-.726 2.06-2.975 3.146-5.024 2.41-.29-.11-.562-.24-.798-.405L16 19.403l-2.23-2.28a4.024 4.024 0 01-3.61.459 4.09 4.09 0 01-2.43-5.224c.11-.331.273-.626.454-.901l-.961-.975-.182.312a10.735 10.735 0 00-1.54 5.537C5.48 22.2 10.196 27 15.98 27H16c5.785 0 10.482-4.764 10.5-10.632 0-1.95-.526-3.863-1.523-5.537l-.2-.331zM9.363 12.652a2.225 2.225 0 00-.435 1.325c0 1.195.96 2.17 2.14 2.17.489 0 .942-.165 1.305-.46l-3.01-3.035zm10.5 2.851c.344.24.743.368 1.197.368 1.178 0 2.14-.975 2.14-2.17 0-.442-.127-.865-.363-1.214l-2.974 3.016zm-3.827 2.281l8.56-8.645-.327-.368A11.184 11.184 0 0015.927 5h-.018c-3.137 0-6.057 1.288-8.197 3.587l-.344.368 8.668 8.83zm-7.254-8.83a10.082 10.082 0 017.145-2.924h.019c2.72 0 5.331 1.122 7.253 3.072l-7.163 7.23-7.254-7.377z"/></svg>