<svg height="32" viewBox="0 0 32 32" width="32" xmlns="http://www.w3.org/2000/svg"><path d="m16 32c-8.836556 0-16-7.163444-16-16s7.163444-16 16-16 16 7.163444 16 16-7.163444 16-16 16zm.0527013-27h-.1095097c-.0635704.04939-.1224866.107085-.1914778.14707-2.984578 1.72997-5.9691013 3.460105-8.95767646 5.18309-.20390711.117535-.28976273.242385-.28921518.49104.00761092 3.46434.00427088 6.92868-.00481843 10.39302-.00054755.209935.0590805.329395.24179747.434555 2.15881997 1.242945 4.3141904 2.49194 6.4681372 3.74341.9139134.53097 1.8223513 1.071565 2.7332532 1.607815h.1095097c.0432016-.031845.0838297-.0682.1299333-.094985 3.0152955-1.74889 6.0307553-3.497615 9.0475293-5.243975.1659619-.09603.2705985-.190795.2698319-.41866-.0114985-3.492005-.0128126-6.984065-.0079394-10.476125.0002737-.20504-.0735906-.31229-.2405929-.408595-2.5377236-1.4641-5.0736403-2.93139-7.6076954-4.40187-.5350097-.310475-1.0609849-.63679-1.5910668-.95579zm2.8062086 17.4795665c-.064775-.04433-.1951463-.06325-.2584429-.027775-.6766058.37862-1.3458745.770385-2.0165668 1.15962-.0288011.016775-.0514696.04422-.0916597.079585.4821713.3014.950873.59444 1.464145.91531-.4417622.258995-.8674265.45573-1.2308345.734415-.5058802.38797-.9457808.390445-1.4509491-.00022-.3507049-.27126-.7637756-.46112-1.1482095-.688655-.0131412-.007755-.0179048-.029865-.0476915-.082885.6326377-.377245 4.3566802-2.572075 5.5270654-3.37744 1.0714431-.73733 1.9501492-1.69554 2.4247095-2.94217.1993625-.523765.2876273-1.09065.4194771-1.63955.0179595-.07469-.0044352-.15906-.0088703-.253825-.0966424-.00528-.1767487-.013475-.2568003-.01353-2.0074228-.000935-4.0147908-.00242-6.0222136.002585-.0975732.000275-.2453018.02816-.2848896.094325-.4356296.728145-.8544496 1.466465-1.3048631 2.249005h4.425507c.0101844.0231.0203688.0462.0305532.069245-.1833192.15433-.3510881.33374-.5523123.45881-1.185169.73656-5.4495324 3.40923-6.3815149 4.03249-.1454837.097295-.2402096.100595-.3847625.01606-1.2992233-.76054-2.60102019-1.51657-3.90664989-2.26589-.14876896-.08536-.19273712-.183535-.19246334-.34859.00514695-3.097985.00607779-6.19586.00136887-9.29379-.00027378-.167255.04708918-.26488.1920253-.34804 1.31406195-.753665 2.62653596-1.510245 3.93353456-2.27612.1620197-.094985.258662-.08327.4031053.03223.3274888.26191.6728278.501985 1.0186595.73964.0607231.041745.1808005.066715.2365957.03465.7026144-.403535 1.3983845-.81895 2.1330852-1.253285-.4781194-.300575-.9354868-.588115-1.438465-.904255.3029587-.17842.566001-.33418.8299742-.488455.2993449-.17501.5945283-.35827.9023054-.51689.0887029-.04576.2385122-.0627.3196042-.018095.5595946.30767 1.1086217.634865 1.6601126.957385.0209711.012265.0324697.040865.0719479.09295-.4645402.284295-3.9753673 2.367805-5.2340173 3.191595-.9688325.634095-1.7692939 1.464595-2.3606464 2.481215-1.26160678 2.169035-.90920448 5.14184.8204469 6.95497.6087645.638165 1.2703128 1.208955 2.0138291 1.68102.0762735.0484.2153508.0847.281659.047685.6933608-.38621 1.3779061-.788535 2.0643131-1.18734.014072-.008195.0216829-.027775.0361382-.04719-.5209378-.3355-1.0487199-.659395-1.5596375-1.00837-.6430959-.439285-1.2416213-.93269-1.6910492-1.58257-.9061382-1.31021-.8095507-2.98056.2270136-4.18539.7521676-.87428 1.7023287-1.487915 2.6742275-2.070695 1.2445233-.74624 4.4200316-2.68664 4.7436876-2.9392.1162993-.09075.1932299-.11583.3316502-.03476 1.3308716.779295 2.6684234 1.54704 3.9981453 2.32826.0801063.04708.1557228.181115.1559966.27489.008925 3.125375.0098011 6.250805.0028472 9.37618-.000219.0957-.071017.23375-.1505211.280445-1.3456007.790075-2.6978268 1.568765-4.0488483 2.34949-.0308818.01782-.0647203.03058-.0878268.041305-.4158632-.299365-.8196255-.59697-1.2330248-.880385zm2.893904-9.336415c-.7014098-1.244155-1.7473919-2.14236-2.916682-2.911205-.0804896-.05291-.2612354-.018645-.3617106.03674-.5588281.308-1.1073623.63481-1.6590723.95579-.1074291.06248-.2133797.127545-.3478577.20812.0807634.055935.1293858.091025.1793769.124025.593488.391655 1.2033477.760705 1.7768501 1.17986.8063749.58938 1.4895513 1.291455 1.8095934 2.279585.0185619.0572.1127951.126775.1726421.1276.6546492.00913 1.3094626.00572 1.9867255.00572-.0378356-.607805-.2951287-1.394745-.6398654-2.006235z" fill="#fff" fill-rule="evenodd"/></svg>