<svg width="32" height="35" viewBox="0 0 32 35" fill="none" xmlns="http://www.w3.org/2000/svg">
<path fill-rule="evenodd" clip-rule="evenodd" d="M32 17C32 25.8365 24.8365 33 16 33C7.16345 33 0 25.8365 0 17C0 8.16345 7.16345 1 16 1C24.8365 1 32 8.16345 32 17ZM28.9994 11.1059L29 11.1056H28.9994V11.1059ZM20.9 15.3624L28.9994 11.1059V15.9894L27.6723 16.6949V22.1765C27.6724 22.7246 27.5282 23.263 27.2542 23.7376C26.9802 24.2122 26.586 24.6063 26.1114 24.8803L15.8364 30.8124L5.54663 24.8715C5.07639 24.5999 4.68591 24.2093 4.41443 23.739C4.14295 23.2687 4.00002 22.7352 4 22.1921V10.3104L14.1414 4.45308C14.6563 4.15625 15.2403 4 15.8347 4C16.4291 4 17.013 4.15625 17.528 4.45308L27.6711 10.3097L23.6855 12.6112L17.1745 8.85182C16.7674 8.61677 16.3056 8.49303 15.8356 8.49303C15.3655 8.49303 14.9037 8.61677 14.4966 8.85182L7.98575 12.6112V19.8955C7.98558 20.4369 8.12797 20.9688 8.39859 21.4377C8.66921 21.9066 9.05852 22.296 9.52738 22.5666L15.8359 26.2105L23.6859 21.6776V18.8152L20.9 20.2982V15.3624Z" fill="white"/>
</svg>
