<svg height="32" viewBox="0 0 32 32" width="32" xmlns="http://www.w3.org/2000/svg"><path d="m15.5465385 10.2210086c-.784759-1.34931493-1.5025611-2.26759588-2.1769129-2.76410521-.8320733-.61263594-1.6846466-.61814234-2.3527352.03772141-.6352334.6236098-.6943815 1.410609-.2069922 2.15396443.1266494.19316296.2898751.38414007.48764.57241937h-2.9392463c-.78970459 0-1.3582919.6667188-1.3582919 1.3334377 0 .7752544.67914595 1.3334377 1.3582919 1.3334377h7.0178415v-1.777917h1.1319099v1.777917h7.1336648c.7897046 0 1.3582919-.6667189 1.3582919-1.3334377 0-.7752545-.6791459-1.3334377-1.3582919-1.3334377h-2.9080608c.1928317-.1978587.3476752-.40018525.462633-.60649138.412032-.73944271.2947528-1.50755897-.3289941-2.11989242-.6680885-.65586375-1.5206618-.65035735-2.3527352-.03772141-.6743518.49650933-1.3921538 1.41479028-2.1769129 2.76410521zm-1.3155102 0h-1.020243c-.715856-.40627761-1.2123831-.81280862-1.4490982-1.17384134-.2071249-.31590229-.191464-.52427877.0555845-.76680677.2409535-.2365445.4649385-.23509788.8732081.06550136.4422606.32562602.9612272.95233426 1.5405486 1.87514675zm3.4221201 0c.5793213-.92281249 1.098288-1.54952073 1.5405486-1.87514675.4082696-.30059924.6322545-.30204586.8732081-.06550136.2703878.26544028.3057253.49688179.1363322.80087879-.1962257.35215161-.6476895.7473102-1.3293947 1.13976932zm-1.6531484 21.7789914c-8.836556 0-16-7.163444-16-16s7.163444-16 16-16 16 7.163444 16 16-7.163444 16-16 16zm-.6238666-18.000918h-7.35741448v7.2227875c-.00746247.7389916.28827672 1.44985.8205887 1.9724217s1.25642028.8128994 2.00918608.8055734h4.5276397zm1.1319099 0v10.0007826h4.5276396c.7527659.007326 1.4768742-.2830017 2.0091861-.8055734.532312-.5225717.8280512-1.2334301.8205887-1.9724217v-7.2227875z" fill="#fff"/></svg>