<svg height="32" viewBox="0 0 32 32" width="32" xmlns="http://www.w3.org/2000/svg"><path d="m16 32c-8.836556 0-16-7.163444-16-16s7.163444-16 16-16 16 7.163444 16 16-7.163444 16-16 16zm9.9999965-18.8068808c.000343-.3988163-.0243413-.7972754-.073913-1.1931192h-16.15168517c-.07815619.3930821-.11746856.7926377-.11739126 1.1931192 0 3.4273166 2.84492653 6.2166293 6.34057743 6.2166293 2.7170373-.0024764 5.1315317-1.6992218 6.0067612-4.2211505h-1.9251201c-.8912943 1.7568918-2.8470467 2.7384165-4.8218536 2.4199221-1.9748069-.3184945-3.5068367-1.8625245-3.7771772-3.8067633h12.7212516c-.3173912 4.1628918-3.8739117 7.4547451-8.1990309 7.4547451-4.5333318 0-8.22173627-3.6163021-8.22173627-8.0610145-.0000848-.3993517.03011113-.7981572.09033813-1.1931192h-1.79710082c-.0495717.3958438-.074256.794303-.07391301 1.1931192 0 5.4052704 4.48695497 9.8045126 9.99999647 9.8045126s9.9999965-4.3992422 9.9999965-9.8068808z" fill="#fff" fill-rule="evenodd"/></svg>