<svg height="32" viewBox="0 0 32 32" width="32" xmlns="http://www.w3.org/2000/svg"><path d="m16 32c-8.836556 0-16-7.163444-16-16s7.163444-16 16-16 16 7.163444 16 16-7.163444 16-16 16zm-3.6716883-27.40155844c-.6763636.21194805-1.3246753.50181818-1.9511688.82597402-.48000004.26493507-.95376628.54545455-1.3932468.87584416-2.02597402 1.4587013-3.56883116 3.56883117-4.35428571 5.93454546-.26181818.8135065-.45506494 1.6550649-.54233766 2.505974-.04675325.5766234-.09038961 1.1563637-.04987013 1.732987.03116883 1.2031169.28051948 2.3906494.67012987 3.5251948.4238961 1.1781819 1.02545454 2.294026 1.78909091 3.2851948 1.46805194 1.9168832 3.52831172 3.3755845 5.82857142 4.1142858.8727273.2711688 1.7703896.4706493 2.6836364.532987.1994805.0342857.4083117.0124675.6109091.0405195 1.2187013.0342857 2.4436363-.109091 3.6187013-.4457143.7012987-.1838961 1.3807792-.455065 2.0322078-.772987 2.318961-1.1283117 4.2420779-3.0358442 5.410909-5.3361039.3085715-.6264935.5859741-1.2716884.7792208-1.9418182.24-.8103896.4145455-1.6425974.4737663-2.4841559.0342857-.2025974.0124675-.4083117.0405194-.6109091.0062338-.2555844.0093507-.5080519 0-.7605194-.0280519-.2025974-.0062337-.4083117-.0405194-.6109091-.0654546-.935065-.2742858-1.8576624-.5548052-2.7490909-.2119481-.6483117-.4924676-1.2748052-.8041559-1.8825974-.2680519-.48000004-.5454545-.95376628-.8758441-1.3932468-1.415065-1.97298701-3.4535065-3.4877922-5.7444156-4.29506493-1.415065-.48311688-2.9205195-.72623377-4.4166234-.65766234-1.0909091.03428572-2.1724675.24-3.2103896.56727273zm2.3096104 4.32935065c.451948-.00311689.907013 0 1.358961 0-.0031169 1.42129869-.0031169 2.84571429 0 4.26701299-.4301299-.4519481-.8633766-.9007792-1.2935065-1.3527273-.024935-.0342857-.0716883-.0623376-.0654545-.1122078 0-.9350649 0-1.86701296 0-2.80207789zm-5.90961041 1.44935069c1.19688312 0 2.39688311 0 3.59376621.0031168 1.2249351 1.2779221 2.4561039 2.5558442 3.6779221 3.84 1.2249351-1.2810389 2.452987-2.558961 3.6779221-3.84 1.1968831-.0062337 2.3937662-.0031168 3.5937662-.0031168-.1090909.0748052-.187013.1807792-.2805195.2711688-1.5677922 1.5802597-3.1293506 3.1667532-4.6971428 4.747013-.2057143.1963636-.3927273.4051948-.5922078.6046753.8228571.8509091 1.6675324 1.6831169 2.4966234 2.5277922.8540259.8696104 1.7174026 1.7361039 2.5745454 2.6025974.1714286.158961.3148052.3428572.4987013.4893507-1.1968831-.0031169-2.3937662.0031168-3.5906493-.0062338-1.2249351-1.281039-2.4529871-2.5620779-3.6779221-3.8431169-1.2218182 1.2841559-2.452987 2.5620779-3.6779221 3.8431169-1.2.0093506-2.39999999.0062338-3.59688311.0062338.0187013-.0124676.04987013-.0374026.06545454-.0498702.81038961-.8197402 1.62389607-1.6394805 2.43740257-2.4592207 1.0161039-1.0441559 2.054026-2.0696104 3.0732468-3.1137663-.8415585-.854026-1.6893507-1.704935-2.534026-2.558961-.9225974-.9412987-1.85142856-1.8732468-2.77714285-2.8083117-.08727272-.0841559-.16207792-.1838961-.26493506-.2524675zm7.27792211 8.4155844c.1994805.2306493.4207792.4363636.6264935.6607792.2275324.2493506.4706493.4831169.7012987.7324675.0218182.0187013.0342857.0467533.0311688.081039v2.8051948c-.451948 0-.907013-.0031169-1.3620779 0 .0062337-1.4275325.0031169-2.8519481.0031169-4.2794805z" fill="#fff"/></svg>