<?xml version="1.0" encoding="UTF-8"?>
<svg width="32px" height="32px" viewBox="0 0 32 32" version="1.1" xmlns="http://www.w3.org/2000/svg" xmlns:xlink="http://www.w3.org/1999/xlink">
    <!-- Generator: Sketch 63.1 (92452) - https://sketch.com -->
    <title>white</title>
    <desc>Created with Sketch.</desc>
    <g id="white" stroke="none" stroke-width="1" fill="none" fill-rule="evenodd">
        <path d="M16,0 C24.836556,0 32,7.163444 32,16 C32,24.836556 24.836556,32 16,32 C7.163444,32 0,24.836556 0,16 C0,7.163444 7.163444,0 16,0 Z M11.5,8.5 L9,8.5 L9,23.5 L11.5,23.5 L11.5,18.8 L20.5,18.8 L20.5,23.5 L23,23.5 L23,8.5 L20.5,8.5 L20.5,13.3 L11.5,13.3 L11.5,8.5 Z M20.5,15 L20.5,17.3 L11.5,17.3 L11.5,15 L20.5,15 Z" id="Oval" fill="#FFFFFF" fill-rule="nonzero"></path>
    </g>
</svg>