<svg width="32" height="32" viewBox="0 0 32 32" fill="none" xmlns="http://www.w3.org/2000/svg">
<g clip-path="url(#clip0)">
<path fill-rule="evenodd" clip-rule="evenodd" d="M27.5731 4.96231C29.0219 6.48484 30.1561 8.27831 30.9105 10.2399V10.254C31.7149 12.3294 32.0754 14.5503 31.9689 16.7736C31.9061 18.1791 31.6545 19.5698 31.221 20.9083C30.4895 23.1769 29.26 25.2533 27.6225 26.9855C25.985 28.7176 23.9809 30.0617 21.7569 30.9194C19.5329 31.7771 17.1453 32.1266 14.7687 31.9425C12.3922 31.7583 10.0869 31.0451 8.02159 29.855C6.79782 29.1623 5.67289 28.3079 4.67716 27.3149C2.94926 25.584 1.64111 23.4801 0.85319 21.1647C0.0652664 18.8494 -0.181463 16.3842 0.131954 13.9586C0.445372 11.5331 1.3106 9.21159 2.66116 7.17256C4.01173 5.13354 5.8117 3.43121 7.92281 2.19635C8.65792 1.76275 9.4272 1.38991 10.223 1.08153C12.1824 0.321336 14.2726 -0.0447316 16.3737 0.0043098C18.4748 0.0533512 20.5457 0.516537 22.4675 1.36732C24.3893 2.21811 26.1243 3.43977 27.5731 4.96231ZM21.923 13.836L22.0441 13.8014L21.9915 19.7395C21.9799 19.7285 21.9665 19.7192 21.9518 19.7118L19.7981 18.635C19.7166 18.5942 19.6237 18.6268 19.5805 18.697C18.5837 20.3189 17.5161 20.6148 17.1203 20.6679V12.4187C17.9586 12.5516 18.5564 13.0031 18.9543 13.4414C19.3816 13.9122 19.571 14.3603 19.5693 14.3561C19.5727 14.3642 19.5802 14.3801 19.5942 14.3972C19.6092 14.4154 19.6352 14.4388 19.6744 14.4508C19.714 14.4628 19.7489 14.4577 19.7715 14.4508L19.7744 14.4499L21.923 13.836ZM22.0371 23.2839L21.8704 23.2757L21.871 23.2757L22.0371 23.2839ZM21.7102 22.8583C21.7102 22.9992 21.7102 23.1322 21.7039 23.2631C21.6692 23.6019 21.5112 23.8078 21.3595 23.9055L21.3527 23.9099L21.3464 23.9149C21.2469 23.9936 21.0671 24.0653 20.7912 24.1152C20.5194 24.1644 20.1722 24.1894 19.7542 24.1882C19.6518 24.188 19.5561 24.2686 19.5561 24.3849V25.5543C19.5561 25.6635 19.6446 25.752 19.7538 25.752H26.8009C26.9101 25.752 26.9986 25.6635 26.9986 25.5543V24.3541C26.9986 24.291 26.9685 24.2426 26.9378 24.2131C26.9073 24.1838 26.8662 24.1628 26.8197 24.1575C26.3451 24.1038 26.0269 23.9952 25.8413 23.8613C25.7053 23.7644 25.61 23.6363 25.5578 23.474L25.5568 23.4708L25.5556 23.4676C25.5319 23.403 25.5146 23.3088 25.5041 23.1755C25.4938 23.0437 25.4907 22.8839 25.4907 22.6923V20.1996V16.7837V15.922V15.5528V15.1834V14.3218V11.2444V10.1365C25.4907 9.74133 25.5009 9.53348 25.5543 9.39741L25.5562 9.3926L25.5578 9.38769C25.6098 9.2265 25.7041 9.09896 25.84 9.00113C26.0269 8.86975 26.3518 8.75511 26.8197 8.70212C26.8662 8.69686 26.9073 8.67577 26.9378 8.6465C26.9685 8.617 26.9986 8.56857 26.9986 8.50548V7.30529C26.9986 7.19611 26.9101 7.1076 26.8009 7.1076H20.2769C20.2521 7.1076 20.193 7.11087 20.1417 7.15191C20.1099 7.1773 20.0757 7.22289 20.0737 7.28683C20.0719 7.34492 20.0978 7.38698 20.1154 7.40907L21.3191 8.92552L21.3209 8.92768L21.3226 8.92977C21.4385 9.06625 21.5358 9.18753 21.6053 9.3465C21.6739 9.50338 21.7195 9.70738 21.7103 10.0083L21.7102 10.0109V10.0134V11.275V12.8572C21.262 12.0088 20.5943 11.3454 19.8181 10.8335L19.8171 10.8328L19.8157 10.8319L19.8126 10.83L19.8015 10.823C19.792 10.817 19.7781 10.8085 19.7601 10.7976C19.724 10.776 19.6714 10.7452 19.6033 10.7077C19.467 10.6328 19.269 10.5312 19.0193 10.4228C18.5492 10.2187 17.8935 9.98929 17.1203 9.869V8.70318H18.2138C18.3589 8.70318 18.4354 8.53117 18.3381 8.42344L16.5626 6.45776L16.5596 6.45448L16.5565 6.45136L16.1522 6.04876C16.0869 5.9837 15.9813 5.98369 15.9159 6.04872L15.5113 6.45132L15.5093 6.45334L15.5074 6.45542L13.6627 8.42109C13.5624 8.52802 13.6382 8.70318 13.7849 8.70318H15.0015V9.85857C13.4614 9.99594 12.2556 10.7467 11.4298 11.4706C10.9769 11.8676 10.6353 12.2591 10.4122 12.5427L10.4139 11.2569V10.0185V10.0159L10.4138 10.0133C10.4043 9.70638 10.4389 9.49243 10.498 9.32736C10.5568 9.16341 10.6434 9.03731 10.7541 8.90899L10.7561 8.90658L10.7581 8.90409L11.9746 7.37953C12.0622 7.26984 11.984 7.1076 11.8437 7.1076H5.16749C5.07502 7.1076 5.00001 7.18256 5.00001 7.27508V8.53576C5.00001 8.62307 5.06632 8.69347 5.14989 8.7023C5.65291 8.75546 5.97595 8.84911 6.16625 8.98461L6.16733 8.98537C6.306 9.08247 6.40186 9.21014 6.45458 9.37216L6.4557 9.3756L6.45696 9.37898C6.51033 9.52167 6.54389 9.75723 6.53872 10.1342L6.5387 10.1354V10.1365V11.2444V14.291V15.1834V15.5528V15.9528V16.8145V20.1996V22.6923V22.6935L6.53872 22.6946C6.54396 23.0767 6.51373 23.3389 6.45831 23.4776L6.45631 23.4826L6.45464 23.4877C6.40195 23.649 6.30605 23.7768 6.16718 23.8743C5.97643 24.0067 5.64698 24.1035 5.14948 24.1574C5.06598 24.1664 5.00001 24.2368 5.00001 24.3238V25.5845C5.00001 25.677 5.07498 25.752 5.16749 25.752H12.3367C12.4292 25.752 12.5042 25.6771 12.5042 25.5845V24.3547C12.5042 24.2593 12.426 24.1867 12.3357 24.1872C11.9021 24.1898 11.5552 24.1659 11.2861 24.1173C11.0147 24.0683 10.8369 23.9966 10.729 23.9142L10.7231 23.9097L10.7168 23.9057C10.5784 23.8182 10.4662 23.6266 10.4291 23.2613L10.4283 23.2506C10.4192 23.1207 10.4083 22.9658 10.4107 22.8462H10.4115V22.8451V22.8441V22.8431V22.8421V22.841V22.84V22.839V22.838V22.837V22.836V22.835V22.834V22.8329V22.8319V22.8309V22.8299V22.8289V22.8279V22.8268V22.8258V22.8248V22.8238V22.8228V22.8208V22.8197V22.8187V22.8177V22.8167V22.8154V21.3292C11.9368 23.4722 14.3278 23.5874 15.0015 23.5746V24.2612C15.0015 24.3537 15.0765 24.4287 15.169 24.4287H16.9528C17.0453 24.4287 17.1203 24.3538 17.1203 24.2612V23.5394C17.5152 23.4924 18.597 23.3206 19.5681 22.774C20.3931 22.3097 20.9827 21.6338 21.7102 20.4615V22.824V22.8251V22.8261V22.8271V22.8281V22.8291V22.8301V22.8311V22.8321V22.8332V22.8342V22.8352V22.8362V22.8372V22.8382V22.8392V22.8402V22.8412V22.8422V22.8432V22.8442V22.8452V22.8462V22.8472V22.8482V22.8583ZM10.0777 13.0546L10.0777 13.0536L10.0777 13.0579L10.0778 13.0657L10.0777 13.0579L10.0777 13.0546ZM17.1181 20.8718C17.1187 20.8681 17.1193 20.864 17.1196 20.8595C17.1188 20.8707 17.117 20.8782 17.1165 20.8804L17.1164 20.8809L17.1161 20.8823C17.1168 20.8793 17.1175 20.8758 17.1181 20.8718ZM19.815 14.4304L19.8116 14.4326L19.8169 14.4291L19.815 14.4304ZM15.0015 20.634V12.4338C14.5881 12.5508 13.8624 12.86 13.2056 13.4281C12.4525 14.0796 11.7964 15.065 11.7964 16.4914C11.7964 18.1943 12.5493 19.2089 13.3438 19.8161C13.9885 20.3089 14.6623 20.5351 15.0015 20.634ZM15.3288 23.4469L15.3288 23.4471L15.3283 23.4488L15.3298 23.4434C15.331 23.439 15.3345 23.4254 15.3353 23.4075C15.3345 23.4268 15.3304 23.4413 15.3288 23.4469ZM16.7902 23.4244C16.7905 23.4259 16.7909 23.4275 16.7912 23.4289L16.7907 23.4267L16.7902 23.4244ZM16.7901 20.8105L16.7894 20.8139C16.7904 20.8086 16.7914 20.8046 16.7921 20.8021C16.7921 20.8021 16.7909 20.8066 16.7901 20.8105Z" fill="white"/>
</g>
<defs>
<clipPath id="clip0">
<rect width="32" height="32" fill="white"/>
</clipPath>
</defs>
</svg>
