<svg width="32" height="32" viewBox="0 0 32 32" fill="none" xmlns="http://www.w3.org/2000/svg">
<g clip-path="url(#clip0)">
<path fill-rule="evenodd" clip-rule="evenodd" d="M27.5731 4.96235C29.0219 6.48488 30.1561 8.27835 30.9105 10.24V10.2541C31.7149 12.3295 32.0754 14.5504 31.9689 16.7736C31.9061 18.1791 31.6545 19.5698 31.221 20.9083C30.4895 23.177 29.26 25.2533 27.6225 26.9855C25.985 28.7177 23.9809 30.0618 21.7569 30.9194C19.5329 31.7771 17.1452 32.1267 14.7687 31.9425C12.3922 31.7583 10.0869 31.0451 8.02158 29.855C6.7978 29.1623 5.67288 28.3079 4.67714 27.315C2.94925 25.584 1.6411 23.4801 0.853178 21.1648C0.0652542 18.8494 -0.181475 16.3843 0.131942 13.9587C0.44536 11.5331 1.31058 9.21163 2.66115 7.17261C4.01172 5.13358 5.81169 3.43125 7.9228 2.19639C8.65791 1.76279 9.42719 1.38995 10.223 1.08157C12.1824 0.321376 14.2726 -0.0446917 16.3737 0.00434968C18.4748 0.0533911 20.5456 0.516577 22.4675 1.36736C24.3893 2.21815 26.1243 3.43981 27.5731 4.96235ZM16.9173 8.18691V9.83481C16.9173 9.83481 20.5802 9.77715 21.8973 11.812C21.9009 11.8175 21.9096 11.8151 21.9096 11.8085V9.64661C21.9304 9.00136 21.7694 8.69912 21.5304 8.4178L20.2938 6.88173C20.2903 6.87744 20.2934 6.87107 20.2989 6.87107H26.9935C26.9971 6.87107 27 6.87401 27 6.87762V8.14078C27 8.14414 26.9974 8.14696 26.9941 8.1473C26.4933 8.19958 26.1225 8.30382 25.8949 8.4645C25.7234 8.57912 25.6092 8.74071 25.5418 8.93882C25.4744 9.1106 25.4484 9.39134 25.4535 9.7768V11.9947V13.9947V14.8641V15.2444V15.6248V16.4942V21.2427V22.4401C25.4484 22.825 25.4794 23.1063 25.5418 23.2783C25.6092 23.4756 25.7234 23.6318 25.8949 23.7515C26.1225 23.9074 26.4883 24.0164 26.9941 24.0688C26.9974 24.0691 27 24.0719 27 24.0752V25.3386C27 25.3422 26.9971 25.3451 26.9935 25.3451H19.8253C19.8216 25.3451 19.8187 25.3422 19.8187 25.3386V24.1178C19.8187 24.1142 19.8216 24.1113 19.8253 24.1113H19.881C20.7221 24.1113 21.2769 24.0071 21.5418 23.7985C21.7389 23.6683 21.8636 23.4131 21.905 23.0223C21.9208 22.8816 21.9259 22.7359 21.9208 22.6003V22.5847V22.5638V21.2308V20.3102C21.9208 20.3032 21.9112 20.301 21.9082 20.3074C21.274 21.6866 19.5002 22.9435 16.9173 23.0619L16.9142 24.013C16.9141 24.0166 16.9112 24.0195 16.9076 24.0195H15.062C15.0584 24.0195 15.0554 24.0166 15.0554 24.013L15.0585 23.1108C12.7882 23.0126 11.1125 21.5739 10.1184 20.2645C10.1108 20.2545 10.095 20.2602 10.095 20.2727V22.5592V22.5853V22.5958C10.095 22.7364 10.1001 22.877 10.1105 23.0177C10.1519 23.4077 10.2713 23.6683 10.4738 23.7934C10.7386 24.0017 11.2943 24.1059 12.1345 24.1059H12.1903C12.1939 24.1059 12.1968 24.1088 12.1968 24.1124V25.3335C12.1968 25.3371 12.1939 25.34 12.1903 25.34H5.00655C5.00293 25.34 5 25.3371 5 25.3335V24.0701C5 24.0668 5.00258 24.064 5.00591 24.0637C5.5058 24.0113 5.87751 23.9074 6.10507 23.7464C6.27656 23.6318 6.39079 23.4702 6.45821 23.2724C6.52561 23.1012 6.55156 22.8199 6.54649 22.4342V19.914V16.4933V15.6239V15.2436V14.8632V13.9939V10.8964V9.7768C6.55156 9.39191 6.52561 9.1106 6.45821 8.93882C6.39079 8.74071 6.27656 8.5845 6.10507 8.4645C5.87751 8.30889 5.51168 8.19961 5.00592 8.1473C5.00258 8.14695 5 8.14414 5 8.14078V6.87762C5 6.87401 5.00293 6.87107 5.00655 6.87107H11.7011C11.7066 6.87107 11.7097 6.87744 11.7062 6.88173L10.4695 8.4178C10.2306 8.69373 10.0696 8.99542 10.0905 9.64661V10.8964V12.114C10.0905 12.1204 10.0979 12.1246 10.1017 12.1194C10.2472 11.916 11.8158 9.83804 15.1764 9.84018V8.18691C15.1764 8.1833 15.1735 8.18036 15.1699 8.18036H13.8451C13.8393 8.18036 13.8363 8.17332 13.8405 8.16919L15.6057 6.39846L16.001 6.00192C16.0035 5.99936 16.0077 5.99936 16.0103 6.00193L16.4053 6.39846L18.1602 8.16921C18.1643 8.17334 18.1614 8.18036 18.1555 8.18036H16.9238C16.9201 8.18036 16.9173 8.1833 16.9173 8.18691ZM15.0588 20.5231C15.0589 20.5231 15.059 20.523 15.0591 20.523V17.2993C14.6631 17.2495 14.2335 17.1855 13.7664 17.0961L13.738 17.0908C12.8579 16.9252 10.8028 16.5387 10.0919 15.0417C10.0889 15.0353 10.0792 15.0372 10.0792 15.0443V17.4476V18.1814V18.6724L13.0316 18.677C13.0345 18.677 13.037 18.6789 13.0379 18.6816C13.3035 19.5598 15.0478 20.5172 15.0585 20.523C15.0587 20.5231 15.0587 20.5231 15.0588 20.5231ZM16.9173 20.7229C16.9173 20.7267 16.9205 20.7298 16.9243 20.7294C17.9491 20.6331 19.2594 20.2953 19.2639 19.0902C19.2639 17.9952 18.2426 17.5594 16.9173 17.2758V20.7229ZM14.9153 15.0144V12.1354C13.8902 12.2299 12.5686 12.5001 12.5686 13.5951C12.5686 14.5506 13.3463 14.7033 14.4251 14.9151C14.5826 14.9461 14.7464 14.9782 14.9153 15.0144ZM16.9173 14.9207C17.3191 14.9728 17.7456 15.0404 18.2158 15.1344C18.2158 15.1344 20.9228 15.5297 21.8979 17.2988C21.9012 17.3048 21.9104 17.3025 21.9104 17.2957V14.765V13.9947V13.4802C21.9104 13.4766 21.9075 13.4736 21.9039 13.4736H19.8237C19.4726 12.334 18.2337 12.2406 17.3441 12.1735C17.1919 12.162 17.0499 12.1513 16.9244 12.1362C16.9205 12.1358 16.9173 12.1388 16.9173 12.1427V14.9207Z" fill="white"/>
</g>
<defs>
<clipPath id="clip0">
<rect width="32" height="32" fill="white"/>
</clipPath>
</defs>
</svg>
