<svg width="32" height="32" viewBox="0 0 32 32" fill="none" xmlns="http://www.w3.org/2000/svg">
<path d="M15.6976 10.7195L15.3808 11.2196L15.2641 10.6445L14.6973 10.4945L15.2141 10.211L15.1808 9.62756L15.6142 10.0277L16.1644 9.81094L15.9143 10.3444L16.2894 10.7945L15.6976 10.7195ZM16.0393 15.9375C15.3642 15.5875 14.814 14.8623 14.5723 13.9954C14.2972 12.9951 14.4556 11.9282 15.0057 11.0613L14.889 10.9863C14.3222 11.8865 14.1555 13.0034 14.4389 14.037C14.689 14.954 15.2475 15.6958 15.9726 16.0709L16.0393 15.9375Z" fill="white"/>
<path d="M20.9406 14.0787L20.3738 13.9287L20.8906 13.6453L20.8573 13.0618L21.2907 13.4619L21.8408 13.2451L21.5908 13.7786L21.9659 14.2287L21.3824 14.1621L21.0656 14.6538L20.9406 14.0787ZM16.081 16.0125C16.206 15.2623 16.7228 14.5121 17.473 14.0204C18.3399 13.4535 19.4069 13.2702 20.3988 13.5202L20.4321 13.3869C19.3985 13.1285 18.2899 13.3118 17.398 13.9037C16.6061 14.4288 16.0727 15.1873 15.9393 15.9875L16.081 16.0125Z" fill="white"/>
<path d="M19.3569 20.0969L19.3235 19.5134L19.757 19.9135L20.3071 19.6968L20.057 20.2303L20.4321 20.6804L19.8487 20.6137L19.5319 21.1138L19.4152 20.5387L18.8484 20.3886L19.3569 20.0969ZM16.0227 16.0792C16.7812 15.9625 17.6481 16.2292 18.3483 16.7877C19.1568 17.4295 19.6569 18.3881 19.7236 19.4134L19.8653 19.405C19.7903 18.3381 19.2735 17.3462 18.44 16.6793C17.6981 16.0875 16.8062 15.8124 16.006 15.9375L16.0227 16.0792Z" fill="white"/>
<path d="M13.1469 20.4637L13.6971 20.247L13.447 20.7805L13.8221 21.2306L13.2386 21.1639L12.9219 21.6557L12.8052 21.0805L12.2383 20.9305L12.7551 20.6471L12.7218 20.0636L13.1469 20.4637ZM15.9393 16.0376C16.2811 16.7211 16.2977 17.6296 15.981 18.4715C15.6142 19.4384 14.8557 20.2136 13.9054 20.5971L13.9555 20.7305C14.9474 20.3303 15.7309 19.5301 16.106 18.5299C16.4394 17.638 16.4228 16.7127 16.056 15.9875L15.9393 16.0376Z" fill="white"/>
<path d="M10.888 14.6621L11.2631 15.1122L10.6796 15.0456L10.3629 15.5457L10.2462 14.9705L9.67101 14.8205L10.1878 14.5371L10.1545 13.9536L10.5879 14.3537L11.1381 14.137L10.888 14.6621ZM15.956 15.9541C15.4142 16.4959 14.5556 16.7877 13.6554 16.746C12.6218 16.696 11.6549 16.2209 10.9964 15.429L10.888 15.5207C11.5715 16.3376 12.5801 16.8377 13.647 16.8877C14.5973 16.9294 15.4725 16.6293 16.056 16.0542L15.956 15.9541Z" fill="white"/>
<path fill-rule="evenodd" clip-rule="evenodd" d="M24.2689 29.7004C25.087 29.2055 25.8573 28.6394 26.5711 28.0107L25.9873 27.1601L24.2689 29.7004ZM24.1863 29.75C21.7913 31.179 18.9915 32 16 32C7.1635 32 0 24.8365 0 16C0 7.1635 7.1635 0 16 0C24.8365 0 32 7.1635 32 16C32 20.1868 30.3918 23.998 27.7595 26.8496L26.9728 25.7032L29.3088 22.25H29.0882L26.8617 25.5414L26.6766 25.2716L28.7206 22.25H28.5L26.5655 25.1097L26.3803 24.8399L28.1324 22.25H27.9118L26.2693 24.6781L26.0841 24.4083L27.5441 22.25H27.3235L25.973 24.2464L24.6029 22.25H24.3824L25.8635 24.4083L25.681 24.6781L24.0147 22.25H23.7941L25.5715 24.8399L25.389 25.1097L23.4265 22.25H23.2059L25.2795 25.2716L25.097 25.5414L22.8382 22.25H22.6176L24.9875 25.7032L22.25 29.75H22.4706L25.0986 25.8651L25.2837 26.1349L22.8382 29.75H23.0588L25.3948 26.2968L25.58 26.5665L23.4265 29.75H23.6471L25.6911 26.7284L25.8762 26.9982L24.0147 29.75H24.1863ZM26.0968 26.9982L26.708 27.8888C26.7838 27.8204 26.859 27.7514 26.9335 27.6816L26.2793 26.7284L26.0968 26.9982ZM26.1682 26.5666L25.9857 26.8363L25.8006 26.5665L25.9831 26.2968L26.1682 26.5666ZM26.3888 26.5666L27.0671 27.555C27.1412 27.484 27.2146 27.4124 27.2873 27.34L26.5713 26.2968L26.3888 26.5666ZM26.4602 26.1349L26.2777 26.4047L26.0926 26.1349L26.2751 25.8651L26.4602 26.1349ZM26.6808 26.1349L27.4177 27.2087C27.49 27.1351 27.5616 27.0608 27.6324 26.9858L26.8633 25.8651L26.6808 26.1349ZM26.7522 25.7032L26.5697 25.973L26.3846 25.7032L26.5671 25.4335L26.7522 25.7032ZM25.9815 25.973L26.164 25.7032L25.9788 25.4335L25.7963 25.7032L25.9815 25.973ZM26.2735 25.5414L26.456 25.2716L26.2708 25.0018L26.0883 25.2716L26.2735 25.5414ZM25.6895 26.4047L25.872 26.1349L25.6868 25.8651L25.5043 26.1349L25.6895 26.4047ZM26.1598 24.8399L25.9746 24.5701L25.7921 24.8399L25.9773 25.1097L26.1598 24.8399ZM25.8678 25.2716L25.6826 25.0018L25.5001 25.2716L25.6852 25.5414L25.8678 25.2716ZM25.5757 25.7032L25.3906 25.4335L25.2081 25.7032L25.3932 25.973L25.5757 25.7032ZM18.2482 6.67677C12.8802 6.31001 10.3879 13.6202 16.006 15.9959C14.7723 15.0373 15.0808 13.1785 16.6228 12.4866C17.5564 12.0615 18.3149 10.3277 17.6231 9.24411C17.0063 8.27719 17.1646 7.23525 18.2482 6.67677ZM16.006 16.0042C16.5311 9.92764 24.2498 10.036 25.5585 15.2624C24.6916 14.4038 23.6497 14.5705 22.9245 15.4624C22.1076 16.4543 20.2238 16.271 19.5319 15.5124C18.4066 14.2538 16.5478 14.5288 16.006 16.0042ZM17.5731 19.2134C18.415 17.738 17.5731 16.0626 16.006 16.0042C21.9409 14.6205 24.2331 22.0058 19.6653 24.8648C20.2154 23.7729 19.732 22.8393 18.665 22.4225C17.4647 21.9558 17.0563 20.1053 17.5731 19.2134ZM16.006 16.0126C19.1568 21.2306 12.8385 25.6901 8.71243 22.2309C9.92108 22.4142 10.6629 21.664 10.7213 20.5221C10.7963 19.2384 12.4301 18.2798 13.4387 18.4882C15.0974 18.83 16.4394 17.513 16.006 16.0126ZM7.82887 10.9862C5.82001 15.9875 12.005 20.6137 15.9977 16.0042C14.7057 16.8794 13.0386 16.0125 12.8552 14.3287C12.7385 13.3035 11.3214 12.0448 10.0795 12.3699C8.96249 12.6616 8.02058 12.1949 7.82887 10.9862Z" fill="white"/>
<path fill-rule="evenodd" clip-rule="evenodd" d="M32 26C32 29.3137 29.3137 32 26 32C22.6863 32 20 29.3137 20 26C20 22.6863 22.6863 20 26 20C29.3137 20 32 22.6863 32 26ZM22.8382 22.25H22.6176L24.9875 25.7032L22.25 29.75H22.4706L25.0986 25.8651L25.2837 26.1349L22.8382 29.75H23.0588L25.3948 26.2968L25.58 26.5665L23.4265 29.75H23.6471L25.6911 26.7284L25.8762 26.9982L24.0147 29.75H24.2353L25.9873 27.1601L27.7647 29.75H27.9853L26.0968 26.9982L26.2793 26.7284L28.3529 29.75H28.5735L26.3888 26.5666L26.5713 26.2968L28.9412 29.75H29.1618L26.6808 26.1349L26.8633 25.8651L29.5294 29.75H29.75L26.9728 25.7032L29.3088 22.25H29.0882L26.8617 25.5414L26.6766 25.2716L28.7206 22.25H28.5L26.5655 25.1097L26.3803 24.8399L28.1324 22.25H27.9118L26.2693 24.6781L26.0841 24.4083L27.5441 22.25H27.3235L25.973 24.2464L24.6029 22.25H24.3824L25.8635 24.4083L25.681 24.6781L24.0147 22.25H23.7941L25.5715 24.8399L25.389 25.1097L23.4265 22.25H23.2059L25.2795 25.2716L25.097 25.5414L22.8382 22.25ZM26.7522 25.7032L26.5671 25.4335L26.3846 25.7032L26.5697 25.973L26.7522 25.7032ZM26.4602 26.1349L26.2751 25.8651L26.0926 26.1349L26.2777 26.4047L26.4602 26.1349ZM26.1682 26.5666L25.9831 26.2968L25.8006 26.5665L25.9857 26.8363L26.1682 26.5666ZM25.872 26.1349L25.6895 26.4047L25.5043 26.1349L25.6868 25.8651L25.872 26.1349ZM26.164 25.7032L25.9815 25.973L25.7963 25.7032L25.9788 25.4335L26.164 25.7032ZM26.456 25.2716L26.2735 25.5414L26.0883 25.2716L26.2708 25.0018L26.456 25.2716ZM26.1598 24.8399L25.9746 24.5701L25.7921 24.8399L25.9773 25.1097L26.1598 24.8399ZM25.8678 25.2716L25.6826 25.0018L25.5001 25.2716L25.6852 25.5414L25.8678 25.2716ZM25.5757 25.7032L25.3906 25.4335L25.2081 25.7032L25.3932 25.973L25.5757 25.7032Z" fill="white"/>
</svg>
