<svg width="32" height="32" viewBox="0 0 32 32" fill="none" xmlns="http://www.w3.org/2000/svg">
<path fill-rule="evenodd" clip-rule="evenodd" d="M16 32C24.8365 32 32 24.8365 32 16C32 7.1635 24.8365 0 16 0C7.1635 0 0 7.1635 0 16C0 24.8365 7.1635 32 16 32ZM19.5114 7.03736C19.9062 7.17271 20.3123 7.30806 20.7183 7.44341C21.0454 7.5562 21.2935 7.91713 21.3274 8.35701C21.3838 9.10143 21.443 9.84303 21.5022 10.5846C21.5614 11.3262 21.6206 12.0678 21.677 12.8122C21.7109 13.2183 21.5304 13.6131 21.2033 13.7822C20.4927 14.1545 20.5604 15.3839 21.3387 15.6546C21.6996 15.7786 21.9477 16.1283 21.9816 16.5456C22.162 18.824 22.3425 21.0911 22.523 23.3582C22.5568 23.7981 22.3087 24.2041 21.9139 24.362C21.4289 24.5537 20.9326 24.7455 20.4363 24.9372C19.816 25.1628 19.1505 24.7117 19.128 24.0349C19.0941 23.0142 19.0575 21.9936 19.0208 20.9729C18.9842 19.9521 18.9475 18.9312 18.9137 17.9104C18.8911 17.4931 18.6542 17.1321 18.3046 16.9968C17.6166 16.7261 16.9285 16.4441 16.2631 16.1621C15.5863 16.4554 14.9096 16.7261 14.2216 16.9968C13.8719 17.1321 13.6238 17.4931 13.6125 17.9104C13.5787 18.9311 13.542 19.9518 13.5054 20.9725C13.4687 21.9933 13.432 23.0141 13.3982 24.0349C13.3756 24.7117 12.7102 25.1741 12.0898 24.9372C11.5935 24.7455 11.0973 24.5537 10.6123 24.362C10.2062 24.2041 9.96936 23.7981 10.0032 23.3582C10.1837 21.0798 10.3641 18.8127 10.5446 16.5456C10.5784 16.1283 10.8378 15.7786 11.1875 15.6546C11.9658 15.3726 12.0334 14.1545 11.3228 13.7822C11.007 13.6131 10.8153 13.2296 10.8491 12.8122C10.9055 12.0678 10.9647 11.3262 11.024 10.5846C11.0832 9.84303 11.1424 9.10143 11.1988 8.35701C11.2326 7.91713 11.4808 7.5562 11.8078 7.44341C12.0658 7.36458 12.3193 7.27665 12.5739 7.18829C12.7201 7.13757 12.8666 7.08672 13.0147 7.03736C13.511 6.8569 13.996 7.35318 13.9734 8.02992C13.9509 8.65591 13.9283 9.28472 13.9058 9.91353C13.8832 10.5423 13.8606 11.1711 13.8381 11.7971C13.8268 12.2032 14.0185 12.5867 14.3456 12.7446C14.9773 13.0491 15.6202 13.3536 16.2631 13.6356C16.906 13.3424 17.5489 13.0491 18.1805 12.7446C18.4963 12.5979 18.6994 12.2145 18.6881 11.7971C18.6655 11.1697 18.6429 10.5393 18.6202 9.90905C18.5977 9.28173 18.5752 8.65442 18.5527 8.02992C18.5302 7.36446 19.0152 6.8569 19.5114 7.03736Z" fill="white"/>
</svg>
