<svg width="32" height="32" viewBox="0 0 32 32" xmlns="http://www.w3.org/2000/svg"><path d="M16 0c8.837 0 16 7.163 16 16s-7.163 16-16 16S0 24.837 0 16 7.163 0 16 0zm9.969 13.122h-2.7l-1.635 3.04a.38.38 0 01-.182.165l-.025.01a.38.38 0 01-.114.024l-.016.002h-9.925l1.355 2.358 6.81-.01.064.007a.386.386 0 01.27.57v-.001l-3.996 7.212h1.307l.237.001h1.028c.026 0 .105 0 .166-.11l7.356-13.268zm-7.085 6.363l-2.64.003-2.345 4.246c-.042.077-.033.156-.013.188l.658 1.09.174.288.17.282.323.534 3.673-6.631zm-10.15.165H6l.909 1.505.427.707c.036.06.115.106.18.106h2.516L8.734 19.65zm1.984-2.884l-1.323 2.493 1.313 2.344 1.337-2.528-1.327-2.31zM16.133 5.5H13.53c-.035.004-.096.022-.144.11l-.027.049c-.447.804-6.19 11.163-7.328 13.22h2.695l1.636-3.083a.382.382 0 01.332-.202.068.068 0 01.013-.002h9.88a156 156 0 01-.533-.935c-.279-.491-.607-1.07-.783-1.376l-6.638.01h-.174a.356.356 0 01-.087-.012l-.023-.007a.364.364 0 01-.062-.025l-.014-.006-.012-.01c-.011-.006-.022-.014-.033-.022a.312.312 0 01-.053-.05l-.013-.015-.011-.015a.272.272 0 01-.02-.03.242.242 0 01-.03-.068l-.006-.018-.005-.018a.216.216 0 01-.006-.036.302.302 0 01-.004-.042l-.002-.014.002-.019c0-.014.001-.029.004-.043l.008-.035a.416.416 0 01.027-.074l.008-.02L16.133 5.5zm5.157 4.895c-.316.579-1.07 1.97-1.357 2.494.151.263.42.735.787 1.382.186.328.384.678.544.957l1.34-2.488zm-4.497-4.502l-3.677 6.62 2.64-.003 2.343-4.244c.042-.077.033-.156.013-.188l-.654-1.084-.174-.288-.25-.416-.24-.397zm5.174 4.139l1.298 2.318H26l-.846-1.4-.49-.811a.23.23 0 00-.182-.106l-2.515-.001z" fill="#FFF" fill-rule="evenodd"/></svg>