<svg height="32" viewBox="0 0 32 32" width="32" xmlns="http://www.w3.org/2000/svg"><path d="m16 32c-8.836556 0-16-7.163444-16-16s7.163444-16 16-16 16 7.163444 16 16-7.163444 16-16 16zm2.3466667-21.4666667c0-3.51999997-1.7066667-6.50666663-2.9866667-7.46666663 0 0-.1066667-.10666667-.1066667.10666666-.1066666 6.72-3.52 8.53333337-5.3333333 11.09333337-4.37333333 5.6533333-.32 11.9466666 3.84 13.12 2.3466667.64-.5333333-1.1733334-.8533333-4.9066667-.5333334-4.6933333 5.44-8.1066667 5.44-11.9466667zm2.24 2.3466667c-.2133334.8533333-1.0666667 2.6666667-2.24 4.3733333-3.9466667 5.6533334-1.7066667 8.4266667-.4266667 9.92.7466667.8533334 0 0 1.8133333-.8533333.1066667-.1066667 3.6266667-1.92 3.9466667-6.08.4266667-4.0533333-2.1333333-6.6133333-3.0933333-7.36z" fill="#fff"/></svg>