<svg width="32" height="35" viewBox="0 0 32 35" fill="none" xmlns="http://www.w3.org/2000/svg">
<path fill-rule="evenodd" clip-rule="evenodd" d="M32 17C32 25.8365 24.8365 33 16 33C7.16345 33 0 25.8365 0 17C0 8.16345 7.16345 1 16 1C24.8365 1 32 8.16345 32 17ZM17.9734 13.2117C19.648 11.7443 21.2332 11 22.6848 11C26.1667 11 28.9996 13.7538 29 17.1396C29 17.6298 28.94 18.1064 28.8267 18.5641C28.825 18.5698 28.8227 18.5779 28.8195 18.5882C28.1458 21.2623 25.6542 23.2625 22.6911 23.2774H22.688H22.6848C20.265 23.2774 17.8302 21.0497 16.02 19.0335C15.5044 19.6296 14.8181 20.3719 14.0266 21.0656C12.352 22.533 10.7668 23.2773 9.31516 23.2773C5.83327 23.2773 3.00045 20.5235 3 17.1378C3 16.6476 3.06003 16.1709 3.17333 15.7132C3.17494 15.7076 3.17726 15.6997 3.18036 15.6896C3.8539 13.0153 6.34562 11.0148 9.30883 11H9.31199H9.31515C11.7348 11 14.1695 13.2278 15.9796 15.2444C16.4953 14.6482 17.1817 13.9057 17.9734 13.2117ZM16.0151 15.2839C16.0223 15.2919 16.0294 15.2999 16.0366 15.3079L16.0479 15.3202C16.0982 15.3748 16.2268 15.5141 16.4093 15.7108C16.2159 15.502 16.0757 15.3497 16.0151 15.2839ZM17.6931 17.0801C18.4423 17.8705 19.2709 18.7265 19.7816 19.1987C20.0762 19.4709 21.1847 20.3261 22.5028 20.8185C22.5707 20.827 22.6304 20.8305 22.6821 20.8305C24.772 20.8178 26.4714 19.1631 26.4714 17.1391C26.4714 15.1039 24.7729 13.4478 22.6848 13.4478C22.1315 13.4478 21.1592 13.7213 19.6706 15.0262C18.8708 15.7268 18.1751 16.5075 17.6931 17.0801ZM9.55169 13.4665C9.46079 13.4524 9.383 13.4469 9.31787 13.4469C7.22801 13.4595 5.52859 15.1143 5.52859 17.1382C5.52859 19.1735 7.22711 20.8295 9.31516 20.8295C9.86855 20.8295 10.8408 20.556 12.3294 19.2511C13.1291 18.5506 13.8248 17.77 14.3067 17.1974C13.5575 16.4071 12.729 15.5512 12.2184 15.0791C11.9287 14.8111 10.8455 13.9683 9.55169 13.4665Z" fill="white"/>
</svg>
