<svg width="32" height="32" viewBox="0 0 32 32" fill="none" xmlns="http://www.w3.org/2000/svg">
<g clip-path="url(#clip0)">
<path fill-rule="evenodd" clip-rule="evenodd" d="M27.5731 4.96235C29.0219 6.48488 30.1561 8.27835 30.9105 10.24V10.2541C31.7149 12.3295 32.0754 14.5504 31.9689 16.7736C31.9061 18.1791 31.6545 19.5698 31.221 20.9083C30.4895 23.177 29.26 25.2533 27.6225 26.9855C25.985 28.7177 23.9809 30.0618 21.7569 30.9194C19.5329 31.7771 17.1452 32.1267 14.7687 31.9425C12.3922 31.7583 10.0869 31.0451 8.02158 29.855C6.7978 29.1623 5.67288 28.3079 4.67714 27.315C2.94925 25.584 1.6411 23.4801 0.853178 21.1648C0.0652542 18.8494 -0.181475 16.3843 0.131942 13.9587C0.44536 11.5331 1.31058 9.21163 2.66115 7.17261C4.01172 5.13358 5.81169 3.43125 7.9228 2.19639C8.65791 1.76279 9.42719 1.38995 10.223 1.08157C12.1824 0.321376 14.2726 -0.0446917 16.3737 0.00434968C18.4748 0.0533911 20.5456 0.516577 22.4675 1.36736C24.3893 2.21815 26.1243 3.43981 27.5731 4.96235ZM10.6181 6.90969H5.25574V22.3618H8.00749V15.8141H10.0113L13.5957 22.3477H16.8978L12.8054 15.5177C13.8339 15.423 14.7852 14.9322 15.4584 14.1489C16.0793 13.3869 16.3756 12.4555 16.3756 11.3266C16.3756 10.4517 16.2204 9.732 15.8959 9.16754C15.5888 8.61874 15.1468 8.15732 14.6117 7.82694C14.048 7.48246 13.4264 7.24337 12.7772 7.12137C12.0664 6.97905 11.3431 6.90814 10.6181 6.90969ZM11.3237 13.401C10.9286 13.4433 10.5335 13.4575 10.1524 13.4575V13.4716H8.00749V9.28043H10.3923C10.7509 9.2823 11.1091 9.30586 11.4648 9.35099C11.8153 9.38741 12.158 9.47786 12.4809 9.61911C12.7816 9.74808 13.0406 9.95818 13.2288 10.2259C13.4299 10.5515 13.5282 10.9302 13.511 11.3125C13.511 11.8346 13.3981 12.2297 13.2005 12.512C12.999 12.7874 12.7256 13.0022 12.4103 13.1329C12.0642 13.2782 11.6976 13.3686 11.3237 13.401ZM19.5507 11.1996H17.0671V11.2137V26.6376H19.6777V20.3439H19.7483C19.8999 20.5387 20.07 20.7183 20.2563 20.8801C20.4859 21.0769 20.7368 21.2473 21.0042 21.3881C21.3168 21.5583 21.6484 21.6909 21.992 21.7833C22.4209 21.8916 22.8621 21.9438 23.3044 21.9385C24.0089 21.9449 24.7065 21.8006 25.3506 21.5152C25.9628 21.2414 26.5108 20.8424 26.9593 20.3439C27.4107 19.8313 27.7603 19.2375 27.9895 18.5941C28.2393 17.902 28.3635 17.1708 28.3564 16.435C28.3649 15.7014 28.2505 14.9716 28.0177 14.2759C27.7963 13.6331 27.4458 13.0424 26.9875 12.5402C26.5292 12.0438 25.9714 11.6496 25.3506 11.3831C24.6689 11.091 23.933 10.9467 23.1915 10.9597C22.4776 10.9492 21.7699 11.0937 21.1171 11.3831C20.4754 11.6777 19.9423 12.1664 19.5931 12.7801H19.5507V11.1996ZM25.534 15.2637C25.6732 15.6386 25.7449 16.0351 25.7457 16.435V16.4491C25.7449 16.849 25.6732 17.2455 25.534 17.6204C25.4008 17.9915 25.1945 18.3322 24.9272 18.6223C24.6525 18.9195 24.3216 19.1593 23.9536 19.3279C23.361 19.5821 22.7054 19.6507 22.0731 19.5248C21.4407 19.3988 20.8614 19.0841 20.4115 18.6223C20.1443 18.3322 19.938 17.9915 19.8048 17.6204C19.5276 16.8593 19.5276 16.0248 19.8048 15.2637C19.9383 14.8927 20.1446 14.5521 20.4115 14.2618C20.6858 13.964 21.0169 13.7241 21.3852 13.5562C21.9778 13.302 22.6334 13.2334 23.2657 13.3593C23.8981 13.4853 24.4774 13.8 24.9272 14.2618C25.1942 14.5521 25.4005 14.8927 25.534 15.2637Z" fill="white"/>
</g>
<defs>
<clipPath id="clip0">
<rect width="32" height="32" fill="white"/>
</clipPath>
</defs>
</svg>
