<svg height="32" viewBox="0 0 32 32" width="32" xmlns="http://www.w3.org/2000/svg"><path d="m16 32c-8.836556 0-16-7.163444-16-16s7.163444-16 16-16 16 7.163444 16 16-7.163444 16-16 16zm-1.1403596-20.4728877c-.3176363.0863551-.4446908.4209814-.5929211.6908412-1.2493696 2.3855613-2.5199149 4.7603281-3.7692844 7.1243006-.1588182.2590655-.1270545.6260749.0952909.8419628.2435212.2698598.6246848.1727103.9423211.1942991.3282242 0 .7517393.053972.952909-.2806543.4129272-.7340188.772915-1.5112152 1.1858422-2.2560285.2435212-.4533646.9740848-.3778038 1.1434908.0971496.2858727.7232244.518806 1.4788321.8152666 2.2020565.2011696.4749534.9317332.4749534 1.1540786.0215888 1.3340726-2.4935052 2.678733-4.976216 4.0128056-7.4697212.2752848-.4209814-.084703-1.0362619-.5717454-1.0038787-.4658666.0431776-1.0799635-.1727103-1.4187756.2698599-.4129272.71243-.7517393 1.4572433-1.1752544 2.1588789-.254109.3885982-.8999696.3346262-1.0905514-.0863551-.3176363-.7016357-.5929211-1.4248602-.8999695-2.1264958-.1270546-.3022431-.4764545-.4749534-.783503-.3778038zm-4.3622055.1835047c-.2435212.0107944-.4235151.2158879-.52939388.4209814-1.29172106 2.4287388-2.58344211 4.8574776-3.87516316 7.2754221-.27528482.3993926.10587877.9930843.5611575.9714955.37057572 0 .75173931.0323832 1.12231502-.0215888.31763632-.0863552.43410298-.4317758.58233326-.6908413 1.23878167-2.3315892 2.48815126-4.6631785 3.72693286-7.0055622.2011697-.3778038-.0635272-.9067291-.4764545-.9499067-.3705757-.0215888-.7411514-.0215888-1.1117271 0zm13.139556.0215888c-.2541091.0863551-.3599879.3670094-.4764545.5828973-.2011697.4209814-.4552788.820374-.6352727 1.2521498-.2011696.5397197.4870424 1.0902339.952909.766402.7411514-.4533646 1.4611271-.9499067 2.1916906-1.4140657.3599879-.1835047.4446909-.7340189.1588182-1.0254675-.2329333-.2806543-.6352726-.2158879-.952909-.2266823-.4129272.0323832-.8364423-.053972-1.2387816.0647664zm-3.5045875 6.455048c-.2117575.0971496-.3070484.3454207-.4023393.5505142-.1270546.2698598-.2858727.5181309-.3917515.7987852-.1482303.3885982.169406.8635516.5717454.8635516.8046787.0107944 1.6199452 0 2.4352118 0 .3811636.0323832.7093878-.3454207.6670363-.7340189-.0105879-.2914486-.2646969-.4965421-.5082181-.6044861-.5717454-.2698598-1.1329029-.5721029-1.6940604-.8527572-.2011697-.1079439-.4658666-.1511215-.6776242-.0215888z" fill="#fff" fill-rule="evenodd"/></svg>