<svg height="32" viewBox="0 0 32 32" width="32" xmlns="http://www.w3.org/2000/svg"><g fill="#fff" fill-rule="evenodd"><path d="m16 32c-8.836556 0-16-7.163444-16-16s7.163444-16 16-16 16 7.163444 16 16-7.163444 16-16 16zm-2.5544444-19.7128767c.7593915 0 1.375-.6011037 1.375-1.3426028 0-.741499-.6156085-1.34260269-1.375-1.34260269-.7593916 0-1.375.60110369-1.375 1.34260269 0 .7414991.6156084 1.3426028 1.375 1.3426028zm3.9279166-1.5339726c.7593916 0 1.375-.6011037 1.375-1.34260275 0-.74149902-.6156084-1.34260274-1.375-1.34260274-.7593915 0-1.375.60110372-1.375 1.34260274 0 .74149905.6156085 1.34260275 1.375 1.34260275zm1.5720834 9.2053425c.7593915 0 1.375-.6011038 1.375-1.3426028s-.6156085-1.3426027-1.375-1.3426027c-.7593916 0-1.375.6011037-1.375 1.3426027s.6156084 1.3426028 1.375 1.3426028zm-13.16027782-1.9182192c.43369694 0 .78527778-.3433915.78527778-.7669863 0-.4235949-.35158084-.7669863-.78527778-.7669863s-.78527778.3433914-.78527778.7669863c0 .4235948.35158084.7669863.78527778.7669863zm2.16027778 4.9876712c.32569459 0 .58972222-.2577123.58972222-.5756164 0-.3179042-.26402763-.5756165-.58972222-.5756165s-.58972223.2577123-.58972223.5756165c0 .3179041.26402764.5756164.58972223.5756164zm6.28527774 3.8349315c.3256946 0 .5897223-.2577122.5897223-.5756164s-.2640277-.5756165-.5897223-.5756165-.5897222.2577123-.5897222.5756165.2640276.5756164.5897222.5756164zm10.2147223-3.4521918c.3256945 0 .5897222-.2577122.5897222-.5756164s-.2640277-.5756164-.5897222-.5756164c-.3256946 0-.5897223.2577122-.5897223.5756164s.2640277.5756164.5897223.5756164zm-6.2852778-1.149726c.3256946 0 .5897222-.2577123.5897222-.5756164 0-.3179042-.2640276-.5756165-.5897222-.5756165s-.5897222.2577123-.5897222.5756165c0 .3179041.2640276.5756164.5897222.5756164zm3.5352778-2.6852055c.3256945 0 .5897222-.2577122.5897222-.5756164s-.2640277-.5756165-.5897222-.5756165c-.3256946 0-.5897223.2577123-.5897223.5756165s.2640277.5756164.5897223.5756164zm-4.125 7.2871233c.4336969 0 .7852777-.3433915.7852777-.7669863s-.3515808-.7669863-.7852777-.7669863c-.433697 0-.7852778.3433915-.7852778.7669863s.3515808.7669863.7852778.7669863zm3.5352777-9.589589c.433697 0 .7852778-.3433915.7852778-.7669863 0-.4235949-.3515808-.7669863-.7852778-.7669863-.4336969 0-.7852777.3433914-.7852777.7669863 0 .4235948.3515808.7669863.7852777.7669863zm1.1794445 7.6713698c.4336969 0 .7852778-.3433914.7852778-.7669863 0-.4235948-.3515809-.7669863-.7852778-.7669863-.433697 0-.7852778.3433915-.7852778.7669863 0 .4235949.3515808.7669863.7852778.7669863zm-15.51916669-3.8349315c.54254306 0 .98236111-.4290706.98236111-.9583561s-.43981805-.9583562-.98236111-.9583562-.98236111.4290707-.98236111.9583562.43981805.9583561.98236111.9583561zm9.42944449 3.8349315c.7593915 0 1.375-.6011037 1.375-1.3426027s-.6156085-1.3426027-1.375-1.3426027c-.7593916 0-1.375.6011037-1.375 1.3426027s.6156084 1.3426027 1.375 1.3426027zm-7.46472227-6.520137c.75939153 0 1.37499997-.6011037 1.37499997-1.3426027s-.61560844-1.3426027-1.37499997-1.3426027-1.375.6011037-1.375 1.3426027.61560847 1.3426027 1.375 1.3426027zm7.46472227 3.0679453c.542543 0 .9823611-.4290707.9823611-.9583562s-.4398181-.9583562-.9823611-.9583562c-.5425431 0-.9823612.4290707-.9823612.9583562s.4398181.9583562.9823612.9583562zm-4.7147223-8.4368494c.3256946 0 .5897223-.2577122.5897223-.5756164s-.2640277-.5756164-.5897223-.5756164-.5897222.2577122-.5897222.5756164.2640276.5756164.5897222.5756164zm3.7323611 2.3009589c.6505455 0 1.1779167-.5154245 1.1779167-1.1512328 0-.6358084-.5273712-1.1512329-1.1779167-1.1512329-.6505454 0-1.1779166.5154245-1.1779166 1.1512329 0 .6358083.5273712 1.1512328 1.1779166 1.1512328zm2.75 1.1497261c.433697 0 .7852778-.3433915.7852778-.7669863 0-.4235949-.3515808-.7669863-.7852778-.7669863-.4336969 0-.7852777.3433914-.7852777.7669863 0 .4235948.3515808.7669863.7852777.7669863zm1.375-9.58808222c.3256946 0 .5897223-.25771226.5897223-.57561644s-.2640277-.57561644-.5897223-.57561644c-.3256945 0-.5897222.25771226-.5897222.57561644s.2640277.57561644.5897222.57561644zm-2.75-.00150685c.5425431 0 .9823612-.42907067.9823612-.95835617 0-.52928549-.4398181-.95835616-.9823612-.95835616-.542543 0-.9823611.42907067-.9823611.95835616 0 .5292855.4398181.95835617.9823611.95835617zm.5897223 6.13739727c.4336969 0 .7852777-.3433915.7852777-.7669863s-.3515808-.7669863-.7852777-.7669863c-.433697 0-.7852778.3433915-.7852778.7669863s.3515808.7669863.7852778.7669863zm-7.46472226 8.439863c.65054546 0 1.17791666-.5154245 1.17791666-1.1512329 0-.6358083-.5273712-1.1512329-1.17791666-1.1512329-.65054541 0-1.17791666.5154246-1.17791666 1.1512329 0 .6358084.52737125 1.1512329 1.17791666 1.1512329zm11.39263886 1.149726c.6505454 0 1.1779167-.5154245 1.1779167-1.1512328 0-.6358084-.5273713-1.1512329-1.1779167-1.1512329s-1.1779166.5154245-1.1779166 1.1512329c0 .6358083.5273712 1.1512328 1.1779166 1.1512328zm-1.5705555 2.6852055c.6505454 0 1.1779166-.5154245 1.1779166-1.1512329 0-.6358083-.5273712-1.1512328-1.1779166-1.1512328s-1.1779167.5154245-1.1779167 1.1512328c0 .6358084.5273713 1.1512329 1.1779167 1.1512329zm-9.2323611 0c.7593915 0 1.375-.6011037 1.375-1.3426027s-.6156085-1.3426028-1.375-1.3426028c-.75939156 0-1.37500003.6011038-1.37500003 1.3426028s.61560847 1.3426027 1.37500003 1.3426027zm-4.12500003-9.9723288c.65054541 0 1.17791666-.5154245 1.17791666-1.1512328 0-.6358084-.52737125-1.1512329-1.17791666-1.1512329s-1.17791667.5154245-1.17791667 1.1512329c0 .6358083.52737126 1.1512328 1.17791667 1.1512328zm5.89263893 1.9167124c.8682376 0 1.5720833-.686783 1.5720833-1.5339726 0-.8471897-.7038457-1.5339726-1.5720833-1.5339726-.8682377 0-1.5720834.6867829-1.5720834 1.5339726 0 .8471896.7038457 1.5339726 1.5720834 1.5339726zm8.25-2.3009589c.8682376 0 1.5720833-.686783 1.5720833-1.5339726 0-.8471897-.7038457-1.5339726-1.5720833-1.5339726-.8682377 0-1.5720834.6867829-1.5720834 1.5339726 0 .8471896.7038457 1.5339726 1.5720834 1.5339726zm4.3205555 6.5216438c.6505454 0 1.1779167-.5154245 1.1779167-1.1512329 0-.6358083-.5273713-1.1512329-1.1779167-1.1512329s-1.1779167.5154246-1.1779167 1.1512329c0 .6358084.5273713 1.1512329 1.1779167 1.1512329zm1.1794445-4.6034247c.6505454 0 1.1779166-.5154245 1.1779166-1.1512328 0-.6358084-.5273712-1.1512329-1.1779166-1.1512329-.6505455 0-1.1779167.5154245-1.1779167 1.1512329 0 .6358083.5273712 1.1512328 1.1779167 1.1512328zm-4.5176389-5.3704109c.542543 0 .9823611-.4290707.9823611-.9583562s-.4398181-.95835614-.9823611-.95835614c-.5425431 0-.9823611.42907064-.9823611.95835614s.439818.9583562.9823611.9583562zm.1955555-3.06794522c.433697 0 .7852778-.34339146.7852778-.7669863s-.3515808-.7669863-.7852778-.7669863c-.4336969 0-.7852778.34339146-.7852778.7669863s.3515809.7669863.7852778.7669863zm1.7676389.7669863c.3256946 0 .5897222-.25771226.5897222-.57561644s-.2640276-.57561643-.5897222-.57561643-.5897222.25771225-.5897222.57561643.2640276.57561644.5897222.57561644zm3.1441667 4.60342462c.3256946 0 .5897222-.2577122.5897222-.5756164s-.2640276-.5756164-.5897222-.5756164-.5897222.2577122-.5897222.5756164.2640276.5756164.5897222.5756164zm-16.89416669-4.98616434c.32569459 0 .58972219-.25771226.58972219-.57561644s-.2640276-.57561644-.58972219-.57561644-.58972222.25771226-.58972222.57561644.26402763.57561644.58972222.57561644zm-.78527778 4.98616434c.32569459 0 .58972223-.2577122.58972223-.5756164s-.26402764-.5756164-.58972223-.5756164-.58972222.2577122-.58972222.5756164.26402763.5756164.58972222.5756164zm1.57208337.7669863c.3256946 0 .5897222-.2577122.5897222-.5756164s-.2640276-.5756164-.5897222-.5756164c-.32569462 0-.58972226.2577122-.58972226.5756164s.26402764.5756164.58972226.5756164zm1.9631944-7.2886301c.3256946 0 .5897222-.25771225.5897222-.57561643s-.2640276-.57561644-.5897222-.57561644-.5897222.25771226-.5897222.57561644.2640276.57561643.5897222.57561643zm14.1441667 11.5078082c.3256946 0 .5897222-.2577122.5897222-.5756164s-.2640276-.5756165-.5897222-.5756165-.5897222.2577123-.5897222.5756165.2640276.5756164.5897222.5756164zm-1.9647222-6.1373972c.7593915 0 1.375-.6011038 1.375-1.3426028s-.6156085-1.34260272-1.375-1.34260272c-.7593916 0-1.375.60110372-1.375 1.34260272s.6156084 1.3426028 1.375 1.3426028zm-1.1794445 3.0679452c.5425431 0 .9823611-.4290707.9823611-.9583562s-.439818-.9583562-.9823611-.9583562c-.542543 0-.9823611.4290707-.9823611.9583562s.4398181.9583562.9823611.9583562zm-13.35583332-4.2191781c.54254302 0 .98236112-.4290707.98236112-.9583562s-.4398181-.95835614-.98236112-.95835614c-.54254306 0-.98236111.42907064-.98236111.95835614s.43981805.9583562.98236111.9583562zm4.32055552-2.68520549c.5425431 0 .9823611-.42907067.9823611-.95835617 0-.52928549-.439818-.95835616-.9823611-.95835616-.542543 0-.9823611.42907067-.9823611.95835616 0 .5292855.4398181.95835617.9823611.95835617zm-2.5529166.38424657c.4336969 0 .7852777-.34339146.7852777-.7669863s-.3515808-.7669863-.7852777-.7669863c-.433697 0-.7852778.34339146-.7852778.7669863s.3515808.7669863.7852778.7669863zm-4.32208337 3.06794522c.43369694 0 .78527778-.3433915.78527778-.7669863 0-.4235949-.35158084-.7669863-.78527778-.7669863s-.78527777.3433914-.78527777.7669863c0 .4235948.35158083.7669863.78527777.7669863zm16.49999997 6.1373972c.433697 0 .7852778-.3433914.7852778-.7669863 0-.4235948-.3515808-.7669863-.7852778-.7669863-.4336969 0-.7852777.3433915-.7852777.7669863 0 .4235949.3515808.7669863.7852777.7669863zm-8.4455555.3842466c.7593915 0 1.375-.6011037 1.375-1.3426027s-.6156085-1.3426028-1.375-1.3426028c-.7593916 0-1.375.6011038-1.375 1.3426028s.6156084 1.3426027 1.375 1.3426027zm-2.5544445.7669863c.433697 0 .7852778-.3433914.7852778-.7669863 0-.4235948-.3515808-.7669863-.7852778-.7669863-.4336969 0-.7852777.3433915-.7852777.7669863 0 .4235949.3515808.7669863.7852777.7669863zm.3926389 3.0679452c.6505454 0 1.1779167-.5154245 1.1779167-1.1512328 0-.6358084-.5273713-1.1512329-1.1779167-1.1512329s-1.1779166.5154245-1.1779166 1.1512329c0 .6358083.5273712 1.1512328 1.1779166 1.1512328zm0 2.3009589c.433697 0 .7852778-.3433914.7852778-.7669863 0-.4235948-.3515808-.7669863-.7852778-.7669863-.4336969 0-.7852778.3433915-.7852778.7669863 0 .4235949.3515809.7669863.7852778.7669863z"/><path d="m12.0705556 17.2732877c-.8682377 0-1.5720834-.686783-1.5720834-1.5339726 0-.8471897.7038457-1.5339726 1.5720834-1.5339726.8682376 0 1.5720833.6867829 1.5720833 1.5339726 0 .8471896-.7038457 1.5339726-1.5720833 1.5339726zm8.25-2.3009589c-.8682377 0-1.5720834-.686783-1.5720834-1.5339726 0-.8471897.7038457-1.5339726 1.5720834-1.5339726.8682376 0 1.5720833.6867829 1.5720833 1.5339726 0 .8471896-.7038457 1.5339726-1.5720833 1.5339726zm4.3205555 6.5216438c-.6505454 0-1.1779167-.5154245-1.1779167-1.1512329 0-.6358083.5273713-1.1512329 1.1779167-1.1512329s1.1779167.5154246 1.1779167 1.1512329c0 .6358084-.5273713 1.1512329-1.1779167 1.1512329zm1.1794445-4.6034247c-.6505455 0-1.1779167-.5154245-1.1779167-1.1512328 0-.6358084.5273712-1.1512329 1.1779167-1.1512329.6505454 0 1.1779166.5154245 1.1779166 1.1512329 0 .6358083-.5273712 1.1512328-1.1779166 1.1512328zm-4.5176389-5.3704109c-.5425431 0-.9823611-.4290707-.9823611-.9583562s.439818-.95835614.9823611-.95835614c.542543 0 .9823611.42907064.9823611.95835614s-.4398181.9583562-.9823611.9583562zm.1955555-3.06794522c-.4336969 0-.7852778-.34339146-.7852778-.7669863s.3515809-.7669863.7852778-.7669863c.433697 0 .7852778.34339146.7852778.7669863s-.3515808.7669863-.7852778.7669863zm1.7676389.7669863c-.3256946 0-.5897222-.25771226-.5897222-.57561644s.2640276-.57561643.5897222-.57561643.5897222.25771225.5897222.57561643-.2640276.57561644-.5897222.57561644zm3.1441667 4.60342462c-.3256946 0-.5897222-.2577122-.5897222-.5756164s.2640276-.5756164.5897222-.5756164.5897222.2577122.5897222.5756164-.2640276.5756164-.5897222.5756164zm-16.89416669-4.98616434c-.32569459 0-.58972222-.25771226-.58972222-.57561644s.26402763-.57561644.58972222-.57561644.58972219.25771226.58972219.57561644-.2640276.57561644-.58972219.57561644zm-.78527778 4.98616434c-.32569459 0-.58972222-.2577122-.58972222-.5756164s.26402763-.5756164.58972222-.5756164.58972223.2577122.58972223.5756164-.26402764.5756164-.58972223.5756164zm1.57208337.7669863c-.32569462 0-.58972226-.2577122-.58972226-.5756164s.26402764-.5756164.58972226-.5756164c.3256946 0 .5897222.2577122.5897222.5756164s-.2640276.5756164-.5897222.5756164zm1.9631944-7.2886301c-.3256946 0-.5897222-.25771225-.5897222-.57561643s.2640276-.57561644.5897222-.57561644.5897222.25771226.5897222.57561644-.2640276.57561643-.5897222.57561643zm14.1441667 11.5078082c-.3256946 0-.5897222-.2577122-.5897222-.5756164s.2640276-.5756165.5897222-.5756165.5897222.2577123.5897222.5756165-.2640276.5756164-.5897222.5756164zm-1.9647222-6.1373972c-.7593916 0-1.375-.6011038-1.375-1.3426028s.6156084-1.34260272 1.375-1.34260272c.7593915 0 1.375.60110372 1.375 1.34260272s-.6156085 1.3426028-1.375 1.3426028zm-1.1794445 3.0679452c-.542543 0-.9823611-.4290707-.9823611-.9583562s.4398181-.9583562.9823611-.9583562c.5425431 0 .9823611.4290707.9823611.9583562s-.439818.9583562-.9823611.9583562zm-13.35583332-4.2191781c-.54254306 0-.98236111-.4290707-.98236111-.9583562s.43981805-.95835614.98236111-.95835614c.54254302 0 .98236112.42907064.98236112.95835614s-.4398181.9583562-.98236112.9583562zm4.32055552-2.68520549c-.542543 0-.9823611-.42907067-.9823611-.95835617 0-.52928549.4398181-.95835616.9823611-.95835616.5425431 0 .9823611.42907067.9823611.95835616 0 .5292855-.439818.95835617-.9823611.95835617zm-2.5529166.38424657c-.433697 0-.7852778-.34339146-.7852778-.7669863s.3515808-.7669863.7852778-.7669863c.4336969 0 .7852777.34339146.7852777.7669863s-.3515808.7669863-.7852777.7669863zm-4.32208337 3.06794522c-.43369694 0-.78527777-.3433915-.78527777-.7669863 0-.4235949.35158083-.7669863.78527777-.7669863s.78527778.3433914.78527778.7669863c0 .4235948-.35158084.7669863-.78527778.7669863zm16.49999997 6.1373972c-.4336969 0-.7852777-.3433914-.7852777-.7669863 0-.4235948.3515808-.7669863.7852777-.7669863.433697 0 .7852778.3433915.7852778.7669863 0 .4235949-.3515808.7669863-.7852778.7669863zm-8.4455555.3842466c-.7593916 0-1.375-.6011037-1.375-1.3426027s.6156084-1.3426028 1.375-1.3426028c.7593915 0 1.375.6011038 1.375 1.3426028s-.6156085 1.3426027-1.375 1.3426027zm-2.5544445.7669863c-.4336969 0-.7852777-.3433914-.7852777-.7669863 0-.4235948.3515808-.7669863.7852777-.7669863.433697 0 .7852778.3433915.7852778.7669863 0 .4235949-.3515808.7669863-.7852778.7669863zm.3926389 3.0679452c-.6505454 0-1.1779166-.5154245-1.1779166-1.1512328 0-.6358084.5273712-1.1512329 1.1779166-1.1512329s1.1779167.5154245 1.1779167 1.1512329c0 .6358083-.5273713 1.1512328-1.1779167 1.1512328zm0 2.3009589c-.4336969 0-.7852778-.3433914-.7852778-.7669863 0-.4235948.3515809-.7669863.7852778-.7669863.433697 0 .7852778.3433915.7852778.7669863 0 .4235949-.3515808.7669863-.7852778.7669863z" fill-rule="nonzero" opacity=".5"/></g></svg>