<svg width="32" height="32" viewBox="0 0 32 32" fill="none" xmlns="http://www.w3.org/2000/svg">
<path fill-rule="evenodd" clip-rule="evenodd" d="M32 16C32 24.8365 24.8365 32 16 32C7.1635 32 0 24.8365 0 16C0 7.1635 7.1635 0 16 0C24.8365 0 32 7.1635 32 16ZM15.5 27.6863C15.5 28.447 16.1271 29.0711 16.8942 28.9935C23.695 28.3053 29 22.6386 29 15.75C29 8.8614 23.695 3.19472 16.8942 2.50654C16.1271 2.4289 15.5 3.05302 15.5 3.81366V7.48638C15.5 8.24705 16.1312 8.84928 16.8877 8.99963C20.0793 9.63428 22.4828 12.4154 22.4828 15.75C22.4828 19.0846 20.0793 21.8657 16.8877 22.5004C16.1312 22.6507 15.5 23.253 15.5 24.0136V27.6863ZM9.77831 3.62567C10.6014 3.21346 11.5 3.8699 11.5 4.80075V26.1993C11.5 27.1301 10.6014 27.7866 9.77831 27.3743C5.46595 25.2141 2.5 20.7084 2.5 15.5C2.5 10.2916 5.46595 5.78594 9.77831 3.62567Z" fill="white"/>
</svg>
