<svg height="32" viewBox="0 0 32 32" width="32" xmlns="http://www.w3.org/2000/svg"><path d="m7.02599456 19.0087638c1.35199561 3.7936636 4.96169764 6.507772 9.20230664 6.507772.7426258 0 1.4659029-.0832359 2.1610946-.2409291.3949334 1.0096622 1.3738181 1.7243933 2.5188454 1.7243933 1.4941451 0 2.705389-1.2170169 2.705389-2.7182834 0-.5977446-.1920204-1.1504266-.5174633-1.599169 1.7928594-1.779954 2.9038331-4.2517598 2.9038331-6.9842841 0-2.5829889-.9927063-4.9330136-2.6156907-6.68591884.2076919-.38477663.3256432-.8255788.3256432-1.29406128 0-1.50126646-1.211244-2.71828338-2.7053891-2.71828338-.9391516 0-1.7665344.48081998-2.2516133 1.210826-.8053467-.21580248-1.6516279-.33083485-2.5246489-.33083485-4.6768986 0-8.58639196 3.30131245-9.54613613 7.71119195-1.48345213.0125331-2.68216507 1.2247048-2.68216507 2.7181853 0 1.5012665 1.21124393 2.7182834 2.70538904 2.7182834.10847812 0 .21546505-.006415.32060552-.018888zm.48916105-.1049725c1.09856061-.3458065 1.89562247-1.3765892 1.89562247-2.5944229 0-1.3383912-.96268064-2.4508647-2.23025643-2.6764999.93523504-4.15365487 4.63102955-7.2551448 9.04777955-7.2551448.7876891 0 1.5524478.09864485 2.2827069.28431025-.1364145.3247223-.2118337.68163633-.2118337 1.05624943 0 1.50126645 1.2112439 2.71828342 2.705389 2.71828342.8450581 0 1.5996217-.3892999 2.095737-.99914529 1.4940019 1.65451099 2.4043281 3.85086069 2.4043281 6.26084199 0 2.5835587-1.04618 4.9216044-2.7361034 6.6097825-.4848604-.4615281-1.13967-.7446128-1.8602839-.7446128-1.4941451 0-2.7053891 1.217017-2.7053891 2.7182834 0 .176007.0166486.3481071.0484497.514797-.6511974.1455336-1.3281779.2222896-2.0230006.2222896-4.0021755 0-7.4123873-2.5465781-8.71314559-6.1150119zm8.48484439 13.0962087c-8.836556 0-16-7.163444-16-16s7.163444-16 16-16 16 7.163444 16 16-7.163444 16-16 16zm.2283012-13.5801349c1.495969 0 2.7086915-1.2185026 2.7086915-2.7216016 0-1.5030991-1.2127225-2.7216016-2.7086915-2.7216016s-2.7086915 1.2185025-2.7086915 2.7216016c0 1.503099 1.2127225 2.7216016 2.7086915 2.7216016z" fill="#fff" fill-rule="evenodd"/></svg>