<svg height="32" viewBox="0 0 32 32" width="32" xmlns="http://www.w3.org/2000/svg"><path d="m10.1228558 8.28273892-3.62534336 3.29353228v3.2327142l-.35480885.6387174c-.19027145.3425216-.19027145.7620728 0 1.1045944l.35480885.6387174v7.1988159h3.99895706l.0243435.0438226c.1944606.3500628.5579558.5663469.9518238.5663469h8.9552239c.3900722 0 .7506661-.2121703.9465352-.5569332l.5914283-1.041014 3.4371609-2.978324v-3.0716618l.4490227-.7903561c.1973229-.3473218.1973229-.7761 0-1.1234218l-.4490227-.7903561v-7.13945842h-4.0577512c-.2012016-.31607744-.5459218-.50847458-.9173732-.50847458h-8.9552239c-.393868 0-.7573632.21628414-.9518238.56634689zm5.8771442 23.71726108c-8.836556 0-16-7.163444-16-16s7.163444-16 16-16 16 7.163444 16 16-7.163444 16-16 16zm-4.5273632-23.88135593h8.9552239l4.4776119 7.88135593-4.4776119 7.8813559h-8.9552239l-4.37810944-7.8813559zm.4055017.7118644-3.98266732 7.16949153 3.98266732 7.1694915h8.1487327l4.0731825-7.1694915-4.0731825-7.16949153zm1.8830555 3.05084743h4.6766169l2.1890548 4.0677966-2.1890548 4.0677967h-4.6766169l-2.1890547-4.0677967z" fill="#fff"/></svg>