<svg height="32" viewBox="0 0 32 32" width="32" xmlns="http://www.w3.org/2000/svg"><path d="m16 32c-8.836556 0-16-7.163444-16-16s7.163444-16 16-16 16 7.163444 16 16-7.163444 16-16 16zm8.5-21-8.5-5-8.5 5v10l8.5 5 8.5-5zm-8.7684372 5.4074011-1.030893-.6064262-.6223399.3676033-1.47629-.8621353.6276812-.3707583-3.32942778-1.9585466 6.27083238-3.68793778 5.9164926 3.43776458-1.5854628.9379571-4.3276299-2.5290586-3.1305053 1.8412747 1.7542242 1.0320525.8969024-.5297817 1.4762899.8621353-.9023321.5329889 1.0308309.6064628.7346851-.4339632 1.4766677.8621353-.7403033.4372818 3.6732396 2.1610555-6.2693214 3.6879378-6.52544328-3.7907013.02606551-1.8424293 6.49522247 3.7864675 3.130883-1.8412747-2.0989303-1.2347025-.7845193.4633993-1.4766677-.8621353z" fill="#fff" fill-rule="evenodd"/></svg>