<svg width="32" height="32" viewBox="0 0 32 32" fill="none" xmlns="http://www.w3.org/2000/svg">
<path d="M9.71201 23.1904L2.3712 24.016L6.6816 14.0704L2.2688 8.05439L12.9984 6.83199L15.9136 0.127991L22.3008 8.80959L29.6416 7.98399L25.3504 17.8816L29.7312 23.856L19.056 25.072L16.096 31.872L9.71201 23.1904ZM12.7616 22.5312C12.48 22.6688 12.1792 22.784 11.8688 22.8704L11.5872 22.9472L15.7248 28.5728L17.1936 25.1936L16.928 25.1584C15.4816 24.976 14.1664 24.1952 13.3184 23.024L12.9056 22.4544L12.7616 22.5312ZM11.3216 17.4304L14.6592 22.048C15.3376 22.9856 16.4352 23.5456 17.5936 23.5456C17.728 23.5456 17.8624 23.5392 17.9936 23.5232L26.704 22.5312L23.2352 17.7984C23.0624 17.5648 22.864 17.3536 22.6432 17.168L22.4384 16.9984L19.9552 22.608L15.6352 16.8896L11.3216 17.4304ZM11.4656 11.808C10.1728 11.9456 9.04641 12.7744 8.52801 13.9712L5.0304 22.0448L10.8416 21.392C11.1296 21.36 11.4112 21.2928 11.6832 21.1936L11.9328 21.1008L8.33601 16.1344L15.4272 15.2352L17.1136 11.2064L11.4656 11.808ZM16.9536 15.8816L19.5808 19.36L21.184 15.7408L21.888 14.1472C22.416 12.9536 22.2656 11.5616 21.4912 10.512L16.2848 3.42719L13.9424 8.80959C13.8272 9.07519 13.744 9.35359 13.6928 9.64159L13.648 9.90399L19.7248 9.26079L16.9536 15.8816ZM23.3376 10.3648L23.44 10.6112C24.0032 11.9584 23.9904 13.4944 23.4016 14.8224L23.1168 15.4624L23.2544 15.5552C23.5168 15.7312 23.7632 15.936 23.9904 16.1632L24.1984 16.368L26.9792 9.95199L23.3376 10.3648ZM5.296 9.37919L7.5104 12.4L7.6736 12.1888C8.55361 11.0464 9.87521 10.304 11.2928 10.1536L11.9872 10.08L12 9.91039C12.0224 9.56159 12.0832 9.21279 12.176 8.87359L12.256 8.58559L5.296 9.37919Z" fill="white"/>
<path d="M14.4512 32C9.8432 31.5552 5.7024 29.1584 2.992 25.36L4.848 25.152C5.1552 25.5296 5.4816 25.8912 5.8176 26.2304C7.8304 28.2528 10.3488 29.616 13.1104 30.1792L14.4512 32Z" fill="white"/>
<path d="M18.3168 30.2816C21.3056 29.7984 24.0224 28.4 26.1824 26.2304C26.3744 26.0352 26.5696 25.8272 26.7648 25.6096L29.0144 25.3536C26.3136 29.1488 22.1792 31.5488 17.5712 32L18.3168 30.2816Z" fill="white"/>
<path d="M29.472 21.1295C30.0864 19.4943 30.4 17.7695 30.4 15.9999C30.4 14.4383 30.1536 12.9023 29.6704 11.4367L30.5728 9.35675C31.52 11.4463 32 13.6799 32 15.9999C32 18.3167 31.52 20.5471 30.576 22.6367L29.472 21.1295Z" fill="white"/>
<path d="M1.4336 22.6591C0.4832 20.5632 0 18.3264 0 16C0 13.6608 0.4864 11.4112 1.4496 9.30878L2.5504 10.8128C1.92 12.464 1.6 14.208 1.6 16C1.6 17.568 1.8464 19.1072 2.3328 20.5792L1.4336 22.6591Z" fill="white"/>
<path d="M3.0592 6.5472C5.7664 2.8096 9.8752 0.4416 14.4416 0L13.696 1.7152C10.704 2.1952 7.9808 3.5968 5.8176 5.7696C5.6544 5.9328 5.4912 6.1088 5.328 6.288L3.0592 6.5472Z" fill="white"/>
<path d="M27.1552 6.848C26.848 6.4704 26.5216 6.1088 26.1824 5.7696C24.1728 3.7504 21.6576 2.3872 18.9024 1.824L17.5616 0C22.1664 0.448 26.3008 2.8448 29.008 6.64L27.1552 6.848Z" fill="white"/>
</svg>
