<svg width="32" height="32" viewBox="0 0 32 32" fill="none" xmlns="http://www.w3.org/2000/svg">
<path fill-rule="evenodd" clip-rule="evenodd" d="M16 32C24.8365 32 32 24.8365 32 16C32 7.16345 24.8365 0 16 0C7.16345 0 0 7.16345 0 16C0 24.8365 7.16345 32 16 32ZM16.5791 15.807L24.7654 23.9667C26.7754 21.8369 28 18.9617 28 15.807C28 12.6522 26.7754 9.77702 24.7654 7.64724L16.5791 15.807ZM7.92668 24.4193L16.0065 16.366L24.0864 24.4193L16.0065 27.7471L7.92668 24.4193ZM15.7138 15.5141L24.0865 7.18136L16.3793 4L8.67218 22.5424L15.7138 15.5141ZM7.20799 23.9401C5.22463 21.8103 4 18.9484 4 15.807L15.2479 4.59901L7.20799 23.9401Z" fill="white"/>
</svg>
