<svg width="32" height="32" viewBox="0 0 32 32" fill="none" xmlns="http://www.w3.org/2000/svg">
<g clip-path="url(#clip0)">
<path fill-rule="evenodd" clip-rule="evenodd" d="M30.9105 10.24C30.1561 8.27835 29.0219 6.48488 27.5731 4.96235C26.1243 3.43981 24.3893 2.21815 22.4675 1.36736C20.5456 0.516577 18.4748 0.0533911 16.3737 0.00434968C14.2726 -0.0446917 12.1824 0.321376 10.223 1.08157C9.42719 1.38995 8.65791 1.76279 7.9228 2.19639C5.81169 3.43125 4.01172 5.13358 2.66115 7.17261C1.31058 9.21163 0.44536 11.5331 0.131942 13.9587C-0.181475 16.3843 0.0652542 18.8494 0.853178 21.1648C1.6411 23.4801 2.94925 25.584 4.67714 27.315C5.67288 28.3079 6.7978 29.1623 8.02158 29.855C10.0869 31.0451 12.3922 31.7583 14.7687 31.9425C17.1452 32.1267 19.5329 31.7771 21.7569 30.9194C23.9809 30.0618 25.985 28.7177 27.6225 26.9855C29.26 25.2533 30.4895 23.177 31.221 20.9083C31.6545 19.5698 31.9061 18.1791 31.9689 16.7736C32.0754 14.5504 31.7149 12.3295 30.9105 10.2541V10.24ZM15.1642 16.0031L24.1299 21.1317C24.4448 21.3104 24.8358 21.083 24.8358 20.7255V11.2752C24.8358 10.9123 24.4448 10.6903 24.1299 10.869L15.1642 16.0031ZM17.8066 4.09638L23.9307 8.59764C24.204 8.80176 24.1761 9.20462 23.8749 9.37113L14.806 14.3881L17.0425 4.37032C17.115 4.03729 17.5222 3.88689 17.8066 4.09638ZM17.8009 27.906L23.9302 23.4037C24.2034 23.1995 24.1756 22.7966 23.88 22.63L14.806 17.6119L17.0424 27.632C17.1093 27.9651 17.522 28.1101 17.8009 27.906ZM15.1529 4.92845L12.8348 15.8236L15.1529 26.7133C15.2441 27.1416 14.7612 27.4505 14.4178 27.1849L8.48294 22.61C8.17708 22.377 8 22.0084 8 21.6235V10.0183C8 9.63342 8.17708 9.26483 8.48294 9.03175L14.4178 4.45687C14.7612 4.19127 15.2441 4.50023 15.1529 4.92845Z" fill="white"/>
</g>
<defs>
<clipPath id="clip0">
<rect width="32" height="32" fill="white"/>
</clipPath>
</defs>
</svg>
