<svg width="32" height="32" viewBox="0 0 32 32" fill="none" xmlns="http://www.w3.org/2000/svg">
<path fill-rule="evenodd" clip-rule="evenodd" d="M32 16C32 24.8365 24.8365 32 16 32C7.1635 32 0 24.8365 0 16C0 7.1635 7.1635 0 16 0C24.8365 0 32 7.1635 32 16ZM9.04337 27.9803C8.68519 27.9323 8.20145 27.7292 7.88019 27.4928C7.69187 27.3525 7.38538 27.0165 7.31891 26.8725C7.30045 26.8319 7.24137 26.71 7.18598 26.5992C7.17761 26.5817 7.1696 26.5654 7.16194 26.5497C7.14695 26.5191 7.1333 26.4912 7.12087 26.4628C6.9939 26.1724 6.99466 25.8262 7.00328 21.943C7.00384 21.6889 7.00444 21.4196 7.00504 21.1341L7.00511 21.1028V21.1027C7.01612 16.3925 7.01626 16.3333 7.07889 16.1454C7.20444 15.7724 7.37061 15.5066 7.65125 15.2259C7.79895 15.0782 7.99836 14.9121 8.09436 14.853C8.45624 14.6425 8.89567 14.5096 9.23539 14.5059H9.39786L9.40894 11.9395C9.42002 9.48758 9.42371 9.35095 9.48649 9.026C9.94806 6.59994 11.7759 4.75363 14.3054 4.15542C14.8482 4.02248 15.1473 3.99664 15.8821 4.00033C16.6317 4.00033 16.8976 4.03356 17.5697 4.20342C18.7107 4.49145 19.8332 5.14874 20.6456 5.99804C21.3841 6.7698 21.9233 7.78527 22.1411 8.79706C22.2556 9.34726 22.2704 9.6279 22.2704 12.102V14.5059H22.4513C22.8169 14.5059 23.356 14.6942 23.7253 14.9416C24.1905 15.2628 24.5524 15.8167 24.6447 16.3522C24.6669 16.4925 24.6743 18.0065 24.6706 21.3778L24.6632 26.2078L24.593 26.3851C24.449 26.7617 24.2902 27.0165 24.0354 27.2713C23.7733 27.5372 23.5443 27.6886 23.1935 27.8289C23.1732 27.837 23.1545 27.8448 23.1368 27.8522C23.1136 27.8619 23.0919 27.8709 23.07 27.8794C22.7508 28.0025 22.384 28.0023 16.6711 27.9992C16.4029 27.999 16.1228 27.9989 15.8304 27.9987C12.1526 27.995 9.09507 27.9877 9.04337 27.9803ZM22.5916 26.4737C22.8058 26.3924 22.9055 26.3075 23.0089 26.1192L23.0938 25.9678L23.0901 21.2486V16.5257L23.0163 16.3854C22.9314 16.2229 22.7356 16.0568 22.5621 16.0088C22.4845 15.9866 20.2837 15.9792 15.8046 15.9792H9.16523L9.00275 16.0605C8.8292 16.1491 8.68519 16.3079 8.6261 16.4777C8.59656 16.5553 8.58918 17.8071 8.58918 21.2745C8.58918 25.7647 8.59287 25.9715 8.64826 26.0933C8.6778 26.1635 8.76273 26.2669 8.83658 26.3297C8.85542 26.3456 8.87004 26.3604 8.88357 26.374C8.89256 26.3831 8.90106 26.3916 8.90998 26.3998C9.06543 26.541 9.34923 26.541 14.5768 26.5403C14.9708 26.5402 15.3929 26.5401 15.8452 26.5401L15.853 26.5401H15.8531C22.3849 26.5365 22.4292 26.5364 22.5916 26.4737ZM20.6825 12.0355C20.6825 10.4144 20.6715 9.48758 20.6493 9.34356C20.5533 8.69735 20.3022 8.06592 19.9256 7.50833C19.704 7.18338 19.043 6.53347 18.7181 6.31561C17.7063 5.64724 16.4766 5.34445 15.2987 5.47738C14.1023 5.61401 13.1163 6.07559 12.3113 6.88427C11.6836 7.50833 11.3033 8.18777 11.0891 9.05923C11.0226 9.33249 11.0189 9.39526 11.0115 11.9247L11.0005 14.5096H15.8378H20.6788V12.0355H20.6825ZM15.8415 23.6193C16.7462 23.6193 17.481 22.8844 17.481 21.9797C17.481 21.3557 17.1339 20.8129 16.6206 20.5359V19.79C16.6206 18.7598 16.6133 18.7228 16.3991 18.5087C16.0852 18.1985 15.5941 18.2022 15.2839 18.5161C15.0697 18.7339 15.0587 18.793 15.0587 19.8306V20.5396C14.5491 20.8166 14.202 21.3594 14.202 21.9797C14.202 22.8844 14.9368 23.6193 15.8415 23.6193Z" fill="white"/>
</svg>
