<svg width="32" height="32" viewBox="0 0 32 32" fill="none" xmlns="http://www.w3.org/2000/svg">
<path fill-rule="evenodd" clip-rule="evenodd" d="M32 16C32 24.8366 24.8366 32 16 32C7.16344 32 0 24.8366 0 16C0 7.16344 7.16344 0 16 0C24.8366 0 32 7.16344 32 16ZM14.0952 6.59524L16 5.5L17.9048 6.59524L23.0952 9.59524L25 10.6905V21.0714L23.0952 22.1667L17.9524 25.1667L16.0476 26.2619L14.1429 25.1667L8.90476 22.1667L7 21.0714V10.6905L8.90476 9.59524L14.0952 6.59524ZM10.8095 12.881V18.881L16 21.881L21.1905 18.881V12.881L16 9.88095L10.8095 12.881Z" fill="white"/>
</svg>
