<svg width="32" height="32" viewBox="0 0 32 32" fill="none" xmlns="http://www.w3.org/2000/svg">
<path fill-rule="evenodd" clip-rule="evenodd" d="M16 32C24.8365 32 32 24.8365 32 16C32 7.1635 24.8365 0 16 0C7.1635 0 0 7.1635 0 16C0 24.8365 7.1635 32 16 32ZM6.71413 15.1288L7.89725 15.9593L7.60394 16.1646L7.60596 16.1674L6.71271 16.7919C6.18458 17.1619 5.75342 17.6537 5.45573 18.2257C5.15805 18.7977 5.00262 19.433 5.00262 20.0778C5.00262 20.7226 5.15805 21.3579 5.45573 21.9299C5.75342 22.5019 6.18458 22.9937 6.71271 23.3637L10.454 25.9901L15.0822 22.7517L13.8355 21.8762L10.4498 24.242L7.5301 22.1921C7.19049 21.9541 6.91323 21.6377 6.72182 21.2698C6.5304 20.9019 6.43046 20.4932 6.43046 20.0785C6.43046 19.6638 6.5304 19.2552 6.72182 18.8872C6.91323 18.5193 7.19049 18.2029 7.5301 17.9649L9.14544 16.8355L22.2007 26L25.952 23.3807C26.4798 23.0105 26.9107 22.5186 27.2082 21.9467C27.5057 21.3747 27.661 20.7395 27.661 20.0948C27.661 19.4501 27.5057 18.8149 27.2082 18.2429C26.9107 17.671 26.4798 17.1791 25.952 16.8089L24.7651 15.9757L25.9534 15.1444C26.4815 14.7744 26.9127 14.2826 27.2104 13.7106C27.5081 13.1386 27.6635 12.5033 27.6635 11.8585C27.6635 11.2137 27.5081 10.5784 27.2104 10.0064C26.9127 9.43441 26.4815 8.9426 25.9534 8.57264H25.9591L22.2163 5.94621L17.5839 9.18746L18.8306 10.0629L22.2149 7.7L25.136 9.74986C25.4756 9.9879 25.7529 10.3043 25.9443 10.6722C26.1357 11.0401 26.2356 11.4487 26.2356 11.8635C26.2356 12.2782 26.1357 12.6868 25.9443 13.0548C25.7529 13.4227 25.4756 13.739 25.136 13.9771L24.3789 14.5059C24.3772 14.5039 24.3755 14.5018 24.3738 14.4998L23.5173 15.0996L10.4654 5.93628L6.71413 8.55705C6.186 8.92701 5.75483 9.41882 5.45715 9.9908C5.15947 10.5628 5.00404 11.1981 5.00404 11.8429C5.00404 12.4877 5.15947 13.1231 5.45715 13.695C5.75483 14.267 6.186 14.7588 6.71413 15.1288ZM22.2698 15.9732L10.464 7.6844L7.54002 9.73002C7.20013 9.96786 6.9226 10.2842 6.73099 10.6521C6.53938 11.0201 6.43933 11.4288 6.43933 11.8436C6.43933 12.2585 6.53938 12.6672 6.73099 13.0352C6.9226 13.4031 7.20013 13.7194 7.54002 13.9572L9.14669 15.0851L13.4934 12.0437L13.497 12.0488L13.8412 11.8082L15.0878 12.6809L10.3953 15.9616L22.205 24.2519L25.1289 22.2077C25.4685 21.9697 25.7458 21.6533 25.9372 21.2854C26.1286 20.9175 26.2286 20.5088 26.2286 20.0941C26.2286 19.6794 26.1286 19.2707 25.9372 18.9028C25.7458 18.5349 25.4685 18.2185 25.1289 17.9805L23.5171 16.8488L18.8235 20.1324L17.5769 19.2569L21.5073 16.5116L21.5052 16.5086L22.2698 15.9732Z" fill="white"/>
</svg>
