<svg height="32" viewBox="0 0 32 32" width="32" xmlns="http://www.w3.org/2000/svg"><path d="m16 32c-8.836556 0-16-7.163444-16-16s7.163444-16 16-16 16 7.163444 16 16-7.163444 16-16 16zm-.1866477-25.95153614.0001022.00130002-8.21648859 4.63136282c-.24770455.1397019-.24719318.4883067.00061364.6275085l7.15592045 4.0186546c.2469792-.2816477.5859167-.4711813.9594205-.5365073v-2.1976298c-.7691932-.1342018-1.3536819-.7880107-1.3536819-1.5763214 0-.885212.7361591-1.60282177 1.6448523-1.60282177s1.6450568.71760977 1.6450568 1.60282177c0 .7927107-.5909318 1.4492197-1.3665682 1.5784214v2.1931298c.3788855.063213.7232171.2540373.9733296.5394073l7.155-4.0337548c.1148948-.0646129.1856701-.1843794.1855434-.3139779-.0001268-.1295986-.0711361-.2492326-.186157-.3136306l-8.224875-4.61796264c-.1152192-.06461848-.2568491-.06461848-.3720682 0zm8.6202613 5.81847894.0012273-.0011-6.9081136 3.8940529c.1551022.3651068.1643729.7738441.0259772 1.1453155l1.9495228 1.0929148c.2605322-.369237.6674646-.6147427 1.1218295-.6768092.8995909-.1241016 1.7318864.4864066 1.8586023 1.3631185s-.4995 1.6872229-1.3992955 1.8111246c-.8997954.1239017-1.7318863-.4865066-1.8586022-1.3631185-.0305243-.2098257-.0179378-.4234971.0370227-.6285085l-1.9897159-1.1152151c-.2508594.2941497-.600947.490983-.9871364.5550075l.00675 7.6937044c0 .2787038.3098864.4532062.5576932.3132043l7.965-4.490061c.1148395-.0645438.1856347-.1841869.185625-.3137042l-.007875-8.9670217c-.0004505-.129818-.0716897-.2495419-.1868873-.3140811-.1151977-.0645391-.2568563-.0640905-.3716241.0011768zm-17.42543178.3129043h-.00020455l-.00797727 8.9665217c.00006927.1294704.07084816.2490478.185625.3136042l7.9662273 4.490461c.2475.1397019.5576932-.0345005.5576932-.3132043l.00675-7.6955044c-.3823707-.0658895-.7285899-.2618806-.9774205-.5533075l-1.9892045 1.1150151c.0549919.2050051.0676131.4186761.037125.6285085-.1269205.8762119-.9589091 1.4869202-1.8586023 1.3631185s-1.52621593-.9349127-1.39929547-1.8111246c.12692045-.8762119.95860227-1.4867201 1.85860227-1.3631185.454188.0623231.8609275.3077796 1.1215227.6768092l1.9486023-1.0920148c-.1376408-.3698683-.1291431-.7766514.0238295-1.1407155l-6.9155795-3.8983529c-.05632555-.0321996-.12037927-.0492118-.185625-.0493007-.19380682 0-.37206818.1511021-.37206818.362605z" fill="#fff"/></svg>