<svg width="32" height="32" viewBox="0 0 32 32" fill="none" xmlns="http://www.w3.org/2000/svg">
<path fill-rule="evenodd" clip-rule="evenodd" d="M32 16C32 24.8366 24.8366 32 16 32C7.16344 32 0 24.8366 0 16C0 7.16344 7.16344 0 16 0C24.8366 0 32 7.16344 32 16ZM18.7792 7.02397C16.8704 6.44797 14.7616 6.44957 12.888 7.15037C12.448 7.37597 11.832 7.70077 11.8912 8.28317C12.0227 8.8849 12.587 9.2134 13.0914 9.50703L13.0915 9.50708C13.1517 9.54214 13.2111 9.57671 13.2688 9.61118C14.8693 10.4489 16.5867 11.0011 18.3028 11.5529L18.3029 11.5529L18.3029 11.5529C19.0779 11.8021 19.8525 12.0512 20.616 12.3264C21.0416 13.8048 22.2112 14.896 23.3568 15.8496C23.4739 15.9406 23.5899 16.0339 23.7062 16.1273C24.1812 16.5091 24.6597 16.8937 25.224 17.1328C25.3968 16.1568 25.3024 15.1632 25.1728 14.1888L25.0784 14.1392C25.0119 14.1007 24.9452 14.0628 24.8781 14.0255C24.9452 14.0628 25.0119 14.1007 25.0784 14.1392C25.0496 13.3936 24.76 12.6944 24.4576 12.024C23.3616 9.67038 21.264 7.79517 18.7792 7.02397ZM7.232 12.8143C7.77439 11.3423 8.66399 9.97594 9.87199 8.96314C10.1792 11.4895 11.2544 13.9311 13.0304 15.7679C15.16 17.9807 18.1936 19.3391 21.2799 19.2879C22.3325 19.3209 23.3649 19.1167 24.3925 18.9135C24.5615 18.88 24.7304 18.8466 24.8991 18.8143C23.7231 23.0639 19.0656 25.8847 14.7504 25.2063C12.1456 24.8735 9.74079 23.3311 8.28959 21.1535C6.6528 18.7471 6.24 15.5519 7.232 12.8143Z" fill="white"/>
<path d="M25.0282 14.2257L25.0282 14.2258L25.0319 14.2277L25.0804 14.2532C25.2007 15.1671 25.2846 16.0865 25.1464 16.9887C24.6464 16.7542 24.2141 16.4069 23.7739 16.0533C23.6568 15.9592 23.5391 15.8646 23.4195 15.7717C22.3218 14.8579 21.2244 13.834 20.7683 12.4789C22.2402 12.9418 23.6967 13.454 25.0282 14.2257Z" stroke="white" stroke-width="0.2"/>
</svg>
