<svg xmlns="http://www.w3.org/2000/svg" width="32" height="32" viewBox="0 0 32 32">
  <path fill="#FFF" fill-rule="evenodd" d="M16,32 C7.163444,32 0,24.836556 0,16 C0,7.163444 7.163444,0 16,0 C24.836556,0 32,7.163444 32,16 C32,24.836556 24.836556,32 16,32 Z M10.0051903,26 L16,19.8944445 L21.9757785,26 L21.9757785,22.3444445 L16,16.2388889 L10.0051903,22.3444445 L10.0051903,26 Z M5,13.6333334 L7.53114187,16.2388889 L16,16.2388889 L13.4688581,13.6333334 L5,13.6333334 Z M27,13.6333333 L18.5311419,13.6333333 L18.5311419,7.58611111 L16,5 L16,16.2388889 L24.4688581,16.2388889 L27,13.6333333 Z"/>
</svg>
