<svg height="32" viewBox="0 0 32 32" width="32" xmlns="http://www.w3.org/2000/svg"><path d="m16 32c-8.836556 0-16-7.163444-16-16s7.163444-16 16-16 16 7.163444 16 16-7.163444 16-16 16zm4.6626577-24.0083c-1.2435318-1.3555-2.7841154-1.9917-4.6490221-1.9917-1.8918848 0-3.4324684.6362-4.6760002 1.9364-1.243043 1.2725-1.8376354 2.9045-1.8376354 4.8686 0 1.9364.6216682 3.5685 1.8649067 4.8686.9729693 1.0235 2.135176 1.6321 3.4595442 1.8534v1.1618h-2.7297683v1.2448h2.7564531v.6639h-2.7564531v1.1618h2.7297683v2.2407h2.3513914v-2.2407h2.7564531v-1.1618h-2.7838222v-.6639h2.7838222v-1.2448h-2.7564531v-1.1342c1.3513462-.2213 2.5135529-.83 3.4865222-1.8534 1.2162605-1.3 1.8376354-2.9322 1.8376354-4.8686.0002932-1.9087-.6213749-3.5408-1.8373422-4.8409zm-2.5408242 7.3859c-.5135604.6639-1.2432386.9959-2.1081979.9959-.8378836 0-1.5405836-.3319-2.0811221-.9959s-.8112965-1.5214-.8112965-2.6c0-1.0512.2702692-1.8811.8112965-2.545.5410272-.6639 1.2432385-.9959 2.0811221-.9959.8112965 0 1.5135078.332 2.0541441 1.0235.5676143.6639.8378835 1.5214.8378835 2.545 0 1.051-.270367 1.9085-.7838297 2.5724z" fill="#fff"/></svg>