<svg width="32" height="32" viewBox="0 0 32 32" fill="none" xmlns="http://www.w3.org/2000/svg">
<path fill-rule="evenodd" clip-rule="evenodd" d="M32 16C32 24.8366 24.8366 32 16 32C7.16344 32 0 24.8366 0 16C0 7.16344 7.16344 0 16 0C24.8366 0 32 7.16344 32 16ZM28.8632 23.8357C30.3445 21.5272 31.2034 18.7814 31.2034 15.835C31.2034 7.64184 24.5616 1 16.3685 1C9.45477 1 3.64568 5.72945 2 12.1296C2.25281 13.366 2.83801 14.2951 3.59319 14.1034C4.40408 13.8976 4.55731 12.229 4.7299 10.3496C4.86038 8.92872 5.00194 7.38726 5.44716 6.26624C6.48066 3.66185 10.3975 4.53769 10.704 6.26624C10.8974 7.35719 9.79845 8.24748 8.59196 9.22493C7.88684 9.79619 7.14496 10.3972 6.60287 11.0855C5.13342 12.9514 5.03968 18.5319 5.57913 20.42C5.61059 20.5301 5.64388 20.6512 5.6797 20.7815C5.92392 21.6699 6.28558 22.9856 6.98379 24.1519L9.22134 15.805C9.24044 15.7337 9.27815 15.6727 9.32741 15.6248L13.6486 11.4839L14.0289 10.0655C14.0853 9.85501 14.3017 9.73005 14.5123 9.78651L23.8017 12.277C24.0122 12.3334 24.1371 12.5499 24.0807 12.7604L23.7005 14.1788L25.3698 19.922C25.3896 19.9892 25.3922 20.0624 25.3727 20.1351L23.8884 25.672C25.7068 24.431 27.4035 23.8796 28.8632 23.8357ZM19.171 18.8811L16.3922 29.2469C16.7614 30.0203 17.7278 29.8932 18.8053 29.391L21.4583 19.4942L19.171 18.8811ZM27.3907 10.2662C27.9417 9.46384 27.6117 8.27646 26.6537 7.61424C25.6956 6.95201 24.2909 7.32986 23.7398 8.13234C23.5105 8.46632 23.2908 8.93689 23.1815 9.42025C22.9096 10.6237 24.3505 11.0286 25.5808 11.0646C26.2815 11.0851 26.8676 11.028 27.3907 10.2662ZM21.573 5.86061C22.2054 5.8638 22.7157 6.30204 22.7128 6.83943C22.712 6.98194 22.6922 7.10095 22.6571 7.203C22.278 8.30591 20.4155 8.17085 20.4218 7.00477C20.4247 6.46736 20.9406 5.8574 21.573 5.86061ZM23.0935 14.9186L24.4169 19.4702L19.6709 18.1978L23.0935 14.9186ZM18.7795 17.9588L10.3816 15.7074L14.1138 12.1314L22.5118 14.3829L20.1124 16.6817L19.446 17.3203L18.7795 17.9588ZM17.1331 21.02C17.133 20.8021 16.9563 20.6253 16.7384 20.6254L15.6446 20.6252L15.6447 19.5315C15.6447 19.3135 15.468 19.1367 15.2501 19.1367C15.0321 19.1367 14.8554 19.3134 14.8554 19.5313L14.8553 20.439L14.5988 20.1825C14.4446 20.0283 14.1947 20.0283 14.0406 20.1824C13.8865 20.3365 13.8864 20.5864 14.0406 20.7406L15.5288 22.2291C15.5796 22.2798 15.6407 22.314 15.7054 22.3313C15.8371 22.3666 15.9836 22.3326 16.087 22.2292C16.2412 22.0751 16.2412 21.8252 16.0871 21.671L15.8306 21.4145L16.7383 21.4147C16.9563 21.4147 17.1331 21.238 17.1331 21.02ZM14.4127 22.7877C14.5668 22.6336 14.8167 22.6336 14.9709 22.7878C15.125 22.9419 15.125 23.1918 14.9708 23.3459L14.2264 24.0901C14.1231 24.1934 13.9766 24.2274 13.8448 24.1921C13.7802 24.1748 13.7191 24.1407 13.6683 24.09L12.18 22.6015C12.0259 22.4473 12.0259 22.1974 12.18 22.0433C12.3342 21.8892 12.5841 21.8892 12.7382 22.0434L13.9475 23.2528L14.4127 22.7877ZM13.0914 24.6297L11.6031 23.1412C11.449 22.9869 11.1991 22.987 11.0449 23.1411C10.8908 23.2952 10.8908 23.545 11.0449 23.6992L12.5332 25.1878C12.584 25.2385 12.6451 25.2726 12.7097 25.29C12.8414 25.3252 12.988 25.2912 13.0913 25.1878C13.2455 25.0337 13.2456 24.7839 13.0914 24.6297ZM10.4836 24.2545L11.9751 25.7462C12.1292 25.9004 12.1292 26.1502 11.975 26.3045C11.8716 26.4078 11.7251 26.4419 11.5934 26.4065C11.5287 26.3892 11.4676 26.3551 11.4169 26.3044L10.6023 25.4896L10.6022 26.0252C10.6022 26.2432 10.4255 26.4198 10.2075 26.4198L9.67189 26.4197L10.4865 27.2344C10.6406 27.3886 10.6406 27.6385 10.4864 27.7926C10.383 27.896 10.2366 27.93 10.1047 27.8947C10.0401 27.8774 9.97902 27.8433 9.92824 27.7925L8.44002 26.304C8.28586 26.1498 8.28593 25.8999 8.44008 25.7458C8.51772 25.6682 8.61963 25.6301 8.72134 25.6307L9.81297 25.6305L9.81311 24.5366C9.81311 24.3186 9.98982 24.142 10.2078 24.142C10.3152 24.1419 10.4124 24.1849 10.4836 24.2545Z" fill="white"/>
</svg>
