<svg width="32" height="32" viewBox="0 0 32 32" fill="none" xmlns="http://www.w3.org/2000/svg">
<path fill-rule="evenodd" clip-rule="evenodd" d="M32 16C32 24.8366 24.8366 32 16 32C7.16344 32 0 24.8366 0 16C0 7.16344 7.16344 0 16 0C24.8366 0 32 7.16344 32 16ZM19.0097 5.66459V9.19078L22.0195 10.042V21.3501L19.0097 20.6205V24.1467L16 23.4172V26.9434L12.9903 26.2138V22.6876L9.98053 21.9581V10.6499L12.9903 11.3795V7.85327L16 8.58282V5.05663L19.0097 5.66459ZM12.3883 20.2558L16.6019 21.2285V14.5409L12.3883 13.5681V20.2558Z" fill="white"/>
</svg>
