<svg viewBox="0 0 32 32" version="1.1" xmlns="http://www.w3.org/2000/svg">
  <g fill="#FFFFFF" fill-rule="nonzero">
    <path d="M16,32 C7.163444,32 0,24.836556 0,16 C0,7.163444 7.163444,0 16,0 C24.836556,0 32,7.163444 32,16 C32,24.836556 24.836556,32 16,32 Z M15.9918854,20.9977363 C19.7632327,20.9977363 23.53458,20.9972336 27.3058772,20.9986915 C27.560451,20.998792 27.80336,20.9543004 27.933075,20.7168105 C28.0663445,20.4728857 27.9823377,20.2297652 27.8405573,20.0088655 C27.7232581,19.8261229 27.6011027,19.6465476 27.4816007,19.4650619 C26.5118672,17.993419 25.4791035,16.5591289 24.5869686,15.0414359 C23.1104905,12.5298447 21.723326,9.96526567 20.302819,7.4205948 C20.1613391,7.16716837 19.979708,6.9867384 19.678625,7.00076458 C19.3931119,7.01403667 19.2453239,7.21794415 19.1341324,7.45709304 C18.1914833,9.48530888 17.2476828,11.5129717 16.304483,13.5409362 C16.1651057,13.8406138 16.0967688,13.8494116 15.9087296,13.5861317 C14.9909121,12.3009515 14.0714425,11.0168773 13.1580306,9.72852989 C13.0008307,9.50692629 12.7906132,9.36736831 12.5436491,9.45745761 C12.3652221,9.52256121 12.1950557,9.68680326 12.0837641,9.8499393 C10.9486202,11.5128209 9.82884577,13.1862096 8.69895851,14.8527611 C8.34781184,15.3706741 8.02570211,15.9190525 7.60942258,16.3798049 C6.51713315,17.5886204 5.38153864,18.7580218 4.26006208,19.9401422 C4.06426301,20.1465131 3.92433502,20.3634915 4.04468811,20.6571867 C4.17159955,20.9670697 4.43553528,21.00025 4.72800732,20.9999986 C8.48263334,20.9966303 12.2372594,20.9978369 15.9918854,20.9977363 Z M18.3517873,19.8008859 C18.33822,19.776051 18.3360172,19.7647395 18.3299094,19.7619242 C17.6535491,19.4459079 16.977389,19.1295396 16.2990761,18.8176959 C16.2631304,18.8012063 16.190488,18.8054292 16.1669581,18.8304652 C15.8727839,19.1433144 15.5845673,19.4617439 15.2921953,19.7816313 C15.504165,19.9360198 18.1753128,19.9374777 18.3517873,19.8008859 M12.1616632,12.0874921 C12.1533526,12.0699971 12.1242156,12.008664 12.0950785,11.9473811 C12.0381561,11.9877504 11.9636613,12.0161044 11.9268145,12.0702485 C11.3020698,12.9879829 10.6807795,13.9081808 10.0636444,14.8311437 C10.0248451,14.8891085 10.0267475,14.9745224 10.0096758,15.0472173 C10.0843207,15.0316326 10.1699797,15.034649 10.2318584,14.997648 C10.7608814,14.6811289 11.2888029,14.3625989 11.8081635,14.0305454 C11.8915196,13.977256 11.9708705,13.8592651 11.9833364,13.7622884 C12.0527246,13.2235122 12.1008358,12.6819709 12.1616632,12.0874921 M25.2496115,19.8954495 C25.5498935,19.8954495 25.8501755,19.8963041 26.1505075,19.8951478 C26.3239782,19.8945445 26.389912,19.8312508 26.2802726,19.6657519 C25.7081949,18.8023123 25.1379695,17.9376159 24.5628379,17.076338 C24.5315982,17.0296846 24.4620097,17.0089721 24.4102939,16.9761438 C24.3827088,17.0309917 24.3351483,17.0842812 24.3305925,17.1410394 C24.2635572,17.9832135 24.2034308,18.8258401 24.138348,19.6682153 C24.1260323,19.827983 24.1829547,19.9007281 24.3487156,19.8973096 C24.6488974,19.8910254 24.9492795,19.89555 25.2496115,19.8954495 M5.90320221,19.830748 C6.0414781,19.8637272 6.10836318,19.8932877 6.17529833,19.8935894 C7.14923721,19.8965052 8.12322616,19.8946451 9.09716505,19.8964046 C9.2852543,19.8968068 9.33311518,19.8300442 9.25361406,19.6509716 C8.94942712,18.9662527 8.64799368,18.2801262 8.35677324,17.5897767 C8.27161492,17.3879806 8.193065,17.3977336 8.05954516,17.5400063 C7.54038477,18.0930601 7.01611788,18.6411872 6.49505507,19.1923809 C6.31322377,19.3846753 6.13504713,19.5804385 5.90320221,19.830748 M20.2984635,14.8627655 C20.3615437,14.9839738 20.3822701,15.0370621 20.4138603,15.0825089 C20.8521178,15.7127821 21.2918271,16.3421002 21.7312861,16.9715187 C22.2758788,17.7516056 22.8194703,18.5323963 23.3675675,19.3100198 C23.4051153,19.3634601 23.4763559,19.3929201 23.5319767,19.4334401 C23.5604629,19.3692415 23.6062712,19.3070034 23.6141312,19.2403414 C23.6356585,19.0579005 23.6402143,18.8735995 23.6531308,18.6901531 C23.7117553,17.8565255 23.7771886,17.0233 23.827052,16.1891695 C23.8483291,15.8342921 23.693432,15.6514993 23.3520478,15.5672417 C22.4407886,15.3422698 21.5298298,15.1159405 20.61802,14.8932812 C20.5364663,14.8733731 20.4493054,14.8763894 20.2984635,14.8627655 M20.0672694,9.33262964 C20.0392838,9.33710394 20.0113483,9.34162851 19.9834628,9.34610281 C19.9724488,9.51190332 19.9563784,9.67760329 19.9513219,9.84365517 C19.9101696,11.1975586 19.8721212,12.5515626 19.8297673,13.9054158 C19.8251614,14.0534197 19.8693176,14.1305888 20.0250657,14.1678914 C20.9703682,14.3942206 21.9128671,14.6323138 22.8575688,14.8613075 C22.9391225,14.8810648 23.0297878,14.8628157 23.1162478,14.8622124 C23.0947705,14.778357 23.0901146,14.6851508 23.0494128,14.6120538 C22.1084659,12.9205165 21.1640145,11.2308897 20.2183616,9.54196661 C20.1765584,9.4673614 20.1179839,9.40220753 20.0672694,9.33262964 M15.8287779,17.6326596 C15.8544105,17.4888787 15.8804937,17.4034145 15.8831971,17.3171962 C15.8976155,16.8659453 15.8982162,16.4140912 15.9190427,15.9631922 C15.9355637,15.6044437 15.8376392,15.2917454 15.6267209,15.0031781 C14.7600184,13.8171866 13.8976715,12.6279274 13.0359253,11.4382157 C12.9970759,11.3845241 12.9799541,11.3149965 12.9527195,11.2528087 C12.9187262,11.2729682 12.8846328,11.2931277 12.8505895,11.3132369 C12.8252573,11.4037284 12.7863578,11.492762 12.7767456,11.5848622 C12.7003484,12.3162345 12.6351655,13.0488133 12.5529609,13.7795321 C12.533336,13.9539293 12.5747386,14.0772491 12.6912368,14.2053951 C13.6676789,15.2798809 14.6379631,16.3599471 15.6114515,17.4371477 C15.6636178,17.4949114 15.7272988,17.5421178 15.8287779,17.6326596 M16.4586291,17.4077882 C16.4804068,17.4221663 16.5022346,17.4364941 16.5240123,17.4507717 C16.5838884,17.4045708 16.6547285,17.3676201 16.7020387,17.3108618 C17.5313436,16.3165112 18.3588462,15.3206021 19.1823938,14.3214253 C19.230505,14.2631085 19.265099,14.1752312 19.2673519,14.0999725 C19.3064516,12.7702504 19.3406952,11.4404277 19.3709337,10.1105045 C19.3726358,10.0373069 19.3300817,9.96305366 19.3081538,9.88925282 C19.2476769,9.94646355 19.1637701,9.99231257 19.1301273,10.0624937 C18.3660053,11.6571548 17.6365274,13.2694115 16.8359591,14.8452202 C16.4122201,15.6793506 16.4796058,16.5398743 16.4586291,17.4077882 M12.636317,19.8957511 C13.1616853,19.8957511 13.6872538,19.9032921 14.2122216,19.8895675 C14.3216608,19.8867019 14.4574836,19.8328092 14.532529,19.7551374 C14.898094,19.3769835 15.2402793,18.9762068 15.6054939,18.5977513 C15.7411665,18.4572381 15.7114286,18.3711706 15.5954311,18.2466443 C14.9807992,17.5867603 14.36822,16.9248151 13.7644019,16.2549267 C13.6187166,16.0932486 13.5344094,16.0935502 13.4033427,16.2704611 C12.5730865,17.3912484 11.733819,18.5052991 10.9002086,19.6236734 C10.8587559,19.6792251 10.8427855,19.7540314 10.8149001,19.8199393 C10.8883435,19.8451764 10.9615366,19.8914276 11.0352804,19.8922823 C11.5689092,19.8985664 12.1026381,19.8956506 12.636317,19.8957511 M13.180309,15.6248043 C12.8903401,15.2924492 12.6051774,14.9779913 12.3355344,14.6506132 C12.2226408,14.5135689 12.1345287,14.4989394 11.9820848,14.5936036 C11.0698744,15.1600803 10.1483522,15.7114248 9.23819444,16.2810687 C9.07363512,16.3840782 8.94387005,16.5452033 8.80444269,16.6859175 C8.67462756,16.8168286 8.69159915,16.9619166 8.76278971,17.1227903 C9.11699027,17.9229864 9.46348101,18.7265005 9.81392679,19.5284059 C9.94614498,19.8308486 9.99710981,19.8359262 10.2012194,19.5665129 C10.7403552,18.8548476 11.2783396,18.1421769 11.8166243,17.4298581 C12.268399,16.832011 12.7200735,16.2340131 13.180309,15.6248043 M19.5021005,14.7768488 C19.4304093,14.8897118 19.3967665,14.9579323 19.3495064,15.0147911 C18.4845561,16.0550411 17.6200565,17.0955926 16.7497494,18.1313682 C16.6075686,18.300537 16.680211,18.366445 16.8409654,18.4390895 C17.841338,18.8914464 18.8383061,19.3514951 19.8399803,19.8008859 C19.9650394,19.8569403 20.1111252,19.8902211 20.2478491,19.8916287 C21.0730989,19.8998735 21.8984988,19.897209 22.7237986,19.8932877 C22.8012972,19.8928855 22.8786456,19.8584988 22.9560941,19.839948 C22.9279583,19.7595614 22.9160432,19.6678634 22.8692837,19.6004975 C22.1084158,18.5027352 21.3434428,17.4078888 20.5786699,16.3129418 C20.2402394,15.8282593 19.9002069,15.3447332 19.5021005,14.7768488"></path>
  </g>
</svg>
