<svg width="32" height="32" viewBox="0 0 32 32" fill="none" xmlns="http://www.w3.org/2000/svg">
<g clip-path="url(#clip0)">
<path fill-rule="evenodd" clip-rule="evenodd" d="M12.125 31.5209C20.7 33.6584 29.3792 28.4418 31.5167 19.8709C33.6542 11.3001 28.4375 2.61676 19.8625 0.479263C11.2958 -1.65824 2.61249 3.55843 0.479156 12.1293C-1.65835 20.7001 3.55416 29.3834 12.125 31.5209ZM25.4042 16.6541L25.6042 16.9749C26.55 18.4749 26.1083 20.5166 24.6292 21.4416C24.1375 21.7458 23.5709 21.9083 22.9959 21.9041C21.8584 21.9041 20.8042 21.3249 20.1917 20.3666L19.4542 19.1999L18.5917 20.5416C18.3834 20.8208 18.1292 21.0666 17.8458 21.2666L17.7875 21.3041L17.725 21.3458C17.2084 21.6874 16.6 21.8666 15.9792 21.8708C15.3917 21.8708 14.8167 21.6999 14.325 21.3833C14.2667 21.3458 14.2167 21.3124 14.1667 21.2749H14.1583C14.0834 21.2208 14.0125 21.1583 13.9417 21.0958L13.9417 21.0958C13.6875 20.8666 13.4542 20.6041 13.2584 20.3208L12.525 19.1791L11.7667 20.3791C11.1625 21.3416 10.1084 21.9208 8.97085 21.9249C8.39168 21.9291 7.82502 21.7666 7.33335 21.4583C6.61252 20.9999 6.10835 20.2666 5.94585 19.4291C5.77085 18.5916 5.92918 17.7166 6.38335 16.9916L7.37918 15.4208L9.75418 11.6541C9.85419 11.475 9.97502 11.3083 10.1125 11.1541C10.6 10.6375 11.2334 10.2875 11.925 10.15C12.6459 10.025 13.3834 10.1416 14.0209 10.4875C14.4459 10.7375 14.8167 11.0708 15.1125 11.4666V11.4791L15.1459 11.525L16.0209 12.8749C16.2959 12.4375 16.5667 11.9916 16.7833 11.6333C17.2125 10.8958 17.9209 10.3666 18.75 10.1666C19.5875 9.95829 20.4792 10.1041 21.2084 10.5666C21.6 10.825 21.9333 11.1625 22.1875 11.5583L25.4042 16.6541ZM10.5167 11.5125C10.4042 11.6416 10.3042 11.7791 10.2167 11.9291L8.56252 14.5291L8.71252 14.4958H8.72502L8.86668 14.4749H8.88752H9.03335H9.07502H9.20418H9.26252H9.30418H9.33752H9.38335L9.46252 14.5041H9.50418L9.58752 14.5249L9.62918 14.5333L9.73335 14.5666H9.73752L9.82085 14.5999L9.86668 14.6208L9.90835 14.6499L9.99585 14.6916L10.0292 14.7124L10.0959 14.7499H10.1167L10.1417 14.7624L10.2125 14.8083H10.225L10.25 14.8249L10.3 14.8624L10.3292 14.8833L10.35 14.8999L10.4459 14.9791L10.4667 14.9999L10.4875 15.0208L10.5209 15.0541L10.5417 15.0749L10.6125 15.1374L10.6709 15.2041L10.6917 15.2249L10.7292 15.2583L10.7833 15.3041L10.85 15.3583L10.9209 15.4166L11.0042 15.4749L11.0917 15.5333L11.1917 15.5916C11.8209 15.9291 12.55 16.0083 13.2334 15.8083H13.2667C13.9209 15.6374 14.4875 15.2249 14.8584 14.6583C14.8584 14.6508 15.002 14.4376 15.2191 14.1154C15.3624 13.9027 15.5378 13.6425 15.725 13.3624L14.7167 11.8125L14.6959 11.7833C14.4459 11.4458 14.1292 11.1583 13.7667 10.9416C13.2334 10.6541 12.6209 10.5541 12.0209 10.6625C11.4459 10.7875 10.9167 11.0833 10.5167 11.5125ZM9.65835 21.3166C10.3542 21.1416 10.9584 20.7083 11.3458 20.0999L12.2542 18.6999L10.1959 15.3916L10.1709 15.3624L10.1542 15.3416L10.1417 15.3291L10.0959 15.2833H10.0875L10.0125 15.2166H10L9.96668 15.1958L9.93752 15.1749H9.92502H9.90835L9.85835 15.1416L9.82502 15.1208H9.80835L9.77502 15.0999L9.74168 15.0833H9.72085L9.68335 15.0624L9.65835 15.0541L9.57085 15.0208H9.54585L9.49168 14.9999H9.46668H9.45002L9.40418 14.9916H9.37918H9.32085H9.28752H9.22085H9.18752H9.08752C8.71252 14.9916 8.35002 15.1374 8.07918 15.3958C7.98752 15.4874 7.90835 15.5833 7.83752 15.6916L6.84585 17.2624C6.05418 18.5291 6.41668 20.2416 7.63752 21.0083C8.23752 21.3874 8.97085 21.4958 9.65835 21.3166ZM17.55 20.8541C17.8 20.6791 18.0084 20.4666 18.1875 20.2249L19.3542 18.4416L20.2542 17.0291C20.6334 16.4041 21.225 15.9333 21.9167 15.6958C22.0208 15.6624 22.1209 15.6333 22.225 15.6083C22.3042 15.5874 22.3792 15.5749 22.4542 15.5624H22.5C22.5709 15.5458 22.6459 15.5374 22.7167 15.5374H22.7625H22.9792H22.9875C23.0542 15.5458 23.1292 15.5458 23.2042 15.5458H23.2459C23.2609 15.5477 23.2765 15.5495 23.2925 15.5515C23.3477 15.5581 23.4076 15.5653 23.4625 15.5749H23.4959L23.5118 15.5778C23.5779 15.5894 23.647 15.6015 23.7125 15.6208H23.7333C23.7464 15.6246 23.7596 15.6284 23.7728 15.6323C23.8316 15.6494 23.8922 15.667 23.95 15.6874L23.9875 15.6999C24.0625 15.7249 24.1334 15.7499 24.2042 15.7833L21.7292 11.8583C21.5125 11.5291 21.2333 11.2416 20.9083 11.025C20.2958 10.6375 19.5583 10.5208 18.8542 10.6916C18.1667 10.8541 17.5709 11.3 17.2167 11.9125C16.95 12.3708 16.575 12.9666 16.225 13.5124C15.7334 14.2791 15.2833 14.9583 15.2833 14.9583C15.0084 15.3874 14.6334 15.7416 14.1917 15.9958C14.1583 16.0124 14.1271 16.0291 14.0958 16.0458C14.0646 16.0625 14.0333 16.0791 14 16.0958H13.975C13.7375 16.2208 13.4875 16.3166 13.2292 16.3833C13.1625 16.4041 13.0875 16.4166 13.0126 16.4291L13.0125 16.4291H12.9417L12.7833 16.4499H12.7H12.5375H12.45H12.2334H12.2084L12.0167 16.4291L11.9375 16.4166L11.7917 16.3916L11.7 16.3666L11.5625 16.3333L11.4834 16.3083L11.3458 16.2624L11.2959 16.2416L12.7542 18.5624L13.7 20.0541C13.8708 20.2999 14.0709 20.5249 14.2917 20.7249C14.3373 20.7673 14.3855 20.8046 14.4322 20.8407C14.4452 20.8508 14.4581 20.8608 14.4708 20.8708H14.4875L14.6209 20.9624C15.4875 21.5083 16.5959 21.4958 17.4459 20.9249L17.5042 20.8874L17.55 20.8541ZM20.6583 20.0791C21.45 21.3416 23.15 21.7583 24.3709 20.9916C25.5917 20.2249 25.95 18.5124 25.15 17.2333L24.9625 16.9333L24.9417 16.9124C24.9292 16.8986 24.9167 16.8842 24.9042 16.8699C24.8792 16.8412 24.8542 16.8124 24.8292 16.7874L24.8084 16.7666C24.7209 16.6791 24.6209 16.5958 24.5167 16.5208L24.4833 16.4999C24.4667 16.4888 24.4523 16.4791 24.438 16.4694C24.4093 16.4499 24.3806 16.4305 24.3333 16.3999C24.2625 16.3541 24.1875 16.3166 24.1167 16.2833H24.0958L24.0208 16.2499L23.975 16.2291L23.9208 16.2083L23.85 16.1791H23.8209L23.7208 16.1458C22.6167 15.8083 21.4125 16.2249 20.7542 17.1791L20.6833 17.2916L19.7833 18.7041L20.6583 20.0791Z" fill="white"/>
</g>
<defs>
<clipPath id="clip0">
<rect width="31.9958" height="32" fill="white"/>
</clipPath>
</defs>
</svg>
