<svg width="32" height="32" viewBox="0 0 32 32" fill="none" xmlns="http://www.w3.org/2000/svg">
<path fill-rule="evenodd" clip-rule="evenodd" d="M32 16C32 24.8366 24.8366 32 16 32C7.16344 32 0 24.8366 0 16C0 7.16344 7.16344 0 16 0C24.8366 0 32 7.16344 32 16ZM16 25.9794C21.5115 25.9794 25.9794 21.5115 25.9794 16C25.9794 10.4885 21.5115 6.02062 16 6.02062C10.4885 6.02062 6.02062 10.4885 6.02062 16C6.02062 21.5115 10.4885 25.9794 16 25.9794ZM16 27C22.0751 27 27 22.0751 27 16C27 9.92487 22.0751 5 16 5C9.92487 5 5 9.92487 5 16C5 22.0751 9.92487 27 16 27ZM13.0062 20.8196H10.9649V17.5876H8.64021V16.6804H10.9649V15.6598H8.64021V14.7526H10.9649V11.1237H13.233L15.7845 15.2062L18.3361 11.1237H20.6041V14.7526H22.9289V15.6598H20.6041V16.6804H22.9289V17.6443H20.6041V20.8196H18.5062V14.5825L15.7278 18.7216L13.0062 14.5825V20.8196Z" fill="white"/>
</svg>
