<svg height="32" viewBox="0 0 32 32" width="32" xmlns="http://www.w3.org/2000/svg"><path d="m16 32c-8.836556 0-16-7.163444-16-16s7.163444-16 16-16 16 7.163444 16 16-7.163444 16-16 16zm7.529471-18.5864274-1.4236775-6.4135726-2.7969774 4.4136848c-2.1743073-.5249579-4.4423174-.5249579-6.6166247 0l-2.79093195-4.4136848-1.42871537 6.4135726c-1.53652393 1.2286035-2.47254408 2.8337634-2.47254408 4.595401 0 3.8594504 4.4755668 6.9890073 9.9969773 6.9890073 5.5214106 0 9.9969774-3.1295569 9.9969774-6.9890073-.0010076-1.7616376-.9299749-3.3667975-2.4644837-4.595401zm-13.0861461 2.9377454h-.66599493l1.62619643-1.8767246h1.1848867zm5.5032746 4.5832866-2.7657431-4.8720135.6831234-.3896803.6166247 1.0852496h3.0216625l.6438287-1.0902972.6760705.4017947zm5.6130982-4.5832866-2.1460957-1.8767246h1.1919396l1.6251889 1.8767246zm-5.6 3.01447 1.075063-1.8191812h-2.1078086z" fill="#fff"/></svg>