<svg height="32" viewBox="0 0 32 32" width="32" xmlns="http://www.w3.org/2000/svg"><g fill="#fff"><path d="m16 32c-8.836556 0-16-7.163444-16-16s7.163444-16 16-16 16 7.163444 16 16-7.163444 16-16 16zm8.99937-12.101075.00063-10.34006387c-2.025-1.13253922-4.61511-.46045904-5.78439 1.50104587l-3.2182183 5.3984449-3.2130017-5.3896418c-1.16928-1.96150499-3.75939-2.63358517-5.78439-1.50113311v10.33134801c0 2.2649913 1.89585 4.101075 4.2345 4.101075v-7.3291378l1.22931 2.0621419c.50508.7406159.97719 1.1662696 1.41633 1.276961l.22041.1232423c.5894117.2869313 1.2401205.4359273 1.89981.4350088 1.47753 0 2.77821-.7330041 3.53583-1.843928l1.22868-2.061085v7.3367968c2.33865 0 4.2345-1.8360837 4.2345-4.101075z"/><g transform="translate(7 9)"><path d="m0 .56757699 4.2345 7.10328525v7.32913776c-2.33865 0-4.2345-1.8360837-4.2345-4.101075z" fill-opacity=".5"/><path d="m13.76487 7.66320318 4.2319086-7.09893822h.0025914v10.33466004c0 2.2649913-1.89585 4.101075-4.2345 4.101075z" fill-opacity=".6"/><path d="m8.99739174 7.45835186-2.11725174 3.55161324c-.43914-.1106914-.91125-.5363451-1.41633-1.27696103l-5.46381-9.16542708c2.025-1.13245206 4.61511-.46037188 5.78439 1.50113306z" fill-opacity=".805"/></g></g></svg>