<svg height="32" viewBox="0 0 32 32" width="32" xmlns="http://www.w3.org/2000/svg"><path d="m16 32c-8.836556 0-16-7.163444-16-16s7.163444-16 16-16 16 7.163444 16 16-7.163444 16-16 16zm.8112203-20.4330221c.978768-.6417631 2.0401783-.9626447 3.1842308-.9626447 1.8498863 0 4.3669447 1.1333363 4.3669447 6.0346479 0 2.2450048-.8094313 3.9118185-2.4282928 5.0004425-.0925543.0622392-.1156064.1855255-.0514882.2753675.0458208.0642039.1262586.096241.2053306.0817799 1.0462472-.1913425 3.9120546-1.8354046 3.9120546-6.0935225 0-3.2007322-1.4859742-6.54980082-4.2304776-6.54980082-1.7915047 0-3.5442438.58795986-5.2582176 1.76387952-.8963636-1.41141812-2.1863335-2.1171272-3.8699098-2.1171272-2.75208492 0-6.641395 2.6052017-6.641395 7.1238283 0 2.058005.54081375 3.8880243 1.62244124 5.4900577l1.37983321-1.6043332c-.79858479-1.216742-1.19787718-2.6984198-1.19787718-4.4450334 0-2.6199203 1.95602729-5.2545592 4.42759663-5.2545592 1.2894472 0 2.300314.396611 3.0326005 1.189833v1.9305215h-1.4859742l-1.0007582 1.148055h2.4867324v1.442428h-.7884761l-.9704322 1.148055h1.7589083v4.6805318l1.2736922-1.7368011v-2.9437307h.7884761l.7581501-1.148055h-1.5466262v-1.442428h1.4859742l1.0007582-1.148055h-2.2137984v-1.863337z" fill="#fff" fill-rule="evenodd"/></svg>