<svg height="32" viewBox="0 0 32 32" width="32" xmlns="http://www.w3.org/2000/svg"><path d="m16 32c-8.836556 0-16-7.163444-16-16s7.163444-16 16-16 16 7.163444 16 16-7.163444 16-16 16zm8.9497751-21c-.8575712 0-1.5832084.6926537-1.5832084 1.5832084 0 1.2533733-.197901 1.5832084-1.5832084 1.5832084h-.131934c-.7916042.065967-1.4182909.7256372-1.4182909 1.5502249v.0329835c0 1.2203898-.2308845 1.5172414-1.5832084 1.5172414-.065967 0-.131934 0-.1649175.0329835-.7916042.0989505-1.4182909.7586207-1.4182909 1.5502249 0 .8575712.6926537 1.5832084 1.5832084 1.5832084.8245877 0 1.5172414-.6596702 1.5502249-1.4512744v-.131934c0-1.1214393.3628186-1.5502249 1.5502249-1.5832084h.0329835c.8245877 0 1.5172414-.6596702 1.5502249-1.4842579v-.0989505c0-1.1544228.3628186-1.5832084 1.5832084-1.5832084.8575712 0 1.5832084-.6926537 1.5832084-1.5832084 0-.8245877-.6926537-1.5172414-1.5502249-1.5172414zm-9.3013493 3.1664168h-.131934c-1.3853074 0-1.5832084-.3298351-1.5832084-1.5832084 0-.8575712-.6926537-1.5832084-1.5832084-1.5832084-.8575713 0-1.5832084.6926537-1.5832084 1.5832084 0 1.2533733-.1979011 1.5502249-1.58320843 1.5502249h-.13193403c-.7916042.065967-1.41829086.7256372-1.41829086 1.5502249 0 .8575712.69265368 1.5832084 1.5832084 1.5832084.82458772 0 1.51724142-.6596702 1.55022492-1.4512744v-.0989505c0-1.1544228.3628186-1.5832084 1.5832084-1.5832084s1.5832084.4287856 1.5832084 1.5502249c0 .8575712.6926536 1.5832084 1.5832084 1.5832084.8905547 0 1.5832083-.6926537 1.5832083-1.5832084-.0329835-.7916042-.6596701-1.4512744-1.4512743-1.5172414zm-9.5652174 6.2668666c.87438185 0 1.58320839-.7088266 1.58320839-1.5832084 0-.8743819-.70882654-1.5832084-1.58320839-1.5832084-.87438186 0-1.5832084.7088265-1.5832084 1.5832084 0 .8743818.70882654 1.5832084 1.5832084 1.5832084z" fill="#fff"/></svg>