<svg height="32" viewBox="0 0 32 32" width="32" xmlns="http://www.w3.org/2000/svg"><path d="m16 32c-8.836556 0-16-7.163444-16-16s7.163444-16 16-16 16 7.163444 16 16-7.163444 16-16 16zm10.3105819-13.5253703c-.1760093-.0770675-.3957158.0366632-.4906778.2546469-.0671325.1531373-.0532178.3167498.0212383.4272381l-2.2500382 3.9765818c-.0781178-.0104751-.161118.0007483-.2416771.0336703l-1.4908303-1.5176556c.0080559-.0391572.0129383-.0785639.0129383-.1202153 0-.2344447-.1386592-.434471-.3373715-.521016v-9.7938043c.0922767-.0401549.1718593-.1059989.2309359-.188304l3.6688536 1.9660935c.0039059.0159622.0073236.0319244.0117177.0488842.0673766.2282095.2702389.3656341.4528394.3065241.1821122-.0586112.2760978-.2915595.2087211-.5202678-.0617619-.209005-.2360623-.3409425-.4059687-.3172487l-1.7830399-3.48150434c.0024412-.00374114.0051265-.00648465.0073236-.00972697.1298709-.18955106.0488236-.47537412-.1801593-.63923603-.1474475-.10525072-.3202832-.13393279-.4589424-.09028616l-1.2164414-.8180625c-.0195294-.16685482-.1215709-.32971909-.2863507-.42798635-.1530622-.0912838-.3263862-.10699659-.472613-.05761355l-2.8259132-1.61218169c-.0393031-.1743371-.2048153-.32473091-.4242776-.36363876-.241433-.0428984-.4662659.06285114-.5451161.24317406l-6.1185806 1.11211606c-.1191297-.08754266-.2939184-.11672355-.4689512-.06285114-.2507095.07881334-.4108511.30153584-.3737451.51178788l-4.25278458 4.45619589c-.18919166-.0114728-.38277746.1364269-.4621159.368627-.06615605.1932922-.03320009.3913231.06908547.5165266l-.23825944 5.6867814c-.12767386.1042531-.19578286.2995406-.1616063.5063009.03979128.2302048.19212109.4035442.36837448.4384615l1.62070127 3.7571017c-.06615606.1723418-.00341766.3993043.16892985.5549357.1389033.1257022.31418023.1728406.45967472.1399186l3.93860433 2.8422683c-.0100088.2075086.1640475.4080336.4154893.4629037.1725916.038409.3395685-.0019953.451863-.0935285l5.097922.3564059c.0976473.1449068.3014861.2234707.5163102.1825676.2016417-.0376608.357145-.1690995.4096304-.3262274l4.3387142-2.5978472c.1415886.0147151.3029508-.0423996.42916-.1673537.1484239-.1466526.2057917-.3471777.1616063-.5082961l2.2251381-4.1030323c.1376827-.0134682.2758537-.1172224.3454274-.2773432.094962-.2177343.0300265-.4569178-.1457386-.5344841zm.0029294.4753741c-.0383266.0872933-.1262092.1329352-.1955388.1015096-.0712825-.0314256-.0966708-.1266999-.0588325-.2139932.0378384-.086545.1259651-.1319375.1962711-.101759.0698179.0311762.0966709.1266999.0581002.2142426zm-2.6647952 4.7923997c-.0800708.0800603-.1962711.0902861-.2597418.0241927-.0624943-.0658441-.0483354-.1845629.031003-.2641245.0810473-.079811.1970035-.0902862.2602301-.0241927s.0485795.1845629-.0314913.2641245zm-.6283604-.2499082-3.9742456 1.3737464c-.0510207-.0568653-.1162003-.1035048-.1904123-.1354292l-.1860181-2.7065897c.099112-.0566159.1791828-.1434103.2294712-.2491599h1.9192579c.0895914.1900499.2785389.320491.4982454.320491.105215 0 .2023741-.030428.2856184-.0818063l1.4290684 1.4543056c-.0036618.0082305-.0078118.0162116-.0109853.0244421zm-4.1683197 2.7854031c-.0295383-.0269362-.0644472-.0501313-.1020414-.0685876l.0956944-.5639144c.156968-.0648464.274633-.193791.3129596-.3509189l3.159867-1.0924127zm-.3254096.5382252c-.1100974.020701-.2128712-.0359149-.2294712-.1266999-.0166001-.0915332.059809-.1820688.169174-.2017721.1103414-.0211998.2133593.0356655.2297153.1262011.0163559.0915332-.0595649.1820688-.1694181.2022709zm-.503616-.3978078-3.8082452-.2653715 3.9779074-.6422289c.0576119.0621029.1296268.1107377.2136035.1424127l-.0915444.5349829c-.1298709.0443949-.2336212.1284458-.2917213.2302048zm-3.7213391-4.3364794c.0627384-.0144658.1205944-.0391573.1735681-.0728276l3.5485033 3.0802049-5.0158983.8095825zm-1.6646426 3.5550801-1.256965-3.781045c.0170883-.0256891.0332001-.0531242.0466266-.0808086h2.2566294c.0419883.0902862.1071679.1673537.1872387.2229719zm-.1530621.7352586c-.1098532-.0244421-.1826005-.1164742-.1635593-.2072591.018553-.0905356.1232798-.1439092.2324006-.1204647.1098533.0244421.1823564.1169729.1633152.2072591-.018553.0905356-.1230357.1441586-.2321565.1204647zm-4.08727239-3.4126674c.00707943-.037162.00952061-.0758205.00659119-.1149777l2.1230967-.9245603c.1013091.1074954.2431418.1755842.4008422.1755842.0244118 0 .0490678-.0022447.072259-.005487l1.2030149 3.6154371zm-.35543622-.5970859-.94327304-4.6479917 3.37566755 3.4889867c-.0588325.0857968-.0947179.1893017-.0996002.3012864l-2.18339392.9502495c-.04735895-.0389079-.09764731-.0700841-.14940039-.0925309zm-.02343535.6085587c-.05980898.0698346-.17649752.0640982-.26047421-.0114728-.08397669-.0748228-.10301791-.192544-.04320894-.262628.06029722-.0690864.17649752-.06335.26047421.012221.08397669.0755711.10252968.1935417.04320894.2618798zm-1.78963112-4.3329877c.0800708-.1097401.11668854-.2663692.08910317-.4307299-.00341765-.020701-.0080559-.0409031-.01318238-.0606064l.30710079-.6537018.7784932 3.8381597zm-.02856184-4.3399712.16087395 2.2027829c-.05395014.0850486-.08568552.1880546-.08568552.2995406 0 .0945261.022703.1833158.0627384.2596351l-.27805072.5901024zm-.20017699-2.6512208c.03710598-.1077448.13572977-.1700972.22141528-.1401681.08568552.0306774.1254768.1429116.08837082.2506564-.03686186.108493-.13548564.1708454-.22141528.1406668-.08495316-.0306773-.1254768-.1429115-.08837082-.2511551zm.84416102 5.1535443c0 .1147283-.08251198.2067603-.18260048.2067603-.10130908 0-.18382106-.092032-.18382106-.2067603 0-.1144789.08251198-.2067603.18382106-.2067603.1000885 0 .18260048.0922814.18260048.2067603zm-.22995942-4.886427c.01367062-.0394066.02221476-.0793121.0280736-.1187188l1.9043667-1.2931872-1.77913402 5.6291678-.29025664-3.9900499c.05810015-.0601076.10692381-.1371751.13695036-.2272119zm3.02682256-3.58525862-.74309605 1.2098845c-.1081444.02444211-.21653291.08779207-.30246255.1878052-.07933844.09228144-.12767386.20052507-.14183272.30627462l-1.24671206.8462457zm1.25305915-1.20639277c.0854414.01496455.1801593.01022578.2736566-.01895511.1332886-.04165135.2419212-.12420583.3078331-.22421896l3.2682556.7242846c.0151353.09677081.0534619.18456288.109365.25838803l-1.0694822 2.27511163c-.1723475.0354161-.3149126.1523891-.3891246.3092675h-1.9673492c-.0905679-.1890522-.2795154-.3197427-.499466-.3197427-.1562357 0-.2961155.0655946-.3969363.1715936l-1.17494131-.36089527c.00585884-.08405093-.01000885-.16510895-.0480913-.2334471zm.0581001-.65370177c.1079003-.03317144.2153124.01147283.2416771.10026254.026853.0885403-.039303.18705697-.1459827.22022841-.1066797.03317143-.2148241-.01122342-.241433-.09951431-.0263648-.08903912.0393031-.18730639.1457386-.22097664zm6.2482074-.76319245-1.7266486 1.27572855c-.0571237-.02045156-.1188856-.03167498-.1828446-.03167498-.1804034 0-.340545.08804149-.4416099.22496719l-2.5810626-.57164611zm.6051692.09702022c.0363737.01421633.0744561.02543974.1149797.0324232.1640475.02893148.319795-.0107246.4284276-.09527435l2.6738276 1.52463904c-.0034177.01271987-.0075677.02494093-.0112295.03741139l-5.0449484-.13991861zm.2380154-.61903388c.1096091.01970333.1865063.10924127.1711269.20027567-.0158677.0912838-.1181533.14939616-.2280065.12969283-.1103415-.01945392-.1862622-.10949068-.1716152-.20027567.0156236-.09178262.1176651-.14914676.2284948-.12969283zm3.2331025 2.72504598-.1916329 2.27087169c-.1162003.05487-.2099417.1493961-.2660889.2668679h-2.2566294c-.0905679-.1890522-.2795154-.3197427-.4987336-.3197427-.0419884 0-.0830003.0049882-.1220592.0142163l-2.1240731-2.44870046c.0100088-.02893148.0166-.06010764.0209941-.09153321l5.2627019.14590444c.0456501.06285114.1047268.11822001.1755211.16211604zm.0405236 2.55769239c.1225474 0 .2221476.1015095.2221476.2264636s-.0996002.2259648-.2221476.2259648c-.1220591 0-.2211712-.1010107-.2211712-.2259648s.0991121-.2264636.2211712-.2264636zm.0981355-3.20017074c.0549267-.09627199.1855299-.12320819.2912332-.06035705.1059473.06359937.146715.19279339.0917884.28856656-.0551707.0965214-.1855299.1234576-.2907448.06010764-.1064356-.06260173-.1472034-.19229457-.0922768-.28831715zm3.915169 5.31790504-3.4606207-1.9379102c-.0173324-.218732-.1572122-.4022972-.3493333-.4801129l.1828446-2.16836447zm-2.2932471-3.9970334c-.0197736.16735364.0683531.3569047.2392359.47861644.0937414.06684169.1972476.10225781.2961155.10899186l1.2782033 2.2858362-2.6272009-3.41965086zm.3808245-.05661591c.051509-.07582043.1677093-.08430034.259986-.01895511.0915443.06509583.123768.17982411.0710384.25564453-.0517531.07606984-.1681975.08454975-.2597418.0187057-.0917885-.06534524-.1240121-.17957469-.0712826-.25539512zm-5.5712674 2.16237861c0-.1222106.0959385-.2217249.2167771-.2217249.1193738 0 .2172652.0995143.2172652.2217249 0 .12246-.0978914.2214755-.2172652.2214755-.1208386 0-.2167771-.0990155-.2167771-.2214755zm.119618 4.7736939c.1230356 0 .2214153.1010108.2214153.2257155 0 .124954-.0983797.226713-.2214153.226713-.1223033 0-.2214153-.101759-.2214153-.226713 0-.1247047.099112-.2257155.2214153-.2257155zm-2.8969517-8.02424527c0-.12545288.0991121-.22671306.2214153-.22671306.1223033 0 .2219035.10126018.2219035.22671306 0 .12495405-.0996002.22596482-.2219035.22596482-.1223032 0-.2214153-.10101077-.2214153-.22596482zm.1618505.63674193c.0200177.00199528.0388148.00349173.0595648.00349173.0854414 0 .1657563-.02070097.2394801-.05586768l2.0591377 2.37387769c-.051509.085298-.0805591.1853111-.0805591.2923077 0 .2341953.1389033.4352192.3378597.5215148v3.925453c-.0334442.0072328-.0651796.0179574-.0959385.0306773l-3.3805499-4.1900762c.0485795-.0843003.0771414-.1825676.0771414-.2875689 0-.1885534-.0905679-.3554083-.2302036-.4584143zm-1.56016 2.61380944c0-.1249541.0998444-.2264636.2221477-.2264636.1215709 0 .2214153.1015095.2214153.2264636s-.0998444.2259648-.2214153.2259648c-.1223033 0-.2221477-.1010107-.2221477-.2259648zm-2.95969 0c0-.1222106.0961826-.2217249.2162888-.2217249s.216777.0995143.216777.2217249c0 .12246-.0966708.2214755-.216777.2214755s-.2162888-.0990155-.2162888-.2214755zm.2162888 10.6103703c.1230356 0 .2214153.1010108.2214153.2259648 0 .1249541-.0983797.2257155-.2214153.2257155-.1223033 0-.2211712-.1007614-.2211712-.2257155 0-.124954.0988679-.2259648.2211712-.2259648zm-2.19633217-11.46035719c.07494431-.08529798.18943579-.10525072.25730067-.04364663.06762076.06085587.06298252.17982411-.0107412.26537152-.0747002.0862956-.18943579.1055001-.25705655.0448936-.068109-.0613546-.0627384-.18032287.01049708-.26661849zm-1.62509539 6.65897879 1.91999028-6.0766081c.0441854-.0224468.08715022-.0516277.12645326-.0872932l1.22181202.3751115c.0080559.2257155.1432974.4175112.3368832.5013127v9.6027568l-3.60196522-3.7216855c.05224131-.0833027.0815355-.1848123.0815355-.2948018 0-.111486-.03100302-.214492-.08470904-.2987924zm11.29413226 4.4611841c-.0493119 0-.0971591.0074823-.1430533.0189551l-3.4835679-4.3297454c.0224589-.0613546.035153-.1274481.035153-.1960357 0-.3127592-.24778-.5666579-.5546367-.5666579-.3058802 0-.5543926.2538987-.5543926.5666579 0 .2042663.1061914.3830927.2656007.4828564v4.0691127c-.1398798.0606065-.2494889.1785771-.3029508.3237333h-2.2153734c-.053706-.1451562-.1633151-.2631268-.3027067-.3237333v-9.7938043c.1393916-.0606064.2490007-.1783276.3027067-.3244815h1.9265815c.0786061.2157391.2812242.3693752.5194837.3693752.0432089 0 .0864178-.0052376.1271856-.0154634l3.428153 4.2489368c-.0236795.0621029-.0358854.1294434-.0358854.1995275 0 .3130086.2480242.5669073.5536603.5669073.3063684 0 .5548808-.2538987.5548808-.5669073 0-.1940405-.0954502-.3646364-.2404565-.4671437v-4.0107509c.1389033-.0606064.2482683-.1783276.3019743-.3244815h2.2158617c.0522413.1461539.1623386.2638751.3019743.3244815v9.7938043c-.1396357.0606065-.249733.1785771-.3019743.3237333h-1.8784902c-.0781178-.2147414-.280736-.3688764-.5197278-.3688764zm.2409447 4.0464165c.1223033 0 .2219035.0905355.2219035.2020215s-.0996002.2012733-.2219035.2012733c-.1213268 0-.2206829-.0897873-.2206829-.2012733s.0993561-.2020215.2206829-.2020215zm-.4621159-3.4802574c0-.124954.099112-.2259648.2211712-.2259648.1227915 0 .2216594.1010108.2216594.2259648 0 .1249541-.0988679.2257155-.2216594.2257155-.1220592 0-.2211712-.1007614-.2211712-.2257155zm-4.1465931-5.0729851c0-.1254528.1000885-.2262142.2216594-.2262142.1223033 0 .2216594.1007614.2216594.2262142 0 .1249541-.0993561.2257155-.2216594.2257155-.1215709 0-.2216594-.1007614-.2216594-.2257155zm.1494004 4.8470203c.1225474 0 .2214153.1010108.2214153.2259648 0 .1249541-.0988679.2257155-.2214153.2257155-.1223033 0-.2214153-.1007614-.2214153-.2257155 0-.124954.099112-.2259648.2214153-.2259648zm.216777-.2950512v-4.0062615c.0256325-.0064847.0507766-.015214.0744561-.0254398l3.4423119 4.2793648c-.0441854.0805592-.0688414.1735888-.0688414.2733525 0 .2546469.1645357.4708848.390101.5422159l.1838211 2.6439879c-.0366177.0127199-.0710384.0284327-.103262.0473878l-3.5924446-3.1178656c.0080559-.0381597.0119617-.0763193.0119617-.115726 0-.2344447-.1389033-.434471-.3381038-.521016zm7.1404597.521016c0 .1249541-.0996002.2257155-.2221476.2257155-.1220591 0-.2211712-.1007614-.2211712-.2257155 0-.124954.0991121-.2259648.2211712-.2259648.1225474 0 .2221476.1010108.2221476.2259648zm-15.71218485-3.0225912c-.08910317.0162116-.1762534-.0623524-.19505051-.1753348-.01904122-.112733.03759422-.2167366.12718563-.2319506.08934729-.0162116.17674163.0628511.1962711.1758335.0187971.1122342-.03881481.2162379-.12840622.2314519zm19.97375775-5.7137176c.0729913-.0229457.1542827.0314256.1804034.1232082.0270971.0915332-.0100089.1848123-.0830002.2082567-.0729914.0234445-.1535504-.0316749-.1811358-.1227093-.0270971-.0917827.0109853-.1850617.0837326-.2087556z" fill="#fff"/></svg>