<svg height="32" viewBox="0 0 32 32" width="32" xmlns="http://www.w3.org/2000/svg"><path d="M16 32C7.163 32 0 24.837 0 16S7.163 0 16 0s16 7.163 16 16-7.163 16-16 16zm10.31-13.525c-.175-.077-.395.036-.49.254a.45.45 0 00.021.428l-2.25 3.976a.473.473 0 00-.242.034l-1.49-1.518a.566.566 0 00-.324-.641v-9.794a.562.562 0 00.23-.188l3.669 1.966.012.049c.067.228.27.365.453.306.182-.058.276-.291.208-.52-.062-.209-.236-.34-.406-.317l-1.783-3.482.008-.01c.13-.189.048-.475-.18-.639a.53.53 0 00-.46-.09l-1.216-.818a.586.586 0 00-.286-.428.57.57 0 00-.473-.058l-2.826-1.612c-.04-.174-.205-.325-.424-.363-.242-.043-.466.062-.545.243l-6.119 1.112a.532.532 0 00-.469-.063c-.25.079-.41.301-.374.512L6.302 11.27c-.19-.012-.383.136-.462.369a.545.545 0 00.069.516l-.239 5.687c-.127.104-.195.3-.161.506.04.23.192.404.368.439l1.62 3.757c-.065.172-.003.399.17.555a.528.528 0 00.46.14l3.938 2.842c-.01.207.164.408.416.463a.534.534 0 00.451-.094l5.098.357c.098.145.302.223.517.182a.524.524 0 00.41-.326l4.338-2.598a.545.545 0 00.43-.167c.148-.147.205-.347.16-.509l2.226-4.103a.445.445 0 00.345-.277c.095-.218.03-.457-.145-.534zm.004.475c-.039.087-.127.133-.196.102-.071-.032-.097-.127-.059-.214.038-.087.126-.132.196-.102.07.03.097.126.059.214zm-2.665 4.792c-.08.08-.197.09-.26.025-.063-.066-.048-.185.031-.265.081-.08.197-.09.26-.024s.049.185-.031.264zm-.629-.25l-3.974 1.374a.545.545 0 00-.19-.135l-.186-2.707a.567.567 0 00.23-.249h1.918c.09.19.279.32.499.32a.54.54 0 00.285-.081l1.43 1.454-.012.024zm-4.168 2.786a.44.44 0 00-.102-.069l.096-.564a.52.52 0 00.313-.35l3.16-1.093zm-.325.538c-.11.02-.213-.036-.23-.127-.016-.091.06-.182.17-.201.11-.022.213.035.229.126.016.091-.06.182-.17.202zm-.504-.398l-3.808-.265 3.978-.642c.057.062.13.11.213.142l-.091.535a.53.53 0 00-.292.23zm-3.721-4.336a.554.554 0 00.173-.073l3.549 3.08-5.016.81zm-1.665 3.555l-1.257-3.781a.697.697 0 00.047-.08h2.256c.042.09.107.166.188.222zm-.153.735c-.11-.024-.183-.116-.164-.207.019-.09.124-.144.233-.12.11.024.182.116.163.207-.018.09-.123.144-.232.12zM8.397 22.96a.44.44 0 00.006-.115l2.123-.925a.55.55 0 00.473.17l1.203 3.616zm-.356-.598l-.943-4.648 3.376 3.49a.576.576 0 00-.1.3l-2.183.951a.634.634 0 00-.15-.093zm-.023.609c-.06.07-.177.064-.26-.011-.085-.075-.104-.193-.044-.263s.177-.063.26.012c.085.076.103.194.044.262zm-1.79-4.333a.574.574 0 00.076-.491l.307-.654.779 3.838zm-.028-4.34l.16 2.203a.558.558 0 00-.022.559l-.278.59zM6 11.647c.037-.108.135-.17.22-.14.087.03.126.143.09.25-.038.109-.136.171-.222.141-.085-.03-.126-.143-.089-.251zm.844 5.153c0 .115-.083.207-.183.207-.101 0-.184-.092-.184-.207 0-.114.083-.206.184-.206.1 0 .183.092.183.206zm-.23-4.886a.654.654 0 00.028-.119l1.904-1.293-1.779 5.63-.29-3.99a.6.6 0 00.137-.228zM9.64 8.329l-.743 1.21a.57.57 0 00-.302.187.597.597 0 00-.142.307l-1.247.846zm1.254-1.207c.085.015.18.01.273-.019a.572.572 0 00.308-.224l3.268.724a.573.573 0 00.11.259l-1.07 2.275a.557.557 0 00-.389.31h-1.967a.555.555 0 00-.5-.32.545.545 0 00-.397.171l-1.175-.36a.418.418 0 00-.048-.234zm.058-.653c.108-.034.215.011.241.1.027.088-.039.187-.146.22-.106.033-.214-.011-.241-.1-.026-.088.04-.187.146-.22zm6.248-.764l-1.727 1.276a.542.542 0 00-.624.193l-2.581-.571zm.605.097a.59.59 0 00.115.033c.164.029.32-.01.428-.095l2.674 1.524-.011.038-5.045-.14zm.238-.619c.11.02.187.11.171.2-.016.092-.118.15-.228.13-.11-.02-.186-.11-.171-.2.015-.092.117-.15.228-.13zm3.233 2.725l-.192 2.271a.562.562 0 00-.266.267h-2.256a.555.555 0 00-.621-.305l-2.124-2.45a.489.489 0 00.02-.09l5.264.145a.62.62 0 00.175.162zm.04 2.558c.123 0 .223.102.223.227s-.1.226-.222.226-.222-.101-.222-.226.1-.227.222-.227zm.099-3.2c.055-.096.185-.123.291-.06.106.063.147.192.092.288-.055.097-.186.124-.29.06-.107-.062-.148-.192-.093-.288zm3.915 5.318l-3.46-1.938a.566.566 0 00-.35-.48l.183-2.169zm-2.293-3.997c-.02.167.068.357.239.478a.58.58 0 00.296.11l1.278 2.285-2.627-3.42zm.38-.057c.052-.076.168-.084.26-.019s.124.18.072.256c-.052.076-.169.084-.26.019-.092-.066-.124-.18-.071-.256zm-5.57 2.163c0-.123.095-.222.216-.222.12 0 .217.1.217.222a.22.22 0 01-.217.221.218.218 0 01-.217-.221zm.119 4.773c.123 0 .221.101.221.226a.224.224 0 01-.221.227.224.224 0 01-.222-.227c0-.125.1-.226.222-.226zm-2.897-8.024c0-.125.099-.227.221-.227.123 0 .222.102.222.227s-.1.226-.222.226a.224.224 0 01-.221-.226zm.162.637a.553.553 0 00.299-.052l2.059 2.373a.566.566 0 00.257.814v3.926a.56.56 0 00-.096.03l-3.38-4.19a.575.575 0 00-.153-.746zm-1.56 2.614c0-.125.1-.227.222-.227.121 0 .221.102.221.227s-.1.226-.221.226a.224.224 0 01-.222-.226zm-2.96 0c0-.123.096-.222.216-.222s.217.1.217.222-.097.221-.217.221-.216-.099-.216-.221zm.216 10.61c.123 0 .222.1.222.226a.223.223 0 01-.222.226.223.223 0 01-.22-.226c0-.125.098-.226.22-.226zM8.731 9.843c.075-.086.19-.106.257-.044.068.06.063.18-.01.265-.075.087-.19.106-.258.045s-.062-.18.01-.266zm-1.625 6.659l1.92-6.077a.579.579 0 00.126-.087l1.222.375a.565.565 0 00.337.501v9.603l-3.602-3.722a.553.553 0 00.082-.295.555.555 0 00-.085-.298zm11.294 4.46a.59.59 0 00-.143.02l-3.484-4.33a.56.56 0 00-.52-.763.56.56 0 00-.554.567.57.57 0 00.266.483v4.069a.565.565 0 00-.303.324h-2.215a.567.567 0 00-.303-.324v-9.794a.565.565 0 00.303-.324h1.926a.555.555 0 00.647.354l3.428 4.248a.559.559 0 00-.036.2.56.56 0 00.554.567.561.561 0 00.555-.567.57.57 0 00-.24-.467v-4.01a.565.565 0 00.301-.325h2.216a.559.559 0 00.302.324v9.794a.56.56 0 00-.302.324H18.92a.555.555 0 00-.52-.37zm.24 4.047c.123 0 .223.09.223.202s-.1.201-.222.201c-.121 0-.22-.09-.22-.2s.099-.203.22-.203zm-.461-3.48c0-.125.099-.226.22-.226.124 0 .223.1.223.226a.223.223 0 01-.222.226.223.223 0 01-.221-.226zm-4.147-5.073c0-.126.1-.226.222-.226s.221.1.221.226a.223.223 0 01-.221.226.224.224 0 01-.222-.226zm.15 4.847c.122 0 .221.1.221.226a.223.223 0 01-.221.226.223.223 0 01-.222-.226c0-.125.1-.226.222-.226zm.216-.295v-4.006a.495.495 0 00.075-.026l3.442 4.28a.566.566 0 00-.069.273c0 .255.165.47.39.542l.184 2.644a.575.575 0 00-.103.047l-3.593-3.117a.566.566 0 00-.326-.637zm7.14.52a.224.224 0 01-.221.227.223.223 0 01-.222-.226c0-.125.1-.226.222-.226s.222.1.222.226zm-15.71-3.021c-.09.017-.177-.062-.195-.175-.02-.113.037-.217.127-.232.09-.016.176.063.196.176.019.112-.039.216-.128.231zM25.8 12.793c.073-.023.155.031.18.123.028.091-.01.185-.082.208-.073.023-.154-.032-.181-.123-.027-.091.01-.185.083-.208z" fill="#fff"/></svg>