<svg height="32" width="32" xmlns="http://www.w3.org/2000/svg"><path d="M16 32C7.163 32 0 24.837 0 16S7.163 0 16 0s16 7.163 16 16-7.163 16-16 16zm2.586-14.624V13.54a1.91 1.91 0 0 1-1.345-1.823 1.911 1.911 0 0 1 2.686-1.748l1.786-1.033-4.519-2.616a2.384 2.384 0 0 0-2.388 0l-2.273 1.315.984.55v2.673a1.91 1.91 0 0 1 1.14 2.794l3.676 3.821c.082-.038.166-.071.253-.098zm1.138 0a1.908 1.908 0 0 1 0 3.646v3.192l4.091-2.368A2.372 2.372 0 0 0 25 19.793v-7.586c0-.846-.451-1.628-1.185-2.053l-.968-.56-2.031 1.174a1.91 1.91 0 0 1-1.092 2.773zm-2.227.869l-3.676-3.822a1.903 1.903 0 0 1-.304.113v3.598a1.91 1.91 0 0 1 1.397 1.839 1.912 1.912 0 0 1-3.144 1.462l-1.83 1.428 4.865 2.816c.738.428 1.65.428 2.388 0l1.392-.806v-3.85a1.91 1.91 0 0 1-1.089-2.778zm-5.118-.079v-3.662c-.752-.257-1.293-.969-1.293-1.806s.541-1.55 1.293-1.807v-2.04l-.99-.553-3.204 1.856A2.372 2.372 0 0 0 7 12.207v7.586c0 .846.451 1.628 1.185 2.053l.697.403 2.27-1.775a1.907 1.907 0 0 1 1.227-2.308zM13 13.523a.827.827 0 1 0 .002-1.653.827.827 0 0 0-.002 1.653zm0 7.275a.827.827 0 1 0 .002-1.653.827.827 0 0 0-.002 1.653zm6.155-8.255a.827.827 0 1 0 .002-1.653.827.827 0 0 0-.002 1.653zm0 7.482a.827.827 0 1 0 .002-1.654.827.827 0 0 0-.002 1.654z" fill="#fff"/></svg>