<svg width="32" height="32" viewBox="0 0 32 32" fill="none" xmlns="http://www.w3.org/2000/svg">
<path fill-rule="evenodd" clip-rule="evenodd" d="M16 32C24.8365 32 32 24.8365 32 16C32 7.16345 24.8365 0 16 0C7.16345 0 0 7.16345 0 16C0 24.8365 7.16345 32 16 32ZM20.9956 18.8324L6.00025 10.1747L10.4978 7.57987L20.9956 13.6379V18.8324ZM20.9955 12.4833L16.9957 10.1746L20.9955 7.86591V12.4833ZM21.9955 19.4094V7.86537L26.5 10.462V22.0037L21.9955 19.4094ZM21.4867 25.4742L10.9822 19.4098V14.2063L25.9952 22.873L21.4867 25.4742ZM10 25.1909L5.50001 22.5946V11.0393L10 13.6295V25.1909ZM11 20.5647L14.996 22.873L11 25.1814V20.5647Z" fill="white"/>
</svg>
