<svg height="32" viewBox="0 0 32 32" width="32" xmlns="http://www.w3.org/2000/svg"><path d="m16 32c-8.836556 0-16-7.163444-16-16s7.163444-16 16-16 16 7.163444 16 16-7.163444 16-16 16zm4.5-15.1582492-2.6079295.1346802 2.3259912-5.9259259-7.0837005.9764309-.6343612 6.5319866h1.5506608l-.246696 7.4410774zm-5.4977974 6.4983165c0 .1301682-.1104495.2356903-.246696.2356903s-.246696-.1055221-.246696-.2356903v-1.7508417c0-.1301681.1104495-.2356902.246696-.2356902s.246696.1055221.246696.2356902zm-1.8325991-5.2861952.5448458-5.729293c.0108998-.1112873.1085581-.1964249.2255507-.196633h.0401762c.0634655-.0000422.1240316.0253838.1669229.0700752s.0641637.1045387.0586278.1649417l-.4722467 5.2195286h1.4096916l-.0648458 3.176431c-.0030697.1433082-.1255631.2579424-.2755947.2579124h-.0119824c-.0741444-.0001659-.1451079-.0287951-.1969362-.0794509s-.0801719-.1190873-.0786585-.1899094l.064141-2.6936026zm0-6.5993266 6.907489-.8080809-3.3832599-1.41414137s.3524229-2.55892256-1.9735683-3.23232323l-.2114537.80808081s1.4096916.33670033 1.2687224 2.49158249z" fill="#fff" fill-rule="evenodd"/></svg>