<svg width="32" height="32" viewBox="0 0 32 32" xmlns="http://www.w3.org/2000/svg"><path d="M16 0c8.837 0 16 7.163 16 16s-7.163 16-16 16S0 24.837 0 16 7.163 0 16 0zm-1.867 15.583s-2.417 1.604-2.746 4.613c-.33 3.01 1.539 4.952 1.539 4.952s2.28-1.313 2.708-4.307c.428-2.995-1.5-5.258-1.5-5.258zm5.744 5.624c-1.623-.887-3.312-.047-3.312-.047s.42 1.94 2.072 2.763c1.652.823 3.146-.04 3.146-.04s-.283-1.79-1.906-2.676zm-8.584-3.015h-.086c-.39.006-1.681.099-2.562 1.028-1.048 1.106-.73 2.442-.73 2.442s1.477.155 2.568-.917c1.004-.985.871-2.318.844-2.525l-.004-.027h-.008l-.022-.001zm11.808.87a3.24 3.24 0 00-2.188.96s.934.85 2.297.773c1.364-.077 2.05-.954 2.05-.954s-.792-.815-2.159-.779zm1.284-5.026c-.142-.04-2.802-.778-5.224.936-2.49 1.762-2.596 4.816-2.596 4.816s3.058.73 5.482-1.115c2.227-1.697 2.34-4.189 2.344-4.582v-.053zm-11.298 1.326s-1.752-1.123-3.65-.414C7.538 15.658 7 17.512 7 17.512l.023.017c.198.135 1.648 1.06 3.432.466 1.921-.64 2.632-2.633 2.632-2.633zm2.343-4.958c-3.01-.329-4.952 1.54-4.952 1.54s1.314 2.28 4.308 2.707c2.994.428 5.257-1.5 5.257-1.5l-.042-.06-.074-.1c-.419-.545-1.957-2.309-4.497-2.587zm2.683-4.386s-1.121 1.534-.48 3.458c.641 1.923 2.631 2.629 2.631 2.629s1.124-1.752.414-3.651c-.711-1.9-2.565-2.436-2.565-2.436zm-2.576.776c-1.105-1.048-2.442-.731-2.442-.731s-.155 1.477.916 2.568 2.553.84 2.553.84.079-1.63-1.027-2.677z" fill="#FFF"/></svg>