<svg width="32" height="32" viewBox="0 0 32 32" fill="none" xmlns="http://www.w3.org/2000/svg">
<path fill-rule="evenodd" clip-rule="evenodd" d="M32 16C32 24.8366 24.8366 32 16 32C7.16344 32 0 24.8366 0 16C0 7.16344 7.16344 0 16 0C24.8366 0 32 7.16344 32 16ZM25.5465 11.2578L16.6474 4.71292C16.2614 4.42903 15.7386 4.42903 15.3525 4.71292L6.45347 11.2578C6.16857 11.4673 6 11.8021 6 12.1584V19.6988C6 20.0551 6.16857 20.3898 6.45347 20.5994L15.3526 27.1442C15.7386 27.4281 16.2614 27.4281 16.6475 27.1442L25.5465 20.5994C25.8314 20.3898 26 20.0551 26 19.6988V12.1584C26 11.8021 25.8314 11.4673 25.5465 11.2578ZM17.9495 8.06443H19.1422V7.60047H17.9495V8.06443ZM15.3401 7.94387L15.8676 8.91819L16.27 8.69534L15.7425 7.72102L15.3401 7.94387ZM18.5176 10.7479L18.8952 10.4845L17.1009 7.853V11.057H17.5596V9.34296L18.5176 10.7479ZM19.0046 9.20113H19.3716V8.73717H19.0046V9.20113ZM11.0688 9.34032H11.544L10.6244 9.93346L10.871 10.3247L13.1165 8.87636H11.0688V9.34032ZM15.0138 9.10834V9.5491H15.4725V9.10834H15.0138ZM19.6468 10.0827H21.7798V9.6187H19.6468V10.0827ZM12.5596 9.5491L12.5536 10.1669L13.4281 11.4642L14.3297 10.1699V9.5491L13.4343 10.6498L12.5596 9.5491ZM15.656 10.245V11.9385H14.6009V11.6833H14.1422V12.4025H16.1147V10.245H15.656ZM22.9037 10.709V12.1705H23.3624V10.709H22.9037ZM21.6516 12.9786L22.0915 12.847L21.5613 11.0338H20.6452L20.1149 12.847L20.5548 12.9786L20.9879 11.4977H21.2186L21.6516 12.9786ZM8.04128 11.7761H10.0138V11.3122H8.04128V11.7761ZM10.4266 11.7761H10.7477V11.3122H10.4266V11.7761ZM12.1009 11.3586V11.9849H12.5596V11.3586H12.1009ZM24.1007 11.793L24.6052 12.7441L25.0094 12.5248L24.5049 11.5736L24.1007 11.793ZM17.1009 12.0545V13.5392H17.5596V12.0545H17.1009ZM18.7064 12.6808H19.1422V12.2169H18.7064V12.6808ZM12.2156 12.3956H11.4223L10.0214 13.3499L11.4223 14.1937H12.2156L10.8318 13.3573L12.2156 12.3956ZM22.9037 13.4H23.3165V12.936H22.9037V13.4ZM6.77982 13.4464H8.24878L7.72705 13.8125L7.98855 14.1937L9.71452 12.9824H6.77982V13.4464ZM13.4312 13.9103H15.4266V13.4464H13.4312V13.9103ZM16 13.9103H16.344V13.4464H16V13.9103ZM18.867 14.2351V13.7712H18.1101V15.7662H20.2202V15.3022H18.5688V14.2351H18.867ZM20.3349 14.4439H20.7248V13.9799H20.3349V14.4439ZM21.8716 14.4439H23.867V13.9799H21.8716V14.4439ZM12.422 14.9543H13.4312V14.4903H12.422V14.9543ZM14.9679 14.9543H16.6422V16.0446H16.344V16.5085H17.1009V14.4903H14.9679V14.9543ZM11.6288 16.621L12.0685 16.4888L11.5151 14.6063H10.6935L10.1158 16.4861L10.5539 16.6238L11.0313 15.0702H11.1729L11.6288 16.621ZM14.578 18.4108V17.622L12.9954 15.1906V18.4108H13.4541V16.6665L14.578 18.4108ZM24.7615 17.6452H25.2202V15.2094H23.2936V16.0214H23.7523V15.6734H24.7615V17.6452ZM8.93578 15.279V16.7637H9.3945V15.279H8.93578ZM7.42202 16.1606H7.8578V15.6966H7.42202V16.1606ZM15.0826 16.1142V17.2277H15.5413V16.1142H15.0826ZM17.9495 17.0885H18.3395V16.6245H17.9495V17.0885ZM20.8165 16.6245H19.4633V17.0885H20.8165V16.6245ZM21.367 16.8565V18.2948H21.8257V16.8565H21.367ZM17.1009 17.4596H17.5138V16.9957H17.1009V17.4596ZM9.83028 17.8308H11.8486V17.3669H9.83028V17.8308ZM7.58257 17.9468V17.4828H6.75688V19.4779H8.88991V19.0139H7.2156V17.9468H7.58257ZM20.3119 19.5243H20.7706V17.7844H18.7752V18.6195H19.2339V18.2484H20.3119V19.5243ZM23.9918 18.211L23.7422 17.8218L21.3947 19.3619H24.578V18.8979H22.9448L23.9918 18.211ZM9.73182 18.3644V19.1668L10.63 20.5148L11.5553 19.1696V18.3644L10.636 19.6936L9.73182 18.3644ZM12.6284 19.4779H13.0872V19.0139H12.6284V19.4779ZM14.8073 19.849V21.5193H15.2661V19.849H14.8073ZM13.347 20.5093L13.1025 20.1167L10.7563 21.6121H13.9817V21.1481H12.3447L13.347 20.5093ZM18.9204 22.1352L19.364 22.0169L18.8831 20.1738H18.0298L17.5 22.0111L17.9404 22.141L18.3739 20.6378H18.5297L18.9204 22.1352ZM16.0513 20.4248L16.5559 21.3527L16.9578 21.1291L16.4533 20.2012L16.0513 20.4248ZM22.5367 20.9394H22.9037V20.4754H22.5367V20.9394ZM20.6127 21.1053L20.2406 21.3766L21.1347 22.631L22.0556 21.3794L21.6876 21.1024L21.1406 21.8459L20.6127 21.1053ZM9.34862 21.7513H10.4954V21.2873H9.34862V21.7513ZM14.3716 22.7488H16.1147V23.7927H15.7706V24.2567H16.5734V22.2848H14.3716V22.7488ZM11.1606 22.9112H11.5505V22.4472H11.1606V22.9112ZM19.7698 22.991L19.5238 22.5994L17.1606 24.1175H19.2339V23.6535H18.7385L19.7698 22.991ZM12.078 23.5839H13.867V23.12H12.078V23.5839ZM13.7794 24.4589L14.3069 25.4564L14.7114 25.2376L14.1839 24.2401L13.7794 24.4589ZM16.8716 24.8598V25.347H17.3303V24.8598H16.8716ZM15.7706 25.347V26.3677H16.2294V25.347H15.7706ZM16.4587 7.67006H16.9174V6.023H14.9679V6.81173H15.4266V6.48696H16.4587V7.67006ZM14.2569 8.92276V6.83493H13.7982V8.92276H14.2569ZM17.6628 18.2798L17.4106 17.8922L15.0276 19.4779H18.3395V19.0139H16.5595L17.6628 18.2798Z" fill="white"/>
</svg>
