<svg width="32" height="32" viewBox="0 0 32 32" fill="none" xmlns="http://www.w3.org/2000/svg">
<path fill-rule="evenodd" clip-rule="evenodd" d="M16 0C24.8366 0 32 7.16343 32 16C32 24.8366 24.8366 32 16 32C7.16343 32 0 24.8366 0 16C0 7.16343 7.16343 0 16 0ZM24.1715 13.1655C23.1328 12.6056 21.8863 12.6056 20.9168 13.1655L16 16.0351L16 16.035L16 16.0351L11.0832 13.1655C10.0445 12.6056 8.79795 12.6056 7.82845 13.1655C6.7897 13.7254 6.16644 14.8452 6.16644 16.0351C6.16644 17.2249 6.7897 18.2747 7.82845 18.9046C8.86721 19.4646 10.1137 19.4646 11.0832 18.9046L15.9999 16.0351L13.1607 20.9343C12.6067 21.9841 12.6067 23.1739 13.1607 24.2238C13.7147 25.2736 14.8227 25.8335 16 25.8335C17.1772 25.8335 18.2852 25.2036 18.8393 24.2238C19.3933 23.1739 19.3933 21.9841 18.8393 20.9343L16.0001 16.0351L20.9168 18.9046C21.9555 19.4646 23.202 19.4646 24.1715 18.9046C25.2103 18.3447 25.8335 17.2249 25.8335 16.0351C25.8335 14.8452 25.2103 13.7254 24.1715 13.1655ZM16 6.16646C17.1772 6.16646 18.2852 6.79636 18.8393 7.77622C19.3933 8.82606 19.3933 10.0859 18.8393 11.0657L16 15.965L13.1607 11.0657C12.6067 10.0159 12.6067 8.82606 13.1607 7.77622C13.7147 6.79636 14.8227 6.16646 16 6.16646Z" fill="white"/>
</svg>
