<svg height="32" viewBox="0 0 32 32" width="32" xmlns="http://www.w3.org/2000/svg"><path d="m16 32c-8.836556 0-16-7.163444-16-16s7.163444-16 16-16 16 7.163444 16 16-7.163444 16-16 16zm-.0276923-28c-6.60000001 0-11.9723077 5.37230769-11.9723077 11.9723077 0 6.6 5.37230769 11.9815385 11.9815385 11.9815385 6.6092307 0 11.9815384-5.3723077 11.9815384-11.9815385 0-6.60923078-5.3815384-11.9723077-11.9907692-11.9723077zm0 23.0307692c-6.0923077 0-11.05846155-4.956923-11.05846155-11.0584615.00923077-6.0923077 4.96615385-11.04923078 11.05846155-11.04923078s11.0584615 4.95692308 11.0584615 11.05846158c0 6.0923077-4.956923 11.0492307-11.0584615 11.0492307zm-6.19838955-16.3741218 4.68644125 4.6864412.8811554-.8811554-4.6864413-4.6864412zm6.81805565 6.820524 4.6864413 4.6864412.8811554-.8811554-4.6864413-4.6864412zm-1.4956107-1.5021129.8876824.8876824.8811554-.8811554-.8876824-.8876824zm1.5085864-1.474536.8811554.8811553 4.6864413-4.6864412-.8811554-.88115537zm-6.79741935 6.788447.88115535.8811554 4.6864413-4.6864412-.8811554-.8811554z" fill="#fff"/></svg>