<svg width="32" height="32" viewBox="0 0 32 32" fill="none" xmlns="http://www.w3.org/2000/svg">
<path fill-rule="evenodd" clip-rule="evenodd" d="M16 32C24.8365 32 32 24.8365 32 16C32 7.1635 24.8365 0 16 0C7.1635 0 0 7.1635 0 16C0 24.8365 7.1635 32 16 32ZM20.7151 9.03734L22.884 8.00902C22.9019 8.00004 22.9289 7.99555 22.9513 8.00453C22.9738 8.01351 22.9962 8.03147 23.0052 8.05392L28.9956 20.6722C28.9965 20.675 28.9974 20.6776 28.9983 20.6801C29.0017 20.6896 29.0045 20.6975 29.0045 20.7081V20.7082C29.0045 20.7216 29.0045 20.7306 29.0001 20.7441C28.9956 20.7575 28.9911 20.7665 28.9821 20.7755C28.9776 20.7845 28.9641 20.7935 28.9551 20.798L26.7862 21.8263C26.7834 21.8272 26.7808 21.8282 26.7783 21.8291C26.7688 21.8324 26.761 21.8353 26.7503 21.8353C26.7368 21.8353 26.7279 21.8353 26.7144 21.8308C26.7009 21.8263 26.6919 21.8218 26.683 21.8128C26.674 21.8083 26.665 21.7948 26.6605 21.7859L25.7983 19.9717C25.7893 19.9493 25.7714 19.9358 25.7534 19.9268C25.731 19.9178 25.713 19.9178 25.6905 19.9223C25.6681 19.9268 25.6501 19.9358 25.6367 19.9537C25.6232 19.9717 25.6187 19.9897 25.6187 20.0121C25.6681 21.7904 24.8823 23.1375 22.9918 24.0356C20.5489 25.1942 18.2318 24.1164 16.741 20.9731L12.8746 12.8273C12.8746 12.8228 12.8701 12.8183 12.8701 12.8183C11.7969 10.9503 10.6024 10.4608 9.06668 11.1883C7.0684 12.1358 6.82142 14.1296 8.12816 16.8867L11.3344 23.6404C11.3353 23.6433 11.3363 23.6459 11.3372 23.6484C11.3406 23.6579 11.3434 23.6657 11.3434 23.6764C11.3434 23.6898 11.3434 23.6988 11.3389 23.7123C11.3344 23.7258 11.3299 23.7347 11.3209 23.7437C11.3164 23.7527 11.3029 23.7617 11.294 23.7662L9.12505 24.7945C9.1026 24.808 9.07566 24.808 9.0532 24.799C9.03075 24.79 9.0083 24.772 8.99932 24.7496L3.01347 12.1268C2.99999 12.1044 2.99999 12.0774 3.00898 12.055C3.01347 12.028 3.03143 12.0101 3.05388 12.0011L5.21831 10.9727C5.22112 10.9718 5.22374 10.9709 5.22624 10.97C5.23572 10.9666 5.24357 10.9638 5.25423 10.9638C5.2677 10.9638 5.27668 10.9638 5.28566 10.9727C5.29914 10.9772 5.30812 10.9817 5.3171 10.9907C5.32608 10.9952 5.33506 11.0087 5.33955 11.0177L6.19275 12.8139C6.20173 12.8363 6.21969 12.8498 6.23765 12.8588C6.26011 12.8677 6.27807 12.8677 6.30052 12.8632C6.32297 12.8588 6.34093 12.8498 6.35441 12.8318C6.36788 12.8139 6.37237 12.7959 6.37237 12.7734C6.35441 10.9817 7.31987 9.57171 8.98136 8.78139C11.5409 7.56446 13.6964 8.44909 15.2771 11.7855L19.1838 20.0166C20.1987 21.7589 21.4964 22.2574 23.0052 21.5434C24.8688 20.6543 25.1966 18.6964 23.9707 16.1099L20.6746 9.16308C20.6737 9.16026 20.6728 9.15765 20.6719 9.15514C20.6685 9.14566 20.6657 9.13781 20.6657 9.12715C20.6657 9.11368 20.6657 9.1047 20.6702 9.09123C20.6746 9.07776 20.6791 9.06878 20.6881 9.0598C20.6926 9.05082 20.7061 9.04183 20.7151 9.03734Z" fill="white"/>
</svg>
