<svg width="33" height="33" viewBox="0 0 33 33" fill="none" xmlns="http://www.w3.org/2000/svg">
<g clip-path="url(#clip0)">
<path fill-rule="evenodd" clip-rule="evenodd" d="M32.222 16.009C32.222 24.8455 25.0585 32.009 16.222 32.009C7.38543 32.009 0.221985 24.8455 0.221985 16.009C0.221985 7.17242 7.38543 0.00897217 16.222 0.00897217C25.0585 0.00897217 32.222 7.17242 32.222 16.009ZM8.28662 16.234C8.4096 16.0519 8.47519 15.8378 8.47508 15.6188C8.47493 15.3253 8.35687 15.0439 8.14687 14.8364C7.93686 14.6289 7.6521 14.5123 7.35518 14.5123C7.13366 14.5123 6.91712 14.5773 6.73294 14.699C6.54876 14.8206 6.40522 14.9936 6.32048 15.1959C6.23573 15.3982 6.21359 15.6208 6.25684 15.8356C6.3001 16.0503 6.40682 16.2476 6.56349 16.4024C6.72017 16.5572 6.91977 16.6626 7.13705 16.7052C7.35432 16.7479 7.57951 16.7259 7.78414 16.642C7.98876 16.5581 8.16363 16.4161 8.28662 16.234ZM26.0801 16.2341C26.2031 16.0519 26.2687 15.8378 26.2686 15.6188H26.2663C26.2662 15.3258 26.1485 15.0448 25.9391 14.8374C25.7297 14.63 25.4457 14.5131 25.1492 14.5123C24.9277 14.5122 24.7111 14.5771 24.5268 14.6987C24.3426 14.8203 24.199 14.9932 24.1141 15.1955C24.0293 15.3978 24.0071 15.6204 24.0503 15.8352C24.0935 16.05 24.2001 16.2473 24.3568 16.4022C24.5134 16.557 24.713 16.6625 24.9303 16.7052C25.1476 16.7479 25.3728 16.7259 25.5775 16.6421C25.7822 16.5582 25.9571 16.4162 26.0801 16.2341ZM17.1836 20.6014C17.3066 20.4192 17.3722 20.2051 17.3721 19.9861C17.372 19.6927 17.254 19.4113 17.0441 19.2039C16.8342 18.9964 16.5496 18.8798 16.2528 18.8796C16.0312 18.8795 15.8146 18.9444 15.6304 19.066C15.4461 19.1876 15.3025 19.3605 15.2177 19.5628C15.1328 19.7651 15.1106 19.9877 15.1538 20.2025C15.197 20.4173 15.3037 20.6146 15.4603 20.7695C15.617 20.9243 15.8166 21.0298 16.0339 21.0725C16.2512 21.1152 16.4764 21.0932 16.681 21.0093C16.8857 20.9255 17.0606 20.7835 17.1836 20.6014ZM12.7043 18.4452C12.8274 18.2631 12.8931 18.0491 12.8931 17.8301C12.8931 17.5365 12.7751 17.2549 12.5651 17.0473C12.355 16.8397 12.0702 16.7231 11.7732 16.7231C11.5517 16.7231 11.3352 16.788 11.151 16.9096C10.9668 17.0313 10.8233 17.2042 10.7385 17.4065C10.6538 17.6088 10.6316 17.8313 10.6748 18.0461C10.718 18.2608 10.8247 18.4581 10.9813 18.6129C11.1379 18.7677 11.3375 18.8732 11.5547 18.9159C11.7719 18.9586 11.9971 18.9367 12.2017 18.8529C12.4064 18.7691 12.5813 18.6272 12.7043 18.4452ZM21.6026 18.4461C21.7254 18.2637 21.7907 18.0493 21.7901 17.8301C21.7894 17.5374 21.6714 17.2569 21.4619 17.0499C21.2525 16.843 20.9686 16.7265 20.6725 16.7259C20.4508 16.7254 20.2339 16.79 20.0494 16.9115C19.8649 17.033 19.721 17.206 19.6359 17.4084C19.5509 17.6108 19.5286 17.8336 19.5718 18.0485C19.615 18.2635 19.7217 18.461 19.8785 18.6159C20.0353 18.7708 20.2351 18.8763 20.4526 18.9189C20.6701 18.9614 20.8955 18.9392 21.1002 18.8551C21.3049 18.7709 21.4798 18.6286 21.6026 18.4461ZM7.98394 19.385C8.06717 19.262 8.11165 19.1175 8.11176 18.9696C8.11184 18.8713 8.09234 18.7741 8.05439 18.6833C8.01643 18.5925 7.96077 18.51 7.89056 18.4405C7.82036 18.371 7.737 18.3159 7.64523 18.2782C7.55347 18.2406 7.4551 18.2212 7.35575 18.2211C7.20611 18.221 7.0598 18.2647 6.93532 18.3468C6.81084 18.4289 6.71377 18.5457 6.65641 18.6823C6.59904 18.8189 6.58394 18.9693 6.61303 19.1144C6.64211 19.2594 6.71407 19.3928 6.8198 19.4974C6.92553 19.6021 7.06028 19.6734 7.20703 19.7024C7.35377 19.7314 7.5059 19.7167 7.64419 19.6602C7.78248 19.6037 7.90071 19.5079 7.98394 19.385ZM25.7774 19.385C25.8607 19.262 25.9051 19.1175 25.9053 18.9696C25.9051 18.7712 25.8259 18.5805 25.6841 18.4403C25.5422 18.3001 25.3499 18.2212 25.1492 18.2211C24.9996 18.221 24.8533 18.2647 24.7288 18.3468C24.6043 18.4289 24.5073 18.5457 24.4499 18.6823C24.3925 18.8189 24.3774 18.9693 24.4065 19.1144C24.4356 19.2594 24.5076 19.3928 24.6133 19.4974C24.719 19.6021 24.8538 19.6734 25.0005 19.7024C25.1473 19.7314 25.2994 19.7167 25.4377 19.6602C25.576 19.6037 25.6942 19.5079 25.7774 19.385ZM16.8815 23.8118C16.9646 23.6887 17.0089 23.544 17.0088 23.396C17.0085 23.1979 16.9287 23.008 16.787 22.8679C16.6453 22.7278 16.4532 22.649 16.2528 22.6487C16.1031 22.6486 15.9567 22.6924 15.8322 22.7745C15.7077 22.8566 15.6107 22.9734 15.5533 23.1101C15.496 23.2468 15.481 23.3972 15.5101 23.5424C15.5393 23.6875 15.6114 23.8208 15.7172 23.9254C15.8231 24.0301 15.9579 24.1013 16.1047 24.1301C16.2516 24.159 16.4037 24.1441 16.542 24.0875C16.6803 24.0308 16.7984 23.9348 16.8815 23.8118ZM12.4028 21.597C12.4859 21.474 12.5303 21.3293 12.5303 21.1814C12.5304 21.0832 12.5109 20.986 12.4729 20.8952C12.435 20.8045 12.3793 20.722 12.3091 20.6526C12.2389 20.5831 12.1555 20.528 12.0638 20.4904C11.972 20.4529 11.8736 20.4335 11.7743 20.4335C11.6247 20.4334 11.4783 20.4772 11.3538 20.5593C11.2293 20.6414 11.1323 20.7582 11.0749 20.8948C11.0176 21.0315 11.0025 21.1818 11.0316 21.327C11.0608 21.4721 11.1328 21.6054 11.2386 21.71C11.3444 21.8147 11.4792 21.886 11.6259 21.9149C11.7727 21.9438 11.9249 21.929 12.0631 21.8724C12.2014 21.8158 12.3196 21.72 12.4028 21.597ZM21.3006 21.5975C21.3836 21.4743 21.4277 21.3295 21.4274 21.1814C21.4269 20.9837 21.3467 20.7943 21.2054 20.6544C21.064 20.5146 20.8724 20.4358 20.6725 20.4352C20.5227 20.4348 20.3762 20.4785 20.2515 20.5605C20.1268 20.6426 20.0296 20.7594 19.9721 20.8961C19.9146 21.0328 19.8995 21.1833 19.9287 21.3286C19.9578 21.4738 20.0299 21.6072 20.1358 21.7119C20.2417 21.8166 20.3767 21.8879 20.5236 21.9167C20.6705 21.9455 20.8228 21.9305 20.9611 21.8737C21.0994 21.8169 21.2176 21.7208 21.3006 21.5975ZM7.68235 21.8186C7.72581 21.7543 7.74901 21.6788 7.74901 21.6014C7.74901 21.4977 7.70734 21.3983 7.63316 21.325C7.55899 21.2516 7.45838 21.2104 7.35349 21.2104C7.27526 21.2104 7.19879 21.2334 7.13374 21.2763C7.0687 21.3193 7.01801 21.3804 6.98807 21.4518C6.95813 21.5232 6.9503 21.6019 6.96556 21.6777C6.98082 21.7535 7.01849 21.8232 7.07381 21.8779C7.12912 21.9326 7.1996 21.9698 7.27632 21.9849C7.35305 22 7.43257 21.9922 7.50485 21.9626C7.57712 21.9331 7.63889 21.8829 7.68235 21.8186ZM25.4758 21.8186C25.5193 21.7543 25.5425 21.6788 25.5425 21.6014C25.5425 21.4977 25.5008 21.3983 25.4267 21.325C25.3525 21.2516 25.2519 21.2104 25.147 21.2104C25.0688 21.2104 24.9923 21.2334 24.9272 21.2763C24.8622 21.3193 24.8115 21.3804 24.7816 21.4518C24.7516 21.5232 24.7438 21.6019 24.7591 21.6777C24.7743 21.7535 24.812 21.8232 24.8673 21.8779C24.9226 21.9326 24.9931 21.9698 25.0698 21.9849C25.1465 22 25.2261 21.9922 25.2983 21.9626C25.3706 21.9331 25.4324 21.8829 25.4758 21.8186ZM16.5788 26.2462C16.6223 26.1819 16.6455 26.1064 16.6455 26.029C16.6455 25.9253 16.6038 25.8259 16.5296 25.7526C16.4555 25.6792 16.3549 25.638 16.25 25.638C16.1717 25.638 16.0953 25.661 16.0302 25.7039C15.9652 25.7469 15.9145 25.808 15.8845 25.8794C15.8546 25.9508 15.8468 26.0295 15.862 26.1053C15.8773 26.1811 15.915 26.2508 15.9703 26.3055C16.0256 26.3602 16.0961 26.3974 16.1728 26.4125C16.2495 26.4276 16.329 26.4198 16.4013 26.3902C16.4736 26.3607 16.5354 26.3105 16.5788 26.2462ZM12.1004 24.0327C12.1438 23.9684 12.167 23.8928 12.167 23.8155C12.167 23.7118 12.1253 23.6124 12.0512 23.539C11.977 23.4657 11.8764 23.4245 11.7715 23.4245C11.6933 23.4245 11.6168 23.4475 11.5517 23.4904C11.4867 23.5334 11.436 23.5944 11.4061 23.6659C11.3761 23.7373 11.3683 23.8159 11.3836 23.8918C11.3988 23.9676 11.4365 24.0373 11.4918 24.092C11.5471 24.1467 11.6176 24.1839 11.6943 24.199C11.771 24.2141 11.8506 24.2063 11.9228 24.1767C11.9951 24.1471 12.0569 24.097 12.1004 24.0327ZM20.9974 24.0327C21.0408 23.9684 21.064 23.8928 21.064 23.8155C21.064 23.7118 21.0224 23.6124 20.9482 23.539C20.874 23.4657 20.7734 23.4245 20.6685 23.4245C20.5903 23.4245 20.5138 23.4475 20.4488 23.4904C20.3837 23.5334 20.333 23.5944 20.3031 23.6659C20.2732 23.7373 20.2653 23.8159 20.2806 23.8918C20.2959 23.9676 20.3335 24.0373 20.3888 24.092C20.4442 24.1467 20.5146 24.1839 20.5914 24.199C20.6681 24.2141 20.7476 24.2063 20.8199 24.1767C20.8922 24.1471 20.9539 24.097 20.9974 24.0327ZM17.4792 7.92486C17.6455 7.67885 17.7343 7.38961 17.7343 7.09372C17.7343 6.69721 17.575 6.31692 17.2915 6.03644C17.008 5.75595 16.6234 5.59823 16.2223 5.59794C15.9229 5.59771 15.6303 5.68525 15.3813 5.84948C15.1323 6.0137 14.9382 6.24724 14.8235 6.52054C14.7088 6.79384 14.6787 7.09462 14.7369 7.38485C14.7952 7.67508 14.9392 7.94171 15.1508 8.15101C15.3623 8.36031 15.632 8.50288 15.9255 8.56069C16.2191 8.6185 16.5234 8.58894 16.7999 8.47576C17.0765 8.36258 17.3129 8.17086 17.4792 7.92486ZM17.4792 12.3496C17.6455 12.1036 17.7343 11.8144 17.7343 11.5185C17.7343 11.1219 17.575 10.7415 17.2913 10.461C17.0076 10.1805 16.6229 10.0229 16.2217 10.0227C15.9224 10.0226 15.6298 10.1103 15.3809 10.2746C15.132 10.4389 14.9379 10.6724 14.8233 10.9457C14.7087 11.219 14.6787 11.5198 14.737 11.81C14.7953 12.1002 14.9394 12.3668 15.151 12.576C15.3626 12.7853 15.6322 12.9278 15.9257 12.9855C16.2193 13.0433 16.5235 13.0137 16.8001 12.9005C17.0766 12.7873 17.313 12.5956 17.4792 12.3496ZM17.4792 16.7174C17.6455 16.4715 17.7343 16.1822 17.7343 15.8864V15.8886C17.7346 15.692 17.6957 15.4973 17.6198 15.3156C17.5439 15.1339 17.4326 14.9688 17.2921 14.8297C17.1516 14.6905 16.9848 14.5802 16.8011 14.5048C16.6174 14.4295 16.4206 14.3907 16.2217 14.3906C15.9224 14.3905 15.6298 14.4781 15.3809 14.6424C15.132 14.8067 14.9379 15.0403 14.8233 15.3136C14.7087 15.5869 14.6787 15.8877 14.737 16.1778C14.7953 16.468 14.9394 16.7346 15.151 16.9439C15.3626 17.1531 15.6322 17.2956 15.9257 17.3534C16.2193 17.4111 16.5235 17.3815 16.8001 17.2684C17.0766 17.1552 17.313 16.9634 17.4792 16.7174ZM26.3769 12.3496C26.5431 12.1036 26.6319 11.8144 26.6319 11.5185C26.6319 11.1218 26.4725 10.7414 26.1887 10.4609C25.9049 10.1803 25.52 10.0227 25.1187 10.0227C24.8195 10.0227 24.5269 10.1105 24.2781 10.2748C24.0292 10.4392 23.8353 10.6728 23.7207 10.9461C23.6062 11.2194 23.5763 11.5202 23.6346 11.8103C23.693 12.1005 23.8371 12.367 24.0488 12.5762C24.2604 12.7854 24.53 12.9279 24.8235 12.9856C25.1171 13.0433 25.4213 13.0137 25.6978 12.9005C25.9743 12.7873 26.2106 12.5955 26.3769 12.3496ZM8.58448 12.3502C8.75048 12.1039 8.83884 11.8145 8.8384 11.5185C8.8378 11.1222 8.67811 10.7423 8.3944 10.4623C8.11069 10.1823 7.72616 10.025 7.32523 10.025C7.02586 10.025 6.73322 10.1128 6.48433 10.2772C6.23544 10.4417 6.0415 10.6754 5.92704 10.9489C5.81258 11.2223 5.78274 11.5232 5.84131 11.8134C5.89988 12.1036 6.04422 12.3701 6.25607 12.5792C6.46791 12.7883 6.73774 12.9306 7.03142 12.9881C7.32509 13.0456 7.62941 13.0156 7.90586 12.9021C8.18232 12.7885 8.41848 12.5964 8.58448 12.3502ZM13.0631 10.1364C13.229 9.89018 13.3173 9.60085 13.3169 9.30501L13.3146 9.30725C13.3146 8.91054 13.1552 8.53008 12.8714 8.24956C12.5876 7.96905 12.2028 7.81146 11.8014 7.81146C11.5022 7.8119 11.2097 7.90006 10.9612 8.06479C10.7126 8.22951 10.519 8.46341 10.4049 8.7369C10.2907 9.01038 10.2612 9.31118 10.3201 9.60125C10.3789 9.89132 10.5234 10.1576 10.7353 10.3665C10.9473 10.5754 11.2171 10.7174 11.5107 10.7747C11.8043 10.832 12.1085 10.8019 12.3848 10.6883C12.6612 10.5747 12.8972 10.3826 13.0631 10.1364ZM13.0596 14.5055C13.2259 14.2596 13.3146 13.9704 13.3146 13.6745C13.3146 13.2778 13.1552 12.8974 12.8714 12.6168C12.5876 12.3363 12.2028 12.1787 11.8014 12.1787C11.5022 12.1787 11.2096 12.2665 10.9608 12.4308C10.7119 12.5952 10.518 12.8288 10.4035 13.1021C10.2889 13.3754 10.259 13.6762 10.3173 13.9663C10.3757 14.2565 10.5198 14.523 10.7315 14.7322C10.9431 14.9414 11.2127 15.0839 11.5062 15.1416C11.7998 15.1993 12.104 15.1697 12.3805 15.0565C12.657 14.9432 12.8933 14.7515 13.0596 14.5055ZM21.9589 10.1383C22.1251 9.89228 22.2139 9.60309 22.2139 9.30725C22.2139 8.91054 22.0545 8.53008 21.7707 8.24956C21.4869 7.96905 21.102 7.81146 20.7007 7.81146C20.4014 7.81146 20.1089 7.89918 19.8601 8.06354C19.6112 8.2279 19.4173 8.46151 19.3027 8.73483C19.1882 9.00815 19.1583 9.30891 19.2166 9.59906C19.275 9.88922 19.4191 10.1557 19.6308 10.3649C19.8424 10.5741 20.112 10.7166 20.4055 10.7743C20.699 10.832 21.0033 10.8024 21.2798 10.6892C21.5563 10.576 21.7926 10.3842 21.9589 10.1383ZM21.9589 14.5055C22.1251 14.2596 22.2139 13.9704 22.2139 13.6745C22.2139 13.2778 22.0545 12.8974 21.7707 12.6168C21.4869 12.3363 21.102 12.1787 20.7007 12.1787C20.4014 12.1787 20.1089 12.2665 19.8601 12.4308C19.6112 12.5952 19.4173 12.8288 19.3027 13.1021C19.1882 13.3754 19.1583 13.6762 19.2166 13.9663C19.275 14.2565 19.4191 14.523 19.6308 14.7322C19.8424 14.9414 20.112 15.0839 20.4055 15.1416C20.699 15.1993 21.0033 15.1697 21.2798 15.0565C21.5563 14.9432 21.7926 14.7515 21.9589 14.5055Z" fill="white"/>
</g>
<defs>
<clipPath id="clip0">
<rect width="32" height="32" fill="white" transform="translate(0.221985 0.00897217)"/>
</clipPath>
</defs>
</svg>
