<svg xmlns="http://www.w3.org/2000/svg" width="32" height="32" viewBox="0 0 32 32">
  <path fill="#FFF" fill-rule="evenodd" d="M16,32 C7.163444,32 0,24.836556 0,16 C0,7.163444 7.163444,0 16,0 C24.836556,0 32,7.163444 32,16 C32,24.836556 24.836556,32 16,32 Z M11.8562452,17.2899744 C9.45325524,17.2899744 7.50528911,19.2397728 7.50528911,21.6449872 C7.50528911,24.0502016 9.45351304,26 11.856503,26 C14.2597508,26 16.2077169,24.0502016 16.2077169,21.6449872 C16.2077169,19.2397728 14.2597508,17.2899744 11.856503,17.2899744 L11.8562452,17.2899744 Z M11.8562452,24.6826382 C10.1810356,24.6826382 8.82292475,23.323337 8.82292475,21.646531 C8.82292475,19.969725 10.1810356,18.6104237 11.8562452,18.6104237 C13.5317126,18.6104237 14.8898235,19.969725 14.8898235,21.646531 C14.8869876,23.3220505 13.5304236,24.6798079 11.8562452,24.6826382 Z M21.1487861,8.00000085 C18.7457961,8.00000085 16.7975722,9.94979921 16.7975722,12.3550137 C16.7975722,14.7602281 18.7457961,16.7100265 21.1487861,16.7100265 C23.5520339,16.7100265 25.5,14.7602281 25.5,12.3550137 C25.5,9.94979921 23.5520339,8.00000085 21.1487861,8.00000085 Z M21.1487861,15.3926647 C19.4735765,15.3926647 18.1154656,14.0333634 18.1154656,12.3565574 C18.1154656,10.6797514 19.4735765,9.3204502 21.1487861,9.3204502 C22.8242535,9.3204502 24.1823644,10.6797514 24.1823644,12.3565574 C24.1795285,14.032077 22.8229645,15.3898344 21.1487861,15.3926647 Z M11.8562452,8.00000085 C9.78479103,7.99871436 7.99924135,9.45887611 7.58727075,11.4910096 C7.17555795,13.5228857 8.25163135,15.5640246 10.1598957,16.3709087 C12.06816,17.1775355 14.2803751,16.5265735 15.4484845,14.8142605 C16.6168517,13.1019475 16.4178271,10.8029968 14.9725785,9.31736263 L16.2064279,9.31736263 L16.2064279,8.00000085 L11.8562452,8.00000085 Z M14.8898235,12.3550137 C14.8898235,14.0318197 13.5317126,15.3911209 11.8562452,15.3911209 C10.1810356,15.3911209 8.82292475,14.0318197 8.82292475,12.3550137 C8.82292475,10.6782076 10.1810356,9.31890642 11.8562452,9.31890642 C13.5309392,9.32096479 14.8885345,10.6787222 14.8913703,12.3550137 L14.8898235,12.3550137 Z"/>
</svg>
