<svg width="32" height="32" viewBox="0 0 32 32" fill="none" xmlns="http://www.w3.org/2000/svg">
<path fill-rule="evenodd" clip-rule="evenodd" d="M32 16C32 24.8366 24.8366 32 16 32C7.16344 32 0 24.8366 0 16C0 7.16344 7.16344 0 16 0C24.8366 0 32 7.16344 32 16ZM18.1614 8.8413C18.8243 8.17889 19.7221 7.80726 20.6579 7.80798C21.5936 7.8075 22.4912 8.17924 23.1539 8.84163C23.8165 9.50401 24.19 10.4029 24.1924 11.3412V20.7039C24.1775 21.6341 23.7986 22.5212 23.1373 23.1738C22.4759 23.8263 21.5853 24.1921 20.6575 24.1921C19.7297 24.1921 18.839 23.8263 18.1777 23.1738C17.5164 22.5212 17.1374 21.6341 17.1226 20.7039V16.7089C16.7566 16.7308 16.3862 16.7463 16.0002 16.7463C15.6143 16.7463 15.242 16.7618 14.8779 16.7865V20.7039C14.863 21.6341 14.484 22.5212 13.8227 23.1738C13.1614 23.8263 12.2708 24.1921 11.343 24.1921C10.4152 24.1921 9.52452 23.8263 8.86322 23.1738C8.20191 22.5212 7.82293 21.6341 7.80804 20.7039V11.3412C7.82293 10.4109 8.20191 9.52384 8.86322 8.87129C9.52452 8.21873 10.4152 7.853 11.343 7.853C12.2708 7.853 13.1614 8.21873 13.8227 8.87129C14.484 9.52384 14.863 10.4109 14.8779 11.3412V15.3362C15.2438 15.3143 15.6143 15.2987 16.0002 15.2987C16.3862 15.2987 16.7585 15.2832 17.1226 15.2586V11.3412C17.125 10.4028 17.4986 9.50372 18.1614 8.8413ZM12.8158 9.86577C12.4246 9.47478 11.8948 9.25533 11.3425 9.25557C10.7909 9.25629 10.262 9.47617 9.87163 9.86706C9.4813 10.2579 9.26133 10.788 9.25988 11.3412V17.0384C9.61784 16.7583 10.0092 16.5241 10.425 16.3411C11.3846 15.9261 12.3946 15.6398 13.4288 15.4895V11.3412C13.4274 10.7874 13.2069 10.2568 12.8158 9.86577ZM12.8177 22.1832C13.209 21.7908 13.4288 21.2587 13.4288 20.7039V16.9508C12.5967 17.0869 11.7844 17.3251 11.0103 17.66C9.91162 18.1492 9.25624 18.935 9.25624 19.7647V20.7039C9.25624 21.2587 9.47605 21.7908 9.8673 22.1832C10.2586 22.5755 10.7892 22.7959 11.3425 22.7959C11.8958 22.7959 12.4265 22.5755 12.8177 22.1832ZM19.1847 22.1793C19.5758 22.5703 20.1057 22.7897 20.6579 22.7895C21.2096 22.7888 21.7385 22.5689 22.1288 22.178C22.5192 21.7871 22.7391 21.2571 22.7406 20.7039V15.0067C22.3826 15.2868 21.9912 15.521 21.5755 15.704C20.6159 16.119 19.6059 16.4053 18.5717 16.5556V20.7039C18.5731 21.2577 18.7936 21.7883 19.1847 22.1793ZM18.5717 15.0888C19.4038 14.9527 20.216 14.7145 20.9902 14.3796C22.0889 13.8922 22.7442 13.1064 22.7442 12.2804V11.3412C22.7442 10.7863 22.5244 10.2542 22.1332 9.86191C21.7419 9.46959 21.2113 9.24918 20.6579 9.24918C20.1046 9.24918 19.574 9.46959 19.1827 9.86191C18.7915 10.2542 18.5717 10.7863 18.5717 11.3412V15.0888Z" fill="white"/>
</svg>
