<svg width="32" height="32" viewBox="0 0 32 32" fill="none" xmlns="http://www.w3.org/2000/svg">
<path fill-rule="evenodd" clip-rule="evenodd" d="M31.8281 14.127H28.8238C27.9834 8.25186 23.2179 3.64617 17.2798 3.07337V0.0738525C24.8651 0.668173 30.9574 6.59916 31.8281 14.127Z" fill="white"/>
<path fill-rule="evenodd" clip-rule="evenodd" d="M31.9031 16.9998C31.4093 24.9271 25.1466 31.2861 17.2798 31.9043V28.9065C23.5035 28.3046 28.4365 23.2768 28.9163 16.9998H31.9031Z" fill="white"/>
<path fill-rule="evenodd" clip-rule="evenodd" d="M0.0750122 17.7772H3.08274C3.92265 23.6506 8.68814 28.2575 14.6268 28.8309V31.8304C7.03799 31.2361 0.945748 25.3051 0.0750122 17.7772Z" fill="white"/>
<path fill-rule="evenodd" clip-rule="evenodd" d="M0 14.9045C0.493242 6.97832 6.75649 0.616418 14.6239 0V2.99777C8.40024 3.59965 3.46724 8.62753 2.98679 14.9045H0Z" fill="white"/>
<path fill-rule="evenodd" clip-rule="evenodd" d="M9.66883 8.84741H23.03C23.1147 8.84772 23.1959 8.88151 23.2559 8.94143C23.3158 9.00134 23.3496 9.08252 23.3499 9.16725V22.5767C23.3498 22.6615 23.316 22.7428 23.2561 22.8029C23.1961 22.8629 23.1149 22.8968 23.03 22.8971H9.66883C9.58398 22.8968 9.5027 22.8629 9.44276 22.8029C9.38281 22.7428 9.34908 22.6615 9.34892 22.5767V9.16725C9.34892 9.08243 9.38263 9.00107 9.44262 8.94109C9.50262 8.88111 9.58399 8.84741 9.66883 8.84741ZM14.7736 13.7968C15.3208 13.7968 15.7535 13.9584 16.0669 14.2823C16.3804 14.6062 16.5438 15.0651 16.5438 15.6722V18.0803H16.1018V16.8312H13.4431V18.0803H13.0081V15.6722C13.0081 15.0651 13.1655 14.6018 13.4803 14.2823C13.7951 13.9629 14.2262 13.801 14.7736 13.7968ZM16.1036 16.4421V15.628C16.1036 15.1538 15.9873 14.7979 15.7547 14.5603C15.522 14.3166 15.1941 14.1968 14.7748 14.1968C14.3555 14.1968 14.0293 14.3184 13.7955 14.5603C13.5617 14.8022 13.4466 15.154 13.4466 15.628V16.4421H16.1036ZM18.7611 17.6912V14.2212H19.6206V13.8334H17.462V14.2212H18.3198V17.6912H17.462V18.0802H19.6206V17.6912H18.7611Z" fill="white"/>
<path fill-rule="evenodd" clip-rule="evenodd" d="M13.8037 7.57092C13.8881 7.57092 13.969 7.60444 14.0287 7.66409C14.0883 7.72375 14.1218 7.80465 14.1218 7.88902V9.80457C14.1255 9.88901 14.0954 9.97143 14.0382 10.0337C13.9811 10.096 13.9015 10.133 13.8171 10.1366C13.7327 10.1402 13.6502 10.1102 13.588 10.053C13.5257 9.99588 13.4887 9.91634 13.4851 9.8319C13.4845 9.8228 13.4845 9.81367 13.4851 9.80457V7.8896C13.4851 7.80508 13.5186 7.72402 13.5784 7.66426C13.6382 7.6045 13.7192 7.57092 13.8037 7.57092Z" fill="white"/>
<path fill-rule="evenodd" clip-rule="evenodd" d="M13.8037 21.6189C13.8881 21.6189 13.969 21.6524 14.0287 21.7121C14.0883 21.7717 14.1218 21.8526 14.1218 21.937V23.8525C14.1255 23.937 14.0954 24.0194 14.0382 24.0817C13.9811 24.1439 13.9015 24.181 13.8171 24.1846C13.7327 24.1882 13.6502 24.1581 13.588 24.101C13.5257 24.0439 13.4887 23.9643 13.4851 23.8799C13.4845 23.8708 13.4845 23.8616 13.4851 23.8525V21.9376C13.4854 21.8531 13.519 21.7723 13.5787 21.7126C13.6384 21.6529 13.7193 21.6192 13.8037 21.6189Z" fill="white"/>
<path fill-rule="evenodd" clip-rule="evenodd" d="M8.0757 13.1575C8.0757 13.073 8.10927 12.992 8.16904 12.9322C8.2288 12.8724 8.30986 12.8389 8.39438 12.8389H9.66617C9.751 12.8389 9.83235 12.8726 9.89233 12.9325C9.95232 12.9925 9.98601 13.0739 9.98601 13.1587C9.98601 13.2435 9.95232 13.3249 9.89233 13.3849C9.83235 13.4448 9.751 13.4785 9.66617 13.4785H8.39438C8.35283 13.4789 8.31163 13.471 8.27314 13.4554C8.23464 13.4397 8.19959 13.4167 8.17 13.3875C8.14041 13.3584 8.11685 13.3237 8.10067 13.2854C8.08449 13.2471 8.076 13.2061 8.0757 13.1645V13.1575Z" fill="white"/>
<path fill-rule="evenodd" clip-rule="evenodd" d="M8.07568 15.7133C8.07568 15.6288 8.10926 15.5478 8.16902 15.488C8.22879 15.4282 8.30984 15.3947 8.39436 15.3947H10.3035C10.3883 15.3947 10.4697 15.4283 10.5297 15.4883C10.5897 15.5483 10.6234 15.6297 10.6234 15.7145C10.6234 15.7993 10.5897 15.8807 10.5297 15.9407C10.4697 16.0006 10.3883 16.0343 10.3035 16.0343H8.39436C8.30984 16.0343 8.22879 16.0008 8.16902 15.941C8.10926 15.8812 8.07568 15.8002 8.07568 15.7157V15.7133Z" fill="white"/>
<path fill-rule="evenodd" clip-rule="evenodd" d="M8.07568 18.2673C8.07553 18.1826 8.109 18.1013 8.16875 18.0412C8.22849 17.9811 8.30964 17.9472 8.39436 17.9469H9.98484C10.0697 17.9469 10.151 17.9806 10.211 18.0406C10.271 18.1006 10.3047 18.1819 10.3047 18.2667C10.3047 18.3516 10.271 18.4329 10.211 18.4929C10.151 18.5529 10.0697 18.5866 9.98484 18.5866H8.39436C8.31051 18.587 8.22988 18.5543 8.17015 18.4954C8.11042 18.4365 8.07645 18.3564 8.07568 18.2726V18.2673Z" fill="white"/>
<path fill-rule="evenodd" clip-rule="evenodd" d="M24.6226 18.2675C24.6226 18.3521 24.589 18.4331 24.5292 18.4929C24.4695 18.5526 24.3884 18.5862 24.3039 18.5862H23.0333C22.9484 18.5862 22.8671 18.5525 22.8071 18.4925C22.7471 18.4326 22.7134 18.3512 22.7134 18.2664C22.7134 18.1815 22.7471 18.1002 22.8071 18.0402C22.8671 17.9802 22.9484 17.9465 23.0333 17.9465H24.3051C24.3467 17.9465 24.3879 17.9546 24.4264 17.9704C24.4649 17.9863 24.4999 18.0096 24.5293 18.039C24.5588 18.0683 24.5822 18.1032 24.5982 18.1416C24.6142 18.1801 24.6225 18.2213 24.6226 18.2629V18.2675Z" fill="white"/>
<path fill-rule="evenodd" clip-rule="evenodd" d="M24.6226 15.7122C24.6226 15.7541 24.6143 15.7955 24.5983 15.8342C24.5823 15.8729 24.5588 15.908 24.5292 15.9376C24.4996 15.9672 24.4645 15.9906 24.4259 16.0067C24.3872 16.0227 24.3457 16.0309 24.3039 16.0309H22.3936C22.3088 16.0309 22.2274 15.9972 22.1674 15.9372C22.1074 15.8773 22.0737 15.7959 22.0737 15.7111C22.0737 15.6263 22.1074 15.5449 22.1674 15.4849C22.2274 15.4249 22.3088 15.3912 22.3936 15.3912H24.3027C24.3446 15.3911 24.3861 15.3992 24.4248 15.415C24.4635 15.4309 24.4987 15.4543 24.5284 15.4838C24.5581 15.5132 24.5817 15.5483 24.5979 15.5869C24.614 15.6255 24.6224 15.6669 24.6226 15.7088V15.7122Z" fill="white"/>
<path fill-rule="evenodd" clip-rule="evenodd" d="M24.6226 13.1582C24.6227 13.2001 24.6145 13.2417 24.5985 13.2804C24.5825 13.3192 24.5591 13.3544 24.5295 13.3841C24.4999 13.4138 24.4647 13.4374 24.426 13.4535C24.3873 13.4697 24.3458 13.478 24.3039 13.4781H22.7134C22.6286 13.4781 22.5472 13.4444 22.4873 13.3844C22.4273 13.3244 22.3936 13.2431 22.3936 13.1582C22.3936 13.0734 22.4273 12.992 22.4873 12.9321C22.5472 12.8721 22.6286 12.8384 22.7134 12.8384H24.3039C24.3455 12.8382 24.3868 12.8461 24.4253 12.8618C24.4639 12.8776 24.4989 12.9007 24.5285 12.93C24.5581 12.9592 24.5816 12.9941 24.5978 13.0324C24.6139 13.0708 24.6223 13.112 24.6226 13.1536V13.1582Z" fill="white"/>
<path fill-rule="evenodd" clip-rule="evenodd" d="M16.3502 7.57089C16.392 7.57089 16.4334 7.57912 16.472 7.59511C16.5105 7.61109 16.5456 7.63452 16.5752 7.66406C16.6047 7.6936 16.6281 7.72867 16.6441 7.76726C16.6601 7.80585 16.6683 7.84722 16.6683 7.88899V9.32536C16.6701 9.36717 16.6637 9.40893 16.6493 9.44824C16.635 9.48756 16.613 9.52366 16.5847 9.55449C16.5564 9.58533 16.5223 9.61029 16.4844 9.62795C16.4465 9.6456 16.4054 9.65562 16.3636 9.65741C16.3218 9.65921 16.28 9.65275 16.2407 9.63841C16.2014 9.62406 16.1653 9.60212 16.1345 9.57382C16.1036 9.54553 16.0787 9.51143 16.061 9.47349C16.0434 9.43555 16.0333 9.3945 16.0315 9.35269C16.031 9.34359 16.031 9.33446 16.0315 9.32536V7.88899C16.0315 7.80447 16.0651 7.72341 16.1249 7.66365C16.1847 7.60389 16.2657 7.57031 16.3502 7.57031V7.57089Z" fill="white"/>
<path fill-rule="evenodd" clip-rule="evenodd" d="M16.3502 21.9393C16.392 21.9393 16.4334 21.9475 16.472 21.9635C16.5105 21.9795 16.5456 22.0029 16.5752 22.0325C16.6047 22.062 16.6281 22.0971 16.6441 22.1357C16.6601 22.1743 16.6683 22.2156 16.6683 22.2574V23.6938C16.6701 23.7356 16.6637 23.7773 16.6493 23.8166C16.635 23.856 16.613 23.8921 16.5847 23.9229C16.5564 23.9537 16.5223 23.9787 16.4844 23.9964C16.4465 24.014 16.4054 24.024 16.3636 24.0258C16.3218 24.0276 16.28 24.0212 16.2407 24.0068C16.2014 23.9925 16.1653 23.9705 16.1345 23.9422C16.1036 23.9139 16.0787 23.8798 16.061 23.8419C16.0434 23.804 16.0333 23.7629 16.0315 23.7211C16.031 23.712 16.031 23.7029 16.0315 23.6938V22.2574C16.0315 22.1729 16.0651 22.0918 16.1249 22.0321C16.1847 21.9723 16.2657 21.9387 16.3502 21.9387V21.9393Z" fill="white"/>
<path fill-rule="evenodd" clip-rule="evenodd" d="M18.8949 7.57092C18.9368 7.57092 18.9782 7.57917 19.0169 7.59518C19.0556 7.6112 19.0907 7.63467 19.1203 7.66426C19.1499 7.69385 19.1734 7.72898 19.1894 7.76765C19.2054 7.80631 19.2136 7.84775 19.2136 7.8896V9.16896C19.2154 9.21077 19.209 9.25252 19.1946 9.29184C19.1803 9.33115 19.1583 9.36726 19.13 9.39809C19.1017 9.42893 19.0676 9.45389 19.0297 9.47154C18.9918 9.4892 18.9507 9.49921 18.9089 9.50101C18.8671 9.5028 18.8253 9.49635 18.786 9.482C18.7467 9.46766 18.7106 9.44572 18.6798 9.41742C18.6489 9.38912 18.624 9.35503 18.6063 9.31709C18.5887 9.27915 18.5786 9.2381 18.5769 9.19629C18.5763 9.18719 18.5763 9.17806 18.5769 9.16896V7.8896C18.5768 7.84783 18.5849 7.80645 18.6008 7.76783C18.6168 7.7292 18.6401 7.69409 18.6696 7.6645C18.6991 7.63491 18.7341 7.61141 18.7727 7.59536C18.8112 7.5793 18.8526 7.571 18.8944 7.57092H18.8949Z" fill="white"/>
<path fill-rule="evenodd" clip-rule="evenodd" d="M18.8949 22.098C18.9368 22.098 18.9782 22.1063 19.0169 22.1223C19.0556 22.1383 19.0907 22.1618 19.1203 22.1914C19.1499 22.221 19.1734 22.2561 19.1894 22.2947C19.2054 22.3334 19.2136 22.3749 19.2136 22.4167V23.6961C19.2154 23.7379 19.209 23.7796 19.1946 23.8189C19.1803 23.8583 19.1583 23.8944 19.13 23.9252C19.1017 23.956 19.0676 23.981 19.0297 23.9986C18.9918 24.0163 18.9507 24.0263 18.9089 24.0281C18.8671 24.0299 18.8253 24.0234 18.786 24.0091C18.7467 23.9948 18.7106 23.9728 18.6798 23.9445C18.6489 23.9162 18.624 23.8821 18.6063 23.8442C18.5887 23.8062 18.5786 23.7652 18.5769 23.7234C18.5763 23.7143 18.5763 23.7052 18.5769 23.6961V22.4167C18.5768 22.3749 18.5849 22.3335 18.6008 22.2949C18.6168 22.2563 18.6401 22.2212 18.6696 22.1916C18.6991 22.162 18.7341 22.1385 18.7727 22.1225C18.8112 22.1064 18.8526 22.0981 18.8944 22.098H18.8949Z" fill="white"/>
</svg>
