<svg width="32" height="32" viewBox="0 0 32 32" version="1.1" xmlns="http://www.w3.org/2000/svg" xmlns:xlink="http://www.w3.org/1999/xlink"><title>white/ost</title><desc>Created with Sketch.</desc><g id="white/ost" stroke="none" stroke-width="1" fill="none" fill-rule="evenodd"><path d="M16,32 C7.163444,32 0,24.836556 0,16 C0,7.163444 7.163444,0 16,0 C24.836556,0 32,7.163444 32,16 C32,24.836556 24.836556,32 16,32 Z M15.9369369,10.2216216 L17.9477477,7.08648649 C19.0432432,7.31711712 20.1171171,6.61081081 20.3477477,5.51531532 C20.5783784,4.41981982 19.8720721,3.34594595 18.7765766,3.11531532 C17.6810811,2.88468468 16.6072072,3.59099099 16.3765766,4.68648649 C16.2540541,5.25585586 16.390991,5.85405405 16.7369369,6.31531532 L14.2432432,10.2072072 C9.86126126,10.6396396 6.66846847,14.5387387 7.1009009,18.9135135 C7.53333333,23.2882883 11.4324324,26.4882883 15.8072072,26.0558559 C20.181982,25.6234234 23.381982,21.7243243 22.9495495,17.3495495 C22.5747748,13.6162162 19.6558559,10.6468468 15.9369369,10.2216216 Z M15.0216216,22.3441441 C12.6864865,22.3441441 10.7981982,20.4558559 10.7981982,18.1207207 C10.7981982,15.7855856 12.6864865,13.8972973 15.0216216,13.8972973 C16.7801802,13.8972973 18.3513514,14.9855856 18.9711712,16.6288288 C18.1423423,15.5621622 16.6144144,15.3747748 15.5477477,16.1963964 C14.4810811,17.018018 14.2936937,18.5531532 15.1153153,19.6198198 C15.9369369,20.6864865 17.4720721,20.8738739 18.5387387,20.0522523 C18.6972973,19.9297297 18.8414414,19.7855856 18.963964,19.627027 C18.3441441,21.2630631 16.772973,22.3441441 15.0216216,22.3441441 Z" id="Combined-Shape" fill="#FFF" fill-rule="nonzero"/></g></svg>