<svg height="32" viewBox="0 0 32 32" width="32" xmlns="http://www.w3.org/2000/svg"><path d="m16 32c-8.836556 0-16-7.163444-16-16s7.163444-16 16-16 16 7.163444 16 16-7.163444 16-16 16zm.8583691-6.5c1.2875536 0 1.6523605-1.1942099 1.6523605-2.106152s-.0643777-1.3244873-.0643777-1.7370326c0-.6496539.3280173-2.2731893.9227468-2.9529553 1.1587983-1.3244874 1.888412-2.5117063 1.888412-4.2340169 1.0085837-.5211098 2.7896996-.9987937 3.4763949-1.7804584s1.2660944-1.8890229 1.2660944-3.47406514c0-.4053076-.0858369-.97708082-.2575107-1.71531966-.3956074 1.23407934-1.0036188 2.08088272-1.8240344 2.5404101-1.2017167.6731002-2.5556283 1.172497-3.7124463 1.172497h-8.4120172c-1.156818 0-2.5107296-.4993968-3.71244634-1.172497-.82041552-.45952738-1.42842696-1.30633076-1.82403433-2.5404101-.17167382.73823884-.25751073 1.31001206-.25751073 1.71531966 0 1.58504224.57939914 2.69240044 1.26609442 3.47406514s2.46781116 1.2593486 3.47639488 1.7804584c0 1.7223106.7296137 2.9095295 1.888412 4.2340169.5947295.679766.9227468 2.3033014.9227468 2.9529553 0 .4125453-.0643777.8250905-.0643777 1.7370326s.3648069 2.106152 1.6523605 2.106152z" fill="#fff"/></svg>