<svg width="32" height="32" viewBox="0 0 32 32" fill="none" xmlns="http://www.w3.org/2000/svg">
<path fill-rule="evenodd" clip-rule="evenodd" d="M32 16C32 24.8365 24.8365 32 16 32C7.16345 32 0 24.8365 0 16C0 7.16345 7.16345 0 16 0C24.8365 0 32 7.16345 32 16ZM8.93469 25.4632C8.29484 24.7031 7.77364 23.8507 7.38873 22.9347C4.77639 19.6478 5.39298 13.9784 8.72502 9.11412C5.39279 13.9784 4.77463 19.6478 7.37425 22.9347C7.76053 23.85 8.28163 24.7022 8.92023 25.4632C4.34729 24.7263 1.277 22.3676 4.0222 16.1765C4.74223 14.564 5.05403 12.9587 5.33582 11.5079C5.99268 8.12609 6.48645 5.58398 11.6076 5.74829C11.1742 6.15284 10.7191 6.62964 10.2242 7.19313C10.7227 6.62964 11.1778 6.1673 11.6257 5.75552L12.0628 5.7772C13.6919 5.87452 15.2837 6.10071 16.7514 6.49787C15.2841 6.09885 13.6874 5.86737 12.0484 5.76997L11.6113 5.75191C13.6269 3.87722 15.9531 3.27761 18.6044 5.11979C20.423 6.38916 22.3035 6.70737 24.5725 7.09131L24.5725 7.09132L24.5725 7.09132L24.5725 7.09132L24.5725 7.09132L24.5725 7.09133C24.9895 7.16188 25.4195 7.23465 25.8647 7.31595C28.4691 7.79275 29.0253 10.4296 27.8333 13.7888L27.8319 13.7925C29.6465 16.8474 29.6305 20.1541 25.7021 21.8475C23.0683 22.9823 21.3667 24.5312 19.9161 25.8516C17.5113 28.0406 15.7967 29.6014 11.6691 27.6052C10.6177 27.0905 9.6861 26.3608 8.93469 25.4632ZM14.0496 22.9204C15.8176 23.3008 17.6643 22.9657 19.1859 21.9883C22.3538 19.9619 22.7836 16.0139 21.2196 12.5968C19.6158 9.08948 15.2162 8.12866 11.7847 10.5668C8.71803 12.7341 7.70664 16.805 9.7511 19.9583C10.7361 21.475 12.2816 22.54 14.0496 22.9204Z" fill="white"/>
</svg>
