<svg xmlns="http://www.w3.org/2000/svg" width="32" height="32" viewBox="0 0 32 32">
  <path fill="#FFF" d="M16,32 C7.163444,32 0,24.836556 0,16 C0,7.163444 7.163444,0 16,0 C24.836556,0 32,7.163444 32,16 C32,24.836556 24.836556,32 16,32 Z M26.9101661,15.6957203 C26.8597861,15.5813286 26.778166,15.4858529 26.695116,15.3950783 C24.7932147,13.2427906 20.9224221,9 20.9224221,9 L16.0054187,14.3775294 L11.0245053,9.05081588 C11.0245053,9.05081588 7.10850269,13.3298715 5.19054139,15.5067837 C4.94095122,15.7530281 4.94095122,16.196268 5.16480137,16.4590779 C6.16173205,17.5947121 11.0590454,22.995187 11.0590454,22.995187 L15.9992587,17.5809448 L20.904162,23 L26.8213961,16.454041 C26.8213961,16.454041 26.9462461,16.324427 26.9726462,16.2370102 C27.0309462,16.0575876 26.9894762,15.8610398 26.9101661,15.6957203 Z M7.91777324,16.2948776 C7.75838313,16.1061649 7.81184317,15.8086569 7.96067327,15.6303536 C8.58679369,14.9174762 11.0921554,12.2296069 11.0921554,12.2296069 L14.5815778,15.9354728 L11.0858854,19.7587525 C11.0858854,19.7587525 8.94671394,17.474724 7.91777324,16.2948776 Z M23.9060641,16.4213577 C23.842484,16.5546655 23.6495439,16.7759496 23.6495439,16.7759496 L20.9391421,19.7206965 L17.4411397,16.0002798 L20.885022,12.2260252 C20.885022,12.2260252 22.8690934,14.2811583 23.778024,15.3853405 C23.855024,15.4823831 23.9457741,15.5734936 23.9848241,15.694601 C24.0684242,15.93357 24.0157342,16.2001855 23.9060641,16.4212458 L23.9060641,16.4213577 Z"/>
</svg>
