<svg width="32" height="32" viewBox="0 0 32 32" fill="none" xmlns="http://www.w3.org/2000/svg">
<path fill-rule="evenodd" clip-rule="evenodd" d="M16 32C24.8365 32 32 24.8365 32 16C32 7.1635 24.8365 0 16 0C7.1635 0 0 7.1635 0 16C0 24.8365 7.1635 32 16 32ZM16.3235 28.8973C16.4835 28.8297 16.6288 28.7306 16.7512 28.6057L19.9206 25.3759V21.5714L15.8187 25.7518L13.7974 23.6913C13.5493 23.4398 13.2137 23.2985 12.8637 23.2983H4.85714L6.78535 25.594L11.9149 25.5795L14.8846 28.6057L14.8859 28.6069C15.0084 28.7317 15.1539 28.8306 15.314 28.898C15.4741 28.9655 15.6456 29.0001 15.8188 29C15.992 28.9999 16.1635 28.965 16.3235 28.8973ZM28.2038 14.8358C28.449 15.0828 28.587 15.4181 28.5873 15.7678C28.5876 16.1175 28.4503 16.4531 28.2056 16.7006L28.2038 16.7024L25.2613 19.6726L25.2763 24.8023L23.0436 26.7302V18.7238C23.0441 18.3737 23.1819 18.038 23.4269 17.7901L25.4293 15.7691L21.3651 11.6667H25.0642L28.2038 14.8358ZM3.10006 16.5302C3.1659 16.6901 3.26228 16.8353 3.38371 16.9575L6.52273 20.127H10.2222L6.15769 16.0251L8.16086 14.0033C8.40572 13.7555 8.54339 13.42 8.54377 13.07V5.0635L6.31109 6.9917L6.32565 12.1217L3.38371 15.091L3.38134 15.0934C3.26022 15.2159 3.1642 15.3614 3.09877 15.5214C3.03334 15.6814 2.99978 15.8528 3 16.0259C3.00022 16.199 3.03422 16.3704 3.10006 16.5302ZM14.8358 3.39464C15.0827 3.1424 15.4178 3.00045 15.7674 3C16.117 2.99956 16.4525 3.14066 16.7 3.39227L16.7024 3.39467L19.6726 6.42065L24.8023 6.40572L26.7302 8.70174H18.7238C18.3738 8.7012 18.0381 8.55962 17.7901 8.30788L15.7687 6.2479L11.6667 10.4286V6.62379L14.8358 3.39464ZM14.9397 13.6365C15.4606 13.3029 15.8566 12.9057 15.9406 12.6141L15.9418 12.6129C16.0175 12.3648 15.8322 12.2392 15.4969 12.2352C15.6028 12.2196 15.7099 12.2134 15.817 12.2169C16.171 12.2385 16.3378 12.3633 16.2754 12.6345C16.1914 12.9681 15.7282 13.4277 15.1281 13.8237C15.0033 13.8861 14.8989 13.7193 14.9193 13.6569L14.9397 13.6365ZM15.4969 12.2352L15.4834 12.2373H15.3994C15.4331 12.2355 15.4656 12.2349 15.4969 12.2352ZM17.4634 13.0112C17.2762 13.7204 15.8782 14.8257 14.3349 15.4929C14.0714 15.6113 13.7989 15.7088 13.5201 15.7845C13.4951 15.7909 13.473 15.8057 13.4577 15.8265C13.3953 15.9105 13.4157 16.1181 13.5621 16.0977C13.8333 16.0177 14.1253 15.9133 14.4381 15.7845C16.0654 15.0969 17.5678 13.9077 17.7551 13.16C17.7919 13.0604 17.7886 12.9504 17.7458 12.8533C17.703 12.7561 17.6242 12.6793 17.5258 12.6392C17.4736 12.6182 17.4163 12.5921 17.359 12.566L17.3587 12.5659C17.3338 12.5545 17.3089 12.5432 17.2844 12.5322C17.2555 12.5154 17.2246 12.5021 17.1922 12.4928C17.2216 12.5046 17.2527 12.5181 17.2844 12.5322C17.3028 12.543 17.3204 12.5552 17.3369 12.5687C17.3795 12.6036 17.4146 12.6467 17.4399 12.6956C17.4653 12.7444 17.4805 12.7979 17.4845 12.8528C17.4886 12.9077 17.4814 12.9628 17.4634 13.0148V13.0112ZM19.3403 14.4094C19.3696 14.4822 19.3839 14.5602 19.3823 14.6386H19.3811C19.3048 14.5549 19.2478 14.4553 19.2143 14.347C19.2187 14.2591 19.197 14.1718 19.1519 14.0962L19.2983 14.3254L19.3403 14.4094ZM19.5492 15.2421C19.3403 15.9934 18.0479 17.1202 16.483 17.9338C16.4613 17.9408 16.4414 17.9525 16.4247 17.9681C16.4081 17.9837 16.3951 18.0028 16.3866 18.024C16.3782 18.0452 16.3746 18.068 16.376 18.0908C16.3774 18.1136 16.3838 18.1357 16.3948 18.1557C16.4058 18.1757 16.4211 18.1931 16.4396 18.2065C16.458 18.2199 16.4792 18.229 16.5016 18.2333C16.5241 18.2375 16.5471 18.2368 16.5692 18.2311C16.5913 18.2254 16.6119 18.2148 16.6294 18.2003C18.1727 17.3866 19.4447 16.3018 19.6296 15.5505C19.6663 15.4503 19.6734 15.3415 19.65 15.2373C19.64 15.1865 19.6199 15.1257 19.5994 15.0642L19.5993 15.0639L19.5993 15.0637C19.5902 15.0365 19.5812 15.0092 19.5729 14.9824C19.5676 14.9468 19.5585 14.9115 19.5455 14.8773C19.5516 14.9098 19.5615 14.9455 19.5729 14.9824C19.5856 15.0678 19.5765 15.1555 19.5455 15.2373L19.5492 15.2421ZM18.1511 17.7611C18.1695 17.7151 18.1982 17.6741 18.2351 17.6411L18.2387 17.6423C19.0307 17.0578 19.6199 16.4326 19.74 15.9526C19.7563 15.87 19.7632 15.7859 19.7604 15.7018L19.7784 15.9454V16.0654C19.7808 16.1289 19.774 16.1923 19.758 16.2538C19.6523 16.7134 19.0895 17.3182 18.3179 17.8811C18.1931 17.9699 18.1307 17.8451 18.1511 17.7611ZM13.9389 13.8248C14.1253 13.747 14.3062 13.6563 14.4802 13.5536C14.4877 13.5472 14.4938 13.5392 14.498 13.5302C14.5022 13.5212 14.5044 13.5114 14.5044 13.5014C14.5044 13.4915 14.5022 13.4817 14.498 13.4727C14.4938 13.4637 14.4877 13.4557 14.4802 13.4492C14.4665 13.4301 14.4485 13.4145 14.4277 13.4036C14.4068 13.3928 14.3837 13.387 14.3601 13.3868C14.2185 13.4713 14.0723 13.5479 13.9221 13.616C13.4421 13.8248 13.0665 13.8452 12.9837 13.7204C12.9695 13.6991 12.9603 13.6749 12.9568 13.6496C12.9533 13.6242 12.9555 13.5984 12.9633 13.574C12.9923 13.4987 13.0327 13.4282 13.0833 13.3652L13.3161 13.1325L13.3179 13.1312C13.3335 13.1207 13.3491 13.1102 13.3701 13.0892C13.3941 13.0635 13.4226 13.0424 13.4541 13.0268C13.4651 13.015 13.477 13.0042 13.4898 12.9944L13.5233 12.9722C13.5282 12.9695 13.5331 12.9669 13.5381 12.9644C13.5547 12.9564 13.5647 12.9482 13.5733 12.9399C13.7952 12.7984 14.0287 12.6757 14.2713 12.5732C14.3136 12.534 14.362 12.5021 14.4145 12.4787C14.4366 12.473 14.4582 12.4657 14.4791 12.4567C14.9358 12.3249 15.2296 12.3708 15.1678 12.5888C15.1435 12.6841 15.0927 12.7707 15.0214 12.8384C15.0643 12.8656 15.1124 12.8834 15.1627 12.8906C15.2129 12.8978 15.2642 12.8944 15.313 12.8804C15.4008 12.7935 15.4652 12.6857 15.5002 12.5672C15.5842 12.296 15.2494 12.2072 14.749 12.3584C14.708 12.3695 14.6679 12.3836 14.629 12.4004L14.509 12.4424C14.4992 12.4475 14.4892 12.4523 14.4791 12.4567C14.4656 12.4605 14.4519 12.4646 14.4382 12.4688C14.4302 12.4719 14.4223 12.4752 14.4145 12.4787C14.4061 12.4808 14.3975 12.4827 14.389 12.4844C14.347 12.5012 14.3068 12.5221 14.2689 12.5468C14.2489 12.5566 14.2337 12.5616 14.2188 12.5667C14.2025 12.5721 14.1865 12.5775 14.1645 12.5888C14.1435 12.5996 14.1279 12.6047 14.1123 12.6098C14.0967 12.6149 14.0811 12.62 14.0601 12.6308C14.0273 12.6548 13.9924 12.6756 13.9557 12.6932L13.8717 12.7352C13.8422 12.745 13.8143 12.7592 13.7889 12.7772C13.7567 12.7911 13.7283 12.8125 13.7061 12.8396C13.6745 12.8551 13.6461 12.8763 13.6221 12.902C13.6011 12.9122 13.5906 12.9227 13.5801 12.9332L13.5733 12.9399C13.5566 12.9506 13.5399 12.9614 13.5233 12.9722C13.5116 12.9789 13.5004 12.9863 13.4898 12.9944C13.4511 13.0202 13.4128 13.0466 13.3749 13.0736L13.3161 13.1325C13.3011 13.1426 13.2859 13.153 13.2657 13.1732C13.2447 13.1942 13.2291 13.2047 13.2135 13.2152C13.1979 13.2257 13.1823 13.2362 13.1613 13.2572C13.057 13.3244 12.9652 13.4093 12.8901 13.508C12.8364 13.5605 12.7954 13.6246 12.7701 13.6952C12.7701 13.7054 12.765 13.7159 12.7599 13.7264C12.7548 13.7369 12.7497 13.7474 12.7497 13.7576V13.7996C12.7445 13.8494 12.7515 13.8996 12.7701 13.9461C12.8901 14.1129 13.3701 14.0661 13.9593 13.826L13.9389 13.8248ZM12.2901 14.5545V14.5125L12.2877 14.4981C12.2708 14.4502 12.2568 14.4013 12.2457 14.3517C12.2535 14.3435 12.2593 14.3336 12.2629 14.3228C12.2664 14.312 12.2675 14.3006 12.2661 14.2893C12.2769 14.2683 12.282 14.2527 12.2871 14.2371C12.2922 14.2215 12.2973 14.2059 12.3081 14.1849C12.3181 14.1654 12.3326 14.1414 12.3472 14.1171L12.3472 14.1171C12.3641 14.0892 12.3812 14.0609 12.3921 14.0385C12.4178 13.9969 12.4458 13.9569 12.4761 13.9185C12.5164 13.8837 12.5516 13.8433 12.5805 13.7985L12.6429 13.7361C12.6243 13.7642 12.6057 13.7879 12.589 13.8092C12.5679 13.836 12.5498 13.8591 12.5385 13.8825C12.507 13.9431 12.4794 14.0056 12.4557 14.0697C12.4381 14.1463 12.4452 14.2266 12.4761 14.2989C12.6021 14.4657 13.0185 14.4657 13.6029 14.2785C13.6869 14.2785 13.6869 14.4249 13.6869 14.4249C13.6869 14.5077 13.6653 14.6337 12.9357 14.7165C12.7281 14.7633 12.4305 14.7429 12.3105 14.5965C12.2993 14.5851 12.2921 14.5704 12.2901 14.5545ZM14.2101 15.0802C15.607 14.4922 16.8802 13.4901 17.0458 12.8445C17.1082 12.6153 17.0254 12.4485 16.795 12.3861C16.7471 12.3693 16.6982 12.3553 16.6486 12.3441C16.6069 12.3313 16.5638 12.3232 16.5202 12.3201C16.5635 12.3304 16.604 12.3501 16.6388 12.3778C16.6737 12.4054 16.7021 12.4404 16.722 12.4802C16.7419 12.52 16.7528 12.5637 16.754 12.6082C16.7553 12.6526 16.7467 12.6969 16.729 12.7377C16.5622 13.3221 15.415 14.2401 14.1429 14.7778C13.1421 15.1954 12.3705 15.2578 12.1617 14.9866C12.1334 14.9442 12.1149 14.896 12.1076 14.8455C12.1004 14.7951 12.1045 14.7436 12.1197 14.695C12.1292 14.6753 12.1343 14.6556 12.1392 14.6366L12.1441 14.6182L12.1617 14.575C12.1535 14.5886 12.1484 14.6031 12.1441 14.6182L12.1076 14.7067C12.0755 14.7845 12.0414 14.8669 12.0152 14.935C12.0152 14.9452 12.0101 14.9557 12.005 14.9662C11.9999 14.9767 11.9948 14.9872 11.9948 14.9974C11.9948 15.0074 11.9899 15.0227 11.9849 15.0383C11.9797 15.0542 11.9744 15.0704 11.9744 15.0814C11.9621 15.125 11.9614 15.1711 11.9723 15.2151C11.9833 15.2591 12.0055 15.2994 12.0368 15.3322C12.2493 15.6178 13.1037 15.5602 14.2101 15.0802ZM11.8112 16.6403C11.8098 16.6515 11.8109 16.663 11.8144 16.6738C11.8179 16.6846 11.8238 16.6944 11.8316 16.7027V16.7447C11.8316 16.7515 11.8355 16.7553 11.8398 16.7596C11.8455 16.7653 11.852 16.7717 11.852 16.7867L11.839 16.7698C11.8369 16.7663 11.8344 16.7631 11.8316 16.7603L11.839 16.7698C11.8445 16.7788 11.8481 16.7897 11.8518 16.8007C11.8572 16.8166 11.8626 16.8327 11.8736 16.8431C12.1652 17.2403 13.2705 17.1623 14.6889 16.5563C16.5034 15.7846 18.1523 14.4922 18.3815 13.6401C18.4131 13.5507 18.4187 13.4541 18.3974 13.3617C18.3762 13.2692 18.329 13.1847 18.2615 13.1181L18.0947 12.9717L17.9987 12.9055C17.9909 12.8997 17.9829 12.8942 17.9747 12.8889L17.9987 12.9055C18.0499 12.9436 18.0916 12.9934 18.1203 13.0508C18.1532 13.117 18.1676 13.1908 18.1619 13.2645C18.0995 14.5786 13.0101 17.7047 11.8628 16.4975C11.8102 16.4242 11.7809 16.3368 11.7788 16.2467C11.7752 16.3582 11.782 16.4699 11.7992 16.5803V16.6007C11.811 16.6116 11.8183 16.6266 11.8196 16.6427L11.8112 16.6403ZM15.0226 17.2402C16.9426 16.4266 18.6935 15.0501 18.9443 14.1525C18.973 14.0733 18.9824 13.9884 18.9715 13.9049C18.9607 13.8214 18.9299 13.7417 18.8819 13.6725C18.8041 13.5769 18.7203 13.4863 18.6311 13.4012C18.7511 13.5212 18.7775 13.6929 18.7355 13.9017C18.5063 14.7777 16.7746 16.1338 14.8954 16.9258C13.4169 17.5582 12.29 17.6626 11.978 17.2402C11.9585 17.2198 11.9432 17.1961 11.9326 17.1705C11.9265 17.145 11.9208 17.1195 11.9156 17.0938C11.9168 17.1204 11.9226 17.1463 11.9326 17.1705C11.9556 17.2667 11.9848 17.3613 12.02 17.4538V17.5162C12.03 17.5261 12.0351 17.5363 12.0402 17.5465C12.0455 17.5573 12.0509 17.5681 12.062 17.5786C12.3333 17.9962 13.5021 17.8918 15.0238 17.245L15.0226 17.2402ZM15.3982 17.9747C16.5454 17.4743 17.6507 16.7854 18.3983 16.1182C18.4228 16.0903 18.4396 16.0565 18.447 16.02C18.4544 15.9836 18.4521 15.9459 18.4403 15.9106C18.4337 15.8902 18.4227 15.8714 18.4081 15.8557C18.3934 15.84 18.3755 15.8277 18.3556 15.8197C18.3356 15.8116 18.3142 15.8081 18.2927 15.8093C18.2713 15.8105 18.2504 15.8164 18.2315 15.8266C17.3326 16.5957 16.3207 17.2218 15.2314 17.6831C13.6881 18.3095 12.4988 18.4139 12.1868 17.9747C12.2234 18.0329 12.2517 18.0959 12.2708 18.1619C12.2729 18.1777 12.28 18.1925 12.2912 18.2039C12.2912 18.2149 12.2965 18.2203 12.3017 18.2256C12.3067 18.2307 12.3116 18.2358 12.3116 18.2459C12.6032 18.7259 13.8129 18.6419 15.3982 17.9747ZM14.1477 19.002C14.1681 19.038 14.1897 19.1016 14.1057 19.122L14.0961 19.1232C13.4649 19.2276 13.0317 19.1652 12.8649 18.9564C12.8511 18.9404 12.8365 18.9213 12.8213 18.9016C12.7968 18.8697 12.7708 18.8359 12.7449 18.81C12.7398 18.8023 12.7346 18.7946 12.7293 18.7871C12.9571 18.9391 13.3701 18.9705 13.9185 18.882C13.9637 18.8811 14.0084 18.8916 14.0485 18.9126C14.0886 18.9336 14.1227 18.9643 14.1477 19.002ZM12.7293 18.7871C12.6884 18.7598 12.6535 18.7286 12.6249 18.6936V18.6636C12.6633 18.7015 12.6983 18.7429 12.7293 18.7871ZM15.9202 19.206C15.9507 19.1975 15.9766 19.1774 15.9923 19.15C16.008 19.1226 16.0123 19.0901 16.0042 19.0596C15.978 19.0194 15.9376 18.9906 15.8911 18.979C15.8445 18.9674 15.7953 18.9739 15.7534 18.9972C14.5638 19.4727 13.6388 19.5711 13.245 19.3294C13.2261 19.3156 13.207 19.3021 13.1877 19.2888C13.2053 19.3032 13.2244 19.3168 13.245 19.3294C13.3265 19.3888 13.4047 19.4525 13.4793 19.5204C13.8393 19.77 14.7513 19.6668 15.9202 19.2084V19.206ZM13.9304 19.7827L13.8969 19.7687L13.8981 19.7699L13.9162 19.7772L13.9304 19.7827ZM14.2305 19.9355C14.134 19.8778 14.0338 19.8267 13.9304 19.7827C15.3584 20.3174 19.5711 17.9865 19.7783 16.5574V16.6246C19.7677 16.6759 19.7623 16.7323 19.7571 16.7862V16.7862L19.7571 16.7863C19.7518 16.842 19.7467 16.8951 19.7363 16.9378C19.7285 16.946 19.7227 16.9559 19.7191 16.9667C19.7156 16.9775 19.7145 16.9889 19.7159 17.0002C19.5287 17.7202 18.0887 18.8723 16.5046 19.5395C15.4606 19.9775 14.6265 20.1023 14.2305 19.9355ZM16.6918 19.7064C15.8752 20.0565 15.1858 20.1887 14.7743 20.1205C14.7434 20.1136 14.7143 20.1073 14.6889 20.1024C14.7159 20.1095 14.7444 20.1155 14.7743 20.1205C14.807 20.1277 14.8419 20.1358 14.8768 20.1438L14.8768 20.1438C14.9446 20.1594 15.0124 20.175 15.0646 20.1852C16.1446 20.352 18.9047 18.9959 19.4867 17.7659C19.5171 17.6905 19.5474 17.5937 19.5755 17.5042L19.5884 17.4631L19.599 17.4299L19.6033 17.4168L19.6067 17.4059L19.599 17.4299C19.3699 18.1043 18.0936 19.1087 16.6918 19.7064ZM16.9846 19.8935C17.5612 19.6575 18.1017 19.3416 18.5903 18.9551L18.5915 18.9563C18.5915 18.9407 18.6021 18.9364 18.6238 18.9275C18.6322 18.9241 18.6422 18.92 18.6539 18.9143V18.9275C18.6539 18.9385 18.6487 18.9439 18.6435 18.9492C18.6385 18.9544 18.6335 18.9595 18.6335 18.9695C18.6237 18.9695 18.6141 18.9824 18.6008 19.0004C18.5847 19.022 18.5632 19.051 18.5291 19.0739C18.0927 19.4112 17.6162 19.6934 17.1107 19.9139C16.753 20.0747 16.3731 20.1803 15.9838 20.2272H15.7806C16.1004 20.2058 16.5137 20.0957 16.9846 19.8935ZM15.5662 20.2272C15.6319 20.2323 15.7035 20.2323 15.7806 20.2272H15.5662ZM11.8112 15.8469V15.9514C11.8101 15.9596 11.8114 15.968 11.8151 15.9754C11.8187 15.9829 11.8245 15.9892 11.8316 15.9934V16.0138C11.8316 16.0287 11.8382 16.0352 11.8438 16.0408C11.8482 16.0451 11.852 16.049 11.852 16.0558V16.0762C11.8912 16.1267 11.9412 16.1677 11.9985 16.1962C12.0193 16.1886 12.0369 16.1741 12.0483 16.1551C12.0597 16.1361 12.0641 16.1137 12.0609 16.0918C12.0727 16.0148 12.0657 15.9362 12.0405 15.8625C11.9793 15.8406 11.9276 15.7982 11.894 15.7425C11.8609 15.6871 11.8404 15.6253 11.8336 15.5617L11.852 15.4293V15.3873C11.8432 15.4217 11.8364 15.4566 11.8316 15.4917C11.8305 15.5152 11.8311 15.5385 11.8336 15.5617L11.8316 15.5757L11.7896 15.7845C11.81 15.7845 11.81 15.8265 11.81 15.8469H11.8112ZM19.5296 18.6062C19.5807 18.5992 19.6325 18.6125 19.6739 18.6431H19.6763C19.7215 18.6698 19.7552 18.7124 19.7707 18.7625C19.7862 18.8127 19.7825 18.8668 19.7603 18.9143C19.3687 19.5111 18.8389 20.0047 18.2159 20.3532C17.5019 20.7748 16.6882 20.9981 15.859 21H15.8386C15.1828 21.0027 14.5334 20.8708 13.9306 20.6123C13.3279 20.3539 12.7846 19.9745 12.3344 19.4976V19.7268C12.3362 19.7547 12.332 19.7826 12.3221 19.8087C12.3123 19.8349 12.2969 19.8586 12.2772 19.8783C12.2574 19.8981 12.2337 19.9134 12.2076 19.9233C12.1814 19.9332 12.1535 19.9373 12.1256 19.9356C12.0703 19.9356 12.0171 19.9136 11.978 19.8744C11.9388 19.8353 11.9168 19.7822 11.9168 19.7268V18.8711C11.924 18.8669 11.9298 18.8607 11.9334 18.8532C11.937 18.8458 11.9384 18.8374 11.9372 18.8291L11.9576 18.8087C11.9576 18.8033 11.9598 18.7981 11.9636 18.7943C11.9674 18.7905 11.9726 18.7883 11.978 18.7883V18.7691H12.0044C12.0086 18.762 12.0149 18.7562 12.0223 18.7526C12.0298 18.7489 12.0382 18.7476 12.0464 18.7487H12.1664C12.1706 18.7559 12.1769 18.7617 12.1843 18.7653C12.1918 18.7689 12.2002 18.7703 12.2084 18.7691L12.2288 18.7895C12.2342 18.7895 12.2394 18.7917 12.2433 18.7955C12.2471 18.7993 12.2492 18.8045 12.2492 18.8099H12.2696C12.6782 19.3614 13.2105 19.8092 13.8237 20.1175C14.4369 20.4257 15.1139 20.5858 15.8002 20.5848H15.8158C16.5775 20.5815 17.3252 20.3801 17.9855 20.0004C18.5474 19.6685 19.0303 19.218 19.4003 18.6803C19.4321 18.6397 19.4785 18.6131 19.5296 18.6062ZM15.607 11.6348V11.5928C15.6081 11.5846 15.6068 11.5762 15.6032 11.5687C15.5995 11.5613 15.5938 11.555 15.5866 11.5508C15.5872 11.5419 15.585 11.5331 15.5803 11.5255C15.5755 11.518 15.5685 11.5121 15.5602 11.5088L15.5398 11.4884C15.5398 11.468 15.5194 11.468 15.4978 11.468L15.4774 11.4476L14.7526 11.03C14.7297 11.0156 14.704 11.0064 14.6773 11.0028C14.6505 10.9992 14.6233 11.0014 14.5975 11.0092C14.5716 11.0171 14.5478 11.0304 14.5275 11.0483C14.5073 11.0662 14.4911 11.0882 14.4802 11.1128C14.466 11.1357 14.457 11.1614 14.4536 11.188C14.4502 11.2147 14.4525 11.2418 14.4605 11.2675C14.4685 11.2932 14.4818 11.3169 14.4997 11.337C14.5176 11.3571 14.5396 11.3731 14.5642 11.384L14.7934 11.504C14.2959 11.6147 13.8178 11.7992 13.3749 12.0513C12.6672 12.4741 12.0787 13.07 11.6648 13.7829C11.2594 14.4666 11.0317 15.2409 11.0025 16.0352C10.9734 16.8295 11.1438 17.6184 11.498 18.3299C11.5176 18.3619 11.5452 18.3884 11.5779 18.4067C11.6107 18.425 11.6477 18.4345 11.6852 18.4343C11.7144 18.4373 11.7437 18.4301 11.768 18.4139C11.7931 18.4035 11.8155 18.3877 11.8337 18.3677C11.8519 18.3477 11.8655 18.3239 11.8736 18.298C11.8816 18.2721 11.8838 18.2448 11.8801 18.218C11.8764 18.1911 11.8668 18.1654 11.852 18.1427C11.3575 17.1418 11.2613 15.9905 11.5827 14.9213C11.9041 13.8522 12.6192 12.9448 13.5837 12.3825C14.1428 12.0531 14.7721 11.861 15.4198 11.8221C15.4311 11.8235 15.4425 11.8224 15.4533 11.8189C15.4641 11.8153 15.4739 11.8095 15.4822 11.8017C15.4921 11.7917 15.5023 11.7866 15.5125 11.7815C15.5233 11.7761 15.5341 11.7708 15.5446 11.7597L15.5602 11.7393L15.5866 11.7201V11.6973C15.5855 11.689 15.5868 11.6806 15.5904 11.6732C15.5941 11.6657 15.5998 11.6594 15.607 11.6552V11.6348ZM20.7018 17.5467C20.7519 17.5622 20.7945 17.5959 20.8212 17.6411L20.82 17.6423C20.8412 17.688 20.8466 17.7395 20.8353 17.7886C20.824 17.8377 20.7966 17.8816 20.7576 17.9135L20.0688 18.3095C20.0688 18.3149 20.0666 18.3201 20.0628 18.3239C20.059 18.3278 20.0538 18.3299 20.0484 18.3299H19.902C19.8915 18.3188 19.8807 18.3134 19.8699 18.308C19.8597 18.3029 19.8495 18.2978 19.8396 18.2879V18.2675L19.8192 18.2471V18.2267C19.8119 18.2226 19.806 18.2164 19.8023 18.2089C19.7987 18.2014 19.7974 18.1929 19.7987 18.1847V18.0383C20.0886 17.3967 20.2227 16.6958 20.1901 15.9926C20.1576 15.2894 19.9593 14.6038 19.6115 13.9917C19.2541 13.3848 18.7575 12.8717 18.1626 12.4946C17.5677 12.1176 16.8916 11.8874 16.1902 11.8232C16.1639 11.8227 16.138 11.8167 16.1141 11.8058C16.0902 11.7948 16.0689 11.779 16.0513 11.7595C16.0338 11.7399 16.0204 11.7169 16.0121 11.692C16.0038 11.667 16.0007 11.6406 16.003 11.6144C16.0034 11.588 16.0092 11.562 16.0201 11.538C16.031 11.514 16.0468 11.4924 16.0664 11.4747C16.086 11.4571 16.109 11.4436 16.134 11.4352C16.159 11.4269 16.1855 11.4237 16.2118 11.426C16.9765 11.5027 17.7125 11.7579 18.3605 12.171C19.0085 12.5841 19.5505 13.1437 19.9428 13.8045C20.2812 14.3815 20.4934 15.0238 20.5654 15.6888C20.6374 16.3539 20.5675 17.0266 20.3604 17.6627L20.55 17.5571C20.5975 17.5349 20.6517 17.5312 20.7018 17.5467Z" fill="white"/>
</svg>
