<svg width="32" height="32" viewBox="0 0 32 32" fill="none" xmlns="http://www.w3.org/2000/svg">
<path fill-rule="evenodd" clip-rule="evenodd" d="M16 32C24.8365 32 32 24.8365 32 16C32 7.1635 24.8365 0 16 0C7.1635 0 0 7.1635 0 16C0 24.8365 7.1635 32 16 32ZM16.3916 4.00002L26.7832 9.99959V11.0259L24.3787 12.4215V11.3875L16.3916 6.77617L8.40447 11.3875V13.99L5.99998 15.3852V9.99959L16.3916 4.00002ZM24.3788 20.6105L16.3916 25.2218L8.40449 20.6105V18.3156L11.9105 16.281L14.8196 17.97L17.4604 16.4387L14.5513 14.7504L11.9105 13.2191L9.26968 14.7504L8.40449 15.2526L6 16.6479V22.0005L16.3916 28L26.7833 22.0005V16.6127L24.3788 18.0083V20.6105ZM18.5466 17.0676L24.3788 13.6827L26.7832 12.2875V15.3515L24.3788 16.7467L21.1874 18.5989L18.5466 20.1302L15.9061 18.5989L18.5466 17.0676Z" fill="white"/>
</svg>
