<?xml version="1.0" encoding="UTF-8"?>
<svg width="32px" height="32px" viewBox="0 0 32 32" version="1.1" xmlns="http://www.w3.org/2000/svg" xmlns:xlink="http://www.w3.org/1999/xlink">
    <!-- Generator: Sketch 52.1 (67048) - http://www.bohemiancoding.com/sketch -->
    <title>svg/white/polis</title>
    <desc>Created with Sketch.</desc>
    <g id="white/polis" stroke="none" stroke-width="1" fill="none" fill-rule="evenodd">
        <path d="M16,32 C7.163444,32 0,24.836556 0,16 C0,7.163444 7.163444,0 16,0 C24.836556,0 32,7.163444 32,16 C32,24.836556 24.836556,32 16,32 Z M25.6357616,22.6804636 L25.6357616,21.6804636 C25.6357616,21.4817881 25.5033113,21.3493377 25.3013245,21.3493377 L24.6357616,21.3493377 L24.6357616,20.3460265 C24.6357616,20.147351 24.5033113,20.0115894 24.3046358,20.0115894 L23.6390728,20.0115894 L23.6390728,12.6672185 L24.3013245,12.6672185 C24.5,12.6672185 24.6357616,12.5347682 24.6357616,12.3327815 L24.6357616,11.3327815 L25.3013245,11.3327815 C25.4635051,11.3395557 25.6053991,11.2246216 25.6324503,11.0645695 C25.6655629,10.8990066 25.5993377,10.7665563 25.4668874,10.6970199 L16.1490066,6.02483444 C16.0524262,5.99173446 15.9475738,5.99173446 15.8509934,6.02483444 L6.1986755,10.6970199 C6.06851381,10.7679981 6.00100355,10.9165207 6.03311258,11.0612583 C6.03311258,11.2301325 6.16556291,11.3327815 6.33112583,11.3327815 L7.33112583,11.3327815 L7.33112583,12.3327815 C7.33112583,12.531457 7.46357616,12.6639073 7.66225166,12.6639073 L8.32781457,12.6639073 L8.32781457,20.0115894 L7.66556291,20.0115894 C7.46688742,20.0115894 7.33112583,20.1440397 7.33112583,20.3427152 L7.33112583,21.3460265 L6.66556291,21.3460265 C6.46688742,21.3460265 6.33443709,21.4784768 6.33443709,21.6771523 L6.33443709,22.6804636 C6.13576159,22.6804636 6,22.8129139 6,23.0149007 C6,23.2168874 6.13245033,23.3493377 6.33112583,23.3493377 L25.6357616,23.3493377 C25.8344371,23.3493377 25.9701987,23.2168874 25.9701987,23.0182119 C25.9701987,22.8195364 25.8377483,22.6804636 25.6390728,22.6804636 L25.6357616,22.6804636 Z M7.99337748,11.9983444 L7.99337748,11.3327815 L23.9668874,11.3327815 L23.9668874,11.9983444 L7.99337748,11.9983444 Z M21.6357616,12.6672185 L21.6357616,20.0115894 L20.307947,20.0115894 L20.307947,12.6672185 L21.6357616,12.6672185 Z M18.307947,12.6672185 L18.307947,20.0115894 L16.9768212,20.0115894 L16.9768212,12.6672185 L18.307947,12.6672185 Z M14.9801325,12.6672185 L14.9801325,20.0115894 L13.6523179,20.0115894 L13.6523179,12.6672185 L14.9801325,12.6672185 Z M11.6523179,12.6672185 L11.6523179,20.0115894 L10.3245033,20.0115894 L10.3245033,12.6672185 L11.6523179,12.6672185 Z M23.9668874,21.3460265 L7.99668874,21.3460265 L7.99668874,20.6771523 L23.9701987,20.6771523 L23.9701987,21.3460265 L23.9668874,21.3460265 Z" id="Combined-Shape" fill="#FFFFFF" fill-rule="nonzero"></path>
        <g id="Polis-(POLIS)" transform="translate(6.000000, 6.000000)"></g>
    </g>
</svg>