<svg height="32" viewBox="0 0 32 32" width="32" xmlns="http://www.w3.org/2000/svg"><path d="m16 32c-8.836556 0-16-7.163444-16-16s7.163444-16 16-16 16 7.163444 16 16-7.163444 16-16 16zm11-20.7370343-.0444944-.7074507-.2175281.5934989-1.2260674 1.0303141-1.4040449.2089116-.4202248-.3893353 1.2310113-1.633309 1.2606741-.3655953-1.3644943.0284879-1.9824719 1.3816655-1.8588765-.1281958-2.610337-1.2819576-1.5424719.2991234-4.8103371 3.8458729-2.31865171.7169467-.9541573.9306063-1.70561798.02374-.84539326 1.5098612-1.18651685.3276114 1.12224719.1471877 1.04314607-1.3531775 1.61168539.3228634-.02966292 1.4481373-.8058427 2.0843682-.45977528 1.9276844-.49438202.7691746 1.25573034-.2658875-.14337079-.7881666 1.06786517-2.117604 2.05662925-.7976626.795955-1.2677136 1.3447191-.9401023 2.6696629.3750913 2.6894382-1.1347699-.4548314 1.7947407-1.1964045.1044558-.3411236 1.4718773 1.0233708-.6552228 1.6957303-.7074507 1.3249438-1.9989043.084045-.9448503.7119101.7074507 2.0714607 1.2487217 1.1766292-.536523-.0692135-2.6398831-.3411236-1.0208181 1.5375281-.3750913z" fill="#fff"/></svg>