<svg height="32" viewBox="0 0 32 32" width="32" xmlns="http://www.w3.org/2000/svg"><path d="m16 32c-8.836556 0-16-7.163444-16-16s7.163444-16 16-16 16 7.163444 16 16-7.163444 16-16 16zm7.3119189-24.95605089c-.4979379-.50881676-1.3041069-.50881676-1.8020449 0l-2.3264494 2.3857128-2.9843388-3.05293125c-.0607255-.06253596-.1278556-.11818762-.2002272-.16599094-.4544839-.32113278-1.0837694-.27556664-1.4874021.13886823l-.0254256.0260378-.0010594.00108491-.0010594.0010849-7.62346542 7.81893234c-.0046753.0053307-.00962629.0104008-.01483165.0151887-.00529701.0054245-.01059403.0097642-.01589104.0151887-.43963199.4507335-.43963199 1.1809682 0 1.6317017l2.30632075 2.3542505c.4399122.4427618 1.14609996.4396282 1.58224896-.0070209.4361489-.4466492.4392088-1.1698382.0068558-1.6203412l-1.45032294-1.4830693 6.00469734-6.15902299 3.118883 3.19396929c.3812198.3911465.9690909.4769604 1.4418477.2104722.1266219-.0634497.2422199-.1477458.3421872-.2495289l3.1294771-3.20807309c.4968605-.5103468.4968605-1.3361667 0-1.8465135zm1.8581932 9.10237859-.0286039-.0292926-.0021188-.0021698-.0021188-.0021698-2.2734793-2.3249579c-.4399122-.4427618-1.1460999-.4396283-1.5822489.0070209-.436149.4466491-.4392089 1.1698382-.0068559 1.6203411l1.450323 1.4830693-5.9941033 6.1438343-3.1262988-3.1983089c-.2924652-.300185-.7143811-.4266156-1.1187298-.3352366-.2497301.0492028-.4788669.1752343-.6568299.3612744l-3.12947708 3.2080731c-.32424084.3291724-.45173089.8108385-.33420226 1.2626388.11752864.4518003.4621124.8046798.90329143.9250379s.91152171-.0102012 1.23295571-.3422481l2.3137365-2.3781184 2.916537 2.9834971c.031712.0430046.0664091.083613.1038215.1215097.4558904.4665037 1.1946598.4665037 1.6505502 0l7.6541881-7.8471399c.0046753-.0053307.0096263-.0104009.0148316-.0151888.0052971-.0054245.0105941-.0097641.0158911-.0151887.2107214-.2156528.329027-.5082843.3288283-.8133636-.0001988-.3050792-.1188856-.5975488-.3298877-.8129135z" fill="#fff" fill-rule="evenodd"/></svg>