<svg height="32" width="32" xmlns="http://www.w3.org/2000/svg"><path d="m16 32c-8.837 0-16-7.163-16-16s7.163-16 16-16 16 7.163 16 16-7.163 16-16 16zm.049-23.684c1.316 0 2.382-.733 2.382-1.638s-1.066-1.638-2.382-1.638-2.383.733-2.383 1.638 1.067 1.638 2.383 1.638zm-1.233 18.284c0 .196.173.375.37.375h1.667c.196 0 .347-.179.347-.375v-7.08h2.928c.196 0 .336-.168.336-.364v-9.708c0-.197-.139-.344-.336-.344h-5.312v17.497zm-.896-7.081v-10.415h-2.01c-.197 0-.374.147-.374.344v9.708c0 .196.177.364.373.364h2.011z" fill="#fff"/></svg>