<svg height="32" viewBox="0 0 32 32" width="32" xmlns="http://www.w3.org/2000/svg"><path d="m16 32c-8.836556 0-16-7.163444-16-16s7.163444-16 16-16 16 7.163444 16 16-7.163444 16-16 16zm8.2810381-11.1333729h-.1172678c-.76044 0-1.5209638.0009581-2.2814038-.0017079-.0681828-.0002499-.1436949-.0099558-.2030408-.0400731-.2084436-.1059315-.2264526-.3459538-.0443524-.5270328.5519545-.5488605 1.1041185-1.0975544 1.6573295-1.6452069.7526082-.7449773 1.5084412-1.4868305 2.2585365-2.2342655.3991295-.3977323.5410654-.8824841.3902925-1.4216804-.4077151-1.4583794-1.1064639-2.7693379-2.1092295-3.9082568-1.9376415-2.20069071-4.3824663-3.39551207-7.3184759-3.57092583-1.2510383-.07477266-2.4784556.09151841-3.6727865.4767955-1.8503608.59684832-3.41014857 1.63100218-4.68116433 3.09388043-.88595846 1.0196992-1.53993602 2.1729478-1.96792172 3.4513312-.07471636.2231933-.14976777.4515936-.17929414.6832847-.06014164.4717551.10319569.8770271.4414715 1.2126918.30112704.2987158.60170962.5980147.90245972.8971054.98521731.9796677 1.97106283 1.9587939 2.95410227 2.940711.0590946.0590267.1188594.1345908.1382085.212321.0526449.2112797-.1010178.3801951-.3328312.3805283-.76379049.0011664-1.52762289.0004999-2.2914134.0004999h-.11894308c-.01570551.3927335.00326675.7642641.12740312 1.1277967.28035388.8209581 1.10064235 1.4495067 1.96771232 1.4964531.08690384.0047071.17405896.0075814.26108844.0075814 3.9597577.0003749 7.9195154-.0005832 11.8792313.0015413.4781177.0002499.923526-.10514 1.3226554-.3697811.8326016-.552068 1.1011869-1.4019354 1.0176335-2.2635914zm-15.83882141.5410292h15.10903861c-.0054027.3176693-.0924322.6025968-.2783855.8526166-.2783854.3743216-.650627.5849347-1.1223788.6110114-.0467814.0025827-.0937305.003999-.1405538.0040407-4.0093453.0001666-8.0187324-.0006249-12.02807766.0011247-.52213501.0002499-.94287524-.1952837-1.25526836-.6115529-.18762853-.2500198-.27352722-.5361138-.28437449-.8572405zm10.26664781-7.7473728c-.2844164.4770871-.5622993.9433436-.8442446 1.4163067.8290835.6622484 1.2701781 1.5121574 1.2499494 2.578678-.0135696.7151933-.258073 1.3499486-.7177629 1.8967263-.9675015 1.1508326-2.5922473 1.4538389-3.9020033.738729-1.2491118-.6819934-2.0319164-2.2612171-1.3818757-3.9205454-.463543-.2726807-.9289706-.5465277-1.4119466-.8306639-.0592202.1504201-.1209953.2921758-.1713785.4377638-.2222226.6425034-.2987398 1.3041685-.2300125 1.9787055.084014.8241655.3681791 1.5771408.852579 2.2535106.0911338.1272177.1098129.2648494.0325837.4032309-.1125352.2016987-.3736656.2310246-.5471801.0611094-.3007082-.2944251-.598024-.5923078-.8964288-.889024-1.18649914-1.1797419-2.37237008-2.3601502-3.5596231-3.5391423-.3252507-.3229179-.42279241-.6962397-.27436484-1.1323372.58650668-1.7230622 1.50035813-3.2421761 2.84504321-4.4877346.28584033-.2648077.60392933-.4953324.90983083-.73827068.0462789-.03678232.0671777-.07106527.0686855-.13109168.0123131-.48221079.5238521-.79134057.9588739-.57843634.0643298.03145034.1122002.03136703.1756923.00058319.7012616-.33995528 1.4365309-.57722831 2.2022899-.7261488.9166156-.17824637 1.8413143-.22115213 2.7699499-.15654355 1.1723433.08160426 2.2971512.35682598 3.3590114.86852928.0348872.01682906.0907569.01437135.1278638-.00079147.42786-.17524713.891403.09901651.9436291.55727505.0046488.04090627.0394522.08956057.0746745.11426263.753027.52832407 1.406502 1.15949697 1.9693457 1.88372957.7369026.9483007 1.2945949 1.9933268 1.6889918 3.1249559.0524773.1505034.1093522.3020899.1372033.457967.0643717.3602001-.0495037.6682051-.3095033.9263895-1.1970114 1.188448-2.3929757 2.3778541-3.5894007 3.5669686-.2961432.2943418-.5900248.5909748-.8892671.8821091-.2036272.1981163-.5134237.1105553-.5821929-.1615006-.0275999-.1093472.0034761-.2098217.0683922-.3011318.355531-.5000396.6091645-1.0455676.7500116-1.6432074.153579-.6514595.1714623-1.3050434.0417976-1.9616265-.2384725-1.2072765-.8644733-2.1710733-1.8517428-2.9067197-.0181765-.0134965-.0383215-.0243271-.0674709-.0426141zm4.6649981 3.0390152c.0274741-.0219111.046237-.0341997.0618169-.0496541.3082468-.3058389.6162843-.6119695.9240286-.9183083.1067556-.106223.1375803-.2292751.0917202-.3748631-.3473222-1.1019699-.8627562-2.1194197-1.5500713-3.0501415-.1181474-.1599177-.2450479-.313462-.3711527-.4740462-.0401224.0377821-.0694812.0647752-.0980862.0924765-.3504214.3391638-.7001727.6789525-1.0512223 1.0174081-.1583535.1527112-.3286431.1482957-.4839392-.0084978-.0869457-.0877277-.1723837-.1771633-.2623868-.2616835-1.1216668-1.0533573-2.4519447-1.6554127-3.9841745-1.820704-.0712821-.0076647-.1213304.0083312-.1747291.0634006-.2630988.271306-.6885716.2748468-.9519216.0057485-.0625708-.0639421-.1217073-.0771054-.2023708-.0679827-.6280111.0711486-1.2392697.2105298-1.8248131.449719-.2277509.0929764-.4495546.2005324-.6802791.304256.2253218.3887762.4401313.7594737.6471509 1.1166329 2.1187366-.9556738 4.1364553-.8439522 5.9477407.6270907 1.7428093 1.4154736 2.2761686 3.2964123 1.8373356 5.4666107.0079574-.0063733.0265946-.0186202.0420908-.0339913.4598155-.456634.9201755-.9127681 1.3769756-1.3724012.0298614-.0299924.0461114-.0877694.044813-.1319665-.0239142-.8032126-.1934081-1.5755579-.4977181-2.3200354-.0413788-.1013076-.0957827-.1523363-.2056376-.1810373-.3698124-.0964755-.5758269-.496124-.4520256-.8519085.1255185-.3607834.5305113-.5505685.8792575-.4120203.3674671.1459629.5370029.5575666.3683466.9065196-.0299452.0619842-.0239143.108639.0017171.1678323.2285467.527366.3978312 1.0727274.4920642 1.6401249.0254639.1530861.0491269.3065471.0754703.4714219zm-1.2654791-5.3094216c-.0083763-.0149129-.0114755-.024827-.018009-.0314503-.3475734-.3532436-.7235006-.6734955-1.1319277-.9550906-.0253801-.0174956-.0763079-.0166625-.1075932-.0045822-.4149188.1605842-.8576048-.0871445-.921097-.5239502-.0102609-.07073202-.0400804-.10134924-.0993845-.12942544-.9516284-.45046885-1.9585821-.69390699-3.0051975-.76859634-1.1299593-.08068783-2.2480662.00024993-3.3428033.31154582-.4641712.13200812-.9139352.30138175-1.3458996.51591056-.0322487.01603759-.0647486.0582352-.0719522.09330962-.0794909.38885948-.4504341.62971498-.8382556.52494998-.0890817-.0240356-.14403-.0090394-.2045905.0431973-.0176321.0152045-.038112.0271181-.0568749.0409896-1.66717162 1.2333532-2.73665423 2.8848085-3.40956218 4.8151097-.06336651.1817454-.01955859.319877.11433614.4498856.28994471.2815535.57410979.5689388.86078776.8538247.02487753.0247021.05088586.0482794.08514482.0806462.01042846-.059235.01968424-.1013909.02508694-.1439634.08845345-.6944069.27482554-1.3617373.55517941-2.0037408.01490977-.034158.01620809-.0860615.00108892-.1195113-.1942039-.4297241.04351474-.8838587.50957061-.9602143.06164937-.0101225.09942636-.031492.13536058-.082604 1.3307805-1.8941437 3.1466309-2.9779932 5.4598227-3.231887.0443942-.0048738.0993426-.0388652.124262-.0759807.2742392-.40743816.866693-.41256186 1.133938-.0024577.0390753.0600264.082632.073273.1448258.0832288.3596353.0577353.724087.0978918 1.0769794.1839949 1.2823656.3127955 2.3983784.9335128 3.3536505 1.840199.0232023.0220777.0481217.0424059.0747583.0656917.3041425-.2941753.6014583-.5818105.8983553-.8690292zm-3.664004 6.1792755c-.0069942-1.3464495-1.1069665-2.4333399-2.4547508-2.4255919-1.3488313.0077897-2.4437359 1.1010118-2.4376631 2.4339648.0061147 1.3427004 1.1121597 2.4363392 2.4560909 2.4286744 1.346151-.0077896 2.4432753-1.1051774 2.436323-2.4370473zm-7.698587 1.2650577c-.0467815-.3047143-.1039077-.582352-.1297904-.8628641-.0815012-.8846918.0528543-1.7392247.3983337-2.5591413.2442102-.5796443.5827792-1.0997622 1.0117282-1.5613532.1004315-.1081392.1523644-.1082642.258073-.0039157.0784438.0774387.1565107.1552522.2337818.2338156.0879927.0894356.0876577.1444633.0021778.2400223-.0556184.0621926-.1137917.1225939-.16451.1885771-.1230056.160001-.2423256.3227513-.3685979.4917084.4831434.2840112.9487805.5577749 1.4065857.8269149 1.0588029-1.3166238 2.3684333-1.6719085 3.9538943-1.0765598.2747418-.4613827.5566872-.9348874.8383813-1.4078505-.018009-.0134133-.0252964-.0207448-.0340496-.0251603-.928468-.4687976-1.9079895-.6173848-2.9343762-.4535098-.5876374.0938095-1.1361158.2975494-1.6461052.6045131-.193115.1162204-.3388203.0734396-.4517744-.1216774-.1854088-.3200854-.3704407-.640379-.556017-.9603393-.0881184-.1519197-.1771582-.3032563-.2642296-.4522601-.0139046.0036657-.0176739.0037491-.0203124.005457-.7419285.4867096-1.3578359 1.100137-1.8557216 1.8311596-.0162081.0238273-.0162081.0698989-.0054027.0988915.1593586.4281412-.0500063.8207915-.49922587.9255565-.05796381.0135382-.0883278.0382819-.11220018.0943094-.32776359.7685546-.50270207 1.5701843-.52887792 2.4038474-.00129832.0421143.02567328.0952258.05649797.1265512.2578217.2616835.52004094.5189514.7800405.7785521.2073965.2070307.4134947.4153945.6316967.6347554zm5.2482003-8.0095187c.2029571.0020828.377728-.1702484.3789426-.3736967.0012145-.202282-.1717974-.3769042-.3747964-.3783205-.2011562-.0014164-.3782306.173081-.3797802.3742382-.0015496.2011988.171923.3756545.375634.377779zm-4.598792-1.41504459c-.2058051.00154128-.370692.16395834-.372828.36728167-.0021778.2038232.1701221.37523802.3771836.37532132.2063076.0000416.3797384-.1717064.3783563-.37469648-.001424-.20632257-.1711692-.36948944-.3827119-.36790651zm10.8011587 5.10026639c.2102864-.0003333.3769323-.1668326.3747964-.3744049-.0020941-.2075722-.1706666-.3704475-.3813299-.368448-.2038366.0019578-.3684722.1669576-.3692261.3700726-.0007539.2089469.1647194.3731135.3757596.3727803zm-1.6035161-5.10042884c-.2120035.00020828-.3761785.1634168-.3750477.37286357.001089.20640588.1709598.37165557.3801572.36986437.2045905-.0017912.3681791-.16579123.3691424-.36998934.0009214-.21165454-.1610339-.37298854-.3742519-.3727386zm-10.4176008 4.72863584c-.0002932-.2076556-.16807-.3723637-.37793749-.3710724-.20597257.0012913-.36905862.162792-.3711108.3675316-.00209407.2102799.16095009.3744882.37257665.3753629.21116584.0008748.37676474-.1627086.37647164-.3718221z" fill="#fff" fill-rule="evenodd"/></svg>