<svg width="32" height="32" viewBox="0 0 32 32" fill="none" xmlns="http://www.w3.org/2000/svg">
<path fill-rule="evenodd" clip-rule="evenodd" d="M32 16C32 24.8366 24.8366 32 16 32C7.16344 32 0 24.8366 0 16C0 7.16344 7.16344 0 16 0C24.8366 0 32 7.16344 32 16ZM7.1721 8.43338L8.43348 7.172L15.1271 13.8655L13.8657 15.1269L7.1721 8.43338ZM16.8976 18.159L23.5913 24.8525L24.8526 23.5911L18.159 16.8976L16.8976 18.159ZM16.0194 14.7578L14.7579 16.0193L16.021 17.2824L17.2825 16.021L16.0194 14.7578ZM16.9133 13.9142L18.1747 15.1756L24.8683 8.482L23.6069 7.22061L16.9133 13.9142ZM8.48202 24.8683L7.22063 23.6069L13.9143 16.9133L15.1756 18.1747L8.48202 24.8683Z" fill="white"/>
</svg>
