<svg width="32" height="32" viewBox="0 0 32 32" fill="none" xmlns="http://www.w3.org/2000/svg">
<path fill-rule="evenodd" clip-rule="evenodd" d="M16 32C24.8365 32 32 24.8365 32 16C32 7.1635 24.8365 0 16 0C7.1635 0 0 7.1635 0 16C0 24.8365 7.1635 32 16 32ZM16.3235 28.8973C16.4835 28.8297 16.6288 28.7306 16.7512 28.6057L19.9206 25.3759V21.5714L15.8187 25.7518L13.7974 23.6913C13.5493 23.4398 13.2137 23.2985 12.8637 23.2983H4.85714L6.78535 25.594L11.9149 25.5795L14.8846 28.6057L14.8859 28.6069C15.0084 28.7317 15.1539 28.8306 15.314 28.898C15.4741 28.9655 15.6456 29.0001 15.8188 29C15.992 28.9999 16.1635 28.965 16.3235 28.8973ZM28.2038 14.8358C28.449 15.0828 28.587 15.4181 28.5873 15.7678C28.5876 16.1175 28.4503 16.4531 28.2056 16.7006L28.2038 16.7024L25.2613 19.6726L25.2763 24.8023L23.0436 26.7302V18.7238C23.0441 18.3737 23.1819 18.038 23.4269 17.7901L25.4293 15.7691L21.3651 11.6667H25.0642L28.2038 14.8358ZM3.10006 16.5302C3.1659 16.6901 3.26228 16.8353 3.38371 16.9575L6.52273 20.127H10.2222L6.15769 16.0251L8.16086 14.0033C8.40572 13.7555 8.54339 13.42 8.54377 13.07V5.0635L6.31109 6.9917L6.32565 12.1217L3.38371 15.091L3.38134 15.0934C3.26022 15.2159 3.1642 15.3614 3.09877 15.5214C3.03334 15.6814 2.99978 15.8528 3 16.0259C3.00022 16.199 3.03422 16.3704 3.10006 16.5302ZM14.8358 3.39464C15.0827 3.1424 15.4178 3.00045 15.7674 3C16.117 2.99956 16.4525 3.14066 16.7 3.39227L16.7024 3.39467L19.6726 6.42065L24.8023 6.40572L26.7302 8.70174H18.7238C18.3738 8.7012 18.0381 8.55962 17.7901 8.30788L15.7687 6.2479L11.6667 10.4286V6.62379L14.8358 3.39464ZM18.412 18.542C18.74 18.19 18.904 17.756 18.904 17.24C18.904 16.708 18.694 16.264 18.274 15.908C17.858 15.552 17.316 15.296 16.648 15.14C16.256 15.052 15.93 14.93 15.67 14.774C15.41 14.614 15.28 14.384 15.28 14.084C15.28 13.804 15.394 13.59 15.622 13.442C15.854 13.294 16.14 13.22 16.48 13.22C16.7 13.22 16.918 13.26 17.134 13.34C17.354 13.416 17.544 13.506 17.704 13.61C17.864 13.71 17.968 13.792 18.016 13.856L18.496 12.932C18.392 12.8 18.212 12.668 17.956 12.536C17.704 12.404 17.408 12.306 17.068 12.242V11.072H15.64V12.236C15.248 12.304 14.912 12.43 14.632 12.614C14.356 12.798 14.144 13.024 13.996 13.292C13.852 13.556 13.78 13.848 13.78 14.168C13.78 14.596 13.876 14.954 14.068 15.242C14.26 15.526 14.508 15.752 14.812 15.92C15.116 16.088 15.476 16.232 15.892 16.352C16.2 16.44 16.45 16.524 16.642 16.604C16.834 16.68 16.996 16.78 17.128 16.904C17.264 17.028 17.332 17.18 17.332 17.36C17.332 17.684 17.216 17.922 16.984 18.074C16.756 18.222 16.476 18.296 16.144 18.296C15.872 18.296 15.604 18.258 15.34 18.182C15.076 18.102 14.842 18.006 14.638 17.894C14.434 17.778 14.276 17.668 14.164 17.564L13.732 18.536C14.196 18.92 14.832 19.16 15.64 19.256V20.18H17.068V19.226C17.64 19.118 18.088 18.89 18.412 18.542Z" fill="white"/>
</svg>
