<svg width="32" height="32" viewBox="0 0 32 32" fill="none" xmlns="http://www.w3.org/2000/svg">
<path fill-rule="evenodd" clip-rule="evenodd" d="M16 32C24.8365 32 32 24.8365 32 16C32 7.16345 24.8365 0 16 0C7.16345 0 0 7.16345 0 16C0 24.8365 7.16345 32 16 32ZM26.5905 12.0975L27.0691 18.1716L29.0676 18.0102C29.1636 18.0032 29.2573 17.9773 29.3433 17.9338C29.4291 17.8903 29.5055 17.8303 29.568 17.7571C29.6306 17.6839 29.6778 17.599 29.7074 17.5074C29.7369 17.4157 29.7478 17.3191 29.7396 17.2233L29.4327 13.0909C29.4195 12.9235 29.3497 12.7655 29.2346 12.6431C29.1196 12.5207 28.9663 12.4411 28.8 12.4175L26.5905 12.0975ZM21.3629 8.70983C21.7171 7.96666 22.0308 7.20481 22.3026 6.42765C22.6996 5.27565 22.9818 3.99855 22.9818 3.99855L24.6836 5.13601C25.6141 5.76138 26.3261 6.66171 26.7202 7.71131C27.1142 8.76091 27.1706 9.90735 26.8815 10.9906L26.5906 12.0975L21.3629 8.70983ZM16.0626 11.7295L8.74184 3.30619C8.71215 3.27218 8.6911 3.23151 8.68048 3.18763C8.66987 3.14375 8.66998 3.09796 8.68083 3.05413C8.69168 3.01031 8.71294 2.96975 8.74281 2.93589C8.77267 2.90203 8.81026 2.87588 8.85238 2.85964L13.3207 1.13019C13.4485 1.08128 13.5855 1.06138 13.7218 1.07195C13.8582 1.08252 13.9905 1.12328 14.1091 1.19128C14.7893 1.58443 15.4156 2.06405 15.9724 2.61819C18.24 4.91346 21.3629 8.70983 21.3629 8.70983L16.0626 11.7295ZM16.0626 11.7295L16.5411 18.9818L3.81238 19.28C3.48929 19.2874 3.17588 19.1694 2.93782 18.951C2.69974 18.7324 2.55549 18.4301 2.53529 18.1076L2.24438 13.5476C2.23854 13.3452 2.31082 13.1483 2.44621 12.9978C2.58161 12.8472 2.76976 12.7545 2.97165 12.7389L16.0626 11.7295ZM22.5455 21.7426C22.4349 21.7062 16.5455 18.9789 16.5455 18.9789L11.2567 29.6887C11.2174 29.7686 11.1979 29.8567 11.1999 29.9458C11.2018 30.0348 11.2252 30.122 11.268 30.2C11.3108 30.2781 11.3718 30.3447 11.4458 30.3942C11.5198 30.4436 11.6046 30.4746 11.6931 30.4844L11.7634 30.4925L11.7638 30.4925C12.5078 30.5784 13.6143 30.7062 14.5557 30.8189C15.1523 30.8908 15.7573 30.7932 16.3011 30.5372C16.845 30.2813 17.3056 29.8772 17.6306 29.3716L22.5454 21.7426L24.816 25.9462C24.8666 26.0399 24.9393 26.1199 25.0278 26.1792C25.1162 26.2386 25.2177 26.2757 25.3236 26.287C25.4295 26.2985 25.5366 26.2841 25.6356 26.245C25.7347 26.2058 25.8228 26.1433 25.8923 26.0626L28.0043 23.5404C28.2531 23.2428 28.3882 22.8665 28.3854 22.4786C28.383 21.6676 28.266 20.8611 28.0378 20.0829C27.8641 19.3805 27.5328 18.727 27.0691 18.1716L22.5455 21.7426Z" fill="white"/>
</svg>
