<svg height="32" viewBox="0 0 32 32" width="32" xmlns="http://www.w3.org/2000/svg"><path d="m16 32c-8.836556 0-16-7.163444-16-16s7.163444-16 16-16 16 7.163444 16 16-7.163444 16-16 16zm9.6278511-10.7912675c-.2049871.0013513-.370839.172459-.3721488.3839421v1.1518264h-4.8019208l-.0120048-.7307286c2.7612355-2.0013933 3.9466701-5.6182496 2.9293873-8.9377965-1.0172828-3.31954685-4.0025993-5.5759759-7.3771664-5.5759759s-6.35988356 2.25642905-7.37716638 5.5759759c-1.01728282 3.3195469.16815173 6.9364032 2.92938728 8.9377965h.0120048l-.0120048.7183433h-4.80192078v-1.1518263c0-.2120454-.16661672-.3839422-.37214886-.3839422s-.37214886.1718968-.37214886.3839422v1.9073254h6.2785114l.0240096-1.6596208c-.0011343-.1555259-.090337-.295992-.2280912-.3591717-.0221023-.0418752-.0554496-.0762792-.0960384-.0990819-1.8806214-1.3350976-3.00317849-3.5401782-3.00120052-5.8953694.00076229-3.4456964 2.35743172-6.41245184 5.63206852-7.09007801 3.2746369-.67762617 6.5579671 1.12203452 7.846642 4.30090551 1.2886749 3.178871.2248659 6.8542697-2.542336 8.7836238-.03094.0257104-.0591129.054776-.0840336.0866966-.0828815.0699739-.1312781.1743735-.1320528.2848603l.0240096 1.6596208h6.2785114v-1.9073254c-.0013099-.2114831-.1671617-.3825908-.3721489-.3839421zm-4.9579832-5.1757877c-.1539019-.1989993-.3182117-.3891887-.4921968-.5697205.1739851-.1805319.3382949-.3707213.4921968-.5697206.8283314-1.0527446 1.0804322-1.9816368.7202882-2.6256688-.2761105-.4830239-.8643458-.7431138-1.7166867-.7431138-.535411.01304-1.0673936.0920398-1.5846339.2353194-.4561824-1.6472356-1.212485-2.69998013-2.0768307-2.69998013s-1.6206483 1.05274453-2.0888355 2.68759493c-.5172403-.1432796-1.0492229-.2222795-1.5846339-.2353194-.8523409 0-1.4405762.2600898-1.7166867.7431138-.360144.644032-.1080432 1.5729242.7202882 2.6256688.1539019.1989993.3182117.3891887.4921968.5697205-1.152461 1.2261378-1.6566626 2.4275051-1.212485 3.1953894.2761105.4830239.8643458.7431138 1.7166867.7431138.535411-.01304 1.0673936-.0920398 1.5846339-.2353194.4561824 1.6348504 1.212485 2.6875949 2.0768307 2.6875949s1.6206483-1.0527445 2.0888355-2.6875949c.5172403.1432796 1.0492229.2222794 1.5846339.2353194.8523409 0 1.4405762-.2600899 1.7166867-.7431138.360144-.6192615.1080432-1.560539-.7202882-2.6132836zm-.9843937-4.0499702c.4681873 0 1.0804322.0866967 1.3085234.5077945.2521008.4582535 0 1.2137525-.6842737 2.0931038-.1440576.1733933-.3001201.3591717-.4681873.5325649-.4291162-.4081402-.8821519-.7886719-1.3565426-1.1394411-.0551507-.5999479-.1473751-1.1956508-.2761104-1.7834731.4835302-.1242037.9785329-.1947867 1.4765906-.210549zm-2.6410564 5.3380342c-.338082.205187-.6867368.3912406-1.0444178.5573353-.3481393-.1733932-.6962785-.3591717-1.0444178-.5697206-.3481392-.2105489-.6842737-.4210978-.9963985-.6440319-.0240096-.3839422-.0480192-.7926547-.0480192-1.2137526 0-.4210978.0120048-.8298104.0480192-1.2137525.3121248-.2229341.6362545-.4334831.9963985-.644032.338082-.205187.6867368-.3912406 1.0444178-.5573353.3481393.1733932.6962785.3591717 1.0444178.5573353.3481392.2105489.6842737.4210979.9963985.644032.0240096.3839421.0480192.7926547.0480192 1.2137525 0 .4210979-.0120048.8174252-.0480192 1.2137526-.3121248.2229341-.6482593.4458683-.9963985.6564172zm.9483793-.0371557c-.060024.4706387-.1320528.9041218-.2160864 1.3128344-.4127761-.1273021-.8176822-.2803346-1.212485-.4582536.240096-.1238523.4801921-.2600898.7202881-.4087125.240096-.1486228.4681873-.2972456.7082833-.4458683zm-2.5330132.8545808c-.395567.1759468-.8003605.3289367-1.212485.4582536-.1012647-.4319517-.1734656-.8706088-.2160864-1.3128344.2280912.1486227.4681873.2972455.7082833.4458683zm-1.9687875-1.833014c-.3470973-.2657598-.6797346-.5510527-.9963986-.8545809.3146152-.3059241.6473922-.5913368.9963986-.8545808-.0120048.2848603-.0240096.5573353-.0240096.8545808 0 .2972456.0120048.5821058.0240096.8545809zm.5402161-2.6628244c.060024-.4706388.1320528-.9041218.2160864-1.3128344.4127761.127302.8176822.2803345 1.212485.4582535-.240096.1238523-.4801921.2600898-.7322929.4087126-.2521008.1486227-.4681873.2848603-.6962785.4458683zm2.5210084-.8545809c.395567-.1759467.8003605-.3289367 1.212485-.4582535.1012647.4319517.1734656.8706087.2160864 1.3128344-.2280912-.1486228-.4681873-.2972456-.7082833-.4458683-.240096-.1486228-.4801921-.2848603-.7202881-.4087126zm1.9807923 1.8206288c.3461291.2620341.6749858.5475242.9843938.8545809-.3001201.2848603-.6362545.5697205-.9843938.8545808.0120048-.272475.0240096-.5573353.0240096-.8545808 0-.2972456-.0120048-.5697206-.0240096-.8545809zm-2.5210084-5.0779443c.6002401 0 1.2364946.8669661 1.6446579 2.3408085-.5612728.1768729-1.1106754.3915998-1.6446579.6427934-.5339526-.2516149-1.0833557-.4667558-1.6446579-.644032.4081633-1.4726038 1.032413-2.3395699 1.6446579-2.3395699zm-4.9819928 2.96007c.240096-.4210978.8403361-.5077945 1.3085234-.5077945.4984799.0104227.9940578.0810877 1.4765907.210549-.1287354.5878223-.2209598 1.1835252-.2761105 1.7834731-.4761435.3479485-.9293248.7281888-1.3565426 1.1382026-.1680672-.1857784-.3241297-.3591717-.4681873-.5449501-.6962785-.8533424-.9483793-1.6212266-.6842737-2.0794801zm1.3085234 6.4403196c-.4681873 0-1.0804322-.0866966-1.3085234-.5077945-.30012-.5449501.1080432-1.5357685 1.1404562-2.638054.4277813.4147535.88526.7956465 1.3685474 1.1394412.0552013.5995322.1474255 1.1948197.2761105 1.7822346-.4809008.1394601-.9771353.2147973-1.4765907.2241727zm3.6734694 2.4522755c-.6002401 0-1.2364946-.8669661-1.6446579-2.3408085.5613022-.1772761 1.1107053-.392417 1.6446579-.6440319.5339526.2516149 1.0833558.4667558 1.6446579.6440319-.4081633 1.4738424-1.0444178 2.3408085-1.6446579 2.3408085zm4.9819928-2.96007c-.240096.4210979-.8403361.5077945-1.3085234.5077945-.4984799-.0104227-.9940578-.0810877-1.4765906-.2105489.1287353-.5878224.2209597-1.1835253.2761104-1.7834732.4761803-.3483471.9293625-.7290018 1.3565426-1.1394411.1680672.1733932.3241297.3591716.4681873.5325649.6842737.8793513.9363745 1.6472356.6842737 2.0931038zm-4.9819928-4.7806987c-.9663997.0068291-1.7450834.8194062-1.7406781 1.8164438.0044054.9970376.7902372 1.802257 1.7566571 1.7999962.9664199-.0022607 1.7487042-.8111485 1.7487269-1.8081965-.0065983-1.0006654-.7947547-1.8082667-1.7647059-1.8082435zm0 3.1582336c-.7160475 0-1.2965186-.5988661-1.2965186-1.3376048 0-.7387388.5804711-1.3376049 1.2965186-1.3376049s1.2965186.5988661 1.2965186 1.3376049c-.00523.7364921-.5826487 1.332209-1.2965186 1.3376048z" fill="#fff" fill-rule="evenodd"/></svg>