<svg xmlns="http://www.w3.org/2000/svg" viewBox="0 0 32 32"><path d="M16 32C7.163 32 0 24.837 0 16S7.163 0 16 0s16 7.163 16 16-7.163 16-16 16zm7.313-16a7.273 7.273 0 00-1.18-3.978L25 9.154 22.846 7l-2.868 2.868c-1.146-.745-2.51-1.181-3.978-1.181s-2.832.436-3.978 1.18L9.154 7 7 9.154l2.868 2.868c-.745 1.146-1.181 2.51-1.181 3.978s.437 2.832 1.181 3.978L7 22.846 9.154 25l2.868-2.868c1.146.745 2.51 1.181 3.978 1.181s2.832-.436 3.978-1.181L22.846 25 25 22.846l-2.868-2.868A7.272 7.272 0 0023.313 16zM11.5 16c0-2.481 2.019-4.5 4.5-4.5s4.5 2.019 4.5 4.5c0 .653-.143 1.272-.394 1.833l-2.97-2.97-2.272 2.273 2.97 2.97A4.468 4.468 0 0116 20.5a4.505 4.505 0 01-4.5-4.5z" fill="#fff" fill-rule="evenodd"/></svg>