<svg width="32" height="32" viewBox="0 0 32 32" fill="none" xmlns="http://www.w3.org/2000/svg">
<path fill-rule="evenodd" clip-rule="evenodd" d="M32 16C32 24.8365 24.8365 32 16 32C7.16345 32 0 24.8365 0 16C0 7.16345 7.16345 0 16 0C24.8365 0 32 7.16345 32 16ZM24.9055 16.3927L26.8501 15.2908C26.8501 15.2908 26.8501 15.2908 26.8501 15.2908L24.9055 16.3927C24.9055 16.3927 24.9055 16.3927 24.9055 16.3927ZM27.5637 14.5912C27.5673 14.5931 27.57 14.5944 27.5717 14.5953L27.8357 14.765V15.0478C27.8357 15.1232 27.7414 17.2916 26.1387 18.2155C25.6485 18.4983 25.1394 18.5926 24.668 18.5926C23.895 18.5926 23.1973 18.3286 22.8579 18.1589L22.2545 18.4983C22.2734 18.6114 22.2923 18.7434 22.2923 18.8754C22.2923 19.6296 21.7832 20.2519 21.1044 20.4593V23.7401C21.7832 23.9286 22.2923 24.5697 22.2923 25.3239C22.2923 26.2478 21.538 26.9832 20.633 26.9832C20.1428 26.9832 19.7091 26.7758 19.4074 26.4364L16.7488 27.9636C16.7865 28.0956 16.8054 28.2276 16.8054 28.3596C16.8054 29.2646 16.0512 30 15.1461 30C14.2222 30 13.4869 29.2646 13.4869 28.3596C13.4869 28.2276 13.5057 28.0956 13.5434 27.9636L10.8848 26.4364C10.5832 26.7758 10.1495 26.9832 9.65926 26.9832C8.73535 26.9832 8 26.229 8 25.3239C8 24.5697 8.50909 23.9475 9.18788 23.7401V20.4593C8.50909 20.2707 8 19.6296 8 18.8754C8 17.9515 8.75421 17.2162 9.65926 17.2162C10.1118 17.2162 10.5077 17.4047 10.8094 17.6875L13.5434 16.1037C13.5057 15.9717 13.4869 15.8397 13.4869 15.7077C13.4869 14.9535 13.9771 14.3125 14.6747 14.1239V13.1434C13.8828 12.6155 11.3562 10.7677 11.3562 7.80741C11.3562 4.37576 14.7502 2.24512 14.901 2.15084L15.1461 2L15.3912 2.15084C15.5421 2.24512 18.936 4.37576 18.936 7.80741C18.936 10.7677 16.4094 12.6343 15.6175 13.1434V14.1239C16.2963 14.3125 16.8054 14.9535 16.8054 15.7077C16.8054 15.8397 16.7865 15.9717 16.7488 16.1037L19.464 17.6875C19.7657 17.3859 20.1616 17.2162 20.6141 17.2162C21.0667 17.2162 21.4626 17.4047 21.7643 17.6875L22.3677 17.3481C22.4242 16.7259 22.6694 15.2364 23.9704 14.4822C25.5549 13.5609 27.4094 14.5121 27.5637 14.5912ZM20.633 19.5919C20.8027 19.5919 20.9535 19.5354 21.0855 19.4411C21.2175 19.3279 21.3118 19.1771 21.3306 18.9508C21.3495 18.9131 21.3495 18.8754 21.3495 18.8377C21.3495 18.536 21.1609 18.2721 20.897 18.1589C20.8215 18.1212 20.7084 18.1024 20.6141 18.1024C20.5199 18.1024 20.4256 18.1212 20.3502 18.1589C20.105 18.2532 19.9354 18.4795 19.8976 18.7434V18.8377V18.9508C19.9354 19.1394 20.0296 19.3091 20.1805 19.4222C20.237 19.4788 20.2936 19.5165 20.369 19.5354C20.4633 19.5731 20.5387 19.5919 20.633 19.5919ZM20.6141 26.0593C21.0101 26.0593 21.3495 25.7387 21.3495 25.3239C21.3495 25.0788 21.2552 24.8714 21.0667 24.7205C20.9535 24.6263 20.7838 24.5697 20.6141 24.5697C20.583 24.5697 20.5576 24.5754 20.5347 24.5805C20.5161 24.5847 20.4991 24.5886 20.4822 24.5886C20.369 24.6074 20.2559 24.664 20.1616 24.7394C20.0485 24.8337 19.9542 24.9468 19.9165 25.0788L19.9165 25.0788C19.8976 25.1542 19.8788 25.2296 19.8788 25.3051V25.3239C19.8788 25.5879 20.0296 25.8141 20.237 25.9461C20.3313 26.0215 20.4822 26.0593 20.6141 26.0593ZM19.5582 24.0606C19.7279 23.9098 19.9354 23.7966 20.1616 23.7401V20.4593C19.8976 20.3838 19.6714 20.2519 19.4828 20.0633L16.73 21.666C16.7865 21.798 16.8054 21.9677 16.8054 22.1185C16.8054 22.2173 16.791 22.3017 16.7748 22.3968C16.7725 22.4106 16.7701 22.4247 16.7677 22.4391L19.5582 24.0606ZM14.4108 28.4727C14.4673 28.831 14.769 29.0949 15.1461 29.0949C15.5044 29.0949 15.8249 28.8121 15.8815 28.4727V28.3596C15.8815 28.0579 15.6929 27.7939 15.429 27.6808C15.3347 27.6431 15.2404 27.6242 15.1461 27.6242C15.0519 27.6242 14.9576 27.6431 14.8633 27.6808C14.5993 27.7939 14.4108 28.0579 14.4108 28.3596V28.4727ZM10.734 24.0606L13.5246 22.4391C13.5057 22.3448 13.4869 22.2317 13.4869 22.1185C13.4869 21.9488 13.5246 21.798 13.5623 21.6471L10.8094 20.0633C10.6209 20.2519 10.3946 20.3838 10.1306 20.4593V23.7401C10.3569 23.7966 10.5643 23.9098 10.734 24.0606ZM10.0552 25.9461C10.2815 25.8141 10.4135 25.5879 10.4135 25.3239C10.4135 25.2485 10.3946 25.1731 10.3758 25.0976C10.3192 24.9657 10.2438 24.8337 10.1306 24.7582C10.0364 24.6828 9.94209 24.6263 9.8101 24.6074C9.77239 24.5886 9.71583 24.5886 9.67811 24.5886C9.50842 24.5886 9.35758 24.6451 9.22559 24.7394C9.05589 24.8714 8.94276 25.0976 8.94276 25.3239C8.94276 25.7199 9.2633 26.0593 9.67811 26.0593C9.8101 26.0593 9.94209 26.0215 10.0552 25.9461ZM9.65926 18.1401C9.2633 18.1401 8.92391 18.4606 8.92391 18.8754C8.92391 19.1017 9.03704 19.3091 9.18788 19.4976C9.30101 19.5919 9.47071 19.6485 9.6404 19.6485C9.73468 19.6485 9.82896 19.6296 9.90438 19.5919C9.9798 19.5542 10.0364 19.5165 10.0929 19.4788C10.2438 19.3657 10.3569 19.196 10.3758 19.0074V18.8943V18.7811C10.338 18.5172 10.1684 18.2909 9.92323 18.1966C9.84781 18.1589 9.75354 18.1401 9.65926 18.1401ZM15.1461 14.9724C14.9764 14.9724 14.8256 15.029 14.6936 15.1232C14.5428 15.2364 14.4485 15.4061 14.3919 15.5946V15.7077C14.3919 15.9529 14.5051 16.1603 14.6747 16.2923C14.7313 16.3488 14.7879 16.3865 14.8633 16.4054C14.9387 16.4431 15.033 16.462 15.1273 16.462C15.2215 16.462 15.3158 16.4431 15.3912 16.4054C15.4667 16.3677 15.5232 16.33 15.5798 16.2923C15.7495 16.1603 15.8626 15.934 15.8626 15.7077V15.5946C15.8438 15.4061 15.7495 15.2364 15.5987 15.1232C15.4855 15.029 15.3158 14.9724 15.1461 14.9724ZM15.5987 22.6842C15.7684 22.5522 15.8815 22.3636 15.8815 22.1374C15.8815 22.1374 15.8815 22.1185 15.8438 22.0997C15.8438 22.0242 15.8438 21.9488 15.8249 21.8923C15.7872 21.7414 15.6929 21.6094 15.5798 21.5152C15.5044 21.4586 15.4101 21.402 15.3158 21.3832C15.2593 21.3643 15.2027 21.3643 15.1273 21.3643H15.1273H15.1272C15.0518 21.3643 14.9953 21.3643 14.9387 21.3832C14.8256 21.402 14.7313 21.4586 14.6559 21.5152C14.5428 21.6283 14.4485 21.7603 14.4108 21.9111C14.3919 21.9677 14.3919 22.0242 14.3919 22.0997V22.1185C14.3919 22.3448 14.5051 22.5522 14.6747 22.6842C14.7125 22.7219 14.7502 22.7407 14.7879 22.7596C14.8822 22.8162 14.9953 22.8539 15.1273 22.8539C15.2593 22.8539 15.3724 22.8162 15.4855 22.7596C15.5044 22.7502 15.5232 22.736 15.5421 22.7219C15.5609 22.7077 15.5798 22.6936 15.5987 22.6842ZM18.9549 18.8754C18.9549 18.7434 18.9737 18.6114 19.0114 18.4795L16.2774 16.8956C16.0889 17.0842 15.8626 17.2162 15.5987 17.2916V20.5347C15.8438 20.6101 16.0512 20.7232 16.2397 20.8929L19.0114 19.2902C18.9737 19.1582 18.9549 19.0074 18.9549 18.8754ZM14.6747 17.2916C14.4296 17.2162 14.1845 17.0842 13.996 16.8956L11.2431 18.4795C11.2808 18.6114 11.2997 18.7434 11.2997 18.8754C11.2997 19.0074 11.2808 19.1394 11.2431 19.2714L14.0337 20.8741C14.2222 20.7232 14.4296 20.6101 14.6747 20.5347V17.2916ZM11.3185 25.3239C11.3185 25.4182 11.3185 25.5125 11.2997 25.6067L13.996 27.1717C14.2034 26.9832 14.4296 26.8512 14.6936 26.7758V23.7024C14.4108 23.6081 14.1468 23.4572 13.9582 23.2498L11.2431 24.8148C11.2997 24.9845 11.3185 25.1542 11.3185 25.3239ZM15.5987 26.7758C15.8626 26.8512 16.1077 26.9832 16.2963 27.1717L18.9926 25.6067C18.9737 25.5125 18.9737 25.4182 18.9737 25.3239V25.3239C18.9737 25.1354 18.9926 24.9657 19.0492 24.8148L16.334 23.2498C16.1455 23.4572 15.8815 23.6269 15.5987 23.7024V26.7758Z" fill="white"/>
</svg>
