<svg height="32" width="32" xmlns="http://www.w3.org/2000/svg"><path d="M16 32C7.163 32 0 24.837 0 16S7.163 0 16 0s16 7.163 16 16-7.163 16-16 16zM14.36 6.627c-.315.053-.625.13-.935.203-3.345.864-6.105 3.641-6.875 6.965a9.185 9.185 0 0 0-.16 3.614c.02.14.035.3-.073.414-.503.652-.952 1.35-1.28 2.104-.153.366.193.776.574.775a.643.643 0 0 0 .53-.354c.214-.404.427-.81.676-1.194.23.496.414 1.015.704 1.482 1.326 2.306 3.658 4.044 6.294 4.615 1.818.43 3.754.291 5.512-.323a9.8 9.8 0 0 0 3.977-2.67c1.881-2.062 2.764-4.976 2.3-7.713-.009-.1-.041-.214.036-.297.417-.567.82-1.148 1.132-1.78.1-.207.25-.414.225-.655a.584.584 0 0 0-.624-.51c-.225-.01-.418.14-.51.334-.214.41-.434.817-.68 1.209-.265-.637-.529-1.279-.922-1.852a9.64 9.64 0 0 0-4.423-3.73c-.912-.41-1.906-.618-2.897-.734-.86-.043-1.731-.061-2.582.097zm-2.362 2.01c1.83-.955 4.022-1.246 6.033-.735 3.019.695 5.555 3.15 6.246 6.134-1.802 2.1-4.417 3.377-7.102 3.996-.523.109-1.043.23-1.574.285-.733.07-1.464.197-2.203.16.674-.681 1.383-1.33 2.05-2.02-.25-.3-.545-.561-.824-.833-.75.706-1.47 1.442-2.21 2.157-.43.442-.914.832-1.334 1.284.108.146.238.275.37.4.971.948 1.935 1.904 2.91 2.849.258.248.5.512.779.739.278-.272.572-.53.824-.828-.655-.618-1.291-1.254-1.936-1.882-.219-.219-.451-.425-.64-.671 2.156-.06 4.307-.45 6.328-1.199a13.408 13.408 0 0 0 4.244-2.466c.184-.166.36-.34.557-.493.161 2.46-.885 4.964-2.75 6.608a8.593 8.593 0 0 1-4.673 2.135c-1.244.172-2.52.03-3.716-.337-2.046-.648-3.825-2.083-4.855-3.94-.312-.586-.597-1.192-.748-1.84-.02-.094-.031-.205.045-.28 1.277-1.45 2.952-2.534 4.768-3.214.867-.291 1.735-.596 2.638-.758 1.118-.221 2.254-.383 3.396-.399-.638.72-1.393 1.331-2.057 2.027.218.32.534.56.806.835.1-.076.195-.156.286-.242 1.08-1.077 2.189-2.127 3.268-3.204-1.013-1.04-2.075-2.034-3.104-3.06-.318-.3-.618-.619-.943-.913-.286.268-.572.537-.836.826.837.868 1.745 1.669 2.582 2.537-2.476.12-4.968.563-7.23 1.592-1.219.548-2.384 1.236-3.379 2.124a5.77 5.77 0 0 1-.535.456c-.067-1.19.151-2.386.578-3.498.742-1.84 2.168-3.4 3.941-4.332z" fill="#fff" fill-rule="evenodd"/></svg>