<svg width="32" height="32" viewBox="0 0 32 32" xmlns="http://www.w3.org/2000/svg"><path d="M16 0c8.837 0 16 7.163 16 16s-7.163 16-16 16S0 24.837 0 16 7.163 0 16 0zm9.432 20.42l-10.526 6.086.207.11 1.55-.885.219.363 1.566-.916.22.38 6.764-3.905v-1.232zm0-1.721l-12.026 6.937.221.127 1.55-.902.204.38 3.067-1.77.22.365 6.764-3.905V18.7zm0-1.723L11.92 24.783l.222.11 1.549-.884.204.363 4.553-2.624.22.363 6.764-3.902v-1.233zm0-1.722l-14.998 8.66.207.127 1.564-.902.204.38 6.04-3.493.218.363 6.765-3.902v-1.233zm0-1.707L8.95 23.06l.204.127 1.55-.901.219.363 7.524-4.346.22.38 6.764-3.92v-1.217zm0-1.723L7.465 22.192l.204.126 1.518-.87.221.364 9.04-5.23.22.377 6.764-3.919v-1.216zm-.536-1.422L6.5 21.037v.236l2.718-1.564.222.363 9.054-5.23.207.364 6.73-3.871v-.616l-.316-.19-.22-.127zm-1.486-.853L6.5 19.315v.236l2.718-1.564.222.363 9.054-5.23.207.38 5.769-3.334-.43-.254-.408-.238-.222-.125zm-1.486-.855L6.5 17.593v.236l2.718-1.564.222.363 7.568-4.363.208.366 5.768-3.335-.429-.239-.426-.25-.205-.113zm-1.486-.87L6.5 15.872v.25l2.718-1.578.222.378 6.036-3.491.205.363 5.817-3.35-.426-.238-.43-.254-.204-.126zm-1.486-.852L6.5 14.146v.253l2.718-1.564.222.363 4.55-2.623.205.365 5.817-3.352-.426-.253-.427-.236-.207-.127zm-1.5-.87L6.5 12.442v.236l2.718-1.564.222.363 3.064-1.768.208.363 5.814-3.352-.426-.236-.427-.254-.221-.126zm-1.486-.852L6.5 10.719v.236L9.218 9.39l.222.363 1.564-.901.222.363 5.8-3.35-.427-.253-.428-.236-.205-.127z" fill="#FFF" fill-rule="evenodd"/></svg>