<svg width="32" height="32" viewBox="0 0 32 32" xmlns="http://www.w3.org/2000/svg"><path d="M16 0c8.837 0 16 7.163 16 16s-7.163 16-16 16S0 24.837 0 16 7.163 0 16 0zm7.027 16.49a.243.243 0 00-.341-.082l-1.24.805a.25.25 0 00-.079.337l1.088 1.845a.125.125 0 01-.04.168l-6.35 4.125a.118.118 0 01-.131 0l-6.349-4.125a.127.127 0 01-.04-.168l1.089-1.845a.25.25 0 00-.079-.337l-1.24-.805a.243.243 0 00-.341.082L7.07 19.718a.5.5 0 00.156.674l8.51 5.53a.484.484 0 00.53 0l8.51-5.53a.504.504 0 00.155-.674zM16.564 6h-1.128a.49.49 0 00-.421.242l-4.784 8.111a.25.25 0 00.08.337l1.239.805a.243.243 0 00.342-.082l4.003-6.786a.122.122 0 01.21 0l4.003 6.786c.07.12.227.157.342.082l1.24-.805a.25.25 0 00.078-.337l-4.784-8.111a.49.49 0 00-.42-.242z" fill="#FFF" fill-rule="evenodd"/></svg>