<svg width="33" height="32" viewBox="0 0 33 32" fill="none" xmlns="http://www.w3.org/2000/svg">
<g clip-path="url(#clip0)">
<path fill-rule="evenodd" clip-rule="evenodd" d="M32.1118 15.9996C32.1118 24.8125 24.9246 31.9996 16.1118 31.9996C7.29901 31.9996 0.110217 24.8125 0.111817 15.9996C0.111817 7.18845 7.3006 -0.000350952 16.1118 -0.000350952C24.9246 -0.000350952 32.1118 7.18845 32.1118 15.9996ZM14.3119 7.70677H12.0079C11.9199 7.70677 11.8463 7.77877 11.8495 7.86677V11.2332C11.8495 11.3228 11.7791 11.3932 11.6895 11.3932H8.87353C8.78393 11.3932 8.71353 11.4652 8.71353 11.5532V13.8508C8.71353 13.9404 8.78393 14.0108 8.87353 14.0108H11.6895C11.7791 14.0108 11.8495 14.0828 11.8495 14.1708V17.7467C11.8495 17.8347 11.7791 17.9067 11.6895 17.9067H8.87353C8.78393 17.9067 8.71353 17.9771 8.71353 18.0667V20.3643C8.71353 20.4523 8.78393 20.5243 8.87353 20.5243H11.6895C11.7791 20.5243 11.8495 20.5947 11.8495 20.6843V24.0507C11.8495 24.1387 11.9215 24.2107 12.0095 24.2107H14.3135C14.4015 24.2107 14.4719 24.1387 14.4719 24.0507V20.6843C14.4719 20.5963 14.5439 20.5243 14.6319 20.5243H17.5887C17.6767 20.5243 17.7487 20.5947 17.7487 20.6843V24.0507C17.7487 24.1387 17.8191 24.2107 17.9087 24.2107H20.2111C20.2991 24.2107 20.3711 24.1387 20.3711 24.0507V20.6843C20.3711 20.5963 20.4415 20.5243 20.5311 20.5243H23.3471C23.4367 20.5243 23.5071 20.4523 23.5071 20.3643V18.0667C23.5071 17.9771 23.4367 17.9067 23.3471 17.9067H20.5311C20.4415 17.9067 20.3711 17.8347 20.3711 17.7467V14.1708C20.3711 14.0828 20.4415 14.0108 20.5311 14.0108H23.3471C23.4367 14.0108 23.5071 13.9404 23.5071 13.8508V11.5532C23.5071 11.4652 23.4367 11.3932 23.3471 11.3932H20.5311C20.4415 11.3932 20.3711 11.3228 20.3711 11.2332V7.86677C20.3711 7.77877 20.2991 7.70677 20.2111 7.70677H17.9087C17.8191 7.70677 17.7487 7.77877 17.7487 7.86677V11.2332C17.7487 11.3228 17.6767 11.3932 17.5887 11.3932H14.6303C14.5423 11.3932 14.4703 11.3228 14.4703 11.2332V7.86677C14.4703 7.77877 14.3999 7.70677 14.3119 7.70677ZM17.7503 14.1708V17.7483C17.7503 17.8347 17.6783 17.9083 17.5903 17.9067H14.6319C14.5439 17.9067 14.4719 17.8347 14.4719 17.7467V14.1708C14.4719 14.0828 14.5439 14.0108 14.6319 14.0108H17.5903C17.6783 14.0108 17.7503 14.0828 17.7503 14.1708Z" fill="white"/>
</g>
<defs>
<clipPath id="clip0">
<rect width="32" height="32" fill="white" transform="translate(0.111145)"/>
</clipPath>
</defs>
</svg>
