<svg width="32" height="32" viewBox="0 0 32 32" fill="none" xmlns="http://www.w3.org/2000/svg">
<g clip-path="url(#clip0)">
<path d="M16.0001 0C7.1639 0 0 7.16381 0 16C0 24.8361 7.1639 32 16.0001 32C24.8362 32 32.0001 24.8361 32.0001 16C32.0001 7.16381 24.8362 0 16.0001 0ZM26.6775 24.7989C26.9749 21.6362 26.4506 19.1999 25.5834 17.3502C25.4347 18.3659 25.117 19.452 24.5718 20.575C21.632 26.6405 15.4881 26.5041 15.4881 26.5041C20.8061 23.6469 21.2315 17.313 21.2315 17.313C21.2728 15.2814 20.9341 13.5722 20.3849 12.1434C20.1786 12.0526 20.0589 12.0113 20.0589 12.0113C19.7325 11.871 19.4105 11.7472 19.0925 11.6315C19.2661 11.9947 19.4228 12.3829 19.5592 12.8001C21.4008 18.4899 17.5566 21.8838 17.5566 21.8838C17.5566 21.8838 19.6667 16.6194 14.5094 11.8131C14.1255 11.4828 13.7373 11.1937 13.3534 10.9378C8.7617 11.4911 6.07779 14.6168 6.07779 14.6168C7.89877 12.1394 9.97988 10.8098 11.8834 10.1245C7.43636 8.12587 3.55088 10.3969 3.55088 10.3969C7.13095 5.87973 11.8009 6.65585 11.8009 6.65585C11.8009 6.65585 15.2855 6.9243 17.7382 9.62483C17.9199 9.66207 18.019 9.68671 18.019 9.68671C18.019 9.68671 18.531 9.77352 19.328 10.0706C17.0157 6.49484 13.4276 5.40071 13.4276 5.40071C20.2694 4.65352 23.7418 9.70332 23.7418 9.70332C23.7418 9.70332 25.4969 11.9452 25.6785 15.3021C25.6948 15.327 25.7115 15.3559 25.7281 15.3806C28.7463 20.2694 26.6775 24.7989 26.6775 24.7989Z" fill="white"/>
</g>
<defs>
<clipPath id="clip0">
<rect width="32" height="32" fill="white"/>
</clipPath>
</defs>
</svg>
