<svg width="32" height="32" viewBox="0 0 32 32" fill="none" xmlns="http://www.w3.org/2000/svg">
<path fill-rule="evenodd" clip-rule="evenodd" d="M16 32C24.8366 32 32 24.8366 32 16C32 7.16344 24.8366 0 16 0C7.16344 0 0 7.16344 0 16C0 24.8366 7.16344 32 16 32ZM30.7758 16.9084L29.1659 15.3784C27.6569 16.8513 25.895 17.9321 24.0112 18.6399C21.0532 10.9916 12.5041 6.04662 3.37555 8.74296L3.53286 9.27597L3 9.43337C5.68857 18.5366 14.4814 23.0647 22.5222 21.3867C22.9502 23.3507 22.9996 25.4148 22.5835 27.4795L24.7426 27.9997C25.2663 25.4888 25.2065 23.0464 24.6738 20.7806C26.8641 19.9964 28.9478 18.7175 30.7758 16.9084ZM21.9016 19.2677C19.2468 12.095 11.5214 6.91636 3.53286 9.27597C5.89218 17.2648 14.4375 20.9363 21.9016 19.2677ZM13.5873 17.3488C13.6843 17.2014 13.776 17.0485 13.862 16.8904C14.6777 15.3908 14.8387 13.6999 14.3905 12.1829C14.1403 11.3357 14.3147 11.1611 15.0838 11.6617C15.348 11.8336 15.6074 12.0144 15.8612 12.2031C16.8691 12.9516 17.1884 13.4448 17.3719 14.325C17.6221 15.5251 17.5236 16.8039 17.0293 17.9992C16.7654 18.6373 16.4036 18.9522 15.5668 18.8092C15.026 18.7169 14.4903 18.5974 13.9649 18.4507C13.1361 18.2196 13.2069 17.9277 13.5873 17.3488ZM13.2331 16.4958C13.9864 15.1109 14.1655 13.5678 13.8502 12.1409C13.6558 11.2614 13.5139 10.7099 12.3664 10.2644C11.2051 9.81376 11.2306 10.0299 11.285 10.49C11.2935 10.5619 11.3027 10.6399 11.3081 10.7222C11.3845 11.8711 11.148 13.0555 10.557 14.1421C10.3902 14.4488 10.2014 14.7362 9.99408 15.003C9.91275 15.1077 9.83205 15.204 9.75659 15.2941L9.75657 15.2941C9.32445 15.81 9.06407 16.1209 9.83912 16.6165C10.1376 16.8073 10.443 16.9876 10.7548 17.1572C11.92 17.791 12.6005 17.6587 13.2331 16.4958ZM9.79034 9.9966C9.81061 9.71976 9.82396 9.53737 10.2994 9.64102C10.8544 9.76192 10.8852 10.1152 10.8905 10.451C10.9071 11.4976 10.6618 12.5631 10.1259 13.5484C9.86164 14.0341 9.54257 14.4709 9.18088 14.8556C8.66559 15.4037 8.27614 15.4863 7.77755 15.0125C7.19068 14.4546 7.27778 14.3781 7.65838 14.0437L7.6584 14.0437L7.65841 14.0436C7.736 13.9755 7.82577 13.8966 7.92452 13.8007C8.36948 13.3686 8.75868 12.863 9.0708 12.2891C9.43783 11.6143 9.66826 10.9021 9.77198 10.1841C9.78141 10.1186 9.78603 10.0554 9.79034 9.9966ZM17.4896 18.4374C17.321 18.8227 17.4598 19.029 18.0813 19.0364C19.065 19.048 20.0557 18.9699 21.0373 18.798C20.396 17.286 19.5278 15.8918 18.485 14.6648C17.9693 14.0581 17.7934 14.1655 17.9115 14.8214C18.1251 16.0095 18.0013 17.267 17.4896 18.4374ZM6.3628 9.89144C6.60572 9.44487 7.16461 9.27978 7.61113 9.52269C8.0577 9.7656 8.22279 10.3245 7.97988 10.771C7.73697 11.2175 7.17807 11.3826 6.73155 11.1398C6.28498 10.8969 6.11994 10.338 6.3628 9.89144Z" fill="white"/>
</svg>
