<svg width="32" height="32" viewBox="0 0 32 32" xmlns="http://www.w3.org/2000/svg"><path d="M16 0c8.837 0 16 7.163 16 16s-7.163 16-16 16S0 24.837 0 16 7.163 0 16 0zm3.013 5.467a.402.402 0 00-.56-.007.38.38 0 00-.008.547 34.89 34.89 0 013.157 3.78c2.036 2.834 3.11 5.349 3.11 7.28 0 4.697-3.905 8.514-8.712 8.514s-8.713-3.825-8.713-8.515c0-1.93 1.068-4.445 3.089-7.279a34.761 34.761 0 013.126-3.78.38.38 0 00-.008-.547.402.402 0 00-.56.007l-.033.034a35.015 35.015 0 00-3.169 3.835C7.59 12.346 6.5 14.951 6.5 17.066c0 5.12 4.262 9.284 9.5 9.284s9.5-4.165 9.5-9.284c0-4.836-5.786-10.883-6.437-11.547zm-1.43 1.228a.395.395 0 00-.561 0 .374.374 0 000 .548l.024.023.028.028.145.145a37.258 37.258 0 012.823 3.214c1.953 2.522 2.983 4.668 2.983 6.221 0 3.78-3.15 6.857-7.017 6.857-3.869 0-7.018-3.077-7.018-6.857 0-3.496 4.967-8.618 5.779-9.432l.079-.079.016-.016.016-.015a.387.387 0 000-.548.409.409 0 00-.56 0c-.25.237-6.124 5.977-6.124 10.09 0 4.202 3.497 7.627 7.804 7.627s7.804-3.425 7.82-7.627c0-4.12-5.98-9.934-6.238-10.179zm-1.636 1.088l-.28.288c-.227.23-5.579 5.704-5.579 8.803 0 3.188 2.65 5.777 5.912 5.777 3.263 0 5.912-2.589 5.912-5.784 0-3.1-5.443-8.574-5.677-8.803l-.288-.281zm.008 1.117a41.394 41.394 0 012.475 2.826c1.764 2.234 2.695 4.009 2.695 5.14 0 2.76-2.301 5.009-5.125 5.009s-5.125-2.25-5.125-5.008c0-1.132.916-2.907 2.65-5.141a39.9 39.9 0 012.43-2.826z" fill="#FFF" fill-rule="evenodd"/></svg>