<svg width="32" height="32" viewBox="0 0 32 32" xmlns="http://www.w3.org/2000/svg">
<path fill="#fff" d="M19.23,13.5c0.36-2.91-1.83-4.81-1.9-4.86c-0.17-0.07-0.34-0.13-0.51-0.17c-2.21-0.55-3.11,0.99-3.11,0.99
	c0.96,1.2,3.3,4.38,4.54,7.79C18.27,17.22,18.87,16.41,19.23,13.5z"/>
<path fill="#fff" d="M16,0C7.16,0,0,7.16,0,16s7.16,16,16,16s16-7.16,16-16S24.84,0,16,0z M23.1,20.06
	c-1.74,4.26-5.86,6.72-6.93,7.37c-0.14,0.08-0.29,0.14-0.44,0.2c-0.13,0.07-0.22,0.1-0.25,0.11c-0.01,0-0.01,0-0.01,0
	c-0.88,0.3-1.94,0.31-2.96,0.17c-0.12-0.02-0.24-0.03-0.37-0.05c-0.68-0.11-1.18-0.48-1.5-0.83c-0.34-0.36-0.51-0.84-0.48-1.33
	c0.03-0.45,0.06-1.07,0.1-1.62c0.01-0.09,0.04-0.15,0.06-0.23c0.01-0.1,0.03-0.19,0.07-0.26c0.01-0.01,0.01-0.03,0.02-0.04
	c0.01-0.01,0.01-0.02,0.02-0.03c0.3-0.51,0.95-0.67,1.56-0.8c0.8-0.17,1.87-0.8,1.87-0.8s0.02-0.04,0.05-0.13c0,0,0,0,0,0
	c0.07-0.29,0.14-1.11-0.47-2.89c-0.81-2.35-2.8-5.38-4.03-7.96C9.1,10.3,8.9,9.77,8.78,9.32c0-0.01,0-0.02-0.01-0.02
	c0-0.01,0-0.01,0-0.02c0,0,0-0.01,0-0.01c0,0,0,0,0,0C8.43,7.91,8.87,7.25,9.6,6.36c1.21-1.47,5.65-4.23,10.74-0.46
	c0.31,0.23,0.59,0.47,0.86,0.72c0.14,0.12,0.24,0.22,0.31,0.29c0.07,0.07,0.11,0.11,0.11,0.11C25.31,10.79,24.68,16.2,23.1,20.06z"
	/>
<path fill="#fff" fill-opacity="0.25" d="M21.51,6.9c-0.1-0.1-0.21-0.19-0.31-0.29c-0.95-0.84-3.41-2.66-6.15-1.98c-3.52,0.87-2.73,3.08-1.33,4.83
	c0,0,0.9-1.54,3.11-0.99c0.17,0.04,0.34,0.1,0.51,0.17c1.95,0.82,3.35,3.39,3.38,5.56c0.03,2.36-0.94,4.81-1.73,5.85
	c0.09,0.61,0.11,1.22,0.07,1.81c-0.29,3.92-2.56,5.39-3.33,5.77c0.15-0.06,0.3-0.12,0.44-0.2c1.08-0.65,5.19-3.11,6.93-7.37
	c1.58-3.86,2.21-9.26-1.49-13.05C21.62,7.01,21.58,6.97,21.51,6.9z"/>
<path fill="#fff" fill-opacity="0.8" d="M19.23,13.5c-0.36,2.91-0.95,3.72-0.97,3.74c0.34,0.93,0.6,1.88,0.73,2.8c0.79-1.04,1.76-3.49,1.73-5.85
	c-0.03-2.17-1.44-4.74-3.38-5.56C17.39,8.69,19.59,10.59,19.23,13.5z"/>
<path fill="#F2B100" d="M15.73,27.63c-0.08,0.04-0.16,0.08-0.25,0.11C15.51,27.73,15.6,27.69,15.73,27.63z"/>
<path fill="#fff" fill-opacity="0.66" d="M15.73,27.63c-0.08,0.04-0.16,0.08-0.25,0.11C15.51,27.73,15.6,27.69,15.73,27.63z"/>
<path fill="#fff" fill-opacity="0.45" d="M15.73,27.63c-0.08,0.04-0.16,0.08-0.25,0.11C15.51,27.73,15.6,27.69,15.73,27.63z"/>
<path fill="#F2B100" d="M21.19,6.61c0.11,0.1,0.21,0.19,0.31,0.29C21.44,6.83,21.33,6.73,21.19,6.61z"/>
<path fill="#fff" fill-opacity="0.66" d="M21.19,6.61c0.11,0.1,0.21,0.19,0.31,0.29C21.44,6.83,21.33,6.73,21.19,6.61z"/>
<path fill="#fff" fill-opacity="0.45" d="M21.19,6.61c0.11,0.1,0.21,0.19,0.31,0.29C21.44,6.83,21.33,6.73,21.19,6.61z"/>
<path fill="#fff" fill-opacity="0.8" d="M16.45,22.79c0.24-2.96-2.16-7.4-4.95-10.17c-2.26-2.25-2.66-3.1-2.73-3.3C8.9,9.77,9.1,10.3,9.4,10.93
	c1.23,2.59,3.22,5.61,4.03,7.96c0.62,1.77,0.54,2.59,0.47,2.89c0,0,0,0,0,0c-0.02,0.12-0.4,3.03-1.94,3.3
	c-1.29,0.23-1.71-0.64-1.64-1.23c-0.02,0.08-0.05,0.14-0.06,0.23c-0.04,0.55-0.07,1.17-0.1,1.62c-0.03,0.49,0.14,0.97,0.48,1.33
	c0.33,0.35,0.82,0.72,1.5,0.83c0.12,0.02,0.24,0.04,0.37,0.05C14.65,27.79,16.21,25.75,16.45,22.79z"/>
<path fill="#fff" fill-opacity="0.25" d="M11.96,25.08c1.54-0.27,1.93-3.18,1.94-3.3c-0.02,0.09-0.05,0.13-0.05,0.13s-1.08,0.62-1.87,0.8
	c-0.61,0.13-1.26,0.29-1.56,0.8c-0.01,0.01-0.01,0.02-0.02,0.03c-0.01,0.01-0.01,0.03-0.02,0.04c-0.04,0.07-0.05,0.18-0.07,0.26
	C10.25,24.44,10.66,25.3,11.96,25.08z"/>
<path fill="#fff" d="M10.32,23.85c0.02-0.09,0.03-0.19,0.07-0.26C10.35,23.66,10.33,23.75,10.32,23.85z"/>
<path fill="#fff" fill-opacity="0.66" d="M10.32,23.85c0.02-0.09,0.03-0.19,0.07-0.26C10.35,23.66,10.33,23.75,10.32,23.85z"/>
</svg>
