<svg width="32" height="32" viewBox="0 0 32 32" xmlns="http://www.w3.org/2000/svg"><path d="M16 0c8.837 0 16 7.163 16 16s-7.163 16-16 16S0 24.837 0 16 7.163 0 16 0zm9.396 9h-4.193c-1.072 0-1.992.451-2.76 1.347l-4.472 5.707-2.88 3.67a.643.643 0 01-.492.24h-3.98a.084.084 0 00-.078.034.123.123 0 00-.025.077v2.83a.12.12 0 00.025.06.09.09 0 00.078.034h4.197c1.072 0 1.992-.454 2.76-1.359l2.44-3.108 2.44 3.108c.763.905 1.675 1.36 2.747 1.36h4.19a.084.084 0 00.077-.035.123.123 0 00.025-.077v-2.8a.143.143 0 00-.025-.09.09.09 0 00-.078-.034h-3.98a.613.613 0 01-.476-.223l-2.945-3.752 2.933-3.725a.617.617 0 01.493-.24h3.98a.084.084 0 00.077-.035.123.123 0 00.025-.077V9.08a.093.093 0 00-.025-.053.102.102 0 00-.078-.026zM10.825 9H6.619a.103.103 0 00-.086.035.11.11 0 00-.033.077v2.8c0 .03.012.056.033.077a.13.13 0 00.086.034h3.98c.193 0 .374.086.493.24l1.511 1.934 1.992-2.534-1.023-1.303C12.8 9.455 11.884 9 10.825 9z" fill="#FFF" fill-rule="evenodd"/></svg>