<svg width="32" height="32" viewBox="0 0 32 32" fill="none" xmlns="http://www.w3.org/2000/svg">
<path fill-rule="evenodd" clip-rule="evenodd" d="M32 16C32 24.8366 24.8366 32 16 32C7.16344 32 0 24.8366 0 16C0 7.16344 7.16344 0 16 0C24.8366 0 32 7.16344 32 16ZM19.0838 19.0238L22.5282 24.4305H19.9649L15.9199 18.0826L11.8748 24.4305H9.31163L12.7559 19.0238H7.80975V16.9812H24.03V19.0238H19.0838ZM24.03 12.9562V14.9987L7.80975 15.0188V12.9562H12.6558L9.25156 7.60951H11.8348L15.9199 14.0576L20.005 7.60951H22.5882L19.184 12.9562H24.03Z" fill="white"/>
</svg>
