<svg height="32" width="32" xmlns="http://www.w3.org/2000/svg"><path d="M16 32C7.163 32 0 24.837 0 16S7.163 0 16 0s16 7.163 16 16-7.163 16-16 16zm5.069-13.11c.014-1.433-.607-2.466-1.845-3.084-.462-.23-.956-.394-1.437-.584-.79-.312-1.63-.528-2.358-.952-1.144-.666-1.138-2.248-.062-3.026.764-.553 1.632-.566 2.512-.529 1.005.043 1.957.333 2.905.652.554.186.844.013.982-.569.074-.309.13-.623.188-.936.097-.523.077-.58-.426-.736a28.867 28.867 0 0 0-2.024-.566c-.358-.083-.468-.25-.405-.61.055-.313.07-.633.1-.95.068-.724-.01-.83-.704-.973-.413-.084-.558.018-.618.466-.055.404-.09.81-.135 1.215-.072.63-.098.641-.707.623-.267-.008-.347-.125-.318-.38.036-.304.061-.608.09-.913.074-.781-.016-.9-.768-1.023-.354-.058-.502.048-.548.427-.06.493-.139.988-.145 1.483-.007.457-.191.671-.598.825-1.527.578-2.556 1.668-2.873 3.349-.281 1.49-.058 2.887 1.218 3.831.569.42 1.253.69 1.911.957.74.301 1.53.477 2.264.792.893.383 1.17 1.153.861 2.105-.209.64-.625 1.088-1.191 1.393-.857.461-1.786.523-2.725.5-1.04-.025-2.041-.26-3.015-.644-.55-.216-.838-.036-.962.56-.072.348-.13.7-.214 1.046-.066.271.014.453.258.55.4.158.799.33 1.21.454.925.279.928.268.802 1.271-.1.809-.044.893.72 1.058.358.078.513-.014.575-.386.06-.363.095-.732.13-1.1.024-.256.133-.385.394-.398.58-.029.667.058.597.666l-.024.19c-.094.74-.018.854.688 1.022.41.098.563-.004.626-.45.054-.377.093-.758.12-1.14.023-.303.174-.44.451-.51.464-.116.93-.24 1.378-.41 1.91-.727 3.109-2.492 3.122-4.565z" fill="#fff" fill-rule="evenodd"/></svg>