<svg width="32" height="32" viewBox="0 0 32 32" fill="none" xmlns="http://www.w3.org/2000/svg">
<path fill-rule="evenodd" clip-rule="evenodd" d="M16 32C24.8365 32 32 24.8365 32 16C32 7.1635 24.8365 0 16 0C7.1635 0 0 7.1635 0 16C0 24.8365 7.1635 32 16 32ZM18.195 7.3L25.169 24.218C25.233 24.3694 25.2633 24.5328 25.258 24.697C25.2717 25.0441 25.1486 25.3828 24.915 25.64C24.7955 25.7625 24.651 25.858 24.4915 25.9201C24.332 25.9822 24.161 26.0095 23.99 26C23.731 25.9966 23.4794 25.9127 23.27 25.76C23.0494 25.5974 22.8767 25.3784 22.77 25.126L16.138 8.571L13.705 14.655H14.888C15.2193 14.6568 15.5364 14.7892 15.7706 15.0234C16.0048 15.2577 16.1372 15.5748 16.139 15.906V15.94C16.1375 16.2716 16.005 16.5891 15.7706 16.8236C15.5361 17.058 15.2186 17.1904 14.887 17.192H12.676L9.48903 25.127C9.38236 25.3794 9.20964 25.5984 8.98903 25.761C8.77971 25.9137 8.52811 25.9976 8.26903 26.001C8.09809 26.0105 7.92711 25.9832 7.76757 25.9211C7.60802 25.859 7.46361 25.7635 7.34403 25.641C7.11049 25.3838 6.98732 25.0451 7.00103 24.698C7.00309 24.5344 7.03215 24.3722 7.08703 24.218L9.98703 17.191H8.75603C8.42482 17.1892 8.10769 17.0568 7.87347 16.8226C7.63926 16.5883 7.50687 16.2712 7.50503 15.94V15.923C7.50685 15.593 7.63828 15.2769 7.87098 15.0429C8.10369 14.8089 8.41903 14.6757 8.74903 14.672H11.049L14.082 7.3C14.2019 6.92834 14.4347 6.60333 14.748 6.37029C15.0614 6.13725 15.4396 6.00781 15.83 6H16.447C16.8375 6.00781 17.2157 6.13725 17.5291 6.37029C17.8424 6.60333 18.0752 6.92834 18.195 7.3Z" fill="white"/>
</svg>
