<svg width="160" height="160" viewBox="0 0 160 160" fill="none" xmlns="http://www.w3.org/2000/svg"><path d="M32.4443 132.216C42.37 149.615 60.1486 160 80 160C99.8514 160 117.627 149.615 127.556 132.216C137.481 114.822 137.481 94.0509 127.556 76.6528L85.7295 3.34723C83.183 -1.11575 76.817 -1.11574 74.2705 3.34724L32.4443 76.6528C22.5186 94.0475 22.5186 114.818 32.4443 132.216ZM68.2175 38.2219L77.1352 22.592C78.4085 20.3604 81.5916 20.3604 82.8648 22.592L117.172 82.7217C123.475 93.7681 124.658 106.553 120.721 118.253C120.311 116.344 119.739 114.391 118.966 112.418C114.227 100.317 103.512 90.979 87.113 84.6613C75.8379 80.3336 68.641 73.9686 65.7166 65.7422C61.9499 55.1391 65.8841 43.5766 68.2175 38.2219ZM53.0112 64.8737C53.344 66.4879 53.7872 68.11 54.3577 69.7287C58.4995 81.4856 68.0776 90.3201 82.8203 95.979C95.8627 101.006 104.24 107.986 107.721 116.729C111.49 126.198 108.439 135.385 107.454 137.894C99.9003 144.286 90.3072 147.869 80 147.869C64.4813 147.869 50.5873 139.754 42.828 126.154C35.0686 112.555 35.0686 96.3208 42.828 82.7217L53.0112 64.8737Z" fill="#ffffff"/></svg>
