<svg xmlns="http://www.w3.org/2000/svg" width="32" height="32" viewBox="0 0 32 32"><path fill="#FFF" d="M16,32 C7.163444,32 0,24.836556 0,16 C0,7.163444 7.163444,0 16,0 C24.836556,0 32,7.163444 32,16 C32,24.836556 24.836556,32 16,32 Z M18.0614472,9.08360478 L13.988829,9.08360478 C10.9773868,12.4464305 9.51413856,13.8284066 7,15.8995114 L17.8100525,18.2378257 L15.9497238,20.3273751 C13.4672239,18.8575597 11.7674882,18.6690147 8.70950012,18.3870793 C11.0067489,19.4457926 12.1999787,20.2959826 13.988829,22.9144951 L18.0614472,22.9144951 C20.1757625,20.2866178 21.6335799,18.7622014 25,15.8995114 L14.2402237,13.5114549 L15.9497238,11.5214169 C18.6587409,12.9432546 20.28106,13.1466884 23.1558541,13.5071797 C22.3293003,13.2801031 21.4650326,12.6497964 18.0614472,9.08360478 Z M14.2397163,8.58706569 L17.8095451,8.58706569 C16.9187953,7.47482356 16.5397353,6.91150923 16.0497688,6 C15.5509826,6.88545331 15.1704264,7.44244028 14.2397163,8.58706569 Z M17.8095176,23.4129343 L14.2396888,23.4129343 C15.1304386,24.5251764 15.5094986,25.0884908 15.9994651,26 C16.4982513,25.1145467 16.8788075,24.5575597 17.8095176,23.4129343 Z"/></svg>