<svg width="32" height="32" viewBox="0 0 32 32" fill="none" xmlns="http://www.w3.org/2000/svg">
<path fill-rule="evenodd" clip-rule="evenodd" d="M16 32C24.8366 32 32 24.8366 32 16C32 7.16344 24.8366 0 16 0C7.16344 0 0 7.16344 0 16C0 24.8366 7.16344 32 16 32ZM27.5406 18.9641C29.0406 16.6641 26.2406 11.8641 21.0406 8.46409C15.9406 4.86411 10.5406 3.9641 8.94058 6.26405L8.94056 6.26404L4.34056 12.964L4.3666 12.982C3.20986 14.9453 4.87246 18.2658 8.19955 21.3368C8.1455 21.3476 8.09248 21.3567 8.04056 21.3641C8.94056 22.1641 9.84056 22.8641 10.8406 23.5641C15.9406 27.0641 21.3406 28.0641 22.9406 25.7641L22.9406 25.764L27.5396 18.9655L27.5406 18.9641Z" fill="white"/>
<path fill-rule="evenodd" clip-rule="evenodd" d="M26.8406 18.5641C25.4406 20.5641 20.5406 19.5641 15.8406 16.2641C11.0406 12.9641 8.24056 8.76414 9.64056 6.76414C11.0406 4.76414 15.9406 5.76414 20.6406 9.06414C25.3406 12.3641 28.1406 16.5641 26.8406 18.5641ZM22.4406 15.5641C21.7406 16.5641 19.3406 16.0641 16.9406 14.4641C14.6406 12.8641 13.2406 10.7641 13.9406 9.76414C14.6406 8.76414 17.0406 9.26414 19.4406 10.8641C21.7406 12.4641 23.1406 14.5641 22.4406 15.5641Z" fill="white"/>
</svg>
