<svg width="32" height="32" viewBox="0 0 32 32" fill="none" xmlns="http://www.w3.org/2000/svg">
<path fill-rule="evenodd" clip-rule="evenodd" d="M31.9995 15.9997C31.9995 24.8361 24.8361 31.9995 15.9997 31.9995C7.16332 31.9995 0 24.8361 0 15.9997C0 7.16332 7.16332 0 15.9997 0C24.8361 0 31.9995 7.16332 31.9995 15.9997ZM12.9746 6.97223C13.6276 6.30291 14.4914 5.87904 15.4204 5.77198L15.4198 5.76712L15.4231 5.77036C15.6249 5.74489 15.8281 5.7321 16.0316 5.73206H16.0618C16.6708 5.73199 17.2724 5.86569 17.8241 6.12369C18.1362 6.28711 18.4326 6.47907 18.7093 6.69712C18.8906 6.82766 18.8782 6.86866 18.7315 7.05368C18.6981 7.09621 18.6621 7.13657 18.6236 7.17452C18.0273 7.78588 17.4301 8.39365 16.8321 8.99782C16.6996 9.13351 16.5759 9.25438 16.4468 9.38049C16.3151 9.50906 16.1779 9.64306 16.0202 9.80374C15.8883 9.93822 15.7592 10.0727 15.6301 10.2072C15.4537 10.391 15.2773 10.5748 15.0935 10.7585C14.9916 10.8618 14.8885 10.9638 14.7853 11.0659C14.6561 11.1938 14.5267 11.3218 14.3992 11.4528C14.2328 11.6265 14.0676 11.8022 13.9021 11.9782C13.7008 12.1923 13.4991 12.4068 13.2945 12.6185C13.008 12.9114 12.7464 13.179 12.4378 13.4973C12.1293 13.8155 11.7921 14.1662 11.5181 14.4526C11.3826 14.5942 11.2448 14.7328 11.1062 14.8721C10.9644 15.0146 10.8219 15.1579 10.6803 15.306C10.5272 15.4662 10.3758 15.6302 10.2243 15.7943C10.0988 15.9302 9.97319 16.0663 9.84637 16.2004C9.78654 16.2632 9.72516 16.3242 9.66373 16.3852C9.59001 16.4584 9.51624 16.5317 9.44503 16.6082C9.26091 16.8007 9.07265 17.0017 8.88974 17.1969C8.80041 17.2923 8.71237 17.3863 8.6267 17.4773C8.47235 17.6412 8.31575 17.8038 8.15955 17.9659C8.05153 18.0781 7.9437 18.19 7.83696 18.3021C7.71076 18.4323 7.58782 18.5626 7.46471 18.693C7.40733 18.7538 7.34992 18.8146 7.29213 18.8755C7.26166 18.9097 7.22866 18.9417 7.19341 18.971C7.00892 19.1236 6.90697 19.1269 6.76672 18.9294C6.55455 18.6449 6.36619 18.3435 6.20354 18.028C5.91783 17.5061 5.76169 16.9231 5.74826 16.3283C5.74448 16.2678 5.74448 16.2053 5.74448 16.1443C5.74458 15.1083 6.10351 14.1043 6.76024 13.3031C6.86107 13.1841 6.97099 13.0741 7.08095 12.964C7.14454 12.9003 7.20815 12.8366 7.27001 12.7712C7.39949 12.6361 7.52831 12.4989 7.65737 12.3615C7.81381 12.1949 7.9706 12.0279 8.12934 11.8639C8.50685 11.4826 8.88436 11.1051 9.26187 10.7275L9.26216 10.7273C9.37688 10.6107 9.48602 10.4973 9.59695 10.3819C9.71969 10.2543 9.84463 10.1244 9.98177 9.98553C10.1288 9.83672 10.2809 9.68688 10.4306 9.53939C10.5468 9.4249 10.6616 9.31182 10.7715 9.20173C10.8419 9.13116 10.9123 9.06089 10.9827 8.99067C11.1635 8.81024 11.3439 8.63019 11.5229 8.44652C11.7769 8.19586 12.0224 7.9431 12.2672 7.69103C12.5014 7.44997 12.7349 7.20955 12.9746 6.97223ZM20.6518 9.69154H20.6901L20.6912 9.691L20.7867 9.67805H20.7986C21.08 9.6782 21.3582 9.73754 21.6152 9.85222C21.8721 9.96691 22.1021 10.1344 22.2901 10.3437C23.1527 11.2387 24.032 12.1206 24.9139 12.9961C25.255 13.2969 25.5547 13.6415 25.8051 14.0211C26.1533 14.5575 26.3825 15.1623 26.4772 15.7947C26.5204 16.1502 26.5204 16.5096 26.4772 16.865C26.3992 17.5806 26.1511 18.2671 25.7539 18.8674C25.5408 19.1603 25.3064 19.437 25.0526 19.6954C24.7343 20.0331 24.4155 20.3541 24.0972 20.6697C23.9249 20.8405 23.7424 21.017 23.5663 21.1873C23.4171 21.3315 23.2725 21.4713 23.1424 21.5996C22.9399 21.7995 22.741 22.0012 22.5417 22.2033C22.4617 22.2844 22.3818 22.3655 22.3015 22.4466L21.3812 23.3733C21.1695 23.5773 20.9662 23.786 20.7662 23.9913C20.6445 24.1162 20.5241 24.2399 20.4037 24.3605C20.2846 24.4814 20.1668 24.6037 20.0491 24.726C19.7326 25.0546 19.4161 25.3833 19.0729 25.6848C18.4534 26.2469 17.6741 26.602 16.8434 26.7006C16.0065 26.8203 15.1528 26.6988 14.3825 26.3505C14.0728 26.1885 13.7777 26.0001 13.5005 25.7873C13.3317 25.6692 13.3317 25.5769 13.4746 25.4275C13.6328 25.2572 13.7986 25.0916 13.9645 24.9258C14.0423 24.848 14.1203 24.7701 14.1975 24.6917C14.2545 24.6346 14.3111 24.5771 14.3677 24.5195C14.4502 24.4356 14.5329 24.3514 14.6177 24.2683C14.691 24.196 14.7637 24.1238 14.8364 24.0517C15.0637 23.826 15.2905 23.601 15.532 23.3766C15.5428 23.3658 15.5542 23.3562 15.5656 23.3465C15.5811 23.3334 15.5968 23.3202 15.6113 23.3037C15.8945 23.0087 16.1988 22.6926 16.4637 22.4223C16.6195 22.2632 16.7788 22.107 16.9385 21.9503C17.0501 21.8408 17.1618 21.7311 17.2728 21.6201L17.6326 21.2474C17.6707 21.2093 17.706 21.1683 17.7412 21.1273C17.7588 21.1068 17.7765 21.0863 17.7944 21.0661C17.9776 20.8846 18.1591 20.7015 18.3407 20.5183C18.5222 20.3352 18.7037 20.1521 18.8868 19.9705C19.0429 19.8148 19.2007 19.6618 19.3583 19.5091C19.4872 19.3841 19.616 19.2593 19.7434 19.1333C19.8468 19.0306 19.9508 18.9282 20.0549 18.8258C20.3508 18.5348 20.6473 18.2431 20.9302 17.939C21.2487 17.5859 21.4441 17.139 21.4869 16.6654C21.4951 16.5855 21.4992 16.5052 21.4993 16.4248C21.4994 15.955 21.3574 15.4962 21.092 15.1086C21.0696 15.0504 21.0316 14.9995 20.9822 14.9615C20.9328 14.9234 20.874 14.8996 20.812 14.8926C20.7501 14.8857 20.6874 14.8958 20.6308 14.922C20.5742 14.9482 20.5259 14.9894 20.4911 15.0412C19.9689 15.5477 19.45 16.0569 18.9343 16.5634L17.2766 18.1791C17.1339 18.3174 16.9907 18.4553 16.8477 18.5931C16.5857 18.8454 16.3241 19.0974 16.0666 19.3507C15.7864 19.6263 15.5083 19.904 15.2299 20.182C15.0211 20.3905 14.8122 20.5992 14.6021 20.8072C14.4364 20.971 14.2676 21.1319 14.0988 21.2926C14.0181 21.3695 13.9374 21.4464 13.8571 21.5236L12.7998 22.5447C12.6043 22.7218 12.368 22.8477 12.112 22.911C11.7703 23.0039 11.4116 23.0159 11.0644 22.9461C10.6964 22.885 10.3586 22.705 10.1026 22.4336C9.80165 22.1174 9.49043 21.8045 9.1789 21.4914C9.06213 21.374 8.94532 21.2566 8.82899 21.139C8.65421 20.9577 8.65745 20.9356 8.82899 20.7668C9.71834 19.8749 10.609 18.9812 11.5008 18.0857L13.5194 16.0666L14.6053 14.9716C14.7427 14.8375 14.882 14.7024 15.0206 14.5679C15.1905 14.4031 15.3593 14.2394 15.5223 14.0799C15.72 13.8866 15.9164 13.6848 16.1065 13.4896C16.2013 13.3923 16.2945 13.2966 16.3854 13.2044C16.5529 13.0346 16.7218 12.8673 16.8911 12.6995C16.9983 12.5933 17.1056 12.4869 17.2129 12.3796C17.402 12.1905 17.5941 11.9975 17.7829 11.8079C17.9282 11.662 18.0714 11.5181 18.2098 11.3794L19.184 10.4241C19.2175 10.3939 19.2493 10.362 19.2795 10.3286C19.4482 10.1291 19.6584 9.96872 19.8954 9.8587C20.1324 9.74867 20.3906 9.69163 20.6518 9.69154Z" fill="white"/>
</svg>
