<svg height="32" viewBox="0 0 32 32" width="32" xmlns="http://www.w3.org/2000/svg"><path d="m26.9983527 16.2054398c.0010983-.068251.0016475-.136731.0016475-.2054398 0-3.0398472-1.0749608-5.6347289-3.2249171-7.78478368-2.143483-2.14347755-4.7352903-3.21521632-7.7751105-3.21521632-3.0398894 0-5.6347431 1.07173877-7.78480324 3.21521632-2.14348293 2.15005478-3.2152244 4.74493648-3.2152244 7.78478368 0 .1272911.00187929.2537965.00563785.3795164-.00378321-.1257277-.00563785-.252227-.00563785-.3795164 0-.2863163.00979661-.5688939.02932058-.8476637.04157498.0018001.08211146.0066465.12178251.014643l4.69125749-8.13548738c-.03215917-.03721315-.0597489-.07612253-.08276919-.11693583.47307555-.33235672.96508655-.62140772 1.47603305-.8671876.0270359.04462116.0496754.09170013.0682301.14130612h9.3923116c.0184508-.04919059.0411249-.09626955.0683339-.14130612.5107388.24671454 1.0028537.53739253 1.4761715.87203396-.0223279.03679775-.0483253.07248776-.0780612.10724311l4.6864457 8.14033374c.0399134-.0079965.0806922-.0128429.1218171-.014643.0194894.2788737.0291821.5613474.0291821.8476637 0 .0687153-.000529.1372003-.0015925.2054622zm-.0283585.6617146c-.0414257-.0019275-.0817233-.0068316-.1210971-.0146444l-4.6913267 8.1257947c.0287256.0330862.0545793.0671068.0779763.1021653.5365831-.3790017 1.0497631-.8141279 1.5395364-1.3053791 1.9425717-1.9367178 3.0075335-4.2394399 3.1949111-6.9079365zm-4.7512691 8.225203c-.0350004.0246122-.0700988.0489858-.1052955.0731209.0351931-.024142.0702869-.0485222.1052814-.0731406zm-.1056342.0733531c-.4359763.2989327-.8870367.5612607-1.3536308.7868518-.0252011-.0420595-.0462482-.0859884-.0633836-.1315096h-9.3923116c-.0172393.0460405-.038321.0900386-.0632798.1315096-.2550849-.1223872-.5055623-.2557958-.7514453-.4002303 1.6372583.9651155 3.474222 1.447668 5.5109328 1.447668 2.2925756 0 4.3303262-.6114248 6.1131181-1.8342894zm-12.34835946-.0809728c.02244698-.0372562.04831616-.0726322.07753948-.1065023l-4.69122287-8.1257254c-.03930969.007924-.07971659.0127277-.12118657.0146502.18681725 2.6684941 1.24858655 4.9712143 3.18530788 6.9079307.49312109.4930961 1.00964123.9296449 1.54956208 1.3096468zm6.23526856 6.9152623c-8.836556 0-16-7.163444-16-16s7.163444-16 16-16 16 7.163444 16 16-7.163444 16-16 16zm10.3470895-16.5407158-4.549951-7.88707652v7.62883462c.1139937.0425441.2178792.1107394.3117258.204655.0939851.0938118.1621806.1978355.2047248.3117251h3.877724c.0343747-.0923233.0863001-.1783116.1557764-.2581382zm-.1558456.8427481h-3.8776548c-.0425442.1139934-.1107397.2179133-.2047248.3118982-.0938466.0938463-.1977321.1621801-.3117258.2045858v7.6190034l4.5499856-7.8773146c-.0695109-.0798958-.1214363-.1658842-.1558802-.2581728zm-20.38254261-.5846099h3.87775864c.04254426-.1138896.11067046-.2178787.2045863-.3117251.09391585-.0939156.19780137-.1621455.31179507-.204655v-7.62883462l-4.55008947 7.88707652c.0695455.0798266.12150557.1659188.15594946.2581382zm5.48537081-8.92468313 6.1137035 5.29534493c.1276674-.0747032.2689047-.1119856.4239887-.1119856.0521332 0 .1023624.0048464.1508954.0145391l2.8694701-4.95918039c-.0688878-.07965346-.1208479-.1656418-.1560533-.25824197h-9.3923116c-.002354.00643874-.005608.01287748-.0096928.01952393zm.0096928 8.92468313h3.8874514c.0325399-.0956465.0828038-.1849927.1511031-.2679347l-4.5549359-7.87728002v7.62883462c.1139937.0425441.2178792.1107394.3117951.204655.0939504.0938118.162042.1978355.2045863.3117251zm7.3318055-2.5769848 2.4502586 2.1191072c.0409172-.0231933.0829422-.0427172.1266981-.0585025v-7.62883462l-2.7231095 4.71076962c.133033.1583376.199636.3418417.199636.5505123 0 .1091471-.0178969.2115092-.0534832.306948zm-1.6028697-.6138959-5.4171408-4.68639933 4.2333096 7.31704033c.0489138-.0096927.0993507-.0145391.1511031-.0145391.0519601 0 .1023624.0048464.1511031.0145391l1.0277087-1.7731807c-.1363909-.1570915-.2045517-.3405263-.2045517-.5505124.0000692-.1102894.0194547-.2126515.058468-.3069479zm-.2192293 3.1908807h3.8826051c.0039809-.0064734.0072349-.0129468.0099004-.0194201l-2.4504316-2.1191073c-.1275636.0746687-.2689393.1119857-.423781.1119857-.0521678 0-.102397-.0048464-.1511031-.0145391l-1.0230354 1.7731807c.0692686.0824228.1214364.1718036.1558456.2679001zm4.0873645.8964734c-.0940197-.094054-.1621806-.1979739-.2047594-.3119673h-3.8922978c-.0333015.0873384-.0820076.1684111-.1461529.243599l4.5549013 7.8919229v-7.6189341c-.1139591-.042475-.2178793-.1108433-.3116912-.2046205zm-5.0420659.233664-1.0329013 1.7879622c.1332062.1581299.1998092.3417725.1998092.5503046 0 .1092509-.017897.2113707-.0536563.3069479l5.4123983 4.6816222-4.2333096-7.3317179c-.0483253.0096928-.0987968.0147122-.1511031.0147122-.0491215.0001039-.096339-.0033578-.1412372-.0098312zm4.8472069 8.3693937-6.1138073-5.2856523c-.1274944.0747379-.268697.1120203-.4239887.1120203-.0521332 0-.1023624-.0049503-.1508954-.014643l-2.8645199 4.9495569c.0670877.0795496.1174208.1655033.1509993.258242h9.3923116c.0039809-.0065772.0072349-.0130852.0099004-.0195239zm-6.3866929-6.8737019 1.027951-1.7879621c-.0669839-.0780265-.1174208-.1625263-.1511031-.2532572h-3.892367c-.002354.0063003-.005608.0127044-.0096928.0195586l2.4503278 2.1191418c.1274943-.0747378.2686969-.1120548.423781-.1120548.0519601 0 .1021893.0047079.1511031.0145737zm-.949959.535904-2.455278-2.1191073c-.0406057.0231934-.082873.0426134-.1266289.0584333v7.623919l2.7280944-4.7059578c-.1364601-.156953-.2045863-.3404571-.2045863-.5505124-.0000346-.1100124.0193855-.2124092.0583988-.3067748zm-3.47831338-2.2652598c-.09391585-.094054-.16204205-.1979739-.20458631-.3119673h-3.87772402c-.03444389.0923578-.08640396.1783116-.15594946.2582766l4.55005487 7.87728v-7.6189688c-.1139937-.042475-.21787924-.1108433-.31179508-.2046205z" fill="#fff"/></svg>