<svg width="32" height="32" viewBox="0 0 32 32" fill="none" xmlns="http://www.w3.org/2000/svg">
<path fill-rule="evenodd" clip-rule="evenodd" d="M16 0C24.8352 0 32 7.1648 32 16C32 24.8352 24.8352 32 16 32C7.1648 32 0 24.8352 0 16C0 7.1648 7.1648 0 16 0ZM22.144 11.104C22.073 11.1885 22.0286 11.3091 21.9867 11.4228C21.9097 11.632 21.8414 11.8177 21.632 11.712C21.632 11.712 19.3824 10.8512 20.768 8.31996C20.8525 8.18775 20.9377 8.08344 21.0183 7.98477C21.2946 7.6464 21.5166 7.37448 21.472 6.27197C21.5392 6.37408 21.6363 6.49618 21.7497 6.63881L21.7497 6.63883C22.2189 7.22925 22.9678 8.17148 23.04 9.50396C23.1091 10.355 22.7332 10.6375 22.4078 10.882C22.3111 10.9547 22.2188 11.024 22.144 11.104ZM20.3573 15.0382L20.352 15.04C19.3248 15.2416 17.2384 14.56 18.112 12.544C20.8 6.83838 14.848 3.13598 14.848 3.13598C14.848 3.13598 15.1936 5.36318 14.176 7.58398C13.4669 8.89054 12.3994 9.96563 11.3252 11.0474C9.50553 12.8799 7.66689 14.7316 7.52 17.76C7.2288 27.0432 16.576 28.224 16.576 28.224C17.088 26.9056 18.3488 26.0288 19.584 25.504C21.5616 24.6976 23.6608 23.632 24.224 21.44C25.3688 16.7945 23.5886 14.7334 22.4534 13.4192C22.2147 13.1428 22.0045 12.8994 21.856 12.672C21.8018 14.554 20.9113 14.8525 20.3573 15.0382Z" fill="white"/>
<path d="M11.168 16.704V19.808H14.464V23.104H17.568V19.808H20.864V16.704H11.168Z" fill="white"/>
</svg>
