<svg height="32" viewBox="0 0 32 32" width="32" xmlns="http://www.w3.org/2000/svg"><path d="m16 32c-8.836556 0-16-7.163444-16-16s7.163444-16 16-16 16 7.163444 16 16-7.163444 16-16 16zm-10-20.6135266v1.1501399c0 .2134434.17303005.3864735.38647343.3864735h5.31400967c.7729469 0 1.1594203.3525636 1.1594203 1.057691 0 .5128199-.3864734.8333323-1.1594203.9615373h-5.31400967c-.21344338 0-.38647343.17303-.38647343.3864734v1.1501277c0 .2134434.17303005.3864735.38647343.3864735h5.31400967c1.095008.0641024 1.6425121.4487174 1.6425121 1.1538447s-.5475041 1.057691-1.6425121 1.057691h-5.31400967c-.21344338 0-.38647343.1730301-.38647343.3864734v1.1501278c0 .2134434.17303005.3864734.38647343.3864734h5.31400967c1.5458937 0 3.8647343-.4807686 3.8647343-2.8846119 0-1.0256397-.4508857-1.7948696-1.352657-2.3076895.6441224-.5769223.9661836-1.2179472.9661836-1.9230745 0-1.6890755-1.4492754-2.8846119-3.768116-2.8846119-1.50573039 0-3.18041433-.0000041-5.02405182-.0000122v-.000101c-.21349919-.000001-.38657524.1730735-.38657618.3865727zm10.4347826.0000122v1.1501277c0 .2134434.1730301.3864735.3864734.3864735h2.8985508c.2134433 0 .3864734.17303.3864734.3864734v7.3039664c0 .2134434.17303.3864734.3864734.3864734h1.4492754c.2134434 0 .3864734-.17303.3864734-.3864734v-9.227041c0-.2134434-.17303-.3864734-.3864734-.3864734h-5.120773c-.2134433 0-.3864734.17303-.3864734.3864734zm7.2463768-.3864734c-.2134434 0-.3864734.17303-.3864734.3864734v1.1501277c0 .2134434.17303.3864735.3864734.3864735h1.9323672c.2134434 0 .3864734-.1730301.3864734-.3864735v-1.1501277c0-.2134434-.17303-.3864734-.3864734-.3864734z" fill="#fff"/></svg>