<svg width="32" height="32" viewBox="0 0 32 32" fill="none" xmlns="http://www.w3.org/2000/svg">
<path fill-rule="evenodd" clip-rule="evenodd" d="M32 16C32 24.8366 24.8366 32 16 32C7.16344 32 0 24.8366 0 16C0 7.16344 7.16344 0 16 0C24.8366 0 32 7.16344 32 16ZM2 16C2 17.1103 2.90343 18.0104 4.01787 18.0104C5.13231 18.0104 6.03574 17.1103 6.03574 16C6.03574 14.8897 5.13231 13.9896 4.01787 13.9896C2.90343 13.9896 2 14.8897 2 16ZM16.0639 30C17.1716 30 18.0696 29.1046 18.0696 28C18.0696 26.8954 17.1716 26 16.0639 26C14.9562 26 14.0583 25.1046 14.0583 24C14.0583 22.8954 13.1603 22 12.0527 22C10.945 22 10.047 21.1046 10.047 20C10.047 18.8954 10.945 18 12.0527 18C13.1603 18 14.0583 17.1046 14.0583 16C14.0583 14.8954 13.1603 14 12.0527 14C10.945 14 10.047 13.1046 10.047 12C10.047 10.8954 10.945 10 12.0527 10C13.1603 10 14.0583 9.10457 14.0583 8C14.0583 6.89543 14.9562 6 16.0639 6C17.1716 6 18.0696 5.10457 18.0696 4C18.0696 2.89543 17.1716 2 16.0639 2C14.9562 2 14.0583 2.89543 14.0583 4C14.0583 5.10457 13.1603 6 12.0527 6C10.945 6 10.047 6.89543 10.047 8C10.047 9.10457 9.14906 10 8.04138 10C6.93369 10 6.03574 10.8954 6.03574 12C6.03574 13.1046 6.93369 14 8.04138 14C9.14906 14 10.047 14.8954 10.047 16C10.047 17.1046 9.14906 18 8.04138 18C6.93369 18 6.03574 18.8954 6.03574 20C6.03574 21.1046 6.93369 22 8.04138 22C9.14906 22 10.047 22.8954 10.047 24C10.047 25.1046 10.945 26 12.0527 26C13.1603 26 14.0583 26.8954 14.0583 28C14.0583 29.1046 14.9562 30 16.0639 30ZM19.9565 26.1044C21.0659 26.1044 21.9652 25.2105 21.9652 24.1079C21.9652 23.0052 21.0659 22.1113 19.9565 22.1113C18.8472 22.1113 17.9478 21.2175 17.9478 20.1148C17.9478 19.0122 18.8472 18.1183 19.9565 18.1183C21.0659 18.1183 21.9652 17.2244 21.9652 16.1218C21.9652 15.0191 21.0659 14.1252 19.9565 14.1252C18.8472 14.1252 17.9478 13.2314 17.9478 12.1287C17.9478 11.0261 18.8472 10.1322 19.9565 10.1322C21.0659 10.1322 21.9652 9.23833 21.9652 8.13568C21.9652 7.03303 21.0659 6.13916 19.9565 6.13916C18.8472 6.13916 17.9478 7.03303 17.9478 8.13568C17.9478 9.23833 17.0485 10.1322 15.9391 10.1322C14.8298 10.1322 13.9304 11.0261 13.9304 12.1287C13.9304 13.2314 14.8298 14.1252 15.9391 14.1252C17.0485 14.1252 17.9478 15.0191 17.9478 16.1218C17.9478 17.2244 17.0485 18.1183 15.9391 18.1183C14.8298 18.1183 13.9304 19.0122 13.9304 20.1148C13.9304 21.2175 14.8298 22.1113 15.9391 22.1113C17.0485 22.1113 17.9478 23.0052 17.9478 24.1079C17.9478 25.2105 18.8472 26.1044 19.9565 26.1044ZM21.9652 11.8018C21.9652 12.9122 22.8645 13.8123 23.9739 13.8123C25.0833 13.8123 25.9826 14.7125 25.9826 15.8229C25.9826 16.9333 26.8819 17.8334 27.9913 17.8334C29.1007 17.8334 30 16.9333 30 15.8229C30 14.7125 29.1007 13.8123 27.9913 13.8123C26.8819 13.8123 25.9826 12.9122 25.9826 11.8018C25.9826 10.6914 25.0833 9.79126 23.9739 9.79126C22.8645 9.79126 21.9652 10.6914 21.9652 11.8018ZM21.9652 19.9362C21.9652 21.0568 22.8728 21.9652 23.9923 21.9652C25.1119 21.9652 26.0195 21.0568 26.0195 19.9362C26.0195 18.8156 25.1119 17.9072 23.9923 17.9072C22.8728 17.9072 21.9652 18.8156 21.9652 19.9362Z" fill="white"/>
</svg>
