<svg width="32" height="32" viewBox="0 0 32 32" fill="none" xmlns="http://www.w3.org/2000/svg">
<path fill-rule="evenodd" clip-rule="evenodd" d="M32 16C32 24.8366 24.8366 32 16 32C7.16344 32 0 24.8366 0 16C0 7.16344 7.16344 0 16 0C24.8366 0 32 7.16344 32 16ZM12.9647 3.8153L10 3V29L11.7425 28.9121L12.116 28.8868C12.1784 28.8821 12.2409 28.877 12.3036 28.8716L12.6802 28.8358C12.7431 28.8292 12.8061 28.8223 12.8691 28.8151L13.248 28.7679L13.6279 28.7128L14.0084 28.6494L14.3891 28.5774L14.7697 28.4964C14.8964 28.4679 15.0231 28.4379 15.1496 28.4062L15.5286 28.3064L15.9062 28.1968C20.3018 26.8582 24.3358 23.4314 25.174 15.5988C25.2249 15.1229 25.2763 14.6298 25.2896 14.1203C25.2902 14.0975 25.2907 14.0721 25.2912 14.0443L25.2936 13.2605L25.2896 12.5705L15.8896 9.98542V13.0455L22.2737 14.8012C21.7318 21.4839 18.7341 25.0464 12.9647 25.8338V3.8153ZM22.9814 6.67543L15.8893 4.725V7.7858L22.1911 9.51785L22.9814 6.67543Z" fill="white"/>
</svg>
