<svg width="32" height="32" viewBox="0 0 32 32" fill="none" xmlns="http://www.w3.org/2000/svg">
<path fill-rule="evenodd" clip-rule="evenodd" d="M16 32C24.8365 32 32 24.8365 32 16C32 7.1635 24.8365 0 16 0C7.1635 0 0 7.1635 0 16C0 24.8365 7.1635 32 16 32ZM26.008 9.17366C26.008 11.7412 25.0503 14.1401 23.3013 16.0001C25.05 17.8605 26.0077 20.2591 26.0074 22.8266C26.0074 23.4995 25.9318 24.195 25.7828 24.8938L25.6278 25.6198L24.9019 25.775C24.2031 25.9243 23.5073 26 22.8341 26C20.2651 26 17.8647 25.041 16.0037 23.2897C15.9952 23.2977 15.968 23.3226 15.9377 23.3504C15.9015 23.3835 15.8609 23.4208 15.8419 23.4384C14.0048 25.0947 11.6691 25.9997 9.17366 25.9997C8.49899 25.9997 7.80317 25.924 7.10557 25.775L6.37965 25.6198L6.22469 24.8938C6.07569 24.1959 6 23.5001 6 22.8263C6 20.2588 6.95776 17.8599 8.7067 15.9999H8.707C6.95806 14.1398 6.0003 11.7412 6.0003 9.17336C6.0003 8.50048 6.07599 7.80496 6.22499 7.10616L6.37994 6.38024L7.10616 6.22499C7.80496 6.07569 8.50078 6 9.17395 6C11.743 6 14.1433 6.95895 16.0043 8.71027C16.0119 8.70316 16.0342 8.68281 16.0603 8.65894C16.0986 8.62383 16.1454 8.58109 16.1661 8.56157C18.0033 6.90531 20.339 6.0003 22.8344 6.0003C23.509 6.0003 24.2049 6.07599 24.9025 6.22499L25.6284 6.38024L25.7834 7.10616C25.9324 7.80407 26.008 8.49989 26.008 9.17366ZM23.6673 23.6595C23.7004 23.3773 23.7167 23.0987 23.7167 22.8266C23.7167 20.6787 22.8472 18.6815 21.2681 17.2026L20.0642 15.9999L21.2681 14.7971C22.8472 13.3185 23.7167 11.3213 23.7167 9.17336C23.7167 8.90069 23.7004 8.62236 23.6676 8.34016C23.3854 8.30738 23.107 8.29099 22.8344 8.29099C20.8846 8.29099 19.06 9.00976 17.6338 10.3233C16.6021 11.3222 15.8711 12.5619 15.5213 13.9207L13.3024 13.3498C13.5634 12.3348 13.9911 11.3747 14.5555 10.4935C13.1039 9.07085 11.2069 8.2907 9.17366 8.2907C8.90129 8.2907 8.62296 8.30738 8.34076 8.34016C8.30768 8.62236 8.29129 8.90099 8.29129 9.17306C8.29129 11.3213 9.16084 13.3185 10.7399 14.7971L11.9438 15.9999L10.7399 17.2026C9.16084 18.6812 8.29129 20.6784 8.29129 22.8263C8.29129 23.099 8.30768 23.3773 8.34046 23.6595C8.62266 23.6923 8.90099 23.7087 9.17366 23.7087C11.1234 23.7087 12.9481 22.9899 14.3743 21.6764C15.4059 20.6775 16.1369 19.4378 16.4868 18.079L18.7057 18.6499C18.4446 19.6649 18.017 20.625 17.4526 21.5062C18.9041 22.9289 20.8012 23.709 22.8344 23.709C23.1068 23.709 23.3851 23.6923 23.6673 23.6595Z" fill="white"/>
</svg>
