<svg width="32" height="32" viewBox="0 0 32 32" fill="none" xmlns="http://www.w3.org/2000/svg">
<g clip-path="url(#clip0)">
<path opacity="0.98" fill-rule="evenodd" clip-rule="evenodd" d="M16 32C12.8355 32 9.74207 31.0616 7.11088 29.3035C4.4797 27.5454 2.42894 25.0466 1.21793 22.1229C0.00693251 19.1993 -0.309921 15.9823 0.307443 12.8786C0.924806 9.77487 2.44866 6.92394 4.6863 4.6863C6.92394 2.44866 9.77487 0.924806 12.8786 0.307443C15.9823 -0.309921 19.1993 0.00693251 22.1229 1.21793C25.0466 2.42894 27.5454 4.4797 29.3035 7.11088C31.0616 9.74207 32 12.8355 32 16C32 20.2435 30.3143 24.3131 27.3137 27.3137C24.3131 30.3143 20.2435 32 16 32ZM26.7965 25.2831H26.7392L12.8958 26.1197V25.5238H12.9874L26.7392 24.6987C26.7689 24.6882 26.8012 24.6882 26.8309 24.6987L26.7965 25.2831ZM26.7277 24.1143V23.5184H26.6704L12.9186 24.3549H12.8155V24.9509C12.8452 24.9613 12.8775 24.9613 12.9072 24.9509L26.659 24.1143H26.7277ZM26.7163 22.9109H26.659L12.8041 23.7475V23.1516L18.2933 22.8307H18.4309L26.6246 22.338H26.7163V22.9109ZM19.2102 19.2095L18.2017 19.2782V19.8741C18.2143 19.8854 18.2306 19.8916 18.2476 19.8916C18.2645 19.8916 18.2808 19.8854 18.2934 19.8741L21.253 19.6884C22.0085 19.9054 22.6506 20.0691 23.0976 20.1705L18.2933 20.4586V21.043L24.9515 20.642L26.6246 20.5388L26.5903 19.9658H26.5101C26.5925 19.8313 26.6688 19.6713 26.7403 19.482C27.5194 16.8373 27.3656 14.0051 26.3048 11.4602C25.6538 9.9068 24.6067 8.55144 23.268 7.52943C21.6292 6.52096 16.541 7.95344 14.0657 9.27132C11.5904 10.5892 10.1121 12.6291 12.0259 15.1731C13.2548 16.8068 16.7519 18.2514 19.6133 19.1854L19.2102 19.2095ZM18.2933 22.2348V21.6389H18.385L26.5673 21.1347H26.659V21.7306L18.4538 22.2234C18.4538 22.2234 18.2933 22.2578 18.2933 22.2348ZM6.23853 11.1049C6.23853 11.1049 8.41589 7.10538 11.3267 6.17713C14.2375 5.24888 13.8249 8.15968 11.3267 9.34004C8.82845 10.5204 7.25845 11.1965 6.23853 11.1049ZM11.6475 26.0027C2.47965 21.7281 5.82592 12.3425 5.82592 12.3425C6.36971 13.1137 6.96305 13.8487 7.6022 14.5428C8.94209 16.195 10.1023 17.9852 11.0631 19.8831C12.358 22.2553 11.6475 26.0027 11.6475 26.0027ZM17.4154 19.3499L12.9188 19.5729V22.3228L17.4154 22.0627V19.3499Z" fill="white"/>
</g>
<defs>
<clipPath id="clip0">
<rect width="32" height="32" fill="white"/>
</clipPath>
</defs>
</svg>
