<svg height="32" viewBox="0 0 32 32" width="32" xmlns="http://www.w3.org/2000/svg"><path d="m16 32c-8.836556 0-16-7.163444-16-16s7.163444-16 16-16 16 7.163444 16 16-7.163444 16-16 16zm11.897561-17.4731707c-.2829269-2.3170732-1.2634147-4.54146345-2.7804878-6.31219515-1.0585366-1.25365854-2.3902439-2.27317074-3.8634147-2.99024391-1.9756097-.9707317-4.2195122-1.3707317-6.4097561-1.15609756-2.5658536.24390244-5.0439024 1.34146342-6.94146338 3.09268293-1.11219512 1.0097561-2.02439024 2.24390244-2.68292682 3.59512199-1.06829269 2.1853658-1.44390244 4.702439-1.06341464 7.102439.35609756 2.297561 1.4 4.4829268 2.97073171 6.2 2.24390244 2.502439 5.59024393 3.9658536 8.95121953 3.9268293 2.604878-.0097561 5.1951219-.9024391 7.2536585-2.5024391 1.4585366-1.1219512 2.6439025-2.5853658 3.4487805-4.2390244 1.0097561-2.0634146 1.4048781-4.4292683 1.1170732-6.7170731zm-3.6536586-2.5902439c-.0536585.0780487-.102439.1560975-.1414634.2439024-1.7609756 3.7073171-3.5170731 7.4097561-5.2780488 11.1170732-.2536585.5317073-.507317 1.0682927-.7951219 1.5804878-1.3073171-.0097561-2.6146342-.0048781-3.9219512-.0048781-2.0829269-4.2878048-4.15609759-8.5804878-6.24390247-12.8634146-.04390243-.0829268-.08780487-.1707317-.13170731-.2536585.03414634-.0243903.11219512-.0682927.14634146-.0878049.81463415-1.0146342 1.63902439-2.02439026 2.45853662-3.03902441.102439-.13170731.2195122-.25853658.3365853-.37560975.0536586.08780487.1073171.17560975.1512195.27317073.4536586 1.04390244.9170732 2.09268293 1.3804878 3.13658533.4682927 0 .9365854.0097561 1.4097561-.0195122.1707318.1609756.2634147.3756098.3317074.595122.0878048-.2243903.1219512-.4634146.1317073-.7073171.1512195-1.4.1756097-2.81463413.3268292-4.21463413.0243903-.30243902.4780488-.30243902.5170732-.0097561.1463415 1.32682927.1804878 2.66829269.2878049 4.00000003.0195122.4.0341463.8.1219512 1.1902439.2-.2634147.1365854-.7268293.502439-.8341464.3024391-.102439.6439025.0682927.9317074-.1121951.3951219-.2390244.5414634-.7073171.7902439-1.0731707.1414634-.2390244.4682926-.4097561.7317073-.2731708.2634146.1024391.3756097.3853659.5121951.6097561.1560976.2585366.297561.5463415.5512195.7170732.2243903.097561.4780488.1121951.7219512.1073171.492683-1.1121951 1-2.2195122 1.5024391-3.32682928.8780487 1.10243903 1.707317 2.23902438 2.5853658 3.34146338.1317073.0585366.1560976.1560976.0829268.2829269zm-6.1707317-1.395122c-.3951219.4292683-.5365853 1.1219512-1.1268292 1.3414634-.3024391.1463415-.6682927.0243903-.9707317.1365854-.2634147.5170732-.2292683 1.1268293-.4292683 1.6634146-.1365854.2536586-.5463415.1268293-.5463415-.1512195-.1707317-1.4585366-.1853659-2.9317073-.3414634-4.39024389-.1658537 1.31219509-.2097561 2.63902439-.4146342 3.94146339 0 .3365854-.5317073.3902439-.5804878.0536586-.102439-.3804878-.1268292-.7804878-.3170731-1.1365854-.3317074-.004878-.6634147-.004878-.9902439 0 1.2439024 2.8195122 2.4780487 5.6390244 3.7219512 8.4585366 1.2585366-2.8195122 2.5609756-5.6195122 3.8097561-8.4439025l.004878-.0097561c-.3268292-.0390243-.6829268-.0731707-.9560975-.2780487-.3804878-.3170732-.5268293-.8243903-.8634147-1.1853659z" fill="#fff"/></svg>