<svg width="32" height="32" viewBox="0 0 32 32" xmlns="http://www.w3.org/2000/svg"><path d="M16 0c8.837 0 16 7.163 16 16s-7.163 16-16 16S0 24.837 0 16 7.163 0 16 0zm-.075 5C9.892 5 5 9.892 5 15.925c0 6.034 4.89 10.926 10.924 10.927a10.926 10.926 0 0010.928-10.928C26.851 9.89 21.959 5 15.925 5zm-.001.852A10.068 10.068 0 0126 15.924c-.002 5.559-4.51 10.064-10.068 10.064-5.559 0-10.066-4.505-10.068-10.064-.002-5.559 4.501-10.068 10.06-10.072zm5.732 16.358a8.494 8.494 0 01-11.464 0l-.6.6.222.198a9.352 9.352 0 0012.456-.198zM9.038 9.598a9.352 9.352 0 000 12.678l.6-.62-.19-.214a8.494 8.494 0 01.19-11.244zm13.78-.026v.014l-.6.6.19.214a8.494 8.494 0 01-.19 11.25l.6.6.198-.222a9.352 9.352 0 00-.198-12.456zm-7.57.828H14.2v1.736h-2.142v1.13h.022c.126-.003.757-.013.746 0a.546.546 0 01.6.464v4.752l-.012.073a.37.37 0 01-.116.185.366.366 0 01-.272.092c.014.012-.768 0-.768 0l-.2 1.262h2.122v1.764h1.056V20.12h.844v1.73h1.058v-1.744l.196-.013c1.679-.13 2.838-.597 2.988-2.205.126-1.344-.506-1.944-1.516-2.186.614-.302.994-.862.908-1.778-.12-1.252-1.2-1.672-2.566-1.8V10.4h-1.056v1.692h-.844V10.4zm.104 6.113c.792-.01 2.882-.154 2.882 1.167 0 1.312-2.248 1.162-2.964 1.162v-2.328zm-.006-3.176c.664-.011 2.398-.139 2.398 1.063 0 1.2-1.876 1.054-2.472 1.054v-2.116zm6.696-4.497a9.352 9.352 0 00-12.456.198l.614.6.214-.19a8.494 8.494 0 0111.25.19l.6-.6z" fill="#FFF" fill-rule="evenodd"/></svg>