<svg width="32" height="32" viewBox="0 0 32 32" fill="none" xmlns="http://www.w3.org/2000/svg">
<path fill-rule="evenodd" clip-rule="evenodd" d="M32 16C32 24.8366 24.8366 32 16 32C7.16344 32 0 24.8366 0 16C0 7.16344 7.16344 0 16 0C24.8366 0 32 7.16344 32 16ZM15.998 5.85778C10.3999 5.86119 5.86441 10.4019 5.86784 16C5.87126 21.5981 10.412 26.1336 16.0101 26.1302C21.6043 26.1269 26.138 21.592 26.1402 15.998C26.1336 10.4007 21.5952 5.86601 15.998 5.86383V5.85778ZM15.998 27C9.92292 26.999 4.99879 22.0733 5 15.998C5.00121 9.9227 9.92695 4.99877 16.002 5C22.0757 5.00123 26.999 9.92434 27 15.998C26.9934 22.0714 22.0714 26.9934 15.998 27ZM10.2332 9.66942C13.5004 6.68173 18.5077 6.68173 21.7749 9.66942L22.3789 9.06537C18.7739 5.74042 13.2201 5.74042 9.61507 9.06537L10.2332 9.66942ZM22.9387 9.61704L22.3347 10.2211C25.3222 13.4883 25.3222 18.4956 22.3347 21.7627L22.9387 22.3668C26.2637 18.7619 26.2637 13.208 22.9387 9.60294V9.61704ZM9.66947 10.2332C6.6856 13.4996 6.6856 18.5024 9.66947 21.7688L9.06541 22.393C5.74044 18.788 5.74044 13.2342 9.06541 9.62913L9.66947 10.2332ZM21.7688 22.3265C18.5017 25.3142 13.4944 25.3142 10.2272 22.3265L9.62312 22.9305C13.2282 26.2555 18.7819 26.2555 22.387 22.9305L21.7688 22.3265ZM15.5226 15.5251C16.252 15.5381 17.8303 15.5661 17.8303 14.4617C17.8303 13.3313 16.3015 13.371 15.5579 13.3904C15.4749 13.3926 15.4018 13.3945 15.3416 13.3945V15.5228C15.3931 15.5228 15.4541 15.5239 15.5226 15.5251ZM15.5458 18.9379C16.4163 18.9507 18.3237 18.9785 18.3237 17.7659C18.3237 16.5279 16.5002 16.5682 15.6055 16.588H15.6054C15.5034 16.5902 15.4134 16.5922 15.3396 16.592V18.9358C15.3695 18.9358 15.4021 18.9361 15.4372 18.9365L15.5458 18.9379ZM17.2303 12.1723C18.6055 12.3012 19.6929 12.724 19.8137 13.9845C19.9063 14.9067 19.5177 15.4604 18.8995 15.7745C19.9164 16.0181 20.5526 16.6222 20.4258 17.9753C20.2687 19.6566 19.0163 20.0996 17.2202 20.2083V21.9641H16.1551V20.2224H15.3053V21.9722H14.2422V20.1963H13.4811H12.0958L12.3072 18.9257C12.3072 18.9257 13.0945 18.9378 13.0804 18.9257L13.0818 18.9259L13.084 18.9259C13.2916 18.9386 13.4702 18.7809 13.4831 18.5733V13.7871C13.4404 13.4942 13.1734 13.2876 12.879 13.32C12.8911 13.3059 12.1058 13.32 12.1058 13.32V12.1823H13.5838H14.2603V10.4346H15.3174V12.1481C15.6013 12.138 15.8873 12.138 16.1671 12.138V10.4346H17.2303V12.1723Z" fill="white"/>
</svg>
