<svg height="32" viewBox="0 0 32 32" width="32" xmlns="http://www.w3.org/2000/svg"><g fill="#fff" fill-rule="evenodd"><path d="m16.8950067 17.2989845-8.6252067 6.6939113 13.7299952-5.8753906.7966048-.3376338-.0015147-.0026041 1.2855147-.5501022.0649-3.264479 1.8547.5133288-1.4137-3.1461435-3.8180791 2.9631618-2.7189209-4.67435932-12.0493-.61867388 9.1829 2.4610961.2330376.7946045-8.0279376-.4123988 7.2242 1.9349797 1.2468565 4.3246906zm-.8950067 14.7010155c-8.836556 0-16-7.163444-16-16s7.163444-16 16-16 16 7.163444 16 16-7.163444 16-16 16z"/><g fill-rule="nonzero" transform="translate(7 11)"><path d="m9.895 6.299-1.036.804-1.247-4.325-7.224-1.935 8.028.413z" fill-opacity=".7"/><path d="m9.89500674 6.29898454.77789326 2.6524363 4.3268952-1.83391561-13.7299952 5.87539057zm3.87321416-3.00595138 3.8180791-2.96316171 1.4137 3.14614343-1.8547-.51332882-.0649 3.26447903-1.2855147.55010224z" fill-opacity=".3"/></g></g></svg>