<svg height="32" viewBox="0 0 32 32" width="32" xmlns="http://www.w3.org/2000/svg"><path d="m16 32c-8.836556 0-16-7.163444-16-16s7.163444-16 16-16 16 7.163444 16 16-7.163444 16-16 16zm9.9916006-17.5288689.0083994-.0020823-3.8263798-6.46179944.0022398-.00724936h-12.25404668l.00215985.00848329-.00215985-.0022365-3.92181332 6.55673521.03871737.0061697-.03199783.0127249 10.09099386 11.4181234.425571-.5193316zm-13.1360668.4584833 6.4235632-.0106427 2.1214558 3.63509-5.3629954 6.1619537-5.352436-6.112365zm-2.7778911 2.9804113-2.60206304-2.9715424 4.36162344-.0071722zm9.7231788-3.8460154-3.0377934-5.2051157 4.882708-.01056555 3.1097085 5.20727505zm4.7711956.8460154-2.5604659 2.9416967-1.7126835-2.9346787zm-5.7910462-.8443959-5.4204314.008946 2.7291744-4.62015421zm-8.3986289-5.19316193 5.0402173-.0107198-3.0803506 5.21452443-5.05965591.0085604z" fill="#fff" fill-rule="evenodd"/></svg>