<?xml version="1.0" encoding="UTF-8"?>
<svg width="32px" height="32px" viewBox="0 0 32 32" version="1.1" xmlns="http://www.w3.org/2000/svg" xmlns:xlink="http://www.w3.org/1999/xlink">
    <!-- Generator: Sketch 52.1 (67048) - http://www.bohemiancoding.com/sketch -->
    <title>svg/white/xmcc</title>
    <desc>Created with Sketch.</desc>
    <g id="white/xmcc" stroke="none" stroke-width="1" fill="none" fill-rule="evenodd">
        <g id="Polis-(POLIS)" transform="translate(6.000000, 6.000000)"></g>
        <path d="M16,32 C7.163444,32 0,24.836556 0,16 C0,7.163444 7.163444,0 16,0 C24.836556,0 32,7.163444 32,16 C32,24.836556 24.836556,32 16,32 Z M22.6816,7 L17.5216,7 L15.988,9.652 L14.4592,7 L9.2968,7 L4,16.1752 L9.1288,25.0552 L12.6064,19.036 L16,24.8968 L19.384,19.036 L22.8688,25.096 L28,16.216 L22.6816,7 Z M9.1216,21.544 L6.0208,16.1776 L8.488,11.9056 L11.5888,17.2768 L9.1216,21.5488 L9.1216,21.544 Z M9.5056,10.1416 L10.324,8.7208 L13.4152,8.7208 L14.9704,11.4136 L12.6064,15.5128 L9.5056,10.1416 Z M15.9856,21.3736 L13.624,17.272 L15.988,13.1752 L17.044,14.9992 L18.3544,17.272 L15.988,21.3688 L15.9856,21.3736 Z M17.0032,11.4136 L18.5608,8.7208 L21.652,8.7208 L22.48,10.1416 L19.36,15.5128 L17.0032,11.4136 Z M24.9712,17.9512 L22.8784,21.5824 L20.3896,17.2624 L23.4904,11.9032 L24.3256,13.3432 L25.9792,16.2064 L24.9712,17.9512 Z" id="Combined-Shape" fill="#FFFFFF" fill-rule="nonzero"></path>
        <g id="Monoeci-(XMCC)" transform="translate(4.000000, 7.000000)"></g>
    </g>
</svg>