<svg height="32" viewBox="0 0 32 32" width="32" xmlns="http://www.w3.org/2000/svg"><path d="m16 32c-8.836556 0-16-7.163444-16-16s7.163444-16 16-16 16 7.163444 16 16-7.163444 16-16 16zm12-16c0-2.68125-.88125-5.15625-2.38125-7.153125l-1.959375 1.959375c1.03125 1.528125 1.59375 3.328125 1.59375 5.19375 0 5.109375-4.153125 9.2625-9.2625 9.2625s-9.2625-4.153125-9.2625-9.2625c0-1.85625.553125-3.665625 1.59375-5.19375l-1.959375-1.959375c-1.48125 1.996875-2.3625 4.471875-2.3625 7.153125 0 6.628125 5.371875 12 12 12s12-5.371875 12-12zm-5.3625 0c0-1.153125-.3-2.2875-.871875-3.290625l-5.765625 5.765625-5.765625-5.765625c-.571875 1.003125-.871875 2.1375-.871875 3.290625 0 3.665625 2.98125 6.6375 6.6375 6.6375s6.6375-2.971875 6.6375-6.6375zm1.209375-9.075c-2.109375-1.828125-4.846875-2.925-7.846875-2.925s-5.746875 1.096875-7.846875 2.925l1.865625 1.865625 5.98125 5.971875z" fill="#fff"/></svg>