<svg xmlns="http://www.w3.org/2000/svg" width="32" height="32" viewBox="0 0 32 32"><path fill="#FFF" fill-rule="evenodd" d="M16,32 C7.163444,32 0,24.836556 0,16 C0,7.163444 7.163444,0 16,0 C24.836556,0 32,7.163444 32,16 C32,24.836556 24.836556,32 16,32 Z M25.574504,12.8463471 L17.4653767,10.5215605 L14.6910159,15.2472518 L11.4694952,11.509649 L12.9288266,11.3219585 L14.4341524,13.0896067 L16.1042059,10.1311295 L8.75332546,8.02369923 C8.31792128,7.8988134 7.90911451,8.28736316 8.0177084,8.72323351 L11.2740556,21.800357 L14.771396,15.9117659 L17.9932106,19.6492239 L16.5337322,19.8369144 L15.0285533,18.0692663 L11.7190113,23.5855152 L12.2096676,25.5561933 C12.3181145,25.9917742 12.8625535,26.1480624 13.1893637,25.8369332 L25.818877,13.8266212 C26.1456873,13.5159261 26.0099082,12.9710882 25.574651,12.8463471 L25.574504,12.8463471 Z"/></svg>