<svg width="32" height="32" viewBox="0 0 32 32" xmlns="http://www.w3.org/2000/svg"><path d="M16 0c8.837 0 16 7.163 16 16s-7.163 16-16 16S0 24.837 0 16 7.163 0 16 0zm-.008 5c-1.974 0-3.56 3.076-4.096 7.56-.024.203-.047.414-.067.627l-.025.32c-.402.29-.784.584-1.146.878l-.356.296c-.16.136-.316.272-.468.41l-.223.21c-1.657-1.749-2.398-3.328-2.029-4.19l.048-.097c.398-.711 1.692-.936 3.52-.603l.252.049c.052-.233.103-.46.16-.68l.087-.326c-2.288-.477-4.053-.19-4.792.918l-.08.132a2.103 2.103 0 00-.268.88l-.007.191v.037c.013 1.668 1.545 3.88 4.12 5.992l.28.226c.187.15.385.301.588.452l.307.226c.042.53.1 1.044.171 1.535l.076.484.075.42.08.41c-2.288.612-3.975.485-4.519-.273l-.057-.09c-.398-.712.062-1.99 1.25-3.459l.167-.201-.684-.744c-1.562 1.826-2.22 3.563-1.657 4.783l.07.138c.452.81 1.397 1.219 2.67 1.264l.243.004c1.31 0 2.932-.362 4.713-1.068l.384-.156.075-.033.08-.033c.226-.097.452-.198.68-.303l.343-.163.021-.011.021-.011c.46.218.916.42 1.368.603l.451.177.39.144.386.133c-.632 2.358-1.583 3.811-2.49 3.915l-.105.006c-.796 0-1.637-1.053-2.27-2.867l-.085-.252c-.216.077-.43.149-.641.213l-.318.093C13.461 25.542 14.638 27 16 27c1.934 0 3.485-2.931 4.063-7.242l.04-.317.05-.468.042-.473c.418-.3.816-.61 1.194-.923l.372-.316.042-.034.042-.039.27-.241.266-.247c1.664 1.74 2.405 3.326 2.036 4.19l-.048.096c-.369.66-1.544.903-3.166.666l-.246-.039-.176-.033-.177-.033c-.051.229-.103.45-.159.668l-.087.324.22.043.217.037c.445.076.864.124 1.255.14l.289.006c1.334 0 2.305-.381 2.803-1.119l.088-.142c.594-1.062.205-2.586-1.101-4.302l-.176-.225c-.664-.836-1.506-1.678-2.478-2.49l-.37-.302-.442-.345-.453-.34a22.936 22.936 0 00-.175-1.539l-.08-.488-.074-.42-.08-.41c.267-.074.53-.137.785-.19l.378-.073c1.665-.285 2.902-.087 3.351.53l.062.097c.39.697-.05 1.948-1.2 3.388l-.161.198c.164.165.32.33.467.494l.217.242.132-.156.121-.157c1.379-1.733 1.857-3.284 1.349-4.386l-.072-.14c-.596-1.065-2.069-1.477-4.163-1.166l-.265.042c-.907.154-1.89.435-2.91.816l-.44.169-.07.029-.07.029c-.264.107-.527.22-.79.34l-.395.185-.053.025-.053.026a25.439 25.439 0 00-1.378-.617l-.448-.178-.39-.144-.385-.133c.631-2.351 1.583-3.804 2.49-3.908l.104-.006c.796 0 1.644 1.06 2.277 2.875l.085.252.482-.159.477-.147c-.767-2.268-1.887-3.71-3.19-3.814L15.991 5zm3.124 14.251c-.029.219-.057.438-.087.65l-.047.312-.079.44-.084.428c-.253-.095-.514-.19-.782-.292l-.445-.177-.45-.187.063-.033.063-.033.435-.245.44-.25.126-.077.12-.077.366-.23.36-.229zm-6.247-.007l.456.29.467.286.025.017.025.012.498.29.503.278-.004.001-.003.007c-.235.102-.467.197-.696.289l-.34.134-.149.058-.243.086-.243.082a19.95 19.95 0 01-.254-1.49l-.042-.34zm3.123-7.115c.407.203.818.425 1.237.666l.42.245.354.215.344.216c.207.13.407.262.604.395l.292.202c.031.465.051.946.059 1.44l.004.5-.005.519-.016.508-.022.458-.028.453c-.333.234-.68.464-1.038.69l-.548.338-.219.13-.218.125c-.25.146-.498.282-.745.413l-.37.192-.052.026-.053.025a26.663 26.663 0 01-1.657-.91l-.354-.213-.344-.218a23.061 23.061 0 01-.604-.396l-.291-.202a27.7 27.7 0 01-.06-1.44l-.004-.499.006-.52.015-.508.022-.46.028-.45c.333-.234.68-.464 1.039-.69l.547-.339.321-.19.32-.181.508-.276.508-.264zm0 2.566l-.13.007c-.637.067-1.139.629-1.139 1.305l.007.134c.065.66.608 1.178 1.262 1.178l.13-.006c.637-.068 1.14-.63 1.14-1.306l-.007-.133c-.066-.66-.608-1.179-1.263-1.179zm4.28.139c.202.155.398.314.588.472l.28.235.262.233.252.233-.28.255-.291.256-.043.036-.042.036c-.155.132-.316.266-.482.4l-.251.198c.014-.291.028-.59.028-.89v-.29c0-.268-.003-.529-.01-.787l-.011-.387zm-8.553 0l-.016.442-.005.447v.284c0 .268.003.528.01.787l.011.387a15.148 15.148 0 01-.867-.707l-.266-.233-.256-.234c.155-.14.314-.285.477-.428l.25-.213c.14-.117.285-.237.434-.355l.228-.177zm7.108-3.893l.08.406.075.418c.037.218.069.44.098.666l.043.34a40.064 40.064 0 00-.924-.583l-.025-.018-.024-.012-.5-.29-.494-.278.042-.021.042-.016c.268-.116.536-.226.8-.328l.392-.145.2-.072.195-.067zm-5.662 0c.174.058.348.117.524.181l.265.103c.193.073.389.153.588.236l.3.129-.5.279-.5.29-.022.011-.02.018-.471.288-.46.295a19.308 19.308 0 01.237-1.55l.059-.28z" fill="#FFF" fill-rule="evenodd"/></svg>