<svg height="32" viewBox="0 0 32 32" width="32" xmlns="http://www.w3.org/2000/svg"><path d="m16 32c-8.836556 0-16-7.163444-16-16s7.163444-16 16-16 16 7.163444 16 16-7.163444 16-16 16zm7.0703125-24-4.5742187 4.5234375c-1.3789063 1.3671875-3.6171876 1.3671875-4.9960938 0l-4.5703125-4.5234375h-2.89453125l6.01953125 5.9570312c2.1796875 2.15625 5.7109375 2.15625 7.890625 0l6.015625-5.9570312zm-14.17578125 16.5625 4.60937495-4.5625c1.3789063-1.3671875 3.6171876-1.3671875 4.9960938 0l4.6054688 4.5625h2.8945312l-6.0546875-5.9921875c-2.1796875-2.15625-5.7109375-2.15625-7.890625 0l-6.0546875 5.9921875z" fill="#fff"/></svg>