<svg width="32" height="32" viewBox="0 0 32 32" version="1.1" xmlns="http://www.w3.org/2000/svg" xmlns:xlink="http://www.w3.org/1999/xlink"><title>white/xrp</title><desc>Created with Sketch.</desc><g id="white/xrp" stroke="none" stroke-width="1" fill="none" fill-rule="evenodd"><path d="M16,32 C7.163444,32 0,24.836556 0,16 C0,7.163444 7.163444,0 16,0 C24.836556,0 32,7.163444 32,16 C32,24.836556 24.836556,32 16,32 Z M23.0703125,8 L18.4960938,12.5234375 C17.1171875,13.890625 14.8789062,13.890625 13.5,12.5234375 L8.9296875,8 L6.03515625,8 L12.0546875,13.9570312 C14.234375,16.1132812 17.765625,16.1132812 19.9453125,13.9570312 L25.9609375,8 L23.0703125,8 Z M8.89453125,24.5625 L13.5039062,20 C14.8828125,18.6328125 17.1210938,18.6328125 18.5,20 L23.1054688,24.5625 L26,24.5625 L19.9453125,18.5703125 C17.765625,16.4140625 14.234375,16.4140625 12.0546875,18.5703125 L6,24.5625 L8.89453125,24.5625 Z" id="Combined-Shape" fill="#FFF" fill-rule="nonzero"/></g></svg>