<svg width="32" height="32" viewBox="0 0 32 32" fill="none" xmlns="http://www.w3.org/2000/svg">
<path fill-rule="evenodd" clip-rule="evenodd" d="M16 0C10.8032 0 6.1952 2.4832 3.2768 6.2976C1.2288 8.9856 0 12.3648 0 16C0 24.832 7.168 32 16 32C21.1968 32 25.8048 29.5168 28.7232 25.7024C30.7712 23.0144 32 19.6608 32 16C32 7.168 24.832 0 16 0ZM14.848 20.4288C14.3104 20.4288 14.0288 20.608 14.0288 20.9664C14.0288 21.12 14.1056 21.248 14.2336 21.3248C14.3104 21.376 14.4128 21.4272 14.5664 21.4784C14.6128 21.4939 14.6639 21.5117 14.7196 21.5311L14.72 21.5313L14.72 21.5313L14.7201 21.5313C14.8488 21.5762 15.0024 21.6297 15.1808 21.6832C15.4368 21.76 15.6416 21.8368 15.7952 21.9392C15.9744 22.016 16.1024 22.1184 16.2048 22.2208C16.3072 22.3232 16.384 22.4512 16.4352 22.6048C16.4864 22.7584 16.512 22.9376 16.512 23.1424C16.512 23.3984 16.4608 23.6544 16.384 23.8336C16.3072 24.0384 16.1792 24.192 16.0256 24.3456C15.872 24.4736 15.6928 24.576 15.488 24.6528C15.2832 24.7296 15.0272 24.7552 14.7712 24.7552C14.3872 24.7552 13.9008 24.704 13.3632 24.576L13.1072 24.5248L13.2096 23.7312C13.8752 23.808 14.3872 23.8592 14.7456 23.8592C15.2832 23.8592 15.5392 23.6288 15.5392 23.1936C15.5392 23.04 15.488 22.912 15.36 22.8096C15.232 22.7328 14.976 22.6304 14.6432 22.528C14.4035 22.4627 14.1823 22.3787 13.9955 22.3078L13.9008 22.272C13.696 22.1696 13.5424 22.0672 13.4144 21.9648C13.2864 21.8368 13.2096 21.7088 13.1584 21.5552C13.1072 21.4016 13.0816 21.2224 13.0816 21.0176C13.0816 20.5056 13.2352 20.1216 13.5424 19.8912C13.8496 19.6352 14.2592 19.5328 14.7968 19.5328C14.976 19.5328 15.1808 19.5328 15.4112 19.5584L15.488 19.5669C15.6981 19.59 15.9285 19.6153 16.1792 19.6608L16.4352 19.712L16.3584 20.5312C16 20.48 15.7184 20.4544 15.4624 20.4544C15.1808 20.4288 14.976 20.4288 14.848 20.4288ZM19.4305 22.8608H19.8657V23.8336L19.2513 23.8592C19.0465 23.8592 18.8673 23.8336 18.7137 23.7824C18.5857 23.7312 18.4577 23.6544 18.3809 23.5264C18.2785 23.3984 18.2273 23.2448 18.2017 23.04C18.1761 22.8352 18.1505 22.5792 18.1505 22.2976C18.1505 21.7344 18.1761 21.2992 18.2529 21.0688C18.2785 20.9408 18.3297 20.8384 18.3809 20.7616C18.4321 20.6592 18.5089 20.608 18.5857 20.5568C18.6881 20.5056 18.7905 20.48 18.9185 20.4544C19.0465 20.4288 19.2257 20.4288 19.4049 20.4288C19.5841 20.4288 19.8145 20.4288 20.0449 20.4544L20.0451 20.4545C20.301 20.4801 20.557 20.5056 20.8641 20.5312L20.8897 19.7376L20.6337 19.6864C20.0961 19.584 19.6097 19.5328 19.1489 19.5328C18.7649 19.5328 18.4577 19.584 18.2017 19.6864C17.9201 19.7888 17.7153 19.9424 17.5617 20.1472C17.3825 20.352 17.2801 20.608 17.2033 20.9408C17.1265 21.2736 17.1009 21.6576 17.1009 22.1184C17.1009 22.5792 17.1265 22.9632 17.2033 23.296C17.2545 23.6288 17.3825 23.9104 17.5361 24.1152C17.6897 24.3456 17.9201 24.4992 18.1761 24.6016C18.4321 24.704 18.7649 24.7552 19.1489 24.7552C19.3582 24.7552 19.5886 24.7341 19.8401 24.7111L19.9169 24.704C20.154 24.6843 20.3911 24.6493 20.6518 24.6108L20.6529 24.6106C20.7296 24.5993 20.8083 24.5877 20.8897 24.576V21.9648H19.4305V22.8608ZM23.5776 24.6784H21.888V19.6096H23.5776C24.0384 19.6096 24.3968 19.6608 24.6784 19.7632C24.96 19.8656 25.1648 20.0192 25.344 20.224C25.4976 20.4288 25.6 20.6848 25.6512 20.992C25.7024 21.2992 25.728 21.6576 25.728 22.0672C25.728 22.4768 25.7024 22.8352 25.6512 23.168C25.6 23.5008 25.4976 23.7568 25.344 23.9872C25.1904 24.2176 24.9856 24.3712 24.704 24.4992C24.3968 24.6016 24.0384 24.6784 23.5776 24.6784ZM24.6528 22.656V22.3744V21.9904C24.6528 21.7088 24.6528 21.4784 24.6272 21.3248C24.6016 21.1712 24.5504 21.0176 24.4736 20.864C24.3968 20.7104 24.2944 20.6336 24.1408 20.5824C23.9872 20.5312 23.808 20.5056 23.552 20.5056H22.8864V23.7824H23.552C23.936 23.7824 24.192 23.7056 24.3456 23.5264C24.5248 23.3472 24.6016 23.0656 24.6528 22.656ZM2.79042 15.9488C2.79042 18.9184 3.76322 21.76 5.55522 24.064L4.81282 24.4992C2.94402 22.0672 1.94562 19.072 1.94562 15.9488C1.94562 12.8512 2.96962 9.90715 4.86402 7.44955C7.55202 3.94235 11.648 1.91995 16.0512 1.94555C19.456 1.94555 22.6816 3.17435 25.216 5.40155L24.4224 5.83675C22.0672 3.86555 19.1232 2.79035 16.0256 2.79035H15.9744C11.8528 2.79035 8.03842 4.68475 5.50402 7.96155C3.73762 10.2656 2.79042 13.0304 2.79042 15.9488ZM27.3664 7.73115L26.624 8.14075C28.3136 10.4192 29.2096 13.1328 29.2096 16.0256C29.2096 18.944 28.2624 21.7088 26.496 24.0128C23.9616 27.3152 20.1472 29.184 16 29.184H15.9488C12.9536 29.184 10.0864 28.16 7.78238 26.3168L7.01438 26.7776C9.52318 28.8768 12.6464 30.0288 15.9744 30.0288H16.0256C20.4288 30.0288 24.4992 28.032 27.1872 24.5248C29.0816 22.0672 30.08 19.1232 30.08 16.0256C30.0544 13.0048 29.1328 10.1376 27.3664 7.73115ZM11.648 17.5872H13.824L10.0864 22.1952L12.3904 26.3424H10.24L8.78078 23.3728L6.42558 26.3424H4.19838L7.91038 21.8368L5.55518 17.5872H7.75678L9.21598 20.6848L11.648 17.5872ZM15.5904 10.8032L15.6473 10.7304C15.8163 10.5145 16.0158 10.2595 16.1536 9.98396C16.4096 9.49756 16.512 9.03676 16.4864 8.57596C16.4608 8.26876 16.384 8.01276 16.2304 7.78236C16.128 7.62876 16.0512 7.52636 15.9744 7.44956C15.8464 7.52636 15.7184 7.55196 15.5904 7.57756C15.6416 7.78236 15.6416 7.96156 15.616 8.14076C15.5904 8.44796 15.5136 8.70396 15.36 8.90876C15.1296 9.21596 14.848 9.47196 14.464 9.72796L14.464 9.72799L14.464 9.728L14.4639 9.728L14.4639 9.72801L14.4639 9.72802L14.4639 9.72802C14.3359 9.8048 14.208 9.88158 14.1056 9.95836C14.0674 9.98128 14.0315 10.0019 13.9972 10.0216C13.9165 10.068 13.8446 10.1093 13.7728 10.1632C13.4144 10.3936 13.1072 10.5984 12.8512 10.8288C12.5952 11.0336 12.288 11.3152 12.0576 11.6736C11.6992 12.2624 11.5712 12.8768 11.648 13.5424C11.7248 14.1312 11.904 14.6432 12.2112 15.0784C12.4928 15.5136 12.8 15.8976 13.1584 16.2304C13.44 16.4864 13.7728 16.7424 14.208 17.024L14.2592 17.0752C14.2592 17.0496 14.2592 17.024 14.2336 17.024C14.1824 16.64 14.2592 16.256 14.4896 15.9232C14.336 15.7696 14.208 15.616 14.08 15.4112C13.8752 15.0784 13.7728 14.72 13.7472 14.336C13.7216 13.7984 13.8496 13.2608 14.1568 12.7232C14.3911 12.3014 14.6898 11.9225 14.9546 11.5865L15.0272 11.4944C15.104 11.392 15.2064 11.2896 15.2832 11.2128C15.3393 11.1342 15.3905 11.0704 15.4368 11.0127C15.4961 10.9388 15.5473 10.875 15.5904 10.8032ZM18.432 9.80476C18.3808 10.0864 18.2528 10.368 18.048 10.7008C17.8688 11.008 17.6128 11.3152 17.2544 11.7248C16.896 12.1088 16.64 12.4672 16.4864 12.8768C16.4096 13.0816 16.3584 13.2864 16.3328 13.5424C16.3085 13.7612 16.3304 13.9569 16.3545 14.1734L16.3584 14.208C15.9744 14.4384 15.616 14.6944 15.3088 14.976C15.0528 15.2064 14.848 15.4112 14.6944 15.6416C14.4128 15.36 14.2336 15.0016 14.1312 14.6176L14.1226 14.558L14.1226 14.558C14.1002 14.4035 14.08 14.2646 14.08 14.1056C14.08 13.8496 14.1568 13.568 14.2848 13.2352C14.3675 13.0285 14.5002 12.8218 14.6156 12.642L14.6157 12.642C14.6432 12.5992 14.6697 12.5578 14.6944 12.5184C15.0016 12.0832 15.36 11.648 15.7696 11.2128C16.0256 10.9312 16.2304 10.6752 16.384 10.3936C16.6144 9.98396 16.7424 9.59996 16.8192 9.21596C16.896 8.72956 16.8448 8.26876 16.6656 7.85916C16.5632 7.67996 16.4608 7.50076 16.3072 7.34716L16.2816 7.32156L16.3072 7.29596C16.384 7.21916 16.4608 7.14236 16.512 7.03996V7.01436H16.5376C16.768 7.09116 16.9728 7.16796 17.152 7.27036C17.536 7.47516 17.8432 7.78236 18.0736 8.14076C18.2528 8.44796 18.3808 8.72956 18.432 9.01116C18.4832 9.26716 18.4832 9.52316 18.432 9.80476ZM16.7168 13.9776L16.7169 13.9775L16.717 13.9775L16.7171 13.9774L16.7171 13.9774C17.0754 13.7983 17.3825 13.6447 17.664 13.5168C17.7156 13.4961 17.7672 13.4713 17.8204 13.4457C17.8993 13.4078 17.9819 13.3681 18.0736 13.3376C18.127 13.3138 18.1818 13.2901 18.2373 13.266L18.2375 13.2659C18.4214 13.1862 18.6134 13.1031 18.7904 13.0048C18.9952 12.9024 19.2 12.8 19.3536 12.6208C19.6352 12.3392 19.8912 12.0064 20.0448 11.6224C20.2752 11.1104 20.3776 10.5728 20.3776 10.1376C20.3776 9.80476 20.352 9.52316 20.3264 9.24156V9.21597C20.3008 9.01116 20.2496 8.78076 20.1728 8.60156C19.9936 8.19196 19.7376 7.78236 19.3536 7.39836C19.072 7.11676 18.7392 6.86076 18.3808 6.68156C18.2016 6.57916 17.9712 6.47676 17.7408 6.39996C17.3824 6.29756 17.024 6.24636 16.5888 6.27196C16.5888 6.28476 16.5952 6.29116 16.6016 6.29756C16.608 6.30396 16.6144 6.31036 16.6144 6.32316C16.64 6.45116 16.64 6.55356 16.64 6.65596C16.9216 6.73276 17.152 6.83516 17.3824 6.96316C17.664 7.11676 17.8432 7.27036 17.9968 7.42396C18.1247 7.57746 18.227 7.70539 18.3294 7.83331L18.3296 7.83356C18.5856 8.19197 18.7392 8.55037 18.816 8.93437C18.8928 9.34397 18.8672 9.72797 18.7392 10.112C18.6112 10.4704 18.432 10.8032 18.1248 11.2384C17.9712 11.4687 17.7664 11.6735 17.5872 11.8527L17.5872 11.8527L17.5872 11.8528C17.536 11.904 17.4848 11.9552 17.4336 12.032C17.2032 12.288 17.024 12.544 16.896 12.8512C16.7168 13.2352 16.6656 13.5936 16.7168 13.9776ZM16.2816 6.68156C16.2304 6.80956 16.1536 6.91196 16 7.03996C15.7696 7.19356 15.5392 7.27036 15.2576 7.19356C15.232 7.19356 15.1808 7.19356 15.1552 7.21916C15.1296 7.24476 15.1296 7.29596 15.1552 7.32156C15.232 7.52636 15.2832 7.73116 15.2832 7.93596C15.2576 8.62716 14.7712 9.16476 14.08 9.26716C13.8496 9.29276 13.6448 9.29276 13.44 9.29276H13.1328H12.8512C12.672 9.29276 12.4928 9.29276 12.3136 9.31836C12.0064 9.34396 11.776 9.44636 11.6224 9.65116L11.5968 9.67676C11.4176 9.42076 11.3408 9.16476 11.3408 8.85756C11.3664 8.67836 11.392 8.49916 11.4688 8.34556C11.8016 8.72956 12.416 8.83196 12.8512 8.57596C12.9536 8.52476 13.0304 8.42236 13.056 8.31996C13.0816 8.24316 13.056 8.14076 13.0048 8.06396C12.928 7.96156 12.8256 7.91036 12.6976 7.88476C12.416 7.83356 12.1344 7.83356 11.8528 7.88476C11.7248 7.91036 11.5712 7.96156 11.4688 8.03836C11.4432 7.97436 11.4176 7.90396 11.392 7.83356C11.3664 7.76316 11.3408 7.69276 11.3152 7.62876C11.3024 7.60316 11.296 7.57756 11.2896 7.55196C11.2832 7.52636 11.2768 7.50076 11.264 7.47516C11.2384 7.39836 11.2384 7.29596 11.2896 7.21916C11.3408 7.14236 11.392 7.09116 11.4944 7.06556C11.5231 7.05119 11.5519 7.04488 11.5852 7.03759C11.6112 7.03189 11.6399 7.02559 11.6736 7.01436C11.7504 7.01436 11.776 6.96316 11.776 6.91196C11.776 6.83516 11.776 6.78396 11.7248 6.75836C11.7069 6.74051 11.6767 6.74755 11.6513 6.75345C11.6402 6.75602 11.6301 6.75836 11.6224 6.75836H11.5712C11.52 6.75836 11.4432 6.78396 11.392 6.80956C11.392 6.65596 11.4688 6.55356 11.5968 6.45116C11.7504 6.34876 11.9296 6.29756 12.1344 6.29756H13.1328C13.2096 6.29756 13.2096 6.29756 13.2352 6.34876C13.2864 6.47676 13.4144 6.55356 13.568 6.55356C13.7472 6.55356 13.8496 6.45116 13.9264 6.29756H14.336H15.8208H15.8464C15.8724 6.29756 15.8984 6.29591 15.924 6.29429C15.9992 6.28951 16.0707 6.28497 16.128 6.32316C16.256 6.39996 16.3328 6.55356 16.2816 6.68156ZM20.4032 11.9296C20.7616 11.6224 21.0688 11.2384 21.3248 10.752C21.4784 10.4704 21.5808 10.1632 21.632 9.85596C21.6832 9.54877 21.6576 9.24156 21.5808 8.85756C21.4784 8.31997 21.2736 7.83356 20.992 7.39837C20.7616 7.03996 20.4544 6.68156 20.0704 6.34876C19.7376 6.06716 19.3536 5.81116 18.9184 5.63196C18.4832 5.45276 18.0736 5.37596 17.6896 5.40156C17.1008 5.42716 16.5632 5.60636 16.0768 5.93917H16.1536H16.5376H16.6656C16.9984 5.93917 17.28 5.96476 17.536 6.04156C18.048 6.16956 18.5088 6.37436 18.8928 6.65596C19.1232 6.80957 19.3024 6.96316 19.456 7.11677L19.7376 7.39837C19.8229 7.4837 19.9082 7.59178 19.9936 7.69987C20.0362 7.75392 20.0789 7.80796 20.1216 7.85917C20.3776 8.24317 20.5568 8.70397 20.6336 9.24156L20.7104 9.93277V9.93282C20.7104 10.1632 20.7104 10.3936 20.6848 10.5984C20.672 10.6496 20.6592 10.7072 20.6464 10.7648C20.6336 10.8224 20.6208 10.88 20.608 10.9312C20.5952 10.9568 20.5888 10.9888 20.5824 11.0208C20.576 11.0528 20.5696 11.0848 20.5568 11.1104C20.48 11.4176 20.3776 11.7248 20.224 12.032C20.224 12.0448 20.2176 12.0576 20.2112 12.0704L20.2112 12.0704C20.2048 12.0832 20.1984 12.096 20.1984 12.1088L20.2752 12.032C20.3052 12.002 20.3351 11.9808 20.36 11.9632C20.3776 11.9508 20.3926 11.9402 20.4032 11.9296ZM18.9439 5.24796C18.7647 5.19676 18.5856 5.14556 18.3552 5.09436C17.8432 4.99196 17.3312 5.01756 16.7424 5.19676C16.3584 5.32476 16 5.52956 15.7184 5.78556H15.6928L15.6416 5.83676C15.5904 5.88796 15.5392 5.91356 15.4368 5.91356H13.8496H13.0048C13.184 5.70876 13.3888 5.52956 13.6704 5.45276C13.7088 5.45276 13.7536 5.44636 13.7984 5.43996C13.8432 5.43356 13.888 5.42716 13.9264 5.42716C13.9776 5.40156 14.0032 5.40156 14.0544 5.40156H14.1824C14.2336 5.38876 14.2784 5.38236 14.3232 5.37596C14.368 5.36956 14.4128 5.36316 14.464 5.35036C14.6176 5.29916 14.72 5.22236 14.8224 5.11996C15.0528 4.86396 15.3344 4.68476 15.6672 4.60796C15.8464 4.55676 16.0256 4.55676 16.2048 4.55676H16.2304H16.4096C16.7424 4.55676 17.0496 4.58236 17.3824 4.63356C17.6128 4.65916 17.8688 4.73596 18.176 4.83836C18.432 4.94076 18.688 5.06876 18.944 5.24796L18.9439 5.24796Z" fill="white"/>
</svg>
