<svg xmlns="http://www.w3.org/2000/svg" width="32" height="32"><path fill="#FFF" fill-rule="evenodd" d="M16 32C7.163 32 0 24.837 0 16S7.163 0 16 0s16 7.163 16 16-7.163 16-16 16zm2.19-6c.993 0 1.917-.206 2.771-.619a4.037 4.037 0 001.91-1.878 6.02 6.02 0 00.629-2.726 7.16 7.16 0 00-.175-1.466c-.108-.55-.353-1.123-.734-1.719-.38-.603-.923-1.077-1.63-1.42-.699-.352-1.328-.527-1.887-.527a3.51 3.51 0 00-.978.229l5.171-5.086-.839-.825-8.431.023V6.412L13.182 6h-2.166v.595l.745.734v2.657H8.5v1.169h3.26v6.277c0 .916.265 1.642.793 2.176.528.535 1.483.802 2.865.802.559 0 1.071-.153 1.537-.458.466-.306.83-.748 1.095-1.329a2.92 2.92 0 00.058-.32.619.619 0 00-.163-.425c-.117-.083-.217-.125-.303-.125a.236.236 0 00-.151.057.342.342 0 00-.117.149 3.76 3.76 0 01-.885.893c-.341.245-.699.367-1.071.367-.482 0-.839-.168-1.072-.504-.233-.336-.35-.764-.35-1.283v-6.277h6.383l-4.612 6.048v.504l1.025-.504c.56-.306 1.025-.458 1.397-.458a2.99 2.99 0 011.584.446c.49.298.858.756 1.107 1.375.256.61.384 1.348.384 2.21 0 .795-.117 1.505-.35 2.131-.232.626-.593 1.1-1.082 1.42a2.93 2.93 0 01-1.643.482c-.434 0-.87-.061-1.304-.184-.435-.114-.753-.309-.955-.584.233-.069.435-.213.606-.435.17-.222.256-.508.256-.86 0-.29-.058-.534-.175-.732a1.27 1.27 0 00-.477-.47 1.497 1.497 0 00-.746-.172c-.295 0-.543.058-.745.172a1.27 1.27 0 00-.477.47c-.117.198-.175.443-.175.733 0 .794.334 1.535 1.001 2.222.668.687 1.732 1.031 3.191 1.031z"/></svg>