<svg width="32" height="32" viewBox="0 0 32 32" fill="none" xmlns="http://www.w3.org/2000/svg">
<path fill-rule="evenodd" clip-rule="evenodd" d="M32 16C32 7.16347 24.8365 0 16 0C7.16347 0 0 7.16347 0 16C0 24.8365 7.16347 32 16 32C24.8365 32 32 24.8365 32 16ZM22.8533 14.2585L8.9333 15.7528L9.14676 17.7413L23.0668 16.2471L22.8533 14.2585ZM18.9072 22.7281L17.1826 18.3515L21.9298 16.8246L22.3881 18.1319L20.1443 18.9075C20.1443 18.9075 22.3482 19.9034 24.3206 18.0484C25.2941 17.0017 25.3186 16.5384 25.3732 15.5084L25.3779 15.4208C25.417 14.4613 24.8503 12.3016 22.1217 11.9326C20.38 11.8391 19.1462 12.2878 17.7161 14.5934L15.8575 14.6723C15.8575 14.6723 17.3379 12.1103 18.4893 11.3671C19.4015 10.7899 21.2169 9.7733 24.0226 10.9557C25.4315 11.6034 26.8693 13.024 27.03 15.7816C27.1179 17.1677 25.7307 20.7239 21.5885 20.6404C20.8131 20.6323 19.7521 20.3582 19.7521 20.3582L20.3787 22.1625L18.9072 22.7281ZM4.96402 16.035C5.05174 18.8148 6.45644 20.2837 7.85242 20.9749C10.6348 22.2367 12.4871 21.2593 13.4233 20.7054C14.6 19.9878 16.1552 17.4455 16.1552 17.4455L14.2862 17.4753C12.7848 19.7588 11.5319 20.1791 9.78754 20.0411C7.05903 19.5981 6.54511 17.4061 6.61161 16.4429C6.61419 16.4109 6.61671 16.3794 6.61918 16.3484C6.70178 15.3121 6.73879 14.8478 7.74373 13.8213C9.77793 12.0063 11.961 13.0663 11.961 13.0663L9.68402 13.7904L10.1089 15.1213L14.9178 13.705L13.3046 9.24918L11.8156 9.78023L12.393 11.6139C12.393 11.6139 11.3376 11.3099 10.5598 11.2817C6.40404 11.0905 4.91222 14.6345 4.96402 16.035Z" fill="white"/>
</svg>
