<svg width="32" height="32" viewBox="0 0 32 32" fill="none" xmlns="http://www.w3.org/2000/svg">
<path fill-rule="evenodd" clip-rule="evenodd" d="M16 32C24.8365 32 32 24.8365 32 16C32 7.1635 24.8365 0 16 0C7.1635 0 0 7.1635 0 16C0 24.8365 7.1635 32 16 32ZM11.6945 21.791L13.5338 21.0386C19.135 21.0386 24.9035 20.4534 27.9132 16.8585C27.9132 16.8585 28.582 17.7781 28.582 19.4502C28.582 21.0386 27.2444 22.3762 25.6559 22.3762H3L20.3055 9.66881L18.4662 10.4212C18.3888 10.4212 18.3097 10.4212 18.2288 10.4211C15.2539 10.4189 10.0088 10.415 6.42765 13.2637C6.42765 13.2637 6.17685 12.7621 6.17685 12.0096C6.17685 10.3376 7.51447 9 9.10289 9H29L11.6945 21.791Z" fill="white"/>
</svg>
