<svg xmlns="http://www.w3.org/2000/svg" width="32" height="32" viewBox="0 0 32 32">
  <path fill="#FFF" fill-rule="evenodd" d="M16,32 C7.163444,32 0,24.836556 0,16 C0,7.163444 7.163444,0 16,0 C24.836556,0 32,7.163444 32,16 C32,24.836556 24.836556,32 16,32 Z M16,30 C23.7319865,30 30,23.7319865 30,16 C30,8.2680135 23.7319865,2 16,2 C8.2680135,2 2,8.2680135 2,16 C2,23.7319865 8.2680135,30 16,30 Z M15.8833119,17.1899719 L17.6515558,19.5015484 L12.4999997,23 L15.8833119,17.1899719 Z M16,6 L18.7272727,10.4736842 L11.4545455,23 L6,23 L16,6 Z M16,15.8421053 L19.6363636,13.1578947 L26,23 L21.4545455,23 L16,15.8421053 Z"/>
</svg>
