<svg xmlns="http://www.w3.org/2000/svg" width="32" height="32" viewBox="0 0 32 32">
  <path fill="#FFF" fill-rule="evenodd" d="M16,32 C7.163444,32 0,24.836556 0,16 C0,7.163444 7.163444,0 16,0 C24.836556,0 32,7.163444 32,16 C32,24.836556 24.836556,32 16,32 Z M16,30 C23.7319865,30 30,23.7319865 30,16 C30,8.2680135 23.7319865,2 16,2 C8.2680135,2 2,8.2680135 2,16 C2,23.7319865 8.2680135,30 16,30 Z M25.8925782,20.6619529 L25.8914,20.667741 C26.1174291,21.066632 25.9796103,21.5698121 25.5803563,21.8033695 L16.9441799,26.8795476 C16.670617,27.0401508 16.329383,27.0401508 16.0558201,26.8795476 L7.41964371,21.798739 C7.02038971,21.5651816 6.88257086,21.0620016 7.10859998,20.6631105 L15.7400636,5.43573387 C15.8928058,5.16672045 16.1817694,5 16.4952872,5 C16.8088051,5 17.0977686,5.16672045 17.2505108,5.43573387 L25.8925782,20.6619529 Z M20.582449,16.3116046 L20.5895182,16.3162351 C20.6648134,16.529705 20.7223413,16.7488301 20.7615348,16.9714499 L20.8675724,17.385879 C20.9641845,17.7401117 21.3376726,18.7264068 21.8867119,19.0065516 C22.8469417,19.4950686 24.0758,20.090087 24.7756484,20.4269554 L16.9371107,6.60724863 L16.9371107,12.6141558 C16.9371107,13.7856706 15.2086972,14.5774849 15.0119385,14.6643067 L14.6431632,14.8344773 C14.3767855,15.0019999 14.1349783,15.2045314 13.9244636,15.4364414 L13.8985433,15.4665396 C13.8525937,15.5186327 13.8078222,15.5718833 13.7654072,15.6262916 L13.7571598,15.6367102 C13.7123884,15.6992219 13.6699733,15.7547878 13.6287364,15.8149842 L13.6039943,15.8520282 C13.5694339,15.9045071 13.5364444,15.9577578 13.5050259,16.0117802 L13.4861747,16.043036 C13.4508288,16.1055477 13.4174466,16.1692169 13.3860281,16.2340438 L13.3671769,16.2757183 C13.3420421,16.3305125 13.3180854,16.3856925 13.295307,16.4412584 L13.2764558,16.4864057 C13.2497501,16.5527761 13.2257934,16.6203041 13.2045859,16.6889898 L13.1928039,16.7271914 C13.1747383,16.7858443 13.1586362,16.8448831 13.1444979,16.9043077 L13.1315377,16.958716 C13.115043,17.029331 13.1009046,17.1011037 13.0903009,17.174034 L13.0903009,17.2018169 C13.0808753,17.2666438 13.0679152,17.3326283 13.0679152,17.3986129 L13.0679152,17.4576517 C13.0596678,17.5375277 13.0596678,17.6127732 13.0596678,17.6891763 L13.0596678,17.7458999 C13.0647302,18.0622731 13.1151015,18.3763705 13.2092987,18.6789442 C12.9030047,18.5212698 12.5786776,18.4000221 12.243178,18.3177658 C12.2111903,18.1097076 12.1950435,17.8995948 12.1948719,17.6891763 L12.1948719,17.5930936 C12.1948719,17.5664682 12.1878028,17.5572073 12.1948719,17.5143752 C12.2019411,17.4715431 12.1995847,17.4298687 12.2019411,17.3870366 C12.2042975,17.3442046 12.2090103,17.2909539 12.2125449,17.2596981 C12.2160795,17.2284422 12.2172577,17.2145508 12.2231487,17.1670882 C12.2290396,17.1196257 12.237287,17.0605869 12.243178,17.0247005 C12.249069,16.9888142 12.2549599,16.9564008 12.2620291,16.9193568 C12.2690983,16.8823129 12.2797021,16.8313775 12.285593,16.8035945 C12.291484,16.7758115 12.297375,16.7480286 12.3044442,16.7214032 C12.3177971,16.6650656 12.3323281,16.6091138 12.3480374,16.5535479 C12.3539284,16.5292378 12.3621758,16.5060853 12.369245,16.4817752 C12.3818124,16.4377855 12.395558,16.3945676 12.4104818,16.3521214 L12.4305111,16.291925 C12.4517187,16.2375167 12.4729262,16.1784779 12.4964901,16.1217544 L12.5212322,16.0627156 C12.5447962,16.0083073 12.5683601,15.9550566 12.5942804,15.901806 L12.6072405,15.8751806 C12.6355172,15.8230876 12.6649721,15.7628912 12.694427,15.7073253 L12.7168128,15.6656508 C12.7490168,15.6069979 12.7827917,15.5495026 12.8181376,15.4931649 L12.8299196,15.4758006 C12.8652655,15.4202347 12.9013968,15.3658264 12.9383136,15.3125757 L12.952452,15.2917385 C12.9932961,15.2346291 13.0353184,15.1782914 13.0785189,15.1227255 L13.0903009,15.1076764 C13.1800513,14.9941701 13.2756082,14.8852133 13.3766025,14.7812266 L13.3872063,14.770808 C13.4899266,14.6654967 13.5980696,14.5654242 13.7112102,14.4709836 C13.8910022,14.3212465 14.0828958,14.1861306 14.2849916,14.0669731 L14.3050209,14.0565545 C14.4039894,13.9986733 14.5053142,13.944265 14.6089955,13.8944872 L14.6832218,13.855128 C15.7518456,13.3828177 16.0723149,12.8271585 16.0723149,12.6141558 L16.0723149,6.60724863 L8.29386511,20.3239269 C9.00196089,19.9164435 10.1624839,19.2982727 11.1922272,18.9799263 C11.6858913,18.82712 12.3291863,18.9671924 13.0997264,19.3978283 C13.427472,19.5826637 13.7357104,19.7990449 14.0198975,20.0437821 L14.329763,20.320454 C14.5290425,20.4785894 14.7455882,20.6144791 14.9754144,20.7256222 L15.0743829,20.7719271 L15.1262235,20.793922 L15.2275484,20.8355964 L15.2805672,20.855276 C15.5891566,20.970041 15.9129399,21.0406065 16.2419751,21.0648058 C15.9949504,21.285987 15.7867561,21.5456948 15.6257786,21.8334677 C15.4203132,21.7914607 15.2182908,21.734582 15.0213641,21.663297 L14.9801272,21.6470903 L14.9212174,21.6239379 C14.7842633,21.5709117 14.6501658,21.5110226 14.5194526,21.4445062 L14.4923541,21.4306148 L14.3568615,21.3576845 C14.1557634,21.2440769 13.9642797,21.1147789 13.7842583,20.9710383 L13.7559816,20.9467282 C13.6735079,20.8830589 13.5945688,20.8159168 13.5203424,20.7464594 L13.4861747,20.7163612 C12.9194625,20.2625729 11.9191741,19.6455597 11.4478957,19.7902626 C10.2437794,20.1653325 8.78046005,21.0173433 8.27854857,21.3229558 L16.0687803,25.8909373 L16.0687803,22.7653544 C16.0687803,21.5938396 17.8054411,20.8240202 18.0021999,20.7371984 L18.075248,20.7001545 C18.4605101,20.5096981 18.8061558,20.2501808 19.0943875,19.9349655 L19.1179514,19.9071825 C19.1627229,19.8577906 19.2055307,19.8068552 19.2463748,19.7543762 L19.2817207,19.7080713 C19.3225648,19.6540489 19.361838,19.5988689 19.3995403,19.5425312 L19.4183914,19.5159059 C19.4584501,19.4495355 19.4977233,19.3816216 19.536211,19.3121642 C19.6266703,19.1511604 19.7035116,18.9831255 19.7659592,18.8097557 C19.9172508,19.1153278 20.1038492,19.4027678 20.3220677,19.6663969 C20.2643361,19.7671101 20.2089609,19.8643505 20.1465165,19.9604332 L20.1312,19.9812704 C20.0852503,20.0495702 20.0381225,20.11787 19.9886382,20.1838545 L19.9532924,20.2290018 C19.9124482,20.2830242 19.8700332,20.335889 19.8260472,20.3875962 L19.776563,20.4443197 C19.7247224,20.5126195 19.6658126,20.569343 19.6069028,20.6283818 L19.5786261,20.6550072 C19.5252145,20.7082578 19.470232,20.7603509 19.4136786,20.8112863 L19.3594816,20.8599065 L19.3111756,20.9027385 C19.1326276,21.0531568 18.9419157,21.1890473 18.7409287,21.3090643 L18.7020483,21.3299015 C18.6113272,21.3843098 18.5170715,21.4352453 18.4216376,21.4815502 L18.3945391,21.4965993 C17.9326863,21.6991834 16.9323979,22.2768374 16.9323979,22.7699849 L16.9323979,25.8955678 L24.6978875,21.334532 C24.1099677,21.0520719 22.6148371,20.3366608 21.4861253,19.7578491 C20.5011535,19.2565982 20.0758247,17.7690523 20.0298751,17.6011969 L19.9214811,17.1971864 C19.8834765,16.9450755 19.8162762,16.6980571 19.7211878,16.460938 C19.7035148,16.4157907 19.6823073,16.36254 19.6669907,16.3278113 C19.6516742,16.2930826 19.6351795,16.2629844 19.6175065,16.2270981 C19.5998336,16.1912118 19.5833388,16.1541678 19.5644877,16.1205968 C19.5456366,16.0870257 19.524429,16.0511394 19.5055779,16.0187259 C19.4867268,15.9863125 19.4690538,15.9573719 19.4478463,15.9226432 C19.4266388,15.8879145 19.4007185,15.8497129 19.3806891,15.8207723 C19.3606598,15.7918318 19.3441651,15.766364 19.3194229,15.732793 C19.2946808,15.6992219 19.2699387,15.6656508 19.2440184,15.6332374 L19.1792176,15.5522037 C19.1517264,15.5190185 19.1238424,15.4866051 19.0955657,15.4549634 L19.0284085,15.3820331 C18.9977754,15.3507773 18.9671423,15.3195215 18.9353311,15.2882656 L18.8669957,15.2234387 C18.832828,15.1921829 18.7998385,15.1620847 18.7644926,15.1319865 L18.6973355,15.0775782 C18.6560986,15.04748 18.6183963,15.0173818 18.5795159,14.9884412 L18.5194279,14.9467668 C18.4758346,14.9155109 18.4322414,14.8854127 18.3874699,14.8564721 L18.3603714,14.8402654 C17.8845863,14.5418808 17.3417961,14.3622554 16.7792324,14.3170197 C17.0186733,14.095388 17.2203538,13.8374296 17.3765778,13.5529883 C17.5766864,13.5938928 17.7735561,13.6488275 17.9656758,13.7173708 C18.0363675,13.7416809 18.1047029,13.7694639 18.1730383,13.7972468 L18.1989586,13.8076654 C18.277505,13.8408506 18.3560514,13.8759652 18.4345978,13.9130092 L18.4569835,13.9245854 C18.5331735,13.9593141 18.6077926,13.9979015 18.6808407,14.0403477 L18.6996919,14.051924 C18.7735255,14.0951419 18.8461809,14.1402892 18.9176581,14.1873659 L18.9317965,14.1966269 C19.0048446,14.245247 19.0759291,14.2957966 19.1450499,14.3482755 L19.1532973,14.3552213 C19.2239891,14.4092437 19.2931099,14.4655813 19.3606598,14.5242343 C19.9176509,15.0068193 20.3384798,15.622455 20.582449,16.3116046 Z"/>
</svg>
