<svg xmlns="http://www.w3.org/2000/svg" width="32" height="32" viewBox="0 0 32 32">
  <path fill="#FFF" fill-rule="evenodd" d="M16,32 C7.163444,32 0,24.836556 0,16 C0,7.163444 7.163444,0 16,0 C24.836556,0 32,7.163444 32,16 C32,24.836556 24.836556,32 16,32 Z M16,30 C23.7319865,30 30,23.7319865 30,16 C30,8.2680135 23.7319865,2 16,2 C8.2680135,2 2,8.2680135 2,16 C2,23.7319865 8.2680135,30 16,30 Z M23.1889526,14.0201846 L23.1889526,14.0201846 C22.9619988,15.5547077 22.1112911,16.2976 20.9819372,16.5580308 C22.5327065,17.3654154 23.3218757,18.6035692 22.5701218,20.7500308 C21.6371988,23.4158769 19.4208295,23.6408615 16.4733834,23.0830769 L15.7580603,25.9497846 L14.029568,25.5190154 L14.7355372,22.6907077 C14.2875372,22.5794462 13.8296911,22.4612923 13.3580603,22.3332923 L12.6496295,25.1748923 L10.9231065,24.7441231 L11.6384295,21.872 C11.2347372,21.7686154 10.8246449,21.6588308 10.4061834,21.5539692 L8.15682954,20.9932308 L9.01492185,19.0146462 C9.01492185,19.0146462 10.2885218,19.3533538 10.2712911,19.3282462 C10.7606449,19.4493538 10.9777526,19.1303385 11.0634142,18.9176615 L12.1937526,14.3859692 C12.2572603,14.4012308 12.3187988,14.4169846 12.3763988,14.4312615 C12.3074757,14.4036923 12.2449526,14.3859692 12.1967065,14.3736615 L13.0031065,11.1387077 C13.0242757,10.7714462 12.8977526,10.3081846 12.1976911,10.1334154 C12.224768,10.1152 10.9423065,9.82129231 10.9423065,9.82129231 L11.4021218,7.97513846 L13.7858757,8.57033846 L13.7839065,8.5792 C14.1423065,8.66830769 14.5115372,8.75298462 14.8876603,8.83864615 L15.5960911,6 L17.3235988,6.43076923 L16.6294449,9.21378462 C17.0931988,9.31963077 17.5599065,9.42646154 18.0143065,9.53969231 L18.7035372,6.77489231 L20.4320295,7.20566154 L19.7240911,10.0452923 C21.9064911,10.7970462 23.5025526,11.9239385 23.1889526,14.0201846 Z M19.2396603,19.5581538 C19.7979372,17.3196308 16.0406449,16.7406769 14.8689526,16.4482462 L13.9197834,20.2532923 C15.0914757,20.5442462 18.7055065,21.7046154 19.2396603,19.5581538 Z M19.7743065,13.9891692 C20.2818757,11.9524923 17.1394757,11.4985846 16.1637218,11.2553846 L15.303168,14.7064615 C16.2789218,14.9496615 19.2869218,15.9416615 19.7743065,13.9891692 Z"/>
</svg>
