<svg xmlns="http://www.w3.org/2000/svg" width="32" height="32" viewBox="0 0 32 32">
  <path fill="#FFF" fill-rule="evenodd" d="M16,32 C7.163444,32 0,24.836556 0,16 C0,7.163444 7.163444,0 16,0 C24.836556,0 32,7.163444 32,16 C32,24.836556 24.836556,32 16,32 Z M16,30 C23.7319865,30 30,23.7319865 30,16 C30,8.2680135 23.7319865,2 16,2 C8.2680135,2 2,8.2680135 2,16 C2,23.7319865 8.2680135,30 16,30 Z M6.38095238,14.6857143 L14.1142857,14.6857143 L13.1238095,17.6380952 L5.37142857,17.6380952 L6.38095238,14.6857143 Z M9.98095238,9.79047619 C9.98095238,9.79047619 21.1809524,9.79047619 24.3238095,9.79047619 C27.4666667,9.79047619 26.5714286,12.9714286 26.5714286,12.9714286 L22.0190476,12.9714286 L8.97142857,12.9714286 L9.98095238,9.79047619 Z M5.86666667,22.5333333 L6.8952381,19.352381 L19.9238095,19.352381 L24.5333333,19.352381 C24.5333333,19.352381 23.2761905,22.5333333 20.2857143,22.5333333 C17.2952381,22.5333333 5.86666667,22.5333333 5.86666667,22.5333333 Z M22.0190476,12.9714286 L26.5714286,12.9714286 L24.5333333,19.352381 L19.9619048,19.352381 L22.0190476,12.9714286 Z"/>
</svg>
