<svg xmlns="http://www.w3.org/2000/svg" width="32" height="32" viewBox="0 0 32 32">
  <path fill="#FFF" fill-rule="evenodd" d="M16,32 C7.163444,32 0,24.836556 0,16 C0,7.163444 7.163444,0 16,0 C24.836556,0 32,7.163444 32,16 C32,24.836556 24.836556,32 16,32 Z M16,30 C23.7319865,30 30,23.7319865 30,16 C30,8.2680135 23.7319865,2 16,2 C8.2680135,2 2,8.2680135 2,16 C2,23.7319865 8.2680135,30 16,30 Z M19.1842643,10.3123543 C22.4368309,10.983683 24.1487081,12.8127428 23.9898582,14.8422688 C23.8433462,16.8174048 21.5114919,21.019425 16.9218104,21.8663559 L16.4791899,26 L15.0294921,25.8430458 L15.435099,22.04662 C15.0294921,22.0792541 14.6300541,22.1025641 14.2444961,22.1165501 L13.8681916,25.6348096 L12.4184938,25.4778555 L12.7778338,22.1305361 C9.81674894,22.0730381 8,21.5244755 8,21.5244755 L12.659082,12.6511267 L16.1090543,13.3006993 L12.4493384,20.5998446 C16.2817842,20.8562549 18.3745926,18.974359 19.5651955,16.963481 C20.7557984,14.951049 19.6238003,12.8873349 18.0353017,12.5532246 C16.446803,12.2191142 8.48734522,10.954157 8.48734522,10.954157 L10.4583173,8.7008547 C10.4583173,8.7008547 12.6714198,9.0955711 15.142075,9.54778555 L15.521464,6 L16.9711618,6.15695416 L16.5794349,9.81818182 L17.7453621,10.035742 L18.1386312,6.37140637 L19.588329,6.52836053 L19.1842643,10.3123543 Z"/>
</svg>
