<svg xmlns="http://www.w3.org/2000/svg" width="32" height="32" viewBox="0 0 32 32">
  <path fill="#FFF" fill-rule="evenodd" d="M16,32 C7.163444,32 0,24.836556 0,16 C0,7.163444 7.163444,0 16,0 C24.836556,0 32,7.163444 32,16 C32,24.836556 24.836556,32 16,32 Z M16,30 C23.7319865,30 30,23.7319865 30,16 C30,8.2680135 23.7319865,2 16,2 C8.2680135,2 2,8.2680135 2,16 C2,23.7319865 8.2680135,30 16,30 Z M20.8333333,7 L23.5,7 L23.5,25 L20.8333333,25 L20.8333333,7 Z M16.3888889,16 L19.0555556,16 L19.0555556,25 L16.3888889,25 L16.3888889,16 Z M11.9444444,11.5 L14.6111111,11.5 L14.6111111,25 L11.9444444,25 L11.9444444,11.5 Z M7.5,20.5 L10.1666667,20.5 L10.1666667,25 L7.5,25 L7.5,20.5 Z"/>
</svg>
