<svg xmlns="http://www.w3.org/2000/svg" width="32" height="32" viewBox="0 0 32 32">
  <path fill="#FFF" fill-rule="evenodd" d="M16,32 C7.163444,32 0,24.836556 0,16 C0,7.163444 7.163444,0 16,0 C24.836556,0 32,7.163444 32,16 C32,24.836556 24.836556,32 16,32 Z M16,30 C23.7319865,30 30,23.7319865 30,16 C30,8.2680135 23.7319865,2 16,2 C8.2680135,2 2,8.2680135 2,16 C2,23.7319865 8.2680135,30 16,30 Z M21.9607258,18.2052162 C23.6743624,19.2187583 24.4302925,21.3464052 23.7535191,23.2512269 C23.0767458,25.1560486 21.1626466,26.2881423 19.2139666,25.9361447 C17.2652865,25.5841471 15.8445899,23.8496762 15.8445868,21.8226058 C15.8445868,21.0134453 16.1252085,20.268847 16.4836776,19.5782009 C16.909518,18.7576974 16.6720491,17.7615509 15.9039036,17.3068904 C14.8572188,16.687366 14.0269586,17.3820626 13.6945242,17.9270632 C13.2896915,18.5907567 12.8006356,19.2125929 12.1161904,19.6174457 C10.4025323,20.630998 8.22587264,20.2378246 6.95394542,18.6849813 C5.68201819,17.132138 5.68201819,14.8679178 6.95394542,13.3150745 C8.22587264,11.7622312 10.4025323,11.3690578 12.1161904,12.3826101 C12.8008283,12.7876133 13.2898383,13.4098535 13.6949279,14.0739512 C14.1744982,14.8602095 15.1346205,15.148324 15.9039403,14.6933064 C16.9381306,14.0816573 16.7855729,13.003375 16.4840354,12.4224094 C16.1255112,11.7316599 15.8445318,10.9869018 15.8445318,10.1776004 C15.844464,8.15047962 17.2651504,6.41592057 19.2138715,6.06387171 C21.1625926,5.71182285 23.0767587,6.84391954 23.7535615,8.74878382 C24.4303642,10.6536481 23.6744127,12.7813518 21.9607258,13.7949054 C21.2706662,14.2030473 20.4934296,14.3215335 19.7235503,14.3490781 C18.8232218,14.381284 18.1134664,15.1031305 18.1134664,16.0000561 C18.1134664,17.2038822 19.0772398,17.6279439 19.72322,17.6510528 C20.4931636,17.6785975 21.2704736,17.7969333 21.9607258,18.2052162 Z"/>
</svg>
