<svg xmlns="http://www.w3.org/2000/svg" width="32" height="32" viewBox="0 0 32 32">
  <g fill="#FFF" fill-rule="evenodd">
    <path d="M16,32 C7.163444,32 0,24.836556 0,16 C0,7.163444 7.163444,0 16,0 C24.836556,0 32,7.163444 32,16 C32,24.836556 24.836556,32 16,32 Z M16,30 C23.7319865,30 30,23.7319865 30,16 C30,8.2680135 23.7319865,2 16,2 C8.2680135,2 2,8.2680135 2,16 C2,23.7319865 8.2680135,30 16,30 Z M6.67145937,17.562087 C5.26361893,16.1504339 6.34908954,15.7103197 7.38220394,14.7518148 L8.5019769,13.7130061 C8.79834915,13.4382062 9.25164561,13.4381338 9.54809008,13.7130061 L11.5471585,15.5675975 C12.0965015,16.0772988 12.9407003,16.0772988 13.4901877,15.5675975 L15.4891839,13.7130061 C15.785484,13.4381338 16.2389971,13.4381338 16.5352249,13.7130061 L18.5344377,15.5675975 C19.0837086,16.0772988 19.9279795,16.0772988 20.4773225,15.5675975 L22.4763187,13.7130061 C22.7727632,13.4381338 23.2293816,13.4346581 23.5225041,13.7130061 L24.7420789,14.8714378 C25.7303475,15.8102469 26.6796919,16.2106799 25.3322958,17.5616526 L17.5593846,25.3556866 C16.7025481,26.2147711 15.3007016,26.2147711 14.4440095,25.3556866 L6.67145937,17.562087 Z"/>
    <path fill-opacity=".6" d="M22.5197925,11.6178653 L17.5596734,6.64431338 C16.7029814,5.78522887 15.3011349,5.78522887 14.4443706,6.64431338 L9.49450621,11.6075829 C9.20853298,11.8943306 9.20853298,12.3620334 9.49450621,12.6487087 L10.9960823,14.1543514 L11.9955443,15.0816471 C12.2919888,15.3567366 12.7454297,15.3567366 13.0416575,15.0816471 L15.0407981,13.2271281 C15.5900689,12.7174992 16.4344121,12.7174992 16.9835385,13.2272005 L18.9827513,15.0816471 C19.2790514,15.3567366 19.7325645,15.3567366 20.0287923,15.0816471 L21.0284709,14.1544238 L22.5197925,12.6590635 C22.8057657,12.3722434 22.8057657,11.9046129 22.5197925,11.6178653 Z"/>
  </g>
</svg>
