<svg width="32" height="32" viewBox="0 0 32 32" version="1.1" xmlns="http://www.w3.org/2000/svg" xmlns:xlink="http://www.w3.org/1999/xlink"><title>svg/black/$pac</title><desc>Created with Sketch.</desc><g id="black/$pac" stroke="none" stroke-width="1" fill="none" fill-rule="evenodd"><circle id="Combined-Shape" fill="#000" fill-rule="nonzero" cx="16" cy="16" r="16"/><g id="PAC-($PAC)" transform="translate(4.000000, 4.000000)" fill="#FFF" fill-rule="nonzero"><path d="M11.9351351,-7.68154275e-16 C5.34234804,0.0011942373 -0.00119377361,5.34667224 3.91601452e-07,11.9394593 C0.00119455681,18.5322464 5.3466725,23.8757883 11.9394596,23.8745942 C18.5322467,23.8734001 23.8757886,18.5279222 23.8745946,11.9351351 C23.8740212,8.76916703 22.6157953,5.73309652 20.3767123,3.49482449 C18.1376293,1.25655246 15.1011032,-0.000573492995 11.9351351,-7.68154275e-16 Z M7.08756757,5.23027027 C7.08813601,5.1975825 7.10166891,5.16645995 7.1251881,5.14375177 C7.14870728,5.12104359 7.18028538,5.10861069 7.21297297,5.10918919 L12.1859459,5.10918919 C13.2293038,5.08998856 14.2636884,5.30499281 15.212973,5.73837838 C15.3939371,5.82614245 15.5700475,5.92358061 15.7405405,6.03027027 L12.5037838,7.88324324 L10.8151351,7.88324324 C10.7824474,7.88381168 10.7513248,7.89734459 10.7286166,7.92086378 C10.7059085,7.94438296 10.6934756,7.97596105 10.6940541,8.00864865 L10.6940541,8.94054054 L7.08756757,11.027027 L7.08756757,5.23027027 Z M5.74918919,15.7081081 L3.58702703,13.5243243 L10.707027,9.41621622 L10.707027,12.0778378 C10.7075955,12.1105256 10.7211284,12.1416482 10.7446476,12.1643563 C10.7681667,12.1870645 10.7997448,12.1994974 10.8324324,12.1989189 L11.8486486,12.1989189 L5.75567568,15.7081081 L5.74918919,15.7081081 Z M16.4108108,13.6778378 C15.3672072,14.5499099 13.9344144,14.9859459 12.1124324,14.9859459 L10.8151351,14.9859459 C10.7470698,14.9859459 10.6918919,15.0411238 10.6918919,15.1091892 L10.6918919,17.7967568 L8.88216216,18.8389189 L7.19135135,19.8162162 L7.08540541,19.8767568 L7.08540541,15.4205405 L12.6875676,12.1967568 C13.1664963,12.1823134 13.6253449,12.0010682 13.9848649,11.6843243 C14.1125298,11.5574788 14.21975,11.411601 14.3027027,11.2518919 L17.8810811,9.18054054 C17.940975,9.50866475 17.9706488,9.84159065 17.9697297,10.1751351 C17.9740541,11.6381982 17.4544144,12.8057658 16.4108108,13.6778378 Z M14.4908108,10.6594595 C14.5145542,10.5056281 14.5268402,10.3502458 14.5275676,10.1945946 C14.5578678,9.58583272 14.3570774,8.98809517 13.9654054,8.52108108 C13.7455925,8.27713229 13.4639596,8.09709641 13.1502703,8 L18.1232432,5.12864865 L20.3048649,7.31243243 L14.4908108,10.6594595 Z" id="Shape"/></g></g></svg>