<svg height="32" width="32" xmlns="http://www.w3.org/2000/svg"><path d="M16 32C7.163 32 0 24.837 0 16S7.163 0 16 0s16 7.163 16 16-7.163 16-16 16zM9.009 19.198h-.003v6.466c0 .07-.02.153.01.21.03.057.115.132.167.126.252-.029.505-.07.751-.129a3.587 3.587 0 0 0 1.666-.9c.79-.756 1.202-1.667 1.195-2.774-.02-2.84-.012-5.678-.01-8.517.001-.275.03-.552.062-.825.087-.742.428-1.373.926-1.923.576-.636 1.296-1.019 2.15-1.179a3.771 3.771 0 0 1 2.081.187c.576.22 1.068.565 1.48 1.022.134.148.267.31.435.413.357.218.772.3 1.182.313.845.027 1.692.01 2.539.009.227 0 .292-.094.214-.31-.068-.188-.146-.372-.22-.557a7.752 7.752 0 0 0-1.726-2.621 7.302 7.302 0 0 0-1.836-1.307 7.21 7.21 0 0 0-1.97-.687c-.487-.091-.979-.193-1.47-.21-.854-.031-1.691.11-2.507.373a7.504 7.504 0 0 0-2.693 1.542A7.079 7.079 0 0 0 9.58 10.5c-.343.813-.57 1.654-.571 2.543v6.155zm4.506-3.502c-.008.079-.014.11-.014.142 0 1.445.002 2.89-.003 4.335 0 .175.096.24.24.278.258.07.513.15.775.204.466.095.934.229 1.405.247.71.027 1.43.017 2.134-.07.536-.068 1.072-.234 1.575-.436 1.12-.45 2.014-1.206 2.764-2.135a9.045 9.045 0 0 0 1.57-2.89c.073-.22.06-.234-.186-.235-.748-.002-1.496-.008-2.244.002a6.98 6.98 0 0 0-.994.076c-.32.05-.617.185-.818.452-.678.897-1.596 1.397-2.706 1.541-.7.091-1.381-.048-2.024-.343-.573-.264-1.043-.659-1.474-1.168z" fill-rule="evenodd"/></svg>