<?xml version="1.0" encoding="UTF-8"?>
<svg width="32px" height="32px" viewBox="0 0 32 32" version="1.1" xmlns="http://www.w3.org/2000/svg" xmlns:xlink="http://www.w3.org/1999/xlink">
    <!-- Generator: Sketch 53 (72520) - https://sketchapp.com -->
    <title>svg/black/0xbtc</title>
    <desc>Created with Sketch.</desc>
    <g id="black/0xbtc" stroke="none" stroke-width="1" fill="none" fill-rule="evenodd">
        <path d="M16,32 C7.163444,32 0,24.836556 0,16 C0,7.163444 7.163444,0 16,0 C24.836556,0 32,7.163444 32,16 C32,24.836556 24.836556,32 16,32 Z M15.9999348,27.2582225 C22.2177424,27.2582225 27.2582715,22.2177551 27.2582715,16.0000234 C27.2582715,9.7822917 22.2177424,4.74182426 15.9999348,4.74182426 C9.78212707,4.74182426 4.74159802,9.7822917 4.74159802,16.0000234 C4.74159802,22.2177551 9.78212707,27.2582225 15.9999348,27.2582225 Z M16.0000415,26.5960463 C10.1480648,26.5960463 5.40410045,21.8520155 5.40410045,15.9999568 C5.40410045,10.1478982 10.1480648,5.40386738 16.0000415,5.40386738 C21.8520181,5.40386738 26.5959825,10.1478982 26.5959825,15.9999568 C26.5959825,21.8520155 21.8520181,26.5960463 16.0000415,26.5960463 Z M14.089412,24.1324664 C14.3377566,24.0298173 15.307956,23.2814723 16.2450428,22.4768359 C17.5629247,21.3443847 18.341071,20.6192185 19.5927276,19.3642506 C20.6192185,18.3377598 21.0000135,17.897362 21.0629275,17.668885 C21.284782,16.8675599 18.8576277,8.06291709 18.3642498,7.87417522 C18.0629251,7.75828109 15.37087,9.99669348 12.9867621,12.3410662 C11.58941,13.7152395 11.2019925,14.1721935 11.1721911,14.470207 C11.1523235,14.7019953 11.2317938,15.2814659 11.3808005,15.9668969 C11.9735162,18.6887534 13.0529873,22.4503458 13.5993454,23.6854461 C13.8278224,24.2086254 13.8543125,24.2318042 14.089412,24.1324664 Z" id="Combined-Shape" fill="#000000" fill-rule="nonzero"></path>
        <g id="0xbtc" transform="translate(4.000000, 4.000000)"></g>
    </g>
</svg>