<svg width="33" height="32" viewBox="0 0 33 32" fill="none" xmlns="http://www.w3.org/2000/svg">
<g clip-path="url(#clip0)">
<path d="M16.5556 32C25.3922 32 32.5556 24.8366 32.5556 16C32.5556 7.16344 25.3922 0 16.5556 0C7.71905 0 0.555603 7.16344 0.555603 16C0.555603 24.8366 7.71905 32 16.5556 32Z" fill="black"/>
<g clip-path="url(#clip1)">
<path d="M11.3151 17.0193L11.8442 12.795L7.25452 9.40952L11.4481 10.9188L12.4384 9.30429L16.0547 6.92004L24.0259 11.5863L24.439 18.706L20.8878 23.9495L18.0808 24.4065L19.5324 21.5833V18.8653L18.4769 16.7427L17.4045 15.988L15.7548 17.795V19.7072L14.4673 20.988L12.8318 21.1985L12.1074 21.6344L10.9189 21.2315L10.4237 19.3374L11.3151 18.0054V17.0193Z" fill="black"/>
<path d="M18.6439 9.37341C17.7695 9.18099 16.8131 9.2321 16.8131 9.2321C16.8131 9.2321 16.499 10.7745 14.5522 11.1804C14.5663 11.1804 17.1243 12.1094 18.6439 9.37341Z" fill="black"/>
<path d="M19.4362 23.3692C20.4916 22.4913 21.2839 21.2826 21.649 19.9146C21.6659 19.8635 21.8131 19.7733 21.9121 19.7042C22.0762 19.5989 22.2432 19.5117 22.2743 19.3704C22.3394 18.9675 22.3734 18.5466 22.3734 18.1257C22.3734 17.9693 22.2234 17.81 22.0762 17.6537C21.9602 17.5484 21.8442 17.4251 21.8442 17.338C21.6801 15.7414 20.9868 14.2502 19.8804 13.1648L19.7644 13.288C20.8369 14.3584 21.5301 15.8136 21.6801 17.356C21.6971 17.4973 21.8272 17.6356 21.9602 17.7769C22.0762 17.8822 22.2092 18.0415 22.2092 18.1107C22.2092 18.5135 22.1753 18.9164 22.1102 19.3193C22.0932 19.3885 21.9461 19.4606 21.8301 19.5298C21.6659 19.617 21.516 19.7042 21.4848 19.8455C21.0887 21.3368 20.1804 22.6356 18.9749 23.4775C19.19 22.9874 19.8663 21.3909 20.2285 20.5821L20.1634 17.9874L18.0666 15.8316L16.8782 16.006L15.5737 18.252C15.5737 18.252 16.1849 19.0758 15.3247 20.0409C14.4843 20.988 13.8221 21.1984 13.8221 21.1984L13.2109 20.8467C13.392 20.6001 13.7571 20.2333 14.0372 19.9868C14.5154 19.5659 14.9936 19.5298 14.9936 19.0758C15.0134 18.1257 14.0542 18.3873 14.0542 18.3873L13.7061 18.739L13.559 20.0379L12.8346 21.003L12.7525 20.985L11.5641 20.7054C11.5641 20.7054 12.2913 20.3025 12.4073 19.8455C12.5233 19.4065 12.1753 17.9513 12.1583 17.8641C12.1753 17.8822 12.5064 18.1798 12.6535 18.6699C12.9167 17.8972 13.2647 17.1606 13.3637 17.0914C13.4628 17.0223 14.7984 16.2676 14.7984 16.2676L14.3541 17.5123L14.6852 17.3199L15.4775 15.2514C15.4775 15.2514 16.2528 14.8485 16.8301 14.8485C17.8685 14.8304 19.405 13.4805 18.7118 11.0602C18.9099 11.1473 22.3422 12.9724 22.9365 16.5502C23.3807 19.3013 21.9121 21.8779 19.4362 23.3692Z" fill="black"/>
<path d="M15.5086 9.75826C15.8878 9.28322 15.7406 8.58267 15.7406 8.58267L14.6342 10.3205C14.6173 10.3205 15.0276 10.3385 15.5086 9.75826Z" fill="white"/>
<path d="M11.7933 19.2472L11.9263 18.5466C11.9263 18.5466 11.3802 19.5629 11.3321 19.7042C11.2811 19.8635 11.366 20.1432 11.5783 20.1251C11.7933 20.1071 12.0565 19.7733 12.0565 19.5298C12.0565 19.2141 11.7933 19.2472 11.7933 19.2472Z" fill="white"/>
<path d="M21.5975 8.09254C21.5975 8.09254 22.4237 8.12862 23.2811 8.23385C21.3485 6.6193 19.5177 6.14726 18.0321 6.14726C15.9863 6.14726 14.5997 7.04323 14.5149 7.09435L15.16 6.00595C15.16 6.00595 12.585 5.74137 11.6767 8.63674C11.4447 8.02339 11.2325 7.12742 11.2325 7.12742C11.2325 7.12742 9.89403 8.37516 10.5222 10.4437C8.98571 9.8484 6.79273 9.02159 6.70784 9.00655C6.59182 8.98851 6.55786 9.04263 6.55786 9.04263C6.55786 9.04263 6.52391 9.09374 6.62295 9.18394C6.80687 9.33728 10.2732 12.0583 11.0344 12.5844C10.8703 13.2158 10.8703 13.5135 11.0344 13.8111C11.2664 14.214 11.2806 14.4245 11.2494 14.7221C11.2155 15.0198 10.9184 17.5995 10.8533 17.9152C10.7882 18.2308 10.0949 19.3523 10.1261 19.686C10.16 20.0198 10.5873 21.4389 10.9693 21.5983C11.2494 21.7035 11.9427 21.932 12.4039 21.932C12.5681 21.932 12.718 21.8959 12.7831 21.8268C13.0632 21.5652 13.1453 21.5111 13.3434 21.5111C13.3604 21.5111 13.3773 21.5111 13.3915 21.5111C13.4735 21.5111 13.5726 21.5291 13.6886 21.5291C13.9518 21.5291 14.2998 21.475 14.546 21.2314C14.9082 20.8466 15.5364 20.3204 15.7344 20.0739C15.9834 19.7402 16.1136 19.2862 16.0485 18.8292C15.9976 18.4082 16.2126 18.0384 16.4617 17.6716C16.7757 17.2327 17.353 16.4449 17.353 16.4449C18.4933 17.3529 19.2036 18.739 19.2036 20.2814C19.2036 23.0174 16.9597 25.2272 14.1866 25.2272C13.7565 25.2272 13.3462 25.1761 12.9331 25.0709C14.2036 25.5429 15.276 25.7023 16.1532 25.7023C18.018 25.7023 19.0083 24.9837 19.0083 24.9837C19.0083 24.9837 18.6631 25.4587 18.1 25.9999C18.117 25.9999 18.117 25.9999 18.117 25.9999C21.2042 25.5429 22.7067 22.843 22.7067 22.843C22.7067 22.843 22.5907 23.7209 22.4435 24.3162C26.5494 21.036 25.8561 16.932 25.8391 16.7937C25.8731 16.8448 26.2862 17.371 26.4984 17.6536C27.1606 10.4257 21.5975 8.09254 21.5975 8.09254ZM15.276 19.6349C15.2109 19.7221 14.9308 19.9867 14.7327 20.1791C14.5347 20.3716 14.3196 20.564 14.1555 20.7414C14.0904 20.8105 13.9574 20.8466 13.7593 20.8466C13.6943 20.8466 13.6263 20.8466 13.5782 20.8466C13.5443 20.8466 13.5132 20.8466 13.4792 20.8466C13.4452 20.8466 13.4283 20.8466 13.4141 20.8466C13.3632 20.8466 13.3151 20.8466 13.2641 20.8466C13.5132 20.4948 14.2375 19.6891 14.4866 19.5147C14.7837 19.3042 14.9336 19.0937 14.7497 18.7269C14.5686 18.3571 14.0904 18.4473 14.0904 18.4473C14.0904 18.4473 14.3705 18.3241 14.6196 18.3241C14.3055 18.2369 13.9093 18.3241 13.7282 18.5165C13.5301 18.7089 13.5641 19.3944 13.482 19.8304C13.4 20.2874 13.1198 20.5159 12.6897 20.9368C12.4577 21.1653 12.2936 21.2345 12.1606 21.2345C11.8804 21.1833 11.5494 21.0931 11.3173 21.006C11.1532 20.7774 10.9042 20.0228 10.8391 19.7071C10.8872 19.5327 11.0853 19.1629 11.1844 18.9524C11.3824 18.5495 11.4984 18.321 11.5324 18.1106C11.5975 17.8129 11.8125 15.9699 11.8946 15.2002C12.1096 15.4978 12.4068 15.9909 12.3388 16.3066C12.8171 15.588 12.4718 14.8845 12.3049 14.6049C12.1578 14.3253 11.9597 13.763 12.1238 13.1677C12.2879 12.5724 12.8821 10.9218 12.8821 10.9218C12.8821 10.9218 13.0802 11.2916 13.3604 11.2194C13.6405 11.1503 15.9014 7.53632 15.9014 7.53632C15.9014 7.53632 16.5126 8.95544 15.8674 9.99272C15.2081 11.027 14.563 11.2194 14.563 11.2194C14.563 11.2194 15.4713 11.3938 16.3117 10.7444C16.6569 11.6043 16.988 12.4972 17.0049 12.6205C16.954 12.7438 16.2947 14.4275 16.2296 14.5327C16.1957 14.5688 15.9665 14.6379 15.7995 14.674C15.5194 14.7612 15.3553 14.8153 15.2873 14.8664C15.1713 14.9717 14.6422 16.5141 14.396 17.2687C14.0989 17.3559 13.8018 17.5333 13.5867 17.8821C13.7027 17.7949 14.0649 17.7408 14.3309 17.7077C14.563 17.6897 15.2704 18.0925 15.4543 18.8472C15.4543 18.8652 15.4543 18.8652 15.4543 18.8833C15.4911 19.1599 15.409 19.4245 15.276 19.6349ZM13.7254 19.8454C13.8754 19.6169 13.8584 19.232 13.8754 19.1088C13.8923 18.9855 13.9235 18.757 14.0564 18.7239C14.1894 18.6879 14.5035 18.742 14.5035 18.9855C14.5035 19.214 14.2715 19.2651 14.1074 19.4245C13.9885 19.5447 13.7565 19.8093 13.7254 19.8454ZM20.31 16.493C20.4741 15.6001 20.4911 14.8274 20.443 14.196C21.0853 15.107 21.4815 16.2134 21.5975 17.3529C21.6145 17.4942 21.7446 17.6325 21.8776 17.7738C21.9936 17.8791 22.1266 18.0204 22.1266 18.1076C22.1266 18.5105 22.0927 18.9133 22.0276 19.3192C22.0106 19.3704 21.8635 19.4606 21.7475 19.5297C21.5833 19.6169 21.4334 19.7041 21.4022 19.8454C21.04 21.1954 20.2619 22.389 19.2234 23.2308C20.7571 21.5291 21.4984 18.7209 20.31 16.493ZM19.2715 23.3872C20.3439 22.5093 21.1702 21.2826 21.5324 19.8965C21.5494 19.8454 21.6965 19.7552 21.7956 19.686C21.9597 19.5989 22.1266 19.4936 22.1578 19.3523C22.2228 18.9494 22.2568 18.5285 22.2568 18.1076C22.2568 17.9512 22.1068 17.7919 21.9597 17.6355C21.8776 17.5303 21.7446 17.407 21.7446 17.3198C21.6116 16.039 21.1334 14.8304 20.392 13.8292C20.061 11.7245 18.7424 11.0751 18.7084 11.0571C18.7424 11.1112 19.5997 12.4251 19.0055 13.9675C18.3943 15.5279 16.8267 15.2844 16.6937 15.2994C16.5607 15.2994 16.0514 15.9999 15.4062 17.2988C15.3241 17.2627 14.9761 17.1755 14.5799 17.2477C14.8771 16.3698 15.3241 15.125 15.4062 15.0198C15.4402 14.9837 15.6863 14.9145 15.8533 14.8634C16.1674 14.7762 16.3145 14.7221 16.3654 14.653C16.3994 14.5989 16.5635 14.196 16.7276 13.775C16.8776 13.775 17.2568 13.739 17.2879 13.7209C17.3219 13.6848 17.636 12.828 17.636 12.7227C17.636 12.6355 16.9908 10.9338 16.7446 10.2844C16.8606 10.1431 16.9767 9.96867 17.0898 9.77625C20.4741 10.1641 23.117 13.2158 23.117 16.9139C23.117 19.7552 21.5494 22.2296 19.2715 23.3872Z" fill="white"/>
<path d="M14.8805 13.9164C15.1946 13.5316 15.0304 12.813 14.4504 12.6897C14.6003 12.3229 14.8126 11.5863 14.8126 11.5863C14.8126 11.5863 13.1289 14.3915 12.9818 14.4456C12.8318 14.4997 12.6846 13.8834 12.6846 13.8834C12.3706 15.1642 13.2138 15.3385 13.3128 14.9357C13.7741 14.8094 14.5664 14.2832 14.8805 13.9164Z" fill="white"/>
<path d="M13.443 14.5989L14.3004 13.0385C14.3004 13.0385 14.7956 13.3031 14.5466 13.724C14.2353 14.2141 13.443 14.5989 13.443 14.5989Z" fill="white"/>
<path d="M24.057 21.8268C23.808 22.1786 23.5279 22.5454 23.1996 22.8972C25.3275 18.5466 23.2987 14.5659 23.2166 14.4095C23.3666 14.5689 23.5137 14.7432 23.6467 14.8996C25.2794 16.8268 25.4775 19.7222 24.057 21.8268Z" fill="black"/>
<path d="M26.0378 16.2315C25.2936 14.1089 24.2381 12.3019 21.9121 10.6723C19.6682 9.09382 17.2573 9.21709 17.1243 9.23513C17.1074 9.23513 17.0904 9.23513 17.0904 9.23513C17.1725 9.19905 17.2545 9.18101 17.3366 9.16598C17.8487 8.9916 18.5081 8.85029 19.1702 8.76309C20.9218 8.49551 22.6875 9.1269 23.8929 10.4799C23.9099 10.4979 23.9099 10.4979 23.9269 10.516C25.2964 12.0583 26.0067 13.9856 26.0378 16.2315Z" fill="black"/>
<path d="M21.383 7.54839C18.9241 7.05831 17.3394 7.30185 16.1991 7.75885C16.1651 7.61754 16.0491 7.33793 15.9501 7.10942C15.6077 7.54839 15.2427 8.07455 15.0135 8.40828C14.3853 8.86528 14.1221 9.30425 14.1221 9.30425C14.4843 7.98735 15.5426 7.0072 16.8301 6.76066C17.1923 6.69151 17.5885 6.65543 18.0186 6.65543C19.1561 6.67347 20.2936 6.97112 21.383 7.54839Z" fill="black"/>
<path d="M12.2885 10.9158C10.3587 10.8467 11.001 8.45944 11.0349 8.32114C11.0349 8.33918 11.1651 10.1973 12.2885 10.9158Z" fill="black"/>
<path d="M14.1872 6.61938C12.7016 7.56647 12.9987 9.82744 12.9987 9.82744C11.5782 7.5334 14.0712 6.6735 14.1872 6.61938Z" fill="black"/>
<path d="M11.7452 11.5472C11.8442 11.6344 11.9433 11.7937 11.8273 12.0222C11.7622 12.1455 11.6631 12.1275 11.5132 12.0583C11.3151 11.9531 10.1266 11.2165 9.0542 10.4618C10.2766 10.9188 11.5132 11.4089 11.7112 11.5141C11.7112 11.5141 11.7282 11.5321 11.7452 11.5472Z" fill="black"/>
</g>
</g>
<defs>
<clipPath id="clip0">
<rect width="32" height="32" fill="white" transform="translate(0.555603)"/>
</clipPath>
<clipPath id="clip1">
<rect width="20" height="20" fill="white" transform="translate(6.5556 6)"/>
</clipPath>
</defs>
</svg>
