<?xml version="1.0" encoding="UTF-8"?>
<svg width="32px" height="32px" viewBox="0 0 32 32" version="1.1" xmlns="http://www.w3.org/2000/svg" xmlns:xlink="http://www.w3.org/1999/xlink">
    <!-- Generator: Sketch 52.2 (67145) - http://www.bohemiancoding.com/sketch -->
    <title>svg/black/2give</title>
    <desc>Created with Sketch.</desc>
    <g id="black/2give" stroke="none" stroke-width="1" fill="none" fill-rule="evenodd">
        <path d="M16,32 C7.163444,32 0,24.836556 0,16 C0,7.163444 7.163444,0 16,0 C24.836556,0 32,7.163444 32,16 C32,24.836556 24.836556,32 16,32 Z M15.263,24.856 L15.263,26.319 L16,26.319 L16,24.13 L14.537,24.13 L14.537,24.856 L15.263,24.856 Z M7.926,16.826 L7.2,16.826 L7.2,20.478 L7.926,20.478 L7.926,19.015 L8.663,19.015 L8.663,17.552 L7.926,17.552 L7.926,16.826 Z M16.737,21.204 L16.737,23.393 L17.463,23.393 L17.463,21.204 L16.737,21.204 Z M16,23.393 L16,24.13 L16.737,24.13 L16.737,23.393 L16,23.393 Z M8.663,22.667 L8.663,24.856 L10.863,24.856 L10.863,22.667 L8.663,22.667 Z M7.2,15.363 L7.2,16.089 L7.937,16.089 L7.937,15.363 L7.2,15.363 Z M11.6,13.9 L11.6,14.637 L12.337,14.637 L12.337,13.9 L11.6,13.9 Z M16,13.163 L16,14.626 L16.737,14.626 L16.737,13.163 L16,13.163 Z M6.463,10.974 L6.463,13.163 L8.663,13.163 L8.663,10.974 L6.463,10.974 Z M13.063,24.856 L13.063,26.319 L13.8,26.319 L13.8,24.856 L13.063,24.856 Z M13.8,13.163 L13.074,13.163 L13.074,14.626 L13.8,14.626 L13.8,13.9 L14.537,13.9 L14.537,12.437 L13.8,12.437 L13.8,13.163 Z M14.537,11.711 L14.537,12.437 L15.263,12.437 L15.263,11.711 L14.537,11.711 Z M14.537,13.9 L14.537,14.626 L15.263,14.626 L15.263,13.9 L14.537,13.9 Z M10.863,15.363 L10.863,16.089 L13.063,16.089 L13.063,15.363 L10.863,15.363 Z M13.8,12.437 L13.8,11.711 L14.526,11.711 L14.526,10.974 L13.8,10.974 L13.8,9.522 L11.6,9.522 L11.6,10.248 L13.063,10.248 L13.063,10.974 L12.326,10.974 L12.326,11.7 L11.6,11.7 L11.6,12.426 L10.874,12.426 L10.874,11.711 L10.126,11.711 L10.126,10.985 L10.863,10.985 L10.863,11.7 L11.6,11.7 L11.6,10.974 L10.874,10.974 L10.874,9.522 L5,9.522 L5,14.637 L10.874,14.637 L10.874,13.9 L11.6,13.9 L11.6,12.437 L12.337,12.437 L12.337,13.163 L13.074,13.163 L13.074,12.437 L13.8,12.437 Z M9.4,13.9 L5.737,13.9 L5.737,10.248 L9.4,10.248 L9.4,13.9 Z M10.126,13.9 L10.126,12.437 L10.863,12.437 L10.863,13.9 L10.126,13.9 Z M13.063,11.7 L13.063,10.985 L13.8,10.985 L13.8,11.7 L13.063,11.7 Z M18.937,19.741 L18.937,19.015 L17.463,19.015 L17.463,17.552 L16.737,17.552 L16.737,18.278 L16.011,18.278 L16.011,17.552 L16.737,17.552 L16.737,15.352 L15.274,15.352 L15.274,16.089 L14.526,16.089 L14.526,17.552 L13.8,17.552 L13.8,18.278 L14.537,18.278 L14.537,17.552 L15.263,17.552 L15.263,19.741 L13.8,19.741 L13.8,19.015 L13.063,19.015 L13.063,17.552 L12.337,17.552 L12.337,16.826 L10.863,16.826 L10.863,16.1 L10.126,16.1 L10.126,15.374 L8.663,15.374 L8.663,16.1 L7.926,16.1 L7.926,16.826 L8.663,16.826 L8.663,17.552 L9.4,17.552 L9.4,16.826 L10.137,16.826 L10.137,17.552 L9.4,17.552 L9.4,18.278 L10.137,18.278 L10.137,19.004 L10.863,19.004 L10.863,18.278 L11.6,18.278 L11.6,17.552 L12.326,17.552 L12.326,18.278 L11.6,18.278 L11.6,19.004 L10.874,19.004 L10.874,20.467 L12.337,20.467 L12.337,21.204 L10.863,21.204 L10.863,20.478 L10.126,20.478 L10.126,21.204 L8.663,21.204 L8.663,20.478 L7.937,20.478 L7.937,21.204 L7.2,21.204 L7.2,26.319 L12.337,26.319 L12.337,21.93 L13.063,21.93 L13.063,24.13 L14.537,24.13 L14.537,23.404 L15.274,23.404 L15.274,21.93 L14.537,21.93 L14.537,21.204 L13.8,21.204 L13.8,21.93 L13.074,21.93 L13.074,20.467 L15.274,20.467 L15.274,21.193 L16.011,21.193 L16.011,19.741 L17.463,19.741 L17.463,20.478 L18.2,20.478 L18.2,19.741 L18.937,19.741 Z M11.6,25.582 L7.937,25.582 L7.937,21.93 L11.6,21.93 L11.6,25.582 Z M12.337,19.741 L11.6,19.741 L11.6,19.015 L12.337,19.015 L12.337,19.741 Z M13.8,22.667 L14.537,22.667 L14.537,23.393 L13.8,23.393 L13.8,22.667 Z M18.937,9.522 L18.937,10.974 L19.663,10.974 L19.663,9.522 L18.937,9.522 Z M17.463,9.522 L16.737,9.522 L16.737,11.711 L16,11.711 L16,12.437 L16.737,12.437 L16.737,13.163 L17.463,13.163 L17.463,14.626 L18.2,14.626 L18.2,13.163 L18.937,13.163 L18.937,14.637 L19.663,14.637 L19.663,13.9 L20.4,13.9 L20.4,12.437 L18.937,12.437 L18.937,10.974 L17.463,10.974 L17.463,9.522 Z M24.063,17.552 L22.6,17.552 L22.6,18.278 L21.863,18.278 L21.863,19.015 L21.137,19.015 L21.137,16.826 L21.863,16.826 L21.863,16.089 L21.137,16.089 L21.137,16.815 L20.4,16.815 L20.4,17.552 L19.663,17.552 L19.663,16.089 L18.937,16.089 L18.937,17.552 L18.2,17.552 L18.2,18.289 L18.937,18.278 L19.663,18.278 L19.663,19.741 L21.863,19.741 L21.863,20.478 L19.663,20.478 L19.663,21.204 L18.937,21.204 L18.937,21.93 L18.2,21.93 L18.2,22.667 L18.937,22.667 L18.937,23.393 L18.2,23.393 L18.2,24.13 L18.937,24.13 L18.937,24.856 L19.663,24.856 L19.663,25.582 L18.937,25.582 L18.937,26.319 L24.8,26.319 L24.8,21.93 L24.063,21.93 L24.063,25.582 L20.4,25.582 L20.4,21.93 L22.6,21.93 L22.6,19.015 L23.337,19.015 L23.337,19.741 L24.8,19.741 L24.8,18.289 L24.074,18.289 L24.074,17.552 L24.8,17.552 L24.8,15.363 L24.063,15.363 L24.063,17.552 Z M18.2,20.478 L18.2,21.204 L18.937,21.204 L18.937,20.478 L18.2,20.478 Z M21.863,16.826 L21.863,17.552 L22.6,17.552 L22.6,16.826 L21.863,16.826 Z M23.337,20.478 L23.337,21.215 L24.8,21.215 L24.8,20.478 L23.337,20.478 Z M23.337,10.985 L23.337,13.174 L25.537,13.174 L25.537,10.985 L23.337,10.985 Z M20.4,13.9 L20.4,14.637 L21.137,14.637 L21.137,13.9 L20.4,13.9 Z M17.463,15.363 L17.463,16.089 L18.2,16.089 L18.2,15.363 L17.463,15.363 Z M22.6,15.363 L22.6,16.089 L23.337,16.089 L23.337,15.363 L22.6,15.363 Z M21.137,22.667 L21.137,24.856 L23.337,24.856 L23.337,22.667 L21.137,22.667 Z M20.4,15.363 L20.4,16.089 L21.137,16.089 L21.137,15.363 L20.4,15.363 Z M15.263,10.974 L15.263,11.711 L16,11.711 L16,10.974 L15.263,10.974 Z M20.4,9.522 L20.4,10.248 L21.863,10.248 L21.863,10.974 L21.126,10.974 L21.126,11.7 L20.4,11.7 L20.4,10.974 L19.663,10.974 L19.663,11.711 L20.4,11.711 L20.4,12.426 L21.137,12.426 L21.137,13.152 L21.874,13.152 L21.874,14.615 L27,14.615 L27,9.522 L20.4,9.522 Z M26.263,13.9 L22.6,13.9 L22.6,10.248 L26.263,10.248 L26.263,13.9 Z M9.851,8.235 C10.357,8.576 10.929,8.642 11.38,8.664 C11.765,8.686 12.414,8.686 13.096,8.686 C14.361,8.686 15.846,8.708 16,8.708 C16.407,8.719 17.65,8.719 18.75,8.719 C19.432,8.719 20.07,8.708 20.466,8.697 C20.917,8.675 21.489,8.598 21.995,8.268 C22.633,7.839 22.952,7.135 22.952,6.178 C22.952,5.408 22.633,4.946 22.369,4.682 C21.654,3.989 20.554,4.033 20.191,4.044 L20.147,4.044 C19.927,4.044 19.135,4.165 18.2,4.693 C17.375,5.155 16.66,5.815 16.077,6.64 L16.011,6.805 L15.956,6.717 C15.34,5.793 14.537,5.166 13.646,4.66 C12.722,4.132 11.93,4.022 11.71,4.022 L11.666,4.022 C11.303,4.011 10.203,3.967 9.488,4.66 C9.004,5.122 8.905,5.727 8.905,6.156 C8.894,7.102 9.213,7.806 9.851,8.235 Z M18.739,5.771 C19.52,5.32 20.114,5.254 20.158,5.254 L20.235,5.254 C20.862,5.232 21.302,5.331 21.533,5.551 C21.676,5.694 21.753,5.892 21.753,6.178 C21.753,7.223 21.258,7.454 20.411,7.498 C19.696,7.531 18.035,7.52 16.957,7.509 C17.43,6.761 18.035,6.178 18.739,5.771 Z M10.313,5.518 C10.522,5.32 10.896,5.221 11.435,5.221 L11.699,5.221 C11.743,5.221 12.337,5.287 13.118,5.738 C13.822,6.145 14.427,6.728 14.911,7.476 C13.822,7.487 12.161,7.498 11.446,7.465 C10.599,7.421 10.104,7.19 10.104,6.145 C10.104,5.859 10.17,5.661 10.313,5.518 Z M17.463,24.856 L16.737,24.856 L16.737,26.319 L17.474,26.319 L17.474,24.856 L18.2,24.856 L18.2,24.13 L17.463,24.13 L17.463,24.856 Z" id="Combined-Shape" fill="#000000" fill-rule="nonzero"></path>
    </g>
</svg>