<svg width="32" height="32" viewBox="0 0 32 32" fill="none" xmlns="http://www.w3.org/2000/svg">
<g clip-path="url(#clip0)">
<path d="M31.9999 16.0027C32.0109 24.7573 24.9155 32 16.0027 32C7.08983 32 -0.00551585 24.7518 -5.78885e-05 15.9918C0.00540007 7.23179 7.08983 0 16.0081 0C24.9264 0 32.0163 7.25362 31.9999 16.0027Z" fill="black"/>
<path d="M28.2995 17.9894C28.2722 17.9348 28.294 17.8912 28.294 17.8475C28.3868 16.8978 27.781 16.0573 26.864 15.8608C26.2637 15.7353 25.7288 15.9045 25.2703 16.2975C24.7136 16.7723 24.1842 17.2799 23.6602 17.7929C23.0216 18.4206 22.3958 19.0592 21.7827 19.7087C21.3515 20.1671 20.8494 20.5219 20.249 20.7293C18.557 21.3079 16.7068 20.4018 16.0627 18.8299C15.9863 18.6389 15.9918 18.6007 16.1446 18.4697C16.4994 18.1586 16.8596 17.853 17.2144 17.5419C17.2253 17.5309 17.2362 17.5255 17.2471 17.5146C17.2908 17.4873 17.3235 17.4218 17.3781 17.4491C17.4327 17.4764 17.4 17.5364 17.4054 17.5801C17.4269 18.002 17.5953 18.4032 17.8813 18.7142C18.1674 19.0251 18.5531 19.2263 18.9718 19.283C19.8397 19.403 20.7075 18.8736 20.9695 18.044C21.2806 17.0616 20.7621 16.0846 19.7578 15.7626C19.1465 15.5661 18.5898 15.6971 18.104 16.101C17.7056 16.4284 17.3235 16.7723 16.936 17.1161C16.6795 17.3454 16.423 17.5801 16.161 17.8038C16.061 17.8897 15.9936 18.0072 15.97 18.1368C15.7626 19.1902 15.1731 19.9761 14.2398 20.4946C13.6553 20.8205 12.9837 20.956 12.3186 20.8821C11.5952 20.8203 10.9115 20.5253 10.3701 20.0416C9.98733 19.7059 9.68829 19.2853 9.49683 18.8136C9.48538 18.7909 9.47623 18.7671 9.46954 18.7426C9.45033 18.7027 9.44583 18.6573 9.45681 18.6143C9.46779 18.5714 9.49356 18.5337 9.52958 18.5079C9.65511 18.4042 9.77518 18.3005 9.90072 18.1968C10.1572 17.973 10.4138 17.7493 10.6757 17.5309C10.7194 17.4927 10.7631 17.4272 10.8177 17.4491C10.8722 17.4709 10.8504 17.5473 10.8559 17.6019C10.8685 18.0138 11.0181 18.4098 11.2811 18.7271C11.544 19.0444 11.9053 19.265 12.3077 19.3539C12.7627 19.4508 13.2375 19.3704 13.6352 19.1289C14.0328 18.8875 14.3233 18.5033 14.4472 18.0549C14.7747 16.8487 13.8195 15.6589 12.5751 15.7189C12.1959 15.7301 11.8319 15.8707 11.5436 16.1173C11.1888 16.4121 10.8395 16.7177 10.4956 17.0234C10.1409 17.3345 9.79156 17.651 9.43679 17.9621C9.38922 18.0009 9.3512 18.0502 9.32565 18.106C9.3001 18.1618 9.28771 18.2228 9.28943 18.2841V20.6529C9.28943 20.8767 9.25668 20.9094 9.0329 20.904C8.82261 20.9039 8.6148 20.8585 8.42361 20.7709C8.23242 20.6833 8.06234 20.5556 7.92494 20.3964C7.81578 20.2708 7.79395 20.2708 7.64658 20.3527C7.10624 20.6529 6.53316 20.8166 5.91641 20.7948C4.65016 20.7511 3.68411 20.1781 3.02915 19.0919C2.72081 18.58 2.56199 17.992 2.57068 17.3945C2.57127 16.6101 2.84753 15.8509 3.35117 15.2495C3.86422 14.6219 4.51917 14.2125 5.32149 14.0815C6.39125 13.9123 7.37368 14.1088 8.19784 14.8566C8.45969 15.0953 8.68743 15.3689 8.87462 15.6698C8.90146 15.7302 8.94751 15.7801 9.00561 15.8117C9.04564 15.7861 9.07827 15.7504 9.10029 15.7083C9.12231 15.6662 9.13295 15.619 9.13115 15.5715C9.12569 15.0312 9.13115 14.4909 9.13115 13.9451C9.13115 12.717 9.12933 11.4908 9.12569 10.2664C9.12569 10.0263 9.15298 9.99897 9.39859 9.99897C9.76076 9.99941 10.1101 10.1332 10.3799 10.3748C10.6497 10.6164 10.8211 10.9489 10.8613 11.3089C10.8722 11.3958 10.8777 11.4833 10.8777 11.5709V14.4363C10.8831 14.5673 10.9104 14.5837 11.0305 14.5236C11.3814 14.3378 11.7618 14.2141 12.1549 14.1579C13.1318 14.0215 14.0051 14.2671 14.7801 14.8784C15.0396 15.0869 15.2659 15.3335 15.4515 15.6097C15.4623 15.6292 15.4751 15.6475 15.4897 15.6643C15.5279 15.7189 15.5606 15.7789 15.6316 15.7899C15.6698 15.7953 15.7789 15.6534 15.7844 15.5934C15.7936 15.5192 15.7973 15.4444 15.7953 15.3696V11.5327C15.7953 10.7413 16.2865 10.1463 17.067 9.99897C17.1528 9.97883 17.2409 9.96966 17.329 9.97168C17.4436 9.97714 17.4927 10.0208 17.52 10.13C17.5381 10.216 17.5455 10.304 17.5419 10.3919V14.4254C17.5528 14.4963 17.5746 14.5182 17.6456 14.4909C17.7383 14.4527 17.8311 14.409 17.9239 14.3708C19.2338 13.8468 20.702 14.1634 21.6517 15.1786C21.9704 15.5219 22.2189 15.9242 22.3831 16.3629L22.4158 16.4612C22.4704 16.6031 22.4868 16.6086 22.6014 16.5049L24.1405 15.1458C24.5719 14.7525 25.0957 14.4747 25.6633 14.338C26.4598 14.1515 27.2969 14.2579 28.0214 14.6377C28.746 15.0175 29.3097 15.6454 29.6094 16.4066C29.6408 16.4689 29.6503 16.5398 29.6364 16.6081C29.6226 16.6765 29.5861 16.7381 29.533 16.7832C29.1564 17.1544 28.7907 17.5309 28.4141 17.9075C28.382 17.9425 28.343 17.9704 28.2995 17.9894Z" fill="white"/>
<path d="M26.8204 19.4685C26.8191 19.4893 26.813 19.5094 26.8026 19.5274C26.7921 19.5454 26.7777 19.5607 26.7604 19.5722C26.362 19.9706 25.9635 20.3691 25.5706 20.773C25.5385 20.8106 25.4951 20.8368 25.4469 20.8476C25.3986 20.8584 25.3482 20.8533 25.3031 20.833C24.3644 20.4837 23.7003 19.8487 23.311 18.9282C23.2509 18.7917 23.2618 18.7481 23.371 18.6553C23.7585 18.3169 24.1515 17.9785 24.539 17.6456C24.5635 17.6181 24.5959 17.5991 24.6318 17.591C24.67 17.6292 24.6591 17.6783 24.6645 17.722C24.6841 17.9787 24.7488 18.23 24.8556 18.4643C25.1121 18.9991 25.5487 19.3048 26.1109 19.4412C26.2308 19.4686 26.3538 19.4796 26.4766 19.474C26.5857 19.4631 26.7003 19.4685 26.8204 19.4685Z" fill="white"/>
<path d="M7.79945 17.4382C7.82674 18.4097 6.99713 19.2557 5.98741 19.2666C5.505 19.2691 5.04124 19.0804 4.69757 18.7418C4.3539 18.4033 4.1583 17.9424 4.15354 17.46C4.13717 16.4667 4.91765 15.6152 5.98741 15.5934C6.9753 15.5716 7.80491 16.3793 7.79945 17.4382Z" fill="black"/>
</g>
<defs>
<clipPath id="clip0">
<rect width="32" height="32" fill="white"/>
</clipPath>
</defs>
</svg>
