<?xml version="1.0" standalone="no"?>
<!DOCTYPE svg PUBLIC "-//W3C//DTD SVG 20010904//EN"
 "http://www.w3.org/TR/2001/REC-SVG-20010904/DTD/svg10.dtd">
<svg version="1.0" xmlns="http://www.w3.org/2000/svg"
 width="200.000000pt" height="200.000000pt" viewBox="0 0 200.000000 200.000000"
 preserveAspectRatio="xMidYMid meet">

<g transform="translate(0.000000,200.000000) scale(0.100000,-0.100000)"
fill="#000000" stroke="none">
<path d="M848 1985 c-398 -62 -711 -348 -815 -744 -20 -78 -25 -121 -26 -231
-2 -187 26 -308 109 -470 184 -361 589 -578 990 -531 442 51 782 365 875 806
7 33 13 120 12 195 -1 110 -5 153 -26 231 -105 400 -419 683 -824 744 -117 18
-179 18 -295 0z m243 -398 c30 -20 47 -52 134 -254 l99 -232 48 6 c78 9 128
-21 128 -79 0 -39 -27 -67 -71 -74 -24 -4 -38 -11 -36 -18 3 -6 35 -80 71
-164 36 -85 66 -167 66 -183 0 -63 -84 -94 -127 -47 -11 13 -55 105 -98 206
-88 207 -73 195 -194 161 -196 -55 -340 -151 -428 -286 -57 -89 -72 -103 -110
-103 -43 0 -73 30 -72 73 0 19 84 227 202 502 183 426 205 472 236 492 45 31
107 30 152 0z"/>
<path d="M918 1202 c-49 -114 -90 -215 -94 -224 -4 -13 15 -8 85 23 50 21 125
48 167 59 43 11 79 22 81 24 7 7 -132 326 -142 326 -5 0 -49 -94 -97 -208z"/>
</g>
</svg>
