<svg xmlns="http://www.w3.org/2000/svg" width="32" height="32" viewBox="0 0 32 32">
  <path d="M16,32 C7.163444,32 0,24.836556 0,16 C0,7.163444 7.163444,0 16,0 C24.836556,0 32,7.163444 32,16 C32,24.836556 24.836556,32 16,32 Z M13.7696672,6.5 C13.4549825,6.5 13.1648377,6.66997114 13.0109554,6.94446476 L6.1052026,19.2628744 C5.95711073,19.5270392 5.95708078,19.8492152 6.10512356,20.1134075 L8.31405514,24.0553942 C8.46791469,24.3299669 8.75810335,24.5 9.07284599,24.5 L22.927154,24.5 C23.2418967,24.5 23.5320853,24.3299669 23.6859449,24.0553942 L25.8948764,20.1134075 C26.0429192,19.8492152 26.0428893,19.5270392 25.8947974,19.2628744 L18.9890446,6.94446476 C18.8351623,6.66997114 18.5450175,6.5 18.2303328,6.5 L13.7696672,6.5 Z M16,11.4009901 L20.6534397,19.6881188 L11.3465603,19.6881188 L16,11.4009901 Z"/>
</svg>
