<svg height="32" viewBox="0 0 32 32" width="32" xmlns="http://www.w3.org/2000/svg"><path d="m16 32c-8.836556 0-16-7.163444-16-16s7.163444-16 16-16 16 7.163444 16 16-7.163444 16-16 16zm3.7554845-14.6659431c2.2453583-3.5187604 3.9935302-9.3340569 3.9935302-9.3340569l-3.7449369.84855063-1.3712724 4.84997287c-.1283062-3.6355334-2.6222578-4.9667459-2.6222578-4.9667459-1.996765-.97310851-3.7770134-.54494076-5.0600753.12455789-1.58778906.82519603-2.74254476 2.26539661-3.2958652 3.92357351-.78587541 2.3588151-.68964577 5.0056702-.58539699 6.2045399.04160663.5618162.16582612 1.1149599.3688803 1.6426072 1.37929153 3.5732545 5.19640069 3.3708479 5.19640069 3.3708479 3.4963436-.1245579 5.6214149-4.2427531 5.6214149-4.2427531l1.0023921 3.0283137c.8981433 1.5180493 2.8868892.9497539 3.2958652.8641203.0721722-.0155697.1363253-.0233546.2084975-.0389243l2.2373392-.3425342v-.9731085c-4.867616.1323427-5.2445155-4.958961-5.2445155-4.958961zm-4.7393098 3.658888c-.2984319.3072231-.6787017.5281807-1.0986218.6383592-.9061624.2257612-1.6038273-.1556974-2.0849755-.6227895-.5398344-.547657-.9071113-1.2337405-1.0585261-1.9773565-.88210503-4.9901004.3368038-7.1776484 1.1467366-8.1818964.4393657-.567827 1.1374187-.89066084 1.8684589-.86412033 3.1435016.16348223 3.8491856 6.74169583 3.8491856 6.74169583-.8901242 2.3354604-2.0368607 3.6900275-2.6222577 4.2661077z" fill-rule="evenodd"/></svg>