<svg xmlns="http://www.w3.org/2000/svg" version="1.1" id="svg1294" width="32" height="32"><defs id="defs1264"><linearGradient id="linear-gradient" x1="23.32" y1="82.13" x2="171.76" y2="82.13" gradientUnits="userSpaceOnUse" gradientTransform="translate(-2.967 .061) scale(.19445)"><stop offset="0" stop-color="#e168fd" id="stop1259"/><stop offset="1" stop-color="#7b00fc" id="stop1261"/></linearGradient><style id="style1257"></style></defs><path d="M16 0C7.163 0 0 7.163 0 16s7.163 16 16 16 16-7.163 16-16S24.837 0 16 0zm-.092 1.658a4.046 4.046 0 012.112.54l8.949 5.165a4.05 4.05 0 012.02 3.5V21.2a4.05 4.05 0 01-2.02 3.5l-8.95 5.168a4.048 4.048 0 01-2.019.535 4.048 4.048 0 01-2.02-.539l-8.949-5.168a4.05 4.05 0 01-2.02-3.5V10.863a4.05 4.05 0 012.02-3.5l8.95-5.166a4.046 4.046 0 011.927-.539zm.092 1.4a2.625 2.625 0 00-1.32.35L5.73 8.58a2.64 2.64 0 00-1.318 2.283V21.2a2.646 2.646 0 001.318 2.276l8.95 5.175a2.64 2.64 0 002.636 0l8.952-5.168a2.64 2.64 0 001.318-2.275V10.863a2.64 2.64 0 00-1.318-2.283l-8.95-5.172A2.637 2.637 0 0016 3.058zm-.049 3.29a2.182 2.182 0 011.139.29l6.5 3.753a2.184 2.184 0 011.088 1.886v7.506a2.182 2.182 0 01-1.088 1.887l-6.502 3.752a2.175 2.175 0 01-1.088.293v-.002a2.175 2.175 0 01-1.088-.293L8.41 21.67a2.18 2.18 0 01-1.08-1.887v-7.506a2.184 2.184 0 011.08-1.886l6.502-3.752a2.182 2.182 0 011.04-.291zM16 7.396a1.115 1.115 0 00-.564.15l-6.5 3.755a1.134 1.134 0 00-.555.976v7.506a1.132 1.132 0 00.564.977l6.5 3.752a1.127 1.127 0 001.127 0l6.502-3.752a1.134 1.134 0 00.563-.977v-7.506a1.132 1.132 0 00-.565-.976l-6.508-3.752a1.111 1.111 0 00-.564-.15v-.003zm-.025 3.71a1.117 1.117 0 01.584.15l3.298 1.904a1.117 1.117 0 01.559.965v3.809a1.122 1.122 0 01-.559.968l-3.298 1.905a1.13 1.13 0 01-.559.15v-.002a1.13 1.13 0 01-.559-.148l-3.298-1.903a1.122 1.122 0 01-.559-.97v-3.809a1.117 1.117 0 01.559-.965l3.298-1.904a1.117 1.117 0 01.534-.15zm.025.699a.42.42 0 00-.209.054l-3.299 1.909a.417.417 0 00-.207.35v3.816a.422.422 0 00.207.36l3.299 1.915a.422.422 0 00.418 0l3.299-1.904a.42.42 0 00.205-.371v-3.809a.415.415 0 00-.205-.35l-3.299-1.914A.42.42 0 0016 11.81v-.004z" id="path6703" fill="#000" fill-opacity="1"/></svg>
