<?xml version="1.0" standalone="no"?>
<!DOCTYPE svg PUBLIC "-//W3C//DTD SVG 20010904//EN"
 "http://www.w3.org/TR/2001/REC-SVG-20010904/DTD/svg10.dtd">
<svg version="1.0" xmlns="http://www.w3.org/2000/svg"
 width="200.000000pt" height="200.000000pt" viewBox="0 0 200.000000 200.000000"
 preserveAspectRatio="xMidYMid meet">

<g transform="translate(0.000000,200.000000) scale(0.100000,-0.100000)"
fill="#000000" stroke="none">
<path d="M865 1990 c-324 -51 -599 -245 -747 -527 -327 -624 76 -1377 779
-1456 483 -54 944 269 1070 748 22 86 26 121 26 245 0 124 -4 159 -26 241 -97
365 -365 633 -726 725 -109 28 -280 39 -376 24z m344 -914 c111 -279 200 -510
197 -513 -8 -9 -141 81 -231 157 l-90 76 3 -36 c7 -71 -70 -120 -135 -86 -36
18 -58 65 -49 102 6 23 -2 19 -61 -36 -68 -62 -235 -180 -255 -180 -5 0 -8 6
-5 13 164 417 413 1025 418 1019 4 -4 97 -236 208 -516z"/>
<path d="M965 1133 c-17 -42 -32 -81 -34 -86 -2 -6 13 3 33 18 l37 28 29 -28
c17 -16 30 -24 30 -19 0 8 -58 154 -64 161 -1 1 -15 -32 -31 -74z"/>
<path d="M972 873 l-20 -28 49 0 48 0 -26 27 c-15 16 -28 28 -29 28 -2 0 -11
-12 -22 -27z"/>
</g>
</svg>
