<?xml version="1.0" standalone="no"?>
<!DOCTYPE svg PUBLIC "-//W3C//DTD SVG 20010904//EN"
 "http://www.w3.org/TR/2001/REC-SVG-20010904/DTD/svg10.dtd">
<svg version="1.0" xmlns="http://www.w3.org/2000/svg"
 width="200.000000pt" height="200.000000pt" viewBox="0 0 200.000000 200.000000"
 preserveAspectRatio="xMidYMid meet">

<g transform="translate(0.000000,200.000000) scale(0.100000,-0.100000)"
fill="#000000" stroke="none">
<path d="M830 1985 c-540 -98 -908 -616 -815 -1149 74 -421 400 -747 821 -821
536 -93 1054 277 1149 821 83 477 -205 954 -672 1113 -145 49 -333 63 -483 36z
m309 -311 c64 -26 168 -73 231 -105 195 -99 450 -275 450 -310 0 -9 -11 -59
-24 -110 -114 -437 -383 -784 -716 -925 l-80 -34 -50 20 c-137 54 -241 122
-356 232 -183 176 -327 437 -400 727 -23 90 -23 95 -7 114 30 33 214 162 308
216 175 101 447 220 504 221 13 0 76 -21 140 -46z"/>
<path d="M890 1595 c-270 -107 -620 -320 -620 -376 0 -25 73 -247 103 -313
l23 -50 12 77 c6 42 25 106 41 142 34 74 122 173 189 212 53 31 153 63 198 63
41 0 42 5 7 43 l-28 30 95 -6 c52 -4 131 -16 175 -27 106 -28 289 -118 293
-145 2 -11 25 -36 52 -55 111 -79 139 -204 68 -303 -24 -34 -102 -78 -83 -46
13 21 -5 57 -36 69 -26 11 -36 11 -65 -4 -45 -21 -79 -91 -70 -142 13 -67 91
-128 176 -136 33 -3 37 1 83 67 86 124 164 295 208 453 22 81 22 82 3 103 -59
66 -390 258 -569 329 -158 63 -137 62 -255 15z"/>
<path d="M1136 1269 c3 -6 29 -22 57 -35 46 -21 54 -22 73 -9 12 7 32 12 45 9
49 -11 -7 15 -67 31 -70 18 -118 20 -108 4z"/>
</g>
</svg>
