<svg height="32" viewBox="0 0 32 32" width="32" xmlns="http://www.w3.org/2000/svg"><path d="m16 32c-8.836556 0-16-7.163444-16-16s7.163444-16 16-16 16 7.163444 16 16-7.163444 16-16 16zm7.77156-10.1172431-1.9728252-5.3084758h1.1778061c.4693255-.0039431.8482317-.3768032.8502288-.8366619 0-.2104191-.0853119-.41222-.2371679-.5610088s-.357817-.2323775-.5725738-.2323775h-1.8403221l-.2944515-.8258431h2.0942865c.4590454.0001531.8345731-.3581911.8465481-.8078115.0009839-.2212342-.0882775-.4336857-.2479401-.5901234s-.3764938-.2438962-.6022887-.2429322h-2.719996l-1.4722576-3.96693162c-.2199557-.5667705-.5834739-1.06938789-1.0563449-1.4605521-.4671721-.37644426-1.0592556-.57153036-1.6636511-.54815782-.6059718-.01886667-1.1987912.17560141-1.6710124.54815782-.4731461.39169909-.8377463.89406211-1.0600255 1.4605521l-1.5421899 4.00299462h-2.70527343c-.44984004-.0000045-.81507669.356243-.81710299.7969926 0 .4580922.37901251.8294494.84654814.8294494h2.05379938l-.3165354.8042052h-1.84032201c-.45127353 0-.817103.3584403-.817103.8005989-.00000444.4527042.37347414.8202512.83550622.8222367h1.18148679l-2.00595107 5.3156884c-.12328672.2996903-.19180927.6182931-.20243543.9412447.02091263.4530083.22167704.8800746.5594579 1.1900795.37169674.3154395.84803449.4872528 1.33975446.4832444.85125094.0457129 1.61889834-.4988381 1.84032204-1.3054812l.7766159-2.2683636h7.1441302l.7766159 2.3224581c.2501886.7783218 1.0090079 1.2898446 1.8403221 1.2405678.3093115.0060717.6145405-.0699404.8833546-.2199844.2331823-.1695743.4402002-.3711962.6146676-.5986461.1520208-.2559511.2296642-.5477803.2245192-.8438745-.0487397-.3147916-.1250891-.6248797-.2281999-.9268195zm-10.1107294-4.4970579 2.3850574-7.1116265 2.4292251 7.1116265z"/></svg>