<?xml version="1.0" standalone="no"?>
<!DOCTYPE svg PUBLIC "-//W3C//DTD SVG 20010904//EN"
 "http://www.w3.org/TR/2001/REC-SVG-20010904/DTD/svg10.dtd">
<svg version="1.0" xmlns="http://www.w3.org/2000/svg"
 width="176.000000pt" height="176.000000pt" viewBox="0 0 176.000000 176.000000"
 preserveAspectRatio="xMidYMid meet">

<g transform="translate(0.000000,176.000000) scale(0.100000,-0.100000)"
fill="#000000" stroke="none">
<path d="M755 1750 c-287 -45 -533 -225 -660 -483 -68 -139 -88 -225 -88 -387
0 -162 20 -248 88 -387 112 -228 321 -398 570 -464 113 -31 317 -31 430 0 249
66 458 236 570 464 68 139 88 225 88 387 0 162 -20 248 -88 387 -113 229 -326
402 -570 463 -93 24 -254 33 -340 20z m387 -567 l98 -98 98 98 98 97 42 -43
42 -43 -139 -138 -140 -139 -96 91 c-54 51 -100 92 -104 92 -3 0 -74 -67 -156
-150 l-150 -150 -82 82 -81 81 -39 -31 c-21 -17 -67 -60 -103 -96 l-64 -66
-43 42 -43 42 142 143 143 143 82 -82 83 -83 153 153 c83 83 154 152 157 152
2 0 49 -44 102 -97z m0 -330 l98 -98 98 98 98 97 42 -43 42 -43 -140 -139
-140 -140 -98 98 -97 97 -155 -155 -155 -155 -80 80 c-44 44 -85 80 -90 80 -6
0 -53 -43 -105 -95 l-94 -95 -43 42 -43 42 142 143 143 143 82 -82 83 -83 153
153 c83 83 154 152 157 152 2 0 49 -44 102 -97z"/>
</g>
</svg>
