<svg width="32" height="32" viewBox="0 0 32 32" version="1.1" xmlns="http://www.w3.org/2000/svg" xmlns:xlink="http://www.w3.org/1999/xlink"><title>svg/black/arg</title><desc>Created with Sketch.</desc><g id="black/arg" stroke="none" stroke-width="1" fill="none" fill-rule="evenodd"><circle id="Combined-Shape" fill="#000" fill-rule="nonzero" cx="16" cy="16" r="16"/><g id="Argentum-(ARG)" transform="translate(4.000000, 4.000000)" fill="#FFF" fill-rule="nonzero"><path d="M6.75504425,1.24566372 C11.851445,-1.28167351 18.0232134,0.138720658 21.5021116,4.63960966 C24.9810097,9.14049865 24.8002045,15.4710243 21.0700885,19.7660177 C20.4753982,18.4704425 20.0187611,17.1111504 19.5090265,15.7730973 L16.4293805,7.70230088 C16.1320354,6.88460177 15.6329204,6.09876106 14.8576991,5.6739823 C13.7725597,5.15102256 12.5564346,4.96250469 11.3638938,5.13238938 C10.4081416,5.23858407 9.4099115,5.56778761 8.76212389,6.32176991 C8.14619469,7.03327434 7.8700885,7.94654867 7.51964602,8.80672566 L5.30017699,14.4350442 C4.55681416,16.219115 3.93026549,18.0669027 3.12318584,19.840354 C1.96055038,18.5849306 1.10614209,17.0760819 0.627610619,15.4332743 C-1.07986154,9.83597313 1.51842622,3.82574696 6.76566372,1.23504425 L6.75504425,1.24566372 Z" id="Shape"/><path d="M11.1939823,9.38017699 C11.4063717,8.74300885 12.2559292,8.53061947 12.8081416,8.89168142 C13.1054867,9.11469027 13.2116814,9.49699115 13.3497345,9.83681416 C14.7302655,13.4474336 16.0895575,17.079292 17.459469,20.700531 C17.64,21.220885 17.9054867,21.72 18.0116814,22.2615929 C17.9249218,22.3540255 17.8246713,22.4327937 17.7143363,22.4952212 C14.6831412,24.1167896 11.1010211,24.3566292 7.88070796,23.1536283 C7.2860177,22.9093805 6.6700885,22.6969912 6.14973451,22.3253097 C6.20283186,21.8368142 6.44707965,21.4014159 6.62761062,20.9553982 C8.15681416,17.100531 9.65415929,13.2350442 11.1939823,9.38017699 Z" id="Shape"/></g></g></svg>