<svg width="32" height="32" viewBox="0 0 32 32" fill="none" xmlns="http://www.w3.org/2000/svg">
<g clip-path="url(#clip0)">
<path d="M16.0001 0C24.8366 0 32.0001 7.16343 32.0001 16C32.0001 24.8366 24.8366 32 16.0001 32C7.16349 32 6.10352e-05 24.8366 6.10352e-05 16C6.10352e-05 7.16343 7.16349 0 16.0001 0Z" fill="white"/>
<path d="M16.0001 0C7.16166 0 6.10352e-05 7.1616 6.10352e-05 16C6.10352e-05 24.8384 7.16166 32 16.0001 32C24.8385 32 32.0001 24.8384 32.0001 16C32.0001 7.1616 24.8385 0 16.0001 0ZM8.77766 11.864C8.77766 9.8864 10.3809 8.2944 12.3713 8.2944H16.4705H20.5697C21.5073 8.2944 22.4081 8.6624 23.0769 9.32L18.8817 11.4304H13.1057C12.4545 11.4304 11.9361 11.9008 11.9361 12.4672V15.0352L8.78886 16.6752V11.864H8.77766ZM24.1265 17.2064C24.1265 19.184 22.5233 20.776 20.5569 20.776H11.9249V23.8272C11.9249 24.3456 11.5393 24.768 11.0801 24.8768L10.0065 24.9008H8.77606V19.5952L12.8881 17.4496H19.7969C20.4481 17.4496 20.9905 16.9792 20.9905 16.4V13.2624L24.1249 11.6832L24.1265 17.2064Z" fill="black"/>
</g>
<defs>
<clipPath id="clip0">
<rect width="32" height="32" fill="white"/>
</clipPath>
</defs>
</svg>
