<svg width="32" height="32" viewBox="0 0 32 32" fill="none" xmlns="http://www.w3.org/2000/svg">
<path fill-rule="evenodd" clip-rule="evenodd" d="M32 16C32 24.8366 24.8366 32 16 32C7.16344 32 0 24.8366 0 16C0 7.16344 7.16344 0 16 0C24.8366 0 32 7.16344 32 16ZM20.531 9.66668L16.4345 18.0253L17.8414 20.5908L17.6345 20.7149C16.9517 19.9701 16.3104 19.7425 15.2552 19.7218C14.5657 18.3705 13.7537 16.9619 12.9244 15.5233C11.8873 13.7244 10.8232 11.8785 9.93795 10.0391H9.89657L9.71036 19.3701C9.68967 20.0529 9.79312 20.5908 9.93795 21.0253C10.2081 21.8744 10.9664 22.0115 11.5012 22.1082C11.8264 22.167 12.069 22.2109 12.069 22.3908V22.4943H7.00002V22.3908C7.00002 22.2274 7.19287 22.1826 7.46786 22.1187C8.13321 21.9641 9.27939 21.6978 9.33795 19.3701L9.54484 10.6805C9.57274 9.31368 8.56647 9.11268 7.90761 8.98108C7.58907 8.91745 7.35174 8.87004 7.35174 8.71496V8.54944H11.1793L16.2483 17.6943L20.7172 8.54944H24.7517V8.71496C24.7517 8.87004 24.5056 8.91965 24.1752 8.98623C23.4919 9.12397 22.448 9.33437 22.4759 10.7012L22.6828 20.2805C22.7111 21.8105 23.7774 22.0115 24.4536 22.139C24.7649 22.1977 24.9935 22.2408 25 22.3908V22.4943H18.6069V22.3908C18.6069 22.2209 18.8458 22.1693 19.1653 22.1004C19.8181 21.9594 20.8071 21.746 20.7793 20.3012L20.5724 9.66668H20.531Z" fill="black"/>
</svg>
