<svg width="32" height="32" viewBox="0 0 32 32" fill="none" xmlns="http://www.w3.org/2000/svg">
<path d="M16 32C24.8366 32 32 24.8366 32 16C32 7.16344 24.8366 0 16 0C7.16344 0 0 7.16344 0 16C0 24.8366 7.16344 32 16 32Z" fill="black"/>
<path d="M20.7062 16.9119C21.1684 16.1135 21.9143 16.1135 22.3765 16.9119L25.2548 21.9648C25.7171 22.7631 25.3389 23.4145 24.4145 23.4145H18.6157C17.7018 23.4145 17.3236 22.7631 17.7753 21.9648L20.7062 16.9119ZM15.1386 7.18435C15.6008 6.38598 16.3362 6.38598 16.7984 7.18435L17.4392 8.33989L18.9519 10.9976C19.3196 11.754 19.3196 12.6469 18.9519 13.4033L13.878 22.1959C13.4158 22.9102 12.6489 23.3619 11.798 23.4145H7.58558C6.66114 23.4145 6.28297 22.7737 6.74518 21.9648L15.1386 7.18435Z" fill="white"/>
</svg>
