<?xml version="1.0" standalone="no"?>
<!DOCTYPE svg PUBLIC "-//W3C//DTD SVG 20010904//EN"
 "http://www.w3.org/TR/2001/REC-SVG-20010904/DTD/svg10.dtd">
<svg version="1.0" xmlns="http://www.w3.org/2000/svg"
 width="400.000000pt" height="400.000000pt" viewBox="0 0 400.000000 400.000000"
 preserveAspectRatio="xMidYMid meet">

<g transform="translate(0.000000,400.000000) scale(0.100000,-0.100000)"
fill="#000000" stroke="none">
<path d="M166 3752 c-5 -9 39 -142 51 -152 17 -14 96 -31 104 -23 6 6 1 37
-11 77 -18 58 -26 69 -53 80 -48 20 -85 27 -91 18z"/>
<path d="M320 3702 c0 -16 40 -125 51 -138 15 -18 101 -46 111 -36 5 5 -2 37
-14 73 -21 58 -27 66 -68 86 -47 23 -80 29 -80 15z"/>
<path d="M80 3570 c0 -15 29 -109 42 -137 12 -24 20 -28 81 -39 45 -8 46 0 18
91 -20 64 -35 78 -103 90 -26 5 -38 4 -38 -5z"/>
<path d="M236 3541 c-7 -11 29 -128 46 -148 10 -13 98 -34 110 -27 3 2 0 26
-8 52 -32 98 -34 101 -76 112 -22 6 -45 13 -53 16 -7 3 -16 1 -19 -5z"/>
<path d="M814 3488 c13 -64 39 -102 89 -127 69 -34 80 -25 55 41 -24 65 -32
74 -79 99 -57 29 -73 26 -65 -13z"/>
<path d="M390 3488 c0 -27 32 -113 49 -129 20 -20 99 -41 107 -28 9 16 -37
139 -56 149 -9 5 -36 12 -59 16 -32 5 -41 3 -41 -8z"/>
<path d="M548 3455 c-6 -7 12 -74 32 -117 12 -26 75 -58 113 -58 21 0 21 -1 1
63 -20 62 -45 93 -82 100 -15 3 -34 8 -43 12 -8 3 -18 3 -21 0z"/>
<path d="M995 3403 c12 -71 36 -104 98 -136 32 -16 60 -27 62 -25 3 2 -5 32
-16 66 -14 41 -30 68 -47 80 -27 19 -91 52 -100 52 -2 0 -1 -17 3 -37z"/>
<path d="M710 3385 c0 -29 23 -99 38 -117 15 -18 110 -54 119 -45 3 3 -5 35
-16 70 -23 68 -41 84 -113 102 -23 6 -28 4 -28 -10z"/>
<path d="M870 3327 c0 -30 31 -115 47 -129 21 -18 111 -53 119 -46 6 7 -36
119 -50 134 -10 10 -102 54 -112 54 -2 0 -4 -6 -4 -13z"/>
<path d="M1160 3332 c0 -16 33 -107 44 -121 14 -18 127 -94 132 -89 7 8 -35
121 -53 140 -17 19 -105 78 -116 78 -4 0 -7 -4 -7 -8z"/>
<path d="M610 3247 c0 -23 32 -111 47 -128 15 -17 101 -44 111 -35 9 9 -30
125 -47 140 -14 12 -82 36 -103 36 -5 0 -8 -6 -8 -13z"/>
<path d="M1040 3246 c0 -18 47 -124 60 -134 29 -23 110 -61 114 -53 6 10 -28
107 -44 126 -25 30 -130 79 -130 61z"/>
<path d="M1346 3212 c-3 -4 2 -32 10 -60 13 -43 27 -62 81 -110 84 -74 97 -82
88 -51 -23 85 -39 111 -105 169 -38 33 -71 57 -74 52z"/>
<path d="M770 3197 c0 -30 31 -115 47 -129 19 -17 102 -43 110 -35 6 7 -25
109 -40 128 -11 14 -87 49 -107 49 -6 0 -10 -6 -10 -13z"/>
<path d="M520 3088 c0 -31 43 -139 58 -147 30 -15 90 -22 97 -11 3 5 -4 39
-15 74 -23 68 -34 77 -107 91 -25 5 -33 3 -33 -7z"/>
<path d="M676 3061 c-7 -11 22 -111 38 -132 6 -10 35 -24 64 -32 49 -15 52
-15 52 2 0 25 -31 114 -44 127 -16 16 -105 44 -110 35z"/>
<path d="M1113 3036 c11 -71 38 -109 99 -141 31 -16 59 -27 63 -24 3 3 -5 35
-17 70 -22 62 -25 65 -87 98 l-64 34 6 -37z"/>
<path d="M1400 3026 c0 -42 43 -126 78 -152 20 -16 48 -39 62 -51 41 -38 50
-30 32 30 -12 37 -31 66 -67 101 -71 68 -105 92 -105 72z"/>
<path d="M1546 3008 c17 -59 37 -94 80 -141 25 -28 60 -71 77 -95 17 -24 33
-40 34 -35 8 24 -58 149 -115 217 -63 77 -89 95 -76 54z"/>
<path d="M830 3010 c0 -29 32 -119 48 -133 15 -13 82 -37 106 -37 12 0 0 52
-22 104 -16 35 -26 44 -62 55 -23 7 -48 15 -56 18 -8 3 -14 0 -14 -7z"/>
<path d="M1283 2943 c14 -68 37 -102 98 -144 33 -22 63 -38 66 -35 8 8 -15 85
-33 113 -14 23 -111 93 -128 93 -5 0 -6 -12 -3 -27z"/>
<path d="M991 2943 c0 -10 8 -40 18 -68 16 -45 22 -52 75 -78 31 -15 61 -25
66 -22 10 6 -23 110 -42 132 -11 14 -50 33 -96 47 -17 6 -22 3 -21 -11z"/>
<path d="M1180 2821 c10 -32 21 -64 24 -70 9 -15 122 -72 129 -65 7 7 -26 109
-43 128 -14 18 -102 66 -119 66 -5 0 -1 -27 9 -59z"/>
<path d="M1605 2830 c12 -59 32 -92 110 -179 86 -98 94 -123 9 -32 -31 33 -60
61 -64 61 -5 0 0 -26 11 -57 15 -44 38 -77 94 -138 41 -44 75 -83 75 -87 0
-15 -26 5 -55 41 -31 39 -63 66 -71 58 -3 -2 5 -29 16 -58 15 -39 43 -77 102
-139 45 -47 80 -78 77 -70 -3 8 -39 116 -79 239 -78 237 -75 232 -183 345
l-48 51 6 -35z"/>
<path d="M1460 2844 c0 -3 7 -30 16 -60 14 -48 24 -62 87 -114 40 -33 73 -55
75 -50 4 11 -14 73 -30 107 -6 12 -39 44 -73 72 -60 49 -75 58 -75 45z"/>
<path d="M1340 2778 c0 -19 23 -90 37 -113 12 -22 120 -91 129 -82 3 2 -2 30
-11 61 -14 46 -24 61 -63 89 -67 49 -92 61 -92 45z"/>
<path d="M1797 2674 c-3 -4 -3 -14 2 -23 20 -38 94 -271 131 -411 12 -47 28
-104 36 -127 16 -53 1 -56 -23 -5 l-18 37 -3 -89 c-3 -92 1 -121 16 -112 5 3
14 -6 21 -20 6 -14 15 -23 20 -20 5 3 12 -6 15 -19 4 -14 10 -24 15 -21 4 3
14 -7 21 -22 25 -52 22 3 -5 73 -34 91 -31 100 11 35 109 -169 160 -341 171
-577 3 -68 8 -123 11 -123 2 0 40 37 84 83 l79 82 92 -96 c51 -53 169 -176
263 -273 l170 -176 362 2 361 3 -81 85 c-45 47 -193 200 -329 340 -394 406
-469 485 -469 491 0 3 28 34 63 70 134 137 599 619 685 708 50 52 88 99 86
103 -3 4 -163 8 -356 8 l-351 0 -176 -182 c-97 -101 -209 -216 -249 -257 l-73
-75 -76 79 c-41 44 -154 160 -249 258 -166 169 -175 177 -212 177 -21 0 -42
-3 -45 -6z"/>
<path d="M1520 2657 c0 -33 33 -104 62 -134 36 -38 106 -88 113 -82 8 9 -26
106 -44 125 -28 30 -76 70 -105 89 -22 15 -26 15 -26 2z"/>
<path d="M1881 1834 c-20 -61 -20 -68 -6 -90 28 -43 34 -36 55 69 9 45 9 61 0
72 -20 24 -26 18 -49 -51z"/>
<path d="M1946 1826 c-16 -66 -18 -141 -3 -161 9 -11 19 -16 24 -12 13 13 10
190 -3 194 -7 2 -14 -7 -18 -21z"/>
<path d="M1997 1763 c-12 -67 -7 -147 9 -168 26 -34 36 -1 29 95 -6 98 -28
138 -38 73z"/>
<path d="M2049 1745 c0 -6 0 -53 1 -105 1 -70 6 -100 17 -112 9 -10 19 -18 22
-18 13 0 -8 201 -24 223 -8 12 -15 17 -16 12z"/>
<path d="M1806 1651 l-28 -58 23 -32 c13 -17 27 -30 32 -28 5 1 20 31 33 64
l23 62 -20 25 c-11 15 -24 26 -28 26 -4 0 -20 -26 -35 -59z"/>
<path d="M1880 1565 l-21 -64 22 -31 c13 -16 26 -30 29 -30 9 0 40 102 40 132
0 22 -26 58 -42 58 -4 0 -16 -29 -28 -65z"/>
<path d="M1956 1485 c-20 -81 -21 -75 11 -110 l28 -29 12 49 c15 68 15 116 -1
138 -23 29 -33 19 -50 -48z"/>
<path d="M1716 1489 c-38 -56 -37 -66 7 -108 l25 -23 31 53 c17 30 31 59 31
65 0 5 -13 23 -29 38 l-29 28 -36 -53z"/>
<path d="M2031 1401 c-13 -77 -12 -81 9 -111 13 -19 26 -28 31 -23 5 5 12 45
15 89 6 70 4 82 -14 102 -10 12 -21 22 -24 22 -2 0 -10 -36 -17 -79z"/>
<path d="M1806 1397 c-33 -68 -33 -77 4 -112 l29 -28 26 54 c13 30 25 61 25
69 0 13 -44 70 -54 70 -2 0 -15 -24 -30 -53z"/>
<path d="M1635 1367 c-23 -27 -55 -76 -55 -84 0 -4 14 -23 32 -42 l32 -34 28
34 c40 47 44 72 18 109 -23 32 -39 37 -55 17z"/>
<path d="M1891 1294 c-27 -71 -27 -75 9 -109 l29 -28 19 44 c34 80 35 84 6
118 -14 17 -29 31 -34 31 -4 0 -17 -25 -29 -56z"/>
<path d="M1711 1229 c-17 -28 -31 -53 -31 -55 0 -12 54 -74 64 -74 6 0 25 24
41 54 l29 54 -30 35 c-16 20 -32 36 -35 36 -3 1 -20 -22 -38 -50z"/>
<path d="M1996 1249 c-2 -8 -11 -34 -20 -59 -21 -60 -20 -70 11 -104 24 -28
26 -29 39 -12 19 27 36 114 25 134 -5 10 -18 26 -30 36 -16 15 -21 16 -25 5z"/>
<path d="M1521 1219 c-13 -13 -31 -35 -41 -49 -18 -25 -18 -26 16 -63 19 -20
38 -37 42 -36 9 0 72 79 72 90 0 5 -15 26 -33 46 l-34 36 -22 -24z"/>
<path d="M1807 1118 c-15 -29 -27 -57 -27 -61 0 -17 58 -69 69 -63 14 9 51 85
51 106 0 14 -48 70 -61 70 -3 0 -17 -24 -32 -52z"/>
<path d="M1603 1075 c-18 -24 -33 -46 -33 -48 0 -3 15 -22 34 -43 35 -39 35
-39 53 -19 28 30 53 68 53 80 0 16 -51 75 -64 75 -6 -1 -26 -21 -43 -45z"/>
<path d="M1382 1066 c-18 -19 -32 -41 -32 -48 0 -19 50 -78 66 -78 13 0 74 72
74 86 -1 12 -58 74 -68 74 -4 0 -22 -15 -40 -34z"/>
<path d="M1902 1004 c-24 -60 -22 -73 24 -118 20 -21 25 -16 53 56 l23 56 -28
31 c-15 17 -32 31 -38 31 -6 0 -21 -25 -34 -56z"/>
<path d="M1722 980 c-12 -16 -22 -34 -22 -40 0 -5 -4 -10 -10 -10 -20 0 -9
-31 24 -68 19 -20 36 -35 38 -32 24 32 58 92 58 102 -1 11 -54 78 -63 78 -2 0
-13 -13 -25 -30z"/>
<path d="M1492 941 c-18 -22 -32 -46 -32 -53 0 -8 15 -29 33 -46 l33 -32 37
39 c20 22 37 46 37 54 0 12 -60 77 -71 77 -3 0 -20 -18 -37 -39z"/>
<path d="M1245 936 l-39 -33 28 -37 c15 -21 34 -40 42 -43 14 -5 94 55 94 73
0 13 -62 74 -75 74 -6 0 -28 -15 -50 -34z"/>
<path d="M1607 821 c-20 -23 -37 -47 -37 -54 0 -17 53 -77 68 -77 12 0 72 73
72 88 0 6 -15 27 -33 47 l-33 36 -37 -40z"/>
<path d="M1232 698 c-23 -18 -42 -37 -42 -43 0 -6 18 -28 39 -49 l39 -39 46
38 45 37 -36 44 c-21 24 -40 44 -43 44 -4 0 -25 -14 -48 -32z"/>
<path d="M1711 691 c-17 -21 -31 -42 -31 -46 0 -13 55 -85 66 -85 9 0 74 83
74 96 0 12 -56 74 -67 74 -6 0 -25 -18 -42 -39z"/>
<path d="M1476 681 l-38 -39 32 -41 c19 -23 40 -41 49 -40 9 0 31 18 50 40
l33 39 -33 39 c-19 22 -39 40 -44 40 -6 1 -28 -17 -49 -38z"/>
<path d="M1591 551 c-17 -21 -31 -42 -31 -45 0 -3 17 -24 37 -47 l37 -41 38
44 c21 24 38 45 38 48 0 13 -63 80 -75 80 -7 0 -27 -18 -44 -39z"/>
<path d="M1471 435 c-23 -21 -41 -42 -41 -49 1 -13 67 -86 78 -86 4 0 25 18
46 39 l38 39 -20 29 c-11 15 -29 36 -40 46 -20 18 -21 18 -61 -18z"/>
</g>
</svg>
