<svg width="32" height="32" viewBox="0 0 32 32" fill="none" xmlns="http://www.w3.org/2000/svg">
<path fill-rule="evenodd" clip-rule="evenodd" d="M32 16C32 24.8366 24.8366 32 16 32C7.16344 32 0 24.8366 0 16C0 7.16344 7.16344 0 16 0C24.8366 0 32 7.16344 32 16ZM12.9052 4.39999C12.6333 4.39999 12.4129 4.62038 12.4129 4.89224V16.378C12.4129 16.6498 12.6333 16.8702 12.9052 16.8702C13.177 16.8702 13.3974 16.6498 13.3974 16.378V4.89224C13.3974 4.62038 13.177 4.39999 12.9052 4.39999ZM11.1987 7.68163C10.9268 7.68163 10.7065 7.90201 10.7065 8.17387V16.378C10.7065 16.6498 10.9268 16.8702 11.1987 16.8702C11.4706 16.8702 11.6909 16.6498 11.6909 16.378V8.17387C11.6909 7.90201 11.4706 7.68163 11.1987 7.68163ZM9.49224 10.9633C9.22039 10.9633 9 11.1836 9 11.4555V18.5438C9 22.5855 12.2764 25.8619 16.318 25.8619C20.3597 25.8619 23.6361 22.5855 23.6361 18.5438C23.6361 14.8815 20.9457 11.8474 17.4335 11.3103V12.3104C20.3982 12.8374 22.6494 15.4277 22.6494 18.5438C22.6494 22.0405 19.8147 24.8752 16.318 24.8752C12.8213 24.8752 9.9867 22.0405 9.9867 18.5438L9.98449 11.4555C9.98449 11.1836 9.7641 10.9633 9.49224 10.9633ZM15.8258 8.17387C15.8258 7.90201 16.0462 7.68163 16.3181 7.68163C16.5899 7.68163 16.8103 7.90201 16.8103 8.17387V16.378C16.8103 16.6498 16.5899 16.8702 16.3181 16.8702C16.0462 16.8702 15.8258 16.6498 15.8258 16.378V8.17387ZM14.1194 6.86122C14.1194 6.58936 14.3397 6.36897 14.6116 6.36897C14.8835 6.36897 15.1038 6.58936 15.1038 6.86122V16.378C15.1038 16.6498 14.8835 16.8702 14.6116 16.8702C14.3397 16.8702 14.1194 16.6498 14.1194 16.378V6.86122ZM20.6479 19.1769C20.9145 19.2302 21.0874 19.4895 21.034 19.7561C20.6552 21.6504 18.9739 22.7274 17.6588 23.1772C17.4015 23.2652 17.1217 23.1281 17.0337 22.8708C16.9457 22.6136 17.0829 22.3338 17.3401 22.2458C18.519 21.8424 19.7912 20.9504 20.0687 19.563C20.122 19.2965 20.3813 19.1236 20.6479 19.1769Z" fill="black"/>
</svg>
