<svg height="32" viewBox="0 0 32 32" width="32" xmlns="http://www.w3.org/2000/svg"><path d="m22.5845827 9.69361986.0675064.03140234 2.9293895 3.9058319-.0192992.0219106-.0588638-.1189163-4.521536 2.283592-1.374279-4.550058 3.0542381-1.40230574zm-.164679-.07660466-2.975231 1.3660309h-6.8504269l-3.0802303-1.29638639 2.9615523-1.35975055h7.1709619zm-13.15348632.31958869 3.11981022 1.31304451-1.3796353 4.567792-4.51327892-2.2794218zm3.43996392 1.37335131h6.5756093l1.4257191 4.7203694-4.7135237 8.3319425-4.7135238-8.3319425zm12.5117368 2.7334271-8.4241727 9.5640825 4.2051243-7.4332611zm-10.0466349 9.5235264-8.37821015-9.5119005 4.19602925 2.1191955zm-8.74069295-9.9234324-.00996678-.0113154.04359028-.0566105zm9.56920975 18.3565237c-8.836556 0-16-7.163444-16-16s7.163444-16 16-16 16 7.163444 16 16-7.163444 16-16 16zm-6.77779299-22.53845719-3.22220701 4.18466229 10.0005755 11.3537949 9.9994245-11.3524881-3.1388939-4.18516979-3.1436343-1.46234211h-7.3120077zm9.20074409 5.37253349c-.0788076-.8301041-.7863989-1.1083851-1.6797656-1.1876455l-.000023-1.1514298-.6920855.0000734.0000419 1.1210821c-.1819398.0000244-.3679177.0036635-.5526896.0073973l.0001019-1.1285045-.6917145-.0000204-.0002551 1.1511009c-.1498401.0030985-.2969895.0059169-.4404724.0060129l-.0000906-.0035704-.9545573-.0003296.0001819.748547s.5110797-.0098668.5025844-.0003357c.280332.0000856.37157.1648957.3981088.307115l.000062 1.3117188c.0193444.0001063.0445798.0009211.0731533.0048856-.0230556.0000322-.0477348-.0001246-.07311.0000941l-.0001736 1.8375899c-.0123027.0893442-.0641624.2317951-.2600193.2321394.0088555.007945-.5030944-.0001343-.5030944-.0001343l-.1375112.8370122.900653-.0000338c.1676052.0002014.3325183.0030787.4944171.004122l.0002931 1.1645369.6913433.000114-.0000225-1.1522285c.1898235.0039738.3735251.0055008.5528672.0053338l-.0002989 1.1469198.6920856-.0000734.0002158-1.1624696c1.1635383-.0676075 1.9779065-.3644564 2.079031-1.4709575.0816455-.8909787-.3322256-1.2885365-.9927123-1.4491545.4012596-.2069157.65213-.5714919.5934555-1.1789076zm-.968267 2.4900574c.0003842.870267-1.4710765.7712814-1.9401215.7717326l.0001752-1.5429441c.4691837.0001126 1.940003-.1364967 1.9399463.7712115zm-.3218825-2.1768832c-.0002162.7917665-1.2273938.6993733-1.6180865.6994049l.0000391-1.3993795c.3906927-.0000316 1.6179602-.125851 1.6180474.6999746z"/></svg>