<svg width="32" height="32" viewBox="0 0 32 32" fill="none" xmlns="http://www.w3.org/2000/svg">
<path d="M16 32C24.8365 32 32 24.8365 32 16C32 7.16345 24.8365 0 16 0C7.16345 0 0 7.16345 0 16C0 24.8365 7.16345 32 16 32Z" fill="black"/>
<path d="M16 30C23.732 30 30 23.732 30 16C30 8.26801 23.732 2 16 2C8.26801 2 2 8.26801 2 16C2 23.732 8.26801 30 16 30Z" fill="white"/>
<path d="M21.385 11.4012C20.8233 9.35761 18.9067 8.97395 16.6071 9.17009L16.1042 6.28669L14.3501 6.59336L14.8391 9.4009C14.3778 9.48054 13.9088 9.57235 13.4407 9.66375L12.9491 6.83773L11.1946 7.14349L11.697 10.026C11.3184 10.0996 10.9461 10.1727 10.5823 10.2354L10.5805 10.2263L8.15978 10.6478L8.48681 12.522C8.48681 12.522 9.77895 12.2712 9.76155 12.2985C10.4725 12.1751 10.7752 12.5474 10.905 12.8923L11.4782 16.1766C11.527 16.1681 11.591 16.1595 11.6659 16.1558L11.4803 16.1888L12.2826 20.7901C12.2898 21.0188 12.2206 21.3983 11.7236 21.4861C11.7502 21.5017 10.4485 21.7086 10.4485 21.7086L10.4651 23.8646L12.7495 23.4663C13.1742 23.393 13.5936 23.3276 14.0038 23.2585L14.5132 26.174L16.2664 25.8678L15.7635 22.9844C16.2465 22.9093 16.7131 22.8317 17.168 22.7527L17.6679 25.6243L19.4219 25.3176L18.915 22.4076C21.8364 21.7239 23.7714 20.6207 23.5447 17.8052C23.3632 15.5386 22.14 14.7253 20.395 14.6156C21.3229 13.9202 21.7992 12.8966 21.385 11.4012ZM20.0164 18.0644C20.3986 20.2433 16.6231 20.6459 15.4337 20.8545L14.7613 16.9907C15.9515 16.784 19.6211 15.7918 20.0164 18.0644ZM18.2501 12.7559C18.5958 14.7388 15.4434 15.0491 14.4535 15.2218L13.8426 11.7191C14.8324 11.5464 17.8896 10.6877 18.2501 12.7559Z" fill="black"/>
</svg>
