<?xml version="1.0" encoding="UTF-8"?>
<svg width="32px" height="32px" viewBox="0 0 32 32" version="1.1" xmlns="http://www.w3.org/2000/svg" xmlns:xlink="http://www.w3.org/1999/xlink">
    <!-- Generator: Sketch 53 (72520) - https://sketchapp.com -->
    <title>svg/black/bcio</title>
    <desc>Created with Sketch.</desc>
    <g id="black/bcio" stroke="none" stroke-width="1" fill="none" fill-rule="evenodd">
        <path d="M16,32 C7.163444,32 0,24.836556 0,16 C0,7.163444 7.163444,0 16,0 C24.836556,0 32,7.163444 32,16 C32,24.836556 24.836556,32 16,32 Z M11.9397143,7.43565714 C11.4568857,7.43565714 11.0639714,7.82865714 11.0639714,8.31165714 C11.0639714,8.7944 11.4568857,9.18722857 11.9397143,9.18722857 C12.4227143,9.18722857 12.8156286,8.7944 12.8156286,8.31165714 C12.8156286,7.82865714 12.4228857,7.43565714 11.9397143,7.43565714 Z M15.9895429,5.00591429 C15.5063714,5.00591429 15.1136286,5.39908571 15.1136286,5.88182857 C15.1136286,6.36482857 15.5065429,6.75774286 15.9895429,6.75774286 C16.4722,6.75774286 16.8655429,6.36482857 16.8655429,5.88182857 C16.8655429,5.39908571 16.4726286,5.00591429 15.9895429,5.00591429 Z M15.9895429,14.7249714 C15.5063714,14.7249714 15.1136286,15.1178857 15.1136286,15.6007143 C15.1136286,16.0834571 15.5065429,16.4763714 15.9895429,16.4763714 C16.4722,16.4763714 16.8655429,16.0834571 16.8655429,15.6007143 C16.8655429,15.1178857 16.4726286,14.7249714 15.9895429,14.7249714 Z M20.0389429,12.2950571 C19.5557714,12.2950571 19.1633714,12.6879714 19.1633714,13.1708 C19.1633714,13.6538 19.5559429,14.0464571 20.0389429,14.0464571 C20.5216,14.0464571 20.9149429,13.6536286 20.9149429,13.1708 C20.9152,12.6880571 20.5218571,12.2950571 20.0389429,12.2950571 Z M24.0882571,9.86557143 C23.6056,9.86557143 23.2126857,10.2583143 23.2126857,10.7411429 C23.2126857,11.2241429 23.6056,11.6174 24.0882571,11.6174 C24.5714286,11.6174 24.9640857,11.2243143 24.9640857,10.7411429 C24.9640857,10.2583143 24.5714286,9.86557143 24.0882571,9.86557143 Z M11.9397143,17.1548857 C11.4568857,17.1548857 11.0639714,17.5476286 11.0639714,18.0302857 C11.0639714,18.5132857 11.4568857,18.9060286 11.9397143,18.9060286 C12.4227143,18.9060286 12.8156286,18.5132857 12.8156286,18.0302857 C12.8156286,17.5476286 12.4228857,17.1548857 11.9397143,17.1548857 Z M7.89031429,9.86557143 C7.4074,9.86557143 7.01474286,10.2583143 7.01474286,10.7411429 C7.01474286,11.2241429 7.40757143,11.6174 7.89031429,11.6174 C8.37314286,11.6174 8.76622857,11.2243143 8.76622857,10.7411429 C8.76622857,10.2583143 8.37314286,9.86557143 7.89031429,9.86557143 Z M7.89031429,19.5842857 C7.4074,19.5842857 7.01474286,19.9770286 7.01474286,20.4600286 C7.01474286,20.9429429 7.40757143,21.3356857 7.89031429,21.3356857 C8.37314286,21.3356857 8.76622857,20.9429429 8.76622857,20.4600286 C8.76622857,19.9770286 8.37314286,19.5842857 7.89031429,19.5842857 Z M7.89031429,14.7249714 C7.4074,14.7249714 7.01474286,15.1178857 7.01474286,15.6007143 C7.01474286,16.0834571 7.40757143,16.4763714 7.89031429,16.4763714 C8.37314286,16.4763714 8.76622857,16.0834571 8.76622857,15.6007143 C8.76622857,15.1178857 8.37314286,14.7249714 7.89031429,14.7249714 Z M15.9895429,9.86557143 C15.5063714,9.86557143 15.1136286,10.2583143 15.1136286,10.7411429 C15.1136286,11.2241429 15.5065429,11.6174 15.9895429,11.6174 C16.4722,11.6174 16.8655429,11.2243143 16.8655429,10.7411429 C16.8655429,10.2583143 16.4726286,9.86557143 15.9895429,9.86557143 Z M20.0389429,7.43565714 C19.5557714,7.43565714 19.1633714,7.82865714 19.1633714,8.31165714 C19.1633714,8.7944 19.5559429,9.18722857 20.0389429,9.18722857 C20.5216,9.18722857 20.9149429,8.7944 20.9149429,8.31165714 C20.9152,7.82865714 20.5218571,7.43565714 20.0389429,7.43565714 Z M20.0389429,17.1548857 C19.5557714,17.1548857 19.1633714,17.5476286 19.1633714,18.0302857 C19.1633714,18.5132857 19.5559429,18.9060286 20.0389429,18.9060286 C20.5216,18.9060286 20.9149429,18.5132857 20.9149429,18.0302857 C20.9152,17.5476286 20.5218571,17.1548857 20.0389429,17.1548857 Z M24.0882571,14.7249714 C23.6056,14.7249714 23.2126857,15.1178857 23.2126857,15.6007143 C23.2126857,16.0834571 23.6056,16.4763714 24.0882571,16.4763714 C24.5714286,16.4763714 24.9640857,16.0834571 24.9640857,15.6007143 C24.9640857,15.1178857 24.5714286,14.7249714 24.0882571,14.7249714 Z M20.0389429,22.0140286 C19.5557714,22.0140286 19.1633714,22.4067714 19.1633714,22.8898571 C19.1633714,23.3726857 19.5559429,23.7654286 20.0389429,23.7654286 C20.5216,23.7654286 20.9149429,23.3726857 20.9149429,22.8898571 C20.9152,22.4067714 20.5218571,22.0140286 20.0389429,22.0140286 Z M24.0882571,19.5842857 C23.6056,19.5842857 23.2126857,19.9770286 23.2126857,20.4600286 C23.2126857,20.9429429 23.6056,21.3356857 24.0882571,21.3356857 C24.5714286,21.3356857 24.9640857,20.9429429 24.9640857,20.4600286 C24.9640857,19.9770286 24.5714286,19.5842857 24.0882571,19.5842857 Z M15.9895429,24.4437714 C15.5063714,24.4437714 15.1136286,24.8368571 15.1136286,25.3196857 C15.1136286,25.8021714 15.5065429,26.1952571 15.9895429,26.1952571 C16.4722,26.1952571 16.8655429,25.8021714 16.8655429,25.3196857 C16.8655429,24.8368571 16.4726286,24.4437714 15.9895429,24.4437714 Z M15.9895429,19.5842857 C15.5063714,19.5842857 15.1136286,19.9770286 15.1136286,20.4600286 C15.1136286,20.9429429 15.5065429,21.3356857 15.9895429,21.3356857 C16.4722,21.3356857 16.8655429,20.9429429 16.8655429,20.4600286 C16.8655429,19.9770286 16.4726286,19.5842857 15.9895429,19.5842857 Z M11.9397143,12.2950571 C11.4568857,12.2950571 11.0639714,12.6879714 11.0639714,13.1708 C11.0639714,13.6538 11.4568857,14.0464571 11.9397143,14.0464571 C12.4227143,14.0464571 12.8156286,13.6536286 12.8156286,13.1708 C12.8156286,12.6880571 12.4228857,12.2950571 11.9397143,12.2950571 Z M11.9397143,22.0140286 C11.4568857,22.0140286 11.0639714,22.4067714 11.0639714,22.8898571 C11.0639714,23.3726857 11.4568857,23.7654286 11.9397143,23.7654286 C12.4227143,23.7654286 12.8156286,23.3726857 12.8156286,22.8898571 C12.8156286,22.4067714 12.4228857,22.0140286 11.9397143,22.0140286 Z" id="Combined-Shape" fill="#000000" fill-rule="nonzero"></path>
    </g>
</svg>