<svg height="32" viewBox="0 0 32 32" width="32" xmlns="http://www.w3.org/2000/svg"><path d="m8.29693217 11.5682513c-.75616058 1.3152872-1.18871574 2.8409745-1.18871574 4.4678933 0 4.9506006 4.00521217 8.9638554 8.94589177 8.9638554s8.9458918-4.0132548 8.9458918-8.9638554c0-4.9506007-4.0052122-8.96385544-8.9458918-8.96385544-1.6410859 0-3.1789628.44277796-4.5011348 1.21561222-.4058464-.76612688-1.2101817-1.28790138-2.13613973-1.28790138-1.33478038 0-2.41683367 1.08422609-2.41683367 2.42168675 0 .93250675.52600585 1.74191155 1.29693217 2.14656455zm7.70306783 20.4317487c-8.836556 0-16-7.163444-16-16s7.163444-16 16-16 16 7.163444 16 16-7.163444 16-16 16zm.0541082-11.5542169c-2.4304956 0-4.4008016-1.9742624-4.4008016-4.4096385s1.970306-4.4096386 4.4008016-4.4096386 4.4008016 1.9742625 4.4008016 4.4096386-1.970306 4.4096385-4.4008016 4.4096385z" fill-rule="evenodd"/></svg>