<svg height="32" viewBox="0 0 32 32" width="32" xmlns="http://www.w3.org/2000/svg"><path d="m16 32c-8.836556 0-16-7.163444-16-16s7.163444-16 16-16 16 7.163444 16 16-7.163444 16-16 16zm-8.1-25c-.49705627 0-.9.40294373-.9.9v6.2c0 .4970563.40294373.9.9.9h6.2c.4970563 0 .9-.4029437.9-.9v-6.2c0-.49705627-.4029437-.9-.9-.9zm10 0c-.4970563 0-.9.40294373-.9.9v6.2c0 .4970563.4029437.9.9.9h6.2c.4970563 0 .9-.4029437.9-.9v-6.2c0-.49705627-.4029437-.9-.9-.9zm0 10c-.4970563 0-.9.4029437-.9.9v6.2c0 .4970563.4029437.9.9.9h6.2c.4970563 0 .9-.4029437.9-.9v-6.2c0-.4970563-.4029437-.9-.9-.9zm-10 0c-.49705627 0-.9.4029437-.9.9v6.2c0 .4970563.40294373.9.9.9h6.2c.4970563 0 .9-.4029437.9-.9v-6.2c0-.4970563-.4029437-.9-.9-.9z" fill-rule="evenodd"/></svg>