<svg height="32" viewBox="0 0 32 32" width="32" xmlns="http://www.w3.org/2000/svg"><path d="m16 32c-8.836556 0-16-7.163444-16-16s7.163444-16 16-16 16 7.163444 16 16-7.163444 16-16 16zm7.099711-20.8702302c-.0469225-2.91367339-3.4009401-3.65998579-3.4009401-3.65998579s1.8826998 1.26585057 1.9297929 3.82880079c.0470931 2.5629503-.9648964 3.5636199-.9648964 3.5636199s2.4829661-.8187615 2.4360436-3.7324349zm-11.1634511 13.6892024v-17.65068094l-3.4362599-.16829126v.2887487s2.1026382.55375507 2.1026382 3.7484958v9.6400867c0 3.7724127-2.1026382 3.9892361-2.1026382 3.9892361v.3210453zm5.4914638.1805116h-.0001706c1.4945231-.0118712 3.7894581-1.058978 4.2131253-3.9125973.4236671-2.8536193-.6703941-4.1660816-1.2355111-4.6475623-.5651171-.4814806-2.1655997-1.0352356-2.1655997-1.0352356s1.0585708-.5422331 1.5414456-1.3246827.8592782-2.2151948.5062507-3.7202145c-.3530275-1.50501972-1.6477463-3.01021398-3.153872-3.22686279-1.5061257-.21664882-2.1454656.03613723-3.9735648.06040329v17.6101793s2.7733735.2087929 4.2678966.1965726zm3.9716879-.6497719s3.1354443-.9034308 3.1002951-4.334722c-.0351492-3.4312913-3.1002951-4.2020443-3.1002951-4.2020443s1.4861623 1.354186 1.5578257 4.2350391-1.5578257 4.3017272-1.5578257 4.3017272zm-3.1009776-10.3348991c-1.0983269 1.4613757-3.8356981 1.0759119-3.8356981 1.0759119s-.0124557-6.16602431.2583295-6.43068153c.2707853-.26465721 1.6711222-.73531411 3.0008195.20477765 1.3296973.94009175 1.6747053 3.68913998.5765491 5.14999198zm.2037288 2.6247501v.0005237c1.0281991.4573892 2.3304254 2.0139088 1.69501 4.5264065-.6354155 2.5124978-2.5655497 2.5844231-3.5775392 2.5446198-1.0119896-.0398033-1.9854174-.0239169-2.0947894-2.9377649s-.0626201-4.4708913-.0626201-4.4708913 3.0122514-.1204575 4.0399387.3371062z" fill="#181818" fill-rule="evenodd"/></svg>