<svg xmlns="http://www.w3.org/2000/svg" width="32" height="32" viewBox="0 0 32 32">
  <path d="M16,32 C7.163444,32 0,24.836556 0,16 C0,7.163444 7.163444,0 16,0 C24.836556,0 32,7.163444 32,16 C32,24.836556 24.836556,32 16,32 Z M11.0215517,7 L16.0905172,16 L10.9310345,25 L21.25,25 L26.5,16 L21.25,7 L11.0215517,7 Z M16.4525862,10.1658291 L19.4396552,10.1658291 L22.7887931,16 L19.4396552,21.8341709 L16.4525862,21.8341709 L19.8017241,16 L16.4525862,10.1658291 Z M12.1125227,11.0263158 L10.2894737,7.78947368 L5.5,16 L10.2478261,24.1391304 L12.0872939,20.9304348 L9.2112069,16 L12.1125227,11.0263158 Z"/>
</svg>
