<svg xmlns="http://www.w3.org/2000/svg" width="32" height="32"><path d="M16 32C7.163 32 0 24.837 0 16S7.163 0 16 0s16 7.163 16 16-7.163 16-16 16zm-3.884-17.596L16 10.52l3.886 3.886 2.26-2.26L16 6l-6.144 6.144 2.26 2.26zM6 16l2.26 2.26L10.52 16l-2.26-2.26L6 16zm6.116 1.596l-2.263 2.257.003.003L16 26l6.146-6.146v-.001l-2.26-2.26L16 21.48l-3.884-3.884zM21.48 16l2.26 2.26L26 16l-2.26-2.26L21.48 16zm-3.188-.002h.001L16 13.706 14.305 15.4l-.195.195-.401.402-.004.003.004.003 2.29 2.291 2.294-2.293.001-.001-.002-.001z"/></svg>