<svg xmlns="http://www.w3.org/2000/svg" width="32" height="32" viewBox="0 0 32 32">
  <path d="M16,32 C7.163444,32 0,24.836556 0,16 C0,7.163444 7.163444,0 16,0 C24.836556,0 32,7.163444 32,16 C32,24.836556 24.836556,32 16,32 Z M15.92,5.87952 L11.4016,8.52704 L15.92,11.17456 L20.5232,8.52704 L15.92,5.87952 Z M16.66304,20.01408 L16.66304,25.30896 L22.8,21.808 L22.8,16.512 L16.66304,20.01408 Z M21.2656,10.192 L16.6624,12.83952 L16.6624,18.13552 L21.2656,15.488 L21.2656,10.192 Z M10.18432,15.488 L14.78752,18.13552 L14.78752,12.83952 L10.18432,10.192 L10.18432,15.488 Z M10.18432,22.6616 L14.78752,25.30912 L14.78752,20.01408 L10.18432,17.36656 L10.18432,22.66144 L10.18432,22.6616 Z"/>
</svg>
