<svg height="32" viewBox="0 0 32 32" width="32" xmlns="http://www.w3.org/2000/svg"><path d="m16 32c-8.836556 0-16-7.163444-16-16s7.163444-16 16-16 16 7.163444 16 16-7.163444 16-16 16zm-1.5681818-13.0491803h2.6590909c3.9393939 0 5.9090909-1.0819672 5.9090909-3.2459017v-5.4590164c0-2.16393439-1.969697-3.2459016-5.9090909-3.2459016h-7.0909091v5.0163934h2.6590909v-3.09836061h4.7272727c1.969697 0 2.9545455.49180328 2.9545455 1.47540981v5.1639344c0 .9836066-.9848485 1.4754099-2.9545455 1.4754099h-2.9545454zm5.9090909 1.1803278v1.4754099c0 .9836065-.9848485 1.4754098-2.9545455 1.4754098h-2.9545454-1.7727273v-7.6721311h4.7272727c.3217303 0 .6171848.0131213.8863637.0393638v-1.921219c-.3719859-.0241184-.7659253-.0361776-1.1818182-.0361776h-7.0909091v11.5081967h7.0909091c3.9393939 0 5.9090909-1.0819672 5.9090909-3.2459016v-1.6229509z" fill-rule="evenodd"/></svg>