<svg xmlns="http://www.w3.org/2000/svg" width="32" height="32"><path fill-rule="evenodd" d="M16 32C7.163 32 0 24.837 0 16S7.163 0 16 0s16 7.163 16 16-7.163 16-16 16zm10.954-16.142l.046-.012c-.021-.29-.03-.583-.066-.87-.077-.609-.132-1.223-.261-1.82-.236-1.092-.667-2.111-1.237-3.07a10.304 10.304 0 0 0-1.634-2.082c-.508-.501-1.064-.942-1.66-1.334a10.129 10.129 0 0 0-2.356-1.133c-.7-.236-1.42-.382-2.157-.466a11.174 11.174 0 0 0-3.343.126c-1.287.241-2.491.712-3.618 1.388a11.575 11.575 0 0 0-3.26 2.901 11.631 11.631 0 0 0-1.822 3.416 11.058 11.058 0 0 0-.579 3.177c-.022.71.006 1.42.105 2.126.136.983.41 1.925.812 2.827a10.317 10.317 0 0 0 1.924 2.9c.47.498.97.957 1.522 1.358a10.541 10.541 0 0 0 3.065 1.529c.23.072.466.121.699.181-2.117-1.162-3.709-2.795-4.663-5.043-.954-2.249-1.088-4.562-.374-6.881 1.2-3.9 4.575-6.884 9.149-7.034 2.113-.069 4.07.56 5.795 1.818 2.047 1.492 3.358 3.496 3.913 5.998zm-11.365 4.23h.007c0 1.37.002 2.74-.004 4.109-.001.159.067.196.196.204.512.03 1.024.078 1.537.09.957.02 1.913-.006 2.836-.31.964-.32 1.599-.947 1.755-1.993.164-1.102-.466-2.055-1.535-2.38-.043-.012-.076-.06-.114-.091.035-.037.063-.09.104-.106.322-.121.586-.318.819-.573.681-.744.593-2.018-.277-2.678-.51-.386-1.097-.573-1.724-.638-.866-.09-1.733-.05-2.6.006a9.88 9.88 0 0 0-.877.109c-.046.007-.118.081-.118.125-.006 1.375-.005 2.75-.005 4.126zm1.873-1.934c0-.275.006-.55-.002-.824-.004-.161.043-.246.219-.243.323.005.649-.023.97.002.2.015.41.071.59.162.649.325.688 1.216.086 1.634-.298.208-.635.281-.987.295-.235.008-.471-.009-.707-.001-.138.005-.174-.06-.173-.183.003-.28.001-.561.001-.842h.003zm-.003 3.666c0-.358.004-.717-.002-1.075-.002-.144.05-.21.194-.21.472 0 .943 0 1.403.135 1 .29 1.077 1.23.715 1.808-.216.346-.567.51-.95.556-.395.048-.798.036-1.198.045-.115.003-.164-.062-.162-.183.005-.359.002-.717.002-1.076h-.002zm6.925-6.188c0-.05.004-.068 0-.084a7.242 7.242 0 0 0-.858-1.876 6.95 6.95 0 0 0-2.827-2.503 6.671 6.671 0 0 0-2.338-.666c-.987-.088-1.965-.016-2.924.278a7.627 7.627 0 0 0-3.042 1.763 7.706 7.706 0 0 0-1.728 2.402c-.56 1.216-.764 2.49-.674 3.82.063.918.322 1.782.717 2.607.07.149.158.29.238.434 0-.247-.03-.475-.057-.704a7.117 7.117 0 0 1 .273-2.906 7.687 7.687 0 0 1 1.575-2.875c.613-.698 1.31-1.29 2.121-1.737a7.628 7.628 0 0 1 2.79-.915 7.403 7.403 0 0 1 2.357.095 6.607 6.607 0 0 1 2.673 1.166c.391.29.748.632 1.098.974.218.213.394.47.606.727z"/></svg>