<svg height="32" viewBox="0 0 32 32" width="32" xmlns="http://www.w3.org/2000/svg"><path d="m16 32c-8.836556 0-16-7.163444-16-16s7.163444-16 16-16 16 7.163444 16 16-7.163444 16-16 16zm-8-22.96096522v13.92193042c0 .5738431.47201925 1.0390348 1.0542845 1.0390348h7.4318416c4.6837885 0 6.423646-.7551455 7.4894527-1.8055358.7020561-.7223498 1.0709367-1.6979645 1.0197178-2.6969482 0-2.1234919-1.3192959-3.17956-3.9175599-3.6337829 2.6904419-.5507452 3.6871152-1.8055358 3.6871152-3.6564939.0577137-.9654598-.2974818-1.9106156-.9793899-2.60610364-1.0888512-1.07310149-2.6673974-1.60113556-7.1437857-1.60113556h-7.5873918c-.58226525 0-1.0542845.46519171-1.0542845 1.03903478zm5.7611175 5.96167492v1.8168914c-.0064058.1906095.0672124.3753892.2035006.5107805.1362881.1353913.3231872.2094147.5166391.2046205h2.3793415c1.5266962 0 2.6616363.0397445 3.1974202.5677786.2433792.2598869.368276.6065911.3456671.9595458.0238285.3463244-.1016828.686488-.3456671.9368346-.5300228.5280341-1.6649629.6415898-3.1974202.6415898h-4.4994327v-9.2320795h4.5455217c1.4114738 0 2.454236.0851668 2.943931.5677786.2209499.2365238.3298142.5542659.2995781.874379.0218462.3282776-.094905.6508634-.3226226.8914123-.4839338.4996451-1.5266961.5677786-2.9208865.5677786h-2.4427139c-.3881768 0-.7028563.3101278-.7028563.6926898z" fill-rule="evenodd"/></svg>