<svg width="32" height="32" viewBox="0 0 32 32" fill="none" xmlns="http://www.w3.org/2000/svg">
<path d="M16 32C24.8365 32 32 24.8365 32 16C32 7.16345 24.8365 0 16 0C7.16345 0 0 7.16345 0 16C0 24.8365 7.16345 32 16 32Z" fill="black"/>
<path d="M27.8991 15.7025L16.2556 4.10334C16.188 4.03711 16.0969 4 16.002 4C15.9072 4 15.8161 4.03711 15.7484 4.10334L4.10493 15.7025C4.03794 15.7698 4.00024 15.8606 4 15.9554C4.00543 15.9848 4.00543 16.0149 4 16.0443C4.00024 16.1391 4.03794 16.23 4.10493 16.2972L15.7484 27.8958C15.8156 27.9625 15.9066 28 16.0014 28C16.0963 28 16.1873 27.9625 16.2544 27.8958L27.8991 16.2972C27.9646 16.2118 28 16.1073 28 15.9999C28 15.8924 27.9646 15.7879 27.8991 15.7025ZM27.0922 16.0029L16.0011 27.0481L4.91184 15.9999L16.0011 4.95163L27.0922 16.0029Z" fill="white"/>
<path d="M12 16.4988C12.0013 17.4361 12.3829 18.3384 13.0685 19.0255C13.7541 19.7127 14.6932 20.1342 15.6984 20.2058V20.6761C15.6879 20.7516 15.71 20.8278 15.7599 20.8881C15.8098 20.9484 15.8834 20.9878 15.9645 20.9976C16.0457 21.0074 16.1277 20.9869 16.1925 20.9405C16.2574 20.8941 16.2997 20.8257 16.3103 20.7502C16.3139 20.7256 16.3139 20.7007 16.3103 20.6761V20.2053C17.3138 20.1315 18.2506 19.7092 18.9343 19.0224C19.618 18.3356 19.9985 17.4346 20 16.4988V16.4276C19.9985 15.4918 19.618 14.5909 18.9343 13.904C18.2506 13.2172 17.3138 12.7949 16.3103 12.7212V12.2499C16.3006 12.1808 16.2643 12.1173 16.208 12.0713C16.1517 12.0254 16.0793 12 16.0044 12C15.9294 12 15.8571 12.0254 15.8008 12.0713C15.7445 12.1173 15.7081 12.1808 15.6984 12.2499V12.7207C14.6932 12.7923 13.7541 13.2138 13.0685 13.9009C12.3829 14.5881 12.0013 15.4904 12 16.4276V16.4988ZM16.3103 16.7656H19.3681C19.283 17.488 18.9322 18.1609 18.3751 18.6707C17.818 19.1804 17.0886 19.4958 16.3103 19.5633V16.7656ZM16.3103 16.1255V13.3631C17.082 13.4302 17.8058 13.7408 18.3613 14.2434C18.9167 14.746 19.2704 15.4102 19.3635 16.1255H16.3103ZM19.3732 16.7139V16.212C19.3815 16.2952 19.3861 16.3789 19.3871 16.463C19.3882 16.5468 19.3835 16.6307 19.3732 16.7139ZM15.6984 13.3622V19.5643C14.8584 19.5037 14.0739 19.1507 13.5017 18.5758C12.9294 18.0009 12.6115 17.2465 12.6115 16.4632C12.6115 15.68 12.9294 14.9255 13.5017 14.3506C14.0739 13.7758 14.8584 13.4228 15.6984 13.3622Z" fill="white"/>
</svg>
