<svg width="32" height="32" viewBox="0 0 32 32" fill="none" xmlns="http://www.w3.org/2000/svg">
<g clip-path="url(#clip0)">
<path d="M31.9999 16C31.9999 24.8346 24.8359 31.9974 15.9961 31.9987C7.16268 31.9987 -0.00134055 24.8346 -6.03491e-05 15.9987C-0.00262076 7.16288 7.1614 0 15.9987 0C24.8359 0 31.9999 7.16416 31.9999 16Z" fill="black"/>
<path d="M22.2947 12.0816C22.0886 9.93887 20.2387 9.22079 17.9011 9.01599V6.04254H16.0921V8.93663C15.6172 8.93663 15.1307 8.94559 14.6481 8.95583V6.04254H12.8391L12.8379 9.01343C12.4461 9.02111 12.0608 9.02879 11.6857 9.02879V9.01983L9.19058 9.01855V10.9513C9.19058 10.9513 10.5271 10.9257 10.5041 10.9501C11.2376 10.9501 11.4757 11.375 11.5449 11.7424V15.1293C11.5961 15.1293 11.6614 15.1318 11.7356 15.1421H11.5449L11.5436 19.887C11.5116 20.1174 11.3759 20.4848 10.8638 20.4861C10.8868 20.5066 9.54904 20.4861 9.54904 20.4861L9.1893 22.6467H11.5449C11.9827 22.6467 12.4141 22.6544 12.8366 22.657L12.8379 25.6637H14.6455V22.689C15.1409 22.6992 15.621 22.703 16.0909 22.703L16.0896 25.6637H17.8985V22.6634C20.9402 22.4893 23.0718 21.7226 23.3355 18.8656C23.5493 16.5654 22.4675 15.5376 20.7405 15.1229C21.7916 14.5904 22.4483 13.6496 22.2947 12.0816ZM19.7625 18.5098C19.7625 20.7562 15.9155 20.5014 14.6878 20.5014V16.5168C15.9155 16.5194 19.7625 16.1674 19.7625 18.5098ZM18.9201 12.8893C18.9201 14.9334 15.7094 14.6941 14.6878 14.6954V11.0832C15.7106 11.0832 18.9214 10.7581 18.9201 12.8893Z" fill="white"/>
<path d="M11.5474 15.049H11.8163V15.2474H11.5474V15.049Z" fill="white"/>
</g>
<defs>
<clipPath id="clip0">
<rect width="32" height="32" fill="white"/>
</clipPath>
</defs>
</svg>
