<svg height="32" viewBox="0 0 32 32" width="32" xmlns="http://www.w3.org/2000/svg"><g fill="none" fill-rule="nonzero"><circle cx="16" cy="16" fill="#000" r="16"/><g fill="#fff" transform="translate(3 3)"><path d="m12.9615222 1.94038055c-6.08773784 0-11.02114165 4.93340381-11.02114165 11.02114165 0 6.0877378 4.93340381 11.0238901 11.02114165 11.0238901 6.0877378 0 11.0238901-4.9361523 11.0238901-11.0238901 0-6.08773784-4.9361523-11.02114165-11.0238901-11.02114165zm.0357294 1.74524313c3.0260042 0 5.4775898 2.45158562 5.4775898 5.47758985 0 .66236787-.1181818 1.29999997-.3353065 1.88816067-.2006343-.032981-.4067653-.0522199-.6183933-.0522199-.7887949 0-1.5171247.2556026-2.1080338.6843552.6623679-.6348837 1.07463-1.5281184 1.07463-2.51754755 0-1.9293869-1.5638477-3.49323468-3.4932346-3.49598309-1.8084567 0-3.29534887 1.3769556-3.4739958 3.13868922-.34080338-.06046512-.68985201-.09344609-1.04989429-.09344609-.31881607 0-.63213531.02473573-.9372093.07420719.192389-2.85010571 2.56427059-5.1038055 5.46384779-5.1038055zm2.0145877 10.29281182-1.9376321-1.1598308c-.1291755-.0769557-.2885835-.0769557-.417759.0027484l-1.7012685 1.0498943c-.1346723.0824524-.2088795.239112-.1868922.3957716.0192389.145666.0274842.2940804.0192389.4479916-.0604651 1.1983086-1.04714585 2.1657505-2.24820293 2.2014799-1.31649049.0412262-2.39936575-1.0169133-2.39661734-2.3251586.00274842-1.2615222 1.02790698-2.3031712 2.28668076-2.3224101.70359408-.0109937 1.3384778.2913319 1.77272731.7778012.1236786.1401692.3298097.1704017.4919661.0797041l1.638055-.9179704c.1264271-.0714588.2061311-.2061311.2061311-.3517971v-.0989429c0-.1731501-.112685-.3270613-.2775899-.3820296-.9234672-.3078224-1.5913319-1.1790698-1.5913319-2.20697674 0-1.32198732 1.1021142-2.38287526 2.4350951-2.32241015 1.1653277.05496829 2.1245244.98668076 2.2069768 2.15200846.0824524 1.15433403-.6788584 2.14651163-1.7315011 2.41860463-.1786469.0467231-.3078224.2033827-.3078224.3902749v.0164904c0 .1401692.0742072.2693447.192389.3435518l1.7205074 1.0581396c.1704017.1071881.3957717.0687103.5221988-.0879493.4369978-.544186 1.1131078-.8877378 1.8689217-.8712473 1.220296.0274841 2.2234673 1.0169133 2.2646935 2.2454545.046723 1.3604651-1.0773785 2.4735729-2.4433404 2.4048626-1.1515856-.0577167-2.0970402-.9701903-2.1959831-2.1190275-.0137421-.1484144-.0109936-.2913319.0027484-.4342495.0164905-.1566596-.0604651-.305074-.192389-.384778zm-6.54672302 6.0327696c-2.99577167 0-5.42262157-2.4268499-5.42262157-5.4226216s2.4268499-5.42262155 5.42262157-5.42262155c.35454545 0 .70084567.03298097 1.03615222.09894291.02748414.95095134.43424947 1.80570824 1.07463 2.42135304-.59090907-.431501-1.31923888-.6871036-2.10803381-.6871036-1.98160676 0-3.58942917 1.6078224-3.58942917 3.5894292s1.60782241 3.5894292 3.58942917 3.5894292c1.51162791 0 2.80338271-.9344609 3.33107821-2.2591966.1704017.7448203.4864694 1.4346723.9124736 2.0420718-.994926 1.2505286-2.5257928 2.0503172-4.24630022 2.0503172zm9.05602532 0c-2.872093 0-5.2219873-2.2317125-5.4116279-5.0543341.2885836.0439747.5854123.065962.8849895.065962.3270613 0 .6458773-.0247357.9564482-.0769556.1786469 1.8139535 1.7095137 3.2321353 3.5701902 3.2321353 1.9816068 0 3.5894292-1.6078224 3.5894292-3.5894292 0-1.638055-1.0966173-3.0205074-2.5972516-3.44926.2033827-.5661734.3215645-1.17632139.338055-1.80845669 2.3498943.59090909 4.092389 2.72093019 4.092389 5.25771669 0 2.9957717-2.4268499 5.4226216-5.4226216 5.4226216z"/><path d="m13 0c-7.17885835 0-13 5.82114165-13 13 0 7.1788584 5.82114165 13 13 13 7.1788584 0 13-5.8211416 13-13 0-7.17885835-5.8211416-13-13-13zm-.0384778 25.0215645c-6.65940804 0-12.05729387-5.3978859-12.05729387-12.0572939 0-6.65940802 5.39788583-12.05729386 12.05729387-12.05729386 6.659408 0 12.0572939 5.39788584 12.0572939 12.05729386 0 6.659408-5.3978859 12.0572939-12.0572939 12.0572939z"/></g></g></svg>