<svg xmlns="http://www.w3.org/2000/svg" width="32" height="32" viewBox="0 0 32 32">
  <path d="M10.8269,15.3755 L12.5716,11.6768 L7.2306,17.0201 L6,18.2484 L9.8942,22.1058 L9.0822,19.0742 L10.8269,15.3755 L9.0822,19.0742 L14.5244,13.632 L12.5716,11.6768 L10.8269,15.3755 Z M16,32 C7.163444,32 0,24.836556 0,16 C0,7.163444 7.163444,0 16,0 C24.836556,0 32,7.163444 32,16 C32,24.836556 24.836556,32 16,32 Z M12.9258,9.0822 L18.368,14.5244 L13.7516,6 L9.8919,9.8942 L12.9258,9.0822 Z M19.0742,22.9178 L13.632,17.4756 L18.2484,26 L22.1058,22.1058 L19.0742,22.9178 Z M20.0403,9.3399 L22.1058,9.8919 L22.9201,12.9235 L17.4756,18.368 L19.4284,20.3209 L26,13.7516 L24.3623,7.6377 L18.2484,6 L17.4756,6.7752 L20.0403,9.3399 Z M13.7516,26 L14.5244,25.2248 L11.9598,22.6579 L9.8942,22.1058 L6,18.2484 L7.64,24.36 L13.7516,26 Z M26,18.2484 L25.2248,17.4756 L22.6602,20.0403 L22.1058,22.1058 L18.2484,26 L24.3623,24.3623 L26,18.2484 Z M6,13.7516 L6.7752,14.5244 L9.3399,11.9575 L9.8919,9.8942 L13.7516,6 L7.64,7.6377 L6,13.7516 Z M20.3209,12.5693 L14.9799,7.2306 L13.7516,6 L18.368,14.5244 L20.3209,12.5693 Z M11.6791,19.4284 L18.2484,26 L13.632,17.4756 L11.6791,19.4284 Z"/>
</svg>
