<svg width="32" height="32" viewBox="0 0 32 32" fill="none" xmlns="http://www.w3.org/2000/svg">
<path d="M16 32C24.8366 32 32 24.8366 32 16C32 7.16344 24.8366 0 16 0C7.16344 0 0 7.16344 0 16C0 24.8366 7.16344 32 16 32Z" fill="black"/>
<path d="M25.7022 15.5256C25.3736 15.8571 24.8949 16.1875 24.3546 16.456C23.8143 16.7245 23.2615 16.9065 22.7983 16.9686C22.3447 17.0293 22.1467 16.9508 22.1105 16.9219L22.0203 16.7465C21.9868 16.6813 22.0306 16.604 22.1038 16.5972C22.1043 16.5972 22.1048 16.5972 22.1053 16.5971C22.7005 16.5414 23.4081 16.322 24.098 15.9792C24.7879 15.6364 25.3898 15.2051 25.7927 14.7648C25.8001 14.7567 25.8073 14.7488 25.8145 14.7408C25.8627 14.687 25.9497 14.6984 25.9827 14.7625L26.0792 14.9503C26.08 14.9974 26.0229 15.2022 25.7022 15.5256ZM21.7302 15.6887C21.5697 15.6795 21.4809 15.5015 21.5701 15.3683C21.627 15.2834 21.7093 15.1805 21.8272 15.0616C22.1559 14.7302 22.6345 14.3997 23.1749 14.1312C23.7152 13.8627 24.2679 13.6807 24.7312 13.6186C24.8974 13.5963 25.0293 13.5927 25.1315 13.5986C25.292 13.6078 25.3809 13.7857 25.2916 13.9189C25.2348 14.0039 25.1524 14.1068 25.0345 14.2257C24.7058 14.5572 24.2272 14.8877 23.6868 15.1561C23.1466 15.4246 22.5938 15.6066 22.1305 15.6687C21.9643 15.691 21.8324 15.6946 21.7302 15.6887ZM26.9082 14.5474L26.2381 13.2429H26.2381C26.1119 12.9943 25.7525 12.5975 24.7563 12.6902C24.1612 12.7458 23.4535 12.9652 22.7636 13.308C22.0738 13.6508 21.4719 14.0822 21.069 14.5226C20.3904 15.2642 20.4972 15.7915 20.6212 16.0398C20.622 16.0413 20.6229 16.0428 20.6237 16.0443L20.6236 16.0444L21.2903 17.3424C21.4029 17.5657 21.704 17.9108 22.4886 17.9108C22.5771 17.9108 22.6718 17.9064 22.7731 17.8969C23.3682 17.8414 24.0759 17.6219 24.7658 17.2791C25.4558 16.9363 26.0576 16.505 26.4605 16.0646C27.139 15.323 27.0323 14.7957 26.9082 14.5474ZM22.6 22.7477C20.7634 24.5281 18.3424 25.497 15.7778 25.4777C13.1998 25.4576 10.7854 24.4464 8.97909 22.6303C7.1729 20.8144 6.17823 18.3981 6.17823 15.8268C6.17823 10.5048 10.5193 6.17509 15.8551 6.17509C18.3931 6.17509 20.7916 7.14791 22.6087 8.91417C22.8002 9.10038 22.8973 9.34928 22.8832 9.61699C22.8678 9.91005 22.7095 10.1773 22.4707 10.3488L21.1437 11.3024C20.8776 11.4936 20.5343 11.5273 20.2427 11.4103C20.1968 11.3918 20.0871 11.3085 19.9841 11.2259C19.8506 11.1186 19.7954 10.9418 19.8443 10.7779C19.9762 10.3354 20.2236 9.45077 20.2316 9.01432C20.2501 8.01049 19.8209 7.68482 19.5633 7.58002L18.1964 7.04177C17.9371 6.93823 17.4041 6.87657 16.7176 7.60262C16.3076 8.03639 15.9214 8.66724 15.6304 9.37912C15.5891 9.47998 15.5507 9.58093 15.5145 9.68179C13.9792 9.76439 12.5511 10.404 11.4625 11.5045C10.2938 12.686 9.66271 14.2512 9.68529 15.912C9.731 19.268 12.4943 21.9811 15.8555 21.9807C15.8706 21.9807 15.8862 21.9807 15.9012 21.9806C17.4008 21.9696 18.8428 21.4157 19.9615 20.4207C20.298 20.1214 20.7841 20.0928 21.1437 20.3512L22.4917 21.3199C22.7178 21.4823 22.8592 21.7346 22.8797 22.0118C22.9 22.2874 22.798 22.5556 22.6 22.7477ZM19.3053 9.10889C19.278 9.57431 19.1374 10.1376 18.9094 10.6952C18.6814 11.2526 18.3869 11.7534 18.0801 12.1052C17.7798 12.4494 17.5791 12.5209 17.5326 12.5231L17.3489 12.4507C17.2807 12.4239 17.2622 12.337 17.3124 12.2839C17.3129 12.2834 17.3134 12.2829 17.3138 12.2825C17.7239 11.8488 18.1101 11.2179 18.4011 10.5061C18.6922 9.79431 18.8585 9.07401 18.8695 8.47796C18.8698 8.46709 18.8699 8.4563 18.87 8.4456C18.8707 8.37347 18.9434 8.32465 19.0108 8.35119L19.2074 8.42859C19.2394 8.46347 19.332 8.65488 19.3053 9.10889ZM16.718 11.5688C16.6079 11.6951 16.5113 11.7846 16.4306 11.8475C16.304 11.9462 16.1194 11.8711 16.0982 11.7123C16.0847 11.611 16.0784 11.4796 16.0882 11.3126C16.1156 10.8472 16.2562 10.2839 16.4842 9.72636C16.7122 9.16889 17.0067 8.66811 17.3135 8.31639C17.4236 8.19017 17.5202 8.10064 17.6009 8.03773C17.7274 7.93899 17.912 8.01403 17.9332 8.17292C17.9467 8.2741 17.9531 8.40552 17.9433 8.57244C17.9159 9.03795 17.7753 9.60124 17.5473 10.1588C17.3193 10.7163 17.0248 11.217 16.718 11.5688ZM17.6785 15.4773C17.9023 15.5733 18.0448 15.715 18.1268 15.9234C18.3155 16.4029 18.1667 16.6449 17.6571 17.2688C17.3256 17.6744 16.9134 18.1791 16.724 18.8741C16.6714 19.0674 16.5517 19.585 16.5659 20.2396C16.572 20.5217 16.4375 20.7706 16.2305 20.7849C16.0389 20.7982 15.8629 20.8056 15.8556 20.8056C15.1758 20.8056 14.5261 20.6684 13.9334 20.4203C13.9701 19.509 14.3667 18.7635 15.061 18.3114C15.3097 18.1494 15.3797 17.817 15.2173 17.5689C15.0549 17.3208 14.7216 17.2511 14.4728 17.413C13.6339 17.9593 13.0869 18.8229 12.9136 19.844C12.4174 19.4815 11.9903 19.03 11.6562 18.5133C11.5028 18.2762 11.5511 17.8972 11.75 17.6965C12.5555 16.884 13.5017 16.2636 14.6223 15.8121C15.4178 15.4917 16.8883 15.1381 17.6785 15.4773ZM23.1804 20.3665L21.8323 19.3977C21.0211 18.8147 19.9293 18.8749 19.1773 19.5437C18.7535 19.9205 18.272 20.2181 17.7556 20.4301C17.7166 19.955 17.7741 19.5019 17.8611 19.1821C17.9848 18.7279 18.2692 18.3797 18.5705 18.011C19.0647 17.406 19.6799 16.653 19.2235 15.4939C19.0274 14.9958 18.6542 14.6167 18.1442 14.3978C16.6587 13.7603 14.4302 14.6222 14.181 14.7225C12.9304 15.2263 11.8701 15.9172 10.9632 16.8191C10.9021 16.5201 10.8677 16.2117 10.8634 15.8961C10.8452 14.5522 11.3558 13.2856 12.3013 12.3298C13.093 11.5293 14.1069 11.0303 15.2062 10.889C15.1802 11.0692 15.165 11.243 15.162 11.4072C15.1434 12.4109 15.5727 12.7366 15.8303 12.8414C15.8318 12.842 15.8337 12.8425 15.8352 12.8431L15.8351 12.8434L17.1953 13.379C17.2787 13.4125 17.3905 13.4419 17.527 13.4419C17.814 13.4418 18.2096 13.312 18.676 12.8188C18.8585 12.6257 19.0364 12.3932 19.2032 12.1321C19.9359 12.7736 21.038 12.8268 21.8324 12.2558L23.1809 11.2869C23.6909 10.9203 24.0102 10.3512 24.0568 9.72557C24.1029 9.10653 23.8748 8.50402 23.431 8.07269C21.3926 6.09124 18.7021 5 15.8551 5C9.86963 5 5 9.8569 5 15.8268C5 18.7103 6.11602 21.4204 8.14263 23.458C10.1693 25.4956 12.8776 26.6302 15.7686 26.6528C15.7977 26.6531 15.8264 26.6531 15.8554 26.6531C18.6978 26.6531 21.3819 25.5673 23.4212 23.5902C23.8698 23.1554 24.1007 22.5487 24.0547 21.9257C24.0086 21.3009 23.69 20.7325 23.1804 20.3665Z" fill="white"/>
</svg>
