<svg height="32" viewBox="0 0 32 32" width="32" xmlns="http://www.w3.org/2000/svg"><path d="m16 32c-8.836556 0-16-7.163444-16-16s7.163444-16 16-16 16 7.163444 16 16-7.163444 16-16 16zm-4.2937669-12.703821.5245814-2.2896615 1.5288747.0001768-1.2622529 6.9933057h4.874956c3.0168354 0 4.8757412-1.3470529 5.3317415-3.8727368l.2280791-1.2655456c.2951515-1.6361765-.0995841-2.769983-1.2721806-3.3707654 1.1841719-.5785091 1.8728366-1.5822889 2.1455589-3.0905166l.0999668-.5555352c.467727-2.59038892-.7963933-3.8449004-3.9145131-3.8449004h-4.6056713l-1.1425283 6.3288352-4.57745618-.003188-.51012152 2.443075h-5.1552676zm5.0659648-2.746994h1.4898079c1.5128559 0 2.0469747.6135979 1.7686171 2.1564822l-.2446994 1.3540327c-.2174662 1.2070041-.8594192 1.7189391-2.0126944 1.7189391h-1.9449632zm1.1423312-6.328934.1846643-.0000299 1.4112915-.0002279c1.1804362 0 1.6462571.6207259 1.4210956 1.8684508l-.1561338.866168c-.2310566 1.2785687-.9843422 1.8298403-2.2727167 1.8298403h-1.412227z" fill-rule="evenodd"/></svg>