<svg width="32" height="32" viewBox="0 0 32 32" fill="none" xmlns="http://www.w3.org/2000/svg">
<path d="M16 32C24.8366 32 32 24.8366 32 16C32 7.16344 24.8366 0 16 0C7.16344 0 0 7.16344 0 16C0 24.8366 7.16344 32 16 32Z" fill="black"/>
<mask id="path-2-inside-1" fill="white">
<path fill-rule="evenodd" clip-rule="evenodd" d="M8.88054 8.35666C8.52983 6.55005 9.93268 4.88242 11.7564 4.88242C13.3697 4.88242 14.7024 6.20263 14.7024 7.80078V11.414C15.1232 11.414 15.5441 11.3445 15.9649 11.3445C16.3858 11.3445 16.7365 11.3445 17.1574 11.414V7.80078C17.1574 6.20263 18.4901 4.88242 20.1033 4.88242C21.9271 4.88242 23.3299 6.55005 23.0493 8.35666L22.2778 12.5952C25.0133 13.7765 27.1176 15.861 27.1176 18.432V20.0301C27.1176 22.1842 25.7147 23.9908 23.6806 25.172C21.6465 26.4228 18.9811 27.1176 15.9649 27.1176C12.9488 27.1176 10.2834 26.4228 8.24926 25.172C6.28527 23.9908 4.88242 22.1842 4.88242 20.0301V18.432C4.88242 15.861 6.91655 13.7765 9.65211 12.5952L8.88054 8.35666ZM21.2256 13.1511L22.1375 8.14821C22.3479 6.89748 21.4361 5.71624 20.1033 5.71624C18.9811 5.71624 18.0692 6.61954 18.0692 7.7313V12.3173C17.7886 12.2478 17.4379 12.2478 17.1574 12.2478C16.7365 12.2478 16.3858 12.1783 15.9649 12.1783C15.5441 12.1783 15.1232 12.1783 14.7024 12.2478C14.4218 12.2478 14.0711 12.3173 13.7905 12.3173V7.80078C13.7905 6.68902 12.8787 5.78572 11.7564 5.78572C10.4938 5.78572 9.51182 6.96696 9.79239 8.21769L10.7042 13.2206C7.75826 14.3324 5.79427 16.2779 5.79427 18.5015V20.0996C5.79427 23.5044 10.3535 26.2838 15.9649 26.2838C21.5763 26.2838 26.1356 23.5044 26.1356 20.0996V18.5015C26.2057 16.2085 24.2418 14.2629 21.2256 13.1511Z"/>
</mask>
<path fill-rule="evenodd" clip-rule="evenodd" d="M8.88054 8.35666C8.52983 6.55005 9.93268 4.88242 11.7564 4.88242C13.3697 4.88242 14.7024 6.20263 14.7024 7.80078V11.414C15.1232 11.414 15.5441 11.3445 15.9649 11.3445C16.3858 11.3445 16.7365 11.3445 17.1574 11.414V7.80078C17.1574 6.20263 18.4901 4.88242 20.1033 4.88242C21.9271 4.88242 23.3299 6.55005 23.0493 8.35666L22.2778 12.5952C25.0133 13.7765 27.1176 15.861 27.1176 18.432V20.0301C27.1176 22.1842 25.7147 23.9908 23.6806 25.172C21.6465 26.4228 18.9811 27.1176 15.9649 27.1176C12.9488 27.1176 10.2834 26.4228 8.24926 25.172C6.28527 23.9908 4.88242 22.1842 4.88242 20.0301V18.432C4.88242 15.861 6.91655 13.7765 9.65211 12.5952L8.88054 8.35666ZM21.2256 13.1511L22.1375 8.14821C22.3479 6.89748 21.4361 5.71624 20.1033 5.71624C18.9811 5.71624 18.0692 6.61954 18.0692 7.7313V12.3173C17.7886 12.2478 17.4379 12.2478 17.1574 12.2478C16.7365 12.2478 16.3858 12.1783 15.9649 12.1783C15.5441 12.1783 15.1232 12.1783 14.7024 12.2478C14.4218 12.2478 14.0711 12.3173 13.7905 12.3173V7.80078C13.7905 6.68902 12.8787 5.78572 11.7564 5.78572C10.4938 5.78572 9.51182 6.96696 9.79239 8.21769L10.7042 13.2206C7.75826 14.3324 5.79427 16.2779 5.79427 18.5015V20.0996C5.79427 23.5044 10.3535 26.2838 15.9649 26.2838C21.5763 26.2838 26.1356 23.5044 26.1356 20.0996V18.5015C26.2057 16.2085 24.2418 14.2629 21.2256 13.1511Z" fill="white"/>
<path d="M8.88054 8.35666L9.86444 8.17756L9.86221 8.16609L8.88054 8.35666ZM14.7024 11.414H13.7024V12.414H14.7024V11.414ZM17.1574 11.414L16.9945 12.4006L18.1574 12.5926V11.414H17.1574ZM23.0493 8.35666L24.0332 8.53575L24.0355 8.52297L24.0375 8.51013L23.0493 8.35666ZM22.2778 12.5952L21.2939 12.4162L21.1516 13.1982L21.8813 13.5133L22.2778 12.5952ZM23.6806 25.172L23.1784 24.3073L23.1676 24.3136L23.1568 24.3202L23.6806 25.172ZM8.24926 25.172L8.77306 24.3201L8.76467 24.3151L8.24926 25.172ZM9.65211 12.5952L10.0485 13.5133L10.7783 13.1982L10.6359 12.4162L9.65211 12.5952ZM21.2256 13.1511L20.2418 12.9718L20.0911 13.7987L20.8798 14.0894L21.2256 13.1511ZM22.1375 8.14821L23.1214 8.32754L23.1236 8.31412L22.1375 8.14821ZM18.0692 12.3173L17.8288 13.288L19.0692 13.5952V12.3173H18.0692ZM14.7024 12.2478V13.2478H14.7844L14.8653 13.2345L14.7024 12.2478ZM13.7905 12.3173H12.7905V13.3173H13.7905V12.3173ZM9.79239 8.21769L10.7762 8.03838L10.7726 8.01851L10.7681 7.99881L9.79239 8.21769ZM10.7042 13.2206L11.0573 14.1562L11.8376 13.8618L11.688 13.0413L10.7042 13.2206ZM26.1356 18.5015L25.1361 18.4709L25.1356 18.4862V18.5015H26.1356ZM9.86221 8.16609C9.63311 6.98594 10.552 5.88242 11.7564 5.88242V3.88242C9.31338 3.88242 7.42654 6.11417 7.89887 8.54723L9.86221 8.16609ZM11.7564 5.88242C12.8263 5.88242 13.7024 6.76377 13.7024 7.80078H15.7024C15.7024 5.64149 13.913 3.88242 11.7564 3.88242V5.88242ZM13.7024 7.80078V11.414H15.7024V7.80078H13.7024ZM14.7024 12.414C14.9609 12.414 15.2125 12.3927 15.4159 12.3759C15.6333 12.3579 15.8026 12.3445 15.9649 12.3445V10.3445C15.7064 10.3445 15.4548 10.3659 15.2514 10.3826C15.034 10.4006 14.8647 10.414 14.7024 10.414V12.414ZM15.9649 12.3445C16.3915 12.3445 16.6651 12.3463 16.9945 12.4006L17.3203 10.4274C16.8079 10.3428 16.3801 10.3445 15.9649 10.3445V12.3445ZM18.1574 11.414V7.80078H16.1574V11.414H18.1574ZM18.1574 7.80078C18.1574 6.76377 19.0335 5.88242 20.1033 5.88242V3.88242C17.9467 3.88242 16.1574 5.64149 16.1574 7.80078H18.1574ZM20.1033 5.88242C21.3007 5.88242 22.2496 6.98993 22.0612 8.2032L24.0375 8.51013C24.4102 6.11018 22.5535 3.88242 20.1033 3.88242V5.88242ZM22.0655 8.17757L21.2939 12.4162L23.2616 12.7743L24.0332 8.53575L22.0655 8.17757ZM21.8813 13.5133C24.4736 14.6327 26.1176 16.4567 26.1176 18.432H28.1176C28.1176 15.2654 25.5531 12.9203 22.6742 11.6772L21.8813 13.5133ZM26.1176 18.432V20.0301H28.1176V18.432H26.1176ZM26.1176 20.0301C26.1176 21.7055 25.0273 23.2336 23.1784 24.3073L24.1828 26.0368C26.4022 24.7479 28.1176 22.6629 28.1176 20.0301H26.1176ZM23.1568 24.3202C21.3101 25.4557 18.8347 26.1176 15.9649 26.1176V28.1176C19.1275 28.1176 21.9828 27.3898 24.2044 26.0239L23.1568 24.3202ZM15.9649 26.1176C13.0952 26.1176 10.6197 25.4557 8.77304 24.3202L7.72548 26.0239C9.94704 27.3898 12.8024 28.1176 15.9649 28.1176V26.1176ZM8.76467 24.3151C6.97867 23.2409 5.88242 21.7106 5.88242 20.0301H3.88242C3.88242 22.6578 5.59187 24.7407 7.73385 26.029L8.76467 24.3151ZM5.88242 20.0301V18.432H3.88242V20.0301H5.88242ZM5.88242 18.432C5.88242 16.444 7.47397 14.625 10.0485 13.5133L9.25568 11.6772C6.35913 12.9279 3.88242 15.2781 3.88242 18.432H5.88242ZM10.6359 12.4162L9.86437 8.17757L7.89671 8.53575L8.66828 12.7743L10.6359 12.4162ZM22.2094 13.3304L23.1213 8.32752L21.1537 7.9689L20.2418 12.9718L22.2094 13.3304ZM23.1236 8.31412C23.4304 6.4904 22.0916 4.71624 20.1033 4.71624V6.71624C20.7805 6.71624 21.2654 7.30456 21.1513 7.9823L23.1236 8.31412ZM20.1033 4.71624C18.4377 4.71624 17.0692 6.05839 17.0692 7.7313H19.0692C19.0692 7.18068 19.5244 6.71624 20.1033 6.71624V4.71624ZM17.0692 7.7313V12.3173H19.0692V7.7313H17.0692ZM18.3096 11.3466C17.8874 11.2421 17.4055 11.2478 17.1574 11.2478V13.2478C17.4703 13.2478 17.6899 13.2536 17.8288 13.288L18.3096 11.3466ZM17.1574 11.2478C16.9984 11.2478 16.8484 11.2349 16.6508 11.2171C16.4626 11.2002 16.2268 11.1783 15.9649 11.1783V13.1783C16.1239 13.1783 16.2739 13.1913 16.4715 13.209C16.6597 13.226 16.8955 13.2478 17.1574 13.2478V11.2478ZM15.9649 11.1783C15.5572 11.1783 15.0545 11.1762 14.5395 11.2612L14.8653 13.2345C15.192 13.1805 15.531 13.1783 15.9649 13.1783V11.1783ZM14.7024 11.2478C14.4965 11.2478 14.2807 11.2728 14.137 11.2886C13.9651 11.3075 13.8652 11.3173 13.7905 11.3173V13.3173C13.9964 13.3173 14.2122 13.2924 14.3559 13.2766C14.5278 13.2576 14.6277 13.2478 14.7024 13.2478V11.2478ZM14.7905 12.3173V7.80078H12.7905V12.3173H14.7905ZM14.7905 7.80078C14.7905 6.12788 13.422 4.78572 11.7564 4.78572V6.78572C12.3353 6.78572 12.7905 7.25017 12.7905 7.80078H14.7905ZM11.7564 4.78572C9.87243 4.78572 8.39169 6.54223 8.81664 8.43658L10.7681 7.99881C10.632 7.3917 11.1152 6.78572 11.7564 6.78572V4.78572ZM8.8086 8.397L9.72045 13.3999L11.688 13.0413L10.7762 8.03838L8.8086 8.397ZM10.3512 12.285C7.27714 13.4451 4.79427 15.6392 4.79427 18.5015H6.79427C6.79427 16.9167 8.23938 15.2196 11.0573 14.1562L10.3512 12.285ZM4.79427 18.5015V20.0996H6.79427V18.5015H4.79427ZM4.79427 20.0996C4.79427 22.2857 6.25269 24.104 8.25548 25.3227C10.2772 26.553 13.0059 27.2838 15.9649 27.2838V25.2838C13.3126 25.2838 10.956 24.6249 9.29517 23.6142C7.61548 22.5921 6.79427 21.3183 6.79427 20.0996H4.79427ZM15.9649 27.2838C18.924 27.2838 21.6527 26.553 23.6744 25.3227C25.6772 24.104 27.1356 22.2857 27.1356 20.0996H25.1356C25.1356 21.3183 24.3144 22.5921 22.6347 23.6142C20.9739 24.6249 18.6173 25.2838 15.9649 25.2838V27.2838ZM27.1356 20.0996V18.5015H25.1356V20.0996H27.1356ZM27.1351 18.532C27.2256 15.574 24.7143 13.3713 21.5715 12.2128L20.8798 14.0894C23.7692 15.1545 25.1859 16.843 25.1361 18.4709L27.1351 18.532Z" fill="black" mask="url(#path-2-inside-1)"/>
<path d="M5.67654 17.8824H5.17654V18.3824V20.0131C5.17654 21.9899 6.48626 23.7038 8.43041 24.8973C10.3834 26.0961 13.049 26.8235 15.9645 26.8235C18.8801 26.8235 21.5457 26.0961 23.4987 24.8973C25.277 23.8056 26.5245 22.2786 26.7244 20.5131H26.8235V20.0131V18.3824V17.8824H26.3235H5.67654Z" fill="white" stroke="black"/>
<path fill-rule="evenodd" clip-rule="evenodd" d="M9.66354 8.12895C9.37876 6.86771 10.3755 5.67654 11.657 5.67654C12.7962 5.67654 13.7217 6.58744 13.7217 7.70854V12.3331C14.4337 12.263 15.1457 12.1929 15.9288 12.1929C16.6408 12.1929 17.3528 12.263 18.0647 12.3331V7.70854C18.0647 6.58744 18.9903 5.67654 20.1294 5.67654C21.4109 5.67654 22.4077 6.86771 22.1941 8.12895L21.2686 13.1739C24.2588 14.295 26.3235 16.2569 26.3235 18.4991C26.3235 21.9325 21.6957 24.7353 16 24.7353C10.3043 24.7353 5.67654 21.9325 5.67654 18.4991C5.67654 16.2569 7.67004 14.295 10.6603 13.1739L9.66354 8.12895Z" fill="white"/>
<path d="M12.8236 17.5882C12.8236 18.8787 12.3024 19.9706 11.6324 19.9706C10.9624 19.9706 10.4412 18.8787 10.4412 17.5882C10.4412 16.2978 10.9624 15.2059 11.6324 15.2059C12.3024 15.2059 12.8236 16.2978 12.8236 17.5882Z" fill="black"/>
<path d="M21.5588 17.5882C21.5588 18.8787 21.0377 19.9706 20.3676 19.9706C19.6976 19.9706 19.1765 18.8787 19.1765 17.5882C19.1765 16.2978 19.6976 15.2059 20.3676 15.2059C21.0377 15.2059 21.5588 16.2978 21.5588 17.5882Z" fill="black"/>
</svg>
