<svg width="32" height="32" viewBox="0 0 32 32" xmlns="http://www.w3.org/2000/svg"><path d="M16 32C7.163 32 0 24.837 0 16S7.163 0 16 0s16 7.163 16 16-7.163 16-16 16zm.017-10.196a4.964 4.964 0 0 1-2.227-.416 5.592 5.592 0 0 1-1.937-1.386 5.267 5.267 0 0 1-1.38-3.591c-.026-.74.075-1.48.298-2.186.199-.596.5-1.153.888-1.646a5.356 5.356 0 0 1 1.643-1.398 5.086 5.086 0 0 1 1.92-.606 5.92 5.92 0 0 1 1.65.021c.7.116 1.37.374 1.966.758A5.44 5.44 0 0 1 20.4 12.87c.051.071.11.1.186.025l.488-.489c.16-.16.333-.315.476-.48.143-.164.316-.29.467-.45.434-.459.893-.897 1.34-1.347.075-.076.083-.114.163.02.08.135.19.25.278.375a9.482 9.482 0 0 1 1.642 3.84c.068.338.109.68.123 1.024.032.605.02 1.211-.038 1.814-.096.787-.278 1.56-.543 2.308a9.634 9.634 0 0 1-1.188 2.24c-.084.105-.097.18 0 .278.468.463.93.938 1.394 1.406.139.164.177.16.299 0 .8-1.047 1.418-2.22 1.831-3.47.17-.504.31-1.017.421-1.536.131-.62.165-1.255.232-1.883.059-.551-.063-1.103-.063-1.654a.143.143 0 0 0 0-.034c-.13-.594-.185-1.2-.354-1.794-.2-.721-.46-1.425-.775-2.105a11.79 11.79 0 0 0-1.452-2.307c-.451-.57-.95-1.101-1.49-1.588-.178-.16-.22-.155-.384.021l-1.402 1.49-.973 1.028c-.063.068-.126.101-.206.03a7.192 7.192 0 0 0-1.318-.842 6.514 6.514 0 0 0-1.402-.552 6.783 6.783 0 0 0-1.756-.278 1.554 1.554 0 0 1-.193 0 5.356 5.356 0 0 0-1.09.025c-.47.045-.934.135-1.386.27a8 8 0 0 0-1.604.657 8.084 8.084 0 0 0-3.217 3.099 8.636 8.636 0 0 0-.817 1.983c-.113.453-.194.913-.244 1.377a5.701 5.701 0 0 0-.021 1.414c.048.642.167 1.276.353 1.891.113.337.239.667.38.99.185.41.41.802.669 1.17a8.69 8.69 0 0 0 1.642 1.802 7.579 7.579 0 0 0 2.345 1.318 8.354 8.354 0 0 0 3.082.421c.82-.03 1.632-.18 2.409-.446a7.524 7.524 0 0 0 1.772-.897c.135-.093.14-.13.026-.249l-1.58-1.625a.181.181 0 0 0-.269-.034c-.218.14-.45.255-.695.342a4.573 4.573 0 0 1-1.94.336zm9.02 1.907l-4.26-4.337c-.093-.097-.17-.1-.245 0a5.36 5.36 0 0 1-1.082 1.162c-.101.08-.101.143 0 .236.383.383.762.775 1.141 1.158.493.501.985 1.002 1.482 1.503.088.088.084.13 0 .206-.198.148-.392.3-.598.421a9.288 9.288 0 0 1-3.596 1.491 7.158 7.158 0 0 1-1.528.177h-.206c-.364.025-.73.014-1.09-.034-.422-.063-.818-.114-1.218-.202a8.981 8.981 0 0 1-1.482-.476 9.638 9.638 0 0 1-2.27-1.335 9.941 9.941 0 0 1-1.814-1.86 9.196 9.196 0 0 1-1.297-2.396 7.924 7.924 0 0 1-.573-2.64 1.916 1.916 0 0 1 0-.287v-.993a.775.775 0 0 1 0-.325c0-.08.034-.155.047-.235.042-.373.108-.743.198-1.108.115-.49.268-.97.459-1.436a9.684 9.684 0 0 1 4.362-4.859 9.293 9.293 0 0 1 3.79-1.14h.243a9.444 9.444 0 0 1 4.064.64l.362.151a9.933 9.933 0 0 1 1.579.88.173.173 0 0 0 .256-.025c.447-.51.918-.994 1.386-1.482.088-.093.092-.177 0-.253a12.03 12.03 0 0 0-5.217-2.156 13.158 13.158 0 0 0-1.634-.156 11.663 11.663 0 0 0-2.526.236 12.21 12.21 0 0 0-1.566.421c-.912.305-1.782.723-2.59 1.242-.97.62-1.847 1.372-2.606 2.236a11.907 11.907 0 0 0-2.303 3.933c-.212.612-.38 1.238-.501 1.874-.093.557-.156 1.12-.19 1.684a8.842 8.842 0 0 0 .084 1.814c.066.597.18 1.187.341 1.765.114.391.228.783.375 1.162.294.76.663 1.49 1.103 2.177a12.707 12.707 0 0 0 1.924 2.315c.473.436.98.833 1.516 1.188.718.491 1.49.9 2.3 1.217.806.32 1.647.548 2.504.682.643.096 1.292.152 1.942.168.42 0 .842-.067 1.237-.076.3-.022.597-.067.889-.134.324-.055.644-.14.964-.224a11.368 11.368 0 0 0 3.368-1.499c.937-.6 1.787-1.325 2.527-2.155.122-.14.118-.164-.05-.316z"/></svg>