<svg width="32" height="32" viewBox="0 0 32 32" fill="none" xmlns="http://www.w3.org/2000/svg">
<path d="M16 32C24.8366 32 32 24.8366 32 16C32 7.16344 24.8366 0 16 0C7.16344 0 0 7.16344 0 16C0 24.8366 7.16344 32 16 32Z" fill="black"/>
<path fill-rule="evenodd" clip-rule="evenodd" d="M18.402 7.00849L16.8899 7.85797V14.9723L17.7155 15.431V10.0071L20.5529 11.5787L21.1005 11.8845L21.5611 11.6296V11.2049L17.7198 9.08121V8.32518L18.4064 7.94292L22.3867 10.1516V12.1181L20.4747 13.1714L20.4096 13.1417C20.299 13.0871 20.1771 13.058 20.0532 13.0568C19.942 13.0567 19.8319 13.0785 19.7295 13.1209C19.6271 13.1632 19.5344 13.2253 19.457 13.3033C19.3795 13.3814 19.319 13.4738 19.2788 13.5752C19.2387 13.6766 19.2198 13.7848 19.2233 13.8935C19.2227 14 19.2436 14.1056 19.2848 14.2043C19.326 14.3029 19.3866 14.3927 19.4633 14.4684C19.54 14.5441 19.6311 14.6043 19.7316 14.6456C19.8321 14.6869 19.9399 14.7084 20.0489 14.709C20.2541 14.7077 20.4515 14.6317 20.6026 14.4958C20.7536 14.36 20.8475 14.174 20.8658 13.9742V13.902L22.7951 12.8359L24.5854 13.8298V18.2173L22.7951 19.2112L15.5211 15.1677V7.84948L14.0089 7L9.20741 9.68009V12.1138L7 13.3371V18.6888L9.20741 19.9163V22.3543L14.0089 25.0216L15.5211 24.1721V17.045L14.6955 16.5863V22.0272L11.3105 20.1499L10.8499 20.4047V20.8295L14.6912 22.9531V23.7049L14.0046 24.0872L10.0243 21.8786V19.9078L11.9362 18.8544L12.0014 18.8842C12.1119 18.9389 12.2339 18.968 12.3577 18.9691C12.4686 18.9697 12.5784 18.9486 12.6808 18.907C12.7831 18.8654 12.8759 18.8042 12.9537 18.727C13.0314 18.6498 13.0926 18.5582 13.1335 18.4575C13.1745 18.3569 13.1944 18.2492 13.192 18.1409C13.1926 18.0343 13.1717 17.9287 13.1305 17.8301C13.0893 17.7315 13.0287 17.6417 12.952 17.566C12.8754 17.4903 12.7842 17.43 12.6837 17.3887C12.5832 17.3475 12.4754 17.3259 12.3664 17.3254C12.1612 17.3267 11.9638 17.4027 11.8128 17.5385C11.6617 17.6744 11.5679 17.8603 11.5495 18.0602V18.1324L9.62021 19.1985L7.83429 18.2046V13.817L9.62455 12.8232L16.8942 16.8667V24.1849L18.4064 25.0344L23.2123 22.367V19.9205L25.4197 18.6973V13.3456L23.2123 12.1181V9.68009L18.402 7.00849ZM10.033 10.1558L14.0133 7.94716L14.6998 8.32943V9.06847L10.033 11.6551V10.1558ZM10.4675 12.3559L14.7042 10.0071V14.709L10.4675 12.3559ZM17.7242 17.3254L21.9608 19.6784L17.7242 22.0272V17.3254ZM17.7242 23.6964V22.9659L22.391 20.3792V21.8786L18.402 24.0872L17.7155 23.7049L17.7242 23.6964Z" fill="white"/>
</svg>
