<svg width="32" height="32" viewBox="0 0 32 32" xmlns="http://www.w3.org/2000/svg"><path d="M16 0c8.837 0 16 7.163 16 16s-7.163 16-16 16S0 24.837 0 16 7.163 0 16 0zm7.319 7.25c-.497 0-.922.317-1.096.765H9.777a1.183 1.183 0 00-1.096-.765c-.652 0-1.181.546-1.181 1.22l.006.125c.06.616.564 1.096 1.175 1.096l.028-.002 2.884 6.11a1.24 1.24 0 00-.295.807l.006.125c.061.616.564 1.096 1.176 1.096l.069-.004 3.007 6.37c-.199.22-.32.513-.32.837 0 .674.529 1.22 1.18 1.22.653 0 1.182-.546 1.182-1.22 0-.32-.12-.612-.314-.83l2.623-6.384c.58-.078 1.026-.59 1.026-1.21 0-.271-.086-.522-.23-.725l2.543-6.192.073.002c.652 0 1.181-.547 1.181-1.22 0-.675-.529-1.221-1.181-1.221zm-7.077 7.141l2.418 1.75a1.252 1.252 0 00.385 1.443l-2.558 6.227a1.161 1.161 0 00-.07-.002l-.062.003-3.01-6.376a1.238 1.238 0 00.29-1.086l2.607-1.959zM9.66 9.63l5.82 4.21-2.337 1.757a1.15 1.15 0 00-.663-.211l-.101.005L9.66 9.63zm12.531.296l-2.25 5.476a1.152 1.152 0 00-.189-.016l-.12.006a1.144 1.144 0 00-.346.093l-2.291-1.659 5.196-3.9zm-.164-1.001l-5.794 4.35-6.013-4.35h11.807z"/></svg>