<svg height="32" viewBox="0 0 32 32" width="32" xmlns="http://www.w3.org/2000/svg"><path d="m16 32c-8.836556 0-16-7.163444-16-16s7.163444-16 16-16 16 7.163444 16 16-7.163444 16-16 16zm1.8092907-24.12937575c0 .88201122-.0270803 4.00455865-.3740089 7.15214005-.327346 2.9669546-.8467244 6.2227555-.9654546 6.9542155.1500446.0141685.2917975.0372032.4265819.0666702.28527-.5749979 1.6928313-3.4584192 2.3374674-5.6253314.7383148-2.4805316 1.1641027-5.7884865 1.1760992-7.1264976.0009703-.08761874.001676-.1671536.0021171-.24077768-.24487-.37333578-.7790676-1.06820102-1.4703666-1.25404314-.6032658-.16202512-.954693-.09092182-1.1324355-.01590697zm2.8992747 1.42371752c-.0121729 1.35478733-.4425478 4.70090163-1.188184 7.20681483-.6331688 2.1284051-1.9907153 4.9329-2.3299696 5.6198552.1452927.0456627.2871334.1013741.4244649.166719.3648351-.4697338 2.0386131-2.6622883 3.0857498-4.6451838 1.2349351-2.3389334 2.3829836-5.4416623 2.5384972-6.0439542l.0636874-.2464277c-.137166-.4180144-.4649531-1.196326-1.101121-1.60547422-.6567208-.42262132-1.2321124-.46921224-1.4930365-.46390991zm.2569547 8.48406643c-1.0324939 1.95508-2.664196 4.1072152-3.0854852 4.6521376.1739103.1041912.3372344.2246434.4877111.3596888.4481932-.4339213 2.3174438-2.2659178 3.5615527-3.8102849 1.436053-1.7824502 2.8631087-4.2850603 3.0965114-4.827462l.1215529-.2827617c-.033255-.3589065-.1349608-.9296452-.4444002-1.3519188-.362277-.4941592-.918086-.7423254-1.1770695-.8364634-.195649.7449331-1.3843622 3.8700013-2.5603732 6.0970644zm-9.9606333-8.25258955c.1121145.87714355.6438422 3.65747375 1.5718077 6.65189615.832258 2.6854099 2.0698393 5.3657783 2.3478761 5.9559009.1446496-.0463796.2922521-.0832866.4418422-.1104796-.1095564-.6394082-.6766562-4.002994-1.027907-7.1659608-.383712-3.4571154-.5398431-6.38634533-.5606606-6.98150949-.0006174-.02051391-.0009703-.03859397-.0016759-.05858634-.2615416-.07562331-.8450485-.16932668-1.594213.17297746-.6893584.31501022-1.0494301.90661053-1.2123534 1.26212702.0106734.08144718.0222289.17219515.0352839.2736347zm3.0713717-1.66023595c.0207292.59281723.1764193 3.5114425.5591609 6.9596917.3516919 3.1691384.9209087 6.5406343 1.0265839 7.1562254.14288-.0147811.2864451-.0222086.4301102-.0222524.0264629 0 .0516909.0013908.0778891.0017385.1080569-.6643551.6368737-3.9668339.9681009-6.9701225.3456936-3.1328044.3726858-6.24205256.3726858-7.12032607v-.14125044c-.281036-.24651461-.9324642-.72928689-1.7296148-.72928689-.7970623 0-1.4349063.48268535-1.708709.72911304.0011467.04459168.0022052.08883567.003793.13646966zm2.0159432 14.3878133c-1.6279972 0-2.3708988.9564176-2.5906291 1.3114126 1.3768644.9950116 2.2517277 1.4351914 2.6030667 1.4351914.3522211 0 1.3490783-.5328401 2.5743985-1.3923382-.2253756-.3735096-.9702179-1.3542658-2.5868361-1.3542658zm9.2007954-7.9688717c-.2573075.5829949-1.6908907 3.0920373-3.1299429 4.8785729-1.251783 1.5542764-3.1281787 3.3934875-3.5840461 3.8352319.1264554.1358615.2402902.2826255.3401364.4385283.9774759-.7046693 1.9096158-1.4684561 2.7910414-2.2869533 2.3516692-2.1886429 4.2246246-4.3527735 4.2867242-5.4440092.0471922-.8295096-.4580727-1.2616055-.703913-1.4213706zm-18.47321699-.2110499c.53684391 1.3407057 1.56034044 2.929143 3.0422625 4.7210678 1.75722439 2.1254497 3.47801819 3.6300928 3.90980439 3.9969094.1005533-.0904773.2070152-.1743642.3187014-.2511216-.4176726-.48764-1.9096506-2.3071195-3.2826337-4.9402885-1.53802344-2.9499176-2.12241235-4.9908778-2.37195744-5.8623713l-.03731268-.1298635-.00158778-.0054762c-.34419404.090748-1.21244159.3744658-1.55328366.9950116-.17430226.3172702-.22775731.6475789-.23075644.9286021.06505627.1839048.13399235.3664544.20676341.5475302zm6.74098119 8.9271147c-.4652177-.3963704-2.1813363-1.9046644-3.93035722-4.020031-1.44804956-1.7512446-2.46466573-3.3149088-3.02700223-4.6519637-.21090927.1828867-.64939942.670179-.59947276 1.5334148.06527514 1.1312204 1.71408985 2.9215806 4.72521431 5.4964241.9686302.8282925 1.8127965 1.4997754 2.5317051 2.0303555.0887511-.1374557.1890755-.2673132.2999128-.3881997zm-4.8748179-11.4735342.03740089.1307327c.24716343.862975.82564229 2.8840298 2.35016961 5.8077835 1.3938006 2.6732407 2.9073899 4.494024 3.2721368 4.9166453.0969094-.0533546.1966072-.1016352.2986779-.1446404-.300001-.6380174-1.525674-3.303348-2.3532569-5.9739809-.9336109-3.0125894-1.4693963-5.8156067-1.5824811-6.70092095l-.0042341-.03363934c-.2635704-.01408158-.83031737.01251696-1.37809928.4106259-.46512947.33813179-.65495663.88661819-.73196365 1.25230469.02337556.0921387.053014.201836.09164983.3350895z" fill-rule="evenodd"/></svg>