<svg height="32" viewBox="0 0 32 32" width="32" xmlns="http://www.w3.org/2000/svg"><path d="m16 32c-8.836556 0-16-7.163444-16-16s7.163444-16 16-16 16 7.163444 16 16-7.163444 16-16 16zm3.4733628-20.520527 2.6663529-.6110369 1.0331083-1.70097381-1.0203074-1.67385908-1.3056921-.90204316-2.6832953-.59156005-1.6543286.932595-2.648281-.47164407-3.6358331 2.51938132-.28350239 2.94176055-1.54250888.6434982.17770666 2.7294252-1.07678189.857743 1.0760289 3.0723697.16189378.3223219 1.13852742 3.1621157 2.3388004.8287188 1.7337694 1.7632232 1.993929.6984915.9017107-.2604545 1.4318187-.1642161 2.0970892-.6014894 3.1264325-1.7643689-.8181283-3.232385-1.5737582-.6202024-.7842436.8974604-2.2043909.5415314-3.2077558-.5079244-1.0349907-1.1968684.3606843-1.1708994-1.5165306-2.3990834 1.2755724-1.5558526.135539-2.6450258 1.8256347-1.0479282 1.2526061-.50028643 1.6995082.30742793z" fill-rule="evenodd"/></svg>