<svg height="32" viewBox="0 0 32 32" width="32" xmlns="http://www.w3.org/2000/svg"><path d="m16 32c-8.836556 0-16-7.163444-16-16s7.163444-16 16-16 16 7.163444 16 16-7.163444 16-16 16zm-6.82894737-24v1.92525481h13.81578947v-1.92525481zm-1.53947368 5.6409966v1.9445074h4.89473685v.3850509c-.0789474 1.8867497-.4736842 3.407701-1.2236842 4.601359-.75 1.0781427-2.17105265 2.002265-4.3026316 2.7338619l1.10526316 1.6942242c2.21052634-.7508494 3.78947364-1.8097395 4.77631574-3.1574179 1.006579-1.4631937 1.5592106-3.4269536 1.6578948-5.8720272v-.3850509h2.9210526v6.9309173c0 1.405436.6907895 2.1177803 2.0921053 2.1177803h3.1381579c.6907894 0 1.2039473-.211778 1.5592105-.596829.3552632-.4043035.6118421-1.6942242.75-3.8697622l-1.8552632-.5775764c-.0394736 1.5594564-.1381579 2.5028312-.2763157 2.810872-.1184211.2887882-.3157895.4428086-.5526316.4428086h-2.1710527c-.4539473 0-.6710526-.2502831-.6710526-.7508494v-6.5073612h5.2302632v-1.9445074z" fill-rule="evenodd"/></svg>