<svg height="32" viewBox="0 0 32 32" width="32" xmlns="http://www.w3.org/2000/svg"><g fill="none"><circle cx="16" cy="16" fill="#000" r="16"/><path d="m20.6782723 7.28298429-1.6884817-1.68848167c-.5178011-.51780105-1.2044503-.79921466-1.9361257-.79921466h-.2589005v-.27015707c0-.47277487-.1125654-.92303665-.3489529-1.32827225-.123822-.23638744-.2814136-.45026178-.4727749-.63036649l-1.6884816-1.68848168c-.5178011-.51780105-1.2044503-.79921466-1.9361257-.79921466h-7.77827223c-.73167539 0-1.41832461.28141361-1.93612566.79921466l-1.68848167 1.68848168c-.51780105.5065445-.79921466 1.19319371-.79921466 1.92486911l-.04502618 7.29424084c-.01125654.7316754.28141361 1.4408377.79921466 1.9586387l1.68848168 1.6884817c.51780104.5178011 1.20445026.7992147 1.93612565.7992147h.3039267v.270157c0 .4727749.11256545.9230367.34895288 1.3282723.12382199.2363874.28141361.4502618.47277487.6303665l1.68848168 1.6884817c.51780104.517801 1.20445026.7992146 1.93612565.7992146h7.78952883c.7316754 0 1.4183246-.2814136 1.9361256-.7992146l1.6884817-1.6884817c.517801-.5178011.7992147-1.2044503.7992147-1.9361257v-7.3167539c-.0112566-.73167539-.2926702-1.4183246-.8104712-1.92486911zm-16.15314141 6.47251311c-.07879581 0-.14633508-.0337697-.19136126-.0787958l-.84424083-.8442409-.84424084-.8442408c-.01125655-.0112565-.02251309-.0225131-.03376964-.0450262-.02251308-.0337696-.03376963-.0675392-.04502617-.1013089 0-.0225131 0-.0337696 0-.0562827v-7.2829843c0-.07879581.03376963-.14633508.07879581-.19136126l1.68848167-1.68848167c.02251309-.02251309.04502618-.03376963.06753927-.04502618.04502618-.02251309.09005236-.03376963.13507853-.03376963h7.78952877c.0450262 0 .0787958.01125654.123822.03376963.0337697.01125655.0562827.03376963.0787958.05628272l1.6884817 1.68848168c.0225131.02251309.0450262.04502618.0562827.07879581.0112566.01125655.0112566.02251309.0112566.03376963 0 .01125655.0112565.02251309.0112565.03376964 0 .01125654.0112566.04502618.0112566.06753926v.36020943c0 .15759162-.123822.27015707-.2701571.27015707h-1.3507853c-.0787959 0-.1463351-.03376964-.1913613-.07879581l-.765445-.76544503h-6.59633511l-.28141361.28141361-.38272251.38272251v6.33743459l.66413612.6641361h6.58507851l.7654451-.7767016s.0112565-.0112565.0112565-.0112565c.0225131-.0112566.0450262-.0337697.0675393-.0450262.0337696-.0225131.0787958-.0225131.1125654-.0225131h1.3507854c.0900523 0 .1688481.0450262.2251308.1125655.0337697.0450261.0562828.1013089.0562828.1575916v.3827225c0 .0787958-.0337697.1463351-.0787958.1913613l-.8442409.8442408-.8442408.8442408c-.0112566.0112566-.0337697.0225131-.0450262.0337697 0 0-.0112565.0112565-.0225131.0112565-.0112565.0112565-.0225131.0112565-.0337696.0112565-.0112566 0-.0112566 0-.0225131.0112566-.0112566 0-.0225131.0112565-.0337696.0112565h-.0112566c-.0112565 0-.0112565 0-.0225131 0-.0112565 0-.0225131 0-.0337696 0h-7.78952881zm14.49842931 2.7465968c0 .0787959-.0337696.1463351-.0787958.1913613l-1.6884817 1.6884817c-.0225131.0225131-.0450262.0337696-.0675392.0450262-.0450262.022513-.0900524.0337696-.1350786.0337696h-7.78952877c-.04502618 0-.07879582-.0112566-.12382199-.0337696-.03376964-.0112566-.05628273-.0337697-.07879582-.0562828l-1.68848167-1.6884816c-.02251309-.0225131-.04502618-.0450262-.05628272-.0787959-.01125655-.0112565-.01125655-.022513-.01125655-.0337696 0-.0112565-.01125654-.0225131-.01125654-.0337696 0-.0112566-.01125655-.0450262-.01125655-.0675393v-.3602094c0-.1575916.12382199-.2701571.27015707-.2701571h1.35078534c.07879581 0 .14633508.0337696.19136126.0787958l.76544502.7654451h6.58507852l.2814136-.2814137.3827225-.3827225v-6.33743453l-.6641361-.66413612h-6.57382197l-.76544503.77670157s-.01125654.01125654-.01125654.01125654c-.02251309.01125655-.04502618.03376964-.06753927.04502618-.03376963.02251309-.07879581.02251309-.11256544.02251309h-1.35078534c-.09005236 0-.16884817-.04502618-.22513089-.11256545-.03376964-.04502617-.05628273-.1013089-.05628273-.15759162v-.38272251c0-.07879581.03376964-.14633508.07879581-.19136126l.84424084-.84424084.84424084-.84424083c.01125654-.01125655.03376963-.02251309.04502618-.03376964 0 0 .01125654-.01125654.02251309-.01125654.01125654-.01125655.02251309-.01125655.03376963-.01125655.01125655 0 .01125655 0 .02251309-.01125654.01125654 0 .02251309-.01125655.03376963-.01125655h.01125655.02251309.03376963 7.77827223c.0787958 0 .1463351.03376964.1913613.07879582l.8442408.84424083.8442409.84424084c.0112565.01125655.022513.02251309.0337696.04502618.0225131.03376963.0337696.06753927.0450262.1013089v.05628272c.0112565-.02251309.0112565 7.27172771.0112565 7.27172771z" fill="#fff" transform="translate(5 6)"/></g></svg>