<svg width="32" height="32" viewBox="0 0 32 32" fill="none" xmlns="http://www.w3.org/2000/svg">
<path d="M16 32C24.8368 32 32 24.8368 32 16C32 7.1632 24.8368 0 16 0C7.1632 0 0 7.1632 0 16C0 24.8368 7.1632 32 16 32Z" fill="#070A0E"/>
<path fill-rule="evenodd" clip-rule="evenodd" d="M9.2432 21.3648C8.7648 21.072 8.472 20.552 8.472 19.992V16.8656C8.472 16.4944 8.7744 16.1936 9.1456 16.1952C9.264 16.1952 9.3808 16.2272 9.4832 16.2864L16.5376 20.4C16.9504 20.64 17.2048 21.0816 17.2048 21.56V24.7984C17.2064 25.2432 16.8464 25.6048 16.4016 25.6048C16.2528 25.6048 16.1056 25.5632 15.9792 25.4864L9.2432 21.3648ZM19.7584 15.4304C20.1712 15.6704 20.424 16.1136 20.4256 16.5904V23.1632C20.4256 23.3568 20.3216 23.536 20.152 23.6304L18.608 24.4992C18.5888 24.5104 18.568 24.5184 18.5456 24.5248V20.8752C18.5456 20.4032 18.2976 19.9648 17.8912 19.7216L11.696 16.016V11.896C11.696 11.5248 11.9984 11.224 12.3696 11.2256C12.488 11.2256 12.6048 11.2576 12.7072 11.3168L19.7584 15.4304ZM22.8464 10.576C23.2608 10.816 23.5152 11.2592 23.5152 11.7376V21.3376C23.5136 21.5344 23.4048 21.7152 23.232 21.8096L21.768 22.6V15.9168C21.768 15.4448 21.52 15.008 21.1168 14.7648L14.784 10.9664V7.05923C14.784 6.94083 14.816 6.82403 14.8736 6.72163C15.0608 6.40163 15.472 6.29283 15.792 6.47843L22.8464 10.576Z" fill="white"/>
</svg>
