<svg height="32" viewBox="0 0 32 32" width="32" xmlns="http://www.w3.org/2000/svg"><path d="m16 32c-8.836556 0-16-7.163444-16-16s7.163444-16 16-16 16 7.163444 16 16-7.163444 16-16 16zm9.8202355-17.2849738c.3765715-.0178455.7504901-.0911257 1.1797645-.146252-.0873093-.6191564-.1324325-1.2173111-.2602223-1.7971457-.5327617-2.4167292-1.7959509-4.37391444-3.7805191-5.84894033-1.6604392-1.23413609-3.5375171-1.86342542-5.6027623-1.91171728-.8630493-.02019479-1.7269751-.00695308-2.5904745-.00370199-.8466345.00315618-1.6799807.11547334-2.496841.33799563-4.06286482 1.10677369-7.10307916 4.72273117-7.25173702 9.20243687-.03486685 1.0509117-.01324087 2.1054068.02768978 3.1564847.02153123.5531851.09832358 1.1124216.22341315 1.6518429.56334129 2.4289505 1.86942709 4.375101 3.89234413 5.8255182 1.68116506 1.2053983 3.57037056 1.7924945 5.63471566 1.8147064.7450184.0080209 1.490179.0004271 2.2352685.0019696.701269.0014713 1.3976113-.0533465 2.0829155-.2048192 3.0551369-.6753268 5.3131447-2.4065725 6.7771735-5.1714066.5933761-1.1206798.9143548-2.3272172 1.0355835-3.5877417.0186651-.1941167.0214128-.3898234.0333509-.6202955-.6801879-.0627201-1.3402184-.1500014-2.002736-.1770781-.6343777-.0259613-1.2727349-.0124585-1.9066863.0265784-.5637202.0346942-1.1242191.1252741-1.6851444.1988153-.0784504.0102754-.1631778.0493598-.2249054.0997874-1.1094623.9063921-2.196138 1.8389117-3.1634089 2.90017-.3922048.4303553-.7675446.8726946-.9311014 1.4584856-.1593169.5705797-.6167074.8885941-1.2132812.8878585-.6420996-.0008068-1.2108652-.4783149-1.3021775-1.1151981-.091715-.6397308.2317272-1.2726035.8872335-1.428941.3278953-.0782162.6226055-.2342215.8636653-.4661411.5295877-.5094733 1.0519035-1.0268726 1.5647921-1.5531946.2441864-.2505957.4622464-.527034.6879335-.795309.1877409-.223163.1054296-.4497432-.1784321-.4954959-.1017582-.0163742-.2055534-.0216661-.3086854-.0280734-.7570039-.0470578-1.5135578-.1143817-2.271296-.1326068-.5950104-.0143571-1.1922474.0199574-1.7870683.0564789-.3691812.0226628-.7281061.1106323-1.0571857.2992198-.1267003.072592-.2663809.1364986-.4080986.1661857-.4928022.1031808-1.040605-.1744915-1.3184265-.6509317-.2950655-.5059611-.2143886-1.161022.2014318-1.5873905.3341486-.3425994.9339438-.5796685 1.5131078-.2323705.1744527.104581.3741554.1925979.5726975.2257971.4308378.0721174.8680236.1398447 1.3032671.1443773.778322.0081396 1.5574966-.023351 2.3356291-.0549602.4128122-.0167776.8251743-.0603708 1.2359258-.1075473.2652202-.0304702.3529795-.2704107.1800427-.4778403-.6042956-.7248527-1.2257878-1.4342567-1.9199272-2.0756961-.3870884-.3576683-.796537-.674164-1.3271196-.8019773-.1407938-.0338873-.2832458-.1260097-.389386-.2283837-.6132018-.5914152-.4890123-1.62450526.2392833-2.06838704.6939025-.42292761 1.6310913-.14257373 1.8543149.58863873.1655465.54226901.4620569.98859511.8281826 1.40119981 1.0032747 1.1307417 2.1484329 2.1081359 3.3135827 3.0632708.0547164.0448509.1285716.0831284.1974052.0912206.7037561.0826301 1.4068491.1997646 2.113045.2249902.7864702.0281209 1.5765171-.0171572 2.3638637-.0544855z"/></svg>