<svg width="34" height="35" viewBox="0 0 34 35" fill="none" xmlns="http://www.w3.org/2000/svg">
<g clip-path="url(#clip0)">
<path d="M17 0.0179443C26.3889 0.0179443 34 7.62909 34 17.0179C34 26.4068 26.3889 34.0179 17 34.0179C7.61114 34.0179 0 26.4068 0 17.0179C0 7.62909 7.61114 0.0179443 17 0.0179443Z" fill="black"/>
<path d="M19.2864 9.05955V17.4725C19.1046 17.5981 18.9211 17.7251 18.7362 17.8531C17.0185 19.0425 15.1755 20.3187 13.337 21.3358C11.257 22.4867 9.21986 23.2841 7.41064 23.2658L7.41064 23.2658H7.40812C7.25382 23.2658 7.20921 23.2375 7.1994 23.2289L7.19931 23.2288C7.19661 23.2264 7.1656 23.1995 7.1656 23.0612V23.0553V23.0493V23.0432V23.037V23.0306V23.0241V23.0175V23.0108V23.0039V22.9968V22.9897V22.9824V22.975V22.9675V22.9599V22.9521V22.9442V22.9362V22.928V22.9198V22.9114V22.9028V22.8942V22.8855V22.8766V22.8676V22.8585V22.8492V22.8399V22.8304V22.8208V22.8111V22.8013V22.7914V22.7814V22.7712V22.7609V22.7505V22.74V22.7294V22.7187V22.7079V22.697V22.6859V22.6747V22.6635V22.6521V22.6406V22.629V22.6174V22.6056V22.5937V22.5816V22.5695V22.5573V22.545V22.5326V22.5201V22.5075V22.4947V22.4819V22.469V22.456V22.4429V22.4297V22.4163V22.4029V22.3894V22.3758V22.3622V22.3484V22.3345V22.3205V22.3065V22.2923V22.2781V22.2637V22.2493V22.2348V22.2202V22.2055V22.1907V22.1758V22.1609V22.1458V22.1307V22.1155V22.1002V22.0848V22.0694V22.0538V22.0382V22.0225V22.0067V21.9908V21.9749V21.9588V21.9427V21.9265V21.9103V21.8939V21.8775V21.861V21.8445V21.8278V21.8111V21.7943V21.7774V21.7605V21.7435V21.7264V21.7093V21.6921V21.6748V21.6574V21.64V21.6225V21.6049V21.5873V21.5696V21.5518V21.534V21.5161V21.4981V21.4801V21.462V21.4439V21.4257V21.4074V21.3891V21.3707V21.3523V21.3338V21.3152V21.2966V21.2779V21.2592V21.2404V21.2215V21.2026V21.1837V21.1646V21.1456V21.1265V21.1073V21.0881V21.0688V21.0495V21.0301V21.0107V20.9912V20.9717V20.9521V20.9325V20.9129V20.8932V20.8734V20.8536V20.8338V20.8139V20.794V20.774V20.754V20.7339V20.7138V20.6937V20.6735V20.6533V20.6331V20.6128V20.5925V20.5721V20.5517V20.5313V20.5108V20.4903V20.4698V20.4492V20.4286V20.4079V20.3873V20.3666V20.3458V20.3251V20.3043V20.2835V20.2626V20.2418V20.2209V20.1999V20.179V20.158V20.137V20.116V20.0949V20.0738V20.0527V20.0316V20.0105V19.9893V19.9681V19.9469V19.9257V19.9044V19.8832V19.8619V19.8406V19.8193V19.798V19.7766V19.7553V19.7339V19.7125V19.6911V19.6697V19.6483V19.6269V19.6054V19.584V19.5625V19.541V19.5195V19.498V19.4765V19.455V19.4335V19.412V19.3905V19.369V19.3474V19.3259V19.3044V19.2828V19.2613V19.2397V19.2182V19.1967V19.1751V19.1536V19.132V19.1105V19.089V19.0674V19.0459V19.0244V19.0029V18.9814V18.9599V18.9384V18.9169V18.8954V18.8739V18.8524V18.831V18.8095V18.7881V18.7667V18.7453V18.7239V18.7025V18.6811V18.6597V18.6384V18.6171V18.5958V18.5745V18.5532V18.5319V18.5107V18.4894V18.4682V18.447V18.4259V18.4047V18.3836V18.3625V18.3414V18.3204V18.2993V18.2783V18.2573V18.2364V18.2154V18.1945V18.1737V18.1528V18.132V18.1112V18.0904V18.0697V18.049V18.0283V18.0077V17.9871V17.9665V17.9459V17.9254V17.905V17.8845V17.8641V17.8437V17.8234V17.8031V17.7829V17.7626V17.7425V17.7223V17.7022V17.6822V17.6622V17.6422V17.6222V17.6024V17.5825V17.5627V17.543V17.5232V17.5036V17.484V17.4644V17.4449V17.4254V17.4059V17.3866V17.3672V17.348V17.3287V17.3095V17.2904V17.2714V17.2523V17.2334V17.2145V17.1956V17.1768V17.158V17.1394V17.1207V17.1022V17.0836V17.0652V17.0468V17.0284V17.0102V16.992V16.9738V16.9557V16.9377V16.9197V16.9018V16.884V16.8662V16.8485V16.8308V16.8133V16.7958V16.7783V16.761V16.7437V16.7264V16.7093V16.6922V16.6751V16.6582V16.6413V16.6245V16.6078V16.5911V16.5746V16.5581V16.5416V16.5253V16.509V16.4928V16.4767V16.4606V16.4447V16.4288V16.413V16.3973V16.3816V16.3661V16.3506V16.3352V16.3199V16.3047V16.2895V16.2745V16.2595V16.2446V16.2298V16.2151V16.2005V16.186V16.1715V16.1572V16.1429V16.1287V16.1147V16.1007V16.0868V16.073V16.0593V16.0457V16.0321V16.0187V16.0054V15.9922V15.979V15.966V15.9531V15.9402V15.9275V15.9149V15.9023V15.8899V15.8776V15.8653V15.8532V15.8412V15.8293V15.8175V15.8058V15.7941V15.7827V15.7713V15.76V15.7488V15.7377V15.7268V15.7159V15.7052V15.6946V15.6841V15.6737V15.6634V15.6532V15.6431V15.6332V15.6233V15.6136V15.604V15.5945V15.5852V15.5759V15.5668V15.5578V15.5489V15.5401V15.5315V15.5229V15.5145V15.5062V15.4981V15.49V15.4821V15.4743V15.4666V15.4591V15.4517V15.4444V15.4372V15.4302V15.4233V15.4165V15.4098V15.4033V15.3969V15.3907V15.3845V15.3786V15.3727V15.367V15.3614V15.3559V15.3506V15.3454V15.3404V15.3354V15.3307V15.326V15.3215V15.3172V15.313V15.3089V15.3049V15.3011V15.2975V15.294V15.2906V15.2874V15.2843V15.2813V15.2786V15.2759V15.2734V15.2711V15.2689V15.2668V15.2649V15.2631V15.2615V15.2601V15.2588V15.2576V15.2566V15.2558V15.2551V15.2545V15.2541V15.2539L6.9156 15.2538H7.1656C7.1656 15.1409 7.1935 15.106 7.20534 15.0949C7.22031 15.0808 7.26874 15.0494 7.40693 15.0492C9.31806 15.0684 11.4627 14.1267 13.5709 12.8873C15.1513 11.9582 16.7397 10.8438 18.2203 9.80489C18.5827 9.55064 18.9386 9.30092 19.2864 9.05955Z" fill="white" stroke="black" stroke-width="0.5"/>
<path d="M15.2761 24.0254V15.6503C15.4847 15.5061 15.6954 15.3601 15.9079 15.2128C17.6006 14.0395 19.4063 12.7878 21.2114 11.7868C23.2863 10.6363 25.3235 9.83869 27.1518 9.85697V9.85698H27.1543C27.3086 9.85698 27.3532 9.88524 27.3631 9.89389L27.3631 9.89397C27.3658 9.89631 27.3969 9.92324 27.3969 10.0616V10.0674V10.0734V10.0795V10.0858V10.0921V10.0986V10.1052V10.112V10.1189V10.1259V10.1331V10.1403V10.1477V10.1552V10.1629V10.1707V10.1786V10.1866V10.1947V10.203V10.2114V10.2199V10.2285V10.2373V10.2462V10.2552V10.2643V10.2735V10.2829V10.2923V10.3019V10.3116V10.3214V10.3314V10.3414V10.3516V10.3618V10.3722V10.3827V10.3933V10.404V10.4149V10.4258V10.4369V10.448V10.4593V10.4706V10.4821V10.4937V10.5054V10.5172V10.5291V10.5411V10.5532V10.5654V10.5777V10.5902V10.6027V10.6153V10.628V10.6408V10.6538V10.6668V10.6799V10.6931V10.7064V10.7198V10.7333V10.7469V10.7606V10.7744V10.7883V10.8022V10.8163V10.8305V10.8447V10.859V10.8735V10.888V10.9026V10.9173V10.9321V10.9469V10.9619V10.9769V10.992V11.0073V11.0226V11.0379V11.0534V11.0689V11.0846V11.1003V11.1161V11.1319V11.1479V11.1639V11.18V11.1962V11.2125V11.2288V11.2452V11.2617V11.2783V11.2949V11.3117V11.3284V11.3453V11.3622V11.3793V11.3963V11.4135V11.4307V11.448V11.4654V11.4828V11.5003V11.5178V11.5355V11.5532V11.5709V11.5888V11.6067V11.6246V11.6426V11.6607V11.6789V11.6971V11.7153V11.7337V11.752V11.7705V11.789V11.8076V11.8262V11.8449V11.8636V11.8824V11.9012V11.9201V11.9391V11.9581V11.9772V11.9963V12.0155V12.0347V12.054V12.0733V12.0926V12.1121V12.1315V12.1511V12.1706V12.1902V12.2099V12.2296V12.2494V12.2691V12.289V12.3089V12.3288V12.3488V12.3688V12.3888V12.4089V12.4291V12.4492V12.4694V12.4897V12.51V12.5303V12.5507V12.5711V12.5915V12.612V12.6325V12.653V12.6736V12.6942V12.7148V12.7355V12.7562V12.7769V12.7977V12.8185V12.8393V12.8601V12.881V12.9019V12.9228V12.9438V12.9648V12.9858V13.0068V13.0279V13.0489V13.07V13.0912V13.1123V13.1335V13.1546V13.1758V13.1971V13.2183V13.2396V13.2609V13.2821V13.3035V13.3248V13.3461V13.3675V13.3889V13.4102V13.4316V13.453V13.4745V13.4959V13.5173V13.5388V13.5603V13.5817V13.6032V13.6247V13.6462V13.6677V13.6892V13.7107V13.7323V13.7538V13.7753V13.7969V13.8184V13.8399V13.8615V13.883V13.9046V13.9261V13.9476V13.9692V13.9907V14.0123V14.0338V14.0553V14.0768V14.0984V14.1199V14.1414V14.1629V14.1844V14.2059V14.2274V14.2489V14.2703V14.2918V14.3132V14.3347V14.3561V14.3775V14.3989V14.4203V14.4417V14.463V14.4844V14.5057V14.527V14.5483V14.5696V14.5908V14.6121V14.6333V14.6545V14.6757V14.6969V14.718V14.7392V14.7603V14.7813V14.8024V14.8234V14.8444V14.8654V14.8864V14.9073V14.9282V14.9491V14.9699V14.9908V15.0116V15.0323V15.0531V15.0738V15.0944V15.1151V15.1357V15.1563V15.1768V15.1973V15.2178V15.2382V15.2586V15.279V15.2993V15.3196V15.3399V15.3601V15.3803V15.4004V15.4205V15.4406V15.4606V15.4806V15.5005V15.5204V15.5402V15.56V15.5798V15.5995V15.6192V15.6388V15.6584V15.6779V15.6974V15.7168V15.7362V15.7555V15.7748V15.794V15.8132V15.8323V15.8514V15.8704V15.8894V15.9083V15.9272V15.946V15.9647V15.9834V16.002V16.0206V16.0391V16.0576V16.076V16.0943V16.1126V16.1308V16.149V16.1671V16.1851V16.203V16.2209V16.2388V16.2566V16.2743V16.2919V16.3095V16.327V16.3444V16.3618V16.3791V16.3963V16.4135V16.4306V16.4476V16.4646V16.4814V16.4982V16.515V16.5316V16.5482V16.5647V16.5811V16.5975V16.6138V16.63V16.6461V16.6621V16.6781V16.694V16.7098V16.7255V16.7411V16.7567V16.7722V16.7876V16.8029V16.8181V16.8332V16.8483V16.8633V16.8781V16.8929V16.9076V16.9223V16.9368V16.9512V16.9656V16.9799V16.994V17.0081V17.0221V17.036V17.0498V17.0635V17.0771V17.0906V17.104V17.1174V17.1306V17.1437V17.1567V17.1697V17.1825V17.1952V17.2079V17.2204V17.2329V17.2452V17.2574V17.2695V17.2816V17.2935V17.3053V17.317V17.3286V17.3401V17.3515V17.3628V17.374V17.385V17.396V17.4068V17.4176V17.4282V17.4387V17.4491V17.4594V17.4696V17.4796V17.4896V17.4994V17.5091V17.5187V17.5282V17.5376V17.5468V17.556V17.565V17.5739V17.5826V17.5913V17.5998V17.6082V17.6165V17.6247V17.6327V17.6407V17.6485V17.6561V17.6637V17.6711V17.6784V17.6855V17.6926V17.6995V17.7063V17.7129V17.7194V17.7258V17.7321V17.7382V17.7442V17.7501V17.7558V17.7614V17.7668V17.7722V17.7773V17.7824V17.7873V17.7921V17.7967V17.8012V17.8056V17.8098V17.8139V17.8178V17.8216V17.8253V17.8288V17.8322V17.8354V17.8385V17.8414V17.8442V17.8468V17.8493V17.8517V17.8539V17.856V17.8579V17.8596V17.8612V17.8627V17.864V17.8652V17.8662V17.867V17.8677V17.8682V17.8686V17.8689L27.6469 17.8689H27.3969C27.3969 17.9819 27.369 18.0167 27.3571 18.0279C27.3422 18.0419 27.294 18.0732 27.1567 18.0736C25.2452 18.0351 23.1005 18.9677 20.9926 20.2021C19.4073 21.1305 17.8138 22.2481 16.3291 23.2894C15.9712 23.5404 15.6197 23.787 15.2761 24.0254Z" fill="white" stroke="black" stroke-width="0.5"/>
<path d="M15.2382 20.1846V15.6131C16.529 14.7305 17.904 13.7922 19.2864 12.9053V17.4719C19.0951 17.603 18.9025 17.7352 18.7088 17.8682C17.5931 18.6346 16.4375 19.4283 15.2382 20.1846Z" fill="white" stroke="black" stroke-width="0.5"/>
</g>
<defs>
<clipPath id="clip0">
<rect width="34" height="34" fill="white" transform="translate(0 0.0179443)"/>
</clipPath>
</defs>
</svg>
