<svg width="32" height="32" viewBox="0 0 32 32" version="1.1" xmlns="http://www.w3.org/2000/svg" xmlns:xlink="http://www.w3.org/1999/xlink"><title>svg/black/ctxc</title><desc>Created with Sketch.</desc><g id="black/ctxc" stroke="none" stroke-width="1" fill="none" fill-rule="evenodd"><path d="M16,32 C7.163444,32 0,24.836556 0,16 C0,7.163444 7.163444,0 16,0 C24.836556,0 32,7.163444 32,16 C32,24.836556 24.836556,32 16,32 Z M15.8973333,4.3982 L15.8973333,4.39086667 L20.7446667,18.0015333 C20.7829057,18.0825315 20.7828449,18.176401 20.7445008,18.2573495 C20.7061568,18.338298 20.6335633,18.39781 20.5466667,18.4195333 L16.9533333,19.4095333 C16.66,19.4828667 16.726,19.9668667 17.0266667,19.9815333 L26.186,21.8075333 C26.362,21.8368667 26.538,21.8955333 26.7213333,21.8955333 C23.2893333,15.9750889 19.8573333,10.0595333 16.4253333,4.14886667 C16.2786667,3.83353333 15.7506667,4.0682 15.8973333,4.3982 Z M15.3693333,4.42753333 C11.9177778,10.3870889 8.46133333,16.3442 5,22.2988667 L5,22.4675333 C5.07333333,22.5702 5.16133333,22.6728667 5.29333333,22.6728667 C5.47666667,22.6508667 5.572,22.4748667 5.682,22.3575333 L15.1273333,11.2622 C15.2226667,11.1228667 15.4353333,11.0348667 15.582,11.1668667 C16.4913333,12.1348667 17.3713333,13.1322 18.2953333,14.1002 C18.4713333,14.2908667 18.8306667,14.0782 18.7353333,13.8215333 C17.6573333,10.7415333 16.5426667,7.66153333 15.4573333,4.58153333 C15.4323954,4.52781019 15.4029571,4.47629315 15.3693333,4.42753333 Z M12.48,14.9948667 C10.2726667,17.6202 8.08,20.2748667 5.88,22.9148667 L26.8606667,22.9148667 L27,22.7682 L27,22.5628667 C26.9266667,22.5042 26.8606667,22.4308667 26.7653333,22.4162 C21.8226667,21.4262 16.88,20.3995333 11.9373333,19.4095333 C11.7833333,19.4022 11.6366667,19.2555333 11.6953333,19.0942 C12.0766667,17.8255333 12.4653333,16.5568667 12.832,15.2808667 C12.8906667,15.0682 12.656,14.9435333 12.48,14.9948667 Z" id="Combined-Shape" fill="#000" fill-rule="nonzero"/></g></svg>