<svg width="32" height="32" viewBox="0 0 32 32" version="1.1" xmlns="http://www.w3.org/2000/svg" xmlns:xlink="http://www.w3.org/1999/xlink"><title>svg/black/ctxc</title><desc>Created with Sketch.</desc><g id="black/ctxc" stroke="none" stroke-width="1" fill="none" fill-rule="evenodd"><circle id="Combined-Shape" fill="#000" fill-rule="nonzero" cx="16" cy="16" r="16"/><g id="Cortex-(CTXC)" transform="translate(5.000000, 4.000000)" fill="#FFF" fill-rule="nonzero"><path d="M10.8973333,0.3982 C10.7506667,0.0682 11.2786667,-0.166466667 11.4253333,0.148866667 C14.8573333,6.05953333 18.2893333,11.9750889 21.7213333,17.8955333 C21.538,17.8955333 21.362,17.8368667 21.186,17.8075333 L12.0266667,15.9815333 C11.726,15.9668667 11.66,15.4828667 11.9533333,15.4095333 L15.5466667,14.4195333 C15.6335633,14.39781 15.7061568,14.338298 15.7445008,14.2573495 C15.7828449,14.176401 15.7829057,14.0825315 15.7446667,14.0015333 L10.8973333,0.390866667 L10.8973333,0.3982 Z" id="Shape"/><path d="M10.3693333,0.427533333 C10.4029571,0.476293149 10.4323954,0.527810192 10.4573333,0.581533333 C11.5426667,3.66153333 12.6573333,6.74153333 13.7353333,9.82153333 C13.8306667,10.0782 13.4713333,10.2908667 13.2953333,10.1002 C12.3713333,9.1322 11.4913333,8.13486667 10.582,7.16686667 C10.4353333,7.03486667 10.2226667,7.12286667 10.1273333,7.2622 L0.682,18.3575333 C0.572,18.4748667 0.476666667,18.6508667 0.293333333,18.6728667 C0.161333333,18.6728667 0.0733333333,18.5702 0,18.4675333 L0,18.2988667 C3.46133333,12.3442 6.91777778,6.38708889 10.3693333,0.427533333 Z" id="Shape"/><path d="M7.48,10.9948667 C7.656,10.9435333 7.89066667,11.0682 7.832,11.2808667 C7.46533333,12.5568667 7.07666667,13.8255333 6.69533333,15.0942 C6.63666667,15.2555333 6.78333333,15.4022 6.93733333,15.4095333 C11.88,16.3995333 16.8226667,17.4262 21.7653333,18.4162 C21.8606667,18.4308667 21.9266667,18.5042 22,18.5628667 L22,18.7682 L21.8606667,18.9148667 L0.88,18.9148667 C3.08,16.2748667 5.27266667,13.6202 7.48,10.9948667 Z" id="Shape"/></g></g></svg>