<svg xmlns="http://www.w3.org/2000/svg" width="32" height="32" viewBox="0 0 32 32"><path d="M3.998 22.703a.136.136 0 0 1 .026-.024h.025c.172-.095.369-.214.615-.333.098-.071.148-.095.172-.166.025-.048 0-.143-.049-.19a.178.178 0 0 1-.05-.096c-.024-.047-.048-.07-.048-.095-.05-.07-.074-.142-.123-.19a4.146 4.146 0 0 1-.148-.333c-.05-.118-.123-.213-.197-.237-.172-.048-.566.214-.739.309-.024.047.05.166.074.214.148.047.37-.167.517-.167.025.048.074.12.099.19.049.072.098.12.123.19.074.12.123.262.049.357-.074.119-.27.19-.468.262-.197.07-.369.142-.418.261-.025.048 0 .19.098.285l.148.214c.05.071.098.167.148.238.049.095.098.166.147.237.025.048.05.072.074.096l.074.07c.099.096.222.025.37-.07.172-.072.32-.214.442-.286a.281.281 0 0 0-.123-.214c-.147 0-.344.262-.492.238-.074-.119-.197-.261-.295-.428-.067-.128-.113-.256-.05-.332zM22.965 4.365a.135.135 0 0 1-.01.06v.024c-.1.166-.222.356-.345.594-.074.095-.074.166-.074.238 0 .047.074.119.123.142.123.095.295.167.394.238.049.024.098.071.147.095.05.048.099.071.148.119.099.071.197.119.27.095.173-.048.37-.475.493-.618 0-.048-.123-.119-.172-.143-.148.048-.246.333-.37.404-.049-.023-.122-.07-.196-.095a1.009 1.009 0 0 1-.222-.118c-.123-.072-.246-.167-.221-.262 0-.143.147-.309.27-.452.123-.166.247-.308.222-.427 0-.048-.123-.167-.222-.19 0 0 0 .023-.024.023 0 0 0-.023.024-.023-.073-.024-.147-.072-.246-.12-.049-.023-.074-.047-.123-.07-.05-.024-.074-.048-.123-.072-.172-.095-.32-.19-.468-.238-.123-.023-.221.095-.295.238-.074.143-.123.333-.197.452-.025 0 .025.023.074.047.05.024.098.048.123.024.123-.071.172-.404.32-.452.123.072.32.143.468.238.118.076.22.152.231.24a.029.029 0 0 0-.01.022.094.094 0 0 0 .011-.013zM16 32C7.163 32 0 24.837 0 16S7.163 0 16 0s16 7.163 16 16-7.163 16-16 16zm2.794-29.239c.123.024.345.072.517.12.098.023.172.047.221.094.05.048.074.095.074.143v.024c-.049.19-.123.404-.172.665-.025.119-.05.19 0 .238.025.047.098.095.172.119l.222.07a.708.708 0 0 0 .221.048c.099.024.222.096.345.12.05.023.123.047.172.047.05 0 .099 0 .123-.024.173-.095.247-.547.296-.713-.025-.048-.148-.095-.197-.095-.074.047-.099.119-.123.238a.865.865 0 0 1-.123.261c-.123-.047-.296-.047-.443-.095-.148-.048-.271-.095-.296-.214-.024-.143.05-.333.123-.499.074-.19.148-.357.099-.475-.025-.048-.148-.143-.271-.12-.05 0-.074-.023-.123-.023-.05 0-.099-.024-.123-.024-.099-.024-.197-.047-.27-.071-.075-.024-.198-.048-.272-.071-.098-.024-.172-.024-.246-.024-.123 0-.197.142-.221.285-.025.166-.025.357-.074.5-.025-.025.123 0 .197-.025.098-.118.049-.427.172-.499zm-2.092.286c.024 0 .049 0 .073.023.05 0 .099 0 .124-.023.073-.12 0-.428.098-.523.098.023.27 0 .443 0 .172 0 .32.023.37.118.073.096 0 .31-.05.523-.05.214-.098.428 0 .523a.192.192 0 0 0 .123.048c.025 0 .05.024.074.024.025 0 .05.023.098.023.124.024.247.024.32.048.05 0 .099.024.148.024.025 0 .05.023.074.023.025 0 .05.024.099.024.123.024.246.048.32.024.172-.071.246-.618.221-.784a.596.596 0 0 0-.197-.048c-.123.071-.098.404-.197.5-.049 0-.123-.025-.197-.025-.074 0-.172 0-.246-.023-.148-.024-.295-.072-.345-.167-.049-.119.025-.332.05-.523.024-.095.049-.19.049-.285 0-.095 0-.166-.05-.19-.073-.095-.442-.095-.64-.119-.245-.024-.492-.095-.689-.047-.073 0-.123.047-.147.118-.025.072-.05.143-.05.238.05.143.074.333.074.452.025 0 .025.024.05.024zm3.864.166c.099.047.271.071.419.119.148.047.295.095.345.19.049.119-.074.309-.173.499-.098.19-.197.404-.147.5.049.118.443.237.541.284.148.072.419.286.566.262.173-.024.394-.523.419-.713-.025-.048-.123-.095-.173-.095-.147.023-.197.356-.32.427-.049-.023-.123-.047-.172-.07-.05-.025-.074-.025-.123-.048-.05-.024-.074-.024-.123-.048-.148-.047-.27-.142-.295-.238 0-.118.098-.309.196-.499.099-.19.197-.356.148-.475-.05-.119-.394-.19-.59-.261-.05-.024-.124-.048-.173-.072 0 .024-.074 0-.123-.024-.123-.047-.222-.07-.32-.095-.148-.023-.222.12-.27.286-.05.166-.075.356-.1.475.05.047.148.095.222.071.123-.095.123-.404.246-.475zm4.702 2.662l.074.071c.025.024.074.048.099.071a.737.737 0 0 1 .196.19c.124.12.197.262.124.333l.196-.19-.196.19-.493.476c-.098.095-.123.142-.123.214 0 .047.05.118.099.19.049.047.098.119.172.166.025.024.05.048.098.071l.074.072c.074.071.148.19.222.285.049.048.074.095.123.119.05.024.074.047.123.047.197 0 .492-.356.64-.475 0-.048-.074-.143-.123-.19-.148 0-.32.261-.468.285-.074-.095-.221-.19-.32-.309l-.05-.047-.048-.048c-.025-.024-.05-.048-.05-.071-.024-.048-.049-.12-.024-.167.05-.142.221-.261.37-.38.171-.119.32-.238.32-.356a.3.3 0 0 0-.173-.238c-.148-.095-.271-.238-.394-.38-.025-.048-.074-.072-.099-.095l-.098-.096c-.074-.047-.123-.118-.197-.142-.123-.048-.222.024-.345.142-.098.12-.221.286-.32.404 0 .096.099.19.173.214.147-.047.27-.332.418-.356zM23.84 4.782c.074.07.222.142.37.213.074.048.147.096.197.12.049.047.073.094.073.142 0 .119-.147.285-.295.452-.148.166-.295.332-.27.451.024.071.098.143.196.214.05.048.099.071.148.119.05.024.074.047.098.071l.222.214.025.024.024.024c.025.023.05.047.074.047.05.024.098.048.123.048.172.023.517-.404.616-.57-.025-.048-.099-.12-.148-.12-.148 0-.296.286-.443.333-.074-.071-.222-.142-.345-.238a.41.41 0 0 1-.148-.142c-.049-.048-.049-.095-.049-.167.025-.118.172-.285.32-.427.148-.143.296-.31.27-.404a.722.722 0 0 0-.196-.214c-.05-.048-.098-.072-.148-.12-.049-.023-.098-.07-.147-.094-.197-.143-.37-.333-.567-.38-.147-.048-.246.07-.344.213-.099.143-.173.333-.222.428a.202.202 0 0 0 .197.167c.123-.072.222-.357.37-.404zm3.324 3.993c.147 0 .344-.262.492-.238.074.119.197.261.295.428.074.142.123.285.025.356h-.025c-.172.095-.369.214-.615.333-.098.071-.148.095-.172.166-.025.048 0 .143.049.19a.18.18 0 0 1 .05.096c.024.047.048.07.048.095.05.07.074.142.123.19.05.095.099.214.148.333.05.118.123.213.197.237.172.048.566-.214.739-.309.024-.047-.05-.166-.074-.214-.148-.047-.37.167-.517.167-.025-.048-.074-.12-.099-.19-.049-.072-.098-.12-.123-.19-.074-.12-.123-.262-.049-.357.074-.119.27-.19.468-.262.197-.07.369-.142.418-.261.025-.048 0-.19-.098-.285l-.148-.214c-.05-.071-.098-.167-.148-.238a2.077 2.077 0 0 0-.147-.237.33.33 0 0 0-.074-.096l-.074-.07c-.099-.096-.222-.025-.37.07-.172.072-.295.214-.442.286 0 .071.049.166.123.214zM26.105 7.42c.148-.024.32-.31.468-.31a.606.606 0 0 0 .123.143c.05.048.123.095.172.167.123.119.197.237.197.333-.024.118-.221.237-.418.356-.197.119-.37.238-.394.38 0 .024.024.072.05.12.024.047.048.094.098.142.073.095.147.19.196.237.05.048.099.167.148.262.05.095.123.19.222.238.049.023.098 0 .172-.024.074-.024.148-.071.222-.119.147-.095.295-.214.344-.285 0-.048-.049-.12-.098-.167-.148-.047-.345.214-.517.214a.65.65 0 0 0-.123-.142.33.33 0 0 1-.074-.095.33.33 0 0 1-.074-.095c-.098-.12-.172-.262-.123-.357.05-.119.246-.214.418-.333.173-.119.345-.214.37-.332 0-.072-.05-.143-.123-.238-.074-.095-.173-.19-.222-.262l-.221-.285a2.171 2.171 0 0 0-.222-.237c-.123-.096-.246 0-.37.118-.147.167-.27.333-.369.404a.338.338 0 0 0 .148.167zm2.634 4.397c.148.024.419-.167.542-.119l.074.214c.024.047.024.095.049.119.024.047.024.095.049.119.05.166.05.309-.05.356.05 0 .075-.024.124-.024-.05 0-.099.024-.148.048-.197.047-.418.119-.69.166a.379.379 0 0 0-.22.12c-.025.023-.025.047-.025.094v.119c.024.143.074.309.123.428v.19c0 .071.024.119.024.19.025.119.05.214.124.262.073.047.221.023.393 0 .148-.024.32-.095.419-.095.024-.048 0-.167-.025-.214-.123-.072-.418.07-.566.023-.025-.047-.025-.118-.05-.19l-.073-.214c-.05-.142-.05-.285.025-.356.123-.095.32-.12.517-.143.196-.024.393-.047.467-.166.025-.048.05-.19-.024-.285-.025 0-.05.023-.074.023.024 0 .049-.023.074-.023-.074-.143-.099-.333-.148-.523-.05-.19-.099-.357-.172-.476-.074-.119-.222-.095-.37-.023-.123 0-.295.095-.443.142-.024.071 0 .19.074.238zm-.69-1.593c.149 0 .395-.214.518-.166 0 .024.024.048.024.071 0 .024.025.048.05.095.049.072.074.143.123.19.049.072.074.143.098.19 0 .024.025.072.025.096 0 .024 0 .047-.025.071-.049.119-.27.166-.492.238-.222.071-.419.142-.468.261-.024.071.025.19.074.285.025.048.05.12.074.167.024.047.05.095.05.119.024.07.048.19.073.309a.43.43 0 0 1 .05.166.482.482 0 0 0 .073.119c.148.119.665-.095.812-.214a.544.544 0 0 0-.049-.19c-.123-.072-.394.119-.541.095-.025-.095-.123-.238-.173-.38-.024-.048-.024-.072-.049-.12 0-.047-.025-.07-.025-.094 0-.072 0-.12.05-.167.074-.095.295-.142.492-.214.197-.07.394-.118.443-.237.025-.048 0-.167-.05-.262 0-.024-.024-.047-.048-.095-.025-.024-.025-.047-.05-.095-.024-.047-.049-.119-.073-.143-.05-.118-.099-.213-.124-.332l-.073-.143c-.025-.047-.05-.095-.099-.119-.098-.119-.246-.071-.394.024-.123.119-.27.238-.394.285 0 .072.05.167.099.19zm1.355 4.683c-.05.047-.05.19 0 .237.147.072.443-.047.566.048 0 .119.025.333.025.499 0 .166-.05.309-.148.333h-.739a.546.546 0 0 0-.246.047.265.265 0 0 0-.074.19v.452c0 .095-.049.238-.049.357 0 .118 0 .237.05.285.122.119.59.071.787.095.025-.024.05-.048.05-.095v-.12c-.1-.094-.42-.023-.542-.118 0-.119-.025-.285 0-.428 0-.142.024-.285.123-.332.123-.072.344-.048.541-.024.197.024.394.047.493-.024.049-.024.098-.166.074-.285a2.03 2.03 0 0 1 0-.547v-.285a.682.682 0 0 0-.05-.238c-.024-.119-.172-.142-.344-.119-.173.024-.37.072-.517.072zm-.246-1.664a.222.222 0 0 0 .049.214c.148.047.418-.095.566-.048 0 .095.05.262.099.404 0 .048.024.072.024.12v.118a.32.32 0 0 1-.05.166c-.073.095-.32.095-.54.095-.222 0-.444.024-.518.143-.049.048-.024.19-.024.31 0 .118.024.237.024.308v.309c0 .119 0 .238.05.309.098.143.664.071.861 0a.254.254 0 0 0 0-.19c-.098-.119-.418 0-.566-.048v-.095c0-.024-.025-.071-.025-.095-.024-.071-.024-.142-.049-.237 0-.072-.024-.143 0-.214 0-.024.025-.072.025-.095.024-.024.024-.048.049-.072.098-.071.32-.071.542-.071.221 0 .418-.024.492-.119.025-.047.025-.166.025-.285 0-.048-.025-.119-.025-.19 0-.024 0-.048-.025-.095 0-.024 0-.048-.024-.072-.025-.118-.025-.237-.05-.356 0-.048-.024-.119-.024-.167-.025-.047-.025-.095-.05-.142-.049-.095-.196-.095-.369-.048-.172.048-.344.12-.467.143zm.098 5.039c-.05.047-.098.166-.05.237.124.095.444.048.518.167a6.998 6.998 0 0 1-.123.499c-.025.095-.05.166-.099.214-.049.047-.098.071-.147.071h-.025c-.197-.047-.419-.119-.69-.166-.122-.024-.196-.048-.245 0-.05.024-.099.095-.124.166l-.073.214a.666.666 0 0 0-.05.214c-.024.095-.098.214-.123.333a.43.43 0 0 0-.049.166c0 .048 0 .095.025.119.098.166.566.238.738.285.05-.024.099-.142.099-.19-.05-.071-.123-.095-.247-.119a.926.926 0 0 1-.27-.119c.049-.119.049-.285.098-.428.05-.142.099-.261.222-.285.147-.024.344.048.517.12.197.07.369.142.492.094.05-.024.148-.142.123-.261 0-.048.025-.072.025-.12 0-.047.024-.094.024-.118.025-.095.05-.19.074-.261.025-.095.05-.19.074-.262.025-.095.025-.166.025-.238.073-.19-.05-.237-.222-.261-.172-.024-.37-.024-.517-.071zm.665-1.688c-.173 0-.37.024-.493.024 0 .024-.024.024-.024.048 0 .023 0 .047-.025.07 0 .048 0 .096.025.12.123.07.443 0 .541.095-.024.095 0 .261 0 .428 0 .166-.024.309-.123.356-.098.071-.32 0-.541-.047-.222-.048-.443-.096-.542 0a.178.178 0 0 0-.05.118c0 .024-.024.048-.024.072 0 .023-.024.047-.024.095-.025.119-.025.237-.05.309 0 .047-.024.095-.024.142 0 .024-.025.048-.025.072 0 .023-.024.047-.024.095-.025.119-.05.237-.025.309.074.166.64.237.812.214a.544.544 0 0 0 .05-.19c-.074-.12-.419-.096-.517-.19 0-.048.024-.12.024-.19 0-.072 0-.167.025-.239.024-.142.074-.285.172-.332.123-.048.345.024.542.047.098.024.197.048.295.048.099 0 .172 0 .197-.048.099-.071.099-.428.123-.618.025-.237.099-.475.05-.665.024-.024-.025-.071-.1-.095a.735.735 0 0 0-.245-.048zm-1.723 4.92c-.025.024-.074.048-.099.095-.025.048-.05.095-.025.12.074.118.419.165.468.308-.074.119-.147.309-.246.452-.098.142-.197.261-.32.214h-.025c-.172-.096-.369-.214-.615-.333-.098-.072-.172-.072-.246-.072-.05 0-.123.072-.148.12-.098.118-.172.285-.246.38-.025.047-.074.095-.099.142-.049.048-.073.095-.123.143-.073.095-.123.19-.098.261.05.167.492.357.64.476.05 0 .123-.12.148-.167-.05-.142-.345-.237-.419-.356.025-.048.074-.12.099-.19.024-.072.074-.143.123-.214.074-.12.172-.238.27-.214.148 0 .32.142.468.261.173.12.32.238.443.214.05 0 .173-.119.197-.214-.049-.024-.074-.047-.123-.071.05.024.074.047.123.071.025-.071.074-.142.123-.237.025-.048.05-.072.074-.12.025-.047.05-.07.074-.118.099-.167.197-.31.246-.452.074-.142-.024-.237-.197-.309-.147-.071-.344-.119-.467-.19zm.615-1.545c-.05.048-.098.143-.074.214.099.119.419.119.492.238-.049.095-.073.261-.123.404-.049.142-.098.285-.197.333-.123.047-.32-.072-.516-.167-.197-.095-.419-.19-.517-.142-.124.047-.247.427-.296.523-.074.142-.295.404-.27.546.024.167.54.38.738.404.05-.024.098-.119.098-.166-.024-.143-.369-.19-.443-.31.025-.047.05-.118.074-.165.025-.048.025-.072.05-.12.024-.047.024-.07.049-.118.049-.143.147-.262.246-.285.123 0 .32.095.517.19s.369.19.492.142c.123-.047.197-.38.27-.57.025-.048.05-.119.075-.166.024-.048.049-.12.073-.167.05-.119.074-.214.099-.309-.025-.095-.172-.166-.345-.214-.172-.047-.369-.071-.492-.095zm-2.51 4.397c-.075 0-.173.095-.173.167.049.142.344.261.369.404l-.074.071c-.024.024-.05.071-.074.095a.737.737 0 0 1-.197.19c-.123.12-.27.19-.344.12l.197.19-.197-.19-.493-.476c-.098-.095-.147-.12-.221-.12-.05 0-.123.048-.197.096-.05.047-.123.095-.172.166-.025.024-.05.048-.074.095l-.074.072c-.074.071-.197.142-.295.214-.05.047-.099.07-.124.118-.024.048-.049.072-.049.12 0 .19.37.475.493.617.049 0 .147-.071.196-.119 0-.142-.27-.309-.295-.451.099-.071.197-.214.32-.31l.05-.047.049-.047c.024-.024.049-.048.073-.048.05-.024.123-.047.173-.024.147.048.27.214.394.357.123.166.246.309.369.309.05 0 .197-.048.246-.166.098-.143.246-.262.394-.38.05-.024.074-.072.098-.096l.099-.095c.049-.071.123-.119.148-.19 0-.119-.074-.214-.197-.333-.124-.095-.296-.214-.419-.309zm1.008-1.33c-.073.023-.123.118-.123.19.074.118.37.213.419.356-.074.071-.148.214-.222.356-.049.072-.098.143-.123.19-.05.048-.098.072-.148.072-.123 0-.295-.143-.467-.285-.173-.143-.345-.286-.468-.262-.074.024-.148.095-.222.19-.049.048-.073.095-.123.143a.33.33 0 0 1-.073.095l-.222.214-.025.024-.024.024c-.025.023-.05.047-.05.07-.024.048-.049.096-.049.12-.024.166.419.499.591.594.05-.024.123-.095.123-.143 0-.142-.295-.285-.344-.428.073-.07.147-.213.246-.332a.411.411 0 0 1 .147-.143c.05-.047.099-.047.173-.047.123.023.295.166.443.309.148.142.32.285.418.261a.733.733 0 0 0 .222-.19c.05-.048.074-.095.123-.143.025-.047.074-.095.098-.142.148-.19.345-.357.394-.547 0-.143-.098-.238-.27-.333-.148-.095-.345-.166-.444-.214zm-3.815 3.755c0 .142.27.332.246.475-.123.071-.27.19-.443.285-.148.071-.296.119-.37.024v-.024c-.098-.166-.22-.356-.344-.594-.074-.095-.098-.143-.172-.166-.05-.024-.148 0-.197.047a.19.19 0 0 1-.099.048c-.049.023-.074.047-.098.047-.074.048-.148.072-.197.12-.099.047-.222.094-.345.142-.123.047-.221.119-.246.19-.05.166.222.546.32.713.05.024.172-.048.222-.071.049-.143-.173-.357-.173-.5.05-.023.123-.07.197-.095.074-.047.123-.095.197-.118.123-.072.271-.12.37-.048.123.071.196.261.27.452.074.19.148.356.271.404.05.023.197 0 .295-.095l.222-.143c.074-.048.172-.095.246-.143.099-.047.172-.095.246-.142.05-.024.074-.048.099-.072l.074-.07c.098-.096.024-.215-.074-.357-.099-.167-.222-.31-.296-.428a.297.297 0 0 0-.221.119zm1.378-1.022c.025.142.32.309.32.451a.64.64 0 0 0-.147.119c-.05.048-.099.119-.173.166-.123.12-.246.19-.344.19-.123-.023-.246-.213-.37-.404-.123-.19-.246-.356-.393-.38a.425.425 0 0 0-.124.048.517.517 0 0 0-.147.095 2.564 2.564 0 0 0-.246.19c-.05.047-.173.095-.271.143a.533.533 0 0 0-.246.213c-.025.048 0 .096.024.167a.954.954 0 0 0 .123.214c.099.142.222.285.296.333.049 0 .123-.048.172-.096.05-.142-.221-.332-.221-.499a.615.615 0 0 0 .147-.119c.025-.023.05-.047.099-.07a.314.314 0 0 1 .098-.072c.123-.095.271-.167.37-.119.123.048.221.238.344.404.123.166.222.333.345.357.074 0 .147-.048.246-.12.098-.07.197-.166.27-.213l.296-.214c.099-.071.172-.143.246-.214.099-.119 0-.238-.123-.356a4.014 4.014 0 0 0-.418-.357.343.343 0 0 0-.173.143zm-4.53 2.543c-.024.142.173.404.124.523l-.222.07c-.049.025-.098.025-.123.048-.049.024-.098.024-.123.048-.172.048-.32.048-.369-.048v-.023c-.05-.19-.123-.404-.172-.666a.36.36 0 0 0-.123-.214c-.025-.023-.05-.023-.099-.023h-.123c-.148.023-.32.07-.443.118h-.197c-.074 0-.123.024-.197.024-.123.024-.222.048-.27.119-.05.071-.025.214 0 .38.024.143.098.31.098.404.049.024.172 0 .221-.023.074-.12-.074-.404-.024-.547.049-.024.123-.024.197-.048l.221-.07c.148-.048.296-.048.37.023.098.119.122.309.147.499.025.19.05.38.172.452.05.023.197.047.296-.024 0-.024-.025-.048-.025-.072 0 .024.025.048.025.072.148-.072.344-.095.541-.143.197-.047.37-.095.493-.166.123-.072.098-.214.024-.357-.049-.119-.123-.285-.172-.428-.074-.023-.197 0-.246.072zm1.626-.666c0 .143.221.38.172.5-.025 0-.05.023-.074.023-.025.024-.05.024-.098.048-.074.047-.148.071-.197.119-.074.047-.148.07-.197.095-.025 0-.074.023-.099.023-.024 0-.049 0-.074-.023-.123-.048-.172-.262-.246-.476-.074-.214-.147-.404-.27-.451-.074-.024-.198.023-.296.07-.05.025-.123.048-.172.072-.05.024-.099.048-.123.048a3.308 3.308 0 0 1-.32.071.469.469 0 0 1-.173.048.542.542 0 0 0-.123.07c-.123.144.099.643.222.785a.596.596 0 0 0 .197-.047c.074-.12-.123-.38-.099-.523.099-.024.246-.119.394-.167.05-.023.074-.023.123-.047.05 0 .074-.024.099-.024.073 0 .123 0 .172.048.098.071.148.285.222.475.073.19.123.38.246.428.049.024.172 0 .27-.048.025 0 .05-.023.099-.047.025-.024.05-.024.098-.048.05-.023.123-.047.148-.071.123-.048.222-.095.345-.119l.147-.071c.05-.024.099-.048.124-.095.123-.095.073-.238-.025-.38a1.758 1.758 0 0 1-.296-.38c-.073 0-.172.047-.196.094zm-5.071 1.307c-.074.143.049.428-.05.547-.123 0-.344.024-.517.024-.172 0-.32-.048-.344-.143v-.713a.497.497 0 0 0-.05-.237.285.285 0 0 0-.196-.072h-.468c-.099 0-.246-.047-.37-.047-.123 0-.246 0-.295.047-.123.12-.074.57-.098.76.024.025.049.048.098.048h.123c.099-.095.025-.404.123-.522.123 0 .296-.024.443 0 .148 0 .296.023.345.118.074.12.05.333.025.523s-.05.38.024.476c.025.047.173.095.296.07.172-.023.369-.023.566 0h.295a.75.75 0 0 0 .246-.047c.124-.047.148-.166.124-.332-.025-.167-.074-.357-.074-.5-.05-.047-.197-.047-.246 0zm1.747-.213c-.049.142.099.404.05.546-.099 0-.271.048-.419.095-.05 0-.074.024-.123.024h-.123c-.074 0-.123-.024-.172-.047-.099-.072-.099-.31-.099-.523 0-.214-.025-.428-.148-.5-.049-.047-.197-.023-.32-.023s-.246.024-.32.024h-.32c-.123 0-.246 0-.32.047-.147.095-.074.642 0 .832a.28.28 0 0 0 .197 0c.123-.095 0-.404.05-.547h.098c.025 0 .074-.023.098-.023.074-.024.148-.024.247-.048.073 0 .147-.024.221 0 .025 0 .074.024.099.024.024.024.049.024.073.047.074.095.074.31.074.523 0 .214.025.404.123.476.05.023.173.023.296.023.049 0 .123-.023.197-.023.024 0 .049 0 .098-.024.025 0 .05 0 .074-.024.123-.024.246-.024.37-.048.049 0 .122-.023.172-.023.049-.024.098-.024.147-.048.123-.071.123-.214.074-.38a1.56 1.56 0 0 1-.172-.428.242.242 0 0 0-.222.048zm-5.415.499a7.688 7.688 0 0 1-.517-.12c-.099-.023-.173-.047-.222-.094-.05-.048-.074-.095-.074-.143 0 .024 0 .024-.024.048 0-.024 0-.048.024-.072.05-.19.123-.404.173-.665.024-.119.049-.19 0-.238-.025-.047-.099-.095-.173-.119l-.221-.07a.708.708 0 0 0-.222-.048c-.098-.024-.221-.096-.344-.12a.469.469 0 0 0-.173-.047c-.049 0-.098 0-.123.024-.172.095-.246.547-.295.713.024.048.147.095.197.095.074-.047.098-.119.123-.238a.865.865 0 0 1 .123-.261c.123.047.295.047.443.095.148.048.27.095.295.214.025.143-.049.333-.123.499-.074.166-.147.357-.098.475.024.048.147.143.27.12.05 0 .074.023.124.023.049 0 .098.024.123.024.098.024.197.047.27.071.099.024.197.048.271.071a.955.955 0 0 0 .246.024c.124 0 .197-.142.222-.285.025-.166.025-.357.074-.5 0 .025-.123 0-.197.025-.099.118-.05.427-.172.499zm2.092-.286c-.025 0-.05 0-.074-.023-.049 0-.098 0-.123.023-.074.12 0 .428-.098.523-.099-.023-.271 0-.443 0-.173 0-.32-.023-.37-.118-.074-.096 0-.31.05-.523.049-.214.098-.428 0-.523a.192.192 0 0 0-.124-.048c-.024 0-.049-.024-.073-.024-.025 0-.05-.023-.099-.023-.123-.024-.246-.024-.32-.048-.05 0-.098-.024-.148-.024-.024 0-.049-.023-.073-.023-.025 0-.05-.024-.099-.024-.123-.024-.246-.048-.32-.024-.172.071-.246.618-.221.784a.586.586 0 0 0 .196.048c.124-.071.099-.404.197-.5.05 0 .123.025.197.025a.89.89 0 0 1 .246.023c.148.024.296.072.345.167.05.119-.024.332-.05.523-.024.095-.048.19-.048.285 0 .095 0 .166.049.19.074.095.443.095.64.119.246.024.492.095.69.047.073 0 .122-.047.147-.118a.682.682 0 0 0 .05-.238c-.05-.143-.1-.333-.075-.452-.024 0-.024-.024-.049-.024zM10.08 27.67c-.123.071-.173.404-.32.452-.123-.072-.32-.143-.468-.238-.148-.095-.27-.19-.222-.31v-.023c.099-.166.222-.356.345-.594.074-.095.074-.166.074-.238 0-.047-.074-.119-.123-.142-.123-.095-.296-.167-.394-.238-.05-.024-.099-.071-.148-.095-.049-.048-.098-.071-.147-.119-.099-.071-.197-.119-.271-.095-.173.048-.37.475-.493.618 0 .048.123.119.173.143.147-.048.246-.333.369-.404.05.023.123.07.197.095.074.023.148.07.221.118.124.072.247.167.222.262 0 .143-.148.309-.27.452-.124.166-.247.308-.222.427 0 .048.123.167.221.19 0 0 0-.023.025-.023 0 0 0 .023-.025.023.074.024.148.072.246.12.05.023.074.047.123.07.05.024.074.048.124.072.172.095.32.19.467.238.123.023.222-.095.296-.238.074-.143.123-.333.197-.452 0 0-.05-.023-.074-.047-.05-.024-.099-.048-.123-.024zm1.354 1.117c-.099-.047-.271-.071-.419-.119-.148-.047-.295-.095-.345-.19-.049-.119.074-.309.173-.499.098-.19.197-.404.147-.5-.049-.118-.443-.237-.541-.284-.148-.072-.419-.286-.566-.262-.173.024-.394.523-.419.713.025.048.123.095.173.095.147-.023.197-.356.32-.427.049.023.123.047.172.07.05.025.074.025.123.048.05.024.074.024.123.048.148.047.27.142.295.238 0 .118-.098.309-.196.499-.099.19-.197.356-.148.475.05.119.394.19.59.261.05.024.124.048.173.072.05.024.123.047.172.071.123.048.222.071.32.095.148.024.222-.119.271-.285.05-.166.074-.357.099-.475-.099-.095-.197-.143-.271-.12-.123.096-.123.405-.246.476zM7.15 25.77c-.147.047-.27.332-.418.356l-.074-.071c-.025-.024-.074-.048-.099-.071a.737.737 0 0 1-.196-.19c-.124-.12-.197-.262-.124-.333l.025-.024.492-.476c.099-.095.124-.142.124-.213 0-.048-.05-.12-.099-.19-.05-.048-.098-.12-.172-.167a.339.339 0 0 0-.099-.071l-.074-.072c-.073-.07-.147-.19-.221-.285-.05-.047-.074-.095-.123-.119-.05-.023-.074-.047-.123-.047-.197 0-.493.356-.64.475 0 .048.074.143.123.19.147 0 .32-.261.467-.285.074.095.222.19.32.31l.05.047.049.047c.025.024.05.048.05.072.024.047.048.118.024.166-.05.142-.222.261-.37.38-.172.119-.32.238-.32.357 0 .047.05.19.173.237.148.095.27.238.394.38.024.048.074.072.098.096l.099.095c.073.047.123.119.197.142.123.048.221-.023.344-.142.099-.12.222-.285.32-.404a.378.378 0 0 0-.197-.19zm1.01 1.45c-.074-.072-.222-.143-.37-.214-.074-.048-.147-.096-.197-.12-.049-.047-.073-.094-.073-.142 0-.119.147-.285.295-.452.148-.166.295-.332.27-.451-.024-.071-.098-.143-.196-.214-.05-.048-.099-.071-.148-.119a.339.339 0 0 1-.098-.071l-.222-.214-.025-.024-.024-.024c-.025-.023-.05-.047-.074-.047-.05-.024-.098-.048-.123-.048-.172-.023-.517.404-.616.57.025.048.099.12.148.12.148 0 .296-.286.443-.333.074.071.222.142.345.238a.41.41 0 0 1 .148.142c.049.048.049.095.049.167-.025.118-.172.285-.32.427-.148.143-.296.31-.27.404a.722.722 0 0 0 .196.214c.05.048.098.072.148.12.049.023.098.07.147.094.197.143.37.333.567.38.147.048.246-.07.344-.213.099-.143.173-.333.222-.428a.202.202 0 0 0-.197-.167c-.123.072-.222.357-.37.404zm-2.265-2.64c-.148.024-.32.31-.468.31a.606.606 0 0 0-.123-.143c-.05-.048-.123-.095-.172-.167-.123-.119-.197-.237-.197-.333.024-.118.221-.237.418-.356.197-.119.37-.238.394-.38a.371.371 0 0 0-.05-.12c-.024-.047-.048-.094-.098-.142a2.567 2.567 0 0 0-.196-.237c-.05-.048-.099-.167-.148-.262a.527.527 0 0 0-.222-.238c-.049-.023-.098 0-.172.024a1.003 1.003 0 0 0-.222.119c-.147.095-.295.214-.344.285 0 .048.049.12.098.167.148.047.345-.214.517-.214a.65.65 0 0 0 .123.142c.025.024.05.048.074.095.025.024.05.048.074.095.098.12.172.262.123.357-.05.119-.246.214-.418.333-.173.119-.345.214-.37.332 0 .072.05.143.123.238.074.095.173.19.222.262l.221.285c.074.095.148.166.222.237.123.096.246 0 .37-.118.147-.167.27-.333.369-.404a.338.338 0 0 0-.148-.167zM3.26 20.183c-.148-.024-.419.167-.542.119l-.074-.214c-.024-.047-.024-.095-.049-.119-.024-.047-.024-.095-.049-.119-.05-.166-.05-.309.05-.356h.024c.197-.048.418-.119.69-.166a.379.379 0 0 0 .22-.12c.025-.023.025-.047.025-.094v-.12a2.19 2.19 0 0 0-.123-.427v-.19c0-.072-.024-.12-.024-.19-.025-.12-.05-.214-.124-.262-.073-.047-.221-.024-.393 0-.148.024-.32.095-.419.095-.024.048 0 .167.025.214.123.071.418-.071.566-.024.025.048.025.12.05.19l.073.214c.05.143.05.286-.025.357-.123.095-.32.119-.517.143-.196.023-.393.047-.467.166-.025.047-.05.19.024.285.025 0 .05-.024.074-.024-.049.024-.074.048-.098.048.074.143.098.333.147.523.05.19.099.356.173.475.074.119.221.095.369.024.148-.048.32-.143.468-.19.024-.071 0-.19-.074-.238zm.69 1.593c-.149 0-.395.214-.518.166 0-.024-.024-.048-.024-.071-.025-.024-.025-.048-.05-.095-.049-.072-.074-.143-.123-.19-.049-.072-.074-.143-.098-.19 0-.024-.025-.072-.025-.096 0-.024 0-.047.025-.071.049-.119.27-.166.492-.238.222-.071.419-.142.468-.261.024-.071-.025-.19-.074-.285-.025-.048-.05-.12-.074-.167a.393.393 0 0 1-.05-.119 3.01 3.01 0 0 1-.073-.309.43.43 0 0 1-.05-.166.482.482 0 0 0-.073-.119c-.148-.119-.665.095-.812.214a.53.53 0 0 0 .049.19c.123.072.394-.119.541-.095.025.095.123.238.173.38.024.048.024.072.049.12 0 .047.025.07.025.094 0 .072 0 .12-.05.167-.074.095-.295.142-.492.214-.197.07-.394.118-.443.237-.025.048 0 .167.05.262 0 .024.024.047.048.095.025.024.025.047.05.095.024.047.049.119.073.143.05.118.099.213.124.332l.073.143c.025.047.05.095.099.119.098.119.246.071.394-.024.123-.119.27-.238.394-.285 0-.072-.05-.167-.099-.19zm-1.355-4.683c.05-.047.05-.19 0-.237-.147-.072-.443.047-.566-.048 0-.119-.025-.333-.025-.499 0-.166.05-.309.148-.333h.739a.546.546 0 0 0 .246-.047.265.265 0 0 0 .074-.19v-.452c0-.095.049-.238.049-.357 0-.118 0-.237-.05-.285-.122-.119-.59-.071-.787-.095-.025.024-.05.048-.05.095v.12c.1.094.42.023.542.118 0 .119.025.285 0 .428 0 .142-.024.285-.123.332-.123.072-.344.048-.541.024-.197-.024-.394-.047-.493.024-.049.024-.098.166-.074.285a2.03 2.03 0 0 1 0 .547v.285c0 .095.025.166.05.238.024.119.172.142.344.119.173-.024.37-.072.517-.072zm.246 1.664a.222.222 0 0 0-.049-.214c-.148-.047-.418.095-.566.048 0-.095-.05-.262-.099-.404 0-.048-.024-.072-.024-.12v-.118a.32.32 0 0 1 .05-.166c.073-.095.32-.095.54-.095.222 0 .444-.024.518-.143.049-.048.024-.19.024-.31 0-.118-.024-.237-.024-.308v-.309c0-.119 0-.238-.05-.309-.098-.143-.664-.071-.861 0a.254.254 0 0 0 0 .19c.098.119.418 0 .566.048v.095c0 .024.025.071.025.095.024.071.024.142.049.237 0 .072.024.143 0 .214 0 .024-.025.072-.025.095-.024.024-.024.048-.049.072-.098.071-.32.071-.542.071-.221 0-.418.024-.492.119-.025.047-.025.166-.025.285 0 .048.025.119.025.19 0 .024 0 .048.025.095 0 .024 0 .048.024.072.025.118.025.237.05.356 0 .048.024.119.024.167 0 .023 0 .07.025.118.074.12.221.12.394.072.172-.048.344-.12.467-.143zm-.615-5.11c.172.024.37.024.517.071.05-.047.098-.166.05-.237-.124-.095-.444-.048-.518-.167.025-.119.074-.333.123-.499.025-.095.05-.166.099-.214.049-.047.098-.071.147-.071-.024 0-.024 0-.049-.024.025 0 .05 0 .074.024.197.047.419.119.69.166.122.024.196.048.245 0 .05-.024.099-.095.124-.166l.073-.214a.666.666 0 0 0 .05-.214c.024-.095.098-.214.123-.333a.43.43 0 0 0 .049-.166c0-.048 0-.095-.025-.119-.098-.166-.566-.238-.738-.285-.05.024-.099.142-.099.19.05.071.123.095.247.119a.926.926 0 0 1 .27.119c-.049.119-.049.285-.098.428-.05.142-.099.261-.222.285-.147.024-.344-.048-.517-.12-.197-.07-.369-.142-.492-.094-.05.024-.148.142-.123.261 0 .048-.025.072-.025.12 0 .047-.024.094-.024.118-.025.095-.05.19-.074.261-.025.095-.05.19-.074.262-.025.095-.025.166-.025.238-.073.19.05.237.222.261zm-.148 1.783c.173 0 .37-.024.493-.024 0-.024.024-.024.024-.048s0-.047.025-.071c0-.048 0-.095-.025-.119-.123-.071-.443 0-.541-.095.024-.095 0-.261 0-.428 0-.166.024-.309.123-.356.098-.072.32 0 .541.047.222.048.443.095.542 0a.178.178 0 0 0 .05-.119c0-.023.024-.047.024-.07 0-.025.024-.048.024-.096.025-.119.025-.238.05-.309 0-.047.024-.095.024-.143 0-.023.025-.047.025-.07 0-.025.024-.048.024-.096.025-.119.05-.238.025-.309-.074-.166-.64-.238-.812-.214a.544.544 0 0 0-.05.19c.074.12.419.095.517.19 0 .048-.024.12-.024.19 0 .072 0 .167-.025.238-.024.143-.074.286-.172.333-.123.048-.345-.024-.542-.047a1.276 1.276 0 0 0-.295-.048c-.099 0-.172 0-.197.048-.099.07-.099.427-.123.617-.025.238-.099.476-.05.666-.024.024.025.047.1.095a.75.75 0 0 0 .245.048zm1.723-4.944c.025-.024.074-.048.099-.095.025-.048.05-.095.025-.12-.074-.118-.419-.165-.468-.308.074-.119.147-.309.246-.452.098-.142.197-.261.32-.214h.025c.172.096.369.214.615.333a.361.361 0 0 0 .246.072c.05 0 .123-.072.148-.12.098-.118.172-.285.246-.38.025-.047.074-.095.099-.142.049-.048.073-.095.123-.143.073-.095.123-.19.098-.261-.05-.167-.492-.357-.64-.476-.05 0-.123.12-.148.167.05.142.345.237.419.356-.025.048-.074.12-.099.19a.954.954 0 0 1-.123.214c-.074.12-.172.238-.27.214-.148 0-.32-.142-.468-.261-.173-.12-.32-.238-.443-.214-.05 0-.173.119-.197.214 0 0 .024 0 .024.024 0 0-.024 0-.024-.024-.025.071-.074.142-.123.237-.025.048-.05.072-.074.12-.025.047-.05.07-.074.118-.099.167-.197.31-.246.452-.074.166.049.237.197.309.147.071.344.119.467.19zm-.615 1.545c.05-.048.098-.143.074-.214-.099-.119-.419-.119-.492-.238.049-.095.073-.261.123-.404.049-.142.098-.285.197-.333.123-.047.32.072.516.167.197.095.419.19.517.142.124-.047.247-.427.296-.523.074-.142.295-.404.27-.546-.024-.167-.54-.38-.738-.404-.05.024-.098.119-.098.166.024.143.369.19.443.31-.025.047-.05.118-.074.165-.025.048-.025.072-.05.12 0 .023 0 .07-.024.118-.05.143-.148.262-.246.285-.123 0-.32-.095-.517-.19s-.37-.19-.492-.142c-.123.047-.197.38-.271.57-.025.048-.05.119-.074.166-.025.048-.05.12-.074.167-.05.119-.074.214-.098.309 0 .095.147.166.32.214.172.047.369.071.492.095zm2.536-4.397c.073 0 .172-.095.172-.167-.05-.142-.345-.261-.37-.404l.074-.071c.025-.024.05-.071.074-.095a.737.737 0 0 1 .197-.19c.123-.12.271-.19.345-.12l-.099-.094-.073-.071.073.07.123.12.493.475c.098.095.148.119.221.119.05 0 .123-.048.197-.095.05-.048.123-.095.173-.167a.312.312 0 0 0 .073-.095l.074-.07c.074-.072.197-.144.296-.215.049-.047.098-.071.123-.119.024-.047.049-.071.049-.119 0-.19-.37-.475-.492-.617-.05 0-.148.07-.197.118 0 .143.27.31.295.452-.098.071-.197.214-.32.309l-.05.047-.048.048c-.025.024-.05.048-.074.048-.05.023-.123.047-.172.023-.148-.047-.271-.214-.394-.356-.123-.167-.247-.31-.37-.31-.049 0-.197.048-.246.167-.098.143-.246.262-.394.38-.049.024-.073.072-.098.096l-.099.095c-.049.07-.123.118-.147.19-.05.095.024.19.172.309.123.095.295.214.419.309zM4.246 8.75c.147.095.344.166.443.214.073-.024.123-.12.123-.19-.074-.12-.37-.214-.419-.357.074-.071.148-.214.222-.356.049-.072.098-.143.123-.19.05-.048.098-.072.148-.072.123 0 .295.143.467.285.173.143.345.286.468.262.074-.024.148-.095.222-.19.049-.048.073-.095.123-.143a.33.33 0 0 1 .073-.095l.222-.214.025-.024.024-.024c.025-.023.05-.047.05-.07a.393.393 0 0 0 .049-.12c.024-.166-.419-.499-.591-.594-.05.024-.123.095-.123.143 0 .142.295.285.344.428-.073.07-.147.213-.246.332a.411.411 0 0 1-.147.143c-.05.047-.099.047-.173.047-.123-.023-.295-.166-.443-.309-.148-.142-.32-.285-.418-.261a.733.733 0 0 0-.222.19c-.05.048-.074.095-.123.143-.025.047-.074.095-.098.142-.148.19-.345.357-.394.547 0 .143.098.261.27.333zm4.283-3.542c0-.142-.271-.332-.246-.475.123-.071.27-.19.443-.285.147-.071.295-.119.369-.024v.024c.098.166.222.356.345.594.073.095.098.143.172.166.05.024.148 0 .197-.047a.19.19 0 0 1 .098-.048c.05-.023.074-.047.099-.047.074-.048.148-.072.197-.12.098-.047.221-.094.344-.142.123-.047.222-.119.247-.19.049-.166-.222-.546-.32-.713-.05-.024-.173.048-.222.071-.05.143.172.357.172.5-.049.023-.123.07-.197.095-.073.047-.123.095-.197.118-.123.072-.27.12-.369.048-.123-.071-.197-.261-.27-.452-.074-.19-.148-.356-.271-.404-.05-.023-.197 0-.296.095l-.221.143c-.074.048-.173.095-.246.143-.099.047-.173.095-.247.142a.33.33 0 0 0-.098.072l-.074.07c-.098.096-.025.215.074.357.074.167.197.31.295.428a.297.297 0 0 0 .222-.119zM7.126 6.255c-.025-.142-.32-.309-.32-.451a.648.648 0 0 0 .147-.12c.05-.047.099-.118.173-.166.123-.118.246-.19.344-.19.123.024.246.214.37.404.123.19.246.357.393.38a.425.425 0 0 0 .124-.047.517.517 0 0 0 .147-.095c.099-.071.197-.143.246-.19.05-.048.173-.095.271-.143a.533.533 0 0 0 .246-.214c.025-.047 0-.095-.024-.166a.979.979 0 0 0-.123-.214c-.099-.143-.222-.285-.296-.333-.049 0-.123.048-.172.095-.05.143.221.333.221.5a.609.609 0 0 0-.147.118c-.025.024-.05.048-.099.072-.024.023-.049.047-.098.07-.123.096-.271.167-.37.12-.123-.048-.221-.238-.344-.404-.123-.167-.222-.333-.345-.357-.074 0-.147.048-.246.119-.098.071-.197.166-.27.214l-.296.214a2.064 2.064 0 0 0-.246.214c-.099.119 0 .237.123.356.172.143.32.262.418.357a.343.343 0 0 0 .173-.143zm4.53-2.567c.024-.142-.173-.404-.124-.523l.222-.07c.049-.025.098-.025.123-.048.049-.024.098-.024.123-.048.172-.048.32-.048.369.048 0-.024-.025-.072-.025-.096 0 .024.025.072.025.12.05.19.123.403.172.665a.36.36 0 0 0 .123.214c.025.023.05.023.099.023h.123c.148-.023.32-.07.443-.118h.197c.074 0 .123-.024.197-.024.123-.024.222-.048.27-.119.05-.071.025-.214 0-.38-.024-.143-.098-.31-.098-.404-.049-.024-.172 0-.221.023-.074.12.074.404.024.547-.049.024-.123.024-.197.048l-.221.07c-.148.048-.296.048-.37-.023-.098-.119-.122-.309-.147-.499-.025-.19-.05-.38-.172-.452-.05-.047-.197-.07-.296 0-.148.072-.344.096-.541.143-.197.048-.37.095-.493.166-.123.072-.098.214-.024.357.049.143.147.333.172.452.074.023.197 0 .246-.072zm-1.626.666c0-.143-.221-.38-.172-.5.025 0 .05-.023.074-.023.025-.024.05-.024.098-.048.074-.047.148-.071.197-.119.074-.047.148-.07.197-.095.025 0 .074-.023.099-.023.024 0 .049 0 .074.023.123.048.172.262.246.476.074.214.147.404.27.451.074.024.198-.023.296-.07.05-.025.123-.048.172-.072.05-.024.099-.048.123-.048.074-.024.197-.047.32-.071a.469.469 0 0 1 .173-.048.542.542 0 0 0 .123-.07c.123-.144-.099-.643-.222-.785a.596.596 0 0 0-.197.047c-.074.12.123.38.099.523-.099.024-.246.119-.394.167-.05.023-.074.023-.123.047-.05 0-.074.024-.099.024-.073 0-.123 0-.172-.048-.098-.071-.148-.285-.222-.475-.073-.19-.123-.38-.246-.428-.049-.024-.172 0-.27.048-.025 0-.05.023-.099.047-.025.024-.05.024-.098.048-.05.023-.123.047-.148.071-.123.048-.222.095-.345.119l-.147.071c-.05.024-.099.048-.124.095-.123.095-.073.238.025.38.123.12.246.286.296.38.073 0 .172-.047.196-.094zm5.071-1.307c.074-.143-.049-.428.05-.547.123 0 .344-.024.517-.024.172 0 .32.048.344.143v.713c0 .119.025.19.05.237a.282.282 0 0 0 .196.072h.468c.099 0 .246.047.37.047.123 0 .246 0 .295-.047.123-.12.074-.57.098-.76-.024-.025-.049-.048-.098-.048h-.123c-.099.095-.025.404-.123.522-.123 0-.296.024-.443 0-.148 0-.296-.023-.345-.118-.074-.12-.05-.333-.025-.523s.05-.38-.024-.476c-.025-.047-.173-.095-.296-.07a2.328 2.328 0 0 1-.566 0h-.295a.737.737 0 0 0-.246.047c-.124.047-.148.166-.124.332.025.167.074.357.074.5.05.047.197.047.246 0zm-1.747.213c.049-.142-.099-.404-.05-.546.099 0 .271-.048.419-.095.05 0 .074-.024.123-.024h.123c.074 0 .123.024.172.047.099.072.099.31.099.523 0 .214.025.428.148.5.049.047.197.023.32.023s.246-.024.32-.024h.32c.123 0 .246 0 .32-.047.147-.095.074-.642 0-.832a.28.28 0 0 0-.197 0c-.123.095 0 .404-.05.547h-.098c-.025 0-.074.023-.098.023-.074.024-.148.024-.247.048-.073 0-.147.024-.221 0-.025 0-.074-.024-.099-.024-.024-.024-.049-.024-.073-.047-.074-.143-.074-.357-.074-.57 0-.215-.025-.405-.123-.476-.05-.024-.173-.024-.296-.024-.049 0-.123.024-.197.024a.19.19 0 0 0-.098.024c-.025 0-.05 0-.074.023-.123.024-.246.024-.37.048-.049 0-.122.024-.172.024-.049.024-.098.024-.147.047-.123.072-.123.214-.074.38.074.167.148.357.172.476.074.024.172 0 .222-.048zm3.57 2.639h.048c.025 0 .05 0 .099-.024.024 0 .05-.024.074-.024 0-.024.024-.024.024-.024.025 0 .05-.023.099-.07l.024-.025c.099-.166.222-.309.32-.451.025-.048.074-.095.099-.143.024-.024.024-.047.05-.071.024-.024.048-.072.073-.095.025-.024.05-.072.074-.095.024-.024.074-.095.049-.12-.05-.047-.074-.047-.148-.07h-.024a.477.477 0 0 0-.197.047c-.025.024-.074.048-.099.095l-.049.048a5.95 5.95 0 0 1-.295.404 8.319 8.319 0 0 0-.296.475c-.024.048-.024.071-.024.095 0 0 .024.024.098.048zm-.616-.048h.024c.074 0 .173-.024.173-.024h.024c.025-.023.05-.023.099-.095.074-.142.172-.285.295-.475l.296-.428c.024-.047.073-.119.049-.143-.074-.047-.099-.07-.173-.07-.073 0-.147.047-.196.07a.189.189 0 0 0-.099.096c-.025.047-.05.07-.074.118-.024.048-.049.072-.074.12l-.147.237a7.104 7.104 0 0 0-.271.475c-.025.024-.025.072-.025.072s.025.047.099.047zm1.895.214c.025.024.074.024.099.024.074 0 .123 0 .123-.024h.024c.025-.024.05-.024.123-.071.074-.072.124-.143.197-.214.074-.071.123-.143.197-.214.099-.119.222-.238.37-.38.049-.024.073-.095.073-.12a.315.315 0 0 0-.147-.094h-.05c-.073 0-.147.023-.172.023-.05 0-.098.048-.123.072l-.05.047c-.122.143-.245.262-.344.38-.147.167-.27.286-.369.428-.05.024-.05.048-.05.072 0 0 .025.047.1.071zm-.615-.095h.074a.363.363 0 0 0 .172-.048h.025c.024-.023.049-.023.098-.095l.37-.427c.098-.12.22-.238.344-.38.025-.048.05-.096.05-.12-.05-.07-.075-.07-.149-.095h-.049c-.074 0-.147.024-.172.048a.505.505 0 0 0-.123.095l-.37.428c0 .024-.024.047-.049.071-.049.048-.074.095-.123.143l-.049.071c-.05.048-.074.119-.123.166-.025.024-.025.048-.025.072 0 .023.025.047.099.071zm1.87.452c.05.023.074.023.124.023h.147c.025 0 .025 0 .099-.047.123-.095.27-.214.443-.357.074-.047.148-.119.222-.166l.221-.166c.025-.024.074-.096.074-.12-.05-.07-.074-.094-.148-.118-.024-.024-.074-.024-.098-.024-.05 0-.099.024-.123.024-.025.024-.074.047-.123.071l-.05.024c-.147.119-.27.238-.393.333a6.837 6.837 0 0 0-.419.38c-.025.024-.05.071-.05.071s0 .048.075.072zm-.59-.19c.024.023.05.023.098.023.05 0 .099-.024.123-.047h.025c.05-.024.05-.024.123-.072.123-.119.27-.237.419-.38.147-.119.27-.238.393-.333.05-.047.074-.095.074-.119-.024-.047-.024-.047-.049-.07-.025-.025-.05-.025-.098-.048h-.074c-.074 0-.123.023-.148.023a.542.542 0 0 0-.123.072l-.074.071a.648.648 0 0 0-.148.119c-.049.071-.123.142-.197.214a6.795 6.795 0 0 0-.393.404c-.05.024-.05.071-.05.071s.025.048.099.071zm1.97.712c.024 0 .024 0 0-.047h.024c.024 0 .049 0 .123-.048l.443-.285.05-.024c.147-.07.295-.166.467-.261.05-.024.098-.071.098-.095-.024-.048-.049-.071-.123-.119-.024-.024-.074-.024-.147-.024h-.05a.192.192 0 0 0-.123.048l-.049.024-.443.285c-.148.095-.295.214-.468.333-.024.023-.049.047-.049.07v.025l.074.07c.05.048.123.048.172.048zm-.74-.309c.05.048.124.048.148.048.025 0 .05 0 .123-.071h.025c.025 0 .05 0 .123-.048.05-.047.123-.095.222-.166.049-.048.123-.095.197-.143l.024-.024.443-.285c.025-.024.074-.071.074-.095-.024-.071-.049-.095-.123-.119-.024-.023-.074-.023-.123-.023h-.098a.425.425 0 0 0-.123.047c-.148.095-.296.214-.468.333l-.025.024a1.221 1.221 0 0 1-.197.166c-.049.024-.074.071-.123.095-.05.024-.074.071-.123.095-.025.024-.05.048-.05.071 0 .024 0 .072.075.095zm1.798.927c.024.024.049.024.074.024h.024c.05 0 .05 0 .123-.024h.025c.172-.095.345-.19.517-.261.123-.048.27-.119.394-.166l.098-.048c.025-.024.099-.071.099-.095-.025-.071-.025-.095-.099-.143-.024-.023-.05-.023-.05-.023h-.171c-.025 0-.074 0-.123.023l-.05.024c-.172.071-.32.143-.467.214a5.277 5.277 0 0 0-.517.261c-.05.024-.074.048-.074.072a.4.4 0 0 0 .074.095c.049.024.073.024.123.047zm-.665-.356a.773.773 0 0 0 .197.047h.05c.024 0 .048 0 .122-.047a3.74 3.74 0 0 1 .493-.285c.049-.024.073-.048.123-.072.049-.023.074-.047.123-.07.098-.048.172-.096.246-.12.05-.024.098-.071.098-.095-.049-.071-.049-.095-.123-.142-.049-.048-.123-.048-.197-.048h-.024c-.05.024-.099.024-.123.048-.074.047-.173.095-.246.142-.05.048-.099.071-.148.095-.025.024-.074.048-.099.072-.147.095-.32.19-.492.309-.05.023-.074.047-.074.07 0 0 0 .048.074.096zm1.772 1.165h.05c.024 0 .049 0 .123-.072.197-.071.369-.142.541-.19.222-.047.37-.095.517-.143.074-.023.123-.047.123-.07a.303.303 0 0 0-.098-.143c-.025-.048-.123-.072-.197-.072h-.05c-.048 0-.073.024-.098.024l-.049.024c-.172.047-.32.119-.492.166-.197.071-.37.143-.542.214-.05.024-.074.024-.074.048 0 .023 0 .07.05.118.049.072.147.096.196.096zm-.492-.405h.025c.049 0 .074 0 .172.024a.926.926 0 0 1 .27-.119c.1-.023.198-.07.272-.095.147-.071.32-.119.492-.19.025-.024.098-.071.098-.095a.303.303 0 0 0-.098-.143.334.334 0 0 0-.197-.07h-.025c-.049 0-.073 0-.123.023-.197.071-.369.143-.541.214-.197.071-.345.166-.517.238-.05.023-.074.023-.074.047 0 0 0 .048.05.095a.326.326 0 0 0 .196.071zm.96.856h.074c.025 0 .074-.024.098-.024.197-.047.394-.095.567-.142l.147-.048.074.024c.074-.024.148-.024.222-.048.049 0 .123-.047.123-.07 0-.096-.025-.12-.074-.167-.025-.048-.123-.072-.197-.095h-.123a5.039 5.039 0 0 1-.27.071l-.124.024-.148.047c-.172.048-.369.095-.541.167a.305.305 0 0 0-.074.047c0 .024 0 .071.05.119a.369.369 0 0 0 .196.095zm.468.452h.074c.024 0 .049 0 .123.047h.024c.074-.024.173-.047.271-.071l.148-.024.148-.024c.172-.047.344-.07.517-.095.049-.023.123-.047.123-.071 0-.071-.025-.095-.074-.166-.025-.024-.05-.048-.099-.072a.19.19 0 0 0-.098-.047h-.197c-.172.047-.345.071-.517.119-.197.047-.394.095-.566.142-.05.024-.074.048-.074.048-.025.024-.025.071.025.119.024.023.049.047.098.07.025 0 .074.025.074.025zm.418.475h.099c.024 0 .05 0 .098.048a3.86 3.86 0 0 1 .566-.095c.148 0 .345-.024.517-.048.074 0 .124-.024.124-.048 0-.07 0-.095-.05-.166a.54.54 0 0 0-.197-.119c-.024-.024-.073-.024-.098-.024h-.025l-.369.072c-.074 0-.148 0-.222.024a4.488 4.488 0 0 0-.566.095c-.049 0-.074.023-.074.023v.024c0 .024 0 .071.025.095a.32.32 0 0 0 .172.12zm.517.523c.197-.024.394-.048.542-.048.197-.023.394-.023.541-.023.074 0 .124-.024.148-.048v-.095c-.024 0-.024-.048-.05-.071-.024-.048-.122-.095-.171-.12-.05-.023-.074-.023-.123-.023h-.074c-.173.024-.345.024-.517.048-.197.023-.37.047-.566.071-.05 0-.074.024-.074.024 0 .023 0 .047.024.119.05.07.148.142.173.142h.024c.025.024.05.024.123.024zm.222.523c.024.024.05.024.148.024.221 0 .418-.024.566 0h.541c.05 0 .123-.024.123-.048.025-.071 0-.095-.024-.166 0-.024-.025-.048-.025-.048-.024-.024-.024-.047-.05-.047-.048-.024-.073-.048-.098-.048-.049-.024-.098-.024-.147-.024-.197 0-.37.024-.591.024-.197.024-.394.024-.566.048-.05 0-.074.023-.074.023s0 .048.025.12c0 .047.049.07.073.094.025.024.05.048.074.048h.025zm1.575.642h.025c.05 0 .098-.024.123 0 .025-.072 0-.096-.025-.167-.024-.071-.098-.119-.147-.142-.05-.024-.099-.048-.148-.048l-.05-.024c-.172-.023-.344-.023-.516-.023h-.591c-.05 0-.074.023-.098.023-.025 0-.025.048 0 .12.049.07.123.118.147.142 0 .023.025.023.025.023.025 0 .05.024.123.024h.32c.098.024.197.024.295.024.173.024.345.024.517.048zm.271.641h.05c.049 0 .073 0 .098-.047 0-.072 0-.095-.025-.167a.417.417 0 0 0-.147-.142.192.192 0 0 0-.124-.048c-.197-.024-.393-.024-.59-.047-.197 0-.37-.024-.567-.024-.073 0-.098.024-.098.024s-.025.047 0 .119c.025.07.123.142.148.166h.024c.05.024.05.024.148.047.148 0 .345.024.566.048l.517.071zm.197.642h.099s.049 0 .073-.024c.025-.024.025-.047.025-.071v-.048c0-.023-.025-.023-.025-.047-.024-.071-.098-.119-.147-.166a.192.192 0 0 0-.123-.048h-.05c-.024 0-.073-.024-.123-.024-.049 0-.074-.024-.123-.024-.024-.023-.074-.023-.123-.023-.025 0-.074-.024-.123-.024h-.025c-.197-.024-.369-.024-.541-.048h-.099s-.024.048 0 .12a.5.5 0 0 0 .123.166c0 .023.025.023.025.023.025.024.025.024.099.048.196.024.369.071.566.095l.27.047c.074.024.148.024.222.048zm.222.69h.073c.025 0 .05 0 .074-.024.025-.048.025-.096 0-.167 0-.071-.074-.142-.123-.166a.192.192 0 0 0-.123-.048c-.074-.024-.148-.024-.221-.047a8.257 8.257 0 0 0-.345-.072c-.074-.023-.172-.023-.246-.047h-.025c-.024 0-.074-.024-.123-.024-.05 0-.098-.024-.148-.024h-.098c-.025.024-.05.048-.025.12 0 .023.025.023.025.047 0 .023.025.023.025.047a.28.28 0 0 0 .049.072c0 .023.024.023.024.023.025 0 .05.024.123.048.197.024.394.071.567.119.147.047.27.071.418.119l.099.023zm.147.665c.05.024.074.024.099.024 0 0 .024 0 .074-.024.024-.071.049-.095.024-.167a1.008 1.008 0 0 0-.123-.166c-.05-.024-.074-.047-.123-.071l-.074-.024a6.366 6.366 0 0 0-.492-.143 4.29 4.29 0 0 0-.27-.07c-.075-.025-.173-.048-.272-.072h-.098c-.025 0-.05.047-.025.119 0 .095.074.166.099.19l.024.024s.025.023.099.047h.024c.099.024.173.048.271.071l.05.024.221.071c.148.048.32.12.492.167zm.197.737c.025 0 .05-.024 0-.024.025-.048.025-.095.025-.167 0-.047-.05-.118-.099-.19-.049-.023-.073-.047-.123-.071a4.9 4.9 0 0 0-.541-.19c-.173-.048-.345-.119-.542-.166h-.074c0 .023-.024.047-.024.118 0 .072.074.167.098.19l.025.024a.26.26 0 0 0 .123.072c.148.047.32.118.468.166l.073.024c.148.047.32.119.493.19.024 0 .049.024.098.024zm-.049.641c.025 0 .05.024.098.024h.025c.025-.024.05-.047.05-.071v-.095c0-.072-.075-.143-.1-.19a.339.339 0 0 0-.098-.072l-.049-.023c-.098-.024-.172-.072-.246-.096a1.733 1.733 0 0 0-.246-.095c-.172-.07-.37-.118-.542-.19-.024-.024-.049-.024-.074-.024h-.024c-.025.024-.05.048-.05.12 0 .07.05.166.074.19l.025.023c.025.024.025.048.098.072h.025c.172.047.345.142.542.213l.074.024c.147.048.27.119.418.19zm.025.713c.024 0 .073.024.098.024h.05c.024-.071.049-.095.049-.166 0-.072-.074-.143-.099-.19a.189.189 0 0 0-.098-.095c-.148-.072-.32-.167-.517-.262-.173-.071-.345-.143-.542-.214-.05-.024-.05-.024-.074-.024h-.024s-.05.048-.05.12c0 .047 0 .07.025.118.025.048.05.071.05.071.024 0 .024.024.024.024 0 .024.024.048.098.095.173.095.345.167.517.262.074.023.148.071.197.095l.271.142h.025zm-.05.666c.05.024.099.047.123.047.074-.047.074-.095.099-.166 0-.047 0-.071-.025-.119-.024-.047-.024-.071-.049-.095-.025-.047-.074-.071-.098-.095l-.05-.024a4.313 4.313 0 0 0-.443-.261l-.443-.214-.074-.048c-.024-.023-.049-.023-.074-.023h-.024s-.05.023-.05.095a.254.254 0 0 0 .05.214v.023c.024.024.024.048.098.095h.025l.246.143c.074.048.148.095.246.143.123.095.271.19.443.285zm-.073.713a.192.192 0 0 0 .123.047c.073-.047.073-.07.024-.166.025-.071-.024-.166-.049-.214-.025-.024-.05-.071-.098-.095-.148-.095-.32-.214-.493-.309l-.049-.024c-.074-.047-.123-.071-.197-.118-.074-.048-.172-.096-.246-.143-.025-.024-.05-.024-.074-.024 0 0-.025.024-.05.095 0 .095.025.19.05.214.025 0 .025.024.025.024.024.024.024.047.098.095.148.095.32.19.492.309.173.119.32.214.444.309zm-.099.69c0 .023.05.047.099.047.073-.072.098-.095.147-.19 0-.024 0-.095-.049-.214-.025-.024-.05-.072-.098-.095l-.05-.024a4.719 4.719 0 0 0-.418-.31c-.148-.094-.296-.213-.468-.308-.025-.024-.05-.024-.074-.024-.024 0-.049.024-.074.095-.024.095 0 .19.025.214v.024c0 .024 0 .047.074.095l.024.024c.148.095.296.214.444.332.147.12.27.214.418.333zm-.172.665a.33.33 0 0 0 .123.071c.024-.024.05-.048.074-.024 0-.024.024-.071.024-.095a.551.551 0 0 0-.049-.214c0-.047-.05-.095-.074-.119l-.443-.356a5.387 5.387 0 0 0-.443-.333c-.025-.047-.074-.047-.074-.047-.024 0-.05.023-.074.095a.308.308 0 0 0 .025.214v.023c0 .024 0 .024.074.095.147.095.295.238.443.357.074.047.123.119.197.166.074.048.123.095.197.167zm-.222.641c.074.072.123.072.123.072.074-.024.099-.072.123-.12a.308.308 0 0 0-.024-.213.516.516 0 0 0-.074-.119l-.05-.047a2.568 2.568 0 0 0-.369-.357c-.147-.143-.295-.261-.443-.38-.024-.048-.049-.048-.074-.048 0 0-.049.024-.073.095-.025.072-.025.19 0 .214v.024c.024.024.024.048.073.095l.419.404c.123.119.246.262.37.38zm-.246.69c.05.023.099.071.123.071.074-.048.074-.071.074-.143.025-.047.025-.142 0-.214-.025-.047-.05-.095-.074-.118-.148-.167-.27-.31-.394-.428a5.357 5.357 0 0 0-.394-.404c-.024-.048-.049-.048-.073-.048l-.025.024c-.025 0-.025.024-.05.071-.024.072-.024.167 0 .214v.024c0 .024.025.047.075.119.073.071.123.142.196.214.074.071.124.142.197.214.123.142.222.261.345.404zm-.27.618c0 .023.073.07.098.07.074-.023.098-.047.147-.118.025-.071.025-.166 0-.214a.178.178 0 0 0-.049-.119l-.049-.047-.295-.357-.025-.023a2.858 2.858 0 0 0-.37-.428.356.356 0 0 0-.073-.048c-.025 0-.074 0-.099.071-.049.072-.024.19-.024.214v.024c0 .024 0 .048.049.119l.37.428c.122.166.22.285.32.428zm-.247.713c.074-.048.099-.072.123-.12.05-.07.025-.166.025-.213 0-.048-.025-.071-.05-.119l-.024-.047c-.099-.143-.197-.262-.295-.404-.099-.143-.222-.286-.345-.452-.025-.024-.05-.048-.074-.048-.025 0-.074.024-.098.072-.025.071-.025.19-.025.214v.023c0 .024 0 .048.05.12.098.142.22.308.32.45l.295.429c.024.047.073.095.098.095zm-.468.499c.05.095.099.095.099.095.074-.024.098-.048.148-.143 0-.023.024-.047.024-.095v-.095a.368.368 0 0 0-.05-.119l-.024-.047c-.098-.167-.197-.31-.27-.428-.025-.048-.074-.095-.099-.143-.025-.023-.025-.047-.05-.071-.048-.071-.073-.119-.122-.166l-.05-.072c-.024-.023-.049-.047-.073-.047-.025 0-.05.024-.099.071 0 0-.024.024-.024.048-.025 0-.025.023-.025.047v.119c0 .024 0 .048.05.119.048.071.098.142.147.238.025.023.05.07.074.095a.484.484 0 0 1 .098.142c.099.19.173.31.246.452zm-.393.594c.024.048.073.095.098.095.074-.024.098-.047.148-.047a.551.551 0 0 0 .049-.214v-.072c0-.023-.025-.047-.025-.071a5.217 5.217 0 0 0-.27-.5c-.05-.07-.099-.165-.148-.237a1.916 1.916 0 0 1-.148-.237c-.025-.048-.05-.072-.074-.072 0 0-.049.024-.098.072-.074.047-.074.166-.074.19v.023c0 .024.025.048.05.12l.073.118.074.119c.024.095.074.166.123.261.074.143.148.286.222.452zm-.468.523c.024.024.074.095.098.095.074 0 .099-.024.123-.048.05-.047.074-.118.074-.213 0-.024 0-.072-.024-.12l-.025-.047-.05-.119-.049-.119c-.049-.095-.073-.166-.123-.237-.098-.167-.172-.333-.27-.5-.025-.047-.05-.07-.05-.07s-.049 0-.098.047a.31.31 0 0 0-.074.19v.024c0 .024 0 .047.025.119.074.166.172.332.246.523.024.047.024.07.05.118.024.048.024.072.048.12l.05.118.049.119zm-.468.523c.025.071.05.119.074.119.074 0 .123-.024.148-.072.024-.023.049-.047.049-.095.024-.047.024-.071.024-.095 0-.047 0-.095-.024-.142a4.521 4.521 0 0 0-.197-.523c-.074-.19-.148-.357-.222-.523a.28.28 0 0 0-.049-.072s-.05 0-.098.048a.33.33 0 0 0-.074.095c-.025.048-.025.071-.025.095v.024c0 .024 0 .047.025.143.074.166.148.356.197.522.049.143.098.286.172.476zm-.492.475c0 .048.049.119.074.119.073 0 .098-.024.147-.071a.244.244 0 0 0 .099-.19c.024-.048 0-.096 0-.143l-.025-.048c-.074-.166-.123-.332-.172-.475a1.133 1.133 0 0 0-.099-.261c-.024-.048-.024-.095-.049-.143-.024-.024-.024-.071-.05-.119-.024-.047-.048-.071-.048-.071s-.05 0-.099.047a.334.334 0 0 0-.098.19v.024c-.025.024-.025.048 0 .12.024.047.074.213.098.26.025.096.05.167.074.262.05.143.099.333.148.5zm-.468.618c.074-.024.098-.024.172-.071a.356.356 0 0 0 .099-.19v-.143a8.59 8.59 0 0 1-.148-.547c-.05-.166-.123-.356-.172-.522-.025-.048-.05-.072-.05-.072h-.024l-.099.048c-.049.047-.098.119-.098.166v.024c0 .024-.025.047 0 .142.074.19.098.38.148.547.024.167.074.333.098.5 0 .047.05.118.074.118zm-.566.404c.024 0 .05 0 .123.024.025-.024.05-.024.074-.048.049-.047.074-.142.098-.19v-.19c-.024-.071-.024-.142-.049-.214v-.047c0-.072-.025-.143-.05-.238a3.583 3.583 0 0 0-.122-.547.34.34 0 0 1-.05-.071h-.024c-.025 0-.05 0-.099.024-.073.047-.123.119-.123.166v.143c.025.166.074.356.099.546.024.096.024.167.049.262 0 .095.025.166.025.261 0 .048.024.12.049.12zm-1.231.785h.05c.048 0 .073-.024.122-.096.05-.023.099-.118.123-.166.025-.047.025-.095.025-.143v-.047c0-.166 0-.333-.025-.5 0-.19-.024-.356-.049-.546 0-.047-.024-.071-.024-.071h-.025c-.025 0-.05 0-.099.024-.073.023-.123.118-.147.142v.024c-.025.024-.025.048-.025.119v.024c0 .19.025.356.025.57v.523a.25.25 0 0 0 .049.143zm.566-.5c0 .048.025.12.05.12.073 0 .098 0 .147-.072.025 0 .05-.048.074-.071.025-.048.05-.072.05-.095.024-.048.024-.096.024-.143-.025-.166-.05-.357-.074-.547-.025-.095-.025-.19-.05-.285-.024-.119-.024-.19-.048-.285 0-.024-.025-.048-.025-.071h-.025c-.024 0-.074 0-.098.023l-.05.048-.049.047c-.049.048-.049.072-.049.072v.166c.025.119.05.19.05.285 0 .095.024.19.024.262v.023c.025.167.05.357.05.523zm-1.87 1.094h.073c.025 0 .05 0 .099-.024a.897.897 0 0 0 .147-.166.178.178 0 0 0 .05-.12v-.07c.024-.096.024-.167.024-.262l.025-.261v-.57c0-.048 0-.072-.025-.096h-.05c-.024 0-.048.024-.073.024-.025.024-.05.024-.098.071-.025.048-.05.071-.05.071-.024 0-.024.024-.024.024 0 .024-.025.048-.025.119v.024c-.024.166-.024.356-.05.57v.143l-.024.119c0 .095-.024.166-.024.261 0 .071 0 .119.024.143zm.664-.286h.05c.024 0 .048 0 .122-.047.05-.024.099-.095.148-.166 0-.024.025-.072.025-.12v-.57c0-.166-.025-.356-.025-.546 0-.048-.025-.072-.025-.072h-.049c-.024 0-.05.024-.074.024-.074.024-.123.119-.147.143-.025 0-.025.023-.025.023 0 .024-.025.048-.025.12v.831c-.024.072-.024.167-.024.262a.24.24 0 0 0 .049.118zm-2.068.737c.05.024.074.024.099.024.024 0 .049-.024.073 0a.343.343 0 0 0 .173-.143.178.178 0 0 0 .049-.118l.025-.048v-.047c.024-.143.049-.31.073-.452a.819.819 0 0 0 .05-.238v-.023c.024-.12.049-.19.049-.286.025-.047 0-.095 0-.095s-.025-.024-.074-.024h-.05a.512.512 0 0 0-.171.12c-.025 0-.025.023-.025.023-.025 0-.025.024-.05.095v.024c-.024.095-.024.166-.049.261 0 .095-.024.19-.049.286-.049.166-.074.332-.123.499-.024.047-.024.119 0 .142zm.788-.19c.025 0 .05 0 .148.024a.343.343 0 0 0 .172-.143.178.178 0 0 0 .05-.119l.073-.57c.025-.19.025-.38.05-.547v-.023c0-.048-.025-.072-.025-.072-.025-.023-.05-.023-.074-.023h-.074c-.099.023-.148.095-.172.118-.025 0-.025.024-.025.024-.025.024-.025.024-.05.119-.024.214-.048.38-.073.547-.025.166-.074.332-.099.499 0 .047 0 .119.025.142.025.024.05.024.074.024zm-2.191.476c.05.023.074.023.123.023 0 0 .025 0 .074.048.05 0 .123-.048.197-.119a.516.516 0 0 0 .074-.119l.024-.047c0-.048.025-.072.025-.095.025-.048.025-.096.05-.143l.024-.048c0-.07.024-.118.049-.19.05-.166.099-.356.148-.546v-.095s-.025-.024-.099-.024h-.024c-.05 0-.074.024-.123.047-.074.024-.074.048-.074.048l-.025.024c-.025 0-.05.023-.074.095-.049.142-.098.332-.172.523-.05.142-.123.285-.172.427l-.025.048c0 .047-.025.119 0 .143zm.69-.12a.187.187 0 0 0 .098.024c.024 0 .049 0 .049.024.05 0 .148-.071.172-.119.05-.047.074-.07.074-.118.025-.072.05-.167.074-.262a2.57 2.57 0 0 1 .074-.285c.05-.19.098-.357.123-.547.025-.071 0-.095 0-.095s-.025-.024-.074-.024h-.05c-.073 0-.147.072-.171.095-.025 0-.025.024-.025.024 0 .024-.025.048-.05.119-.049.214-.098.38-.147.547l-.025.047a.714.714 0 0 1-.049.19l-.074.238c-.024.048-.024.119 0 .143zm-2.142.215c.073.047.098.047.172.047.074 0 .172-.071.172-.095a.189.189 0 0 0 .099-.095l.024-.048c.074-.142.148-.309.222-.451.025-.071.05-.119.074-.167.024-.023.024-.07.049-.095l.098-.261c.025-.048.025-.071.025-.095 0 0 0-.024-.025-.024-.024-.024-.024-.024-.049-.024h-.049a.374.374 0 0 0-.197.072l-.025.023c-.024.024-.024.024-.073.095v.024c-.074.19-.173.357-.247.5a8.732 8.732 0 0 0-.246.451c-.024.048-.049.119-.024.143zm.714-.048c.049.048.073.048.123.048h.073c.025 0 .05-.024.099-.048.025 0 .05-.024.074-.047a.516.516 0 0 0 .074-.12c.073-.166.147-.356.221-.522.074-.19.148-.38.197-.547v-.095s-.025-.024-.098-.024h-.025a.374.374 0 0 0-.197.072l-.025.023c-.024.024-.024.024-.073.12-.025.094-.074.166-.099.26l-.05.143-.048.12c-.05.118-.123.237-.173.38l-.049.094c-.024.048-.05.12-.024.143zm-2.093.024c.025.024.05.024.099.024a.603.603 0 0 0 .221-.072.189.189 0 0 0 .099-.095l.024-.047.123-.262a.954.954 0 0 1 .123-.214c.099-.166.197-.332.271-.475.025-.024.025-.071.025-.071s-.025-.048-.099-.048h-.024c-.074 0-.148.024-.173.048 0 .023-.024.023-.024.023-.025.024-.05.024-.099.095-.098.19-.197.333-.295.476-.074.119-.197.285-.296.428-.024.047-.073.119-.049.142.025.024.05.048.074.048zm.64.024c.05.023.099.047.172.047.074 0 .148-.047.197-.142a.189.189 0 0 0 .099-.096c.05-.07.098-.142.148-.237.049-.048.073-.12.098-.167l.05-.095c.073-.166.172-.309.245-.499.025-.024.025-.071.025-.071-.025 0-.05-.048-.123-.048h-.025a.303.303 0 0 0-.197.072l-.024.023c-.025.024-.05.048-.099.12-.074.142-.147.308-.27.498-.099.167-.197.31-.271.452-.025.071-.05.119-.025.143zm-1.994-.214h.05c.024 0 .049 0 .049.047.049 0 .073-.024.098-.024a.46.46 0 0 0 .123-.095l.05-.047c.123-.167.221-.285.32-.404.049-.095.123-.167.172-.238l.049-.071c.05-.048.074-.12.123-.167.025-.023.025-.047.025-.07 0-.025-.025-.048-.099-.072h-.074c-.073 0-.123.024-.147.024 0 .023-.025.023-.025.023-.025 0-.05.024-.098.072l-.05.047c-.098.119-.221.262-.32.38-.098.12-.221.238-.344.38-.05.048-.05.096-.05.12.05.07.074.07.148.095zm.714.119h.025c.049 0 .123-.024.147-.024.025-.024.074-.048.099-.095.123-.143.221-.286.344-.452.124-.166.222-.309.32-.475.025-.048.025-.072.025-.095 0 0-.025-.024-.098-.048h-.123c-.025 0-.074.024-.074.024 0 .024-.025.024-.025.024-.025.023-.05.023-.098.095-.123.142-.222.309-.345.451-.074.095-.172.214-.246.31l-.074.094c-.025.024-.074.095-.05.12.075.047.1.047.173.07zm-2.117-.5h.074c.074 0 .123 0 .074.024.049-.024.098-.047.123-.071l.049-.048.197-.19.197-.19c.123-.119.246-.238.394-.404.049-.024.049-.071.049-.071s-.025-.048-.098-.072c-.025-.023-.05-.023-.099-.023-.05 0-.074.023-.098.023 0 .024-.025.024-.025.024h-.025c-.024 0-.049.024-.073.048-.173.142-.296.261-.419.38-.05.047-.123.095-.197.166l-.098.095-.099.095c-.05.048-.074.096-.074.12.05.047.074.07.148.094zm.69.214h.049c.049 0 .123-.023.172 0 .05 0 .098-.023.123-.071.123-.143.27-.285.394-.428.049-.047.074-.095.123-.142.074-.096.172-.19.246-.286.05-.023.05-.047.05-.071l-.025-.024c0-.023-.025-.047-.074-.047-.025-.024-.074-.024-.099-.024-.049 0-.098.024-.123.024h-.024c-.025 0-.05 0-.123.071-.074.071-.124.143-.197.214-.074.071-.123.143-.197.214l-.37.356c-.049.024-.073.095-.073.12.049.047.073.07.147.094zm-2.044-.784c.025.024.074.024.123.024.05 0 .074 0 .123.047a.425.425 0 0 0 .123-.047l.05-.024c.147-.095.295-.214.418-.309.148-.119.295-.214.443-.357.025-.023.05-.047.05-.07 0-.025 0-.072-.074-.096a.469.469 0 0 0-.173-.047h-.074c-.049 0-.049 0-.123.047h-.024c-.123.095-.296.214-.468.333l-.443.285c-.025.024-.074.071-.074.095.025.071.05.095.123.119zm.64.285c.025.024.074.024.099.024.073 0 .123 0 .098-.024a.542.542 0 0 1 .123-.071c.123-.095.296-.214.443-.357.148-.118.296-.261.419-.38.024-.024.049-.071.049-.071s0-.048-.074-.072c-.024-.023-.074-.023-.123-.023h-.123c-.025.023-.05.023-.123.071-.123.095-.27.214-.443.357-.148.118-.296.213-.419.308-.024.024-.074.096-.074.12.05.07.074.094.148.118zm-1.895-.998a.417.417 0 0 0 .221.047h.148l.05-.023c.048-.024.073-.048.122-.072a.542.542 0 0 0 .123-.07l.222-.144c.172-.095.32-.19.492-.309.05-.023.074-.047.074-.07 0 0 0-.048-.074-.096a.783.783 0 0 0-.197-.047h-.049c-.025 0-.05 0-.123.023h-.025c-.197.12-.344.214-.492.286-.05.023-.074.047-.123.07-.05.025-.074.048-.123.072-.05 0-.074.024-.123.048-.05 0-.074.023-.123.047-.05.024-.099.072-.099.095.025.072.025.095.099.143zm.615.38c.025.024.074.024.148.024.024 0 .049 0 .074.048a.192.192 0 0 0 .123-.048c.172-.095.32-.19.492-.309l.05-.048c.147-.095.295-.19.418-.285.024-.047.049-.071.049-.071v-.024l-.074-.071c-.05-.048-.123-.048-.172-.048h-.05c-.024 0-.049 0-.123.048-.147.095-.295.19-.492.309-.172.095-.32.166-.468.261-.049.024-.098.072-.098.095.025.048.05.072.123.12zM8.283 24.7c.049.048.147.071.221.071.025 0 .074-.023.074-.071l.05-.024.147-.047c.123-.048.222-.095.345-.143l.27-.119a.926.926 0 0 0 .271-.119c.05-.023.074-.023.074-.047 0 0 0-.048-.05-.095a.334.334 0 0 0-.196-.071h-.05c-.024 0-.024 0-.098.023h-.024a2.669 2.669 0 0 1-.271.12c-.099.023-.197.07-.271.094-.148.072-.32.143-.492.19-.025.024-.099.072-.099.095.025.072.05.096.099.143zm.763.475h.123c.148-.07.32-.166.517-.261a2.58 2.58 0 0 0 .517-.261c.049-.024.074-.048.074-.072 0 0-.025-.047-.074-.095a.334.334 0 0 0-.197-.071H9.98c-.049 0-.049 0-.147.024-.197.07-.37.166-.517.237a8.85 8.85 0 0 1-.493.214c-.024.024-.098.071-.098.095.024.072.024.095.098.143.05.024.123.047.222.047zm-1.551-1.378h.172l.05-.024c.147-.047.295-.071.492-.143.172-.047.37-.095.541-.166a.306.306 0 0 0 .074-.047c0-.024 0-.072-.049-.12a.379.379 0 0 0-.197-.094h-.197c-.197.047-.394.095-.566.142-.172.048-.37.095-.517.12-.05 0-.123.047-.123.07 0 .095.025.12.074.167.024.047.123.071.197.095h.049zm.443.475h.05c.024 0 .048 0 .073.024l.148-.048.123-.047c.098-.024.172-.071.27-.095.198-.071.37-.143.542-.214.05-.024.074-.048.074-.048 0-.023 0-.07-.05-.118-.048-.072-.147-.096-.196-.096h-.05a.19.19 0 0 0-.098.024 4.9 4.9 0 0 1-.541.19c-.197.048-.345.095-.517.143-.074.024-.123.048-.123.071 0 .024.024.048.024.072l.074.07c.025.048.123.072.197.072zm-.935-.998h.024c.197-.024.394-.071.566-.119.197-.047.394-.095.567-.142.049-.024.073-.048.073-.048.025-.024.025-.071-.024-.119a.351.351 0 0 0-.099-.071c-.049-.024-.074-.048-.098-.048h-.148c-.172.048-.37.072-.566.12-.172.047-.345.07-.517.094-.05.024-.123.048-.123.072 0 .07.025.095.074.166a.33.33 0 0 0 .098.071c.05 0 .074.024.099.024h.074zm-.517-.57a.194.194 0 0 0 .098.023h.099l.517-.071h.049c.074-.024.172-.024.246-.048.025 0 .074-.023.098-.023.074-.024.123-.024.197-.048.05 0 .074-.024.074-.024 0-.023 0-.07-.05-.166a.32.32 0 0 0-.171-.119h-.247a.725.725 0 0 1-.221.048l-.295.047c-.148 0-.345.024-.517.048-.074 0-.124.024-.124.047 0 .072 0 .095.05.167a.54.54 0 0 0 .197.119zm-.419-.57c.05.023.074.023.123.023.123 0 .222-.024.345 0l.295-.024c.197-.024.394-.047.566-.071.05 0 .074-.024.074-.024 0-.024 0-.047-.024-.119-.05-.071-.148-.142-.173-.142H7.25c-.025-.024-.025-.024-.099-.024h-.024c-.197.024-.394.024-.591.047h-.542c-.074 0-.123.024-.147.048 0 .071 0 .095.049.166.024.048.123.095.172.12zm-.221-.571h.098c.172 0 .345-.024.517-.024.172 0 .345-.024.566-.048.05 0 .074-.023.074-.023 0-.024 0-.048-.025-.12 0-.023-.049-.07-.073-.094-.025-.024-.05-.048-.074-.048h-.025c-.024 0-.05-.024-.123-.024h-.025c-.221.024-.418.024-.59.024h-.542c-.05 0-.123.024-.123.048-.025.071 0 .095.025.166 0 .024.049.048.073.071.05.024.074.048.099.048a.32.32 0 0 0 .148.024zm-.345-.618c.197.023.394.023.59.023v-.047h.567c.05 0 .074-.024.098-.024.025 0 .025-.047 0-.119-.024-.071-.123-.118-.147-.142h-.025c-.025 0-.05-.024-.148-.024h-.59c-.173-.024-.345-.024-.517-.048h-.025c-.074 0-.123 0-.123.024-.025.072 0 .095.025.167.024.07.098.118.147.142.05.024.099.048.148.048zm.295-.57c.222.023.394.023.567.023h.098s.025-.047 0-.119c-.025-.071-.123-.142-.148-.166 0-.024-.024-.024-.024-.024-.025 0-.05-.024-.123-.024H6.14c-.148 0-.345-.023-.566-.047l-.517-.072h-.05c-.049 0-.098 0-.098.024-.024.072 0 .095.05.167a.417.417 0 0 0 .147.142.192.192 0 0 0 .123.048h.074c.172.024.32.047.492.047zm.345-.571c.025 0 .05 0 .05.024 0 0 .024-.048 0-.12a.5.5 0 0 0-.124-.166c0-.023-.024-.023-.024-.023-.025-.024-.05-.024-.124-.048-.196-.024-.369-.071-.566-.095l-.27-.047c-.074-.024-.148-.024-.222-.048h-.099c-.024 0-.049 0-.073.024-.025.024-.025.047-.025.071 0 .024 0 .048.05.071.024.072.098.12.147.167a.192.192 0 0 0 .123.047c.197.048.394.072.566.095h.025c.197 0 .37.024.566.048zm-.27-.57h.098c.024 0 .049-.048.024-.12a.501.501 0 0 0-.123-.166l-.024-.024c-.025-.023-.05-.023-.123-.047h-.025c-.222-.048-.394-.071-.566-.119l-.517-.143H4.54c-.025 0-.05 0-.074.024-.025.048-.025.095 0 .167a.897.897 0 0 0 .148.166.192.192 0 0 0 .123.048l.05.023c.171.024.344.072.516.095.222.048.394.072.566.095zm-.173-.619h.05c.024 0 .024 0 0 .048 0 0 .024 0 .024-.024v-.095c0-.095-.074-.166-.099-.19l-.024-.024c-.025-.024-.025-.047-.123-.071a4.853 4.853 0 0 1-.271-.071l-.05-.024-.221-.071c-.148-.048-.32-.12-.492-.167-.05-.024-.074-.024-.099-.024-.024 0-.049.024-.049.024-.025.072-.05.095-.025.167.025.047.099.142.123.166.05.024.074.047.124.071.172.048.344.12.566.167.197.047.369.07.566.118zm-.148-.594h.05c.024 0 .024-.023.073.024 0 0 .025-.047.025-.119 0-.071-.074-.166-.099-.19l-.024-.024c-.025-.023-.05-.047-.123-.071-.197-.071-.37-.119-.542-.19a4.918 4.918 0 0 0-.344-.143l-.148-.047c-.025 0-.05-.024-.099-.024H4.27c-.024.047-.024.095-.024.166.024.048.049.12.123.19a.33.33 0 0 0 .098.072l.05.024c.172.07.344.118.492.166.197.071.369.119.541.166zm-.123-.665c.025.024.05.024.074.024.025 0 .074-.048.05-.096a.347.347 0 0 0-.075-.19c-.024 0-.024-.023-.024-.023-.025-.024-.05-.024-.123-.072-.148-.071-.345-.142-.517-.237-.123-.072-.296-.143-.468-.238-.025 0-.05-.024-.098-.024H4.22c-.025.024-.05.048-.05.071v.096c0 .07.05.142.075.19.024.023.049.047.098.07.098.048.197.096.27.12l.272.119a4.9 4.9 0 0 1 .541.19zm-.05-.618c.05.024.05.024.075.024.024 0 .049-.024.049-.095 0-.048 0-.072-.025-.12a.266.266 0 0 0-.049-.07c-.024 0-.024-.024-.024-.024-.025-.024-.05-.024-.099-.072h-.025c-.147-.071-.32-.166-.517-.261l-.123-.071-.123-.072-.221-.119s-.05-.023-.099-.023h-.024c-.025.07-.05.095-.05.166 0 .071.074.143.099.19.025.048.05.071.098.095l.05.024c.172.071.32.143.467.214.173.071.345.143.542.214zm-.024-.642c.025.024.05.024.074.024.025 0 .05-.024.074-.071 0-.072-.025-.167-.05-.19-.024 0-.024-.024-.024-.024-.024-.024-.024-.048-.098-.095l-.247-.143-.123-.071-.123-.072a3.467 3.467 0 0 0-.443-.285.425.425 0 0 0-.123-.047h-.024c-.05.07-.074.095-.074.166v.095c.024.024.024.048.049.071a.19.19 0 0 0 .098.095c.197.12.37.19.517.286.05.047.123.07.173.095l.073.047a.926.926 0 0 1 .271.12zm.099-.594c.024-.024.024-.024.098-.071.025-.024.025-.024.025-.048 0-.071-.025-.166-.05-.19-.024 0-.024-.024-.024-.024-.025-.024-.025-.047-.098-.095h-.025c-.172-.119-.32-.214-.468-.309-.172-.119-.32-.214-.443-.309a.192.192 0 0 0-.123-.047h-.025c-.049.07-.073.095-.073.166-.025.071.024.166.049.214.024.024.049.071.098.095l.05.024c.147.095.27.19.443.285.049.024.073.047.123.071.049.024.073.048.123.072l.123.07.123.072c.025.024.05.024.074.024zm-.025-.666c.025.024.05.024.074.024 0 0 .05-.024.074-.071.024-.095 0-.19-.025-.214v-.024c-.024-.024-.024-.047-.098-.095-.148-.095-.296-.214-.468-.333-.148-.118-.295-.214-.418-.332-.05-.024-.099-.048-.124-.048h-.024c-.05.048-.05.071-.074.143 0 .023 0 .095.05.214l.098.095c.074.047.147.118.221.166.074.048.123.071.173.119l.073.047c.123.095.271.19.468.31zm.099-.618c.024.048.049.048.073.048 0 0 .05-.024.099-.095a.308.308 0 0 0-.025-.214v-.024c0-.024-.024-.047-.074-.095a20.09 20.09 0 0 1-.443-.356c-.024-.048-.074-.072-.098-.095l-.099-.096a1.221 1.221 0 0 1-.197-.166.33.33 0 0 0-.123-.071c-.049.024-.049.047-.073.071-.025 0-.025 0-.025.024v.047a.308.308 0 0 0 .025.214c0 .024.049.072.073.095l.05.048c.073.047.123.119.197.166.073.072.123.12.196.167.148.119.296.237.444.332zm.123-.641c.024.047.049.047.074.047 0 0 .049-.024.073-.071v-.119c-.024-.071-.024-.095-.024-.095v-.024c0-.024-.025-.047-.074-.119l-.419-.404c-.123-.119-.246-.261-.369-.38-.074-.071-.123-.071-.123-.071a.29.29 0 0 0-.098.142c-.025.048 0 .12.024.214.025.048.05.095.074.12.148.118.295.26.419.38.049.023.098.07.147.118l.074.072c.074.07.148.142.222.19zm.172-.595c.025.048.05.048.074.048 0 0 .05-.024.074-.119.024-.071.024-.19 0-.214v-.024c0-.023 0-.047-.05-.095-.073-.07-.123-.142-.196-.213l-.099-.096c-.025-.023-.074-.047-.098-.095-.123-.142-.222-.261-.345-.404-.05-.047-.099-.071-.123-.071a.303.303 0 0 0-.099.143.325.325 0 0 0 0 .214c.025.047.05.095.074.118l.05.048c.098.143.221.261.344.38l.099.095.098.095c.05.072.123.12.197.19zm.197-.594a.356.356 0 0 0 .074.048c.024 0 .049-.024.074-.071.049-.072.024-.167.024-.214v-.024c-.024-.024-.024-.048-.074-.119a2.858 2.858 0 0 1-.369-.428c-.123-.166-.221-.309-.32-.428 0-.023-.074-.07-.098-.07-.074.023-.099.047-.123.118-.025.071-.025.166 0 .214 0 .047.024.095.049.119.049.047.074.095.123.142l.074.072c.074.07.123.142.197.213.098.143.221.286.369.428zm.246-.57c.025.024.05.047.074.047.025 0 .05-.023.098-.023a.782.782 0 0 0 .025-.214v-.024c0-.024 0-.048-.05-.119v-.024c-.098-.142-.22-.309-.32-.451l-.147-.214-.148-.214c-.024-.048-.073-.095-.098-.095-.074.024-.099.047-.123.119-.05.071-.025.166-.025.214 0 .047.025.095.05.118l.024.048c.074.119.172.261.295.404.099.143.222.285.345.428zm.295-.57c.025.023.05.047.074.047.025 0 .05-.024.05-.048 0 0 .024-.023.024-.047.025 0 .025-.024.025-.048v-.118c0-.048 0-.072-.05-.143a2.077 2.077 0 0 1-.147-.238l-.074-.119-.074-.118c-.098-.19-.172-.31-.246-.452-.05-.095-.098-.095-.098-.095-.05.024-.074.047-.124.119 0 .023-.024.047-.024.095v.095c0 .024.024.071.05.119.098.166.196.309.294.475l.074.119.074.119c.05.071.123.166.172.237zm.32-.571c.025.048.05.071.074.071v-.023c.025 0 .025-.024.05-.024l.024-.024c.074-.048.074-.143.074-.19v-.024c0-.024 0-.047-.025-.119v-.024c-.098-.19-.196-.356-.27-.499a8.05 8.05 0 0 1-.222-.451c-.025-.048-.074-.095-.098-.095-.074.023-.099.023-.148.095a.551.551 0 0 0-.05.214c0 .023 0 .071.025.119l.025.047c.074.166.148.309.246.452.05.07.099.166.148.237l.074.12.074.118zm.345-.547c.025.048.05.072.074.072.025 0 .074 0 .098-.12a.31.31 0 0 0 .074-.19v-.023c0-.024 0-.048-.024-.119a4.358 4.358 0 0 1-.246-.5c-.074-.19-.148-.332-.197-.474-.025-.024-.074-.096-.099-.096-.024 0-.05.024-.074.024l-.074.072c-.049.047-.073.118-.073.213 0 .024 0 .072.024.12.074.166.148.332.246.522l.222.428.05.071zm.394-.499c.025.048.05.072.074.072 0 0 .05 0 .074-.048.024-.024.049-.048.074-.095.024-.048.024-.071.024-.095V9.44c0-.024 0-.047-.024-.119v-.024c-.099-.166-.148-.356-.222-.522-.05-.143-.098-.286-.172-.476-.025-.071-.05-.119-.074-.119a.315.315 0 0 0-.148.095.51.51 0 0 0-.074.19c0 .048 0 .096.025.143l.025.048c.073.166.123.309.196.475.05.143.148.333.222.5zm.443-.475c0 .047.025.071.05.071 0 0 .049 0 .172-.047a.334.334 0 0 0 .098-.19v-.024c0-.024 0-.048-.024-.12-.025-.047-.025-.094-.05-.142-.024-.047-.024-.095-.049-.142l-.074-.214L8.16 8.3c-.05-.142-.099-.333-.148-.499 0-.047-.05-.119-.074-.119-.074 0-.098.024-.148.072-.074.047-.098.142-.098.19-.025.047 0 .095 0 .142l.172.547c.025.024.025.071.05.119.024.047.024.095.049.142.024.095.049.167.098.262zm.419-.452c.065.048.09.072.073.072.05 0 .074-.024.099-.048.05-.048.098-.119.098-.166v-.024c0-.024.025-.048 0-.119v-.024c-.073-.19-.098-.38-.147-.546-.025-.167-.074-.333-.099-.5 0-.047-.049-.118-.074-.118a.227.227 0 0 0-.172.071.356.356 0 0 0-.098.19v.143l.024.047c.025.19.074.333.123.5.05.166.123.356.173.522zm.492-.428l.074.072c.024 0 .049-.024.074-.048.073-.047.123-.119.123-.166v-.167c-.025-.166-.074-.356-.099-.546-.024-.024-.024-.048-.024-.072 0-.047-.025-.118-.025-.166 0-.095-.025-.19-.025-.261 0-.048-.024-.12-.049-.12-.074 0-.123 0-.172.048-.05.048-.074.143-.099.19v.143c.025.19.05.357.099.547.024.19.074.38.123.546zm.541-.332h.173c.049-.048.123-.12.123-.167V7.61c-.025-.166-.05-.357-.074-.547-.025-.19-.05-.356-.05-.523 0-.047-.024-.118-.048-.118h-.025c-.05 0-.099 0-.148.047-.024 0-.049.048-.074.071-.024.048-.049.072-.049.095-.024.024-.024.072-.024.12v.07l.073.5c.025.142.05.309.074.451l.025.095c0 .024.024.048.024.072zm1.084-.69h.049c.024 0 .05-.023.098 0 .074-.023.123-.118.148-.142v-.024c0-.024.025-.047.025-.119v-.594c0-.19.024-.357.024-.523a.246.246 0 0 0-.049-.119h-.05c-.048 0-.073 0-.122.024-.05.024-.099.095-.148.166 0 .024-.025.072-.025.12v.593c0 .167 0 .333.025.547 0 .048.025.071.025.071zm-.542.31h.075c.025 0 .025-.024.05-.024a.45.45 0 0 0 .147-.167v-.024c.024-.023.024-.047.024-.142 0-.19-.024-.357-.024-.57v-.523a.246.246 0 0 0-.05-.12h-.049a.425.425 0 0 0-.123.048c-.049.024-.098.12-.123.167-.024.047-.024.095-.024.142 0 .19 0 .38.024.57.025.072.025.143.025.19v.096l.024.285c0 .048.025.071.025.071zm1.699-.904c0 .024.024.024.049.024.024 0 .05-.024.024.024a.542.542 0 0 0 .124-.072.266.266 0 0 1 .049-.07c.024 0 .024-.025.024-.025.025-.023.025-.047.05-.118 0-.096 0-.19.024-.286l.025-.142.024-.143c.025-.166.074-.333.099-.499 0-.048 0-.119-.025-.143-.024-.023-.049-.023-.074-.023-.024 0-.049 0-.098.023-.025.024-.074.048-.098.072-.05.023-.074.071-.074.071a.178.178 0 0 0-.05.119v.047c-.024.143-.024.31-.049.452v.047a3.301 3.301 0 0 0-.049.547c0 .071.025.095.025.095zm-.567.262c0 .023.025.023.05.023.024 0 .049-.023.049-.023.025-.024.05-.024.098-.072.025-.047.05-.07.05-.07.024 0 .024-.025.024-.025 0-.023.025-.023.025-.119.024-.166.024-.356.05-.57 0-.095.024-.166.024-.261s.024-.167.024-.262c0-.071 0-.119-.024-.142h-.074c-.025 0-.05 0-.099.023a.45.45 0 0 0-.147.167.178.178 0 0 0-.05.119c0 .213-.024.38-.024.546v.57c0 .048 0 .072.024.096zm1.797-.69s.025.024.074.024c0 0 .025 0 .05.071.073 0 .147-.07.172-.095l.024-.023c.025 0 .025-.024.025-.024 0-.024 0-.048.025-.071v-.048c.049-.214.098-.38.147-.547l.025-.047.074-.214.024-.071c0-.072.025-.12.05-.19.024-.048.024-.12 0-.143-.05-.024-.074-.024-.099-.024h-.074c-.049 0-.147.071-.172.119-.05.047-.074.071-.074.119l-.024.047-.074.238a.819.819 0 0 1-.05.238c-.049.19-.098.356-.123.546-.024.048 0 .072 0 .095zm-.615.214h.074c.025 0 .025 0 .074.024a.517.517 0 0 0 .172-.119c.025 0 .025-.024.025-.024.024-.023.024-.023.049-.118 0-.072.025-.12.025-.19l.024-.096c0-.095.025-.19.05-.285.049-.166.073-.333.122-.499 0-.047 0-.119-.024-.143-.05-.023-.074-.023-.099-.023-.024 0-.049.023-.098.023a.343.343 0 0 0-.172.143c-.025.048-.05.071-.05.119-.024.166-.073.356-.098.547v.047l-.074.5c-.025.047 0 .07 0 .094zm1.87-.499s.026.024.1.024c.049 0 .098 0 .098-.024a.305.305 0 0 0 .074-.047l.024-.024c.025-.024.05-.024.074-.095v-.024l.099-.261c.024-.072.049-.167.098-.262.074-.166.148-.333.222-.475.024-.048.049-.119.024-.143-.049-.047-.074-.047-.123-.047h-.05c-.024.023-.048.023-.098.047l-.073.071a.516.516 0 0 0-.074.12l-.025.047a6.331 6.331 0 0 0-.197.475c-.049.19-.123.38-.172.523v.095zm-.615.119s.025.024.099.024a.19.19 0 0 0 .123-.048.306.306 0 0 0 .074-.047c.025 0 .025-.024.025-.024a.253.253 0 0 0 .073-.119c.05-.142.099-.333.173-.523l.049-.142.05-.12c.024-.047.024-.07.048-.118.025-.048.025-.071.05-.119 0-.047.024-.119 0-.143-.05-.023-.074-.023-.123-.023h-.05c-.049 0-.123.047-.197.119a.516.516 0 0 0-.073.118c-.074.19-.124.357-.173.523-.049.19-.098.357-.148.547v.095zm1.92-.261s.025.047.124.047c.074 0 .147-.024.221 0 0-.024.025-.024.025-.024.024-.023.024-.023.074-.095V5.71c.074-.167.172-.333.27-.5.099-.166.173-.309.271-.451.025-.072.025-.119.025-.143a.367.367 0 0 0-.172-.047c-.074 0-.148.047-.197.071a.189.189 0 0 0-.099.095l-.024.048c-.099.166-.173.309-.247.451-.073.167-.172.333-.246.5-.024.023-.024.07-.024.07zm-.664.047c.025.024.05.048.123.048.098 0 .172-.048.197-.048 0-.024.025-.024.025-.024.024-.023.024-.047.073-.118.074-.167.148-.333.247-.5.073-.142.172-.309.246-.451.024-.048.049-.119.024-.143-.073-.047-.098-.047-.172-.047-.074 0-.172.071-.197.095a.33.33 0 0 0-.074.095c-.074.142-.172.309-.246.499a.83.83 0 0 0-.098.214l-.025.047c-.025.095-.074.167-.098.262-.025.024-.025.047-.025.071zm-5.046 16.4h5.735c2.511 0 4.382-.642 5.613-1.949 1.108-1.165 1.65-2.614 1.65-4.35 0-1.283-.296-2.424-.912-3.422-.615-.998-1.427-1.688-2.437-2.115-1.009-.428-2.486-.642-4.406-.642H9.809v.333h.492c.493 0 .862.142 1.108.404.172.214.27.689.27 1.473v8.081c0 .69-.048 1.165-.196 1.355-.222.333-.616.5-1.157.5h-.492v.332zm5.71-.642c1.478 0 2.708-.499 3.668-1.497.985-1.022 1.453-2.377 1.453-4.088 0-1.712-.492-3.09-1.453-4.088-.96-.999-2.215-1.498-3.741-1.498-.566 0-1.231.095-1.945.262v10.648c.812.166 1.477.261 2.019.261z"/></svg>