<svg width="32" height="32" viewBox="0 0 32 32" fill="none" xmlns="http://www.w3.org/2000/svg">
<path d="M16 32C24.8366 32 32 24.8366 32 16C32 7.16344 24.8366 0 16 0C7.16344 0 0 7.16344 0 16C0 24.8366 7.16344 32 16 32Z" fill="black"/>
<path fill-rule="evenodd" clip-rule="evenodd" d="M16 3.96387C22.6533 3.96387 28.0361 9.34668 28.0361 16C28.0361 22.5864 22.7536 27.9358 16.2006 28.0361H16V17.9057L14.462 19.4436L14.2614 23.2551L15.8662 28.0361C14.9301 28.0361 14.0274 27.9023 13.1247 27.6683L12.8906 27.6014L12.1217 25.2945L9.94848 26.3978C9.14608 25.9298 8.41054 25.3948 7.74187 24.7596L7.5747 24.5924L11.6202 22.553L11.7539 20.246L9.44698 20.3798L7.40753 24.4252C6.77229 23.7566 6.20392 23.021 5.73585 22.2521L5.60211 22.0515L6.70542 19.8783L4.3985 19.1093C4.16447 18.2066 4.03073 17.3039 3.9973 16.4012V16.1671L8.81174 17.772L12.6232 17.5713L14.1611 16.0334L12.6232 14.4955L8.81174 14.2949L3.96387 15.8662C3.96387 14.9301 4.0976 13.994 4.2982 13.1247L4.36507 12.8906L6.67199 12.1217L5.56868 9.94848C6.03675 9.14608 6.57169 8.41054 7.20693 7.74187L7.3741 7.5747L9.41355 11.6202L11.7205 11.7539L11.5867 9.44698L7.54126 7.40753C8.20994 6.77229 8.94548 6.20392 9.71445 5.73585L9.91505 5.60211L12.0882 6.70542L12.8572 4.3985C13.7599 4.16447 14.6626 4.03073 15.5653 3.9973H15.7994L14.1946 8.77831L14.3952 12.5897L15.9331 14.1277C16 14.0943 16 3.96387 16 3.96387ZM18.6747 7.03976V24.9936C22.5195 23.8234 25.3614 20.246 25.3614 16C25.3614 11.8208 22.5864 8.2768 18.8084 7.07319L18.6747 7.03976Z" fill="white"/>
</svg>
