<svg height="32" viewBox="0 0 32 32" width="32" xmlns="http://www.w3.org/2000/svg"><path d="m16 32c-8.836556 0-16-7.163444-16-16s7.163444-16 16-16 16 7.163444 16 16-7.163444 16-16 16zm-.1930535-23.0417044c.0405807-.08765542.1270411-.14335563.221794-.1428859.0947529.00046974.1806823.05702457.2204318.14507823l6.2896714 13.69437007c.14478.3151246.4543364.5162829.7945073.516293h.0835197c.2546888.0005797.4786841-.1722975.5482315-.4231191.0616878-.2218521.0410944-.4592178-.0578213-.6664674l-7.2929779-15.25201833c-.0319901-.06656265-.0780815-.12498176-.1349163-.1710015-.2615039-.21464361-.6345182-.21097627-.8919469.00876931-.1316848.11287699-.238596.25295447-.3137341.41106129l-7.19018443 15.14788283c-.05521177.1168756-.08377006.2450629-.08351964.3748879-.00007671.2875286.14013562.5560973.37369686.7157947l.05675052.0383657c.13789497.0942642.29997025.1446122.46578261.1446936h10.75154758c.3449558-.0002253.6634851-.1891873.8351964-.4954659.0954057-.1710545.1069016-.3780198.0310522-.5590433l-.0107077-.0252118c-.1153135-.2759813-.3802974-.4549588-.6735109-.4549078h-10.11658417z"/></svg>