<svg height="32" viewBox="0 0 32 32" width="32" xmlns="http://www.w3.org/2000/svg"><path d="m16 32c-8.836556 0-16-7.163444-16-16s7.163444-16 16-16 16 7.163444 16 16-7.163444 16-16 16zm9.0753001-12.9002717c-.8272451-.0461754-.3676645-1.3621748-.735329-2.8628759-.4366016-1.6623151.2068113-2.8167005 1.0570354-2.7705251.3992827.0625245.7776546.2209251 1.1029935.4617542-.1477022-.7230008-.4115836-1.4170159-.7812871-2.0548061-.758308-1.269824-2.4127982-3.11684074-4.480911-4.57136641v13.92188851c.0006639.6585819-.4537398 1.2293852-1.0933524 1.3734247-.6396126.1440394-1.2930345-.1772838-1.5722152-.7731442-2.2685541 1.412666-5.2214389.9679375-6.9780273-1.050948-1.75658852-2.0188854-1.80060156-5.0185568-.1040082-7.0885899 1.6965933-2.070033 4.635147-2.602024 6.9441613-1.2571597v-5.40252392c-.0077053-.42082134.1789684-.82151042.5055387-1.08512232-2.6885466-1.24673629-5.6987997-1.50070109-8.2724512.7849821-4.32005779 3.85564744-6.48008671 9.23508364-4.32005779 14.59143214.04595806.1154385.09191612.2308771.13787419.3232279.06315279-.1295836.14874218-.2468483.25276934-.3463156 1.12597252-1.1543855 2.36684019 1.2005608 5.00942876 2.5627357 1.6774693.8542452 2.6425886 1.985543 3.0102531 3.0475776 2.4587563.3001402 4.9864497-.0923509 7.0086044-1.269824 2.6425886-1.5237888 4.1821837-4.2943139 4.7336804-7.1110144-.3968828.3477346-.8987503.5510576-1.4246999.5771927zm-10.363543.0923509c1.3327838.7618943 2.941316.4617541 3.2400434-1.2467363.1608532-.9927715.0689371-2.539648-.8042661-3.0244899-2.8953579-1.6623151-5.3311352 2.6089111-2.4357773 4.2712262zm1.3557628-11.03592497c.6204339-.02308771 1.1949096.71571898 1.2178887 1.06203461.022979.34631564-.5285177.20778938-1.1259726.41557876-.6663919.2308771-1.1489515.02308771-1.1719305-.32322792-.0229791-.34631564.4366016-1.13129775 1.0800144-1.15438545z"/></svg>