<svg width="32" height="32" viewBox="0 0 32 32" fill="none" xmlns="http://www.w3.org/2000/svg">
<mask id="mask0" mask-type="alpha" maskUnits="userSpaceOnUse" x="0" y="0" width="32" height="32">
<path d="M0.196777 0.0834732H31.9193V31.9165H0.196777V0.0834732Z" fill="white"/>
</mask>
<g mask="url(#mask0)">
<path d="M31.9193 16C31.9193 24.7905 24.818 31.9165 16.058 31.9165C7.29807 31.9165 0.196777 24.7905 0.196777 16C0.196777 7.20951 7.29807 0.0834732 16.058 0.0834732C24.818 0.0834732 31.9193 7.20951 31.9193 16Z" fill="black"/>
</g>
<path d="M14.0725 19.7813C14.8304 19.7813 15.5467 19.6865 16.2211 19.4967C16.8956 19.3069 17.4833 19.0118 17.9844 18.6113C18.4854 18.2107 18.8805 17.6909 19.1695 17.0511C19.4586 16.4118 19.6031 15.6353 19.6031 14.7215C19.6031 13.8223 19.4745 13.1228 19.2177 12.4761C18.9606 11.8297 18.6041 11.306 18.1482 10.9055C17.692 10.5049 17.1525 10.2097 16.5295 10.02C15.9062 9.83026 15.2221 9.73543 14.4771 9.73543H12.2611V19.7813H14.0725ZM9.83301 7.33203H15.2094C16.1085 7.33203 16.9757 7.48318 17.811 7.78526C18.6459 8.08768 19.3845 8.54781 20.027 9.16622C20.6694 9.78485 21.1833 10.5612 21.5687 11.4957C21.9541 12.4305 22.1468 13.4567 22.1468 14.7215C22.1468 16.0006 21.9252 17.1074 21.4819 18.042C21.0387 18.9769 20.4669 19.7496 19.7669 20.3611C19.0666 20.9725 18.2894 21.4293 17.4352 21.7314C16.5806 22.0338 15.7424 22.1847 14.9204 22.1847H9.83301V7.33203Z" fill="white"/>
</svg>
