<svg xmlns="http://www.w3.org/2000/svg" width="32" height="32" viewBox="0 0 32 32">
  <g>
    <path d="M9.40304168,9.95682613 L9.40013174,20.7803956 L12.2177927,20.7803956 L12.1455449,13.4527088 L20.4268802,23.966314 L22.6538134,26.7963803 L22.6364623,25.2234046 L22.6070573,11.0442062 L19.8327458,11.0442062 L19.9048461,18.4297747 L9.57662057,5.30581363 L9.40435103,5.08666385 L9.40328972,9.03424658 L9.400309,9.95335334 L9.40304168,9.95682613 Z M16,32 C7.163444,32 0,24.836556 0,16 C0,7.163444 7.163444,0 16,0 C24.836556,0 32,7.163444 32,16 C32,24.836556 24.836556,32 16,32 Z"/>
    <path d="M9.40304168,9.95682613 L20.4268802,23.966314 L12.1455449,13.4527088 L12.2177927,20.7803956 L9.40013174,20.7803956 L9.40304168,9.95682613 Z M9.40328972,9.03424658 L9.40435103,5.08666385 L9.57662058,5.30581363 L9.41604298,5.10176946 L9.40328972,9.03424658 Z M19.9048461,18.4297747 L19.8327458,11.0442062 L22.6070573,11.0442062 L22.6364623,25.2234046 L22.5992904,21.853575 L19.9048461,18.4297747 Z" opacity=".398"/>
  </g>
</svg>
