<svg height="32" viewBox="0 0 32 32" width="32" xmlns="http://www.w3.org/2000/svg"><g fill="none" fill-rule="nonzero"><circle cx="16" cy="16" fill="#000" r="16"/><g fill="#fff" transform="translate(8 3)"><path d="m15.1342697 14.4666667c-.5514982-2.4265918-2.264045-5.10280902-2.264045-5.10280902 1.9737828 5.38726592 1.2132959 9.45093632.690824 11.75561802 0 0-.690824 2.577528.7953183.429588 1.8518727-2.6878277.7779027-7.082397.7779027-7.082397z"/><path d="m10.2578652 4.91123596c1.0275281 3.65730337 1.4919475 6.76310864 1.6370786 9.35224714.2554307 4.4119851-.4179775 7.3146068-.835955 8.8471911-.1335206.4992509.4237827.8707865.7488764.4934457.0058052-.0058053.0058052-.0058053.0058052-.0058053.8127341-.9288389 1.1958802-3.1058052 1.3758427-5.0157303.0174157-.2089888.0348315-.4179776.0522472-.6269663.1683521-2.2988764.0696629-4.6209738-.4702247-6.844382-.9926966-4.10430716-2.5136704-6.20000004-2.5136704-6.20000004z"/><path d="m8.417603 11.3550562c-.24962547-6.00842699-.70243446-11.34344571-.70243446-11.34344571s-.45861423 5.06797752-.7082397 10.94288391c-.04063671.9520599-.07546817 1.9215356-.10449438 2.8968165-.04063671 1.4164794-.05805244 2.838764-.05805244 4.2146067.00580525 2.4440075.09868914 4.7370787.31928839 6.5657303.08707865.7256555 1.02752809.7256555 1.11460674 0 .15093633-1.2481273.23801498-2.7807116.27284645-4.4642322.03483146-1.7125468.02322097-3.5760299-.02322098-5.4627341-.02902622-1.1146067-.06385768-2.2408239-.11029962-3.3496254z"/><path d="m1.39906367 18.5941948c-.12191011-.9926967-.1741573-2.1363296-.09288389-3.4134832.05805243-.8940075.18576779-1.8518726.40636704-2.8735955.20318352-.9346442.4818352-1.9157303.85917603-2.94906367 0 0-1.20749064 1.88670417-1.91573034 3.92434457-.13932584.3889513-.25543071.7895131-.34250936 1.1784644 0 0-.2264045 1.0217229-.26123596 2.3859551-.02322097.9462547.05224719 2.0666666.35411985 3.123221.15674157.5514981.37734083 1.0855805.67921348 1.5732209 0 0 1.48614233 2.2117978.79531836-.429588-.17415731-.6792135-.3599251-1.526779-.48183521-2.5194756z"/><path d="m3.51797753 17.4099251c-.04644195-1.0681648-.03483146-2.264045.05805243-3.5876405.02902622-.4121722.06385768-.8417603.11029963-1.2771535.04644195-.4411985.10449438-.8882023.16835206-1.358427.26123595-1.88089886.68501872-3.96498125 1.32940075-6.27546814 0 0-1.52677903 2.09569288-2.51947566 6.20000004-.05224719.2205992-.09868914.4411985-.14513108.6559925-.17996255.8940075-.29606742 1.7996254-.35411985 2.7168539-.06966293 1.1494382-.0522472 2.3104869.02902621 3.4657303.01741573.2089888.03483146.4237828.05224719.6327716.17996255 1.9099251.55730337 4.0868914 1.3758427 5.0157303 0 0 0 0 .00580524.0058053.32509364.3715355.88820225 0 .74887641-.4934457-.30187266-1.1320225-.74887641-3.0129214-.85917603-5.7007491z"/><path d="m6.05486891 17.6363296c-.02902621-1.1958802-.0406367-2.5310862-.01741573-3.9940075.01161049-.8765918.03483146-1.7996255.07546817-2.7691011.09868914-2.50205995.56891386-6.11872662.89400749-9.18389516 0 0-1.60224719 3.31479401-2.33370787 9.29419476-.09868913.8185393-.19157303 1.7009363-.26123595 2.6529963-.01741573.2322097-.03483146.4644194-.05224719.7082397 0 0-.08707865 1.265543-.05224719 2.9722846.04644194 2.194382.29026217 5.1202247 1.19588015 7.0359551.02902621.0580524.06385767.1102996.11029962.1509363 0 0 .00580525.0058052.00580525.0058052.34250936.3250937.87078651.0174158.82434456-.4876404-.11029962-1.097191-.31348314-3.2741573-.38895131-6.3857678z"/><path d="m9.37546816 17.6363296c.02902622-1.1958802.04063671-2.5310862.01741574-3.9940075-.01161049-.8765918-.03483147-1.7996255-.07546817-2.7691011-.09868914-2.50205995-.56891386-6.11872662-.89400749-9.18389516 0 0 1.60224716 3.31479401 2.33370786 9.29419476.0986891.8185393.191573 1.7009363.261236 2.6529963.0174157.2322097.0348314.4644194.0522472.7082397 0 0 .0870786 1.265543.0522471 2.9722846-.0464419 2.194382-.2902621 5.1202247-1.19588011 7.0359551-.02902622.0580524-.06385768.1102996-.11029962.1509363 0 0-.00580525.0058052-.00580525.0058052-.34250936.3250937-.87078651.0174158-.82434457-.4876404.11610487-1.097191.31348315-3.2741573.38895131-6.3857678z"/></g></g></svg>