<svg width="32" height="32" viewBox="0 0 32 32" fill="none" xmlns="http://www.w3.org/2000/svg">
<g clip-path="url(#clip0)">
<path d="M15.9999 0C24.8365 0 31.9999 7.16347 31.9999 16C31.9999 24.8365 24.8365 32 15.9999 32C7.1634 32 -6.10352e-05 24.8365 -6.10352e-05 16C-6.10352e-05 7.16347 7.1634 0 15.9999 0Z" fill="black"/>
<path d="M15.5271 5L6 10.4981V21.5019L15.5271 27L25.0542 21.5019V10.4981L15.5271 5ZM23.1605 10.763L21.3953 11.6358L18.769 8.22636L23.1605 10.763ZM23.8657 11.7255V17.1534L21.9837 12.6762L23.8657 11.7255ZM15.5271 5.94297L16.096 6.68332L20.0276 11.7878H11.0227L14.9543 6.68721L15.5271 5.94297ZM12.2813 8.22636L9.65887 11.632L7.89373 10.763L12.2813 8.22636ZM7.19235 11.7333L9.07439 12.6645L7.19235 17.1378V11.7333ZM6.86114 20.9681L7.19625 20.1888L9.92384 13.7166L14.4672 21.5877L7.5859 21.0383L6.86114 20.9681ZM14.9426 25.2738L9.95501 22.3943L14.9426 22.7839V25.2738ZM15.531 21.0733L10.8551 12.9724H20.2069L15.531 21.0733ZM16.1194 25.2738V22.8034L21.107 22.4137L16.1194 25.2738ZM23.48 21.0227L16.5987 21.5721L21.142 13.701L23.8696 20.1732L24.2009 20.9525L23.48 21.0227Z" fill="white"/>
</g>
<defs>
<clipPath id="clip0">
<rect width="32" height="32" fill="white"/>
</clipPath>
</defs>
</svg>
