<svg width="32" height="32" viewBox="0 0 32 32" fill="none" xmlns="http://www.w3.org/2000/svg">
<path fill-rule="evenodd" clip-rule="evenodd" d="M32 16C32 24.8366 24.8366 32 16 32C7.16344 32 0 24.8366 0 16C0 7.16344 7.16344 0 16 0C24.8366 0 32 7.16344 32 16ZM26 15.9981C26 16.1577 25.9983 16.2822 25.9956 16.3748C25.9769 16.8571 25.9235 17.3373 25.8359 17.8119H14.4195L16.0163 14.1954H22.1171C21.7677 13.0127 21.0826 11.9567 20.1449 11.1557C17.4692 8.86972 13.447 9.18592 11.161 11.8617C8.87495 14.5374 9.19083 18.5598 11.8667 20.8458C14.5427 23.132 18.5649 22.8158 20.8509 20.1399L23.8192 22.2379C22.315 24.1231 20.1805 25.4018 17.8083 25.8374C12.3764 26.835 7.16415 23.2403 6.16631 17.8082C5.16847 12.3761 8.76355 7.16376 14.1955 6.16623C19.6274 5.1687 24.8398 8.76345 25.8373 14.1955C25.8646 14.3409 25.8884 14.4862 25.9074 14.6331V14.6553C25.9266 14.7944 25.9427 14.9316 25.9554 15.0721C25.9649 15.1139 25.9649 15.1567 25.9649 15.1999C25.9745 15.302 25.9889 15.4106 25.9889 15.5192C26 15.6787 26 15.8385 26 15.9981Z" fill="black"/>
</svg>
