<svg width="32" height="32" viewBox="0 0 32 32" fill="none" xmlns="http://www.w3.org/2000/svg">
<rect width="32" height="32" rx="16" fill="black"/>
<path d="M15.9924 25.51C21.2447 25.51 25.5025 21.2522 25.5025 15.9999C25.5025 10.7476 21.2447 6.48978 15.9924 6.48978C10.7401 6.48978 6.4823 10.7476 6.4823 15.9999C6.4823 21.2522 10.7401 25.51 15.9924 25.51Z" fill="black"/>
<path fill-rule="evenodd" clip-rule="evenodd" d="M21.7193 10.2641C21.6448 10.1898 21.6002 10.1155 21.6002 10.0115C21.6002 9.90747 21.6448 9.83317 21.7193 9.75887C21.8683 9.62514 22.1066 9.62514 22.2704 9.75887C22.3449 9.83317 22.3896 9.90747 22.3896 10.0115C22.3896 10.1155 22.3449 10.1898 22.2704 10.2641C22.1959 10.3235 22.0917 10.3681 22.0023 10.3681C21.898 10.383 21.7938 10.3533 21.7193 10.2641Z" fill="white"/>
<path fill-rule="evenodd" clip-rule="evenodd" d="M20.7661 11.2894C20.7065 11.2151 20.6619 11.1408 20.6619 11.0368C20.6619 10.9328 20.7065 10.8585 20.7661 10.7842C20.9002 10.6505 21.1385 10.6505 21.2725 10.7842C21.3321 10.8585 21.3768 10.9328 21.3768 11.0368C21.3768 11.1408 21.3321 11.2151 21.2725 11.2894C21.1981 11.3489 21.1236 11.3934 21.0193 11.3934C20.9151 11.3934 20.8406 11.3489 20.7661 11.2894Z" fill="white"/>
<path fill-rule="evenodd" clip-rule="evenodd" d="M19.7235 12.2701C19.6639 12.2107 19.6193 12.1215 19.6193 12.0175C19.6193 11.9135 19.6639 11.8392 19.7235 11.7649C19.8576 11.6311 20.0959 11.6311 20.2299 11.7649C20.2895 11.8243 20.3342 11.9135 20.3342 12.0175C20.3342 12.1215 20.2895 12.1958 20.2299 12.2701C20.1555 12.3444 20.081 12.3741 19.9767 12.3741C19.8725 12.3741 19.7831 12.3295 19.7235 12.2701Z" fill="white"/>
<path fill-rule="evenodd" clip-rule="evenodd" d="M18.7255 13.2657C18.6511 13.2063 18.6064 13.1171 18.6064 13.0131C18.6064 12.9091 18.6511 12.8348 18.7255 12.7605C18.8745 12.6268 19.1128 12.6268 19.2766 12.7605C19.3511 12.8199 19.3958 12.9091 19.3958 13.0131C19.3958 13.1171 19.3511 13.2063 19.2766 13.2657C19.2022 13.34 19.0979 13.3697 19.0085 13.3697C18.9043 13.3697 18.8149 13.3549 18.7255 13.2657Z" fill="white"/>
<path fill-rule="evenodd" clip-rule="evenodd" d="M17.7723 14.2613C17.6978 14.2019 17.668 14.1128 17.668 14.0087C17.668 13.9047 17.7127 13.8304 17.7723 13.7561C17.9063 13.6224 18.1447 13.6224 18.2787 13.7561C18.3532 13.8156 18.383 13.9047 18.383 14.0087C18.383 14.1128 18.3383 14.2019 18.2787 14.2613C18.2191 14.3356 18.1298 14.3654 18.0255 14.3654C17.9361 14.3802 17.8319 14.3505 17.7723 14.2613Z" fill="white"/>
<path fill-rule="evenodd" clip-rule="evenodd" d="M16.6255 15.0043C16.6255 14.9003 16.6702 14.826 16.7298 14.7517C16.8638 14.618 17.1021 14.618 17.2362 14.7517C17.3106 14.826 17.3404 14.9003 17.3404 15.0043C17.3404 15.1083 17.2957 15.1826 17.2362 15.2569C17.1766 15.3164 17.0872 15.3609 16.983 15.3609C16.8787 15.3609 16.8042 15.3164 16.7298 15.2569C16.6553 15.1975 16.6255 15.1083 16.6255 15.0043Z" fill="white"/>
<path fill-rule="evenodd" clip-rule="evenodd" d="M14.7636 17.2035C14.704 17.144 14.6594 17.0549 14.6594 16.9508C14.6594 16.8468 14.704 16.7725 14.7636 16.6982C14.8977 16.5645 15.136 16.5645 15.27 16.6982C15.3445 16.7725 15.3743 16.8468 15.3743 16.9508C15.3743 17.0549 15.3296 17.1292 15.27 17.2035C15.2105 17.2778 15.1211 17.3075 15.0168 17.3075C14.9275 17.3223 14.8381 17.2926 14.7636 17.2035Z" fill="white"/>
<path fill-rule="evenodd" clip-rule="evenodd" d="M13.7359 18.1991C13.6614 18.1397 13.6167 18.0505 13.6167 17.9465C13.6167 17.8425 13.6614 17.7682 13.7359 17.6939C13.8848 17.5602 14.1231 17.5602 14.2869 17.6939C14.3614 17.7682 14.4061 17.8425 14.4061 17.9465C14.4061 18.0505 14.3614 18.1248 14.2869 18.1991C14.2125 18.2734 14.1082 18.3031 14.0188 18.3031C13.8997 18.318 13.8103 18.2734 13.7359 18.1991Z" fill="white"/>
<path fill-rule="evenodd" clip-rule="evenodd" d="M12.7677 19.2096C12.7081 19.1501 12.6635 19.061 12.6635 18.9569C12.6635 18.8529 12.7081 18.7638 12.7677 18.7043C12.9018 18.5706 13.1401 18.5706 13.2741 18.7043C13.3337 18.7638 13.3784 18.8529 13.3784 18.9569C13.3784 19.061 13.3337 19.1353 13.2741 19.2096C13.1997 19.2839 13.1252 19.3136 13.0209 19.3136C12.9167 19.3136 12.8571 19.269 12.7677 19.2096Z" fill="white"/>
<path fill-rule="evenodd" clip-rule="evenodd" d="M11.7698 20.2051C11.6954 20.1457 11.6656 20.0565 11.6656 19.9525C11.6656 19.8485 11.7103 19.7742 11.7698 19.6999C11.9039 19.5662 12.1422 19.5662 12.2763 19.6999C12.3358 19.7742 12.3805 19.8485 12.3805 19.9525C12.3805 20.0565 12.3358 20.1457 12.2763 20.2051C12.2018 20.2794 12.1273 20.3092 12.0231 20.3092C11.9337 20.3092 11.8294 20.2794 11.7698 20.2051Z" fill="white"/>
<path fill-rule="evenodd" clip-rule="evenodd" d="M10.7421 21.2007C10.6676 21.1413 10.6229 21.0521 10.6229 20.9481C10.6229 20.8441 10.6676 20.7698 10.7421 20.6955C10.891 20.5618 11.1293 20.5618 11.2634 20.6955C11.3379 20.7698 11.3825 20.8441 11.3825 20.9481C11.3825 21.0521 11.3379 21.1413 11.2634 21.2007C11.1889 21.2602 11.0847 21.3048 10.9953 21.3048C10.891 21.3048 10.8017 21.275 10.7421 21.2007Z" fill="white"/>
<path fill-rule="evenodd" clip-rule="evenodd" d="M9.75905 22.1963C9.68457 22.122 9.65479 22.0477 9.65479 21.9437C9.65479 21.8397 9.69947 21.7654 9.75905 21.6911C9.8931 21.5574 10.1314 21.5574 10.2655 21.6911C10.3399 21.7654 10.3697 21.8397 10.3697 21.9437C10.3697 22.0477 10.325 22.122 10.2655 22.1963C10.2059 22.2558 10.1165 22.3003 10.0123 22.3003C9.93778 22.3152 9.84841 22.2706 9.75905 22.1963Z" fill="white"/>
<path fill-rule="evenodd" clip-rule="evenodd" d="M10.2655 10.2641C10.325 10.1898 10.3697 10.1155 10.3697 10.0115C10.3697 9.90747 10.325 9.83317 10.2655 9.75887C10.1314 9.62514 9.8931 9.62514 9.75905 9.75887C9.68457 9.83317 9.65479 9.90747 9.65479 10.0115C9.65479 10.1155 9.69947 10.1898 9.75905 10.2641C9.81862 10.3235 9.90799 10.3681 10.0123 10.3681C10.1165 10.383 10.2059 10.3533 10.2655 10.2641Z" fill="white"/>
<path fill-rule="evenodd" clip-rule="evenodd" d="M11.2635 11.2894C11.3379 11.2151 11.3826 11.1408 11.3826 11.0368C11.3826 10.9328 11.3379 10.8585 11.2635 10.7842C11.1145 10.6505 10.8762 10.6505 10.7124 10.7842C10.6379 10.8585 10.5932 10.9328 10.5932 11.0368C10.5932 11.1408 10.6379 11.2151 10.7124 11.2894C10.7868 11.3489 10.8911 11.3934 10.9805 11.3934C11.0847 11.3786 11.189 11.3489 11.2635 11.2894Z" fill="white"/>
<path fill-rule="evenodd" clip-rule="evenodd" d="M12.2763 12.2701C12.3358 12.2107 12.3805 12.1215 12.3805 12.0175C12.3805 11.9135 12.3358 11.8392 12.2763 11.7649C12.1422 11.6311 11.9039 11.6311 11.7698 11.7649C11.7103 11.8243 11.6656 11.9135 11.6656 12.0175C11.6656 12.1215 11.7103 12.1958 11.7698 12.2701C11.8443 12.3444 11.9188 12.3741 12.0231 12.3741C12.1124 12.3741 12.2018 12.3295 12.2763 12.2701Z" fill="white"/>
<path fill-rule="evenodd" clip-rule="evenodd" d="M13.2741 13.2657C13.3337 13.2063 13.3784 13.1171 13.3784 13.0131C13.3784 12.9091 13.3337 12.8348 13.2741 12.7605C13.1401 12.6268 12.9018 12.6268 12.7677 12.7605C12.7081 12.8199 12.6635 12.9091 12.6635 13.0131C12.6635 13.1171 12.7081 13.2063 12.7677 13.2657C12.8422 13.34 12.9167 13.3697 13.0209 13.3697C13.1103 13.3697 13.1997 13.3549 13.2741 13.2657Z" fill="white"/>
<path fill-rule="evenodd" clip-rule="evenodd" d="M14.2572 14.2613C14.3316 14.2019 14.3763 14.1128 14.3763 14.0087C14.3763 13.9047 14.3316 13.8304 14.2572 13.7561C14.1231 13.6224 13.8699 13.6224 13.7359 13.7561C13.6614 13.8156 13.6167 13.9047 13.6167 14.0087C13.6167 14.1128 13.6614 14.2019 13.7359 14.2613C13.8103 14.3356 13.9146 14.3654 14.004 14.3654C14.0933 14.3802 14.1976 14.3505 14.2572 14.2613Z" fill="white"/>
<path fill-rule="evenodd" clip-rule="evenodd" d="M15.3743 15.0043C15.3743 14.9003 15.3296 14.826 15.27 14.7517C15.136 14.618 14.8977 14.618 14.7636 14.7517C14.6892 14.826 14.6594 14.9003 14.6594 15.0043C14.6594 15.1083 14.704 15.1826 14.7636 15.2569C14.8232 15.3164 14.9126 15.3609 15.0168 15.3609C15.1211 15.3609 15.1956 15.3164 15.27 15.2569C15.3445 15.1975 15.3743 15.1083 15.3743 15.0043Z" fill="white"/>
<path fill-rule="evenodd" clip-rule="evenodd" d="M16.2679 16.2674C16.3424 16.1931 16.3722 16.1188 16.3722 16.0148C16.3722 15.9108 16.3275 15.8365 16.2679 15.7622C16.1338 15.6284 15.8955 15.6284 15.7615 15.7622C15.687 15.8365 15.6572 15.9108 15.6572 16.0148C15.6572 16.1188 15.7019 16.1931 15.7615 16.2674C15.8211 16.3268 15.9104 16.3714 16.0147 16.3714C16.119 16.3714 16.2083 16.3268 16.2679 16.2674Z" fill="white"/>
<path fill-rule="evenodd" clip-rule="evenodd" d="M17.266 17.2035C17.3404 17.144 17.3851 17.0549 17.3851 16.9508C17.3851 16.8468 17.3404 16.7725 17.266 16.6982C17.117 16.5645 16.8787 16.5645 16.7446 16.6982C16.6702 16.7725 16.6255 16.8468 16.6255 16.9508C16.6255 17.0549 16.6702 17.1292 16.7446 17.2035C16.8191 17.2778 16.9234 17.3075 17.0127 17.3075C17.0872 17.3223 17.1915 17.2926 17.266 17.2035Z" fill="white"/>
<path fill-rule="evenodd" clip-rule="evenodd" d="M18.2787 18.1991C18.3383 18.1397 18.383 18.0505 18.383 17.9465C18.383 17.8425 18.3383 17.7682 18.2787 17.6939C18.1447 17.5602 17.9063 17.5602 17.7723 17.6939C17.7127 17.7682 17.668 17.8425 17.668 17.9465C17.668 18.0505 17.7127 18.1248 17.7723 18.1991C17.8468 18.2734 17.9212 18.3031 18.0255 18.3031C18.1 18.318 18.2042 18.2734 18.2787 18.1991Z" fill="white"/>
<path fill-rule="evenodd" clip-rule="evenodd" d="M19.2766 19.2096C19.3362 19.1501 19.3809 19.061 19.3809 18.9569C19.3809 18.8529 19.3362 18.7638 19.2766 18.7043C19.1426 18.5706 18.9043 18.5706 18.7702 18.7043C18.7106 18.7638 18.666 18.8529 18.666 18.9569C18.666 19.061 18.7106 19.1353 18.7702 19.2096C18.8447 19.2839 18.9192 19.3136 19.0234 19.3136C19.1277 19.3136 19.2022 19.269 19.2766 19.2096Z" fill="white"/>
<path fill-rule="evenodd" clip-rule="evenodd" d="M20.215 20.2051C20.2895 20.1457 20.3192 20.0565 20.3192 19.9525C20.3192 19.8485 20.2746 19.7742 20.215 19.6999C20.0809 19.5662 19.8426 19.5662 19.7086 19.6999C19.649 19.7742 19.6043 19.8485 19.6043 19.9525C19.6043 20.0565 19.649 20.1457 19.7086 20.2051C19.783 20.2794 19.8575 20.3092 19.9618 20.3092C20.0511 20.3092 20.1554 20.2794 20.215 20.2051Z" fill="white"/>
<path fill-rule="evenodd" clip-rule="evenodd" d="M21.2725 21.2007C21.347 21.1413 21.3768 21.0521 21.3768 20.9481C21.3768 20.8441 21.3321 20.7698 21.2725 20.6955C21.1385 20.5618 20.9002 20.5618 20.7661 20.6955C20.6917 20.7698 20.6619 20.8441 20.6619 20.9481C20.6619 21.0521 20.7065 21.1413 20.7661 21.2007C20.8257 21.2602 20.9151 21.3048 21.0193 21.3048C21.1236 21.3048 21.213 21.275 21.2725 21.2007Z" fill="white"/>
<path fill-rule="evenodd" clip-rule="evenodd" d="M22.2704 22.1963C22.3449 22.122 22.3896 22.0477 22.3896 21.9437C22.3896 21.8397 22.3449 21.7654 22.2704 21.6911C22.1215 21.5574 21.8831 21.5574 21.7491 21.6911C21.6746 21.7654 21.6299 21.8397 21.6299 21.9437C21.6299 22.0477 21.6746 22.122 21.7491 22.1963C21.8236 22.2558 21.9278 22.3003 22.0172 22.3003C22.0917 22.3152 22.181 22.2706 22.2704 22.1963Z" fill="white"/>
<path fill-rule="evenodd" clip-rule="evenodd" d="M12.6337 10.5464C13.6465 9.87775 14.7636 9.5657 15.9998 9.55084C17.2063 9.55084 18.3234 9.87775 19.366 10.5464L21.5108 8.40666C19.8277 7.12874 18.0106 6.48978 15.9998 6.48978C13.9891 6.48978 12.1422 7.12874 10.5038 8.40666L12.6337 10.5464Z" fill="white"/>
<path fill-rule="evenodd" clip-rule="evenodd" d="M10.4889 19.3285C9.80376 18.2883 9.47609 17.1887 9.47609 15.9999C9.47609 14.7963 9.80376 13.6818 10.4889 12.6714L8.359 10.5465C7.10787 12.181 6.4823 13.9939 6.4823 16.0148C6.4823 18.006 7.10787 19.8337 8.3739 21.498L10.4889 19.3285Z" fill="white"/>
<path fill-rule="evenodd" clip-rule="evenodd" d="M19.3511 21.4533C18.3383 22.1369 17.2212 22.4935 16.0147 22.5084C14.7785 22.5084 13.6465 22.1815 12.6337 21.4682L10.4889 23.5931C12.1422 24.8859 13.9891 25.5249 16.0147 25.51C18.0255 25.4951 19.8426 24.8413 21.481 23.5931L19.3511 21.4533Z" fill="white"/>
<path fill-rule="evenodd" clip-rule="evenodd" d="M21.4512 12.6416C22.1364 13.6818 22.4938 14.8111 22.4641 16.0296C22.4492 17.2184 22.1066 18.3031 21.4512 19.2987L23.596 21.4236C24.8621 19.7891 25.5174 17.9762 25.5174 15.985C25.5323 13.9641 24.8919 12.1215 23.596 10.4721L21.4512 12.6416Z" fill="white"/>
<path fill-rule="evenodd" clip-rule="evenodd" d="M23.6854 22.122C24.5046 22.122 25.1898 22.7907 25.1898 23.6228C25.1898 24.4401 24.5195 25.1236 23.6854 25.1236C22.8662 25.1236 22.1811 24.455 22.1811 23.6228C22.1811 22.7907 22.8513 22.122 23.6854 22.122Z" fill="white"/>
<path fill-rule="evenodd" clip-rule="evenodd" d="M8.34412 22.122C9.16332 22.122 9.83357 22.7907 9.83357 23.6228C9.83357 24.4401 9.16332 25.1236 8.34412 25.1236C7.52493 25.1236 6.85468 24.455 6.85468 23.6228C6.85468 22.7907 7.52493 22.122 8.34412 22.122Z" fill="white"/>
<path fill-rule="evenodd" clip-rule="evenodd" d="M23.7152 6.81671C24.5343 6.81671 25.2046 7.48539 25.2046 8.31753C25.2046 9.14966 24.5343 9.81834 23.7152 9.81834C22.896 9.81834 22.2257 9.14966 22.2257 8.31753C22.2257 7.48539 22.896 6.81671 23.7152 6.81671Z" fill="white"/>
<path fill-rule="evenodd" clip-rule="evenodd" d="M8.31428 6.81671C9.13347 6.81671 9.81862 7.48539 9.81862 8.30267C9.81862 9.11994 9.14837 9.78862 8.31428 9.78862C7.49508 9.78862 6.80994 9.11994 6.80994 8.30267C6.80994 7.48539 7.48019 6.81671 8.31428 6.81671Z" fill="white"/>
</svg>
