<svg height="32" viewBox="0 0 32 32" width="32" xmlns="http://www.w3.org/2000/svg"><g fill="#000" fill-rule="evenodd"><path d="m16 32c-8.836556 0-16-7.163444-16-16s7.163444-16 16-16 16 7.163444 16 16-7.163444 16-16 16zm-10.00001224-21.7691255 10.00001224 5.7032349 10-5.7041099-5-2.79999919-5.0041294 2.87154739-4.9958706-2.86884396zm0 9 10.00001224 5.7032349 10-5.7041099-5-2.7999992-5 2.8739187-5-2.8712153z"/><g fill-rule="nonzero" transform="translate(6 7)"><path d="m5 15.1190142 5-2.8197953v5.6348905zm0-8.99999998 5-2.81979529v5.6348905z" fill-opacity=".604"/><path d="m20 12.2299995-5 2.8863191v-5.68631829zm0-8.99999996-5 2.88631909v-5.68631832z" fill-opacity=".299"/><path d="m5 15.1163186v-5.68361486l5 2.87121526zm0-8.99999997v-5.68361489l5 2.87121527z" fill-opacity=".197"/><path d="m15 15.1163186-5 2.8177908v-5.6301904zm0-8.99999997-5 2.8177908v-5.63019042z" fill-opacity=".404"/><path d="m5 9.43270374v5.68361486l-5.00001224-2.8854441zm0-9v5.68361489l-5.00001224-2.88544409z" fill-opacity=".5"/></g></g></svg>