<svg height="32" viewBox="0 0 32 32" width="32" xmlns="http://www.w3.org/2000/svg"><path d="m16 32c-8.836556 0-16-7.163444-16-16s7.163444-16 16-16 16 7.163444 16 16-7.163444 16-16 16zm9.9999995-16.0378757c.0010764-2.3166217-1.7914053-4.1355912-4.0899616-4.1506009-2.2523468-.0147764-4.1100293 1.8489889-4.12187 4.1352023-.0116869 2.2876912 1.8255435 4.159389 4.0896541 4.1663105 2.3122423.0069993 4.121178-1.8145366 4.1221775-4.1509119zm-16.90990835 7.9569437c.92257495.0036552 1.73512355-.318936 2.28717695-1.0541764.3433033-.4572116.5479782-1.0383113.7399667-1.5904804.3514534-1.0110917.8220827-1.8978286 1.891513-2.2862135.5978784-.2171347 1.1826859-.0272974 1.771107.075515.6646938.1161888 1.196987-.2319888 1.3737517-.8788044.1574659-.5757335-.1255576-1.168421-.6696146-1.4025096-.5861914-.2522091-1.2464256-.031808-1.5373685.5625904-.2857914.5839771-.7361993.9827055-1.2669547 1.312296-.3646012.2263893-.7592655.3217357-1.1727673.185871-.6651551-.2185345-1.3177005-.4774319-1.9857773-.6860118-.4697836-.1466748-.9544833-.3267908-1.43595376-.3379897-1.67738095-.0388852-3.01084345 1.3394378-3.0161487 3.0454071-.00538213 1.697259 1.33730688 3.0541952 3.02106951 3.0545063zm-.06431652-15.83673156c-2.22336015-.00015554-3.68407171 2.33979726-2.72758935 4.36936876.76041885 1.6135004 2.67292223 2.224075 4.23366462 1.3586471.40243-.2230452.8030146-.4627333 1.2306637-.6234845 1.2289722-.4621111 2.1340936-.1920149 2.9500253.8382083.1193297.1507188.2192836.3171473.3266957.4773541.2996311.4469459.8526071.6539704 1.341305.5013073.5537448-.1730389.8577586-.6027976.8445339-1.1938518-.0190681-.8518181-.8107033-1.3795674-1.6326323-1.0797629-.9287259.3387675-2.3918979.2177569-2.9743987-1.0226794-.23543-.5013073-.5123024-.9877606-.6956795-1.5079661-.4640938-1.31680671-1.5289109-2.11706309-2.89658837-2.11714086zm9.53083917 15.90736256c.0124558-1.1217588-.8493009-2.0518138-1.9771659-2.0410037-1.1794565.0112766-2.0272197.9498864-1.997618 2.1041532.0260649 1.0197241.9058134 1.9274591 1.9592511 1.9468239 1.089498.0201425 2.0031539-.8910921 2.0155328-2.0099734zm-3.9641042-15.96952436c-.0518991.97780597.7019843 2.00834026 1.9803183 2.03260456 1.1240206.0213868 1.9778579-.89365853 1.9865462-2.03517098.0083039-1.08489567-.8931269-2.00732919-1.9714762-2.0175171-1.108643-.01049899-1.9956958.88759242-1.9953883 2.02008352z" fill-rule="evenodd"/></svg>