<svg height="32" viewBox="0 0 32 32" width="32" xmlns="http://www.w3.org/2000/svg"><path d="m16 32c-8.836556 0-16-7.163444-16-16s7.163444-16 16-16 16 7.163444 16 16-7.163444 16-16 16zm2.0726138-18.7878513 2.2069518-2.2069519-4.2795656-6.0051968-4.2506258 6.0623679 2.1638964 2.1638964 2.0867294-2.0867294zm-4.8828943.7376667-2.1997103-2.1997102-5.9900092 4.2498948 6.0558305 4.2289319 2.1563182-2.1563181-2.0726138-2.0726138zm5.5840162 4.136914 2.1818938 2.1818938 6.0443705-4.2686232-5.9784867-4.2896486-2.2253484 2.2253484 2.0643002 2.0643002zm-4.8380359.7094355-2.1394331 2.139433 4.2037333 6.0644021 4.2324937-6.0074104-2.1823091-2.1823091-2.0501846 2.0501846zm2.0643002-6.2679257-3.4717608 3.4717608 3.4717608 3.4717608 3.4717608-3.4717608z" fill-rule="evenodd"/></svg>