<svg xmlns="http://www.w3.org/2000/svg" width="32" height="32" viewBox="0 0 32 32">
  <g>
    <path d="M16,32 C7.163444,32 0,24.836556 0,16 C0,7.163444 7.163444,0 16,0 C24.836556,0 32,7.163444 32,16 C32,24.836556 24.836556,32 16,32 Z M6,22.9983554 L19.0947,22.9983554 L20.9884,19.1594567 L7.8937,19.1594567 L6,22.9983554 Z M8.5109,17.9082966 L21.6056,17.9082966 L23.4942,14.0796769 L10.3995,14.0796769 L8.5109,17.9082966 Z M11.0167,12.8285169 L24.1114,12.8285169 L26,9 L12.9053,9 L11.0167,12.8285169 Z"/>
    <path fill-opacity=".4" d="M7.8937,19.1594567 L12.2768,19.1594567 L16.6746,19.1594567 L14.7808,22.9983554 L6,22.9983554 L7.8937,19.1594567 Z M8.5109,17.9082966 L10.3995,14.0796769 L19.1804,14.0796769 L17.2917,17.9082966 L8.5109,17.9082966 Z M11.0167,12.8285169 L12.9053,9 L21.6862,9 L19.7975,12.8285169 L11.0167,12.8285169 Z"/>
    <path fill-opacity=".4" d="M7.8937,19.1609985 L12.2915,19.1609985 L10.3978,23 L6,23 L7.8937,19.1609985 Z M10.3995,14.0813216 L14.7973,14.0813216 L12.9087,17.9099413 L8.5109,17.9099413 L10.3995,14.0813216 Z M12.9053,9.00164464 L17.3031,9.00164464 L15.4145,12.8302643 L11.0167,12.8302643 L12.9053,9.00164464 Z"/>
  </g>
</svg>
