<svg height="32" viewBox="0 0 32 32" width="32" xmlns="http://www.w3.org/2000/svg"><path d="m16 32c-8.836556 0-16-7.163444-16-16s7.163444-16 16-16 16 7.163444 16 16-7.163444 16-16 16zm9.1490399-21.7047666c-.0211621-.0122558-.0412588-.023928-.0641221-.0384224l-.0016926-.0010714-.001727-.000993c-.8901995-.51653847-1.7938884-1.04282409-2.6678232-1.55177561-.5554897-.32349419-1.1298989-.65800728-1.6947969-.98650135-.5788255-.33635974-1.1668445-.67879947-1.7355057-1.00996769-.9296454-.54138108-1.890935-1.10119379-2.8375409-1.64929945l-.0959296-.0572025-.1026572.04047815c-.0975707.03712457-.1819527.07673166-.2655184.12461381l-.0100699.00596676c-1.3022629.77274327-2.6488692 1.57180126-3.970258 2.35457914-.5789029.34384215-1.1676865.69291936-1.73707807 1.030516-1.04928026.62210219-2.13414857 1.26531016-3.19407432 1.89762984-.25992505.1251104-.25323188.4025777-.25000988.5363551l.00001718.0007927c.00003437.0101043.00036946.0205657.00073891.0312449.00061863.0179961.00120288.0349992-.00022339.0494936l-.00050693.0051218-.00000859.005148c-.00309312 2.4319641-.00628934 4.9467224-.01257868 7.4234851l-.00628075 2.7514427c-.01404791.2037322.07899481.3835625.23810138.4603725 1.89190585 1.0882586 3.81134044 2.1955933 5.66758954 3.266483l3.3417707 1.928204c.0915563.0576206.185905.0880729.2729763.0880729.078969 0 .1529805-.0247207.2146023-.0715924l4.8443045-2.8282266c.6067324-.3538942 1.2231909-.7140948 1.8193465-1.0624316.7550302-.4411744 1.5356989-.8973136 2.300017-1.3426516.1884998-.0881948.3035896-.2808732.2824361-.4723844l.0157147-10.416586c.0255355-.3094614-.2354894-.4502072-.349213-.510894zm-8.7690765 15.6698518.0059542-4.4427708 1.6438292-.9553784c.4557108-.2661523.9204175-.5361547 1.3698218-.7972636.4073551-.2366844.8285777-.4814173 1.2439749-.7237897l.0016325-.0009495.0259564-.0164543c.0511653-.0311143.1278575-.0780121.1841608-.1590991l.0443691-.0618801v-.0763309c-.0080937-.9493245-.0100956-2.0057807-.0062807-3.3250443 0-.2040283.0003522-.408048.0006959-.6120763.000653-.3816113.0013318-.7756091-.0004038-1.1644763l3.8507777-2.2515763-.0059972 3.8653365-.0093395 5.8485132c-1.1333787.660333-2.2849295 1.332495-3.3991567 1.9828718-.6622366.3865502-1.3247396.7732485-1.9877238 1.1599904zm-4.1957292-12.5561527 3.821754-2.2442507 3.782815 2.2320646-3.7768694 2.2078752-1.3043594-.7486236c-.4465861-.2566665-.9006216-.5167998-1.3397155-.7683706-.3880231-.2223119-.7877485-.4513309-1.1836247-.6786949zm-.3907038.6506468 3.8451757 2.2046698-.0059628 4.3791921-3.7676674-2.1956369zm-4.52011136-2.5943035 3.76148116 2.1592091.0807475 4.9587779c-.0102159.1945861.0862465.3725697.2414007.4458955.534783.3128412 1.0797819.6297763 1.6068664.9363022.3369265.1959275.685332.3985273 1.0281096.5983484l1.6404354.9551867-.0029815 4.4506278-8.3744719-4.8301224zm17.09423896-.7466202-3.8287994 2.2388327-4.2757979-2.52157c-.076443-.0538141-.1659029-.0822367-.2590573-.0822367-.0868651 0-.1700785.0248426-.2409024.0718711l-4.3341891 2.5450625-3.77774578-2.164331 2.62579118-1.55687127c1.760749-1.04541112 3.6373869-2.15697052 5.7356983-3.39733353 1.8896977 1.10576685 3.7202653 2.16976638 5.2640492 3.06609562.5408146.31557625 1.0906508.63561233 1.6223922.94510858.4814009.2802025.9776402.5690372 1.468561.855372zm-7.9815256 9.9276688.0029728-4.3825719 3.7885116-2.2137461v4.3918486c-1.4548654.8438566-2.6661392 1.5481258-3.7914844 2.2044694zm5.1266006-.7930172c.1400237-.0362709.2558524-.1371048.2978587-.2587222.0760563-.1614509.0461304-.3582059-.0772077-.5034116l-.0018301-.0021079c-.0869939-.0970187-.2069726-.152662-.3291593-.152662-.0441715 0-.0879133.0070992-.1300399.0210971-.1568726.0468717-.2742565.1825219-.3066569.3549482-.0310171.1690465.0257588.3411157.1448525.4407562.0731264.0752421.1746666.1165739.2867836.1165739.0409666 0 .0776974-.0052437.1153991-.0164717zm2.0640422 1.4073826c.0751198.0654776.1698981.1014524.2676836.1014524.0578928 0 .1160005-.012491.1733091-.0373946.1539514-.0680298.2637399-.2135491.2751759-.3637023.0295822-.1756318-.0493009-.3541555-.2022127-.456627-.0734271-.0508263-.1573624-.0776811-.2428012-.0776811-.0783418 0-.1548363.022813-.2213641.0660089-.1310108.0796323-.2138118.2215976-.2216305.3800521-.0079391.1568779.0593363.3081984.1718399.3878916zm-13.1882809-2.3191967c-.0417228 0-.0833166.0063239-.1236474.0187801-.1597424.0461749-.28113873.1799435-.31705327.3498786-.03582862.1735412.02234778.3494692.14828067.449493.0774482.0689966.1766428.10694.2797554.10694.0340414 0 .0702911-.0043728.1022361-.0123342.1431169-.0326648.2654755-.1349011.3135133-.2615706.0751542-.1613116.0452799-.3550701-.0767608-.4953891-.0832823-.0990221-.2021611-.1557978-.326324-.1557978zm11.9551706 1.5758779c.0796735.0635873.1769865.0985865.2740846.0985865.0566041 0 .1085942-.0094858.1589004-.0289802.1490195-.0558959.2613599-.1886018.2820924-.332196.0414478-.1601182-.0111868-.3312641-.1384858-.4485436-.0831963-.0784389-.1894707-.1216348-.2993537-.1216348-.0503663 0-.099418.0091636-.145832.0272294-.1528172.0551119-.2648053.1934711-.2924887.3618818-.0275717.1717033.0356482.3457584.1610828.4436569zm-12.90467464-.7235493c-.08199341-.0719583-.17860181-.1099888-.27946324-.1099888-.05299543 0-.10502855.0106966-.15470747.0317763-.16217392.059023-.27265839.2085753-.28868246.3913497-.01586941.1850044.06907965.3599742.21651829.4463746.06770492.0424555.14672551.0658173.22275607.0658173.06162179 0 .1217314-.0139282.18916138-.0438317l.00153796-.0006969c.13937076-.0645891.2384021-.194856.2540739-.3333458.03412741-.1619997-.02867149-.3367692-.16119443-.4474547zm6.51094974-13.62750487c-.0253636 0-.0506842.00227347-.0753518.006742-.1488649.01781318-.2831836.11661749-.3512494.25868734l-.0009451.00202957c-.0688219.15185185-.0588637.31704834.0265407.44251579.0808593.12929141.2304545.20948117.3911248.20948117.0283966 0 .0571797-.00364103.0851123-.00718624l.0022683-.00027874.0022597-.00039198c.1878554-.03241213.3311527-.16460416.3661908-.33730919.0398411-.15054526.0001203-.30727505-.1066524-.42046056-.0871658-.09778517-.2107273-.15382916-.3392979-.15382916zm-7.80109199 14.32402077c-.06780803-.0384137-.14311687-.0587181-.2177899-.0587181-.07497375 0-.14883055.0204263-.21374307.0590927-.14279037.0794842-.2314254.2362924-.2314254.4097639 0 .1734193.09247565.3328494.23591042.4073773.05986902.0355305.13022888.0542931.20375917.0542931.08433044 0 .16862651-.0254349.24423607-.0738397.14118367-.0914526.22535945-.2547153.21123421-.4083006.00132316-.15916-.08720876-.3080154-.2321815-.3896686zm8.04127779-11.28556997c-.07817-.0500511-.1676298-.07650518-.2587136-.07650518-.0804039 0-.1586598.02089672-.2265365.06046026-.1356762.07187985-.2203675.20448999-.2324908.36426849-.0121921.16065827.0573258.31655184.1773989.39877117.0795447.06309953.1776309.09643503.2839826.09643503.0661842 0 .1330041-.0147558.1985868-.0438491l.0009967-.0004356c.1612546-.0735784.2626229-.21521272.2713438-.37904165.0117367-.16847167-.0682462-.32533212-.2145679-.42010342zm-.5694586-.75748231c.0838751.07937097.19094.12129508.3099563.12129508.0661927 0 .1330127-.01475575.1989305-.04399723.170173-.07621773.2778909-.23683245.2753734-.40995558.0067361-.16687764-.0832994-.32313705-.2357128-.40852704l-.0009881-.00054877c-.0724305-.03953741-.1530234-.06043413-.2330664-.06043413-.0887725 0-.1732147.02528687-.2444939.0731516-.1206488.07092169-.202015.20213814-.2179875.35189074l-.0002577.00277868c-.0117023.14626836.045022.28919185.1482462.37434665z" fill-rule="evenodd"/></svg>