<svg height="32" viewBox="0 0 32 32" width="32" xmlns="http://www.w3.org/2000/svg"><path d="m16 32c-8.836556 0-16-7.163444-16-16s7.163444-16 16-16 16 7.163444 16 16-7.163444 16-16 16zm-5.9730973-12.620773.744041-1.4785431c.0572339-.1144679.047695-.2480137-.019078-.3624815-.0667729-.1049289-.1907797-.1717018-.3147865-.1717018h-1.60254996l4.19715456-7.75519694 3.7488221 6.82037614c.0667729.1144678.1907798.1907797.3243256.1907797h1.6884008c.1335458 0 .2575527-.0667729.3147866-.1812407.0667729-.1144679.0667729-.2575527.009539-.3720205l-5.7710875-10.37841855c-.1335458-.23847469-.5151054-.23847469-.6486512 0l-7.40225436 13.34504365c-.06677292.1144679-.05723393.2575527.00953898.3720205.06677292.1144679.19077976.1812408.3147866.1812408h4.0731477c.14308482 0 .27663064-.0858509.33386458-.2098577zm16.6741503-.3434036-7.4117933-13.34504365c-.066773-.12400684-.2098578-.19077975-.3338646-.19077975-.1335458 0-.2575527.08585089-.3243256.20031874l-1.8505636 3.71066618c-.0476949.10492886-.0476949.2289357 0 .33386456l.744041 1.47854312c.1240069.2480136.5341834.2480136.6677292 0l.791736-1.58347198 4.1876155 7.72657998h-7.9078207c-.2003188 0-.3720205.1621628-.3720205.3720205v1.4785431c0 .2003187.1621628.3720205.3720205.3720205h11.1129205c.1335459 0 .2575527-.0667729.3147866-.1812408.0763119-.1144678.0763119-.2575526.009539-.3720205zm-4.8171887 1.4785431c-.0667729-.1144679-.1907798-.1907798-.3243256-.1907798h-1.8505636c-.1335458 0-.2575527.0763119-.3243256.1907798-.0667729.1144678-.0667729.2575527.009539.3720205l.772658 1.2877633h-8.3370752l3.7583612-6.4865115c.0667729-.1049289.0667729-.2384747.009539-.3529426l-.7440411-1.4785431c-.0572339-.1240068-.1812407-.2003187-.3243256-.2003187-.1335458-.009539-.2670916.0667729-.3338645.1907798l-2.9570862 5.1796702-2.96662513 4.8171888c-.06677291.1144678-.0763119.2575526-.00953899.3720205.06677292.1144678.19077975.1907797.32432558.1907797h14.82358674c.1335458 0 .2575527-.0667729.3147866-.1812407.0667729-.1144679.0667729-.2575527 0-.3720205z"/></svg>