<svg height="32" viewBox="0 0 32 32" width="32" xmlns="http://www.w3.org/2000/svg"><path d="m16 32c-8.836556 0-16-7.163444-16-16s7.163444-16 16-16 16 7.163444 16 16-7.163444 16-16 16zm.7191076-21.9217726c3.0943766-.60578655 3.2662864 1.471196 3.2662864 1.471196.1719098 2.3366054-1.805053 2.4231464-1.805053 2.4231464l-.5827742.0398088c-.9094226.0274812-1.6717946.7003297-1.8179463 1.6044691-.0877994.5452162.0628011 1.1020272.4130465 1.5271445.3502454.4251172.8659323.6770257 1.4143548.6908998l.5733192.0320201c4.1258354-.2596228 5.3292041-3.6347195 5.3292041-3.6347195 1.7190981-4.24050611-1.6331432-6.83673434-1.6331432-6.83673434-2.5055855-1.96794099-5.3910916-1.49369664-7.361178-.75636782-1.6683618.62921314-3.143286 1.68863424-4.2771161 3.0722034-4.79370503 5.81122416-.39539256 12.13650156-.39539256 12.13650156 2.24600166 3.0445103 5.70740566 4.3097389 8.28605286 4.136657 1.0501836-.0790363 1.8609094-.962177 1.8566259-2.0224618.0000001-.5379173-.2122985-1.0537903-.5901684-1.4340741-.3778698-.3802839-.8903399-.5938097-1.4246146-.5935802h-.2578647c-.3756163.0002781-.7497136-.0480026-1.113116-.1436579-5.2458278-1.3855205-4.6080424-6.5199945-4.6080424-6.5199945.6016843-4.5866699 4.7275197-5.1924565 4.7275197-5.1924565z"/></svg>