<svg width="32" height="32" viewBox="0 0 32 32" fill="none" xmlns="http://www.w3.org/2000/svg">
<path d="M16 32C24.8365 32 32 24.8365 32 16C32 7.16345 24.8365 0 16 0C7.16345 0 0 7.16345 0 16C0 24.8365 7.16345 32 16 32Z" fill="black"/>
<path d="M15.9788 3L15.8043 3.59249V20.7838L15.9788 20.9578L23.9586 16.2408L15.9788 3Z" fill="white"/>
<path d="M15.98 3L8 16.2408L15.98 20.9578V12.6136V3Z" fill="white"/>
<path d="M15.9788 22.4693L15.8805 22.5892V28.713L15.9788 29L23.9635 17.7548L15.9788 22.4693Z" fill="white"/>
<path d="M15.98 29V22.4693L8 17.7548L15.98 29Z" fill="white"/>
<path d="M15.9789 20.9575L23.9587 16.2406L15.9789 12.6134V20.9575Z" fill="white"/>
<path d="M8 16.2406L15.98 20.9575V12.6134L8 16.2406Z" fill="white"/>
</svg>
