<svg xmlns="http://www.w3.org/2000/svg" width="32" height="32"><path fill-rule="evenodd" d="M16 32C7.163 32 0 24.837 0 16S7.163 0 16 0s16 7.163 16 16-7.163 16-16 16zm2.08-19.426l.006.007c-.604-.348-1.21-.69-1.808-1.047-.176-.106-.311-.125-.497-.009-.516.322-1.052.613-1.57.93-.142.087-.241.078-.377-.003a84.036 84.036 0 0 0-1.697-.976c-.075-.042-.2-.086-.26-.053-.653.361-1.299.737-1.97 1.124.606.355 1.179.701 1.764 1.027.199.11.28.23.279.47-.012 2.067-.007 4.135-.007 6.202v.32c.116-.06.193-.097.266-.14.519-.3 1.032-.61 1.556-.901.175-.097.242-.205.24-.412-.009-2.058-.005-4.117-.005-6.176v-.315c.089.044.15.071.209.104.528.302 1.051.614 1.586.904.172.093.223.2.222.392-.007 2.297-.004 4.595-.004 6.892v.325c.645-.403 1.244-.786 1.854-1.153.158-.095.207-.203.207-.382a779.998 779.998 0 0 1-.004-4.453c.001-.892.007-1.784.01-2.677zm.006.007l-.006-.007c.601.35 1.199.708 1.807 1.046.166.091.208.198.208.375-.006 2.083-.004 4.167-.004 6.251v.329c.695-.402 1.35-.777 1.998-1.163.047-.028.065-.137.065-.208.004-2.163.005-4.327-.004-6.49 0-.087-.078-.21-.156-.255a46.874 46.874 0 0 0-1.723-.98.43.43 0 0 0-.351-.002c-.573.31-1.136.64-1.699.968-.053.03-.09.09-.135.136zM6.939 18.788a1.416 1.416 0 0 0 1.419-1.432 1.417 1.417 0 0 0-1.438-1.414 1.419 1.419 0 0 0-1.42 1.433c.006.79.644 1.417 1.44 1.413zm1.915 4.287a1.347 1.347 0 0 0 1.332-1.357c-.008-.736-.635-1.353-1.36-1.337a1.361 1.361 0 0 0-1.332 1.364c.01.742.616 1.334 1.36 1.33zM7.767 11.399a1.275 1.275 0 0 0-1.297 1.287 1.284 1.284 0 0 0 1.275 1.312 1.303 1.303 0 0 0 1.32-1.304c0-.715-.579-1.293-1.298-1.295zm17.522 4.906a1.215 1.215 0 0 0 0-2.43 1.215 1.215 0 0 0 0 2.43zM9.542 8.617a1.092 1.092 0 0 0 1.097 1.115 1.102 1.102 0 0 0 1.11-1.106 1.101 1.101 0 0 0-1.102-1.115 1.09 1.09 0 0 0-1.105 1.106zM24.636 20.91a1.088 1.088 0 0 0 1.096-1.115 1.108 1.108 0 0 0-1.111-1.107 1.107 1.107 0 0 0-1.095 1.123 1.087 1.087 0 0 0 1.11 1.099zm-8.65-14.055A.826.826 0 0 0 15.168 6a.834.834 0 0 0-.841.807.823.823 0 0 0 .807.862.818.818 0 0 0 .852-.815zm5.771 17.502c.481.004.848-.351.85-.822a.82.82 0 0 0-.82-.83.823.823 0 0 0-.848.826.814.814 0 0 0 .818.826zM17.477 26a.779.779 0 0 0 .803-.777.8.8 0 0 0-.791-.796.782.782 0 0 0-.795.785.767.767 0 0 0 .783.788zm2.628-17.723a.725.725 0 0 0 .717-.706.725.725 0 0 0-.709-.714.71.71 0 0 0-.008 1.42zm-6.538 16.282a.621.621 0 0 0-.606-.635.62.62 0 0 0-.63.612.606.606 0 0 0 .606.632.612.612 0 0 0 .63-.609zM24.23 10.58a.527.527 0 0 0-.546-.521.529.529 0 0 0-.52.55.539.539 0 0 0 .548.525c.3-.01.524-.25.518-.553z"/></svg>