<svg height="32" width="32" xmlns="http://www.w3.org/2000/svg"><path d="M7.5 11.67v8.66l4.274-2.467a4.645 4.645 0 0 1-.372-1.828c0-.67.141-1.308.396-1.884zm.57-.826l4.229 2.442A4.588 4.588 0 0 1 15.5 11.43V6.305zM24.5 20.33v-8.66l-4.298 2.481c.255.576.396 1.213.396 1.884 0 .65-.132 1.267-.372 1.828zm-.459.89l-4.304-2.485A4.589 4.589 0 0 1 16.5 20.64v5.063zm-16.082 0l7.541 4.483V20.64a4.589 4.589 0 0 1-3.237-1.905zm15.97-10.376L16.5 6.305v5.126a4.588 4.588 0 0 1 3.201 1.855zM16 32C7.163 32 0 24.837 0 16S7.163 0 16 0s16 7.163 16 16-7.163 16-16 16z" fill-rule="evenodd"/></svg>