<svg width="33" height="33" viewBox="0 0 33 33" fill="none" xmlns="http://www.w3.org/2000/svg">
<g clip-path="url(#clip0)">
<path d="M16.444 32.009C25.2805 32.009 32.444 24.8455 32.444 16.009C32.444 7.17242 25.2805 0.00897217 16.444 0.00897217C7.60741 0.00897217 0.44397 7.17242 0.44397 16.009C0.44397 24.8455 7.60741 32.009 16.444 32.009Z" fill="black"/>
<path d="M13.3793 8.36926H15.259V10.2993H13.3793V8.36926ZM8.63919 8.36926H10.6006V10.2993H8.63919V8.36926ZM10.5189 13.0335V14.9635H8.55746V13.0335H10.5189ZM10.0285 23.6487H9.21127V22.9249H9.9468V23.6487H10.0285ZM10.6006 19.7886H8.63919V17.939H10.6006V19.7886ZM14.7686 23.6487H14.0331V22.9249H14.7686V23.6487ZM14.7686 19.1453H14.0331V18.4215H14.7686V19.1453ZM15.3407 15.0439H13.3793V13.1139H15.3407V15.0439ZM19.5087 23.6487H18.7731V22.9249H19.5087V23.6487ZM19.5087 19.1453H18.7731V18.4215H19.5087V19.1453ZM19.5087 14.4006H18.7731V13.6768H19.5087V14.4006ZM20.1625 10.2993H18.2011V8.36926H20.1625V10.2993ZM24.3305 23.6487H23.595V22.9249H24.3305V23.6487ZM24.3305 19.1453H23.595V18.4215H24.3305V19.1453ZM24.3305 14.4006H23.595V13.6768H24.3305V14.4006ZM24.3305 9.73637H23.595V9.01261H24.3305V9.73637Z" fill="white"/>
</g>
<defs>
<clipPath id="clip0">
<rect width="32" height="32" fill="white" transform="translate(0.44397 0.00897217)"/>
</clipPath>
</defs>
</svg>
