<svg width="32" height="32" viewBox="0 0 32 32" fill="none" xmlns="http://www.w3.org/2000/svg">
<g clip-path="url(#clip0)">
<path d="M15.9999 0C24.8365 0 31.9999 7.16347 31.9999 16C31.9999 24.8365 24.8365 32 15.9999 32C7.1634 32 -6.10352e-05 24.8365 -6.10352e-05 16C-6.10352e-05 7.16347 7.1634 0 15.9999 0Z" fill="black"/>
<path d="M24.5109 15.7902C24.503 15.8312 24.4827 15.8688 24.4527 15.8978C24.1523 16.278 23.8515 16.6581 23.5502 17.0382C23.3924 17.2376 23.2319 17.435 23.0779 17.6373C23.0623 17.6624 23.0398 17.6824 23.0131 17.6949C22.9864 17.7075 22.9567 17.7121 22.9274 17.7081C22.8957 17.7064 22.8639 17.7064 22.8321 17.7081C19.5647 17.7081 16.2974 17.7078 13.0303 17.7072C11.7028 17.7072 10.3753 17.7072 9.04781 17.7072C8.89054 17.7072 8.92453 17.7325 8.81116 17.5929C8.43985 17.1369 8.06777 16.6815 7.69491 16.2267C7.59172 16.1007 7.48876 15.9744 7.38605 15.8478C7.37646 15.8359 7.36339 15.8254 7.36572 15.8074C7.36703 15.8037 7.36743 15.7992 7.37005 15.7969C7.37317 15.7944 7.3771 15.793 7.38112 15.793L24.409 15.7902H24.5109Z" fill="white"/>
<path d="M24.6645 10.0023C26.0478 10.0023 27.431 10.0023 28.8143 10.0023C28.8617 9.99727 28.9097 10.0005 28.9561 10.0119C28.9966 10.0264 29.0129 10.0617 28.9885 10.0957C28.9467 10.1539 28.9013 10.2093 28.8567 10.2649C28.4105 10.8187 27.9641 11.3724 27.5176 11.9261C27.5051 11.9415 27.4913 11.956 27.4798 11.9722C27.4605 12.0002 27.4341 12.0225 27.4033 12.0369C27.3725 12.0512 27.3384 12.057 27.3046 12.0537C27.2649 12.0521 27.225 12.0537 27.1854 12.0537C25.182 12.0543 23.1786 12.0548 21.1753 12.0553C20.9051 12.0526 20.6356 12.0834 20.373 12.1469C20.0391 12.2249 19.7262 12.3745 19.4559 12.5854C19.172 12.8127 18.9558 13.1134 18.8309 13.455C18.7576 13.6482 18.7077 13.8496 18.6823 14.0547C18.6724 14.1495 18.6681 14.2449 18.6695 14.3403C18.6682 14.706 18.6695 15.0717 18.6695 15.4373C18.6695 15.5597 18.6733 15.5565 18.5533 15.5565C18.0046 15.5565 17.456 15.5565 16.9075 15.5565C16.7981 15.5565 16.7966 15.5597 16.7968 15.4443C16.7968 15.0946 16.7877 14.7445 16.7999 14.3951C16.8084 14.1569 16.8049 13.9183 16.8193 13.6806C16.8394 13.2079 16.9235 12.7403 17.0696 12.2903C17.1766 11.9777 17.3374 11.6863 17.5448 11.4291C17.9138 10.9624 18.3896 10.5914 18.9322 10.3473C19.2495 10.1998 19.5871 10.1007 19.9338 10.0533C20.1937 10.0193 20.4555 10.0017 20.7176 10.0005C22.0332 10.0035 23.3488 10.004 24.6645 10.0023Z" fill="white"/>
<path d="M7.32733 10.0025C8.67081 10.0025 10.0142 10.0025 11.3576 10.0025C11.5565 10.0025 11.7535 10.026 11.9512 10.0434C12.2399 10.0717 12.5236 10.1377 12.7951 10.2397C13.352 10.4373 13.8524 10.7674 14.2533 11.2016C14.4954 11.4497 14.6921 11.7383 14.8347 12.0543C14.9408 12.307 15.0204 12.5701 15.0722 12.8392C15.1318 13.1592 15.1669 13.4834 15.1771 13.8088C15.1997 14.3531 15.1894 14.8974 15.1934 15.4417C15.1934 15.4617 15.1934 15.4816 15.1927 15.5013C15.1902 15.5465 15.1822 15.5541 15.1346 15.5563C15.1107 15.5574 15.0869 15.5563 15.0631 15.5563H13.4653C13.3199 15.5563 13.3323 15.5667 13.3321 15.4195C13.3321 15.0499 13.3378 14.6801 13.3304 14.3105C13.3275 13.875 13.2056 13.4485 12.9781 13.0771C12.7988 12.7886 12.5473 12.5519 12.2486 12.3903C11.9727 12.2397 11.672 12.1397 11.3608 12.0951C11.1763 12.0677 10.9898 12.0543 10.8032 12.055C9.08225 12.055 7.36122 12.055 5.64013 12.055C5.33418 12.055 5.02795 12.0518 4.72214 12.055C4.67874 12.0577 4.63535 12.0496 4.59589 12.0313C4.55642 12.0131 4.52215 11.9852 4.49614 11.9504C4.01892 11.3551 3.54058 10.7609 3.06113 10.1676C3.0466 10.149 3.02943 10.1315 3.01649 10.1118C2.98103 10.0571 3.00431 10.011 3.07146 10.0039C3.10318 10.0015 3.13501 10.0008 3.16681 10.0017C3.5166 10.0017 3.86635 10.0013 4.21606 10.0004C5.25354 10.0004 6.2909 10.0004 7.32818 10.0004L7.32733 10.0025Z" fill="white"/>
<path d="M16.7965 21.5201C16.7965 20.3797 16.7965 19.2393 16.7965 18.0989C16.7965 18.0594 16.7978 18.0197 16.8001 17.98C16.8005 17.972 16.8039 17.9643 16.8096 17.9587C16.8154 17.953 16.823 17.9497 16.8311 17.9493C16.8547 17.9469 16.8785 17.9458 16.9023 17.946C17.4427 17.946 17.9831 17.946 18.5235 17.946C18.6278 17.946 18.6288 17.9472 18.6284 18.0515C18.6252 18.8065 18.6284 19.5615 18.6159 20.3163C18.6022 21.1068 18.6085 21.8974 18.6022 22.6879C18.6022 22.7237 18.6005 22.7594 18.6022 22.7952C18.6055 22.8633 18.5817 22.93 18.536 22.9806C18.3985 23.1454 18.2621 23.3109 18.1268 23.4771C18.0137 23.6155 17.902 23.7549 17.7896 23.8938C17.6198 24.1039 17.4396 24.3053 17.2761 24.5204C17.1488 24.688 17.0181 24.8531 16.8888 25.0193C16.8717 25.0411 16.8543 25.0629 16.8357 25.0831C16.8328 25.0854 16.8293 25.0871 16.8256 25.0879C16.8219 25.0887 16.8181 25.0886 16.8145 25.0877C16.8109 25.0864 16.8078 25.0842 16.8053 25.0814C16.8027 25.0786 16.8009 25.0752 16.7999 25.0716C16.7976 25.032 16.7962 24.9924 16.7962 24.9527C16.7963 23.8085 16.7964 22.6643 16.7965 21.5201Z" fill="white"/>
<path d="M15.213 21.5497V24.9714C15.213 25.0072 15.213 25.043 15.2119 25.0787C15.2114 25.0822 15.2102 25.0855 15.2082 25.0884C15.2062 25.0913 15.2035 25.0937 15.2004 25.0953C15.1968 25.0962 15.193 25.0963 15.1894 25.0955C15.1857 25.0948 15.1823 25.0932 15.1793 25.0909C15.1679 25.08 15.1574 25.0679 15.1482 25.055C14.9537 24.7887 14.7452 24.5331 14.5398 24.2751C14.4434 24.1539 14.3363 24.0408 14.242 23.9183C13.9966 23.6005 13.732 23.2988 13.4795 22.987C13.4296 22.9248 13.4038 22.8467 13.4068 22.767C13.406 21.9483 13.404 21.1295 13.4007 20.3106C13.4007 20.1516 13.4038 19.9926 13.3982 19.8338C13.3783 19.2538 13.3879 18.6736 13.3817 18.0935C13.3799 17.9315 13.3663 17.9454 13.527 17.9454C14.0438 17.9454 14.5604 17.9454 15.077 17.9454C15.1088 17.9454 15.1406 17.9454 15.1723 17.9473C15.1773 17.9472 15.1823 17.9481 15.1869 17.9499C15.1916 17.9517 15.1958 17.9544 15.1994 17.9579C15.203 17.9613 15.2059 17.9655 15.2079 17.97C15.2099 17.9746 15.2109 17.9795 15.211 17.9845C15.213 18.0242 15.2133 18.0639 15.2133 18.1036C15.2131 19.2525 15.213 20.4012 15.213 21.5497Z" fill="white"/>
</g>
<defs>
<clipPath id="clip0">
<rect width="32" height="32" fill="white"/>
</clipPath>
</defs>
</svg>
