<svg height="32" width="32" xmlns="http://www.w3.org/2000/svg"><path d="M16 32C7.163 32 0 24.837 0 16S7.163 0 16 0s16 7.163 16 16-7.163 16-16 16zm6.2-24.86c-.01.101-.015.185-.026.267-.051.369-.12.733-.264 1.078-.155.374-.371.7-.662.972a3.03 3.03 0 0 1-1.177.672c-.48.152-.976.22-1.473.277-.61.069-1.221.131-1.83.205-.542.066-1.079.166-1.61.3-.658.165-1.298.385-1.898.72-.595.33-1.114.757-1.516 1.33-.304.433-.501.916-.647 1.43a4.713 4.713 0 0 0 .025 2.718c.177.577.444 1.106.768 1.606.3.465.642.895 1.012 1.302.612.672 1.282 1.275 1.975 1.852.415.345.83.691 1.205 1.086.27.284.513.59.694.946.266.524.366 1.08.303 1.672-.035.33-.117.648-.226.958-.05.144-.11.285-.165.428-.005.012-.003.026-.004.04.012 0 .025.002.037 0 .063-.004.126-.007.188-.015.178-.02.356-.037.533-.065.242-.038.483-.084.724-.129.171-.031.173-.034.216-.207.105-.424.148-.854.114-1.292a4.332 4.332 0 0 0-.15-.857 5.598 5.598 0 0 0-.644-1.438 8.04 8.04 0 0 0-.542-.747c-.362-.455-.786-.844-1.21-1.233-.33-.304-.669-.598-1.001-.9-.48-.437-.936-.899-1.336-1.419-.654-.85-1.033-1.808-1.042-2.915-.005-.578.109-1.123.39-1.623.422-.75 1.043-1.256 1.79-1.603.677-.315 1.393-.481 2.122-.587.495-.072.992-.127 1.488-.195.377-.052.756-.103 1.13-.172.551-.102 1.091-.246 1.598-.503.159-.08.318-.16.473-.25.356-.205.681-.456.971-.755.214-.22.399-.467.558-.735.182-.306.317-.634.408-.982.004-.016-.006-.044-.018-.056-.147-.153-.292-.31-.446-.455-.192-.181-.39-.356-.589-.53-.075-.067-.156-.125-.245-.196zm-7.06 12.826c.014.016.02.025.028.031.425.382.85.765 1.277 1.145.016.015.05.021.07.015.266-.074.532-.146.795-.23a6.87 6.87 0 0 0 1.735-.824c.461-.309.87-.68 1.202-1.139.535-.738.806-1.583.902-2.496a3.837 3.837 0 0 0-.037-.975 4.785 4.785 0 0 0-.408-1.317c-.22-.47-.49-.906-.81-1.304-.246-.307-.508-.599-.764-.897-.014-.015-.038-.034-.055-.032-.144.019-.288.043-.432.065l-.822.125-.38.058c.014.02.022.03.032.04l.215.21c.397.396.767.817 1.08 1.289.413.622.672 1.308.733 2.066a3.11 3.11 0 0 1-.1 1.082c-.153.556-.447 1.025-.808 1.45a4.1 4.1 0 0 1-1.27 1.001c-.492.252-1.017.394-1.55.512-.206.045-.414.082-.632.125zm2.116-9.698c-.023-.023-.035-.036-.05-.048a15.428 15.428 0 0 1-1.128-1.008 4.566 4.566 0 0 1-.865-1.17 2.868 2.868 0 0 1-.271-1.72c.062-.437.206-.846.391-1.24L15.37 5l-.18.018c-.223.026-.446.044-.667.08-.267.043-.532.103-.8.15-.047.007-.059.028-.07.068a3.968 3.968 0 0 0-.098 1.86c.129.725.433 1.37.824 1.974.115.176.246.342.377.507.238.3.502.576.781.835.021.02.06.03.088.028.087-.009.173-.025.259-.039l.73-.114.643-.099zm-3.174 11.288c-.025-.026-.04-.04-.055-.054a895.37 895.37 0 0 0-.641-.59c-.193-.175-.386-.351-.578-.528-.031-.03-.06-.041-.104-.03-.07.02-.144.028-.216.043-.62.134-1.225.313-1.791.622a5.145 5.145 0 0 0-1.11.784 3.884 3.884 0 0 0-1.079 1.791c-.017.063-.008.109.04.154.139.134.272.275.413.407.195.182.395.358.594.536.048.042.1.078.158.122.008-.032.014-.05.017-.068.075-.4.193-.785.348-1.159.425-1.023 1.206-1.555 2.209-1.777.274-.061.552-.103.83-.146.179-.028.36-.043.54-.062.136-.015.273-.03.425-.045zm4.327-4.378c.176-.006.31-.151.338-.373a.343.343 0 0 0-.247-.371c-.35-.11-.702-.218-1.053-.327l-2.64-.824c-.374-.116-.747-.236-1.121-.35a.346.346 0 0 0-.162-.015c-.197.039-.267.186-.285.395-.013.142.074.281.244.334.442.139.884.276 1.327.414l3.451 1.08c.049.014.099.025.148.037zm-7.29 6.496c-.03.005-.056.006-.08.013-.176.045-.25.196-.265.395-.011.15.091.28.245.329l.827.257c1.324.414 2.648.828 3.973 1.24.05.016.105.027.156.022.171-.015.285-.16.304-.378.015-.162-.083-.3-.248-.352l-4.805-1.5c-.037-.011-.075-.018-.106-.026zM21.249 7.91c0-.203-.09-.321-.25-.37-1.605-.502-3.21-1.004-4.816-1.504a.332.332 0 0 0-.132-.018c-.236.027-.319.268-.3.448.015.16.12.243.261.287.83.257 1.659.516 2.488.775l2.317.724c.141.044.285-.003.354-.129.043-.077.063-.169.078-.213zm-6.915 6.463c0 .16.086.28.243.329l.718.224 2.382.744c.094.03.187.067.282.078.186.021.323-.119.36-.35a.34.34 0 0 0-.244-.384l-1.832-.571c-.485-.152-.97-.305-1.456-.453a.406.406 0 0 0-.191-.012c-.162.032-.251.188-.262.395zm-.332 1.89c-.05.023-.117.037-.166.076-.13.103-.171.252-.146.413.022.145.122.224.254.265.712.22 1.424.443 2.136.665.384.12.767.24 1.151.358.05.015.106.022.156.013.16-.027.234-.146.271-.301.048-.196-.042-.369-.226-.428l-.252-.077c-1.006-.315-2.013-.63-3.02-.943-.046-.015-.094-.024-.158-.04zm-2.783 9.187c0 .147.088.272.225.318.092.03.184.057.275.086l3.107.97a.18.18 0 0 0 .09-.002c.158-.036.239-.148.277-.307.045-.19-.042-.365-.22-.421a1759.84 1759.84 0 0 0-3.324-1.037.32.32 0 0 0-.127-.013c-.195.021-.289.19-.303.406zm.997-2.72c-.033.005-.056.005-.078.01-.172.046-.252.18-.268.386-.013.158.08.285.234.335.21.068.422.132.633.198.885.276 1.77.554 2.654.829a.416.416 0 0 0 .168.02c.168-.02.278-.167.295-.381a.336.336 0 0 0-.248-.346 6633.9 6633.9 0 0 0-3.281-1.024c-.04-.012-.08-.02-.11-.027zm7.622-13.562c.053-.018.105-.028.151-.052.127-.066.164-.193.181-.325a.33.33 0 0 0-.226-.36c-.195-.06-.39-.123-.584-.183-.91-.284-1.821-.569-2.733-.85a.36.36 0 0 0-.18-.006c-.134.031-.206.131-.241.27-.056.219.027.383.232.448l3.082.964c.105.033.21.062.318.094zm.983-2.7c0-.18-.09-.301-.245-.35l-1.425-.444c-.621-.194-1.242-.39-1.864-.581a.382.382 0 0 0-.186-.012c-.141.03-.21.14-.245.281-.053.207.03.375.225.436l.923.29 2.365.739a.322.322 0 0 0 .245-.007c.152-.074.188-.219.207-.352z" fill-rule="evenodd"/></svg>