<svg height="32" viewBox="0 0 32 32" width="32" xmlns="http://www.w3.org/2000/svg"><path d="m16 32c-8.836556 0-16-7.163444-16-16s7.163444-16 16-16 16 7.163444 16 16-7.163444 16-16 16zm1.8930305-14.8697241c1.7981082-4.1128553.80164-7.73935076-1.9137293-11.1302759-2.7363008 3.41713576-3.7222701 7.0697768-1.8687435 11.1966154-2.2399271-2.3508906-5.001412-2.9027443-8.1105577-2.3984339.52973092 2.0217295 3.25054903 4.8388177 4.8616699 5.0341941-1.53310982-.9674513-2.77344565-2.1144747-3.13353243-3.9646319.19622371-.0395435.33443749-.0736239.4747112-.0946314 1.18325619-.1773606 2.25986183.1551825 3.28669723.6844028 1.2566158.6476558 2.3257128 1.5392069 3.3316168 2.5084794.1380808.1330693.2700484.2721871.4475335.451629-2.4178109.0908592-4.2100052 1.0382136-5.2646827 3.187549 1.270703.4192398 3.2197832.1340449 3.8963663-.5626502-.9413821.3503638-1.8557859.5664875-2.7924501.0926152.4038766-1.0803586 3.0145224-2.4810981 4.2250227-2.2865022-.5469412.9856622-.8657632 2.0156158-.7262205 3.1496314.1389448 1.1301783.646814 2.0867032 1.3729015 3.0017333 1.5608855-1.9659262 1.8814352-3.9970863.6046853-6.2339639.9457677.1940106 1.8006997.3897122 2.5663908.8088869.4945794.2707563.942113.6324368 1.3799451.9894995.1594774.1301425.2298468.3650625.3486575.5651217-.9688255.4598239-1.853593.2613257-2.7396231-.0106013 1.1764784.7560754 2.4444569.820919 3.8307146.5135459-1.0674357-2.1814646-2.8684012-3.1260223-5.2332523-3.2151904.0373443-.068811.0467136-.1015906.0679772-.1229233 1.2071778-1.2056232 2.4930976-2.3134932 4.0743165-3.0343177.9393886-.4282801 1.9211716-.6483062 2.9683404-.4796607.2857969.0460474.3959692.1331343.3110475.4444097-.2688524.9851419-.8074875 1.8048253-1.5663343 2.4820087-.4551088.4060369-.9583266.7602379-1.5103843 1.1930057 2.5002076-.9604922 3.9147061-2.7978368 4.9178857-5.0976069-3.1121359-.4984569-5.8576066.0269911-8.1069695 2.328062zm-1.9127326 3.1666065c-1.1449816 1.3068885-1.1732224 3.0998117.0129575 4.293858 1.1208607-1.0804887 1.1221897-3.0931777-.0129575-4.293858zm.0006645-12.19203344c-2.7049368 3.12862384-2.6026055 6.82614164-.0017277 9.89876724 2.6481894-3.1355831 2.6545021-6.8155404.0017277-9.89876724z" fill-rule="evenodd"/></svg>