<svg width="33" height="33" viewBox="0 0 33 33" fill="none" xmlns="http://www.w3.org/2000/svg">
<g clip-path="url(#clip0)">
<path d="M16.5556 32.1869C25.3922 32.1869 32.5556 25.0234 32.5556 16.1869C32.5556 7.35033 25.3922 0.18689 16.5556 0.18689C7.71905 0.18689 0.555603 7.35033 0.555603 16.1869C0.555603 25.0234 7.71905 32.1869 16.5556 32.1869Z" fill="black"/>
<path fill-rule="evenodd" clip-rule="evenodd" d="M17.7556 13.0869L21.3556 10.9869V15.1869L17.7556 13.0869ZM21.3556 22.0869L16.5556 24.8869L11.7556 22.0869V17.1869L16.5556 19.9869L21.3556 17.1869V22.0869ZM11.7556 10.9869L15.3556 13.0869L11.7556 15.1869V10.9869ZM17.1556 14.0869L20.7556 16.1869L17.1556 18.2869V14.0869ZM15.9556 18.2869L12.3556 16.1869L15.9556 14.0869V18.2869ZM20.7556 9.98689L16.5556 12.3869L12.3556 9.98689L16.5556 7.48689L20.7556 9.98689ZM10.5556 9.58689V22.6869L16.5556 26.0869L22.5556 22.6869V9.58689L16.5556 6.18689L10.5556 9.58689Z" fill="white"/>
</g>
<defs>
<clipPath id="clip0">
<rect width="32" height="32" fill="white" transform="translate(0.555603 0.18689)"/>
</clipPath>
</defs>
</svg>
