<svg height="32" viewBox="0 0 32 32" width="32" xmlns="http://www.w3.org/2000/svg"><path d="m16 32c-8.836556 0-16-7.163444-16-16s7.163444-16 16-16 16 7.163444 16 16-7.163444 16-16 16zm5.0016811-22.14489366.8103067-3.24148857-2.5955144-.64544711-.6435642 2.57446483c-.2096248-.07053634-.4238254-.13318973-.6423374-.18752883-.2185119-.0543391-.4371307-.09931834-.6554198-.13519472l.6435642-2.57446483-2.5955144-.64544711-.8103067 3.24148858c-2.9825074.54130722-5.50866153 2.73682562-6.27993531 5.82217012s.42575996 6.2067374 2.80436501 8.081235l-.8103066 3.2414885 2.5955144.6454471.6435642-2.5744648c.2096248.0705364.4238254.1331897.6423373.1875288.218512.0543391.4371308.0993184.6554199.1351948l-.6435642 2.5744648 2.5955144.6454471.8103066-3.2414886c2.1187659-.3845433 4.0072264-1.6039084 5.1998433-3.3840538l-2.8469137-.7079631c-1.2783665 1.3001734-3.2121704 1.907914-5.1335833 1.4301011-2.866926-.7129412-4.620619-3.5727178-3.9169829-6.3874898s3.5981486-4.5186425 6.4650747-3.8057014c1.9214129.477813 3.3427976 1.9199149 3.8595386 3.6664934l2.8469125.7079642c-.2151059-2.1302149-1.3085638-4.0911173-2.9983189-5.42275566z"/></svg>