<svg width="32" height="32" viewBox="0 0 32 32" version="1.1" xmlns="http://www.w3.org/2000/svg" xmlns:xlink="http://www.w3.org/1999/xlink"><title>svg/black/gmr</title><desc>Created with Sketch.</desc><g id="black/gmr" stroke="none" stroke-width="1" fill="none" fill-rule="evenodd"><circle id="Combined-Shape" fill="#000" fill-rule="nonzero" cx="16" cy="16" r="16"/><g id="Gimmer-(GMR)" transform="translate(5.000000, 2.000000)"><path d="M17.8849,21.604 C18.3671488,21.0068118 18.7925003,20.3658385 19.1554,19.68945 C18.7849919,20.3709951 18.3534885,21.0175139 17.8662,21.62105 C17.8727446,21.6157177 17.8789875,21.6100256 17.8849,21.604 Z" id="Shape"/><path d="M2.0174,17.6935 C1.59352327,16.2383957 1.51536394,14.7044013 1.78915,13.21375 L1.7842,13.20385 C1.41503445,15.205476 1.68119396,17.272443 2.5454,19.11525 C2.96596588,20.0044561 3.4902781,20.840771 4.1074,21.60675 C4.11611644,21.6155231 4.12549404,21.6236136 4.13545,21.63095 C3.50906003,20.8584115 2.97711451,20.0138719 2.5509,19.11525 C2.33732397,18.6555254 2.15897758,18.1802414 2.0174,17.6935 Z" id="Shape"/><path d="M19.9804,17.6935 C19.861944,18.0991202 19.7179225,18.4968326 19.5492,18.88425 C19.8881945,18.1106639 20.1250348,17.2962365 20.25375,16.4615 C20.1888291,16.8778637 20.0969696,17.289578 19.97875,17.69405 L19.9804,17.6935 Z" id="Shape"/><path d="M4.43025,16.5296822 C4.47535,16.5068634 4.52045,16.4847158 4.5661,16.4625681 L4.68545,16.40485 C4.35545,16.5592124 4.0304,16.7258791 3.7103,16.90485 C3.94423333,16.7750961 4.18421667,16.6500402 4.43025,16.5296822 Z" id="Shape"/><path d="M4.96524163,16.487 L5.0661,16.412 L5.03176524,16.412 L4.5661,16.842 C4.69700129,16.677 4.8300485,16.567 4.96524163,16.487 Z" id="Shape" fill="#000" fill-rule="nonzero"/><path d="M21.9494,11.44 C21.9000904,11.3632523 21.8233851,11.3081818 21.7349,11.286 C21.38895,11.20185 21.04245,11.121 20.6954,11.04675 L20.7889,10.582 L20.8494,10.2905 L20.8769,10.142 L20.9044,9.9825 C20.9422867,9.74517328 20.9156924,9.50202588 20.8274,9.2785 C20.6897434,8.92514409 20.4221177,8.6378401 20.0794,8.4755 C19.9568498,8.41902116 19.827408,8.3788942 19.6944,8.35615 C19.6110014,7.85199811 19.4958218,7.35362132 19.34955,6.864 L19.33305,6.8035 L16.84705,3.784 L16.75355,3.7565 C16.6529,3.7301 14.41275,3.06845 11.36355,3.06625 L11.3982,2.46455 C11.976891,2.27385514 12.3302468,1.68984579 12.2306346,1.08874249 C12.1310224,0.487639197 11.6081698,0.0488312387 10.9989,0.055 C10.3900733,0.0491227172 9.86767355,0.487546268 9.76784525,1.08816158 C9.66801695,1.6887769 10.0205064,2.27261584 10.5985,2.464 L10.63315,3.069 C7.57075,3.07175 5.31905,3.7301 5.2239,3.762 L5.1304,3.7895 L2.6444,6.809 L2.6279,6.8695 C2.48192787,7.35823265 2.36693283,7.85568722 2.2836,8.3589 L2.2759,8.3589 L2.0999,8.4029 C2.03551225,8.42096745 1.97291686,8.44490099 1.9129,8.4744 C1.33705797,8.74133226 1.00249336,9.35247029 1.0879,9.9814 L1.1154,10.1409 L1.1429,10.2894 L1.2034,10.5809 L1.2969,11.04675 C0.9515,11.12265 0.60665,11.2013 0.2629,11.2849 C0.174367299,11.3069791 0.0976274586,11.3620743 0.0484,11.4389 C-0.0220940437,11.5569653 -0.0147763916,11.7058189 0.0669579636,11.8164006 C0.148692319,11.9269824 0.288847845,11.9776514 0.4224,11.9449 C0.7579,11.86295 1.09395,11.78595 1.43055,11.7117 L1.4564,11.83985 C0.670888128,14.3308875 0.85152484,17.0263014 1.9624,19.39025 C3.4694,22.60775 6.9399,26.07825 10.9989,26.07825 C15.0579,26.07825 18.5284,22.60775 20.0409,19.38475 C21.1480363,17.0187842 21.3247359,14.3229375 20.5359,11.8327 L20.55955,11.715 C20.8978,11.78925 21.23605,11.8668 21.5732,11.9493 C21.7067522,11.9820514 21.8469077,11.9313824 21.928642,11.8208006 C22.0103764,11.7102189 22.017694,11.5613653 21.9472,11.4433 L21.9494,11.44 Z M10.1134,1.298 C10.1151429,0.762311773 10.5457657,0.326795579 11.0814,0.319 C11.6204,0.319 11.6204,2.2715 11.0814,2.277 C10.5457657,2.26920442 10.1151429,1.83368823 10.1134,1.298 Z M10.7613,2.508 C10.8396053,2.52303706 10.919164,2.53058776 10.9989,2.53055 L11.0374,2.53055 L11.11275,4.6332 C11.1566268,4.69176839 11.1803604,4.76296921 11.1804,4.83615 C11.1804,4.92658882 11.1444733,5.01332351 11.0805234,5.07727341 C11.0165735,5.14122332 10.9298388,5.17715 10.8394,5.17715 C10.3334,5.17715 9.9264,5.02315 9.9264,4.83615 C9.9264,4.66455 10.2685,4.52155 10.71565,4.49845 C10.75635,4.49845 10.7976,4.49515 10.8394,4.49515 C10.85095,4.49515 10.86195,4.49515 10.8735,4.49515 L10.7613,2.508 Z M3.15645,7.34525 L3.4474,7.2413 L3.9424,7.0763 L4.5914,6.8838 C4.8279,6.8123 5.0919,6.7463 5.3669,6.6748 L6.2414,6.4768 C6.5439,6.4163 6.8574,6.3503 7.1819,6.2953 C7.5064,6.2403 7.8309,6.1963 8.1609,6.1413 C8.4909,6.0863 8.8209,6.0588 9.1454,6.0203 C9.4699,5.9818 9.7889,5.9653 10.1024,5.9378 C10.2674,5.92295 10.4357,5.9158 10.5974,5.9103 L10.6139,5.9103 L10.9989,9.33735 L11.3894,5.8806 C11.5346,5.8806 11.67485,5.8806 11.8074,5.8806 C12.0549,5.8806 12.2859,5.8696 12.4894,5.8806 L13.0174,5.9026 L13.4794,5.9191 L13.0229,5.8751 L12.4949,5.8256 C12.2914,5.8036 12.0659,5.7981 11.8129,5.7816 C11.5599,5.7651 11.2904,5.7486 11.0044,5.7486 L10.9989,5.7486 C10.71455,5.7486 10.4082,5.7321 10.0969,5.7431 C9.7856,5.7541 9.4589,5.7486 9.1289,5.7706 L8.1279,5.8366 C7.7924,5.8641 7.4569,5.8916 7.1269,5.9356 C6.7969,5.9796 6.4724,6.0291 6.1644,6.0676 C5.86685,6.105 5.5748,6.1622 5.2976,6.2106 L4.8059,6.1721 L5.7849,4.8356 L10.67385,3.77025 L10.7041,4.30045 C10.0441,4.3516 9.5491,4.57105 9.5491,4.83395 C9.5491,5.1348 10.1992,5.37845 11.0011,5.37845 C11.803,5.37845 12.4531,5.1348 12.4531,4.83395 C12.4531,4.57105 11.9581,4.3516 11.2981,4.30045 L11.32835,3.77245 L16.1964,4.8345 L17.1754,6.171 L15.81415,6.281 L15.7894,6.2777 L15.8037,6.28155 L15.7839,6.28155 L18.3909,7.57405 C18.3909,7.57405 19.5151,11.1837 17.96575,14.25215 C17.7891633,14.5988347 17.5836516,14.9300084 17.3514,15.24215 C17.3514,15.24215 14.9446,16.35315 11.2464,16.54895 L10.9989,15.532 C11.3015193,15.54215 11.602976,15.4897227 11.8844,15.378 L12.6544,15.125 C14.2178667,14.6428333 15.7835333,14.168 17.3514,13.7005 L17.5054,13.6565 L17.5549,13.5135 L17.6044,13.3705 L17.6429,13.233 L17.7144,12.9635 C17.8404229,12.4330156 17.9304612,11.894623 17.9839,11.352 L18.0279,10.802 L18.0389,10.527 L18.0389,10.2465 L18.0444,9.9605 L18.0169,9.6745 L17.9729,9.3885 C17.9542371,9.2955663 17.9303661,9.20375488 17.9014,9.1135 L17.8574,8.9705 L17.8079,8.8 L17.7716,8.79505 L17.7584,8.7505 L17.7089,8.58 L17.5109,8.5525 C15.8873,8.3633 14.2574667,8.25146667 12.6214,8.217 L12.4509,8.2115 L12.3794,8.3545 L11.4829,10.1112 L10.9989,10.11945 L10.4687,10.1288 L9.5084,8.4095 L9.4589,8.316 L9.3599,8.3215 C8.5459,8.36733333 7.73373333,8.43333333 6.9234,8.5195 C6.11306667,8.60566667 5.30823333,8.7175 4.5089,8.855 L4.5254,8.855 L4.5144,8.855 L4.4814,8.965 C4.4726,8.99305 4.46435,9.02 4.45665,9.05135 C4.4726,8.9859 4.4924,8.9221 4.51165,8.855 C4.480028,8.9432272 4.44329927,9.02953972 4.40165,9.1135 C4.38405,9.18335 4.3637,9.25265 4.3505,9.3225 L4.34115,9.35 L4.28065,9.6195 L4.23665,9.889 L4.20915,10.164 C4.19815,10.3455 4.19265,10.5325 4.19815,10.714 L4.22015,11.264 C4.25681894,11.8146313 4.33031668,12.3621894 4.44015,12.903 L4.50065,13.1725 L4.57765,13.4475 L4.59965,13.5135 L4.67665,13.541 L7.78965,14.564 C8.70631667,14.8624667 9.62115,15.1686333 10.53415,15.4825 C10.6120727,15.4992551 10.6911172,15.5102845 10.77065,15.5155 L10.82565,15.521 L10.84215,15.521 L10.86965,15.5265 L10.98515,15.532 L11.00165,15.532 L10.7481,16.5671 C9.84053551,16.5936236 8.93220731,16.5609209 8.0289,16.4692 C5.80635,16.17055 4.3439,15.63815 3.96385,15.488 C2.73094764,12.9572627 2.44454273,10.0688262 3.15645,7.34525 Z M14.95615,8.87535 L12.01475,14.4199 L11.8184,14.7895 L11.6754,14.839 C11.5040236,14.901151 11.3240599,14.9364017 11.1419,14.9435 C10.8629664,14.9715096 10.5812874,14.9377082 10.3169,14.8445 L10.2179,14.806 L10.34275,14.57115 L13.42275,8.77085 L13.5619,8.5085 C14.0624,8.5305 14.5739,8.569 15.0964,8.613 L14.95615,8.87535 Z M15.8598,8.965 L16.0039,8.6933 L16.4274,8.7318 L16.8289,8.7758 L16.8784,8.7813 L16.9114,8.7813 L16.7629,9.06125 L14.3231,13.65925 L14.1229,14.036 L12.9789,14.399 L13.17635,14.0261 L15.8598,8.965 Z M1.5114,10.2355 L1.4949,10.087 L1.4839,9.944 C1.4525775,9.47820878 1.75287695,9.05452691 2.20275,8.9298 C2.01062175,10.5658516 2.15378231,12.2238942 2.6235,13.8028 C2.60865,13.79785 2.59325,13.794 2.5784,13.7885 C2.24944621,13.6722112 1.99068878,13.4134538 1.8744,13.0845 C1.83057996,12.9470077 1.80289408,12.8048869 1.7919,12.661 L1.5444,10.53525 L1.5114,10.2355 Z M4.2647,21.68815 L4.2504,21.6755 L4.257,21.6865 C4.21322546,21.6747538 4.17201096,21.6549858 4.13545,21.6282 C4.12549404,21.6208636 4.11611644,21.6127731 4.1074,21.604 C3.49046198,20.8388807 2.96615558,20.0034982 2.5454,19.11525 C1.68119396,17.272443 1.41503445,15.205476 1.7842,13.20385 L1.78915,13.21375 C1.84270134,13.3152951 1.91028111,13.4087958 1.9899,13.4915 C2.16411535,13.6765461 2.39044562,13.8042885 2.6389,13.8578 C2.85177649,14.5596925 3.12790883,15.2408189 3.4639,15.8928 L3.5134,15.9808 L3.6069,16.0248 C3.95891436,16.1690877 4.31796869,16.2955644 4.6827,16.40375 L4.6915,16.40375 L4.66565,16.412 C4.631,16.42355 4.5969,16.43565 4.5628,16.4483 C4.51715,16.46535 4.47205,16.48295 4.42695,16.5033 C4.36131667,16.5304333 4.29586667,16.5592167 4.2306,16.58965 L3.8071,16.79315 L3.6696,16.85915 L3.6531,16.99665 C3.53345625,18.0428113 3.63769589,19.1024559 3.9589,20.10525 C4.11391829,20.6039593 4.33201729,21.0808198 4.6079,21.52425 L4.6134,21.53525 L4.6299,21.57925 C4.6541,21.69035 4.43905,21.7349 4.2647,21.68815 Z M8.04485,23.90025 C7.27081654,23.6168462 6.56334307,23.1772728 5.9664,22.60885 C5.62578397,22.2761386 5.33495447,21.8960226 5.1029,21.48025 C4.87258799,21.0639685 4.69521302,20.6205311 4.5749,20.16025 C4.457074,19.6991527 4.38522305,19.2275157 4.3604,18.75225 C4.33043792,18.3354967 4.34333888,17.9167684 4.3989,17.50265 L4.6574,17.39925 C4.92213333,17.3119833 5.1898,17.2349833 5.4604,17.16825 L5.8729,17.08575 C6.23003333,17.0256167 6.58936667,16.9832667 6.9509,16.9587 L6.9938,16.9587 L7.00975,16.96145 C6.70067334,17.8034889 6.54476628,18.6940404 6.5494,19.591 C6.5494,21.3807 7.14065,22.90365 8.0773,23.9195 L8.04485,23.90025 Z M12.34475,22.7568 C11.9309803,22.9911992 11.4628882,23.1127742 10.98735,23.10935 C10.4917068,23.1116846 10.0048448,22.9785582 9.57935,22.72435 C9.37705674,22.5055357 9.20468639,22.2608511 9.06675,21.9967 C9.53825851,22.5436799 10.2205938,22.8637045 10.9426348,22.8765156 C11.6646758,22.8893267 12.3579344,22.5937091 12.84855,22.0638 C12.7117374,22.3163982 12.542357,22.5499434 12.34475,22.75845 L12.34475,22.7568 Z M10.98735,22.33935 C10.4672813,22.3416888 9.96760036,22.1372575 9.59830845,21.7710602 C9.22901655,21.4048629 9.02038768,20.90692 9.01835,20.38685 L9.01835,20.38025 C9.01684181,19.2980771 9.89235472,18.4192963 10.9745257,18.4167727 C12.0566967,18.4142491 12.9362986,19.2889371 12.9398376,20.3711052 C12.9433766,21.4532733 12.0695143,22.3336956 10.98735,22.33825 L10.98735,22.33935 Z M13.4739,19.99965 C13.265458,18.7706508 12.1906629,17.878121 10.944288,17.899013 C9.697913,17.9199051 8.65363494,18.8479553 8.4865,20.08325 C8.45735,19.86325 8.4381,19.6328 8.4315,19.3996 C8.84322986,18.3488298 9.85936279,17.6599668 10.9879,17.66655 L10.9989,17.66655 C12.1038879,17.6643963 13.1010822,18.328903 13.5245,19.34955 C13.5175333,19.5710167 13.5006667,19.7877167 13.4739,19.99965 Z M13.9062,23.9305 L13.91555,23.9305 L13.8963,23.9371 C14.8456,22.92125 15.4462,21.3884 15.4462,19.5844 C15.4515189,18.6869282 15.2952089,17.7958303 14.98475,16.95375 L14.99905,16.95375 C16.41365,17.15835 17.1512,17.8838 17.1512,17.8838 C17.1512,17.8838 17.3019,22.03025 13.9084,23.9305 L13.9062,23.9305 Z M20.3687,14.99025 C20.3687,15.06175 20.3687,15.1327 20.3687,15.2042 C20.3687,15.2526 20.3654,15.301 20.36375,15.3494 C20.3621,15.3978 20.3599,15.4473 20.35715,15.4968 C20.35385,15.5569333 20.35,15.6168833 20.3456,15.67665 C20.3456,15.7113 20.3401,15.74595 20.33735,15.78005 C20.3313,15.851 20.32525,15.9225 20.31755,15.99345 C20.31755,16.0094 20.3137,16.02535 20.31205,16.0413 C20.30435,16.1098667 20.2959167,16.1784333 20.28675,16.247 L20.28675,16.25745 C20.27795,16.3230833 20.2686,16.3889 20.2587,16.4549 L20.2587,16.46205 C20.1299848,17.2967865 19.8931445,18.1112139 19.55415,18.8848 C19.5206,18.96125 19.48705,19.0377 19.45185,19.11305 C19.4030833,19.21645 19.35285,19.3191167 19.30115,19.42105 L19.26705,19.4876 C19.2324,19.55525 19.19665,19.6229 19.16035,19.69 C18.7974503,20.3663885 18.3720988,21.0073618 17.88985,21.60455 C17.8839375,21.6105756 17.8776946,21.6162677 17.87115,21.6216 C17.8344624,21.6516241 17.7919524,21.6737218 17.7463,21.6865 L17.75235,21.67605 L17.7375,21.68925 C17.5637,21.7382 17.3426,21.69585 17.36735,21.57925 L17.38385,21.53525 L17.39485,21.52425 C17.6668122,21.0793983 17.8831144,20.6028314 18.0389,20.10525 C18.3548159,19.1036316 18.4578531,18.0470321 18.3414,17.00325 L18.3249,16.86575 L18.1874,16.79975 C18.0444,16.72825 17.9069,16.65675 17.7639,16.59625 L17.3294,16.42025 L17.29035,16.40595 L17.2997,16.4032 C17.6628143,16.295622 18.019751,16.1681971 18.3689,16.0215 L18.4624,15.9775 L18.5119,15.8895 C18.8467637,15.2384817 19.1219714,14.5584702 19.33415,13.8578 C19.7085716,13.7813057 20.0289319,13.5408841 20.207,13.20275 C20.3118736,13.7651477 20.3670862,14.3356787 20.372,14.90775 C20.3698,14.93525 20.36925,14.96165 20.3687,14.99025 Z" id="Shape" fill="#FFF" fill-rule="nonzero"/><path d="M4.64620769,9.13511204 L4.87697692,8.855 L4.9539,8.855 L4.83851538,8.855 C4.72313077,9.02586835 4.58082308,9.18833333 4.4539,9.355 C4.52697692,9.28077031 4.58466923,9.21214286 4.64620769,9.13511204 Z" id="Shape" fill="#000" fill-rule="nonzero"/><path d="M11.9504,4.21025 C12.4344,4.33675 12.7534,4.56775 12.7534,4.83725 C12.7534,5.10675 12.4289,5.33775 11.9504,5.46425 C12.6104,5.40375 13.1054,5.14525 13.1054,4.83725 C13.1054,4.52925 12.6104,4.268 11.9504,4.21025 Z" id="Shape" fill="#FFF" fill-rule="nonzero"/><path d="M10.358683,6.68189695 C10.4963555,6.68352113 10.6097996,6.572215 10.6134,6.43198044 C10.6131843,6.3640841 10.5859684,6.29917609 10.5379678,6.25208011 C10.4899672,6.20498414 10.4252813,6.1797223 10.358683,6.18206393 C10.2232169,6.18206393 10.1134,6.29395536 10.1134,6.43198044 C10.1134,6.57000552 10.2232169,6.68189695 10.358683,6.68189695 Z" id="Shape" fill="#FFF" fill-rule="nonzero"/><path d="M3.7139,7.52406389 C3.57877704,7.52244013 3.46743373,7.63371691 3.4639,7.7739145 C3.46411168,7.84179293 3.49082362,7.90668384 3.53793533,7.95376739 C3.58504703,8.00085095 3.64853507,8.02610612 3.7139,8.02376512 C3.84902296,8.02538887 3.96036627,7.91411209 3.9639,7.7739145 C3.96368832,7.70603607 3.93697638,7.64114517 3.88986467,7.59406161 C3.84275297,7.54697805 3.77926493,7.52172288 3.7139,7.52406389 Z" id="Shape" fill="#FFF" fill-rule="nonzero"/><path d="M4.4069,15.597397 C4.54202296,15.5990211 4.65336627,15.487715 4.6569,15.3474804 C4.65668832,15.2795841 4.62997638,15.2146761 4.58286467,15.1675801 C4.53575297,15.1204841 4.47226493,15.0952223 4.4069,15.0975639 C4.27177704,15.0959397 4.16043373,15.2072459 4.1569,15.3474804 C4.16188273,15.487047 4.27236541,15.5974928 4.4069,15.597397 Z" id="Shape" fill="#FFF" fill-rule="nonzero"/><path d="M10.4789,16.554397 C10.614023,16.5560211 10.7253663,16.444715 10.7289,16.3044804 C10.7286883,16.2365841 10.7019764,16.1716761 10.6548647,16.1245801 C10.607753,16.0774841 10.5442649,16.0522223 10.4789,16.0545639 C10.3426168,16.0545397 10.2314238,16.1678332 10.2289,16.3092865 C10.2405405,16.4448612 10.3478514,16.5500733 10.4789,16.554397 Z" id="Shape" fill="#FFF" fill-rule="nonzero"/><path d="M11.843683,6.68739695 C11.9813555,6.68902113 12.0947996,6.577715 12.0984,6.43748044 C12.0981843,6.3695841 12.0709684,6.30467609 12.0229678,6.25758011 C11.9749672,6.21048414 11.9102813,6.1852223 11.843683,6.18756393 C11.7082169,6.18756393 11.5984,6.29945536 11.5984,6.43748044 C11.5984,6.57550552 11.7082169,6.68739695 11.843683,6.68739695 Z" id="Shape" fill="#FFF" fill-rule="nonzero"/><path d="M11.7219,16.0600639 C11.5873654,16.0599681 11.4768827,16.1704139 11.4719,16.3099804 C11.481309,16.4474446 11.5892222,16.5553217 11.7219,16.559897 C11.857023,16.5615211 11.9683663,16.450215 11.9719,16.3099804 C11.9716883,16.2420841 11.9449764,16.1771761 11.8978647,16.1300801 C11.850753,16.0829841 11.7872649,16.0577223 11.7219,16.0600639 Z" id="Shape" fill="#FFF" fill-rule="nonzero"/><path d="M4.94487678,17.743339 C4.85752157,17.7359703 4.77349904,17.7804456 4.72663702,17.8588589 C4.67977499,17.9372722 4.67778452,18.0367207 4.72146698,18.1171662 C4.76514944,18.1976116 4.84731696,18.2458168 4.93488857,18.2423741 L4.94487678,18.2423741 C5.07738664,18.2439988 5.18657672,18.1326563 5.19004211,17.9923758 C5.19033247,17.927975 5.16649522,17.8660801 5.12375667,17.8202616 C5.07633884,17.7701687 5.01185059,17.7424372 4.94487678,17.743339 Z" id="Shape" fill="#FFF" fill-rule="nonzero"/><path d="M6.45368302,17.2920639 C6.31821695,17.2920639 6.2084,17.4039554 6.2084,17.5419804 C6.2084,17.6800055 6.31821695,17.791897 6.45368302,17.791897 C6.59135547,17.7935211 6.7047996,17.682215 6.7084,17.5419804 C6.70818432,17.4740841 6.68096839,17.4091761 6.63296778,17.3620801 C6.58496717,17.3149841 6.52028125,17.2897223 6.45368302,17.2920639 Z" id="Shape" fill="#FFF" fill-rule="nonzero"/><path d="M15.7492845,17.292064 C15.6125893,17.2973258 15.505507,17.4114842 15.5089814,17.5482465 C15.5124557,17.6850088 15.6251965,17.793582 15.7619825,17.7918951 C15.8987685,17.7902083 16.0087979,17.6788879 16.0088991,17.5420815 C16.0086793,17.4741578 15.9809401,17.4092235 15.9320165,17.3621085 C15.883093,17.3149935 15.8171633,17.2897214 15.7492845,17.292064 Z" id="Shape" fill="#FFF" fill-rule="nonzero"/></g></g></svg>