<?xml version="1.0" encoding="UTF-8"?>
<svg width="32px" height="32px" viewBox="0 0 32 32" version="1.1" xmlns="http://www.w3.org/2000/svg" xmlns:xlink="http://www.w3.org/1999/xlink">
    <!-- Generator: Sketch 52.5 (67469) - http://www.bohemiancoding.com/sketch -->
    <title>svg/black/gold</title>
    <desc>Created with Sketch.</desc>
    <g id="black/gold" stroke="none" stroke-width="1" fill="none" fill-rule="evenodd">
        <path d="M16,32 C7.163444,32 0,24.836556 0,16 C0,7.163444 7.163444,0 16,0 C24.836556,0 32,7.163444 32,16 C32,24.836556 24.836556,32 16,32 Z M15.75,4 C9.26065419,4 4,9.26065419 4,15.75 C4,22.2393458 9.26065419,27.5 15.75,27.5 C22.2393458,27.5 27.5,22.2393458 27.5,15.75 C27.5,12.6337062 26.2620571,9.64504777 24.0585047,7.44149532 C21.8549522,5.23794287 18.8662938,4 15.75,4 Z M15.75,24.57 C10.8788485,24.57 6.93,20.6211515 6.93,15.75 C6.93,10.8788485 10.8788485,6.93 15.75,6.93 C20.6211515,6.93 24.57,10.8788485 24.57,15.75 C24.57,18.0892094 23.6407527,20.332611 21.9866818,21.9866818 C20.332611,23.6407527 18.0892094,24.57 15.75,24.57 Z M12.82,15.76 L15.76,20.16 L18.68,15.76 L15.76,11.35 L12.82,15.76 Z" id="Combined-Shape" fill="#000000" fill-rule="nonzero"></path>
    </g>
</svg>