<svg height="32" width="32" xmlns="http://www.w3.org/2000/svg"><path d="M16 32C7.163 32 0 24.837 0 16S7.163 0 16 0s16 7.163 16 16-7.163 16-16 16zm.05-26h-.104c-.06.047-.116.102-.181.14-2.828 1.652-5.655 3.303-8.486 4.948-.194.112-.275.231-.274.469.007 3.306.004 6.613-.005 9.92 0 .2.056.315.23.415 2.044 1.186 4.086 2.379 6.127 3.573.866.507 1.726 1.023 2.59 1.535h.103c.04-.03.08-.065.123-.09 2.857-1.67 5.713-3.34 8.571-5.006.158-.092.257-.182.256-.4-.01-3.333-.012-6.667-.008-10 0-.196-.07-.298-.227-.39a3308.766 3308.766 0 0 1-7.208-4.202c-.507-.296-1.005-.607-1.507-.912zm2.658 16.685c-.06-.042-.184-.06-.244-.026-.641.36-1.275.735-1.91 1.106-.028.016-.05.043-.088.076l1.387.874c-.418.247-.821.435-1.166.701-.479.37-.896.373-1.374 0-.332-.259-.724-.44-1.088-.657-.012-.008-.017-.029-.045-.08.6-.36 4.127-2.455 5.236-3.223 1.015-.704 1.847-1.619 2.297-2.809.189-.5.273-1.041.397-1.565.017-.071-.004-.152-.008-.242-.091-.005-.167-.013-.243-.013-1.902-.001-3.804-.002-5.705.002-.093 0-.233.027-.27.09-.413.695-.81 1.4-1.237 2.147h4.193l.029.066c-.174.148-.333.319-.523.438-1.123.703-5.163 3.254-6.046 3.85-.138.092-.227.095-.364.015a497.626 497.626 0 0 0-3.701-2.163c-.141-.082-.183-.175-.183-.333.005-2.957.006-5.914.002-8.871 0-.16.044-.253.181-.332 1.245-.72 2.489-1.442 3.727-2.173.153-.09.245-.08.382.03.31.25.637.48.965.707.057.04.171.063.224.033.666-.385 1.325-.782 2.02-1.197l-1.362-.863c.287-.17.536-.319.786-.466.284-.167.564-.342.855-.493.084-.044.226-.06.303-.018.53.294 1.05.606 1.573.914.02.012.03.04.068.089-.44.271-3.766 2.26-4.959 3.046a7.021 7.021 0 0 0-2.236 2.369c-1.195 2.07-.861 4.908.777 6.639.577.609 1.204 1.154 1.908 1.604.072.047.204.081.267.046.657-.369 1.305-.753 1.956-1.134.013-.007.02-.026.034-.045-.494-.32-.994-.629-1.478-.962-.609-.42-1.176-.89-1.602-1.51-.858-1.251-.767-2.846.215-3.996.713-.834 1.613-1.42 2.534-1.976 1.179-.713 4.187-2.565 4.494-2.806.11-.087.183-.11.314-.033 1.26.744 2.528 1.476 3.788 2.222a.36.36 0 0 1 .147.263c.009 2.983.01 5.966.003 8.95 0 .09-.067.223-.142.267-1.275.754-2.556 1.498-3.836 2.243-.03.017-.062.03-.083.04-.394-.286-.777-.57-1.169-.841zm2.742-8.912c-.664-1.188-1.655-2.045-2.763-2.779-.076-.05-.248-.018-.343.035-.53.294-1.049.606-1.572.913l-.33.198.17.119c.563.373 1.14.726 1.684 1.126.764.562 1.411 1.233 1.715 2.176.017.054.106.12.163.122.62.008 1.24.005 1.882.005-.036-.58-.28-1.331-.606-1.915z" fill-rule="evenodd"/></svg>