<svg xmlns="http://www.w3.org/2000/svg" width="32" height="32" viewBox="0 0 32 32"><path fill-rule="evenodd" d="M16 32C7.163 32 0 24.837 0 16S7.163 0 16 0s16 7.163 16 16-7.163 16-16 16zm.053-27h-.11c-.063.05-.122.107-.191.147-2.985 1.73-5.97 3.46-8.958 5.183-.204.118-.29.243-.29.491.008 3.465.005 6.929-.004 10.393 0 .21.06.33.242.435a1974.33 1974.33 0 0 1 6.468 3.743c.914.531 1.822 1.072 2.733 1.608h.11c.043-.032.084-.068.13-.095 3.015-1.749 6.03-3.498 9.047-5.244.166-.096.27-.19.27-.419a2234.53 2234.53 0 0 1-.008-10.476c0-.205-.074-.312-.24-.408a3499.05 3499.05 0 0 1-7.608-4.402c-.535-.31-1.061-.637-1.591-.956zm2.806 17.48c-.065-.045-.195-.064-.259-.028-.676.378-1.345.77-2.016 1.16-.029.016-.052.044-.092.079l1.464.915c-.441.26-.867.456-1.23.735-.506.388-.946.39-1.451 0-.351-.272-.764-.462-1.149-.69-.013-.007-.018-.029-.047-.082.632-.377 4.356-2.572 5.527-3.377 1.071-.738 1.95-1.696 2.424-2.943.2-.523.288-1.09.42-1.64.018-.074-.004-.158-.009-.253-.097-.005-.177-.013-.257-.014-2.007 0-4.015-.002-6.022.003-.098 0-.245.028-.285.094-.435.729-.854 1.467-1.305 2.25h4.426l.03.069c-.183.154-.35.333-.552.458-1.185.737-5.45 3.41-6.381 4.033-.146.097-.24.1-.385.016-1.3-.76-2.601-1.517-3.907-2.266-.149-.085-.193-.183-.192-.349.005-3.097.006-6.195.001-9.293 0-.168.047-.265.192-.348a488.06 488.06 0 0 0 3.934-2.276c.162-.095.258-.084.403.032.327.262.673.502 1.018.74.061.041.181.066.237.034.703-.403 1.398-.819 2.133-1.253l-1.438-.904c.303-.179.566-.335.83-.489.299-.175.594-.358.902-.517.089-.046.238-.063.32-.018.56.308 1.108.635 1.66.957.02.013.032.041.072.093-.465.285-3.976 2.368-5.234 3.192a7.38 7.38 0 0 0-2.361 2.481c-1.262 2.17-.91 5.142.82 6.955.61.638 1.27 1.21 2.014 1.681.076.049.215.085.282.048.693-.386 1.378-.789 2.064-1.187.014-.009.022-.028.036-.048-.52-.335-1.048-.659-1.56-1.008-.642-.44-1.241-.933-1.69-1.583-.907-1.31-.81-2.98.227-4.185.752-.874 1.702-1.488 2.674-2.07 1.244-.747 4.42-2.687 4.743-2.94.117-.09.194-.116.332-.035 1.331.78 2.669 1.547 3.998 2.329.08.047.156.18.156.275.01 3.125.01 6.25.003 9.376 0 .095-.07.233-.15.28-1.346.79-2.698 1.569-4.05 2.35-.03.017-.064.03-.087.041-.416-.3-.82-.597-1.233-.88zm2.894-9.337c-.702-1.244-1.748-2.142-2.917-2.911-.08-.053-.261-.019-.362.037-.558.308-1.107.634-1.659.955-.107.063-.213.128-.348.209l.18.124c.593.391 1.203.76 1.777 1.18.806.589 1.49 1.29 1.81 2.28.018.056.112.126.172.127.655.009 1.31.005 1.987.005-.038-.607-.295-1.394-.64-2.006z"/></svg>