<svg xmlns="http://www.w3.org/2000/svg" width="32" height="32"><path fill-rule="evenodd" d="M10.664 28.193c-.61.64-1.215 1.287-1.84 1.914-.069.069-.291.073-.38.014-.919-.6-1.879-1.154-2.722-1.85-2.303-1.898-3.928-4.29-4.888-7.123-.723-2.132-.964-4.322-.77-6.564.27-3.096 1.345-5.886 3.252-8.33C5.978 2.842 9.464.784 13.756.168c3.086-.443 6.066-.01 8.911 1.287.077.035.153.073.227.113.016.008.024.03.044.057-.402 0-.802-.045-1.188.01-1.183.165-1.888.909-2.269 1.999-.075.217-.12.448-.153.676-.013.083.043.177.067.266.102-.05.242-.073.297-.153.148-.217.237-.475.39-.687.772-1.081 2.288-1.209 3.169-.26.6.646.68 1.424.492 2.252-.24 1.062-.823 1.942-1.511 2.752-.553.653-1.153 1.266-1.744 1.885-.064.067-.24.113-.31.074-1.25-.713-2.59-1.03-4.025-1.063-1.939-.044-3.706.403-5.206 1.676-1.54 1.307-2.409 2.962-2.385 5.005.027 2.388 1.068 4.217 3.155 5.42l.19.111c.008.005.011.018.036.062-.074.068-.158.14-.237.216-.65.635-1.33 1.241-1.938 1.914-.513.57-.862 1.249-.912 2.046-.033.519.125.972.503 1.314.405.366.85.689 1.305 1.053zm14.696.78c-.33-1.213-1.086-2.043-2.152-2.606-.828-.439-1.735-.6-2.654-.656-1.517-.09-3.037-.124-4.555-.207-1.073-.06-2.144-.161-3.216-.244a.209.209 0 0 1-.031-.004c-1.093-.23-1.425-.892-.852-1.844.278-.462.686-.851 1.072-1.237.085-.085.331-.053.49-.015 1.795.429 3.59.451 5.337-.166 2.141-.757 3.613-2.21 4.15-4.46.364-1.526.172-3.02-.547-4.43l-.15-.301h1.328c.37 0 .74.009 1.11-.007.097-.004.252-.06.278-.13.306-.83.591-1.667.882-2.503l-.07-.097c-.124.052-.298.07-.362.162-.337.483-.822.664-1.368.674-1.046.022-2.093.007-3.14.006-.016 0-.032-.02-.06-.038.685-.735 1.369-1.466 2.049-2.2.743-.802 1.431-1.644 1.903-2.64.555-1.175.669-2.33-.214-3.42-.01-.012-.005-.038-.015-.141 4.254 2.889 6.789 6.785 7.332 11.864a15.803 15.803 0 0 1-6.545 14.64zm-5.794-12.317c-.118.758-.172 1.532-.369 2.268-.343 1.29-1.186 2.156-2.525 2.378-1.411.236-2.546-.286-3.36-1.48-.633-.932-.947-1.979-1.08-3.079-.139-1.156-.16-2.317.112-3.463.286-1.211.92-2.161 2.118-2.623 1.459-.564 2.979.004 3.888 1.411.615.951.932 2.005 1.05 3.121.052.482.071.968.105 1.452l.061.015zm4.143 13.352c-2.936 2.2-10.477 2.7-13.523.883.137-.275.246-.575.422-.83.36-.52.747-1.023 1.147-1.514.076-.094.267-.144.4-.135 1.526.1 3.05.229 4.577.322 1.37.083 2.743.106 4.112.204.616.044 1.23.177 1.834.321.423.1.8.324 1.031.749z"/></svg>