<svg width="32" height="32" viewBox="0 0 32 32" version="1.1" xmlns="http://www.w3.org/2000/svg" xmlns:xlink="http://www.w3.org/1999/xlink"><title>svg/black/gsc</title><desc>Created with Sketch.</desc><g id="black/gsc" stroke="none" stroke-width="1" fill="none" fill-rule="evenodd"><circle id="Combined-Shape" fill="#000" fill-rule="nonzero" cx="16" cy="16" r="16"/><g id="Global-Social-Chain-(GSC)" transform="translate(6.000000, 6.000000)" fill="#FFF" fill-rule="nonzero"><path d="M19.0697674,6.04651163 L9.92248062,6.04651163 C7.95832294,6.04357694 6.30246209,7.51033613 6.06835111,9.46049408 C5.83424013,11.410652 7.09589506,13.2276508 9.00493935,13.6896831 C10.9139836,14.1517155 12.8668578,13.1127062 13.5503876,11.2713178 L9.92248062,11.2713178 C9.65097011,11.2717301 9.39046136,11.1640556 9.19847422,10.9720684 C9.00648708,10.7800813 8.89881249,10.5195725 8.89922481,10.248062 L8.89922481,10.124031 C8.89881249,9.8525205 9.00648708,9.59201175 9.19847422,9.40002461 C9.39046136,9.20803747 9.65097011,9.10036288 9.92248062,9.10077519 L15.9689922,9.10077519 C16.0133251,9.3827956 16.0340688,9.66802114 16.0310078,9.95348837 C16.0139032,13.3230454 13.2714948,16.0423615 9.90191367,16.0309729 C6.53233251,16.0195843 3.80836824,13.2817928 3.81404084,9.91219713 C3.81971345,6.5426015 6.55288022,3.8139969 9.92248062,3.81395349 L10.1085271,3.78294574 C10.14772,3.80051136 10.18971,3.81100886 10.2325581,3.81395349 L15.6589147,3.81395349 C18.620155,3.81395349 19.8294574,2.23255814 19.8294574,-1.42108547e-14 L9.92248062,-1.42108547e-14 C4.44851376,6.01391279e-05 0.00863401989,4.43308913 0.000121011431,9.90704937 C-0.00839199703,15.3810096 4.41767796,19.8278268 9.89161815,19.8449129 C15.3655583,19.861999 19.819302,15.442899 19.8449612,9.96899225 L19.8449612,6.8372093 C19.8491274,6.62894216 19.7692984,6.42776206 19.6234673,6.27901439 C19.4776363,6.13026673 19.2780762,6.04646996 19.0697674,6.04651163 Z" id="Shape"/></g></g></svg>