<svg width="32" height="32" viewBox="0 0 32 32" version="1.1" xmlns="http://www.w3.org/2000/svg" xmlns:xlink="http://www.w3.org/1999/xlink"><title>svg/black/gusd</title><desc>Created with Sketch.</desc><g id="black/gusd" stroke="none" stroke-width="1" fill="none" fill-rule="evenodd"><path d="M16,32 C7.163444,32 0,24.836556 0,16 C0,7.163444 7.163444,0 16,0 C24.836556,0 32,7.163444 32,16 C32,24.836556 24.836556,32 16,32 Z M19.3776471,5 C15.5082353,5 12.2211765,7.97647059 11.8070588,11.8070588 C7.97647059,12.2211765 5,15.5082353 5,19.3776471 C5,23.5835294 8.41647059,27 12.6223529,27 C16.4917647,27 19.7917647,24.0235294 20.1929412,20.1929412 C24.0235294,19.7788235 27,16.4917647 27,12.6223529 C27,8.41647059 23.5835294,5 19.3776471,5 Z M25.2141176,13.4764706 C24.8230758,16.0416667 22.809902,18.0548405 20.2447059,18.4458824 L20.2447059,13.4764706 L25.2141176,13.4764706 Z M6.78588235,18.5235294 C7.17175197,15.9533041 9.18608109,13.9337294 11.7552941,13.5411765 L11.7552941,18.5105882 L6.78588235,18.5105882 L6.78588235,18.5235294 Z M18.4588235,20.2447059 C18.0317889,23.1383994 15.5473854,25.2812663 12.6223529,25.2788235 C9.68470588,25.2788235 7.21294118,23.1305882 6.78588235,20.2447059 L18.4588235,20.2447059 Z M18.5235294,13.4764706 L18.5235294,18.5105882 L13.4764706,18.5105882 L13.4764706,13.4764706 L18.5235294,13.4764706 Z M25.2141176,11.7552941 L13.5411765,11.7552941 C13.9682111,8.86160061 16.4526146,6.71873368 19.3776471,6.72117647 C22.3152941,6.72117647 24.7870588,8.86941176 25.2141176,11.7552941 Z" id="Combined-Shape" fill="#000" fill-rule="nonzero"/></g></svg>