<svg height="32" viewBox="0 0 32 32" width="32" xmlns="http://www.w3.org/2000/svg"><g fill="none" fill-rule="nonzero"><circle cx="16" cy="16" fill="#000" r="16"/><path d="m8.32831169.59844156c1.03792208-.32727273 2.11948051-.53298701 3.21038961-.56727273 1.4961039-.06857143 3.0015584.17454546 4.4166234.65766234 2.2909091.80727273 4.3293506 2.32207792 5.7444156 4.29506493.3303896.43948052.6077922.91324676.8758441 1.39324676.3116883.6077922.5922078 1.23428571.8041559 1.8825974.2805194.89142857.4893506 1.81402594.5548052 2.74909094.0342857.2025974.0124675.4083117.0405194.6109091.0093507.2524675.0062338.504935 0 .7605194-.0280519.2025974-.0062337.4083117-.0405194.6109091-.0592208.8415585-.2337663 1.6737663-.4737663 2.4841559-.1932467.6701298-.4706493 1.3153247-.7792208 1.9418182-1.1688311 2.3002597-3.091948 4.2077922-5.410909 5.3361039-.6514286.317922-1.3309091.5890909-2.0322078.772987-1.175065.3366233-2.4.48-3.6187013.4457143-.2025974-.028052-.4114286-.0062338-.6109091-.0405195-.9132468-.0623377-1.81090912-.2618182-2.68363639-.532987-2.30025975-.7387013-4.36051949-2.1974026-5.82857143-4.1142858-.76363637-.9911688-1.36519481-2.1070129-1.78909091-3.2851948-.38961039-1.1345454-.63896104-2.3220779-.67012987-3.5251948-.04051948-.5766233.00311688-1.1563636.04987013-1.732987.08727273-.85090907.28051948-1.69246751.54233766-2.50597401.78545455-2.36571428 2.32831169-4.47584415 4.35428571-5.93454545.43948052-.33038961.91324676-.61090909 1.39324676-.87584416.6264935-.32415584 1.27480519-.61402597 1.95116883-.82597402zm2.30961041 4.32935065v2.80207792c-.0062338.04987013.0405195.07792208.0654545.11220779.4301299.45194805.8633766.90077922 1.2935065 1.35272727-.0031169-1.4212987-.0031169-2.84571428 0-4.26701298-.451948 0-.907013-.00311689-1.358961 0zm-5.90961041 1.44935065c.10285714.06857143.17766234.16831169.26493506.25246753.92571429.93506493 1.85454546 1.86701299 2.77714286 2.80831169.84467533.85402602 1.69246753 1.70493502 2.53402599 2.55896102-1.01922079 1.0441559-2.05714287 2.0696104-3.07324677 3.1137663-.81350649.8197402-1.62701299 1.6394805-2.4374026 2.4592207-.01558441.0124676-.04675324.0374026-.06545454.0498702 1.19688312 0 2.39688312.0031168 3.59688312-.0062338 1.22493506-1.281039 2.45610389-2.558961 3.67792209-3.8431169 1.224935 1.281039 2.452987 2.5620779 3.6779221 3.8431169 1.1968831.0093506 2.3937662.0031169 3.5906493.0062338-.1838961-.1464935-.3272727-.3303897-.4987013-.4893507-.8571428-.8664935-1.7205195-1.732987-2.5745454-2.6025974-.829091-.8446753-1.6737663-1.6768831-2.4966234-2.5277922.1994805-.1994805.3864935-.4083117.5922078-.6046753 1.5677922-1.58025976 3.1293506-3.16675327 4.6971428-4.74701301.0935065-.09038961.1714286-.19636364.2805195-.27116883-1.2 0-2.3968831-.00311689-3.5937662.00311688-1.2249351 1.28103896-2.452987 2.55896104-3.6779221 3.83999996-1.2218182-1.2841558-2.45298701-2.56207788-3.67792208-3.83999996-1.19688311-.00311688-2.39688311-.00311688-3.59376623-.00311688zm7.27792211 8.41558444c0 1.4275324.0031168 2.851948-.0031169 4.2794805.4550649-.0031169.9101299 0 1.3620779 0 0-.9350649 0-1.8701299 0-2.8051948.0031169-.0342857-.0093506-.0623377-.0311688-.081039-.2306494-.2493506-.4737663-.4831169-.7012987-.7324675-.2057143-.2244156-.427013-.4301299-.6264935-.6607792z" fill="#fff" transform="translate(4 4)"/></g></svg>