<svg width="32" height="32" viewBox="0 0 32 32" fill="none" xmlns="http://www.w3.org/2000/svg">
<path d="M30.9105 10.24C30.1561 8.27835 29.0219 6.48488 27.5731 4.96235C26.1243 3.43981 24.3893 2.21815 22.4675 1.36736C20.5456 0.516577 18.4748 0.0533911 16.3737 0.00434968C14.2726 -0.0446917 12.1824 0.321376 10.223 1.08157C9.42719 1.38995 8.65791 1.76279 7.9228 2.19639C5.81169 3.43125 4.01172 5.13358 2.66115 7.17261C1.31058 9.21163 0.44536 11.5331 0.131942 13.9587C-0.181475 16.3843 0.0652542 18.8494 0.853178 21.1648C1.6411 23.4801 2.94925 25.584 4.67714 27.315C5.67288 28.3079 6.7978 29.1623 8.02158 29.855C10.0869 31.0451 12.3922 31.7583 14.7687 31.9425C17.1452 32.1267 19.5329 31.7771 21.7569 30.9194C23.9809 30.0618 25.985 28.7177 27.6225 26.9855C29.26 25.2533 30.4895 23.177 31.221 20.9083C31.6545 19.5698 31.9061 18.1791 31.9689 16.7736C32.0754 14.5504 31.7149 12.3295 30.9105 10.2541V10.24Z" fill="black"/>
<path d="M21.8771 13.6756L21.923 13.8361L22.044 13.8015V13.6756H21.8771ZM19.7262 10.9729L19.8181 10.8336L19.8171 10.8329L19.7262 10.9729ZM16.4387 6.56968L16.5626 6.45779L16.5596 6.45452L16.5565 6.4514L16.4387 6.56968ZM15.629 6.56968L15.5113 6.45136L15.5093 6.45338L15.5074 6.45546L15.629 6.56968ZM10.247 10.0186H10.4139V10.016L10.4138 10.0134L10.247 10.0186ZM10.6276 8.80002L10.7541 8.90903L10.7561 8.90662L10.7581 8.90413L10.6276 8.80002ZM6.26306 8.84867L6.16624 8.98465L6.16732 8.98541L6.26306 8.84867ZM6.61329 9.32055L6.45456 9.3722L6.45568 9.37563L6.45695 9.37902L6.61329 9.32055ZM6.70561 10.1365L6.53871 10.1343L6.53869 10.1354V10.1365H6.70561ZM6.70561 22.6924H6.53869V22.6935L6.53871 22.6947L6.70561 22.6924ZM6.61329 23.5396L6.4583 23.4776L6.4563 23.4826L6.45463 23.4878L6.61329 23.5396ZM10.6276 24.0468L10.729 23.9142L10.7231 23.9097L10.7168 23.9058L10.6276 24.0468ZM10.2627 23.2756L10.0962 23.2873L10.0964 23.2898L10.0966 23.2922L10.2627 23.2756ZM10.2963 20.8459L10.1507 20.9275L10.1517 20.9293L10.1527 20.931L10.2963 20.8459ZM21.8771 19.8611H22.044C22.044 19.7979 22.0083 19.7401 21.9518 19.7119L21.8771 19.8611ZM21.8703 23.2757L22.0365 23.2922L22.0369 23.2881L22.0371 23.2839L21.8703 23.2757ZM21.4499 24.0459L21.3595 23.9055L21.3527 23.9099L21.3464 23.9149L21.4499 24.0459ZM25.3989 23.5252L25.5578 23.474L25.5568 23.4708L25.5556 23.4676L25.3989 23.5252ZM25.3989 9.33644L25.5543 9.39745L25.5561 9.39264L25.5578 9.38773L25.3989 9.33644ZM25.7435 8.86492L25.6475 8.72841L25.6462 8.72932L25.7435 8.86492ZM21.4499 8.82178L21.3191 8.92556L21.3208 8.92771L21.3226 8.92981L21.4499 8.82178ZM21.8771 10.0134L21.7103 10.0084L21.7102 10.0109V10.0134H21.8771ZM19.5805 18.6971C18.3097 20.7648 16.9237 20.6773 16.9616 20.6792L16.9452 21.0127C17.0056 21.0156 18.5189 21.062 19.8649 18.8719L19.5805 18.6971ZM17.1203 20.8454V12.2298H16.7864V20.8454H17.1203ZM16.9376 12.3953C17.8724 12.4873 18.5281 12.9719 18.9543 13.4415C19.3816 13.9122 19.571 14.3603 19.5692 14.3561L19.8767 14.226C19.8707 14.2119 19.6637 13.7262 19.2015 13.2171C18.7383 12.7068 18.0115 12.1655 16.9702 12.0631L16.9376 12.3953ZM19.7693 14.4514L21.923 13.8361L21.8313 13.515L19.6776 14.1304L19.7693 14.4514ZM22.0356 13.6233C21.6314 12.3966 20.8141 11.4904 19.8181 10.8336L19.6343 11.1122C20.5817 11.7371 21.3427 12.5871 21.7186 13.7278L22.0356 13.6233ZM19.7262 10.9729C19.8171 10.8329 19.8171 10.8329 19.8171 10.8329L19.8157 10.832L19.8126 10.83C19.81 10.8284 19.8063 10.826 19.8015 10.823C19.792 10.8171 19.7781 10.8085 19.7601 10.7977C19.724 10.776 19.6713 10.7452 19.6032 10.7078C19.467 10.6329 19.269 10.5313 19.0192 10.4229C18.5202 10.2062 17.812 9.96099 16.9761 9.8481L16.9315 10.1789C17.7296 10.2867 18.4076 10.5212 18.8863 10.7291C19.1254 10.8329 19.3141 10.9298 19.4424 11.0003C19.5065 11.0356 19.5555 11.0642 19.5881 11.0838C19.6044 11.0936 19.6166 11.1011 19.6245 11.1061C19.6285 11.1085 19.6314 11.1104 19.6332 11.1115L19.6343 11.1122L19.6355 11.113C19.6355 11.113 19.6353 11.1129 19.7262 10.9729ZM17.1203 10.013V8.53685H16.7864V10.013H17.1203ZM16.9539 8.70322H18.2138V8.36938H16.9539V8.70322ZM18.3381 8.42348L16.5626 6.45779L16.3149 6.68156L18.0903 8.64725L18.3381 8.42348ZM16.5565 6.4514L16.1522 6.0488L15.9167 6.28536L16.3209 6.68796L16.5565 6.4514ZM15.9159 6.04876L15.5113 6.45136L15.7468 6.688L16.1514 6.2854L15.9159 6.04876ZM15.5074 6.45546L13.6627 8.42113L13.9062 8.64958L15.7508 6.6839L15.5074 6.45546ZM13.7849 8.70322H15.1679V8.36938H13.7849V8.70322ZM15.0015 8.53685V10.0082H15.3353V8.53685H15.0015ZM15.1528 9.84717C13.5402 9.94711 12.2824 10.7232 11.4298 11.4706C10.5771 12.2181 10.1191 12.9459 10.1033 12.9713L10.3864 13.1482C10.3927 13.1381 10.8307 12.4398 11.6499 11.7216C12.4693 11.0034 13.6595 10.2742 15.1735 10.1804L15.1528 9.84717ZM10.4115 13.0583L10.4139 11.2569L10.08 11.2565L10.0777 13.0579L10.4115 13.0583ZM10.4139 11.2569V10.0186H10.08V11.2565L10.4139 11.2569ZM10.4138 10.0134C10.4043 9.70642 10.4389 9.49247 10.498 9.3274C10.5568 9.16345 10.6434 9.03735 10.7541 8.90903L10.5012 8.69102C10.3747 8.83775 10.261 8.99913 10.1837 9.2148C10.1069 9.42935 10.0697 9.68714 10.0801 10.0237L10.4138 10.0134ZM10.7581 8.90413L11.9746 7.37957L11.7137 7.17135L10.4971 8.69591L10.7581 8.90413ZM11.8437 7.10764H5.16748V7.44148H11.8437V7.10764ZM5 7.27512V8.5358H5.33384V7.27512H5ZM5.14988 8.70234C5.65289 8.7555 5.97594 8.84915 6.16624 8.98465L6.35988 8.7127C6.09532 8.52433 5.69807 8.42458 5.18496 8.37035L5.14988 8.70234ZM6.16732 8.98541C6.30599 9.08251 6.40185 9.21018 6.45456 9.3722L6.77202 9.2689C6.69648 9.03672 6.55571 8.84982 6.3588 8.71194L6.16732 8.98541ZM6.45695 9.37902C6.51032 9.52171 6.54388 9.75727 6.53871 10.1343L6.87251 10.1388C6.87785 9.74954 6.84509 9.46383 6.76964 9.26208L6.45695 9.37902ZM6.53869 10.1365V11.2444H6.87253V10.1365H6.53869ZM6.53869 11.2444V14.2911H6.87253V11.2444H6.53869ZM6.53869 14.2911V15.1835H6.87253V14.2911H6.53869ZM6.53869 15.1835V15.5528H6.87253V15.1835H6.53869ZM6.53869 15.5528V15.9528H6.87253V15.5528H6.53869ZM6.53869 15.9528V16.8145H6.87253V15.9528H6.53869ZM6.53869 16.8145V20.1997H6.87253V16.8145H6.53869ZM6.53869 20.1997V22.6924H6.87253V20.1997H6.53869ZM6.53871 22.6947C6.54394 23.0768 6.51372 23.339 6.4583 23.4776L6.7683 23.6015C6.85053 23.3957 6.87778 23.0742 6.87251 22.6901L6.53871 22.6947ZM6.45463 23.4878C6.40194 23.649 6.30604 23.7768 6.16717 23.8743L6.35822 24.148C6.55493 24.0099 6.69639 23.8227 6.77196 23.5914L6.45463 23.4878ZM6.16717 23.8743C5.97641 24.0067 5.64697 24.1036 5.14947 24.1574L5.18537 24.4893C5.69516 24.4341 6.09578 24.3302 6.35822 24.148L6.16717 23.8743ZM5 24.3239V25.5846H5.33384V24.3239H5ZM5.16748 25.752H12.3367V25.4182H5.16748V25.752ZM12.5041 25.5846V24.3547H12.1703V25.5846H12.5041ZM12.3357 24.1873C11.9021 24.1898 11.5552 24.166 11.2861 24.1174C11.0147 24.0684 10.8368 23.9966 10.729 23.9142L10.5263 24.1795C10.6947 24.3082 10.9323 24.3928 11.2268 24.4459C11.5237 24.4995 11.8931 24.5237 12.3377 24.5211L12.3357 24.1873ZM10.7168 23.9058C10.5781 23.818 10.4657 23.6258 10.4288 23.2589L10.0966 23.2922C10.1377 23.7016 10.2724 24.0197 10.5384 24.1879L10.7168 23.9058ZM10.4292 23.2639C10.4193 23.1225 10.4066 22.9481 10.4114 22.8218L10.0778 22.8091C10.0721 22.9576 10.0868 23.1533 10.0962 23.2873L10.4292 23.2639ZM10.0777 22.8155V22.8462H10.4115V22.8155H10.0777ZM10.4115 22.8462V22.8452V22.8442V22.8432V22.8421V22.8411V22.8401V22.8391V22.8381V22.8371V22.836V22.835V22.834V22.8329V22.8319V22.8309V22.8299V22.8289V22.8279V22.8269V22.8258V22.8248V22.8238V22.8228L10.4114 22.8218L10.4115 22.8208V22.8197V22.8187V22.8177V22.8167V22.8155H10.0777V22.8165V22.8175V22.8185V22.8195V22.8206V22.8216V22.8226V22.8236V22.8246V22.8256V22.8266V22.8277V22.8287V22.8297V22.8308V22.8318V22.8329V22.8339V22.835V22.836V22.837V22.838V22.8391V22.8401V22.8411V22.8421V22.8431V22.8441V22.8451V22.8462H10.4115ZM10.4115 22.8155V20.7557H10.0777V22.8155H10.4115ZM10.1 20.837L10.1507 20.9275L10.4419 20.7643L10.3913 20.6739L10.1 20.837ZM10.1527 20.931C11.8913 23.8646 15.1658 23.568 15.1835 23.5664L15.1533 23.2339C15.1574 23.2335 14.3828 23.3041 13.4041 23.0281C12.428 22.7529 11.2545 22.1353 10.4399 20.7608L10.1527 20.931ZM15.0015 23.4008V24.2613H15.3353V23.4008H15.0015ZM15.169 24.4288H16.9528V24.0949H15.169V24.4288ZM17.1203 24.2613V23.3892H16.7864V24.2613H17.1203ZM16.9654 23.5551C16.9813 23.554 18.3603 23.4539 19.5681 22.7741L19.4044 22.4832C18.8367 22.8027 18.2235 22.9879 17.7476 23.0932C17.5104 23.1456 17.3089 23.1779 17.1665 23.197C17.0241 23.2162 16.9414 23.2221 16.9414 23.2221L16.9654 23.5551ZM19.5681 22.7741C20.5072 22.2455 21.1413 21.4428 22.0211 19.9457L21.7332 19.7766C20.8588 21.2646 20.262 22.0005 19.4044 22.4832L19.5681 22.7741ZM21.9518 19.7119L19.7981 18.635L19.6488 18.9336L21.8025 20.0104L21.9518 19.7119ZM15.0015 12.26V20.8151H15.3353V12.26H15.0015ZM15.1844 20.6857C14.9921 20.6295 14.1454 20.4288 13.3438 19.8162C12.5493 19.2089 11.7964 18.1943 11.7964 16.4914H11.4625C11.4625 18.3121 12.2755 19.4199 13.1411 20.0814C13.9996 20.7377 14.907 20.9525 15.0908 21.0062L15.1844 20.6857ZM11.7964 16.4914C11.7964 15.0651 12.4525 14.0796 13.2055 13.4282C13.9638 12.7723 14.8138 12.4615 15.1692 12.3931L15.1061 12.0653C14.6957 12.1443 13.7915 12.4799 12.9872 13.1757C12.1775 13.8761 11.4625 14.9481 11.4625 16.4914H11.7964ZM15.0015 20.8151C15.0015 20.7979 15.0058 20.7624 15.036 20.7288C15.0524 20.7105 15.076 20.6938 15.1061 20.6854C15.1362 20.6771 15.1637 20.6797 15.1844 20.6857L15.0908 21.0062C15.1602 21.0264 15.235 21.0069 15.2846 20.9516C15.3253 20.9062 15.3353 20.8525 15.3353 20.8151H15.0015ZM15.3353 12.26C15.3353 12.26 15.3353 12.2591 15.3354 12.2546C15.3354 12.2517 15.3355 12.2453 15.3352 12.238C15.3347 12.2272 15.333 12.1901 15.3108 12.1514C15.2826 12.1021 15.2366 12.0745 15.1914 12.0649C15.155 12.0573 15.1232 12.062 15.1061 12.0653L15.1692 12.3931C15.1692 12.3931 15.1631 12.3942 15.1562 12.3945C15.1494 12.3948 15.1375 12.3947 15.1225 12.3916C15.0864 12.384 15.0459 12.3606 15.0211 12.3172C15.0023 12.2843 15.0017 12.2529 15.0017 12.2529C15.0015 12.2499 15.0016 12.2502 15.0016 12.2502C15.0016 12.2502 15.0015 12.2559 15.0015 12.26H15.3353ZM21.7102 19.8611V22.8241H22.044V19.8611H21.7102ZM21.7102 22.8241V22.8251V22.8261V22.8271V22.8281V22.8291V22.8301V22.8312V22.8322V22.8332V22.8342V22.8352V22.8362V22.8372V22.8382V22.8392V22.8402V22.8412V22.8422V22.8432V22.8442V22.8452V22.8462V22.8472V22.8482L22.044 22.849V22.848V22.847V22.846V22.845V22.844V22.843V22.8419V22.8409V22.8399V22.8389V22.8379V22.8369V22.8359V22.8349V22.8339V22.8329V22.8319V22.8309V22.8299V22.8289V22.8279V22.8269V22.8258V22.8241H21.7102ZM21.7102 22.8482V22.8584H22.044V22.849L21.7102 22.8482ZM21.7102 22.8584C21.7102 23.0008 21.7102 23.1352 21.7036 23.2675L22.0371 23.2839C22.044 23.142 22.044 22.9994 22.044 22.8584H21.7102ZM21.7043 23.2592C21.6704 23.6003 21.5118 23.8075 21.3595 23.9055L21.5402 24.1862C21.7849 24.0288 21.9933 23.7265 22.0365 23.2922L21.7043 23.2592ZM21.3464 23.9149C21.2468 23.9936 21.0671 24.0653 20.7911 24.1152C20.5194 24.1644 20.1722 24.1894 19.7542 24.1883L19.7533 24.5221C20.183 24.5233 20.552 24.4977 20.8506 24.4437C21.1449 24.3905 21.3894 24.3064 21.5534 24.1769L21.3464 23.9149ZM19.5561 24.3849V25.5544H19.8899V24.3849H19.5561ZM19.7537 25.752H26.8009V25.4182H19.7537V25.752ZM26.9986 25.5544V24.3541H26.6648V25.5544H26.9986ZM26.8197 24.1575C26.3451 24.1039 26.0269 23.9953 25.8412 23.8613L25.6459 24.132C25.8996 24.3151 26.2847 24.433 26.7822 24.4892L26.8197 24.1575ZM25.8412 23.8613C25.7053 23.7645 25.61 23.6364 25.5578 23.474L25.24 23.5762C25.3144 23.8077 25.452 23.9939 25.6459 24.132L25.8412 23.8613ZM25.5556 23.4676C25.5319 23.4031 25.5146 23.3089 25.5041 23.1755C25.4938 23.0438 25.4907 22.8839 25.4907 22.6924H25.1569C25.1569 22.8855 25.1599 23.0562 25.1713 23.2017C25.1826 23.3456 25.2029 23.4755 25.2422 23.5827L25.5556 23.4676ZM25.4907 22.6924V20.1997H25.1569V22.6924H25.4907ZM25.4907 20.1997V16.7837H25.1569V20.1997H25.4907ZM25.4907 16.7837V15.9221H25.1569V16.7837H25.4907ZM25.4907 15.9221V15.5528H25.1569V15.9221H25.4907ZM25.4907 15.5528V15.1835H25.1569V15.5528H25.4907ZM25.4907 15.1835V14.3218H25.1569V15.1835H25.4907ZM25.4907 14.3218V11.2444H25.1569V14.3218H25.4907ZM25.4907 11.2444V10.1365H25.1569V11.2444H25.4907ZM25.4907 10.1365C25.4907 9.74137 25.5008 9.53352 25.5543 9.39745L25.2436 9.27543C25.1621 9.48283 25.1569 9.76236 25.1569 10.1365H25.4907ZM25.5578 9.38773C25.6099 9.22619 25.7045 9.09844 25.8409 9.00052L25.6462 8.72932C25.4528 8.86813 25.3145 9.05454 25.2401 9.28515L25.5578 9.38773ZM25.8396 9.00143C26.0265 8.86994 26.3515 8.75519 26.8197 8.70215L26.7822 8.37043C26.2865 8.42657 25.8988 8.55158 25.6475 8.72841L25.8396 9.00143ZM26.9986 8.50552V7.30533H26.6648V8.50552H26.9986ZM26.8009 7.10764H20.2769V7.44148H26.8009V7.10764ZM20.1154 7.40911L21.3191 8.92556L21.5806 8.718L20.3769 7.20156L20.1154 7.40911ZM21.3226 8.92981C21.4385 9.06629 21.5358 9.18757 21.6053 9.34654C21.6739 9.50342 21.7194 9.70742 21.7103 10.0084L22.044 10.0185C22.0543 9.67705 22.0029 9.42252 21.9112 9.21283C21.8205 9.00522 21.6944 8.85188 21.5771 8.71374L21.3226 8.92981ZM21.7102 10.0134V11.2751H22.044V10.0134H21.7102ZM21.7102 11.2751V13.6756H22.044V11.2751H21.7102ZM20.2769 7.10764C20.2521 7.10764 20.193 7.11091 20.1417 7.15195C20.1098 7.17734 20.0757 7.22293 20.0737 7.28687C20.0719 7.34496 20.0978 7.38701 20.1154 7.40911L20.3769 7.20156C20.3865 7.21357 20.4089 7.24675 20.4073 7.29717C20.4056 7.35345 20.3753 7.3926 20.35 7.41283C20.3277 7.43065 20.3069 7.43664 20.2987 7.43866C20.2887 7.4411 20.2812 7.44148 20.2769 7.44148V7.10764ZM26.9986 7.30533C26.9986 7.19615 26.9101 7.10764 26.8009 7.10764V7.44148C26.7258 7.44148 26.6648 7.38052 26.6648 7.30533H26.9986ZM26.9986 24.3541C26.9986 24.291 26.9685 24.2426 26.9378 24.2131C26.9073 24.1839 26.8662 24.1628 26.8197 24.1575L26.7822 24.4892C26.7513 24.4858 26.7256 24.4722 26.7066 24.454C26.6874 24.4355 26.6648 24.4015 26.6648 24.3541H26.9986ZM26.8197 8.70215C26.8662 8.6969 26.9073 8.67581 26.9378 8.64654C26.9685 8.61704 26.9986 8.56861 26.9986 8.50552H26.6648C26.6648 8.45815 26.6873 8.42422 26.7066 8.40573C26.7256 8.38748 26.7513 8.37392 26.7822 8.37043L26.8197 8.70215ZM26.8009 25.752C26.9101 25.752 26.9986 25.6635 26.9986 25.5544H26.6648C26.6648 25.4792 26.7258 25.4182 26.8009 25.4182V25.752ZM19.5561 25.5544C19.5561 25.6635 19.6446 25.752 19.7537 25.752V25.4182C19.8289 25.4182 19.8899 25.4792 19.8899 25.5544H19.5561ZM19.7542 24.1883C19.6518 24.188 19.5561 24.2686 19.5561 24.3849H19.8899C19.8899 24.4671 19.8215 24.5223 19.7533 24.5221L19.7542 24.1883ZM15.1835 23.5664C15.174 23.5673 15.1522 23.5686 15.1255 23.5615C15.0952 23.5534 15.0554 23.5331 15.0279 23.4902C15.0028 23.4509 15.0011 23.4128 15.0017 23.3943C15.0024 23.3758 15.0061 23.3616 15.0073 23.3572C15.0081 23.3542 15.0092 23.3506 15.0092 23.3506L15.0097 23.3491C15.0097 23.3491 15.0091 23.3507 15.0082 23.354C15.0064 23.3601 15.0015 23.3777 15.0015 23.4008H15.3353C15.3353 23.4237 15.3305 23.4411 15.3288 23.4471C15.3278 23.4503 15.3271 23.4524 15.3271 23.4524L15.3279 23.4502C15.3279 23.4502 15.329 23.4465 15.3298 23.4434C15.331 23.439 15.3347 23.4248 15.3354 23.4062C15.336 23.3877 15.3343 23.3495 15.3091 23.3102C15.2816 23.2673 15.2419 23.247 15.2115 23.2389C15.1848 23.2318 15.1628 23.233 15.1533 23.2339L15.1835 23.5664ZM5 8.5358C5 8.62311 5.06631 8.69351 5.14988 8.70234L5.18496 8.37035C5.26797 8.37912 5.33384 8.44905 5.33384 8.5358H5ZM10.4115 20.7557C10.4115 20.927 10.1838 20.9866 10.1 20.837L10.3913 20.6739C10.307 20.5233 10.0777 20.5833 10.0777 20.7557H10.4115ZM5.16748 7.10764C5.075 7.10764 5 7.1826 5 7.27512H5.33384C5.33384 7.36702 5.25933 7.44148 5.16748 7.44148V7.10764ZM11.9746 7.37957C12.0621 7.26988 11.984 7.10764 11.8437 7.10764V7.44148C11.7043 7.44148 11.6267 7.28032 11.7137 7.17135L11.9746 7.37957ZM12.5041 24.3547C12.5041 24.2593 12.426 24.1867 12.3357 24.1873L12.3377 24.5211C12.2479 24.5216 12.1703 24.4495 12.1703 24.3547H12.5041ZM10.1033 12.9713C10.1072 12.965 10.1159 12.9518 10.1304 12.9383C10.1432 12.9262 10.1764 12.8987 10.2287 12.8937C10.2902 12.8878 10.3374 12.916 10.3639 12.9429C10.3863 12.9659 10.3963 12.9893 10.4001 12.9989C10.408 13.019 10.4099 13.0359 10.4103 13.0393C10.4111 13.0456 10.4113 13.0506 10.4114 13.0529C10.4115 13.0555 10.4115 13.0715 10.4115 13.0583L10.0777 13.0579C10.0777 13.0453 10.0777 13.0623 10.0778 13.0657C10.0779 13.0682 10.0781 13.0734 10.0789 13.0799C10.0794 13.0834 10.0813 13.1005 10.0893 13.1207C10.093 13.1302 10.103 13.1538 10.1255 13.1767C10.152 13.2037 10.1992 13.2319 10.2607 13.226C10.3131 13.2209 10.3464 13.1934 10.3592 13.1814C10.3737 13.1677 10.3824 13.1545 10.3864 13.1482L10.1033 12.9713ZM16.1522 6.0488C16.0869 5.98374 15.9812 5.98373 15.9159 6.04876L16.1514 6.2854C16.0865 6.35 15.9815 6.34999 15.9167 6.28536L16.1522 6.0488ZM18.2138 8.70322C18.3589 8.70322 18.4354 8.53121 18.3381 8.42348L18.0903 8.64725C17.9937 8.54023 18.0696 8.36938 18.2138 8.36938V8.70322ZM17.1203 8.53685C17.1203 8.62872 17.0458 8.70322 16.9539 8.70322V8.36938C16.8614 8.36938 16.7864 8.44437 16.7864 8.53685H17.1203ZM12.3367 25.752C12.4291 25.752 12.5041 25.6771 12.5041 25.5846H12.1703C12.1703 25.4926 12.2448 25.4182 12.3367 25.4182V25.752ZM15.0015 10.0082C15.0015 9.92058 15.0701 9.85229 15.1528 9.84717L15.1735 10.1804C15.262 10.1749 15.3353 10.1017 15.3353 10.0082H15.0015ZM19.5692 14.3561C19.5727 14.3642 19.5801 14.3802 19.5942 14.3972C19.6092 14.4155 19.6352 14.4388 19.6744 14.4508C19.714 14.4629 19.7488 14.4577 19.7715 14.4508C19.792 14.4446 19.8064 14.4358 19.8116 14.4327C19.8147 14.4307 19.8185 14.4281 19.8185 14.4281L19.8201 14.427C19.8201 14.427 19.8183 14.4282 19.8149 14.4305C19.8075 14.4353 19.7917 14.445 19.7693 14.4514L19.6776 14.1304C19.655 14.1369 19.6391 14.1466 19.6316 14.1515C19.6281 14.1538 19.6257 14.1555 19.6257 14.1555L19.6278 14.1541C19.6278 14.1541 19.6316 14.1515 19.6347 14.1495C19.6397 14.1463 19.6541 14.1376 19.6747 14.1314C19.6973 14.1245 19.7321 14.1194 19.7717 14.1314C19.8109 14.1434 19.8368 14.1668 19.8518 14.1849C19.8658 14.2019 19.8733 14.2178 19.8767 14.226L19.5692 14.3561ZM5 25.5846C5 25.677 5.07497 25.752 5.16748 25.752V25.4182C5.25937 25.4182 5.33384 25.4927 5.33384 25.5846H5ZM15.1679 8.70322C15.076 8.70322 15.0015 8.62874 15.0015 8.53685H15.3353C15.3353 8.44435 15.2604 8.36938 15.1679 8.36938V8.70322ZM17.1203 12.2298C17.1203 12.3317 17.0318 12.4046 16.9376 12.3953L16.9702 12.0631C16.8754 12.0538 16.7864 12.1272 16.7864 12.2298H17.1203ZM16.9761 9.8481C17.0572 9.85904 17.1203 9.92819 17.1203 10.013H16.7864C16.7864 10.0983 16.8498 10.1679 16.9315 10.1789L16.9761 9.8481ZM5.14947 24.1574C5.06597 24.1664 5 24.2368 5 24.3239H5.33384C5.33384 24.4104 5.2683 24.4803 5.18537 24.4893L5.14947 24.1574ZM13.6627 8.42113C13.5624 8.52806 13.6382 8.70322 13.7849 8.70322V8.36938C13.9306 8.36938 14.0059 8.54336 13.9062 8.64958L13.6627 8.42113ZM19.8649 18.8719C19.822 18.9417 19.7298 18.9741 19.6488 18.9336L19.7981 18.635C19.7166 18.5942 19.6237 18.6269 19.5805 18.6971L19.8649 18.8719ZM16.9528 24.4288C17.0452 24.4288 17.1203 24.3538 17.1203 24.2613H16.7864C16.7864 24.1694 16.8609 24.0949 16.9528 24.0949V24.4288ZM17.1203 23.3892C17.1203 23.3683 17.1162 23.3523 17.1146 23.3459C17.1139 23.3433 17.1134 23.3418 17.1134 23.3418L17.1146 23.3459C17.1146 23.3459 17.1157 23.3506 17.1166 23.3546C17.1176 23.3593 17.1338 23.4251 17.0875 23.4879C17.0415 23.5501 16.9752 23.5544 16.9654 23.5551L16.9414 23.2221C16.9314 23.2229 16.865 23.2272 16.819 23.2895C16.7726 23.3523 16.7889 23.4183 16.7899 23.423C16.7907 23.4271 16.792 23.4322 16.792 23.4322L16.7931 23.4359C16.7931 23.4359 16.7928 23.4348 16.792 23.4322C16.7904 23.4259 16.7864 23.4099 16.7864 23.3892H17.1203ZM16.9616 20.6792C16.9708 20.6797 17.0402 20.6823 17.0878 20.747C17.1346 20.8109 17.117 20.878 17.1164 20.881C17.1156 20.8849 17.1142 20.8898 17.1142 20.8898L17.1132 20.8932C17.1132 20.8932 17.1135 20.8925 17.1142 20.8898C17.116 20.8834 17.1203 20.8664 17.1203 20.8454H16.7864C16.7864 20.8244 16.7904 20.8085 16.7921 20.8022C16.7928 20.7995 16.7933 20.7981 16.7933 20.7981L16.7921 20.8022C16.7921 20.8022 16.7909 20.8066 16.7901 20.8106C16.7894 20.8136 16.7718 20.8809 16.8187 20.9447C16.8663 21.0095 16.9358 21.0122 16.9452 21.0127L16.9616 20.6792ZM15.0015 24.2613C15.0015 24.3538 15.0765 24.4288 15.169 24.4288V24.0949C15.2609 24.0949 15.3353 24.1694 15.3353 24.2613H15.0015Z" fill="white"/>
<path d="M21.923 13.8361L21.8771 13.6756H22.044M21.923 13.8361L22.044 13.8015V13.6756M21.923 13.8361L19.7693 14.4514M21.923 13.8361L21.8313 13.515L19.6776 14.1304M22.044 13.6756H21.7102V11.2751M22.044 13.6756V11.2751M19.7262 10.9729L19.8181 10.8336M19.7262 10.9729L19.8171 10.8329M19.7262 10.9729C19.8171 10.8329 19.8171 10.8329 19.8171 10.8329M19.7262 10.9729C19.6353 11.1129 19.6355 11.113 19.6355 11.113M19.8181 10.8336L19.8171 10.8329M19.8181 10.8336C20.8141 11.4904 21.6314 12.3966 22.0356 13.6233L21.7186 13.7278C21.3427 12.5871 20.5817 11.7371 19.6343 11.1122M19.8181 10.8336L19.6343 11.1122M19.8171 10.8329V10.8329ZM19.8171 10.8329L19.8157 10.832L19.8126 10.83C19.81 10.8284 19.8063 10.826 19.8015 10.823C19.792 10.8171 19.7781 10.8085 19.7601 10.7977C19.724 10.776 19.6713 10.7452 19.6032 10.7078C19.467 10.6329 19.269 10.5313 19.0192 10.4229C18.5202 10.2062 17.812 9.96099 16.9761 9.8481M16.5626 6.45779L16.4387 6.56968L16.5565 6.4514M16.5626 6.45779L16.5596 6.45452L16.5565 6.4514M16.5626 6.45779L18.3381 8.42348M16.5626 6.45779L16.3149 6.68156L18.0903 8.64725M16.5565 6.4514L16.1522 6.0488M16.5565 6.4514L16.3209 6.68796L15.9167 6.28536M15.5113 6.45136L15.629 6.56968L15.5074 6.45546M15.5113 6.45136L15.5093 6.45338L15.5074 6.45546M15.5113 6.45136L15.9159 6.04876M15.5113 6.45136L15.7468 6.688L16.1514 6.2854M15.5074 6.45546L13.6627 8.42113M15.5074 6.45546L15.7508 6.6839L13.9062 8.64958M10.247 11.2567L10.4139 11.2569M10.4139 11.2569L10.4115 13.0583M10.4139 11.2569L10.08 11.2565M10.4139 11.2569V10.0186M10.4139 10.0186H10.247L10.4138 10.0134M10.4139 10.0186V10.016L10.4138 10.0134M10.4139 10.0186H10.08V11.2565M10.4138 10.0134C10.4043 9.70642 10.4389 9.49247 10.498 9.3274C10.5568 9.16345 10.6434 9.03735 10.7541 8.90903M10.4138 10.0134L10.0801 10.0237C10.0697 9.68714 10.1069 9.42935 10.1837 9.2148C10.261 8.99913 10.3747 8.83775 10.5012 8.69102L10.7541 8.90903M10.7541 8.90903L10.6276 8.80002L10.7581 8.90413M10.7541 8.90903L10.7561 8.90662L10.7581 8.90413M10.7581 8.90413L11.9746 7.37957M10.7581 8.90413L10.4971 8.69591L11.7137 7.17135M6.16624 8.98465L6.26306 8.84867L6.16732 8.98541M6.16624 8.98465L6.16732 8.98541M6.16624 8.98465C5.97594 8.84915 5.65289 8.7555 5.14988 8.70234M6.16624 8.98465L6.35988 8.7127C6.09532 8.52433 5.69807 8.42458 5.18496 8.37035M6.16732 8.98541C6.30599 9.08251 6.40185 9.21018 6.45456 9.3722M6.16732 8.98541L6.3588 8.71194C6.55571 8.84982 6.69648 9.03672 6.77202 9.2689L6.45456 9.3722M6.45456 9.3722L6.61329 9.32055L6.45695 9.37902M6.45456 9.3722L6.45568 9.37563L6.45695 9.37902M6.45695 9.37902C6.51032 9.52171 6.54388 9.75727 6.53871 10.1343M6.45695 9.37902L6.76964 9.26208C6.84509 9.46383 6.87785 9.74954 6.87251 10.1388L6.53871 10.1343M6.53871 10.1343L6.70561 10.1365H6.53869M6.53871 10.1343L6.53869 10.1354V10.1365M6.53869 10.1365V11.2444M6.53869 10.1365H6.87253V11.2444M6.53869 22.6924H6.70561L6.53871 22.6947M6.53869 22.6924V22.6935L6.53871 22.6947M6.53869 22.6924V20.1997M6.53869 22.6924H6.87253V20.1997M6.53871 22.6947C6.54394 23.0768 6.51372 23.339 6.4583 23.4776M6.53871 22.6947L6.87251 22.6901C6.87778 23.0742 6.85053 23.3957 6.7683 23.6015L6.4583 23.4776M6.4583 23.4776L6.61329 23.5396L6.45463 23.4878M6.4583 23.4776L6.4563 23.4826L6.45463 23.4878M6.45463 23.4878C6.40194 23.649 6.30604 23.7768 6.16717 23.8743M6.45463 23.4878L6.77196 23.5914C6.69639 23.8227 6.55493 24.0099 6.35822 24.148M6.26306 24.0109L6.35822 24.148M6.35822 24.148L6.16717 23.8743M6.35822 24.148C6.09578 24.3302 5.69516 24.4341 5.18537 24.4893M10.729 23.9142L10.6276 24.0468L10.7168 23.9058M10.729 23.9142L10.7231 23.9097L10.7168 23.9058M10.729 23.9142C10.8368 23.9966 11.0147 24.0684 11.2861 24.1174C11.5552 24.166 11.9021 24.1898 12.3357 24.1873M10.729 23.9142L10.5263 24.1795C10.6947 24.3082 10.9323 24.3928 11.2268 24.4459C11.5237 24.4995 11.8931 24.5237 12.3377 24.5211M10.7168 23.9058C10.5781 23.818 10.4657 23.6258 10.4288 23.2589L10.0966 23.2922M10.7168 23.9058L10.5384 24.1879C10.2724 24.0197 10.1377 23.7016 10.0966 23.2922M10.0962 23.2873L10.2627 23.2756L10.0966 23.2922M10.0962 23.2873L10.0964 23.2898L10.0966 23.2922M10.0962 23.2873C10.0868 23.1533 10.0721 22.9576 10.0778 22.8091L10.4114 22.8218M10.0962 23.2873L10.4292 23.2639C10.4193 23.1225 10.4066 22.9481 10.4114 22.8218M10.1507 20.9275L10.2963 20.8459L10.1527 20.931M10.1507 20.9275L10.1517 20.9293L10.1527 20.931M10.1507 20.9275L10.1 20.837M10.1507 20.9275L10.4419 20.7643L10.3913 20.6739M10.1527 20.931C11.8913 23.8646 15.1658 23.568 15.1835 23.5664M10.1527 20.931L10.4399 20.7608C11.2545 22.1353 12.428 22.7529 13.4041 23.0281C14.3828 23.3041 15.1574 23.2335 15.1533 23.2339M19.4863 22.6286L19.4044 22.4832M19.4044 22.4832L19.5681 22.7741M19.4044 22.4832C18.8367 22.8027 18.2235 22.9879 17.7476 23.0932C17.5104 23.1456 17.3089 23.1779 17.1665 23.197C17.0241 23.2162 16.9414 23.2221 16.9414 23.2221M19.4044 22.4832C20.262 22.0005 20.8588 21.2646 21.7332 19.7766L22.0211 19.9457C21.1413 21.4428 20.5072 22.2455 19.5681 22.7741M22.044 19.8611H21.8771L21.9518 19.7119M22.044 19.8611C22.044 19.7979 22.0083 19.7401 21.9518 19.7119M22.044 19.8611V22.8241M22.044 19.8611H21.7102V22.8241M21.9518 19.7119L19.7981 18.635M21.9518 19.7119L21.8025 20.0104L19.6488 18.9336M15.1376 20.8459L15.1844 20.6857M15.1844 20.6857C14.9921 20.6295 14.1454 20.4288 13.3438 19.8162C12.5493 19.2089 11.7964 18.1943 11.7964 16.4914M15.1844 20.6857L15.0908 21.0062M15.1844 20.6857C15.1637 20.6797 15.1362 20.6771 15.1061 20.6854C15.076 20.6938 15.0524 20.7105 15.036 20.7288C15.0058 20.7624 15.0015 20.7979 15.0015 20.8151M15.1376 12.2292L15.1692 12.3931M15.1692 12.3931C14.8138 12.4615 13.9638 12.7723 13.2055 13.4282C12.4525 14.0796 11.7964 15.0651 11.7964 16.4914M15.1692 12.3931L15.1061 12.0653M15.1692 12.3931C15.1692 12.3931 15.1631 12.3942 15.1562 12.3945C15.1494 12.3948 15.1375 12.3947 15.1225 12.3916C15.0864 12.384 15.0459 12.3606 15.0211 12.3172C15.0023 12.2843 15.0017 12.2529 15.0017 12.2529C15.0015 12.2499 15.0016 12.2502 15.0016 12.2502C15.0016 12.2502 15.0015 12.2559 15.0015 12.26M22.0365 23.2922L21.8703 23.2757L22.0371 23.2839M22.0365 23.2922L22.0369 23.2881L22.0371 23.2839M22.0365 23.2922C21.9933 23.7265 21.7849 24.0288 21.5402 24.1862L21.3595 23.9055M22.0365 23.2922L21.7043 23.2592C21.6704 23.6003 21.5118 23.8075 21.3595 23.9055M22.0371 23.2839L21.7036 23.2675C21.7102 23.1352 21.7102 23.0008 21.7102 22.8584M22.0371 23.2839C22.044 23.142 22.044 22.9994 22.044 22.8584M21.3595 23.9055L21.4499 24.0459L21.3464 23.9149M21.3595 23.9055L21.3527 23.9099L21.3464 23.9149M21.3464 23.9149C21.2468 23.9936 21.0671 24.0653 20.7911 24.1152C20.5194 24.1644 20.1722 24.1894 19.7542 24.1883M21.3464 23.9149L21.5534 24.1769C21.3894 24.3064 21.1449 24.3905 20.8506 24.4437C20.552 24.4977 20.183 24.5233 19.7533 24.5221M25.7435 23.9967L25.8412 23.8613M25.8412 23.8613C26.0269 23.9953 26.3451 24.1039 26.8197 24.1575M25.8412 23.8613L25.6459 24.132M25.8412 23.8613C25.7053 23.7645 25.61 23.6364 25.5578 23.474M25.5578 23.474L25.3989 23.5252L25.5556 23.4676M25.5578 23.474L25.5568 23.4708L25.5556 23.4676M25.5578 23.474L25.24 23.5762C25.3144 23.8077 25.452 23.9939 25.6459 24.132M25.5556 23.4676C25.5319 23.4031 25.5146 23.3089 25.5041 23.1755C25.4938 23.0438 25.4907 22.8839 25.4907 22.6924M25.5556 23.4676L25.2422 23.5827C25.2029 23.4755 25.1826 23.3456 25.1713 23.2017C25.1599 23.0562 25.1569 22.8855 25.1569 22.6924M25.5543 9.39745L25.3989 9.33644L25.5578 9.38773M25.5543 9.39745L25.5561 9.39264L25.5578 9.38773M25.5543 9.39745C25.5008 9.53352 25.4907 9.74137 25.4907 10.1365M25.5543 9.39745L25.2436 9.27543C25.1621 9.48283 25.1569 9.76236 25.1569 10.1365M25.5578 9.38773C25.6099 9.22619 25.7045 9.09844 25.8409 9.00052L25.6462 8.72932M25.5578 9.38773L25.2401 9.28515C25.3145 9.05454 25.4528 8.86813 25.6462 8.72932M25.6475 8.72841L25.7435 8.86492L25.6462 8.72932M25.6475 8.72841L25.6462 8.72932M25.6475 8.72841C25.8988 8.55158 26.2865 8.42657 26.7822 8.37043M25.6475 8.72841L25.8396 9.00143C26.0265 8.86994 26.3515 8.75519 26.8197 8.70215M21.3191 8.92556L21.4499 8.82178L21.3226 8.92981M21.3191 8.92556L21.3208 8.92771L21.3226 8.92981M21.3191 8.92556L20.1154 7.40911M21.3191 8.92556L21.5806 8.718L20.3769 7.20156M21.3226 8.92981C21.4385 9.06629 21.5358 9.18757 21.6053 9.34654C21.6739 9.50342 21.7194 9.70742 21.7103 10.0084M21.3226 8.92981L21.5771 8.71374C21.6944 8.85188 21.8205 9.00522 21.9112 9.21283C22.0029 9.42252 22.0543 9.67705 22.044 10.0185L21.7103 10.0084M21.7103 10.0084L21.8771 10.0134H21.7102M21.7103 10.0084L21.7102 10.0109V10.0134M21.7102 10.0134V11.2751M21.7102 10.0134H22.044V11.2751M20.2461 7.30533L20.3769 7.20156M20.3769 7.20156L20.1154 7.40911M20.3769 7.20156C20.3865 7.21357 20.4089 7.24675 20.4073 7.29717C20.4056 7.35345 20.3753 7.3926 20.35 7.41283C20.3277 7.43065 20.3069 7.43664 20.2987 7.43866C20.2887 7.4411 20.2812 7.44148 20.2769 7.44148M26.801 24.3234L26.8197 24.1575M26.8197 24.1575L26.7822 24.4892M26.8197 24.1575C26.8662 24.1628 26.9073 24.1839 26.9378 24.2131C26.9685 24.2426 26.9986 24.291 26.9986 24.3541M26.801 8.5363L26.7822 8.37043M26.7822 8.37043L26.8197 8.70215M26.7822 8.37043C26.7513 8.37392 26.7256 8.38748 26.7066 8.40573C26.6873 8.42422 26.6648 8.45815 26.6648 8.50552M19.7537 24.3552L19.7542 24.1883M19.7542 24.1883L19.7533 24.5221M19.7542 24.1883C19.6518 24.188 19.5561 24.2686 19.5561 24.3849M15.1684 23.4002L15.1533 23.2339M15.1533 23.2339L15.1835 23.5664M15.1533 23.2339C15.1628 23.233 15.1848 23.2318 15.2115 23.2389C15.2419 23.247 15.2816 23.2673 15.3091 23.3102C15.3343 23.3495 15.336 23.3877 15.3354 23.4062C15.3347 23.4248 15.331 23.439 15.3298 23.4434C15.329 23.4465 15.3279 23.4502 15.3279 23.4502L15.3271 23.4524M5.16742 8.53635L5.18496 8.37035M5.18496 8.37035L5.14988 8.70234M5.18496 8.37035C5.26797 8.37912 5.33384 8.44905 5.33384 8.5358M10.2456 20.7554L10.3913 20.6739M10.3913 20.6739L10.1 20.837M10.3913 20.6739C10.307 20.5233 10.0777 20.5833 10.0777 20.7557M11.8441 7.27546L11.9746 7.37957M11.9746 7.37957L11.7137 7.17135M11.9746 7.37957C12.0621 7.26988 11.984 7.10764 11.8437 7.10764M12.3367 24.3541L12.3377 24.5211M12.3377 24.5211L12.3357 24.1873M12.3377 24.5211C12.2479 24.5216 12.1703 24.4495 12.1703 24.3547M10.2448 13.0597L10.1033 12.9713M10.1033 12.9713C10.1191 12.9459 10.5771 12.2181 11.4298 11.4706C12.2824 10.7232 13.5402 9.94711 15.1528 9.84717M10.1033 12.9713L10.3864 13.1482M10.1033 12.9713C10.1072 12.965 10.1159 12.9518 10.1304 12.9383C10.1432 12.9262 10.1764 12.8987 10.2287 12.8937C10.2902 12.8877 10.3374 12.916 10.3639 12.9429C10.3863 12.9659 10.3963 12.9893 10.4001 12.9989C10.408 13.019 10.4099 13.0359 10.4103 13.0393C10.4111 13.0456 10.4113 13.0506 10.4114 13.0529C10.4115 13.0555 10.4115 13.0715 10.4115 13.0583M10.2446 13.0581L10.0777 13.0579M10.0777 13.0579L10.08 11.2565M10.0777 13.0579L10.4115 13.0583M10.0777 13.0579C10.0777 13.0453 10.0777 13.0623 10.0778 13.0657C10.0779 13.0682 10.0781 13.0734 10.0789 13.0799C10.0794 13.0834 10.0813 13.1005 10.0893 13.1207C10.093 13.1302 10.103 13.1538 10.1255 13.1767C10.152 13.2037 10.1992 13.2319 10.2607 13.226C10.3131 13.2209 10.3464 13.1934 10.3592 13.1814C10.3737 13.1677 10.3824 13.1545 10.3864 13.1482M15.9167 6.28536L16.0344 6.16708L16.1514 6.2854M15.9167 6.28536L16.1522 6.0488M15.9167 6.28536C15.9815 6.34999 16.0865 6.35 16.1514 6.2854M16.1514 6.2854L15.9159 6.04876M18.2142 8.53537L18.0903 8.64725M18.0903 8.64725L18.3381 8.42348M18.0903 8.64725C17.9937 8.54023 18.0696 8.36938 18.2138 8.36938M15.1631 10.0138L15.1528 9.84717M15.1528 9.84717L15.1735 10.1804M15.1528 9.84717C15.0701 9.85229 15.0015 9.92058 15.0015 10.0082M19.7229 14.291L19.5692 14.3561M19.5692 14.3561C19.571 14.3603 19.3816 13.9122 18.9543 13.4415C18.5281 12.9719 17.8724 12.4873 16.9376 12.3953M19.5692 14.3561L19.8767 14.226M19.5692 14.3561C19.5727 14.3642 19.5801 14.3802 19.5942 14.3972C19.6092 14.4155 19.6352 14.4388 19.6744 14.4508C19.714 14.4629 19.7488 14.4577 19.7715 14.4508C19.792 14.4446 19.8064 14.4358 19.8116 14.4327C19.8147 14.4307 19.8185 14.4281 19.8185 14.4281L19.8201 14.427M16.9539 12.2292L16.9702 12.0631M16.9702 12.0631C18.0115 12.1655 18.7383 12.7068 19.2015 13.2171C19.6637 13.7262 19.8707 14.2119 19.8767 14.226M16.9702 12.0631L16.9376 12.3953M16.9702 12.0631C16.8754 12.0538 16.7864 12.1272 16.7864 12.2298M16.9538 10.0135L16.9315 10.1789M16.9315 10.1789L16.9761 9.8481M16.9315 10.1789C17.7296 10.2867 18.4076 10.5212 18.8863 10.7291C19.1254 10.8329 19.3141 10.9298 19.4424 11.0003C19.5065 11.0356 19.5555 11.0642 19.5881 11.0838C19.6044 11.0936 19.6166 11.1011 19.6245 11.1061C19.6285 11.1085 19.6314 11.1104 19.6332 11.1115L19.6343 11.1122M16.9315 10.1789C16.8498 10.1679 16.7864 10.0983 16.7864 10.013M5.16742 24.3233L5.14947 24.1574M5.14947 24.1574C5.64697 24.1036 5.97641 24.0067 6.16717 23.8743M5.14947 24.1574L5.18537 24.4893M5.14947 24.1574C5.06597 24.1664 5 24.2368 5 24.3239M13.7845 8.53536L13.6627 8.42113M13.6627 8.42113L13.9062 8.64958M13.6627 8.42113C13.5624 8.52806 13.6382 8.70322 13.7849 8.70322M19.7227 18.7845L19.5805 18.6971M19.5805 18.6971C18.3097 20.7648 16.9237 20.6773 16.9616 20.6792M19.5805 18.6971L19.8649 18.8719M19.5805 18.6971C19.6237 18.6269 19.7166 18.5942 19.7981 18.635M16.9534 23.3887L16.9654 23.5551M16.9654 23.5551C16.9813 23.554 18.3603 23.4539 19.5681 22.7741M16.9654 23.5551L16.9414 23.2221M16.9654 23.5551C16.9752 23.5544 17.0415 23.5501 17.0875 23.4879C17.1338 23.4251 17.1176 23.3593 17.1166 23.3546C17.1157 23.3506 17.1146 23.3459 17.1146 23.3459M16.9534 20.8459L16.9616 20.6792M16.9616 20.6792L16.9452 21.0127M16.9616 20.6792C16.9708 20.6797 17.0402 20.6823 17.0878 20.747C17.1346 20.8109 17.117 20.878 17.1164 20.881C17.1156 20.8849 17.1142 20.8898 17.1142 20.8898M16.9452 21.0127C17.0056 21.0156 18.5189 21.062 19.8649 18.8719M16.9452 21.0127C16.9358 21.0122 16.8663 21.0095 16.8187 20.9447C16.7718 20.8809 16.7894 20.8136 16.7901 20.8106C16.7909 20.8066 16.7921 20.8022 16.7921 20.8022M19.8649 18.8719C19.822 18.9417 19.7298 18.9741 19.6488 18.9336M17.1203 20.8454V12.2298M17.1203 20.8454H16.7864M17.1203 20.8454C17.1203 20.8664 17.116 20.8834 17.1142 20.8898M17.1203 12.2298H16.7864M17.1203 12.2298C17.1203 12.3317 17.0318 12.4046 16.9376 12.3953M16.7864 12.2298V20.8454M16.7864 20.8454C16.7864 20.8244 16.7904 20.8085 16.7921 20.8022M19.8767 14.226C19.8733 14.2178 19.8658 14.2019 19.8518 14.1849C19.8368 14.1668 19.8109 14.1434 19.7717 14.1314C19.7321 14.1194 19.6973 14.1245 19.6747 14.1314C19.6541 14.1376 19.6397 14.1463 19.6347 14.1495C19.6316 14.1515 19.6278 14.1541 19.6278 14.1541L19.6257 14.1555M19.7693 14.4514L19.6776 14.1304M19.7693 14.4514C19.7917 14.445 19.8075 14.4353 19.8149 14.4305C19.8183 14.4282 19.8201 14.427 19.8201 14.427M19.6776 14.1304C19.655 14.1369 19.6391 14.1466 19.6316 14.1515C19.6281 14.1538 19.6257 14.1555 19.6257 14.1555M19.6343 11.1122L19.6355 11.113M16.9761 9.8481C17.0572 9.85904 17.1203 9.92819 17.1203 10.013M19.6355 11.113V11.113ZM17.1203 10.013V8.53685M17.1203 10.013H16.7864M17.1203 8.53685H16.7864M17.1203 8.53685C17.1203 8.62872 17.0458 8.70322 16.9539 8.70322M16.7864 8.53685V10.013M16.7864 8.53685C16.7864 8.44437 16.8614 8.36938 16.9539 8.36938M16.9539 8.70322H18.2138M16.9539 8.70322V8.36938M18.2138 8.70322V8.36938M18.2138 8.70322C18.3589 8.70322 18.4354 8.53121 18.3381 8.42348M18.2138 8.36938H16.9539M16.1522 6.0488C16.0869 5.98374 15.9812 5.98373 15.9159 6.04876M13.9062 8.64958C14.0059 8.54336 13.9306 8.36938 13.7849 8.36938M13.7849 8.70322H15.1679M13.7849 8.70322V8.36938M15.1679 8.70322V8.36938M15.1679 8.70322C15.076 8.70322 15.0015 8.62874 15.0015 8.53685M15.1679 8.36938H13.7849M15.1679 8.36938C15.2604 8.36938 15.3353 8.44435 15.3353 8.53685M15.0015 8.53685V10.0082M15.0015 8.53685H15.3353M15.0015 10.0082H15.3353M15.3353 10.0082V8.53685M15.3353 10.0082C15.3353 10.1017 15.262 10.1749 15.1735 10.1804M10.3864 13.1482C10.3927 13.1381 10.8307 12.4398 11.6499 11.7216C12.4693 11.0034 13.6595 10.2742 15.1735 10.1804M11.7137 7.17135C11.6267 7.28032 11.7043 7.44148 11.8437 7.44148M11.8437 7.10764H5.16748M11.8437 7.10764V7.44148M5.16748 7.10764V7.44148M5.16748 7.10764C5.075 7.10764 5 7.1826 5 7.27512M5.16748 7.44148H11.8437M5.16748 7.44148C5.25933 7.44148 5.33384 7.36702 5.33384 7.27512M5 7.27512V8.5358M5 7.27512H5.33384M5 8.5358H5.33384M5 8.5358C5 8.62311 5.06631 8.69351 5.14988 8.70234M5.33384 8.5358V7.27512M6.53869 11.2444H6.87253M6.53869 11.2444V14.2911M6.87253 11.2444V14.2911M6.53869 14.2911H6.87253M6.53869 14.2911V15.1835M6.87253 14.2911V15.1835M6.53869 15.1835H6.87253M6.53869 15.1835V15.5528M6.87253 15.1835V15.5528M6.53869 15.5528H6.87253M6.53869 15.5528V15.9528M6.87253 15.5528V15.9528M6.53869 15.9528H6.87253M6.53869 15.9528V16.8145M6.87253 15.9528V16.8145M6.53869 16.8145H6.87253M6.53869 16.8145V20.1997M6.87253 16.8145V20.1997M6.53869 20.1997H6.87253M5.18537 24.4893C5.2683 24.4803 5.33384 24.4104 5.33384 24.3239M5 24.3239V25.5846M5 24.3239H5.33384M5 25.5846H5.33384M5 25.5846C5 25.677 5.07497 25.752 5.16748 25.752M5.33384 25.5846V24.3239M5.33384 25.5846C5.33384 25.4927 5.25937 25.4182 5.16748 25.4182M5.16748 25.752H12.3367M5.16748 25.752V25.4182M12.3367 25.752V25.4182M12.3367 25.752C12.4291 25.752 12.5041 25.6771 12.5041 25.5846M12.3367 25.4182H5.16748M12.3367 25.4182C12.2448 25.4182 12.1703 25.4926 12.1703 25.5846M12.5041 25.5846V24.3547M12.5041 25.5846H12.1703M12.5041 24.3547H12.1703M12.5041 24.3547C12.5041 24.2593 12.426 24.1867 12.3357 24.1873M12.1703 24.3547V25.5846M10.4114 22.8218L10.4115 22.8228M10.4114 22.8218V22.8218ZM10.4114 22.8218L10.4115 22.8208M10.0777 22.8155V22.8462M10.0777 22.8155H10.4115M10.0777 22.8155V22.8165V22.8175M10.0777 22.8155V20.7557M10.0777 22.8462H10.4115M10.0777 22.8462V22.8451V22.8441V22.8431M10.4115 22.8462V22.8155M10.4115 22.8462V22.8452V22.8442M10.4115 22.8155V22.8167V22.8177V22.8187M10.4115 22.8155V20.7557M10.4115 22.8442V22.8442ZM10.4115 22.8442V22.8432M10.4115 22.8432V22.8432ZM10.4115 22.8432V22.8421M10.4115 22.8421V22.8421ZM10.4115 22.8421V22.8411M10.4115 22.8411V22.8411ZM10.4115 22.8411V22.8401M10.4115 22.8401V22.8401ZM10.4115 22.8401V22.8391M10.4115 22.8391V22.8391ZM10.4115 22.8391V22.8381M10.4115 22.8381V22.8381ZM10.4115 22.8381V22.8371M10.4115 22.8371V22.8371ZM10.4115 22.8371V22.836M10.4115 22.836V22.836ZM10.4115 22.836V22.835M10.4115 22.835V22.835ZM10.4115 22.835V22.834M10.4115 22.834V22.834ZM10.4115 22.834V22.8329M10.4115 22.8329V22.8329ZM10.4115 22.8329V22.8319M10.4115 22.8319V22.8319ZM10.4115 22.8319V22.8309M10.4115 22.8309V22.8309ZM10.4115 22.8309V22.8299M10.4115 22.8299V22.8299ZM10.4115 22.8299V22.8289M10.4115 22.8289V22.8289ZM10.4115 22.8289V22.8279M10.4115 22.8279V22.8279ZM10.4115 22.8279V22.8269M10.4115 22.8269V22.8269ZM10.4115 22.8269V22.8258M10.4115 22.8258V22.8258ZM10.4115 22.8258V22.8248M10.4115 22.8248V22.8248ZM10.4115 22.8248V22.8238M10.4115 22.8238V22.8238ZM10.4115 22.8238V22.8228M10.4115 22.8228V22.8228ZM10.4115 22.8208V22.8208ZM10.4115 22.8208V22.8197M10.4115 22.8197V22.8197ZM10.4115 22.8197V22.8187M10.4115 22.8187V22.8187ZM10.0777 22.8175V22.8175ZM10.0777 22.8175V22.8185V22.8195M10.0777 22.8195V22.8195ZM10.0777 22.8195V22.8206M10.0777 22.8206V22.8206ZM10.0777 22.8206V22.8216M10.0777 22.8216V22.8216ZM10.0777 22.8216V22.8226M10.0777 22.8226V22.8226ZM10.0777 22.8226V22.8236M10.0777 22.8236V22.8236ZM10.0777 22.8236V22.8246M10.0777 22.8246V22.8246ZM10.0777 22.8246V22.8256M10.0777 22.8256V22.8256ZM10.0777 22.8256V22.8266M10.0777 22.8266V22.8266ZM10.0777 22.8266V22.8277M10.0777 22.8277V22.8277ZM10.0777 22.8277V22.8287M10.0777 22.8287V22.8287ZM10.0777 22.8287V22.8297M10.0777 22.8297V22.8297ZM10.0777 22.8297V22.8308M10.0777 22.8308V22.8308ZM10.0777 22.8308V22.8318M10.0777 22.8318V22.8318ZM10.0777 22.8318V22.8329M10.0777 22.8329V22.8329ZM10.0777 22.8329V22.8339M10.0777 22.8339V22.8339ZM10.0777 22.8339V22.835M10.0777 22.835V22.835ZM10.0777 22.835V22.836M10.0777 22.836V22.836ZM10.0777 22.836V22.837M10.0777 22.837V22.837ZM10.0777 22.837V22.838M10.0777 22.838V22.838ZM10.0777 22.838V22.8391M10.0777 22.8391V22.8391ZM10.0777 22.8391V22.8401M10.0777 22.8401V22.8401ZM10.0777 22.8401V22.8411M10.0777 22.8411V22.8411ZM10.0777 22.8411V22.8421M10.0777 22.8421V22.8421ZM10.0777 22.8421V22.8431M10.0777 22.8431V22.8431ZM10.4115 20.7557H10.0777M10.4115 20.7557C10.4115 20.927 10.1838 20.9866 10.1 20.837M15.1835 23.5664C15.174 23.5673 15.1522 23.5686 15.1255 23.5615C15.0952 23.5534 15.0554 23.5331 15.0279 23.4902C15.0028 23.4509 15.0011 23.4128 15.0017 23.3943C15.0024 23.3758 15.0061 23.3616 15.0073 23.3572C15.0081 23.3542 15.0092 23.3506 15.0092 23.3506L15.0097 23.3491C15.0097 23.3491 15.0091 23.3507 15.0082 23.354C15.0064 23.3601 15.0015 23.3777 15.0015 23.4008M15.0015 23.4008V24.2613M15.0015 23.4008H15.3353M15.0015 24.2613H15.3353M15.0015 24.2613C15.0015 24.3538 15.0765 24.4288 15.169 24.4288M15.3353 24.2613V23.4008M15.3353 24.2613C15.3353 24.1694 15.2609 24.0949 15.169 24.0949M15.3353 23.4008C15.3353 23.4237 15.3305 23.4411 15.3288 23.4471C15.3278 23.4503 15.3271 23.4524 15.3271 23.4524M15.169 24.4288H16.9528M15.169 24.4288V24.0949M16.9528 24.4288V24.0949M16.9528 24.4288C17.0453 24.4288 17.1203 24.3538 17.1203 24.2613M16.9528 24.0949H15.169M16.9528 24.0949C16.8609 24.0949 16.7864 24.1694 16.7864 24.2613M17.1203 24.2613V23.3892M17.1203 24.2613H16.7864M17.1203 23.3892H16.7864M17.1203 23.3892C17.1203 23.3683 17.1162 23.3523 17.1146 23.3459M16.7864 23.3892V24.2613M16.7864 23.3892C16.7864 23.4099 16.7904 23.4259 16.792 23.4322M16.9414 23.2221C16.9314 23.2229 16.865 23.2272 16.819 23.2895C16.7726 23.3523 16.7889 23.4183 16.7899 23.423C16.7907 23.4271 16.792 23.4322 16.792 23.4322M19.7981 18.635L19.6488 18.9336M15.0015 12.26V20.8151M15.0015 12.26H15.3353M15.0015 20.8151H15.3353M15.3353 20.8151V12.26M15.3353 20.8151C15.3353 20.8525 15.3253 20.9062 15.2846 20.9516C15.235 21.0069 15.1602 21.0264 15.0908 21.0062M15.3353 12.26C15.3353 12.26 15.3353 12.2591 15.3354 12.2546C15.3354 12.2517 15.3355 12.2453 15.3352 12.238C15.3347 12.2272 15.333 12.1901 15.3108 12.1514C15.2826 12.1021 15.2366 12.0745 15.1914 12.0649C15.155 12.0573 15.1232 12.062 15.1061 12.0653M11.7964 16.4914H11.4625M11.4625 16.4914C11.4625 18.3121 12.2755 19.4199 13.1411 20.0814C13.9996 20.7377 14.907 20.9525 15.0908 21.0062M11.4625 16.4914C11.4625 14.9481 12.1775 13.8761 12.9872 13.1757C13.7915 12.4799 14.6957 12.1443 15.1061 12.0653M21.7102 22.8241H22.044M21.7102 22.8241V22.8251V22.8261V22.8271V22.8281V22.8291V22.8301V22.8312V22.8322V22.8332V22.8342V22.8352V22.8362V22.8372V22.8382V22.8392V22.8402V22.8412V22.8422V22.8432V22.8442V22.8452V22.8462V22.8472V22.8482M22.044 22.8241V22.8258V22.8269V22.8279V22.8289V22.8299V22.8309V22.8319V22.8329V22.8339V22.8349V22.8359V22.8369V22.8379V22.8389V22.8399V22.8409V22.8419V22.843V22.844V22.845V22.846V22.847V22.848V22.849M21.7102 22.8482V22.8482ZM21.7102 22.8482L22.044 22.849M21.7102 22.8482V22.8584M22.044 22.849V22.849ZM22.044 22.849V22.8584M21.7102 22.8584H22.044M19.7533 24.5221C19.8215 24.5223 19.8899 24.4671 19.8899 24.3849M19.5561 24.3849V25.5544M19.5561 24.3849H19.8899M19.5561 25.5544H19.8899M19.5561 25.5544C19.5561 25.6635 19.6446 25.752 19.7537 25.752M19.8899 25.5544V24.3849M19.8899 25.5544C19.8899 25.4792 19.8289 25.4182 19.7537 25.4182M19.7537 25.752H26.8009M19.7537 25.752V25.4182M26.8009 25.752V25.4182M26.8009 25.752C26.9101 25.752 26.9986 25.6635 26.9986 25.5544M26.8009 25.4182H19.7537M26.8009 25.4182C26.7258 25.4182 26.6648 25.4792 26.6648 25.5544M26.9986 25.5544V24.3541M26.9986 25.5544H26.6648M26.9986 24.3541H26.6648M26.6648 24.3541V25.5544M26.6648 24.3541C26.6648 24.4015 26.6874 24.4355 26.7066 24.454C26.7256 24.4722 26.7513 24.4858 26.7822 24.4892M25.6459 24.132C25.8996 24.3151 26.2848 24.433 26.7822 24.4892M25.4907 22.6924H25.1569M25.4907 22.6924V20.1997M25.1569 22.6924V20.1997M25.4907 20.1997H25.1569M25.4907 20.1997V16.7837M25.1569 20.1997V16.7837M25.4907 16.7837H25.1569M25.4907 16.7837V15.9221M25.1569 16.7837V15.9221M25.4907 15.9221H25.1569M25.4907 15.9221V15.5528M25.1569 15.9221V15.5528M25.4907 15.5528H25.1569M25.4907 15.5528V15.1835M25.1569 15.5528V15.1835M25.4907 15.1835H25.1569M25.4907 15.1835V14.3218M25.1569 15.1835V14.3218M25.4907 14.3218H25.1569M25.4907 14.3218V11.2444M25.1569 14.3218V11.2444M25.4907 11.2444H25.1569M25.4907 11.2444V10.1365M25.1569 11.2444V10.1365M25.4907 10.1365H25.1569M26.8197 8.70215C26.8662 8.6969 26.9073 8.67581 26.9378 8.64654C26.9685 8.61704 26.9986 8.56861 26.9986 8.50552M26.9986 8.50552V7.30533M26.9986 8.50552H26.6648M26.9986 7.30533H26.6648M26.9986 7.30533C26.9986 7.19615 26.9101 7.10764 26.8009 7.10764M26.6648 7.30533V8.50552M26.6648 7.30533C26.6648 7.38052 26.7258 7.44148 26.8009 7.44148M26.8009 7.10764H20.2769M26.8009 7.10764V7.44148M20.2769 7.10764V7.44148M20.2769 7.10764C20.2521 7.10764 20.193 7.11091 20.1417 7.15195C20.1098 7.17734 20.0757 7.22293 20.0737 7.28687C20.0719 7.34496 20.0978 7.38701 20.1154 7.40911M20.2769 7.44148H26.8009M21.7102 11.2751H22.044M15.3271 23.4524V23.4524ZM19.8201 14.427V14.427ZM19.6257 14.1555V14.1555ZM17.1146 23.3459C17.1139 23.3433 17.1134 23.3418 17.1134 23.3418L17.1146 23.3459ZM16.792 23.4322L16.7931 23.4359C16.7931 23.4359 16.7928 23.4348 16.792 23.4322ZM17.1142 20.8898L17.1132 20.8932C17.1132 20.8932 17.1135 20.8925 17.1142 20.8898ZM16.7921 20.8022C16.7928 20.7995 16.7933 20.7981 16.7933 20.7981L16.7921 20.8022Z" stroke="white" stroke-width="0.5"/>
</svg>
