<svg height="32" viewBox="0 0 32 32" width="32" xmlns="http://www.w3.org/2000/svg"><path d="m11.2961059 22.4716611c1.3202138.9612433 2.9458278 1.5283389 4.7038941 1.5283389 4.418278 0 8-3.581722 8-8 0-1.7580663-.5670956-3.3836803-1.5283389-4.7038941l-2.163935 2.1639349c.4398622.7443916.6922739 1.6126984.6922739 2.5399592 0 2.7614237-2.2385763 5-5 5-.9272608 0-1.7955676-.2524117-2.5399592-.6922739zm-1.76776696-1.767767 2.16393496-2.1639349c-.4398622-.7443916-.6922739-1.6126984-.6922739-2.5399592 0-2.7614237 2.2385763-5 5-5 .9272608 0 1.7955676.2524117 2.5399592.6922739l2.1639349-2.16393496c-1.3202138-.96124334-2.9458278-1.52833894-4.7038941-1.52833894-4.418278 0-8 3.581722-8 8 0 1.7580663.5670956 3.3836803 1.52833894 4.7038941zm6.47166106 11.2961059c-8.836556 0-16-7.163444-16-16s7.163444-16 16-16 16 7.163444 16 16-7.163444 16-16 16zm8-22c1.1045695 0 2-.8954305 2-2s-.8954305-2-2-2-2 .8954305-2 2 .8954305 2 2 2zm-16 16c1.1045695 0 2-.8954305 2-2s-.8954305-2-2-2-2 .8954305-2 2 .8954305 2 2 2z" fill-rule="evenodd"/></svg>