<svg width="32" height="32" viewBox="0 0 32 32" fill="none" xmlns="http://www.w3.org/2000/svg">
<path d="M30.9105 10.24C30.1561 8.27835 29.0219 6.48488 27.5731 4.96235C26.1243 3.43981 24.3893 2.21815 22.4675 1.36736C20.5456 0.516577 18.4748 0.0533911 16.3737 0.00434968C14.2726 -0.0446917 12.1824 0.321376 10.223 1.08157C9.42719 1.38995 8.65791 1.76279 7.9228 2.19639C5.81169 3.43125 4.01172 5.13358 2.66115 7.17261C1.31058 9.21163 0.44536 11.5331 0.131942 13.9587C-0.181475 16.3843 0.0652542 18.8494 0.853178 21.1648C1.6411 23.4801 2.94925 25.584 4.67714 27.315C5.67288 28.3079 6.7978 29.1623 8.02158 29.855C10.0869 31.0451 12.3922 31.7583 14.7687 31.9425C17.1452 32.1267 19.5329 31.7771 21.7569 30.9194C23.9809 30.0618 25.985 28.7177 27.6225 26.9855C29.26 25.2533 30.4895 23.177 31.221 20.9083C31.6545 19.5698 31.9061 18.1791 31.9689 16.7736C32.0754 14.5504 31.7149 12.3295 30.9105 10.2541V10.24Z" fill="black"/>
<path d="M5.25574 6.90963H10.6181C11.3431 6.90808 12.0664 6.97899 12.7772 7.12131C13.4264 7.24331 14.048 7.4824 14.6117 7.82688C15.1468 8.15726 15.5888 8.61867 15.8959 9.16748C16.2204 9.73194 16.3756 10.4516 16.3756 11.3265C16.3756 12.4555 16.0793 13.3868 15.4584 14.1489C14.7852 14.9321 13.8339 15.423 12.8054 15.5177L16.8978 22.3477H13.5957L10.0113 15.814H8.00749V22.3618H5.25574V6.90963ZM10.1524 13.4574C10.5335 13.4574 10.9286 13.4433 11.3237 13.4009C11.6976 13.3686 12.0642 13.2781 12.4103 13.1328C12.7256 13.0022 12.999 12.7874 13.2005 12.5119C13.3981 12.2297 13.511 11.8346 13.511 11.3124C13.5282 10.9301 13.4299 10.5515 13.2288 10.2258C13.0406 9.95812 12.7816 9.74802 12.4809 9.61905C12.158 9.47779 11.8153 9.38735 11.4648 9.35093C11.1091 9.3058 10.7509 9.28224 10.3923 9.28037H8.00749V13.4715H10.1524V13.4574ZM17.0671 11.1995H19.5507V12.78H19.5931C19.9423 12.1663 20.4754 11.6776 21.1171 11.383C21.7699 11.0936 22.4776 10.9492 23.1915 10.9596C23.933 10.9467 24.6689 11.091 25.3506 11.383C25.9714 11.6495 26.5292 12.0438 26.9875 12.5401C27.4458 13.0424 27.7963 13.6331 28.0177 14.2759C28.2505 14.9716 28.3649 15.7014 28.3564 16.4349C28.3635 17.1707 28.2393 17.9019 27.9895 18.594C27.7603 19.2374 27.4107 19.8313 26.9593 20.3438C26.5108 20.8424 25.9628 21.2414 25.3506 21.5151C24.7065 21.8005 24.0089 21.9449 23.3044 21.9384C22.8621 21.9437 22.4209 21.8916 21.992 21.7832C21.6484 21.6909 21.3168 21.5583 21.0042 21.3881C20.7368 21.2472 20.4859 21.0768 20.2563 20.8801C20.07 20.7182 19.8999 20.5386 19.7483 20.3438H19.6777V26.6376H17.0671V11.2137V11.1995ZM25.7457 16.4349C25.7449 16.0351 25.6732 15.6385 25.534 15.2637C25.4005 14.8927 25.1942 14.552 24.9272 14.2618C24.4774 13.7999 23.8981 13.4852 23.2657 13.3593C22.6334 13.2333 21.9778 13.302 21.3852 13.5562C21.0169 13.7241 20.6858 13.964 20.4115 14.2618C20.1446 14.552 19.9383 14.8927 19.8048 15.2637C19.5276 16.0248 19.5276 16.8592 19.8048 17.6203C19.938 17.9915 20.1443 18.3322 20.4115 18.6222C20.8614 19.0841 21.4407 19.3987 22.0731 19.5247C22.7054 19.6507 23.361 19.582 23.9536 19.3278C24.3216 19.1593 24.6525 18.9195 24.9272 18.6222C25.1945 18.3322 25.4008 17.9915 25.534 17.6203C25.6732 17.2454 25.7449 16.8489 25.7457 16.449V16.4349Z" fill="white"/>
</svg>
