<?xml version="1.0" encoding="UTF-8"?>
<svg xmlns="http://www.w3.org/2000/svg" xmlns:xlink="http://www.w3.org/1999/xlink" width="32px" height="32px" viewBox="0 0 32 32" version="1.1">
<defs>
<linearGradient id="linear0" gradientUnits="userSpaceOnUse" x1="0" y1="0" x2="1" y2="0" gradientTransform="matrix(6.256454,-15.172213,10.837295,8.759036,10.618201,25.49038)">
<stop offset="0" style="stop-color:rgb(9.019608%,30.588235%,35.686275%);stop-opacity:1;"/>
<stop offset="0.07" style="stop-color:rgb(9.803922%,35.294118%,42.352941%);stop-opacity:1;"/>
<stop offset="0.21" style="stop-color:rgb(11.764706%,46.666667%,60.392157%);stop-opacity:1;"/>
<stop offset="0.4" style="stop-color:rgb(15.294118%,65.490196%,89.019608%);stop-opacity:1;"/>
<stop offset="0.47" style="stop-color:rgb(16.470588%,72.941176%,100%);stop-opacity:1;"/>
<stop offset="0.7" style="stop-color:rgb(11.372549%,85.490196%,94.117647%);stop-opacity:1;"/>
<stop offset="1" style="stop-color:rgb(5.490196%,100%,87.843137%);stop-opacity:1;"/>
</linearGradient>
<linearGradient id="linear1" gradientUnits="userSpaceOnUse" x1="0" y1="0" x2="1" y2="0" gradientTransform="matrix(-6.256956,15.171044,-10.83646,-8.759738,21.341176,6.510071)">
<stop offset="0" style="stop-color:rgb(9.019608%,30.588235%,35.686275%);stop-opacity:1;"/>
<stop offset="0.07" style="stop-color:rgb(9.803922%,35.294118%,42.352941%);stop-opacity:1;"/>
<stop offset="0.21" style="stop-color:rgb(11.764706%,46.666667%,60.392157%);stop-opacity:1;"/>
<stop offset="0.4" style="stop-color:rgb(15.294118%,65.490196%,89.019608%);stop-opacity:1;"/>
<stop offset="0.47" style="stop-color:rgb(16.470588%,72.941176%,100%);stop-opacity:1;"/>
<stop offset="0.7" style="stop-color:rgb(11.372549%,85.490196%,94.117647%);stop-opacity:1;"/>
<stop offset="1" style="stop-color:rgb(5.490196%,100%,87.843137%);stop-opacity:1;"/>
</linearGradient>
</defs>
<g id="surface1">
<path style=" stroke:none;fill-rule:nonzero;fill:url(#linear0);" d="M 18.234375 27.050781 C 18.191406 26.992188 18.152344 26.933594 18.109375 26.933594 C 17.148438 26.640625 16.1875 26.175781 15.351562 25.472656 C 13.597656 24.011719 12.429688 21.847656 12.386719 19.332031 C 12.386719 18.398438 12.511719 17.460938 12.804688 16.585938 C 12.972656 16 13.972656 14.011719 14.097656 13.660156 C 14.769531 12.199219 14.558594 12.316406 13.597656 10.503906 L 12.261719 7.753906 L 11.382812 5.882812 C 10.882812 6.351562 10.382812 6.9375 9.921875 7.519531 C 9.003906 8.808594 8.292969 10.445312 7.875 12.199219 C 7.457031 13.953125 7.332031 15.824219 7.5 17.636719 C 7.667969 19.449219 8.167969 21.203125 8.921875 22.726562 C 9.671875 24.246094 10.675781 25.53125 11.800781 26.410156 C 8.835938 23.367188 7.457031 18.75 8.585938 14.128906 C 8.878906 12.902344 9.339844 11.730469 9.921875 10.679688 L 10.882812 12.667969 C 10.925781 12.785156 10.96875 12.902344 10.96875 13.078125 C 10.96875 13.191406 10.925781 13.367188 10.882812 13.484375 C 10.425781 14.304688 10.046875 15.179688 9.796875 16.175781 C 8.542969 21.261719 11.925781 26.527344 15.476562 27.402344 C 16.144531 27.578125 17.398438 27.753906 18.066406 27.519531 C 18.109375 27.519531 18.152344 27.460938 18.152344 27.460938 C 18.191406 27.402344 18.191406 27.402344 18.191406 27.34375 L 18.191406 27.167969 C 18.277344 27.167969 18.277344 27.109375 18.234375 27.050781 Z M 18.234375 27.050781 "/>
<path style=" stroke:none;fill-rule:nonzero;fill:url(#linear1);" d="M 13.722656 4.949219 C 13.765625 5.007812 13.808594 5.066406 13.847656 5.066406 C 14.808594 5.359375 15.769531 5.824219 16.605469 6.527344 C 18.359375 7.988281 19.53125 10.152344 19.570312 12.667969 C 19.570312 13.601562 19.445312 14.539062 19.152344 15.414062 C 18.988281 16 17.984375 17.988281 17.859375 18.339844 C 17.191406 19.800781 17.398438 19.683594 18.359375 21.496094 L 19.695312 24.246094 L 20.617188 26.117188 C 21.117188 25.648438 21.617188 25.0625 22.078125 24.480469 C 22.996094 23.191406 23.707031 21.554688 24.125 19.800781 C 24.542969 18.046875 24.667969 16.175781 24.5 14.363281 C 24.332031 12.550781 23.832031 10.796875 23.078125 9.273438 C 22.328125 7.753906 21.324219 6.46875 20.199219 5.589844 C 23.164062 8.632812 24.542969 13.25 23.371094 17.871094 C 23.078125 19.097656 22.621094 20.269531 22.035156 21.320312 L 21.074219 19.332031 C 21.03125 19.214844 20.992188 19.097656 20.992188 18.921875 C 20.992188 18.808594 21.03125 18.632812 21.074219 18.515625 C 21.535156 17.695312 21.910156 16.820312 22.160156 15.824219 C 23.414062 10.738281 20.03125 5.472656 16.480469 4.597656 C 15.8125 4.421875 14.558594 4.246094 13.890625 4.480469 C 13.847656 4.480469 13.808594 4.539062 13.808594 4.539062 C 13.722656 4.539062 13.683594 4.597656 13.683594 4.65625 L 13.683594 4.832031 C 13.683594 4.832031 13.683594 4.890625 13.722656 4.949219 Z M 13.722656 4.949219 "/>
</g>
</svg>
