<svg width="32" height="32" viewBox="0 0 32 32" version="1.1" xmlns="http://www.w3.org/2000/svg" xmlns:xlink="http://www.w3.org/1999/xlink"><title>svg/black/iotx</title><desc>Created with Sketch.</desc><g id="black/iotx" stroke="none" stroke-width="1" fill="none" fill-rule="evenodd"><circle id="Combined-Shape" fill="#000" fill-rule="nonzero" cx="16" cy="16" r="16"/><g id="IoTeX-(IOTX)" transform="translate(2.000000, 5.000000)" fill="#FFF" fill-rule="nonzero"><polygon id="Shape" points="14.5189744 0 14.5189744 5.45709402 19.2565242 2.73230769"/><polygon id="Shape" opacity=".9" points="19.2565242 2.73230769 19.2565242 8.18940171 23.9940741 5.45709402"/><polygon id="Shape" opacity=".8" points="14.5189744 5.45709402 14.5189744 10.914188 19.2565242 8.18940171"/><polygon id="Shape" opacity=".8" points="19.2565242 8.18940171 19.2565242 13.6464957 23.9940741 10.914188"/><polygon id="Shape" opacity=".8" points="14.5189744 10.914188 14.5189744 16.3710541 19.2565242 13.6464957"/><polygon id="Shape" points="19.2565242 13.6464957 19.2565242 19.1033618 23.9940741 16.3710541"/><polygon id="Shape" opacity=".4" points="2.27304843 5.27339031 2.27304843 10.7304843 7.01082621 7.99794872"/><polygon id="Shape" opacity=".2" points="8.25071225 7.30165242 8.25071225 12.7585185 12.9805128 10.0339601"/><polygon id="Shape" opacity=".3" points="4.73754986 10.7532764 4.73754986 16.2103704 9.47509972 13.4780627"/><polygon id="Shape" opacity=".9" points="7.8602849 14.8711111 7.8602849 20.3279772 12.5903134 17.5956695"/><polygon id="Shape" opacity=".7" points="14.4806838 17.2207407 14.4806838 22.6778348 19.2107123 19.9452991"/><polygon id="Shape" opacity=".9" points="9.0388604 4.60740741 9.0388604 10.0645014 13.7688889 7.33994302"/><polygon id="Shape" opacity=".8" points="14.5189744 0 14.5189744 5.45709402 9.7814245 2.73230769"/><polygon id="Shape" opacity=".6" points="9.0388604 2.31908832 9.0388604 7.77618234 4.30131054 5.04364672"/><polygon id="Shape" opacity=".6" points="13.7766382 5.0208547 13.7766382 10.4777208 9.0388604 7.74541311"/><polygon id="Shape" opacity=".95" points="8.22769231 7.30165242 8.22769231 12.7585185 3.49014245 10.0339601"/><polygon id="Shape" opacity=".6" points="14.5189744 10.914188 14.5189744 16.3710541 9.78894587 13.6464957"/><polygon id="Shape" opacity=".55" points="4.73754986 12.1846154 4.73754986 17.6417094 0 14.9091738"/><polygon id="Shape" points="23.9940741 5.45709402 23.9940741 10.914188 19.2565242 8.18940171"/><polygon id="Shape" opacity=".95" points="19.2565242 8.18940171 19.2565242 13.6464957 14.5189744 10.914188"/><polygon id="Shape" opacity=".9" points="23.9940741 10.914188 23.9940741 16.3710541 19.2565242 13.6464957"/><polygon id="Shape" opacity=".7" points="19.2565242 13.6464957 19.2565242 19.1033618 14.5189744 16.3710541"/><polygon id="Shape" opacity=".4" points="13.4703134 15.9195442 13.4703134 21.3766382 8.73276353 18.6518519"/><polygon id="Shape" points="19.2565242 2.73230769 19.2565242 8.18940171 14.5189744 5.45709402"/></g></g></svg>