<svg width="32" height="32" viewBox="0 0 32 32" fill="none" xmlns="http://www.w3.org/2000/svg">
<path d="M16 32C24.8365 32 32 24.8365 32 16C32 7.16345 24.8365 0 16 0C7.16345 0 0 7.16345 0 16C0 24.8365 7.16345 32 16 32Z" fill="black"/>
<path d="M10.891 21.8422L4.92658 22.513L8.42879 14.4322L4.84338 9.5442L13.5612 8.551L15.9298 3.104L21.1194 10.1578L27.0838 9.487L23.5972 17.5288L27.1566 22.383L18.483 23.371L16.078 28.896L10.891 21.8422ZM13.3688 21.3066C13.14 21.4184 12.8956 21.512 12.6434 21.5822L12.4146 21.6446L15.7764 26.2154L16.9698 23.4698L16.754 23.4412C15.5788 23.293 14.5102 22.6586 13.8212 21.707L13.4858 21.2442L13.3688 21.3066ZM12.1988 17.1622L14.9106 20.914C15.4618 21.6758 16.3536 22.1308 17.2948 22.1308C17.404 22.1308 17.5132 22.1256 17.6198 22.1126L24.697 21.3066L21.8786 17.4612C21.7382 17.2714 21.577 17.0998 21.3976 16.949L21.2312 16.8112L19.2136 21.369L15.7036 16.7228L12.1988 17.1622ZM12.3158 12.594C11.2654 12.7058 10.3502 13.3792 9.92899 14.3516L7.08719 20.9114L11.8088 20.381C12.0428 20.355 12.2716 20.3004 12.4926 20.2198L12.6954 20.1444L9.77299 16.1092L15.5346 15.3786L16.9048 12.1052L12.3158 12.594ZM16.7748 15.9038L18.9094 18.73L20.212 15.7894L20.784 14.4946C21.213 13.5248 21.0908 12.3938 20.4616 11.541L16.2314 5.7846L14.3282 10.1578C14.2346 10.3736 14.167 10.5998 14.1254 10.8338L14.089 11.047L19.0264 10.5244L16.7748 15.9038ZM21.9618 11.4214L22.045 11.6216C22.5026 12.7162 22.4922 13.9642 22.0138 15.0432L21.7824 15.5632L21.8942 15.6386C22.1074 15.7816 22.3076 15.948 22.4922 16.1326L22.6612 16.299L24.9206 11.086L21.9618 11.4214ZM7.30299 10.6206L9.10219 13.075L9.23479 12.9034C9.94979 11.9752 11.0236 11.372 12.1754 11.2498L12.7396 11.19L12.75 11.0522C12.7682 10.7688 12.8176 10.4854 12.893 10.2098L12.958 9.9758L7.30299 10.6206Z" fill="white"/>
<path d="M14.7416 29C10.9976 28.6386 7.6332 26.6912 5.431 23.605L6.939 23.436C7.1886 23.7428 7.4538 24.0366 7.7268 24.3122C9.3622 25.9554 11.4084 27.063 13.6522 27.5206L14.7416 29Z" fill="white"/>
<path d="M17.8824 27.6038C20.3108 27.2112 22.5182 26.075 24.2732 24.3122C24.4292 24.1536 24.5878 23.9846 24.7464 23.8078L26.5742 23.5998C24.3798 26.6834 21.0206 28.6334 17.2766 29L17.8824 27.6038Z" fill="white"/>
<path d="M26.946 20.1677C27.4452 18.8392 27.7 17.4378 27.7 16C27.7 14.7312 27.4998 13.4832 27.1072 12.2924L27.8404 10.6024C28.61 12.3002 29 14.115 29 16C29 17.8824 28.61 19.6946 27.843 21.3923L26.946 20.1677Z" fill="white"/>
<path d="M4.1648 21.4106C3.3926 19.7076 3 17.8902 3 16C3 14.0994 3.3952 12.2716 4.1778 10.5634L5.0722 11.7854C4.56 13.127 4.3 14.544 4.3 16C4.3 17.274 4.5002 18.5246 4.8954 19.7206L4.1648 21.4106Z" fill="white"/>
<path d="M5.4856 8.3196C7.6852 5.2828 11.0236 3.3588 14.7338 3L14.128 4.3936C11.697 4.7836 9.4844 5.9224 7.7268 7.6878C7.5942 7.8204 7.4616 7.9634 7.329 8.109L5.4856 8.3196Z" fill="white"/>
<path d="M25.0636 8.564C24.814 8.2572 24.5488 7.9634 24.2732 7.6878C22.6404 6.0472 20.5968 4.9396 18.3582 4.482L17.2688 3C21.0102 3.364 24.3694 5.3114 26.569 8.395L25.0636 8.564Z" fill="white"/>
</svg>
