<svg height="32" viewBox="0 0 32 32" width="32" xmlns="http://www.w3.org/2000/svg"><path d="m16 32c-8.836556 0-16-7.163444-16-16s7.163444-16 16-16 16 7.163444 16 16-7.163444 16-16 16zm8.2480567-12.6490825v-6.6776787c.5252513-.1982746.8326143-.7405868.7304383-1.2887873-.1021761-.5482006-.5846945-.9456416-1.1466893-.9445056-.2880158-.0012187-.5659801.1049557-.7787923.2974764l-5.8275146-3.33883933c.0180136-.08016568.0270202-.16206408.0268549-.24419702 0-.63754976-.5210119-1.15438595-1.1637126-1.15438595s-1.1637126.51683619-1.1637126 1.15438595c.0000166.0623963.0045038.12471254.0134274.18647773l-5.97074078 3.41875842c-.3497116-.3314287-.86962397-.413732-1.30595238-.2067354-.43632841.2069967-.6981024.6601364-.65754227 1.1382283.04056012.4780918.37499795.881458.8400644 1.0132034v6.6155194c-.55851135.1582586-.91385658.700824-.83265936 1.2713614s.57406946.9943143 1.15491824.9930111c.23523302.0004217.46491473-.0708754.6579452-.2042375l3.09726585 1.7715384v.0355196h.0671373l2.9406122 1.6827395c.0135956.6375497.5456289 1.1434528 1.1883296 1.1299662s1.1526912-.5412559 1.1390956-1.1788056c.0008572-.0296703-.0006393-.0593615-.0044758-.0887989l6.0289264-3.29c.3599877.196177.7977103.1889117 1.1508802-.0191024.35317-.2080141.5691384-.585767.5678338-.9932053-.0034977-.4786937-.301714-.9065851-.7519374-1.0789068zm-4.1177522-2.6062483h-.0044759l-.0044758-.0266397-.0044758-.0621592-.1387503-.0665992-.8727845-.5194737.9130668-.5461133.1432262-.0665992.0089516-.3463158h.0044758v-5.28353569l2.5333129 1.45186229c-.0289545.1026431-.0440061.2086528-.0447582.3152362.0009371.549971.3920074 1.0232901.9354459 1.1321862v6.57112c-.5415645.1108877-.9302958.5836378-.9309701 1.1321862.000376.1886202.0464263.3743905.1342745.5416734l-2.6720631 1.4563023zm-4.0416634-8.43589731c.311886.0005024.6106513-.12445395.8280263-.34631578l2.6138775 1.49626178v5.60765171l-1.0518172.6304723-1.4188342-.8435897c.0091013-.0513033.0135947-.1033067.0134275-.1553981 0-.5639863-.4608952-1.0211876-1.0294381-1.0211876s-1.0294381.4572013-1.0294381 1.0211876c.0013185.0654564.0073012.1307384.0179033.1953576l-1.374076.8080702-1.0876237-.6482321v-5.61209169l2.649684-1.51846151c.2207116.24563366.5366035.38616114.8683087.38627529zm.6803243 8.42257751c-.3925645-.3868553-1.0231921-.3966605-1.4277859-.0221998l-1.0652446-.6349122 1.0697204-.6215925c.4033691.3687756 1.0273903.3590119 1.4188343-.0221997l1.0876237.6482321zm-7.5283254 4.1469095c.1279825-.3032407.11956147-.6462259-.02315091-.9429266s-.40617706-.5189689-.72431065-.6110545v-6.6243994c.60069818-.1709235.9556071-.7845778.80117137-1.3852631l2.62730499-1.50514168v5.43449388h.0044758v.2131174l.3491138.1775978.7519374.4439946-.8325021.4883941-.2237909.1331983-.0447582.0443995-.0044758.1775978v5.4922132zm6.8480011 2.792726c-.4088539-.0010952-.7880794.2114584-.9981074.5594332l-2.5243612-1.4474224v-5.7142105l1.0741963-.6260323 1.3919793.8258299c-.0106099.0601415-.0165949.1209961-.0179033.1820378 0 .5639863.4608952 1.0211876 1.0294381 1.0211876s1.0294381-.4572013 1.0294381-1.0211876c.0001726-.0506202-.004322-.10115-.0134275-.1509582l1.4188342-.8524696 1.007059.5993927v5.7364102l-2.4706514 1.3497436c-.2176604-.2908135-.5613634-.4621113-.9264942-.4617544z" fill-rule="evenodd"/></svg>