<svg width="32" height="32" viewBox="0 0 32 32" fill="none" xmlns="http://www.w3.org/2000/svg">
<path d="M32 16C32 24.8365 24.8365 32 16 32C7.1635 32 0 24.8365 0 16C0 7.1635 7.1635 0 16 0C24.8365 0 32 7.1635 32 16Z" fill="black"/>
<path d="M9.23333 19.2467V18.7632H7.25V19.2467C7.25 21.1704 8.03359 23.0153 9.42839 24.3756C10.8232 25.7358 12.715 26.5 14.6875 26.5C16.66 26.5 18.5518 25.7358 19.9466 24.3756C21.3414 23.0153 22.125 21.1704 22.125 19.2467V8.125H20.1417V19.2467C20.1417 20.6574 19.567 22.0103 18.5442 23.0079C17.5213 24.0054 16.134 24.5658 14.6875 24.5658C13.241 24.5658 11.8537 24.0054 10.8308 23.0079C9.80797 22.0103 9.23333 20.6574 9.23333 19.2467Z" fill="white"/>
<path d="M21.25 5.5C22.2165 5.5 23 4.7165 23 3.75C23 2.7835 22.2165 2 21.25 2C20.2835 2 19.5 2.7835 19.5 3.75C19.5 4.7165 20.2835 5.5 21.25 5.5Z" fill="white"/>
<path d="M25.0009 5.27693L23.7987 6.70587C25.9838 8.53962 27.4529 11.0846 27.9481 13.8939C28.4432 16.7032 27.9327 19.5971 26.5063 22.0674C25.0798 24.5377 22.8286 26.4264 20.148 27.4019C17.4674 28.3773 14.5288 28.3771 11.8483 27.4013C9.16784 26.4255 6.91688 24.5364 5.49077 22.0659C4.06465 19.5954 3.55458 16.7014 4.05012 13.8922C4.54566 11.083 6.01514 8.53822 8.20047 6.70477C10.3858 4.87133 13.1472 3.86646 15.9998 3.86667C16.291 3.86667 16.58 3.87662 16.8669 3.89653L16.9994 2.03547C16.6699 2.01213 16.3349 2 15.9998 2C12.7085 2.00004 9.52241 3.15969 7.0011 5.27529C4.47978 7.39089 2.78444 10.3272 2.2128 13.5685C1.64116 16.8098 2.22978 20.1489 3.87527 22.9993C5.52077 25.8498 8.11794 28.0294 11.2107 29.1553C14.3034 30.2813 17.694 30.2816 20.7869 29.1562C23.8799 28.0308 26.4774 25.8517 28.1234 23.0015C29.7695 20.1514 30.3587 16.8124 29.7876 13.571C29.2166 10.3296 27.5218 7.39299 25.0009 5.27693Z" fill="white"/>
</svg>
