<svg width="32" height="32" viewBox="0 0 32 32" fill="none" xmlns="http://www.w3.org/2000/svg">
<path d="M32 16C32 24.8365 24.8365 32 16 32C7.1635 32 0 24.8365 0 16C0 7.1635 7.1635 0 16 0C24.8365 0 32 7.1635 32 16Z" fill="white"/>
<path d="M16 0C7.18769 0 0 7.18769 0 16C0 24.8123 7.18769 32 16 32C24.8123 32 32 24.8123 32 16C32 7.18769 24.8123 0 16 0ZM22.6954 12.4062H21.7108L18.6585 15.9508L21.7108 19.4954H22.6954V22.3508H16.2462V19.4954H17.2308L15.2123 17.2308H14.3754V19.5938H15.5077V22.4492H9.25538V19.5938H10.6338V16.0492V12.4554H9.25538V9.6H10.8308V10.6831H11.6677V9.6H13.1938V10.6831H14.0308V9.6H15.5569V12.4062H14.4246V14.7692H15.2615L17.28 12.4062H16.2954V9.6H22.7938L22.6954 12.4062Z" fill="black"/>
</svg>
