<svg height="32" viewBox="0 0 32 32" width="32" xmlns="http://www.w3.org/2000/svg"><path d="m16 32c-8.836556 0-16-7.163444-16-16s7.163444-16 16-16 16 7.163444 16 16-7.163444 16-16 16zm3.6355821-18.9708029c.3495373 0 .6330746-.2771679.6330746-.6190511v-.3675767c0-.3418832-.2835373-.6192116-.6330746-.6192116h-.3756418c-.3495373 0-.6330746.2773284-.6330746.6192116v.9866278zm-5.9340896 0v-.9866278c0-.3418832-.2835373-.6192116-.6330746-.6192116h-.3756418c-.3495373 0-.6330746.2773284-.6330746.6192116v.3675767c0 .3418832.2835373.6190511.6330746.6190511zm-1.0087164 6.5839416h.3756418c.3495373 0 .6330746-.2771679.6330746-.6190511v-.9867883h-1.0087164c-.3495373 0-.6330746.2773284-.6330746.6192116v.3675767c0 .3418832.2835373.6190511.6330746.6190511zm6.5671642 0h.3756418c.3495373 0 .6330746-.2771679.6330746-.6190511v-.3675767c0-.3418832-.2835373-.6192116-.6330746-.6192116h-1.0087164v.9867883c0 .3418832.2835373.6190511.6330746.6190511zm-3.2835821-8.0291971h.3756418c.3495373 0 .6330746-.2773285.6330746-.6192117v-.3675766c0-.3418832-.2835373-.61905111-.6330746-.61905111h-.3756418c-.3495373 0-.6330746.27716791-.6330746.61905111v.3675766c0 .3418832.2835373.6192117.6330746.6192117zm0 9.7956204h.3756418c.3495373 0 .6330746-.2771678.6330746-.6190511v-.3675766c0-.3418832-.2835373-.6192117-.6330746-.6192117h-.3756418c-.3495373 0-.6330746.2773285-.6330746.6192117v.3675766c0 .3418833.2835373.6190511.6330746.6190511zm4.9253731-4.9781021h.3756418c.3495373 0 .6330747-.2771679.6330747-.6190511v-.3675767c0-.3418832-.2835374-.6192117-.6330747-.6192117h-.3756418c-.3497014 0-.6330746.2773285-.6330746.6192117v.3675767c0 .3418832.2833732.6190511.6330746.6190511zm-10.0149253 0h.3756418c.3495373 0 .6330746-.2771679.6330746-.6190511v-.3675767c0-.3418832-.2835373-.6192117-.6330746-.6192117h-.3756418c-.3497015 0-.6330747.2773285-.6330747.6192117v.3675767c0 .3418832.2833732.6190511.6330747.6190511zm7.2851194-1.5448176c.251194 0 .4549403-.2013722.4549403-.4497956v-1.2170657h-1.2531791c-.2511941 0-.4551045.2012117-.4551045.4496351l.0001642.4000146c-.0001642.4514014-.3470747.839854-.8038209.839854-.4565821 0-.8497911-.3884526-.8497911-.839854v-.4162336c0-.2394307-.1963582-.4334161-.4386865-.4334161h-1.1249553v4.9781022h1.1157612c.2474179 0 .4478806-.1981606.4478806-.4424087v-.374803c0-.475489.3547911-.8747007.8115373-.8747007.4565821.0016058.8420747.382511.8420747.8337518l-.0001642.4120584c.0001642.2463358.2022686.4461022.4514925.4461022h1.2567911v-1.2308759c0-.2461752-.2021045-.4459416-.4514926-.4459416h-.3753134c-.4567463 0-.8813134-.3658102-.8813134-.8172117.0016418-.4514014.3717015-.8172117.8284477-.8172117h.4245672zm.4813731 6.5657957c-.2930597.1188321-.4322836.4473868-.3109552.7341897.1214925.286803.4575671.4228176.7506268.304146.2930598-.1188321.4324478-.4473868.3107911-.7341898-.1213284-.2866423-.457403-.4228175-.7504627-.3041459zm-5.2537313-12.52554749c-.2930597.11883212-.4322836.44738686-.3109553.73418978.1213284.28680292.457403.42281751.7506269.30414599.2930597-.11883212.4322836-.44738686.3109552-.73418978-.1213283-.28664234-.4575671-.42281752-.7506268-.30414599zm8.5547164 4.42762039c.1213283.286803.457403.4228176.7506268.304146.2930597-.1186715.4322836-.4473868.3109553-.7341897-.1216567-.2866424-.457403-.4228176-.7506269-.304146-.2930597.1188321-.4322836.4473868-.3109552.7341897zm-12.64179106 5.1386862c.12132836.2868029.45740298.4228175.75062686.304146.2930597-.1186716.4322836-.4475475.3109552-.7341898-.1216567-.2866424-.45740296-.4229781-.75062684-.3039854-.2930597.1186715-.43228358.4473868-.31095522.7340292zm0-5.5687299c-.12132836.2868029.01789552.6155182.31095522.7341897.29322388.1186716.62897014-.017343.75062684-.304146.1213284-.2866423-.0178955-.6153576-.3109552-.7341897-.29322388-.1186716-.62897015.0175036-.75062686.304146zm9.17662686-2.95924092c.2930597.11867152.6292985-.01734307.7506269-.30414599.1213283-.28680292-.0178956-.61535766-.3109553-.73418978-.2932238-.11867153-.6292985.01750365-.7506268.30414599-.1213284.28680292.0178955.61535766.3109552.73418978zm3.4651642 8.09792702c-.1213284.2866423.0178955.6155182.3109552.7341898.2932239.1186715.6292985-.0173431.7506269-.304146.1213283-.2866424-.0178956-.6153577-.3109553-.7340292-.2930597-.1189927-.6289701.017343-.7506268.3039854zm-8.8830746 4.5882044c.2930597.1186715.6291343-.0173431.7506268-.304146.1213284-.2868029-.0178955-.6153577-.3109552-.7341898-.2930597-.1186715-.6291343.0175036-.7504627.304146-.1216567.2868029.0177314.6153576.3107911.7341898zm8.4429104-1.6294453c-.1282239.1254161-.1282239.3287153 0 .4541314.1283881.1254161.3360746.1254161.4642985 0s.1282239-.3287153 0-.4541314c-.1282239-.125416-.3359104-.125416-.4642985 0zm-11.1641791-11.08029196c-.1282239.12541606-.1282239.32871536 0 .45413136.1282239.1254161.3360746.1254161.4642985 0 .1282239-.125416.1282239-.3287153 0-.45413136s-.3360746-.12541606-.4642985 0zm11.1641791.45413136c.1283881.1254161.3360746.1254161.4642985 0 .1282239-.125416.1282239-.3287153 0-.45413136s-.3359104-.12541606-.4642985 0c-.1282239.12541606-.1282239.32871536 0 .45413136zm-11.1641791 11.080292c.1282239.1254161.3360746.1254161.4642985 0s.1282239-.3287153 0-.4541314c-.1282239-.125416-.3360746-.125416-.4642985 0-.1282239.1254161-.1282239.3287153 0 .4541314zm13.5306567-5.8473431c0 .1771241.1471045.3210073.328194.3210073.181418 0 .3285224-.1438832.3285224-.3210073 0-.1774452-.1471044-.3213284-.3285224-.3213284-.1810895 0-.328194.1438832-.328194.3213284zm-15.92537312 0c0 .1771241.1469403.3210073.32835821.3210073.18125373 0 .32835821-.1438832.32835821-.3210073 0-.1774452-.14710448-.3213284-.32835821-.3213284-.18141791 0-.32835821.1438832-.32835821.3213284zm8.20911942-7.38702187c.1810895 0 .328194-.14372263.328194-.32116788 0-.17744526-.1471045-.32116788-.328194-.32116788-.1814179 0-.3285224.14372262-.3285224.32116788 0 .17744525.1471045.32116788.3285224.32116788zm0 15.57664237c.1810895 0 .328194-.1438832.328194-.3211679 0-.1774453-.1471045-.3211679-.328194-.3211679-.1814179 0-.3285224.1437226-.3285224.3211679 0 .1772847.1471045.3211679.3285224.3211679zm10.1789403-8.1897811c0 .1771241.1472686.3211679.3283582.3211679.1810895 0 .3283582-.1440438.3283582-.3211679 0-.177124-.1472687-.3211678-.3283582-.3211678-.1810896 0-.3283582.1440438-.3283582.3211678zm-21.09701494-.1605839c-.13577612 0-.24626866.1079124-.24626866.2408759s.11049254.2408759.24626866.2408759c.1359403 0 .24626865-.1079124.24626865-.2408759s-.11032835-.2408759-.24626865-.2408759zm10.42537314-10.11678832c0 .17712409.1472686.32116789.3283582.32116789s.3283582-.1440438.3283582-.32116789c0-.17712408-.1472686-.32116788-.3283582-.32116788s-.3283582.1440438-.3283582.32116788zm9.7253134 14.10472992c-.1055671.2445694.0121493.5278394.2621941.6310949.062388.0256934.1272388.0378978.1909403.0378978.1922537 0 .3751492-.1104817.4544477-.2941898.1055672-.2448905-.0119851-.5278394-.262194-.6312554-.2503732-.1035767-.5398209.0117226-.6453881.2564525zm-5.3290895 5.1907153c-.0408806-.0168613-.0840597-.0253722-.127403-.0253722-.0418657 0-.0837314.0080292-.1236269.0237664-.0812686.0322774-.1448059.0936204-.1789552.1726277-.0339851.0788468-.0346418.1660438-.0016418.2455329.033.079489.0957164.141635.1764925.1748759.080612.0334015.1695971.0342044.2510299.0017664.0812687-.0322774.144806-.0934598.1789552-.1726277.0339851-.0788467.0346418-.1660438.0016418-.2455329-.033-.0793284-.0955522-.1414744-.1764925-.1750365zm-13.6268657-13.3284671c-.04104478-.0168613-.08422388-.0253723-.12773134-.0253723-.04153732 0-.08340299.0080292-.12329851.0237664-.08143284.0322774-.14497015.0936205-.17895522.1726278-.03398508.0788467-.0346418.1662044-.0016418.2455328.033.0794891.09555224.1416351.17649254.1748759.08061194.0334015.1697612.0340438.25102985.0016059.08126866-.0322774.14480597-.0934599.17895523-.1724672.03398507-.0788467.03464179-.1662044.00164179-.2455328-.033-.0794891-.09571642-.1414745-.17649254-.1750365zm-.9161194 8.2491971c-.088.2041022.00968656.4396788.21852239.5259124.20883582.086073.44952238-.0094745.53768656-.2137373.088-.2042627-.00968656-.4396788-.21852239-.5259124-.20883582-.086073-.44952238.0094745-.53768656.2137373zm14.3379254-13.2843066c.2086716.08607299.4495224-.00947446.5376865-.21373723.088-.20426277-.0096865-.43967883-.2185224-.52591241-.2088358-.08607299-.4495223.00947445-.5376865.21373723-.088.20426277.0096865.43967883.2185224.52591241zm6.1416119 4.8669781c-.0609104.0242482-.1086866.0701752-.1341343.1294307-.025612.0592554-.0261045.1247737-.0013135.1843503.0247911.0594161.0717463.106146.1323284.1310365.0605821.0250511.1275672.0255329.1883134.0012847.0609105-.0242482.1086866-.0700146.1342985-.1292701.0527015-.1223649-.0060746-.2638394-.1310149-.3155474-.0308656-.0128467-.0632089-.0191095-.0957164-.0191095-.0313582 0-.0628806.0059416-.0927612.0178248zm-14.4178806-5.17c-.0528657.12236496.0059105.26383941.1310149.31554744.0607463.02521168.1277314.02537227.1884777.00128468.0609104-.02424818.1086865-.07033577.1342985-.12959125.0528656-.12236496-.0060747-.26367883-.1311791-.31522627-.0311941-.0130073-.0635374-.01910949-.0953881-.01910949-.096209 0-.1876567.05524087-.2272239.14709489zm.0630448 18.9623942c-.0960448 0-.1874925.0552408-.2272239.1472554-.0528657.1222044.0060746.2638394.1311791.3155475.1251045.051708.2699105-.0059416.322612-.1283066.0528656-.1222044-.0059105-.2638394-.131015-.3153869-.031194-.0130073-.0635373-.0191094-.0955522-.0191094zm11.6424328-1.6997811c.1280597-.125416.1280597-.3290365 0-.4541313-.0620597-.0608614-.1446418-.0942628-.2323134-.0942628-.0878358 0-.1702537.0334014-.2323134.0942628-.1280597.1250948-.1280597.3287153 0 .4541313.1280597.1252555.3362388.1254161.4646268 0zm-15.35698505-15.18112405c-.19192537.18788321-.19192537.49379562 0 .68151825.09620896.0939416.22229851.1409927.34855224.1409927s.25234328-.0470511.34855224-.1409927c.19192537-.18772263.19192537-.49363504 0-.68151825-.19225373-.1880438-.50501493-.1880438-.69710448 0zm15.52526865.09008759c-.0466269.04560584-.0722388.1059854-.0722388.17037956s.0256119.12493431.0722388.17021898c.0958806.09426277.2523433.09410219.3482239.00016058.0960448-.0939416.0960448-.24681751.0001642-.34075912-.0481045-.04705109-.1111493-.07049635-.1741941-.07049635-.0632089 0-.1262537.02344526-.174194.07049635zm-15.43299999 14.61329926c-.09604478.093781-.09604478.2468175-.00016418.3405986.09620895.0941021.25267164.0939416.34855224 0 .09604477-.0937811.09604477-.2468176 0-.3405986-.04646269-.0456058-.10835821-.0706569-.17419403-.0706569s-.12756717.0250511-.17419403.0706569zm8.05495519 4.2651095c.2265672 0 .4102836-.1796934.4102836-.4012993 0-.2217664-.1837164-.4016204-.4102836-.4016204-.2268955 0-.4106119.179854-.4106119.4016204 0 .2216059.1837164.4012993.4106119.4012993z" fill-rule="evenodd"/></svg>