<?xml version="1.0" standalone="no"?>
<!DOCTYPE svg PUBLIC "-//W3C//DTD SVG 20010904//EN"
 "http://www.w3.org/TR/2001/REC-SVG-20010904/DTD/svg10.dtd">
<svg version="1.0" xmlns="http://www.w3.org/2000/svg"
 width="400.000000pt" height="400.000000pt" viewBox="0 0 400.000000 400.000000"
 preserveAspectRatio="xMidYMid meet">
<metadata>
Created by potrace 1.16, written by Peter Selinger 2001-2019
</metadata>
<g transform="translate(0.000000,400.000000) scale(0.100000,-0.100000)"
fill="#000000" stroke="none">
<path d="M1855 3994 c-297 -33 -536 -99 -748 -205 -424 -214 -776 -594 -956
-1034 -98 -240 -143 -471 -145 -740 -1 -197 16 -340 61 -515 42 -164 67 -231
140 -380 47 -96 171 -302 193 -320 3 -3 33 -39 67 -80 437 -535 1140 -799
1846 -696 252 37 559 154 766 292 40 27 81 54 90 59 31 19 186 152 245 211
301 302 495 683 563 1109 24 152 24 457 -1 615 -43 275 -149 548 -304 785
-107 163 -273 347 -417 460 -27 22 -52 43 -55 46 -3 3 -51 35 -107 72 -106 69
-279 158 -393 200 -103 39 -296 88 -405 103 -105 15 -371 25 -440 18z m450
-398 c224 -51 361 -103 533 -204 l73 -43 -21 -30 -21 -29 -47 27 c-26 15 -58
34 -72 43 -77 52 -271 123 -425 158 -107 23 -141 26 -320 27 -172 0 -215 -3
-307 -23 -626 -135 -1090 -600 -1221 -1222 -32 -156 -32 -449 1 -605 94 -441
349 -800 732 -1032 202 -122 455 -199 715 -217 141 -10 409 24 533 68 l43 15
10 -26 c5 -15 8 -32 5 -38 -2 -6 -64 -27 -138 -46 l-133 -34 -250 1 -250 0
-135 37 c-321 86 -567 230 -783 457 -279 293 -429 645 -443 1040 -8 200 6 343
50 500 133 485 470 875 927 1071 117 51 319 107 424 119 110 12 446 3 520 -14z
m-35 -143 c76 -16 85 -21 88 -42 6 -38 -9 -43 -84 -25 -53 13 -117 17 -279 16
-196 0 -217 -2 -310 -27 -55 -15 -108 -28 -117 -30 -28 -6 -135 -53 -223 -98
-237 -121 -464 -346 -588 -582 -44 -84 -98 -210 -103 -239 -1 -12 -15 -64 -30
-116 -25 -89 -26 -108 -26 -310 0 -202 1 -221 27 -315 15 -55 28 -107 30 -115
7 -32 69 -178 97 -230 128 -232 323 -437 525 -552 l52 -30 -16 -26 c-9 -15
-18 -28 -19 -30 -4 -6 -109 63 -184 120 -230 175 -389 388 -493 659 -30 76
-73 249 -87 347 -13 89 -13 256 1 345 52 347 186 623 417 860 74 75 232 201
303 241 176 98 312 147 524 187 126 24 365 20 495 -8z m-619 -209 c5 -15 8
-28 7 -29 -2 -1 -46 -19 -100 -39 -287 -111 -521 -317 -674 -594 -1 -1 -15 5
-31 14 l-30 17 26 46 c73 134 243 324 357 401 27 18 58 41 69 51 47 42 298
154 353 158 7 1 17 -11 23 -25z m-932 -1136 c11 -11 12 -10 6 2 -6 11 -5 12 4
4 9 -8 11 -41 9 -108 -2 -53 0 -96 3 -96 3 0 9 -30 12 -67 5 -48 3 -70 -6 -76
-8 -6 -7 -7 4 -4 16 5 22 -18 32 -115 1 -10 5 -18 10 -18 5 0 7 -9 4 -20 -3
-11 -2 -18 2 -15 5 2 14 -15 21 -38 15 -51 71 -163 117 -234 18 -29 33 -59 33
-68 0 -9 4 -14 9 -11 5 3 16 -5 25 -18 8 -14 52 -62 96 -107 44 -45 80 -85 80
-87 0 -3 -8 -15 -17 -26 l-18 -21 23 20 c22 18 24 18 50 2 15 -9 26 -21 24
-27 -1 -7 1 -9 6 -6 11 7 37 -11 37 -25 0 -7 7 -14 15 -16 13 -4 13 -3 0 6
-33 23 3 9 50 -20 27 -17 48 -35 45 -40 -4 -5 0 -6 8 -3 8 3 38 -6 66 -20 28
-14 55 -26 60 -26 16 0 125 -53 133 -65 5 -7 8 -7 8 0 0 7 18 9 48 5 45 -5 47
-7 50 -38 l3 -33 -43 5 c-38 4 -80 15 -128 33 -8 4 -18 5 -22 5 -5 -1 -8 3 -8
9 0 5 -5 7 -12 3 -8 -5 -9 -1 -4 12 6 15 5 17 -5 7 -14 -14 -33 -18 -26 -5 3
4 -5 8 -18 8 -13 1 -39 12 -57 25 -18 13 -34 23 -35 21 -8 -6 -23 -1 -19 7 4
5 -3 7 -15 4 -14 -4 -22 0 -25 14 -3 10 -15 20 -26 20 -28 2 -100 51 -93 63 3
5 0 7 -8 4 -21 -8 -145 101 -139 121 2 5 0 7 -4 3 -9 -10 -35 12 -28 23 3 5 0
8 -8 7 -7 -2 -13 5 -13 14 0 9 -4 20 -9 25 -5 4 -6 3 -2 -4 4 -7 3 -13 -2 -13
-17 0 -22 13 -9 28 10 13 9 14 -1 8 -14 -9 -67 43 -78 76 -3 10 -10 18 -16 18
-5 0 -7 7 -4 16 3 8 2 12 -3 9 -12 -7 -42 35 -35 47 3 4 1 8 -5 8 -20 0 -138
270 -124 284 4 3 1 6 -5 6 -9 0 -21 33 -28 75 -1 6 -3 15 -4 20 -2 6 -4 21 -6
35 -1 14 -7 52 -13 85 -12 65 -15 278 -4 288 9 10 17 9 32 -5z m1601 -1014
c16 -41 14 -43 -57 -48 -11 0 -19 -4 -16 -8 4 -8 -15 -11 -69 -12 -15 0 -25
-3 -23 -7 5 -7 -70 -19 -121 -19 -31 0 -34 3 -34 29 0 25 4 29 38 35 20 3 53
6 72 7 19 0 69 11 110 23 41 13 78 24 83 25 4 0 12 -11 17 -25z m761 -64 l24
-20 -72 -69 c-197 -191 -438 -321 -719 -387 -108 -26 -136 -29 -309 -29 -163
0 -205 3 -296 23 -132 30 -132 30 -118 70 9 28 13 30 36 21 89 -34 172 -43
378 -43 220 1 208 -1 421 58 174 48 417 192 549 326 38 38 72 70 76 70 4 0 17
-9 30 -20z"/>
<path d="M999 1163 c-13 -16 -12 -17 4 -4 9 7 17 15 17 17 0 8 -8 3 -21 -13z"/>
<path d="M1084 1102 c0 -10 8 -18 18 -18 16 0 16 2 1 18 -9 10 -17 18 -17 18
-1 0 -2 -8 -2 -18z"/>
</g>
</svg>
