<svg width="32" height="32" viewBox="0 0 32 32" xmlns="http://www.w3.org/2000/svg"><path d="M16 0c8.837 0 16 7.163 16 16s-7.163 16-16 16S0 24.837 0 16 7.163 0 16 0zm6.278 9.402c-.507.311-1.465 1.227-1.861 1.505-.396.279-1.41.538-3.042 1.473S9.34 17.24 9.34 17.24l1.667.02-7.43 3.655h.742l-1.069.776s.944.239 1.736-.239v.219s8.847-3.33 10.556-2.467l-1.042.291c.09 0 1.77.107 1.77.107s.056 1.001 1.07 1.644c1.014.637 1.035.989 1.035.989s-.528.205-.528.464c0 0 .778-.226 1.5-.206.722.02 1.354.206 1.354.206s-.055-.279-.757-.464c-.708-.193-1.395-.916-1.736-1.314a1.793 1.793 0 01-.284-1.817c.243-.603 1.09-.935 2.84-1.797 2.062-1.022 2.535-1.778 2.826-2.368.292-.59.723-1.764.966-2.315.305-.71.68-1.088.993-1.313.305-.226 1.701-.723 1.701-.723s-1.063-.882-1.403-1.14c-.36-.273-.791-.644-1.576-.737-.736-.093-1.486.378-1.993.69z"/></svg>