<svg height="32" viewBox="0 0 32 32" width="32" xmlns="http://www.w3.org/2000/svg"><path d="m15 18.6180533c-.3068747-.2746603-.5-.6738034-.5-1.1180533 0-.8284271.6715729-1.5 1.5-1.5s1.5.6715729 1.5 1.5c0 .4442499-.1931253.843393-.5 1.1180533v2.3819467c0 .5522847-.4477153 1-1 1s-1-.4477153-1-1zm-5-4.6180533c-.55228475 0-1 .4477153-1 1v8c0 .5522847.44771525 1 1 1h12c.5522847 0 1-.4477153 1-1v-8c0-.5522847-.4477153-1-1-1 0-.7811201 0-1.4477691 0-2 0-3.3137085-2.6862915-6-6-6s-6 2.6862915-6 6v2.0000001zm6 0h3.5c0-.6361231 0-1.2694564 0-1.9 0-1.9882251-1.5670034-3.6-3.5-3.6s-3.5 1.6117749-3.5 3.6c0 1.3254834 0 1.9588167 0 1.9h3.5 6zm0 18c-8.836556 0-16-7.163444-16-16s7.163444-16 16-16 16 7.163444 16 16-7.163444 16-16 16z" fill-rule="evenodd"/></svg>