<svg xmlns="http://www.w3.org/2000/svg" width="32" height="32"><path d="M16 32C7.163 32 0 24.837 0 16S7.163 0 16 0s16 7.163 16 16-7.163 16-16 16zm-2.584-18.9l-1.311 1.104a.502.502 0 0 0-.158.338l-.002 6.11c0 .113.093.205.206.205h1.216a.206.206 0 0 0 .206-.205v-7.48c0-.113-.07-.145-.157-.072zm-2.46 6.362H7.32c-.108 0-.206-.068-.206-.205v-8.146c0-.113-.07-.145-.157-.071l-1.302 1.112a.507.507 0 0 0-.156.34v8.161c0 .102.074.185.17.201l-.002.003h5.27a.206.206 0 0 0 .206-.205v-.984c0-.114-.092-.206-.188-.206zm8.366-2.56c-.296-.209-.77-.44-1.424-.692-.778-.3-1.282-.535-1.514-.706-.231-.172-.347-.38-.347-.628 0-.505.444-.757 1.331-.757.469 0 1.026.114 1.671.343a.255.255 0 0 0 .296-.107l.494-.852a.173.173 0 0 0-.088-.256 6.344 6.344 0 0 0-2.316-.427c-.94 0-1.683.187-2.229.56-.546.374-.82.898-.82 1.574 0 .562.162 1.019.484 1.37.322.353.938.705 1.85 1.057.467.18.832.343 1.095.485.262.143.45.281.565.414a.74.74 0 0 1 .172.5c0 .624-.586.935-1.622.935a4.03 4.03 0 0 1-1.848-.419.227.227 0 0 0-.29.081l-.472.768a.2.2 0 0 0 .07.28c.504.28 1.36.575 2.483.575 1.05 0 1.925-.206 2.488-.617.563-.412.844-1.003.844-1.774 0-.38-.071-.708-.214-.982a2.072 2.072 0 0 0-.659-.724zm8.131-3.758c.081-.08.054-.145-.06-.145h-1.45a.612.612 0 0 0-.358.139l-2.992 2.991c-.084.077-.152.047-.152-.066V11.11c0-.113-.07-.145-.156-.071l-1.303 1.113a.507.507 0 0 0-.156.338v8.162c0 .114.092.205.206.204h1.22a.214.214 0 0 0 .206-.215V18.28c0-.113.066-.27.148-.348l.559-.54a.163.163 0 0 1 .26.03l2.042 3.254a.433.433 0 0 0 .318.182h1.357c.114 0 .156-.087.095-.182l-2.682-4.159a.264.264 0 0 1 .035-.317l2.863-3.055z"/></svg>