<svg width="33" height="33" viewBox="0 0 33 33" fill="none" xmlns="http://www.w3.org/2000/svg">
<g clip-path="url(#clip0)">
<path d="M16.2222 32.1869C25.0588 32.1869 32.2222 25.0234 32.2222 16.1869C32.2222 7.35033 25.0588 0.18689 16.2222 0.18689C7.38567 0.18689 0.222229 7.35033 0.222229 16.1869C0.222229 25.0234 7.38567 32.1869 16.2222 32.1869Z" fill="black"/>
<g filter="url(#filter0_d)">
<path d="M12.4917 7.84407C12.6805 7.67339 12.9303 7.54198 13.1507 7.42891C15.0002 6.73864 17.084 6.73681 18.9722 7.3065C21.4289 8.0691 23.5045 9.92414 24.589 12.2526C24.8659 12.8665 25.125 13.4907 25.1883 14.147C23.8261 13.3839 22.3457 12.8786 20.8701 12.4185C20.106 12.1431 19.3286 11.8931 18.5528 11.6436C18.0825 11.4924 17.6129 11.3414 17.1473 11.1851C15.9103 10.7698 14.6938 10.3145 13.5399 9.71079C13.4808 9.67547 13.4207 9.64049 13.3603 9.60533C13.1391 9.47653 12.9141 9.34547 12.7172 9.1875C12.4701 8.98912 12.2804 8.75766 12.2124 8.45436C12.1895 8.209 12.3049 8.01286 12.4917 7.84407Z" fill="white" stroke="black" stroke-width="0.2"/>
<path d="M24.6358 19.1982C24.7508 19.1754 24.8656 19.1527 24.9801 19.1304C23.7488 23.2413 19.2029 25.9571 14.9881 25.2944L14.9853 25.294C12.4104 24.9651 10.0308 23.4394 8.59504 21.285L8.59451 21.2842C6.97565 18.9042 6.56731 15.7426 7.54815 13.0356C8.06423 11.6351 8.89683 10.3334 10.0188 9.34663C10.3573 11.8266 11.4315 14.2152 13.1807 16.0243C15.3275 18.255 18.3862 19.6258 21.5014 19.5749C22.5655 19.6078 23.6096 19.4012 24.6358 19.1982Z" fill="white" stroke="black" stroke-width="0.2"/>
</g>
<path d="M20.8382 12.5133C22.3726 12.9917 23.9038 13.5165 25.3006 14.3261L25.395 14.3757C25.5246 15.3501 25.619 16.3437 25.4462 17.3197C24.7438 17.0221 24.1742 16.4989 23.579 16.0365C22.4334 15.0829 21.2638 13.9917 20.8382 12.5133Z" fill="white"/>
</g>
<defs>
<filter id="filter0_d" x="2.92061" y="6.79407" width="26.38" height="26.6998" filterUnits="userSpaceOnUse" color-interpolation-filters="sRGB">
<feFlood flood-opacity="0" result="BackgroundImageFix"/>
<feColorMatrix in="SourceAlpha" type="matrix" values="0 0 0 0 0 0 0 0 0 0 0 0 0 0 0 0 0 0 127 0"/>
<feOffset dy="4"/>
<feGaussianBlur stdDeviation="2"/>
<feColorMatrix type="matrix" values="0 0 0 0 0 0 0 0 0 0 0 0 0 0 0 0 0 0 0.25 0"/>
<feBlend mode="normal" in2="BackgroundImageFix" result="effect1_dropShadow"/>
<feBlend mode="normal" in="SourceGraphic" in2="effect1_dropShadow" result="shape"/>
</filter>
<clipPath id="clip0">
<rect width="32" height="32" fill="white" transform="translate(0.222229 0.18689)"/>
</clipPath>
</defs>
</svg>
