<svg width="32" height="32" viewBox="0 0 32 32" fill="none" xmlns="http://www.w3.org/2000/svg">
<path d="M16 32C24.8366 32 32 24.8366 32 16C32 7.16344 24.8366 0 16 0C7.16344 0 0 7.16344 0 16C0 24.8366 7.16344 32 16 32Z" fill="black"/>
<path fill-rule="evenodd" clip-rule="evenodd" d="M11.336 10.4V22.4H21.336L11.336 10.4Z" fill="white"/>
<path fill-rule="evenodd" clip-rule="evenodd" d="M1.336 22.4H11.336V10.4L1.336 22.4Z" fill="white"/>
<path fill-rule="evenodd" clip-rule="evenodd" d="M21.464 16.8V25.6H28.8L21.464 16.8Z" fill="white"/>
<path fill-rule="evenodd" clip-rule="evenodd" d="M3.20001 25.6C4.11201 26.808 5.19201 27.888 6.40001 28.8H25.6C26.808 27.888 27.888 26.808 28.8 25.6H3.20001Z" fill="black"/>
<path fill-rule="evenodd" clip-rule="evenodd" d="M6.39999 28.8C9.07199 30.808 12.4 32 16 32C19.6 32 22.928 30.808 25.6 28.8H6.39999Z" fill="black"/>
<path fill-rule="evenodd" clip-rule="evenodd" d="M21.464 22.4H1.336C1.832 23.544 2.464 24.616 3.2 25.6H21.472V22.4H21.464Z" fill="black"/>
<path fill-rule="evenodd" clip-rule="evenodd" d="M14.136 25.6H21.464V16.8L14.136 25.6Z" fill="white"/>
<path d="M21.464 14.4C23.6732 14.4 25.464 12.6091 25.464 10.4C25.464 8.19085 23.6732 6.39999 21.464 6.39999C19.2549 6.39999 17.464 8.19085 17.464 10.4C17.464 12.6091 19.2549 14.4 21.464 14.4Z" fill="white"/>
<path d="M11.336 8C12.4405 8 13.336 7.10457 13.336 6C13.336 4.89543 12.4405 4 11.336 4C10.2314 4 9.33597 4.89543 9.33597 6C9.33597 7.10457 10.2314 8 11.336 8Z" fill="white"/>
</svg>
