<svg height="32" viewBox="0 0 32 32" width="32" xmlns="http://www.w3.org/2000/svg"><path d="m16 32c-8.836556 0-16-7.163444-16-16s7.163444-16 16-16 16 7.163444 16 16-7.163444 16-16 16zm-.1591557-15.9949084-8.8408443-5.0031822.00256703 10.0019093 2.94566457 1.6675153v-6.657332l5.8932544 3.3350306v-3.335667l-.0019252-.0006365.0019252-.0006364zm5.0294495-7.15885942-5.0236737-2.84623218-5.0410012 2.84814155 2.6042499 1.48548875 2.4316172-1.37474537 2.4251997 1.35883397zm-4.8702938 7.38034622v.007001l.0019253.0006365-.0019253.0006364v3.4018585l5.9997861-3.401222v6.7890784l2.9982886-1.7012474.0019253-10.1998473zm-.3786366 6.7273422-2.3488306-1.4008402-2.522105 1.5160387 4.8651598 2.9308809 4.8844124-2.9334267-2.5227467-1.5294043z" fill-rule="evenodd"/></svg>