<svg height="32" viewBox="0 0 32 32" width="32" xmlns="http://www.w3.org/2000/svg"><path d="m16 32c-8.836556 0-16-7.163444-16-16s7.163444-16 16-16 16 7.163444 16 16-7.163444 16-16 16zm8-19.9389156-8 4.8049877-8-4.8049877v8.9148449l2.5361973 1.4805461v-5.953437l5.4638027 3.273617 5.4638027-3.2704602v5.9505959l2.5361973-1.4805461zm-7.9691329 11.1167232-2.3389021-1.398469-2.3102625 1.398469 4.6491646 2.8221924 4.6491647-2.8221924-2.3102625-1.398469zm4.6182976-14.35561519-4.6491647-2.82219241-4.6491647 2.82219241 2.3102626 1.39846899 2.3389021-1.39846899 2.3389021 1.39846899z" fill-rule="evenodd"/></svg>