<svg width="32" height="32" viewBox="0 0 32 32" fill="none" xmlns="http://www.w3.org/2000/svg">
<path d="M16 32C24.8366 32 32 24.8366 32 16C32 7.16344 24.8366 0 16 0C7.16344 0 0 7.16344 0 16C0 24.8366 7.16344 32 16 32Z" fill="black"/>
<mask id="mask0" mask-type="alpha" maskUnits="userSpaceOnUse" x="1" y="1" width="31" height="30">
<path d="M16.5145 30.8114C24.7076 30.8114 31.3495 24.1695 31.3495 15.9764C31.3495 7.78326 24.7076 1.14142 16.5145 1.14142C8.32138 1.14142 1.67953 7.78326 1.67953 15.9764C1.67953 24.1695 8.32138 30.8114 16.5145 30.8114Z" fill="#000E89"/>
</mask>
<g mask="url(#mask0)">
<path fill-rule="evenodd" clip-rule="evenodd" d="M-14.8621 52.6018C-6.92432 49.9728 -4.15627 48.6774 -2.57935 46.2837C0.186611 42.085 -3.15191 37.414 -6.20153 37.1031C-9.28179 36.7886 -12.3951 37.257 -11.3299 34.2362C-10.302 31.3214 -8.72605 34.366 -7.67982 34.579C-6.63379 34.7923 -3.9129 35.4176 -4.00395 29.9983C-4.09521 24.5788 -5.84018 20.6273 -11.0424 20.6069C-16.2447 20.5861 -22.3911 25.7342 -20.7204 19.2191C-18.3511 9.98055 -10.754 11.3181 -7.93603 14.0076C-5.66766 16.1725 -5.48694 21.7032 -3.8124 21.4391C-2.13779 21.1747 0.342791 17.1051 -1.60345 11.477C-3.54941 5.84909 -2.95037 0.996686 0.629646 0.0774717C4.20968 -0.841415 3.24274 6.67443 2.36924 8.82845C1.49568 10.9828 2.31528 14.6064 3.73924 14.2449C5.1632 13.8834 4.55911 9.01146 5.5932 6.40772C6.62671 3.80333 10.5435 4.67917 10.85 6.40772C11.1565 8.13627 8.21855 9.36108 6.74891 11.2269C5.27946 13.0929 5.18573 18.6734 5.72518 20.5615C6.26463 22.4496 7.34354 27.5744 12.4476 26.7652C16.4162 23.2535 11.9079 25.171 12.4476 22.8625C12.9875 20.5541 16.052 20.2159 16.4071 22.4496C16.7616 24.6832 16.0525 26.5391 16.4071 28.9333C16.7617 31.3282 20.4291 28.8952 22.1462 27.3217C31.5266 18.7259 38.8677 28.6828 30.0259 34.8505L23.2798 60.8051C12.4154 61.5452 1.44157 62.7665 -8.75061 67C-11.4111 64.3618 -13.8653 59.392 -14.8727 56.045C-14.7634 54.8835 -14.7541 53.7396 -14.8621 52.6018Z" fill="white"/>
<path d="M27.5367 10.4077C28.0877 9.60532 27.7577 8.41794 26.7997 7.75572C25.8416 7.09349 24.4369 7.47134 23.8859 8.27382C23.6565 8.6078 23.4368 9.07837 23.3276 9.56173C23.0556 10.7652 24.4966 11.1701 25.7268 11.2061C26.4275 11.2265 27.0136 11.1694 27.5367 10.4077Z" fill="white"/>
<path d="M22.8588 6.98091C22.8617 6.44352 22.3514 6.00528 21.7191 6.00209C21.0867 5.99888 20.5707 6.60883 20.5678 7.14625C20.5615 8.31232 22.424 8.44738 22.8032 7.34448C22.8383 7.24243 22.858 7.12342 22.8588 6.98091Z" fill="white"/>
<path d="M25.5159 20.0635C25.5159 20.0635 24.0761 15.1101 23.8465 14.3203L24.2268 12.9019C24.2832 12.6913 24.1583 12.4748 23.9477 12.4184L14.6583 9.92799C14.4478 9.87153 14.2314 9.99649 14.1749 10.207L13.7947 11.6254C13.2006 12.1947 9.47345 15.7663 9.47345 15.7663C9.42419 15.8142 9.38648 15.8752 9.36739 15.9465L6.09714 28.1456C6.04071 28.3562 6.16565 28.5727 6.37617 28.6291L21.765 32.7548C21.9756 32.8112 22.192 32.6863 22.2485 32.4758L25.5187 20.2766C25.5382 20.2039 25.5357 20.1307 25.5159 20.0635ZM23.2396 15.0601L24.5629 19.6116L19.817 18.3393L23.2396 15.0601ZM18.9255 18.1003L10.5276 15.8489L14.2599 12.2729L22.6578 14.5243L20.2585 16.8232L19.592 17.4618L18.9255 18.1003ZM19.3171 19.0226L21.6044 19.6357L18.9082 29.6932L16.3143 30.2237L19.3171 19.0226ZM17.4848 30.79L19.1121 30.4572L20.3546 31.5594L17.4848 30.79Z" fill="white"/>
<path d="M17.1331 21.02C17.133 20.8021 16.9563 20.6253 16.7384 20.6254L15.6446 20.6252L15.6447 19.5315C15.6447 19.3135 15.468 19.1366 15.2501 19.1367C15.0321 19.1367 14.8554 19.3134 14.8554 19.5313L14.8553 20.439L14.5988 20.1825C14.4446 20.0283 14.1947 20.0283 14.0406 20.1824C13.8865 20.3365 13.8864 20.5864 14.0406 20.7406L15.5288 22.2291C15.5796 22.2798 15.6407 22.314 15.7054 22.3313C15.8371 22.3666 15.9836 22.3326 16.087 22.2292C16.2412 22.0751 16.2412 21.8252 16.0871 21.671L15.8306 21.4145L16.7383 21.4147C16.9563 21.4147 17.1331 21.238 17.1331 21.02Z" fill="black"/>
<path d="M13.0914 24.6297L11.6031 23.1412C11.449 22.9869 11.1991 22.987 11.0449 23.1411C10.8908 23.2952 10.8908 23.545 11.0449 23.6992L12.5332 25.1878C12.584 25.2385 12.6451 25.2726 12.7097 25.29C12.8414 25.3252 12.988 25.2912 13.0913 25.1878C13.2455 25.0337 13.2456 24.7839 13.0914 24.6297Z" fill="black"/>
<path d="M11.9751 25.7462L10.4836 24.2545C10.4124 24.1849 10.3152 24.1419 10.2078 24.142C9.98982 24.142 9.81311 24.3186 9.81311 24.5366L9.81297 25.6305C9.37388 25.6306 8.72487 25.6307 8.72135 25.6307C8.61963 25.6301 8.51772 25.6682 8.44008 25.7458C8.28593 25.8999 8.28586 26.1498 8.44002 26.304L9.92824 27.7925C9.97902 27.8433 10.0401 27.8774 10.1047 27.8947C10.2366 27.93 10.383 27.896 10.4864 27.7926C10.6406 27.6385 10.6406 27.3886 10.4865 27.2344L9.67189 26.4197L10.2075 26.4198C10.4255 26.4198 10.6022 26.2432 10.6022 26.0252L10.6023 25.4896L11.4169 26.3044C11.4676 26.3551 11.5287 26.3892 11.5934 26.4065C11.7251 26.4419 11.8716 26.4078 11.975 26.3045C12.1292 26.1502 12.1292 25.9004 11.9751 25.7462Z" fill="black"/>
<path d="M14.9709 22.7878C14.8167 22.6336 14.5668 22.6336 14.4127 22.7877L13.9475 23.2528L12.7382 22.0434C12.5841 21.8892 12.3342 21.8892 12.18 22.0433C12.0259 22.1974 12.0259 22.4473 12.18 22.6015L13.6683 24.09C13.7191 24.1407 13.7802 24.1748 13.8448 24.1921C13.9766 24.2274 14.1231 24.1934 14.2264 24.0901L14.9708 23.3459C15.125 23.1918 15.125 22.9419 14.9709 22.7878Z" fill="black"/>
</g>
</svg>
