<svg width="33" height="33" viewBox="0 0 33 33" fill="none" xmlns="http://www.w3.org/2000/svg">
<g clip-path="url(#clip0)">
<path d="M16.6667 32.0179C25.5032 32.0179 32.6667 24.8545 32.6667 16.0179C32.6667 7.18139 25.5032 0.0179443 16.6667 0.0179443C7.83013 0.0179443 0.666687 7.18139 0.666687 16.0179C0.666687 24.8545 7.83013 32.0179 16.6667 32.0179Z" fill="black"/>
<path d="M19.6764 9.20871V5.68252L16.6667 5.07455V8.60075L13.6569 7.8712V11.3974L10.6472 10.6678V21.976L13.6569 22.7056V26.2317L16.6667 26.9613V23.4351L19.6764 24.1647V20.6385L22.6861 21.368V10.0599L19.6764 9.20871ZM17.2686 21.2464L13.055 20.2737V13.5861L17.2686 14.5588V21.2464Z" fill="white"/>
</g>
<defs>
<clipPath id="clip0">
<rect width="32" height="32" fill="white" transform="translate(0.666687 0.0179443)"/>
</clipPath>
</defs>
</svg>
