<svg height="32" viewBox="0 0 32 32" width="32" xmlns="http://www.w3.org/2000/svg"><path d="m16 32c-8.836556 0-16-7.163444-16-16s7.163444-16 16-16 16 7.163444 16 16-7.163444 16-16 16zm-.0074384-11.002102c3.4570684 0 6.9141367-.0004668 10.3711592.000887.2333593.0000933.4560259-.0412203.5749313-.2617467.1221637-.2265016.0451575-.4522563-.0848079-.6573775-.1075243-.1696895-.2195-.336438-.3290435-.5049605-.8889224-1.3665255-1.8356225-2.6983663-2.6534128-4.1076527-1.3534383-2.3321918-2.6250057-4.7135866-3.9271371-7.07649529-.12969-.23532454-.2961851-.40286665-.5721779-.38984234-.2617203.01232408-.3971927.20166674-.4991182.42373357-.864095 1.88334326-1.7292455 3.76617306-2.5938453 5.64928296-.1277625.278272-.1904047.2864414-.3627739.0419672-.8413327-1.1933816-1.6841799-2.3857362-2.5214741-3.5820588-.1440999-.2057748-.3367993-.3353643-.5631831-.25171-.163558.0604534-.3195439.2129638-.4215612.3644473-1.0405486 1.5441043-2.0670085 3.0979653-3.10273846 4.6454774-.32188445.4809192-.6171517.9901277-.99874127 1.4179692-1.00126531 1.1224716-2.04222695 2.2083443-3.07024713 3.3060275-.17948248.1916301-.3077498.3931101-.19742614.6658271.11633549.2877485.35827657.3185587.62637594.3183253 3.44174052-.0031277 6.88348106-.0020073 10.32522156-.0021007zm2.1632434-1.1113611c-.1617683.1268352-2.6103204.1254815-2.804626-.0178793.2680077-.2970383.5322062-.5927228.8018659-.8832256.0215691-.0232477.088158-.027169.1211082-.0118572.6217868.2895691 1.2416002.5833397 1.8615972.8767834.0055988.0026142.007618.0131177.0200547.0361787zm-5.6742804-7.1624371c-.0557584.552016-.0998604 1.0548758-.1634662 1.555168-.0114271.0900498-.0841654.1996128-.1605752.2490958-.4760805.3083354-.9600086.6041132-1.4449463.8980238-.0567222.0343581-.1352429.0315572-.2036674.0460287.015649-.0675024.0139052-.1468154.0494712-.2006398.5657072-.857037 1.1352233-1.7115065 1.7079059-2.5636884.0337763-.0502767.1020632-.0766054.154242-.1140912.026709.0569056.053418.1138577.061036.1301031zm11.9972859 7.2502462c-.2753043.0000933-.5506545-.0041081-.8258212.0017272-.1519475.0031743-.2041264-.0643747-.192837-.2127304.0596593-.7822056.1147751-1.5646446.1762242-2.3466634.0041761-.052704.0477732-.1021871.0730596-.1531173.0474061.0304834.1111956.0497165.139832.0930375.5272039.799758 1.0499106 1.6026904 1.5743151 2.4044557.1005028.1536776.0400635.2124503-.1189513.2130105-.2753044.0010737-.5505629.0002802-.8258214.0002802zm-17.73420847-.06008c.21252451-.2324303.37585309-.4142104.54253179-.5927695.47764091-.5118227.95821889-1.0207978 1.43411591-1.5343478.12239319-.1321104.19439728-.1411667.27245908.0462154.26695207.6410388.54326605 1.2781563.82210408 1.9139667.07287603.1662817.02900355.2282755-.14341159.227902-.89277732-.0016338-1.78560052.0000935-2.67837783-.0026141-.06135722-.0002801-.12266854-.0277292-.24942144-.0583527zm13.19565617-4.6131266c.1382718.0126508.2181692.0098499.2929268.028336.8358257.2067551 1.6708712.416918 2.5061922.6258205.3129355.0782392.4549245.2479753.4354205.5775043-.0457081.7745498-.1056887 1.5482592-.1594278 2.322342-.0118401.170343-.0160163.3414797-.0357496.5108891-.007205.0619004-.049196.1196929-.0753083.1793059-.0509858-.0376257-.1162896-.0649814-.1507085-.1146045-.5024224-.722079-1.0007146-1.4470989-1.4999246-2.1714653-.4028374-.5844601-.8059042-1.1688269-1.2076403-1.7540806-.0289577-.0422006-.0479569-.0914968-.1057804-.2040474zm-.2119279-5.1351262c.0464883.0646081.1001816.1251081.1385012.1943844.8668485 1.5682857 1.7325956 3.1372249 2.5951302 4.7079381.03731.0678758.0415779.1544244.0612655.2322901-.079255.0005602-.1623649.0175058-.2371225-.0008403-.8659765-.212637-1.7299338-.4337235-2.5964611-.6438863-.1427691-.0346382-.1832456-.1062952-.1790236-.2437274.0388244-1.2571494.0737021-2.5144388.1114251-3.7716349.0046351-.154191.0193663-.3080552.0294625-.4620129.0255617-.0041547.0511692-.0083561.0768227-.0125108zm-3.8852839 7.7071707c-.0930225-.0840745-.1513967-.127909-.1992159-.1815468-.8923643-1.0002577-1.7817915-2.0031763-2.6768634-3.0009131-.10679-.1189927-.1447424-.2335039-.1267529-.3954442.0753542-.6785246.1351052-1.3587763.2051359-2.0379078.0088112-.0855216.0444691-.1681956.0676903-.2522235.0312063-.0186728.0624586-.0373923.0936191-.0561119.0249651.0577459.0406601.1223072.076272.1721637.789934 1.1047323 1.5804187 2.2090444 2.374896 3.3103222.1933418.2679554.2831059.5583181.2679616.8914417-.0190909.4186919-.0196416.8382707-.0328584 1.2572894-.0024781.0800599-.0263877.1594195-.0498843.2929303zm.5773636-.2088091c.0192287-.8059201-.0425416-1.6049778.3458858-2.3795275.7338543-1.4632509 1.4025424-2.9603464 2.1029876-4.4411032.0308392-.0651681.1077538-.1077422.1631909-.1608665.0201006.0685294.0591085.1374788.0575483.205448-.0277187 1.2349287-.0591086 2.4697641-.09495 3.704506-.0020652.0698831-.0337763.1514834-.0778783.2056347-.7549186.9278071-1.5134627 1.8525798-2.2736588 2.7759054-.0433677.0527041-.1083045.0870155-.1631909.1299163-.0199629-.0132578-.0399717-.0265622-.0599346-.0399132zm-3.5037861 2.3102512c-.4892056-.0000933-.9784571.0026142-1.4676169-.003221-.0675984-.0007937-.1346921-.0437412-.2020152-.0671757.0255616-.0612001.0402011-.1306631.0781994-.1822469.7641429-1.0384904 1.5334714-2.072966 2.2945396-3.1136971.1201445-.1642744.1974261-.1645545.3309709-.0144248.5535.6220392 1.1150309 1.2367026 1.6784435 1.8494521.106331.1156315.1335908.1955513.0092242.3260279-.33478.351423-.6484499.7235727-.9835511 1.0747157-.0687917.0721238-.1932959.122167-.2936152.1248279-.4812204.0127443-.9629916.0057419-1.4445792.0057419zm.4986594-3.9658792c-.4218826.5656939-.8359175 1.1209777-1.2500444 1.6761214-.4934276.6614389-.98658 1.3232046-1.4807878 1.9840366-.1871004.2501695-.2338182.2454546-.3550182-.035385-.321242-.7446265-.63885848-1.4907467-.96354233-2.233786-.06525801-.1493827-.0808153-.2841072.0381819-.4056676.12780841-.1306631.24675973-.2802793.39760577-.375931.83431126-.528955 1.67903996-1.0409178 2.51523286-1.5669319.1397402-.0879024.2205096-.0743179.3239954.0529375.2471728.303994.5085719.5959906.7743768.904606zm5.7949755-.7873872c.3649309.5273212.6766273.9763097.9868553 1.4263721.7010418 1.0167365 1.4022671 2.0333796 2.0997293 3.0527303.0428629.062554.053785.1477022.0795762.2223469-.0709945.0172257-.1418972.0491562-.2129375.0495297-.7565249.0036412-1.5131414.0061154-2.2696204-.0015405-.1253303-.0013071-.2592422-.0322107-.3738798-.0842612-.9182013-.4172915-1.8320887-.8444795-2.7490969-1.2645252-.1473582-.0674556-.2139471-.1286559-.0836147-.2857412.7977815-.9617917 1.5902395-1.9280181 2.3831106-2.8939645.0433217-.0527974.074161-.116145.1398779-.2209464z" fill-rule="evenodd"/></svg>