<svg xmlns="http://www.w3.org/2000/svg" width="32" height="32" viewBox="0 0 32 32"><path fill-rule="evenodd" d="M16 32C7.163 32 0 24.837 0 16S7.163 0 16 0s16 7.163 16 16-7.163 16-16 16zm-.007-11.002h10.37c.234 0 .457-.04.576-.261.122-.226.045-.452-.085-.657-.108-.17-.22-.337-.33-.505-.888-1.367-1.835-2.699-2.653-4.108-1.353-2.332-2.625-4.714-3.927-7.076-.13-.236-.296-.403-.572-.39-.262.012-.397.201-.499.423l-2.594 5.65c-.128.278-.19.286-.363.042-.841-1.194-1.684-2.386-2.521-3.582-.144-.206-.337-.336-.563-.252-.164.06-.32.213-.422.364-1.04 1.544-2.067 3.098-3.103 4.646-.322.48-.617.99-.998 1.418-1.002 1.122-2.043 2.208-3.07 3.306-.18.191-.308.393-.198.666.116.287.358.318.626.318 3.442-.003 6.884-.002 10.326-.002zm2.163-1.111c-.162.126-2.61.125-2.805-.018.268-.297.532-.593.802-.884.022-.023.088-.027.121-.011.622.29 1.242.583 1.862.876.005.003.007.013.02.037zm-5.674-7.163c-.056.552-.1 1.055-.164 1.555a.397.397 0 0 1-.16.25 57 57 0 0 1-1.445.897c-.057.035-.136.032-.204.046.016-.067.014-.146.05-.2a372.27 372.27 0 0 1 1.707-2.564c.034-.05.102-.077.154-.114l.062.13zm11.997 7.25c-.275 0-.55-.004-.826.002-.152.003-.204-.064-.193-.213.06-.782.115-1.564.176-2.346.005-.053.048-.103.073-.153.048.03.112.05.14.093.527.8 1.05 1.602 1.575 2.404.1.154.04.213-.12.213h-.825zm-17.734-.06c.212-.232.375-.414.542-.593.478-.511.958-1.02 1.434-1.534.123-.132.195-.141.273.046.267.641.543 1.279.822 1.914.073.167.029.229-.144.228-.892-.001-1.785 0-2.678-.002-.061 0-.123-.028-.25-.059zm13.195-4.613c.139.013.218.01.293.028.836.207 1.671.417 2.506.626.313.079.455.248.436.578-.046.774-.106 1.548-.16 2.322-.011.17-.016.342-.035.511-.008.062-.05.12-.076.18-.05-.038-.116-.066-.15-.115-.503-.722-1.001-1.447-1.5-2.172l-1.208-1.754c-.029-.042-.048-.091-.106-.204zm-.212-5.135c.047.065.1.125.139.194.867 1.569 1.732 3.138 2.595 4.708.037.068.042.155.061.233-.079 0-.162.017-.237-.001-.866-.213-1.73-.434-2.596-.644-.143-.035-.184-.106-.18-.244.04-1.257.074-2.514.112-3.771.005-.155.02-.309.03-.462l.076-.013zm-3.885 7.707c-.093-.084-.151-.128-.2-.181-.892-1-1.781-2.004-2.676-3.001a.46.46 0 0 1-.127-.396c.076-.678.135-1.358.205-2.038.01-.085.045-.168.068-.252l.094-.056c.025.058.04.122.076.172a969.77 969.77 0 0 0 2.375 3.31c.193.268.283.559.268.892-.02.419-.02.838-.033 1.257-.003.08-.026.16-.05.293zm.577-.209c.02-.806-.042-1.605.346-2.38.734-1.462 1.403-2.96 2.103-4.44.031-.065.108-.108.163-.161.02.068.06.137.058.205-.028 1.235-.06 2.47-.095 3.705a.367.367 0 0 1-.078.205 619.97 619.97 0 0 1-2.273 2.776c-.044.053-.109.087-.164.13l-.06-.04zm-3.503 2.31c-.49 0-.979.003-1.468-.003-.068 0-.135-.043-.202-.067.026-.061.04-.13.078-.182.764-1.039 1.534-2.073 2.295-3.114.12-.164.197-.164.33-.014a154.73 154.73 0 0 0 1.68 1.85c.105.115.133.195.008.325-.334.352-.648.724-.983 1.075a.46.46 0 0 1-.294.125c-.481.013-.963.006-1.444.006zm.498-3.965l-1.25 1.676-1.48 1.984c-.188.25-.234.245-.356-.035-.32-.745-.638-1.491-.963-2.234-.065-.15-.08-.284.038-.406.128-.13.247-.28.398-.376.834-.529 1.679-1.04 2.515-1.567.14-.088.22-.074.324.053.247.304.508.596.774.905zm5.795-.788c.365.528.677.977.987 1.427a1096.57 1096.57 0 0 1 2.1 3.052c.043.063.054.148.08.223-.072.017-.142.049-.214.05-.756.003-1.513.005-2.27-.002a.954.954 0 0 1-.373-.084c-.918-.418-1.832-.845-2.75-1.265-.146-.067-.213-.129-.083-.286.798-.962 1.59-1.928 2.383-2.894.044-.052.075-.116.14-.22z"/></svg>