<svg height="32" width="32" xmlns="http://www.w3.org/2000/svg"><path d="m8.627 20.124 1.36-.786-.178-.309-1.342.775v-7.851l6.82 4.042v11.56l.713.445.714-.445v-11.56l6.819-4.042v7.852l-1.343-.776-.178.31 1.36.785-5.27 3.092v1.729l6.898-4.06v-10.59l-9-5.295-9 5.295v10.59l6.899 4.06v-1.73zm7.175-13.31v1.581h.357v-1.604l6.66 3.908-6.819 4.043-6.82-4.043zm.198 25.186c-8.837 0-16-7.163-16-16s7.163-16 16-16 16 7.163 16 16-7.163 16-16 16zm-.198-22.594v1.657h.357v-1.657zm0 2.668v1.657l.178.081.179-.08v-1.658zm5.56 6.45-1.435-.829-.179.31 1.436.828zm-2.265-1.334-1.436-.828-.159.114-.02.195 1.436.828zm-8.46 1.334.179.31 1.435-.83-.179-.309-1.435.83zm2.266-1.334.178.31 1.435-.83-.019-.194-.159-.114z" fill-rule="evenodd"/></svg>