<svg xmlns="http://www.w3.org/2000/svg" width="32" height="32" viewBox="0 0 32 32">
  <path d="M14.8627438,26.9857621 L14.8627438,23.6161108 C11.1678052,23.0555193 8.33592805,19.8591648 8.33592805,16 C8.33592805,12.1408352 11.1678052,8.94448071 14.8627438,8.38388925 L14.8627438,5.01423795 C9.32027081,5.59526571 5,10.292046 5,16 C5,21.707954 9.32027081,26.4047343 14.8627438,26.9857621 Z M17.038349,5 L17.038349,8.36330012 C20.4232628,8.81086217 23.113787,11.4654548 23.6232066,14.8372389 L26.9857919,14.8372389 C26.4408257,9.6168895 22.2675338,5.4785304 17.038349,5 Z M27,17.0174159 L23.6437526,17.0174159 C23.1907309,20.4580353 20.4717536,23.1827263 17.038349,23.6366999 L17.038349,27 C22.3159719,26.517037 26.5180497,22.306129 27,17.0174159 Z M16,32 C7.163444,32 0,24.836556 0,16 C0,7.163444 7.163444,0 16,0 C24.836556,0 32,7.163444 32,16 C32,24.836556 24.836556,32 16,32 Z"/>
</svg>
