<svg height="32" viewBox="0 0 32 32" width="32" xmlns="http://www.w3.org/2000/svg"><path d="m16 32c-8.836556 0-16-7.163444-16-16s7.163444-16 16-16 16 7.163444 16 16-7.163444 16-16 16zm9.5686356-10.6839838c-.1311476-.788501-.3934427-1.577002-.590164-2.2997946-.1967213-.7885011-.3934426-1.5770021-.5901639-2.3655031-.5245902-1.9712526-1.0491803-3.9425051-1.5737705-5.9137577-.1311475-.4599589-.1967213-.91991787-.3278689-1.3798768-.0655737-.19712526-.1311475-.45995893-.3278688-.59137577-.1967213-.06570842-.3934426-.06570842-.5901639-.06570842-.2622951 0-.5245902 0-.7868853 0-.5245902 0-1.1147541 0-1.6393443 0-.3934426 0-.7213114 0-1.1147541.06570842-.3278688.06570842-.6557377.26283367-.7868852.59137577-.0655738.13141684 0 .32854209.1311475.39425051.0655738.06570842.1967214 0 .2622951-.06570842.0655738 0 .2622951-.19712525.3278689-.19712525l3.0819672 11.36755646v.0657084c.0655738.2628337.1967213.5256674.3934426.5913758.1311476.0657084.2622951.1314168.4590164.1314168h.3278689.5245901 1.5737705.852459c.1967213.0657084.4590164-.0657084.3934427-.3285421zm-7.6065574 0c-.1311476-.788501-.3934426-1.577002-.590164-2.2997946-.1967213-.7885011-.3934426-1.5770021-.5901639-2.3655031-.5245902-1.9712526-1.0491803-3.9425051-1.5737705-5.9137577-.1311475-.4599589-.1967213-.91991787-.3278688-1.3798768-.0655738-.19712526-.1311476-.45995893-.3278689-.59137577-.1967213-.06570842-.3934426-.06570842-.5901639-.06570842-.2622951 0-.5245902 0-.7868853 0-.5245901 0-1.1147541 0-1.6393442 0-.3934427 0-.7213115 0-1.1147541.06570842-.3278689.06570842-.65573773.26283367-.78688527.59137577-.06557377.13141684 0 .32854209.13114754.39425051.06557377.06570842.19672131 0 .26229503-.06570842.0655738 0 .2622951-.19712525.3278689-.19712525l3.0819672 11.36755646v.0657084c.0655738.2628337.1967213.5256674.3934426.5913758.1311476.0657084.2622951.1314168.4590164.1314168h.3278689.5245901 1.5737705.8524591c.1967213.0657084.4590163-.0657084.3934426-.3285421zm-6.0327869-2.4969199-2.09836066-8.2135523c0-.1314169-.13114754-.2628337-.32786885-.2628337-.13114755 0-.26229509.1314168-.32786886.2628337l-2.75409836 10.3819301v.1314169c0 .3285421.26229508.6570842.65573771.6570842h3.47540982c.2622951 0 .5245902-.1971253.5901639-.459959zm7.7377049-.1971252-2.295082-8.2792608c0-.1314169-.1311475-.1971253-.262295-.1971253-.1311476 0-.2622951.0657084-.2622951.1971253l-.4590164 1.6427105 2.295082 8.0164271c.0655737.1314168.1311475.1971252.262295.1971252.1311476 0 .1967213-.0657084.2622951-.1971252z"/></svg>