<svg width="32" height="32" viewBox="0 0 32 32" version="1.1" xmlns="http://www.w3.org/2000/svg" xmlns:xlink="http://www.w3.org/1999/xlink"><title>black/msr</title><desc>Created with Sketch.</desc><g id="black/msr" stroke="none" stroke-width="1" fill="none" fill-rule="evenodd"><path d="M16,32 C7.163444,32 0,24.836556 0,16 C0,7.163444 7.163444,0 16,0 C24.836556,0 32,7.163444 32,16 C32,24.836556 24.836556,32 16,32 Z M16,6 C10.48,6 6,10.48 6,16 C6,16.1333333 6.01333333,16.26 6.02,16.3933333 L10.7133333,16.3933333 L12.98,12.4933333 L16,16.82 L19.0133333,12.4933333 L21.28,16.3933333 L25.9733333,16.3933333 C25.98,16.26 25.9933333,16.1333333 25.9933333,16 C26,10.48 21.52,6 16,6 Z M22.8933333,15.1866667 C22.4866667,11.74 19.5533333,9.06 16,9.06 C12.4466667,9.06 9.51333333,11.7466667 9.10666667,15.1866667 L7.89333333,15.1866667 C8.3,11.0733333 11.78,7.85333333 16,7.85333333 C20.22,7.85333333 23.6933333,11.0733333 24.1066667,15.1866667 L22.8933333,15.1866667 Z M18.9266667,14.7333333 L16,18.9333333 L13.0733333,14.7333333 L11.4066667,17.6 L6.14,17.6 C6.90666667,22.36 11.02,26 16,26 C20.98,26 25.0933333,22.36 25.86,17.5933333 L20.5933333,17.5933333 L18.9266667,14.7333333 Z M22.3466667,18.8 L23.64,18.8 C22.4933333,21.9133333 19.5066667,24.1466667 16,24.1466667 C12.4933333,24.1466667 9.50666667,21.9133333 8.36,18.8 L9.65333333,18.8 C10.7333333,21.2333333 13.1666667,22.94 16,22.94 C18.8333333,22.94 21.2666667,21.2333333 22.3466667,18.8 Z" id="Combined-Shape" fill="#000" fill-rule="nonzero"/></g></svg>