<svg height="32" viewBox="0 0 32 32" width="32" xmlns="http://www.w3.org/2000/svg"><path d="m16 32c-8.836556 0-16-7.163444-16-16s7.163444-16 16-16 16 7.163444 16 16-7.163444 16-16 16zm-11-15.9976077c.13267712.0507905.20612776.0818291.28141773.107347 2.03883777.6934003 4.07681718 1.3899902 6.11896577 2.0734532.2251342.0754496.3519254.1991134.4532113.4057103 1.2175149 2.4852977 2.4423871 4.9667922 3.6659105 7.4491454.1499668.3041294.3031218.6067866.480556.9619518.0451249-.1163028.0684231-.170283.087307-.2257354.6909755-2.029901 1.386856-4.0582072 2.065692-6.0922794.0915987-.2743176.2334724-.4380984.4929408-.5649519 2.6323288-1.2877959 5.2586491-2.5881054 7.8865634-3.8852251.1401571-.0691928.2789653-.14133.4674355-.2370222-.141138-.0499317-.2172864-.0779032-.2940478-.1039119-2.039083-.6931549-4.0792696-1.3829973-6.1151645-2.0849854-.1478822-.0510358-.3232318-.1613271-.3885894-.2925972-1.3564458-2.7239147-2.69879-5.45494492-4.0443223-8.18425762-.0479453-.09728705-.0993239-.19285655-.169709-.32903388-.0479453.12550397-.0790913.19935871-.1047193.27493099-.6961257 2.05002091-1.394336 4.09942841-2.0827365 6.15202561-.0675648.2013217-.1755948.3217957-.3635745.4136847-1.7612214.8609842-3.51888663 1.7289614-5.27679715 2.5965705-1.03407222.5102356-2.06667298 1.0232929-3.16033955 1.5651805zm7.7307107 2.6526363c1.6368825.5530517 3.1887879 1.0772731 4.7611712 1.60861-.5378206 1.5888583-1.0658314 3.1488861-1.6155463 4.7730769-1.057493-2.1454678-2.0834722-4.227018-3.1456249-6.3816869zm-5.75404234-2.7688164c2.14392491-1.0592388 4.22568044-2.0878071 6.38199014-3.15318-.5516768 1.6270124-1.0799329 3.1850774-1.6172629 4.7702551-1.5819478-.5368576-3.14157842-1.0662317-4.76472724-1.6170751zm6.03141354 2.0233988c.4236594-.2106454.8111452-.4044834 1.1996121-.5963585 1.8665537-.9215893 3.7316359-1.8462457 5.6033398-2.7569162.1342712-.065267.3348809-.0767991.4772452-.0298118 1.4919432.4914652 2.9782457.9998606 4.4660197 1.5040847.0643766.0219602.1272818.0487049.2468383.0948334-.5449326.2714959-1.042901.521277-1.5427087.7681138-1.7565617.8674864-3.5123876 1.7365677-5.2732411 2.5954663-.1232352.060237-.3016503.0948334-.425376.0538575-1.5400111-.5092541-3.0747494-1.0347023-4.610346-1.5569608-.0353152-.0121455-.066829-.0355778-.1413833-.0763084zm6.498849-4.0647093c-2.2855534 1.1285543-4.5414323 2.2425094-6.8691678 3.3919197 1.1679756-3.4458999 2.3099553-6.8161048 3.4792797-10.26666665 1.1441869 2.32041266 2.2590671 4.58132445 3.3898881 6.87474695z" fill-rule="evenodd"/></svg>