<svg width="32" height="32" viewBox="0 0 32 32" fill="none" xmlns="http://www.w3.org/2000/svg">
<path d="M32 16C32 24.8365 24.8365 32 16 32C7.1635 32 0 24.8365 0 16C0 7.1635 7.1635 0 16 0C24.8365 0 32 7.1635 32 16Z" fill="black"/>
<path d="M9.0428 11.7861H18.4211C19.8246 11.7861 20.9664 12.928 20.9664 14.3315C20.9664 15.735 19.8246 16.8768 18.4211 16.8768H13.3466C13.1544 16.8768 12.97 16.9532 12.8341 17.0891C12.6982 17.225 12.6219 17.4093 12.6219 17.6015C12.6219 17.7937 12.6982 17.978 12.8341 18.1139C12.97 18.2498 13.1544 18.3262 13.3466 18.3262H18.4209C20.6235 18.3262 22.4156 16.5344 22.4156 14.3315C22.4156 12.1286 20.6235 10.3368 18.4209 10.3368H9.0428C8.85061 10.3368 8.66628 10.4131 8.53037 10.549C8.39447 10.6849 8.31812 10.8692 8.31812 11.0614C8.31812 11.2536 8.39447 11.438 8.53037 11.5739C8.66628 11.7098 8.85061 11.7861 9.0428 11.7861V11.7861Z" fill="white"/>
<path d="M18.4211 7H14.7835C14.5913 7 14.407 7.07635 14.2711 7.21226C14.1352 7.34816 14.0588 7.53249 14.0588 7.72469C14.0588 7.91689 14.1352 8.10122 14.2711 8.23712C14.407 8.37303 14.5913 8.44938 14.7835 8.44938H18.4211C21.6645 8.44938 24.303 11.0881 24.303 14.3315C24.303 17.5749 21.6643 20.2137 18.4209 20.2137H9.18133C9.08549 20.2126 8.99038 20.2305 8.90152 20.2665C8.81266 20.3024 8.7318 20.3556 8.66364 20.423C8.59548 20.4904 8.54137 20.5706 8.50444 20.659C8.4675 20.7475 8.44849 20.8424 8.44849 20.9382C8.44849 21.0341 8.4675 21.129 8.50444 21.2174C8.54137 21.3059 8.59548 21.3861 8.66364 21.4535C8.7318 21.5209 8.81266 21.5741 8.90152 21.61C8.99038 21.6459 9.08549 21.6639 9.18133 21.6628H18.4209C22.4634 21.6628 25.7524 18.374 25.7524 14.3313C25.7524 10.2886 22.4637 7 18.4211 7Z" fill="white"/>
<path d="M14.2196 14.3315C14.2194 14.1394 14.143 13.9552 14.0071 13.8193C13.8713 13.6835 13.6871 13.607 13.4949 13.6068H11.7288C11.5367 13.607 11.3525 13.6835 11.2166 13.8193C11.0807 13.9552 11.0043 14.1394 11.0041 14.3315C11.0041 14.733 11.3246 15.0562 11.5899 15.0562H13.3558C13.8645 15.0562 14.2196 14.7581 14.2196 14.3315ZM11.9257 23.5507H7.73294C7.63709 23.5496 7.54197 23.5675 7.45309 23.6034C7.36422 23.6394 7.28335 23.6926 7.21518 23.76C7.14701 23.8274 7.09289 23.9076 7.05596 23.9961C7.01902 24.0845 7 24.1794 7 24.2753C7 24.3712 7.01902 24.4661 7.05596 24.5545C7.09289 24.643 7.14701 24.7233 7.21518 24.7906C7.28335 24.858 7.36422 24.9113 7.45309 24.9472C7.54197 24.9831 7.63709 25.001 7.73294 24.9999H11.9257C12.0216 25.001 12.1167 24.9831 12.2056 24.9472C12.2944 24.9113 12.3753 24.858 12.4435 24.7906C12.5116 24.7233 12.5658 24.643 12.6027 24.5545C12.6396 24.4661 12.6586 24.3712 12.6586 24.2753C12.6586 24.1794 12.6396 24.0845 12.6027 23.9961C12.5658 23.9076 12.5116 23.8274 12.4435 23.76C12.3753 23.6926 12.2944 23.6394 12.2056 23.6034C12.1167 23.5675 12.0216 23.5496 11.9257 23.5507V23.5507Z" fill="white"/>
</svg>
