<svg width="32" height="32" viewBox="0 0 32 32" fill="none" xmlns="http://www.w3.org/2000/svg">
<path d="M16 32C24.8365 32 32 24.8365 32 16C32 7.16345 24.8365 0 16 0C7.16345 0 0 7.16345 0 16C0 24.8365 7.16345 32 16 32Z" fill="black"/>
<path d="M22.0528 7.01528L17.8722 13.2222C17.8127 13.3116 17.7875 13.4195 17.8014 13.526C17.8153 13.6325 17.8673 13.7304 17.9477 13.8016C18.0282 13.8727 18.1317 13.9123 18.2391 13.913C18.3465 13.9138 18.4505 13.8756 18.5319 13.8056L22.6472 10.2361C22.6713 10.2145 22.7012 10.2004 22.7332 10.1956C22.7652 10.1907 22.7979 10.1952 22.8274 10.2086C22.8568 10.222 22.8817 10.2437 22.8991 10.271C22.9164 10.2984 22.9254 10.3301 22.925 10.3625V21.5375C22.925 21.5717 22.9144 21.6051 22.8948 21.6331C22.8752 21.6611 22.8474 21.6824 22.8152 21.6941C22.7831 21.7058 22.7481 21.7073 22.7151 21.6984C22.682 21.6895 22.6525 21.6707 22.6306 21.6444L10.1917 6.75417C9.99159 6.51791 9.74246 6.32806 9.4616 6.19782C9.18073 6.06758 8.87487 6.00008 8.56528 6H8.13056C7.5655 6 7.02358 6.22447 6.62403 6.62403C6.22447 7.02358 6 7.5655 6 8.13056V23.8694C6 24.4345 6.22447 24.9764 6.62403 25.376C7.02358 25.7755 7.5655 26 8.13056 26C8.49488 26.0001 8.85316 25.9068 9.17119 25.7291C9.48922 25.5513 9.7564 25.2951 9.94722 24.9847L14.1278 18.7778C14.1873 18.6884 14.2125 18.5805 14.1986 18.474C14.1847 18.3675 14.1327 18.2696 14.0523 18.1984C13.9718 18.1273 13.8683 18.0877 13.7609 18.087C13.6535 18.0862 13.5495 18.1244 13.4681 18.1944L9.35278 21.7639C9.32866 21.7855 9.29878 21.7996 9.26679 21.8044C9.2348 21.8093 9.20208 21.8048 9.17263 21.7914C9.14317 21.778 9.11826 21.7563 9.10092 21.729C9.08358 21.7016 9.07458 21.6699 9.075 21.6375V10.4597C9.07501 10.4255 9.08555 10.3921 9.10519 10.3641C9.12483 10.3361 9.15261 10.3148 9.18477 10.3031C9.21693 10.2915 9.2519 10.29 9.28494 10.2988C9.31797 10.3077 9.34748 10.3265 9.36944 10.3528L21.8069 25.2458C22.007 25.4821 22.2562 25.6719 22.537 25.8022C22.8179 25.9324 23.1237 25.9999 23.4333 26H23.8681C24.148 26.0002 24.4252 25.9452 24.6838 25.8382C24.9425 25.7312 25.1775 25.5743 25.3755 25.3765C25.5735 25.1786 25.7305 24.9437 25.8377 24.6851C25.9448 24.4265 26 24.1494 26 23.8694V8.13056C26 7.5655 25.7755 7.02358 25.376 6.62403C24.9764 6.22447 24.4345 6 23.8694 6C23.5051 5.9999 23.1468 6.09318 22.8288 6.27091C22.5108 6.44865 22.2436 6.70492 22.0528 7.01528Z" fill="white"/>
</svg>
