<svg height="32" viewBox="0 0 32 32" width="32" xmlns="http://www.w3.org/2000/svg"><g fill="none"><circle cx="16" cy="16" fill="#000" r="16"/><g fill="#fff" transform="translate(4 4)"><path d="m9.02465753 6.74794521-.13150685.08219178 6.10684932 9.64931511v-9.65753429l-3.0493151-1.80821918z"/><path d="m8.82739726 17.030137 3.12328764 1.8575342 2.8520548-1.6931507-5.97534244-9.44383557z"/><path d="m6.09863014 8.48219178v6.93698632l2.17808219 1.2904109v-9.51780818z"/><path d="m15.5506849 16.7506849 2.2520548-1.3315068v-6.93698632l-2.2520548-1.33150685z"/><path d="m12 0c-6.62465753 0-12 5.37534247-12 12 0 6.6246575 5.37534247 12 12 12 6.6246575 0 12-5.3753425 12-12 0-6.62465753-5.3753425-12-12-12zm-.0493151 19.6191781-6.4767123-3.8383562v-7.66849313l6.4767123-3.83013699 6.4767124 3.83013699v7.66849313z"/></g></g></svg>