<svg height="32" viewBox="0 0 32 32" width="32" xmlns="http://www.w3.org/2000/svg"><path d="m18.1514006 13.7186544 1.841192-3.74292624c.5703704-1.32038835 1.2222222-2.14563107 1.9555555-2.47572816-1.0864197 0-3.0691358 0-5.9481481 0 .5432099.19255663.8148148.49514563.8148148.90776699 0 .1161057-.2020659.61438731-.6061977 1.49484482zm-2.9160933 5.9280737-1.9045165-3.8144349c-.4515552.9081594-.9470039 1.8993368-1.4863464 2.973532-1.6024691 3.4935276-3.19135798 5.3915858-4.76666662 5.6941748h14.58518522l2.8518518-4.3737864c-.8148148.907767-2.4308642 1.3616505-4.8481481 1.3616505-1.6567902 0-3.4358025 0-5.3370371 0zm.7646927 12.3532719c-8.836556 0-16-7.163444-16-16s7.163444-16 16-16 16 7.163444 16 16-7.163444 16-16 16zm-11-11.75h4.60442472l3.58446418-7.2621359 3.6259259 7.2621359h4.2372329c-.081612-.0550162-.1224181-.1925566-.1224181-.4126214 0-1.1180265 4.0333334-10.7281553 6.0703704-11.26456307h-4.8074074l-3.9111111 7.92233007-4.0333334-7.92233007h-4.64372338c.59705018.44012945.89557528.90776699.89557528 1.40291263 0 2.10275714-4.31851852 9.57281554-5.5 10.27427184z" fill-rule="evenodd"/></svg>