<svg height="32" viewBox="0 0 32 32" width="32" xmlns="http://www.w3.org/2000/svg"><path d="m16 32c-8.836556 0-16-7.163444-16-16s7.163444-16 16-16 16 7.163444 16 16-7.163444 16-16 16zm.3455283-7.0070043c.2161156-.0210626.6249257-.0393904 1.0264408-.1037297 2.1181048-.3394487 3.9178677-1.2945109 5.334689-2.902418 1.9171073-2.175686 2.6387402-4.7218629 2.1405179-7.5793729-.3936921-2.2582092-1.5213995-4.1078326-3.3337847-5.51149477-2.0307564-1.57273882-4.3421318-2.15937327-6.8796054-1.78840267-1.873769.27395786-3.5109293 1.07985457-4.8630551 2.40459195-2.09430001 2.05194919-3.0041641 4.55528109-2.71020284 7.47689059.1342863 1.3349088.56598941 2.5773629 1.27778361 3.7183902.04180249.0669781.05058533.1240727.02634852.199447-.21409978.6669507-.54434426 1.2659636-1.00959495 1.7930087-.71073834.805129-.29976849 2.0467674.74678159 2.2603202.38586915.0787329.77389801.024661 1.15803939-.0256685.90621658-.1186991 1.75229708-.421732 2.55028788-.8620317.0801015-.0441883.1404295-.0418853.220435-.0021111 1.2987088.6447846 2.6762713.9402848 4.3149193.9225807zm-6.42880898-2.3880147c.10366638-.2245933.19965368-.4238111.28838868-.6262808.2052529-.4684312.3650185-.9513625.4799367-1.4508199.07615-.3308924.012585-.6232954-.1709108-.8987459-.4785502-.7184531-.81685233-1.4985319-.96355299-2.3486596-.44591457-2.583968.33179627-4.7369281 2.34486429-6.4175655 1.0379432-.86649368 2.2577825-1.33103324 3.6087511-1.42448491 2.0032027-.13849825 3.7315616.5037754 5.1528676 1.91200091 1.179098 1.1682791 1.8301588 2.6036925 1.904869 4.2656182.1167313 2.5946299-.9626465 4.5984832-3.1331338 5.991782-1.254448.805241-2.6573564 1.0879416-4.1451604.9290791-.9146528-.0977164-1.7675537-.3813233-2.5633422-.8370135-.3715777-.2127584-.718092-.199591-1.0699923.0478187-.4924684.3461923-1.0203455.6279334-1.5945099.8170757-.0370618.0122079-.07503008.0217503-.13907498.0401955zm6.09068538-10.4117368c-.0292762.0514437-.0455407.076979-.0589256.104007-.3798966.7677643-.7603265 1.5352088-1.1375034 2.3042526-.0381283.0778853-.0800428.1267702-.1724573.1394579-.5762441.0789514-1.1517416.1630739-1.7274523.2454905-.3053465.0436606-.6106396.087481-.9159327.1312482-.0102386.0162594-.0205306.0324655-.0307693.0487249.0414879.0256952.0893749.0448334.1235038.0780985.5979478.5831001 1.1945092 1.1677461 1.7905373 1.7528719.0553527.0543224.1113987.1007551.0928411.2020965-.1244102.6809764-.2412482 1.3633922-.3596326 2.0454881-.0350887.2024697-.0670311.4054192-.1044129.6323048.0587123-.027881.0904948-.0416881.1210507-.0577876.7464617-.392625 1.4939365-.7833841 2.2378918-1.1808602.1035597-.0553353.1809895-.0501643.2816162.0037317.7396359.3961433 1.4823647.7865293 2.2244002 1.1780881.0318358.0167925.0670845.0271345.1124652.0452065-.0026663-.0405153-.0021864-.0625322-.0057593-.0839093-.1425945-.8445834-.2822028-1.6896467-.4322097-2.5328974-.0219171-.123305.0109319-.197352.0948142-.2777428.4777504-.4581425.9526745-.9192702 1.4262121-1.381784.15134-.1478274.2954277-.3030116.450234-.4625671-.0363686-.0080497-.0648982-.0162594-.0940143-.0204709-.8391961-.1213859-1.6781789-.2442644-2.5180682-.361119-.1120919-.0155664-.1789631-.0535228-.2294098-.1615813-.1934145-.4141087-.3987207-.8227265-.6000275-1.2331035-.185309-.3777516-.3712578-.7551834-.5689917-1.1572441z"/></svg>