<?xml version="1.0" encoding="UTF-8"?>
<svg xmlns="http://www.w3.org/2000/svg" xmlns:xlink="http://www.w3.org/1999/xlink" width="32px" height="32px" viewBox="0 0 32 32" version="1.1">
<defs>
<radialGradient id="radial0" gradientUnits="userSpaceOnUse" cx="1036.4006" cy="1693.469" fx="1036.4006" fy="1693.469" r="49.0196" gradientTransform="matrix(0.211922,0,0,-0.215803,-190.144837,369.8111)">
<stop offset="0" style="stop-color:rgb(98.431373%,91.764706%,95.294118%);stop-opacity:0.6;"/>
<stop offset="0.6807" style="stop-color:rgb(62.745098%,52.941176%,74.901961%);stop-opacity:1;"/>
<stop offset="1" style="stop-color:rgb(9.019608%,6.27451%,18.039216%);stop-opacity:1;"/>
</radialGradient>
<radialGradient id="radial1" gradientUnits="userSpaceOnUse" cx="976.1686" cy="1671.8132" fx="976.1686" fy="1671.8132" r="49.0196" gradientTransform="matrix(0.518495,0,0,-0.527991,-482.4266,891.568)">
<stop offset="0" style="stop-color:rgb(98.431373%,91.764706%,95.294118%);stop-opacity:0.6;"/>
<stop offset="0.6807" style="stop-color:rgb(62.745098%,52.941176%,74.901961%);stop-opacity:1;"/>
<stop offset="1" style="stop-color:rgb(9.019608%,6.27451%,18.039216%);stop-opacity:1;"/>
</radialGradient>
<filter id="alpha" filterUnits="objectBoundingBox" x="0%" y="0%" width="100%" height="100%">
  <feColorMatrix type="matrix" in="SourceGraphic" values="0 0 0 0 1 0 0 0 0 1 0 0 0 0 1 0 0 0 1 0"/>
</filter>
<mask id="mask0">
  <g filter="url(#alpha)">
<rect x="0" y="0" width="32" height="32" style="fill:rgb(0%,0%,0%);fill-opacity:0.6;stroke:none;"/>
  </g>
</mask>
<clipPath id="clip1">
  <rect x="0" y="0" width="32" height="32"/>
</clipPath>
<g id="surface5" clip-path="url(#clip1)">
<path style=" stroke:none;fill-rule:nonzero;fill:rgb(66.27451%,52.941176%,59.607843%);fill-opacity:1;" d="M 28.847656 4.757812 C 27.078125 2.863281 25.59375 2.367188 23.804688 1.964844 C 22.40625 1.632812 22.78125 0.828125 24.476562 0.996094 C 23.664062 0.710938 22.898438 0.640625 22.339844 0.757812 C 21.222656 0.996094 20.898438 2.722656 21.175781 3.386719 C 21.292969 3.644531 21.546875 4.023438 21.898438 4.449219 C 21.269531 4.875 20.734375 5.183594 20.292969 5.421875 C 20.5 5.515625 20.757812 5.632812 21.058594 5.800781 C 21.847656 6.226562 22.710938 6.9375 22.710938 6.9375 C 21.40625 5.800781 21.6875 5.28125 23.476562 4 C 24.035156 3.597656 25.058594 3.648438 26.007812 4.144531 C 26.960938 4.640625 28.078125 5.894531 28.078125 5.894531 L 27.007812 7.976562 C 27.078125 8 27.148438 8.023438 27.21875 8.046875 C 27.890625 8.238281 28.425781 8.191406 28.84375 8.023438 C 29.332031 7.714844 30.613281 6.675781 28.847656 4.757812 Z M 28.847656 4.757812 "/>
</g>
<mask id="mask1">
  <g filter="url(#alpha)">
<rect x="0" y="0" width="32" height="32" style="fill:rgb(0%,0%,0%);fill-opacity:0.6;stroke:none;"/>
  </g>
</mask>
<linearGradient id="linear0" gradientUnits="userSpaceOnUse" x1="1012.1076" y1="75.2612" x2="1348.6737" y2="2114.3088" gradientTransform="matrix(0.0128,0,0,-0.0128,0,32.001409)">
<stop offset="0" style="stop-color:rgb(60.392157%,85.098039%,89.803922%);stop-opacity:1;"/>
<stop offset="0.6202" style="stop-color:rgb(100%,100%,100%);stop-opacity:0;"/>
</linearGradient>
<clipPath id="clip2">
  <rect x="0" y="0" width="32" height="32"/>
</clipPath>
<g id="surface8" clip-path="url(#clip2)">
<path style=" stroke:none;fill-rule:nonzero;fill:url(#linear0);" d="M 15.109375 31.21875 C 22.285156 31.21875 28.101562 25.296875 28.101562 17.988281 C 28.101562 10.679688 22.285156 4.757812 15.109375 4.757812 C 7.933594 4.757812 2.117188 10.679688 2.117188 17.988281 C 2.117188 25.296875 7.933594 31.21875 15.109375 31.21875 Z M 15.109375 31.21875 "/>
</g>
<mask id="mask2">
  <g filter="url(#alpha)">
<rect x="0" y="0" width="32" height="32" style="fill:rgb(0%,0%,0%);fill-opacity:0.6;stroke:none;"/>
  </g>
</mask>
<clipPath id="clip3">
  <rect x="0" y="0" width="32" height="32"/>
</clipPath>
<g id="surface11" clip-path="url(#clip3)">
<path style=" stroke:none;fill-rule:nonzero;fill:rgb(66.27451%,52.941176%,59.607843%);fill-opacity:1;" d="M 15.015625 29.609375 C 7.925781 28.449219 3.117188 21.65625 4.277344 14.4375 C 4.789062 11.242188 6.371094 8.519531 8.601562 6.554688 C 5.347656 8.472656 2.929688 11.8125 2.277344 15.882812 C 1.140625 23.101562 5.949219 29.894531 13.015625 31.054688 C 16.96875 31.71875 20.78125 30.460938 23.589844 28 C 21.105469 29.46875 18.082031 30.105469 15.015625 29.609375 Z M 15.015625 29.609375 "/>
</g>
<mask id="mask3">
  <g filter="url(#alpha)">
<rect x="0" y="0" width="32" height="32" style="fill:rgb(0%,0%,0%);fill-opacity:0.6;stroke:none;"/>
  </g>
</mask>
<linearGradient id="linear1" gradientUnits="userSpaceOnUse" x1="1904.9932" y1="1786.4968" x2="1051.7273" y2="1017.6793" gradientTransform="matrix(0.0128,0,0,-0.0128,0,32.001409)">
<stop offset="0.2888" style="stop-color:rgb(100%,100%,100%);stop-opacity:1;"/>
<stop offset="0.7796" style="stop-color:rgb(100%,100%,100%);stop-opacity:0;"/>
</linearGradient>
<clipPath id="clip4">
  <rect x="0" y="0" width="32" height="32"/>
</clipPath>
<g id="surface14" clip-path="url(#clip4)">
<path style=" stroke:none;fill-rule:nonzero;fill:url(#linear1);" d="M 17.175781 4.945312 C 13.902344 4.402344 10.714844 5.160156 8.113281 6.839844 C 8.066406 6.886719 8.019531 6.933594 8.019531 6.933594 C 9.019531 6.320312 10.484375 5.773438 10.484375 5.773438 C 6.71875 8 5.554688 10.53125 5.554688 10.53125 C 7.019531 7.644531 11.320312 5.609375 14.6875 5.46875 C 18.058594 5.324219 20.265625 6.34375 22.964844 8.546875 C 25.660156 10.769531 27.285156 15.3125 27.125 18.910156 C 26.984375 22.511719 25.125 25.421875 25.125 25.421875 C 26.402344 23.738281 27.167969 22.511719 27.65625 21.253906 C 27.75 20.875 27.84375 20.496094 27.890625 20.097656 C 29.054688 12.898438 24.265625 6.105469 17.175781 4.945312 Z M 17.175781 4.945312 "/>
</g>
<linearGradient id="linear2" gradientUnits="userSpaceOnUse" x1="214.3642" y1="613.0974" x2="2144.6152" y2="613.0974" gradientTransform="matrix(0.0128,0,0,-0.0128,0,32.001409)">
<stop offset="0" style="stop-color:rgb(21.960784%,30.588235%,63.529412%);stop-opacity:1;"/>
<stop offset="0.9952" style="stop-color:rgb(83.529412%,27.843137%,60%);stop-opacity:1;"/>
</linearGradient>
<mask id="mask4">
  <g filter="url(#alpha)">
<rect x="0" y="0" width="32" height="32" style="fill:rgb(0%,0%,0%);fill-opacity:0.6;stroke:none;"/>
  </g>
</mask>
<mask id="mask5">
  <g filter="url(#alpha)">
<rect x="0" y="0" width="32" height="32" style="fill:rgb(0%,0%,0%);fill-opacity:0.6;stroke:none;"/>
  </g>
</mask>
<linearGradient id="linear3" gradientUnits="userSpaceOnUse" x1="2240.8235" y1="1012.0823" x2="1172.9314" y2="21.0224" gradientTransform="matrix(0.0128,0,0,-0.0128,0,32.001409)">
<stop offset="0.2888" style="stop-color:rgb(100%,100%,100%);stop-opacity:1;"/>
<stop offset="0.7796" style="stop-color:rgb(100%,100%,100%);stop-opacity:0;"/>
</linearGradient>
<clipPath id="clip6">
  <rect x="0" y="0" width="32" height="32"/>
</clipPath>
<g id="surface18" clip-path="url(#clip6)">
<path style=" stroke:none;fill-rule:nonzero;fill:url(#linear3);" d="M 26.472656 17.871094 C 26.472656 24.640625 21.222656 30.175781 14.621094 30.4375 C 14.78125 30.4375 14.945312 30.4375 15.109375 30.4375 C 21.917969 30.4375 27.449219 24.804688 27.449219 17.871094 Z M 26.472656 17.871094 "/>
</g>
<clipPath id="clip5">
  <rect x="0" y="0" width="32" height="32"/>
</clipPath>
<g id="surface20" clip-path="url(#clip5)">
<use xlink:href="#surface18" mask="url(#mask5)"/>
</g>
<mask id="mask6">
  <g filter="url(#alpha)">
<rect x="0" y="0" width="32" height="32" style="fill:rgb(0%,0%,0%);fill-opacity:0.701961;stroke:none;"/>
  </g>
</mask>
<mask id="mask7">
  <g filter="url(#alpha)">
<rect x="0" y="0" width="32" height="32" style="fill:rgb(0%,0%,0%);fill-opacity:0.701961;stroke:none;"/>
  </g>
</mask>
<linearGradient id="linear4" gradientUnits="userSpaceOnUse" x1="214.3642" y1="613.0974" x2="1245.7673" y2="613.0974" gradientTransform="matrix(0.0128,0,0,-0.0128,0,32.001409)">
<stop offset="0" style="stop-color:rgb(16.862745%,18.431373%,50.980392%);stop-opacity:1;"/>
<stop offset="0.9952" style="stop-color:rgb(44.705882%,26.27451%,60.392157%);stop-opacity:1;"/>
</linearGradient>
<clipPath id="clip8">
  <rect x="0" y="0" width="32" height="32"/>
</clipPath>
<g id="surface24" clip-path="url(#clip8)">
<path style=" stroke:none;fill-rule:nonzero;fill:url(#linear4);" d="M 4.488281 17.871094 L 2.746094 17.871094 C 2.746094 24.804688 8.277344 30.4375 15.085938 30.4375 C 15.386719 30.4375 15.667969 30.4375 15.945312 30.414062 C 9.554688 29.941406 4.488281 24.496094 4.488281 17.871094 Z M 4.488281 17.871094 "/>
</g>
<clipPath id="clip7">
  <rect x="0" y="0" width="32" height="32"/>
</clipPath>
<g id="surface26" clip-path="url(#clip7)">
<use xlink:href="#surface24" mask="url(#mask7)"/>
</g>
<linearGradient id="linear5" gradientUnits="userSpaceOnUse" x1="216.4757" y1="1013.8193" x2="2142.8508" y2="1013.8193" gradientTransform="matrix(0.0128,0,0,-0.0128,0,32.001409)">
<stop offset="0" style="stop-color:rgb(16.862745%,18.431373%,50.980392%);stop-opacity:1;"/>
<stop offset="0.9952" style="stop-color:rgb(63.137255%,25.882353%,59.607843%);stop-opacity:1;"/>
</linearGradient>
<mask id="mask8">
  <g filter="url(#alpha)">
<rect x="0" y="0" width="32" height="32" style="fill:rgb(0%,0%,0%);fill-opacity:0.6;stroke:none;"/>
  </g>
</mask>
<mask id="mask9">
  <g filter="url(#alpha)">
<rect x="0" y="0" width="32" height="32" style="fill:rgb(0%,0%,0%);fill-opacity:0.6;stroke:none;"/>
  </g>
</mask>
<linearGradient id="linear6" gradientUnits="userSpaceOnUse" x1="2113.7773" y1="2063.7463" x2="1971.651" y2="1836.9449" gradientTransform="matrix(0.0128,0,0,-0.0128,0,32.001409)">
<stop offset="0.2888" style="stop-color:rgb(100%,100%,100%);stop-opacity:1;"/>
<stop offset="0.7796" style="stop-color:rgb(100%,100%,100%);stop-opacity:0;"/>
</linearGradient>
<clipPath id="clip10">
  <rect x="0" y="0" width="32" height="32"/>
</clipPath>
<g id="surface30" clip-path="url(#clip10)">
<path style=" stroke:none;fill-rule:nonzero;fill:url(#linear6);" d="M 25.730469 8.1875 C 25.707031 8.1875 25.683594 8.1875 25.683594 8.1875 C 25.546875 8.164062 25.453125 8.023438 25.476562 7.859375 C 25.683594 6.769531 26.566406 5.726562 26.613281 5.679688 C 26.707031 5.5625 26.894531 5.5625 26.988281 5.65625 C 27.105469 5.75 27.105469 5.941406 27.011719 6.035156 C 26.988281 6.058594 26.171875 7.03125 25.988281 7.976562 C 25.964844 8.117188 25.847656 8.1875 25.730469 8.1875 Z M 25.730469 8.1875 "/>
</g>
<clipPath id="clip9">
  <rect x="0" y="0" width="32" height="32"/>
</clipPath>
<g id="surface32" clip-path="url(#clip9)">
<use xlink:href="#surface30" mask="url(#mask9)"/>
</g>
<mask id="mask10">
  <g filter="url(#alpha)">
<rect x="0" y="0" width="32" height="32" style="fill:rgb(0%,0%,0%);fill-opacity:0.2;stroke:none;"/>
  </g>
</mask>
<clipPath id="clip11">
  <rect x="0" y="0" width="32" height="32"/>
</clipPath>
<g id="surface35" clip-path="url(#clip11)">
<path style=" stroke:none;fill-rule:nonzero;fill:rgb(100%,100%,100%);fill-opacity:1;" d="M 14.25 27.859375 C 14.609375 27.859375 14.902344 27.5625 14.902344 27.195312 C 14.902344 26.828125 14.609375 26.53125 14.25 26.53125 C 13.890625 26.53125 13.601562 26.828125 13.601562 27.195312 C 13.601562 27.5625 13.890625 27.859375 14.25 27.859375 Z M 14.25 27.859375 "/>
</g>
<mask id="mask11">
  <g filter="url(#alpha)">
<rect x="0" y="0" width="32" height="32" style="fill:rgb(0%,0%,0%);fill-opacity:0.4;stroke:none;"/>
  </g>
</mask>
<mask id="mask12">
  <g filter="url(#alpha)">
<rect x="0" y="0" width="32" height="32" style="fill:rgb(0%,0%,0%);fill-opacity:0.6;stroke:none;"/>
  </g>
</mask>
<linearGradient id="linear7" gradientUnits="userSpaceOnUse" x1="1061.9132" y1="375.0254" x2="1138.7391" y2="375.0254" gradientTransform="matrix(0.0128,0,0,-0.0128,0,32.001409)">
<stop offset="0.2888" style="stop-color:rgb(100%,100%,100%);stop-opacity:1;"/>
<stop offset="0.7796" style="stop-color:rgb(100%,100%,100%);stop-opacity:0;"/>
</linearGradient>
<clipPath id="clip13">
  <rect x="0" y="0" width="32" height="32"/>
</clipPath>
<g id="surface39" clip-path="url(#clip13)">
<path style=" stroke:none;fill-rule:nonzero;fill:url(#linear7);" d="M 13.878906 27.621094 C 13.621094 27.363281 13.621094 26.9375 13.878906 26.675781 C 13.925781 26.628906 13.972656 26.605469 14.015625 26.558594 C 13.925781 26.582031 13.855469 26.628906 13.785156 26.699219 C 13.527344 26.960938 13.527344 27.386719 13.785156 27.648438 C 13.992188 27.859375 14.320312 27.90625 14.574219 27.765625 C 14.34375 27.859375 14.0625 27.8125 13.878906 27.621094 Z M 13.878906 27.621094 "/>
</g>
<clipPath id="clip12">
  <rect x="0" y="0" width="32" height="32"/>
</clipPath>
<g id="surface41" clip-path="url(#clip12)">
<use xlink:href="#surface39" mask="url(#mask12)"/>
</g>
<mask id="mask13">
  <g filter="url(#alpha)">
<rect x="0" y="0" width="32" height="32" style="fill:rgb(0%,0%,0%);fill-opacity:0.301961;stroke:none;"/>
  </g>
</mask>
<clipPath id="clip14">
  <rect x="0" y="0" width="32" height="32"/>
</clipPath>
<g id="surface44" clip-path="url(#clip14)">
<path style=" stroke:none;fill-rule:nonzero;fill:rgb(100%,100%,100%);fill-opacity:1;" d="M 14.480469 27.003906 C 14.558594 27.003906 14.621094 26.941406 14.621094 26.863281 C 14.621094 26.785156 14.558594 26.722656 14.480469 26.722656 C 14.40625 26.722656 14.34375 26.785156 14.34375 26.863281 C 14.34375 26.941406 14.402344 27.003906 14.480469 27.003906 Z M 14.480469 27.003906 "/>
</g>
<mask id="mask14">
  <g filter="url(#alpha)">
<rect x="0" y="0" width="32" height="32" style="fill:rgb(0%,0%,0%);fill-opacity:0.2;stroke:none;"/>
  </g>
</mask>
<clipPath id="clip15">
  <rect x="0" y="0" width="32" height="32"/>
</clipPath>
<g id="surface47" clip-path="url(#clip15)">
<path style=" stroke:none;fill-rule:nonzero;fill:rgb(100%,100%,100%);fill-opacity:1;" d="M 17.644531 27.527344 C 18.003906 27.527344 18.292969 27.230469 18.292969 26.863281 C 18.292969 26.496094 18 26.199219 17.644531 26.199219 C 17.285156 26.199219 16.992188 26.496094 16.992188 26.863281 C 16.992188 27.230469 17.285156 27.527344 17.644531 27.527344 Z M 17.644531 27.527344 "/>
</g>
<mask id="mask15">
  <g filter="url(#alpha)">
<rect x="0" y="0" width="32" height="32" style="fill:rgb(0%,0%,0%);fill-opacity:0.4;stroke:none;"/>
  </g>
</mask>
<mask id="mask16">
  <g filter="url(#alpha)">
<rect x="0" y="0" width="32" height="32" style="fill:rgb(0%,0%,0%);fill-opacity:0.6;stroke:none;"/>
  </g>
</mask>
<linearGradient id="linear8" gradientUnits="userSpaceOnUse" x1="1326.7906" y1="400.92" x2="1403.6167" y2="400.92" gradientTransform="matrix(0.0128,0,0,-0.0128,0,32.001409)">
<stop offset="0.2888" style="stop-color:rgb(100%,100%,100%);stop-opacity:1;"/>
<stop offset="0.7796" style="stop-color:rgb(100%,100%,100%);stop-opacity:0;"/>
</linearGradient>
<clipPath id="clip17">
  <rect x="0" y="0" width="32" height="32"/>
</clipPath>
<g id="surface51" clip-path="url(#clip17)">
<path style=" stroke:none;fill-rule:nonzero;fill:url(#linear8);" d="M 17.269531 27.289062 C 17.015625 27.03125 17.015625 26.605469 17.269531 26.34375 C 17.316406 26.296875 17.363281 26.273438 17.410156 26.226562 C 17.316406 26.25 17.246094 26.296875 17.175781 26.367188 C 16.921875 26.628906 16.921875 27.054688 17.175781 27.316406 C 17.386719 27.527344 17.710938 27.574219 17.96875 27.433594 C 17.734375 27.527344 17.457031 27.480469 17.269531 27.289062 Z M 17.269531 27.289062 "/>
</g>
<clipPath id="clip16">
  <rect x="0" y="0" width="32" height="32"/>
</clipPath>
<g id="surface53" clip-path="url(#clip16)">
<use xlink:href="#surface51" mask="url(#mask16)"/>
</g>
<mask id="mask17">
  <g filter="url(#alpha)">
<rect x="0" y="0" width="32" height="32" style="fill:rgb(0%,0%,0%);fill-opacity:0.301961;stroke:none;"/>
  </g>
</mask>
<clipPath id="clip18">
  <rect x="0" y="0" width="32" height="32"/>
</clipPath>
<g id="surface56" clip-path="url(#clip18)">
<path style=" stroke:none;fill-rule:nonzero;fill:rgb(100%,100%,100%);fill-opacity:1;" d="M 17.875 26.675781 C 17.953125 26.675781 18.015625 26.609375 18.015625 26.53125 C 18.015625 26.453125 17.953125 26.390625 17.875 26.390625 C 17.796875 26.390625 17.734375 26.453125 17.734375 26.53125 C 17.734375 26.609375 17.796875 26.675781 17.875 26.675781 Z M 17.875 26.675781 "/>
</g>
<mask id="mask18">
  <g filter="url(#alpha)">
<rect x="0" y="0" width="32" height="32" style="fill:rgb(0%,0%,0%);fill-opacity:0.2;stroke:none;"/>
  </g>
</mask>
<clipPath id="clip19">
  <rect x="0" y="0" width="32" height="32"/>
</clipPath>
<g id="surface59" clip-path="url(#clip19)">
<path style=" stroke:none;fill-rule:nonzero;fill:rgb(100%,100%,100%);fill-opacity:1;" d="M 15.96875 29.066406 C 16.238281 29.066406 16.457031 28.84375 16.457031 28.566406 C 16.457031 28.292969 16.238281 28.070312 15.96875 28.070312 C 15.699219 28.070312 15.480469 28.292969 15.480469 28.566406 C 15.480469 28.84375 15.699219 29.066406 15.96875 29.066406 Z M 15.96875 29.066406 "/>
</g>
<mask id="mask19">
  <g filter="url(#alpha)">
<rect x="0" y="0" width="32" height="32" style="fill:rgb(0%,0%,0%);fill-opacity:0.4;stroke:none;"/>
  </g>
</mask>
<mask id="mask20">
  <g filter="url(#alpha)">
<rect x="0" y="0" width="32" height="32" style="fill:rgb(0%,0%,0%);fill-opacity:0.6;stroke:none;"/>
  </g>
</mask>
<linearGradient id="linear9" gradientUnits="userSpaceOnUse" x1="1209.2109" y1="267.1414" x2="1266.8887" y2="267.1414" gradientTransform="matrix(0.0128,0,0,-0.0128,0,32.001409)">
<stop offset="0.2888" style="stop-color:rgb(100%,100%,100%);stop-opacity:1;"/>
<stop offset="0.7796" style="stop-color:rgb(100%,100%,100%);stop-opacity:0;"/>
</linearGradient>
<clipPath id="clip21">
  <rect x="0" y="0" width="32" height="32"/>
</clipPath>
<g id="surface63" clip-path="url(#clip21)">
<path style=" stroke:none;fill-rule:nonzero;fill:url(#linear9);" d="M 15.691406 28.875 C 15.503906 28.6875 15.503906 28.355469 15.691406 28.167969 C 15.714844 28.140625 15.757812 28.117188 15.785156 28.09375 C 15.714844 28.117188 15.667969 28.167969 15.621094 28.210938 C 15.433594 28.402344 15.433594 28.734375 15.621094 28.921875 C 15.785156 29.089844 16.015625 29.113281 16.226562 28.996094 C 16.039062 29.066406 15.828125 29.019531 15.691406 28.875 Z M 15.691406 28.875 "/>
</g>
<clipPath id="clip20">
  <rect x="0" y="0" width="32" height="32"/>
</clipPath>
<g id="surface65" clip-path="url(#clip20)">
<use xlink:href="#surface63" mask="url(#mask20)"/>
</g>
<mask id="mask21">
  <g filter="url(#alpha)">
<rect x="0" y="0" width="32" height="32" style="fill:rgb(0%,0%,0%);fill-opacity:0.301961;stroke:none;"/>
  </g>
</mask>
<clipPath id="clip22">
  <rect x="0" y="0" width="32" height="32"/>
</clipPath>
<g id="surface68" clip-path="url(#clip22)">
<path style=" stroke:none;fill-rule:nonzero;fill:rgb(100%,100%,100%);fill-opacity:1;" d="M 16.132812 28.402344 C 16.183594 28.402344 16.226562 28.359375 16.226562 28.308594 C 16.226562 28.253906 16.183594 28.210938 16.132812 28.210938 C 16.082031 28.210938 16.039062 28.253906 16.039062 28.308594 C 16.039062 28.359375 16.082031 28.402344 16.132812 28.402344 Z M 16.132812 28.402344 "/>
</g>
<mask id="mask22">
  <g filter="url(#alpha)">
<rect x="0" y="0" width="32" height="32" style="fill:rgb(0%,0%,0%);fill-opacity:0.2;stroke:none;"/>
  </g>
</mask>
<clipPath id="clip23">
  <rect x="0" y="0" width="32" height="32"/>
</clipPath>
<g id="surface71" clip-path="url(#clip23)">
<path style=" stroke:none;fill-rule:nonzero;fill:rgb(100%,100%,100%);fill-opacity:1;" d="M 18.96875 28.710938 C 19.238281 28.710938 19.453125 28.488281 19.453125 28.214844 C 19.453125 27.941406 19.234375 27.71875 18.96875 27.71875 C 18.699219 27.71875 18.480469 27.941406 18.480469 28.214844 C 18.480469 28.488281 18.699219 28.710938 18.96875 28.710938 Z M 18.96875 28.710938 "/>
</g>
<mask id="mask23">
  <g filter="url(#alpha)">
<rect x="0" y="0" width="32" height="32" style="fill:rgb(0%,0%,0%);fill-opacity:0.4;stroke:none;"/>
  </g>
</mask>
<mask id="mask24">
  <g filter="url(#alpha)">
<rect x="0" y="0" width="32" height="32" style="fill:rgb(0%,0%,0%);fill-opacity:0.6;stroke:none;"/>
  </g>
</mask>
<linearGradient id="linear10" gradientUnits="userSpaceOnUse" x1="1442.6914" y1="294.8761" x2="1500.3629" y2="294.8761" gradientTransform="matrix(0.0128,0,0,-0.0128,0,32.001409)">
<stop offset="0.2888" style="stop-color:rgb(100%,100%,100%);stop-opacity:1;"/>
<stop offset="0.7796" style="stop-color:rgb(100%,100%,100%);stop-opacity:0;"/>
</linearGradient>
<clipPath id="clip25">
  <rect x="0" y="0" width="32" height="32"/>
</clipPath>
<g id="surface75" clip-path="url(#clip25)">
<path style=" stroke:none;fill-rule:nonzero;fill:url(#linear10);" d="M 18.6875 28.519531 C 18.503906 28.332031 18.503906 28 18.6875 27.8125 C 18.710938 27.785156 18.757812 27.761719 18.78125 27.738281 C 18.714844 27.765625 18.667969 27.8125 18.621094 27.859375 C 18.433594 28.046875 18.433594 28.378906 18.621094 28.566406 C 18.78125 28.734375 19.015625 28.757812 19.222656 28.640625 C 19.039062 28.710938 18.828125 28.664062 18.6875 28.519531 Z M 18.6875 28.519531 "/>
</g>
<clipPath id="clip24">
  <rect x="0" y="0" width="32" height="32"/>
</clipPath>
<g id="surface77" clip-path="url(#clip24)">
<use xlink:href="#surface75" mask="url(#mask24)"/>
</g>
<mask id="mask25">
  <g filter="url(#alpha)">
<rect x="0" y="0" width="32" height="32" style="fill:rgb(0%,0%,0%);fill-opacity:0.301961;stroke:none;"/>
  </g>
</mask>
<clipPath id="clip26">
  <rect x="0" y="0" width="32" height="32"/>
</clipPath>
<g id="surface80" clip-path="url(#clip26)">
<path style=" stroke:none;fill-rule:nonzero;fill:rgb(100%,100%,100%);fill-opacity:1;" d="M 19.128906 28.046875 C 19.179688 28.046875 19.222656 28.003906 19.222656 27.953125 C 19.222656 27.898438 19.179688 27.859375 19.128906 27.859375 C 19.078125 27.859375 19.035156 27.898438 19.035156 27.953125 C 19.039062 28.003906 19.078125 28.046875 19.128906 28.046875 Z M 19.128906 28.046875 "/>
</g>
<mask id="mask26">
  <g filter="url(#alpha)">
<rect x="0" y="0" width="32" height="32" style="fill:rgb(0%,0%,0%);fill-opacity:0.2;stroke:none;"/>
  </g>
</mask>
<clipPath id="clip27">
  <rect x="0" y="0" width="32" height="32"/>
</clipPath>
<g id="surface83" clip-path="url(#clip27)">
<path style=" stroke:none;fill-rule:nonzero;fill:rgb(100%,100%,100%);fill-opacity:1;" d="M 11.484375 27.621094 C 12.074219 27.621094 12.550781 27.132812 12.550781 26.53125 C 12.550781 25.929688 12.074219 25.441406 11.484375 25.441406 C 10.894531 25.441406 10.414062 25.929688 10.414062 26.53125 C 10.414062 27.132812 10.894531 27.621094 11.484375 27.621094 Z M 11.484375 27.621094 "/>
</g>
<mask id="mask27">
  <g filter="url(#alpha)">
<rect x="0" y="0" width="32" height="32" style="fill:rgb(0%,0%,0%);fill-opacity:0.4;stroke:none;"/>
  </g>
</mask>
<mask id="mask28">
  <g filter="url(#alpha)">
<rect x="0" y="0" width="32" height="32" style="fill:rgb(0%,0%,0%);fill-opacity:0.6;stroke:none;"/>
  </g>
</mask>
<linearGradient id="linear11" gradientUnits="userSpaceOnUse" x1="813.7147" y1="424.835" x2="939.1743" y2="424.835" gradientTransform="matrix(0.0128,0,0,-0.0128,0,32.001409)">
<stop offset="0.2888" style="stop-color:rgb(100%,100%,100%);stop-opacity:1;"/>
<stop offset="0.7796" style="stop-color:rgb(100%,100%,100%);stop-opacity:0;"/>
</linearGradient>
<clipPath id="clip29">
  <rect x="0" y="0" width="32" height="32"/>
</clipPath>
<g id="surface87" clip-path="url(#clip29)">
<path style=" stroke:none;fill-rule:nonzero;fill:url(#linear11);" d="M 10.878906 27.21875 C 10.460938 26.792969 10.460938 26.105469 10.878906 25.679688 C 10.949219 25.609375 11.019531 25.5625 11.113281 25.515625 C 10.972656 25.5625 10.855469 25.65625 10.742188 25.753906 C 10.320312 26.179688 10.320312 26.863281 10.742188 27.289062 C 11.089844 27.644531 11.625 27.71875 12.042969 27.457031 C 11.648438 27.621094 11.183594 27.550781 10.878906 27.21875 Z M 10.878906 27.21875 "/>
</g>
<clipPath id="clip28">
  <rect x="0" y="0" width="32" height="32"/>
</clipPath>
<g id="surface89" clip-path="url(#clip28)">
<use xlink:href="#surface87" mask="url(#mask28)"/>
</g>
<mask id="mask29">
  <g filter="url(#alpha)">
<rect x="0" y="0" width="32" height="32" style="fill:rgb(0%,0%,0%);fill-opacity:0.301961;stroke:none;"/>
  </g>
</mask>
<clipPath id="clip30">
  <rect x="0" y="0" width="32" height="32"/>
</clipPath>
<g id="surface92" clip-path="url(#clip30)">
<path style=" stroke:none;fill-rule:nonzero;fill:rgb(100%,100%,100%);fill-opacity:1;" d="M 11.855469 26.203125 C 11.984375 26.203125 12.089844 26.09375 12.089844 25.964844 C 12.089844 25.835938 11.984375 25.726562 11.855469 25.726562 C 11.726562 25.726562 11.621094 25.835938 11.621094 25.964844 C 11.621094 26.09375 11.726562 26.203125 11.855469 26.203125 Z M 11.855469 26.203125 "/>
</g>
<mask id="mask30">
  <g filter="url(#alpha)">
<rect x="0" y="0" width="32" height="32" style="fill:rgb(0%,0%,0%);fill-opacity:0.2;stroke:none;"/>
  </g>
</mask>
<clipPath id="clip31">
  <rect x="0" y="0" width="32" height="32"/>
</clipPath>
<g id="surface95" clip-path="url(#clip31)">
<path style=" stroke:none;fill-rule:nonzero;fill:rgb(100%,100%,100%);fill-opacity:1;" d="M 21.035156 24.945312 C 21.625 24.945312 22.105469 24.460938 22.105469 23.859375 C 22.105469 23.257812 21.625 22.769531 21.035156 22.769531 C 20.445312 22.769531 19.96875 23.257812 19.96875 23.859375 C 19.96875 24.460938 20.445312 24.945312 21.035156 24.945312 Z M 21.035156 24.945312 "/>
</g>
<mask id="mask31">
  <g filter="url(#alpha)">
<rect x="0" y="0" width="32" height="32" style="fill:rgb(0%,0%,0%);fill-opacity:0.4;stroke:none;"/>
  </g>
</mask>
<mask id="mask32">
  <g filter="url(#alpha)">
<rect x="0" y="0" width="32" height="32" style="fill:rgb(0%,0%,0%);fill-opacity:0.6;stroke:none;"/>
  </g>
</mask>
<linearGradient id="linear12" gradientUnits="userSpaceOnUse" x1="1558.8556" y1="633.7911" x2="1684.3213" y2="633.7911" gradientTransform="matrix(0.0128,0,0,-0.0128,0,32.001409)">
<stop offset="0.2888" style="stop-color:rgb(100%,100%,100%);stop-opacity:1;"/>
<stop offset="0.7796" style="stop-color:rgb(100%,100%,100%);stop-opacity:0;"/>
</linearGradient>
<clipPath id="clip33">
  <rect x="0" y="0" width="32" height="32"/>
</clipPath>
<g id="surface99" clip-path="url(#clip33)">
<path style=" stroke:none;fill-rule:nonzero;fill:url(#linear12);" d="M 20.410156 24.542969 C 19.988281 24.117188 19.988281 23.433594 20.410156 23.003906 C 20.476562 22.933594 20.546875 22.886719 20.640625 22.839844 C 20.5 22.886719 20.386719 22.980469 20.269531 23.078125 C 19.851562 23.503906 19.851562 24.1875 20.269531 24.617188 C 20.617188 24.96875 21.152344 25.042969 21.570312 24.78125 C 21.175781 24.945312 20.734375 24.875 20.410156 24.542969 Z M 20.410156 24.542969 "/>
</g>
<clipPath id="clip32">
  <rect x="0" y="0" width="32" height="32"/>
</clipPath>
<g id="surface101" clip-path="url(#clip32)">
<use xlink:href="#surface99" mask="url(#mask32)"/>
</g>
<mask id="mask33">
  <g filter="url(#alpha)">
<rect x="0" y="0" width="32" height="32" style="fill:rgb(0%,0%,0%);fill-opacity:0.301961;stroke:none;"/>
  </g>
</mask>
<clipPath id="clip34">
  <rect x="0" y="0" width="32" height="32"/>
</clipPath>
<g id="surface104" clip-path="url(#clip34)">
<path style=" stroke:none;fill-rule:nonzero;fill:rgb(100%,100%,100%);fill-opacity:1;" d="M 21.40625 23.527344 C 21.535156 23.527344 21.640625 23.421875 21.640625 23.289062 C 21.640625 23.160156 21.539062 23.054688 21.40625 23.054688 C 21.28125 23.054688 21.175781 23.160156 21.175781 23.289062 C 21.175781 23.421875 21.277344 23.527344 21.40625 23.527344 Z M 21.40625 23.527344 "/>
</g>
</defs>
<g id="surface1">
<path style=" stroke:none;fill-rule:nonzero;fill:rgb(37.647059%,18.431373%,57.254902%);fill-opacity:1;" d="M 30.566406 5.65625 C 30.238281 4.402344 29.195312 3.148438 27.3125 1.75 C 25.800781 0.640625 24.195312 0 22.917969 0 C 22.664062 0 22.429688 0.0234375 22.199219 0.0703125 C 21.617188 0.1875 21.105469 0.613281 20.78125 1.253906 C 20.382812 2.011719 20.292969 3.03125 20.546875 3.644531 C 20.640625 3.835938 20.753906 4.070312 20.894531 4.285156 C 19.664062 5.042969 18.964844 5.253906 18.871094 5.277344 C 22.078125 6.367188 24.753906 8.640625 26.425781 11.597656 L 26.449219 11.3125 C 26.519531 10.53125 26.753906 9.632812 27.078125 8.710938 C 27.402344 8.804688 27.726562 8.851562 28.054688 8.851562 C 28.914062 8.851562 29.65625 8.496094 30.121094 7.859375 C 30.589844 7.21875 30.773438 6.367188 30.566406 5.65625 Z M 30.566406 5.65625 "/>
<path style=" stroke:none;fill-rule:nonzero;fill:url(#radial0);" d="M 27.21875 8.023438 C 29.332031 8.617188 30.195312 6.960938 29.914062 5.847656 C 29.613281 4.734375 28.636719 3.597656 26.917969 2.320312 C 25.195312 1.042969 23.453125 0.523438 22.339844 0.757812 C 21.222656 0.996094 20.898438 2.722656 21.175781 3.386719 C 21.292969 3.648438 21.546875 4.027344 21.898438 4.453125 C 21.457031 4.757812 21.035156 4.996094 20.6875 5.210938 C 22.828125 6.179688 24.6875 7.695312 26.082031 9.589844 C 26.242188 8.949219 26.476562 8.382812 26.683594 7.886719 C 26.847656 7.90625 27.03125 7.953125 27.21875 8.023438 Z M 27.21875 8.023438 "/>
<path style=" stroke:none;fill-rule:nonzero;fill:url(#radial1);" d="M 15.109375 31.21875 C 22.285156 31.21875 28.101562 25.296875 28.101562 17.988281 C 28.101562 10.679688 22.285156 4.757812 15.109375 4.757812 C 7.933594 4.757812 2.117188 10.679688 2.117188 17.988281 C 2.117188 25.296875 7.933594 31.21875 15.109375 31.21875 Z M 15.109375 31.21875 "/>
<use xlink:href="#surface5" mask="url(#mask0)"/>
<path style=" stroke:none;fill-rule:nonzero;fill:rgb(37.647059%,18.431373%,57.254902%);fill-opacity:1;" d="M 23.777344 3.101562 C 24.242188 3.289062 24.847656 3.621094 25.589844 4.117188 C 26.472656 4.710938 27.242188 5.371094 27.730469 5.894531 C 26.914062 6.980469 26.382812 8.472656 26.058594 9.515625 C 26.21875 9.75 26.40625 9.988281 26.570312 10.226562 C 26.730469 9.632812 27.011719 8.757812 27.382812 7.882812 C 27.476562 7.90625 27.589844 7.90625 27.707031 7.90625 C 27.988281 7.90625 28.3125 7.859375 28.566406 7.644531 C 28.753906 7.503906 28.964844 7.242188 28.941406 6.769531 C 28.941406 6.320312 28.59375 5.753906 27.871094 5.066406 C 27.359375 4.570312 26.664062 4.023438 25.964844 3.527344 C 23.964844 2.179688 22.574219 1.800781 21.945312 2.4375 C 21.527344 2.863281 21.574219 3.386719 21.710938 3.765625 C 20.96875 4.261719 20.339844 4.617188 19.921875 4.855469 C 20.203125 4.949219 20.457031 5.066406 20.738281 5.183594 C 21.476562 4.78125 22.546875 4.09375 23.777344 3.101562 Z M 28.171875 6.484375 C 28.242188 6.605469 28.265625 6.722656 28.265625 6.792969 C 28.265625 7.003906 28.195312 7.078125 28.148438 7.125 C 28.054688 7.195312 27.871094 7.242188 27.707031 7.242188 C 27.847656 6.957031 28.007812 6.722656 28.171875 6.484375 Z M 22.429688 2.957031 C 22.5 2.886719 22.6875 2.839844 22.988281 2.886719 C 22.753906 3.078125 22.523438 3.242188 22.292969 3.410156 C 22.269531 3.242188 22.292969 3.078125 22.429688 2.957031 Z M 22.429688 2.957031 "/>
<path style=" stroke:none;fill-rule:nonzero;fill:rgb(37.647059%,18.431373%,57.254902%);fill-opacity:1;" d="M 15.109375 3.976562 C 7.507812 3.976562 1.347656 10.246094 1.347656 17.988281 C 1.347656 25.726562 7.507812 32 15.109375 32 C 22.710938 32 28.867188 25.726562 28.867188 17.988281 C 28.867188 10.25 22.6875 3.976562 15.109375 3.976562 Z M 15.109375 31.21875 C 7.925781 31.21875 2.117188 25.300781 2.117188 17.988281 C 2.117188 10.675781 7.925781 4.757812 15.109375 4.757812 C 22.292969 4.757812 28.101562 10.675781 28.101562 17.988281 C 28.101562 25.300781 22.269531 31.21875 15.109375 31.21875 Z M 15.109375 31.21875 "/>
<use xlink:href="#surface8" mask="url(#mask1)"/>
<use xlink:href="#surface11" mask="url(#mask2)"/>
<use xlink:href="#surface14" mask="url(#mask3)"/>
<path style=" stroke:none;fill-rule:nonzero;fill:url(#linear2);" d="M 27.449219 17.871094 C 27.449219 24.804688 21.917969 30.4375 15.109375 30.4375 C 8.300781 30.4375 2.746094 24.804688 2.746094 17.871094 Z M 27.449219 17.871094 "/>
<use xlink:href="#surface20" mask="url(#mask4)"/>
<use xlink:href="#surface26" mask="url(#mask6)"/>
<path style=" stroke:none;fill-rule:nonzero;fill:url(#linear5);" d="M 27.429688 17.988281 C 27.429688 16.542969 24.964844 15.714844 21.6875 15.433594 C 19.316406 15.242188 16.921875 15.480469 14.179688 16.332031 C 11.808594 17.042969 9.671875 16.921875 8.113281 16.734375 C 4.648438 16.332031 2.746094 16.285156 2.746094 17.988281 C 2.746094 20.449219 7.671875 23.527344 15.0625 22.460938 C 18.804688 21.917969 20.734375 20.804688 22.941406 20.046875 C 25.335938 19.242188 27.429688 19.265625 27.429688 17.988281 Z M 27.429688 17.988281 "/>
<path style=" stroke:none;fill-rule:nonzero;fill:rgb(100%,100%,100%);fill-opacity:1;" d="M 19.152344 12.023438 C 20.308594 12.023438 21.246094 11.070312 21.246094 9.894531 C 21.246094 8.71875 20.308594 7.761719 19.152344 7.761719 C 18 7.761719 17.0625 8.71875 17.0625 9.894531 C 17.0625 11.070312 18 12.023438 19.152344 12.023438 Z M 19.152344 12.023438 "/>
<path style=" stroke:none;fill-rule:nonzero;fill:rgb(100%,100%,100%);fill-opacity:1;" d="M 22.570312 13.609375 C 23.058594 13.609375 23.453125 13.207031 23.453125 12.710938 C 23.453125 12.210938 23.058594 11.808594 22.570312 11.808594 C 22.082031 11.808594 21.6875 12.210938 21.6875 12.710938 C 21.6875 13.207031 22.082031 13.609375 22.570312 13.609375 Z M 22.570312 13.609375 "/>
<use xlink:href="#surface32" mask="url(#mask8)"/>
<use xlink:href="#surface35" mask="url(#mask10)"/>
<use xlink:href="#surface41" mask="url(#mask11)"/>
<use xlink:href="#surface44" mask="url(#mask13)"/>
<use xlink:href="#surface47" mask="url(#mask14)"/>
<use xlink:href="#surface53" mask="url(#mask15)"/>
<use xlink:href="#surface56" mask="url(#mask17)"/>
<use xlink:href="#surface59" mask="url(#mask18)"/>
<use xlink:href="#surface65" mask="url(#mask19)"/>
<use xlink:href="#surface68" mask="url(#mask21)"/>
<use xlink:href="#surface71" mask="url(#mask22)"/>
<use xlink:href="#surface77" mask="url(#mask23)"/>
<use xlink:href="#surface80" mask="url(#mask25)"/>
<use xlink:href="#surface83" mask="url(#mask26)"/>
<use xlink:href="#surface89" mask="url(#mask27)"/>
<use xlink:href="#surface92" mask="url(#mask29)"/>
<use xlink:href="#surface95" mask="url(#mask30)"/>
<use xlink:href="#surface101" mask="url(#mask31)"/>
<use xlink:href="#surface104" mask="url(#mask33)"/>
</g>
</svg>
