<svg height="32" width="32" xmlns="http://www.w3.org/2000/svg"><path d="M16 32C7.163 32 0 24.837 0 16S7.163 0 16 0s16 7.163 16 16-7.163 16-16 16zm7.082-8.002a10.603 10.603 0 0 0 .994-15.54c-4.361-4.632-11.88-4.605-16.201.048A10.609 10.609 0 0 0 8.918 24c.037-.033.078-.065.113-.101a7.15 7.15 0 0 1 1.836-1.333c1.836-.94 3.8-1.285 5.852-1.158 2.413.149 4.594.863 6.363 2.59zM12.02 15.795c0-2.15 1.78-3.9 3.976-3.905 2.199-.005 4.003 1.758 4 3.91-.002 2.16-1.793 3.903-4.005 3.899-2.2-.004-3.97-1.743-3.97-3.904z"/></svg>