<svg height="32" viewBox="0 0 32 32" width="32" xmlns="http://www.w3.org/2000/svg"><g fill="none" fill-rule="nonzero"><circle cx="16" cy="16" fill="#000" r="16"/><g fill="#fff" transform="translate(7 3)"><path d="m8.93693694 7.22162162 2.01081076-3.13513513c1.0954955.23063063 2.1693694-.47567568 2.4-1.57117117.2306307-1.0954955-.4756756-2.16936937-1.5711711-2.4-1.0954955-.23063064-2.16936939.47567567-2.40000002 1.57117117-.12252253.56936937.01441441 1.16756756.36036036 1.62882883l-2.4936937 3.89189189c-4.38198198.43243243-7.57477477 4.33153149-7.14234234 8.70630629s4.33153153 7.5747748 8.70630631 7.1423424c4.37477479-.4324325 7.57477479-4.3315316 7.14234229-8.7063064-.3747747-3.7333333-3.2936936-6.70270265-7.01261256-7.12792788zm-.91531532 12.12252248c-2.33513513 0-4.22342342-1.8882882-4.22342342-4.2234234 0-2.3351351 1.88828829-4.2234234 4.22342342-4.2234234 1.75855856 0 3.32972978 1.0882883 3.94954958 2.7315315-.8288289-1.0666666-2.35675679-1.254054-3.42342345-.4324324-1.06666667.8216216-1.25405406 2.3567568-.43243243 3.4234234.82162162 1.0666667 2.35675678 1.2540541 3.42342338.4324325.1585586-.1225226.3027027-.2666667.4252253-.4252253-.6198199 1.6360361-2.19099103 2.7171171-3.94234238 2.7171171z"/><path d="m8.93693694 7.22162162 2.01081076-3.13513513c1.0954955.23063063 2.1693694-.47567568 2.4-1.57117117.2306307-1.0954955-.4756756-2.16936937-1.5711711-2.4-1.0954955-.23063064-2.16936939.47567567-2.40000002 1.57117117-.12252253.56936937.01441441 1.16756756.36036036 1.62882883l-2.4936937 3.89189189c-4.38198198.43243243-7.57477477 4.33153149-7.14234234 8.70630629s4.33153153 7.5747748 8.70630631 7.1423424c4.37477479-.4324325 7.57477479-4.3315316 7.14234229-8.7063064-.3747747-3.7333333-3.2936936-6.70270265-7.01261256-7.12792788zm-.91531532 12.12252248c-2.33513513 0-4.22342342-1.8882882-4.22342342-4.2234234 0-2.3351351 1.88828829-4.2234234 4.22342342-4.2234234 1.75855856 0 3.32972978 1.0882883 3.94954958 2.7315315-.8288289-1.0666666-2.35675679-1.254054-3.42342345-.4324324-1.06666667.8216216-1.25405406 2.3567568-.43243243 3.4234234.82162162 1.0666667 2.35675678 1.2540541 3.42342338.4324325.1585586-.1225226.3027027-.2666667.4252253-.4252253-.6198199 1.6360361-2.19099103 2.7171171-3.94234238 2.7171171z"/></g></g></svg>