<svg height="32" viewBox="0 0 32 32" width="32" xmlns="http://www.w3.org/2000/svg"><path d="m16 32c-8.836556 0-16-7.163444-16-16s7.163444-16 16-16 16 7.163444 16 16-7.163444 16-16 16zm7.0821087-8.0018331c4.721784-3.8572415 5.3245743-10.939616.993504-15.54046361-4.3606598-4.63211877-11.8796988-4.60440607-16.2006492.04841636-4.28432104 4.61367955-3.65194122 11.66780225 1.04278321 15.49388035.0372894-.0331043.07776875-.0649146.11362817-.101146.53778135-.5431474 1.15377142-.9838548 1.83576042-1.3332289 1.8359805-.9402909 3.7992289-1.2847048 5.8519058-1.1578949 2.4129212.1490231 4.5942961.863407 6.3630676 2.5904367zm-11.0628519-8.2027441c-.00099-2.1508075 1.7798813-3.9001584 3.976216-3.9050108 2.1985346-.0056072 4.0020656 1.7576539 3.9998656 3.9097554-.00231 2.159542-1.7929711 3.9026385-4.0051455 3.8987566-2.2006246-.0034506-3.9697261-1.7427731-3.9709361-3.9035012z"/></svg>