<svg width="32" height="32" viewBox="0 0 32 32" fill="none" xmlns="http://www.w3.org/2000/svg">
<path d="M32 16C32 24.8365 24.8365 32 16 32C7.1635 32 0 24.8365 0 16C0 7.1635 7.1635 0 16 0C24.8365 0 32 7.1635 32 16Z" fill="black"/>
<path d="M16.0295 28.5C17.0447 28.5 17.8677 27.6769 17.8677 26.6617C17.8677 25.6465 17.0447 24.8235 16.0295 24.8235C15.0142 24.8235 14.1912 25.6465 14.1912 26.6617C14.1912 27.6769 15.0142 28.5 16.0295 28.5Z" fill="white"/>
<path d="M16.0295 7.17647C17.0447 7.17647 17.8677 6.35346 17.8677 5.33824C17.8677 4.32301 17.0447 3.5 16.0295 3.5C15.0142 3.5 14.1912 4.32301 14.1912 5.33824C14.1912 6.35346 15.0142 7.17647 16.0295 7.17647Z" fill="white"/>
<path d="M16.0294 12.2009C16.8416 12.2009 17.5 11.5425 17.5 10.7304C17.5 9.91817 16.8416 9.25977 16.0294 9.25977C15.2172 9.25977 14.5588 9.91817 14.5588 10.7304C14.5588 11.5425 15.2172 12.2009 16.0294 12.2009Z" fill="white"/>
<path d="M10.8823 9.5049C11.6945 9.5049 12.3529 8.84649 12.3529 8.03431C12.3529 7.22213 11.6945 6.56372 10.8823 6.56372C10.0701 6.56372 9.41174 7.22213 9.41174 8.03431C9.41174 8.84649 10.0701 9.5049 10.8823 9.5049Z" fill="white"/>
<path d="M10.8823 25.5589C11.6945 25.5589 12.3529 24.9004 12.3529 24.0883C12.3529 23.2761 11.6945 22.6177 10.8823 22.6177C10.0701 22.6177 9.41174 23.2761 9.41174 24.0883C9.41174 24.9004 10.0701 25.5589 10.8823 25.5589Z" fill="white"/>
<path d="M20.625 14.9583C21.4372 14.9583 22.0956 14.2999 22.0956 13.4877C22.0956 12.6755 21.4372 12.0171 20.625 12.0171C19.8128 12.0171 19.1544 12.6755 19.1544 13.4877C19.1544 14.2999 19.8128 14.9583 20.625 14.9583Z" fill="white"/>
<path d="M20.625 20.0442C21.4372 20.0442 22.0956 19.3858 22.0956 18.5736C22.0956 17.7614 21.4372 17.103 20.625 17.103C19.8128 17.103 19.1544 17.7614 19.1544 18.5736C19.1544 19.3858 19.8128 20.0442 20.625 20.0442Z" fill="white"/>
<path d="M16.0294 22.7403C16.8416 22.7403 17.5 22.0818 17.5 21.2697C17.5 20.4575 16.8416 19.7991 16.0294 19.7991C15.2172 19.7991 14.5588 20.4575 14.5588 21.2697C14.5588 22.0818 15.2172 22.7403 16.0294 22.7403Z" fill="white"/>
<path d="M16.0294 17.1641C16.6724 17.1641 17.1936 16.6429 17.1936 15.9999C17.1936 15.3569 16.6724 14.8357 16.0294 14.8357C15.3864 14.8357 14.8652 15.3569 14.8652 15.9999C14.8652 16.6429 15.3864 17.1641 16.0294 17.1641Z" fill="white"/>
<path d="M10.8824 19.7991C11.5253 19.7991 12.0466 19.2779 12.0466 18.6349C12.0466 17.9919 11.5253 17.4707 10.8824 17.4707C10.2394 17.4707 9.71814 17.9919 9.71814 18.6349C9.71814 19.2779 10.2394 19.7991 10.8824 19.7991Z" fill="white"/>
<path d="M10.8824 14.6519C11.5253 14.6519 12.0466 14.1307 12.0466 13.4877C12.0466 12.8447 11.5253 12.3235 10.8824 12.3235C10.2394 12.3235 9.71814 12.8447 9.71814 13.4877C9.71814 14.1307 10.2394 14.6519 10.8824 14.6519Z" fill="white"/>
<path d="M5.85784 11.5882C6.33162 11.5882 6.71569 11.2042 6.71569 10.7304C6.71569 10.2566 6.33162 9.87256 5.85784 9.87256C5.38407 9.87256 5 10.2566 5 10.7304C5 11.2042 5.38407 11.5882 5.85784 11.5882Z" fill="white"/>
<path d="M5.85784 16.8578C6.33162 16.8578 6.71569 16.4737 6.71569 15.9999C6.71569 15.5262 6.33162 15.1421 5.85784 15.1421C5.38407 15.1421 5 15.5262 5 15.9999C5 16.4737 5.38407 16.8578 5.85784 16.8578Z" fill="white"/>
<path d="M5.85784 22.1273C6.33162 22.1273 6.71569 21.7432 6.71569 21.2695C6.71569 20.7957 6.33162 20.4116 5.85784 20.4116C5.38407 20.4116 5 20.7957 5 21.2695C5 21.7432 5.38407 22.1273 5.85784 22.1273Z" fill="white"/>
<path d="M20.625 9.87276C21.6402 9.87276 22.4632 9.04975 22.4632 8.03452C22.4632 7.01929 21.6402 6.19629 20.625 6.19629C19.6097 6.19629 18.7867 7.01929 18.7867 8.03452C18.7867 9.04975 19.6097 9.87276 20.625 9.87276Z" fill="white"/>
<path d="M20.625 25.8652C21.6402 25.8652 22.4632 25.0422 22.4632 24.027C22.4632 23.0117 21.6402 22.1887 20.625 22.1887C19.6097 22.1887 18.7867 23.0117 18.7867 24.027C18.7867 25.0422 19.6097 25.8652 20.625 25.8652Z" fill="white"/>
<path d="M25.2206 12.5686C26.2358 12.5686 27.0588 11.7456 27.0588 10.7303C27.0588 9.7151 26.2358 8.89209 25.2206 8.89209C24.2053 8.89209 23.3823 9.7151 23.3823 10.7303C23.3823 11.7456 24.2053 12.5686 25.2206 12.5686Z" fill="white"/>
<path d="M25.2206 23.1079C26.2358 23.1079 27.0588 22.2849 27.0588 21.2696C27.0588 20.2544 26.2358 19.4314 25.2206 19.4314C24.2053 19.4314 23.3823 20.2544 23.3823 21.2696C23.3823 22.2849 24.2053 23.1079 25.2206 23.1079Z" fill="white"/>
<path d="M25.2206 17.8381C26.2358 17.8381 27.0588 17.0151 27.0588 15.9999C27.0588 14.9846 26.2358 14.1616 25.2206 14.1616C24.2053 14.1616 23.3823 14.9846 23.3823 15.9999C23.3823 17.0151 24.2053 17.8381 25.2206 17.8381Z" fill="white"/>
</svg>
