<svg height="32" viewBox="0 0 32 32" width="32" xmlns="http://www.w3.org/2000/svg"><path d="m16 32c-8.836556 0-16-7.163444-16-16s7.163444-16 16-16 16 7.163444 16 16-7.163444 16-16 16zm-6.99138015-12.8016313h-.002205c0 2.1551182-.00007875 4.3102363.0001575 6.4653544 0 .0709363-.01992376.1531017.0096075.2097114.03008251.057539.11489628.1321926.1671863.1262296.25200007-.028421.50431515-.0692327.75088147-.1283979.63590648-.1526371 1.19849658-.4529551 1.66572048-.8999471.7904927-.756603 1.2022766-1.6669272 1.1945591-2.7745723-.0199237-2.8389261-.0112612-5.678162-.0085837-8.5171655.0002362-.2750721.0281137-.5513057.0605587-.8249838.0879638-.742044.4280852-1.3724948.9261003-1.9222517.5760564-.636104 1.2961466-1.01936177 2.1508206-1.1789686.716704-.13374139 1.4083655-.07124614 2.0809694.18616924.5756627.22032096 1.0676928.56586466 1.4795555 1.02214966.133875.1483004.2671988.3110049.4347788.4132276.3568164.2176105.7723803.3005503 1.1818016.3134056.845539.0265624 1.6925743.0101448 2.5390583.0085185.2279026-.0004646.2924776-.0940913.2142788-.3098432-.06804-.1875632-.1457663-.3716415-.2204213-.556804-.3980026-.98637179-.9668141-1.86571945-1.725098-2.62123824-.5371539-.53504297-1.1595941-.95857026-1.8366081-1.30674702-.6240939-.32107225-1.2800029-.55711379-1.9704831-.6869831-.4864389-.09145835-.977839-.19344874-1.4699479-.21110539-.853729-.03058938-1.6905267.11035406-2.506692.37357755-1.0111503.3260285-1.9054356.84581551-2.692857 1.54201415-.8147478.72051525-1.43222671 1.58476183-1.85196433 2.57996195-.34287761.8130577-.57046517 1.6545365-.57085892 2.5430997-.000945 2.0518112-.000315 4.1036999-.000315 6.1555885zm4.50609205-3.5021037c-.0077175.0786806-.0133875.1099669-.0134662.1413307-.0004725 1.4452123.001575 2.8903472-.0032288 4.335637-.0005512.1744756.0956813.2396038.2397151.2782471.2580638.0692327.5137652.1498492.7752152.2032838.4662789.0954853.9338966.2291493 1.4048217.2470383.7101677.0267947 1.4300217.0169596 2.1338106-.0706266.5361302-.066832 1.0727328-.2330214 1.575788-.435221 1.1205341-.4506318 2.0137168-1.2061506 2.7634958-2.134751.7030802-.8707517 1.2247204-1.8345105 1.5709055-2.8911216.0718988-.2197014.0593775-.2331763-.1869526-.2337958-.7478889-.0018586-1.4959354-.0081313-2.2438244.0021684-.3319313.004569-.6669339.0232324-.994219.0751182-.3198826.0506467-.6164552.1853174-.8180553.4524129-.6773289.8972367-1.5957117 1.3968889-2.7055358 1.5410074-.7006389.0909937-1.3815904-.0478588-2.0239543-.3433753-.5732214-.2636882-1.0427291-.6584073-1.4745155-1.1673525z" fill-rule="evenodd"/></svg>