<svg width="32" height="32" viewBox="0 0 32 32" fill="none" xmlns="http://www.w3.org/2000/svg">
<path d="M32 16C32 24.8365 24.8365 32 16 32C7.1635 32 0 24.8365 0 16C0 7.1635 7.1635 0 16 0C24.8365 0 32 7.1635 32 16Z" fill="black"/>
<path d="M16.7512 28.6056C16.6288 28.7305 16.4835 28.8297 16.3235 28.8973C16.1635 28.965 15.992 28.9999 15.8188 29C15.6456 29.0001 15.4741 28.9654 15.314 28.898C15.1539 28.8306 15.0084 28.7316 14.8859 28.6069L14.8846 28.6056L11.9149 25.5795L6.78535 25.594L4.85714 23.2983H12.8637C13.2137 23.2984 13.5493 23.4397 13.7974 23.6913L15.8187 25.7518L19.9206 21.5714V25.3759L16.7512 28.6056Z" fill="white"/>
<path d="M28.2038 14.8358C28.449 15.0829 28.587 15.4181 28.5873 15.7678C28.5876 16.1175 28.4503 16.4531 28.2056 16.7006L28.2038 16.7024L25.2613 19.6726L25.2763 24.8024L23.0436 26.7302V18.7238C23.0441 18.3737 23.1819 18.038 23.4269 17.7901L25.4293 15.7691L21.3651 11.6667H25.0642L28.2038 14.8358Z" fill="white"/>
<path d="M3.38371 16.9575C3.26228 16.8352 3.1659 16.6901 3.10006 16.5302C3.03422 16.3704 3.00022 16.199 3 16.0259C2.99978 15.8528 3.03334 15.6814 3.09877 15.5214C3.1642 15.3613 3.26022 15.2159 3.38134 15.0933L3.38371 15.0909L6.32565 12.1217L6.31109 6.99168L8.54377 5.06348V13.07C8.54339 13.42 8.40572 13.7555 8.16086 14.0033L6.15769 16.0251L10.2222 20.127H6.52273L3.38371 16.9575Z" fill="white"/>
<path d="M14.8358 3.39464C15.0827 3.1424 15.4178 3.00045 15.7674 3C16.117 2.99956 16.4525 3.14066 16.7 3.39227L16.7024 3.39467L19.6726 6.42065L24.8023 6.40572L26.7302 8.70174H18.7238C18.3738 8.7012 18.0381 8.55962 17.7901 8.30788L15.7687 6.2479L11.6667 10.4286V6.62379L14.8358 3.39464Z" fill="white"/>
<path d="M20.8429 17.2168C20.1751 19.8954 17.4621 21.5256 14.7832 20.8576C12.1054 20.1898 10.4753 17.4767 11.1433 14.7983C11.8108 12.1194 14.5238 10.4892 17.2019 11.1569C19.8806 11.8247 21.5107 14.5382 20.8428 17.2169L20.8428 17.2168H20.8429Z" fill="white"/>
<path d="M18.2048 15.2876C18.3043 14.6222 17.7977 14.2646 17.105 14.026L17.3297 13.1246L16.7811 12.9879L16.5623 13.8655C16.4181 13.8296 16.2699 13.7957 16.1227 13.762L16.3431 12.8787L15.7947 12.7419L15.5699 13.643C15.4505 13.6158 15.3333 13.5889 15.2196 13.5606L15.2202 13.5578L14.4636 13.3689L14.3176 13.9549C14.3176 13.9549 14.7247 14.0482 14.7161 14.0539C14.9383 14.1094 14.9785 14.2565 14.9718 14.373L14.7158 15.3999C14.7311 15.4038 14.751 15.4094 14.7729 15.4182C14.7545 15.4136 14.7351 15.4087 14.7149 15.4038L14.3561 16.8423C14.3289 16.9098 14.26 17.0111 14.1047 16.9726C14.1101 16.9806 13.7059 16.8731 13.7059 16.8731L13.4335 17.5011L14.1475 17.6791C14.2803 17.7124 14.4105 17.7473 14.5386 17.7801L14.3116 18.6917L14.8596 18.8284L15.0845 17.9264C15.2342 17.9671 15.3795 18.0046 15.5217 18.0399L15.2976 18.9377L15.8463 19.0744L16.0734 18.1644C17.0089 18.3415 17.7124 18.2701 18.0086 17.4239C18.2472 16.7425 17.9967 16.3495 17.5045 16.0933C17.863 16.0106 18.133 15.7748 18.205 15.2877L18.2048 15.2876L18.2048 15.2876ZM16.9512 17.0455C16.7817 17.7268 15.6345 17.3585 15.2626 17.2661L15.5639 16.0583C15.9358 16.1512 17.1284 16.3349 16.9512 17.0455H16.9512ZM17.1209 15.2778C16.9662 15.8975 16.0114 15.5826 15.7017 15.5054L15.9749 14.41C16.2846 14.4872 17.282 14.6313 17.121 15.2778H17.1209Z" fill="black"/>
</svg>
