<svg width="32" height="32" viewBox="0 0 32 32" fill="none" xmlns="http://www.w3.org/2000/svg">
<path d="M32 16C32 24.8365 24.8365 32 16 32C7.1635 32 0 24.8365 0 16C0 7.1635 7.1635 0 16 0C24.8365 0 32 7.1635 32 16Z" fill="black"/>
<path d="M16.7512 28.6056C16.6288 28.7305 16.4835 28.8297 16.3235 28.8973C16.1635 28.965 15.992 28.9999 15.8188 29C15.6456 29.0001 15.474 28.9654 15.314 28.898C15.1539 28.8306 15.0084 28.7316 14.8859 28.6069L14.8846 28.6056L11.9149 25.5795L6.78534 25.594L4.85714 23.2983H12.8637C13.2137 23.2984 13.5493 23.4397 13.7974 23.6913L15.8187 25.7518L19.9206 21.5714V25.3759L16.7512 28.6056Z" fill="white"/>
<path d="M28.2038 14.8358C28.449 15.0829 28.587 15.4181 28.5873 15.7678C28.5876 16.1175 28.4503 16.4531 28.2056 16.7006L28.2038 16.7024L25.2613 19.6726L25.2763 24.8024L23.0436 26.7302V18.7238C23.0441 18.3737 23.1819 18.038 23.4269 17.7901L25.4293 15.7691L21.3651 11.6667H25.0642L28.2038 14.8358Z" fill="white"/>
<path d="M3.38371 16.9575C3.26228 16.8352 3.1659 16.6901 3.10006 16.5302C3.03422 16.3704 3.00022 16.199 3 16.0259C2.99978 15.8528 3.03334 15.6814 3.09877 15.5214C3.1642 15.3613 3.26022 15.2159 3.38134 15.0933L3.38371 15.0909L6.32565 12.1217L6.31109 6.99168L8.54377 5.06348V13.07C8.54339 13.42 8.40572 13.7555 8.16086 14.0033L6.15769 16.0251L10.2222 20.127H6.52273L3.38371 16.9575Z" fill="white"/>
<path d="M14.8358 3.39464C15.0827 3.1424 15.4178 3.00045 15.7674 3C16.117 2.99956 16.4525 3.14066 16.7 3.39227L16.7024 3.39467L19.6726 6.42065L24.8023 6.40572L26.7302 8.70174H18.7238C18.3738 8.7012 18.0381 8.55962 17.7901 8.30788L15.7687 6.2479L11.6667 10.4286V6.62379L14.8358 3.39464Z" fill="white"/>
<path d="M15.999 11L15.9319 11.2279V17.84L15.999 17.907L19.0683 16.0927L15.999 11Z" fill="white"/>
<path d="M15.9991 11L12.9298 16.0927L15.9991 17.907V14.6976V11Z" fill="white"/>
<path d="M15.9991 18.4881L15.9612 18.5342V20.8895L15.9991 20.9999L19.0702 16.6747L15.9991 18.4881Z" fill="white"/>
<path d="M15.9991 20.9999V18.4881L12.9298 16.6747L15.9991 20.9999Z" fill="white"/>
<path d="M15.9991 17.9069L19.0683 16.0926L15.9991 14.6975V17.9069Z" fill="white"/>
<path d="M12.9298 16.0926L15.9991 17.9069V14.6975L12.9298 16.0926Z" fill="white"/>
</svg>
