<svg width="32" height="32" viewBox="0 0 32 32" xmlns="http://www.w3.org/2000/svg"><path d="M16 32C7.163 32 0 24.837 0 16S7.163 0 16 0s16 7.163 16 16-7.163 16-16 16zm-.78-5.196c.052-.013.041-.05.01-.147-.153-.467-1.116-3.942-1.099-3.965.018-.012.21.017.433.07.601.129 1.675.17 2.312.082 3.124-.42 5.594-2.885 6.009-5.997.04-.31.052-.818.035-1.273-.035-.87-.024-.812-.999-4.24-.368-1.296-.858-3.042-1.098-3.871l-.42-1.492c.084.038.17.078.257.12 3.235 1.553 5.442 4.496 6.085 8.11.116.684.099 2.984-.03 3.65-.35 1.764-1.027 3.3-2.055 4.672-.456.607-1.507 1.658-2.12 2.12-1.366 1.021-3.03 1.745-4.654 2.026-.748.133-1.789.186-2.666.135zm-1.643-.23zm-1.937-.643a10.99 10.99 0 0 1-4.393-3.502c-.812-1.103-1.297-2.055-1.688-3.352-1.074-3.52-.263-7.392 2.149-10.23 1.454-1.711 3.556-3.008 5.728-3.516 1.005-.233 1.338-.268 2.64-.262.254 0 .462 0 .64.003.028.144.263.996.551 2.005.315 1.11.555 2.038.532 2.062-.024.029-.252.006-.503-.053-.619-.134-2.038-.134-2.65 0-2.266.496-3.983 1.845-4.958 3.89a7.31 7.31 0 0 0-.584 1.868c-.088.525-.076 1.752.017 2.277.047.24.374 1.478.736 2.745.356 1.267.888 3.135 1.174 4.146.286 1.01.554 1.862.59 1.903a.27.27 0 0 0 .019.016zm2.573 1.905c.76.106 3.253.076 3.848-.046.958-.199 2.248-.59 2.64-.794.058-.03.38-.187.718-.357 1.974-.98 3.72-2.627 4.952-4.671.152-.251.654-1.256.654-1.308a2.7 2.7 0 0 1 .11-.286c.304-.666.701-2.225.79-3.107.215-2.05-.06-3.947-.848-5.939a5.463 5.463 0 0 0-.239-.543 7.735 7.735 0 0 1-.315-.584 7.709 7.709 0 0 0-.41-.706c-.075-.1-.14-.199-.14-.228 0-.023-.07-.122-.151-.228-.082-.099-.28-.35-.438-.56-.403-.526-1.331-1.46-1.892-1.904-.66-.525-.7-.549-1.285-.91-1.208-.737-2.633-1.291-3.97-1.542-.836-.158-3.644-.164-4.468-.006-2.785.52-5.43 2.12-7.17 4.333-.199.257-.392.502-.427.543-.029.035-.187.286-.35.554-.158.263-.31.52-.345.567-.122.198-.45.864-.549 1.139a2.125 2.125 0 0 1-.151.35c-.047.064-.316.934-.286.934a.451.451 0 0 1-.059.14c-.04.076-.128.403-.187.73-.064.321-.14.748-.18.94-.036.199-.065.9-.065 1.635 0 1.198.012 1.344.181 2.167.158.788.438 1.763.596 2.096.029.064.105.251.169.409.473 1.232 1.6 2.867 2.727 3.947 1.477 1.414 3.451 2.517 5.308 2.967.257.058.508.128.56.146.053.023.357.076.672.122zm2.622-8.35c-.461.117-1.302.105-1.787-.023-1.612-.432-2.686-1.828-2.692-3.48-.006-1.087.316-1.857 1.092-2.634.543-.543.952-.77 1.723-.964 1.874-.473 3.865.748 4.35 2.663.117.45.111 1.343-.006 1.805-.315 1.232-1.413 2.312-2.68 2.633z"/></svg>