<svg height="32" viewBox="0 0 32 32" width="32" xmlns="http://www.w3.org/2000/svg"><g fill-rule="evenodd"><path d="m16 32c-8.836556 0-16-7.163444-16-16s7.163444-16 16-16 16 7.163444 16 16-7.163444 16-16 16zm7.4518413-23.07106781c-1.7970053-1.80964406-4.279545-2.92893219-7.0216826-2.92893219-5.4842752 0-9.9301587 4.4771525-9.9301587 10 0 2.6235254 1.00323464 5.0110847 2.64444444 6.7948497v-7.1209367l.00706717-.0000031c.16941295-3.9007738 3.36336619-7.01086642 7.27864709-7.01086642 2.0118945 0 3.833323.82121683 5.151778 2.14894482zm0 14.14213561-1.8699046-1.8830561c-1.2829962 1.2920199-3.0422758 2.1044066-4.9898732 2.147169v2.663517c2.6778692-.043107 5.0982064-1.1536689 6.8597778-2.9276299zm-11.7708889 1.7132674c.7554531.4150755 1.5703597.7342021 2.4285714.9411178v-5.5116238c.7284238.4305886 1.5768514.6774751 2.4825397.6774751 2.7123318 0 4.9111111-2.2142439 4.9111111-4.9456521 0-2.7314083-2.1987793-4.9456522-4.9111111-4.9456522-2.6217915 0-4.7637442 2.068884-4.9038236 4.673913h-.0072875zm4.9111111-6.338683c-1.3710688 0-2.4825397-1.1192882-2.4825397-2.5 0-1.3807119 1.1114709-2.5 2.4825397-2.5s2.4825397 1.1192881 2.4825397 2.5c0 1.3807118-1.1114709 2.5-2.4825397 2.5z"/><path d="m23.4518413 8.92893219-1.8699046 1.88305611c-1.318455-1.32772799-3.1398835-2.14894482-5.151778-2.14894482-3.9152809 0-7.10923414 3.11009262-7.27864709 7.01086642l-.00706717.0000031v7.1209367c-1.6412098-1.783765-2.64444444-4.1713243-2.64444444-6.7948497 0-5.5228475 4.4458835-10 9.9301587-10 2.7421376 0 5.2246773 1.11928813 7.0216826 2.92893219zm0 14.14213561c-1.7615714 1.773961-4.1819086 2.8845229-6.8597778 2.9276299v-2.663517c1.9475974-.0427624 3.706877-.8551491 4.9898732-2.147169z" opacity=".5"/></g></svg>