<svg height="32" viewBox="0 0 32 32" width="32" xmlns="http://www.w3.org/2000/svg"><path d="m16 32c-8.836556 0-16-7.163444-16-16s7.163444-16 16-16 16 7.163444 16 16-7.163444 16-16 16zm-4.4057738-15.8946246c.0917468.2536962.223582.4917569.3911658.7046792l.030788.0390146-.0446922-.0530198c.0575953.082629.1199398.1617938.1867141.2370888l.0913707.0920344c.0367469.0350132.0655485.0700263.0943502.0950356l1.9962515 2.0107533c.3494996.3520385.8589063.4895251 1.3363315.3606701.4774253-.128855.8503369-.5044756.9782626-.9853691s-.0085694-.9940008-.3580689-1.3460393l-3.8958397-3.9271318c.0028961-.0027052.0054422-.00515.0076184-.007342l.0595896-.0510192 3.9428451-3.94347721.0238358.02600975.0089384.01000374 7.3702401 7.43978702c.5651625.3623417 1.3042446.2812876 1.7787496-.1950731.4794473-.4828727.5432279-1.2436556.1509603-1.8006745l-8.3425438-8.40314792c-.5391155-.54303719-1.4127881-.54437937-1.9535456-.00300112l-2.5465182 2.54836732c-.0308756.02634593-.0613184.0532219-.0913147.08061751-.0595826.05453373-.1219025.10595383-.1867141.15405772l-3.14533758 3.14617859c-.25945145.2613361-.40520977.615784-.40520977.9853691 0 .3695852.14575832.724033.40520977.9853691l2.49382468 2.5179433c-.16421-.2175624-.2914151-.4601036-.3772616-.7176841zm8.1454713 2.5730896c-.0020813.0019047-.0039742.0036675-.0056714.0052915l-.0576033.0470176-3.9351753 3.9348734-.0255466-.0304107-7.38414438-7.455793c-.52807912-.4890791-1.33887129-.4932002-1.87182375-.0095142-.53295247.483686-.61309094 1.2963796-.18501054 1.8762134l8.47761347 8.5472019c.5399369.5422068 1.4136088.5422068 1.9535457 0l2.6242849-2.6242979c.0605184-.0534672.1237135-.1037802.1893373-.1507417l3.148317-3.1481793c.5403934-.5445475.5403934-1.4271911 0-1.9717386l-2.6110175-2.6269841c.0267441.0357797.0557041.0755083.0859646.1185931-.0070741-.0088975-.0142106-.0177507-.0214092-.0265586-.0442752-.0639061-.0923667-.1250417-.1440082-.1830686l-.0913707-.0920345c-.0367469-.0350131-.0655486-.0700262-.0943502-.0950356l-1.9962516-2.0107532c-.2589241-.2618676-.6105199-.4094049-.9774398-.4101554-.3669199-.0007504-.7191075.1453476-.9790853.4061539-.2594514.2613361-.4052098.615784-.4052098.9853691s.1457584.724033.4052098.9853691z" fill-rule="evenodd"/></svg>