<svg width="32" height="32" viewBox="0 0 32 32" fill="none" xmlns="http://www.w3.org/2000/svg">
<path fill-rule="evenodd" clip-rule="evenodd" d="M32 16C32 24.8366 24.8366 32 16 32C7.16344 32 0 24.8366 0 16C0 7.16344 7.16344 0 16 0C24.8366 0 32 7.16344 32 16ZM7.33645 7C7.22127 7 7.11409 7.0598 7.05237 7.1585C6.99066 7.2572 6.98298 7.38108 7.03202 7.48686L16.4526 27.8039C16.5197 27.9486 16.6767 28.0266 16.8304 27.9917C16.9841 27.9569 17.0935 27.8184 17.0935 27.6585V14.4967L24.8847 7.59878C24.9904 7.5052 25.0278 7.3549 24.9786 7.2216C24.9293 7.08831 24.8038 7 24.6635 7H7.33645ZM8.20312 8.40864L16.222 14.3671L12.5158 17.7097L8.20312 8.40864ZM16.4206 26.131L12.8145 18.3539L16.4206 15.1017V26.131ZM23.766 7.68293H8.36553L16.7386 13.9046L23.766 7.68293Z" fill="black"/>
</svg>
