<svg width="32" height="32" viewBox="0 0 32 32" xmlns="http://www.w3.org/2000/svg"><path d="M16 0c8.837 0 16 7.163 16 16s-7.163 16-16 16S0 24.837 0 16 7.163 0 16 0zm.113 18.16l-3.639 7.542s-.264.543.662.611c.926.136 2.448.476 3.242-.34.794-.747 3.903-5.911 3.903-5.911l-4.168-1.903zm7.277-.612l-3.043 2.514 1.39 2.786s.33 1.087 1.323-.136c.926-1.223 1.323-1.427 1.256-2.174-.066-.748-.264-2.515-.926-2.99zm-7.674-4.485l-8.997.612-.02.004c-.096.025-.502.183-.443 1.083l.01.186.02.373c.07 1.18.168 2.295.168 2.295s-.066.611 1.125.68c.36.02 1.27.034 2.369.037h.786c1.719-.006 3.665-.039 4.68-.119l.253-.023c.266-.028.427-.061.446-.1l-.397-5.028zm4.896-5.504a13.078 13.078 0 01-1.191 3.33l3.639 2.377.33 4.282 1.522-.204s.397-.136.33-.883l-.071-.903-.027-.335-.1-1.28c.004-.044.012-.412-.86-.54-.627-.114-.904-.143-1.027-.147H23.1a.14.14 0 00-.04.008l.09-.254c1.264-3.889-2.538-5.45-2.538-5.45zm-1.324 3.33S15.054 5.113 13.93 5.52a76.9 76.9 0 01-1.285.476l-.36.13c-.896.323-1.73.617-1.73.617l5.227 6.251z"/></svg>