<svg width="32" height="32" viewBox="0 0 32 32" fill="none" xmlns="http://www.w3.org/2000/svg">
<path d="M16 32C24.8365 32 32 24.8365 32 16C32 7.16345 24.8365 0 16 0C7.16345 0 0 7.16345 0 16C0 24.8365 7.16345 32 16 32Z" fill="black"/>
<path d="M25.2054 12.6487L25.6211 17.925L27.3572 17.7848C27.4406 17.7787 27.5219 17.7562 27.5966 17.7185C27.6711 17.6807 27.7375 17.6285 27.7918 17.5649C27.8461 17.5014 27.8872 17.4276 27.9129 17.348C27.9385 17.2684 27.948 17.1845 27.9409 17.1012L27.6743 13.5117C27.6628 13.3662 27.6022 13.229 27.5022 13.1227C27.4023 13.0163 27.2691 12.9472 27.1247 12.9267L25.2054 12.6487Z" fill="white"/>
<path d="M21.4806 7.72361C21.2446 8.39869 20.9721 9.06047 20.6644 9.70602L25.2054 12.6487L25.4581 11.6872C25.7093 10.7463 25.6603 9.7504 25.318 8.83866C24.9757 7.92693 24.3572 7.14486 23.549 6.60163L22.0707 5.61359C22.0707 5.61359 21.8256 6.72293 21.4806 7.72361Z" fill="white"/>
<path d="M16.0603 12.329L20.6644 9.70605C20.6644 9.70605 17.9517 6.40834 15.982 4.41456C15.4983 3.93321 14.9542 3.51659 14.3634 3.17508C14.2604 3.11601 14.1454 3.0806 14.027 3.07143C13.9086 3.06225 13.7895 3.07953 13.6786 3.12201L9.79718 4.6243C9.76059 4.6384 9.72794 4.66112 9.702 4.69053C9.67605 4.71995 9.65759 4.75517 9.64817 4.79324C9.63874 4.83131 9.63864 4.87109 9.64786 4.9092C9.65709 4.94732 9.67537 4.98265 9.70116 5.01219L16.0603 12.329Z" fill="white"/>
<path d="M16.476 18.6288L16.0603 12.329L4.68888 13.2059C4.51351 13.2194 4.35008 13.3 4.23246 13.4307C4.11485 13.5615 4.05207 13.7325 4.05714 13.9084L4.30984 17.8694C4.32739 18.1495 4.45269 18.4121 4.65949 18.602C4.86629 18.7917 5.13853 18.8942 5.41918 18.8878L16.476 18.6288Z" fill="white"/>
<path d="M21.6917 21.0269C21.5957 20.9953 16.4798 18.6263 16.4798 18.6263L11.8858 27.9293C11.8516 27.9987 11.8347 28.0753 11.8364 28.1526C11.8381 28.2299 11.8584 28.3057 11.8956 28.3735C11.9327 28.4413 11.9857 28.4992 12.05 28.5421C12.1143 28.5851 12.188 28.612 12.2648 28.6205C12.9104 28.695 13.9073 28.81 14.7513 28.9111C15.2696 28.9735 15.7951 28.8887 16.2675 28.6663C16.74 28.4441 17.1401 28.0931 17.4224 27.6539L21.6917 21.0269Z" fill="white"/>
<path d="M26.4626 19.5852C26.3117 18.9751 26.0239 18.4074 25.6211 17.925L21.6917 21.0269L23.664 24.6784C23.7079 24.7597 23.7711 24.8292 23.8479 24.8808C23.9247 24.9323 24.0129 24.9645 24.1049 24.9744C24.1969 24.9844 24.2899 24.9719 24.3759 24.9379C24.462 24.9039 24.5385 24.8496 24.5989 24.7794L26.4335 22.5886C26.6496 22.33 26.767 22.0032 26.7646 21.6662C26.7624 20.9618 26.6608 20.2612 26.4626 19.5852Z" fill="white"/>
</svg>
