<?xml version="1.0" standalone="no"?>
<!DOCTYPE svg PUBLIC "-//W3C//DTD SVG 20010904//EN"
 "http://www.w3.org/TR/2001/REC-SVG-20010904/DTD/svg10.dtd">
<svg version="1.0" xmlns="http://www.w3.org/2000/svg"
 width="200.000000pt" height="200.000000pt" viewBox="0 0 200.000000 200.000000"
 preserveAspectRatio="xMidYMid meet">

<g transform="translate(0.000000,200.000000) scale(0.100000,-0.100000)"
fill="#000000" stroke="none">
<path d="M795 1879 c-334 -194 -425 -250 -425 -257 0 -4 8 -19 18 -34 l18 -28
45 24 c24 13 158 89 297 169 l253 145 142 -82 c78 -46 212 -124 298 -173 l157
-91 42 25 c50 30 71 12 -200 168 -113 65 -254 147 -315 181 -60 35 -117 64
-125 64 -8 0 -100 -50 -205 -111z"/>
<path d="M1728 1524 c-36 -23 -38 -27 -38 -78 0 -53 0 -53 44 -76 l43 -24 47
28 c44 26 46 28 46 74 0 45 -2 48 -45 75 -25 15 -49 27 -53 26 -4 0 -24 -11
-44 -25z"/>
<path d="M660 1366 l0 -66 233 0 c207 0 236 -2 267 -19 106 -56 109 -212 5
-272 -25 -15 -59 -18 -216 -20 -103 -1 -191 -4 -197 -8 -7 -4 3 -28 25 -64
l35 -57 155 0 c181 0 239 13 302 66 22 20 53 57 69 82 24 42 27 57 27 137 0
80 -3 95 -27 135 -33 56 -70 92 -128 122 -43 22 -56 23 -297 26 l-253 4 0 -66z"/>
<path d="M1823 1274 l-43 -25 0 -348 0 -348 -287 -168 c-159 -92 -290 -169
-292 -171 -3 -2 3 -20 12 -39 l17 -35 37 21 c21 11 165 93 321 182 l282 161 0
398 c0 219 -1 398 -2 398 -2 0 -22 -12 -45 -26z"/>
<path d="M1185 778 c-81 -20 -79 -14 -25 -108 27 -47 51 -89 52 -93 5 -12 148
-22 148 -10 0 14 -121 223 -128 222 -4 -1 -25 -6 -47 -11z"/>
</g>
</svg>
