<svg height="32" viewBox="0 0 32 32" width="32" xmlns="http://www.w3.org/2000/svg"><path d="m16 32c-8.836556 0-16-7.163444-16-16s7.163444-16 16-16 16 7.163444 16 16-7.163444 16-16 16zm-1.6406128-25.37293485h.00033c-.3150381.05261361-.6246862.12947712-.9343343.20298461-3.3458496.86422732-6.10496281 3.64116514-6.87495812 6.96469994-.29765819 1.1781769-.34231792 2.4141638-.16081902 3.6139923.02001988.1411691.03541978.3008503-.07270956.4144134-.50269694.652149-.9517142 1.34955-1.27962221 2.1042198-.15344906.3651558.19227883.7755636.57331651.774914.22862424-.0166201.4309848-.1517291.53118677-.3546547.2133987-.4039123.4258074-.8091237.67539588-1.193333.22890861.4958237.41381748 1.0147066.70344572 1.4816253 1.32604193 2.3064466 3.65846773 4.0441032 6.29394163 4.6148418 1.818619.4301109 3.7546072.29154 5.5125065-.3231515 1.5222807-.5497365 2.9071723-1.4698252 3.9769158-2.6703033 1.8813185-2.0615659 2.7642831-4.9753424 2.300416-7.7126577-.00924-.0998143-.0415798-.2134857.0354197-.2961951.4168975-.5672744.8202651-1.1486223 1.1318932-1.7797692.0994394-.2075315.2502484-.4150629.2256086-.6553967-.0254099-.2982521-.3224081-.5411841-.6246862-.5096809-.2248386-.0098515-.4177775.13987-.5098469.3330031-.2135087.4097583-.4337274.8169183-.6793559 1.2090305-.2656484-.636235-.5293168-1.2785325-.9223444-1.8512197-1.0423536-1.64715255-2.6026941-2.97764906-4.422633-3.73058667-.9123345-.40943351-1.9059584-.61793931-2.8977124-.7342089-.8601947-.04243732-1.7311694-.06084126-2.5813543.09743262zm-2.3612456 2.0102514c1.8292889-.9554892 4.0216855-1.24648795 6.0324733-.73529148 3.0191516.6945863 5.5558462 3.15032123 6.2465319 6.13392453-1.801899 2.1008637-4.4166931 3.3769062-7.1022167 3.9962529-.5224968.1083667-1.0431237.2291832-1.5743104.2850445-.7327056.0689607-1.4635411.1970304-2.2029566.1602226.6745159-.6817036 1.3834616-1.3304965 2.0495075-2.020103-.2495885-.3009585-.5439467-.5617531-.823565-.8335901-.7487654.7060617-1.468931 1.4422192-2.2090065 2.1567251-.4304274.4426688-.9143145.8320745-1.3347319 1.2845949.1081293.1457159.2377086.2744352.3697077.3999068.9716241.9476946 1.9353283 1.9038333 2.9103623 2.8489297.2582785.2475871.500497.512279.7787953.738864.2782983-.2719453.5719965-.530683.824225-.8281772-.654606-.6172898-1.2912822-1.253633-1.9359882-1.8815321-.2188987-.2186821-.4511073-.4255641-.6393162-.6712025 2.1549969-.0604082 4.3064738-.4492726 6.3269415-1.1984212 1.558021-.5560097 2.9973258-1.3924671 4.2444342-2.4666691.1842489-.1655272.3603578-.3402563.5565966-.4932255.161809 2.459524-.8847246 4.9643001-2.7499833 6.6080966-1.2842421 1.1637784-2.9403921 1.9185564-4.6722215 2.1350734-1.2446424.1726722-2.5206347.0311784-3.7165474-.3369004-2.0455475-.6477104-3.8247867-2.0826763-4.85449043-3.940608-.31283809-.585137-.59718636-1.1913844-.74799544-1.8388783-.02078988-.0945096-.03145981-.2054746.04465972-.2803894 1.27665223-1.4494726 2.95172205-2.5343306 4.76836095-3.2140855.8664647-.2908905 1.7344695-.5954216 2.637454-.7578093 1.1178132-.2212803 2.2543262-.3828019 3.3962293-.3986076-.6379961.72046-1.3929215 1.3306047-2.0569875 2.0267067.2175787.320445.5339368.5607788.8061851.8346727.0995747-.0755497.1950395-.1562056.2859983-.2416329 1.0797534-1.0772799 2.1882166-2.1267375 3.2680801-3.2044505-1.0130939-1.039606-2.0749174-2.0338517-3.1039611-3.05905938-.3183381-.30074201-.6186363-.61923841-.9430243-.91348492-.2867683.26729015-.5719965.53652895-.8359949.82612034.8368749.86812466 1.7444794 1.66869596 2.5820143 2.53692886-2.476635.1196256-4.9680098.562944-7.231026 1.5913994-1.2179126.5484373-2.38313549 1.2362034-3.37818943 2.1239228-.16886751.1627443-.34769382.3151683-.53547674.4564176-.0667696-1.1900852.15146907-2.3860165.57859647-3.4984805.74150549-1.8403938 2.1678668-3.3993157 3.940836-4.33120455z" fill-rule="evenodd"/></svg>