<?xml version="1.0" encoding="UTF-8"?>
<svg width="32px" height="32px" viewBox="0 0 32 32" version="1.1" xmlns="http://www.w3.org/2000/svg" xmlns:xlink="http://www.w3.org/1999/xlink">
    <!-- Generator: Sketch 53 (72520) - https://sketchapp.com -->
    <title>svg/black/ren</title>
    <desc>Created with Sketch.</desc>
    <g id="black/ren" stroke="none" stroke-width="1" fill="none" fill-rule="evenodd">
        <path d="M16,32 C7.163444,32 0,24.836556 0,16 C0,7.163444 7.163444,0 16,0 C24.836556,0 32,7.163444 32,16 C32,24.836556 24.836556,32 16,32 Z M9.02609687,9.63566952 L10.6356695,8.70803419 L10.8638177,9.08159544 L16.8332764,5.63430199 L16.3945299,5.37356125 L15.9532764,5.13037037 L15.7426781,5 L6,10.62849 L6,10.8716809 L8.79794872,9.26210826 L9.02609687,9.63566952 Z M9.02609687,13.1807407 L13.7094017,10.4805698 L13.92,10.8566382 L19.9070085,7.40683761 L19.4682621,7.14609687 L19.0295157,6.90290598 L18.8164103,6.77253561 L6,14.1560114 L6,14.4167521 L8.79794872,12.8071795 L9.02609687,13.1807407 Z M9.02609687,14.9532764 L15.2387464,11.3605698 L15.4493447,11.7341311 L21.4363533,8.28683761 L20.9976068,8.0411396 L20.5563533,7.78039886 L20.345755,7.65002849 L6,15.9310541 L6,16.1892877 L8.79794872,14.5646724 L9.02609687,14.9532764 Z M9.02609687,16.7107692 L16.8157265,12.2205128 L17.0288319,12.5965812 L22.965698,9.16433048 L22.5244444,8.91863248 L22.085698,8.66039886 L21.8750997,8.54507123 L6,17.7035897 L6,17.9467806 L8.79794872,16.337208 L9.02609687,16.7107692 Z M9.02609687,18.4833048 L18.3450712,13.1005128 L18.5581766,13.4916239 L24.4950427,10.0593732 L24.0537892,9.79863248 L23.6325926,9.55293447 L23.4044444,9.42507123 L6,19.4761254 L6,19.7193162 L8.79794872,18.1097436 L9.02609687,18.4833048 Z M25.1594302,10.4329345 L24.9337892,10.3025641 L6,21.248661 L6,21.4918519 L8.79794872,19.8822792 L9.02609687,20.2558405 L18.3450712,14.8730484 L18.5581766,15.2466097 L25.4853561,11.262792 L25.4853561,10.7588604 L25.4853561,10.62849 L25.1594302,10.4329345 Z M7.2034188,22.5674074 L8.76535613,21.6723647 L8.99350427,22.0459259 L18.2974359,16.6631339 L18.5230769,17.0517379 L25.4853561,13.0177778 L25.4853561,12.5138462 L25.4853561,12.0099145 L25.4853561,11.7667236 L6.99282051,22.437037 L7.2034188,22.5674074 Z M18.2974359,18.4356695 L18.5230769,18.8267806 L25.4853561,14.7928205 L25.4853561,14.2863818 L25.4853561,13.7824501 L25.4853561,13.5392593 L8.52216524,23.3320798 L8.73276353,23.4624501 L10.3272934,22.5348148 L10.5529345,22.9083761 L18.2974359,18.4356695 Z M10.2621083,24.339943 L11.8716809,23.4123077 L12.0822792,23.8034188 L18.2974359,20.2082051 L18.5230769,20.5817664 L25.4853561,16.5653561 L25.4853561,16.0614245 L25.4853561,15.5549858 L25.4853561,15.2967521 L10.0490028,24.2095726 L10.2621083,24.339943 Z M11.8064957,25.2174359 L13.4010256,24.3073504 L13.6116239,24.6809117 L18.2974359,21.9807407 L18.5230769,22.354302 L25.4853561,18.3378917 L25.4853561,17.8339601 L25.4853561,17.3300285 L25.4853561,17.0692877 L11.5783476,25.1046154 L11.8064957,25.2174359 Z M13.1076923,25.9821083 L13.3358405,26.1124786 L14.9303704,25.1848433 L15.1409687,25.5759544 L18.2974359,23.7532764 L18.5230769,24.1293447 L25.4853561,20.1104274 L25.4853561,19.6064957 L25.4853561,19.0850142 L25.4853561,18.8418234 L13.1076923,25.9821083 Z M14.8651852,26.9899715 L16.4597151,26.079886 L16.6853561,26.4534473 L18.2974359,25.5107692 L18.5230769,25.9018803 L25.4853561,21.882963 L25.4853561,21.3639886 L25.4853561,20.860057 L25.4853561,20.614359 L14.6520798,26.877151 L14.8651852,26.9899715 Z M18.3776638,6.51179487 L17.9389174,6.26860399 L17.5001709,6.00786325 L17.2720228,5.87749288 L6,12.4010256 L6,12.6442165 L8.79794872,11.0346439 L9.02609687,11.4082051 L12.180057,9.58803419 L12.3931624,9.96159544 L18.3776638,6.51179487 Z" id="Combined-Shape" fill="#000000" fill-rule="nonzero"></path>
    </g>
</svg>