<svg xmlns="http://www.w3.org/2000/svg" width="32" height="32"><path fill-rule="evenodd" d="M16 32C7.163 32 0 24.837 0 16S7.163 0 16 0s16 7.163 16 16-7.163 16-16 16zm9.893-11.338L17.25 5.436A.867.867 0 0016.495 5a.867.867 0 00-.755.436L7.11 20.663a.836.836 0 00.31 1.136l8.637 5.08a.88.88 0 00.888 0l8.636-5.076a.836.836 0 00.311-1.135l.002-.006zm-5.31-4.35a4.237 4.237 0 00-1.43-1.957l-.008-.007a4.212 4.212 0 00-.213-.151l-.014-.01a4.856 4.856 0 00-.218-.135l-.02-.012a2.553 2.553 0 00-.223-.115l-.022-.012a6.305 6.305 0 00-.236-.105l-.026-.01a4.34 4.34 0 00-.796-.244 3.027 3.027 0 01-.598.763 3.505 3.505 0 011.581.523l.027.016.132.09.06.042c.04.03.077.06.118.09l.067.054c.036.03.069.06.103.091l.068.065.093.094.068.073.083.097.065.081.075.1c.025.033.042.059.062.088.02.029.046.067.067.102l.058.096c.018.032.04.068.058.102.02.033.036.07.054.106.017.036.034.066.049.1a4.6 4.6 0 01.054.134 3.3 3.3 0 01.2.736l.109.404c.046.168.471 1.656 1.456 2.157 1.129.579 2.624 1.294 3.212 1.577l-7.766 4.56V22.77c0-.493 1-1.07 1.463-1.273l.027-.015c.095-.047.19-.098.28-.152l.039-.02a4.5 4.5 0 00.57-.407l.048-.043.055-.049a4.48 4.48 0 00.165-.156l.028-.027c.059-.059.118-.115.17-.184l.049-.056c.044-.052.086-.105.127-.159l.036-.045c.05-.066.096-.134.142-.203l.016-.02c.062-.097.117-.194.175-.295a4.418 4.418 0 01-.556-.856c-.062.173-.14.341-.23.502-.038.07-.078.138-.118.204l-.018.027a3.527 3.527 0 01-.118.165l-.036.046a2.66 2.66 0 01-.128.153l-.024.028a3.456 3.456 0 01-1.019.765l-.073.037c-.197.087-1.933.857-1.933 2.028v3.126l-7.79-4.568c.501-.306 1.965-1.158 3.169-1.533.471-.144 1.471.473 2.038.926l.034.03c.075.07.154.137.236.2l.028.025c.18.144.372.273.573.387l.135.073.027.014c.131.066.265.126.402.179l.06.023.04.016c.197.072.4.128.605.17a2.98 2.98 0 01.616-.768 3.494 3.494 0 01-.961-.21l-.053-.02-.102-.041-.052-.022-.099-.046a3.466 3.466 0 01-.645-.406l-.31-.276a5.703 5.703 0 00-.92-.646c-.77-.43-1.414-.57-1.908-.418-1.03.318-2.19.936-2.898 1.344l7.778-13.717v6.007c0 .213-.32.769-1.389 1.241l-.074.04c-.104.05-.205.104-.304.162l-.02.01a4.345 4.345 0 00-.898.704l-.01.01a4.27 4.27 0 00-.287.327l-.011.015a5.271 5.271 0 00-.127.169l-.014.02a4.943 4.943 0 00-.108.164l-.012.017a3.717 3.717 0 00-.101.173l-.023.041c-.029.056-.058.116-.087.168l-.013.027a3.28 3.28 0 00-.073.16l-.025.06c-.023.056-.044.116-.065.17l-.02.06a2.274 2.274 0 00-.042.13c-.007.024-.015.047-.021.072a4.052 4.052 0 00-.125.613l-.01.093a2.538 2.538 0 00-.011.127c-.002.043 0 .085-.007.127-.007.043 0 .052 0 .08v.095c0 .21.016.42.048.629a4.4 4.4 0 01.966.36 3.317 3.317 0 01-.15-.932v-.057c0-.076 0-.151.009-.231v-.06c0-.065.013-.131.022-.196v-.028a2.15 2.15 0 01.042-.215l.012-.055c.015-.06.03-.118.049-.177l.012-.038c.02-.069.045-.136.071-.203l.02-.045c.022-.055.046-.11.071-.165l.019-.042c.031-.065.065-.128.1-.191l.019-.031a3.38 3.38 0 01.099-.16l.025-.037c.041-.06.083-.116.128-.178l.008-.01c.043-.055.088-.108.134-.16l.025-.03c.211-.232.453-.435.72-.603l.368-.17c.197-.087 1.925-.878 1.925-2.05V6.607l7.839 13.82c-.7-.337-1.93-.932-2.89-1.42-.548-.28-.922-1.267-1.018-1.621l-.106-.415a4.114 4.114 0 00-.172-.655l-.008-.004z"/></svg>