<svg width="32" height="32" viewBox="0 0 32 32" fill="none" xmlns="http://www.w3.org/2000/svg">
<path d="M16 32C24.8365 32 32 24.8365 32 16C32 7.16345 24.8365 0 16 0C7.16345 0 0 7.16345 0 16C0 24.8365 7.16345 32 16 32Z" fill="black"/>
<path d="M9.64527 12.3108H15.0676C15.0833 12.3096 15.0981 12.3029 15.1093 12.2917C15.1204 12.2805 15.1272 12.2657 15.1284 12.25V10.4966C15.1272 10.4809 15.1204 10.4661 15.1093 10.4549C15.0981 10.4438 15.0833 10.437 15.0676 10.4358H9.64527C9.62953 10.437 9.61473 10.4438 9.60357 10.4549C9.59241 10.4661 9.58563 10.4809 9.58446 10.4966V12.25C9.58418 12.2581 9.58556 12.2661 9.58851 12.2736C9.59147 12.2811 9.59594 12.2879 9.60164 12.2936C9.60734 12.2993 9.61416 12.3038 9.62167 12.3068C9.62917 12.3097 9.63721 12.3111 9.64527 12.3108ZM13.3142 9.09797H15.0676C15.0833 9.0968 15.0981 9.09002 15.1093 9.07886C15.1204 9.0677 15.1272 9.0529 15.1284 9.03716V7.28378C15.1272 7.26804 15.1204 7.25325 15.1093 7.24209C15.0981 7.23093 15.0833 7.22414 15.0676 7.22297H13.3142C13.2984 7.22414 13.2837 7.23093 13.2725 7.24209C13.2613 7.25325 13.2545 7.26804 13.2534 7.28378V9.03716C13.2545 9.0529 13.2613 9.0677 13.2725 9.07886C13.2837 9.09002 13.2984 9.0968 13.3142 9.09797ZM5.81419 16.8716H4.06081C4.04507 16.8728 4.03027 16.8796 4.01911 16.8907C4.00795 16.9019 4.00117 16.9167 4 16.9324V18.6858C4.00117 18.7015 4.00795 18.7163 4.01911 18.7275C4.03027 18.7387 4.04507 18.7455 4.06081 18.7466H5.81419C5.82993 18.7455 5.84473 18.7387 5.85589 18.7275C5.86705 18.7163 5.87383 18.7015 5.875 18.6858V16.9324C5.87383 16.9167 5.86705 16.9019 5.85589 16.8907C5.84473 16.8796 5.82993 16.8728 5.81419 16.8716ZM12.25 16.8716H10.4966C10.4809 16.8728 10.4661 16.8796 10.4549 16.8907C10.4438 16.9019 10.437 16.9167 10.4358 16.9324V22.3547C10.437 22.3705 10.4438 22.3853 10.4549 22.3964C10.4661 22.4076 10.4809 22.4144 10.4966 22.4155H12.25C12.2657 22.4144 12.2805 22.4076 12.2917 22.3964C12.3029 22.3853 12.3096 22.3705 12.3108 22.3547V16.9324C12.3096 16.9167 12.3029 16.9019 12.2917 16.8907C12.2805 16.8796 12.2657 16.8728 12.25 16.8716ZM22.973 15.1182H24.7264C24.7421 15.1171 24.7569 15.1103 24.768 15.0991C24.7792 15.088 24.786 15.0732 24.7872 15.0574V13.3041C24.786 13.2883 24.7792 13.2735 24.768 13.2624C24.7569 13.2512 24.7421 13.2444 24.7264 13.2432H22.973C22.9572 13.2444 22.9424 13.2512 22.9313 13.2624C22.9201 13.2735 22.9133 13.2883 22.9122 13.3041V15.0574C22.911 15.0657 22.9117 15.0741 22.9144 15.082C22.917 15.09 22.9214 15.0972 22.9273 15.1031C22.9333 15.109 22.9404 15.1134 22.9484 15.116C22.9563 15.1187 22.9647 15.1194 22.973 15.1182ZM19.75 15.1182H21.5034C21.5191 15.1171 21.5339 15.1103 21.5451 15.0991C21.5562 15.088 21.563 15.0732 21.5642 15.0574V9.63514C21.563 9.6194 21.5562 9.6046 21.5451 9.59344C21.5339 9.58228 21.5191 9.57549 21.5034 9.57432H19.75C19.7343 9.57549 19.7195 9.58228 19.7083 9.59344C19.6971 9.6046 19.6904 9.6194 19.6892 9.63514V15.0574C19.6889 15.0655 19.6903 15.0735 19.6932 15.081C19.6962 15.0885 19.7007 15.0954 19.7064 15.1011C19.7121 15.1068 19.7189 15.1112 19.7264 15.1142C19.7339 15.1171 19.7419 15.1185 19.75 15.1182ZM13.3142 5.875H15.0676C15.0833 5.87383 15.0981 5.86705 15.1093 5.85589C15.1204 5.84473 15.1272 5.82993 15.1284 5.81419V4.06081C15.1272 4.04507 15.1204 4.03027 15.1093 4.01911C15.0981 4.00795 15.0833 4.00117 15.0676 4H13.3142C13.2984 4.00117 13.2837 4.00795 13.2725 4.01911C13.2613 4.03027 13.2545 4.04507 13.2534 4.06081V5.81419C13.2531 5.82225 13.2545 5.83029 13.2574 5.83779C13.2604 5.8453 13.2649 5.85211 13.2706 5.85782C13.2763 5.86352 13.2831 5.86799 13.2906 5.87095C13.2981 5.8739 13.3061 5.87528 13.3142 5.875ZM9.03716 16.8716H7.28378C7.26804 16.8728 7.25325 16.8796 7.24209 16.8907C7.23093 16.9019 7.22414 16.9167 7.22297 16.9324V18.6858C7.22414 18.7015 7.23093 18.7163 7.24209 18.7275C7.25325 18.7387 7.26804 18.7455 7.28378 18.7466H9.03716C9.0529 18.7455 9.0677 18.7387 9.07886 18.7275C9.09002 18.7163 9.0968 18.7015 9.09797 18.6858V16.9324C9.0953 16.9173 9.08803 16.9033 9.07715 16.8924C9.06627 16.8816 9.05231 16.8743 9.03716 16.8716ZM22.3649 19.6892H16.9426C16.9268 19.6904 16.912 19.6971 16.9009 19.7083C16.8897 19.7195 16.8829 19.7343 16.8818 19.75V21.5034C16.8829 21.5191 16.8897 21.5339 16.9009 21.5451C16.912 21.5562 16.9268 21.563 16.9426 21.5642H22.3649C22.3806 21.563 22.3954 21.5562 22.4066 21.5451C22.4177 21.5339 22.4245 21.5191 22.4257 21.5034V19.75C22.4247 19.7342 22.418 19.7193 22.4068 19.7081C22.3956 19.6969 22.3807 19.6902 22.3649 19.6892ZM26.0642 16.4966H18.3818C18.366 16.4978 18.3512 16.5046 18.3401 16.5157C18.3289 16.5269 18.3221 16.5417 18.3209 16.5574V18.2601C18.3221 18.2759 18.3289 18.2907 18.3401 18.3018C18.3512 18.313 18.366 18.3198 18.3818 18.3209H26.0642C26.0799 18.3198 26.0947 18.313 26.1059 18.3018C26.117 18.2907 26.1238 18.2759 26.125 18.2601V16.5574C26.1253 16.5494 26.1239 16.5413 26.1209 16.5338C26.118 16.5263 26.1135 16.5195 26.1078 16.5138C26.1021 16.5081 26.0953 16.5036 26.0878 16.5007C26.0803 16.4977 26.0723 16.4963 26.0642 16.4966ZM18.6858 22.902H16.9324C16.9167 22.9032 16.9019 22.91 16.8907 22.9211C16.8796 22.9323 16.8728 22.9471 16.8716 22.9628V24.7162C16.8728 24.732 16.8796 24.7468 16.8907 24.7579C16.9019 24.7691 16.9167 24.7759 16.9324 24.777H18.6858C18.7015 24.7759 18.7163 24.7691 18.7275 24.7579C18.7387 24.7468 18.7455 24.732 18.7466 24.7162V22.9628C18.7469 22.9548 18.7455 22.9467 18.7426 22.9392C18.7396 22.9317 18.7351 22.9249 18.7294 22.9192C18.7237 22.9135 18.7169 22.909 18.7094 22.9061C18.7019 22.9031 18.6939 22.9017 18.6858 22.902ZM13.6791 13.7399C13.6779 13.7241 13.6711 13.7093 13.6599 13.6982C13.6488 13.687 13.634 13.6802 13.6182 13.6791H5.93581C5.92007 13.6802 5.90527 13.687 5.89411 13.6982C5.88295 13.7093 5.87617 13.7241 5.875 13.7399V15.4426C5.87617 15.4583 5.88295 15.4731 5.89411 15.4843C5.90527 15.4954 5.92007 15.5022 5.93581 15.5034H13.6182C13.634 15.5022 13.6488 15.4954 13.6599 15.4843C13.6711 15.4731 13.6779 15.4583 13.6791 15.4426V13.7399ZM27.9392 13.2534H26.1858C26.1701 13.2545 26.1553 13.2613 26.1441 13.2725C26.133 13.2837 26.1262 13.2984 26.125 13.3142V15.0676C26.1262 15.0833 26.133 15.0981 26.1441 15.1093C26.1553 15.1204 26.1701 15.1272 26.1858 15.1284H27.9392C27.9549 15.1272 27.9697 15.1204 27.9809 15.1093C27.992 15.0981 27.9988 15.0833 28 15.0676V13.3142C28.0012 13.3059 28.0004 13.2975 27.9978 13.2896C27.9952 13.2817 27.9907 13.2745 27.9848 13.2686C27.9789 13.2627 27.9717 13.2582 27.9638 13.2556C27.9559 13.2529 27.9475 13.2522 27.9392 13.2534ZM15.4426 18.3209H13.7399C13.7241 18.3221 13.7093 18.3289 13.6982 18.3401C13.687 18.3512 13.6802 18.366 13.6791 18.3818V26.0642C13.6802 26.0799 13.687 26.0947 13.6982 26.1059C13.7093 26.117 13.7241 26.1238 13.7399 26.125H15.4426C15.4583 26.1238 15.4731 26.117 15.4843 26.1059C15.4954 26.0947 15.5022 26.0799 15.5034 26.0642V18.3818C15.5022 18.366 15.4954 18.3512 15.4843 18.3401C15.4731 18.3289 15.4583 18.3221 15.4426 18.3209ZM18.3209 13.6284V5.93581C18.3198 5.92007 18.313 5.90527 18.3018 5.89411C18.2907 5.88295 18.2759 5.87617 18.2601 5.875H16.5574C16.5417 5.87617 16.5269 5.88295 16.5157 5.89411C16.5046 5.90527 16.4978 5.92007 16.4966 5.93581V13.6284C16.4978 13.6441 16.5046 13.6589 16.5157 13.6701C16.5269 13.6812 16.5417 13.688 16.5574 13.6892H18.2601C18.2759 13.688 18.2907 13.6812 18.3018 13.6701C18.313 13.6589 18.3198 13.6441 18.3209 13.6284ZM18.6858 26.125H16.9324C16.9167 26.1262 16.9019 26.133 16.8907 26.1441C16.8796 26.1553 16.8728 26.1701 16.8716 26.1858V27.9392C16.8728 27.9549 16.8796 27.9697 16.8907 27.9809C16.9019 27.992 16.9167 27.9988 16.9324 28H18.6858C18.7015 27.9988 18.7163 27.992 18.7275 27.9809C18.7387 27.9697 18.7455 27.9549 18.7466 27.9392V26.1858C18.7478 26.1775 18.7471 26.1691 18.7444 26.1612C18.7418 26.1533 18.7373 26.1461 18.7314 26.1402C18.7255 26.1343 18.7183 26.1298 18.7104 26.1272C18.7025 26.1246 18.6941 26.1238 18.6858 26.125Z" fill="white"/>
</svg>
