<svg height="32" viewBox="0 0 32 32" width="32" xmlns="http://www.w3.org/2000/svg"><path d="m16 32c-8.836556 0-16-7.163444-16-16s7.163444-16 16-16 16 7.163444 16 16-7.163444 16-16 16zm-3.3947601-22.84494296c.8574824 0 1.5526092-.70628358 1.5526092-1.57752852s-.6951268-1.57752852-1.5526092-1.57752852c-.8574823 0-1.5526091.70628358-1.5526091 1.57752852s.6951268 1.57752852 1.5526091 1.57752852zm6.8420064 16.84479606c.8574823 0 1.5526091-.7062836 1.5526091-1.5775285 0-.871245-.6951268-1.5775285-1.5526091-1.5775285-.8574824 0-1.5526091.7062835-1.5526091 1.5775285 0 .8712449.6951267 1.5775285 1.5526091 1.5775285zm-6.2052365-11.7885842 7.1577912-5.56145648c.6118786-.47541704.7285905-1.36480548.2606833-1.98650469-.4679071-.6216992-1.3432463-.74028432-1.9551249-.26486729l-7.1577912 5.56145646c-.6118786.4754171-.7285905 1.3648055-.2606833 1.9865047.4679071.6216992 1.3432463.7402843 1.9551249.2648673zm.0526308 5.6684076 7.1577912-5.5614565c.6118786-.4754171.7285905-1.3648055.2606833-1.9865047-.4679071-.6216992-1.3432463-.7402843-1.9551249-.2648673l-7.1577912 5.5614565c-.6118786.475417-.7285905 1.3648055-.2606833 1.9865047.4679071.6216992 1.3432463.7402843 1.9551249.2648673zm0 5.8288341 7.1577912-5.5614564c.6118786-.4754171.7285905-1.3648055.2606833-1.9865047-.4679071-.6216992-1.3432463-.7402843-1.9551249-.2648673l-7.1577912 5.5614565c-.6118786.475417-.7285905 1.3648054-.2606833 1.9865047.4679071.6216992 1.3432463.7402843 1.9551249.2648672z" fill-rule="evenodd"/></svg>