<svg width="32" height="32" viewBox="0 0 32 32" fill="none" xmlns="http://www.w3.org/2000/svg">
<path d="M32 16C32 24.8365 24.8365 32 16 32C7.1635 32 0 24.8365 0 16C0 7.1635 7.1635 0 16 0C24.8365 0 32 7.1635 32 16Z" fill="black"/>
<path d="M15.6696 26L7 20.9948V10.9861L15.6696 15.98V26Z" fill="white"/>
<path d="M15.6696 26L24.3391 20.9948V10.9861L15.6696 15.98V26Z" fill="white"/>
<path d="M15.6696 15.98L24.3391 10.9861L15.68 6L7 10.9861L15.6696 15.98Z" fill="white"/>
<path d="M21.4557 12.6443L15.6487 9.28693L9.86261 12.6261V19.3087L12.7461 20.9739V14.293L15.6496 12.6165L18.573 14.3078L21.4557 12.6443Z" fill="black"/>
</svg>
