<?xml version="1.0" standalone="no"?>
<!DOCTYPE svg PUBLIC "-//W3C//DTD SVG 20010904//EN"
 "http://www.w3.org/TR/2001/REC-SVG-20010904/DTD/svg10.dtd">
<svg version="1.0" xmlns="http://www.w3.org/2000/svg"
 width="400.000000pt" height="400.000000pt" viewBox="0 0 400.000000 400.000000"
 preserveAspectRatio="xMidYMid meet">

<g transform="translate(0.000000,400.000000) scale(0.100000,-0.100000)"
fill="#000000" stroke="none">
<path d="M0 2000 l0 -2000 2000 0 2000 0 0 2000 0 2000 -2000 0 -2000 0 0
-2000z m2852 1191 c19 -13 46 -40 59 -59 l24 -36 3 -883 c2 -808 1 -887 -14
-919 -17 -36 -91 -102 -285 -255 -59 -46 -140 -111 -180 -144 -41 -33 -97 -78
-125 -100 -28 -22 -97 -77 -154 -122 -165 -133 -196 -133 -360 0 -56 45 -137
108 -179 141 -42 32 -101 80 -131 105 -30 26 -132 108 -227 184 -94 75 -182
151 -195 169 l-23 33 -3 890 -2 891 29 45 c18 30 44 53 72 67 l44 22 806 -2
805 -3 36 -24z"/>
<path d="M1475 2893 c-44 -23 -65 -43 -89 -88 -21 -39 -21 -48 -24 -649 -3
-654 -1 -692 46 -747 39 -47 344 -289 365 -289 16 0 17 27 17 424 0 233 3 431
6 440 5 14 28 16 154 16 136 0 150 -2 180 -22 18 -13 43 -36 54 -51 20 -28 21
-41 24 -418 3 -359 4 -389 20 -389 9 0 62 37 117 81 55 45 130 105 166 135 37
29 76 65 87 79 35 44 44 122 40 334 -3 177 -6 200 -25 237 -27 50 -70 88 -120
105 l-38 12 34 9 c47 13 89 46 117 95 l25 41 -3 269 -3 270 -27 40 c-16 24
-44 49 -70 62 -43 21 -55 21 -534 21 -427 -1 -493 -3 -519 -17z m720 -189 c14
-15 16 -41 13 -203 -4 -216 -11 -240 -88 -278 -39 -20 -59 -23 -175 -23 -89 0
-135 4 -143 12 -9 9 -12 78 -12 250 0 215 2 238 18 247 10 6 92 11 194 11 151
0 179 -2 193 -16z"/>
</g>
</svg>
