<svg width="33" height="32" viewBox="0 0 33 32" fill="none" xmlns="http://www.w3.org/2000/svg">
<g clip-path="url(#clip0)">
<path fill-rule="evenodd" clip-rule="evenodd" d="M16.1118 31.9996C24.9246 31.9996 32.1118 24.8124 32.1118 15.9996C32.1118 7.18843 24.9246 -0.000366211 16.1118 -0.000366211C7.3006 -0.000366211 0.111817 7.18843 0.111817 15.9996C0.110217 24.8124 7.29901 31.9996 16.1118 31.9996Z" fill="black"/>
<path fill-rule="evenodd" clip-rule="evenodd" d="M12.0079 7.70679H14.3119C14.3999 7.70679 14.4703 7.77879 14.4703 7.86679V11.2332C14.4703 11.3228 14.5423 11.3932 14.6303 11.3932H17.5887C17.6767 11.3932 17.7487 11.3228 17.7487 11.2332V7.86679C17.7487 7.77879 17.8191 7.70679 17.9087 7.70679H20.2111C20.2991 7.70679 20.3711 7.77879 20.3711 7.86679V11.2332C20.3711 11.3228 20.4415 11.3932 20.5311 11.3932H23.3471C23.4367 11.3932 23.5071 11.4652 23.5071 11.5532V13.8508C23.5071 13.9404 23.4367 14.0108 23.3471 14.0108H20.5311C20.4415 14.0108 20.3711 14.0828 20.3711 14.1708V17.7468C20.3711 17.8348 20.4415 17.9068 20.5311 17.9068H23.3471C23.4367 17.9068 23.5071 17.9772 23.5071 18.0668V20.3643C23.5071 20.4523 23.4367 20.5243 23.3471 20.5243H20.5311C20.4415 20.5243 20.3711 20.5963 20.3711 20.6843V24.0507C20.3711 24.1387 20.2991 24.2107 20.2111 24.2107H17.9087C17.8191 24.2107 17.7487 24.1387 17.7487 24.0507V20.6843C17.7487 20.5947 17.6767 20.5243 17.5887 20.5243H14.6319C14.5439 20.5243 14.4719 20.5963 14.4719 20.6843V24.0507C14.4719 24.1387 14.4015 24.2107 14.3135 24.2107H12.0095C11.9215 24.2107 11.8495 24.1387 11.8495 24.0507V20.6843C11.8495 20.5947 11.7791 20.5243 11.6895 20.5243H8.87353C8.78393 20.5243 8.71353 20.4523 8.71353 20.3643V18.0668C8.71353 17.9772 8.78393 17.9068 8.87353 17.9068H11.6895C11.7791 17.9068 11.8495 17.8348 11.8495 17.7468V14.1708C11.8495 14.0828 11.7791 14.0108 11.6895 14.0108H8.87353C8.78393 14.0108 8.71353 13.9404 8.71353 13.8508V11.5532C8.71353 11.4652 8.78393 11.3932 8.87353 11.3932H11.6895C11.7791 11.3932 11.8495 11.3228 11.8495 11.2332V7.86679C11.8463 7.77879 11.9199 7.70679 12.0079 7.70679ZM17.7503 17.7484V14.1708C17.7503 14.0828 17.6783 14.0108 17.5903 14.0108H14.6319C14.5439 14.0108 14.4719 14.0828 14.4719 14.1708V17.7468C14.4719 17.8348 14.5439 17.9068 14.6319 17.9068H17.5903C17.6783 17.9084 17.7503 17.8348 17.7503 17.7484Z" fill="white"/>
</g>
<defs>
<clipPath id="clip0">
<rect width="32" height="32" fill="white" transform="translate(0.111145)"/>
</clipPath>
</defs>
</svg>
