<svg height="32" viewBox="0 0 32 32" width="32" xmlns="http://www.w3.org/2000/svg"><path d="m16 32c-8.836556 0-16-7.163444-16-16s7.163444-16 16-16 16 7.163444 16 16-7.163444 16-16 16zm-5.5-16.7618364v1.8077474h1.7639752v2.6083214h-1.7639752v1.7044477h1.7639752v3.6413199h1.9875776v-3.6413199h4v-1.7044477h-4v-2.6083214h2.5093168c.8115982 0 1.5652139-.1032988 2.2608695-.3098995.6956557-.2066008 1.3002045-.5208014 1.8136646-.9426112.5134602-.4218099.9192532-.9512163 1.2173913-1.5882353.2981382-.637019.447205-1.3859354.447205-2.2467719 0-.8608364-.1407853-1.6011447-.4223602-2.2209469-.281575-.61980224-.670805-1.13199224-1.1677019-1.53658537s-1.0931642-.70588136-1.7888199-.90387374c-.6956556-.19799238-1.4658343-.29698709-2.310559-.29698709h-4.5465838v8.2381636zm6.310559 0h-2.5590062v-6.43041611h2.5590062c1.1428629 0 2.0414046.24963882 2.6956522.74892396.6542476.49928515.9813664 1.29985105.9813664 2.40172165 0 1.1018707-.3271188 1.9239571-.9813664 2.4662841-.6542476.5423269-1.5527893.8134864-2.6956522.8134864z" fill-rule="evenodd"/></svg>