<svg height="32" viewBox="0 0 32 32" width="32" xmlns="http://www.w3.org/2000/svg"><path d="m16 32c-8.836556 0-16-7.163444-16-16s7.163444-16 16-16 16 7.163444 16 16-7.163444 16-16 16zm-6.5-5 5.6488143-4.1881838-2.0307721-12.6006565zm3.6880689-16.8851204 2.0541143 12.6487965 3.4429757.0601751zm.0816977-.09628 5.5321033 12.8052516 1.6689679-11.7822757zm5.6604855 12.6247264 2.6843539-10.1455142-1.0620705-1.3479212zm1.5172435-11.7100656-.7002663-3.08096281-6.3257383 2.0820569zm-7.061018-1.10722101 6.3607517-2.0820569-2.0541143-.90262582zm-.1050399-.03610504 4.3416507-2.99671772-3.5130023 1.40809628zm.8286484-1.66083151 3.2912513-1.33588621-2.8944338.09628009zm.3734753-1.33588621 2.9411182-.09628009-2.0074299-.90262582zm.9920439-1.05908096 3.2095536 1.4321663-1.8090212-2.11816193zm1.5989412-.60175055 1.7156523 2.04595186.3734753-1.13129103zm1.7856789 2.08205689.8519906.4332604-.4668441-1.58862145zm-1.9374032-2.21444201 2.2320937.91846316c.0245869.01011702.05272-.00161312.062837-.02620001.0070432-.01711671.0036492-.03675568-.0087302-.05051575l-.7572859-.8417474zm2.4159185.96280088.4668442 1.73304157 2.6429066-.72528489c.0384587-.01055409.0610798-.05028676.0505257-.08874539-.0067143-.02446651-.0257761-.04361442-.0502121-.05043886z" fill-rule="evenodd"/></svg>