<svg width="32" height="32" viewBox="0 0 32 32" xmlns="http://www.w3.org/2000/svg"><path d="M16 0c8.837 0 16 7.163 16 16s-7.163 16-16 16S0 24.837 0 16 7.163 0 16 0zm.064 4C9.405 4.008 4.008 9.375 4 16c0 4.574 2.825 8.254 6.573 8.563 2.28.187 4.485-.621 5.937-1.334a9.113 9.113 0 002.392-1.44l.156-.129.17-.15.16-.147c1.361-1.282 2.982-3.59 2.982-7.3v-.41l-6.254-4.267-6.255 4.268v.407l.005.367c.103 3.497 1.661 5.694 2.976 6.934.159.15.326.297.5.438.57-.205 1.14-.416 1.695-.661-1.42-.918-3.479-2.902-3.615-6.676l4.694-3.204 4.693 3.204-.018.334c-.194 2.854-1.517 4.628-2.68 5.647l-.15.115-.008.007-.053.038c-.492.358-3.854 2.696-7.199 2.419-2.25-.186-4.077-2.006-4.804-4.542a1.274 1.274 0 00-.339-2.253V16l.008-.4c.05-1.332.359-2.643.91-3.861a3.054 3.054 0 003.77-1.247 3.02 3.02 0 00.076-2.986 3.756 3.756 0 00-.11-.185 10.54 10.54 0 017.98-1.558 10.496 10.496 0 016.703 4.58c-.7.59-.957 1.553-.64 2.41a2.186 2.186 0 002.054 1.427h.101l.06.361c.07.483.107.97.11 1.46 0 5.42-4.337 9.704-10.538 10.457-4.959.606-8.14-1.442-8.14-1.442C9.759 27.052 12.353 28 16.067 28 22.678 27.929 28 22.577 28 16c0-6.578-5.323-11.93-11.936-12zm8.01 13.994c-.621 0-1.124.5-1.124 1.118a1.12 1.12 0 001.123 1.117c.62 0 1.123-.5 1.123-1.117a1.12 1.12 0 00-1.123-1.118zm-7.29.156h-1.44l.155.757.285-.379.28 1.421.28-1.42.285.378.155-.757zm7.036.356a.66.66 0 01.718.141.652.652 0 01.143.713.658.658 0 01-1.266-.248c0-.265.16-.504.405-.606zM5.583 16.755a.81.81 0 01.183 1.223 9.18 9.18 0 01-.183-1.223zm10.487-3.41s-.76 1.053-.76 1.469v2.132l-.182.067c-.417.172-.78.456-1.045.822h3.962l-.12-.151a2.451 2.451 0 00-1.102-.738v-2.132l-.01-.091c-.087-.46-.743-1.377-.743-1.377zm9.074-2.603c.542.925.939 1.928 1.174 2.973h-.01l-.15-.006a1.72 1.72 0 01-1.455-1.084 1.706 1.706 0 01.44-1.883zM9.83 7.59c.024.043.056.088.08.133l.083.17a2.56 2.56 0 01-.44 2.754 2.593 2.593 0 01-2.883.671A10.54 10.54 0 019.83 7.59z"/></svg>