<svg width="32" height="32" viewBox="0 0 32 32" fill="none" xmlns="http://www.w3.org/2000/svg">
<path d="M16 32C24.8366 32 32 24.8366 32 16C32 7.16344 24.8366 0 16 0C7.16344 0 0 7.16344 0 16C0 24.8366 7.16344 32 16 32Z" fill="black"/>
<path d="M15.6443 30.9331C24.0881 30.9331 30.9331 24.0881 30.9331 15.6443C30.9331 7.20046 24.0881 0.355408 15.6443 0.355408C7.20046 0.355408 0.355408 7.20046 0.355408 15.6443C0.355408 24.0881 7.20046 30.9331 15.6443 30.9331Z" fill="black"/>
<path d="M16 29.5112C23.462 29.5112 29.5111 23.462 29.5111 16C29.5111 8.53801 23.462 2.48886 16 2.48886C8.53798 2.48886 2.48883 8.53801 2.48883 16C2.48883 23.462 8.53798 29.5112 16 29.5112Z" fill="black"/>
<path d="M15.6446 28.4446C22.7138 28.4446 28.4446 22.7139 28.4446 15.6446C28.4446 8.57536 22.7138 2.8446 15.6446 2.8446C8.57536 2.8446 2.8446 8.57536 2.8446 15.6446C2.8446 22.7139 8.57536 28.4446 15.6446 28.4446Z" fill="black"/>
<path d="M7.62314 10.8793L15.8999 7.00391L24.1763 10.8793L16.304 17.6119L7.62314 10.8793Z" fill="white"/>
<path d="M15.8999 24.8306V15.1421L7.62314 10.8793V20.1801L15.8999 24.8306Z" fill="white"/>
<path d="M15.8995 15.1421L24.1763 10.8793V20.1801L15.8995 24.8306V15.1421Z" fill="white"/>
</svg>
