<svg width="33" height="33" viewBox="0 0 33 33" fill="none" xmlns="http://www.w3.org/2000/svg">
<g clip-path="url(#clip0)">
<path d="M16.2222 32.0179C25.0588 32.0179 32.2222 24.8545 32.2222 16.0179C32.2222 7.18139 25.0588 0.0179443 16.2222 0.0179443C7.38567 0.0179443 0.222229 7.18139 0.222229 16.0179C0.222229 24.8545 7.38567 32.0179 16.2222 32.0179Z" fill="#1B1B1B"/>
<path fill-rule="evenodd" clip-rule="evenodd" d="M20.7599 11.4803C20.9698 11.6901 21.3107 11.6639 21.4681 11.4278C21.6255 11.2442 21.5993 10.9557 21.4157 10.7983C19.6845 9.14582 18.137 8.30648 15.5665 8.43763C12.8648 8.56877 10.478 9.98517 10.6353 12.9753C10.7665 15.6245 13.337 16.595 15.5927 17.4606C17.3239 18.1163 18.8452 18.6934 18.9239 19.9262C19.0026 21.2901 17.6124 22.1032 16.4058 22.1819C14.1239 22.313 12.7862 21.4999 11.2911 20.0573C11.1075 19.8737 10.8189 19.8737 10.6353 20.0311C10.4255 20.2147 10.4255 20.5294 10.6091 20.7393C12.2878 22.418 14.0189 23.2573 16.537 23.1262C19.055 22.9425 22.1501 21.5262 21.9927 18.536C21.8616 15.9393 19.396 14.9688 17.1665 14.1294C15.3304 13.4212 13.6255 12.7655 13.5468 11.2704C13.4944 10.195 14.7796 9.40812 15.6976 9.35566C17.9271 9.25074 19.3173 10.0376 20.7599 11.4803ZM21.0485 18.5884C21.0485 19.7425 20.4189 20.7393 19.4747 21.3163L19.4222 21.2901C19.7632 20.818 19.8157 20.2147 19.8157 19.6376C19.8157 17.9327 17.9534 17.277 15.9862 16.5688C13.8091 15.7819 11.5271 14.9688 11.5271 12.6606C11.5271 11.6114 11.9993 10.4835 12.9173 9.95894L12.9435 10.0114C12.7075 10.5098 12.6026 11.0606 12.6026 11.6114C12.6026 13.4999 14.6747 14.2606 16.773 15.0475C18.9239 15.8343 21.0485 16.6212 21.0485 18.5884Z" fill="white"/>
</g>
<defs>
<clipPath id="clip0">
<rect width="32" height="32" fill="white" transform="translate(0.222229 0.0179443)"/>
</clipPath>
</defs>
</svg>
