<svg width="32" height="32" viewBox="0 0 32 32" fill="none" xmlns="http://www.w3.org/2000/svg">
<path d="M16 32C24.8366 32 32 24.8366 32 16C32 7.16344 24.8366 0 16 0C7.16344 0 0 7.16344 0 16C0 24.8366 7.16344 32 16 32Z" fill="black"/>
<mask id="mask0" mask-type="alpha" maskUnits="userSpaceOnUse" x="6" y="6" width="20" height="20">
<path d="M6 6H25.6347V26H6V6Z" fill="white"/>
</mask>
<g mask="url(#mask0)">
<path fill-rule="evenodd" clip-rule="evenodd" d="M8.21217 19.3353L25.6294 11.6968L25.6347 12.9032L8.20881 20.5453L8.21217 19.3353ZM23.4205 10.2066L23.4257 11.4285L5.99997 19.0908L6.00334 17.865L11.672 15.3724C10.3121 14.5345 9.23484 13.2151 9.33298 11.0756C9.38949 9.45604 10.1519 8.1184 11.5379 7.20758C12.7232 6.42891 14.3152 6 16.0211 6C17.8495 6 19.3368 6.4127 20.6843 7.30417C21.5166 7.85443 22.2519 8.88538 22.2519 8.88538L20.2856 9.75C20.2856 9.75 19.9549 9.36765 19.6548 9.13907C18.8656 8.5379 17.6521 8.06086 16.0211 8.06086C15.0036 8.06086 11.6679 8.28369 11.4741 11.1551C11.4017 12.0816 11.6639 13.3281 14.2564 14.2361L23.4205 10.2066ZM18.9023 17.6563L21.1499 16.6666C22.2429 17.5781 23.0585 18.9702 22.9192 20.8614C22.7419 23.3362 20.4913 26.0001 15.9689 26.0001C13.1461 26.0001 10.6417 24.7908 9.27009 22.7655L8.96363 22.3126L8.82244 22.093L10.7673 21.2384L10.888 21.3918L11.106 21.6974C12.1046 23.0991 13.9422 23.936 16.0213 23.936C17.9876 23.936 20.3991 23.094 20.7308 20.7219C20.8337 19.268 20.1598 18.2803 18.9023 17.6563Z" fill="white"/>
</g>
</svg>
