<svg width="32" height="32" viewBox="0 0 32 32" xmlns="http://www.w3.org/2000/svg"><path d="M16 0c8.837 0 16 7.163 16 16s-7.163 16-16 16S0 24.837 0 16 7.163 0 16 0zm4.358 6.957c-.081-.04-.142-.035-.215.018-.664.473-1.301.977-1.849 1.584-.375.414-.698.863-.922 1.377-.15.342-.245.697-.272 1.068a3.8 3.8 0 00.238 1.588c.19.527.452 1.019.733 1.502.331.568.69 1.12 1.006 1.698.264.48.499.974.649 1.503.136.48.191.968.137 1.463a3.836 3.836 0 01-.516 1.512c-.336.58-.768 1.083-1.255 1.544-.494.467-1.034.876-1.6 1.25-.73.481-1.498.893-2.288 1.265a25.73 25.73 0 01-2.06.856c-.034.012-.079.013-.097.056.02.04.062.045.098.06a10.244 10.244 0 005.508.54 10.152 10.152 0 005.14-2.558 10.025 10.025 0 002.773-4.425c.271-.885.405-1.79.432-2.713a9.53 9.53 0 00-.033-.946 9.886 9.886 0 00-1.973-5.232 10.014 10.014 0 00-1.659-1.733 10.523 10.523 0 00-1.975-1.277zm-4.214-.95a9.46 9.46 0 00-1.72.096c-.95.136-1.86.41-2.73.824a9.788 9.788 0 00-3.371 2.629 9.995 9.995 0 00-1.815 3.287 10.195 10.195 0 00-.507 3.28c-.008.33.022.74.07 1.148a10.172 10.172 0 001.574 4.339 9.974 9.974 0 001.867 2.13 9.824 9.824 0 001.945 1.302c.073.037.129.04.198-.011.479-.353.943-.722 1.37-1.14.462-.455.877-.947 1.18-1.53.254-.49.4-1.011.412-1.568a3.86 3.86 0 00-.192-1.234c-.18-.574-.452-1.105-.744-1.625-.32-.572-.67-1.126-.978-1.706-.244-.46-.465-.929-.612-1.43-.2-.68-.243-1.365-.067-2.057.138-.547.39-1.037.71-1.493.475-.678 1.06-1.244 1.7-1.753a15.093 15.093 0 012.358-1.512 22.43 22.43 0 012.297-1.044l.36-.14c.018-.008.041-.016.04-.042-.003-.02-.022-.027-.038-.034-.015-.008-.031-.014-.047-.021a9.62 9.62 0 00-3.26-.695z"/></svg>