<svg height="32" viewBox="0 0 32 32" width="32" xmlns="http://www.w3.org/2000/svg"><path d="m16 32c-8.836556 0-16-7.163444-16-16s7.163444-16 16-16 16 7.163444 16 16-7.163444 16-16 16zm-8.10559006-13.6905371v2.9071655-2.9071655h-.89440994v4.4398977h.89440994v-1.5327322c.25285024.4133228.55554473.7690954.91373025 1.0541017.59485712.4733248 1.31763011.7292699 2.16080391.7292699 1.2157821 0 2.1932412-.5042067 2.8618271-1.3675805.5444317-.703048.8462474-1.6135003.8462474-2.4099131 0-1.0459282-.4174685-1.8601829-1.2039095-2.509367-.5759446-.4754253-1.1874139-.7838651-2.4201079-1.2950735-.0454596-.0188525-.2054681-.0850992-.2027054-.0839548-1.1170184-.4627114-1.62188682-.7115071-2.07151761-1.0663668-.54408168-.4294026-.80983409-.9192397-.80983409-1.5797648 0-.8860439.30661649-1.6071582.84749679-2.1109042.49633074-.462255 1.17123609-.71774026 1.87300011-.71774026 1.0459275 0 1.7860023.44526886 2.2778488 1.26232666.4166615.6921601.6289835 1.6272273.6289835 2.5509726h.8944099v-3.6163683h1.0993789v12.7468031h2.6459627v-1.5584507c.2486189.4012208.5453806.7474428.8952847 1.0260296.5945277.4733513 1.3173731.729352 2.160616.729352 1.2157821 0 2.1932412-.5042067 2.8618271-1.3675805.5444317-.703048.8462474-1.6135003.8462474-2.4099131 0-1.0459282-.4174685-1.8601829-1.2039096-2.509367-.5759445-.4754253-1.1874138-.7838651-2.4201078-1.2950735-.0454596-.0188525-.2054681-.0850992-.2027055-.0839548-1.1170183-.4627114-1.6218868-.7115071-2.0715175-1.0663668-.5440817-.4294026-.8098341-.9192397-.8098341-1.5797648 0-.8860439.3066165-1.6071582.8474968-2.1109042.4963307-.462255 1.171236-.71774026 1.8730001-.71774026 1.0459275 0 1.7860022.44526886 2.2778488 1.26232666.4166614.6921601.6289835 1.6272273.6289835 2.5509726h.8944099v-4.42199491h-.8944099v1.21642071c-.6503118-.93440778-1.627612-1.4670601-2.9068323-1.4670601-.9311549 0-1.8300714.34028467-2.4955279.96005405-.7176844.66841155-1.119379 1.61313455-1.119379 2.72792545 0 .930913.3946054 1.658253 1.136523 2.2437926.5373516.4240911 1.0894323.6961527 2.2851279 1.1914552-.0025403-.0010523.1572007.0650836.2023665.0838142 1.1502955.4770371 1.7071555.7579307 2.1916934 1.1579025.5949855.4911431.8923638 1.0711668.8923638 1.8575624 0 .6149442-.2420299 1.3450474-.6694201 1.8969548-.5048833.6519774-1.2206683 1.0212038-2.1442445 1.0212038-1.1813493 0-1.9961484-.6487271-2.5289275-1.7834722-.1997432-.4254251-.3444175-.8923695-.4372483-1.3572123-.0348679-.1745981-.060266-.3392357-.0758922-.4807984-.0041319-.0374322-.0087428-.1073386-.0138327-.2097192h-.8944099v3.6342711h-.8571429v-12.74680305h-2.8881987v1.27012915c-.6503117-.93440778-1.6276119-1.4670601-2.9068323-1.4670601-.93115487 0-1.83007138.34028467-2.4955279.96005405-.7176844.66841155-1.11937894 1.61313455-1.11937894 2.72792545 0 .930913.3946054 1.658253 1.13652299 2.2437926.53735163.4240911 1.08943232.6961527 2.28512785 1.1914552-.0025403-.0010523.1572007.0650836.2023666.0838142 1.1502954.4770371 1.7071555.7579307 2.1916934 1.1579025.5949854.4911431.8923637 1.0711668.8923637 1.8575624 0 .6149442-.2420299 1.3450474-.6694201 1.8969548-.5048832.6519774-1.2206683 1.0212038-2.1442445 1.0212038-1.18112587 0-1.99561881-.6480879-2.53158776-1.7841758-.20039584-.424777-.34641182-.8905193-.4429537-1.3589962-.03581864-.1738127-.06264439-.338253-.08064222-.4837165-.0124207-.1003877-.01935048-.184537-.01935048-.2043136z" fill-rule="evenodd"/></svg>