<?xml version="1.0" encoding="UTF-8"?>
<svg width="32px" height="32px" viewBox="0 0 32 32" version="1.1" xmlns="http://www.w3.org/2000/svg" xmlns:xlink="http://www.w3.org/1999/xlink">
    <!-- Generator: Sketch 52.1 (67048) - http://www.bohemiancoding.com/sketch -->
    <title>svg/black/smart</title>
    <desc>Created with Sketch.</desc>
    <g id="black/smart" stroke="none" stroke-width="1" fill="none" fill-rule="evenodd">
        <path d="M16,32 C7.163444,32 0,24.836556 0,16 C0,7.163444 7.163444,0 16,0 C24.836556,0 32,7.163444 32,16 C32,24.836556 24.836556,32 16,32 Z M26.6665207,10.1473912 L23.2288348,8.16846175 C23.1113706,8.09786429 23.0015788,8.03672344 22.8845904,7.96981346 C22.7708732,7.90474723 22.6603677,7.8345661 22.5436767,7.76759665 C21.8554258,7.37392809 21.1631306,6.99233306 20.482671,6.584093 L17.2174642,4.69788592 C17.0263098,4.58297918 16.0454393,4.00588808 16.0029738,4.00588808 C15.9861422,4.00588808 15.8616599,4.08683428 15.8348364,4.10289267 L11.3732198,6.67390105 C11.3077967,6.71041903 11.2625953,6.73932414 11.1968748,6.77536632 C11.1373993,6.80795891 11.084585,6.83936199 11.0291538,6.87278724 L10.6868127,7.07333874 C10.6269803,7.10938091 10.5727386,7.14060557 10.5114193,7.17569613 L10.1752636,7.36982428 C10.0566694,7.43994593 9.94634225,7.49983779 9.82965126,7.56710462 L9.13878345,7.96178427 C9.07978373,7.99318735 9.02839686,8.02643417 8.97106245,8.05920519 L8.10652609,8.55820492 C7.98757502,8.62838605 7.87593944,8.68673155 7.75901054,8.75358205 L7.07575561,9.15664774 C6.7325223,9.352917 6.38881319,9.56233036 6.04088132,9.75068938 C5.88814815,9.83341984 5.08505001,10.322844 5.0055907,10.3441363 L5.0055907,23.0582806 C5.07006218,23.0636334 5.94786158,23.5870181 6.0385023,23.6414977 L7.41476615,24.4369235 C7.53014869,24.506272 7.64493647,24.5703271 7.75871317,24.6358692 L8.43988646,25.0279319 C8.49698297,25.0588592 8.54813193,25.0917491 8.60838064,25.1245796 C8.67451744,25.1606813 8.71781563,25.1916085 8.78502298,25.225688 C8.96005948,25.3144255 9.12778048,25.4219573 9.29591782,25.5230657 L10.1609895,26.0215896 C10.2208813,26.0548364 10.268997,26.083801 10.3282347,26.1194269 C10.6659367,26.3226548 11.0169613,26.505661 11.3540687,26.7096621 L12.561422,27.4090349 C13.3575615,27.8799622 14.1705326,28.3180589 14.9635793,28.7948148 L15.9069208,29.3413355 C16.0560854,29.4424439 16.111933,29.3278345 16.3481103,29.199189 L18.4137551,28.0073587 C18.5282455,27.9414599 18.6393458,27.8769289 18.759189,27.8099 L19.0961773,27.6166045 C19.153036,27.5859151 19.2053744,27.5526088 19.2627088,27.5179941 L21.1581941,26.4211463 C21.7244012,26.0824331 22.3082725,25.7747067 22.8737659,25.4347445 L26.6471911,23.2487808 C26.7016112,23.2159503 26.7561503,23.182525 26.8147932,23.1512409 C26.8753393,23.1189457 26.9324358,23.0743985 27,23.0586375 L27,10.3440768 C26.8930035,10.2722898 26.782379,10.2167397 26.6665207,10.1473912 Z M19.8769722,22.5907434 L16.6616058,22.5907434 L16.6616058,23.4326791 C16.6616058,23.4432063 16.6584536,23.446418 16.647867,23.446418 L15.0973398,23.446418 L15.0973398,22.5907434 L12.1290349,22.5907434 L12.1290349,20.2114247 C12.1290349,20.186445 12.1587726,20.1653906 12.1736415,20.1508191 L12.4754799,19.8259638 C12.4842366,19.8179451 12.4924803,19.8093835 12.5001622,19.8003298 C12.5072005,19.7907028 12.5149968,19.7816535 12.5234766,19.7732685 L12.6982157,19.5866342 L12.7002974,19.5841363 L12.752279,19.5306083 C12.763163,19.5193079 12.7647094,19.5141335 12.7749986,19.5030116 L12.8308462,19.4444877 C12.8344147,19.4402649 12.8339984,19.4406218 12.8371506,19.4370533 L13.0242606,19.2353122 C13.0643471,19.1936794 13.1049094,19.1547824 13.1419032,19.1104136 L13.1439849,19.1079157 C13.1467207,19.1046445 13.1467207,19.1044661 13.1502893,19.1004812 L13.2762584,18.9657097 C13.2938037,18.9464396 13.3081373,18.9350203 13.324731,18.9134901 L13.4771073,18.7506461 L13.502325,18.7255474 C13.5105633,18.7169404 13.5182509,18.7078225 13.525342,18.6982482 L13.7795404,18.4263855 L13.781741,18.4240065 C13.785369,18.4200216 13.7847148,18.4205569 13.7882238,18.4167505 L13.8265261,18.3772587 C13.8779129,18.3128467 13.9665315,18.2331495 14.0204758,18.1686185 L14.0264234,18.1611246 C14.0428981,18.1415572 14.0624655,18.1266288 14.0778697,18.1075966 L14.1766586,18.0005407 C14.2464234,17.9310138 14.3075047,17.8550635 14.3779238,17.7854772 L14.6019086,17.5428765 C14.6111273,17.5333009 14.6177291,17.5271749 14.6271857,17.5178373 L14.7253798,17.4101865 C14.7435793,17.3912733 14.7616004,17.3766423 14.7769451,17.3566586 C14.7922898,17.3366748 14.8109057,17.3226386 14.8283915,17.3031306 L14.9267045,17.1955988 C14.9366964,17.1856664 14.9445472,17.1787078 14.9539443,17.1679427 L15.0285266,17.0869965 C15.0444066,17.06618 15.0625466,17.0529765 15.079973,17.0334685 C15.1235091,16.9839849 15.2501325,16.8546851 15.2774912,16.8193566 C15.2932522,16.7989565 15.3122844,16.7873587 15.3258448,16.7670776 C15.3060989,16.7373398 15.2295539,16.6600216 15.1988646,16.6287375 L15.1006705,16.5210868 C15.0914517,16.511987 15.0841363,16.5054447 15.0753933,16.4960476 C15.0645688,16.4841525 15.0621898,16.4782049 15.0504136,16.4663098 C14.9730954,16.3879805 14.9017248,16.3048932 14.8238118,16.2262666 L14.6986158,16.0907218 C14.6915742,16.0811159 14.6837781,16.0720867 14.6753014,16.0637199 L13.5251636,14.8304353 C13.5173594,14.8199936 13.5088967,14.8100608 13.499827,14.8006975 L13.3301433,14.6170965 L13.3279427,14.6147175 L12.9512247,14.2091538 C12.9425412,14.1997567 12.9352257,14.1932144 12.926007,14.1840552 L12.8254339,14.0742038 C12.7577507,14.0039038 12.6933982,13.9281319 12.6241092,13.8591998 L12.6021627,13.8354096 L12.6000811,13.8329116 L12.5257962,13.7516085 C12.4917167,13.7147337 12.4568045,13.6810111 12.4227845,13.6441957 C12.41196,13.6323006 12.409581,13.6263531 12.3978048,13.614458 C12.3295269,13.5454069 12.2676723,13.4702298 12.1987997,13.4017735 C12.1897594,13.3927926 12.1819086,13.385953 12.1736415,13.3766153 C12.1653744,13.3672776 12.1290349,13.3316518 12.1290349,13.3205893 L12.1290349,10.9320519 L15.0973993,10.9320519 L15.0973993,9.93916734 C15.6191187,9.93916734 16.1350095,9.94832657 16.6570857,9.94832657 L16.6570857,10.8999351 C16.6570857,10.9104623 16.6602974,10.913674 16.6708245,10.913674 L19.8770316,10.913674 L19.8770316,13.32505 L15.4541335,13.32505 C15.4804217,13.3643039 15.5195566,13.3976102 15.5513166,13.4337713 L15.7971884,13.7048608 C15.8118789,13.7241308 15.8284131,13.7378697 15.8447689,13.7577345 C15.8869965,13.8082887 15.9339822,13.8512895 15.975615,13.9011895 L16.333063,14.293728 C16.4020546,14.361768 16.4627791,14.4390268 16.5298081,14.5086726 L17.4428765,15.5123817 C17.4456123,15.5156529 17.4456123,15.5158313 17.4491809,15.5198162 L17.7762963,15.8791673 C17.7846229,15.888624 17.7923547,15.8952257 17.8014544,15.9043255 C17.8452284,15.9478616 17.881449,15.9979995 17.9248067,16.0417735 L18.5129008,16.684704 C18.5374047,16.7111706 18.5623844,16.7357935 18.5826061,16.7659476 C18.5740416,16.7787348 18.5666072,16.7827791 18.5564964,16.7947337 C18.5493991,16.8043032 18.5417118,16.8134207 18.5334793,16.822033 L18.4101271,16.9548418 C18.4030494,16.9644268 18.3953611,16.9735455 18.38711,16.9821411 L18.0919924,17.3046175 C18.0727818,17.3235307 18.061422,17.3398865 18.0416167,17.3594539 C18.001887,17.3988862 17.9415193,17.4740038 17.8953068,17.5196215 L17.6885699,17.7475318 C17.6475912,17.7965396 17.5380373,17.9055583 17.5050284,17.9482617 L17.2124088,18.2687159 C17.1487699,18.344904 17.0775777,18.4114572 17.0141173,18.4866937 L16.8935604,18.6175399 C16.8348581,18.678086 16.7816275,18.7433901 16.724412,18.8052447 C16.7148364,18.8155934 16.7062125,18.8221357 16.6969343,18.8326629 C16.6286564,18.9099811 16.5549067,18.9836713 16.4880562,19.0629521 C16.4834766,19.0684239 16.4827034,19.0694945 16.4773506,19.0748473 L16.221249,19.3540254 C16.2179184,19.3576534 16.2183347,19.3572371 16.2148256,19.3613409 L16.2064991,19.3713328 L16.2044174,19.3738308 L16.086299,19.503309 C16.0778137,19.511689 16.0700171,19.5207387 16.0629846,19.5303704 C16.0553088,19.5394488 16.0470437,19.5480119 16.0382428,19.5560043 C15.9867964,19.606737 15.9430819,19.6653204 15.891814,19.7161125 C15.8835631,19.7247082 15.8758748,19.7338269 15.868797,19.7434117 L15.7710787,19.8509435 C15.7625142,19.860638 15.7549608,19.8665856 15.745861,19.8760422 L15.4544309,20.1975669 L19.7537983,20.1975669 C19.7954312,20.1975669 19.8772695,20.1883482 19.8772695,20.2113058 L19.8769722,22.5907434 Z" id="Combined-Shape" fill="#000000" fill-rule="nonzero"></path>
        <g id="SmartCash-(SMART)" transform="translate(5.000000, 4.000000)"></g>
    </g>
</svg>