<svg xmlns="http://www.w3.org/2000/svg" width="32" height="32" viewBox="0 0 32 32">
  <path fill-rule="evenodd" d="M16,32 C7.163444,32 0,24.836556 0,16 C0,7.163444 7.163444,0 16,0 C24.836556,0 32,7.163444 32,16 C32,24.836556 24.836556,32 16,32 Z M14.2,10.9090909 L21.76,10.9090909 L21.76,7.57575758 L17.2,7.57575758 L17.2,6 L15.28,6 L15.28,7.57575758 L10,7.57575758 L10,11.030303 L15.28,15.5757576 L10,20.9090909 L10,24.6060606 L15.28,24.6060606 L15.28,26 L17.2,26 L17.2,24.6060606 L22,24.6060606 L22,21.2727273 L14.08,21.2727273 L19.78,15.5757576 L14.2,10.9090909 Z"/>
</svg>
