<svg height="32" viewBox="0 0 32 32" width="32" xmlns="http://www.w3.org/2000/svg"><path d="M16 32C7.163 32 0 24.837 0 16S7.163 0 16 0s16 7.163 16 16-7.163 16-16 16zm0-5c6.068-.012 11-4.943 11-11S22.068 5.018 16 5C9.932 5.018 5 9.943 5 16s4.932 10.982 11 11zm9.755-9.25a10.003 10.003 0 0 1-.875 2.642c.037-.164.06-.328.06-.503 0-.6-.242-1.145-.63-1.55a1.11 1.11 0 0 0 1.445-.588zm-1.02.11h-.001zm.248-6.027a9.68 9.68 0 0 1 .924 4.173c0 .412-.03.812-.08 1.212a1.103 1.103 0 0 0-1.098-1.012c-.213 0-.407.067-.571.164a4.614 4.614 0 0 0 .825-4.537zm-.564 1.544a3.829 3.829 0 0 1-3.827 3.816 3.825 3.825 0 0 1-3.827-3.816 3.825 3.825 0 0 1 3.827-3.816 3.825 3.825 0 0 1 3.827 3.816zM20.44 19.89c0 .024.006.048 0 .085a4.65 4.65 0 0 0-1.604-2.284c.889.36 1.867.435 2.8.218a2.239 2.239 0 0 0-1.196 1.98zm.219 1.478a3.85 3.85 0 0 0-.05-.606c.208.484.577.88 1.046 1.12a.77.77 0 0 0-.17-.017c-.407 0-.778.23-.96.593a4.62 4.62 0 0 0 .134-1.09zm2.028-.067h.001c-.778 0-1.416-.63-1.416-1.411 0-.775.632-1.411 1.415-1.411s1.422.63 1.422 1.41a1.42 1.42 0 0 1-1.422 1.412zm.935-3.985h.001c0 .232.074.46.212.648a2.234 2.234 0 0 0-1.148-.315c-.103 0-.2.012-.298.024a4.82 4.82 0 0 0 1.373-.89c-.09.163-.138.346-.14.533zm-7.623-.6c-.619 0-1.208.127-1.749.339a4.632 4.632 0 0 0 1.75-2.92 4.621 4.621 0 0 0 1.748 2.92 4.662 4.662 0 0 0-1.749-.34zm0-6.173H16a2.23 2.23 0 0 0 1.197-.345A4.66 4.66 0 0 0 16 12.607a4.593 4.593 0 0 0-1.197-2.41 2.23 2.23 0 0 0 1.196.345zm2.272-2.265c0-.024-.005-.049 0-.073.164.412.565.703 1.033.703.018 0 .036-.006.06-.006a4.63 4.63 0 0 0-1.579.775 2.26 2.26 0 0 0 .486-1.399zm1.725-1.338c1.67.744 3.105 1.93 4.148 3.428a4.666 4.666 0 0 0-4.397-1.563c.403-.176.663-.573.662-1.011 0-.346-.164-.648-.413-.854zm-.698.309zm-2.612-1.133c.948.072 1.865.266 2.715.58a.671.671 0 0 0-.109-.011c-.583 0-1.057.454-1.1 1.024a2.263 2.263 0 0 0-1.506-1.593zm-2.12 2.162a1.434 1.434 0 0 1 2.867 0 1.434 1.434 0 0 1-2.866 0zm-1.973-1.581a10.088 10.088 0 0 1 2.715-.581A2.263 2.263 0 0 0 13.8 7.708a1.1 1.1 0 0 0-1.1-1.024.671.671 0 0 0-.108.012zm1.135 1.581c0 .509.173 1.002.492 1.4a4.685 4.685 0 0 0-1.579-.776c.018 0 .036.006.06.006.468 0 .87-.29 1.033-.703a.294.294 0 0 0-.006.073zm-1.579-.479a.554.554 0 0 1 1.106 0 .552.552 0 0 1-1.106 0zm-4.294 2.575a9.948 9.948 0 0 1 4.148-3.429 1.098 1.098 0 0 0 .25 1.866 4.647 4.647 0 0 0-4.397 1.563zm-.274 3.004c0-2.102 1.72-3.81 3.827-3.816a3.825 3.825 0 0 1 3.827 3.816 3.825 3.825 0 0 1-3.827 3.816 3.825 3.825 0 0 1-3.827-3.816zm3.979 6.512a2.25 2.25 0 0 0-1.203-1.987 4.657 4.657 0 0 0 2.8-.218 4.678 4.678 0 0 0-1.603 2.284c0-.024.006-.055.006-.08zm-3.183-2.575c0-.187-.05-.371-.146-.533.4.377.866.68 1.373.891a1.6 1.6 0 0 0-.298-.024 2.234 2.234 0 0 0-1.148.314c.143-.185.22-.413.219-.648zm-.486 2.575a1.41 1.41 0 0 1 1.415-1.412c.778 0 1.416.63 1.416 1.412a1.415 1.415 0 0 1-2.83 0zm2.448 1.993a2.242 2.242 0 0 0 1.039-1.127 5.008 5.008 0 0 0-.043.612c.001.367.046.733.134 1.09a1.075 1.075 0 0 0-.96-.594c-.06 0-.115.013-.17.019zm-4.173-4.67a9.79 9.79 0 0 1 .844-5.385 4.614 4.614 0 0 0 .826 4.537 1.099 1.099 0 0 0-.57-.164c-.578 0-1.051.448-1.1 1.011zm1.1-.449zM7.06 19.89c0 .175.023.339.06.503a9.807 9.807 0 0 1-.874-2.641 1.116 1.116 0 0 0 1.445.587 2.216 2.216 0 0 0-.631 1.55zm2.842 2.162c-.296.2-.473.534-.474.89 0 .261.098.491.25.68a10.005 10.005 0 0 1-1.896-2.09 2.245 2.245 0 0 0 2.12.52zm.085.89a.522.522 0 1 1 .523.521.522.522 0 0 1-.523-.52zm4.671 2.878a9.912 9.912 0 0 1-4.61-1.908 1.078 1.078 0 0 0 1.549-.969c0-.037-.012-.067-.012-.097a4.674 4.674 0 0 0 3.073 2.974zm5.163-4.452c0 2.102-1.713 3.81-3.821 3.816a3.823 3.823 0 0 1-3.82-3.816 3.82 3.82 0 0 1 7.64 0zm2.138 2.544a9.969 9.969 0 0 1-4.61 1.908 4.674 4.674 0 0 0 3.073-2.974.529.529 0 0 0-.012.097c-.002.37.189.717.504.914.315.197.71.218 1.045.055zm.055-.97a.522.522 0 1 1-.522-.52c.288 0 .522.233.522.52zm2.204-1.41a10.005 10.005 0 0 1-1.895 2.089 1.07 1.07 0 0 0 .25-.678 1.078 1.078 0 0 0-.475-.89 2.243 2.243 0 0 0 2.12-.521z"/></svg>