<svg height="32" viewBox="0 0 32 32" width="32" xmlns="http://www.w3.org/2000/svg"><path d="m16 32c-8.836556 0-16-7.163444-16-16s7.163444-16 16-16 16 7.163444 16 16-7.163444 16-16 16zm-.2847126-18.5671814c-.2447571.9356067-.7954608 1.3098494-.9790286 1.434597 0 .3118689.428325 2.1207085 1.2849751 2.1207085.6118929 0 1.1625965-.561364 1.3461644-2.1207085-.3059464-.2494952-.6118929-.8108592-.7954608-1.434597-.2447571.0623738-.5507036.1247476-.8566501 0zm-.9178391 5.4888927c.1223786.4989902.4895143 1.7464658 1.2849751 1.7464658.5507037 0 1.1625966-.6861116 1.2849752-1.684092-.4283251-.2494952-.611893-.8108592-.7954608-1.6840921-.2447572.0623738-.611893.1247475-.8566501 0-.3059465.8108591-.5507037 1.3098494-.9178394 1.6217183zm-4.89514337 1.9335872c.30594647.4989902.91783937 1.3098493 1.59092157.9979804.1835679-.0623737.2447572-.561364.1835679-.9979804-.4895143-.3118689-.7954608-.873233-1.1625965-1.7464659-.1223786.0623738-.3059465.0623738-.4895144 0 .1223786.9356067.1223786 1.434597-.12237857 1.7464659zm-2.56995026-1.6840921c.24475716 1.3722232.30594646 1.4969707.24475716 1.6840921.42832505.8108591.85665009 1.1851018 1.40735372 1.122728.18356788 0 .06118929-.4989902-.18356788-.9979805 0 0-.7342715-.6237378-1.16259654-1.7464658-.12237859-.0623738-.18356788-.0623738-.30594646-.0623738zm-1.65211089 0c0-.1871213.42832505.9979805.97902867 1.5593445.24475717.1871213.48951434.3742427.73427151.8108591.06118929.1247476-1.10140726.2494952-1.71330018-2.3702036zm7.46509362 1.6840921c.3059465 1.122728 1.1625966 1.122728 1.468543.9979804.4283251-.0623737.6118929-.4366164.6730822-1.122728-.5507036-.3742427-.7342715-1.1851018-.8566501-1.7464658-.1835678.0623737-.4895143.0623737-.7342715 0-.0611893.8732329-.1223785 1.5593445-.5507036 1.8712134zm-5.26227911-1.9335872c.24475717.6237378.97902868 1.8088396 1.52973231 1.8088396.24475716 0 .36713575-.4366165.24475716-1.7464658-.36713575-.2494952-.67308221-.7484854-.85665009-1.5593446-.12237858.0623738-.36713575.0623738-.55070362 0-.0611893.6861116-.12237859 1.1851019-.36713576 1.4969708zm-1.89686805 0c.18356788.4989902.61189292 1.5593445 1.16259655 1.7464658.24475717.1247476.24475717-.2494951-.06118929-1.684092 0 0-.42832505-.3742427-.73427151-1.5593446-.06118929 0-.18356787 0-.24475716 0-.0611893.5613641-.12237859 1.3722232-.12237859 1.4969708zm4.89514336 0c.0611893.2494951.6730822 1.4969707 1.4073537 1.684092.8566501.1871214.9178394-.9356067.9178394-1.6217182-.428325-.2494952-.7342715-.7484854-.9178394-1.5593446-.1835679.0623738-.4895143.1247476-.7954608 0-.1223786.8108592-.3059464 1.2474757-.6118929 1.4969708zm-.5507036-.1871214c.3671357 0 .6730822-.561364.7954608-1.6217183-.3059465-.3118689-.6730822-.8732329-.7342715-2.1830823-.1835679.0623738-.3671358.0623738-.48951437 0-.18356787 1.1851019-.36713575 1.8712134-.7342715 2.2454561 0 .3742427.42832504 1.5593445 1.16259657 1.5593445zm-3.79373613-1.5593445c.30594646 1.2474756.61189292 1.5593445.85665009 1.5593445.55070363 0 .42832504-.9356067.48951433-1.6217183-.18356787-.2494951-.55070362-.8732329-.55070362-2.1830823-.12237859 0-.18356788 0-.30594646 0-.36713576 1.9335872-.36713576 1.995961-.48951434 2.2454561zm-1.22378584-2.1830823c-.12237858-.0623738-.7342715 2.557325.18356788 3.6800531.12237858.1247475.12237858-1.434597.12237858-1.434597-.24475717-.561364-.12237858-2.1830823-.30594646-2.2454561zm7.34271507 2.1830823c.0611893.1871214.428325 1.5593445 1.4073537 1.5593445.6118929 0 1.1014072-.6861116 1.2237858-1.684092-.4895143-.4989903-.7342715-1.1851019-.8566501-2.1207086-.1835678.0623738-.4895143.0623738-.7342715 0-.3671357 1.2474756-.6118929 1.9335872-1.0402179 2.2454561zm-5.01752197-2.4325774c.06118929 1.122728.30594646 2.2454561.79546079 2.2454561.55070363 0 .7954608-1.2474756.97902868-2.3078299-.18356788-.1247475-.42832505-.4989902-.42832505-1.3098494-.12237858.1247476-.36713575.1247476-.48951434 0-.06118929.1247476-.36713575 1.1851019-.85665008 1.3722232zm-1.5297323 2.3078299c.30594646 0 .61189292-2.3078299.61189292-2.3078299-.12237859-.1871213-.24475717-.561364-.18356788-1.3722232-.06118929.0623738-.18356788 0-.24475717 0-.24475717.8108592-.61189292 1.3722232-.61189292 1.3722232-.12237858.6861116 0 2.3078299.42832505 2.3078299zm4.65038617-2.3078299c.0611893.7484854.4283251 2.2454561 1.1625966 2.2454561.7954608 0 1.1625965-1.1227281 1.3461644-2.2454561-.4283251-.2494951-.6118929-.6861116-.7342715-1.3722232-.3059465.0623738-.5507036.0623738-.7954608-.0623737-.2447572.6237378-.7342715 1.3098493-.9790287 1.4345969zm.5507036-1.6840921c-.1835678-.2494951-.428325-.6861115-.3059464-1.6217182-.1835679 0-.3059465 0-.4283251 0-.3059464.6237378-.67308217 1.3722231-1.1625965 1.7464658 0 .1247476.06118929 1.4345969.6730822 1.4345969.4895143 0 .8566501-.561364 1.2237858-1.5593445zm-2.99827526-1.5593445c-.06118929 0-.18356788 0-.24475717 0 0 .0623738-.7954608 1.4969708-1.16259655 1.7464659-.12237858.6237378-.12237858 1.3722231.24475717 1.4345969.36713575 0 .61189292-.3118689 1.10140726-1.5593445-.12237859-.3118689-.24475717-.7484853.06118929-1.6217183zm-1.77448947.0623738c-.91783938.6237378-1.40735372 2.8691939-1.16259655 2.9315677.06118929.0623738.7954608-.9979805.73427151-1.6217183-.0611893-.4366165.61189292-1.3722232.42832504-1.3098494zm8.68887943 1.4969707c-.2447571-.2494951-.5507036-.6861115-.6730822-1.6217182-.1835679.0623737-.4895143.0623737-.6730822 0-.1835679.561364-.4895143 1.3098493-1.1014072 1.7464658.1223785.6237378.428325 1.3722232.9790286 1.4345969 1.040218 0 1.2849752-.8732329 1.468543-1.5593445zm-8.32174368-1.684092c-.61189292.9356067-.61189292 1.7464658-.36713575 1.7464658.30594646 0 1.16259655-1.5593445 1.34616442-1.8712134-.06118929-.3118689.61189292-.9356067.36713576-.9979805-.42832505 0-1.22378584 1.0603543-1.34616443 1.1227281zm15.05256588 7.7343487c-.1835679.0623738-.3671358.0623738-.4895144 0-.2447571.8108592-.6118929 1.434597-1.1625965 1.7464659-.0611893.4366164-.0611893.9356067.1835679.9979804.6730822.2494952 1.3461644-.4989902 1.5909215-.9979804-.1835678-.3118689-.1835678-.8108592-.1223785-1.7464659zm2.4475716 0c-.428325 1.1227281-1.1625965 1.7464659-1.1625965 1.7464659-.3059465.561364-.4283251.9979804-.1835679.9979804.5507036 0 .9790287-.3118689 1.4073537-1.122728-.0611893-.1871213 0-.3118689.2447572-1.6840921-.1223786.1247476-.2447572.1247476-.3059465.0623738zm.9790287 1.6217183c.5507036-.561364.9178394-1.7464658 1.040218-1.5593445-.6118929 2.6196988-1.7744895 2.4949512-1.7133002 2.3702036.1835679-.4366164.428325-.561364.6730822-.8108591zm-7.0367686-1.6217183c-.2447571.0623738-.4895143.0623738-.7342715 0-.1223786.561364-.3671357 1.3098494-.8566501 1.7464659.1223786.6237378.2447572.9979804.6730823 1.122728.3059464.0623738 1.1625965.0623738 1.468543-.9979805-.3671358-.4366164-.5507037-1.122728-.5507037-1.8712134zm5.5070363-1.7464658c-.2447572.1247475-.428325.0623737-.5507036 0-.1835679.6861115-.4895144 1.3098494-.8566501 1.5593445-.1223786 1.3098494 0 1.7464658.2447572 1.7464658.4895143 0 1.2849751-1.1851018 1.5297323-1.8088396-.3059465-.2494951-.3671358-.7484854-.3671358-1.4969707zm2.2028145.1247475c-.0611893 0-.1835679 0-.2447571 0-.3059465 1.1227281-.7342715 1.5593445-.7342715 1.5593445-.3059465 1.3722232-.3671358 1.7464659-.0611893 1.6840921.4895143-.1871213.9178393-1.2474756 1.1625965-1.7464658-.1223786-.1871214-.1223786-.9979805-.1223786-1.4969708zm-5.445847-.1247475c-.3059464.1247475-.6118929.0623737-.7954608 0-.1835678.7484853-.4895143 1.3098494-.9178393 1.5593445 0 .6237378.0611893 1.8088396.9178393 1.6217183.6730823-.1247476 1.3461645-1.3722232 1.4073538-1.6840921-.3671358-.1871213-.4895144-.6237378-.611893-1.4969707zm2.3251931-.1871214c-.3059464-.3742427-.4895143-1.122728-.7342715-2.2454561-.1835678.0623738-.3059464.0623738-.4895143 0-.0611893 1.3098494-.4283251 1.9335872-.7342715 2.1830823.1223786.9979805.428325 1.6217183.7954608 1.6217183.6118929 0 1.1014072-1.1851018 1.1625965-1.5593445zm2.1416253-2.2454561c-.1223786 0-.1835679.0623738-.3059465 0 0 1.3098494-.3059465 1.9335872-.5507036 2.1830823.0611893.6237378-.0611893 1.6217183.4895143 1.6217183.2447572 0 .5507036-.3742427.8566501-1.5593445-.1223786-.2494951-.1835679-.3118689-.4895143-2.2454561zm1.2849751 2.2454561s0 1.5593445.1223786 1.434597c.9178394-.9979805.3671357-3.7424268.1835678-3.6800531-.1223785.1247476 0 1.7464659-.3059464 2.2454561zm-7.8322294-2.2454561c-.3059465.0623738-.6118929.0623738-.7342715 0-.1223786.9356067-.428325 1.6217183-.8566501 2.1207086.1835679.9356067.5507036 1.7464658 1.2237859 1.684092.85665 0 1.3461644-1.3722231 1.4073537-1.5593445-.5507037-.3118689-.8566501-.9979805-1.040218-2.2454561zm5.0787112-1.5593445c-.1835678.1247476-.3671357.1247476-.5507036.0623738 0 .7484854-.2447572 1.1851018-.428325 1.3722232.1835678 1.122728.428325 2.3078298.9790286 2.3078298.4895144 0 .7954608-1.1851018.7954608-2.245456-.428325-.3118689-.7954608-1.3722232-.7954608-1.4969708zm2.7535182 1.3722232s-.3059465-.561364-.5507036-1.3722232c-.0611893.0623738-.1835679.0623738-.2447572 0 .0611893.6861116-.0611893 1.1227281-.1835679 1.3098494 0 0 .3059465 2.3078299.6118929 2.3078299.3059465.0623738.4283251-1.5593445.3671358-2.2454561zm-5.9965506-1.3722232c-.2447572.1247476-.5507037.1247476-.7954608.0623738-.0611893.6237378-.3059465 1.1227281-.6730822 1.3722232.1835678 1.1851018.428325 2.3078298 1.3461644 2.2454561.6730822 0 1.1014072-1.4969708 1.1625965-2.2454561-.3671357-.1871214-.7954608-.8732329-1.0402179-1.434597zm1.5297323 1.1851019c.6118929 0 .6730822-1.2474756.6730822-1.434597-.4283251-.3118689-.7954608-.9979805-1.1625966-1.684092-.1223786.0623737-.2447571.0623737-.428325 0 .1223786.8732329-.0611893 1.3722231-.3059465 1.6217182.4283251.9979805.7954608 1.5593445 1.2237859 1.4969708zm1.9580573-1.4969708c.4283251 1.2474756.6730822 1.5593445.9790287 1.5593445.3671357-.0623737.3671357-.7484853.2447572-1.4345969-.3059465-.1871213-1.1625966-1.6840921-1.1625966-1.7464658-.0611893 0-.1223786 0-.2447572 0 .3671358.9356067.2447572 1.3722231.1835679 1.6217182zm2.0804359-.1871213c-.0611893.561364.611893 1.6840921.6730823 1.6217183.1835678-.0623738-.1835679-2.3078299-1.1625966-2.9315677-.0611893-.0623738.5507036.8732329.4895143 1.3098494zm-7.77104 1.6840921c.6118929-.0623738.9178393-.6861116.9790286-1.434597-.4895143-.3742427-.7954608-1.122728-.9790286-1.684092-.1835679.0623737-.4895144.0623737-.6730823 0-.0611892.8732329-.3671357 1.4345969-.6730822 1.6217182.1835679.6861116.4283251 1.5593445 1.3461645 1.4969708zm5.6906041-4.3037909c-.2447572 0 .4283251.6861116.3671358.9979805.1835678.3118689.9790286 1.8712134 1.3461644 1.8712134.2447572 0 .2447572-.7484853-.4283251-1.7464658-.0611892-.0623738-.9790286-1.1227281-1.2849751-1.1227281zm-13.5840228.1871214s.1223786-.3118689-.0611893-.3742427c-.30594647 0-1.16259656 1.1851018-1.52973231 1.3722232-.06118929.1247475-.55070363 1.5593445.06118929 1.684092.55070363.0623738 1.16259655-.9979805 1.52973232-1.7464658-.1835679-.1871214-.1223786-.5613641 0-.9356067zm2.8758967-.0623738c0-.0623738 0-.3742427-.3059465-.3742427-.3671357 0-.85665 1.1851018-1.4073537 1.3722232-.1223786.6861116 0 1.6217183.5507037 1.684092.7954608.0623738 1.2849751-.9356067 1.5297323-1.684092-.3059465-.1871214-.3671358-.6237378-.3671358-.9979805zm8.6888795.9979805c.3671357.6861116.9178394 1.8088396 1.5297323 1.7464658.6118929-.1247475.1223786-1.5593445.0611893-1.684092-.3671358-.1871214-1.2237859-1.3722232-1.5297323-1.3722232-.1835679 0-.0611893.3118689-.0611893.3742427.1223786.3742426.1223786.7484853 0 .9356067zm-3.2430325 0c.2447572.6861116.6730822 1.8088396 1.5297323 1.684092.6118929-.0623737.7342715-.8732329.5507036-1.684092-.4895143-.1871214-1.1014072-1.43459697-1.4073537-1.3722232-.3059464 0-.3059464.3118689-.3059464.3742427-.0611893.3742427-.1223786.8108591-.3671358.9979805zm-2.5699503-1.3722232c-.6730822 0-.428325 1.1227281-1.1625965 1.434597.0611893.561364.2447572 1.684092 1.1014072 1.684092.9790287 0 1.1625966-1.3722231 1.1625966-1.684092-.4895143-.2494952-.4895143-1.434597-1.1014073-1.434597z" fill-rule="evenodd"/></svg>