<svg height="32" viewBox="0 0 32 32" width="32" xmlns="http://www.w3.org/2000/svg"><path d="m16 32c-8.836556 0-16-7.163444-16-16s7.163444-16 16-16 16 7.163444 16 16-7.163444 16-16 16zm5.068724-13.1094279c.0142891-1.4332972-.6068444-2.4670369-1.8442501-3.0843125-.4624067-.2306464-.9562642-.3939731-1.437232-.5841512-.7894354-.3120421-1.6298401-.5284595-2.35851-.952497-1.14379-.6655469-1.1373084-2.2472535-.0617966-3.0259433.7636561-.5528629 1.6317551-.5654854 2.511639-.52823 1.0054657.0425338 1.957237.3321614 2.9051781.6511649.5544756.1865826.8444558.0130814.9825591-.5683923.0734341-.3092116.1305905-.6228601.1881151-.93589664.0963409-.52325754.0765277-.58024977-.4263894-.73623254-.6694512-.20769652-1.3427325-.40804908-2.0241158-.56609733-.3578902-.08300211-.4682255-.24923583-.4050294-.61046714.0547257-.31257753.0707825-.63272852.1004655-.94989603.0677627-.7237631-.0097961-.8296386-.7048056-.97238693-.412174-.0846851-.5573482.01774791-.6177454.46595931-.0545047.4036886-.0889017.81028419-.1350098 1.21527329-.07174.62982154-.0979613.64083749-.706868.62286007-.2666314-.00787946-.3470628-.12538291-.3174535-.38020321.0353545-.30362708.0609865-.60855464.0896383-.91302321.0735814-.78129083-.0156885-.89994177-.7680754-1.02325919-.354502-.05813973-.5019595.04850077-.547994.42732699-.0598816.49311668-.1386189.98776336-.1453951 1.48271603-.0061871.45716185-.1910614.67120785-.5977112.82497212-1.5271649.57772529-2.5562739 1.66769221-2.8732855 3.34884831-.2810679 1.490366-.0578192 2.8874789 1.2184764 3.8314844.5683964.4204421 1.2527259.6891088 1.9108343.9567046.740823.3012555 1.5298901.4772047 2.2643051.7922302.8924052.3828042 1.1706742 1.1530026.8607335 2.1051936-.2085176.640455-.6245216 1.0879779-1.191003 1.392829-.8568298.4610633-1.7862099.522722-2.7249441.5000016-1.0407466-.0251683-2.0412775-.2608637-3.014556-.6438209-.5500563-.2164175-.8382687-.0359549-.9620093.5589828-.0725503.3487619-.1301486.7011957-.2143363 1.0468211-.06599502.2713442.0141417.4526484.2581611.5493439.4006101.1585838.7982003.3309375 1.2090485.4545609.9259183.2786882.9288645.2679782.8031352 1.2710415-.1013494.8088307-.0441194.8929038.7196103 1.0583726.3581111.0776471.5132288-.014382.5745098-.3860172.0601026-.3638323.0950888-.7325606.129854-1.1002179.0242325-.2565798.1333157-.3850992.3949386-.3981806.5803286-.0289934.6662841.0579102.5970483.6656234-.0072182.0633417-.0160568.1263774-.0241589.1895661-.0945731.7411285-.0182665.854654.6873494 1.0226472.4107009.097843.5636089-.0035955.6266576-.4492824.0535473-.3780612.0927318-.7590294.1202788-1.1400741.0219492-.3040096.1730158-.440791.4505483-.5104056.4643217-.116509.9301902-.2406679 1.3780869-.4109561 1.9103924-.7259816 3.1083926-2.4912873 3.1215032-4.5645806z" fill-rule="evenodd"/></svg>