<svg xmlns="http://www.w3.org/2000/svg" width="32" height="32"><path fill-rule="evenodd" d="M16 32C7.163 32 0 24.837 0 16S7.163 0 16 0s16 7.163 16 16-7.163 16-16 16zm8.977-13.029a1.623 1.623 0 0 0-.227-.106v-5.618c.089-.03.178-.078.267-.116.92-.505 1.256-1.65.742-2.552a1.936 1.936 0 0 0-2.82-.592l-5.044-2.862c.01-.088.02-.165.02-.253 0-1.038-.86-1.872-1.91-1.872-1.048 0-1.928.854-1.928 1.882 0 .088.01.165.02.252L9.09 9.977a1.943 1.943 0 0 0-1.906-.258 1.881 1.881 0 0 0-1.17 1.5c-.086.669.201 1.333.752 1.737.07.048.139.097.218.145.08.049.167.088.257.117v5.608c-.98.388-1.454 1.475-1.059 2.435A1.919 1.919 0 0 0 8.666 22.3c.09-.029.168-.077.248-.116a3.31 3.31 0 0 0 .237-.155l4.956 2.804c-.169 1.018.544 1.979 1.582 2.144 1.039.165 2.018-.534 2.186-1.553.02-.106.02-.203.02-.31a2.34 2.34 0 0 0-.02-.272l4.926-2.784c.08.058.159.116.248.165.92.504 2.087.184 2.601-.718a1.882 1.882 0 0 0-.673-2.533zm.347 2.348a1.482 1.482 0 0 1-1.998.515c-.554-.32-.831-.951-.683-1.562l-2.315-1.33a2.618 2.618 0 0 1-2.799.572c-.346.107-1.088.175-1.088.175v3.997a1.498 1.498 0 0 1 1.01 1.883c-.247.795-1.108 1.232-1.92.99-.01 0-.02-.01-.03-.01a1.078 1.078 0 0 1-.187-.078 1.49 1.49 0 0 1-.683-2.018c.188-.369.525-.64.92-.766v-4.075a6.925 6.925 0 0 1-.85-.32 3.116 3.116 0 0 1-2.533-.612l-2.76 1.562a1.44 1.44 0 0 1-1.088 1.736c-.789.185-1.581-.292-1.77-1.066a1.44 1.44 0 0 1 1.088-1.737c.474-.116.979.02 1.345.35l2.582-1.466a2.991 2.991 0 0 1 .336-3.9l-2.938-1.65a1.466 1.466 0 0 1-2.057-.067 1.415 1.415 0 0 1 .069-2.028 1.465 1.465 0 0 1 2.057.068c.337.349.465.834.356 1.3l3.255 1.833c.426-.224.9-.348 1.385-.359.455-.368 1.621-.746 1.621-.746V8.144a1.333 1.333 0 0 1-.91-1.67c.218-.708.98-1.096 1.702-.882.722.213 1.128.96.91 1.669-.13.429-.473.764-.91.892v4.28s2.137.523 2.81 1.309l3.461-1.93a1.438 1.438 0 0 1 1.098-1.728c.792-.174 1.583.301 1.761 1.077a1.438 1.438 0 0 1-1.098 1.727 1.493 1.493 0 0 1-1.335-.359l-3.423 1.902c.099.203.188.407.247.62 1.059.709 1.435 2.067.87 3.202l2.266 1.29a1.468 1.468 0 0 1 1.721-.184c.683.398.92 1.271.505 1.96zm-17.34-1.358a.608.608 0 0 0-.614.602c0 .332.275.601.614.601.338 0 .613-.27.613-.601a.65.65 0 0 0-.08-.301.625.625 0 0 0-.533-.3v-.001zm8.665-13.088a.608.608 0 0 0-.614-.602.608.608 0 0 0-.613.602c0 .332.275.601.613.601a.611.611 0 0 0 .614-.601zm7.478 5.22c.34 0 .614-.27.614-.602a.608.608 0 0 0-.614-.602.608.608 0 0 0-.613.602.614.614 0 0 0 .613.602zM8.27 10.937a.61.61 0 0 0-.83.223.586.586 0 0 0 .227.815.61.61 0 0 0 .83-.223.588.588 0 0 0-.227-.815zm16.104 9.14a.66.66 0 0 0-.307-.088.616.616 0 0 0-.538.298.592.592 0 0 0 0 .607.616.616 0 0 0 .538.298.639.639 0 0 0 .535-.3.588.588 0 0 0-.228-.816zm-8.952 5.015a.613.613 0 0 0 .584.67c.309 0 .575-.216.633-.514a.6.6 0 0 0-.515-.674.608.608 0 0 0-.692.499.034.034 0 0 0-.01.02zm3.522-9.285l-.03-.223a1.188 1.188 0 0 0-.04-.155c0-.02-.01-.039-.01-.058-.02-.058-.04-.126-.059-.185v-.01a2.566 2.566 0 0 0-.742-1.037l-.01-.01c-.059-.049-.118-.097-.188-.136l-.01-.01c-.059-.038-.128-.087-.187-.116l-.01-.01a1.859 1.859 0 0 0-.198-.097l-.02-.01a4.98 4.98 0 0 0-.217-.087l-.01-.01c-.08-.019-.149-.048-.228-.058h-.01a2.016 2.016 0 0 0-.237-.038h-.01a2.489 2.489 0 0 0-1.246.145l-.05.039c-.06.02-.158.068-.217.097a.466.466 0 0 1-.1.048c-.029.01-.078.049-.108.068l-.139.097-.03.02c-.059.039-.108.087-.168.136l-.049.048c-.06.058-.109.107-.158.165a2.204 2.204 0 0 0-.356-.029c-.04 0-.07 0-.1.01a1.977 1.977 0 0 0-1.64 1.028l-.011.02c-.03.056-.057.115-.08.175-.01.019-.01.029-.02.048a.94.94 0 0 0-.049.155c-.01.02-.01.049-.02.068l-.029.155c0 .02-.01.04-.01.068a1.685 1.685 0 0 0-.01.223c-.001.062.002.124.01.185 0 .02.01.039.01.068.01.039.01.077.02.116.01.039.01.049.02.078a.279.279 0 0 1 .02.087c0 .03.019.058.029.087a.468.468 0 0 0 .03.068.995.995 0 0 1 .04.097c.01.02.019.03.019.049.139.32.374.59.673.776.148.087.297.165.455.213.061.021.124.037.188.049l.02.01.178.029.04.01c.068.01.138.01.217.01.267 0 .524-.05.761-.156.06.039.11.078.169.116l.02.01c.049.03.108.058.168.087h.01a2.595 2.595 0 0 0 1.83.185h.01c.088-.02.174-.049.256-.088l.267-.116c.255.195.568.3.89.3.07 0 .13-.01.198-.01l.05-.009c.063-.009.126-.022.188-.039.06-.018.12-.04.178-.067l.03-.01c.059-.03.108-.058.168-.087.247-.156.435-.389.544-.65.04-.088.06-.175.079-.262v-.03c.01-.038.01-.077.02-.116 0-.048.01-.097.01-.146 0-.64-.406-1.193-1.01-1.377z"/></svg>