<svg height="32" viewBox="0 0 32 32" width="32" xmlns="http://www.w3.org/2000/svg"><g fill="none"><circle cx="16" cy="16" fill="#000" r="16"/><path d="m.15476191.03571429c1.07142857 0 2.17857142-.07142858 3.24999999.02380952.47619048.53571429.58333334 1.28571429.95238096 1.9047619 4.80952381.02380953 9.64285714 0 14.45238094 0 .3571429.02380953.7976191.03571429.9761905.39285715.2142857.39285714.0595238.85714285-.1428572 1.21428571-.9761904 1.65476191-1.9047619 3.33333333-2.8571428 5-.3571429.5952381-.5952381 1.26190476-1.1309524 1.72619043-.4404762.3690477-1.047619.3928572-1.6071429.3928572h-6.66666662c-.35714286 0-.73809524-.0357143-.95238095-.3214286-.69047619-.7738095-1.05952381-1.76190474-1.51190476-2.66666665-.78571429-1.57142857-1.54761905-3.14285714-2.29761905-4.72619047-.15476191-.35714286-.3452381-.67857143-.52380952-1.01190477-.63095239 0-1.26190477 0-1.88095239-.02380952-.11904761-.63095238-.11904761-1.27380952-.0595238-1.9047619zm7.51190476 11.94047621c.47619047-.1190476.98809523-.1190476 1.47619047-.0238095.54761905.1190476 1.02380956.5357142 1.15476186 1.0833333.1428572.6309524.1428572 1.3095238-.1071428 1.9166667-.23809525.547619-.83333334.8095238-1.39285715.8571428-.64285715.0476191-1.38095238 0-1.85714286-.4761905-.51190476-.5714285-.51190476-1.4047619-.4047619-2.1190476.07142857-.5952381.54761904-1.1071428 1.13095238-1.2380952zm5.95238093 0c.5952381-.1309524 1.2380953-.1190476 1.8095238.0952381.5476191.2261904.8333334.8214285.8809524 1.3809524.0714286.6547619 0 1.4047619-.4761905 1.9047619-.4404762.4166666-1.0833333.4761904-1.6666666.4642857-.5714286-.0238096-1.1904762-.2380953-1.4880953-.7738096-.2857143-.5833333-.3571428-1.2380952-.2142857-1.8690476.1190476-.5833333.5714286-1.0714285 1.1547619-1.2023809z" fill="#fff" transform="translate(5 9)"/></g></svg>