<svg height="32" viewBox="0 0 32 32" width="32" xmlns="http://www.w3.org/2000/svg"><path d="m16 32c-8.836556 0-16-7.163444-16-16s7.163444-16 16-16 16 7.163444 16 16-7.163444 16-16 16zm2.0614472-22.91639522h-4.0726182c-3.0114422 3.36282572-4.47469044 4.74480182-6.988829 6.81590662l10.8100525 2.3383143-1.8603287 2.0895494c-2.4824999-1.4698154-4.1822356-1.6583604-7.24022368-1.9402958 2.29724878 1.0587133 3.49047858 1.9089033 5.27932888 4.5274158h4.0726182c2.1143153-2.6278773 3.5721327-4.1522937 6.9385528-7.0149837l-10.7597763-2.3880565 1.7095001-1.990038c2.7090171 1.4218377 4.3313362 1.6252715 7.2061303 1.9857628-.8265538-.2270766-1.6908215-.8573833-5.0944069-4.42357492zm-3.8217309-.49653909h3.5698288c-.8907498-1.11224213-1.2698098-1.67555646-1.7597763-2.58706569-.4987862.88545331-.8793424 1.44244028-1.8100525 2.58706569zm3.5698013 14.82586861h-3.5698288c.8907498 1.1122421 1.2698098 1.6755565 1.7597763 2.5870657.4987862-.8854533.8793424-1.4424403 1.8100525-2.5870657z"/></svg>