<svg width="32" height="32" viewBox="0 0 32 32" fill="none" xmlns="http://www.w3.org/2000/svg">
<mask id="mask0" mask-type="alpha" maskUnits="userSpaceOnUse" x="0" y="0" width="32" height="32">
<path d="M16 32C24.8366 32 32 24.8366 32 16C32 7.16344 24.8366 0 16 0C7.16344 0 0 7.16344 0 16C0 24.8366 7.16344 32 16 32Z" fill="url(#paint0_linear)"/>
</mask>
<g mask="url(#mask0)">
<path d="M16 32C24.8366 32 32 24.8366 32 16C32 7.16344 24.8366 0 16 0C7.16344 0 0 7.16344 0 16C0 24.8366 7.16344 32 16 32Z" fill="black"/>
<path d="M16 29.8667C23.6583 29.8667 29.8667 23.6583 29.8667 16C29.8667 8.34165 23.6583 2.13333 16 2.13333C8.34165 2.13333 2.13333 8.34165 2.13333 16C2.13333 23.6583 8.34165 29.8667 16 29.8667Z" fill="white"/>
<path d="M16 28.2667C22.7747 28.2667 28.2667 22.7747 28.2667 16C28.2667 9.22531 22.7747 3.73334 16 3.73334C9.22531 3.73334 3.73334 9.22531 3.73334 16C3.73334 22.7747 9.22531 28.2667 16 28.2667Z" fill="#0E052F"/>
<path d="M15.5893 21.536C15.056 21.4933 14.5547 21.376 14.0853 21.184C13.616 20.9813 13.2107 20.72 12.8693 20.4C12.528 20.08 12.256 19.712 12.0533 19.296C11.8507 18.88 11.744 18.4267 11.7333 17.936H13.7013C13.7227 18.4587 13.904 18.896 14.2453 19.248C14.5973 19.5893 15.0453 19.7867 15.5893 19.84V16.672L14.8373 16.56C13.9733 16.4427 13.2853 16.1173 12.7733 15.584C12.272 15.0507 12.0213 14.3733 12.0213 13.552C12.0213 13.1253 12.1173 12.7253 12.3093 12.352C12.5013 11.968 12.7627 11.632 13.0933 11.344C13.424 11.0453 13.8027 10.8053 14.2293 10.624C14.6667 10.4427 15.12 10.3307 15.5893 10.288V8.8H16.7573V10.32C17.2373 10.384 17.68 10.512 18.0853 10.704C18.4907 10.8853 18.8427 11.12 19.1413 11.408C19.44 11.696 19.6747 12.0267 19.8453 12.4C20.0267 12.7733 20.128 13.1733 20.1493 13.6H18.1813C18.16 13.216 18.016 12.8853 17.7493 12.608C17.4933 12.32 17.1627 12.1227 16.7573 12.016V14.944L17.3013 15.024C17.7067 15.088 18.0907 15.2 18.4533 15.36C18.816 15.52 19.1307 15.728 19.3973 15.984C19.6747 16.24 19.888 16.5493 20.0373 16.912C20.1973 17.264 20.2773 17.664 20.2773 18.112C20.2773 18.592 20.1867 19.0293 20.0053 19.424C19.8347 19.808 19.5893 20.1493 19.2693 20.448C18.96 20.736 18.5867 20.976 18.1493 21.168C17.7227 21.3493 17.2587 21.4667 16.7573 21.52V23.168H15.5893V21.536ZM16.7573 19.824C17.2587 19.7387 17.648 19.5573 17.9253 19.28C18.2027 18.992 18.3413 18.6293 18.3413 18.192C18.3413 17.7867 18.208 17.488 17.9413 17.296C17.6747 17.0933 17.3707 16.96 17.0293 16.896L16.7573 16.848V19.824ZM15.5893 11.968C15.1413 12.032 14.7573 12.1973 14.4373 12.464C14.128 12.72 13.9733 13.0667 13.9733 13.504C13.9733 13.8773 14.0747 14.16 14.2773 14.352C14.4907 14.5333 14.768 14.6507 15.1093 14.704L15.5893 14.784V11.968Z" fill="white"/>
</g>
<defs>
<linearGradient id="paint0_linear" x1="16" y1="0" x2="16" y2="46.7879" gradientUnits="userSpaceOnUse">
<stop stop-color="#08021E"/>
<stop offset="1" stop-color="#1F0777"/>
</linearGradient>
</defs>
</svg>
