<svg height="32" viewBox="0 0 32 32" width="32" xmlns="http://www.w3.org/2000/svg"><path d="m13.147 15.4341c.015.031.013.067-.003.098-.032.055-.101.075-.157.047-7.537-3.92 6.841-8.485 14.764-3.14.096.055.18.109.249.163-.081-.058-.166-.107-.249-.163-2.94-1.676-17.604-3.343-14.604 2.995m8.326 5.319c4.158-1.89.776-8.361-4.725-7.112-.061.014-.123-.024-.139-.085-.009-.041.007-.084.041-.11 4.28-3.216 12.314 4.292 4.823 7.307m-17.473-2.742c12.101 7.743 18.334.467 13.955-2.711-.002-.001-.004-.003-.006-.004-.047-.037-.054-.106-.017-.152.027-.034.072-.05.114-.041 10.501 1.898-3.786 12.563-14.046 2.908m8.2-7.156h.001.001s-.001 0-.002 0c-6.619 4.54.744 6.599 2.081 6.164.021-.006.043-.006.064-.002.002.001.004.002.007.002.058.016.092.078.076.136-.903 3.463-11.31-3.392-2.228-6.3m3.8-10.855c-8.836 0-16 7.163-16 16 0 8.836 7.164 16 16 16s16-7.164 16-16c0-8.837-7.164-16-16-16"/></svg>