<svg height="32" viewBox="0 0 32 32" width="32" xmlns="http://www.w3.org/2000/svg"><path d="m16 32c-8.836556 0-16-7.163444-16-16s7.163444-16 16-16 16 7.163444 16 16-7.163444 16-16 16zm-7.90591806-18.3216995-2.09408194 2.1092564h4.2033384zm2.10925646 2.5493171h-4.2033384l2.09408194 2.0940819zm2.8528073-2.8528073-2.1092565-2.1092564v4.2033384zm-2.5493172 2.094082v-4.2033384l-2.09408191 2.1092564zm2.8528073-2.4127466 2.1092565-2.094082h-4.2033384zm0-4.64339911-2.0940819 2.10925641h4.2033384zm4.9620637-.30349014-2.1092564-2.10925645v4.2033384zm-2.5493171 2.09408195v-4.2033384l-2.0940819 2.10925645zm-2.7162367 8.4370258-2.1092565-2.1092565v4.2033384zm-4.64339911 0 2.09408191 2.0940819v-4.2033384zm10.21244311-5.5842185 2.1092564-2.094082h-4.2033384zm-2.094082-2.5341427h4.2033384l-2.1092564-2.10925641zm-1.0622154 10.9711685h-4.2033384l2.0940819 2.0940819zm-2.1092565-2.5493172-2.0940819 2.1092565h4.2033384zm10.2276176-5.569044-2.1092564-2.1092564v4.2033384zm-4.6433991 0 2.094082 2.094082v-4.2033384zm-5.2655538 10.5311078 2.0940819 2.0940819v-4.2033384zm2.5341426-2.1092565v4.2033384l2.1092564-2.0940819zm2.4127466 1.7905918 2.1092564-2.0940819h-4.2033384zm0-4.6433991-2.094082 2.1092565h4.2033384zm2.8528073-2.4127466v4.2033384l2.1092564-2.0940819zm-2.5341427 2.1092565 2.094082 2.0940819v-4.2033384zm4.9468893-.3186647 2.1092564-2.0940819h-4.2033384zm0-4.643399-2.094082 2.1092564h4.2033384z" fill-rule="evenodd"/></svg>