<?xml version="1.0" encoding="UTF-8"?>
<svg width="32px" height="32px" viewBox="0 0 32 32" version="1.1" xmlns="http://www.w3.org/2000/svg" xmlns:xlink="http://www.w3.org/1999/xlink">
    <!-- Generator: Sketch 52.5 (67469) - http://www.bohemiancoding.com/sketch -->
    <title>svg/black/tbx</title>
    <desc>Created with Sketch.</desc>
    <g id="black/tbx" stroke="none" stroke-width="1" fill="none" fill-rule="evenodd">
        <path d="M16,32 C7.163444,32 0,24.836556 0,16 C0,7.163444 7.163444,0 16,0 C24.836556,0 32,7.163444 32,16 C32,24.836556 24.836556,32 16,32 Z M15.7,27.4 C22.1617316,27.4 27.4,22.1617316 27.4,15.7 C27.4,9.23826843 22.1617316,4 15.7,4 C9.23826843,4 4,9.23826843 4,15.7 C4,22.1617316 9.23826843,27.4 15.7,27.4 Z M18.59,19.7 L20.94,15.7 L18.32,11.22 L13.08,11.22 L10.46,15.7 L12.81,19.7 L15.7,15.7 L18.59,19.7 Z M19.45,9.3 L23.19,15.7 L19.45,22.1 L11.96,22.1 L8.21,15.7 L11.95,9.3 L19.45,9.3 Z" id="Combined-Shape" fill="#000000" fill-rule="nonzero"></path>
    </g>
</svg>