<svg width="32" height="32" viewBox="0 0 32 32" fill="none" xmlns="http://www.w3.org/2000/svg">
<path d="M16 32C24.8366 32 32 24.8366 32 16C32 7.16344 24.8366 0 16 0C7.16344 0 0 7.16344 0 16C0 24.8366 7.16344 32 16 32Z" fill="black"/>
<path d="M24.147 11.1811L17.9706 15.0207C16.8039 15.7887 16.049 17.1151 16.049 18.5113V25.8415C16.049 26.749 17.0098 27.3075 17.7647 26.8189L19.3431 25.8415C20.3726 25.2132 20.9902 24.0962 20.9902 22.9094V21.2339C20.9902 19.8377 21.6764 18.5113 22.9117 17.8132L24.4215 16.9056C25.3823 16.2773 26 15.2302 26 14.0434V12.1585C25.8627 11.251 24.902 10.6925 24.147 11.1811ZM6.9902 11.3906L12.8235 15.0207C14.0588 15.7887 14.8138 17.1849 14.8138 18.6509V25.5623C14.8138 26.6094 13.7157 27.2377 12.8235 26.6792L11.6569 25.9811C10.6274 25.3528 9.94117 24.166 9.94117 22.9094V21.4434C9.94117 19.9773 9.18627 18.5811 7.95098 17.8132L6.64706 16.9755C5.61765 16.3472 5 15.1604 5 13.9736V12.5076C5 11.4604 6.09803 10.8321 6.9902 11.3906Z" fill="white"/>
<path d="M24.4334 7.54049C24.9425 7.82057 25.1606 8.52079 24.8697 9.01095C24.797 9.15099 24.6516 9.29103 24.4334 9.43108L16.9437 13.6324C15.9984 14.1225 14.8349 14.1225 13.9624 13.6324L6.54537 9.36106C5.81821 8.94092 5.81821 7.8906 6.54537 7.47046L8.36326 6.49015C9.52671 5.92998 10.8356 5.92998 11.9263 6.49015L13.5261 7.33041C14.7623 8.03063 16.2893 8.03063 17.5982 7.33041L19.2706 6.42013C20.2886 5.85996 21.5248 5.85996 22.6155 6.42013C22.5429 6.49015 24.4334 7.54049 24.4334 7.54049Z" fill="white"/>
</svg>
