<svg width="33" height="32" viewBox="0 0 33 32" fill="none" xmlns="http://www.w3.org/2000/svg">
<g clip-path="url(#clip0)">
<path d="M16.3334 0C25.1686 0 32.3334 7.1648 32.3334 16C32.3334 24.8352 25.1686 32 16.3334 32C7.49817 32 0.333374 24.8352 0.333374 16C0.333374 7.1648 7.49817 0 16.3334 0Z" fill="black"/>
<path d="M22.4774 11.104C22.2758 11.344 22.2886 11.8752 21.9654 11.712C21.9654 11.712 19.7158 10.8512 21.1014 8.31997C21.4758 7.73437 21.863 7.69597 21.8054 6.27197C22.151 6.79677 23.2838 7.84957 23.3734 9.50397C23.463 10.608 22.8038 10.7552 22.4774 11.104Z" fill="white"/>
<path d="M20.6854 15.04C21.239 14.8544 22.135 14.56 22.1894 12.672C23.0438 13.9808 25.943 15.8176 24.5574 21.44C23.9942 23.632 21.895 24.6976 19.9174 25.504C18.6822 26.0288 17.4214 26.9056 16.9094 28.224C16.9094 28.224 7.56218 27.0432 7.85338 17.76C8.08698 12.944 12.599 11.104 14.5094 7.58399C15.527 5.36319 15.1814 3.13599 15.1814 3.13599C15.1814 3.13599 21.1334 6.83839 18.4454 12.544C17.5718 14.56 19.6582 15.2416 20.6854 15.04Z" fill="white"/>
<path d="M11.5014 16.704V19.808H14.7974V23.104H17.9014V19.808H21.1974V16.704H11.5014Z" fill="black"/>
</g>
<defs>
<clipPath id="clip0">
<rect width="32" height="32" fill="white" transform="translate(0.333374)"/>
</clipPath>
</defs>
</svg>
