<svg xmlns="http://www.w3.org/2000/svg" width="32" height="32" viewBox="0 0 32 32">
  <path d="M16,32 C7.163444,32 0,24.836556 0,16 C0,7.163444 7.163444,0 16,0 C24.836556,0 32,7.163444 32,16 C32,24.836556 24.836556,32 16,32 Z M13.0917431,7.91273446 L13.0550459,7.91273446 L13.0550459,20.6522678 C13.0550459,26.3904711 20.1743119,26.7513644 22.7798165,25.2356126 L21.7155963,22.0597516 C20.5412844,22.6732702 17.4220183,22.4567342 17.4220183,20.6161784 L17.4220183,14.5531711 L23,14.5531711 L23,11.0525061 L17.4587156,11.0525061 L17.4954128,6 L13.0917431,7.91273446 Z M8.98165138,15.4914936 C10.0760872,15.4914936 10.9633028,14.4250826 10.9633028,13.1095979 C10.9633028,11.7941132 10.0760872,10.7277022 8.98165138,10.7277022 C7.88721554,10.7277022 7,11.7941132 7,13.1095979 C7,14.4250826 7.88721554,15.4914936 8.98165138,15.4914936 Z"/>
</svg>
