<svg height="32" viewBox="0 0 32 32" width="32" xmlns="http://www.w3.org/2000/svg"><path d="m16 32c-8.836556 0-16-7.163444-16-16s7.163444-16 16-16 16 7.163444 16 16-7.163444 16-16 16zm-.4022442-20.1428571.0755115-.3571429h-5.0825082-1.59735976-.65346535l-2.17821782 9h2.39603961l1.64600662-7.2857143h2.9318812l-1.7462047 7.2857143h2.1782179l1.7135313-7.2857143h.0290429l.259934-1.2278571.0304951-.1292857zm4.1415181-.3571429-2.1782178 8.9286523 4.5669967-.0000809c.5499738.0030224 1.0970379-.0786812 1.6213201-.2421428.8669307-.2757143 1.9219142-.8528572 2.0889109-2.0435715h.6534654l.2178218-.8571428h-.7986799s.0726072-1.2857143-1.5973597-1.5c0 0 1.4521452-.4285714 1.6699669-1.2142857h.7260727l.290429-.8571429h-.7986799s.2904291-2.0714286-2.8316831-2.2142857zm-12.41584156 1.7142857.43564357-1.7142857h-2.32343235l-.43564356 1.7142857zm9.94719476 6.2857143.7986798-3.6428571-1.8877887-4.2142858-.7986799 3.4285715zm5.5544554-4.4285714-1.8514851.0000002.4356435-1.9285717h1.4158416c.2600238-.0001897.509453.1013435.6933176.2822233s.2870733.4262599.2868804.6820625c.0001929.2558025-.1030158.5011826-.2868804.6820624s-.4332938.282413-.6933176.2822233zm-.4886469 3.7142857h-2.2261386l.5234984-2.2142857h1.7026402c.6534654 0 1.1784159.4957143 1.1784159 1.1071428 0 .6114286-.5278548 1.1071429-1.1784159 1.1071429z" fill-rule="evenodd"/></svg>