<svg height="32" viewBox="0 0 32 32" width="32" xmlns="http://www.w3.org/2000/svg"><path d="m16 32c-8.836556 0-16-7.163444-16-16s7.163444-16 16-16 16 7.163444 16 16-7.163444 16-16 16zm-2.109375-10.4974131.15625 3.4974131s1.875-.3179466 3.828125 0l.15625-3.4974131zm-2.265625-2.7025464s5.46875-.47692 8.671875 0l.3125-3.8153598c-3.0424626-.2359386-6.0981624-.2359386-9.140625 0zm14.375-9.85634597s-10.46875-2.22562651-20 .15897332l.703125 4.37176635.859375-1.6692199s8.984375-1.3512732 17.03125 0l.78125 1.6692199z"/></svg>