<svg height="32" viewBox="0 0 32 32" width="32" xmlns="http://www.w3.org/2000/svg"><g fill="none"><circle cx="16" cy="16" fill="#000" r="16"/><g fill="#fff" transform="translate(5 4)"><path d="m12.0571128 15.0279241v-5.85932558h.7708113c2.5442571 0 3.1713383-2.37386722 3.1713383-2.37386722h-6.68345629c-3.17133825 0-3.70916754 2.37386722-3.70916754 2.37386722h3.94214963v8.81738668s2.5083246-.7534246 2.5083246-2.9580611z"/><path d="m19.3954689 19.5936776c2.2475237-2.3356165 3.1099052-5.579979 2.300843-8.6829294-.413804-1.60421501-1.2761855-3.08440468-2.4805058-4.2794521-.1077977-.10663857-.2155954-.21443625-.3419389-.32107481l-.1077977-.10663857c-.0718651-.07186512-.162276-.14257113-.2341412-.19589041l-.1437302-.10663857c-.0718651-.05331928-.1437302-.10663857-.2155954-.15995785l-.1263435-.08925184c-.1077977-.07186512-.1796628-.12518441-.2515279-.17850369l-.1622761-.10663857c-.0718651-.05331928-.1437302-.08925184-.2155953-.1251844l-.1622761-.10663857c-.0718651-.03593256-.1437303-.08925184-.2155954-.1251844l-.1622761-.08925185c-.0718651-.03593256-.1437302-.07186512-.2341412-.10663857l-.0544784-.01738672c.1982087.15995785.3952582.33846154.574921.51696523 3.451844 3.42286617 3.451844 9.00400419 0 12.42687039-4.3860906 4.3501581-11.50537408 4.3501581-15.89262382 0-.16227608-.1599579-.30600632-.3210748-.46712328-.4810327l-.12634352-.1425711c-.09041096-.1066386-.17966281-.2144362-.27007376-.3384615.55753424 1.1057955 1.29473129 2.1037934 2.17565858 2.9951528 4.58429927 4.5460484 12.0269758 4.5460484 16.611275 0 .0938883-.0544784.1483667-.1077977.201686-.1796628z"/><path d="m5.40031612 18.3858799c-.19820864-.161117-.39641728-.3396207-.57608008-.5169653-3.45532139-3.4263435-3.45532139-9.01211797 0-12.43846149 4.39072708-4.35479452 11.51580606-4.35479452 15.90653316 0 .3060064.30368809.5934668.62476291.8635406.96322445-.5575342-1.08840886-1.2958904-2.1061117-2.1768177-2.9800843-4.5889357-4.55068494-12.03856692-4.55068494-16.62634352 0-.0544784.05331928-.10779768.1251844-.17966281.17850368-3.04151738 3.17713383-3.45532139 7.92370916-1.02581664 11.52855636.95395152 1.3909378 2.28461538 2.5512118 3.81464699 3.2652266z"/></g></g></svg>