<svg width="32" height="32" viewBox="0 0 32 32" fill="none" xmlns="http://www.w3.org/2000/svg">
<path d="M16 32C24.8366 32 32 24.8366 32 16C32 7.16344 24.8366 0 16 0C7.16344 0 0 7.16344 0 16C0 24.8366 7.16344 32 16 32Z" fill="black"/>
<path d="M13.065 7.58102C12.78 7.53702 12.768 7.53102 12.902 7.51102C13.159 7.47102 13.767 7.52602 14.186 7.62502C15.163 7.85802 16.052 8.45302 17.002 9.51002L17.254 9.79002L17.614 9.73302C19.134 9.48802 20.681 9.68302 21.974 10.28C22.33 10.444 22.891 10.771 22.961 10.856C22.984 10.882 23.025 11.055 23.052 11.239C23.148 11.876 23.1 12.364 22.906 12.729C22.8 12.927 22.794 12.989 22.865 13.159C22.8987 13.2292 22.9514 13.2886 23.0172 13.3303C23.083 13.372 23.1591 13.3944 23.237 13.395C23.559 13.395 23.905 12.875 24.065 12.152L24.129 11.865L24.255 12.008C24.947 12.792 25.49 13.861 25.583 14.621L25.608 14.82L25.491 14.64C25.291 14.33 25.091 14.118 24.833 13.947C24.369 13.64 23.878 13.536 22.578 13.467C21.404 13.405 20.739 13.305 20.081 13.09C18.96 12.725 18.395 12.238 17.063 10.491C16.472 9.71502 16.106 9.28602 15.743 8.94102C14.916 8.15502 14.104 7.74302 13.065 7.58102Z" fill="white"/>
<path d="M23.226 9.31399C23.256 8.79399 23.326 8.45099 23.468 8.13799C23.524 8.01399 23.577 7.91199 23.585 7.91199C23.5761 7.98218 23.5576 8.05083 23.53 8.11599C23.427 8.41999 23.41 8.83599 23.481 9.31899C23.571 9.93299 23.623 10.021 24.271 10.684C24.576 10.995 24.93 11.387 25.058 11.556L25.291 11.862L25.058 11.643C24.773 11.376 24.117 10.853 23.972 10.779C23.875 10.729 23.86 10.73 23.8 10.789C23.745 10.845 23.733 10.927 23.726 11.318C23.714 11.926 23.631 12.318 23.43 12.708C23.322 12.918 23.305 12.874 23.403 12.635C23.476 12.457 23.483 12.379 23.483 11.79C23.483 10.606 23.342 10.322 22.517 9.83399C22.2688 9.68994 22.0138 9.55779 21.753 9.43799C21.6242 9.3863 21.4992 9.32548 21.379 9.25599C21.402 9.23299 22.206 9.46699 22.529 9.59199C23.011 9.77699 23.09 9.80099 23.149 9.77799C23.188 9.76299 23.207 9.64899 23.226 9.31399ZM13.619 11.339C13.04 10.542 12.682 9.31899 12.759 8.40499L12.783 8.12199L12.915 8.14599C13.163 8.19099 13.59 8.34999 13.79 8.47199C14.338 8.80499 14.576 9.24399 14.817 10.37C14.888 10.7 14.981 11.073 15.024 11.2C15.092 11.403 15.352 11.878 15.564 12.187C15.716 12.409 15.614 12.514 15.278 12.484C14.764 12.437 14.068 11.957 13.619 11.339ZM22.524 17.274C19.817 16.184 18.864 15.238 18.864 13.642C18.864 13.407 18.872 13.215 18.881 13.215C18.891 13.215 18.996 13.292 19.114 13.387C19.663 13.827 20.278 14.015 21.979 14.263C22.98 14.41 23.544 14.528 24.064 14.7C25.716 15.248 26.738 16.36 26.982 17.874C27.052 18.314 27.011 19.139 26.896 19.574C26.806 19.918 26.529 20.537 26.456 20.561C26.436 20.567 26.416 20.49 26.41 20.383C26.382 19.815 26.095 19.261 25.612 18.846C25.063 18.375 24.326 17.999 22.523 17.274H22.524ZM20.624 17.726C20.592 17.5328 20.5483 17.3418 20.493 17.154L20.423 16.948L20.552 17.092C20.729 17.292 20.87 17.546 20.988 17.886C21.079 18.145 21.089 18.222 21.088 18.643C21.088 19.057 21.077 19.143 20.993 19.377C20.8762 19.7201 20.6806 20.0311 20.422 20.285C19.927 20.789 19.292 21.067 18.374 21.183C18.214 21.203 17.75 21.237 17.341 21.258C16.311 21.312 15.634 21.422 15.025 21.636C14.9701 21.6606 14.9111 21.6748 14.851 21.678C14.827 21.653 15.241 21.406 15.584 21.241C16.067 21.008 16.547 20.881 17.624 20.702C18.156 20.613 18.706 20.506 18.845 20.463C20.163 20.059 20.84 19.017 20.623 17.726H20.624Z" fill="white"/>
<path d="M21.864 19.93C21.504 19.157 21.422 18.41 21.619 17.714C21.64 17.64 21.674 17.579 21.694 17.579C21.7617 17.6035 21.8254 17.6378 21.883 17.681C22.049 17.793 22.381 17.981 23.266 18.463C24.371 19.066 25.001 19.533 25.43 20.065C25.805 20.532 26.037 21.064 26.149 21.712C26.212 22.079 26.175 22.962 26.081 23.332C25.784 24.498 25.093 25.414 24.109 25.948C24.0161 26.0017 23.9199 26.0495 23.821 26.091C23.807 26.091 23.859 25.958 23.938 25.794C24.268 25.102 24.307 24.428 24.056 23.678C23.903 23.219 23.59 22.658 22.959 21.712C22.225 20.612 22.045 20.318 21.864 19.93ZM11.697 24.101C12.702 23.253 13.951 22.651 15.09 22.466C15.58 22.386 16.398 22.418 16.852 22.534C17.58 22.72 18.232 23.138 18.571 23.635C18.901 24.121 19.044 24.545 19.191 25.487C19.251 25.859 19.314 26.232 19.333 26.317C19.443 26.805 19.66 27.196 19.928 27.392C20.353 27.703 21.086 27.722 21.806 27.442C21.8812 27.4075 21.9605 27.3826 22.042 27.368C22.068 27.394 21.706 27.637 21.45 27.765C21.1479 27.9266 20.8096 28.0086 20.467 28.003C19.807 28.003 19.259 27.668 18.802 26.983C18.712 26.848 18.51 26.445 18.352 26.086C17.87 24.986 17.632 24.65 17.072 24.283C16.583 23.963 15.954 23.906 15.481 24.138C14.859 24.443 14.686 25.238 15.131 25.741C15.308 25.941 15.638 26.114 15.908 26.147C16.0258 26.1626 16.1455 26.1527 16.2592 26.1181C16.3728 26.0834 16.4777 26.0247 16.5667 25.9461C16.6557 25.8674 16.7268 25.7705 16.7752 25.662C16.8235 25.5534 16.848 25.4358 16.847 25.317C16.847 24.985 16.719 24.797 16.399 24.652C15.962 24.455 15.492 24.685 15.494 25.096C15.495 25.271 15.571 25.381 15.747 25.461C15.86 25.511 15.862 25.516 15.77 25.497C15.369 25.413 15.275 24.93 15.598 24.609C15.985 24.223 16.786 24.393 17.061 24.919C17.177 25.14 17.19 25.581 17.089 25.847C16.864 26.442 16.206 26.754 15.539 26.584C15.085 26.468 14.9 26.343 14.353 25.779C13.402 24.799 13.033 24.609 11.661 24.395L11.398 24.354L11.698 24.101H11.697Z" fill="white"/>
<path fill-rule="evenodd" clip-rule="evenodd" d="M7 5.164L7.096 5.281C10.804 9.821 12.72 12.177 12.842 12.345C13.042 12.623 12.967 12.872 12.623 13.068C12.432 13.177 12.038 13.287 11.842 13.287C11.619 13.287 11.368 13.18 11.185 13.007C11.056 12.884 10.535 12.106 9.332 10.239C8.76865 9.3566 8.19797 8.4789 7.62 7.606C7.571 7.56 7.572 7.561 9.238 10.542C10.284 12.414 10.638 13.075 10.638 13.164C10.638 13.344 10.588 13.438 10.366 13.686C9.996 14.099 9.831 14.563 9.711 15.523C9.577 16.6 9.201 17.36 8.157 18.661C7.547 19.423 7.447 19.563 7.292 19.87C7.098 20.256 7.045 20.473 7.023 20.961C7 21.477 7.045 21.811 7.203 22.304C7.341 22.736 7.485 23.022 7.853 23.592C8.171 24.085 8.354 24.451 8.354 24.594C8.354 24.708 8.376 24.708 8.869 24.597C10.048 24.331 11.005 23.862 11.544 23.288C11.877 22.933 11.955 22.737 11.958 22.25C11.959 21.932 11.948 21.865 11.862 21.682C11.722 21.384 11.467 21.136 10.905 20.752C10.168 20.248 9.854 19.842 9.767 19.285C9.695 18.828 9.778 18.505 10.186 17.651C10.607 16.767 10.712 16.391 10.783 15.5C10.828 14.924 10.891 14.697 11.057 14.515C11.229 14.325 11.385 14.26 11.812 14.202C12.508 14.107 12.951 13.927 13.315 13.592C13.631 13.3 13.763 13.019 13.783 12.597L13.799 12.277L13.622 12.071C13.368 11.775 11.267 9.457 7.318 5.115L7.212 5L7 5.165V5.164ZM8.714 21.546C8.78377 21.4225 8.8046 21.2773 8.77238 21.1391C8.74015 21.0009 8.65722 20.8799 8.54 20.8C8.312 20.648 7.957 20.72 7.957 20.918C7.957 20.978 7.99 21.022 8.065 21.061C8.192 21.126 8.201 21.2 8.102 21.349C8.001 21.501 8.009 21.635 8.125 21.726C8.311 21.872 8.575 21.791 8.715 21.546H8.714ZM14.238 14.37C13.911 14.47 13.594 14.817 13.495 15.18C13.435 15.401 13.469 15.79 13.559 15.91C13.704 16.104 13.845 16.155 14.225 16.152C14.969 16.147 15.615 15.828 15.691 15.429C15.753 15.102 15.468 14.649 15.077 14.449C14.875 14.347 14.446 14.306 14.238 14.37ZM15.108 15.05C15.223 14.887 15.172 14.71 14.978 14.592C14.606 14.365 14.044 14.552 14.044 14.904C14.044 15.078 14.337 15.269 14.605 15.269C14.785 15.269 15.029 15.162 15.108 15.05Z" fill="white"/>
</svg>
