<svg width="32" height="32" viewBox="0 0 32 32" fill="none" xmlns="http://www.w3.org/2000/svg">
<g clip-path="url(#clip0)">
<g opacity="0.98">
<path opacity="0.98" d="M16 32C12.8355 32 9.74207 31.0616 7.11088 29.3035C4.4797 27.5454 2.42894 25.0466 1.21793 22.1229C0.0069325 19.1993 -0.309921 15.9823 0.307443 12.8786C0.924806 9.77487 2.44866 6.92394 4.6863 4.6863C6.92394 2.44866 9.77487 0.924806 12.8786 0.307443C15.9823 -0.309921 19.1993 0.0069325 22.1229 1.21793C25.0466 2.42894 27.5454 4.4797 29.3035 7.11088C31.0616 9.74207 32 12.8355 32 16C32 20.2435 30.3143 24.3131 27.3137 27.3137C24.3131 30.3143 20.2435 32 16 32Z" fill="black"/>
</g>
<path d="M5.87805 11.0812C5.87805 11.0812 8.05542 7.08174 10.9662 6.15349C13.877 5.22525 13.4645 8.13604 10.9662 9.31641C8.46797 10.4968 6.89798 11.1729 5.87805 11.0812Z" fill="white"/>
<path d="M5.46545 12.3189C5.46545 12.3189 2.11918 21.7045 11.287 25.979C11.287 25.979 11.9976 22.2316 10.7026 19.8595C9.74178 17.9616 8.58162 16.1714 7.24172 14.5192C6.60258 13.825 6.00924 13.09 5.46545 12.3189Z" fill="white"/>
<path d="M22.9075 7.50579C24.2462 8.5278 25.2934 9.88317 25.9443 11.4365C27.0051 13.9814 27.1589 16.8136 26.3798 19.4584C25.7954 21.0055 24.89 20.6044 22.9419 20.1918C20.9937 19.7793 13.5792 17.6936 11.6654 15.1495C9.7516 12.6054 11.2299 10.5656 13.7052 9.24769C16.1806 7.92981 21.2687 6.49733 22.9075 7.50579Z" fill="white"/>
<path d="M12.7353 23.1631L12.5634 19.0605L18.11 18.7282C18.11 18.9115 18.11 19.0949 18.11 19.2783C18.11 19.4616 18.11 19.6679 18.11 19.8627C18.11 20.0575 18.11 20.2638 18.11 20.4586C18.11 20.6534 18.11 20.8482 18.11 21.0431C18.11 21.2379 18.11 21.4442 18.11 21.639C18.11 21.8338 18.11 22.0401 18.11 22.2349C18.11 22.4297 18.11 22.6016 18.11 22.7735C18.11 22.9454 18.11 22.7735 18.11 22.7735L12.7239 23.0944C12.7239 23.0944 12.7697 23.1861 12.7353 23.1631Z" fill="black"/>
<path d="M26.7965 25.2832C26.7965 25.4665 26.7965 25.6613 26.7965 25.8447C26.7965 26.0281 26.7965 25.8447 26.7965 25.8447L12.9301 26.6813C12.9301 26.6813 12.9301 26.3146 12.9301 26.1312H13.0218L26.7736 25.3061C26.7736 25.3061 26.7621 25.2602 26.7965 25.2832Z" fill="black"/>
<path d="M26.7965 25.2832H26.7392L12.8958 26.1197V25.5238H12.9874L26.7392 24.6987C26.7689 24.6882 26.8012 24.6882 26.8309 24.6987L26.7965 25.2832Z" fill="white"/>
<path d="M26.7277 23.5184V24.1143H26.6589L12.9071 24.9509C12.8774 24.9614 12.8451 24.9614 12.8154 24.9509V24.355H12.9186L26.6704 23.5184C26.6704 23.5184 26.7047 23.5184 26.7277 23.5184Z" fill="white"/>
<path d="M26.7278 23.5183L12.8614 24.3549V23.7705L26.6132 22.9339C26.6132 22.9339 26.6819 22.9339 26.7163 22.9339L26.7278 23.5183Z" fill="black"/>
<path d="M26.7163 22.911H26.659L12.804 23.7475V23.1516L18.2933 22.8307H18.4308L26.6246 22.338C26.6246 22.338 26.6819 22.338 26.7163 22.338V22.911Z" fill="white"/>
<path d="M12.804 24.9394L26.659 24.1028V24.6873L12.804 25.5238V24.9394Z" fill="black"/>
<path d="M18.2017 19.2783V18.6823L26.533 18.1781C26.533 18.1781 26.533 18.5563 26.533 18.7396H26.4299L18.2934 19.2783C18.2934 19.2783 18.2246 19.3012 18.2017 19.2783Z" fill="black"/>
<path d="M18.2017 19.2782L19.2102 19.2094L26.5101 18.774V19.3584L18.2934 19.8741C18.2808 19.8854 18.2645 19.8916 18.2476 19.8916C18.2306 19.8916 18.2143 19.8854 18.2017 19.8741V19.2782Z" fill="white"/>
<path d="M18.2933 22.2348V21.6389H18.385L26.5673 21.1347C26.5673 21.1347 26.636 21.1347 26.659 21.1347V21.7306L18.4537 22.2234C18.4537 22.2234 18.2933 22.2578 18.2933 22.2348Z" fill="white"/>
<path d="M26.6475 21.1347L18.2933 21.6389V21.043H18.385L26.5673 20.5503C26.5673 20.5503 26.636 20.5503 26.659 20.5503L26.6475 21.1347Z" fill="black"/>
<path d="M26.6246 20.5388L24.9514 20.642L18.2933 21.043V20.4586L26.51 19.9658H26.5902L26.6246 20.5388Z" fill="white"/>
<path d="M18.2933 22.2349L26.6017 21.7306V22.3151L18.3162 22.8078L18.2933 22.2349Z" fill="black"/>
<path d="M26.6131 19.9429H26.5558L18.2933 20.4586V19.8626L20.8603 19.7137L26.5902 19.3584L26.6131 19.9429Z" fill="black"/>
<path d="M16.7577 21.8682V21.7307C16.7577 21.7307 16.7577 21.7307 16.7577 21.6734C16.722 21.6582 16.6906 21.6346 16.666 21.6046H16.7921V21.4671C16.7921 21.4671 16.7921 21.5359 16.7921 21.5702C16.7921 21.6046 16.7921 21.6275 16.8723 21.5702H16.964L16.8723 21.6505C16.8692 21.6924 16.8692 21.7346 16.8723 21.7765L16.7577 21.7078V21.8682Z" fill="white"/>
<path d="M13.8928 21.7765H13.9959C13.9959 21.7765 13.9959 21.7765 14.0532 21.7765C14.0444 21.7388 14.0444 21.6996 14.0532 21.6619C14.0532 21.6619 14.0532 21.7421 14.0532 21.7879C14.0532 21.8338 14.0532 21.7879 14.0532 21.7879H14.1907C14.1907 21.7879 14.1907 21.8452 14.099 21.8567C14.0073 21.8682 14.099 21.8567 14.099 21.9484C14.1024 21.9827 14.1024 22.0172 14.099 22.0515L13.9959 21.9828C13.9668 22.0156 13.9318 22.0428 13.8928 22.063C13.8979 22.0211 13.8979 21.9788 13.8928 21.9369C13.8928 21.9369 13.8928 21.9369 13.8928 21.8796L13.7896 21.8109L13.8928 21.7765Z" fill="white"/>
<path d="M15.5773 20.6878L15.4742 20.619L15.371 20.7107C15.3683 20.6649 15.3683 20.619 15.371 20.5732L15.2679 20.4929H15.3939C15.3907 20.4472 15.3907 20.4012 15.3939 20.3554V20.4586C15.3939 20.4586 15.3939 20.4586 15.4627 20.4586H15.5658L15.4742 20.5388C15.47 20.5478 15.4679 20.5575 15.4679 20.5674C15.4679 20.5773 15.47 20.5871 15.4742 20.5961C15.5134 20.6206 15.5483 20.6516 15.5773 20.6878Z" fill="white"/>
<path d="M16.9984 19.1063L16.9182 19.1636C16.9111 19.1689 16.9053 19.1758 16.9014 19.1838C16.8974 19.1917 16.8953 19.2005 16.8953 19.2094C16.8953 19.2183 16.8974 19.2271 16.9014 19.235C16.9053 19.243 16.9111 19.2499 16.9182 19.2552V19.3584L16.8036 19.2896L16.7005 19.3813V19.2438L16.5974 19.1636H16.7119C16.7119 19.1636 16.7119 19.1636 16.7692 19.1636C16.7639 19.1256 16.7639 19.087 16.7692 19.049C16.7692 19.049 16.7692 19.049 16.7692 19.1177C16.7692 19.1865 16.7692 19.1979 16.8724 19.1865H16.9526L16.9984 19.1063Z" fill="white"/>
<path d="M13.3772 20.5617H13.5033V20.4357C13.508 20.4775 13.508 20.5198 13.5033 20.5617H13.6293C13.6039 20.5908 13.5727 20.6142 13.5376 20.6305V20.7107V20.8253L13.4345 20.7565C13.4345 20.7565 13.4345 20.7565 13.3772 20.7565L13.2741 20.8367C13.2674 20.7988 13.2674 20.7601 13.2741 20.7221C13.2741 20.7221 13.2741 20.6649 13.2741 20.6419H13.1938L13.3772 20.5617Z" fill="white"/>
<path d="M16.5744 20.3783L16.4712 20.4585C16.4796 20.5001 16.4796 20.543 16.4712 20.5846L16.3681 20.5158C16.3681 20.5158 16.3681 20.5158 16.3108 20.5158C16.2818 20.552 16.2469 20.583 16.2076 20.6075C16.2076 20.5502 16.2076 20.5044 16.2076 20.47C16.2076 20.4356 16.2076 20.47 16.2076 20.47C16.1721 20.4496 16.1409 20.4223 16.116 20.3898H16.2306C16.2261 20.3479 16.2261 20.3056 16.2306 20.2637V20.3554C16.2306 20.4242 16.2306 20.4242 16.3108 20.4127H16.4025L16.5744 20.3783Z" fill="white"/>
<path d="M17.8005 21.3754C17.8035 21.4174 17.8035 21.4595 17.8005 21.5015H17.9266L17.8349 21.5702C17.8349 21.5702 17.8349 21.5702 17.8349 21.639C17.8464 21.6763 17.8464 21.7162 17.8349 21.7536L17.7317 21.6848C17.705 21.7202 17.6694 21.7478 17.6286 21.765V21.6504C17.6286 21.6504 17.6286 21.6504 17.6286 21.5817C17.593 21.5665 17.5615 21.5429 17.5369 21.5129H17.663L17.8005 21.3754Z" fill="#FDFDFE"/>
<path d="M14.8554 21.7192H14.97C14.9648 21.6773 14.9648 21.635 14.97 21.5931V21.7077H15.0388H15.1419L15.0502 21.7879C15.0502 21.7879 15.0502 21.7879 15.0502 21.8452C15.0531 21.8872 15.0531 21.9293 15.0502 21.9713L14.9471 21.9025L14.8439 21.9942V21.8567C14.8481 21.8477 14.8502 21.8379 14.8502 21.8281C14.8502 21.8182 14.8481 21.8084 14.8439 21.7994H14.7523L14.8554 21.7192Z" fill="#FDFDFE"/>
<path d="M13.0677 19.1751C13.0658 19.2133 13.0658 19.2515 13.0677 19.2897H13.1823L13.1021 19.3585C13.1021 19.3585 13.1021 19.3585 13.1021 19.4387C13.104 19.4769 13.104 19.5151 13.1021 19.5533L12.9875 19.4731L12.8844 19.5418V19.4272L12.7698 19.3585H12.8958C12.8958 19.3585 12.8958 19.3585 12.9531 19.3585C12.9803 19.2911 13.0191 19.229 13.0677 19.1751Z" fill="white"/>
<path d="M15.0617 19.4731L14.9585 19.4043L14.8554 19.496C14.8526 19.4502 14.8526 19.4043 14.8554 19.3585L14.7523 19.2782H14.8554V19.1637C14.8601 19.2055 14.8601 19.2478 14.8554 19.2897H14.9815L14.8783 19.3699C14.8783 19.3699 14.8783 19.3699 14.8783 19.4272C14.9426 19.4244 15.0063 19.4404 15.0617 19.4731Z" fill="white"/>
<path d="M15.8524 19.0032C15.8555 19.0452 15.8555 19.0873 15.8524 19.1292H15.9785L15.8753 19.2209C15.8753 19.2209 15.8753 19.3011 15.8753 19.347L15.7837 19.2782C15.7837 19.2782 15.7264 19.2782 15.7034 19.2782L15.6232 19.347C15.6168 19.3091 15.6168 19.2703 15.6232 19.2324V19.1636L15.5201 19.0949H15.6576L15.8524 19.0032Z" fill="white"/>
<path d="M17.6515 19.1063C17.6425 19.0647 17.6425 19.0218 17.6515 18.9802C17.6451 19.022 17.6451 19.0645 17.6515 19.1063Z" fill="white"/>
<path d="M15.8294 21.9025V21.7879L15.7148 21.7077H15.8409V21.5816C15.8409 21.5816 15.8409 21.6733 15.8409 21.7077C15.8409 21.7421 15.8409 21.7077 15.8409 21.7077H15.9784L15.8753 21.7994C15.8722 21.8414 15.8722 21.8835 15.8753 21.9254L15.7607 21.8567L15.669 21.9369L15.8294 21.9025Z" fill="white"/>
<path d="M14.5002 20.3325C14.5002 20.4357 14.5002 20.4357 14.6492 20.4357L14.5575 20.5159C14.564 20.5577 14.564 20.6002 14.5575 20.642L14.4544 20.5732C14.4544 20.5732 14.4544 20.5732 14.3971 20.5732L14.3054 20.6534C14.299 20.6116 14.299 20.5691 14.3054 20.5274L14.2023 20.4471H14.3169L14.5002 20.3325Z" fill="white"/>
<path d="M12.976 22.6589H13.1135V22.5214C13.1116 22.5596 13.1116 22.5978 13.1135 22.636H13.2396L13.1364 22.7277C13.1334 22.7696 13.1334 22.8117 13.1364 22.8537L13.0218 22.785L12.9187 22.8652V22.7391L12.976 22.6589Z" fill="#FDFDFE"/>
<path d="M15.8639 22.7391C15.8639 22.7391 15.8639 22.6589 15.8639 22.6245C15.8639 22.5901 15.8639 22.6245 15.8639 22.6245L15.7493 22.5443H15.8868L16.0014 22.3724C16.0061 22.4143 16.0061 22.4566 16.0014 22.4985C16.0387 22.487 16.0786 22.487 16.116 22.4985L16.0128 22.5787C16.0176 22.6206 16.0176 22.6629 16.0128 22.7047L16.0014 22.6589C16.0014 22.6589 16.0014 22.6589 15.9441 22.6589L15.8524 22.7277L15.8639 22.7391Z" fill="#FDFDFE"/>
<path d="M17.8351 22.2005C17.8351 22.2005 17.8351 22.2921 17.8351 22.338C17.8351 22.3838 17.8351 22.338 17.8351 22.338H17.9726L17.8694 22.4297C17.8694 22.4297 17.8694 22.4297 17.8694 22.487V22.613L17.7548 22.5328L17.6517 22.6245V22.487L17.6288 22.3724H17.7548C17.7747 22.3121 17.8016 22.2544 17.8351 22.2005Z" fill="#FDFDFE"/>
<path d="M14.248 20.0804C14.2087 20.105 14.1738 20.136 14.1448 20.1721C14.1496 20.214 14.1496 20.2563 14.1448 20.2982L14.0302 20.2294L13.9156 20.3211C13.9196 20.2753 13.9196 20.2293 13.9156 20.1836L13.801 20.1034C13.8429 20.0977 13.8853 20.0977 13.9271 20.1034C13.9271 20.1034 13.9271 20.1034 13.9844 20.0461C13.979 20.0119 13.979 19.9771 13.9844 19.9429C13.9936 19.9806 13.9936 20.0199 13.9844 20.0575L14.248 20.0804Z" fill="white"/>
<path d="M16.9641 20.195L16.8495 20.1148L16.7464 20.2065V20.0689L16.6318 19.9887H16.7235C16.7922 19.9887 16.7922 19.9887 16.8151 19.9085V19.8168V19.9544H16.9412L16.8381 20.046L16.9641 20.195Z" fill="white"/>
<path d="M13.7094 21.6275V21.5587C13.7094 21.5587 13.7094 21.5587 13.6407 21.5587L13.549 21.6389C13.549 21.5816 13.549 21.5473 13.549 21.5014C13.549 21.4556 13.549 21.5014 13.549 21.5014L13.4459 21.4212H13.5719C13.5616 21.3759 13.5616 21.3289 13.5719 21.2837C13.5719 21.2837 13.5719 21.3754 13.5719 21.4097H13.7094L13.5948 21.5014C13.6357 21.541 13.6739 21.5831 13.7094 21.6275Z" fill="white"/>
<path d="M16.1846 21.2264H16.3221V21.0889C16.3252 21.1309 16.3252 21.173 16.3221 21.215H16.4482L16.3451 21.3067C16.3418 21.3524 16.3418 21.3984 16.3451 21.4442L16.2419 21.364C16.2419 21.364 16.2419 21.364 16.1846 21.364L16.0815 21.4442V21.3181C16.0815 21.3181 16.0815 21.3181 16.0815 21.2608L16.1846 21.2264Z" fill="white"/>
<path d="M14.7408 20.0804H14.8554C14.8554 20.0804 14.9127 20.0804 14.9242 20.0231V19.9085C14.9242 19.9085 14.9242 20.0002 14.9242 20.046C14.9242 20.0918 14.9242 20.046 14.9242 20.046H15.0617L14.9586 20.1377C14.9633 20.1796 14.9633 20.2218 14.9586 20.2637L14.8554 20.195C14.8265 20.2311 14.7916 20.2621 14.7523 20.2867C14.7523 20.2294 14.7523 20.195 14.7523 20.1491C14.7523 20.1033 14.7523 20.1491 14.7523 20.1491L14.7408 20.0804Z" fill="white"/>
<path d="M13.9042 22.6016H14.0188C14.0188 22.6016 14.0761 22.6016 14.0876 22.5443C14.0832 22.5062 14.0832 22.4677 14.0876 22.4297C14.0906 22.4716 14.0906 22.5138 14.0876 22.5557H14.2136L14.1105 22.6474C14.1075 22.6894 14.1075 22.7315 14.1105 22.7735L13.9959 22.7047L13.8928 22.7964V22.6703C13.8928 22.6703 13.8928 22.6703 13.8928 22.6016H13.9042Z" fill="#FDFDFE"/>
<path d="M17.0442 22.6818L16.9411 22.6016L16.8265 22.6933C16.8265 22.6933 16.8265 22.6016 16.8265 22.5672C16.8265 22.5328 16.8265 22.5672 16.8265 22.5099L16.7119 22.4297H16.8494C16.8392 22.3883 16.8392 22.3451 16.8494 22.3036V22.3839C16.8494 22.4526 16.8494 22.4526 16.9526 22.4526H17.1474L17.0442 22.5443C17.0442 22.5443 17.0442 22.5443 17.0442 22.6016C17.0454 22.6283 17.0454 22.6551 17.0442 22.6818Z" fill="#FDFDFE"/>
<path d="M14.3282 21.3296H14.4428C14.4428 21.3296 14.4428 21.3296 14.4428 21.2723V21.1577C14.4428 21.1577 14.4428 21.2493 14.4428 21.2952C14.4428 21.341 14.4428 21.2952 14.4428 21.2952H14.5803L14.4772 21.3869C14.4742 21.4288 14.4742 21.471 14.4772 21.5129L14.3626 21.4442C14.3304 21.4736 14.2959 21.5005 14.2595 21.5244V21.3983L14.3282 21.3296Z" fill="white"/>
<path d="M15.2565 21.2264H15.394C15.394 21.2264 15.394 21.1462 15.394 21.0889V21.215H15.5201L15.417 21.3067V21.4212L15.3138 21.364H15.2451L15.1534 21.4442C15.1534 21.3869 15.1534 21.3525 15.1534 21.3067C15.1534 21.2608 15.1534 21.3067 15.1534 21.3067L15.2565 21.2264Z" fill="white"/>
<path d="M17.4683 21.4098L17.3651 21.3296C17.3651 21.3296 17.3651 21.3296 17.3078 21.3296L17.2047 21.4098C17.2018 21.3678 17.2018 21.3257 17.2047 21.2837L17.1474 21.2264H17.2849C17.2849 21.2264 17.2849 21.1462 17.2849 21.0889V21.1921C17.2849 21.1921 17.2849 21.2608 17.3537 21.2494H17.4568L17.3651 21.3296C17.3651 21.3296 17.3651 21.3296 17.3651 21.3983L17.4683 21.4098Z" fill="white"/>
<path d="M16.1046 19.9773L16.0015 20.0804V20.2179L15.8983 20.1377H15.8296L15.7379 20.2179C15.7313 20.1762 15.7313 20.1336 15.7379 20.0919C15.7379 20.0919 15.7379 20.0919 15.7379 20.0346L15.6348 19.9658H15.7494V19.8397C15.7494 19.8397 15.7494 19.9314 15.7494 19.9658L16.1046 19.9773Z" fill="white"/>
<path d="M12.9875 20.4241C12.9821 20.3823 12.9821 20.3399 12.9875 20.2981L12.8729 20.2179H12.9761C13.0334 20.2179 13.0334 20.2179 13.0563 20.1377C13.0533 20.1072 13.0533 20.0765 13.0563 20.046V20.172H13.1938L13.0792 20.2637C13.0857 20.3055 13.0857 20.348 13.0792 20.3898L12.9761 20.321C12.9761 20.321 12.9761 20.321 12.9188 20.321C12.9484 20.3504 12.9718 20.3855 12.9875 20.4241Z" fill="white"/>
<path d="M15.7034 22.0858C15.7034 22.0858 15.6003 22.1431 15.5888 22.189C15.5853 22.2386 15.5853 22.2884 15.5888 22.338L15.4857 22.2577C15.4857 22.2577 15.4857 22.2577 15.4284 22.2577L15.3252 22.338C15.3252 22.338 15.3252 22.2463 15.3252 22.2004C15.3252 22.1546 15.3252 22.2004 15.3252 22.2004L15.2221 22.1317H15.3482V22.0056C15.3527 22.0437 15.3527 22.0822 15.3482 22.1202C15.3482 22.1202 15.3482 22.1202 15.4055 22.1202L15.7034 22.0858Z" fill="white"/>
<path d="M13.847 20.9514H13.973V20.8138C13.9763 20.8596 13.9763 20.9056 13.973 20.9514H14.1106L14.0074 21.043C14.0041 21.0888 14.0041 21.1348 14.0074 21.1806L13.9043 21.1003C13.9043 21.1003 13.9043 21.1003 13.847 21.1003L13.9387 21.2264V21.0889L13.847 20.9514Z" fill="white"/>
<path d="M14.6835 19.6564L14.5918 19.7366C14.5918 19.7366 14.5918 19.7366 14.5918 19.7939V19.92L14.4772 19.8398L14.3855 19.92V19.7825L14.2824 19.7137H14.4085C14.4085 19.7137 14.4085 19.6335 14.4085 19.5762C14.4085 19.5189 14.4085 19.6679 14.4085 19.7137C14.4085 19.7595 14.4085 19.7137 14.4085 19.7137H14.5345L14.6835 19.6564Z" fill="white"/>
<path d="M17.4683 19.496L17.3881 19.5647C17.3881 19.5647 17.3881 19.5647 17.3881 19.6335C17.3945 19.6714 17.3945 19.7102 17.3881 19.7481L17.285 19.6793C17.285 19.6793 17.285 19.6793 17.2277 19.6793L17.1245 19.771C17.1218 19.7252 17.1218 19.6793 17.1245 19.6335V19.5762L17.0328 19.5074H17.1474V19.3814C17.1522 19.4233 17.1522 19.4656 17.1474 19.5074H17.262L17.4683 19.496Z" fill="white"/>
<path d="M13.0104 21.2264C13.0104 21.1691 13.0104 21.1347 13.0104 21.0889C13.0104 21.0431 13.0104 21.0889 13.0104 21.0889L12.9073 21.0201H13.0333C13.0333 21.0201 13.0333 20.9399 13.0333 20.8826C13.0333 20.8253 13.0333 20.9743 13.0333 21.0087C13.0333 21.0431 13.0333 21.0087 13.0333 21.0087H13.1479C13.1479 21.0087 13.1479 21.0087 13.0906 21.0774C13.0333 21.1462 13.0906 21.0774 13.0906 21.192V21.2837L12.976 21.2035L13.0104 21.2264Z" fill="white"/>
<path d="M15.7951 21.0889V20.9628C15.7951 20.9628 15.7951 20.9628 15.7951 20.9055C15.7559 20.8908 15.7207 20.8673 15.692 20.8368H15.8066C15.8094 20.7948 15.8094 20.7527 15.8066 20.7107V20.8482H15.9441L15.8295 20.9399C15.8295 20.9399 15.8295 21.0201 15.8295 21.0774L16.0014 20.9972L15.7951 21.0889Z" fill="white"/>
<path d="M17.1473 21.9942H17.2505V21.8796C17.2505 21.8796 17.2505 21.9598 17.2505 22.0057C17.2505 22.0515 17.2505 22.0057 17.2505 22.0057H17.3651C17.3476 22.0376 17.3191 22.0621 17.2849 22.0744C17.2849 22.0744 17.2849 22.0744 17.2849 22.1546C17.2868 22.1928 17.2868 22.2311 17.2849 22.2692L17.1932 22.2119C17.1932 22.2119 17.1359 22.2119 17.1015 22.2119L17.0213 22.2807C17.0146 22.2428 17.0146 22.204 17.0213 22.1661V22.0973L17.1473 22.0057V21.9942Z" fill="white"/>
<path d="M16.6317 22.0286L16.5401 22.1088C16.5401 22.1088 16.5401 22.1088 16.5401 22.1661C16.537 22.2081 16.537 22.2502 16.5401 22.2922L16.4369 22.2234C16.4369 22.2234 16.4369 22.2234 16.3682 22.2234L16.2765 22.3036V22.1661C16.2387 22.1487 16.2039 22.1255 16.1733 22.0974H16.2994C16.2956 22.0554 16.2956 22.0132 16.2994 21.9713C16.3044 22.0093 16.3044 22.0479 16.2994 22.0859H16.3682L16.6317 22.0286Z" fill="white"/>
<path d="M14.7868 22.1317L14.6836 22.2234C14.6836 22.2234 14.6836 22.2234 14.6836 22.2807C14.692 22.3223 14.692 22.3652 14.6836 22.4068L14.6149 22.3724C14.6149 22.3724 14.6149 22.3724 14.5461 22.3724L14.443 22.4526V22.3266C14.443 22.3266 14.443 22.3266 14.443 22.2693L14.3284 22.2005H14.4544C14.4573 22.1585 14.4573 22.1164 14.4544 22.0744C14.4592 22.1163 14.4592 22.1586 14.4544 22.2005C14.4544 22.2005 14.4544 22.2005 14.5117 22.2005L14.7868 22.1317Z" fill="white"/>
<path d="M13.6293 22.0401C13.6326 22.0859 13.6326 22.1318 13.6293 22.1776H13.7554L13.6523 22.2693C13.6556 22.315 13.6556 22.361 13.6523 22.4068L13.7096 22.3724C13.6806 22.4085 13.6457 22.4395 13.6064 22.4641C13.6064 22.4068 13.6064 22.3724 13.6064 22.3266C13.6064 22.2807 13.6064 22.3266 13.6064 22.3266L13.4918 22.2578H13.6293C13.6293 22.2578 13.6179 22.0974 13.6293 22.0401Z" fill="white"/>
<path d="M15.3368 19.622C15.333 19.5801 15.333 19.5379 15.3368 19.496C15.3415 19.5379 15.3415 19.5802 15.3368 19.622Z" fill="white"/>
<path d="M16.3336 19.3814C16.3369 19.4272 16.3369 19.4731 16.3336 19.5189H16.4597L16.368 19.5991C16.368 19.5991 16.368 19.6793 16.368 19.7252L16.2648 19.6564L16.1617 19.7366C16.1551 19.6987 16.1551 19.6599 16.1617 19.622C16.1617 19.622 16.1617 19.5647 16.1617 19.5418L16.0815 19.4845H16.1961C16.1961 19.4845 16.3221 19.4387 16.3336 19.3814Z" fill="white"/>
<path d="M14.7867 20.8941H14.9127V20.7566C14.9127 20.7566 14.9127 20.8139 14.9127 20.8483C14.9138 20.8586 14.9173 20.8686 14.9228 20.8774C14.9284 20.8862 14.9358 20.8937 14.9446 20.8992C14.9535 20.9047 14.9634 20.9081 14.9738 20.9092C14.9841 20.9103 14.9946 20.9091 15.0044 20.9056C15.0044 20.9056 15.0044 20.9056 15.0846 20.9056L14.9929 20.9858C14.9965 21.0277 14.9965 21.0699 14.9929 21.1118L14.8783 21.0316L14.7752 21.1233V20.9858L14.7867 20.8941Z" fill="white"/>
<path d="M17.984 20.7107L17.8923 20.7795C17.8923 20.7795 17.8923 20.7795 17.8923 20.8368V20.9628L17.7892 20.8941L17.6975 20.9743C17.6909 20.9325 17.6909 20.89 17.6975 20.8482C17.7016 20.8392 17.7038 20.8295 17.7038 20.8196C17.7038 20.8097 17.7016 20.7999 17.6975 20.7909C17.6583 20.7762 17.6231 20.7526 17.5944 20.7222H17.7204C17.7114 20.6806 17.7114 20.6377 17.7204 20.5961V20.7107C17.7204 20.7107 17.7204 20.7107 17.7777 20.7107H17.8923H17.984Z" fill="white"/>
<path d="M11.9811 18.8555H17.984V22.762L11.9811 23.1092V18.8555Z" fill="#090909"/>
<path d="M17.6428 22.2753V19.2799L12.9301 19.4578V22.4873L17.6428 22.2753Z" fill="white"/>
</g>
<defs>
<clipPath id="clip0">
<rect width="32" height="32" fill="white"/>
</clipPath>
</defs>
</svg>
