<svg width="32" height="32" viewBox="0 0 32 32" fill="none" xmlns="http://www.w3.org/2000/svg">
<path d="M16 32C24.8366 32 32 24.8366 32 16C32 7.16344 24.8366 0 16 0C7.16344 0 0 7.16344 0 16C0 24.8366 7.16344 32 16 32Z" fill="black"/>
<path d="M21.7357 9.04239V22.4134H8.95185V9.04239H21.7357V5H13.91L5.00004 11.9187V16.3498C4.99636 17.7495 5.26758 19.1363 5.7996 20.4302C6.33162 21.7243 7.1134 22.8999 8.10013 23.8897C9.08624 24.8795 10.2583 25.6638 11.5481 26.1976C12.8374 26.7314 14.2199 27.004 15.6147 27C18.3399 26.9551 20.9392 25.8383 22.8519 23.89C24.7646 21.9418 25.8385 19.3178 25.8422 16.583V9.04239H21.7357Z" fill="white"/>
</svg>
