<svg height="32" viewBox="0 0 32 32" width="32" xmlns="http://www.w3.org/2000/svg"><path d="m16 32c-8.836556 0-16-7.163444-16-16s7.163444-16 16-16 16 7.163444 16 16-7.163444 16-16 16zm6.6308579-15.082232c-.3601221-.0939795-.7202442-.1722957-1.0963717-.2662751 1.4965073-2.247675 2.9770092-4.4718551 4.4655138-6.7195301-.0451261-.00550644-.0905715-.00812255-.1360461-.00783162-.9523229 0-1.9046457 0-2.8569685-.00783162-.1440489 0-.1920651.07048458-.2560868.16446404-1.7605969 2.6549192-3.5211937 5.312449-5.2817906 7.9725893-.4801627.7283407-.9683282 1.4566814-1.4724991 2.2163485-.0424708-.0485143-.0799952-.1009745-.112038-.1566324-2.1847406-3.3441018-4.3721488-6.6855931-6.56222458-10.0244738-.05715862-.11635765-.18039492-.18748167-.31210581-.18012726-.90430655.00783162-1.80861311 0-2.71291967.00783162-.05601899 0-.12004069.00783162-.20807053.01566324 1.46449646 2.2241801 2.89698207 4.4170338 4.34547309 6.6333823-.056019.0156632-.0880298.0156632-.1200407.0234948-.67222787.1722957-1.34445575.3210965-2.00868092.5247186s-1.3044422.4698972-1.82461854.9397944c-.65622246.5873715-.64021703 1.1982379.04001356 1.7699462.02400814.0234948.05601899.0391581.08002713.0626529.46415735.3680862 1.00033911.6108664 1.56052902.8066569 1.76859955.6343612 3.61722625.8771415 5.48986105 1.010279.1165033.0025297.222989.0650552.2800949.164464.5441845.8379834 1.088369 1.6759667 1.6405562 2.5061185.1360461.2036221.2720922.4072442.4161411.6265296.0431319-.0710616.0912645-.1391.1440488-.2036221.6562225-.9789525 1.3044422-1.9579051 1.9606647-2.9368576.0487246-.0759451.1265754-.1295578.2160732-.1488008.9363174-.1174743 1.8806375-.1957905 2.8089522-.3367596 1.144388-.1722957 2.2647678-.4620656 3.3211259-.9711209.4161411-.1957905.808274-.4307391 1.0963717-.7988253.3281112-.4229075.3521193-.845815-.0080028-1.2452276-.2431231-.233932-.5114483-.441377-.8002713-.618698-.6482197-.3994126-1.3684639-.6265296-2.0967107-.8223201zm-13.73265537 1.8795888c-.19799589-.2053496-.19445948-.5272049.00800272-.7283406.17258633-.2023182.38139983-.3721668.61620889-.5012237.36022311-.1728711.73184256-.3220038 1.11237706-.4464024.0731326-.0122014.1477599.0111687.2000679.062653.6482197.9789525 1.2884367 1.9657366 1.9366565 2.9446892.0080027.0156632.0080027.0391581.0240081.0939794-1.1443879-.1722956-2.2487623-.3680861-3.24910142-.9006363-.24371271-.1393585-.46264374-.316578-.64821975-.5247186zm12.60427287.845815c-.6962361.1957905-1.4084775.3524229-2.1127163.5247186-.0637587.0080311-.1283063.0080311-.1920651 0 .2480841-.3759178.4881655-.744004.7282469-1.1042585.3841302-.5717083.7682604-1.1434165 1.144388-1.7229564.0720244-.1096427.1440488-.1566324.2640895-.0939795.3521193.1722957.7122414.3367597 1.0563581.5090553.1009718.0599503.1926074.1338016.2720922.2192854.3201085.3289281.3201085.6891826 0 1.010279-.322976.3127508-.7224922.5392466-1.1603933.6578561zm.0080027-10.6431718h-11.0357411l5.5538827 8.7322565z"/></svg>