<svg height="32" viewBox="0 0 32 32" width="32" xmlns="http://www.w3.org/2000/svg"><path d="M16 32C7.163 32 0 24.837 0 16S7.163 0 16 0s16 7.163 16 16-7.163 16-16 16zm6.63-15.082c-.36-.094-.72-.173-1.096-.267 1.497-2.247 2.977-4.471 4.466-6.719a1.067 1.067 0 00-.136-.008c-.952 0-1.905 0-2.857-.008-.144 0-.192.07-.256.165-1.76 2.655-3.521 5.312-5.282 7.972-.48.729-.968 1.457-1.472 2.217a.98.98 0 01-.112-.157A6533.971 6533.971 0 009.322 10.09a.327.327 0 00-.312-.18c-.904.007-1.808 0-2.713.007-.056 0-.12.008-.208.016 1.465 2.224 2.897 4.417 4.346 6.633-.056.016-.088.016-.12.024-.673.172-1.345.32-2.009.525s-1.304.47-1.825.94c-.656.587-.64 1.198.04 1.77.024.023.056.038.08.062.465.368 1 .61 1.561.807 1.769.634 3.617.877 5.49 1.01a.33.33 0 01.28.164A272.253 272.253 0 0015.989 25c.043-.071.09-.14.144-.204.656-.979 1.304-1.958 1.96-2.936a.342.342 0 01.216-.15c.937-.117 1.881-.195 2.81-.336 1.144-.172 2.264-.462 3.32-.971.417-.196.809-.43 1.097-.799.328-.423.352-.846-.008-1.245a4.703 4.703 0 00-.8-.619c-.649-.4-1.369-.626-2.097-.822zm-13.732 1.88a.517.517 0 01.008-.729c.173-.202.382-.372.616-.501.36-.173.732-.322 1.113-.447a.231.231 0 01.2.063c.648.979 1.288 1.966 1.937 2.945.008.015.008.039.024.094-1.145-.173-2.25-.368-3.25-.9a2.592 2.592 0 01-.648-.526zm12.604.845c-.696.196-1.408.353-2.112.525a.769.769 0 01-.192 0c.248-.376.488-.744.728-1.104.384-.572.768-1.144 1.144-1.723.072-.11.144-.157.264-.094.353.172.713.336 1.057.509.1.06.192.134.272.219.32.329.32.69 0 1.01-.323.313-.723.54-1.16.658zM21.51 9H10.475l5.554 8.732z"/></svg>