<svg height="32" viewBox="0 0 32 32" width="32" xmlns="http://www.w3.org/2000/svg"><path d="m16 32c-8.836556 0-16-7.163444-16-16s7.163444-16 16-16 16 7.163444 16 16-7.163444 16-16 16zm7.048789-21.723225c-1.663761 2.7718072-6.5266846 9.8351434-7.0357689 10.4396808-.4877854-.5952301-5.058012-7.2690386-7.08144381-10.4715026-.47692377-.75482224-1.46281268-.97194957-2.20204453-.48496751-.73923184.48698211-.95187455 1.49366331-.47495078 2.24848551 2.04746446 3.2405003 3.84099142 5.9848072 5.27055472 8.0356677 2.4070123 3.4531148 2.7872439 4.4558611 4.4748469 4.4558611s2.1944193-1.1361794 4.535025-4.4470403c1.6033115-2.2679349 3.5260742-5.2376283 5.2299764-8.0763103.4597121-.7658752.2243414-1.7672695-.5257152-2.23667691-.7500565-.46940737-1.7307677-.22907273-2.1904798.53680251z" fill-rule="evenodd"/></svg>