<svg height="32" viewBox="0 0 32 32" width="32" xmlns="http://www.w3.org/2000/svg"><path d="m16 32c-8.836556 0-16-7.163444-16-16s7.163444-16 16-16 16 7.163444 16 16-7.163444 16-16 16zm4.264794-24-4.2333909 9.112616-4.3276795-9.112616h-4.7037236l8.9998414 18 9.0001586-18zm-4.2649526 4.9589327c.7877736 0 1.4268583-.6561533 1.4268583-1.4652299s-.6390847-1.4652299-1.4268583-1.4652299c-.7878529 0-1.4266204.6561533-1.4266204 1.4652299s.6387675 1.4652299 1.4266204 1.4652299zm6.4649138 4.0409859c-.7877736 0-1.4269376.6560718-1.4269376 1.4649042 0 .8092394.6392433 1.4653113 1.4269376 1.4653113.7880908 0 1.4266997-.6560719 1.4266997-1.4653113.0000793-.8088324-.6386089-1.4649042-1.4266997-1.4649042z" fill-rule="evenodd"/></svg>