<svg height="32" viewBox="0 0 32 32" width="32" xmlns="http://www.w3.org/2000/svg"><path d="m27.2507118 4.62364152c-.1030899-.09868269-.2073006-.19525384-.3126321-.28971344l-11.1554036 15.45300792-4.2624857-5.4380087h-6.93826505l-1.94992828 2.2205201h3.62777352l8.66130931 11.1932344c.2890243.2719005.576223.4078507.8615962.4078507s.5574562-.1359502.8162491-.4078507l13.694845-18.94239663c-.0945156-.19411151-.1928522-.3856226-.2950099-.57453325 1.2750949 2.29701938 2.0012397 4.94083358 2.0012397 7.75424808 0 8.836556-7.163444 16-16 16s-16-7.163444-16-16 7.163444-16 16-16c4.3863228 0 8.3603961 1.76504988 11.2507118 4.62364152z" fill-rule="evenodd"/></svg>