<svg xmlns="http://www.w3.org/2000/svg" width="32" height="32" viewBox="0 0 32 32"><path fill-rule="evenodd" d="M16,32 C7.163444,32 0,24.836556 0,16 C0,7.163444 7.163444,0 16,0 C24.836556,0 32,7.163444 32,16 C32,24.836556 24.836556,32 16,32 Z M7,11.0898182 L7,23.0636364 L16,17.7487273 L25,23.0636364 L25,11.0898182 L22.3939394,12.22 L22.3939394,18.5734545 L16,14.7858182 L9.66666667,18.5734545 L9.66666667,12.22 L7,11.0898182 Z M7.3030303,10.6010909 L9.66666667,11.5785455 L16,7.88254545 L22.3939394,11.5785455 L24.7575758,10.6010909 L16,5.5 L7.3030303,10.6010909 Z M9.18181818,22.4221818 L16.030303,26.5 L22.8787879,22.4221818 L20.8484848,21.292 L16.030303,24.1174545 L11.1515152,21.292 L9.18181818,22.4221818 Z"/></svg>