<svg height="32" viewBox="0 0 32 32" width="32" xmlns="http://www.w3.org/2000/svg"><path d="m16 32c-8.836556 0-16-7.163444-16-16s7.163444-16 16-16 16 7.163444 16 16-7.163444 16-16 16zm12-13.037766-7.48374-6.462234h-2.37516l4.6254 3.9980317-1.46172 1.2573503-3.0387-3.7082052h-2.00982l-3.65226 4.4447041-.39828.4858531 1.78848-4.9223151h-1.62546l-1.1838 3.3247017-1.18458-3.3238406h-2.00028l-1.18812 3.3317751-1.19166-3.3464756h-1.6203l1.77258 4.9117973h2.11218l1.116-3.1295362 1.1238 3.1538934h2.08116l-1.24584 1.522266h1.99698l4.30512-5.2411121 1.23294 1.5082421h-1.61874l-.83298 1.0284783h3.29214l.9549 1.1603518h1.99746l1.67154-1.4302497 1.67664 1.4365236zm-2.34474-2.9723213 2.24862-1.9023251-2.25126-.0017837-1.11282.9485177z" fill-rule="evenodd"/></svg>