<svg height="32" viewBox="0 0 32 32" width="32" xmlns="http://www.w3.org/2000/svg"><g fill="#000" fill-rule="evenodd"><path d="m16 32c-8.836556 0-16-7.163444-16-16s7.163444-16 16-16 16 7.163444 16 16-7.163444 16-16 16zm2.4137931-18.8336162v-2.4908994c0-.0552157-.0069154-.1102231-.0205914-.1637903-.0923784-.3618355-.466816-.58182972-.8363297-.4913708l-3.4482759.8441558c-.3070117.0751581-.5223892.3452765-.5223892.6551612v7.5558344c0 .0552158.0069154.1102232.0205914.1637903.0923784.3618355.466816.5818298.8363297.4913709l2.2465272-.5499615v-4.5376575c0-.6197693.430755-1.1600062 1.0447784-1.3103223zm-7.5862069-.0422078v-2.4486916c0-.0552157-.0069154-.1102231-.0205914-.1637903-.0923784-.3618355-.466816-.58182972-.83632971-.4913708l-3.44827587.8441558c-.30701172.0751581-.52238922.3452765-.52238922.6551612v7.5558344c0 .0552158.00691541.1102232.02059138.1637903.09237843.3618355.46681601.5818298.83632974.4913709l2.07411336-.5077537v-4.5798653c0-.6197693.430755-1.1600062 1.04477845-1.3103223zm10.8672168-2.2390726c-.3070117.0751581-.5223892.3452765-.5223892.6551612v7.5558345c0 .0552157.0069154.1102231.0205914.1637902.0923784.3618356.466816.5818298.8363297.4913709l3.4482759-.8441558c.3070117-.0751581.5223892-.3452766.5223892-.6551612v-7.5558345c0-.0552157-.0069154-.1102231-.0205914-.1637903-.0923784-.3618355-.466816-.58182971-.8363297-.4913708zm-8.7982513 2.4286879-2.7534728.6740644c-.30701175.0751581-.52238924.3452766-.52238924.6551612v7.5558345c0 .0552157.00691541.1102231.02059137.1637902.09237844.3618356.46681597.5818298.83632977.4913709l3.4482758-.8441558c.3070118-.0751581.5223893-.3452765.5223893-.6551612v-.9390307c-.6834545.0851596-1.3392999-.3418766-1.5105414-1.0126095-.0273519-.1071343-.0411828-.217149-.0411828-.3275806zm7.5862069.0422078-2.581059.6318566c-.3070118.0751581-.5223893.3452766-.5223893.6551612v7.5558345c0 .0552157.0069155.1102231.0205914.1637902.0923785.3618356.466816.5818298.8363298.4913709l3.4482758-.8441558c.3070118-.0751581.5223893-.3452765.5223893-.6551612v-.9507946l-.0102957.0025205c-.7390275.1809177-1.4879027-.2590707-1.6726595-.9827418-.027352-.1071343-.0411828-.217149-.0411828-.3275805z" fill-rule="nonzero"/><path d="m12.8965517 13.3137913v5.7616834c0 .1104316.0138309.2204463.0411828.3275806.1712415.6707329.8270869 1.0977691 1.5105414 1.0126095v.9390307c0 .3098847-.2153775.5800031-.5223893.6551612l-3.4482758.8441558c-.3695138.0904589-.74395133-.1295353-.83632977-.4913709-.01367596-.0535671-.02059137-.1085745-.02059137-.1637902v-7.5558345c0-.3098846.21537749-.5800031.52238924-.6551612zm7.5862069.0422078v5.7401c0 .1104315.0138308.2204462.0411828.3275805.1847568.7236711.933632 1.1636595 1.6726595.9827418l.0102957-.0025205v.9507946c0 .3098847-.2153775.5800031-.5223893.6551612l-3.4482758.8441558c-.3695138.0904589-.7439513-.1295353-.8363298-.4913709-.0136759-.0535671-.0205914-.1085745-.0205914-.1637902v-7.5558345c0-.3098846.2153775-.5800031.5223893-.6551612z" opacity=".504"/></g></svg>