<svg height="32" viewBox="0 0 32 32" width="32" xmlns="http://www.w3.org/2000/svg"><path d="m25.9766829 19.754497 2.1831654.5443242.3628828-1.4554435-2.1831654-.5443243.5443243-2.1831654-1.4554436-.3628828-.5443243 2.1831653-2.1831653-.5443242-.3628829 1.4554436 2.1831654.5443242-.5443243 2.1831654 1.4554436.3628829zm-9.9766829 12.245503c-8.836556 0-16-7.163444-16-16s7.163444-16 16-16 16 7.163444 16 16-7.163444 16-16 16zm4.6110304-18.2399289c.2798981-1.8437085-1.0893326-2.8265688-2.9652716-3.4769982l.6229843-2.49886404-1.4865427-.37046749-.6065225 2.43301305c-.3907944-.09737977-.7922181-.18907735-1.1911026-.27992347l.6108477-2.44904431-1.4856947-.37047211-.6234037 2.49800109c-.3235123-.0735182-.6410936-.1462034-.9493267-.22283327l.0017374-.00779699-2.0500772-.51190146-.4046449 1.6246062s1.1030666.2522811 1.0796628.2684162c.6020674.1503096.708856.5568433.6889033.879702l-.7096321 2.8467464c.0414915.0105901.0952527.0258725.1544794.0497779-.0495377-.0122769-.1024602-.0258332-.1570809-.0389477l-.994685 3.9878743c-.0747681.1873079-.26323506.4686852-.68409447.3645469.01472127.0219845-1.0805038-.2697096-1.0805038-.2697096l-.74825838 1.7428573 1.93449469.4822458c.35988375.0901932.71253686.1847522 1.05970846.2737166l-.62949625 2.5274538 1.48484685.3704768.6234175-2.500597c.4055641.1102786.7993032.2119687 1.1845952.3076479l-.6212353 2.4889038 1.4865427.3704675.6294708-2.5226946c2.5356995.4763768 4.4454721.2682625 5.2613964-2.0789298.6574678-1.8898935-.0163526-2.9743167-1.348076-3.6765973.9738107-.2341688 1.7099158-.8910314 1.9125613-2.2406762zm-3.4270613 4.8854349c-.4700725 1.8888733-3.5770036.886054-4.5846905.6358494l.8352566-3.3484284c1.00768.2515025 4.2407127.7426864 3.7494339 2.712579zm.4865434-4.8966821c-.4288858 1.7181886-3.0146979.8604953-3.8538683.6513395l.7572822-3.0369352c.8391704.2091559 3.5432495.5933288 3.0965861 2.3855957z" fill-rule="evenodd"/></svg>