<svg height="32" viewBox="0 0 32 32" width="32" xmlns="http://www.w3.org/2000/svg"><path d="m16 32c-8.836556 0-16-7.163444-16-16s7.163444-16 16-16 16 7.163444 16 16-7.163444 16-16 16zm-10-22.9838076c0 .01012025 1.46699772 2.5098222 3.25987999 5.5570298 2.31222841 3.9286814 3.26505281 5.5388133 3.27643281 5.5367893.0144838-.0030361 6.5301056-11.07965075 6.5301056-11.10090327 0-.00506013-1.366646-.00910823-3.0726257-.00910823-2.6339748 0-3.0726257.00202405-3.0726257.01416835 0 .0080962.6331471 1.07983075 1.405959 2.38129505s1.4080281 2.3731988 1.4100973 2.379271c.0020691.0060721-.1158701.2135373-.2607077.4604714l-.2638113.4503512-.0279329-.0465532c-.0155183-.0263126-.7748811-1.3045003-1.6873578-2.8407544l-1.6604593-2.79318927-2.91847716-.00303608c-2.70846266-.00202405-2.91847714-.00101202-2.91847714.01416835zm14.139251-.00910822c-.1075936.17710439-7.0566936 12.01678592-7.0608318 12.02791822-.0062073.0242886 2.9039934 4.9690432 2.9226154 4.9649951.0124146-.0030361 2.9391682-4.962971 2.9484792-4.9983919.0031036-.0101203-.563832-.9735682-1.3304366-2.2649122-.7345334-1.2356826-1.3366439-2.2507438-1.3376785-2.2558039-.0041382-.0121443.5203807-.9027264.5286572-.8976663.0041382.0020241.6052141 1.0110131 1.3366439 2.2416356 1.0262776 1.7275268 1.3325057 2.2365755 1.3459549 2.2345514.0134492-.002024 1.1007655-1.8418857 3.2588454-5.5084526 1.7815022-3.027979 3.241258-5.51553672 3.2443617-5.52869305l.0041382-.02226455h-2.9277881c-1.6108008 0-2.9308918.00303608-2.9329609.00708418z" fill-rule="evenodd"/></svg>