<svg width="32" height="32" viewBox="0 0 32 32" fill="none" xmlns="http://www.w3.org/2000/svg">
<g clip-path="url(#clip0)">
<path d="M16 32C24.8366 32 32 24.8366 32 16C32 7.16344 24.8366 0 16 0C7.16344 0 0 7.16344 0 16C0 24.8366 7.16344 32 16 32Z" fill="#EFF2F5"/>
<path d="M32 14.4719C28.3232 -6.8304 0.507985 -2.7081 0.0116462 14.4719C1.61712 15.305 2.62533 15.811 2.62533 15.811C2.62533 15.811 1.7744 16.3205 0 17.4543C3.20556 38.3382 30.5415 35.3053 31.9946 17.4302C30.2567 16.3648 29.3091 15.8025 29.3091 15.8025C29.3091 15.8025 30.1218 15.4154 32 14.4719ZM18.3141 21.9098L15.7051 17.4244L13.0493 21.9098L11.046 21.7725L14.8196 15.4108L11.4185 9.9187L13.4686 9.73549L15.8911 13.8089L18.3141 9.9187L20.2242 9.96444L17.0562 15.3652L20.55 21.8642L18.3141 21.9098Z" fill="black"/>
</g>
<defs>
<clipPath id="clip0">
<rect width="32" height="31.9995" fill="white"/>
</clipPath>
</defs>
</svg>
