<svg width="32" height="32" viewBox="0 0 32 32" version="1.1" xmlns="http://www.w3.org/2000/svg" xmlns:xlink="http://www.w3.org/1999/xlink"><title>svg/black/xin</title><desc>Created with Sketch.</desc><g id="black/xin" stroke="none" stroke-width="1" fill="none" fill-rule="evenodd"><path d="M16,32 C7.163444,32 0,24.836556 0,16 C0,7.163444 7.163444,0 16,0 C24.836556,0 32,7.163444 32,16 C32,24.836556 24.836556,32 16,32 Z M26.405,7.151 L22.775,8.761 C22.5593335,8.87898352 22.4251547,9.10517052 22.425,9.351 L22.425,22.331 C22.4242005,22.5798011 22.5633852,22.8079093 22.785,22.921 L26.415,24.491 C26.5202504,24.5484852 26.6480807,24.5458951 26.7509163,24.4841938 C26.8537518,24.4224925 26.9161926,24.3109199 26.915,24.191 L26.915,7.451 C26.9111603,7.33102166 26.8461025,7.22138113 26.7426361,7.16051855 C26.6391698,7.09965597 26.511731,7.09606325 26.405,7.151 Z M9.02,8.741 L5.5,7.141 C5.39474956,7.08351484 5.26691925,7.08610488 5.16408372,7.1478062 C5.06124819,7.20950752 4.99880742,7.32108012 5,7.441 L5,24.181 C5.0000874,24.3045544 5.0670016,24.4183964 5.17490962,24.4785759 C5.28281764,24.5387553 5.41483694,24.5358571 5.52,24.471 L9.06,22.601 C9.25884014,22.4798734 9.38012862,22.2638283 9.38,22.031 L9.38,9.331 C9.37222779,9.08467298 9.23549402,8.86058151 9.02,8.741 Z M20.06,13.171 L16.27,11.001 C16.0628124,10.880902 15.8071876,10.880902 15.6,11.001 L11.74,13.151 C11.5298681,13.273268 11.4004275,13.4978854 11.4,13.741 L11.4,18.141 C11.4004275,18.3841146 11.5298681,18.608732 11.74,18.731 L15.6,20.951 C15.8071876,21.071098 16.0628124,21.071098 16.27,20.951 L20.06,18.751 C20.2701319,18.628732 20.3995725,18.4041146 20.4,18.161 L20.4,13.761 C20.4020773,13.5172199 20.2719636,13.2914345 20.06,13.171 Z" id="Combined-Shape-Copy" fill="#000" fill-rule="nonzero"/></g></svg>