<svg width="32" height="32" viewBox="0 0 32 32" version="1.1" xmlns="http://www.w3.org/2000/svg" xmlns:xlink="http://www.w3.org/1999/xlink"><title>svg/black/xin</title><desc>Created with Sketch.</desc><g id="black/xin" stroke="none" stroke-width="1" fill="none" fill-rule="evenodd"><circle id="Combined-Shape" fill="#000" fill-rule="nonzero" cx="16" cy="16" r="16"/><g id="Mixin-(XIN)" transform="translate(5.000000, 7.000000)" fill="#FFF" fill-rule="nonzero"><path d="M21.405,0.151 L17.775,1.761 C17.5593335,1.87898352 17.4251547,2.10517052 17.425,2.351 L17.425,15.331 C17.4242005,15.5798011 17.5633852,15.8079093 17.785,15.921 L21.415,17.491 C21.5202504,17.5484852 21.6480807,17.5458951 21.7509163,17.4841938 C21.8537518,17.4224925 21.9161926,17.3109199 21.915,17.191 L21.915,0.451 C21.9111603,0.331021662 21.8461025,0.221381127 21.7426361,0.16051855 C21.6391698,0.0996559731 21.511731,0.0960632517 21.405,0.151 Z M4.02,1.741 L0.5,0.141 C0.394749559,0.0835148367 0.266919254,0.0861048839 0.164083722,0.147806203 C0.0612481899,0.209507522 -0.0011925834,0.321080122 -1.11021625e-15,0.441 L-1.11021625e-15,17.181 C8.74034948e-05,17.3045544 0.0670016019,17.4183964 0.174909619,17.4785759 C0.282817637,17.5387553 0.414836941,17.5358571 0.52,17.471 L4.06,15.601 C4.25884014,15.4798734 4.38012862,15.2638283 4.38,15.031 L4.38,2.331 C4.37222779,2.08467298 4.23549402,1.86058151 4.02,1.741 Z M15.06,6.171 L11.27,4.001 C11.0628124,3.88090195 10.8071876,3.88090195 10.6,4.001 L6.74,6.151 C6.52986808,6.27326796 6.40042751,6.49788543 6.4,6.741 L6.4,11.141 C6.40042751,11.3841146 6.52986808,11.608732 6.74,11.731 L10.6,13.951 C10.8071876,14.071098 11.0628124,14.071098 11.27,13.951 L15.06,11.751 C15.2701319,11.628732 15.3995725,11.4041146 15.4,11.161 L15.4,6.761 C15.4020773,6.51721991 15.2719636,6.29143449 15.06,6.171 Z" id="Shape"/></g></g></svg>