<svg height="32" viewBox="0 0 32 32" width="32" xmlns="http://www.w3.org/2000/svg"><path d="m16 32c-8.836556 0-16-7.163444-16-16s7.163444-16 16-16 16 7.163444 16 16-7.163444 16-16 16zm7-12.4599018-.7414634-.2258592c-.1430902.3535205-.3089422.6939427-.497561 1.0212765-.1886188.3273339-.3934948.6186567-.6146341.8739771-.2211394.2618671-.4829254.4795409-.7853659.6530279-.3024405.1734869-.6357705.2602291-1 .2602291h-7.404878l6.4878048-7.3649755v-.3142389l-5.2487804-6.54009821h3.502439c.4943114 0 .9186974.02127638 1.2731707.06382979.3544733.0425534.6325193.11292913.8341463.21112929.2861803.1178402.6113803.4173462.9756098.89852701.3642295.4811808.8065015 1.20621442 1.3268293 2.17512272h.7902439l-.4292683-4.2520458h-12.33170733v.99181669l6.65365853 8.37643211-6.7902439 7.7184942v.913257h12.5170732z" fill-rule="evenodd"/></svg>