<svg width="32" height="32" viewBox="0 0 32 32" version="1.1" xmlns="http://www.w3.org/2000/svg" xmlns:xlink="http://www.w3.org/1999/xlink"><title>black/xmo</title><desc>Created with Sketch.</desc><g id="black/xmo" stroke="none" stroke-width="1" fill="none" fill-rule="evenodd"><circle id="Combined-Shape" fill="#000" fill-rule="nonzero" cx="16" cy="16" r="16"/><g id="Monero-Original-(XMO)" transform="translate(4.000000, 4.000000)" fill="#FFF" fill-rule="nonzero"><path d="M24,12 C24,18.628125 18.628125,24 12,24 C5.371875,24 0,18.628125 0,12 C0,9.31875 0.88125,6.84375 2.3625,4.846875 L4.321875,6.80625 C3.28125,8.334375 2.728125,10.14375 2.728125,12 C2.728125,17.109375 6.88125,21.2625 11.990625,21.2625 C17.1,21.2625 21.253125,17.109375 21.253125,12 C21.253125,10.134375 20.690625,8.334375 19.659375,6.80625 L21.61875,4.846875 C23.11875,6.84375 24,9.31875 24,12" id="Shape"/><path d="M18.6375,12 C18.6375,15.665625 15.65625,18.6375 12,18.6375 C8.34375,18.6375 5.3625,15.665625 5.3625,12 C5.3625,10.846875 5.6625,9.7125 6.234375,8.709375 L12,14.475 L17.765625,8.709375 C18.3375,9.7125 18.6375,10.846875 18.6375,12" id="Shape"/><path d="M19.846875,2.925 L12,10.7625 L6.01875,4.790625 L4.153125,2.925 C6.253125,1.096875 9,0 12,0 C15,0 17.7375,1.096875 19.846875,2.925" id="Shape"/></g></g></svg>