<svg height="32" viewBox="0 0 32 32" width="32" xmlns="http://www.w3.org/2000/svg"><path d="m16 32c-8.836556 0-16-7.163444-16-16s7.163444-16 16-16 16 7.163444 16 16-7.163444 16-16 16zm5.0491803-11h4.568306c.7635413 0 1.3825137-.6415432 1.3825137-1.4329268 0-.7913837-.6189724-1.4329269-1.3900867-1.4329058l-2.6372357.0173478c.6812386-2.1818182 1.0218579-3.6161617 1.0218579-4.3030304 0-1.8181818-1.2622951-2.8484848-2.7650273-2.8484848-1.6229508 0-2.7650273.8484848-3.4262295 1.5757576-.4808743-1.0909091-1.5628415-1.5757576-2.4043716-1.5757576s-1.8032787.2424242-2.5245902 1.1515152c-.1602914-.6868687-.6010929-1.0303031-1.3224043-1.0303031-3.41953418 0-5.13264893 0-5.13934429 0-.78013994 0-1.41256831.6376551-1.41256831 1.4242424 0 .7865874.63242837 1.4242425 1.44262295 1.4242425h3.06557377l-1.38251366 5.7575757c.04007286.8484849.44080146 1.2727273 1.20218579 1.2727273.84153005 0 1.38251365-.4848485 1.62295085-1.4545455.4408014-1.7777777.7814207-3.1111111 1.0218579-4 .3606557-1.3333333 1.1420765-1.9393939 1.9836066-1.9393939.84153 0 1.2021857.6060606 1.2021857 1.0909091 0 .3232323-.1126125.8396053-.3378375 1.5491189-.5762322 2.1281874-.8643482 3.2885821-.8643482 3.4811841 0 .4848485.1803278 1.2727273 1.262295 1.2727273.7213115 0 1.2222223-.3636364 1.5027323-1.0909091.7213115-2.7878788 1.1821493-4.5050505 1.3825136-5.1515151.3005465-.969697 1.289356-1.1515152 1.7431694-1.1515152.7814208 0 1.2021858.5454546 1.2021858 1.0909091 0 .2828283-.0713819.6025516-.2141459.9591699-.6987661 2.3070557-1.0481492 3.6843021-1.0481492 4.1317392 0 .9090909.6612022 1.2121212 1.2622951 1.2121212z"/></svg>