<svg height="32" viewBox="0 0 32 32" width="32" xmlns="http://www.w3.org/2000/svg"><path d="m16 32c-8.836556 0-16-7.163444-16-16s7.163444-16 16-16 16 7.163444 16 16-7.163444 16-16 16zm-4.495978-26.2328427 7.4136241 8.6404961 5.1529025-5.5146979s-3.1139149-5.96743292-12.5665266-3.1257982zm8.4210671 9.2907006 6.0639396 6.2419638c2.7861344-7.0462909-1.070107-11.66033505-1.070107-11.66033505zm-1.7979725 1.4689807-7.5582331 8.9342922c9.2405184 4.43584 14.1090231-2.1288178 14.1090231-2.1288178zm-.6603814-.7898781-7.98241958-8.78498601c-10.27206294 9.57486411.31813991 17.77707421.31813991 17.77707421z" fill-rule="evenodd"/></svg>