<svg height="32" viewBox="0 0 32 32" width="32" xmlns="http://www.w3.org/2000/svg"><path d="m16 32c-8.836556 0-16-7.163444-16-16s7.163444-16 16-16 16 7.163444 16 16-7.163444 16-16 16zm8-16.4381789v-7.5618211h-3.4548747v7.4745265c0 3.3134329-2.8545126 3.1529914-2.8545126 3.1529914v-10.6275179h-3.4693631v10.6275179s-2.7665258.029349-2.7665258-3.1093441v-7.5181738h-3.4547238v7.2406372c0 6.0145992 5.2843344 6.2337388 6.2066103 6.2337388v1.1677913h-2.1223966v1.5618212h2.1272261v1.7960115h3.4791729v-1.7960115h2.2248718v-1.5618212h-2.2248718v-1.153192c2.8836402 0 6.3093873-1.5037251 6.3093873-5.9271542z" fill-rule="evenodd"/></svg>