<svg height="32" viewBox="0 0 32 32" width="32" xmlns="http://www.w3.org/2000/svg"><g><path d="m16 32c-8.836556 0-16-7.163444-16-16s7.163444-16 16-16 16 7.163444 16 16-7.163444 16-16 16zm-8.5-21v10l8.5 5 8.5-5v-10l-8.5-5zm8.5 1.7059 2.8007746 1.647v3.2942l-2.8007746 1.647-2.8007746-1.647v-3.2942z"/><g transform="translate(7.5 6)"><path d="m11.3007746 10v-1.6471l-.0003524-.00020719 5.6995778-3.35269281v5zm-5.60119683 1.6473072 2.80042223 1.6467928v6.7059l-8.5-5zm0-3.29461439-.00035234.00020719v1.6471h-5.69922543v-5z" opacity=".2"/><path d="m8.5 13.2941 2.8007746-1.647v-1.6471h5.6992254v5l-8.5 5zm0-6.5882-2.80042223 1.64679281-5.69957777-3.35269281 8.5-5z" opacity=".4"/></g></g></svg>