<svg width="32" height="32" viewBox="0 0 32 32" fill="none" xmlns="http://www.w3.org/2000/svg">
<path d="M30.9105 10.24C30.1561 8.27835 29.0219 6.48488 27.5731 4.96235C26.1243 3.43981 24.3893 2.21815 22.4675 1.36736C20.5456 0.516577 18.4748 0.0533911 16.3737 0.00434968C14.2726 -0.0446917 12.1824 0.321376 10.223 1.08157C9.42719 1.38995 8.65791 1.76279 7.9228 2.19639C5.81169 3.43125 4.01172 5.13358 2.66115 7.17261C1.31058 9.21163 0.44536 11.5331 0.131942 13.9587C-0.181475 16.3843 0.0652542 18.8494 0.853178 21.1648C1.6411 23.4801 2.94925 25.584 4.67714 27.315C5.67288 28.3079 6.7978 29.1623 8.02158 29.855C10.0869 31.0451 12.3922 31.7583 14.7687 31.9425C17.1452 32.1267 19.5329 31.7771 21.7569 30.9194C23.9809 30.0618 25.985 28.7177 27.6225 26.9855C29.26 25.2533 30.4895 23.177 31.221 20.9083C31.6545 19.5698 31.9061 18.1791 31.9689 16.7736C32.0754 14.5504 31.7149 12.3295 30.9105 10.2541V10.24Z" fill="black"/>
<path d="M17.3301 25.5279H24.8978C22.8255 27.4894 20.1652 28.7099 17.3301 29V25.5279ZM7.09688 25.5279H14.6646V29C11.8295 28.7099 9.16919 27.4894 7.09688 25.5279ZM17.3301 22.8608V19.756H28.4596C28.1364 20.8475 27.6708 21.8915 27.0749 22.8608H17.3301ZM4.92242 22.8608C4.32938 21.8903 3.86478 20.8466 3.54032 19.756H14.6698V22.8608H4.92242Z" fill="white"/>
<path d="M17.3301 17.0888V15.1275L25.4019 7.0348C27.7111 9.45465 29 12.6745 29 16.0235C29 16.3778 28.9818 16.7294 28.9558 17.0784L17.3301 17.0888ZM3.04157 17.0888C3.01559 16.7398 3 16.3882 3 16.0235C2.99758 12.6738 4.28572 9.45251 6.59553 7.03219L14.6699 15.1275V17.0862L3.04157 17.0888ZM8.6271 5.29748C10.7957 3.80114 13.3662 3 15.9987 3C18.6312 3 21.2017 3.80114 23.3703 5.29748L15.9896 12.6895L8.6271 5.29748Z" fill="white"/>
</svg>
