<svg width="32" height="32" viewBox="0 0 32 32" fill="none" xmlns="http://www.w3.org/2000/svg">
<path d="M16 32C24.8365 32 32 24.8365 32 16C32 7.16345 24.8365 0 16 0C7.16345 0 0 7.16345 0 16C0 24.8365 7.16345 32 16 32Z" fill="black"/>
<path d="M23.4752 10.6368C22.9056 9.31584 21.6615 8.4864 20.224 8.4864L11.7504 8.40833H11.7248C10.3258 8.40833 9.09443 9.19808 8.53763 10.4806C7.95523 11.7888 8.20099 13.2659 9.18531 14.3155L10.3514 15.5725L12.1139 13.6678L11.0899 12.5542C10.688 12.1139 10.8442 11.6608 10.9082 11.5174C10.9735 11.3626 11.2064 10.9862 11.7248 10.9862H11.7376L20.2099 11.0643C20.7923 11.0643 21.0394 11.5174 21.1034 11.6608C21.1815 11.8298 21.3107 12.2701 20.9485 12.6579L16.7514 17.2186C16.5184 17.4643 16.233 17.504 16.0909 17.504C15.8183 17.504 15.5597 17.3875 15.3779 17.1802L14.665 16.416L12.9024 18.3206L13.472 18.9299C14.1453 19.6557 15.104 20.0832 16.0896 20.0832C17.0611 20.0832 18.0071 19.6685 18.6547 18.9555L22.8519 14.3949C23.7991 13.3824 24.032 11.9322 23.4752 10.6368Z" fill="white"/>
<path d="M22.9823 17.4516L21.7906 16.1562L19.7567 18.3591L20.7807 19.4727C21.0534 19.771 20.9753 20.0948 20.8972 20.2625C20.846 20.379 20.6514 20.7412 20.1842 20.7412L11.712 20.8193C11.2845 20.8193 11.1155 20.5339 11.0643 20.4046C10.999 20.2753 10.8953 19.9258 11.2064 19.5879L15.4816 14.9632C15.6364 14.7943 15.831 14.7047 16.0511 14.7047C16.1676 14.7047 16.3878 14.7303 16.5695 14.9248L17.4502 15.8836L19.4841 13.6807L18.7711 12.9037C18.071 12.1523 17.0867 11.712 16.0639 11.712C15.0144 11.712 14.0172 12.1523 13.3043 12.9293L9.02912 17.554C7.99233 18.6676 7.73377 20.2228 8.34305 21.6091C8.93952 22.9569 10.2349 23.7992 11.712 23.7992L20.2111 23.7211C21.7138 23.7083 23.0348 22.8404 23.6313 21.4414C24.2392 20.0679 23.9935 18.5396 22.9823 17.4516Z" fill="white"/>
</svg>
