<svg height="32" viewBox="0 0 32 32" width="32" xmlns="http://www.w3.org/2000/svg"><path d="m16 32c-8.836556 0-16-7.163444-16-16s7.163444-16 16-16 16 7.163444 16 16-7.163444 16-16 16zm-.0077538-5c6.1722412-.0077642 10.9961209-4.9962938 11.0077447-10.9980578.0077492-6.06776008-4.9207447-10.99805778-10.9844971-11.0019399-6.08312529-.00388213-11.0154938 4.9147692-11.0154938 10.9864114 0 6.0832886 4.9168701 11.0097042 10.9922462 11.0135863zm-4.4829146-5.970707c3.7183265.0025881 7.4353615 0 11.1511049-.0077642-1.9334265 2.6980763-6.0560031 4.3130399-9.9887243 2.5583198-4.06058302-1.8090699-5.68016671-6.3278624-4.53328448-9.9304736h.13561108c2.2601846-.0012941 4.5216607 0 6.7844283.0038821.085213.008839.1664627-.0381269.2014793-.1164637.4339555-.7764249.8756601-1.5489676 1.3134902-2.3253924.0309968-.0504676.058119-.1048174.096865-.1785777h-7.17963774c-.0038746-.0116464-.0116238-.0194107-.0154984-.031057.15885868-.186342.30996817-.3804482.47657606-.5590259 1.27086948-1.37427197 2.82071038-2.24386778 4.66114638-2.56996621 1.8481852-.32609843 3.6111292-.05434974 5.2849573.79971758.6738564.3390494 1.294029.77597525 1.840436 1.29662947 1.2166251 1.16463726 2.0419153 2.55831986 2.4177517 4.20822256.3124411 1.3624529.2764574 2.7818944-.1046142 4.126698-.0193731.0737604-.0464953.1048174-.1317365.1048174-2.5159083-.0025881-5.0331082-.0038821-7.5515996-.0038821-.0271222 0-.0542444 0-.1046142-.0038821 1.3948567-2.4573847 2.7780897-4.8992408 4.1729465-7.3605075h-.1433603c-1.003522 0-2.0109185 0-3.0144405-.0038821-.064614-.0073645-.1262748.0290702-.1511094.0892888-.8588702 1.5204987-1.7203234 3.0397033-2.5843597 4.5576138-.986732 1.7327215-1.9721724 3.4667369-2.9563214 5.2020464-.0232476.0388213-.0464952.0854068-.077492.1436386zm12.6428267 1.8983587-1.441352-1.4674429c2.6424787-3.2687486 2.5339898-7.8224802-.0271222-10.9010047.4881999-.4930298.9802743-.98605952 1.4839726-1.49461779 1.6157091 1.96047269 2.4797454 4.17716559 2.541739 6.70054629.0774921 3.062996-1.1623806 5.6135516-2.5572374 7.1625191z" fill-rule="evenodd"/></svg>