<svg width="32" height="32" viewBox="0 0 32 32" fill="none" xmlns="http://www.w3.org/2000/svg">
<path d="M15.9427 32C24.7475 32 31.8853 24.8366 31.8853 16C31.8853 7.16344 24.7475 0 15.9427 0C7.13777 0 0 7.16344 0 16C0 24.8366 7.13777 32 15.9427 32Z" fill="black"/>
<path d="M5.73476 21.7143C3.67024 18.1714 3.67024 13.1429 6.07884 9.48572L10.0932 13.4857C10.0932 13.4857 9.40501 15.0857 9.7491 16.8L8.37275 18.4C7.56988 16.2286 8.14336 13.8286 8.14336 13.8286L6.65232 12.5714C5.16128 16.8 6.99641 20.2286 6.99641 20.2286L5.73476 21.7143Z" fill="white"/>
<path d="M26.2652 10.0571C28.3297 13.6 28.3298 18.6286 25.9211 22.2857L21.9068 18.2857C21.9068 18.2857 22.595 16.6857 22.2509 14.9714L23.6272 13.3714C24.4301 15.5428 23.8566 17.9428 23.8566 17.9428L25.3477 19.4286C26.8387 15.2 25.0036 11.7714 25.0036 11.7714L26.2652 10.0571Z" fill="white"/>
<path d="M25.3477 8.57142L14.3369 22.0571C14.3369 22.0571 18.1219 23.4286 21.1039 19.7714L24.8889 23.5429C21.448 28.1143 12.2724 29.9429 6.65233 23.2L17.6631 9.71428C17.6631 9.71428 13.6487 8.34285 10.8961 12L7.11111 8.11428C11.4695 2.62857 21.1039 2.85714 25.3477 8.57142ZM9.63441 8.22857L10.8961 9.48571C15.828 5.82857 20.4158 9.14285 20.4158 9.14285L9.06093 23.0857C13.0753 26.8571 18.9247 26.6286 22.3656 23.5429L21.1039 22.2857C15.828 26.0571 11.4695 22.7429 11.4695 22.7429L22.9391 8.79999C19.957 5.71428 14.1075 4.57142 9.63441 8.22857Z" fill="white"/>
</svg>
