<svg xmlns="http://www.w3.org/2000/svg" width="32" height="32" viewBox="0 0 32 32">
  <path fill-rule="evenodd" d="M16,32 C7.163444,32 0,24.836556 0,16 C0,7.163444 7.163444,0 16,0 C24.836556,0 32,7.163444 32,16 C32,24.836556 24.836556,32 16,32 Z M16,30 C23.7319865,30 30,23.7319865 30,16 C30,8.2680135 23.7319865,2 16,2 C8.2680135,2 2,8.2680135 2,16 C2,23.7319865 8.2680135,30 16,30 Z M8,8 L24,8 L24,24 L8,24 L8,20.8 L20.8,20.8 L20.8,11.2 L17.6,11.2 L17.6,17.6 L8,17.6 L8,14.4 L14.4,14.4 L14.4,11.2 L8,11.2 L8,8 Z"/>
</svg>
