<svg height="32" width="32" xmlns="http://www.w3.org/2000/svg"><g fill="none" fill-rule="evenodd"><circle cx="16" cy="16" fill="#f8e42c" r="16"/><path d="M9.009 19.198v-6.155c0-.889.228-1.73.57-2.543a7.079 7.079 0 0 1 1.853-2.58 7.504 7.504 0 0 1 2.693-1.542c.816-.264 1.653-.404 2.506-.374.492.018.984.12 1.47.211a7.21 7.21 0 0 1 1.97.687c.678.348 1.3.772 1.837 1.307a7.752 7.752 0 0 1 1.725 2.621c.075.185.153.37.22.557.08.216.014.31-.213.31-.847.001-1.694.018-2.54-.009-.409-.013-.824-.095-1.181-.313-.168-.102-.301-.265-.435-.413a3.807 3.807 0 0 0-1.48-1.022 3.771 3.771 0 0 0-2.08-.187c-.855.16-1.575.543-2.151 1.18-.498.55-.839 1.18-.926 1.922-.033.273-.06.55-.061.825-.003 2.839-.011 5.678.009 8.517.007 1.107-.405 2.018-1.195 2.774a3.587 3.587 0 0 1-1.666.9c-.246.06-.499.1-.75.129-.053.006-.138-.069-.168-.127-.03-.056-.01-.138-.01-.21v-6.465zm4.506-3.502c.431.51.901.904 1.474 1.168.643.295 1.324.434 2.024.343 1.11-.144 2.028-.644 2.706-1.541.201-.267.498-.402.818-.452a6.98 6.98 0 0 1 .994-.076c.748-.01 1.496-.004 2.244-.002.246 0 .259.014.187.234a9.045 9.045 0 0 1-1.571 2.891c-.75.929-1.643 1.684-2.764 2.135-.503.202-1.04.368-1.575.435-.704.088-1.424.098-2.134.07-.471-.017-.939-.15-1.405-.246-.262-.054-.517-.134-.775-.204-.144-.038-.24-.103-.24-.278.005-1.445.003-2.89.003-4.335 0-.032.006-.063.014-.142z" fill="#fff"/></g></svg>