<svg width="33" height="32" viewBox="0 0 33 32" fill="none" xmlns="http://www.w3.org/2000/svg">
<g clip-path="url(#clip0)">
<path d="M16.5558 32C25.3923 32 32.5558 24.8366 32.5558 16C32.5558 7.16344 25.3923 0 16.5558 0C7.71923 0 0.555786 7.16344 0.555786 16C0.555786 24.8366 7.71923 32 16.5558 32Z" fill="white"/>
<path d="M10.8756 17.1054L11.4494 12.5247L6.47244 8.85364L11.0198 10.4903L12.0938 8.73953L16.0152 6.15411L24.6589 11.2141L25.1068 18.9345L21.256 24.6204L18.2121 25.116L19.7862 22.0546V19.1073L18.6417 16.8055L17.4788 15.9872L15.6899 17.9466V20.0201L14.2938 21.409L12.5203 21.6372L11.7348 22.11L10.446 21.6731L9.90905 19.6191L10.8756 18.1748V17.1054Z" fill="white"/>
<path d="M18.8228 8.81451C17.8746 8.60585 16.8375 8.66127 16.8375 8.66127C16.8375 8.66127 16.4969 10.3338 14.3859 10.7739C14.4012 10.7739 17.175 11.7814 18.8228 8.81451Z" fill="#94A6C3"/>
<path d="M19.6819 23.9911C20.8264 23.0391 21.6856 21.7285 22.0814 20.245C22.0998 20.1896 22.2594 20.0918 22.3668 20.0168C22.5447 19.9027 22.7258 19.8082 22.7595 19.6549C22.8301 19.2181 22.8669 18.7616 22.8669 18.3052C22.8669 18.1356 22.7043 17.9628 22.5447 17.7933C22.4189 17.6792 22.2931 17.5455 22.2931 17.451C22.1151 15.7198 21.3634 14.1027 20.1636 12.9257L20.0378 13.0594C21.2008 14.22 21.9525 15.798 22.1151 17.4705C22.1336 17.6238 22.2747 17.7737 22.4189 17.927C22.5447 18.0411 22.6889 18.2139 22.6889 18.2889C22.6889 18.7258 22.6521 19.1626 22.5815 19.5995C22.5631 19.6745 22.4036 19.7527 22.2778 19.8277C22.0998 19.9223 21.9372 20.0168 21.9034 20.1701C21.4739 21.7872 20.4889 23.1956 19.1818 24.1085C19.415 23.5771 20.1483 21.8458 20.5411 20.9688L20.4705 18.1552L18.1968 15.8176L16.9081 16.0067L15.4935 18.4421C15.4935 18.4421 16.1563 19.3354 15.2235 20.382C14.3122 21.409 13.5942 21.6372 13.5942 21.6372L12.9314 21.2557C13.1278 20.9884 13.5236 20.5906 13.8274 20.3233C14.346 19.8669 14.8645 19.8277 14.8645 19.3354C14.886 18.3052 13.8458 18.5888 13.8458 18.5888L13.4684 18.9703L13.3088 20.3787L12.5233 21.4253L12.4344 21.4057L11.1456 21.1025C11.1456 21.1025 11.9342 20.6656 12.06 20.1701C12.1858 19.6941 11.8084 18.1161 11.79 18.0215C11.8084 18.0411 12.1674 18.3639 12.327 18.8953C12.6123 18.0574 12.9897 17.2586 13.0971 17.1836C13.2045 17.1086 14.6528 16.2903 14.6528 16.2903L14.1711 17.6401L14.5301 17.4314L15.3892 15.1883C15.3892 15.1883 16.23 14.7515 16.8559 14.7515C17.982 14.7319 19.6482 13.268 18.8964 10.6435C19.1112 10.738 22.8332 12.717 23.4775 16.5968C23.9593 19.5799 22.3668 22.374 19.6819 23.9911Z" fill="#94A6C3"/>
<path d="M15.423 9.23181C15.8342 8.71668 15.6746 7.95703 15.6746 7.95703L14.4749 9.84148C14.4565 9.84148 14.9014 9.86105 15.423 9.23181Z" fill="#1B314F"/>
<path d="M11.3942 19.5213L11.5384 18.7617C11.5384 18.7617 10.9462 19.8637 10.894 20.0169C10.8388 20.1897 10.9309 20.4929 11.161 20.4734C11.3942 20.4538 11.6796 20.0919 11.6796 19.8278C11.6796 19.4855 11.3942 19.5213 11.3942 19.5213Z" fill="#1B314F"/>
<path d="M22.0262 7.42562C22.0262 7.42562 22.9222 7.46474 23.8519 7.57885C21.7562 5.82808 19.7709 5.31621 18.16 5.31621C15.9416 5.31621 14.438 6.28778 14.346 6.3432L15.0456 5.16298C15.0456 5.16298 12.2533 4.87607 11.2684 8.01573C11.0168 7.35063 10.7866 6.37907 10.7866 6.37907C10.7866 6.37907 9.33529 7.73209 10.0165 9.97517C8.35033 9.32963 5.97232 8.43305 5.88027 8.41675C5.75446 8.39719 5.71764 8.45587 5.71764 8.45587C5.71764 8.45587 5.68082 8.5113 5.78821 8.60911C5.98766 8.77538 9.74645 11.7259 10.5719 12.2965C10.3939 12.9812 10.3939 13.3039 10.5719 13.6267C10.8235 14.0636 10.8388 14.2918 10.8051 14.6146C10.7682 14.9373 10.446 17.7347 10.3755 18.077C10.3049 18.4193 9.55314 19.6354 9.5869 19.9973C9.62372 20.3592 10.087 21.8981 10.5013 22.0709C10.8051 22.185 11.5568 22.4327 12.057 22.4327C12.2349 22.4327 12.3976 22.3936 12.4681 22.3186C12.7719 22.035 12.8609 21.9763 13.0757 21.9763C13.0941 21.9763 13.1125 21.9763 13.1278 21.9763C13.2168 21.9763 13.3242 21.9959 13.45 21.9959C13.7354 21.9959 14.1128 21.9372 14.3797 21.6731C14.7725 21.2558 15.4537 20.6852 15.6685 20.4179C15.9385 20.056 16.0796 19.5637 16.0091 19.0681C15.9538 18.6117 16.187 18.2107 16.457 17.8129C16.7976 17.3369 17.4236 16.4827 17.4236 16.4827C18.6602 17.4673 19.4303 18.9703 19.4303 20.6428C19.4303 23.6097 16.9971 26.006 13.9901 26.006C13.5237 26.006 13.0787 25.9506 12.6307 25.8365C14.0085 26.3484 15.1714 26.5212 16.1226 26.5212C18.1447 26.5212 19.2186 25.7419 19.2186 25.7419C19.2186 25.7419 18.8443 26.2571 18.2337 26.8439C18.2521 26.8439 18.2521 26.8439 18.2521 26.8439C21.5997 26.3484 23.229 23.4206 23.229 23.4206C23.229 23.4206 23.1032 24.3726 22.9436 25.0182C27.3959 21.4612 26.6441 17.0109 26.6257 16.8609C26.6626 16.9163 27.1105 17.4869 27.3407 17.7934C28.0587 9.95561 22.0262 7.42562 22.0262 7.42562ZM15.1714 19.9419C15.1008 20.0364 14.797 20.3233 14.5823 20.532C14.3675 20.7407 14.1343 20.9493 13.9563 21.1417C13.8857 21.2167 13.7415 21.2558 13.5267 21.2558C13.4562 21.2558 13.3825 21.2558 13.3303 21.2558C13.2935 21.2558 13.2598 21.2558 13.223 21.2558C13.1861 21.2558 13.1677 21.2558 13.1524 21.2558C13.0971 21.2558 13.045 21.2558 12.9898 21.2558C13.2598 20.8743 14.0453 20.0006 14.3153 19.8115C14.6375 19.5833 14.8001 19.355 14.6007 18.9573C14.4043 18.5563 13.8857 18.6541 13.8857 18.6541C13.8857 18.6541 14.1895 18.5204 14.4595 18.5204C14.1189 18.4258 13.6893 18.5204 13.493 18.7291C13.2782 18.9377 13.315 19.6811 13.226 20.1538C13.137 20.6494 12.8333 20.8971 12.3669 21.3536C12.1153 21.6014 11.9373 21.6764 11.7931 21.6764C11.4893 21.6209 11.1303 21.5231 10.8787 21.4286C10.7007 21.1808 10.4307 20.3625 10.3601 20.0201C10.4123 19.831 10.6271 19.43 10.7345 19.2018C10.9493 18.7649 11.0751 18.5171 11.1119 18.2889C11.1825 17.9661 11.4157 15.9676 11.5046 15.133C11.7378 15.4557 12.06 15.9904 11.9864 16.3327C12.5049 15.5535 12.1306 14.7906 11.9496 14.4874C11.79 14.1842 11.5752 13.5745 11.7532 12.929C11.9312 12.2835 12.5755 10.4936 12.5755 10.4936C12.5755 10.4936 12.7903 10.8946 13.0941 10.8163C13.3979 10.7413 15.8495 6.82247 15.8495 6.82247C15.8495 6.82247 16.5123 8.36133 15.8127 9.48613C15.0977 10.6077 14.3981 10.8163 14.3981 10.8163C14.3981 10.8163 15.3831 11.0054 16.2944 10.3012C16.6688 11.2336 17.0278 12.2019 17.0462 12.3356C16.9909 12.4693 16.276 14.2951 16.2054 14.4092C16.1686 14.4483 15.9201 14.5233 15.739 14.5624C15.4353 14.6569 15.2573 14.7156 15.1837 14.7711C15.0579 14.8852 14.4841 16.5577 14.2171 17.376C13.8949 17.4706 13.5727 17.6629 13.3396 18.0411C13.4654 17.9466 13.8581 17.8879 14.1465 17.852C14.3981 17.8325 15.1652 18.2694 15.3647 19.0877C15.3647 19.1072 15.3647 19.1072 15.3647 19.1268C15.4046 19.4268 15.3156 19.7137 15.1714 19.9419ZM13.4899 20.1701C13.6525 19.9223 13.6341 19.505 13.6525 19.3713C13.6709 19.2377 13.7047 18.9899 13.8489 18.954C13.9931 18.9149 14.3337 18.9736 14.3337 19.2377C14.3337 19.4854 14.0821 19.5409 13.9041 19.7137C13.7753 19.8441 13.5237 20.131 13.4899 20.1701ZM20.6301 16.5349C20.808 15.5666 20.8265 14.7287 20.7743 14.044C21.4708 15.0319 21.9004 16.2317 22.0262 17.4673C22.0446 17.6206 22.1858 17.7705 22.33 17.9238C22.4558 18.0379 22.6 18.1911 22.6 18.2857C22.6 18.7225 22.5632 19.1594 22.4926 19.5996C22.4742 19.655 22.3146 19.7528 22.1888 19.8278C22.0109 19.9223 21.8482 20.0169 21.8145 20.1701C21.4217 21.634 20.5779 22.9283 19.4518 23.8412C21.1149 21.9959 21.9188 18.9508 20.6301 16.5349ZM19.504 24.0107C20.6669 23.0587 21.5629 21.7285 21.9556 20.2255C21.974 20.1701 22.1336 20.0723 22.241 19.9973C22.419 19.9028 22.6 19.7886 22.6337 19.6354C22.7043 19.1985 22.7411 18.7421 22.7411 18.2857C22.7411 18.1161 22.5785 17.9433 22.419 17.7738C22.33 17.6597 22.1858 17.526 22.1858 17.4315C22.0415 16.0426 21.523 14.7319 20.7191 13.6463C20.3601 11.3641 18.9302 10.6598 18.8934 10.6403C18.9302 10.699 19.8599 12.1237 19.2155 13.7962C18.5528 15.4883 16.8529 15.2242 16.7087 15.2405C16.5644 15.2405 16.0121 16.0002 15.3125 17.4086C15.2235 17.3695 14.8461 17.275 14.4166 17.3532C14.7387 16.4012 15.2235 15.0514 15.3125 14.9373C15.3494 14.8982 15.6163 14.8232 15.7973 14.7678C16.1379 14.6733 16.2975 14.6146 16.3527 14.5396C16.3895 14.4809 16.5675 14.044 16.7455 13.5876C16.9081 13.5876 17.3193 13.5484 17.353 13.5289C17.3898 13.4898 17.7304 12.5606 17.7304 12.4465C17.7304 12.3519 17.0308 10.5066 16.7639 9.80237C16.8897 9.64914 17.0155 9.46004 17.1382 9.25138C20.808 9.67196 23.6739 12.9812 23.6739 16.9913C23.6739 20.0723 21.974 22.7555 19.504 24.0107Z" fill="#1B314F"/>
<path d="M14.7418 13.7408C15.0824 13.3235 14.9044 12.5442 14.2754 12.4106C14.438 12.0128 14.6682 11.2141 14.6682 11.2141C14.6682 11.2141 12.8425 14.2559 12.6829 14.3146C12.5203 14.3733 12.3607 13.7049 12.3607 13.7049C12.0201 15.0938 12.9345 15.2829 13.0419 14.846C13.5421 14.7091 14.4012 14.1385 14.7418 13.7408Z" fill="#1B314F"/>
<path d="M13.183 14.4809L14.1128 12.7888C14.1128 12.7888 14.6498 13.0757 14.3797 13.5322C14.0422 14.0636 13.183 14.4809 13.183 14.4809Z" fill="#FFD923"/>
<path d="M24.6926 22.3187C24.4226 22.7001 24.1188 23.0979 23.7629 23.4793C26.0703 18.7617 23.8703 14.445 23.7813 14.2755C23.9439 14.4483 24.1035 14.6374 24.2477 14.8069C26.0182 16.8968 26.233 20.0364 24.6926 22.3187Z" fill="#D82122"/>
<path d="M26.8405 16.2512C26.0335 13.9495 24.889 11.99 22.3668 10.2229C19.9335 8.51128 17.3192 8.64495 17.175 8.66451C17.1566 8.66451 17.1382 8.66451 17.1382 8.66451C17.2272 8.62539 17.3162 8.60583 17.4051 8.58953C17.9605 8.40043 18.6755 8.24719 19.3935 8.15265C21.2928 7.86248 23.2075 8.54714 24.5146 10.0143C24.533 10.0338 24.533 10.0338 24.5515 10.0534C26.0366 11.7259 26.8067 13.8158 26.8405 16.2512Z" fill="#D82122"/>
<path d="M21.793 6.83549C19.1265 6.30407 17.4082 6.56815 16.1717 7.06371C16.1349 6.91048 16.009 6.60727 15.9017 6.35949C15.5304 6.83549 15.1346 7.40604 14.886 7.76793C14.2048 8.2635 13.9195 8.7395 13.9195 8.7395C14.3122 7.31149 15.4598 6.24864 16.8559 5.9813C17.2487 5.90631 17.6783 5.86719 18.1447 5.86719C19.3782 5.88675 20.6116 6.20952 21.793 6.83549Z" fill="#D82122"/>
<path d="M11.9312 10.487C9.83851 10.412 10.535 7.82337 10.5719 7.6734C10.5719 7.69296 10.713 9.70782 11.9312 10.487Z" fill="#D82122"/>
<path d="M13.9901 5.82812C12.3791 6.85512 12.7013 9.30686 12.7013 9.30686C11.161 6.81925 13.8643 5.88681 13.9901 5.82812Z" fill="#D82122"/>
<path d="M11.342 11.1717C11.4494 11.2662 11.5568 11.439 11.431 11.6868C11.3604 11.8205 11.253 11.8009 11.0904 11.7259C10.8756 11.6118 9.5869 10.813 8.42398 9.99469C9.74953 10.4903 11.0904 11.0217 11.3052 11.1358C11.3052 11.1358 11.3236 11.1554 11.342 11.1717Z" fill="white"/>
</g>
<defs>
<clipPath id="clip0">
<rect width="32" height="32" fill="white" transform="translate(0.555786)"/>
</clipPath>
</defs>
</svg>
