<svg width="32" height="33" viewBox="0 0 32 33" fill="none" xmlns="http://www.w3.org/2000/svg">
<g clip-path="url(#clip0)">
<path d="M31.9999 16.7862C32.0109 25.5407 24.9155 32.7834 16.0027 32.7834C7.08983 32.7834 -0.00551585 25.5353 -5.78885e-05 16.7753C0.00540007 8.01524 7.08983 0.783447 16.0081 0.783447C24.9264 0.783447 32.0163 8.03707 31.9999 16.7862Z" fill="#FE9B00"/>
<path d="M28.2995 18.7729C28.2722 18.7183 28.294 18.6747 28.294 18.631C28.3868 17.6813 27.781 16.8408 26.864 16.6443C26.2636 16.5188 25.7288 16.688 25.2703 17.0809C24.7136 17.5558 24.1842 18.0634 23.6602 18.5764C23.0216 19.2041 22.3958 19.8427 21.7827 20.4922C21.3515 20.9506 20.8493 21.3054 20.249 21.5128C18.557 22.0913 16.7068 21.1853 16.0627 19.6134C15.9863 19.4224 15.9918 19.3842 16.1446 19.2532C16.4994 18.9421 16.8596 18.6364 17.2143 18.3253C17.2253 18.3144 17.2362 18.309 17.2471 18.2981C17.2908 18.2708 17.3235 18.2053 17.3781 18.2326C17.4327 18.2598 17.3999 18.3199 17.4054 18.3635C17.4269 18.7855 17.5953 19.1867 17.8813 19.4977C18.1674 19.8086 18.5531 20.0098 18.9718 20.0664C19.8396 20.1865 20.7074 19.6571 20.9694 18.8275C21.2805 17.845 20.762 16.8681 19.7578 16.546C19.1465 16.3496 18.5898 16.4806 18.104 16.8844C17.7056 17.2119 17.3235 17.5558 16.936 17.8996C16.6795 18.1289 16.4229 18.3635 16.161 18.5873C16.061 18.6731 15.9936 18.7907 15.9699 18.9203C15.7625 19.9736 15.1731 20.7596 14.2398 21.2781C13.6553 21.604 12.9837 21.7395 12.3186 21.6656C11.5952 21.6037 10.9115 21.3088 10.3701 20.8251C9.9873 20.4894 9.68826 20.0688 9.4968 19.597C9.48535 19.5744 9.4762 19.5506 9.46951 19.5261C9.4503 19.4862 9.4458 19.4407 9.45678 19.3978C9.46776 19.3549 9.49353 19.3172 9.52955 19.2914C9.65508 19.1877 9.77515 19.084 9.90069 18.9803C10.1572 18.7565 10.4137 18.5327 10.6757 18.3144C10.7194 18.2762 10.763 18.2107 10.8176 18.2326C10.8722 18.2544 10.8504 18.3308 10.8558 18.3854C10.8685 18.7973 11.0181 19.1932 11.281 19.5106C11.544 19.8279 11.9052 20.0485 12.3076 20.1374C12.7626 20.2343 13.2375 20.1538 13.6352 19.9124C14.0328 19.671 14.3233 19.2868 14.4472 18.8384C14.7746 17.6322 13.8195 16.4423 12.5751 16.5024C12.1958 16.5136 11.8318 16.6542 11.5435 16.9008C11.1888 17.1955 10.8395 17.5012 10.4956 17.8068C10.1408 18.1179 9.79153 18.4345 9.43676 18.7456C9.38919 18.7844 9.35117 18.8336 9.32562 18.8895C9.30007 18.9453 9.28768 19.0063 9.2894 19.0676V21.4364C9.2894 21.6602 9.25665 21.6929 9.03287 21.6874C8.82258 21.6874 8.61477 21.642 8.42358 21.5544C8.23239 21.4668 8.06231 21.3391 7.92491 21.1799C7.81575 21.0543 7.79392 21.0543 7.64655 21.1362C7.10621 21.4364 6.53313 21.6001 5.91638 21.5783C4.65013 21.5346 3.68407 20.9615 3.02912 19.8754C2.72078 19.3635 2.56196 18.7755 2.57065 18.178C2.57124 17.3936 2.8475 16.6344 3.35114 16.033C3.86419 15.4053 4.51914 14.996 5.32146 14.865C6.39122 14.6958 7.37365 14.8923 8.1978 15.64C8.45966 15.8788 8.6874 16.1524 8.87459 16.4533C8.90143 16.5137 8.94748 16.5636 9.00558 16.5952C9.04561 16.5695 9.07824 16.5339 9.10026 16.4918C9.12228 16.4497 9.13292 16.4025 9.13112 16.355C9.12566 15.8147 9.13112 15.2743 9.13112 14.7286C9.13112 13.5005 9.1293 12.2743 9.12566 11.0499C9.12566 10.8097 9.15295 10.7824 9.39856 10.7824C9.76073 10.7829 10.1101 10.9167 10.3799 11.1583C10.6497 11.3999 10.821 11.7324 10.8613 12.0924C10.8722 12.1793 10.8776 12.2668 10.8777 12.3543V15.2198C10.8831 15.3508 10.9104 15.3671 11.0305 15.3071C11.3814 15.1213 11.7618 14.9975 12.1548 14.9414C13.1318 14.805 14.0051 15.0506 14.7801 15.6619C15.0395 15.8704 15.2659 16.1169 15.4514 16.3932C15.4623 16.4127 15.4751 16.4309 15.4896 16.4478C15.5278 16.5024 15.5606 16.5624 15.6315 16.5733C15.6697 16.5788 15.7789 16.4369 15.7844 16.3769C15.7936 16.3026 15.7972 16.2278 15.7953 16.1531V12.3161C15.7953 11.5247 16.2865 10.9298 17.067 10.7824C17.1528 10.7623 17.2408 10.7531 17.329 10.7552C17.4436 10.7606 17.4927 10.8043 17.52 10.9134C17.5381 10.9995 17.5454 11.0875 17.5418 11.1754V15.2089C17.5527 15.2798 17.5746 15.3016 17.6455 15.2743C17.7383 15.2361 17.8311 15.1925 17.9239 15.1543C19.2338 14.6303 20.702 14.9469 21.6517 15.962C21.9704 16.3053 22.2189 16.7077 22.383 17.1464L22.4158 17.2447C22.4704 17.3866 22.4867 17.392 22.6014 17.2883L24.1405 15.9293C24.5719 15.536 25.0957 15.2581 25.6633 15.1215C26.4598 14.935 27.2969 15.0414 28.0214 15.4212C28.746 15.801 29.3096 16.4289 29.6094 17.1901C29.6407 17.2523 29.6503 17.3233 29.6364 17.3916C29.6225 17.4599 29.5861 17.5216 29.533 17.5667C29.1564 17.9378 28.7907 18.3144 28.4141 18.691C28.382 18.726 28.343 18.7539 28.2995 18.7729Z" fill="#191C31"/>
<path d="M26.8204 20.252C26.8191 20.2727 26.813 20.2929 26.8026 20.3109C26.7921 20.3289 26.7777 20.3442 26.7604 20.3557C26.362 20.7541 25.9635 21.1525 25.5706 21.5564C25.5385 21.594 25.4951 21.6202 25.4469 21.6311C25.3986 21.6419 25.3482 21.6368 25.3031 21.6165C24.3644 21.2671 23.7003 20.6322 23.311 19.7116C23.2509 19.5752 23.2618 19.5315 23.371 19.4387C23.7585 19.1004 24.1515 18.762 24.539 18.429C24.5635 18.4016 24.5959 18.3825 24.6318 18.3745C24.67 18.4127 24.6591 18.4618 24.6645 18.5054C24.6841 18.7622 24.7488 19.0134 24.8556 19.2477C25.1121 19.7826 25.5487 20.0882 26.1109 20.2247C26.2308 20.252 26.3538 20.263 26.4766 20.2574C26.5857 20.2465 26.7003 20.252 26.8204 20.252Z" fill="#191C31"/>
<path d="M7.79942 18.2216C7.82671 19.1931 6.9971 20.0391 5.98738 20.05C5.50497 20.0525 5.04121 19.8638 4.69754 19.5253C4.35387 19.1867 4.15827 18.7259 4.15351 18.2435C4.13714 17.2501 4.91762 16.3987 5.98738 16.3768C6.97527 16.355 7.80488 17.1628 7.79942 18.2216Z" fill="#FF9C00"/>
</g>
<defs>
<clipPath id="clip0">
<rect width="32" height="32" fill="white" transform="translate(0 0.783447)"/>
</clipPath>
</defs>
</svg>
