<svg width="32" height="32" viewBox="0 0 32 32" fill="none" xmlns="http://www.w3.org/2000/svg">
<path d="M16 32C24.8366 32 32 24.8366 32 16C32 7.16344 24.8366 0 16 0C7.16344 0 0 7.16344 0 16C0 24.8366 7.16344 32 16 32Z" fill="#901DE1"/>
<path fill-rule="evenodd" clip-rule="evenodd" d="M22.6318 7.28444C22.8771 7.39333 23.1034 7.5 23.3148 7.60222C23.5749 7.73111 23.8033 7.85111 24 7.95778V20.0333L18.6138 24.0533L16 26L8 20.0178V7.98444C8.19243 7.87778 8.42294 7.75778 8.68517 7.62667C8.74754 7.59724 8.81183 7.56641 8.87791 7.53471C9.03141 7.46108 9.19463 7.38279 9.36612 7.30667C10.6413 6.74 12.2146 6.14223 14.9786 6.02222C15.3021 6 15.6236 6 16 6C16.3764 6 16.7317 6 17.0701 6.02444C19.7854 6.14667 21.346 6.72 22.6064 7.28444H22.6318ZM18.3981 20.2489L20.4938 18.7156V10.7311L18.5419 10.3378C18.0525 10.2403 17.5583 10.1713 17.0616 10.1311C16.7042 10.1022 16.3299 10.0844 15.9894 10.0844C15.649 10.0844 15.3085 10.1022 14.968 10.1289C14.4713 10.1691 13.9771 10.238 13.4877 10.3356L11.5231 10.7289V18.7133L13.5892 20.2489V16.9822H18.3981V20.2489ZM16 12.2222C16.3574 12.2222 16.7148 12.2222 17.0701 12.2622C17.5163 12.3 17.9582 12.3578 18.4023 12.4444V14.7156H13.5913V12.4444C14.0442 12.3387 14.5167 12.2948 14.9786 12.2578C15.3169 12.2222 15.6426 12.2222 16 12.2222Z" fill="white"/>
</svg>
