<svg height="32" viewBox="0 0 32 32" width="32" xmlns="http://www.w3.org/2000/svg"><g fill="none"><circle cx="16" cy="16" fill="#134451" r="16"/><g fill="#fff" transform="translate(5 5)"><path d="m8.99882122 11.32249c-.49705305 0-.87308448.0839357-1.1324165.2429718-.25068763.1546185-.37603144.3887551-.37603144.697992 0 .2297189.07779961.4152611.22475442.5477912.15127702.1325301.36306483.1987952.62671906.1987952.41060904 0 .75206287-.1281125 1.02436149-.3799197.27229863-.2562249.45815324-.6140562.54891945-1.073494l.04322201-.2341365z"/><path d="m14.2632613 9.15341365c-.151277-.13253012-.3630648-.19879518-.6267191-.19879518-.410609 0-.7520628.12811245-1.0243615.37991968-.2722986.2562249-.4581532.61405623-.5489194 1.07349395l-.043222.2341366.9595285-.0044177c.497053 0 .8730845-.0839357 1.1324165-.2429719.2506876-.1546185.3760314-.388755.3760314-.69799195 0-.22971888-.0734774-.41084337-.2247544-.5433735z"/><path d="m21.9654224 9.71004016c-.3284872-2.96425703-5.5108055-4.79759036-11.5705305-4.09518072-6.05972491.70240964-10.70609033 3.67550201-10.3776031 6.63975906.32848723 2.964257 5.5064833 4.7975903 11.5705305 4.0951807 6.0640471-.7024096 10.7060903-3.675502 10.3776031-6.63975904zm-6.340668 1.48433734c-.6137524.4373494-1.5084479.6538153-2.6840864.6582329l-1.1410609.0044177-.0345776.1634538c-.0129666.0485944-.0172888.0839358-.0172888.1104418-.0043222.0220883-.0043222.0441767-.0043222.0618474 0 .2518072.1166994.4373494.345776.5610442.2290766.1281124.5705305.1899598 1.0157171.1899598.4235756 0 .8298625-.0485944 1.2145383-.1369478.3803536-.0883534.7477407-.2208835 1.0978389-.3975904l-.2895874 1.5550201c-.4365423.1060241-.8557957.1899599-1.2707269.2429719-.4149313.0574297-.8168959.0883534-1.2058939.0883534-.5532417 0-1.0113949-.066265-1.378782-.2076305-.3803536-.1457831-.8039292-.4638554-1.0157171-.9188755-.43222001.402008-.88172885.697992-1.33988209.8923695s-.94223969.2959839-1.45225933.2959839c-.63104126.0044177-1.1280943-.1502008-1.48251474-.4550201-.35874263-.3048192-.53595284-.7289156-.54027505-1.2634538-.0043222-.8216867.30255403-1.4445783.91198429-1.87751.61375245-.4373494 1.50844793-.6538153 2.68408644-.6582329l1.14106088-.0044177.0345776-.16345383c.0129666-.04859438.0172888-.08393575.0172888-.11044177.0043222-.02208836.0043222-.04417671.0043222-.06184739 0-.25180723-.1166994-.4373494-.345776-.56104418-.22907662-.12811245-.57053045-.18995984-1.01571709-.18995984-.42357564 0-.82986248.04859438-1.21453831.13694779-.38035364.08835342-.74774067.22088354-1.0978389.39759037l.28958742-1.55502008c.43654224-.1060241.85579568-.18995984 1.27072692-.24297189.41493124-.05742972.81689587-.08835342 1.20589391-.08835342.55324165 0 1.01139485.06626506 1.37878195.20763053.3803536.14578313.8039292.46385542 1.0157171.9188755.43222-.40200803.8817288-.69799197 1.3398821-.89236948.4581532-.19437751.9422397-.29598394 1.4522593-.29598394.6310413-.00441767 1.1280943.15020081 1.4825148.45502008.3587426.30481928.5359528.72891567.540275 1.26345382.0043222.81726903-.2982318 1.44457833-.9119843 1.87751003z"/><path d="m11.5229862 16.7032129c-.8774066.1016064-1.74616891.1502008-2.58899799.1502008-2.00550098 0-3.88133595-.282731-5.44165029-.8349398-.70884087-.2518072-1.32259332-.5477912-1.84125737-.8835341-.21178782 1.1176706-.06915521 2.1028112.47976424 2.8361445 1.57760315 2.107229 5.99056975 1.435743 10.35599211-1.4004016-.3198428.0485944-.6396856.0927711-.9638507.1325302z"/><path d="m10.4986248 5.30562249c2.9607072-.34457831 5.8133595-.10160643 8.0306483.68473896.7088408.25180722 1.3225933.54779116 1.8412574.88353413.2117878-1.11767068.0691552-2.10281124-.4797643-2.83614458-1.5776031-2.10722891-5.9905697-1.43574297-10.35599213 1.40040161.31984283-.05301205.64400783-.09718875.96385073-.13253012z"/><path d="m7.27858546 19.2654618c-.62671906.1457832-1.21453831.2253013-1.75913556.2429719.44518664 1.1795181 1.14106091 2.0056225 2.06168959 2.3148595 2.221611.7465863 5.09587431-1.7008032 7.13163061-5.7518073-.4797642.1325302-.9768173.2518073-1.4781925.3534137-1.9882122 1.4048193-4.06286837 2.3987952-5.95599214 2.8405622z"/><path d="m14.8770138 2.7124498c.626719-.14136546 1.2145383-.22088353 1.7591355-.23413655-.4408644-1.17951807-1.1324165-2.01004016-2.0530452-2.32369478-2.2172888-.75542168-5.10451864 1.67871486-7.15324162 5.71646587.47976424-.13253012.97681728-.24738956 1.48251473-.34457832 1.98821219-1.4004016 4.06719059-2.38112449 5.96463659-2.81405622z"/></g></g></svg>