<svg width="32" height="32" viewBox="0 0 32 32" fill="none" xmlns="http://www.w3.org/2000/svg">
<path d="M16 32C24.8366 32 32 24.8366 32 16C32 7.16344 24.8366 0 16 0C7.16344 0 0 7.16344 0 16C0 24.8366 7.16344 32 16 32Z" fill="white"/>
<path d="M5.06561 26.664C5.04161 26.424 4.87361 24.6096 6.61121 22.2048C8.16161 20.0592 11.9248 18.6432 15.328 17.4816L15.6304 17.3808C17.92 16.5984 21.16 15.1344 21.9088 14.424L24.2656 16.9104C22.7296 18.3648 18.3136 20.0832 16.744 20.6208L16.4368 20.7264C14.7952 21.288 10.4272 22.776 9.39041 24.216C8.43041 25.5456 8.47841 26.6496 8.47841 26.6592L5.06561 26.664Z" fill="url(#paint0_linear)"/>
<path d="M21.0592 26.7744H17.632C17.632 25.3824 17.1616 24.2112 16.7872 23.2656C16.7344 23.136 16.6864 23.0112 16.6384 22.8912C16.432 22.3584 15.568 21.072 14.8768 20.0448C14.488 19.464 14.08 18.864 13.7488 18.3312C13.6384 18.1584 13.5232 17.9808 13.408 17.7984C12.3808 16.2192 10.9744 14.0544 10.9744 10.8096C10.9744 8.95682 11.6992 7.10402 12.9664 5.72162L15.4912 8.04002C14.8096 8.78402 14.4016 9.82082 14.4016 10.8096C14.4016 13.0368 15.3568 14.5104 16.2832 15.9312C16.4128 16.128 16.5376 16.32 16.6528 16.5072C16.96 16.9968 17.3344 17.5488 17.728 18.1344C18.6352 19.488 19.4944 20.7648 19.84 21.6528C19.8832 21.7632 19.9264 21.8784 19.9744 21.9984C20.4016 23.0832 21.0592 24.7248 21.0592 26.7744Z" fill="url(#paint1_linear)"/>
<path d="M24.2656 16.9056L21.9088 14.4192C22.8208 13.5552 23.464 12.8016 23.464 10.9248C23.464 8.26077 21.2656 6.61437 19.2304 6.61437C17.608 6.61437 16.3504 7.09437 15.4864 8.03517L12.9616 5.71677C14.0224 4.55997 15.9712 3.18237 19.2352 3.18237C21.4 3.18237 23.392 4.06557 24.8416 5.66397C26.1472 7.10877 26.9008 9.02397 26.9008 10.92C26.8912 13.9968 25.6288 15.6144 24.2656 16.9056Z" fill="#FF36AF"/>
<defs>
<linearGradient id="paint0_linear" x1="14.6581" y1="26.662" x2="14.6581" y2="14.4185" gradientUnits="userSpaceOnUse">
<stop stop-color="#8D8D8D"/>
<stop offset="0.9996" stop-color="#504D4F"/>
</linearGradient>
<linearGradient id="paint1_linear" x1="16.0108" y1="26.7739" x2="16.0108" y2="5.72276" gradientUnits="userSpaceOnUse">
<stop stop-color="#D3D3D3"/>
<stop offset="0.9996" stop-color="#3B3A3C"/>
</linearGradient>
</defs>
</svg>
