<svg height="32" viewBox="0 0 32 32" width="32" xmlns="http://www.w3.org/2000/svg"><g fill="none"><circle cx="16" cy="16" fill="#6916ff" r="16"/><g fill="#fff"><path d="m17.14375 6.42424242c-.1162577-.08494714-.1508232-.23964595-.08125-.36363636.0945819-.06128021.2179181-.06128021.3125 0 .7083423.29515799 1.3465511.7283664 1.875 1.27272727.3033144.28101863.5567196.60865367.75.96969697.2040135.36756377.3714371.7531454.5 1.15151515.12347.41367331.1865831.84207695.1875 1.27272725-.0625.4242425-.125 2.4848485-1.3125 3.4545455-.3131627.1879998-.722994.1085173-.9375-.1818182-.1745956-.2063022-.1994737-.4957933-.0625-.7272727 1.0299324-1.6040201 1.0778318-3.6245077.125-5.2727273-.3995016-.56578979-.8536328-1.09342169-1.35625-1.57575758zm-1.84375 18.58181818c.125.1212121.125.2424242.0625.3030303s-.1875.1212121-.25.0606061c-.7083423-.295158-1.3465511-.7283664-1.875-1.2727273-.3033144-.2810186-.5567196-.6086537-.75-.969697-.2040135-.3675637-.3714371-.7531454-.5-1.1515151-.12347-.4136733-.1865831-.8420769-.1875-1.2727273.0625-.4242424.125-2.4848485 1.3125-3.4545455.3131627-.1879997.722994-.1085173.9375.1818182.1881847.2080839.1881847.5191889 0 .7272728-1.0299324 1.60402-1.0778318 3.6245076-.125 5.2727272.4054303.5665952.8658637 1.0942545 1.375 1.5757576z" fill-opacity=".5"/><path d="m20.69375 20.0060606c-.0877867-1.1575444-.5467073-2.2594835-1.3125-3.1515151-.7678375-.7725451-1.6530866-1.4265819-2.625-1.939394-.8467272-.4684574-1.6424404-1.0187305-2.375-1.6424242-.6080828-.5742473-1.0221579-1.3139031-1.1875-2.1212121-.1490426-.8375516-.0426024-1.69907884.30625-2.47878793.414094-.86020187 1.0128647-1.62472747 1.75625-2.24242424.0852192-.07781673.1102991-.19941607.0625-.3030303-.034394-.06441677-.0980755-.10935572-.1718632-.12128101-.0737877-.01192528-.1490571.01055695-.2031368.06067495-1.0029801.44071056-1.8505086 1.1571915-2.4375 2.06060606-.6670566.96284119-.97772 2.11656217-.88125 3.27272727.0493146.5850245.197104 1.158268.4375 1.6969697.2590918.5291629.5959283 1.0191069 1 1.4545455.7907221.7567191 1.6972443 1.3904541 2.6875 1.8787878.8483661.4400009 1.6447373.9683747 2.375 1.5757576.6459268.5708698 1.0659472 1.3425819 1.1875 2.1818182.1760426.8791298.0668708 1.7895566-.3125 2.6060606-.421124.8539637-1.0417064 1.600997-1.8125 2.1818182-.0512088.0309509-.0869587.0810392-.0987927.1384159-.0118339.0573768.0012992.1169455.0362927.1646144.034394.0644167.0980755.1093557.1718632.121281s.1490571-.010557.2031368-.060675c.9340424-.5406928 1.7426495-1.2628938 2.375-2.1212121.6192161-.9586295.9061022-2.0841415.81875-3.2121212z"/></g></g></svg>