<svg viewBox="0 0 64 64" fill="none" xmlns="http://www.w3.org/2000/svg">
<g clip-path="url(#clip0_1494_169976)">
<path d="M32.0899 0.388916C14.6677 0.388916 0.54541 14.4913 0.54541 31.8889C0.54541 49.2865 14.6677 63.3889 32.0899 63.3889C49.512 63.3889 63.6343 49.2865 63.6343 31.8889C63.6343 14.4913 49.5083 0.388916 32.0899 0.388916ZM35.8123 15.876C31.8637 17.8605 35.8531 18.6714 35.6751 19.845C35.6232 20.1745 35.3118 20.7891 34.2848 21.0298C34.2885 21.052 34.2885 21.0742 34.2848 21.1001C35.5379 20.9891 35.5899 22.2664 35.3192 22.3923C33.102 23.4252 33.4209 25.2172 34.2699 26.3242C34.7297 26.924 35.2006 27.0129 35.5157 27.4423C36.2683 28.4642 36.387 29.549 35.1931 30.6375C34.8261 30.9707 34.3293 31.341 33.6841 31.7741C33.0687 32.1851 32.3123 32.6479 31.4039 33.1848C27.7705 35.3247 24.949 35.2988 27.0364 38.5088C28.3934 40.4044 26.9288 41.9446 25.646 42.4333C24.3632 42.9184 25.038 44.603 26.6174 44.5844C23.896 44.6141 24.4299 46.1172 24.8526 46.5615C25.6423 47.3871 25.9167 48.135 23.9368 49.4642C20.8632 51.5338 24.1111 53.0777 24.1111 53.0777C26.6841 54.8142 28.5899 57.18 29.0607 57.8612C29.1163 57.9242 29.4908 58.3722 29.5279 58.6054C15.8801 57.3466 5.19481 45.8803 5.19481 31.9259C5.19481 17.9716 16.3436 6.00552 30.414 5.17242C30.4214 5.30202 30.4363 5.42792 30.4363 5.55752C30.4363 5.66112 30.4363 5.76482 30.4622 5.86482C30.4548 5.86482 30.4474 5.86482 30.4363 5.86482C30.7959 7.73082 34.5962 10.9815 37.1433 13.1141C37.1433 13.1141 38.7636 14.4284 35.8123 15.8723V15.876Z" fill="#29ABE2"/>
</g>
<defs>
<clipPath id="clip0_1494_169976">
<rect width="64" height="64" fill="white"/>
</clipPath>
</defs>
</svg>
