<svg width="32" height="33" viewBox="0 0 32 33" fill="none" xmlns="http://www.w3.org/2000/svg">
<g clip-path="url(#clip0)">
<path d="M15.8679 32.5075C24.6283 32.5075 31.7299 25.4058 31.7299 16.6455C31.7299 7.88512 24.6283 0.783447 15.8679 0.783447C7.10756 0.783447 0.00588989 7.88512 0.00588989 16.6455C0.00588989 25.4058 7.10756 32.5075 15.8679 32.5075Z" fill="url(#paint0_linear)"/>
<path d="M15.8679 7.05426V7.06307L15.8708 13.3398L17.007 16.1787L15.8738 15.2333V18.2631C15.8796 18.2719 15.8855 18.2777 15.8914 18.2866C17.7174 20.5706 19.9956 22.4788 22.5938 23.8704L15.8679 7.05426Z" fill="url(#paint1_linear)"/>
<path d="M15.8679 7.05426V7.06307L15.865 13.3398L14.7288 16.1787L15.8621 15.2333V18.2631C15.8562 18.2719 15.8503 18.2777 15.8444 18.2866C14.0184 20.5706 11.7402 22.4788 9.14206 23.8704L15.8679 7.05426Z" fill="url(#paint2_linear)"/>
<path d="M15.8679 22.1119C16.711 22.1119 17.3945 21.4284 17.3945 20.5853C17.3945 19.7421 16.711 19.0587 15.8679 19.0587C15.0247 19.0587 14.3413 19.7421 14.3413 20.5853C14.3413 21.4284 15.0247 22.1119 15.8679 22.1119Z" fill="#F5CC02"/>
</g>
<defs>
<linearGradient id="paint0_linear" x1="4.65174" y1="27.8639" x2="27.0857" y2="5.42992" gradientUnits="userSpaceOnUse">
<stop stop-color="#102054"/>
<stop offset="1" stop-color="#1A45B8"/>
</linearGradient>
<linearGradient id="paint1_linear" x1="19.2316" y1="7.00432" x2="19.2316" y2="24.0498" gradientUnits="userSpaceOnUse">
<stop stop-color="white"/>
<stop offset="1" stop-color="white" stop-opacity="0.6"/>
</linearGradient>
<linearGradient id="paint2_linear" x1="12.5067" y1="23.931" x2="12.5067" y2="7.2029" gradientUnits="userSpaceOnUse">
<stop stop-color="white"/>
<stop offset="1" stop-color="white" stop-opacity="0.6"/>
</linearGradient>
<clipPath id="clip0">
<rect width="32" height="32" fill="white" transform="translate(0 0.783447)"/>
</clipPath>
</defs>
</svg>
