<svg xmlns="http://www.w3.org/2000/svg" viewBox="0 0 32 32"><g fill="none" fill-rule="evenodd"><circle cx="16" cy="16" r="16" fill="#2DAEE4"/><path fill="#FFF" d="M8.303 11.957h.11c.963-.018 1.8-.382 2.51-1.091.69-.746 1.036-1.601 1.036-2.565 0-.491.177-.914.532-1.269a1.764 1.764 0 011.296-.532c.49 0 .914.177 1.268.532.355.355.532.778.532 1.269 0 .49-.168.914-.504 1.269a1.71 1.71 0 01-1.214.559c-1.037-.037-1.928.318-2.674 1.064s-1.1 1.619-1.064 2.62c.036 1.036.41 1.9 1.119 2.591.782.691 1.655 1.028 2.619 1.01a1.71 1.71 0 011.214.56c.336.354.504.768.504 1.24 0 .51-.177.942-.532 1.297a1.732 1.732 0 01-1.268.532c-.51 0-.941-.178-1.296-.532a1.764 1.764 0 01-.532-1.296 3.42 3.42 0 00-1.037-2.51 3.57 3.57 0 00-2.51-1.12c-.345.019-.64-.036-.886-.163a1.61 1.61 0 01-.6-.532 2.21 2.21 0 01-.328-.764 2.344 2.344 0 01-.04-.832c.236-.891.818-1.337 1.745-1.337zm.025 5.457c.473 0 .887.173 1.241.519.355.345.541.755.56 1.228-.019 1 .327 1.873 1.036 2.619.71.727 1.564 1.091 2.565 1.091h.082c.982 0 1.827-.364 2.537-1.091.727-.728 1.082-1.6 1.064-2.62a3.458 3.458 0 00-1.119-2.537c-.718-.683-1.553-1.029-2.507-1.037h-.112a1.71 1.71 0 01-1.214-.559 1.78 1.78 0 01-.505-1.269c0-.49.178-.914.532-1.269.301-.3.658-.474 1.07-.52l.12-.012.046.001a2.139 2.139 0 01.143.001c.94-.012 1.758-.367 2.457-1.066.746-.746 1.11-1.628 1.091-2.647 0-.4.137-.764.41-1.091l.027-.027.027-.028c0-.018.01-.027.027-.027l.028-.027v-.027h.027V6.99c.018 0 .027-.009.027-.027l.027-.027h.055c0-.019.01-.028.027-.028l.028-.027v-.027h.054c0-.019.01-.028.027-.028l.028-.027.027-.027h.027c0-.018.01-.027.028-.027.018 0 .027-.01.027-.028h.027l.027-.027h.055v-.027h.027l.028-.028h.054V6.61h.055l.027-.027h.055l.027-.027h.082l.027-.028h.082c.018 0 .027-.009.027-.027h.573l.014.014c.009.009.022.013.04.013h.055l.014.014c.009.009.022.014.04.014h.055l.027.027h.055l.027.027h.055c.018.018.036.027.054.027l.028.028h.054v.027h.028l.027.027.013.014c.01.01.023.014.041.014l.028.027h.027c0 .018.018.027.054.027l.028.027v.028h.027c0 .018.018.027.055.027 0 .018.009.027.027.027v.028h.027l.028.027c.018.018.036.027.054.027l.027.028c0 .018.01.027.028.027v.027h.027c0 .018.005.032.014.04l.013.015c0 .018.01.027.028.027l.027.027c0 .018.004.032.013.041l.014.014.027.027.028.027v.055l.027.027V7.4h.027c0 .019.005.032.014.041l.013.014c0 .018.01.027.028.027v.028c0 .018.004.031.013.04l.014.014.027.027c0 .037.01.055.028.055v.027c0 .019.004.032.013.041l.014.014v.054l.027.028v.082c.018.018.027.036.027.054v.082c.019.018.028.036.028.055V8.3c0 .964.345 1.819 1.036 2.565.71.709 1.556 1.073 2.538 1.091.49-.018.927.15 1.31.505.381.354.572.786.572 1.296 0 .509-.177.94-.532 1.296a1.732 1.732 0 01-1.269.532 1.78 1.78 0 01-1.268-.505 1.739 1.739 0 01-.56-1.242c.019-1-.345-1.882-1.09-2.646-.728-.728-1.61-1.082-2.647-1.064a3.57 3.57 0 00-2.51 1.119 3.419 3.419 0 00-1.037 2.51l-.001.084c.02.93.365 1.757 1.036 2.48.709.71 1.555 1.074 2.537 1.092.654-.036 1.155.2 1.5.71.346.49.455 1.01.328 1.555-.255.91-.837 1.364-1.746 1.364h-.082c-1.019.036-1.865.41-2.537 1.119-.692.691-1.037 1.537-1.037 2.537 0 .491-.177.914-.532 1.269a1.732 1.732 0 01-1.269.532h-.054c-.491 0-.91-.177-1.255-.532a1.755 1.755 0 01-.519-1.269c0-1-.345-1.846-1.036-2.537a3.57 3.57 0 00-2.51-1.119 1.793 1.793 0 01-1.35-.505 1.752 1.752 0 01-.56-1.323c0-.491.177-.914.532-1.269a1.764 1.764 0 011.296-.532z"/></g></svg>