<svg height="32" viewBox="0 0 32 32" width="32" xmlns="http://www.w3.org/2000/svg"><g fill="none"><circle cx="16" cy="16" fill="#0092b5" r="16"/><path d="m11.7594513 14.1022526 4.2827273-7.53824726c.0081161-.01427845.0235039-.02310241.0800092.00055876l4.0740077 7.4008676c-.2199793.1803909-.3599944.452115-.3599944.7560408 0 .3153256.1507156.5959886.385082.7759508l-3.7631085 6.7872241c-.1316071-.0628865-.2793491-.098155-.4354566-.098155-.1516683 0-.2954402.0332912-.4241904.0928574l-3.8734096-6.8991644c.1598253-.1743512.2571342-.4053422.2571342-.6587129 0-.2346812-.0834827-.4501626-.2228009-.6192199zm-.4090272 1.5341578 3.8878175 6.9248271c-.0830809.1036823-.1454164.2242311-.1808401.3555746-3.1382065-.7513619-5.08843319-1.2164553-5.85162265-1.3955027-.32301039-.4544159-.60547754-.9357527-.84410603-1.4384533l2.49195428-4.3862161c.0425258.0054399.0858914.0082458.1299225.0082458.1295306 0 .2533015-.024282.3668745-.0684754zm-.5390714-1.8837877-3.08735302-5.49907149c2.10382236-1.11898088 4.71533462-1.70349795 7.83453662-1.75355121l-4.1620307 7.3258029c-.1258577-.0563546-.2656842-.0877436-.412956-.0877436-.0587204 0-.1162572.0049902-.1721969.0145634zm-.419453.1765017c-.2468757.1790421-.40705261.4672758-.40705261.7923481 0 .3392022.17440421.6382937.43973071.8150704l-2.28953573 4.0299288c-.37640566-.931789-.60651086-1.9270016-.67096644-2.9530092l-.46238428-7.38251876c-.01797621-.29044709.10830975-.56798814.33256011-.74798166zm6.5988975 8.9981651c-.0337075-.1308112-.0940405-.2511656-.1749856-.3551419l3.8184874-6.8871068c.064806.0130125.131895.019845.2006047.019845.1026328 0 .2016498-.0152445.2948429-.0435594l2.4739031 4.4941076c-.2095426.4320077-.4516107.8479086-.724087 1.2441321zm-.7412583 1.2005561c.3710654-.0848541.6628005-.3733685.7471429-.7394413l5.4563088-1.415531c-.6498232.8086442-1.4355367 1.5180363-2.3360562 2.0926218l-3.6229816 2.3134376c-.0768031.0490247-.1592328.085524-.2444139.1094977zm-.4536417 0v2.3721544c-.1013247-.0229954-.1995423-.0633512-.2899616-.1210673l-3.6228737-2.3137569c-.8592116-.5482287-1.6139082-1.21918-2.24577595-1.9819715.98944535.2344132 2.79240815.6648581 5.40835405 1.2912088.0800559.3726994.3744771.6675003.7502572.7534325zm5.3701587-10.334435c-.1036299-.0358526-.2150786-.0553513-.3311522-.0553513-.0801864 0-.1581656.0093055-.2328846.0268797l-3.9974691-7.26182703c3.0326782.06719967 5.5799372.64541794 7.6417771 1.7346548zm.3834059.2410227 3.0894718-5.57223835c.2409637.1789808.3780735.46690107.3593714.76874879l-.4623843 7.38283816c-.0661207 1.0525139-.3065606 2.0726211-.7004317 3.0250984l-2.3138609-4.2033739c.1921343-.1792319.3119781-.4328516.3119781-.7140339 0-.2673454-.1083391-.5097742-.2841444-.6870392zm-5.5494097-2.7996174c-.2886124 0-.5411752.2487808-.5411752.5330104v1.9545844l-2.88634 1.7768078.3094435.6672477 2.5768965-.8449179v1.954478l-.721639.5331168v.5330104l1.2628142-.3553402 1.2628143.3553402v-.5330104l-.721639-.5331168v-1.954478l2.5326441.8899475.3535879-.7118515-2.886232-1.7772336v-1.9545844c0-.2842296-.2525629-.5330104-.5411753-.5330104z" fill="#fff"/></g></svg>