<svg height="32" viewBox="0 0 32 32" width="32" xmlns="http://www.w3.org/2000/svg"><g fill="none" fill-rule="nonzero"><circle cx="16" cy="16" fill="#343434" r="16"/><path d="m23.9167628 21.1103303c.3595816-.1264933.5951696-.4680253.5703709-.8601546v1.1004919c0 .37948-.235588.7336613-.5951696.8601546l-7.5884131 2.7322558c-.1859905.075896-.3967797.075896-.5951696 0l-7.58841302-2.7322558c-.35958166-.1264933-.59516964-.4680253-.59516964-.8601546v-1.1004919c0 .37948.23558798.7336613.59516964.8601546l7.61321172 2.7322558c.1859905.075896.3967798.075896.5951697 0zm0-1.9479972c.3595816-.1391427.5951696-.4806746.5703709-.8601546v1.1004919c0 .37948-.235588.7336613-.5951696.8601546l-7.5884131 2.7322558c-.1859905.075896-.3967797.075896-.5951696 0l-7.58841302-2.7322558c-.35958166-.1264933-.59516964-.4680253-.59516964-.8601546v-1.1131412c0 .3921293.23558798.7336612.59516964.8728039l7.61321172 2.7322558c.1859905.075896.3967798.075896.5951697 0zm0-1.9606465c.3595816-.1264933.5951696-.4806747.5827703-.8475053v1.1004919c0 .37948-.235588.7336613-.5951697.8601546l-7.588413 2.7322558c-.1859905.075896-.3967798.075896-.5951696 0l-7.60081242-2.7449051c-.35958166-.1264933-.59516964-.4680253-.59516964-.8601546v-1.1004919c0 .3794799.23558798.7336613.59516964.8601546l7.61321172 2.7322558c.1859905.075896.3967798.075896.5951697 0zm-16.4167628-6.5397049c0-.3921293.23558799-.73366125.59516965-.86015457l7.60081235-2.74490513c.1859905-.075896.3967798-.075896.5951697 0l7.6008124 2.74490513c.3595816.12649332.5951696.46802527.5951696.86015457v4.832045c0 .37948-.235588.7336613-.5951696.8601546l-7.6132118 2.7322558c-.1859905.075896-.3967798.075896-.5951696 0l-7.58841305-2.7322558c-.35958166-.1264933-.59516965-.4680253-.59516965-.8601546z" fill="#fff"/></g></svg>