<svg height="32" viewBox="0 0 32 32" width="32" xmlns="http://www.w3.org/2000/svg"><g fill="none" fill-rule="evenodd"><circle cx="16" cy="16" fill="#346fce" r="16"/><path d="m8.87804878 15.5959806v2.0352251c0 2.4128185-1.95597584 4.3687943-4.36879433 4.3687943h-.14046012c-2.41281849 0-4.36879433-1.9559758-4.36879433-4.3687943v-6.8652483c0-2.32997866 1.82397168-4.23394596 4.12195122-4.36193802v-2.03522505c0-2.41281849 1.95597584-4.36879433 4.36879433-4.36879433h.14046012c2.41281853 0 4.36879433 1.95597584 4.36879433 4.36879433v6.86524827c0 2.3299787-1.8239717 4.233946-4.12195122 4.361938zm0 0v-4.8300232c0-2.41281843-1.95597584-4.36879428-4.36879433-4.36879428h-.14046012c-.08283977 0-.16514103.00230564-.24684311.00685626v4.83002322c0 2.4128184 1.95597584 4.3687943 4.36879433 4.3687943h.14046012c.08283977 0 .16514103-.0023057.24684311-.0068563z" fill="#fff" transform="matrix(.88294759 -.46947156 .46947156 .88294759 5 9.103131)"/></g></svg>