<?xml version="1.0" encoding="UTF-8"?>
<svg width="32px" height="32px" viewBox="0 0 32 32" version="1.1" xmlns="http://www.w3.org/2000/svg" xmlns:xlink="http://www.w3.org/1999/xlink">
    <!-- Generator: Sketch 52.5 (67469) - http://www.bohemiancoding.com/sketch -->
    <title>svg/color/audr</title>
    <desc>Created with Sketch.</desc>
    <g id="color/audr" stroke="none" stroke-width="1" fill="none" fill-rule="evenodd">
        <g id="Group" fill="#34318A" fill-rule="nonzero">
            <circle id="Oval" cx="16" cy="16" r="16"></circle>
        </g>
        <g id="audr" transform="translate(10.000000, 4.000000)" fill="#FFFFFF" fill-rule="nonzero">
            <path d="M0.8544,9.264 L4.464,11.184 L6.384,10.224 L1.7952,7.7376 L1.7952,3.36 L10.6176,7.9392 L12.5376,6.9792 L1.2384,1.056 C0.976330123,0.918006518 0.661134181,0.927334214 0.407683152,1.08058367 C0.154232122,1.23383313 -0.000453647718,1.50861996 -1.0658152e-16,1.8048 L-1.0658152e-16,7.872 C0.0030314246,8.45899646 0.332370879,8.99556074 0.8544,9.264 Z M14.6112,8.2464 C14.3556738,7.99775078 13.9715515,7.93629122 13.6512,8.0928 L0.8544,14.736 C0.329309115,15.0060233 -0.000555001961,15.5471487 -1.22845824e-16,16.1376 L-1.22845824e-16,22.1952 C-0.000453647718,22.49138 0.154232122,22.7661669 0.407683152,22.9194163 C0.661134181,23.0726658 0.976330123,23.0819935 1.2384,22.944 L14.0064,16.32 C14.5392142,16.0435958 14.8700223,15.489771 14.8608,14.8896 L14.8608,8.8416 C14.860717,8.61776939 14.7707945,8.4033387 14.6112,8.2464 Z M13.0752,14.784 L1.7952,20.64 L1.7952,16.2624 L13.0752,10.4064 L13.0752,14.784 Z" id="Shape"></path>
        </g>
    </g>
</svg>