<svg width="32" height="32" viewBox="0 0 32 32" fill="none" xmlns="http://www.w3.org/2000/svg">
	<path
		d="M16 32C24.8366 32 32 24.8366 32 16C32 7.16344 24.8366 0 16 0C7.16344 0 0 7.16344 0 16C0 24.8366 7.16344 32 16 32Z"
		fill="#E84142" />
	<path
		d="M21.6 16.4C21.8 15.8 22.4 15.6 23 15.7C23.3 15.8 23.5 16 23.7 16.4L27.1 22.5C27.7 23.5 27.2 24.2 26.1 24.2H19.1C18 24.2 17.5 23.4 18.1 22.5L21.6 16.4ZM14.9 4.7C14.9 4.1 15.3 3.7 15.9 3.7C16.5 3.7 16.9 4.1 16.9 4.7L17.7 6.1L19.5 9.3C19.9 10.2 19.9 11.3 19.5 12.2L13.4 22.7C12.8 23.6 11.9 24.1 10.9 24.2H5.9C4.8 24.2 4.3 23.4 4.9 22.5L14.9 4.7Z"
		fill="white" />
</svg>