<svg width="32" height="32" viewBox="0 0 32 32" fill="none" xmlns="http://www.w3.org/2000/svg">
<path d="M16 32C24.8366 32 32 24.8366 32 16C32 7.16344 24.8366 0 16 0C7.16344 0 0 7.16344 0 16C0 24.8366 7.16344 32 16 32Z" fill="#E84142"/>
<path d="M20.7062 16.2178C21.1684 15.4194 21.9143 15.4194 22.3765 16.2178L25.2548 21.2706C25.717 22.069 25.3389 22.7203 24.4144 22.7203H18.6157C17.7018 22.7203 17.3236 22.069 17.7753 21.2706L20.7062 16.2178ZM15.1386 6.4902C15.6008 5.69182 16.3361 5.69182 16.7984 6.4902L17.4392 7.64574L18.9519 10.3035C19.3195 11.0598 19.3195 11.9528 18.9519 12.7091L13.878 21.5017C13.4158 22.2161 12.6489 22.6678 11.798 22.7203H7.58555C6.66111 22.7203 6.28294 22.0795 6.74515 21.2706L15.1386 6.4902Z" fill="white"/>
</svg>
