<?xml version="1.0" encoding="UTF-8"?>
<svg width="32px" height="32px" viewBox="0 0 32 32" version="1.1" xmlns="http://www.w3.org/2000/svg" xmlns:xlink="http://www.w3.org/1999/xlink">
    <!-- Generator: Sketch 52.5 (67469) - http://www.bohemiancoding.com/sketch -->
    <title>svg/color/aywa</title>
    <desc>Created with Sketch.</desc>
    <g id="color/aywa" stroke="none" stroke-width="1" fill="none" fill-rule="evenodd">
        <g id="Group" fill="#3355B5" fill-rule="nonzero">
            <circle id="Oval" cx="16" cy="16" r="16"></circle>
        </g>
        <g id="aywa" transform="translate(4.000000, 4.000000)" fill="#FFFFFF">
            <path d="M12,0 C5.372583,-4.05812251e-16 8.11624501e-16,5.372583 0,12 C-8.11624501e-16,18.627417 5.372583,24 12,24 C18.627417,24 24,18.627417 24,12 C24,8.81740212 22.7357179,5.76515517 20.4852814,3.51471863 C18.2348448,1.26428208 15.1825979,1.94877915e-16 12,0 Z M12,23.77 C5.49960849,23.77 0.23,18.5003915 0.23,12 C0.23,5.49960849 5.49960849,0.23 12,0.23 C18.5003915,0.23 23.77,5.49960849 23.77,12 C23.77,15.1215981 22.52995,18.1153436 20.3226468,20.3226468 C18.1153436,22.52995 15.1215981,23.77 12,23.77 Z" id="Shape" fill-rule="nonzero"></path>
            <polygon id="Path" points="15.29 9.5 15.26 9.39 15.23 9.28 15.2 9.16 15.16 9.06 15.13 8.95 15.09 8.85 15.04 8.74 15 8.64 14.95 8.55 14.9 8.45 14.85 8.36 14.79 8.27 14.74 8.19 14.68 8.1 14.62 8.03 14.55 7.95 14.49 7.88 14.43 7.81 14.36 7.75 14.29 7.69 14.22 7.63 14.15 7.58 14.07 7.53 14 7.49 13.92 7.44 13.85 7.41 13.77 7.37 13.69 7.34 13.61 7.31 13.52 7.29 13.44 7.27 13.36 7.25 13.27 7.24 13.18 7.23 13.1 7.22 13.01 7.22 12.92 7.22 12.83 7.22 12.74 7.23 12.65 7.24 12.55 7.25 12.46 7.27 12.37 7.29 12.28 7.31 12.18 7.34 12.09 7.37 11.99 7.4 11.89 7.44 11.8 7.48 11.7 7.53 11.61 7.57 11.51 7.62 11.41 7.68 11.32 7.73 11.22 7.79 11.12 7.86 11.03 7.92 10.93 7.99 10.83 8.07 10.73 8.14 10.64 8.22 10.54 8.3 10.45 8.39 10.35 8.48 10.25 8.57 10.16 8.67 10.06 8.77 9.97 8.87 9.88 8.97 9.78 9.08 9.69 9.19 9.6 9.3 9.51 9.42 9.42 9.54 9.33 9.67 9.21 9.84 9.09 10.02 8.97 10.21 8.86 10.39 8.75 10.59 8.64 10.78 8.54 10.97 8.44 11.17 8.35 11.37 8.26 11.57 8.18 11.77 8.11 11.93 15.3 9.58"></polygon>
            <polygon id="Path" points="8.8 13.01 15.17 12.96 15.2 12.82 15.23 12.68 15.26 12.54 15.29 12.39 15.31 12.25 15.34 12.11 15.36 11.97 15.37 11.83 15.39 11.69 15.4 11.55 15.41 11.42 15.42 11.28 15.43 11.14 15.43 11.01 15.43 10.88 15.43 10.85"></polygon>
            <path d="M12,0.56 C5.68186246,0.56 0.56,5.68186246 0.56,12 C0.56,18.3181375 5.68186246,23.44 12,23.44 C18.3181375,23.44 23.44,18.3181375 23.44,12 C23.44,8.96592336 22.2347177,6.05611459 20.0893016,3.91069842 C17.9438854,1.76528225 15.0340766,0.56 12,0.56 Z M18.48,12.92 L18.28,14.1 L16.49,14.1 L16.43,14.3 L16.32,14.6 L16.21,14.9 L16.09,15.2 L16,15.5 L15.87,15.79 L15.73,16.08 L15.59,16.37 L15.44,16.65 L15.29,16.93 L15.13,17.2 L14.97,17.47 L14.8,17.74 L14.6,18 L14.51,18.13 L14.42,18.26 L13.49,16.7 L13.58,16.57 L13.67,16.44 L13.75,16.31 L13.83,16.18 L13.91,16.05 L13.99,15.92 L14.07,15.79 L14.14,15.66 L14.21,15.52 L14.28,15.38 L14.35,15.24 L14.42,15.1 L14.48,14.96 L14.54,14.82 L14.6,14.68 L14.66,14.54 L14.72,14.4 L14.77,14.26 L14.77,14.14 L7.5,14.2 L7.5,14.26 L7.5,14.47 L7.5,14.67 L7.5,14.87 L7.5,16.05 L5.64,17.34 L5.64,15.74 L5.64,15.53 L5.64,15.32 L5.64,15.11 L5.64,14.9 L5.64,14.69 L5.64,14.48 L5.64,14.27 L5.64,14.2 L5.1,14.2 L4.9,14.27 L4.56,13.08 L6.24,12.53 L6.24,12.4 L6.31,12.19 L6.41,12 L6.48,11.8 L6.56,11.6 L6.64,11.4 L6.72,11.2 L6.8,11 L6.89,10.8 L6.98,10.6 L7.07,10.4 L7.16,10.21 L7.26,10.02 L7.36,9.83 L7.46,9.64 L7.56,9.45 L7.67,9.26 L7.78,9.08 L7.89,8.9 L8,8.71 L8.11,8.53 L8.23,8.36 L8.35,8.19 L8.46,8 L8.58,7.83 L8.7,7.67 L8.83,7.51 L9,7.37 L9.13,7.22 L9.26,7.07 L9.39,6.92 L9.53,6.78 L9.67,6.64 L9.81,6.5 L9.95,6.37 L10.09,6.24 L10.23,6.11 L10.34,6 L10.49,5.88 L10.64,5.77 L10.79,5.66 L10.94,5.55 L11.09,5.45 L11.24,5.36 L11.39,5.27 L11.54,5.19 L11.69,5.11 L11.82,5 L12,4.95 L12.14,4.89 L12.28,4.83 L12.42,4.78 L12.56,4.78 L12.7,4.78 L12.84,4.78 L12.98,4.78 L13.12,4.78 L13.25,4.78 L14,4.78 L14.12,4.78 L14.24,4.78 L14.36,4.78 L14.48,4.78 L14.6,4.78 L14.72,4.78 L14.83,4.78 L14.94,4.83 L15.05,4.88 L15.16,4.94 L15.27,5 L15.37,5.07 L15.47,5.14 L15.57,5.22 L15.67,5.3 L15.76,5.39 L15.85,5.48 L15.94,5.58 L16.03,5.68 L16.11,5.79 L16.19,5.9 L16.27,6.01 L16.35,6.13 L16.42,6.25 L16.49,6.38 L16.56,6.51 L16.62,6.65 L16.68,6.79 L16.74,6.93 L16.8,7.08 L16.85,7.23 L16.85,7.39 L16.85,7.55 L16.85,7.72 L16.85,7.89 L16.85,8.06 L16.85,8.24 L16.85,8.42 L16.85,8.61 L16.85,8.8 L16.85,9 L17.85,8.68 L18.19,9.87 L16.91,10.29 L16.91,10.73 L16.91,11.02 L16.91,11.32 L16.91,11.62 L16.91,11.92 L16.86,12.22 L16.8,12.52 L16.73,12.82 L16.73,12.95 L18.48,12.92 Z" id="Shape" fill-rule="nonzero"></path>
        </g>
    </g>
</svg>