<svg width="32" height="32" viewBox="0 0 32 32" fill="none" xmlns="http://www.w3.org/2000/svg">
<path d="M16 32C24.8366 32 32 24.8366 32 16C32 7.16344 24.8366 0 16 0C7.16344 0 0 7.16344 0 16C0 24.8366 7.16344 32 16 32Z" fill="#FFF2E1"/>
<path d="M21.8748 15.7406C22.035 15.6605 22.2753 15.8208 22.2753 15.9811L22.5957 17.1834C22.6758 17.3437 22.5156 17.5842 22.3554 17.5842C22.1952 17.6643 21.9549 17.504 21.9549 17.3437L21.6346 16.1414C21.5545 15.9811 21.6346 15.7406 21.8748 15.7406ZM12.6642 6.76338C12.5841 6.60307 12.5841 6.36261 12.7443 6.28246L13.7855 5.56107C13.9457 5.48092 14.1859 5.48092 14.266 5.64123C14.3461 5.88169 14.3461 6.042 14.1859 6.2023L13.1447 6.92369C12.9846 6.92369 12.7443 6.92369 12.6642 6.76338Z" fill="white"/>
<path fill-rule="evenodd" clip-rule="evenodd" d="M18.0303 11.0116C16.829 10.7711 15.5475 10.9314 14.4262 11.6528C16.028 11.0917 17.8702 11.4925 19.1516 12.775C20.9137 14.6185 20.9137 17.5842 19.1516 19.3476C18.9114 19.5881 18.6711 19.7484 18.4308 19.9087C19.0716 19.6682 19.7123 19.3476 20.1929 18.7865C21.4743 17.5041 21.7947 15.6605 21.3141 14.0574C19.9526 13.5765 18.7512 12.4543 18.0303 11.0116Z" fill="#FFAE54"/>
<path d="M25.6392 21.4316C22.7558 26.8019 16.028 28.8057 10.7419 25.84C5.37572 22.9545 3.45349 16.1414 6.33683 10.7711C8.25905 7.24431 11.7831 5.16031 15.5475 5C16.028 5 16.4285 5.24046 16.6688 5.72139C16.9091 6.20231 17.0692 6.84354 16.9892 7.48477C16.9892 7.72524 16.9892 7.9657 16.9892 8.20616C16.9892 9.32832 17.3095 10.4505 17.7901 11.4123C15.4674 10.5306 12.8243 11.4925 11.6229 13.7368C10.2614 16.2216 11.2225 19.2674 13.6253 20.63C16.028 21.9927 19.1517 21.0308 20.4331 18.6262C21.154 17.2636 21.2341 15.6605 20.6734 14.2979C21.6345 14.7788 22.6757 15.0193 23.797 15.0193C24.4378 15.0193 24.9984 14.9391 25.6392 14.7788C25.9595 14.6986 26.36 14.6986 26.6003 14.8589C26.8406 15.0193 27.0007 15.1796 27.0007 15.42C27.0808 17.4239 26.6003 19.5079 25.6392 21.4316Z" fill="url(#paint0_radial)" stroke="#AC562A" stroke-width="1.0716"/>
<path d="M22.7558 19.2674L23.1563 19.1071C23.4767 19.9087 23.0762 20.63 22.8359 21.1911C22.8359 21.1911 22.8359 21.1911 22.8359 21.2713C22.6757 21.5919 22.5156 21.8323 22.5156 22.0728C22.4355 22.4736 22.4355 22.8744 22.5156 23.1148C22.5956 23.3553 22.8359 23.5957 23.1563 23.6759C23.3966 23.756 23.797 23.6759 24.2776 23.3553C26.1998 21.111 27.0808 18.2254 26.9206 15.5002C26.9206 15.2597 26.7605 15.0193 26.5202 14.8589C26.2799 14.6986 25.8794 14.6986 25.5591 14.7788C24.9984 14.9391 24.3577 15.0193 23.797 15.0193C22.6757 15.0193 21.6345 14.7788 20.6734 14.2177C21.2341 15.5803 21.154 17.1033 20.5132 18.4659C20.4331 18.7063 20.273 18.8666 20.1128 19.1071C20.4331 19.027 20.7535 18.8666 21.2341 18.546C21.7947 18.1453 22.5156 18.546 22.7558 19.2674ZM22.7558 19.2674C22.9961 19.9087 22.6757 20.4697 22.4355 21.0308C22.2753 21.3514 22.1151 21.672 22.035 21.9927L22.7558 19.2674ZM15.0669 11.0917C13.9456 11.4123 13.0646 11.252 12.4239 10.9314C11.7831 10.5306 11.2225 9.96955 10.9822 9.32832C10.6618 8.60693 10.5817 7.88555 10.7419 7.24431C10.9021 6.60308 11.2225 6.12216 11.703 5.88169C13.0646 5.32062 14.5063 5 15.8679 5C16.2683 5 16.5887 5.24046 16.829 5.64123C17.0693 6.042 17.1493 6.60308 17.0693 7.084C16.9892 7.40462 16.9892 7.80539 16.9892 8.20616C16.9892 9.32832 17.3095 10.4505 17.7901 11.4123C16.9091 11.0116 15.948 10.9314 15.0669 11.0917Z" fill="#AC562A" stroke="#AC562A" stroke-width="1.0716"/>
<path d="M7.61876 14.1375C7.92863 14.1375 8.17983 13.8863 8.17983 13.5765C8.17983 13.2666 7.92863 13.0154 7.61876 13.0154C7.30888 13.0154 7.05768 13.2666 7.05768 13.5765C7.05768 13.8863 7.30888 14.1375 7.61876 14.1375Z" fill="#AC562A"/>
<path d="M15.9484 24.1568C16.2583 24.1568 16.5095 23.9056 16.5095 23.5957C16.5095 23.2859 16.2583 23.0347 15.9484 23.0347C15.6385 23.0347 15.3873 23.2859 15.3873 23.5957C15.3873 23.9056 15.6385 24.1568 15.9484 24.1568Z" fill="#AC562A"/>
<path d="M12.4239 25.0385C12.9547 25.0385 13.385 24.6079 13.385 24.0767C13.385 23.5454 12.9547 23.1148 12.4239 23.1148C11.8931 23.1148 11.4628 23.5454 11.4628 24.0767C11.4628 24.6079 11.8931 25.0385 12.4239 25.0385Z" fill="#AC562A"/>
<defs>
<radialGradient id="paint0_radial" cx="0" cy="0" r="1" gradientUnits="userSpaceOnUse" gradientTransform="translate(15.9769 16.1252) rotate(90) scale(11.5245 11.3996)">
<stop offset="0.3335" stop-color="#F7B450"/>
<stop offset="0.6477" stop-color="#FFC977"/>
<stop offset="1" stop-color="#FF9900"/>
</radialGradient>
</defs>
</svg>
