<svg height="32" viewBox="0 0 32 32" width="32" xmlns="http://www.w3.org/2000/svg"><g fill="none" fill-rule="evenodd"><circle cx="16" cy="16" fill="#6356ab" r="16"/><path d="m22.7842564 15.9744805c.0577385-.0656216.1226943-.1312432.1876501-.1968648.209302-.2260298.4402559-.4666423.6567752-.6999635.8732945-.9187021 1.3568542-2.1144732 1.3568542-3.3685745 0-.0874955.0144346-.4447685.0144346-.4958076-.1010423-2.872767-2.5188411-5.2132701-5.3768957-5.2132701h-8.9999853v3.63106088h-3.6230895v16.36893912h12.767421c2.8364027 0 5.2325495-2.5227853 5.2325495-5.5122129.0072174-2.1363471-1.3135503-3.6456435-2.2157141-4.5133066zm-10.3568395-4.5205979 7.1667886.0072913-4.5036013 4.5643456 4.4530802 4.5205979h-7.1162675zm7.3400041 12.7160044h-10.96309356v-12.7232957h1.81876206v10.9150565h8.9205949c.7361656 0 1.3929408-.4447685 1.6744158-1.1301494.2814751-.685381.1299116-1.4655487-.3897347-1.9905214l-3.1828336-3.2227488 3.2333548-3.2737878c.5196463-.5249727.6712098-1.3051404.3897347-1.9905213-.2814751-.685381-.9382503-1.1301495-1.6744159-1.1301495h-7.1595712v-1.80823916h7.1956578c1.9053698 0 3.5076125 1.55304411 3.5725683 3.44148746 0 .0802041-.0144346.3937295-.0144346.4010207v.0364565c0 1.0645279-.5340809 1.7863653-.8588599 2.1217645-.2237366.2333212-.4546905.4812249-.6639925.6999635-.3536481.3718556-.6567752.6926723-.8011213.838498l-.6495579.6416333.6423405.6489245c.0866078.0874954.1948674.1895735.324779.3135253.7506002.6999636 2.0136294 1.8665695 2.0136294 3.5144003.0072173 1.9686475-1.5950255 3.6966825-3.4282221 3.6966825z" fill="#fff" fill-rule="nonzero"/></g></svg>