<svg height="32" viewBox="0 0 32 32" width="32" xmlns="http://www.w3.org/2000/svg"><g fill="none"><circle cx="16" cy="16" fill="#fcc339" r="16"/><path d="m22.5845827 9.69361986.077156.1714568-3.0542381 1.40230574 1.374279 4.550058 4.521536-2.283592.0588638.1189163.0192992-.0219106-2.9293895-3.9058319zm-.164679-.07660466-2.773374-1.29010604h-7.1709619l-2.9615523 1.35975055 3.0802303 1.29638639h6.8504269zm-13.15348632.31958869-2.773104 3.60141471 4.51327892 2.2794218 1.3796353-4.567792zm3.43996392 1.37335131-1.4257191 4.7203694 4.7135238 8.3319425 4.7135237-8.3319425-1.4257191-4.7203694zm12.5117368 2.7334271-4.2190484 2.1308214-4.2051243 7.4332611zm-10.0466349 9.5235264-4.1821809-7.392705-4.19602925-2.1191955zm-8.74069295-9.9234324.0336235-.0679259-.04359028.0566105zm2.79141676-4.18193349 3.18325709-1.46154281h7.3120077l3.1436343 1.46234211 3.1388939 4.18516979-9.9994245 11.3524881-10.0005755-11.3537949zm9.20074409 5.37253349c.0586745.6074157-.1921959.9719919-.5934555 1.1789076.6604867.160618 1.0743578.5581758.9927123 1.4491545-.1011245 1.1065011-.9154927 1.40335-2.079031 1.4709575l-.0002158 1.1624696-.6920856.0000734.0002989-1.1469198c-.1793421.000167-.3630437-.00136-.5528672-.0053338l.0000225 1.1522285-.6913433-.000114-.0002931-1.1645369c-.1618988-.0010433-.3268119-.0039206-.4944171-.004122l-.900653.0000338.1375112-.8370122s.5119499.0080793.5030944.0001343c.1958569-.0003443.2477166-.1427952.2600193-.2321394l.0001736-1.8375899c.0253752-.0002187.0500544-.0000619.07311-.0000941-.0285735-.0039645-.0538089-.0047793-.0731533-.0048856l-.000062-1.3117188c-.0265388-.1422193-.1177768-.3070294-.3981088-.307115.0084953-.0095311-.5025844.0003357-.5025844.0003357l-.0001819-.748547.9545573.0003296.0000906.0035704c.1434829-.000096.2906323-.0029144.4404724-.0060129l.0002551-1.1511009.6917145.0000204-.0001019 1.1285045c.1847719-.0037338.3707498-.0073729.5526896-.0073973l-.0000419-1.1210821.6920855-.0000734.000023 1.1514298c.8933667.0792604 1.600958.3575414 1.6797656 1.1876455zm-.968267 2.4900574c.0000567-.9077082-1.4707626-.7710989-1.9399463-.7712115l-.0001752 1.5429441c.469045-.0004512 1.9405057.0985344 1.9401215-.7717326zm-.3218825-2.1768832c-.0000872-.8258256-1.2273547-.7000062-1.6180474-.6999746l-.0000391 1.3993795c.3906927-.0000316 1.6178703.0923616 1.6180865-.6994049z" fill="#fff"/></g></svg>