<?xml version="1.0" encoding="UTF-8"?>
<svg width="32px" height="32px" viewBox="0 0 32 32" version="1.1" xmlns="http://www.w3.org/2000/svg" xmlns:xlink="http://www.w3.org/1999/xlink">
    <!-- Generator: Sketch 53 (72520) - https://sketchapp.com -->
    <title>svg/color/bcio</title>
    <desc>Created with Sketch.</desc>
    <g id="color/bcio" stroke="none" stroke-width="1" fill="none" fill-rule="evenodd">
        <g id="Group" fill="#3F43AD" fill-rule="nonzero">
            <circle id="Oval" cx="16" cy="16" r="16"></circle>
        </g>
        <g id="bcio" transform="translate(7.000000, 5.000000)" fill="#FFFFFF" fill-rule="nonzero">
            <path d="M4.93971429,2.43565714 C4.45688571,2.43565714 4.06397143,2.82865714 4.06397143,3.31165714 C4.06397143,3.7944 4.45688571,4.18722857 4.93971429,4.18722857 C5.42271429,4.18722857 5.81562857,3.7944 5.81562857,3.31165714 C5.81562857,2.82865714 5.42288571,2.43565714 4.93971429,2.43565714" id="Fill-5"></path>
            <path d="M8.98954286,0.00591428571 C8.50637143,0.00591428571 8.11362857,0.399085714 8.11362857,0.881828571 C8.11362857,1.36482857 8.50654286,1.75774286 8.98954286,1.75774286 C9.4722,1.75774286 9.86554286,1.36482857 9.86554286,0.881828571 C9.86554286,0.399085714 9.47262857,0.00591428571 8.98954286,0.00591428571" id="Fill-7"></path>
            <path d="M8.98954286,9.72497143 C8.50637143,9.72497143 8.11362857,10.1178857 8.11362857,10.6007143 C8.11362857,11.0834571 8.50654286,11.4763714 8.98954286,11.4763714 C9.4722,11.4763714 9.86554286,11.0834571 9.86554286,10.6007143 C9.86554286,10.1178857 9.47262857,9.72497143 8.98954286,9.72497143" id="Fill-2"></path>
            <path d="M13.0389429,7.29505714 C12.5557714,7.29505714 12.1633714,7.68797143 12.1633714,8.1708 C12.1633714,8.6538 12.5559429,9.04645714 13.0389429,9.04645714 C13.5216,9.04645714 13.9149429,8.65362857 13.9149429,8.1708 C13.9152,7.68805714 13.5218571,7.29505714 13.0389429,7.29505714" id="Fill-3"></path>
            <path d="M17.0882571,4.86557143 C16.6056,4.86557143 16.2126857,5.25831429 16.2126857,5.74114286 C16.2126857,6.22414286 16.6056,6.6174 17.0882571,6.6174 C17.5714286,6.6174 17.9640857,6.22431429 17.9640857,5.74114286 C17.9640857,5.25831429 17.5714286,4.86557143 17.0882571,4.86557143" id="Fill-4"></path>
            <path d="M4.93971429,12.1548857 C4.45688571,12.1548857 4.06397143,12.5476286 4.06397143,13.0302857 C4.06397143,13.5132857 4.45688571,13.9060286 4.93971429,13.9060286 C5.42271429,13.9060286 5.81562857,13.5132857 5.81562857,13.0302857 C5.81562857,12.5476286 5.42288571,12.1548857 4.93971429,12.1548857" id="Fill-19"></path>
            <path d="M0.890314286,4.86557143 C0.4074,4.86557143 0.0147428571,5.25831429 0.0147428571,5.74114286 C0.0147428571,6.22414286 0.407571429,6.6174 0.890314286,6.6174 C1.37314286,6.6174 1.76622857,6.22431429 1.76622857,5.74114286 C1.76622857,5.25831429 1.37314286,4.86557143 0.890314286,4.86557143" id="Fill-21"></path>
            <path d="M0.890314286,14.5842857 C0.4074,14.5842857 0.0147428571,14.9770286 0.0147428571,15.4600286 C0.0147428571,15.9429429 0.407571429,16.3356857 0.890314286,16.3356857 C1.37314286,16.3356857 1.76622857,15.9429429 1.76622857,15.4600286 C1.76622857,14.9770286 1.37314286,14.5842857 0.890314286,14.5842857" id="Fill-22"></path>
            <path d="M0.890314286,9.72497143 C0.4074,9.72497143 0.0147428571,10.1178857 0.0147428571,10.6007143 C0.0147428571,11.0834571 0.407571429,11.4763714 0.890314286,11.4763714 C1.37314286,11.4763714 1.76622857,11.0834571 1.76622857,10.6007143 C1.76622857,10.1178857 1.37314286,9.72497143 0.890314286,9.72497143" id="Fill-23"></path>
            <path d="M8.98954286,4.86557143 C8.50637143,4.86557143 8.11362857,5.25831429 8.11362857,5.74114286 C8.11362857,6.22414286 8.50654286,6.6174 8.98954286,6.6174 C9.4722,6.6174 9.86554286,6.22431429 9.86554286,5.74114286 C9.86554286,5.25831429 9.47262857,4.86557143 8.98954286,4.86557143" id="Fill-9"></path>
            <path d="M13.0389429,2.43565714 C12.5557714,2.43565714 12.1633714,2.82865714 12.1633714,3.31165714 C12.1633714,3.7944 12.5559429,4.18722857 13.0389429,4.18722857 C13.5216,4.18722857 13.9149429,3.7944 13.9149429,3.31165714 C13.9152,2.82865714 13.5218571,2.43565714 13.0389429,2.43565714" id="Fill-10"></path>
            <path d="M13.0389429,12.1548857 C12.5557714,12.1548857 12.1633714,12.5476286 12.1633714,13.0302857 C12.1633714,13.5132857 12.5559429,13.9060286 13.0389429,13.9060286 C13.5216,13.9060286 13.9149429,13.5132857 13.9149429,13.0302857 C13.9152,12.5476286 13.5218571,12.1548857 13.0389429,12.1548857" id="Fill-11"></path>
            <path d="M17.0882571,9.72497143 C16.6056,9.72497143 16.2126857,10.1178857 16.2126857,10.6007143 C16.2126857,11.0834571 16.6056,11.4763714 17.0882571,11.4763714 C17.5714286,11.4763714 17.9640857,11.0834571 17.9640857,10.6007143 C17.9640857,10.1178857 17.5714286,9.72497143 17.0882571,9.72497143" id="Fill-12"></path>
            <path d="M13.0389429,17.0140286 C12.5557714,17.0140286 12.1633714,17.4067714 12.1633714,17.8898571 C12.1633714,18.3726857 12.5559429,18.7654286 13.0389429,18.7654286 C13.5216,18.7654286 13.9149429,18.3726857 13.9149429,17.8898571 C13.9152,17.4067714 13.5218571,17.0140286 13.0389429,17.0140286" id="Fill-13"></path>
            <path d="M17.0882571,14.5842857 C16.6056,14.5842857 16.2126857,14.9770286 16.2126857,15.4600286 C16.2126857,15.9429429 16.6056,16.3356857 17.0882571,16.3356857 C17.5714286,16.3356857 17.9640857,15.9429429 17.9640857,15.4600286 C17.9640857,14.9770286 17.5714286,14.5842857 17.0882571,14.5842857" id="Fill-14"></path>
            <path d="M8.98954286,19.4437714 C8.50637143,19.4437714 8.11362857,19.8368571 8.11362857,20.3196857 C8.11362857,20.8021714 8.50654286,21.1952571 8.98954286,21.1952571 C9.4722,21.1952571 9.86554286,20.8021714 9.86554286,20.3196857 C9.86554286,19.8368571 9.47262857,19.4437714 8.98954286,19.4437714" id="Fill-15"></path>
            <path d="M8.98954286,14.5842857 C8.50637143,14.5842857 8.11362857,14.9770286 8.11362857,15.4600286 C8.11362857,15.9429429 8.50654286,16.3356857 8.98954286,16.3356857 C9.4722,16.3356857 9.86554286,15.9429429 9.86554286,15.4600286 C9.86554286,14.9770286 9.47262857,14.5842857 8.98954286,14.5842857" id="Fill-16"></path>
            <path d="M4.93971429,7.29505714 C4.45688571,7.29505714 4.06397143,7.68797143 4.06397143,8.1708 C4.06397143,8.6538 4.45688571,9.04645714 4.93971429,9.04645714 C5.42271429,9.04645714 5.81562857,8.65362857 5.81562857,8.1708 C5.81562857,7.68805714 5.42288571,7.29505714 4.93971429,7.29505714" id="Fill-17"></path>
            <path d="M4.93971429,17.0140286 C4.45688571,17.0140286 4.06397143,17.4067714 4.06397143,17.8898571 C4.06397143,18.3726857 4.45688571,18.7654286 4.93971429,18.7654286 C5.42271429,18.7654286 5.81562857,18.3726857 5.81562857,17.8898571 C5.81562857,17.4067714 5.42288571,17.0140286 4.93971429,17.0140286" id="Fill-18"></path>
        </g>
    </g>
</svg>