<svg height="32" viewBox="0 0 32 32" width="32" xmlns="http://www.w3.org/2000/svg"><g fill="none" fill-rule="evenodd"><circle cx="16" cy="16" fill="#18578c" r="16"/><path d="m11.6328877 20.3355344c.6621567.6753293.6621567 1.76944 0 2.4447693s-1.73614707.6765745-2.39981089.0027823c-.3200828-.3243258-.50004883-.7652596-.50004883-1.225167 0-.4599073.17996603-.9008411.50004883-1.2251669.66366382-.6737922 1.73765419-.6725471 2.39981089.0027823zm11.0630962-11.60890797c.634472.26771753 1.0481619.89843532 1.0481619 1.59804317 0 .6996079-.4136899 1.3303257-1.0481619 1.5980432s-1.3647737.1197107-1.8503579-.3750033c-.3188014-.3241561-.4979533-.764177-.4979533-1.2230399 0-.45886288.1791519-.89888377.4979533-1.2230399.4855842-.49471401 1.2158859-.6427208 1.8503579-.37500327zm-11.2856324 10.27545827 1.636923-1.6760965c.328495.8337745.9771622 1.4945935 1.7956044 1.8292423l-1.6410989 1.6718424zm9.6966811-6.1373207-1.6410989 1.6718424c-.1600566-.4116708-.4017181-.7852983-.7098901-1.0975454-.3085829-.3144098-.6764966-.5618686-1.0815384-.7274429l1.6410989-1.6718424zm-.6867227 7.9426891c.2627945-.6463579.881914-1.0677977 1.5686567-1.0677977.6867428 0 1.3058623.4214398 1.5686568 1.0677977.2627945.6463578.1175094 1.3903406-.3681073 1.8850216-.3181952.3247737-.7501246.5072817-1.2005495.5072817-.4504248 0-.8823542-.182508-1.2005494-.5072817-.4856167-.494681-.6309018-1.2386638-.3681073-1.8850216zm-11.3849668-11.29876183c.26279447-.64635786.88191399-1.06779765 1.5686568-1.06779765.6867427 0 1.3058622.42143979 1.5686567 1.06779765.2627945.64635783.1175094 1.39034063-.3681073 1.88502163-.3181952.3247737-.7501246.5072817-1.2005494.5072817-.4504249 0-.88235425-.182508-1.20054947-.5072817-.48561671-.494681-.6309018-1.2386638-.36810733-1.88502163zm10.1449643 11.24563733-1.6452747-1.6675883c.8184421-.3346488 1.4671094-.9954679 1.7956043-1.8292423l1.6410989 1.6718424zm-5.8415604-9.8094182 1.6410989 1.6718424c-.4041005.163055-.7708575.4092437-1.0773626.7231888-.3086281.3143638-.5515363.6891697-.7140659 1.1017994l-1.6410989-1.6718424zm2.9418681-1.48211169c-.9386413 0-1.6995604-.77517379-1.6995604-1.73139912s.7609191-1.73139912 1.6995604-1.73139912c.4508534-.00033892.8833365.18196698 1.2021381.5067408.3188015.32477381.497755.7653589.4974223 1.22465832 0 .95622533-.7609191 1.73139912-1.6995604 1.73139912zm1.6995604 14.80580219c0 .9562253-.7609191 1.7313991-1.6995604 1.7313991s-1.6995604-.7751738-1.6995604-1.7313991.7609191-1.7313991 1.6995604-1.7313991c.4508534-.000339.8833365.1819669 1.2021381.5067408.3188015.3247738.497755.7653589.4974223 1.2246583zm-1.0823736-13.8996891v2.1440421c-.3537037-.0624119-.7153072-.0624119-1.0690109 0v-2.1440421zm0 9.2125747v2.1440422h-1.0690109v-2.1440422c.3537037.062412.7153072.062412 1.0690109 0zm5.3324482-3.3928099c-.2630597-.6469795-.1176525-1.3916851.3684183-1.8868618.4860709-.4951767 1.2170821-.6433078 1.8521643-.3753202.6350822.2679877 1.0491668.8993187 1.0491668 1.5996043.0003327.4592994-.1786207.8998845-.4974223 1.2246583-.3188015.3247738-.7512847.5070797-1.2021381.5067408-.687408 0-1.3071294-.4218419-1.570189-1.0688214zm-15.7302501-.368481c-.00007685-.9561699.76069511-1.7313842 1.69928203-1.7315409.93858691-.0001566 1.69960811.7748038 1.69983872 1.7309737.00033257.4593385-.1786076.8999672-.4973971 1.2248086-.31878951.3248413-.75127153.5072419-1.2021633.507016-.93858693-.0000001-1.6994835-.7750875-1.69956035-1.7312574zm15.0834941.5443769-2.1046153-.0017016c.0612642-.3603299.0612642-.7287075 0-1.0890373h2.1046153zm-8.6439558 0h-2.1046154v-1.0890373h2.1046154c-.0612643.3603298-.0612643.7287074 0 1.0890373zm3.2901318 2.0376908c-1.3307028 0-2.4094505-1.0989564-2.4094505-2.4545879s1.0787477-2.4545879 2.4094505-2.4545879c1.3305118.0004695 2.4089895 1.099151 2.4094505 2.4545879 0 1.3556315-1.0787478 2.4545879-2.4094505 2.4545879z" fill="#fff" fill-rule="nonzero"/></g></svg>