<svg height="32" width="32" xmlns="http://www.w3.org/2000/svg"><g fill="none"><circle cx="16" cy="16" fill="#f3ba2f" r="16"/><path d="m12.116 14.404 3.884-3.884 3.886 3.886 2.26-2.26-6.146-6.146-6.144 6.144zm-6.116 1.596 2.26-2.26 2.26 2.26-2.26 2.26zm6.116 1.596 3.884 3.884 3.886-3.886 2.26 2.259-6.146 6.147-6.144-6.144-.003-.003zm9.364-1.596 2.26-2.26 2.26 2.26-2.26 2.26zm-3.188-.002h.002v.002l-2.294 2.294-2.291-2.29-.004-.004.004-.003.401-.402.195-.195 1.695-1.694 2.293 2.293z" fill="#fff"/></g></svg>