<svg width="32" height="32" viewBox="0 0 32 32" fill="none" xmlns="http://www.w3.org/2000/svg">
<path d="M32 16C32 24.8365 24.8365 32 16 32C7.1635 32 0 24.8365 0 16C0 7.1635 7.1635 0 16 0C24.8365 0 32 7.1635 32 16Z" fill="white"/>
<path d="M27 26H5V24.3133H6.1L6.46667 13.6067H5V10.38H27V13.6067H25.3133L25.7533 24.3133H27V26ZM18.42 24.24H20.9867L21.4267 13.6067H17.98L18.42 24.24ZM10.94 24.24H13.5067L13.9467 13.6067H10.5733L10.94 24.24ZM7.78667 8.91333L16.0733 4L24.2133 8.91333H7.78667Z" fill="#0073FF"/>
</svg>
