<svg width="32" height="32" viewBox="0 0 32 32" fill="none" xmlns="http://www.w3.org/2000/svg">
<path d="M32 16C32 24.8365 24.8365 32 16 32C7.1635 32 0 24.8365 0 16C0 7.1635 7.1635 0 16 0C24.8365 0 32 7.1635 32 16Z" fill="#FF4339"/>
<path fill-rule="evenodd" clip-rule="evenodd" d="M4.95105 27.5724C7.8232 30.3154 11.7149 32 16 32C20.0917 32 23.8247 30.464 26.6538 27.9373L22.1642 24.597V16.1592L23.995 14.7263L15.5572 8.35815L7.11939 14.7263L8.95022 16.1592V24.597L4.95105 27.5724ZM15.6373 14.3286H15.478C13.3289 14.3286 11.6572 16.0799 11.6572 18.3088V22.6072L15.5577 19.662L19.4582 22.6072V18.3088C19.4582 16.1596 17.707 14.4083 15.6373 14.3286Z" fill="white"/>
</svg>
