<?xml version="1.0" encoding="UTF-8"?>
<svg width="32px" height="32px" viewBox="0 0 32 32" version="1.1" xmlns="http://www.w3.org/2000/svg" xmlns:xlink="http://www.w3.org/1999/xlink">
    <!-- Generator: Sketch 52.4 (67378) - http://www.bohemiancoding.com/sketch -->
    <title>svg/color/booty</title>
    <desc>Created with Sketch.</desc>
    <g id="color/booty" stroke="none" stroke-width="1" fill="none" fill-rule="evenodd">
        <g id="Group" fill="#00B4F4" fill-rule="nonzero">
            <circle id="Oval" cx="16" cy="16" r="16"></circle>
        </g>
        <g id="booty" transform="translate(4.000000, 4.000000)" fill="#FEFFFF" fill-rule="nonzero">
            <path d="M3.77294063,18.9798626 L3.77294063,19.1363267 L2.16237928,19.1363267 L2.16237928,16.1829364 L2.11242638,16.3463101 L0.572238899,15.8754701 L1.44232432,13.0298058 L1.33521587,13.1885862 L0,12.288053 L1.66840398,9.81476569 L1.50928792,9.9436037 L0.495728824,8.69207543 L2.89668378,6.74799592 L2.58987856,6.86575678 L2.01270499,5.36230393 L4.88042185,4.26158993 L4.54527013,4.28502391 L4.43292305,2.67853081 L7.43535943,2.46859896 L7.16429431,2.40602429 L7.52659177,0.836883161 L10.3946528,1.49896746 L10.2139727,1.39466114 L11.0192533,0 L13.5207319,1.444099 L13.4233812,1.33971254 L14.6012712,0.241411482 L16.5492416,2.33016546 L16.5077184,2.2450379 L17.9552814,1.53907799 L19.2049348,4.10101567 L19.1935788,4.02932453 L20.7843115,3.77739997 L21.2529904,6.73625492 L21.2863532,6.52562952 L22.8770858,6.77755408 L22.4013911,9.78070122 L22.5190072,9.5395744 L23.9665702,10.2455343 L22.62629,12.9932677 L22.82211,12.7832956 L24,13.8815965 L21.9176903,16.1143987 L22.1697758,15.9688702 L22.9750566,17.3635313 L20.3575163,18.8746325 L20.6208815,18.8138353 L20.983179,20.3829766 L18.0908989,21.0506518 L18.313755,21.066234 L18.2014079,22.672727 L15.3062784,22.4702982 L15.4538224,22.5269298 L14.8766489,24.0303827 L12.1053296,22.966669 L12.2804574,23.1084718 L11.2668983,24.36 L8.97948875,22.5078595 L9.09241187,22.6752598 L7.75719598,23.5757929 L6.12207565,21.1518462 L6.17068836,21.3108368 L4.62969395,21.7819236 L3.77294063,18.9798626 Z M3.77294063,17.0662973 L4.77886067,16.7587844 L5.56063146,19.3156108 L6.430389,18.7290048 L7.91693564,20.932702 L8.58087485,20.1128792 L10.6410248,21.7810052 L11.0095378,20.8210828 L13.4921616,21.7739869 L13.5648779,20.7341902 L16.2214649,20.91994 L15.982419,19.8846121 L18.5866861,19.283424 L18.0470851,18.3488921 L20.3716339,17.0069342 L19.575475,16.264571 L21.4117331,14.2956031 L20.4321532,13.8178732 L21.6131168,11.3967572 L20.5416511,11.2270691 L20.9627624,8.56851679 L19.9382809,8.73076408 L19.5173438,6.07331171 L18.5945725,6.52333673 L17.4221312,4.11969272 L16.6700161,4.82098804 L14.855778,2.87563135 L14.3366634,3.77468294 L12.0400933,2.44887721 L11.8027569,3.47680111 L9.21913678,2.88037924 L9.29414711,3.95298005 L6.64201409,4.13841852 L7.0341632,5.15990972 L4.5369995,6.11839454 L5.20887048,6.94801122 L3.11239489,8.64555044 L3.99723874,9.24233128 L2.48580883,11.482916 L3.50425405,11.7942578 L2.71477846,14.3762831 L3.77294063,14.3762831 L3.77294063,17.0662973 Z M7.33248676,7.21717028 L10.5803872,7.21717028 C10.9576704,7.21717028 11.3328976,7.24382336 11.7060799,7.29713032 C12.0792623,7.35043727 12.4073297,7.45704956 12.6902922,7.61697042 C12.9732546,7.77689128 13.1885489,8.00036706 13.3361814,8.28740449 C13.483814,8.57444192 13.5248225,8.95578593 13.4592079,9.43144796 C13.3935935,9.92351213 13.1988035,10.3315092 12.8748319,10.6554515 C12.5508605,10.9793937 12.155129,11.2110704 11.6876259,11.3504886 L11.6876259,11.3750917 C11.9664875,11.416097 12.2145884,11.4960563 12.4319364,11.6149718 C12.6492844,11.7338873 12.8276711,11.8856048 12.9671018,12.0701288 C13.1065326,12.254653 13.2049529,12.4699278 13.2623656,12.7159598 C13.3197782,12.9619919 13.3279799,13.2244222 13.2869708,13.5032586 C13.2213564,13.9625184 13.0696252,14.3459128 12.8317727,14.6534528 C12.5939202,14.9609929 12.3068611,15.2090716 11.970587,15.3976961 C11.6343128,15.5863207 11.2652369,15.7216363 10.8633482,15.8036471 C10.4614595,15.8856577 10.0677785,15.9266624 9.68229349,15.9266624 L6.11452411,15.9266624 L7.33248676,7.21717028 Z M8.75959451,10.6985069 L10.1497943,10.6985069 C10.2974269,10.6985069 10.4450572,10.682105 10.5926898,10.6493007 C10.7403224,10.6164964 10.8777006,10.5631902 11.0048287,10.4893806 C11.1319567,10.415571 11.2385787,10.3171596 11.3246977,10.1941436 C11.4108167,10.0711276 11.4661781,9.92351053 11.4907835,9.75128807 C11.5153889,9.57086454 11.4969351,9.42119726 11.4354216,9.30228176 C11.373908,9.18336625 11.2857398,9.09110561 11.1709145,9.02549705 C11.0560892,8.9598885 10.9228118,8.91273306 10.7710783,8.88402931 C10.6193448,8.85532558 10.469664,8.84097391 10.3220314,8.84097391 L9.01795022,8.84097391 L8.75959451,10.6985069 Z M8.25518574,14.3028588 L9.97755716,14.3028588 C10.1251897,14.3028588 10.2789714,14.286457 10.4389067,14.2536527 C10.5988419,14.2208484 10.7444219,14.1634417 10.8756508,14.0814311 C11.0068798,13.9994204 11.1217034,13.8928081 11.2201251,13.761591 C11.3185468,13.6303739 11.3800595,13.4704554 11.4046649,13.2818308 C11.4292703,13.076804 11.4005644,12.910735 11.3185463,12.7836184 C11.2365282,12.6565018 11.1217046,12.5601407 10.9740721,12.4945321 C10.8264395,12.4289236 10.6644562,12.3838183 10.4881173,12.3592151 C10.3117784,12.3346118 10.1456942,12.3223105 9.98985982,12.3223105 L8.53814676,12.3223105 L8.25518574,14.3028588 Z M17.514511,7.35544855 L15.4783549,14.7951017 L13.7964121,14.6772286 L15.0640236,7.00641382 L17.514511,7.35544855 Z M15.7391993,15.5712008 L15.209992,18.1998353 L12.972934,17.5484792 L13.4852324,15.0266027 L15.7391993,15.5712008 Z"></path>
        </g>
    </g>
</svg>