<svg height="32" viewBox="0 0 32 32" width="32" xmlns="http://www.w3.org/2000/svg"><g fill="none" fill-rule="evenodd"><circle cx="16" cy="16" fill="#00a8d6" r="16"/><path d="m14.4318182 18.9508197v-1.9180328h2.9545454c1.969697 0 2.9545455-.4918033 2.9545455-1.4754099v-5.1639344c0-.98360653-.9848485-1.47540981-2.9545455-1.47540981h-4.7272727v3.09836061h-2.6590909v-5.0163934h7.0909091c3.9393939 0 5.9090909 1.08196721 5.9090909 3.2459016v5.4590164c0 2.1639345-1.969697 3.2459017-5.9090909 3.2459017zm5.9090909 1.1803278h2.6590909v1.6229509c0 2.1639344-1.969697 3.2459016-5.9090909 3.2459016h-7.0909091v-11.5081967h7.0909091c.4158929 0 .8098323.0120592 1.1818182.0361776v1.921219c-.2691789-.0262425-.5646334-.0393638-.8863637-.0393638h-4.7272727v7.6721311h1.7727273 2.9545454c1.969697 0 2.9545455-.4918033 2.9545455-1.4754098z" fill="#fff"/></g></svg>