<svg height="32" viewBox="0 0 32 32" width="32" xmlns="http://www.w3.org/2000/svg"><g fill="none"><circle cx="16" cy="16" fill="#0f63d8" r="16"/><path d="m25.8836586 20.737424c-.0963286.1985526-.2024867.3931735-.3165084.5799309-.0766698.1376107-.1513736.2752214-.2319751.4069345-.037352.0609419-.0668403.1238497-.1041923.1828257h-.0117953c-1.568627 2.4925151-4.0793587 4.243979-6.9602472 4.855406-2.8808886.6114269-5.8865958.0307474-8.3324178-1.6097589-.04914728-.0334198-.09239687-.0707712-.14154415-.104191-.18872552-.1199179-.36958748-.2535969-.54848355-.3931735-.11598756-.088464-.23000923-.1788939-.34009911-.2712897-.15923716-.133679-.33813323-.2988118-.46001847-.4128321-.12188523-.1140203-.23197512-.2182113-.35582624-.3459927-.12385113-.1277814-.23197512-.2496652-.35779214-.3931735-.12581701-.1435083-.27522472-.3165046-.36958748-.4364225-.09436276-.119918-.18479374-.2418017-.27325883-.3656514-.12188523-.1690646-.24180458-.340095-.35386035-.5150572-.07273797-.1140204-.14154415-.2300065-.21035033-.3479586-.11008988-.1828256-.21821388-.3794124-.31847432-.5759991-.05897672-.1159862-.11402167-.2339383-.16906661-.3518903-.09239687-.1985526-.18282785-.4069346-.26342938-.6035213-.04914727-.1258155-.09436276-.2535969-.13957825-.3813783-.06880618-.2005185-.13761236-.4089004-.19658908-.6054871-.03931782-.1415425-.0648744-.2771873-.108124-.4226615-.04914727-.1965868-.09632865-.3931735-.13368058-.5897603-.01965891-.1494059-.05307905-.3086411-.06684029-.4501836-.02752247-.1965867-.05504494-.3931735-.07273796-.5897602-.01376124-.1553036-.03145425-.3106071-.03145425-.4659106-.01572713-.1965867-.01572713-.3931735-.01572713-.5897602 0-.1513718.01179535-.3007777.01179535-.4521495.00982945-.2103478.02359069-.4187298.04521548-.6290776.01376124-.1376107.03145426-.2732556.05111317-.4108663.03145425-.2254195.07011677-.4508389.11598756-.6762584.02490128-.1192626.05176846-.2385252.08060152-.3577879.05635554-.2411464.12188524-.4816375.19658909-.7214733.03276485-.1035357.06684029-.2070714.10222632-.3106071.08518861-.2463887.18020667-.4908115.28505418-.7332685.02359069-.0550443.05111316-.1218838.0648744-.1670987.01376123-.045215.04128371-.0923958.07863563-.1317132.10419222-.222143.21821389-.4423201.33813323-.6605314.05701083-.1218838.12581701-.2418017.19658909-.3597537.05111316-.0864982.0845333-.1670988.1494077-.2614604.0648744-.09436164.13957825-.19265501.20641854-.29094839.08846509-.13957658.17889607-.26735796.27325883-.39317348.12581702-.1690646.2575317-.33419746.39317817-.49539859.09829455-.11402031.1946232-.22607475.29488363-.33616333.14940771-.1625117.30274719-.3197811.46001846-.47180818.09829455-.09239577.1946232-.18479153.29488363-.27325557.17561959-.15464823.35451565-.30208829.53668821-.44232017.09698395-.07601354.19527849-.1507165.29488363-.22410888.18741493-.13105783.37876164-.26211566.57404008-.39317349.1041923-.06880536.2083845-.13367898.3145426-.19658674.1965891-.11402031.3931782-.22410888.5897672-.32633399.1199194-.06290776.2418046-.12188378.3656557-.17889393.1887256-.08649817.3735193-.17103047.5701084-.2476993.1454759-.05897602.269327-.10615684.4423254-.16709873s.3459968-.11795204.5209611-.17103047c.1749643-.05307842.3774511-.10615684.5307905-.14350832.1533395-.03735148.306679-.07077122.4600185-.1022251.2024868-.04128322.4167689-.07470296.613358-.10419098.1336805-.01965867.2673611-.03735148.4030076-.05111255.2221457-.02359041.4462572-.03931735.6723347-.04914668.1218852-.00982934.2457363-.00982934.3695874-.00982934.2319752-.00262116.4646056.00262116.6978913.01572694.1218852.0058976.2457364.01572694.3676216.02555627.222801.01965868.4456019.04652553.6684029.08060057.1297488.01965867.2614635.04128321.3931782.06683949.2149374.04062793.4298748.08846404.6448122.14350832.14351.03735148.28702.07666883.4305301.11991792.2103503.05897602.4069394.12384964.6035284.19658674.1474419.05307842.2948837.11008857.4403596.17103046.1100899.04521495.2221457.08060057.3322356.12974725v.01572694c2.6998068 1.18229761 4.8054146 3.40796823 5.8363157 6.16910551 1.0309011 2.7611374.8991304 5.822138-.3652415 8.4844702-.0196589.0412832-.0432496.0766689-.0629085.1179521zm-14.0561196 4.4998705v-.0019659c4.6448588 2.0809169 10.1126847.3984643 12.7841882-3.9337007.072738-.1199179.1395783-.2437675.2083845-.3656513.0943627-.1808598.2005208-.3538562.2909518-.5504429 1.2218873-2.5130866 1.346492-5.4204421.3441041-8.0288553-1.0023879-2.60841329-3.0419371-4.68412531-5.6323505-5.73221662-.1277829-.05504429-.2594976-.10615684-.3931782-.15530353-.1874149-.06683949-.3754851-.12843667-.5642107-.18479154-.1336805-.03931735-.2634293-.07470296-.3931781-.1081227-.2005209-.05111256-.4010418-.09567222-.6015626-.13367899-.1192641-.02227983-.2385281-.04259379-.3577922-.06094189-.2110056-.03276446-.4226665-.05832073-.6349827-.07666883l-.3361674-.02359041c-.216248-.01048462-.4318407-.01572694-.6467781-.01572694h-.3381332c-.2083844.00917405-.4161135.0242457-.6231874.04521495-.1245064.01441636-.2483575.0301433-.3715534.04718082-.1900361.02621157-.3787616.05832074-.5661765.09632751-.1415442.02883272-.282433.0602866-.4226666.09436163-.1638242.03931735-.3269931.08322172-.4895068.13171312-.1625136.04849139-.3230614.10091453-.4816432.15726939-.1402336.0484914-.2758801.09960395-.4069395.15333766-.1769301.07208181-.3525497.14875063-.5268587.23000649-.1127111.05242313-.2241116.10681213-.3342014.16316699-.1847938.09567222-.3669663.19658675-.5465177.30274359-.096984.05635486-.1933126.11533088-.288986.17692806-.1808619.11270974-.3584474.23459352-.53275639.36565134-.09043098.06159718-.17955136.1271261-.26736115.19658675-.16775602.1323684-.33158026.26997912-.49147272.41283215-.09043098.07994528-.17889607.16185642-.26539526.24573343-.14678652.14809535-.29095185.29815656-.43249599.45018364-.08912039.09305106-.17758548.1933103-.26539527.30077771-.12712761.15071651-.25032344.30536474-.36958748.46394471-.08453331.11402031-.16710073.23000651-.24770225.34795851-.11598756.1690646-.22804334.3400951-.33420145.5170232-.0648744.1081227-.12385112.2162454-.18479374.3243681-.11991934.2024843-.21821388.4069345-.31650843.6192482-.0432496.0904299-.08256741.1808598-.12188523.2732556-.09698395.22673-.18544904.4560812-.26539527.6880536-.03145425.0917405-.06159791.1834809-.09043098.2752214-.07601444.2241089-.14154414.4495284-.19658908.6762584-.02555658.104191-.04914727.2103478-.07077207.3165047-.0432496.2103478-.07863564.4226615-.108124.6349751-.01572713.1218838-.03342014.2457335-.04521549.3676173-.01965891.1965867-.04128371.3931734-.04128371.5897602-.01179534.133679-.01179534.2693238-.01179534.4049687 0 .1867574.01572712.3735148.01572712.5602722.00786357.1395766.01572713.2791532.02948837.4187297.01769301.1847916.04128371.3676172.06880618.5504429.02555658.1356449.04718138.2634263.07273796.4089004.03538603.1847916.07863563.3695831.12385112.5543747.03145426.1258155.06290851.251631.10026044.3794124.05504494.1906891.11795345.3774465.18479374.5642039.04128371.1140203.08060152.2300065.12581701.3440268.07470386.1887233.15727127.371549.23394102.5661698.05111316.1081227.10026043.2162454.15530537.3224023.09829455.1788939.19265731.355822.29488363.5307842.06684029.1081227.1297488.2142795.19658909.3204364.10222632.1612011.2142821.3184705.32633788.4757399.08256742.1140203.14351003.2083819.25163403.3381292.108124.1297472.23000923.2712897.33616734.3931735s.22411156.2535969.33026966.3636854c.10615811.1100886.18872553.1887233.32633789.3184706.13761236.1297472.27719061.2594945.42463242.3833441.10026044.0845323.20445265.1670987.30864487.2476993.16513483.1297473.33420146.2555628.50916576.3754807.4968047.3417538 1.0231319.6384672 1.5727127.8866062zm4.1519615-.8256643c-3.4049186.0023851-6.475967-2.0466185-7.78099318-5.1914789s-.58699936-6.7661832 1.81923598-9.1752015c2.4062354-2.40901832 6.0267603-3.13126512 9.1731801-1.829928s5.1990329 4.3699539 5.200624 7.7748324c-.0032432 4.6460383-3.7659602 8.4131071-8.4120469 8.421776zm0-14.0775766c-2.2900683-.0023857-4.3558947 1.3754757-5.2335521 3.4906657-.87765745 2.11519-.3941648 4.5508171 1.2248773 6.1704029 1.6190422 1.6195858 4.0545301 2.1039194 6.1700504 1.2270078 2.1155202-.8769116 3.4941161-2.9422343 3.4925265-5.2322758-.0032433-3.1221381-2.5317319-5.6532341-5.6539021-5.6597323z" fill="#fff"/></g></svg>