<svg height="32" viewBox="0 0 32 32" width="32" xmlns="http://www.w3.org/2000/svg"><g fill="none" fill-rule="evenodd"><circle cx="16" cy="16" fill="#fe5d86" r="16"/><path d="m8 9.03903478c0-.57384307.47201925-1.03903478 1.0542845-1.03903478h7.5873918c4.4763883 0 6.0549345.52803407 7.1437857 1.60113556.6819081.69548804 1.0371036 1.64064384.9793899 2.60610364 0 1.8509581-.9966733 3.1057487-3.6871152 3.6564939 2.598264.4542229 3.9175599 1.510291 3.9175599 3.6337829.0512189.9989837-.3176617 1.9745984-1.0197178 2.6969482-1.0658067 1.0503903-2.8056642 1.8055358-7.4894527 1.8055358h-7.4318416c-.58226525 0-1.0542845-.4651917-1.0542845-1.0390348zm5.7611175 5.96167492c0-.382562.3146795-.6926898.7028563-.6926898h2.4427139c1.3941904 0 2.4369527-.0681335 2.9208865-.5677786.2277176-.2405489.3444688-.5631347.3226226-.8914123.0302361-.3201131-.0786282-.6378552-.2995781-.874379-.489695-.4826118-1.5324572-.5677786-2.943931-.5677786h-4.5455217v9.2320795h4.4994327c1.5324573 0 2.6673974-.1135557 3.1974202-.6415898.2439843-.2503466.3694956-.5905102.3456671-.9368346.0226089-.3529547-.1022879-.6996589-.3456671-.9595458-.5357839-.5280341-1.670724-.5677786-3.1974202-.5677786h-2.3793415c-.1934519.0047942-.380351-.0692292-.5166391-.2046205-.1362882-.1353913-.2099064-.320171-.2035006-.5107805z" fill="#fff" fill-rule="nonzero"/></g></svg>