<svg width="32" height="33" viewBox="0 0 32 33" fill="none" xmlns="http://www.w3.org/2000/svg">
<g clip-path="url(#clip0)">
<path d="M31.9999 16.5444C31.9999 25.379 24.8359 32.5419 15.9961 32.5432C7.16268 32.5432 -0.00134055 25.379 -6.03491e-05 16.5432C-0.00262076 7.70731 7.1614 0.544434 15.9987 0.544434C24.8359 0.544434 31.9999 7.70859 31.9999 16.5444Z" fill="#EAB300"/>
<path d="M22.2947 12.626C22.0886 10.4832 20.2387 9.76516 17.9011 9.56036V6.58691H16.0921V9.481C15.6172 9.481 15.1307 9.48996 14.6481 9.5002V6.58691H12.8391L12.8379 9.5578C12.4461 9.56548 12.0608 9.57316 11.6857 9.57316V9.5642L9.19058 9.56292V11.4957C9.19058 11.4957 10.5271 11.4701 10.5041 11.4944C11.2376 11.4944 11.4757 11.9194 11.5449 12.2868V15.6736C11.5961 15.6736 11.6614 15.6762 11.7356 15.6864H11.5449L11.5436 20.4314C11.5116 20.6618 11.3759 21.0292 10.8638 21.0305C10.8868 21.0509 9.54904 21.0305 9.54904 21.0305L9.1893 23.1911H11.5449C11.9827 23.1911 12.4141 23.1988 12.8366 23.2013L12.8379 26.2081H14.6455V23.2333C15.1409 23.2436 15.621 23.2474 16.0909 23.2474L16.0896 26.2081H17.8985V23.2077C20.9402 23.0337 23.0718 22.2669 23.3355 19.41C23.5493 17.1098 22.4675 16.082 20.7405 15.6672C21.7916 15.1348 22.4483 14.194 22.2947 12.626ZM19.7625 19.0541C19.7625 21.3005 15.9155 21.0458 14.6878 21.0458V17.0612C15.9155 17.0637 19.7625 16.7117 19.7625 19.0541ZM18.9201 13.4336C18.9201 15.4778 15.7094 15.2384 14.6878 15.2397V11.6276C15.7106 11.6276 18.9214 11.3024 18.9201 13.4336Z" fill="white"/>
<path d="M11.5474 15.5934H11.8163V15.7918H11.5474V15.5934Z" fill="white"/>
</g>
<defs>
<clipPath id="clip0">
<rect width="32" height="32" fill="white" transform="translate(0 0.544434)"/>
</clipPath>
</defs>
</svg>
