<svg height="32" viewBox="0 0 32 32" width="32" xmlns="http://www.w3.org/2000/svg"><g fill="none" fill-rule="evenodd"><circle cx="16" cy="16" fill="#272d63" r="16"/><path d="m20.2150538 7.19947849-.6994835 2.84224251c2.1632174.756193 3.7564853 1.8904824 3.4456037 3.9895697-.0906737.6388527-.3108815 1.2777054-.7642504 1.7601043-.3886019.41721-.9974116.6388527-1.5155475.8083442-.6088097.208605-1.2823864.3259453-1.9300562.3389831-.4404155 0-.8678777-.0130378-1.3082932-.0521512-.7124368-.0521513-1.4378271-.1173403-2.1373105-.273794-.2202078-.0521513-.4274622-.0912647-.6217631-.143416l-.945598 3.8200783-.5569961 2.0860495-.6994835 2.8552803-1.7228018-.4302477.7124368-2.8813559c-.4015553-.1043025-.816064-.2216428-1.2305727-.3259453l-2.2409378-.5606258.85492423-1.9687092s1.26943297.338983 1.25647957.3129074c.4922291.1173403.6994834-.208605.7901572-.4172099l.9715048-3.9113429.4533689-1.8122555.5181359-2.0860496c.0259068-.3650587-.1036271-.8344198-.8031106-1.0039113.0259068-.0130378-1.2564796-.31290746-1.2564796-.31290746l.453369-1.85136897 2.3704717.59973924c.3626951.09126467.7253902.16949153 1.1010388.26075619l.6994834-2.8422425 1.7228019.43024772-.6865301 2.79009126c.4533689.10430248.9196912.20860496 1.3730602.32594524l.6735766-2.77705345zm-.1424874 10.29986961c.4792757-.0782268 1.0621786-.273794 1.4766873-.4432855.0129534-.0130378.0388602-.0130378.0518136-.0260756.8937844.7953064 1.3212465 2.0860495.7383437 3.7418513-.9196913 2.6857888-3.1347222 2.9074316-6.06219 2.3468058l-.7124369 2.8813559-1.7098485-.4302477.6606233-2.7509779.0259068-.0912646.5181359-2.1121252c1.5285009.3389831 3.5880911.5606258 3.976693-1.0299869.2072544-.8474577-.1943009-1.4602347-.8419708-1.9035203.2331611-.0130378.4533689-.0260756.6735766-.0391134.4792758-.0260756.7253903-.065189 1.204666-.1434159zm-.5051825-3.494133c.5051825-2.0469361-2.6295397-2.4902216-3.6010445-2.7509778l-.8549242 3.4680574c.9715048.2477183 3.976693 1.2385919 4.4559687-.7170796z" fill="#fefefe" fill-rule="nonzero"/></g></svg>