<svg xmlns="http://www.w3.org/2000/svg" width="32" height="32"><g fill="none"><circle cx="16" cy="16" r="16" fill="#F8C24A"/><path fill="#FFF" d="M16 27C9.934 27 5 22.066 5 16S9.937 5 16 5s11 4.937 11 11c0 1.002-.136 2-.405 2.966a.888.888 0 0 1-1.71-.478c.225-.81.34-1.647.339-2.488 0-5.086-4.138-9.224-9.224-9.224S6.776 10.914 6.776 16s4.138 9.224 9.224 9.224c.952 0 1.899-.146 2.806-.435a.888.888 0 1 1 .538 1.692A10.97 10.97 0 0 1 16 27zm3.375-11.026c.38.318.636.778.768 1.379.086.346.08.709-.016 1.052a2.125 2.125 0 0 1-.494.85 3.14 3.14 0 0 1-.868.637c-.342.177-.423.234-.831.324l-.254.061a.296.296 0 0 0-.219.352l.15.672a.296.296 0 0 1-.226.353l-.677.15a.296.296 0 0 1-.353-.225l-.148-.667a.296.296 0 0 0-.353-.225l-1.833.406a.722.722 0 0 1-.86-.55l-1.65-7.459a.722.722 0 0 1 .55-.86l1.833-.406a.296.296 0 0 0 .225-.353l-.15-.672a.296.296 0 0 1 .227-.352l.677-.15a.296.296 0 0 1 .353.225l.148.668a.296.296 0 0 0 .353.224l.56-.122c.29-.068.593-.063.88.015.274.075.53.203.753.377a2.537 2.537 0 0 1 .894 1.434c.094.42.075.858-.054 1.27a2.06 2.06 0 0 1-.767 1.06c.506.024.99.21 1.382.532zm-5.43-1.597l.098.426a.722.722 0 0 0 .86.55l1.307-.29a.916.916 0 0 0 .55-.357c.141-.188.177-.44.107-.757-.065-.292-.192-.5-.38-.624a.767.767 0 0 0-.612-.114l-1.38.305a.722.722 0 0 0-.55.861zm3.909 3.767h.002a.951.951 0 0 0 .11-.745 1.089 1.089 0 0 0-.393-.647.764.764 0 0 0-.663-.156l-1.656.367a.722.722 0 0 0-.55.86l.116.527a.722.722 0 0 0 .861.55l1.569-.347a.916.916 0 0 0 .604-.409zm3.298 5.383l1.533-1.832a.277.277 0 0 0-.213-.455H21.44a.277.277 0 0 1-.278-.277v-.216c0-.153.124-.277.278-.277h2.358a.277.277 0 0 1 .277.277v.284a.277.277 0 0 1-.06.172l-1.467 1.842a.277.277 0 0 0 .217.45h1.051c.153 0 .278.124.278.277v.215a.277.277 0 0 1-.278.277h-2.452a.277.277 0 0 1-.277-.277v-.28a.28.28 0 0 1 .065-.18z"/></g></svg>