<svg height="32" width="32" xmlns="http://www.w3.org/2000/svg"><g fill="none"><circle cx="16" cy="16" fill="#504c4c" r="16"/><path d="m10.827 15.376-1.745 3.698.812 3.032 2.066.552 2.564 2.567-.772.775-6.112-1.64-1.64-6.112 1.23-1.228 5.342-5.343-1.745 3.699-1.745 3.698 5.442-5.442-1.952-1.955zm2.805 2.1 5.442 5.442 3.032-.812.554-2.066 2.565-2.564.775.772-1.638 6.114-6.114 1.638-6.569-6.572zm4.736-2.952-5.442-5.442-3.034.812-.552 2.063-2.565 2.567-.775-.772 1.64-6.114 6.112-1.638 1.228 1.23 5.34 5.34zm1.672-5.184-2.564-2.565.772-.775 6.114 1.638 1.638 6.114-6.572 6.569-1.952-1.953 5.444-5.444-.814-3.032z" fill="#fff"/></g></svg>