<?xml version="1.0" encoding="UTF-8"?>
<svg width="32px" height="32px" viewBox="0 0 32 32" version="1.1" xmlns="http://www.w3.org/2000/svg" xmlns:xlink="http://www.w3.org/1999/xlink">
    <!-- Generator: Sketch 53 (72520) - https://sketchapp.com -->
    <title>svg/color/btt</title>
    <desc>Created with Sketch.</desc>
    <g id="color/btt" stroke="none" stroke-width="1" fill="none" fill-rule="evenodd">
        <g id="Group" fill="#000000" fill-rule="nonzero">
            <circle id="Oval" cx="16" cy="16" r="16"></circle>
        </g>
        <g id="btt" transform="translate(4.000000, 4.000000)" fill="#FFFFFF" fill-rule="nonzero">
            <g id="Group" transform="translate(0.000000, 0.000000)">
                <path d="M23.7428571,9.53877551 C23.5836735,8.76734694 23.3510204,8.02040816 23.044898,7.29795918 C22.7510204,6.5877551 22.3714286,5.91428571 21.9428571,5.26530612 C21.5142857,4.62857143 21.0244898,4.04081633 20.4857143,3.50204082 C19.9469388,2.96326531 19.3591837,2.47346939 18.722449,2.04489796 C18.0857143,1.61632653 17.4,1.24897959 16.6897959,0.942857143 C15.9673469,0.636734694 15.2204082,0.404081633 14.4489796,0.244897959 C13.6653061,0.0857142857 12.8571429,9.76996262e-15 12.0489796,9.76996262e-15 C11.2408163,9.76996262e-15 10.4326531,0.0857142857 9.64897959,0.244897959 C8.87755102,0.404081633 8.13061224,0.636734694 7.40816327,0.942857143 C6.69795918,1.23673469 6.0244898,1.61632653 5.3755102,2.04489796 C4.73877551,2.47346939 4.15102041,2.96326531 3.6122449,3.50204082 C3.07346939,4.04081633 2.58367347,4.62857143 2.15510204,5.26530612 C1.72653061,5.90204082 1.35918367,6.5877551 1.05306122,7.29795918 C0.746938776,8.02040816 0.514285714,8.76734694 0.355102041,9.53877551 C0.195918367,10.322449 0.110204082,11.1306122 0.110204082,11.9387755 C0.110204082,12.7469388 0.195918367,13.555102 0.355102041,14.3387755 C0.514285714,15.1102041 0.746938776,15.8571429 1.05306122,16.5795918 C1.34693878,17.2897959 1.72653061,17.9632653 2.15510204,18.6122449 C2.58367347,19.2489796 3.07346939,19.8367347 3.6122449,20.3755102 C4.15102041,20.9142857 4.73877551,21.4040816 5.3755102,21.8326531 C6.0122449,22.2612245 6.69795918,22.6285714 7.40816327,22.9346939 C8.13061224,23.2408163 8.87755102,23.4734694 9.64897959,23.6326531 C10.4326531,23.7918367 11.2408163,23.877551 12.0489796,23.877551 C12.8571429,23.877551 13.6653061,23.7918367 14.4489796,23.6326531 C15.2204082,23.4734694 15.9673469,23.2408163 16.6897959,22.9346939 C17.4,22.6408163 18.0734694,22.2612245 18.722449,21.8326531 C19.3591837,21.4040816 19.9469388,20.9142857 20.4857143,20.3755102 C21.0244898,19.8367347 21.5142857,19.2489796 21.9428571,18.6122449 C22.3714286,17.9755102 22.7387755,17.2897959 23.044898,16.5795918 C23.3510204,15.8571429 23.5836735,15.1102041 23.7428571,14.3387755 C23.9020408,13.555102 23.9877551,12.7469388 23.9877551,11.9387755 C23.9877551,11.1306122 23.9020408,10.322449 23.7428571,9.53877551 Z M12.0612245,22.3836735 C6.29387755,22.3836735 1.62857143,17.7061224 1.62857143,11.9510204 C1.62857143,6.19591837 6.30612245,1.51836735 12.0612245,1.51836735 C17.8163265,1.51836735 22.4938776,6.19591837 22.4938776,11.9510204 C22.4938776,17.7061224 17.8163265,22.3836735 12.0612245,22.3836735 Z" id="Shape"></path>
                <path d="M12.244898,21.477551 C12.2816327,21.477551 12.3061224,21.477551 12.3428571,21.477551 C12.355102,21.477551 12.3795918,21.477551 12.3918367,21.477551 C12.4285714,21.477551 12.4653061,21.477551 12.4897959,21.477551 C12.5020408,21.477551 12.5142857,21.477551 12.5265306,21.477551 C12.5755102,21.477551 12.6244898,21.477551 12.6734694,21.4653061 C12.6734694,21.4653061 12.6734694,21.4653061 12.6857143,21.4653061 C12.7346939,21.4653061 12.7714286,21.4653061 12.8204082,21.4530612 C12.8326531,21.4530612 12.844898,21.4530612 12.8571429,21.4530612 C12.8938776,21.4530612 12.9306122,21.4530612 12.9673469,21.4408163 C12.9795918,21.4408163 12.9918367,21.4408163 13.0040816,21.4408163 C13.0408163,21.4408163 13.077551,21.4285714 13.1265306,21.4285714 C13.1387755,21.4285714 13.1387755,21.4285714 13.1510204,21.4285714 C13.2,21.4285714 13.2489796,21.4163265 13.2979592,21.4163265 C13.2979592,21.4163265 13.2979592,21.4163265 13.2979592,21.4163265 C13.3469388,21.4163265 13.3836735,21.4040816 13.4326531,21.3918367 C13.444898,21.3918367 13.4571429,21.3918367 13.4571429,21.3918367 C13.4938776,21.3918367 13.5306122,21.3795918 13.5673469,21.3795918 C13.5795918,21.3795918 13.5795918,21.3795918 13.5918367,21.3795918 C13.6408163,21.3673469 13.677551,21.3673469 13.7265306,21.355102 C13.7265306,21.355102 13.7265306,21.355102 13.7265306,21.355102 C13.8244898,21.3428571 13.922449,21.3183673 14.0081633,21.2938776 C14.0204082,21.2938776 14.0204082,21.2938776 14.0326531,21.2938776 C14.0693878,21.2816327 14.1183673,21.2816327 14.155102,21.2693878 C14.155102,21.2693878 14.1673469,21.2693878 14.1673469,21.2693878 C14.2653061,21.244898 14.3510204,21.2204082 14.4489796,21.1959184 L14.4489796,21.1959184 C13.2734694,21.2326531 12.3183673,21.0734694 11.7183673,20.9387755 C10.3714286,20.644898 9.08571429,20.1183673 7.99591837,19.2122449 C6.18367347,17.6938776 5.25306122,15.5142857 5.27755102,13.3469388 C5.28979592,11.7306122 5.84081633,10.1142857 6.95510204,8.79183673 C8.35102041,7.13877551 10.3346939,6.26938776 12.3673469,6.22040816 C12.4653061,6.22040816 12.5510204,6.22040816 12.6489796,6.22040816 L12.6489796,4.59183673 C12.5387755,4.59183673 12.4408163,4.59183673 12.3306122,4.59183673 C11.7061224,4.60408163 11.0938776,4.67755102 10.4938776,4.8122449 C9.88163265,4.94693878 9.29387755,5.15510204 8.73061224,5.4122449 C8.15510204,5.68163265 7.61632653,6.0122449 7.11428571,6.39183673 C6.6,6.78367347 6.12244898,7.23673469 5.70612245,7.73877551 C5.31428571,8.20408163 4.97142857,8.70612245 4.68979592,9.24489796 C4.40816327,9.75918367 4.1877551,10.3102041 4.01632653,10.8734694 C3.85714286,11.4244898 3.73469388,12 3.68571429,12.5755102 C3.67346939,12.7591837 3.66122449,12.9306122 3.64897959,13.1142857 C3.64897959,13.1877551 3.64897959,13.2489796 3.64897959,13.322449 C3.64897959,13.3591837 3.64897959,13.3959184 3.64897959,13.4326531 C3.66122449,14.0571429 3.73469388,14.6693878 3.86938776,15.2693878 C4.00408163,15.8816327 4.2122449,16.4693878 4.46938776,17.0326531 C4.7755102,17.7061224 5.32653061,18.6979592 6.14693878,19.444898 C6.14693878,19.444898 6.14693878,19.444898 6.14693878,19.444898 C7.76326531,20.7183673 9.80816327,21.477551 12.0244898,21.477551 C12.0734694,21.477551 12.122449,21.477551 12.1714286,21.477551 C12.2081633,21.477551 12.2326531,21.477551 12.244898,21.477551 Z" id="Path"></path>
                <path d="M14.9142857,19.9102041 C14.3510204,19.8979592 13.6530612,19.8122449 13.1142857,19.7142857 C10.5918367,19.2612245 8.4244898,17.7183673 7.62857143,15.3918367 C6.66122449,12.5632653 8.14285714,9.50204082 10.9591837,8.57142857 C11.5102041,8.3877551 12.0612245,8.30204082 12.6244898,8.30204082 C13.3469388,8.30204082 14.0693878,8.44897959 14.7306122,8.71836735 L15.4163265,7.26122449 C15.2081633,7.1755102 15,7.10204082 14.7918367,7.02857143 C14.0938776,6.80816327 13.3591837,6.69795918 12.6244898,6.69795918 C11.8897959,6.69795918 11.155102,6.82040816 10.4571429,7.05306122 C9.56326531,7.34693878 8.74285714,7.8244898 8.04489796,8.44897959 C7.71428571,8.74285714 7.39591837,9.08571429 7.12653061,9.44081633 C6.85714286,9.79591837 6.6244898,10.1755102 6.42857143,10.5795918 C6.23265306,10.9836735 6.07346939,11.4 5.96326531,11.8285714 C5.85306122,12.2571429 5.76734694,12.7102041 5.74285714,13.1632653 C5.68163265,14.0938776 5.80408163,15.0244898 6.11020408,15.9061224 C6.41632653,16.8 6.90612245,17.6204082 7.57959184,18.3428571 C8.17959184,18.9918367 8.87755102,19.4816327 9.72244898,19.9346939 C10.6040816,20.4 11.6938776,20.644898 12.8326531,20.8040816 C13.5673469,20.9020408 14.5469388,20.9265306 15.122449,20.9265306 C15.6244898,20.7428571 15.8326531,20.6571429 16.1020408,20.5469388 C16.3346939,20.4367347 16.5673469,20.3265306 16.8,20.1918367 C17.0326531,20.0571429 17.0693878,20.0326531 17.4612245,19.7755102 C17.4979592,19.7510204 17.5346939,19.7265306 17.5591837,19.7020408 C16.2122449,19.9346939 15.8693878,19.922449 14.9142857,19.9102041 Z" id="Path"></path>
                <path d="M17.9265306,18.0857143 C17.5469388,18.1102041 17.0081633,18.1469388 16.3959184,18.1469388 C15.3061224,18.1469388 13.9714286,18.0489796 12.8326531,17.6693878 C11.0693878,17.0816327 9.40408163,15.5755102 9.40408163,13.7142857 C9.40408163,11.8530612 10.9102041,10.3591837 12.7591837,10.3591837 C14.0204082,10.3591837 15.1102041,11.0571429 15.6857143,12.0734694 L17.1428571,11.3510204 C16.9102041,10.922449 16.6285714,10.5306122 16.2734694,10.1877551 C15.8204082,9.73469388 15.2816327,9.36734694 14.6938776,9.12244898 C14.0816327,8.86530612 13.4326531,8.73061224 12.7591837,8.73061224 C12.0857143,8.73061224 11.4367347,8.86530612 10.8244898,9.12244898 C10.2367347,9.36734694 9.69795918,9.73469388 9.24489796,10.1877551 C8.79183673,10.6408163 8.4244898,11.1795918 8.17959184,11.7673469 C7.92244898,12.3795918 7.7877551,13.0285714 7.7877551,13.7020408 C7.7877551,14.3755102 7.93469388,15.0489796 8.21632653,15.6857143 C8.47346939,16.2489796 8.82857143,16.7755102 9.28163265,17.2653061 C10.077551,18.122449 11.1673469,18.8081633 12.3306122,19.2 C13.444898,19.5673469 15.0857143,19.7020408 16.677551,19.5918367 C17.1183673,19.555102 17.4489796,19.5183673 18.0122449,19.3959184 C18.5510204,18.9673469 19.0530612,18.477551 19.4816327,17.9387755 L19.4816327,17.9387755 C19.1020408,17.9755102 18.4040816,18.0489796 17.9265306,18.0857143 Z" id="Path"></path>
            </g>
        </g>
    </g>
</svg>