<svg xmlns="http://www.w3.org/2000/svg" width="32" height="32"><g fill="none" fill-rule="evenodd"><circle cx="16" cy="16" r="16" fill="#FB2EA3"/><path fill="#FFF" fill-rule="nonzero" d="M22.632 14.02c-.227 1.535-1.078 2.278-2.207 2.538 1.55.807 2.34 2.046 1.588 4.192-.933 2.666-3.149 2.89-6.096 2.333L15.2 25.95l-1.728-.431.706-2.828a65.74 65.74 0 0 1-1.378-.358l-.708 2.842-1.727-.43.716-2.873c-.404-.103-.814-.213-1.233-.318l-2.249-.56.858-1.98s1.274.34 1.256.314c.49.121.707-.198.793-.41l1.13-4.532.183.045a1.432 1.432 0 0 0-.18-.057l.806-3.235c.021-.368-.105-.83-.805-1.006.027-.018-1.256-.312-1.256-.312l.46-1.846 2.384.595-.002.01c.358.088.728.173 1.104.259L15.039 6l1.728.43-.694 2.784c.463.106.93.212 1.384.326l.69-2.765 1.728.43-.708 2.84c2.183.752 3.779 1.879 3.465 3.975zm-3.95 5.538c.56-2.238-3.198-2.817-4.37-3.11l-.949 3.805c1.172.291 4.786 1.452 5.32-.695zm.535-5.569c.508-2.037-2.634-2.49-3.61-2.734l-.86 3.451c.975.244 3.983 1.236 4.47-.717zm5.03 7.629a.642.642 0 0 0-.476.127.754.754 0 0 0-.25.432.983.983 0 0 0-.02.285.67.67 0 0 0 .102.306c.06.1.156.194.286.282.13.087.31.157.54.21.124.03.252.044.383.043.132 0 .254-.021.366-.063a.726.726 0 0 0 .47-.541.688.688 0 0 0-.07-.525c-.092-.154-.243-.272-.454-.354l.154-.666c.38.153.646.372.8.655.154.284.186.621.096 1.011a1.586 1.586 0 0 1-.265.6 1.367 1.367 0 0 1-.993.554 1.98 1.98 0 0 1-.642-.047 2.173 2.173 0 0 1-.615-.24 1.498 1.498 0 0 1-.453-.4 1.348 1.348 0 0 1-.238-.545 1.61 1.61 0 0 1 .025-.681 1.87 1.87 0 0 1 .183-.484c.081-.148.18-.273.299-.375.118-.102.254-.176.408-.222.155-.047.327-.056.518-.029l-.154.667zm2.692-2.113a1.69 1.69 0 0 1-.269.619c-.123.17-.27.304-.44.403a1.45 1.45 0 0 1-.572.182c-.211.023-.433.008-.667-.046a1.967 1.967 0 0 1-.614-.25 1.45 1.45 0 0 1-.434-.414 1.414 1.414 0 0 1-.22-.556 1.69 1.69 0 0 1 .03-.673 1.69 1.69 0 0 1 .269-.619c.124-.17.27-.305.441-.403a1.45 1.45 0 0 1 .572-.182c.21-.023.43-.008.66.045.234.054.44.137.62.25.18.114.324.252.434.415.11.163.183.348.22.555a1.69 1.69 0 0 1-.03.674zm-2.624-2.798l.145-.625.584.135.003-.012a.692.692 0 0 1-.213-.17 1.14 1.14 0 0 1-.26-.555.817.817 0 0 1 .01-.312 1.484 1.484 0 0 1 .076-.247l.643.148a3.249 3.249 0 0 0-.053.139 1.233 1.233 0 0 0-.042.141.751.751 0 0 0 .132.64 1 1 0 0 0 .284.25c.119.073.262.129.43.168l1.438.332-.154.666-3.023-.698zm2.28-2.19c.116.028.233.037.35.03a.858.858 0 0 0 .32-.084.737.737 0 0 0 .255-.206.851.851 0 0 0 .156-.345.822.822 0 0 0-.017-.5.763.763 0 0 0-.315-.353l.145-.631a1.29 1.29 0 0 1 .755 1.119c.01.16-.004.322-.041.486-.055.238-.143.44-.263.605a1.34 1.34 0 0 1-1.004.56 2.096 2.096 0 0 1-1.252-.296 1.605 1.605 0 0 1-.442-.41 1.435 1.435 0 0 1-.241-.54c-.045-.198-.04-.41.011-.637a1.39 1.39 0 0 1 .297-.606c.143-.166.311-.292.503-.38a1.64 1.64 0 0 1 .627-.14c.226-.008.448.028.668.107l-.513 2.222zm-.182 4.867a.785.785 0 0 0-.188-.733 1.1 1.1 0 0 0-.306-.234 1.57 1.57 0 0 0-.775-.18 1.061 1.061 0 0 0-.377.077.785.785 0 0 0-.487.577.785.785 0 0 0 .184.732c.083.094.185.171.306.234a1.582 1.582 0 0 0 .775.18 1.1 1.1 0 0 0 .378-.077.785.785 0 0 0 .49-.576zm.102-6.523a1.103 1.103 0 0 0-.32-.003.773.773 0 0 0-.519.287.822.822 0 0 0-.15.624c.02.105.057.2.113.285a.91.91 0 0 0 .517.363l.359-1.556z"/></g></svg>