<svg width="32" height="32" viewBox="0 0 32 32" fill="none" xmlns="http://www.w3.org/2000/svg">
<path d="M16.016 31.9681C24.8261 31.9681 31.9681 24.826 31.9681 16.0159C31.9681 7.2058 24.8261 0.0637817 16.016 0.0637817C7.20586 0.0637817 0.0638428 7.2058 0.0638428 16.0159C0.0638428 24.826 7.20586 31.9681 16.016 31.9681Z" fill="#242424"/>
<path d="M15.3141 21.982V17.2283L11.0389 14.8354L6.79565 17.2283V21.982L11.0708 24.3748L15.3141 21.982Z" fill="#DB7200"/>
<path d="M16.686 17.2283V21.982L20.9612 24.3748L25.2045 21.982V17.2283L20.9612 14.8354L16.686 17.2283Z" fill="#DB7200"/>
<path d="M18.0897 10.8474L17.4516 10.4646V9.76266V7.40174L15.984 6.50842L11.7089 8.90124V13.655L15.984 16.0478L20.2273 13.655V12.0279L18.0897 10.8474Z" fill="#DB7200"/>
<path d="M23.2263 7.21031L20.9611 5.93414L18.6959 7.21031V9.76266L20.9611 11.0069V11.0388L23.2263 9.76266V7.21031Z" fill="#DB7200"/>
</svg>
