<?xml version="1.0" encoding="UTF-8"?>
<svg width="32px" height="32px" viewBox="0 0 32 32" version="1.1" xmlns="http://www.w3.org/2000/svg" xmlns:xlink="http://www.w3.org/1999/xlink">
    <!-- Generator: Sketch 52.1 (67048) - http://www.bohemiancoding.com/sketch -->
    <title>svg/color/cc</title>
    <desc>Created with Sketch.</desc>
    <g id="color/cc" stroke="none" stroke-width="1" fill="none" fill-rule="evenodd">
        <g id="Group" fill="#36B0F3" fill-rule="nonzero">
            <circle id="Oval" cx="16" cy="16" r="16"></circle>
        </g>
        <g id="CoinCollect-(CC)" transform="translate(4.000000, 4.000000)" fill="#FFFFFF">
            <path d="M10.0905033,0.261006565 C10.8897903,0.101100472 11.7045892,0.0320407631 12.5193873,0.0551422319 C13.0282274,0.0547985364 13.5360468,0.100676309 14.0365864,0.192210066 C15.0123414,0.326126915 15.95186,0.636498906 16.8693217,0.984157549 C17.5357549,1.2819256 18.2347484,1.56183807 18.7767177,2.06809628 C18.9284902,2.17838074 18.8465646,2.39842451 18.7131729,2.48455142 C18.4022757,2.68358862 18.0304595,2.74135667 17.6759737,2.81908096 C16.08,3.09321663 14.4551422,3.21610503 12.8880525,3.64148796 C12.1848578,3.7990372 11.5089716,4.05741794 10.8399125,4.32420131 C9.59684902,4.88035011 8.4540919,5.69698031 7.62748359,6.7887965 C7.46993435,7.02039387 7.31606127,7.2540919 7.17059081,7.49356674 C7.03982495,7.74932166 6.90800875,8.00402626 6.80035011,8.27133479 C6.72122538,8.46249453 6.64682713,8.6550547 6.57715536,8.84901532 C6.43588621,9.26231947 6.36708972,9.69347921 6.26205689,10.1167615 C6.22897155,10.3945733 6.20954048,10.6750109 6.15282276,10.9496718 C6.11501094,11.5798687 6.13339168,12.2100656 6.13811816,12.8402626 C6.13811816,13.0503282 6.19483589,13.2561926 6.19798687,13.4667834 C6.20069468,13.6610385 6.22840615,13.8541362 6.28043764,14.0413129 C6.38074398,14.566477 6.50205689,15.0979431 6.72472648,15.5894967 C7.01356674,16.2858643 7.46363239,16.9386433 8.10380744,17.353523 C8.63527352,17.7484464 9.29172867,17.9164989 9.93557987,18.0162801 C10.7957987,18.12814 11.6686214,18.025733 12.515186,17.87186 C12.9589497,17.7915098 13.3990372,17.6912035 13.8354486,17.5746171 C14.1132604,17.4968928 14.3978993,17.4454267 14.6715098,17.3524726 C14.7766676,17.3343424 14.8830652,17.3243347 14.9897593,17.3225383 C14.6473523,17.6276586 14.3023195,17.9322538 13.913698,18.1785558 C12.5923851,19.0308972 11.0552298,19.4746608 9.52227571,19.7614004 C8.82853392,19.9031947 8.12376368,19.987221 7.42582057,20.1074836 C6.6307221,20.2224945 5.80726477,20.3175492 5.09041575,20.7066958 C4.87562363,20.8574179 4.7107221,21.0611816 4.56105033,21.2733479 C4.51588621,21.3647265 4.43185996,21.2733479 4.3814442,21.2397374 C4.217593,21.0533042 4.00857768,20.9157112 3.83212254,20.7434573 C3.64411379,20.5596499 3.45768053,20.3779431 3.27649891,20.1867834 C2.98503282,19.8480525 2.68621444,19.5140481 2.42940919,19.1485339 C1.91737418,18.4553173 1.46415755,17.7116849 1.13172867,16.9155361 L1.07396061,16.8898031 C1.03247265,16.6613567 0.916411379,16.4586433 0.83868709,16.2417505 C0.65713074,15.7666535 0.510053852,15.2790884 0.398599562,14.7828446 C0.354793295,14.6309221 0.320590048,14.4763936 0.29619256,14.3201751 C0.242222433,14.1446204 0.209774775,13.9631604 0.199562363,13.7797812 C0.101881838,13.3496718 0.120787746,12.9064333 0.0582932166,12.4721225 C0.0582932166,12.1097593 0.0341356674,11.7447702 0.0771991247,11.3839825 C0.126039387,11.0841138 0.106083151,10.7768928 0.168052516,10.4775492 C0.228971554,10.2354486 0.216892779,9.98074398 0.29356674,9.74231947 C0.370668682,9.31672882 0.475932851,8.89672478 0.608665208,8.48507659 C0.641750547,8.38004376 0.67536105,8.27501094 0.713698031,8.16997812 C0.785645514,7.98249453 0.850765864,7.79238512 0.917986871,7.60280088 C0.957821045,7.51647221 0.991173594,7.42729803 1.01776805,7.33601751 L1.07080963,7.27299781 C1.13481273,7.08506789 1.21750223,6.90403068 1.31763676,6.73260394 C1.40586433,6.55299781 1.49671772,6.37444201 1.5980744,6.20166302 C1.60962801,6.18170678 1.63221007,6.14179431 1.64323851,6.12131291 C1.67684902,6.04989059 1.71466083,5.98056893 1.75509847,5.91124726 C2.3852954,4.92393873 3.12052516,3.98862144 4.00700219,3.21715536 C5.10598613,2.23876477 6.36797353,1.46059846 7.7356674,0.917986871 C8.49618002,0.619338238 9.28522521,0.399200964 10.0905033,0.261006565 Z" id="Path"></path>
            <path d="M19.241488,3.38993435 C19.4604814,3.26231947 19.6122538,3.05487965 19.7640263,2.85794311 C22.1886992,4.93047961 23.6886792,7.88291309 23.9327485,11.0633024 C24.1768178,14.2436918 23.1448999,17.3904281 21.0648578,19.8086652 C19.2267834,21.9660394 16.5894092,23.4322976 13.7776805,23.8214442 C12.4852516,24.0115536 11.1670897,23.9611379 9.87623632,23.7841575 C8.8857537,23.6446314 7.91828601,23.3737122 6.99938731,22.9785558 C6.49943107,22.758512 6.00157549,22.5011816 5.61085339,22.1109847 C5.51002188,22.0232823 5.44647702,21.8772867 5.5126477,21.7496718 C5.61347921,21.5952735 5.7936105,21.5180744 5.96218818,21.4629322 C6.44796499,21.3221882 6.94739606,21.2413129 7.44630197,21.1641138 C8.34800875,21.0065646 9.25916849,20.9062582 10.153523,20.7087965 C11.6407877,20.3879212 13.1280525,19.9326039 14.4147046,19.0981182 C15.2875274,18.5414442 16.0584683,17.8146171 16.6251204,16.9449453 C17.4391247,15.7171116 17.8151422,14.2461269 17.9049453,12.7877462 C17.9501094,11.7027571 17.9254267,10.6077899 17.6980306,9.54223195 C17.4905908,8.62214442 17.1277024,7.69522976 16.4407877,7.02512035 C15.9156236,6.48630197 15.2014004,6.1507221 14.4630197,6.02258206 C13.238337,5.79413567 11.9873961,6.01522976 10.7868709,6.28516411 C10.2249453,6.41803063 9.67089716,6.58555799 9.10319475,6.69426696 C9.91089716,5.93382932 10.9003063,5.3897593 11.939081,5.01794311 C12.5356674,4.79684902 13.1558862,4.65032823 13.7734792,4.50538293 C15.1252516,4.20131291 16.5085339,4.08525164 17.8723851,3.85102845 C18.348709,3.75124726 18.8323851,3.65461707 19.241488,3.38993435 Z" id="Path"></path>
        </g>
    </g>
</svg>