<svg width="32" height="32" viewBox="0 0 32 32" fill="none" xmlns="http://www.w3.org/2000/svg">
<path d="M16 32C24.8366 32 32 24.8366 32 16C32 7.16344 24.8366 0 16 0C7.16344 0 0 7.16344 0 16C0 24.8366 7.16344 32 16 32Z" fill="url(#paint0_linear)"/>
<path fill-rule="evenodd" clip-rule="evenodd" d="M5.85033e-06 16.0138C0.00746717 7.15141 7.15141 0.00746717 16.0138 5.85033e-06C16.0092 1.95037e-06 16.0046 0 16 0C7.16344 0 0 7.16344 0 16C0 16.0046 1.95037e-06 16.0092 5.85033e-06 16.0138ZM24.0139 13.2548C24.4427 13.2548 24.7903 12.9072 24.7903 12.4783C24.7903 12.0495 24.4427 11.7019 24.0139 11.7019C23.585 11.7019 23.2374 12.0495 23.2374 12.4783C23.2374 12.9072 23.585 13.2548 24.0139 13.2548ZM15.9168 25.9549C18.6898 25.9549 21.4073 24.7903 23.2929 22.6828C23.3484 22.5719 23.4038 22.461 23.4593 22.4055C23.4038 22.2392 23.3484 22.1283 23.2374 22.0728L22.0728 21.2964C21.9619 21.2409 21.851 21.1854 21.74 21.1854C21.5737 21.1854 21.4073 21.2409 21.2964 21.3518C19.8544 22.7938 17.9688 23.5702 15.9723 23.5702H15.9722C15.6395 23.5702 15.3622 23.5702 15.0849 23.5147C11.6464 23.1265 8.87348 20.3536 8.48527 16.9151C8.20797 14.7522 8.87348 12.6447 10.3154 11.0364C11.7019 9.42808 13.7539 8.48527 15.9168 8.48527C17.4142 8.48527 18.9116 8.92894 20.1872 9.81629C20.2426 9.87175 20.409 9.92721 20.5199 9.92721C20.6863 9.92721 20.8527 9.87175 20.9636 9.76083L22.0173 8.81802C22.1283 8.70711 22.1837 8.59619 22.1837 8.42981C22.1837 8.31889 22.1283 8.15251 22.0173 8.09705C20.2426 6.71057 18.1352 5.9896 15.9168 5.9896H15.9168C15.5286 5.9896 15.1404 5.9896 14.7522 6.04506C10.149 6.59965 6.48874 10.26 5.9896 14.8631C5.71231 17.747 6.54419 20.4645 8.48527 22.6274C10.3709 24.7348 13.0884 25.9549 15.9168 25.9549ZM21.5737 12.4783C21.5737 13.8094 22.6828 14.9185 24.0139 14.9185C25.3449 14.9185 26.4541 13.8094 26.4541 12.4783C26.4541 11.1473 25.3449 10.0381 24.0139 10.0381C22.6828 10.0381 21.5737 11.1473 21.5737 12.4783Z" fill="#EFF2F5"/>
<defs>
<linearGradient id="paint0_linear" x1="27" y1="5" x2="8" y2="28" gradientUnits="userSpaceOnUse">
<stop stop-color="#F8C663"/>
<stop offset="1" stop-color="#F47B28"/>
</linearGradient>
</defs>
</svg>
