<?xml version="1.0" encoding="UTF-8"?>
<svg width="32px" height="32px" viewBox="0 0 32 32" version="1.1" xmlns="http://www.w3.org/2000/svg" xmlns:xlink="http://www.w3.org/1999/xlink">
    <title>Group</title>
    <g id="Page-1" stroke="none" stroke-width="1" fill="none" fill-rule="evenodd">
        <g id="Group">
            <g id="celo" transform="translate(6.000000, 6.000000)" fill-rule="nonzero">
                <path d="M7.894736,17.89472 C11.09224,17.89472 13.68424,15.30272 13.68424,12.10528 C13.68424,8.90784 11.09224,6.315808 7.894736,6.315808 C4.697264,6.315808 2.105264,8.90784 2.105264,12.10528 C2.105264,15.30272 4.697264,17.89472 7.894736,17.89472 Z M7.894736,20 C3.534736,20 0,16.46528 0,12.10528 C0,7.74528 3.534736,4.210544 7.894736,4.210544 C12.25472,4.210544 15.78944,7.74528 15.78944,12.10528 C15.78944,16.46528 12.25472,20 7.894736,20 Z" id="Shape" fill="#FBCC5C"></path>
                <path d="M12.10528,13.68424 C15.30272,13.68424 17.89472,11.09224 17.89472,7.894736 C17.89472,4.697264 15.30272,2.105264 12.10528,2.105264 C8.90784,2.105264 6.315808,4.697264 6.315808,7.894736 C6.315808,11.09224 8.90784,13.68424 12.10528,13.68424 Z M12.10528,15.78944 C7.74528,15.78944 4.210544,12.25472 4.210544,7.894736 C4.210544,3.534736 7.74528,0 12.10528,0 C16.46528,0 20,3.534736 20,7.894736 C20,12.25472 16.46528,15.78944 12.10528,15.78944 Z" id="Shape" fill="#35D07F"></path>
                <path d="M12.36616,15.78952 C12.91352,15.12616 13.30592,14.34888 13.51456,13.51456 C14.34888,13.30592 15.12616,12.91368 15.78952,12.36632 C15.7592,13.33264 15.5512,14.28504 15.1756,15.17584 C14.28488,15.5512 13.33248,15.75936 12.36616,15.78952 Z M6.485496,6.485496 C5.651176,6.694128 4.873912,7.086336 4.210544,7.633704 C4.240864,6.667392 4.448864,5.714968 4.82444,4.824232 C5.715176,4.448864 6.6676,4.240656 7.633912,4.210544 C7.086544,4.873912 6.694128,5.651176 6.485496,6.485496 Z" id="Shape" fill="#5EA33B"></path>
            </g>
            <rect id="Rectangle" stroke="#EEEEEE" x="0.5" y="0.5" width="31" height="31" rx="15.5"></rect>
        </g>
    </g>
</svg>