<svg height="32" viewBox="0 0 32 32" width="32" xmlns="http://www.w3.org/2000/svg"><g fill="none" fill-rule="evenodd"><circle cx="16" cy="16" fill="#598182" fill-rule="nonzero" r="16"/><path d="m13.5478279 25.4075355c.0117041-.0129144.0230669-.0264753.0340518-.0406825.5393622-.6975775 1.4565835-1.8838858 2.502142-3.2361918.9486562.1480364 1.8839724.0644085 2.7777757-.3234026.3234041-.1404917.612167-.3583556.9159239-.5421146.0436892-.0263422.0828545-.0600653.1167202-.0850077 1.0211401 1.009784 2.0332321 2.0109146 3.0716928 3.0378783-.2551557.1691245-.5079849.3542834-.7772298.5118276-1.0458284.6124877-2.1760625.9886593-3.3785519 1.1696188-.7058793.1062595-1.4153778.118858-2.1224204.0813172-1.0846645-.0577783-2.1349167-.2390075-3.1401043-.5732427zm-.9655415-.3754356c-.3379092-.1514285-.6699869-.3223983-.9957892-.5141406-1.68720789-.9929861-2.91710007-2.3821232-3.7110042-4.1502315-.41052418-.9140868-.66167295-1.8710592-.78614863-2.8598458-.09642665-.7663415-.11064506-1.5387913-.06256099-2.3080596.12344162-1.9747737.72410467-3.7898398 1.93564218-5.38704201 1.11782524-1.47350843 2.58529414-2.4829107 4.32213714-3.13001238.8285453-.3087254 1.6837179-.51589975 2.5651298-.59034507.6634826-.05612033 1.3332988-.11351322 1.9963936-.08475314.4097764.0177771.8134037.05699093 1.209842.11991702-.0030704.00416906-.0060847.0083955-.0090413.01267887-.6846409.99411571-1.4297215 2.07597995-2.5628659 3.72131061-.8489242.07464229-1.6546431.336272-2.4096903.8160424-1.3295503.8446045-2.1262981 2.0604176-2.4994667 3.5595047-.1580828.6351395-.2325356 1.2808414-.2163783 1.9344332.0084211.3422178.0373331.6772757.0880634 1.0045766-.1029619.1495093-.2055381.2984592-.3079979.4472406-.2477785.3597977.0570946.8355129.4984968.7778399.0385416-.0050358.0757972-.0099037.1118532-.0146148.2578286.729219.648637 1.4102588 1.1902836 2.0350859.3353591.3868095.7107754.7101632 1.1236298.9706586-.5870277 1.4185609-1.1607665 2.805015-1.4446619 3.4910757-.0200848.0485368-.0318715.0986404-.0358662.1486808zm7.4428149-18.69819763c.8783033.23739892 1.7144553.60882671 2.4959969 1.14154939.1380478.09391565.2642039.20475647.3961765.30732558.0245591.01908855.0507985.03575921.0827253.05802918-.0418797.04810313-.0664387.08029915-.0950048.10842294-.9111414.89741613-1.8244801 1.79292342-2.7317437 2.69415724-.1001752.099515-.1633824.1152948-.2844974.0293964-.3744563-.2661169-.7754641-.46193-1.2011023-.596128.5584549-1.46796578 1.0769458-2.83088018 1.2837085-3.37432987l.0333227-.08758418c.0353726-.09297186.0407134-.19007171.0204183-.28083868zm-3.7040944 10.94823853c-1.6012512.2090832-3.1545475.4120581-4.7528256.6208868 2.6527669-3.8520684 5.2804577-7.6673596 7.9080193-11.48265073l.04356.01997934c-1.0107995 2.65674372-2.0213404 5.31348739-3.0551478 8.03067819 1.8732104-.2959997 3.692908-.5833459 5.5756835-.8807454-2.9941379 3.8725567-5.9465254 7.6912838-8.8990422 11.5098837-.0144769-.0096716-.0289539-.0194704-.0434308-.0291419 1.0662513-2.5766991 2.1326318-5.1535254 3.2231836-7.78889z" fill="#fff"/></g></svg>