<svg viewBox="0 0 27 39" fill="none" xmlns="http://www.w3.org/2000/svg">
<path d="M19.6028 25.6748C18.4547 27.8508 16.1794 29.335 13.5555 29.335C9.77762 29.335 6.71508 26.2604 6.71508 22.4677C6.71508 18.6751 9.77762 15.6005 13.5555 15.6005C16.1794 15.6005 18.4547 17.0847 19.6028 19.2607H26.7239C25.2952 13.2822 19.9497 8.83301 13.5555 8.83301C6.06891 8.83301 0 14.9258 0 22.4411C0 29.9568 6.06891 36.049 13.5555 36.049C19.9303 36.049 25.2626 31.6262 26.7104 25.6748H19.6028Z" fill="#FFB0C2"/>
<path d="M24.2727 14.1429C25.8015 12.891 26.7779 10.9846 26.7779 8.84956C26.7779 5.07857 23.7328 2.02173 19.9765 2.02173C16.2199 2.02173 13.1748 5.07857 13.1748 8.84956V8.85473C13.3011 8.85129 13.4275 8.84932 13.5546 8.84932C17.9205 8.84932 21.7975 10.9238 24.2727 14.1429Z" fill="#CC91F0"/>
<path d="M19.9809 15.6849C21.6105 15.6846 23.1062 15.1095 24.2774 14.1501C21.8027 10.9312 17.9258 8.85711 13.5596 8.85768C13.4326 8.85751 13.3062 8.85946 13.1802 8.86299C13.1824 12.6315 16.2263 15.6852 19.9809 15.6849Z" fill="#CC66B8"/>
</svg>
