<svg height="32" viewBox="0 0 32 32" width="32" xmlns="http://www.w3.org/2000/svg"><g fill="none" fill-rule="evenodd"><circle cx="16" cy="16" fill="#ff3a00" r="16"/><path d="m16.0031194 5c6.0657845.00980134 10.9988851 4.94589012 10.99688 11.0031186-.0022279 6.0639112-4.9382249 10.9968814-11.0035638 10.9968814h-.0104713c-6.06066014-.0060145-10.98885934-4.9467812-10.98596302-11.0135882.00311911-6.05789678 4.93911609-10.9864118 11.00311812-10.9864118zm-.0028963 1.41785302c-5.2775399.00022276-9.57255905 4.29766508-9.5743414 9.57969668-.00133677 5.2764626 4.2878898 9.5725684 9.5616422 9.5763552 5.2831097.0002228 9.5850355-4.2954375 9.5894914-9.575687.0024507-2.5545857-.9936604-4.9590328-2.8047514-6.77094425-1.8106453-1.81168871-4.2152589-2.80942063-6.7711496-2.80942063zm4.7274174 8.59880518c.339315 1.7190215-.0964697 3.1638282-1.3320842 4.417286l-.1691005.1715235-.21611-.1060327c-.1191947-.0583625-.2403945-.1133837-.3642679-.164618l-.4888096-.2033778.3936767-.353962c.7688614-.690549 1.1783565-1.5916041 1.2168998-2.6775481.0392117-1.0863895-.3453304-2.0331099-1.1429323-2.8138758-.7024689-.6874303-1.6333015-1.0661185-2.6209464-1.0661185-1.0854515 0-2.1172097.4662319-2.8301499 1.2790749-.7980474.9097427-1.1023838 2.0177397-.87959 3.2034791.1528366.8115065.5277986 1.4980458 1.1139691 2.0409064l.3865473.3581945-.4885869.1971406c-.1223138.0492294-.2510886.1024685-.3874384.1597173l-.2103174.0884348-.1588519-.1632814c-.823446-.8475932-1.2692564-1.8234949-1.3628298-2.98384-.1971725-2.4445434 1.3886738-4.598388 3.7710081-5.1212004.3540194-.0777425.7140542-.1171706 1.0689647-.1171706 2.2831911 0 4.2602634 1.6214536 4.7009495 3.8552682zm-10.75481442 6.2902999c-1.47623182-1.6464024-2.67218903-4.5660881-1.60211033-7.8239201 1.05893901-3.2255321 4.05016875-5.44263987 7.44287295-5.51726371.0608228-.00111379.1218683-.00155931.1824682-.00155931 3.4410505 0 6.4968904 2.18168932 7.6046213 5.42860612.9459825 2.7726656.288518 5.9242421-1.6749639 8.0293028l-.2490835.267532-.8976363-1.0019643.1978409-.2229805c1.2282623-1.3826573 1.7986145-3.022377 1.6947926-4.8728256-.0953558-1.6898402-.7673019-3.1616006-1.9977922-4.374071-1.2483137-1.23073647-2.9056769-1.90836552-4.6666392-1.90836552-1.6032243 0-3.1556516.57671979-4.3712147 1.62434942-.9528891.8206395-1.6288456 1.8426521-2.00870903 3.0373018-.37763552 1.1893036-.41840679 2.4093477-.12053145 3.6262733.25309377 1.0333731.73432838 1.9653915 1.43033628 2.7699925l.1958358.2269901-.9159054.9852575z" fill="#fff" fill-rule="nonzero"/></g></svg>