<svg width="32" height="32" viewBox="0 0 32 32" fill="none" xmlns="http://www.w3.org/2000/svg">
<path d="M16 32C24.8366 32 32 24.8366 32 16C32 7.16344 24.8366 0 16 0C7.16344 0 0 7.16344 0 16C0 24.8366 7.16344 32 16 32Z" fill="white"/>
<path d="M15.9307 9.08635C12.1404 9.08635 9.05579 12.1915 9.05579 16.0076C9.05579 19.8237 12.1404 22.929 15.9307 22.929C19.7211 22.929 22.8062 19.8244 22.8062 16.0077C22.8062 12.191 19.7216 9.08635 15.9307 9.08635ZM15.9307 21.9591C12.671 21.9591 10.0195 19.2893 10.0195 16.0081C10.0195 12.7269 12.6709 10.0565 15.9307 10.0565C19.1906 10.0565 21.842 12.7265 21.842 16.0081C21.842 19.2897 19.1903 21.9591 15.9307 21.9591Z" fill="#3482FA"/>
<path d="M19.0769 15.5784C19.0037 15.0313 18.7898 14.5125 18.456 14.0728C18.4646 14.0662 18.4729 14.0591 18.4807 14.0516L19.273 13.2539C19.3537 13.1728 19.3991 13.0629 19.3991 12.9484C19.3991 12.834 19.3537 12.7241 19.273 12.643C19.2333 12.6028 19.186 12.5709 19.1339 12.5492C19.0817 12.5274 19.0258 12.5162 18.9693 12.5162C18.9129 12.5162 18.8569 12.5274 18.8048 12.5492C18.7527 12.5709 18.7054 12.6028 18.6657 12.643L17.8741 13.4403C17.8664 13.4482 17.8605 13.457 17.8524 13.4654C17.4172 13.1299 16.9017 12.9143 16.3572 12.8402C16.3572 12.8302 16.3605 12.8203 16.3605 12.8091V11.6815C16.3605 11.5675 16.3152 11.4583 16.2347 11.3778C16.1541 11.2972 16.0449 11.252 15.931 11.252C15.8171 11.252 15.7079 11.2972 15.6273 11.3778C15.5468 11.4583 15.5015 11.5675 15.5015 11.6815V12.8091C15.5015 12.8198 15.5043 12.8297 15.5052 12.8402C14.9605 12.9143 14.4447 13.1298 14.0092 13.4654C14.002 13.457 13.996 13.4482 13.9884 13.4403L13.1963 12.643C13.1566 12.6028 13.1092 12.5709 13.0571 12.5492C13.0049 12.5274 12.9489 12.5162 12.8924 12.5162C12.8359 12.5162 12.7799 12.5274 12.7278 12.5492C12.6756 12.5709 12.6283 12.6028 12.5885 12.643C12.5079 12.7242 12.4626 12.834 12.4626 12.9484C12.4626 13.0629 12.5079 13.1727 12.5885 13.2539L13.3816 14.0516C13.3902 14.0598 13.3986 14.0653 13.4067 14.0728C13.0727 14.5124 12.8587 15.0312 12.7855 15.5784C12.7756 15.5775 12.7648 15.5752 12.7549 15.5752H11.6341C11.5194 15.5752 11.4094 15.6208 11.3283 15.7019C11.2472 15.783 11.2016 15.893 11.2016 16.0077C11.2016 16.1224 11.2472 16.2324 11.3283 16.3135C11.4094 16.3946 11.5194 16.4402 11.6341 16.4402H12.7542C12.7642 16.4402 12.7741 16.4379 12.7853 16.4369C12.8582 16.9842 13.0721 17.5031 13.406 17.9428C13.398 17.9501 13.3895 17.9556 13.3809 17.9638L12.5884 18.7609C12.5077 18.8423 12.4624 18.9523 12.4624 19.0669C12.4624 19.1816 12.5077 19.2915 12.5884 19.3729C12.6281 19.4131 12.6754 19.445 12.7276 19.4667C12.7797 19.4885 12.8356 19.4997 12.8921 19.4997C12.9486 19.4997 13.0045 19.4885 13.0567 19.4667C13.1088 19.445 13.1561 19.4131 13.1958 19.3729L13.9883 18.5751C13.996 18.5674 14.0019 18.5583 14.0091 18.5502C14.4445 18.8859 14.9604 19.1015 15.5052 19.1754C15.5043 19.1854 15.5015 19.1961 15.5015 19.206V20.3344C15.5006 20.3914 15.5111 20.4479 15.5323 20.5008C15.5535 20.5536 15.585 20.6018 15.625 20.6423C15.6649 20.6829 15.7126 20.7151 15.7651 20.7371C15.8176 20.7591 15.874 20.7704 15.9309 20.7704C15.9879 20.7704 16.0443 20.7591 16.0968 20.7371C16.1493 20.7151 16.197 20.6829 16.2369 20.6423C16.2769 20.6018 16.3084 20.5536 16.3296 20.5008C16.3508 20.4479 16.3612 20.3914 16.3604 20.3344V19.2055C16.3604 19.1956 16.3572 19.1857 16.3572 19.1749C16.9017 19.1009 17.4172 18.8853 17.8523 18.5497C17.8604 18.5581 17.8664 18.5671 17.874 18.575L18.6656 19.3726C18.7053 19.4128 18.7526 19.4447 18.8047 19.4664C18.8569 19.4882 18.9128 19.4994 18.9693 19.4994C19.0258 19.4994 19.0817 19.4882 19.1338 19.4664C19.186 19.4447 19.2333 19.4128 19.273 19.3726C19.3536 19.2912 19.3989 19.1812 19.3989 19.0666C19.3989 18.952 19.3536 18.8421 19.273 18.7606L18.481 17.9635C18.4731 17.9559 18.4647 17.9488 18.4558 17.9423C18.7896 17.5026 19.0035 16.9838 19.0766 16.4367C19.0865 16.4376 19.0973 16.4402 19.1082 16.4402H20.2282C20.3429 16.4402 20.4529 16.3946 20.534 16.3135C20.6151 16.2324 20.6607 16.1224 20.6607 16.0077C20.6607 15.893 20.6151 15.783 20.534 15.7019C20.4529 15.6208 20.3429 15.5752 20.2282 15.5752H19.1082C19.0977 15.5757 19.0872 15.5767 19.0769 15.5784ZM15.9307 18.2371C14.7101 18.2371 13.7168 17.237 13.7168 16.0078C13.7168 14.7786 14.7103 13.7782 15.9307 13.7782C17.1511 13.7782 18.1462 14.7785 18.1462 16.0078C18.1462 17.2371 17.1522 18.2371 15.9307 18.2371Z" fill="#3482FA"/>
<path d="M23.4818 6H8.38705C7.07048 6 6 7.07844 6 8.40365V23.596C6 24.9218 7.07078 26.0003 8.38705 26.0003H23.4818C24.7979 26.0003 25.8698 24.922 25.8698 23.596V8.40365C25.8698 7.07844 24.7979 6 23.4818 6ZM24.7799 23.596C24.7799 24.3168 24.1969 24.9036 23.4818 24.9036H8.38705C7.67124 24.9036 7.08946 24.3174 7.08946 23.596V8.40365C7.08946 7.68297 7.67105 7.09701 8.38705 7.09701H23.4818C24.1971 7.09701 24.7799 7.68317 24.7799 8.40365V23.596Z" fill="#3482FA"/>
</svg>
