<svg height="32" viewBox="0 0 32 32" width="32" xmlns="http://www.w3.org/2000/svg"><g fill="none" fill-rule="evenodd"><circle cx="16" cy="16" fill="#ff4314" r="16"/><path d="m9.17105263 8h13.81578947v1.92525481h-13.81578947zm-1.53947368 5.6409966h17.07236845v1.9445074h-5.2302632v6.5073612c0 .5005663.2171053.7508494.6710526.7508494h2.1710527c.2368421 0 .4342105-.1540204.5526316-.4428086.1381578-.3080408.2368421-1.2514156.2763157-2.810872l1.8552632.5775764c-.1381579 2.175538-.3947368 3.4654587-.75 3.8697622-.3552632.385051-.8684211.596829-1.5592105.596829h-3.1381579c-1.4013158 0-2.0921053-.7123443-2.0921053-2.1177803v-6.9309173h-2.9210526v.3850509c-.0986842 2.4450736-.6513158 4.4088335-1.6578948 5.8720272-.9868421 1.3476784-2.5657894 2.4065685-4.77631574 3.1574179l-1.10526316-1.6942242c2.13157895-.7315969 3.5526316-1.6557192 4.3026316-2.7338619.75-1.193658 1.1447368-2.7146093 1.2236842-4.601359v-.3850509h-4.89473685z" fill="#fff"/></g></svg>