<svg height="32" viewBox="0 0 32 32" width="32" xmlns="http://www.w3.org/2000/svg"><g fill="none" fill-rule="evenodd"><circle cx="16" cy="16" fill="#13bf99" r="16"/><path d="m15.999888 24.9991995.000112.0008005h-4.5363322l2.2723184-3.9570709.000804.0008005-.000458-.0008005h4.5280277l2.2719723 3.9570709h-4.5363322l.000173-.0003024zm-2.2632686-14.0429793-.0006332.000502-2.2723184-3.9567222h4.5363322v.00060473l.000173-.00030237-.000173-.00030236h4.5363322l-2.272145 3.9564204-4.527855.0003018zm9.9989414 9.5385059.0000793.0007408h-.0011919l.0011919.0003487-2.2723183 3.9567222-2.2640138-3.9567222.0011918-.0003487h-.0011918l2.2640138-3.9570709.00061.0004598-.000264-.0004598h4.5363322l-2.2640138 3.9570709zm-15.47171965-8.9986087-.00017333-.0003018 2.27231838-3.95707093 2.2640138 3.95707093-2.2638411 3.9564204.0001733.0003018h-4.5363322zm4.53533685 8.9996982h.000822l-2.2640138 3.9567222-2.27231838-3.9567222h.00082199l-.00082199-.0003487-2.26366782-3.9570709h4.5363322l2.2636678 3.9570709zm10.9364622-8.9993977.000346-.0006023 2.2640138 3.9567222h-4.5363322l.0001913-.0003331-.0005373.0003331-2.2640138-3.9567222 2.2640138-3.95707093 2.2723183 3.95707093z" fill="#fff" fill-rule="nonzero"/></g></svg>