<svg width="32" height="32" viewBox="0 0 32 32" fill="none" xmlns="http://www.w3.org/2000/svg">
<path d="M16 32C24.8366 32 32 24.8366 32 16C32 7.16344 24.8366 0 16 0C7.16344 0 0 7.16344 0 16C0 24.8366 7.16344 32 16 32Z" fill="#0CAEEF"/>
<path d="M4.38062 17.2347C4.35142 17.1836 4.33681 17.1617 4.34411 17.1763C4.35142 17.1836 4.35872 17.2055 4.38062 17.2347C4.39522 17.2566 4.40983 17.2785 4.41713 17.2931C4.41713 17.3077 4.40983 17.2858 4.38062 17.2347C4.21269 16.9426 4.10318 16.636 4.04477 16.3147C3.98636 15.9862 3.98636 15.6649 4.03746 15.3291C4.11778 14.8618 4.30761 14.4383 4.60696 14.066C4.90631 13.6936 5.27137 13.4089 5.71674 13.2263C5.94308 13.1314 6.17672 13.0657 6.41765 13.0292C6.65859 12.9927 6.89223 12.9927 7.13317 13.0219C7.37411 13.0511 7.60775 13.1095 7.82679 13.1898C8.05312 13.2774 8.26486 13.387 8.46199 13.533C8.5058 13.5622 8.5277 13.5914 8.535 13.6133C8.5423 13.6352 8.5423 13.6644 8.5204 13.7009L8.33057 14.0149C8.26486 14.1171 8.19185 14.1317 8.11883 14.0587C7.9436 13.92 7.74647 13.8177 7.54204 13.7593C7.3303 13.6936 7.11857 13.6571 6.89223 13.6425C6.6659 13.6425 6.45416 13.6717 6.24243 13.7374C6.03069 13.7958 5.83356 13.8834 5.65103 14.0003C5.4685 14.1171 5.30787 14.2558 5.16185 14.4164C5.01582 14.5844 4.89901 14.7669 4.80409 14.9713C4.70917 15.1831 4.65076 15.4094 4.63616 15.643C4.62156 15.8767 4.63616 16.103 4.68727 16.322C4.73838 16.5411 4.82599 16.7528 4.94281 16.95C5.05963 17.1471 5.21296 17.3223 5.39549 17.4756C5.57802 17.629 5.77515 17.7458 5.99419 17.8261C6.21322 17.9064 6.43956 17.9502 6.6732 17.9575C6.90683 17.9648 7.14777 17.9283 7.39601 17.8626C7.64426 17.7969 7.8852 17.6801 8.12613 17.534C8.16994 17.5121 8.19915 17.4975 8.22835 17.4975C8.25026 17.4975 8.27946 17.5194 8.30866 17.5706C8.35247 17.6363 8.38168 17.6947 8.41818 17.7458C8.44009 17.7896 8.46929 17.8334 8.48389 17.8699C8.5058 17.9064 8.5204 17.9283 8.5204 17.9283C8.5423 17.9648 8.5423 17.994 8.5204 18.0232C8.4985 18.0451 8.47659 18.0743 8.44739 18.0962C8.12613 18.3372 7.76838 18.4905 7.37411 18.5708C6.97985 18.6438 6.58558 18.6438 6.19862 18.5562C5.81896 18.4686 5.4685 18.3153 5.14725 18.0816C4.82599 17.8553 4.57045 17.5706 4.38062 17.2347Z" fill="white"/>
<path d="M12.0834 13C12.4704 13 12.8354 13.073 13.1713 13.219C13.5144 13.3651 13.8138 13.5695 14.0693 13.825C14.3249 14.0806 14.5293 14.3799 14.6753 14.7231C14.8214 15.0662 14.8944 15.424 14.8944 15.811C14.8944 16.1979 14.8214 16.563 14.6753 16.8988C14.5293 17.242 14.3249 17.5413 14.0693 17.7969C13.8138 18.0524 13.5144 18.2569 13.1713 18.4029C12.8281 18.5489 12.4704 18.6219 12.0834 18.6219C11.6891 18.6219 11.3241 18.5489 10.9882 18.4029C10.6451 18.2569 10.353 18.0524 10.0975 17.7969C9.84194 17.5413 9.64481 17.242 9.49148 16.8988C9.34546 16.5557 9.27245 16.1979 9.27245 15.811C9.27245 15.424 9.34546 15.0589 9.49148 14.7231C9.63751 14.3799 9.84194 14.0879 10.0975 13.825C10.353 13.5695 10.6524 13.3651 10.9882 13.219C11.3241 13.073 11.6964 13 12.0834 13ZM12.0834 18.0086C12.3828 18.0086 12.6675 17.9502 12.9303 17.8334C13.2005 17.7166 13.4268 17.5559 13.624 17.3588C13.8211 17.1617 13.9817 16.928 14.0912 16.6652C14.2008 16.4024 14.2592 16.1176 14.2592 15.8183C14.2592 15.5116 14.2008 15.2269 14.0912 14.964C13.9817 14.7012 13.8211 14.4675 13.624 14.2704C13.4268 14.0733 13.1932 13.9126 12.9303 13.8031C12.6602 13.6863 12.3828 13.6352 12.0834 13.6352C11.7768 13.6352 11.492 13.6936 11.2292 13.8031C10.9663 13.9126 10.7327 14.0733 10.5356 14.2704C10.3384 14.4675 10.1778 14.7012 10.0683 14.964C9.95876 15.2269 9.90035 15.5189 9.90035 15.8183C9.90035 16.1176 9.95876 16.4024 10.0683 16.6652C10.1778 16.928 10.3384 17.1617 10.5356 17.3588C10.7327 17.5559 10.9663 17.7166 11.2292 17.8334C11.492 17.9502 11.7768 18.0086 12.0834 18.0086Z" fill="white"/>
<path d="M16.0917 13.1679C16.1793 13.1679 16.2232 13.2117 16.2232 13.2921V18.5124C16.2232 18.5854 16.1793 18.6292 16.0917 18.6292H15.6975C15.6245 18.6292 15.588 18.5927 15.588 18.5124V13.2775C15.588 13.241 15.6026 13.2117 15.6245 13.1971C15.6464 13.1752 15.6756 13.1679 15.7048 13.1679H16.0917Z" fill="white"/>
<path d="M21.9984 13.1606C22.0568 13.1606 22.0933 13.1752 22.1152 13.1971C22.1371 13.219 22.1444 13.2482 22.1444 13.2847L22.1079 18.5124C22.1079 18.5854 22.0641 18.6292 21.9692 18.6292H21.4727L18.0923 14.0587V16.8915L19.4284 16.8988C19.5014 16.8988 19.5452 16.9426 19.5452 17.023V17.4026C19.5452 17.4391 19.5379 17.4683 19.516 17.4975C19.4941 17.5194 19.4649 17.534 19.4211 17.534L17.5739 17.5267C17.5009 17.5267 17.4571 17.4902 17.4571 17.4245V13.2555C17.4571 13.1752 17.5009 13.1314 17.5885 13.1314H18.1142C18.1653 13.1314 18.2091 13.1533 18.2383 13.1898L21.48 17.5559L21.5092 13.2628C21.5092 13.2336 21.5238 13.2044 21.5457 13.1825C21.5677 13.1606 21.5969 13.146 21.6261 13.146H21.9619H21.9984V13.1606ZM20.0928 17.9794C20.1658 17.9794 20.2096 18.0232 20.2096 18.1035V18.4905C20.2096 18.527 20.195 18.5562 20.1731 18.5854C20.1512 18.6073 20.122 18.6219 20.0855 18.6219H17.5739C17.5009 18.6219 17.4571 18.5854 17.4571 18.5051V18.1181C17.4571 18.0743 17.4644 18.0451 17.4863 18.0159C17.5082 17.994 17.5374 17.9794 17.5812 17.9794H20.0928Z" fill="white"/>
<path d="M23.4952 18.5124C23.4952 18.5854 23.4514 18.6219 23.3637 18.6219H22.9768C22.8965 18.6219 22.8527 18.5854 22.8527 18.5124V13.2921C22.8527 13.2117 22.8892 13.1679 22.9768 13.1679H26.496C26.5836 13.1679 26.6274 13.2117 26.6274 13.2994V13.6717C26.6274 13.7155 26.6128 13.7447 26.5909 13.7739C26.569 13.8031 26.5398 13.8104 26.496 13.8104H23.4879V15.5773H25.6198C25.6928 15.5773 25.7366 15.6211 25.7366 15.7015V16.0811C25.7366 16.1176 25.7293 16.1468 25.7074 16.176C25.6855 16.2052 25.6563 16.2198 25.6271 16.2198H23.4952V18.5124Z" fill="white"/>
<path d="M27.8686 13.1679C27.9562 13.1679 28 13.2117 28 13.2921V18.5124C28 18.5854 27.9562 18.6292 27.8686 18.6292H27.4743C27.4013 18.6292 27.3648 18.5927 27.3648 18.5124V13.2775C27.3648 13.241 27.3794 13.2117 27.4013 13.1971C27.4232 13.1752 27.4524 13.1679 27.4816 13.1679H27.8686Z" fill="white"/>
</svg>
