<svg viewBox="0 0 40 40" fill="none" xmlns="http://www.w3.org/2000/svg">
<g clip-path="url(#clip0_1488_170185)">
<path fill-rule="evenodd" clip-rule="evenodd" d="M28.8128 28.8648C26.5528 31.1116 23.4385 32.5 20 32.5C13.0964 32.5 7.5 26.9036 7.5 20C7.5 13.0964 13.0964 7.5 20 7.5C23.4386 7.5 26.5528 8.88841 28.8128 11.1352L34.1161 5.83188C30.4989 2.22787 25.5096 0 20 0C8.9543 0 0 8.9543 0 20C0 31.0457 8.9543 40 20 40C25.5096 40 30.4989 37.7721 34.1161 34.1681L28.8128 28.8648Z" fill="#EB5757"/>
<path fill-rule="evenodd" clip-rule="evenodd" d="M37.0974 9.61719L26.7153 19.9993L37.0974 30.3813C38.9391 27.3549 39.9998 23.801 39.9998 19.9993C39.9998 16.1975 38.9391 12.6436 37.0974 9.61719Z" fill="#6D6EF3"/>
</g>
<defs>
<clipPath id="clip0_1488_170185">
<rect width="40" height="40" fill="white"/>
</clipPath>
</defs>
</svg>
