<svg height="32" viewBox="0 0 32 32" width="32" xmlns="http://www.w3.org/2000/svg"><g fill="none" fill-rule="evenodd"><circle cx="16" cy="16" fill="#71c800" fill-rule="nonzero" r="16"/><path d="m25.8202355 14.7150262c-.7873466.0373283-1.5773935.0826064-2.3638637.0544855-.7061959-.0252256-1.4092889-.1423601-2.113045-.2249902-.0688336-.0080922-.1426888-.0463697-.1974052-.0912206-1.1651498-.9551349-2.310308-1.9325291-3.3135827-3.0632708-.3661257-.4126047-.6626361-.8589308-.8281826-1.40119981-.2232236-.73121246-1.1604124-1.01156634-1.8543149-.58863873-.7282956.44388178-.8524851 1.47697184-.2392833 2.06838704.1061402.102374.2485922.1944964.389386.2283837.5305826.1278133.9400312.444309 1.3271196.8019773.6941394.6414394 1.3156316 1.3508434 1.9199272 2.0756961.1729368.2074296.0851775.4473701-.1800427.4778403-.4107515.0471765-.8231136.0907697-1.2359258.1075473-.7781325.0316092-1.5573071.0630998-2.3356291.0549602-.4352435-.0045326-.8724293-.0722599-1.3032671-.1443773-.1985421-.0331992-.3982448-.1212161-.5726975-.2257971-.579164-.347298-1.1789592-.1102289-1.5131078.2323705-.4158204.4263685-.4964973 1.0814294-.2014318 1.5873905.2778215.4764402.8256243.7541125 1.3184265.6509317.1417177-.0296871.2813983-.0935937.4080986-.1661857.3290796-.1885875.6880045-.276557 1.0571857-.2992198.5948209-.0365215 1.1920579-.070836 1.7870683-.0564789.7577382.0182251 1.5142921.085549 2.271296.1326068.103132.0064073.2069272.0116992.3086854.0280734.2838617.0457527.366173.2723329.1784321.4954959-.2256871.268275-.4437471.5447133-.6879335.795309-.5128886.526322-1.0352044 1.0437213-1.5647921 1.5531946-.2410598.2319196-.53577.3879249-.8636653.4661411-.6555063.1563375-.9789485.7892102-.8872335 1.428941.0913123.6368832.6600779 1.1143913 1.3021775 1.1151981.5965738.0007356 1.0539643-.3172788 1.2132812-.8878585.1635568-.585791.5388966-1.0281303.9311014-1.4584856.9672709-1.0612583 2.0539466-1.9937779 3.1634089-2.90017.0617276-.0504276.146455-.089512.2249054-.0997874.5609253-.0735412 1.1214242-.1641211 1.6851444-.1988153.6339514-.0390369 1.2723086-.0525397 1.9066863-.0265784.6625176.0270767 1.3225481.114358 2.002736.1770781-.0119381.2304721-.0146858.4261788-.0333509.6202955-.1212287 1.2605245-.4422074 2.4670619-1.0355835 3.5877417-1.4640288 2.7648341-3.7220366 4.4960798-6.7771735 5.1714066-.6853042.1514727-1.3816465.2062905-2.0829155.2048192-.7450895-.0015425-1.4902501.0060513-2.2352685-.0019696-2.0643451-.0222119-3.9535506-.6093081-5.63471566-1.8147064-2.02291704-1.4504172-3.32900284-3.3965677-3.89234413-5.8255182-.12508957-.5394213-.20188192-1.0986578-.22341315-1.6518429-.04093065-1.0510779-.06255663-2.105573-.02768978-3.1564847.14865786-4.4797057 3.1888722-8.09566318 7.25173702-9.20243687.8168603-.22252229 1.6502065-.33483945 2.496841-.33799563.8634994-.00325109 1.7274252-.0164928 2.5904745.00370199 2.0652452.04829186 3.9423231.67758119 5.6027623 1.91171728 1.9845682 1.47502589 3.2477574 3.43221113 3.7805191 5.84894033.1277898.5798346.172913 1.1779893.2602223 1.7971457-.4292744.0551263-.803193.1284065-1.1797645.146252z" fill="#fff"/></g></svg>