<svg width="32" height="32" viewBox="0 0 32 32" fill="none" xmlns="http://www.w3.org/2000/svg">
<path d="M15.9744 31.0976C24.3302 31.0976 31.104 24.3239 31.104 15.968C31.104 7.61219 24.3302 0.83844 15.9744 0.83844C7.61854 0.83844 0.844788 7.61219 0.844788 15.968C0.844788 24.3239 7.61854 31.0976 15.9744 31.0976Z" fill="white"/>
<path d="M24.3237 16.0085C24.3237 20.5851 20.6067 24.2908 16.0244 24.2851C11.4592 24.2794 7.75918 20.5623 7.76487 15.9914C7.77056 11.4148 11.4876 7.71484 16.0699 7.72622C20.6237 7.72622 24.3237 11.4433 24.3237 16.0085ZM16.0471 12.8664C14.311 12.8664 12.9107 14.261 12.9107 15.9971C12.9107 17.7333 14.3053 19.1336 16.0414 19.1336C17.7776 19.1336 19.1779 17.7389 19.1779 16.0028C19.1779 14.2723 17.7776 12.8664 16.0471 12.8664ZM23.1625 13.6633C23.1397 13.5779 23.1226 13.5323 23.1056 13.4868C22.599 12.0865 21.7565 10.9253 20.5668 10.0259C19.8097 9.45098 18.9673 9.04114 18.0508 8.78499C17.937 8.75083 17.8174 8.72806 17.7719 8.87037C17.7264 9.01837 17.8402 9.06391 17.9541 9.09806C17.9711 9.10375 17.9882 9.10375 18.0053 9.10945C20.0317 9.71852 21.5345 10.9594 22.4794 12.855C22.6103 13.1168 22.7071 13.4014 22.8323 13.669C22.8608 13.7316 22.9519 13.7885 23.0145 13.7942C23.0657 13.7885 23.117 13.7031 23.1625 13.6633ZM14.1801 23.2662C14.2199 23.2263 14.2996 23.1808 14.3053 23.1295C14.311 23.0726 14.2655 22.9986 14.2256 22.9531C14.1971 22.9189 14.1345 22.9189 14.0833 22.9075C12.0512 22.2985 10.5484 21.0519 9.59778 19.1506C9.46686 18.8888 9.37009 18.6042 9.25055 18.3309C9.21071 18.2342 9.14809 18.1829 9.03994 18.2228C8.93748 18.2626 8.91471 18.3423 8.94317 18.4448C8.95456 18.4789 8.96594 18.5074 8.97732 18.5416C9.85394 20.8412 11.4535 22.3895 13.793 23.1694C13.9125 23.1922 14.0321 23.2206 14.1801 23.2662ZM14.3395 22.4692C14.4647 22.4635 14.5615 22.3668 14.5159 22.2814C14.4818 22.2131 14.3964 22.1505 14.3224 22.1277C12.5692 21.6097 11.2542 20.5452 10.4004 18.9343C10.2581 18.6668 10.1556 18.3708 10.0361 18.0919C9.99624 17.9894 9.93363 17.9211 9.81978 17.9666C9.71163 18.0065 9.69455 18.0976 9.72871 18.2057C9.74009 18.2399 9.75148 18.2683 9.76286 18.3025C10.5825 20.4029 12.0682 21.7919 14.237 22.4408C14.2711 22.4522 14.3167 22.4578 14.3395 22.4692ZM22.3883 13.9023C22.3599 13.817 22.3485 13.76 22.3314 13.7088C21.58 11.7507 20.2196 10.4073 18.2501 9.68437C18.0964 9.62744 17.9427 9.5876 17.7833 9.54206C17.6865 9.5136 17.6011 9.54206 17.567 9.64452C17.5328 9.74698 17.5897 9.81529 17.6865 9.84944C17.7207 9.86083 17.7491 9.86652 17.7833 9.8779C19.8211 10.5041 21.2328 11.8019 22.007 13.7885C22.0297 13.8454 22.0354 13.9194 22.081 13.9536C22.1265 13.9991 22.2062 14.039 22.2631 14.0276C22.3143 14.0162 22.3542 13.9422 22.3883 13.9023ZM21.6199 14.1471C21.5971 14.0731 21.58 14.0219 21.563 13.9763C21.0108 12.5134 20.0374 11.4205 18.6371 10.7261C18.307 10.561 17.9484 10.4585 17.6068 10.3333C17.4987 10.2934 17.3962 10.3048 17.3621 10.4244C17.3222 10.5553 17.4076 10.6179 17.5271 10.6464C17.5499 10.6521 17.5727 10.6577 17.5897 10.6634C19.36 11.2156 20.5839 12.354 21.2556 14.0845C21.2727 14.1243 21.2783 14.187 21.3068 14.204C21.358 14.2439 21.432 14.278 21.4947 14.2723C21.5459 14.2667 21.58 14.187 21.6199 14.1471ZM14.5956 21.7008C14.6298 21.6666 14.7095 21.6325 14.7151 21.5869C14.7265 21.53 14.6924 21.4503 14.6525 21.3991C14.6298 21.3649 14.5615 21.3649 14.5159 21.3479C12.7399 20.8014 11.5161 19.6686 10.833 17.9439C10.7875 17.8243 10.7533 17.6649 10.5825 17.7333C10.4118 17.8016 10.4915 17.9496 10.537 18.0634C11.2485 19.8736 12.5407 21.0632 14.3907 21.6495C14.4419 21.6666 14.5045 21.678 14.5956 21.7008ZM14.7778 20.9323C14.829 20.8868 14.9144 20.8469 14.9258 20.79C14.9371 20.7331 14.8802 20.6591 14.8404 20.5965C14.829 20.5794 14.7891 20.5794 14.7607 20.5737C13.2295 20.1069 12.165 19.1392 11.5844 17.6422C11.5673 17.6023 11.5559 17.5454 11.5218 17.5283C11.4705 17.4999 11.3965 17.4714 11.3453 17.4885C11.2998 17.4999 11.2656 17.5739 11.2542 17.6251C11.2429 17.6706 11.2713 17.7219 11.2884 17.7674C11.8007 19.0937 12.7001 20.05 13.9922 20.6363C14.237 20.7502 14.4931 20.8299 14.7778 20.9323ZM17.3222 11.0562C17.2539 11.1131 17.1685 11.153 17.1571 11.2099C17.1457 11.2668 17.2027 11.3408 17.2425 11.4034C17.2539 11.4262 17.3051 11.4262 17.3336 11.4319C18.7282 11.8531 19.7414 12.724 20.3619 14.0447C20.4188 14.1585 20.4643 14.2837 20.5099 14.4033C20.5497 14.5114 20.6351 14.5683 20.7262 14.5114C20.7774 14.4773 20.7888 14.3691 20.8116 14.2894C20.8173 14.261 20.7945 14.2268 20.7774 14.1983C20.3107 13.0144 19.5251 12.1093 18.3981 11.5173C18.0679 11.3351 17.6979 11.2099 17.3222 11.0562ZM14.9599 20.1696C15.0339 20.1069 15.1193 20.0728 15.125 20.0216C15.1364 19.9589 15.0908 19.8792 15.051 19.828C15.0282 19.7939 14.9599 19.7939 14.9144 19.7768C13.7133 19.4011 12.8765 18.6269 12.3813 17.4714C12.3585 17.4145 12.3472 17.3405 12.3073 17.3063C12.2618 17.2665 12.165 17.2209 12.1252 17.2437C12.0739 17.2722 12.0398 17.3576 12.0227 17.4259C12.0113 17.46 12.0455 17.5113 12.0625 17.5511C12.4212 18.4562 13.0132 19.1734 13.8556 19.6629C14.2028 19.8565 14.5842 19.9988 14.9599 20.1696ZM17.123 11.8304C17.049 11.893 16.9636 11.9328 16.9579 11.984C16.9465 12.0467 16.9921 12.1207 17.0319 12.1776C17.0547 12.206 17.1116 12.206 17.1571 12.2231C18.3639 12.5988 19.212 13.373 19.7073 14.5342C19.7244 14.5797 19.73 14.6423 19.7642 14.6708C19.8211 14.7163 19.9122 14.779 19.9634 14.7562C20.0147 14.7391 20.0431 14.6367 20.0602 14.5627C20.0716 14.5285 20.0374 14.4773 20.0204 14.4374C19.6617 13.5494 19.0754 12.8379 18.2501 12.354C17.8914 12.1434 17.5044 12.0011 17.123 11.8304Z" fill="black"/>
<path d="M16.0471 12.8664C17.7775 12.8664 19.1778 14.2724 19.1778 16.0028C19.1778 17.7333 17.7719 19.1336 16.0414 19.1336C14.3109 19.1336 12.9106 17.7276 12.9106 15.9972C12.9106 14.261 14.3109 12.8664 16.0471 12.8664ZM16.5708 15.9972C16.5651 15.7125 16.326 15.4735 16.0414 15.4735C15.7511 15.4735 15.5063 15.7239 15.512 16.0142C15.5234 16.3045 15.7625 16.5379 16.0471 16.5265C16.3374 16.5208 16.5708 16.2818 16.5708 15.9972Z" fill="#ED1C24"/>
<path d="M16.0415 24.843C11.1632 24.843 7.20134 20.8754 7.20134 16.0029C7.20134 11.1246 11.1689 7.16274 16.0415 7.16274C18.2444 7.16274 20.2651 7.97673 21.8134 9.31442L23.3219 7.08305C21.3353 5.46075 18.8022 4.48737 16.0415 4.48737C9.69456 4.48737 4.52597 9.65026 4.52597 15.9972C4.52597 22.3441 9.68887 27.5126 16.0415 27.5126C18.8193 27.5126 21.3694 26.5222 23.356 24.8828L21.8533 22.6514C20.2993 24.0119 18.2671 24.843 16.0415 24.843Z" fill="#ED1C24"/>
</svg>
