<svg width="32" height="32" viewBox="0 0 32 32" fill="none" xmlns="http://www.w3.org/2000/svg">
<path d="M16 32C24.8365 32 32 24.8365 32 16C32 7.16345 24.8365 0 16 0C7.16345 0 0 7.16345 0 16C0 24.8365 7.16345 32 16 32Z" fill="white"/>
<path d="M25.0129 23.6678C24.3441 23.6678 23.7766 24.1339 23.6348 24.7824L18.3148 24.5291C18.3351 24.4277 18.3452 24.3264 18.3452 24.2251C18.3452 24.0427 18.3148 23.8603 18.2642 23.6779L20.1996 22.5632C20.6759 23.151 21.5372 23.2726 22.1553 22.8267C22.7734 22.3808 22.9356 21.5297 22.5201 20.8913C22.1047 20.2529 21.2636 20.0502 20.6049 20.4251C19.9463 20.8001 19.693 21.631 20.0375 22.3099L18.1629 23.3942C17.717 22.4518 16.6125 22.0262 15.6498 22.4214C14.6872 22.8166 14.2008 23.9008 14.5453 24.8837L11.0595 25.7248C11.0392 25.2485 10.8366 24.8027 10.5022 24.4581L11.1304 23.5867C11.8397 23.8299 12.62 23.4752 12.9037 22.776C13.1875 22.0768 12.8733 21.2763 12.1944 20.9622C11.5155 20.6379 10.6947 20.9115 10.34 21.5702C9.98538 22.2288 10.2083 23.0598 10.8467 23.455L10.2691 24.2555C9.86378 23.9515 9.34699 23.8198 8.84033 23.8806L8.24247 20.4657C8.99232 20.3035 9.56992 19.7158 9.73205 18.9761C9.89418 18.2262 9.61045 17.4561 9.00246 17.0001C8.39447 16.534 7.57368 16.4732 6.90489 16.8279L5.39505 13.8791C5.71931 13.717 5.98277 13.4636 6.1753 13.1596L7.43182 13.494C7.42168 13.565 7.41155 13.6258 7.41155 13.6967C7.41155 14.4263 7.96887 15.0444 8.69846 15.1154C9.42805 15.1863 10.0968 14.6898 10.2286 13.9602C10.3603 13.2306 9.92458 12.5314 9.21525 12.3389C8.50593 12.1362 7.76621 12.5111 7.50275 13.2002L6.31717 12.8861C6.4793 12.501 6.5097 12.0754 6.40836 11.6701L9.90431 10.0589C10.5528 10.8696 11.7283 11.0418 12.5795 10.4338C13.4307 9.82583 13.6536 8.66052 13.0861 7.78906L15.3154 5.61043C15.589 5.7827 15.9032 5.89416 16.2173 5.91443V6.87708C15.4776 6.95814 14.9202 7.60667 14.9608 8.35652C15.0013 9.10638 15.6194 9.6941 16.3693 9.6941C17.1191 9.6941 17.7373 9.10638 17.7778 8.35652C17.8183 7.60667 17.2711 6.95814 16.5213 6.87708V5.91443C16.805 5.89416 17.0685 5.81309 17.3117 5.68136L19.7538 8.46799C19.1863 9.21784 19.2268 10.2616 19.845 10.9607C20.4732 11.6599 21.5068 11.8221 22.3175 11.3357C23.1281 10.8493 23.4726 9.86637 23.1585 8.98478L23.9185 8.55919C24.4049 9.12664 25.2459 9.22798 25.8438 8.77198C26.4417 8.32612 26.5835 7.48507 26.1681 6.86695C25.7526 6.24882 24.9217 6.05629 24.2833 6.44135C23.6449 6.82641 23.4118 7.63707 23.7564 8.30586L23.0369 8.71118C22.743 8.17413 22.2161 7.80933 21.6183 7.71813C21.0204 7.62693 20.4023 7.81946 19.9666 8.24506L17.5751 5.51923C17.8082 5.33684 18.0007 5.09364 18.1325 4.83018L20.23 5.1747C20.3921 5.90429 21.1015 6.38055 21.8311 6.24882C22.5708 6.12722 23.0774 5.4483 22.9964 4.70858C22.9153 3.96886 22.2668 3.41153 21.5271 3.45206C20.7772 3.4926 20.1996 4.10059 20.1895 4.85044L18.2439 4.52618C18.5175 3.59393 18.0717 2.60088 17.1901 2.18542C16.3085 1.76996 15.2648 2.07395 14.7277 2.88461C14.1906 3.69526 14.3325 4.77951 15.0621 5.42803L12.8936 7.54587C12.5592 7.16081 12.0829 6.91761 11.5763 6.87708V5.39763C12.316 5.31657 12.8733 4.66805 12.8328 3.91819C12.7923 3.16833 12.1843 2.59074 11.4344 2.59074C10.6846 2.59074 10.0664 3.17847 10.0259 3.92832C9.98538 4.67818 10.5326 5.3267 11.2824 5.40777V6.87708C10.6136 6.92774 10.0158 7.32294 9.70165 7.91066C9.38752 8.50852 9.39765 9.21784 9.73205 9.80557L6.3273 11.3661C6.2057 11.0722 6.01317 10.8189 5.76997 10.6162L7.09742 8.22479C7.21902 8.25519 7.33048 8.27546 7.45208 8.27546C8.17154 8.27546 8.76939 7.7384 8.86059 7.02908C8.95179 6.31975 8.48567 5.6611 7.79661 5.48883C7.09742 5.31657 6.3881 5.6915 6.13477 6.36029C5.88144 7.02908 6.1753 7.77893 6.80356 8.11333L5.51664 10.444C4.73639 9.97783 3.75347 10.1096 3.11508 10.7581C2.48682 11.4066 2.37536 12.3895 2.85162 13.1596C3.32788 13.9298 4.26013 14.2743 5.12145 14.0007L6.65156 16.99C6.2665 17.2737 5.9929 17.6993 5.90171 18.1654L4.78706 17.8412C4.81745 17.7297 4.82759 17.6081 4.82759 17.4966C4.82759 16.7772 4.29053 16.1793 3.58121 16.0983C2.87188 16.0172 2.21323 16.4732 2.04096 17.1724C1.8687 17.8716 2.25376 18.5809 2.93268 18.8241C3.60147 19.0673 4.35133 18.7734 4.67559 18.135L5.86117 18.4796C5.86117 18.51 5.86117 18.5404 5.86117 18.5708C5.86117 19.2396 6.19557 19.8577 6.76303 20.2123L6.00304 21.2054C5.44571 20.7089 4.59452 20.7393 4.0676 21.2763C3.54067 21.8134 3.52041 22.6544 4.02707 23.2118C4.53373 23.7691 5.37478 23.8299 5.9625 23.3536C6.55023 22.8774 6.65156 22.0363 6.21583 21.4283L7.03662 20.3542C7.27982 20.4657 7.55341 20.5163 7.82701 20.5163C7.86754 20.5163 7.90807 20.5163 7.94861 20.5062L8.5566 23.9413C7.74594 24.1845 7.17849 24.9243 7.14809 25.7653C7.12782 26.6165 7.65475 27.3765 8.45527 27.6602C9.25579 27.944 10.1475 27.6805 10.6643 27.0016L13.5016 28.2682C13.4813 28.3696 13.4611 28.481 13.4611 28.5823C13.4611 29.3018 13.9981 29.9098 14.7176 29.9909C15.437 30.0719 16.0957 29.6058 16.2578 28.9066C16.4199 28.2074 16.0247 27.4981 15.3458 27.2549C14.6669 27.0117 13.917 27.3258 13.6029 27.9744L10.8366 26.7381C10.9582 26.5152 11.0392 26.272 11.0595 26.0187L14.6669 25.1371C14.9405 25.6437 15.4269 25.9984 15.9944 26.12C16.5618 26.2314 17.1495 26.0896 17.5954 25.7349L18.9431 26.9002C18.629 27.5893 18.9026 28.3999 19.5714 28.7445C20.2402 29.0991 21.0609 28.8661 21.446 28.2176C21.8311 27.569 21.6487 26.7381 21.0305 26.3125C20.4023 25.8869 19.5612 26.0288 19.1052 26.6266L17.8183 25.5221C18.0109 25.3195 18.1527 25.0661 18.2439 24.8027L23.6044 25.0661C23.6145 25.8464 24.2428 26.4645 25.023 26.4645C25.8033 26.4645 26.4315 25.8261 26.4214 25.056C26.4214 24.296 25.7931 23.6678 25.0129 23.6678Z" fill="#FF473E"/>
</svg>
