<?xml version="1.0" encoding="utf-8"?>
<!-- Generator: Adobe Illustrator 24.0.0, SVG Export Plug-In . SVG Version: 6.00 Build 0)  -->
<svg version="1.1" id="Layer_1" xmlns="http://www.w3.org/2000/svg" xmlns:xlink="http://www.w3.org/1999/xlink" x="0px" y="0px"
	 viewBox="0 0 241 276.3" style="enable-background:new 0 0 241 276.3;" xml:space="preserve">
<style type="text/css">
	.st0{fill:#FF473E;}
</style>
<g id="Page-1">
	<path id="Path_3_" class="st0" d="M227.1,213.8c-6.6,0-12.2,4.6-13.6,11l-52.5-2.5c0.2-1,0.3-2,0.3-3c0-1.8-0.3-3.6-0.8-5.4
		l19.1-11c4.7,5.8,13.2,7,19.3,2.6s7.7-12.8,3.6-19.1s-12.4-8.3-18.9-4.6s-9,11.9-5.6,18.6l-18.5,10.7c-4.4-9.3-15.3-13.5-24.8-9.6
		s-14.3,14.6-10.9,24.3l-34.4,8.3c-0.2-4.7-2.2-9.1-5.5-12.5l6.2-8.6c7,2.4,14.7-1.1,17.5-8s-0.3-14.8-7-17.9
		c-6.7-3.2-14.8-0.5-18.3,6c-3.5,6.5-1.3,14.7,5,18.6l-5.7,7.9c-4-3-9.1-4.3-14.1-3.7l-5.9-33.7c7.4-1.6,13.1-7.4,14.7-14.7
		c1.6-7.4-1.2-15-7.2-19.5c-6-4.6-14.1-5.2-20.7-1.7l-14.9-29.1c3.2-1.6,5.8-4.1,7.7-7.1l12.4,3.3c-0.1,0.7-0.2,1.3-0.2,2
		c0,7.2,5.5,13.3,12.7,14s13.8-4.2,15.1-11.4s-3-14.1-10-16c-7-2-14.3,1.7-16.9,8.5l-11.7-3.1c1.6-3.8,1.9-8,0.9-12L78,79.5
		c6.4,8,18,9.7,26.4,3.7s10.6-17.5,5-26.1l22-21.5c2.7,1.7,5.8,2.8,8.9,3v9.5c-7.3,0.8-12.8,7.2-12.4,14.6s6.5,13.2,13.9,13.2
		s13.5-5.8,13.9-13.2s-5-13.8-12.4-14.6v-9.5c2.8-0.2,5.4-1,7.8-2.3l24.1,27.5c-5.6,7.4-5.2,17.7,0.9,24.6
		c6.2,6.9,16.4,8.5,24.4,3.7s11.4-14.5,8.3-23.2l7.5-4.2c4.8,5.6,13.1,6.6,19,2.1c5.9-4.4,7.3-12.7,3.2-18.8s-12.3-8-18.6-4.2
		s-8.6,11.8-5.2,18.4l-7.1,4c-2.9-5.3-8.1-8.9-14-9.8c-5.9-0.9-12,1-16.3,5.2l-23.6-26.9c2.3-1.8,4.2-4.2,5.5-6.8l20.7,3.4
		c1.6,7.2,8.6,11.9,15.8,10.6c7.3-1.2,12.3-7.9,11.5-15.2s-7.2-12.8-14.5-12.4c-7.4,0.4-13.1,6.4-13.2,13.8l-19.2-3.2
		c2.7-9.2-1.7-19-10.4-23.1s-19-1.1-24.3,6.9s-3.9,18.7,3.3,25.1l-21.4,20.9c-3.3-3.8-8-6.2-13-6.6V33.5c7.3-0.8,12.8-7.2,12.4-14.6
		S100.5,5.8,93.1,5.8S79.6,11.6,79.2,19s5,13.8,12.4,14.6v14.5C85,48.6,79.1,52.5,76,58.3c-3.1,5.9-3,12.9,0.3,18.7L42.7,92.4
		c-1.2-2.9-3.1-5.4-5.5-7.4l13.1-23.6c1.2,0.3,2.3,0.5,3.5,0.5c7.1,0,13-5.3,13.9-12.3S64,36.1,57.2,34.4c-6.9-1.7-13.9,2-16.4,8.6
		s0.4,14,6.6,17.3l-12.7,23C27,78.7,17.3,80,11,86.4c-6.2,6.4-7.3,16.1-2.6,23.7s13.9,11,22.4,8.3l15.1,29.5
		c-3.8,2.8-6.5,7-7.4,11.6l-11-3.2c0.3-1.1,0.4-2.3,0.4-3.4c0-7.1-5.3-13-12.3-13.8s-13.5,3.7-15.2,10.6s2.1,13.9,8.8,16.3
		c6.6,2.4,14-0.5,17.2-6.8l11.7,3.4c0,0.3,0,0.6,0,0.9c0,6.6,3.3,12.7,8.9,16.2l-7.5,9.8c-5.5-4.9-13.9-4.6-19.1,0.7
		S15,203.8,20,209.3s13.3,6.1,19.1,1.4s6.8-13,2.5-19l8.1-10.6c2.4,1.1,5.1,1.6,7.8,1.6c0.4,0,0.8,0,1.2-0.1l6,33.9
		c-8,2.4-13.6,9.7-13.9,18c-0.2,8.4,5,15.9,12.9,18.7c7.9,2.8,16.7,0.2,21.8-6.5l28,12.5c-0.2,1-0.4,2.1-0.4,3.1
		c0,7.1,5.3,13.1,12.4,13.9c7.1,0.8,13.6-3.8,15.2-10.7c1.6-6.9-2.3-13.9-9-16.3c-6.7-2.4-14.1,0.7-17.2,7.1l-27.3-12.2
		c1.2-2.2,2-4.6,2.2-7.1l35.6-8.7c2.7,5,7.5,8.5,13.1,9.7c5.6,1.1,11.4-0.3,15.8-3.8l13.3,11.5c-3.1,6.8-0.4,14.8,6.2,18.2
		c6.6,3.5,14.7,1.2,18.5-5.2c3.8-6.4,2-14.6-4.1-18.8c-6.2-4.2-14.5-2.8-19,3.1l-12.7-10.9c1.9-2,3.3-4.5,4.2-7.1l52.9,2.6
		c0.1,7.7,6.3,13.8,14,13.8s13.9-6.3,13.8-13.9C241,220,234.8,213.8,227.1,213.8L227.1,213.8z"/>
</g>
</svg>
