<svg height="32" viewBox="0 0 32 32" width="32" xmlns="http://www.w3.org/2000/svg"><g fill="none" fill-rule="evenodd"><circle cx="16" cy="16" fill="#fdde6c" fill-rule="nonzero" r="16"/><path d="m16 27c-6.07513225 0-11-4.9248678-11-11 0-6.07513225 4.92486775-11 11-11 6.0751322 0 11 4.92486775 11 11 0 6.0751322-4.9248678 11-11 11zm0-1.5459459c5.2213299 0 9.4540541-4.2327242 9.4540541-9.4540541s-4.2327242-9.45405405-9.4540541-9.45405405-9.45405405 4.23272415-9.45405405 9.45405405 4.23272415 9.4540541 9.45405405 9.4540541zm.0722198-2.9135136c-3.5976961 0-6.49384142-2.7491832-6.49384142-6.5046035v-.035937c0-3.6655777 2.82419142-6.54054054 6.63774922-6.54054054 2.5723527 0 4.2272929 1.07811104 5.3425786 2.62340364l-2.6263181 2.0304425c-.7195392-.8984259-1.5470093-1.4734185-2.7522375-1.4734185-1.762871 0-3.0040762 1.491387-3.0040762 3.3241759v.035937c0 1.8866944 1.2412052 3.3601129 3.0040762 3.3601129 1.3131591 0 2.0866638-.6109297 2.8421799-1.5273241l2.6263181 1.8687259c-1.1872397 1.6351351-2.7882144 2.8390258-5.5764288 2.8390258z" fill="#fff"/></g></svg>