<svg width="32" height="32" viewBox="0 0 32 32" fill="none" xmlns="http://www.w3.org/2000/svg">
<path d="M32 16C32 24.8365 24.8365 32 16 32C7.1635 32 0 24.8365 0 16C0 7.1635 7.1635 0 16 0C24.8365 0 32 7.1635 32 16Z" fill="black"/>
<path d="M8.63245 11.6355L16.5002 3L19.7399 11.6588" stroke="white" stroke-width="0.8" stroke-miterlimit="10" stroke-linecap="round" stroke-linejoin="round"/>
<path d="M19.6299 23.9763L15.0332 29L11.7936 20.3333" stroke="white" stroke-width="0.8" stroke-miterlimit="10" stroke-linecap="round" stroke-linejoin="round"/>
<path d="M22.9718 20.3333L19.6301 23.9763" stroke="white" stroke-width="0.8" stroke-miterlimit="10"/>
<path d="M19.7239 11.6589H25.3717L28.6114 20.3334H17.4255L14.1859 11.6589H3L6.23967 20.3334H11.7934" stroke="white" stroke-width="0.8" stroke-miterlimit="10" stroke-linecap="round" stroke-linejoin="round"/>
<path d="M19.7321 11.6589L11.7859 20.3334" stroke="white" stroke-width="0.8" stroke-miterlimit="10"/>
</svg>
