<svg xmlns="http://www.w3.org/2000/svg" width="32" height="32" viewBox="0 0 32 32"><g fill="none"><circle cx="16" cy="16" r="16" fill="#B8B8B8"/><path fill="#FFF" d="M4.035 22.702c-.063.076-.017.204.05.333.098.166.221.309.295.427.148.024.345-.237.492-.237a.281.281 0 01.124.214c-.124.07-.271.214-.444.285-.147.095-.27.166-.369.071l-.074-.071a.33.33 0 01-.073-.095 2.012 2.012 0 01-.148-.238c-.05-.071-.099-.166-.148-.238l-.148-.214c-.098-.095-.123-.237-.098-.285.05-.119.222-.19.418-.261.197-.071.394-.143.468-.262.074-.095.025-.237-.05-.356-.024-.071-.073-.119-.122-.19-.025-.072-.074-.143-.099-.19-.147 0-.369.213-.517.166-.024-.048-.098-.166-.073-.214.172-.095.566-.356.738-.309.074.024.148.119.197.238.05.119.098.237.148.332.049.048.074.12.123.19 0 .024.024.048.049.096a.18.18 0 00.05.095c.048.047.073.142.048.19-.024.071-.073.095-.172.166-.246.12-.443.238-.615.333H4.06a.136.136 0 00-.025.024zM23 4.364a.094.094 0 01-.01.013c0-.01.004-.016.01-.022-.012-.088-.114-.164-.232-.24-.148-.095-.345-.166-.468-.237-.148.047-.197.38-.32.451-.025.024-.074 0-.123-.024-.05-.023-.098-.047-.074-.047.074-.119.123-.309.197-.452.074-.142.172-.261.296-.237.147.047.295.142.467.237.05.024.074.048.123.072.05.023.074.047.123.071.099.048.173.095.247.119-.025 0-.025.024-.025.024.025 0 .025-.024.025-.024.098.024.221.142.221.19.025.119-.098.261-.221.428-.124.142-.271.309-.271.451-.025.095.098.19.221.262.074.047.148.095.222.119.074.023.148.07.197.095.123-.072.221-.357.37-.404.048.023.171.095.171.142-.123.143-.32.57-.492.618-.074.024-.172-.024-.27-.095-.05-.047-.1-.071-.148-.119-.05-.023-.099-.071-.148-.095-.099-.071-.27-.142-.394-.237-.05-.024-.123-.095-.123-.143 0-.071 0-.143.074-.238.123-.237.246-.428.344-.594v-.024a.135.135 0 00.011-.06zM18.658 3.26c-.074.023-.222 0-.197.023.05-.142.05-.332.074-.499.024-.142.098-.285.221-.285.074 0 .148 0 .246.024.074.024.197.047.271.071.074.024.173.048.271.072.025 0 .074.023.123.023.05 0 .074.024.123.024.123-.024.246.071.271.119.05.119-.025.285-.098.475-.074.167-.148.357-.124.5.025.118.148.166.296.213.148.048.32.048.443.095a.865.865 0 00.123-.261c.025-.119.05-.19.123-.238.05 0 .172.048.197.095-.05.167-.123.618-.295.713-.025.024-.074.024-.123.024a.469.469 0 01-.173-.047c-.123-.024-.246-.096-.344-.12a.735.735 0 01-.222-.047l-.221-.071c-.074-.024-.148-.071-.173-.119-.049-.047-.024-.119 0-.238.05-.261.123-.475.173-.665v-.024c0-.047-.025-.095-.074-.143a.493.493 0 00-.222-.095 7.688 7.688 0 00-.517-.118c-.123.07-.074.38-.172.499zm-1.97-.238c0-.119-.024-.309-.073-.452 0-.095.024-.166.049-.237.025-.072.074-.12.148-.12.197-.047.443.025.689.048.197.024.566.024.64.12.05.023.05.094.05.19 0 .095-.025.19-.05.285-.025.19-.099.404-.05.523.05.095.198.142.345.166a.866.866 0 00.246.024c.074 0 .148.023.197.023.099-.095.074-.427.197-.499.05 0 .148.024.197.048.025.166-.049.713-.221.784-.074.024-.197 0-.32-.024-.05 0-.074-.023-.099-.023-.024 0-.049-.024-.074-.024-.049 0-.098-.024-.147-.024-.074-.024-.197-.024-.32-.047-.05 0-.074-.024-.099-.024-.024 0-.049-.024-.074-.024a.192.192 0 01-.123-.047c-.098-.096-.049-.31 0-.523.05-.214.123-.428.05-.523-.05-.095-.197-.12-.37-.12-.172 0-.344.025-.443 0-.098.096-.024.405-.098.524-.025.024-.074.024-.123.024-.025-.024-.05-.024-.074-.024-.025 0-.025-.024-.05-.024zm6.45 1.117s0-.024 0 0c0-.024 0 0 0 0zm-2.782-.451c-.073.023-.172-.024-.221-.072.024-.119.05-.309.098-.475.05-.167.123-.31.271-.285.099.023.197.047.32.095.05.023.123.047.123.023.05.024.123.048.173.072.196.071.541.142.59.261.05.12-.049.285-.147.476-.099.19-.197.38-.197.499.024.095.147.19.295.237.05.024.074.024.123.048.05.024.074.024.123.047.05.024.123.048.173.072.123-.072.172-.404.32-.428.049 0 .147.047.172.095-.025.19-.246.69-.419.713-.147.024-.418-.19-.566-.261-.098-.048-.492-.167-.541-.286-.05-.095.049-.309.147-.499.099-.19.222-.38.173-.499-.05-.095-.197-.142-.345-.19-.148-.048-.32-.071-.418-.119-.124.071-.124.38-.247.476zm4.53 2.543c-.074-.024-.172-.12-.172-.214.098-.12.221-.285.32-.404.123-.12.221-.19.344-.143.074.024.123.095.197.143l.099.095c.024.024.073.047.098.095.123.142.246.285.394.38.123.048.172.19.172.238 0 .119-.147.238-.32.356-.147.12-.32.238-.369.38-.025.048 0 .12.025.167 0 .024.024.048.049.071l.05.048.048.047c.099.12.246.214.32.31.148-.024.32-.286.468-.286.05.048.123.143.123.19-.148.12-.443.476-.64.476-.05 0-.074-.024-.123-.048-.05-.024-.074-.071-.123-.119-.074-.095-.148-.214-.222-.285l-.073-.071c-.05-.024-.074-.048-.099-.072-.074-.047-.123-.118-.172-.166-.05-.071-.099-.143-.099-.19 0-.071.025-.119.123-.214l.493-.475.197-.19-.197.19c.074-.072 0-.214-.123-.333a.737.737 0 00-.197-.19c-.025-.024-.074-.048-.099-.072l-.074-.07c-.147.023-.27.308-.418.356zm-1.379-1.046a.202.202 0 01-.197-.166c.05-.096.123-.286.222-.428.098-.143.197-.262.345-.214.197.047.369.237.566.38.049.024.098.071.147.095.05.048.099.071.148.119a.722.722 0 01.197.214c.025.095-.123.261-.27.404-.148.143-.296.309-.32.428 0 .071 0 .119.049.166a.41.41 0 00.147.143c.123.095.271.166.345.237.148-.047.295-.332.443-.332.05 0 .123.071.148.119-.099.166-.443.594-.616.57a.425.425 0 01-.123-.048c-.024 0-.05-.023-.074-.047L24.64 6.8l-.025-.024-.221-.214a.339.339 0 00-.099-.07c-.05-.048-.098-.072-.148-.12-.098-.071-.172-.142-.197-.214-.024-.118.124-.285.271-.451.148-.167.296-.333.296-.452 0-.047-.025-.095-.074-.142-.05-.024-.123-.072-.197-.12-.148-.07-.296-.142-.37-.213-.147.047-.246.333-.369.404zm3.57 3.375c.147-.071.27-.214.443-.285.148-.095.27-.167.37-.072l.073.072c.025.023.05.047.074.095.049.071.098.142.148.237.049.072.098.167.147.238l.148.214c.098.095.123.238.098.285-.049.12-.221.19-.418.262-.197.071-.394.142-.468.261-.074.095-.024.238.05.357.024.071.073.119.122.19.025.071.074.142.099.19.148 0 .37-.214.517-.166.025.047.098.166.074.214-.173.095-.566.356-.739.308-.074-.023-.147-.118-.197-.237a4.574 4.574 0 00-.147-.333c-.05-.047-.074-.119-.123-.19 0-.024-.025-.048-.05-.095a.178.178 0 00-.049-.095c-.05-.048-.074-.143-.05-.19.025-.072.075-.095.173-.167.246-.119.443-.237.616-.332h.024c.099-.072.05-.214-.024-.357-.099-.166-.222-.309-.296-.428-.148-.024-.344.238-.492.238a.281.281 0 01-.123-.214zm-1.083-1.307c.098-.072.221-.238.369-.404.123-.12.246-.214.37-.12.073.072.147.143.22.238l.222.286c.05.071.148.166.222.261.074.095.123.167.123.238-.025.119-.197.214-.37.333-.172.118-.369.213-.418.332-.05.095.025.238.123.357a.33.33 0 00.074.095.33.33 0 00.074.095c.05.048.098.095.123.143.172 0 .37-.262.517-.214.05.047.098.119.098.166-.049.071-.197.19-.344.285a1.009 1.009 0 01-.222.12c-.074.023-.123.047-.172.023a.527.527 0 01-.222-.238c-.049-.095-.098-.214-.147-.261-.05-.048-.123-.143-.197-.238a.496.496 0 01-.099-.143.393.393 0 01-.049-.118c.025-.143.197-.262.394-.38.197-.12.394-.238.418-.357 0-.095-.073-.214-.197-.333-.049-.071-.123-.119-.172-.166a.627.627 0 01-.123-.143c-.148 0-.32.285-.468.31a.338.338 0 01-.147-.167zm2.707 4.325c.148-.047.32-.142.444-.142.147-.071.295-.095.369.024.074.118.123.285.172.475.05.19.074.38.148.523-.025 0-.05.024-.074.024.025 0 .05-.024.074-.024.074.095.05.238.024.285-.073.119-.27.143-.467.166-.197.024-.394.048-.517.143-.074.071-.074.214-.025.357l.074.213c.025.072.025.143.05.19.147.048.442-.094.565-.023.025.047.05.166.025.214-.098 0-.27.071-.418.095-.173.024-.32.047-.394 0-.074-.048-.099-.143-.123-.262 0-.07-.025-.118-.025-.19v-.19a2.19 2.19 0 01-.123-.428v-.119c0-.047 0-.07.025-.095a.379.379 0 01.221-.118c.27-.048.492-.12.69-.167a.359.359 0 01.147-.047c-.05 0-.074.023-.123.023.098-.047.098-.19.05-.356-.025-.024-.025-.071-.05-.119-.025-.024-.025-.071-.05-.119l-.073-.214c-.123-.047-.394.143-.542.12-.074-.048-.098-.167-.074-.239zm-.713-1.544c.123-.048.27-.167.393-.286.148-.095.296-.142.394-.023.05.023.074.07.099.118l.074.143c.024.119.073.214.123.333.024.024.049.095.074.142.024.048.024.072.049.095.024.048.049.072.049.096.05.095.074.213.05.26-.05.12-.247.167-.444.239-.197.07-.418.118-.492.214-.05.047-.05.095-.05.166 0 .024.025.047.025.095.025.048.025.071.05.119.049.142.147.285.172.38.147.024.418-.166.541-.095.025.048.05.143.05.19-.148.119-.665.333-.813.214a.516.516 0 01-.074-.119.43.43 0 00-.049-.166 3.01 3.01 0 00-.074-.31.391.391 0 00-.049-.118c-.025-.047-.05-.119-.074-.166-.049-.095-.098-.214-.074-.286.05-.118.247-.19.468-.261.222-.071.443-.119.492-.238.025-.023.025-.047.025-.071 0-.024-.025-.071-.025-.095-.024-.048-.049-.119-.098-.19-.05-.048-.074-.119-.123-.19-.025-.048-.05-.072-.05-.095 0-.024-.024-.048-.024-.072-.123-.047-.37.167-.517.167-.05-.024-.098-.12-.098-.19zm1.969 4.8c.172-.023.32 0 .345.12.024.07.049.142.049.237v.285a2.03 2.03 0 000 .547c.024.119-.025.261-.074.285-.099.072-.295.048-.492.024s-.419-.048-.542.024c-.098.047-.123.19-.123.333-.025.142 0 .309 0 .427.123.095.443.024.542.12v.118c0 .048-.025.071-.05.095-.197-.024-.664.024-.787-.095-.05-.047-.05-.166-.05-.285 0-.119.05-.262.05-.357v-.451c0-.072.024-.143.073-.19a.546.546 0 01.247-.048h.738c.099-.024.148-.166.148-.333 0-.166-.025-.38-.025-.499-.123-.095-.418.024-.566-.047-.05-.048-.05-.19 0-.238.148 0 .345-.048.517-.071zm-.295-1.734c.172-.048.32-.048.369.047.024.048.024.095.049.143 0 .047.025.119.025.166.024.119.024.238.049.357.024.023.024.047.024.07a.175.175 0 01.025.096c0 .071.025.143.025.19 0 .119 0 .238-.025.285-.074.095-.27.12-.492.12-.222 0-.443 0-.542.07-.024.024-.024.048-.05.072 0 .024-.024.071-.024.095-.024.071 0 .142 0 .214.025.095.025.166.05.237 0 .024.024.072.024.096v.095c.148.047.468-.072.566.047a.254.254 0 010 .19c-.197.072-.763.143-.861 0-.05-.071-.05-.19-.05-.309v-.309c0-.071-.024-.19-.024-.309 0-.118-.025-.261.025-.309.073-.118.295-.142.516-.142.222 0 .468 0 .542-.095a.335.335 0 00.05-.167v-.119c0-.047-.025-.07-.025-.118-.05-.143-.099-.31-.099-.404-.147-.048-.418.095-.566.047-.05-.047-.074-.142-.05-.214.124-.024.296-.095.469-.142zm.147 5.252c.173.024.296.072.222.262 0 .071 0 .142-.025.237-.024.072-.05.167-.074.262-.024.071-.049.166-.074.261 0 .024-.024.072-.024.12 0 .047-.025.07-.025.118.025.119-.074.238-.123.261-.123.048-.295-.023-.492-.095-.173-.07-.37-.142-.517-.118-.123.023-.172.142-.222.285-.049.142-.049.309-.098.428a.926.926 0 00.27.118c.124.024.198.048.247.12 0 .047-.05.166-.099.19-.172-.048-.64-.12-.738-.286-.025-.024-.025-.071-.025-.119a.43.43 0 01.05-.166c.024-.119.098-.238.123-.333a.67.67 0 01.049-.214l.074-.214c.024-.07.073-.142.123-.166.049-.048.123-.024.246 0 .27.048.492.119.69.166h.024c.049 0 .098-.023.147-.07.05-.048.074-.12.099-.215.05-.166.098-.38.123-.499-.074-.119-.394-.071-.517-.166-.05-.072 0-.19.05-.238.147.048.344.048.516.071zm-.147 1.165s-.025 0 0 0c-.025 0 0 0 0 0zm.541-2.876c.074.024.123.071.099.095.049.19-.025.428-.05.666-.024.19-.024.546-.123.618-.024.047-.098.047-.197.047-.098 0-.197-.024-.295-.047-.197-.024-.419-.096-.542-.048-.098.048-.147.19-.172.333-.025.071-.025.166-.025.237 0 .072-.024.143-.024.19.098.096.443.072.517.19a.544.544 0 01-.05.19c-.172.025-.738-.047-.812-.213-.024-.071 0-.19.025-.309 0-.048.024-.071.024-.095 0-.024.025-.048.025-.071 0-.048.025-.095.025-.143.024-.071.024-.19.049-.309 0-.048.024-.071.024-.095 0-.024.025-.048.025-.071 0-.048.025-.095.05-.12.098-.094.32-.047.54 0 .222.048.444.12.542.048.099-.047.124-.19.124-.356 0-.167-.025-.333 0-.428-.099-.095-.419-.024-.542-.095-.025-.024-.025-.071-.025-.119.025-.024.025-.047.025-.071 0-.024.025-.024.025-.048.123 0 .32-.024.492-.024a.75.75 0 01.246.048zm-1.502 5.063c.173.07.271.166.197.309-.049.142-.147.285-.246.451-.024.048-.049.071-.074.119-.024.048-.049.071-.073.119-.05.095-.099.166-.124.237-.049-.023-.073-.047-.123-.07.05.023.074.047.123.07-.024.096-.147.214-.196.214-.124.024-.271-.095-.444-.214-.147-.118-.32-.261-.467-.261-.099-.024-.197.095-.271.214a.904.904 0 00-.123.214c-.025.071-.074.142-.099.19.074.119.37.214.419.357-.025.047-.099.166-.148.166-.148-.119-.59-.31-.64-.475-.025-.072.025-.167.099-.262.049-.047.073-.095.123-.143.024-.047.074-.095.098-.142.074-.095.148-.262.246-.38.025-.048.099-.12.148-.12.074 0 .148 0 .246.072.246.119.443.238.616.333h.024c.123.047.222-.071.32-.214.099-.143.173-.333.246-.452-.049-.142-.393-.19-.467-.309-.025-.023 0-.071.024-.119.025-.047.074-.07.099-.095.123.072.32.12.467.19zm.64-1.64c.173.047.32.118.345.213-.024.096-.05.19-.098.31-.025.047-.05.118-.074.166-.025.047-.05.119-.074.166-.074.19-.148.523-.27.57-.124.048-.296-.047-.493-.142-.197-.095-.394-.19-.517-.19-.099.024-.197.143-.246.285-.025.048-.025.071-.05.119-.024.047-.024.071-.049.119-.024.047-.049.119-.074.166.074.119.419.167.444.31 0 .047-.05.142-.099.166-.197-.024-.714-.238-.738-.405-.025-.142.196-.404.27-.546.05-.095.173-.476.296-.523.098-.048.32.047.517.143.197.095.394.213.517.166.098-.048.147-.19.197-.333.049-.142.073-.309.123-.404-.074-.119-.394-.119-.493-.238-.024-.07.025-.166.074-.213.123.023.32.047.492.095zm-2.584 4.61c.123.12.197.214.197.333-.025.072-.099.12-.148.19l-.098.096c-.025.023-.05.07-.099.095-.148.118-.295.237-.394.38-.05.119-.197.166-.246.166-.123 0-.246-.142-.37-.309-.122-.142-.245-.309-.393-.356-.05-.024-.123 0-.172.024-.025 0-.05.023-.074.047l-.05.048-.049.047c-.123.095-.221.238-.32.31.025.142.296.308.296.45-.05.048-.148.12-.197.12-.123-.143-.493-.428-.493-.618 0-.048.025-.072.05-.12.024-.047.073-.07.123-.118.098-.071.221-.143.295-.214l.074-.071a.33.33 0 01.074-.095c.049-.072.123-.12.172-.167.074-.047.148-.095.197-.095.074 0 .123.024.222.119l.492.475.197.19-.197-.19c.074.072.221 0 .345-.118a.737.737 0 00.196-.19c.025-.024.05-.072.074-.096l.074-.071c-.024-.143-.32-.261-.37-.404 0-.071.1-.166.173-.166.123.095.296.213.419.309zm1.034-1.426c.172.096.27.19.27.333-.049.19-.246.357-.393.547-.025.047-.074.095-.099.142-.05.048-.074.096-.123.143a.733.733 0 01-.222.19c-.098.024-.27-.119-.418-.261-.148-.143-.32-.285-.443-.31-.074 0-.123 0-.172.048a.411.411 0 00-.148.143c-.099.119-.172.261-.246.333.049.142.344.285.344.428 0 .047-.074.118-.123.142-.172-.095-.615-.428-.59-.594 0-.024.024-.071.049-.119 0-.024.024-.047.049-.071l.025-.024.024-.024.222-.214a.33.33 0 00.074-.095c.049-.047.073-.095.123-.142.073-.095.147-.167.221-.19.123-.024.296.118.468.261.172.143.345.285.468.285.049 0 .098-.024.147-.071.025-.048.074-.119.123-.19.074-.143.148-.285.222-.357-.05-.142-.345-.237-.419-.356 0-.072.05-.167.124-.19.098.047.295.118.443.213zm-4.037 3.423c.073.119.196.261.295.428.098.142.172.261.074.356l-.074.072a.339.339 0 01-.099.071 2.06 2.06 0 01-.246.143c-.074.047-.172.095-.246.142l-.221.143c-.099.095-.247.119-.296.095-.123-.048-.197-.214-.27-.404-.074-.19-.148-.38-.271-.452-.099-.071-.247-.024-.37.048-.074.024-.123.071-.197.119-.073.023-.147.07-.197.095 0 .142.222.356.173.499-.05.024-.173.095-.222.071-.098-.166-.369-.547-.32-.713.025-.071.123-.143.246-.19.123-.048.247-.095.345-.143.05-.047.123-.071.197-.119.025 0 .05-.023.098-.047a.19.19 0 00.099-.048c.05-.047.148-.07.197-.047.074.024.098.071.172.166.123.238.246.428.345.594v.024c.074.095.221.048.369-.024.172-.095.32-.213.443-.285.025-.142-.246-.333-.246-.475a.297.297 0 01.222-.119zm-.714 1.046s0-.024 0 0c0-.024 0 0 0 0zm2.043-2.092c.098.072.246.19.418.357.123.119.222.237.123.356a1.988 1.988 0 01-.246.214l-.295.214c-.074.048-.173.143-.271.214-.098.071-.172.119-.246.119-.123-.024-.222-.19-.345-.357-.123-.166-.221-.356-.344-.404-.099-.047-.247.024-.37.12a.339.339 0 00-.098.07.339.339 0 00-.099.072c-.049.047-.098.095-.147.119 0 .166.27.356.221.499-.049.047-.123.095-.172.095-.074-.048-.197-.19-.295-.333a.945.945 0 01-.124-.214c-.024-.071-.049-.119-.024-.166a.533.533 0 01.246-.214c.098-.048.222-.095.27-.143.05-.047.148-.119.247-.19a.535.535 0 01.148-.095.416.416 0 01.123-.048c.147.024.27.19.394.38.123.19.246.381.369.405.098 0 .221-.071.344-.19.074-.048.124-.12.173-.167a.648.648 0 01.148-.119c0-.142-.296-.309-.32-.451a.343.343 0 01.172-.143zm-4.456 2.615c.05.142.123.309.173.428.073.142.098.285-.025.356-.123.071-.296.119-.492.166-.197.048-.394.072-.542.143 0-.024-.025-.047-.025-.071 0 .024.025.047.025.071-.098.071-.246.048-.295.024-.124-.071-.148-.262-.173-.452-.024-.19-.049-.38-.147-.499-.074-.071-.222-.071-.37-.024l-.221.072c-.074.023-.148.023-.197.047-.05.143.098.428.024.547-.049.024-.172.047-.221.024 0-.095-.074-.262-.099-.404-.024-.167-.049-.31 0-.38.05-.072.148-.096.271-.12.074 0 .123-.023.197-.023h.197c.123-.048.295-.095.443-.12h.123c.05 0 .074 0 .099.025a.361.361 0 01.123.213c.049.262.123.476.172.666v.024c.05.095.197.095.37.047.024-.023.073-.023.122-.047.025-.024.074-.024.124-.048l.221-.071c.05-.119-.148-.38-.123-.523.05-.071.172-.095.246-.071zm1.576-.69c.049.096.172.262.295.38.099.143.148.286.025.381-.025.048-.074.071-.123.095l-.148.071c-.123.024-.222.072-.345.12-.024.023-.098.047-.147.07-.05.024-.074.024-.099.048-.05.024-.074.048-.098.048-.099.047-.222.07-.271.047-.123-.047-.172-.238-.246-.428-.074-.19-.123-.404-.222-.475-.05-.048-.098-.048-.172-.048-.025 0-.05.024-.099.024-.049.024-.074.024-.123.048-.147.047-.295.142-.394.166-.024.143.173.404.099.523a.596.596 0 01-.197.048c-.123-.143-.345-.642-.222-.785.025-.024.074-.047.123-.071.05 0 .124-.024.173-.048.123-.023.246-.047.32-.07a.425.425 0 00.123-.048c.05-.024.123-.048.172-.072.099-.047.222-.095.296-.071.123.047.197.238.27.452.074.213.123.427.247.475.024.024.049.024.073.024.025 0 .074-.024.099-.024.05-.024.123-.048.197-.095.049-.048.123-.072.197-.12.049-.023.074-.023.098-.047.025 0 .05-.023.074-.023.05-.12-.172-.357-.172-.5.024-.047.123-.095.197-.095zm-5.022 1.403c0 .142.05.333.074.499.024.166 0 .285-.123.333-.074.023-.148.047-.247.047h-.295a2.254 2.254 0 00-.566 0c-.123.024-.27-.024-.296-.071-.073-.095-.049-.285-.024-.475.024-.19.05-.405-.025-.523-.049-.095-.197-.12-.344-.12-.148-.023-.32 0-.444 0-.098.12-.024.429-.123.524h-.123c-.049 0-.074-.024-.098-.048.024-.19-.025-.642.098-.76.05-.048.173-.048.296-.048s.27.048.369.048h.468c.074 0 .147.023.197.07.024.048.049.12.049.239v.713c.024.095.172.142.344.142.173 0 .394-.024.517-.024.099-.118-.024-.404.05-.546.049-.048.197-.048.246 0zm1.723-.262c.025.12.098.31.172.428.05.167.05.31-.074.38-.049.024-.098.024-.147.048-.05 0-.123.024-.173.024-.123.023-.246.023-.369.047-.024.024-.049.024-.074.024-.049.024-.073.024-.098.024-.074 0-.148.024-.197.024-.123 0-.246 0-.295-.024-.099-.072-.124-.262-.124-.476 0-.213 0-.427-.073-.522-.025-.024-.05-.024-.074-.048-.025 0-.074-.024-.099-.024-.074-.024-.147 0-.221 0-.099.024-.173.024-.246.048-.025 0-.074.024-.099.024h-.098c-.05.142.074.451-.05.546a.28.28 0 01-.197 0c-.073-.19-.147-.737 0-.832.074-.047.197-.047.32-.047h.32c.074 0 .197-.024.32-.024.124 0 .271-.024.32.024.124.071.148.285.148.499 0 .214 0 .452.099.523a.36.36 0 00.172.047h.123c.05 0 .074-.023.123-.023a1.7 1.7 0 01.419-.095c.049-.143-.099-.405-.05-.547a.242.242 0 01.222-.048zm-5.465.048c.074-.024.197 0 .197-.024-.05.143-.05.333-.074.5-.024.142-.098.284-.221.284-.074 0-.148 0-.247-.023a4.154 4.154 0 00-.27-.072 4.154 4.154 0 00-.271-.071c-.025 0-.074-.024-.123-.024-.05 0-.074-.023-.123-.023-.123.023-.246-.072-.271-.12-.05-.118.025-.308.098-.475.074-.166.148-.356.124-.499-.025-.119-.148-.166-.296-.214-.148-.047-.32-.047-.443-.095a.865.865 0 00-.123.262c-.025.118-.05.19-.123.237-.05 0-.172-.047-.197-.095.05-.166.123-.618.295-.713.025-.024.074-.024.123-.024.05 0 .123.024.173.048.123.024.246.095.344.119a.74.74 0 01.222.047l.221.072c.074.023.148.071.173.119.049.047.024.118 0 .237-.05.262-.123.476-.173.666-.024.023-.024.047-.024.071.024-.024.024-.024.024-.048 0 .048.025.096.074.143.05.048.123.071.222.095.172.048.394.095.517.119.123-.071.074-.38.172-.5zm1.97.238c-.025.118.024.309.073.451a.682.682 0 01-.049.238c-.025.071-.074.119-.148.119-.197.047-.443-.024-.689-.048-.197-.024-.566-.024-.64-.119-.05-.024-.05-.095-.05-.19s.025-.19.05-.285c.025-.19.099-.404.05-.523-.05-.095-.198-.143-.345-.166-.074-.024-.173-.024-.247-.024-.073 0-.147-.024-.196-.024-.099.095-.074.428-.197.5a.596.596 0 01-.197-.048c-.025-.167.049-.713.221-.785.074-.023.197 0 .32.024.05 0 .074.024.099.024.024 0 .049.024.074.024.049 0 .098.023.147.023.074.024.197.024.32.048.05 0 .074.024.099.024.024 0 .049.023.074.023.049 0 .098.024.123.048.098.095.049.309 0 .523-.05.214-.123.428-.05.523.05.095.197.119.37.119.172 0 .344-.024.443 0 .098-.095.024-.404.098-.523.025-.024.074-.024.123-.024.025.024.05.024.074.024.025 0 .025.024.05.024zm-5.17-1.284a.356.356 0 00.074.048c-.074.118-.123.309-.197.451-.074.143-.172.262-.296.238-.147-.048-.295-.143-.467-.238-.05-.024-.074-.047-.123-.071-.05-.024-.074-.048-.123-.071-.099-.048-.173-.095-.247-.12.025 0 .025-.023.025-.023-.025 0-.025.024-.025.024-.098-.024-.221-.143-.221-.19-.025-.12.098-.262.221-.428.123-.143.271-.31.271-.452.025-.095-.098-.19-.221-.261a1.052 1.052 0 00-.222-.12c-.074-.023-.148-.07-.197-.094-.123.071-.221.356-.37.404-.048-.024-.171-.095-.171-.143.123-.142.32-.57.492-.618.074-.023.172.024.27.095.05.048.1.072.148.12.05.023.099.07.148.094.099.072.27.143.394.238.05.024.123.095.123.143 0 .07 0 .142-.074.237-.123.238-.246.428-.344.594v.024c-.05.12.073.214.221.31.148.094.345.166.468.237.148-.048.197-.38.32-.452.024-.023.074 0 .123.024zm1.477.618c.074-.024.172.024.27.119-.024.119-.049.309-.098.475-.049.167-.123.31-.27.285a2.347 2.347 0 01-.32-.095c-.05-.023-.124-.047-.173-.07-.05-.025-.123-.048-.172-.072-.197-.072-.542-.143-.591-.262-.05-.119.05-.285.148-.475.098-.19.197-.38.197-.5-.025-.094-.148-.19-.296-.237-.049-.024-.074-.024-.123-.047-.05-.024-.074-.024-.123-.048-.05-.024-.123-.047-.172-.071-.123.071-.173.404-.32.428-.05 0-.148-.048-.173-.095.025-.19.247-.69.419-.714.148-.023.418.19.566.262.099.047.492.166.542.285.049.095-.05.31-.148.5-.099.19-.222.38-.172.498.049.095.197.143.344.19.148.048.32.072.419.12.123-.072.123-.38.246-.476zm-4.53-2.543a.378.378 0 01.197.19c-.098.119-.221.285-.32.404-.123.119-.221.19-.344.143-.074-.024-.123-.095-.197-.143l-.099-.095c-.024-.024-.074-.048-.098-.095-.123-.143-.246-.285-.394-.38-.123-.048-.172-.19-.172-.238 0-.119.147-.238.32-.357.147-.118.32-.237.369-.38.025-.047 0-.119-.025-.166 0-.024-.024-.048-.049-.072l-.05-.047-.048-.048c-.099-.118-.247-.214-.32-.309-.148.024-.32.286-.468.286-.05-.048-.123-.143-.123-.19.148-.12.443-.476.64-.476.05 0 .074.024.123.048.05.023.074.071.123.119.074.095.148.213.222.285l.073.071c.05.024.074.048.099.071.074.048.123.12.172.167.05.071.099.142.099.19 0 .071-.025.119-.123.214l-.493.475-.024.024c-.074.071 0 .214.123.333.049.07.123.142.197.19.024.024.074.047.098.071l.074.071c.148-.023.27-.309.418-.356zm1.379 1.046c.074 0 .172.047.197.166-.05.095-.123.285-.222.428-.098.142-.197.261-.344.214-.197-.048-.37-.238-.566-.38-.05-.024-.099-.072-.148-.096-.05-.047-.099-.07-.148-.118a.722.722 0 01-.197-.214c-.024-.095.123-.262.271-.404.148-.143.295-.31.32-.428 0-.072 0-.12-.05-.167a.41.41 0 00-.147-.142c-.123-.095-.27-.167-.345-.238-.147.048-.295.333-.443.333-.049 0-.123-.071-.147-.119.098-.166.443-.594.615-.57.025 0 .074.023.123.047.025 0 .05.024.074.048l.025.023.024.024.222.214a.314.314 0 00.098.071c.05.048.099.072.148.12.098.07.172.142.197.213.025.119-.123.285-.27.452-.149.166-.296.333-.296.451 0 .048.024.095.074.143.049.024.123.071.196.119.148.071.296.142.37.214.147-.048.246-.333.369-.404zm-2.486-2.068c-.099.071-.222.238-.37.404-.123.119-.246.214-.369.119a2.171 2.171 0 01-.221-.238l-.222-.285c-.05-.071-.148-.167-.221-.262-.074-.095-.124-.166-.124-.237.025-.12.197-.214.37-.333.172-.119.369-.214.418-.333.05-.095-.024-.237-.123-.356a.33.33 0 00-.074-.095.33.33 0 00-.074-.095c-.049-.048-.098-.096-.123-.143-.172 0-.369.261-.517.214-.049-.048-.098-.119-.098-.167.05-.07.197-.19.345-.285.073-.047.147-.095.221-.119.074-.023.123-.047.172-.023a.527.527 0 01.222.237c.05.095.098.214.148.262.049.047.123.142.197.237.049.048.073.096.098.143.025.048.05.095.05.119-.025.143-.198.261-.395.38-.196.119-.393.238-.418.357 0 .095.074.214.197.332.05.072.123.12.172.167a.6.6 0 01.123.142c.148 0 .32-.285.468-.309a.34.34 0 01.148.167zM3.37 20.42c-.148.048-.32.143-.468.19-.148.072-.295.095-.37-.024-.073-.118-.122-.285-.171-.475-.05-.19-.074-.38-.148-.523.025 0 .05-.024.098-.047-.024 0-.049.023-.073.023-.074-.095-.05-.237-.025-.285.074-.119.27-.142.468-.166.197-.024.393-.048.517-.143.073-.071.073-.214.024-.356L3.15 18.4c-.024-.071-.024-.143-.049-.19-.148-.048-.443.095-.566.023-.025-.047-.05-.166-.025-.213.099 0 .271-.072.419-.096.172-.023.32-.047.394 0 .073.048.098.143.123.262 0 .071.024.119.024.19v.19c.05.119.099.285.123.428v.119c0 .047 0 .071-.024.095-.05.047-.099.095-.222.119-.27.047-.492.119-.689.166h-.025c-.098.048-.098.19-.049.357.025.023.025.071.05.119.024.023.024.07.049.118l.073.214c.124.048.394-.142.542-.119.074.048.098.167.074.238zm.714 1.545c-.123.048-.271.166-.394.285-.148.095-.296.143-.394.024-.05-.024-.074-.071-.098-.119l-.074-.142c-.025-.12-.074-.214-.123-.333-.025-.024-.05-.095-.074-.143-.025-.047-.025-.071-.05-.095-.024-.047-.049-.071-.049-.095-.049-.095-.074-.214-.049-.261.05-.12.246-.167.443-.238.197-.071.419-.119.493-.214.049-.048.049-.095.049-.166 0-.024-.025-.048-.025-.095-.024-.048-.024-.072-.05-.12-.048-.142-.147-.284-.171-.38-.148-.023-.419.167-.542.096a.544.544 0 01-.05-.19c.148-.12.665-.333.813-.215a.49.49 0 01.074.12.43.43 0 00.05.166c.024.119.048.237.073.309 0 .023.025.07.05.118.024.048.049.12.073.167.05.095.099.214.074.285-.05.119-.246.19-.468.262-.221.07-.443.118-.492.237-.025.024-.025.048-.025.072 0 .023.025.07.025.095.025.047.05.118.098.19.05.047.074.119.123.19.025.047.025.071.05.095 0 .024.024.047.024.071.123.048.37-.166.517-.166.05.024.099.119.099.19zm-1.97-4.801c-.172.024-.32 0-.344-.119a.674.674 0 01-.05-.238v-.285a2.03 2.03 0 000-.546c-.024-.12.025-.262.074-.286.099-.071.296-.047.493-.023.197.023.418.047.541-.024.099-.048.123-.19.123-.333.025-.143 0-.309 0-.428-.123-.095-.443-.024-.541-.119v-.118c0-.048.024-.072.05-.096.196.024.664-.023.787.096.049.047.049.166.049.285 0 .119-.05.261-.05.356v.452a.265.265 0 01-.073.19.546.546 0 01-.246.048h-.739c-.098.023-.147.166-.147.332 0 .167.024.38.024.5.123.094.419-.024.566.047.05.047.05.19 0 .238-.147 0-.344.047-.517.07zm.296 1.735c-.172.047-.32.047-.394-.071-.025-.048-.025-.095-.025-.12 0-.047-.024-.118-.024-.166-.025-.118-.025-.237-.05-.356-.024-.024-.024-.048-.024-.071-.025-.048-.025-.072-.025-.095 0-.072-.024-.143-.024-.19 0-.12 0-.238.024-.286.074-.095.271-.119.493-.119.221 0 .443 0 .541-.071.025-.024.025-.047.05-.071 0-.024.024-.072.024-.095.025-.072 0-.143 0-.214-.025-.095-.025-.167-.05-.238 0-.024-.024-.071-.024-.095v-.095c-.148-.048-.468.071-.566-.048a.254.254 0 010-.19c.197-.071.763-.142.862 0 .049.072.049.19.049.31v.308c0 .072.024.19.024.31 0 .118.025.26-.024.308-.074.119-.296.143-.517.143-.222 0-.468 0-.542.095a.335.335 0 00-.049.166v.12c0 .047.025.07.025.118.049.143.098.309.098.404.148.048.419-.095.566-.048.05.048.074.143.05.214-.124.024-.296.095-.468.143zm-.148-5.253c-.172-.024-.295-.071-.221-.261 0-.071 0-.143.024-.238.025-.071.05-.166.074-.261.025-.072.05-.167.074-.262 0-.024.025-.071.025-.119 0-.047.024-.07.024-.118-.024-.12.074-.238.123-.262.123-.047.296.024.493.095.172.071.369.143.516.119.124-.024.173-.143.222-.285.05-.143.05-.31.099-.428a.926.926 0 00-.271-.119c-.123-.024-.197-.047-.246-.119 0-.047.049-.166.098-.19.172.048.64.119.739.285.024.024.024.072.024.12a.43.43 0 01-.05.166c-.024.118-.098.237-.122.332a.674.674 0 01-.05.214l-.073.214c-.025.071-.074.143-.123.167-.05.047-.123.023-.247 0-.27-.048-.492-.12-.689-.167-.024-.024-.049-.024-.074-.024.025.024.025.024.05.024-.05 0-.099.024-.148.071-.05.048-.074.12-.099.214-.049.167-.098.38-.123.5.074.118.394.07.517.166.05.071 0 .19-.049.238-.148-.048-.345-.048-.517-.072zm-.394 1.735c-.074-.047-.123-.071-.098-.095-.05-.19.024-.428.049-.665.025-.19.025-.547.123-.618.025-.048.099-.048.197-.048.099 0 .197.024.295.048.197.024.419.095.542.047.098-.047.148-.19.172-.332.025-.072.025-.167.025-.238 0-.071.025-.143.025-.19-.099-.095-.444-.072-.517-.19a.53.53 0 01.049-.19c.172-.024.738.047.812.213.025.072 0 .19-.024.31 0 .047-.025.07-.025.094 0 .024-.025.048-.025.072 0 .047-.024.095-.024.142-.025.072-.025.19-.05.31 0 .047-.024.07-.024.094 0 .024-.025.048-.025.072a.178.178 0 01-.049.119c-.098.095-.32.047-.542 0-.221-.048-.443-.12-.541-.048-.099.048-.123.19-.123.357 0 .166.024.332 0 .427.098.095.418.024.541.095.025.024.025.072.025.12-.025.023-.025.047-.025.07 0 .024-.024.024-.024.048-.123 0-.32.024-.493.024-.098 0-.172-.024-.246-.048zm1.502-5.086c-.148-.071-.27-.143-.197-.309.05-.143.148-.285.246-.452.025-.047.05-.07.074-.118.025-.048.05-.072.074-.12.049-.094.098-.166.123-.237 0 .024.025.024.025.024 0-.024-.025-.024-.025-.024.025-.095.148-.214.197-.214.123-.024.27.095.443.214.148.119.32.262.468.262.098.023.197-.096.27-.214a.954.954 0 00.124-.214c.024-.072.073-.143.098-.19-.074-.12-.37-.214-.419-.357.025-.048.099-.166.148-.166.148.118.591.309.64.475.025.071-.024.166-.098.261-.05.048-.074.096-.123.143-.025.048-.074.095-.099.143-.074.095-.147.261-.246.38-.025.047-.098.119-.148.119-.074 0-.147 0-.246-.072-.246-.118-.443-.237-.615-.332H4.06c-.123-.048-.221.071-.32.214-.098.142-.172.332-.246.451.05.143.394.19.468.31.024.023 0 .07-.025.118-.025.048-.074.071-.098.095-.123-.071-.32-.119-.468-.19zm-.64 1.64c-.172-.048-.32-.119-.32-.214.024-.095.05-.19.098-.309.025-.047.05-.119.074-.166.025-.048.05-.12.074-.167.074-.19.148-.523.27-.57.124-.048.296.047.493.143.197.095.394.19.517.19.099-.024.197-.143.246-.286.025-.047.025-.095.025-.118.024-.048.024-.072.05-.12.024-.047.048-.118.073-.166-.074-.118-.419-.166-.443-.309 0-.047.05-.142.098-.166.197.024.714.238.739.404.024.143-.197.404-.271.547-.05.095-.172.475-.295.523-.099.047-.32-.048-.517-.143-.197-.095-.394-.214-.517-.166-.099.047-.148.19-.197.332-.05.143-.074.31-.123.404.074.12.394.12.492.238.025.071-.025.167-.074.214-.123-.024-.32-.047-.492-.095zm2.61-4.611c-.148-.119-.222-.214-.173-.309.025-.071.098-.119.148-.19l.098-.095c.025-.024.05-.071.099-.095.147-.12.295-.238.393-.38.05-.12.197-.167.247-.167.123 0 .246.143.369.31.123.142.246.308.394.356.049.023.123 0 .172-.024.025 0 .05-.024.074-.048l.05-.047.048-.048c.123-.095.222-.237.32-.309-.024-.142-.295-.309-.295-.451.05-.048.148-.12.197-.12.123.143.492.429.492.619 0 .047-.024.071-.049.119-.025.047-.074.07-.123.118-.099.072-.222.143-.296.214l-.073.072c-.025.047-.05.07-.074.095-.05.071-.123.119-.173.166-.073.048-.147.095-.196.095-.074 0-.124-.024-.222-.119l-.492-.475-.123-.119-.074-.071.074.071.098.095c-.074-.071-.222 0-.345.119a.737.737 0 00-.197.19c-.024.024-.049.071-.073.095l-.074.072c.024.142.32.261.369.404 0 .07-.098.166-.172.166-.123-.095-.296-.214-.419-.309zM4.28 8.75c-.172-.071-.27-.19-.27-.333.05-.19.246-.356.394-.546.024-.048.074-.095.098-.143.05-.047.074-.095.123-.143a.733.733 0 01.222-.19c.098-.023.27.12.418.262.148.142.32.285.443.309.074 0 .124 0 .173-.048a.411.411 0 00.147-.142c.099-.12.173-.262.247-.333-.05-.143-.345-.285-.345-.428 0-.048.074-.119.123-.143.172.095.616.428.59.595a.393.393 0 01-.048.118c0 .024-.025.048-.05.072l-.024.024-.025.023-.221.214a.33.33 0 00-.074.095c-.05.048-.074.095-.123.143-.074.095-.148.166-.222.19-.123.024-.295-.119-.468-.261-.172-.143-.344-.286-.467-.286-.05 0-.099.024-.148.072a2.376 2.376 0 01-.123.19c-.074.142-.148.285-.222.356.05.143.345.238.419.357 0 .071-.05.166-.123.19-.099-.048-.296-.119-.443-.214zm4.062-3.422c-.098-.12-.221-.262-.295-.428-.098-.143-.172-.262-.074-.357l.074-.071a.339.339 0 01.099-.071c.073-.048.147-.096.246-.143.074-.048.172-.095.246-.143l.221-.142c.099-.095.247-.12.296-.095.123.047.197.214.27.404.074.19.148.38.271.451.099.072.247.024.37-.047.073-.024.123-.072.197-.12.073-.023.147-.07.196-.094 0-.143-.221-.357-.172-.5.05-.023.172-.094.222-.07.098.166.369.546.32.712-.025.072-.123.143-.246.19a5.137 5.137 0 00-.345.143c-.05.048-.123.072-.197.12-.025 0-.05.023-.098.047a.19.19 0 00-.099.047c-.05.048-.148.071-.197.048-.074-.024-.098-.072-.172-.167-.123-.237-.246-.428-.345-.594v-.024c-.074-.095-.221-.047-.37.024-.171.095-.32.214-.442.285-.025.143.246.333.246.476a.297.297 0 01-.222.119zM6.99 6.398c-.099-.096-.247-.215-.419-.357-.123-.12-.222-.238-.123-.357.074-.071.148-.143.246-.214l.296-.214c.073-.047.172-.142.27-.214.099-.071.173-.119.246-.119.124.024.222.19.345.357.123.166.222.356.345.404.098.048.246-.024.369-.119a.318.318 0 00.098-.071.339.339 0 00.099-.071c.05-.048.098-.095.148-.12 0-.166-.271-.356-.222-.498.05-.048.123-.095.172-.095.074.047.197.19.296.332.049.072.098.143.123.214.024.072.05.119.024.167a.533.533 0 01-.246.213c-.098.048-.221.096-.27.143-.05.048-.148.119-.247.19a.517.517 0 01-.147.095c-.05.024-.099.048-.123.048-.148-.024-.271-.19-.394-.38s-.246-.38-.37-.404c-.098 0-.221.07-.344.19-.074.047-.123.118-.172.166a.666.666 0 01-.148.119c0 .142.295.309.32.451a.343.343 0 01-.172.143zm4.455-2.64c-.024-.118-.123-.308-.172-.45-.074-.143-.099-.286.024-.357.124-.072.296-.12.493-.167.197-.047.394-.071.541-.142.099-.072.247-.048.296 0 .123.071.147.261.172.451.025.19.05.38.148.5.074.07.221.07.369.023l.222-.071c.073-.024.147-.024.197-.048.049-.142-.099-.427-.025-.546.05-.024.172-.048.221-.024 0 .095.074.261.099.404.025.166.05.309 0 .38-.05.072-.148.095-.27.12-.075 0-.124.023-.198.023h-.197a2.395 2.395 0 01-.443.119H12.8c-.05 0-.074 0-.098-.024a.36.36 0 01-.123-.214c-.05-.261-.124-.475-.173-.665 0-.048-.024-.096-.024-.12 0 .024.024.072.024.096-.049-.095-.197-.095-.369-.048-.025.024-.074.024-.123.048-.025.024-.074.024-.123.047l-.222.072c-.049.118.148.38.123.523-.049.07-.172.095-.246.07zm-1.575.69a1.758 1.758 0 00-.296-.38c-.098-.143-.147-.285-.024-.38.024-.048.074-.072.123-.096l.147-.07c.124-.025.222-.072.345-.12.025-.023.099-.047.148-.071.049-.024.074-.024.098-.048.05-.023.074-.047.099-.047.098-.048.221-.071.27-.048.124.048.173.238.247.428.074.19.123.404.221.476.05.047.099.047.173.047.024 0 .049-.024.098-.024.05-.023.074-.023.123-.047.148-.048.295-.143.394-.167.025-.142-.172-.404-.099-.522a.596.596 0 01.197-.048c.124.143.345.642.222.784a.542.542 0 01-.123.072.469.469 0 00-.172.047 3.308 3.308 0 00-.32.071.425.425 0 00-.124.048c-.049.024-.123.048-.172.071-.098.048-.221.095-.295.072-.123-.048-.197-.238-.271-.452-.074-.214-.123-.428-.246-.475-.025-.024-.05-.024-.074-.024-.025 0-.074.024-.099.024-.049.023-.123.047-.196.095-.05.047-.124.071-.197.119-.05.023-.074.023-.099.047-.024 0-.05.024-.074.024-.049.119.173.356.173.499-.025.048-.123.095-.197.095zm5.021-1.402c0-.143-.049-.333-.073-.5-.025-.166 0-.285.123-.332a.75.75 0 01.246-.048h.295c.197.024.394.024.566 0 .124-.023.271.024.296.072.074.095.05.285.024.475-.024.19-.049.404.025.523.05.095.197.119.345.119.147.024.32 0 .443 0 .098-.12.024-.428.123-.523h.123c.05 0 .074.024.098.047-.024.19.025.642-.098.761-.05.048-.172.048-.295.048s-.271-.048-.37-.048h-.467a.285.285 0 01-.197-.071.497.497 0 01-.05-.238v-.713c-.024-.095-.172-.143-.344-.143s-.394.024-.517.024c-.099.119.025.404-.05.547-.049.047-.196.047-.246 0zm-1.723.261a2.815 2.815 0 00-.172-.475c-.05-.166-.05-.31.074-.38.05-.024.098-.024.148-.048.049 0 .123-.024.172-.024.123-.023.246-.023.37-.047.024-.024.048-.024.073-.024.05-.024.074-.024.098-.024.074 0 .148-.024.197-.024.123 0 .247 0 .296.024.098.072.123.262.123.476 0 .213 0 .427.074.57.024.024.049.024.074.048.024 0 .073.023.098.023.074.024.148 0 .222 0 .098-.023.172-.023.246-.047.024 0 .074-.024.098-.024h.099c.049-.143-.074-.452.049-.547a.28.28 0 01.197 0c.074.19.148.737 0 .832-.074.048-.197.048-.32.048h-.32c-.074 0-.197.024-.32.024s-.271.023-.32-.024c-.123-.072-.148-.285-.148-.5 0-.213 0-.451-.098-.522a.365.365 0 00-.173-.048h-.123c-.049 0-.074.024-.123.024-.148.048-.32.095-.418.095-.05.143.098.404.049.547a.242.242 0 01-.222.047zm3.84 2.59h-.049c-.074-.023-.098-.047-.098-.047 0-.023 0-.047.024-.095.099-.166.197-.332.296-.475.098-.119.197-.261.295-.404l.05-.048c.024-.047.073-.07.098-.095a.477.477 0 01.197-.047h.024c.074.024.099.024.148.071.025.024-.024.095-.049.119-.025.024-.05.071-.074.095-.025.024-.05.071-.074.095-.024.024-.024.048-.049.071-.025.048-.074.095-.098.143-.099.143-.222.285-.32.452l-.025.023c-.05.048-.074.072-.099.072 0 0-.024 0-.024.023-.025 0-.05.024-.074.024-.05.024-.074.024-.098.024zm-.64-.047h-.024c-.074 0-.099-.047-.099-.047s0-.048.025-.071a7.44 7.44 0 01.27-.476l.149-.237c.024-.048.049-.072.073-.12.025-.047.05-.07.074-.118a.189.189 0 01.099-.095c.049-.024.123-.072.197-.072.073 0 .098.024.172.072.025.024-.025.095-.05.142l-.295.428c-.123.19-.221.333-.295.476-.05.07-.074.07-.099.095h-.024s-.099.023-.173.023zm1.97.238c-.025 0-.074 0-.099-.024a.17.17 0 01-.098-.071c0-.024 0-.048.05-.071.098-.143.22-.262.368-.428.099-.119.222-.238.345-.38l.05-.048c.024-.024.073-.071.122-.071.025 0 .099-.024.173-.024h.049c.074.024.098.048.148.095 0 .024-.025.095-.074.119-.148.143-.271.261-.37.38-.073.071-.123.143-.196.214-.074.071-.124.143-.197.214-.074.048-.099.048-.123.071h-.025c0 .024-.05.024-.123.024zm-.64-.119h-.074c-.074-.024-.099-.047-.099-.071 0-.024 0-.048.025-.071.05-.048.074-.12.123-.167l.05-.071c.049-.048.073-.095.122-.143.025-.023.05-.047.05-.071l.369-.428a.547.547 0 01.123-.095c.025-.024.099-.047.172-.047h.05c.073.023.098.023.147.095a.393.393 0 01-.049.119c-.123.142-.246.261-.345.38l-.369.428c-.049.07-.074.07-.098.095h-.025a.365.365 0 01-.172.047zm1.92.476c-.05 0-.074 0-.123-.024-.074-.024-.074-.071-.074-.071s.025-.048.05-.072c.122-.119.245-.237.418-.38.123-.095.246-.214.394-.333l.049-.024a.558.558 0 00.123-.07c.024 0 .074-.025.123-.025.025 0 .074 0 .098.024.074.024.099.048.148.119 0 .024-.05.095-.074.119l-.221.166c-.074.048-.148.119-.222.167-.172.142-.32.261-.443.356-.074.048-.074.048-.098.048h-.148zm-.616-.19c-.049 0-.073 0-.098-.024a.17.17 0 01-.098-.072s0-.047.049-.07a6.24 6.24 0 01.394-.405c.073-.071.147-.143.197-.214.049-.047.098-.095.147-.119l.074-.071a.542.542 0 01.123-.071c.025 0 .074-.024.148-.024h.074c.049.024.074.024.098.047.025.024.025.024.05.072 0 .024-.025.071-.074.119-.123.095-.247.213-.394.332-.148.143-.296.262-.419.38-.074.048-.074.048-.123.072h-.024a.192.192 0 01-.124.047zm1.871.689c-.049 0-.123 0-.172-.048l-.074-.071V6.8c0-.024.025-.047.05-.071.172-.119.32-.238.467-.333l.443-.285.05-.024a.192.192 0 01.123-.047h.049c.074 0 .123 0 .147.023.074.048.099.072.124.12 0 .023-.05.07-.099.094-.172.095-.32.19-.468.262l-.049.023-.443.286c-.074.047-.098.047-.123.047h-.025c.025.048.025.048 0 .048zm-.59-.262c-.025 0-.099 0-.148-.047-.074-.024-.074-.072-.074-.095 0-.024.025-.048.05-.072.048-.023.073-.07.122-.095.05-.023.074-.071.123-.095.074-.047.123-.095.197-.166l.025-.024c.172-.119.32-.238.468-.333.049-.023.098-.047.123-.047h.098c.05 0 .099 0 .123.024.074.023.099.047.123.118 0 .024-.049.072-.073.095l-.444.286-.024.023c-.074.048-.148.096-.197.143-.099.071-.172.119-.222.166-.074.048-.098.048-.123.048h-.024c-.074.071-.099.071-.123.071zm1.723.903c-.025 0-.05 0-.074-.023-.05-.024-.074-.024-.123-.048-.05-.047-.074-.095-.074-.095 0-.024.025-.047.074-.071.172-.095.344-.19.517-.262.147-.071.295-.142.467-.214l.05-.023c.049-.024.098-.024.123-.024h.172s.025 0 .05.024c.073.047.073.07.098.142 0 .024-.074.072-.099.095l-.098.048c-.123.047-.27.119-.394.166a5.46 5.46 0 00-.517.262h-.025c-.073.023-.073.023-.123.023h-.024c.024 0 .024 0 0 0zm-.542-.332c-.05 0-.123-.024-.197-.048-.074-.047-.074-.095-.074-.095 0-.024.025-.047.074-.071.173-.12.345-.214.493-.31.024-.023.073-.047.098-.07a.517.517 0 00.148-.096c.074-.047.172-.095.246-.142.025-.024.074-.024.123-.048h.025c.073 0 .147 0 .197.048.073.047.073.071.123.142 0 .024-.05.072-.099.096-.074.023-.148.07-.246.118-.05.024-.074.048-.123.072-.05.023-.074.047-.123.07a3.74 3.74 0 00-.493.286c-.073.048-.098.048-.123.048h-.049c.025 0 0 0 0 0zM23.09 8.37h-.05c-.049 0-.147-.024-.196-.095-.05-.048-.05-.095-.05-.12 0-.023.025-.023.074-.047.173-.071.345-.142.542-.214.172-.047.32-.118.492-.166l.05-.024c.024 0 .049-.023.098-.023h.05c.073 0 .171.023.196.07.05.048.074.072.099.143 0 .024-.05.048-.124.072-.147.047-.295.095-.516.142-.173.048-.345.12-.542.19-.074.072-.099.072-.123.072zm-.517-.404h-.025a.334.334 0 01-.197-.072c-.049-.047-.049-.095-.049-.095 0-.023.025-.023.074-.047.172-.071.32-.167.517-.238.172-.071.345-.142.541-.214.05-.024.074-.024.124-.024h.024a.33.33 0 01.197.072c.05.047.074.071.099.142 0 .024-.074.072-.099.095-.172.072-.345.12-.492.19-.074.024-.173.072-.271.096a.926.926 0 00-.27.119c-.1-.024-.124-.024-.173-.024.025 0 .025 0 0 0zm1.01.855h-.075a.379.379 0 01-.197-.095c-.049-.047-.049-.095-.049-.119 0 0 .025-.023.074-.047.172-.071.37-.119.542-.166l.147-.048.123-.024c.099-.024.197-.047.271-.071h.123c.074.024.173.047.197.095.05.048.074.071.074.166 0 .024-.074.072-.123.072-.074.023-.148.023-.222.047l-.073-.024-.148.048c-.172.048-.37.095-.566.143-.025 0-.074.023-.099.023zm.467.452h-.074s-.05-.024-.074-.024a.33.33 0 01-.098-.071c-.05-.048-.05-.095-.025-.119 0 0 .025-.024.074-.047.172-.048.37-.096.566-.143.172-.048.345-.071.517-.119h.197a.19.19 0 01.099.048c.049.023.073.047.098.07.05.072.074.096.074.167 0 .024-.074.048-.123.072a3.944 3.944 0 00-.517.095l-.148.023-.148.024a4.154 4.154 0 00-.27.072h-.025c-.074-.048-.098-.048-.123-.048zm.443.475h-.098a.32.32 0 01-.173-.119c-.024-.023-.024-.07-.024-.095v-.023s.024-.024.073-.024c.197-.048.37-.071.567-.095.073-.024.147-.024.221-.024l.37-.071h.024c.025 0 .074 0 .099.024a.54.54 0 01.196.118c.05.072.05.095.05.167 0 .023-.05.047-.123.047-.173.024-.37.048-.517.048-.197.024-.394.047-.567.095-.049-.048-.073-.048-.098-.048zm.418.523c-.073 0-.098 0-.123-.024h-.024c-.025 0-.123-.07-.173-.142-.024-.071-.024-.095-.024-.119 0 0 .024-.024.074-.024l.566-.071c.172-.024.345-.024.517-.048h.074c.049 0 .074 0 .123.024s.147.071.172.119c.025.024.025.071.05.071v.095a.215.215 0 01-.148.048c-.148 0-.345 0-.542.024-.148 0-.345.023-.542.047zm.37.547c-.099 0-.123 0-.148-.024h-.025c-.024 0-.049-.024-.073-.047-.025-.024-.074-.048-.074-.095-.025-.072-.025-.12-.025-.12s.025-.023.074-.023c.172-.024.37-.024.566-.048.222 0 .394-.023.59-.023.05 0 .1 0 .149.023.024 0 .049.024.098.048.025 0 .025.024.05.047 0 0 .024.024.024.048.025.071.05.095.025.166 0 .024-.074.048-.124.048h-.541c-.148-.024-.345 0-.566 0zm1.452.618c-.024 0-.024 0 0 0h-.024c-.173-.024-.345-.024-.517-.048-.099 0-.197 0-.296-.023h-.32c-.074 0-.098-.024-.123-.024 0 0-.025 0-.025-.024-.024-.024-.098-.071-.147-.143-.025-.07-.025-.118 0-.118.024 0 .049-.024.098-.024h.591c.172 0 .345 0 .517.024l.05.023c.048 0 .098.024.147.048.05.024.123.071.148.142.024.072.049.096.024.167-.024-.024-.074 0-.123 0zm.296.642h-.05l-.517-.072c-.221-.023-.418-.047-.566-.047-.098-.024-.098-.024-.148-.048h-.024c-.025-.024-.123-.095-.148-.166-.024-.071 0-.119 0-.119s.025-.024.099-.024c.197 0 .369.024.566.024.197.024.394.024.59.048.05 0 .1.023.124.047a.411.411 0 01.147.143.392.392 0 01.025.166c-.025.048-.05.048-.098.048zm.246.641h-.099c-.074-.023-.147-.023-.221-.047l-.271-.048c-.197-.024-.37-.071-.566-.095-.074-.024-.074-.024-.099-.047 0 0-.024 0-.024-.024-.025-.024-.099-.095-.123-.167a.156.156 0 010-.118h.098c.172.023.345.023.542.047h.024c.05 0 .099.024.123.024.05 0 .099 0 .123.024.05 0 .074.023.123.023.05 0 .099.024.124.024h.049c.049 0 .098.024.123.048.05.047.123.095.148.166 0 .024.024.024.024.048v.047c0 .024 0 .048-.024.072-.025.023-.074.023-.074.023zm.197.69h-.074l-.099-.024c-.147-.048-.27-.071-.418-.119a3.943 3.943 0 00-.566-.119c-.074-.024-.099-.047-.123-.047 0 0-.025 0-.025-.024 0 0-.025-.024-.05-.071 0-.024-.024-.024-.024-.048s-.025-.024-.025-.048c-.024-.07 0-.095.025-.118h.099c.049 0 .098.023.147.023.05 0 .099.024.123.024h.025c.074.024.172.024.246.048.123.023.246.047.345.071.074.024.147.024.221.048.05 0 .099.023.123.047.05.024.123.095.123.166.025.072.025.12 0 .167-.024.024-.049.024-.073.024zm.172.689c-.025 0-.05 0-.099-.024-.172-.047-.344-.119-.492-.166l-.221-.072-.05-.023c-.098-.024-.172-.048-.27-.072h-.025c-.074-.023-.099-.047-.099-.047l-.024-.024c-.025-.024-.099-.095-.099-.19-.024-.071 0-.119.025-.119h.098c.099.024.197.048.271.071.099.024.197.048.271.072.197.047.345.095.492.142l.074.024c.05.024.074.048.123.071.025.024.099.12.123.167.025.071 0 .095-.024.166-.05.024-.074.024-.074.024zm.098.713c-.049 0-.073-.024-.098-.024a6.968 6.968 0 00-.492-.19l-.074-.024c-.148-.047-.32-.119-.468-.166a.265.265 0 01-.123-.071l-.025-.024c-.024-.024-.098-.12-.098-.19 0-.072.024-.095.024-.12h.074c.197.048.37.12.542.167a4.9 4.9 0 01.541.19c.05.024.074.048.124.072.049.07.098.142.098.19 0 .071 0 .119-.025.166.05 0 .025.024 0 .024zm.05.665c-.05 0-.074-.023-.099-.023-.148-.072-.27-.143-.418-.19l-.074-.024c-.197-.072-.37-.167-.542-.214h-.024c-.074-.024-.074-.048-.099-.072l-.024-.023a.347.347 0 01-.074-.19c0-.072.024-.095.049-.12h.025c.024 0 .049 0 .073.025.173.07.37.118.542.19.074.023.148.047.246.095.074.023.148.071.246.095l.05.024c.049.023.073.047.098.07.025.048.098.12.098.191v.095c0 .024-.024.048-.049.071h-.024zm.024.713c-.024 0-.074-.023-.098-.023h-.025l-.27-.143c-.05-.024-.124-.071-.198-.095-.172-.095-.344-.166-.516-.261-.074-.048-.099-.072-.099-.096 0 0 0-.023-.025-.023 0 0-.024-.024-.049-.072-.024-.047-.024-.07-.024-.118 0-.072.049-.12.049-.12h.024c.025 0 .025 0 .074.024.197.072.37.143.542.214.197.095.37.19.517.262a.186.186 0 01.098.095c.025.047.099.119.099.19 0 .071-.025.095-.05.166h-.049zm-.024.69c-.025 0-.074-.024-.123-.048a3.467 3.467 0 01-.444-.285 2.233 2.233 0 01-.246-.143l-.246-.142h-.024c-.074-.048-.074-.072-.099-.095v-.024a.254.254 0 01-.05-.214c0-.071.05-.095.05-.095h.025c.024 0 .049 0 .074.024l.073.047.443.214c.148.071.296.166.444.262l.049.023c.024.024.074.048.098.095.025.024.025.048.05.095a.208.208 0 01.024.12c-.025.07-.025.118-.098.166.024 0 0 0 0 0zm-.074.713a.192.192 0 01-.123-.048c-.123-.095-.271-.19-.443-.309-.173-.119-.345-.214-.493-.309-.074-.047-.074-.071-.098-.095 0 0 0-.024-.025-.024-.024-.023-.049-.118-.049-.214a.258.258 0 01.05-.095c.024 0 .048 0 .073.024.074.048.172.095.246.143.074.047.123.071.197.119l.05.023c.172.095.344.214.492.31.049.023.074.07.098.094.025.048.074.143.05.214.049.095.049.12-.025.167.024 0 0 0 0 0zm-.123.689c-.05 0-.099-.024-.099-.048-.147-.118-.27-.213-.418-.332a5.283 5.283 0 00-.443-.333l-.025-.024c-.074-.047-.074-.071-.074-.095v-.024c-.024-.023-.049-.118-.024-.214.024-.07.049-.095.073-.095.025 0 .05 0 .074.024.173.095.32.214.468.31.148.094.27.19.418.308l.05.024c.049.024.074.071.098.095.05.119.05.19.05.214a.574.574 0 01-.148.19c.024-.024.024 0 0 0zm-.148.69a.33.33 0 01-.123-.072c-.074-.071-.123-.119-.197-.166-.074-.048-.123-.12-.197-.167-.148-.119-.295-.261-.443-.356-.074-.072-.074-.072-.074-.095v-.024c-.025-.048-.05-.143-.025-.214.025-.071.05-.095.074-.095 0 0 .05 0 .074.047.148.095.296.214.443.333l.443.357c.025.023.074.071.074.119.025.047.05.142.05.213 0 .024-.025.072-.025.095-.025-.023-.05 0-.074.024zm-.222.641s-.049 0-.123-.071c-.123-.12-.246-.262-.369-.38l-.418-.405c-.05-.047-.05-.071-.074-.095v-.023c-.025-.024-.025-.143 0-.214.024-.072.074-.095.074-.095.024 0 .049 0 .073.047.148.119.296.238.444.38.123.095.246.214.369.357l.05.047c.024.024.048.072.073.12.025.047.05.142.025.213-.025.048-.05.095-.124.119zm-.246.69c-.024 0-.074-.048-.123-.072l-.344-.404c-.074-.071-.124-.143-.197-.214-.074-.071-.123-.143-.197-.214-.05-.071-.074-.095-.074-.119v-.024c-.025-.047-.025-.142 0-.213.024-.048.024-.072.05-.072l.024-.024c.024 0 .049 0 .074.048.147.143.295.285.393.404.124.119.247.262.394.428.025.024.05.071.074.119.025.071.025.166 0 .214 0 .07 0 .095-.074.142zm-.295.617c-.025 0-.099-.047-.099-.071-.098-.143-.197-.262-.32-.428l-.369-.428c-.05-.071-.05-.095-.05-.119v-.023c0-.024-.024-.143.026-.214.024-.072.073-.072.098-.072 0 0 .05.024.074.048.148.143.27.285.37.428l.024.024.295.356.05.048c.024.023.049.07.049.118a.325.325 0 010 .214c-.05.072-.074.095-.148.12zm-.345.642c-.024 0-.074-.048-.098-.095l-.296-.428c-.098-.143-.221-.309-.32-.452-.049-.07-.049-.095-.049-.118v-.024c0-.024 0-.143.025-.214.024-.048.074-.071.098-.071.025 0 .05.023.074.047.123.167.246.31.345.452.098.142.197.261.295.404l.025.047c.024.048.049.072.049.12 0 .047.025.142-.025.213-.024.048-.049.071-.123.119zm-.369.594s-.05 0-.098-.095c-.074-.143-.148-.261-.247-.452a.496.496 0 00-.098-.142c-.025-.024-.05-.071-.074-.095a2.077 2.077 0 00-.148-.238c-.049-.071-.049-.095-.049-.119v-.119c0-.023 0-.047.025-.047 0-.024.024-.048.024-.048.05-.047.074-.07.099-.07.024 0 .05.023.074.047l.049.07c.05.048.074.096.123.167.025.024.025.048.05.072.024.047.073.095.098.142.074.119.172.262.27.428l.025.048a.39.39 0 01.05.118v.095c0 .048-.025.072-.025.096-.05.095-.074.118-.148.142.025 0 0 0 0 0zm-.394.594c-.024 0-.074-.047-.098-.095a7.94 7.94 0 00-.222-.451c-.05-.095-.098-.167-.123-.262l-.074-.119-.074-.118c-.024-.072-.049-.096-.049-.12v-.023c0-.024 0-.143.074-.19.05-.048.098-.071.098-.071.025 0 .05.023.074.07.05.096.099.167.148.238.05.072.098.167.148.238.098.167.197.333.27.5 0 .023.025.047.025.07v.072a.551.551 0 01-.05.214c-.048 0-.073.024-.147.047zm-.468.523c-.024 0-.073-.071-.098-.095l-.05-.119-.049-.119c-.024-.047-.024-.07-.049-.118-.024-.048-.024-.072-.049-.12-.074-.19-.172-.356-.246-.522-.025-.071-.025-.095-.025-.119v-.024a.31.31 0 01.074-.19c.05-.047.099-.047.099-.047s.024.023.049.07c.098.167.172.334.27.5.05.071.074.143.124.238l.049.119.05.118.024.048a.255.255 0 01.024.119c0 .095-.024.166-.073.214-.025.023-.05.047-.124.047zm-.492.547c-.025 0-.05-.048-.074-.119-.074-.19-.123-.333-.172-.475a4.521 4.521 0 00-.197-.523c-.025-.095-.025-.119-.025-.143v-.024c0-.023 0-.047.025-.095a.33.33 0 01.074-.095c.05-.047.098-.047.098-.047s.025.024.05.071c.073.166.147.333.221.523.074.166.148.356.197.523a.292.292 0 01.025.142c0 .024 0 .048-.025.096 0 .047-.025.07-.05.095-.024.047-.073.07-.147.07zm-.492.475c-.025 0-.074-.071-.074-.119-.05-.166-.099-.356-.148-.499-.024-.095-.049-.166-.074-.261-.024-.048-.073-.214-.098-.262-.025-.07-.025-.095 0-.118v-.024c0-.024.025-.12.098-.19.05-.048.099-.048.099-.048s.024.024.05.071c.024.048.024.095.048.12.025.047.025.094.05.142.049.095.073.166.098.261.05.143.098.31.172.476l.025.047c0 .048.025.095 0 .143a.244.244 0 01-.099.19c-.049.047-.073.071-.147.071zm-.542.5c-.024 0-.074-.072-.074-.12-.024-.166-.074-.332-.098-.499-.05-.166-.074-.356-.148-.546-.024-.095 0-.12 0-.143v-.024c0-.047.05-.118.099-.166l.098-.048h.025s.024.024.049.072c.05.166.123.356.172.523.05.214.099.38.148.546v.143c0 .047-.05.143-.098.19-.074.048-.099.048-.173.071zm-.566.403c-.025 0-.05-.07-.05-.118 0-.095-.024-.167-.024-.262-.024-.095-.024-.166-.05-.261-.024-.19-.073-.38-.098-.547v-.143c0-.047.05-.118.124-.166.049-.024.073-.024.098-.024h.025s.024.048.049.072c.05.166.098.356.123.546.025.095.05.167.05.238v.047c.024.072.024.143.048.214v.19c-.024.048-.049.143-.098.19-.025.024-.05.024-.074.048-.074-.024-.098-.024-.123-.024zm-1.182.785h-.049a.25.25 0 01-.05-.143v-.523c0-.214-.024-.38-.024-.57v-.024c0-.071 0-.095.025-.119v-.024c.025-.023.074-.118.148-.142.049-.024.073-.024.098-.024h.025s.024.024.024.071c.025.19.05.357.05.547.024.166.024.333.024.5v.047c0 .047 0 .095-.024.142-.025.048-.074.143-.124.167-.049.071-.073.095-.123.095zm.567-.38c-.025 0-.05-.072-.05-.12 0-.166-.024-.356-.049-.522v-.024c0-.071-.024-.166-.024-.261 0-.096-.025-.167-.05-.286v-.166s0-.024.05-.071l.049-.048.049-.047c.025-.024.074-.024.098-.024h.025c0 .024.025.047.025.071.024.095.024.166.049.285.025.095.025.19.05.286.024.19.048.38.073.546 0 .048 0 .095-.025.143 0 .024-.024.047-.049.095-.024.024-.05.071-.074.071-.049.071-.074.071-.147.071.024 0 0 0 0 0zm-1.847.974h-.074c-.024-.024-.024-.071-.024-.143 0-.095.024-.166.024-.261l.025-.119v-.143c.025-.213.025-.404.05-.57v-.024c0-.071.024-.095.024-.119 0 0 0-.023.025-.023 0 0 .024-.024.049-.072.049-.047.074-.047.098-.07.025 0 .05-.025.074-.025h.05c.024.024.024.048.024.095v.57l-.025.262c0 .095 0 .167-.024.262v.071a.178.178 0 01-.05.119.876.876 0 01-.147.166c-.05.024-.074.024-.099.024zm.64-.285h-.049a.246.246 0 01-.05-.12c0-.094 0-.19.026-.26v-.832c0-.072.024-.095.024-.12 0 0 0-.023.025-.023.024-.024.074-.119.147-.143.025 0 .05-.023.074-.023h.05s.024.023.024.07c0 .191.025.381.025.548v.57c0 .048-.025.095-.025.119-.05.071-.098.142-.148.166-.073.048-.098.048-.123.048zm-2.018.76c-.025 0-.05 0-.099-.023-.024-.024-.024-.096 0-.143.05-.166.074-.333.123-.5.025-.094.05-.19.05-.284.024-.095.024-.167.049-.262v-.024c.024-.07.024-.095.05-.095 0 0 0-.023.024-.023a.517.517 0 01.172-.12h.05a.11.11 0 01.073.024s.025.048 0 .096c0 .095-.024.166-.05.285v.024a.819.819 0 01-.048.237c-.025.143-.05.31-.074.452v.047l-.025.048a.178.178 0 01-.049.119.343.343 0 01-.172.142c-.025-.023-.05 0-.074 0zm.69-.214c-.026 0-.05 0-.075-.023-.024-.024-.024-.095-.024-.143.024-.166.073-.333.098-.5.025-.165.05-.332.074-.546.025-.095.025-.095.05-.119 0 0 0-.023.024-.023.024-.024.074-.095.172-.12h.074c.025 0 .05 0 .074.025a.1.1 0 00.024.07v.025c-.024.166-.024.356-.049.546l-.074.57a.178.178 0 01-.049.12.343.343 0 01-.172.142c-.099-.024-.123-.024-.148-.024zm-2.069.5c-.049 0-.074 0-.123-.024-.024-.024 0-.095 0-.143l.025-.047c.049-.143.123-.286.172-.428.074-.19.123-.38.172-.523.025-.071.05-.095.074-.095l.025-.024s0-.024.074-.047c.049-.024.074-.048.123-.048h.024c.074 0 .099.024.099.024v.095c-.05.19-.099.38-.148.547-.024.07-.049.118-.049.19l-.025.047c-.024.048-.024.095-.049.143 0 .024-.024.047-.024.095l-.025.047a.516.516 0 01-.074.12c-.074.07-.148.118-.197.118-.05-.047-.074-.047-.074-.047zm.665-.12c-.025 0-.05 0-.099-.023-.024-.024-.024-.095 0-.143l.074-.237a.714.714 0 00.05-.19l.024-.048a7.9 7.9 0 00.148-.547c.024-.071.05-.095.05-.119 0 0 0-.023.024-.023.024-.024.098-.095.172-.095h.05a.11.11 0 01.073.023s.025.024 0 .095c-.025.19-.074.357-.123.547-.025.071-.05.167-.074.285-.024.095-.05.19-.074.262 0 .047-.024.071-.074.119-.024.047-.123.118-.172.118 0-.023-.024-.023-.05-.023zm-2.068.238c-.074 0-.098 0-.172-.047-.025-.024 0-.095.024-.143.074-.142.148-.285.247-.451.073-.143.172-.31.246-.5v-.023c.049-.072.049-.072.074-.095l.024-.024a.374.374 0 01.197-.071h.05c.024 0 .024 0 .049.023.024 0 .024.024.024.024 0 .024 0 .048-.024.095l-.099.262c-.024.023-.024.071-.05.095a1.244 1.244 0 00-.073.166c-.074.143-.148.31-.221.452l-.025.047a.189.189 0 01-.099.095c0 .024-.098.095-.172.095zm.665-.047c-.05 0-.074 0-.123-.048-.025-.023 0-.095.024-.142l.05-.095c.049-.143.123-.262.172-.38l.05-.12.048-.142c.025-.095.074-.166.099-.262.049-.095.049-.095.074-.118l.024-.024a.374.374 0 01.197-.071h.025c.074 0 .098.023.098.023v.095a7.156 7.156 0 01-.197.547c-.074.166-.147.357-.221.523-.025.047-.05.095-.074.119-.025.024-.05.047-.074.047-.05.024-.074.048-.098.048h-.074zm-2.117 0c-.05 0-.074 0-.099-.024-.024 0-.049-.024-.074-.047-.024-.024.025-.096.05-.143.098-.143.221-.31.295-.428.099-.142.197-.285.295-.475.05-.072.074-.072.099-.095 0 0 .025 0 .025-.024.024-.024.098-.048.172-.048h.024c.074 0 .099.048.099.048s0 .047-.025.071c-.074.143-.172.31-.27.476a.954.954 0 00-.124.213l-.123.262-.024.047a.189.189 0 01-.099.096.603.603 0 01-.221.07zm.714.047a.365.365 0 01-.173-.047c-.024-.024 0-.071.025-.143.074-.142.172-.285.27-.451.124-.19.198-.357.271-.5a.655.655 0 01.099-.118l.025-.024a.303.303 0 01.196-.071h.025c.074 0 .099.047.123.047 0 0 0 .048-.024.071-.074.19-.173.333-.247.5l-.049.095c-.024.047-.05.118-.098.166-.05.095-.099.166-.148.238a.189.189 0 01-.098.095c-.05.095-.124.142-.197.142zm-2.117-.261h-.05c-.074-.024-.098-.024-.147-.095 0-.024 0-.071.049-.119.123-.143.246-.261.345-.38.098-.12.221-.262.32-.38l.049-.048c.049-.048.074-.071.098-.071 0 0 .025 0 .025-.024.024 0 .074-.024.148-.024h.073c.074.024.099.048.099.071 0 .024 0 .048-.025.072-.049.047-.074.119-.123.166l-.05.071c-.048.072-.122.143-.171.238a8.492 8.492 0 00-.32.404l-.05.048c-.024.023-.073.07-.123.095-.024 0-.049.023-.098.023 0-.047-.025-.047-.05-.047zm.689.119h-.025c-.074-.024-.098-.024-.172-.072-.025-.023.025-.095.05-.118l.073-.095c.074-.096.172-.214.246-.31.123-.142.222-.308.345-.451.049-.071.074-.071.098-.095 0 0 .025 0 .025-.024 0 0 .05-.024.074-.024h.123a.272.272 0 01.098.048c0 .024 0 .047-.024.095a5.362 5.362 0 01-.32.475c-.123.167-.222.31-.345.452-.025.047-.074.071-.098.095-.025 0-.099.024-.148.024zm-2.068-.5h-.074a.315.315 0 01-.148-.094c0-.024.025-.072.074-.12l.099-.094.098-.095c.074-.072.148-.12.197-.167.123-.119.246-.237.419-.38.024-.024.049-.048.074-.048h.024s.025 0 .025-.023c.024 0 .049-.024.098-.024.05 0 .074 0 .099.024a.17.17 0 01.098.07s0 .048-.05.072c-.147.167-.27.285-.393.404l-.197.19-.197.19-.049.048a.542.542 0 01-.123.071c.05-.023 0-.023-.074-.023zm.665.215h-.05a.315.315 0 01-.147-.096c0-.023.024-.095.074-.118l.369-.357c.074-.071.123-.142.197-.214.074-.071.123-.142.197-.214.074-.071.098-.071.123-.071h.024c.025 0 .074-.024.124-.024.024 0 .073 0 .098.024.05 0 .074.024.074.048l.024.023c0 .024 0 .048-.049.072-.074.095-.172.19-.246.285-.05.047-.074.095-.123.142-.123.143-.27.286-.394.428a.136.136 0 01-.123.072c-.05-.024-.123 0-.172 0zm-1.97-.761c-.049 0-.098 0-.123-.024-.074-.024-.098-.047-.123-.119 0-.023.05-.07.074-.095l.443-.285c.172-.119.345-.238.468-.333h.024c.074-.047.074-.047.124-.047h.073c.05 0 .123.024.173.047.074.024.074.072.074.095 0 .024-.025.048-.05.072-.147.142-.295.237-.443.356-.123.095-.27.214-.418.31l-.05.023a.416.416 0 01-.123.048c-.049-.048-.073-.048-.123-.048zm.616.285c-.025 0-.074 0-.099-.024-.074-.023-.098-.047-.147-.118 0-.024.049-.095.073-.12.124-.094.271-.19.419-.308.172-.143.32-.262.443-.357.074-.047.099-.047.123-.071h.123c.05 0 .099 0 .123.024.074.023.074.071.074.071s-.024.048-.05.071c-.122.12-.27.262-.418.38-.147.143-.32.262-.443.357-.049.024-.098.048-.123.071.025.024-.024.024-.098.024zm-1.773-.974c-.049 0-.147 0-.221-.048-.074-.047-.074-.071-.099-.142 0-.024.05-.072.099-.095.049-.024.074-.048.123-.048.05-.024.074-.048.123-.048.05-.023.074-.047.123-.07.05-.025.074-.048.123-.072.148-.071.296-.167.492-.285h.025c.074-.024.099-.024.123-.024h.05c.049 0 .122.024.196.047.074.048.074.095.074.095 0 .024-.024.048-.074.072-.172.119-.32.214-.492.309l-.222.142a.51.51 0 01-.123.072c-.049.023-.073.047-.123.07l-.049.025h-.148zm.542.356c-.074 0-.123 0-.148-.024-.074-.047-.098-.07-.123-.118 0-.024.05-.072.099-.095.147-.096.295-.167.467-.262.197-.119.345-.214.493-.309.074-.047.098-.047.123-.047h.049c.05 0 .123 0 .172.047l.074.071v.024s-.024.024-.05.072c-.122.095-.27.19-.418.285l-.049.047c-.172.12-.32.214-.492.31a.192.192 0 01-.123.047c-.025-.048-.05-.048-.074-.048zm-1.7-1.164s-.024 0 0 0c-.073 0-.172-.024-.221-.072a.303.303 0 01-.099-.142c0-.024.074-.072.099-.095.172-.048.344-.12.492-.19.074-.024.172-.072.27-.096.075-.023.173-.07.272-.118h.024c.074-.024.074-.024.099-.024h.049c.05 0 .148.024.197.071.05.048.05.095.05.095 0 .024-.025.024-.075.048a.926.926 0 01-.27.119l-.271.118c-.123.048-.222.095-.345.143l-.148.048-.049.023c0 .048-.049.072-.074.072zm.542.404a.506.506 0 01-.222-.048c-.073-.047-.073-.071-.098-.142 0-.024.074-.072.098-.096.173-.07.345-.142.493-.213.147-.072.32-.167.517-.238.098-.024.098-.024.147-.024h.025c.05 0 .148.024.197.071.05.048.074.095.074.095 0 .024-.025.048-.074.072a2.58 2.58 0 01-.517.261c-.197.095-.37.19-.517.262h-.123zm-1.55-1.379h-.05c-.074-.024-.172-.047-.197-.095-.05-.047-.074-.071-.074-.166 0-.024.074-.072.123-.072a4.92 4.92 0 00.517-.118c.172-.048.37-.096.566-.143h.197c.05 0 .148.047.197.095a.15.15 0 01.05.119s-.025.024-.074.047c-.173.072-.37.12-.542.167-.197.071-.345.095-.492.142l-.05.024h-.172zm.491.475h-.049c-.074 0-.172-.023-.197-.07l-.074-.072c0-.024-.024-.048-.024-.071 0-.024.049-.048.123-.072.172-.047.32-.095.517-.142a4.9 4.9 0 00.541-.19c.05-.024.074-.024.099-.024h.05c.048 0 .147.024.196.095a.15.15 0 01.05.119s-.025.023-.075.047c-.172.072-.344.143-.541.214-.099.024-.172.071-.27.095l-.124.048-.148.047c-.024-.024-.049-.024-.074-.024zm-.984-.998h-.074c-.025 0-.05-.024-.099-.024a.339.339 0 01-.098-.07c-.05-.072-.074-.096-.074-.167 0-.024.074-.048.123-.072.173-.023.345-.047.517-.095.197-.047.394-.07.566-.118h.148c.025 0 .05.023.099.047s.073.048.098.071c.05.048.05.095.025.12 0 0-.025.023-.074.047-.173.047-.37.095-.566.142-.173.048-.37.095-.567.12H7.04zm-.419-.546c-.024 0-.049 0-.098-.024a.54.54 0 01-.197-.119c-.05-.071-.05-.095-.05-.166 0-.024.05-.048.124-.048.172-.024.369-.047.517-.047l.295-.048a.74.74 0 00.222-.048h.246a.32.32 0 01.172.12c.05.094.05.142.05.166 0 0-.025.023-.075.023-.073.024-.123.024-.196.048-.025 0-.074.024-.099.024-.074.024-.172.024-.246.047h-.05l-.516.072H6.62zm-.394-.57c-.049 0-.073 0-.123-.025-.049-.023-.147-.07-.172-.118-.05-.072-.05-.096-.05-.167.025-.024.075-.047.148-.047h.542c.197-.024.394-.024.59-.048h.025c.074 0 .074 0 .099.024h.025c.024 0 .123.071.172.142a.308.308 0 01.024.12s-.024.023-.073.023c-.173.024-.37.048-.567.071l-.295.024c-.123-.024-.222 0-.345 0 .025 0 0 0 0 0zm-.344-.595c-.05 0-.099 0-.148-.024-.025 0-.05-.024-.098-.047-.025-.024-.074-.048-.074-.072-.025-.071-.05-.095-.025-.166 0-.024.074-.048.123-.048h.542c.172 0 .369 0 .59-.023h.025c.074 0 .099.023.123.023h.025c.025 0 .05.024.074.048.024.024.074.071.074.095a.308.308 0 01.024.119s-.024.024-.074.024c-.221.023-.393.047-.566.047-.172 0-.344.024-.517.024h-.098zm.246-.594c-.197 0-.394 0-.59-.024-.05 0-.1-.024-.149-.048-.049-.023-.123-.07-.147-.142-.025-.071-.05-.095-.025-.167 0-.023.05-.023.123-.023h.025c.172.023.344.023.517.047h.59c.099 0 .124.024.148.024h.025c.025.024.123.071.148.143.024.07.024.118 0 .118-.025 0-.05.024-.099.024h-.566v.048zm.27-.57c-.172 0-.344 0-.565-.024-.173 0-.32-.024-.493-.048h-.074a.192.192 0 01-.123-.048.417.417 0 01-.147-.142c-.05-.071-.074-.095-.05-.166 0-.024.05-.024.099-.024h.049l.517.071c.222.024.418.048.566.048h.025c.074 0 .098.023.123.023 0 0 .024 0 .024.024.025.024.124.095.148.166.025.072 0 .12 0 .12H6.4zm-.22-.595c-.025 0-.025 0 0 0-.198-.024-.37-.047-.567-.047h-.025c-.172-.024-.369-.048-.566-.095a.192.192 0 01-.123-.048c-.05-.048-.123-.095-.148-.166-.049-.024-.049-.048-.049-.072 0-.023 0-.047.025-.071.024-.024.049-.024.074-.024h.098c.074.024.148.024.222.048l.27.047c.197.024.37.072.567.095.073.024.098.024.123.048 0 0 .024 0 .024.024a.48.48 0 01.123.166c.025.071 0 .119 0 .119 0-.024-.024-.024-.049-.024zm-.222-.57h-.05c-.172-.024-.344-.048-.566-.095-.172-.024-.344-.072-.517-.095l-.049-.024a.192.192 0 01-.123-.048.897.897 0 01-.148-.166c-.024-.071-.024-.119 0-.166.025-.024.05-.024.074-.024h.074l.517.142c.172.048.345.072.566.12h.025c.074.023.098.023.123.047l.024.023a.5.5 0 01.123.167c.025.071 0 .119-.024.119h-.05zm-.173-.618h-.049c-.197-.048-.37-.072-.566-.12-.222-.047-.394-.118-.566-.165-.05-.024-.074-.048-.123-.072a1.008 1.008 0 01-.123-.166c-.025-.071 0-.095.024-.167 0 0 .025-.023.05-.023.024 0 .049 0 .098.023.172.048.344.12.492.167l.222.071.049.024c.074.024.172.047.27.071.1.024.1.048.124.072l.024.023c.025.024.099.095.099.19v.096c0 .023-.025.023-.025.023.025-.047.025-.047 0-.047zm-.147-.594h-.05a6.898 6.898 0 01-.541-.167c-.148-.047-.32-.095-.493-.166l-.049-.024c-.049-.024-.074-.048-.098-.071-.074-.072-.099-.143-.123-.19 0-.072 0-.12.024-.167h.05c.049 0 .073.024.098.024l.148.048c.123.047.246.095.344.142.173.071.345.119.542.19a.265.265 0 01.123.072l.025.023c.024.024.098.12.098.19 0 .072-.025.12-.025.12-.049-.048-.049-.024-.073-.024zm-.099-.642c-.024 0-.05 0-.074-.024a4.9 4.9 0 00-.541-.19l-.271-.119a2.441 2.441 0 01-.27-.119.339.339 0 01-.1-.071c-.024-.048-.073-.119-.073-.19v-.095c0-.024.024-.048.05-.072h.024c.049 0 .074.024.098.024.172.095.345.167.468.238.172.095.37.166.517.238.074.047.098.047.123.07 0 0 0 .025.025.025a.347.347 0 01.073.19c.025.047-.024.095-.049.095.025 0 .025 0 0 0zm-.05-.618c-.024 0-.024 0-.073-.024-.197-.071-.37-.143-.542-.214a8.605 8.605 0 00-.467-.214l-.05-.024a.189.189 0 01-.098-.095c-.025-.047-.098-.118-.098-.19 0-.071.024-.095.049-.166h.024c.05 0 .099.024.099.024l.221.119.124.07.123.072c.197.095.369.19.517.262h.024c.05.047.074.047.099.07 0 0 0 .025.024.025 0 0 .025.023.05.07a.208.208 0 01.024.12c0 .071-.024.095-.05.095zm-.024-.642c-.024 0-.049 0-.074-.024a.926.926 0 00-.27-.118l-.074-.048c-.05-.024-.123-.048-.173-.095-.147-.095-.32-.166-.516-.285a.189.189 0 01-.099-.095c-.025-.024-.025-.048-.05-.072v-.095c0-.071.025-.095.075-.166h.024c.025 0 .074.024.123.047.173.095.32.19.443.286l.124.07.123.072.246.143c.074.047.074.071.098.095 0 0 0 .024.025.024.025.023.05.119.05.19-.025.047-.05.071-.075.071zm.025-.618c-.025 0-.05 0-.074-.024l-.123-.07-.123-.072c-.05-.024-.074-.048-.123-.072-.05-.023-.074-.047-.123-.07-.173-.096-.296-.191-.443-.286l-.05-.024c-.049-.024-.073-.071-.098-.095-.025-.047-.074-.142-.05-.214 0-.071.025-.095.075-.166h.024c.05 0 .099.024.123.047.123.095.271.19.443.31.148.094.296.19.468.308h.025c.074.048.074.072.098.095 0 0 0 .024.025.024.024.024.049.119.049.19 0 .024 0 .024-.025.048-.073.047-.073.047-.098.071zm.05-.642c-.025 0-.05 0-.075-.023a4.971 4.971 0 01-.467-.31l-.074-.047c-.05-.047-.099-.071-.173-.119-.073-.047-.147-.119-.221-.166l-.099-.095c-.049-.119-.049-.19-.049-.214.025-.071.025-.095.074-.143h.025c.024 0 .073.024.123.048.123.119.27.214.418.333.173.118.32.237.468.332.074.048.074.072.098.095v.024c.025.024.05.119.025.214-.025.048-.074.071-.074.071zm.098-.594c-.025 0-.05 0-.074-.047a5.387 5.387 0 01-.443-.333 1.221 1.221 0 01-.197-.166c-.074-.048-.123-.12-.197-.167l-.05-.047c-.024-.024-.073-.072-.073-.095-.025-.048-.05-.143-.025-.214v-.048c0-.024 0-.024.025-.024.024-.023.024-.047.074-.07a.33.33 0 01.123.07c.073.072.123.12.197.167l.098.095c.025.024.074.047.099.095.172.142.32.261.443.356.049.048.073.072.073.095v.024c.025.048.05.143.025.214a.291.291 0 01-.098.095zm.123-.642c-.025 0-.05 0-.074-.047-.074-.048-.148-.119-.222-.19l-.074-.071a.648.648 0 00-.147-.12c-.123-.118-.271-.26-.419-.38a.516.516 0 01-.074-.118c-.024-.096-.049-.167-.024-.214a.303.303 0 01.098-.143s.05 0 .123.071c.123.12.247.262.37.38l.418.405c.05.071.074.095.074.119v.023s0 .024.025.095v.12c-.025.047-.074.07-.074.07zm.172-.594c-.025 0-.05 0-.074-.047-.074-.072-.148-.12-.197-.19l-.098-.095-.099-.096a2.487 2.487 0 01-.344-.38l-.05-.047a.516.516 0 01-.073-.12c-.025-.047-.025-.142 0-.213.024-.071.049-.095.098-.143.025 0 .074.024.123.072.123.142.222.261.345.404.024.047.074.07.098.095l.099.095c.074.071.123.142.197.214.049.047.049.071.049.095v.024c.024.023.024.142 0 .213-.025.096-.074.12-.074.12zm.197-.594s-.05-.024-.074-.047a2.858 2.858 0 01-.37-.428c-.073-.072-.122-.143-.196-.214l-.074-.071c-.05-.048-.074-.096-.123-.143a.178.178 0 01-.05-.119c-.024-.047-.024-.143 0-.214.025-.071.05-.095.124-.119.024 0 .098.048.098.072.099.118.197.261.32.427.099.143.222.286.37.428.049.072.049.095.073.12v.023c0 .047.025.142-.024.214-.025.047-.05.071-.074.071zm.246-.57c-.025 0-.05-.024-.074-.048a5.249 5.249 0 01-.344-.428 3.235 3.235 0 01-.296-.404l-.024-.047a.178.178 0 01-.05-.12c0-.047-.024-.142.025-.213.025-.071.05-.095.123-.119.025 0 .074.048.099.095l.147.214.148.214c.098.143.221.309.32.452v.023c.05.072.05.095.05.12v.023c0 .024 0 .143-.025.214-.05 0-.074.024-.099.024zm.296-.57c-.025 0-.05-.025-.074-.048-.05-.072-.123-.167-.173-.238l-.074-.119-.073-.119c-.099-.166-.197-.309-.296-.475-.024-.048-.049-.095-.049-.119v-.095c0-.047.025-.071.025-.095.049-.071.073-.095.123-.119 0 0 .049 0 .098.095.074.143.148.262.246.452l.074.119.074.119c.05.095.099.166.148.237.049.071.049.095.049.143v.119c0 .023 0 .047-.025.047 0 .024-.024.048-.024.048 0 .023-.025.047-.05.047zm.32-.547c-.025 0-.05-.024-.074-.072l-.074-.119-.074-.118c-.05-.072-.098-.167-.148-.238a2.679 2.679 0 01-.246-.452l-.025-.047c-.024-.048-.024-.095-.024-.12a.53.53 0 01.05-.213c.048-.071.073-.071.147-.095.024 0 .074.048.098.095.074.166.148.309.222.452.074.142.172.309.27.499v.024a.308.308 0 01.025.118v.024c0 .048 0 .143-.074.19l-.024.024c-.025 0-.025.024-.05.024v.024zm.344-.547c-.024 0-.05-.024-.074-.071l-.049-.072-.221-.428a9.151 9.151 0 01-.247-.522c-.024-.048-.024-.095-.024-.12 0-.094.024-.166.074-.213l.073-.071c.025 0 .05-.024.074-.024.025 0 .074.071.099.095.049.142.123.285.197.475.074.167.147.333.246.5a.308.308 0 01.024.118v.024a.31.31 0 01-.073.19c-.025.119-.074.119-.099.119zm.394-.5c-.025 0-.05-.023-.074-.07-.074-.167-.172-.357-.221-.5-.074-.166-.123-.309-.197-.475l-.025-.048c-.025-.047-.025-.095-.025-.142a.51.51 0 01.074-.19.315.315 0 01.148-.095c.025 0 .05.047.074.118.074.19.123.333.172.476.074.166.123.356.222.523v.024c.024.07.024.095.024.118v.024c0 .024 0 .048-.024.095-.025.048-.05.071-.074.095-.025.048-.074.048-.074.048zm.419-.475c-.025 0-.05-.023-.05-.07A1.133 1.133 0 018 8.892c-.025-.048-.025-.095-.05-.143-.024-.047-.024-.095-.049-.119l-.172-.546c0-.048-.025-.095 0-.143 0-.048.025-.143.098-.19.05-.048.074-.071.148-.071.025 0 .074.07.074.118.05.167.099.357.148.5l.024.047.074.214c.025.047.025.095.05.143.024.047.024.095.049.142.024.071.024.095.024.119v.024a.334.334 0 01-.098.19c-.123.047-.172.047-.172.047zm.443-.451l-.074-.071c-.05-.167-.123-.357-.173-.523-.049-.167-.098-.31-.123-.5l-.024-.047V7.49a.36.36 0 01.098-.19.227.227 0 01.173-.071c.024 0 .073.071.073.119.025.166.074.333.099.499.05.166.074.356.148.547v.023c.024.072 0 .095 0 .12v.023c0 .047-.05.119-.099.166-.025.024-.05.048-.098.048.024 0 .024 0 0 0zm.492-.428s-.025 0 0 0l-.074-.071a3.583 3.583 0 01-.123-.547 4.25 4.25 0 01-.098-.547V7.04c.024-.048.049-.143.098-.19.05-.048.098-.048.172-.048.025 0 .05.071.05.119 0 .071.024.166.024.261 0 .048.025.12.025.167 0 .024 0 .047.024.071.025.19.074.38.099.547v.166c0 .048-.05.119-.123.166-.025.024-.05.048-.074.048zm.492-.404H9.55c0-.024-.025-.048-.025-.071L9.5 7.776c-.024-.143-.049-.31-.073-.452l-.074-.5v-.07c0-.048 0-.095.024-.12 0-.023.025-.047.05-.094.024-.024.049-.072.073-.072.05-.047.099-.047.148-.047h.025c.024 0 .049.071.049.119 0 .166.025.332.05.523.024.19.048.38.073.546v.167c0 .047-.074.118-.123.166h-.148zm1.108-.69h-.05s-.024-.023-.024-.07c-.024-.215-.024-.38-.024-.547V6.04c0-.048.024-.096.024-.12.05-.07.099-.142.148-.166.05-.023.074-.023.123-.023h.05a.247.247 0 01.048.118c0 .167-.024.333-.024.523v.594c0 .072-.025.096-.025.12v.023c-.024.024-.074.119-.148.143-.049-.024-.073 0-.098 0zm-.566.31h-.025s-.024-.024-.024-.072l-.025-.285V7.11c0-.047 0-.119-.025-.19-.024-.19-.024-.38-.024-.57 0-.048 0-.096.024-.143.025-.048.074-.143.123-.166.05-.024.099-.048.124-.048h.049a.252.252 0 01.049.119v.523c0 .214.025.38.025.57 0 .095 0 .119-.025.143v.024a.45.45 0 01-.148.166c-.024 0-.024.024-.049.024h-.05zm1.723-.88c-.025 0-.05 0-.05-.023 0 0-.024-.024-.024-.096 0-.213.025-.404.05-.546v-.048c.024-.142.024-.309.049-.451V5.47c0-.047.024-.095.049-.119 0 0 .024-.047.074-.071.024-.024.074-.048.098-.071.05-.024.074-.024.099-.024.024 0 .049 0 .074.024.024.023.024.095.024.142-.024.167-.074.333-.098.5l-.025.142-.025.143c-.024.095-.024.19-.024.285-.025.071-.025.095-.05.119 0 0 0 .023-.024.023 0 0-.025.024-.05.072a.542.542 0 01-.122.071c.024-.047 0-.024-.025-.024zm-.566.262c-.025 0-.05 0-.05-.024-.024-.024-.024-.048-.024-.095v-.57c0-.167.025-.333.025-.547 0-.048.024-.095.049-.12a.45.45 0 01.148-.165c.049-.024.073-.024.098-.024h.074c.024.024.024.071.024.142 0 .095-.024.167-.024.262s-.025.166-.025.261c-.024.214-.024.404-.049.57 0 .096-.025.096-.025.12 0 0 0 .023-.024.023 0 0-.025.024-.05.072-.049.047-.073.047-.098.07 0 0-.025.025-.05.025zm1.821-.69c-.049 0-.073-.023-.073-.023 0-.024-.025-.048 0-.095.024-.19.073-.357.123-.547a.819.819 0 00.049-.238l.074-.237.024-.048c0-.047.025-.071.074-.119.025-.047.123-.119.173-.119h.073c.025 0 .05 0 .099.024.025.024.025.095 0 .143-.025.071-.05.119-.05.19l-.024.071-.074.214-.024.048c-.05.166-.099.332-.148.546v.048c-.025.024-.025.047-.025.071 0 0 0 .024-.024.024l-.025.024c-.025.023-.098.095-.172.095-.025-.072-.05-.072-.05-.072zm-.615.19h-.074c0-.023-.024-.047 0-.094l.074-.5v-.047c.025-.19.074-.38.099-.547 0-.047.024-.071.049-.119a.343.343 0 01.172-.142c.05 0 .074-.024.099-.024a.19.19 0 01.098.024c.025.024.025.095.025.142-.05.167-.074.333-.123.5-.025.095-.05.19-.05.285l-.024.095c0 .071-.025.119-.025.19-.025.095-.025.095-.05.119 0 0 0 .024-.024.024a.517.517 0 01-.172.118c-.05-.023-.05-.023-.074-.023zm1.896-.475c-.074 0-.099-.024-.099-.024V5.85c.05-.142.123-.332.172-.522a6.6 6.6 0 01.197-.476l.025-.047a.516.516 0 01.074-.12l.074-.07c.049-.024.073-.024.098-.048h.05c.049 0 .073 0 .122.047.025.024 0 .096-.024.143-.074.143-.148.31-.222.475-.049.096-.074.19-.098.262l-.099.261v.024c-.024.071-.049.071-.074.095l-.024.024s-.025.024-.074.047c0 .024-.05.024-.098.024.024 0 0 0 0 0zm-.616.12c-.074 0-.098-.025-.098-.025V5.97c.049-.19.098-.356.147-.546a6.33 6.33 0 01.173-.523.516.516 0 01.074-.12c.073-.07.147-.118.196-.118h.05c.049 0 .074 0 .123.024.024.024 0 .095 0 .142-.025.048-.025.072-.05.12-.024.047-.024.07-.049.118l-.049.119-.05.143c-.073.19-.122.38-.171.522-.025.072-.05.095-.074.12 0 0 0 .023-.025.023 0 0-.025.024-.074.048a.192.192 0 01-.123.047zm1.945-.239c-.099 0-.123-.047-.123-.047s0-.048.024-.071c.074-.167.173-.333.247-.5.073-.142.147-.285.246-.451l.024-.048a.189.189 0 01.099-.095c.049-.024.123-.071.197-.071.074 0 .123.024.172.047 0 .024 0 .072-.025.143-.098.143-.172.285-.27.452a4.791 4.791 0 00-.271.499v.024c-.05.07-.05.07-.074.095 0 0-.025 0-.025.023-.073-.023-.147 0-.221 0zm-.665.048c-.074 0-.098-.024-.123-.048 0-.023 0-.047.025-.07.024-.096.074-.167.098-.262l.025-.048a.83.83 0 01.098-.214c.074-.19.173-.356.246-.499a.33.33 0 01.074-.095c.025-.024.123-.095.197-.095.074 0 .099 0 .173.047.024.024 0 .096-.025.143-.074.143-.172.31-.246.452a4.345 4.345 0 00-.246.499c-.05.071-.05.095-.074.119 0 0-.025 0-.025.023-.024 0-.098.048-.197.048zM9.87 22.25v-.333h.493c.542 0 .935-.166 1.157-.499.148-.19.197-.665.197-1.354v-8.081c0-.785-.099-1.26-.27-1.474-.247-.262-.616-.404-1.109-.404h-.492v-.333h5.268c1.92 0 3.397.214 4.406.642 1.01.428 1.822 1.117 2.437 2.115.616.998.911 2.14.911 3.423 0 1.735-.541 3.185-1.649 4.35-1.23 1.306-3.102 1.948-5.613 1.948H9.87zm3.693-.903c.813.166 1.477.261 2.019.261 1.477 0 2.708-.499 3.668-1.497.984-1.022 1.452-2.377 1.452-4.088 0-1.711-.492-3.09-1.452-4.088-.96-.998-2.216-1.497-3.742-1.497-.566 0-1.23.095-1.945.261v10.648z"/></g></svg>