<svg viewBox="0 0 250 250" fill="none" xmlns="http://www.w3.org/2000/svg">
<g clip-path="url(#clip0_1488_170201)">
<path d="M124.498 250C193.256 250 248.996 194.036 248.996 125C248.996 55.964 193.256 0 124.498 0C55.74 0 0 55.964 0 125C0 194.036 55.74 250 124.498 250Z" fill="url(#paint0_linear_1488_170201)"/>
<path d="M112.808 1.27314C112.839 1.0529 112.945 0.849855 113.107 0.69725C113.268 0.544645 113.477 0.451524 113.699 0.433137C154.905 -2.98986 196.947 13.9351 223.921 49.0931C266.017 103.952 255.483 182.413 200.395 224.328C172.797 245.328 139.259 253.174 107.347 248.856C107.165 248.832 106.994 248.757 106.852 248.641C106.71 248.525 106.604 248.372 106.544 248.198C102.561 236.642 100.138 223.411 101.695 209.51C106.512 166.506 136.715 154.418 149.548 112.008C162.304 69.8961 107.711 37.6981 112.808 1.27314Z" fill="url(#paint1_linear_1488_170201)"/>
<path d="M112.925 0.499851C154.378 -3.20115 196.779 13.7149 223.922 49.0919C266.017 103.952 255.483 182.413 200.396 224.328C172.624 245.461 138.836 253.272 106.744 248.773C125.155 244.854 203.404 205.393 184.218 123.904C174.068 80.7808 106.936 37.2429 112.925 0.499851Z" fill="url(#paint2_linear_1488_170201)"/>
<path d="M150.057 3.05428C178.567 8.89328 205.173 24.5693 224.244 49.3403C266.276 103.947 255.759 182.045 200.754 223.766C173.024 244.801 256.38 184.264 213.535 112.635C198.796 87.9953 182.457 78.4923 164.18 47.7313C150.083 24.0113 143.693 1.75428 150.057 3.05428Z" fill="url(#paint3_linear_1488_170201)"/>
</g>
<defs>
<linearGradient id="paint0_linear_1488_170201" x1="124.498" y1="-3.39746e-06" x2="10.498" y2="199.748" gradientUnits="userSpaceOnUse">
<stop stop-color="#20175A"/>
<stop offset="1" stop-color="#3D347C"/>
</linearGradient>
<linearGradient id="paint1_linear_1488_170201" x1="175.467" y1="0.000137185" x2="175.467" y2="250" gradientUnits="userSpaceOnUse">
<stop stop-color="#F54D59"/>
<stop offset="1" stop-color="#6C4562"/>
</linearGradient>
<linearGradient id="paint2_linear_1488_170201" x1="178.23" y1="-0.000149363" x2="178.23" y2="250" gradientUnits="userSpaceOnUse">
<stop stop-color="#FF755B"/>
<stop offset="1" stop-color="#EE4B5D"/>
</linearGradient>
<linearGradient id="paint3_linear_1488_170201" x1="198.795" y1="3.00028" x2="198.795" y2="228" gradientUnits="userSpaceOnUse">
<stop stop-color="#FE927E"/>
<stop offset="1" stop-color="#EE4B5D"/>
</linearGradient>
<clipPath id="clip0_1488_170201">
<rect width="250" height="250" fill="white"/>
</clipPath>
</defs>
</svg>
