<svg height="32" viewBox="0 0 32 32" width="32" xmlns="http://www.w3.org/2000/svg"><g fill="none" fill-rule="evenodd"><circle cx="16" cy="16" fill="#5bc1d4" r="16"/><path d="m13.7846762 16.9276313c-.550322.5746484-1.1010606 1.1489319-1.6505029 1.7244469-.2958108.3098331-.5876398.6233606-.8854878.9313236-.0497262.0514032-.1208431.0826921-.182098.1233312-.1296863-.0207529-.228861-.1018486-.2466865-.2189767-.0274559-.1801164-.0519949-.3607345-.07408-.5415807-.0288912-.2367648-.1024619-.3035844-.3438239-.332684-.49703066-.0599323-.99336682-.125566-1.48988819-.1896034-.37808592-.048849-.75603295-.0987926-1.13402627-.1482345-.22580518-.0295557-.308034-.192112-.18913556-.3842697.27094768-.4379077.54471968-.8740822.81793607-1.310576.55657248-.8891793 1.11439506-1.7776289 1.66925445-2.6678117.067135-.1076867.1408909-.181804.282569-.1783832.0908869.0021894.1840426-.0199318.2733553-.0422354.1061659-.0264542.1884873.0060662.2630304.0758505.1313531.1230575.2636786.2450203.3941983.3688076.5029108.4768136 1.0048029.9547218 1.5079915 1.4312617.3252113.307963.6527839.6135543.9779026.9216085.1673283.1585882.1681154.2720675.0094915.4377253zm11.090914 2.3188812c.0934798.078724.1953861.15275.214971.2856138.0249557.1691699-.0429201.2925923-.1865891.3855467-.8507164.5504748-1.7000902 1.1029564-2.5501585 1.6544802-.5473588.3551244-1.0953195.7094279-1.642493 1.0648259-.0513931.0333414-.1022768.0685072-.1482527.1085533-.0850531.0742085-.1298715.1681665-.1253341.2822843.0081951.2047917.0207887.4094923.0231963.614284.0028243.2348492-.170523.381533-.4064216.3547595-.0906091-.0102624-.15742-.0579255-.2140449-.1231487-.19784-.2279163-.3953559-.4561519-.5925476-.6846156-.2471032-.2863436-.4925396-.5741011-.7414022-.8589851-.0859328-.0983822-.1511232-.201599-.1346404-.3936654.0104175-.360917.022687-.7782543.0344009-1.195546.0039818-.1406176.0863495-.2301057.198303-.3016688.4528604-.289217.9053968-.5790726 1.3583961-.868244.7602926-.4853428 1.5224834-.9679489 2.2800443-1.4575335.1603369-.1035817.3085433-.1344601.485363-.0442423.1296864.0661354.2769667.0780854.4173484.0335694.2114984-.0670932.3728077-.0076626.5358763.1359197.390587.344041.7955269.672392 1.1939848 1.0078126zm-7.2989474.9921682c.0586622.0591114.1107497.141621.1268621.2210291.037966.1862282-.0367159.3132995-.2123782.398044-.5850933.2823299-1.1690754.5671683-1.7589839.839327-.1065826.0491682-.2388154.0547783-.3601678.0603884-.4887892.0224861-.9779952.0355763-1.4669234.0552801-.288588.0116764-.5769908.0291908-.8430306.0429196-.0803769 0-.1382519-.0010946-.1960806.0002737-.0941279.0021893-.172375-.0323835-.2400656-.0949157-.0618568-.0571502-.125936-.1119741-.1869595-.1699453-.3440091-.3269826-.6821844-.6602139-1.0331848-.9798076-.1958954-.1783376-.198303-.41679-.0116213-.6087196.4213764-.4332098.8373358-.8714824 1.2544526-1.3086147.4514715-.4731192.902341-.94674 1.3520994-1.4214099.0835252-.0881653.1781624-.1397966.3042837-.1362846.1025545.0028735.1866816.0372183.2582152.1083709.5993536.5966783 1.1987073 1.1934023 1.798987 1.7891684.4047548.4017385.8130283.8000562 1.2144957 1.2048962zm2.4785464-8.0486079c-.1933952-.2983848.0244001-.7096559.3454907-.7630203.8584023-.1426245 1.7131005-.3069596 2.5704842-.4559239.1884411-.0327485.338592.054231.4426282.2096721.1804311.2695132.3573898.5412614.5356911.8120973.3754932.5704067.7524679 1.1398554 1.1245811 1.7124058.0499577.0768539.0751449.1693522.1118146.2545529-.0074544.0033296-.0148624.0065679-.0222704.0098519.0001852.1518834-.0668572.2812808-.1538086.3981352-.5242551.7044563-1.0540662 1.4048532-1.5770248 2.1102217-.1772828.239091-.6087526.2732077-.8063148-.0548696-.7651077-1.2704842-1.5384569-2.5361794-2.3087966-3.8036077-.0871366-.1433999-.1711711-.2887153-.2624747-.4295154zm-1.5049774 3.5315723c-.0505596.4449773-.0994061.8900915-.1501973 1.3350689-.0421793.3694917-.0865347.7387554-.1289455 1.1082016-.0498188.4336203-.0987579.8672862-.1476045 1.3009978-.0102323.0905371-.0114824.1826706-.0304191.2712464-.0091211.042646-.042133.0982909-.0784322.1122478-.0351417.0134551-.1000543-.0061118-.1317698-.0336607-.1416781-.1229206-.2769204-.2530934-.4130425-.3821259-.4891596-.4634496-.9769766-.9283588-1.4668771-1.3910787-.4258675-.402149-.8534018-.8025648-1.281214-1.2027069-.1414465-.1322708-.1425114-.174187-.0059727-.3168571.6532469-.6827 1.3061698-1.3656736 1.9583981-2.0492859.4462858-.4676914.8912753-.9365687 1.3368666-1.4048988.2187676-.2300144.4374889-.4600744.656349-.6900433.01852-.0193845.0345398-.0471157.0574583-.0550064.0472724-.0163286.1047307-.040183.1458914-.0262717.0340305.0115851.0507448.072977.0611623.0898985-.0359288.3142117-.0682925.596952-.1006099.8797836-.0429664.3770631-.0857013.7541263-.1288993 1.1311894-.0505596.4411004-.1019526.8821553-.1521418 1.3233014zm3.8057316 1.0195801c.0639403.1040379.073617.202192.0045374.3088752-.0792193.1224646-.1070456.2606192-.0928778.4042015.0123621.1252468-.0399569.2028305-.1467248.2705167-.8365023.5303148-1.66981 1.0656012-2.5041826 1.5991545-.2619192.1675278-.5236995.335375-.786591.5013977-.1045454.0660442-.2114058.0607077-.2681696-.0228966-.031623-.0465228-.0359752-.1110619-.0452815-.1426244.0391235-.2886697.0738486-.5481942.1094996-.8075819.0818121-.5939873.1639483-1.1879746.2461772-1.7819163.0899609-.6503621.1802922-1.3006785.2702068-1.9510406.0878312-.6353105.1751993-1.2707123.2628915-1.9061141.0326878-.2368104.0656998-.4736208.0989895-.7103856.0026391-.018746.0031021-.0411408.0137511-.0547328.0262058-.0333414.0544951-.082464.0881552-.0879373.0352343-.0057013.0913962.0222124.1144536.0529083.0616254.0820536.1108423.1732748.1643188.2612121.6516727 1.0719868 1.3032991 2.1439736 1.9547403 3.2160972.1722361.2835157.3425275.5681717.5161063.8508664zm-4.0525616-4.9034535c.0307432.0201143.0910258.0416881.122232.0840148.0489854.0665915.0060653.1285764-.0444943.1816216-.2269164.2380875-.452953.476996-.6801935.7148098-.6604697.6914573-1.3219581 1.3820023-1.9819185 2.0739156-.4144777.4344413-.8258534.8717105-1.2407941 1.3057869-.1491323.1559884-.2699754.1556235-.4252656.0083012-.4832796-.4584325-.9656794-.9177316-1.4498387-1.3752063-.4701767-.4442476-.9419738-.8868988-1.4136321-1.3296869-.0638477-.0598867-.1134813-.1256117-.10649-.2172434.0095378-.124882.0818584-.195624.224694-.220938.2616414-.046386.5234679-.0916773.7852019-.1373792.8384007-.1464101 1.6768477-.2924554 2.5151558-.4393672.9899869-.1735029 1.9798812-.3478267 2.9698681-.5217401.2313149-.0405935.4626761-.0809133.725475-.1268888zm-6.739046.6323322c.4654541-.3186815.9320193-.6358123 1.3983068-.9533991 1.5035467-1.0240044 3.0070934-2.04787197 4.5104549-3.0720588.1491786-.1016205.2446493-.08077644.3203961.08146059.3109046.66591529.6195405 1.33287961.9288709 1.99952471.0400495.0863409.0788489.1732748.1192225.2594789.0331509.0708333.011575.1281202-.031021.1901963-.0533376.0777661-.1016748.1610512-.1370943.2478938-.0339379.0831938-.0834326.1279835-.1738103.1439928-.6636181.117721-1.3266343.2388629-1.9899746.3582259-.7846927.1412106-1.5694779.2815089-2.3541706.422537-.8567355.1539815-1.7133321.3085559-2.5701602.4617164-.0352806.0062943-.072691.0007754-.1090828.0007754-.007408-.0139112-.0147697-.0278681-.0221777-.0417793.036577-.0330677.0698204-.0709246.1102403-.0985646zm-4.68968684 1.5261547c-.2944681-.0058838-.46962106-.2923186-.32859121-.5556288.11866694-.2216221.25122388-.4359465.37850263-.6530531.36831662-.6282409.73802224-1.2557064 1.10471836-1.8848139.06167162-.1057711.14353005-.1838109.25006638-.2451116.97572653-.5611476 1.94983258-1.12498629 2.92551278-1.68617955.0622272-.03575874.1313994-.0685984.2013125-.08077644.1447338-.02517707.266225.02791371.3542877.14472255.091674.12164356.0954243.25660544.0337527.38860262-.1467248.31398361-.2993296.62527622-.4511011.93693372-.2784946.5720029-.5597208 1.1427288-.8359467 1.7157809-.0636163.1319971-.1504288.2167417-.3003945.2559668-.26650293.0696931-.43730368.2484868-.51180041.5098357-.03773451.1324077-.11602784.2123175-.24876998.259114-.80233297.2826948-1.60272133.5706347-2.4042672.8553819-.05356911.0190653-.11139783.0264086-.16728195.0392252zm4.15271324-1.8267425c.002315-.040411.0169458-.0819623.0340305-.1194542.3485002-.7659851.6980653-1.5314684 1.0475841-2.29695167.2182583-.47799946.4386001-.95513232.654034-1.43436327.0495873-.11019529.1226025-.16520172.2465939-.16907863.3272485-.01035361.6543118-.02805054.981514-.0407759.6431072-.02499463 1.2862608-.04770873 1.9293217-.07325068.2270552-.00903091.4537864-.02431047.6807954-.03521142.1622352-.00779941.2728923.09099322.2736331.24962701.0072691.0964665-.0549118.16064066-.1345479.21487171-.2063128.14029831-.4123942.28087029-.6186608.42116861-1.23121.83759371-2.4626052 1.67500494-3.6937226 2.51273554-.3934575.2676888-.7864057.536153-1.1797244.8040243-.0285208.0194301-.0567638.0406391-.0881552.0541854-.0703297.0303767-.1370017-.012178-.1326958-.0875268zm-1.36331789 1.6519169c-.16339275.2623068-.32817451.5237925-.49203026.7858256-.6130585.9803094-1.22574661 1.9608469-1.83959221 2.9406089-.02791891.044516-.05931032.0920423-.10102663.1220541-.10551774.0759873-.24626978.0235351-.2967831-.1104233-.08051573-.2136859-.15575325-.4292873-.23237978-.6444327-.22344387-.6273743-.44670255-1.2548398-.66926672-1.8825334-.0163439-.046158-.02648361-.0945052-.03296561-.1179947.0013427-.1270256.04305901-.1805725.16246675-.2192047.35539892-.1149388.71144604-.2280988 1.06744686-.3413044.67162802-.2135034 1.34339494-.4265963 2.01516186-.6396892.08810893-.0279137.17649566-.0549152.26478979-.082236.06269022-.0193845.12588974-.0472526.17779206.0224405.04759641.0639005.008334.1155773-.02361301.1668893zm16.11760479 2.6083126c.0676444.3853187.1350109.7706373.2020533 1.1560928.0065283.0373095.0099545.0751663.0162976.1240609-.0108805.0494876-.0212054.1093287-.0371789.1676647-.0875533.3189552-.1767735.6374999-.2647435.9563638-.0758394.2752146-.2943292.3393888-.5144858.1536623-.4510084-.3804383-.9031281-.759554-1.3561274-1.1376661-.1031565-.0861129-.1464007-.1851336-.1226025-.3211445.0237056-.1355092.0193997-.2740287-.0455592-.4016473-.0626902-.1230119-.0419941-.2324318.0385679-.340529.369752-.4960612.7376056-.9935365 1.1061074-1.4904643.0750986-.1012556.1509381-.2019183.2253422-.30363.0746356-.1020766.1740417-.1527044.300163-.1246083.131029.0291908.1990437.1204121.2214993.2488973.0763024.4377708.1539012.8752681.2306666 1.3129477zm-7.5638112-7.94386759c-.0063894-.01382002-.0129177-.02754882-.0192608-.04141445-.0272707-.0600236-.0382902-.13062886.0220388-.1642439.0455592-.02540513.1191762-.02732077.1708933-.01099217.0870441.02754883.166819.07749247.2493256.11863327 1.1207845.55946006 2.2416152 1.1188745 3.3622608 1.67865384.1993679.099568.3975783.2013253.597085.3006197.0663942.0330221.1201949.0721104.1059345.1559428-.0141216.0831938-.0767192.1011644-.1505214.1143002-.8073334.1435823-1.6142037.2893539-2.4211667.4346238-.018983.0034208-.0377345.0077538-.0790341.0163286-.0234278-.0153708-.0677369-.0327485-.095054-.0644022-.1575126-.1825338-.3502596-.2938694-.5973165-.3031739-.0895442-.0033752-.1357516-.0571046-.1702914-.131906-.1420485-.3075069-.2871064-.61369111-.4295716-.92101557-.1825146-.3936654-.363594-.78796934-.5453215-1.18195402z" fill="#fff"/></g></svg>