<svg xmlns="http://www.w3.org/2000/svg" xmlns:xlink="http://www.w3.org/1999/xlink" width="32" height="32"><defs><circle id="a" cx="16" cy="16" r="16"/></defs><g fill="none" fill-rule="evenodd"><mask id="b" fill="#fff"><use xlink:href="#a"/></mask><use fill="#136485" xlink:href="#a"/><path fill="#FFF" d="M21.147 32a4486.308 4486.308 0 0 0-5.252-15.932l-.154-.003a21751.8 21751.8 0 0 0-5.37 15.123l3.146.812H4l.623-4.184c.14-.229.334-.58.356-.615 2.388-3.773 4.533-7.678 6.148-11.85 1.713-4.425 3.084-8.967 4.39-13.527.117-.407.256-.807.384-1.21.138.158.188.305.23.454.82 2.926 1.613 5.86 2.464 8.776 1.55 5.313 3.73 10.353 6.617 15.077.364.595 1.004 1.621 1.919 3.079l.121-.21L27.5 32h-6.353zM15.951.049L16 0l.075.049h-.124z" mask="url(#b)"/></g></svg>