<svg width="32" height="32" viewBox="0 0 32 32" version="1.1" xmlns="http://www.w3.org/2000/svg">
  <g stroke="none" fill-rule="evenodd">
      <path d="M10.435594,31.0058799 C12.2022475,26.0249423 13.9707163,21.0446486 15.741,16.065 L15.895,16.068 C17.5712982,21.1212754 19.2385997,26.1775307 20.8968965,31.2367416 C19.35354,31.7323642 17.7080249,32 16,32 C14.0432902,32 12.1686177,31.6487562 10.435594,31.0058799 Z M4.83252235,27.4580848 C1.85127822,24.5519872 0,20.4921882 0,16 C0,7.163444 7.163444,0 16,0 C24.836556,0 32,7.163444 32,16 C32,20.6092671 30.0509653,24.7633128 26.9320892,27.6829439 C26.1226502,26.3922856 25.5490225,25.4719022 25.212,24.921 C22.325,20.197 20.145,15.157 18.595,9.844 C17.744,6.928 16.951,3.994 16.131,1.068 C16.089,0.919 16.039,0.772 15.901,0.614 C15.773,1.017 15.634,1.417 15.517,1.824 C14.211,6.384 12.84,10.926 11.127,15.351 C9.512,19.523 7.367,23.428 4.979,27.201 C4.96732962,27.2195665 4.90725834,27.3270556 4.83252235,27.4580848 Z" id="Combined-Shape" fill="#136485" fill-rule="nonzero"></path>
  </g>
</svg>
