<svg xmlns="http://www.w3.org/2000/svg" width="32" height="32" viewBox="0 0 32 32">
  <g fill="none" fill-rule="evenodd">
    <circle cx="16" cy="16" r="16" fill="#2ED6A1"/>
    <path fill="#FFF" fill-rule="nonzero" d="M14.8560388,17.6191919 L19.2758825,17.6191919 C20.9208281,17.6191919 22.25432,16.2782169 22.25432,14.6240404 C22.25432,12.9698639 20.9208281,11.6288889 19.2758825,11.6288889 L17.8696325,11.6288889 L14.8560388,9 L19.2758825,9 C21.9505636,9.00059197 24.2506288,10.9050849 24.7644999,13.5446682 C25.2783709,16.1842516 23.8622625,18.8203474 21.3852575,19.8351515 L24.869945,22.8769697 L20.8790075,22.8769697 L14.8560388,17.6191919 Z M17.0132263,14.2591919 L12.5933825,14.2591919 C10.9484369,14.2591919 9.61494501,15.6001669 9.61494501,17.2543434 C9.61494501,18.9085199 10.9484369,20.2494949 12.5933825,20.2494949 L13.9996325,20.2494949 L17.01182,22.8783838 L12.5933825,22.8783838 C9.91870138,22.8777919 7.61863624,20.9732989 7.10476515,18.3337156 C6.59089407,15.6941323 8.00700253,13.0580364 10.4840075,12.0432323 L7.00213251,9 L10.99307,9 L17.0132263,14.2591919 Z"/>
  </g>
</svg>
