<svg height="32" viewBox="0 0 32 32" width="32" xmlns="http://www.w3.org/2000/svg"><g fill="none" fill-rule="evenodd"><circle cx="16" cy="16" fill="#666" r="16"/><path d="m25.082305 21.1494024c-.4189587.7126773-1.3469333.9568685-2.0726582.5454422l-4.7783062-2.709243v-1.7204701l1.5173193-.8602789 4.7783062 2.7090677c.7257249.411514.9742975 1.3228048.5553389 2.0354821zm-7.564997 3.6593625c0 .8229403-.6793128 1.4900399-1.5173193 1.4900399-.8379173 0-1.5173193-.6670996-1.5173193-1.4900399v-5.4182231l1.5173193-.8603665 1.5173193.8603665zm-8.52688822-3.1139203c-.7257249.4114263-1.65369953.1672351-2.07274742-.5454422-.41895864-.7126773-.17029678-1.6239681.55542812-2.0354821l4.77821702-2.7090677 1.5173193.8602789v1.7204701zm-1.5173193-8.8087649c-.7257249-.411514-.97438676-1.3228048-.55542812-2.0354821.41904789-.7126773 1.34702252-.95686852 2.07274742-.5454422l4.77821702 2.709243v1.7204701l-1.5173193.8602789zm7.00956892-5.69484464c0-.82294024.679402-1.49003984 1.5173193-1.49003984.8380065 0 1.5173193.6670996 1.5173193 1.49003984v5.41822314l-1.5173193.8602789-1.5173193-.8602789zm3.7486712 8.35333864.8032867.4554263-.8032867.4554263zm-1.5173193-1.6699841.8032867-.4554263v.9108526zm-2.2313519.4554263v-.9108526l.8032867.4554263zm-.7140326 2.1254104-.8032867-.4554263.8032867-.4554263zm1.5173193 1.6699841-.8032867.4554263v-.9108526zm2.2313519-.4554263v.9108526l-.8032867-.4554263zm-1.5173193.0505737-1.5173193-.8603666v-1.7204701l1.5173193-.8602789 1.5173193.8602789v1.7204701zm7.0096581-7.4154024c.7257249-.41142632 1.6536995-.1672351 2.0726582.5454422.4189586.7126773.170386 1.6239681-.5553389 2.0354821l-4.7783062 2.7090677-1.5173193-.8602789v-1.7204701zm1.8743356 8.2016175-4.4212899-2.5067729 4.4212899-2.5067729c1.067211-.6050438 1.432885-1.9451155.8166748-2.9932271-.6161209-1.04811155-1.9808157-1.40712351-3.0480267-.80199203l-4.4212899 2.50668523v-5.01345814c0-1.2101753-.9990209-2.19123506-2.2313519-2.19123506-1.2323311 0-2.2313519.98105976-2.2313519 2.19123506v5.01345814l-4.42120072-2.50668523c-1.06721099-.60513148-2.43199507-.24611952-3.04811596.80199203-.61621015 1.0481116-.25044694 2.3881833.81676405 2.9932271l4.42120063 2.5067729-4.42120063 2.5067729c-1.06721099.6050438-1.4329742 1.9452032-.81676405 2.9932271.61612089 1.0480239 1.98090497 1.4072112 3.04811596.801992l4.42120072-2.5066852v5.0134581c0 1.2101753.9990208 2.1912351 2.2313519 2.1912351 1.232331 0 2.2313519-.9810598 2.2313519-2.1912351v-5.0134581l4.4212899 2.5066852c1.067211.6052192 2.4319058.2460319 3.0480267-.801992.6162102-1.0480239.2505362-2.3881833-.8166748-2.9932271z" fill="#fff"/></g></svg>