<svg height="32" viewBox="0 0 32 32" width="32" xmlns="http://www.w3.org/2000/svg"><g fill="none" fill-rule="evenodd"><circle cx="16" cy="16" fill="#fec907" r="16"/><path d="m12.1610502 22.8163043c.6180889.0002086 1.1190356.4889844 1.1190355 1.0918478.0000001.6028634-.5009466 1.0916393-1.1190355 1.0918479h-1.453313c-.3203789 0-.6276303-.1241608-.85413608-.3451579-.2265058-.2209971-.35370381-.5207197-.35360106-.8332066v-15.67273946c-.00010279-.30473689.12396526-.59702133.34488885-.81250286.22092359-.21548152.52058979-.33649338.83302289-.33639312h1.5567337c.6182402 0 1.1194229.48883694 1.1194229 1.09184787 0 .28954133-.1179512.56721828-.3278949.77191949-.2099436.20470121-.4946742.3196508-.791528.31955058h-.3447357v13.6329863zm12.1703343-11.4526908c.7785605 1.3385526 1.1686155 2.8354043 1.1686155 4.4916884s-.3950904 3.1531357-1.1821725 4.4920661-1.6617038 2.3642851-3.0987484 3.2936781c-1.3192921.8534548-2.6982351 1.3581983-4.4068075 1.3581983h-.567071c-.6182402 0-1.1194228-.4888369-1.1194228-1.0918479 0-.6030109.5011826-1.0918478 1.1194228-1.0918478h.6894715c1.210836 0 2.0893311-.5005877 3.0758951-1.0691798.9865641-.568592 1.6187087-1.4991184 2.1912025-2.5029384.5722355-1.0031904.8583533-2.1240031.8583533-3.3624381-.0002582-1.2548065-.2905077-2.3841827-.8707483-3.3881286-.560611-.9834118-1.3811941-1.8023065-2.3763527-2.3714634-1.0039944-.57728146-2.1195439-.86592222-3.3466482-.86592222h-.2970925c-.6182402 0-1.1194229-.48883694-1.1194229-1.09184786 0-.28954133.1179512-.56721829.3278949-.77191949.2099436-.20470121.4946742-.3196508.791528-.31955058h.3486092c1.6919166 0 3.2221818.38057258 4.5907957 1.14171774 1.3493698.74265747 2.4640407 1.83209191 3.2226983 3.14973551z" fill="#fff" fill-rule="nonzero"/></g></svg>