<svg width="32" height="32" viewBox="0 0 32 32" fill="none" xmlns="http://www.w3.org/2000/svg">
<g clip-path="url(#clip0)">
<path d="M31.7442 16C31.7442 7.30473 24.6953 0.255814 16 0.255814C7.30474 0.255814 0.255829 7.30473 0.255829 16C0.255829 24.6953 7.30474 31.7442 16 31.7442C24.6953 31.7442 31.7442 24.6953 31.7442 16Z" fill="black" stroke="#FFB404"/>
<path d="M7.89248 16.2986C7.89248 16.2986 5.98746 17.6594 7.89248 18.8501C9.79755 20.0408 11.7197 21.796 11.0733 24.6876C11.0733 24.6876 14.3562 24.0211 13.6418 21.3675C12.9273 18.714 10.546 18.68 9.72955 17.8295C8.91304 16.979 9.69555 15.0059 9.69555 15.0059L7.89248 16.2986Z" fill="#FCC201"/>
<path d="M19.6866 10.9306C19.6866 10.9306 22.3644 14.5983 21.9436 16.6812C21.5229 18.7641 17.4331 17.7679 17.7669 22.2508C17.7669 22.2508 16.6454 20.3942 16.6454 16.9531C16.6454 13.5119 21.1473 15.8661 19.6866 10.9306Z" fill="#FFB404"/>
<path d="M12.6984 10.9306C12.6984 10.9306 10.0206 14.5983 10.4414 16.6812C10.8621 18.7641 14.952 17.7679 14.6181 22.2508C14.6181 22.2508 15.7396 20.3942 15.7396 16.9531C15.7396 13.5119 11.2377 15.8661 12.6984 10.9306Z" fill="#FFB404"/>
<path d="M16.1537 7.30814C14.3819 9.07986 12.3491 12.4792 13.7439 13.2955C14.5934 13.7941 15.3994 14.3631 16.1537 14.9965C16.9079 14.3631 17.714 13.7941 18.5633 13.2955C19.9583 12.4791 17.9254 9.07986 16.1537 7.30814Z" fill="#FCC201"/>
<path d="M24.5022 16.316C24.5022 16.316 26.4073 17.6768 24.5022 18.8675C22.597 20.0582 20.675 21.8133 21.3214 24.705C21.3214 24.705 18.0385 24.0385 18.7529 21.3849C19.4674 18.7314 21.8487 18.6973 22.6651 17.8469C23.4816 16.9964 22.6992 15.0233 22.6992 15.0233L24.5022 16.316Z" fill="#FCC201"/>
</g>
<defs>
<clipPath id="clip0">
<rect width="32" height="32" fill="white"/>
</clipPath>
</defs>
</svg>
