<svg width="32" height="32" viewBox="0 0 32 32" fill="none" xmlns="http://www.w3.org/2000/svg">
<path d="M16 32C24.8366 32 32 24.8366 32 16C32 7.16344 24.8366 0 16 0C7.16344 0 0 7.16344 0 16C0 24.8366 7.16344 32 16 32Z" fill="#FF00AF"/>
<path fill-rule="evenodd" clip-rule="evenodd" d="M16 3.96387C22.6533 3.96387 28.0361 9.34668 28.0361 16C28.0361 22.5864 22.7536 27.9358 16.2006 28.0361H16V17.9057L14.4621 19.4436L14.2615 23.2551L15.8663 28.0361C14.9301 28.0361 14.0274 27.9023 13.1247 27.6683L12.8907 27.6014L12.1217 25.2945L9.94851 26.3978C9.14611 25.9298 8.41057 25.3948 7.7419 24.7596L7.57473 24.5924L11.6202 22.553L11.7539 20.246L9.44701 20.3798L7.40756 24.4252C6.77232 23.7566 6.20395 23.021 5.73588 22.2521L5.60214 22.0515L6.70545 19.8783L4.39853 19.1093C4.1645 18.2066 4.03076 17.3039 3.99733 16.4012V16.1671L8.81177 17.772L12.6232 17.5713L14.1612 16.0334L12.6232 14.4955L8.81177 14.2949L3.9639 15.8662C3.9639 14.9301 4.09763 13.994 4.29823 13.1247L4.3651 12.8906L6.67202 12.1217L5.56871 9.94848C6.03678 9.14608 6.57172 8.41054 7.20696 7.74187L7.37413 7.5747L9.41358 11.6202L11.7205 11.7539L11.5868 9.44698L7.54129 7.40753C8.20997 6.77229 8.94551 6.20392 9.71448 5.73585L9.91508 5.60211L12.0883 6.70542L12.8572 4.3985C13.7599 4.16447 14.6627 4.03073 15.5654 3.9973H15.7994L14.1946 8.77831L14.3952 12.5897L15.9331 14.1277C16 14.0943 16 3.96387 16 3.96387ZM18.6747 7.03976V24.9936C22.5196 23.8234 25.3614 20.246 25.3614 16C25.3614 11.8208 22.5864 8.2768 18.8084 7.07319L18.6747 7.03976Z" fill="white"/>
</svg>
