<svg width="32" height="32" viewBox="0 0 32 32" fill="none" xmlns="http://www.w3.org/2000/svg">
<path fill-rule="evenodd" clip-rule="evenodd" d="M16 0C24.8444 0 32 7.15556 32 16C32 24.7556 24.9778 31.8667 16.2667 32H16V18.5333L13.9556 20.5778L13.6889 25.6444L15.8222 32C14.5778 32 13.3778 31.8222 12.1778 31.5111L11.8667 31.4222L10.8444 28.3556L7.95556 29.8222C6.88889 29.2 5.91111 28.4889 5.02222 27.6444L4.8 27.4222L10.1778 24.7111L10.3556 21.6444L7.28889 21.8222L4.57778 27.2C3.73333 26.3111 2.97778 25.3333 2.35556 24.3111L2.17778 24.0444L3.64444 21.1556L0.577778 20.1333C0.266667 18.9333 0.0888889 17.7333 0.0444444 16.5333V16.2222L6.44444 18.3556L11.5111 18.0889L13.5556 16.0444L11.5111 14L6.44444 13.7333L0 15.8222C0 14.5778 0.177778 13.3333 0.444444 12.1778L0.533333 11.8667L3.6 10.8444L2.13333 7.95556C2.75556 6.88889 3.46667 5.91111 4.31111 5.02222L4.53333 4.8L7.24444 10.1778L10.3111 10.3556L10.1333 7.28889L4.75556 4.57778C5.64444 3.73333 6.62222 2.97778 7.64444 2.35556L7.91111 2.17778L10.8 3.64444L11.8222 0.577778C13.0222 0.266667 14.2222 0.0888889 15.4222 0.0444444H15.7333L13.6 6.4L13.8667 11.4667L15.9111 13.5111C16 13.4667 16 0 16 0ZM19.5556 4.08889V27.9556C24.6667 26.4 28.4444 21.6444 28.4444 16C28.4444 10.4444 24.7556 5.73333 19.7333 4.13333L19.5556 4.08889Z" fill="#FF00AF"/>
</svg>
