<svg xmlns="http://www.w3.org/2000/svg" width="32" height="32" viewBox="0 0 32 32">
  <g fill="none" fill-rule="evenodd">
    <circle cx="16" cy="16" r="16" fill="#006AD2"/>
    <path fill="#FFF" fill-rule="nonzero" d="M19.1842643,10.3123543 L19.588329,6.52836053 L18.1386312,6.37140637 L17.7453621,10.035742 L16.5794349,9.81818182 L16.9711618,6.15695416 L15.521464,6 L15.142075,9.54778555 C12.6714198,9.0955711 10.4583173,8.7008547 10.4583173,8.7008547 L8.48734522,10.954157 C8.48734522,10.954157 16.446803,12.2191142 18.0353017,12.5532246 C19.6238003,12.8873349 20.7557984,14.951049 19.5651955,16.963481 C18.3745926,18.974359 16.2817842,20.8562549 12.4493384,20.5998446 L16.1090543,13.3006993 L12.659082,12.6511267 L8,21.5244755 C8,21.5244755 9.81674894,22.0730381 12.7778338,22.1305361 L12.4184938,25.4778555 L13.8681916,25.6348096 L14.2444961,22.1165501 C14.6300541,22.1025641 15.0294921,22.0792541 15.435099,22.04662 L15.0294921,25.8430458 L16.4791899,26 L16.9218104,21.8663559 C21.5114919,21.019425 23.8433462,16.8174048 23.9898582,14.8422688 C24.1487081,12.8127428 22.4368309,10.983683 19.1842643,10.3123543 Z"/>
  </g>
</svg>
