<svg height="32" viewBox="0 0 32 32" width="32" xmlns="http://www.w3.org/2000/svg"><g fill="none"><circle cx="16" cy="16" fill="#2c398f" r="16"/><path d="m25.0753001 19.0997283c.5259496-.0261351 1.0278171-.2294581 1.4246999-.5771927-.5514967 2.8167005-2.0910918 5.5872256-4.7336804 7.1110144-2.0221547 1.1774731-4.5498481 1.5699642-7.0086044 1.269824-.3676645-1.0620346-1.3327838-2.1933324-3.0102531-3.0475776-2.64258857-1.3621749-3.88345624-3.7171212-5.00942876-2.5627357-.10402716.0994673-.18961655.216732-.25276934.3463156-.04595807-.0923508-.09191613-.2077894-.13787419-.3232279-2.16002892-5.3563485 0-10.7357847 4.32005779-14.59143214 2.5736515-2.28568319 5.5839046-2.03171839 8.2724512-.7849821-.3265703.2636119-.513244.66430098-.5055387 1.08512232v5.40252392c-2.3090143-1.3448643-5.247568-.8128733-6.9441613 1.2571597-1.69659336 2.0700331-1.65258032 5.0697045.1040082 7.0885899 1.7565884 2.0188855 4.7094732 2.463614 6.9780273 1.050948.2791807.5958604.9326026.9171836 1.5722152.7731442.6396126-.1440395 1.0940163-.7148428 1.0933524-1.3734247v-13.92188851c2.0681128 1.45452567 3.722603 3.30154241 4.480911 4.57136641.3697035.6377902.6335849 1.3318053.7812871 2.0548061-.3253389-.2408291-.7037108-.3992297-1.1029935-.4617542-.8502241-.0461754-1.493637 1.10821-1.0570354 2.7705251.3676645 1.5007011-.0919161 2.8167005.735329 2.8628759zm-10.363543.0923509c-2.8953579-1.6623151-.4595806-5.9335413 2.4357773-4.2712262.8732032.4848419.9651193 2.0317184.8042661 3.0244899-.2987274 1.7084904-1.9072596 2.0086306-3.2400434 1.2467363zm1.3557628-11.03592497c-.6434128.0230877-1.1029935.80806981-1.0800144 1.15438545.022979.34631563.5055386.55410502 1.1719305.32322792.5974549-.20778938 1.1489516-.06926312 1.1259726-.41557876-.0229791-.34631563-.5974548-1.08512232-1.2178887-1.06203461z" fill="#fff"/></g></svg>