<svg width="32" height="32" viewBox="0 0 32 32" version="1.1" xmlns="http://www.w3.org/2000/svg" xmlns:xlink="http://www.w3.org/1999/xlink"><title>svg/color/dock</title><desc>Created with Sketch.</desc><g id="color/dock" stroke="none" stroke-width="1" fill="none" fill-rule="evenodd"><g id="Group" fill="#786DBC" fill-rule="nonzero"><circle id="Oval" cx="16" cy="16" r="16"/></g><g id="Dock-(DOCK)" transform="translate(7.000000, 5.000000)" fill="#FFF" fill-rule="nonzero"><path d="M8.93116279,5.77116279 L7.30232558,4.13767442 C6.84559894,3.70098415 6.82935624,2.97672664 7.26604651,2.52 C7.70273678,2.06327336 8.42699429,2.04703066 8.88372093,2.48372093 L8.92186047,2.52186047 L12.5581395,6.15813953 C13.0045662,6.60460142 13.0045662,7.32842184 12.5581395,7.77488372 L8.91813953,11.4111628 C8.46770272,11.8310678 7.76560879,11.8187568 7.3301702,11.3833182 C6.8947316,10.9478796 6.88242057,10.2457857 7.30232558,9.79534884 L9.00930233,8.08837209 C8.67597855,8.03079147 8.33825832,8.00246654 8,8.00372093 C4.85991456,8.01451081 2.32109188,10.564992 2.32468852,13.7050939 C2.32828515,16.8451958 4.87294374,19.3898544 8.01304566,19.393451 C11.1531476,19.3970477 13.7036287,16.858225 13.7144186,13.7181395 L13.7144186,1.14232558 C13.7320653,0.523873163 14.2385052,0.0316777028 14.8572093,0.0316777028 C15.4759134,0.0316777028 15.9823533,0.523873163 16,1.14232558 L16,13.8037209 C16,13.8260465 16,13.8483721 16,13.8706977 C15.9135815,18.2674735 12.294501,21.7701397 7.89724967,21.7128084 C3.49999839,21.655477 -0.026531909,18.0596463 0.00170979677,13.6621119 C0.0299515026,9.26457761 3.60237507,5.71433757 8,5.71348837 C8.31083588,5.71337607 8.62142271,5.73107952 8.93023256,5.76651163 L8.93116279,5.77116279 Z" id="Shape"/></g></g></svg>