<svg width="32" height="32" viewBox="0 0 32 32" fill="none" xmlns="http://www.w3.org/2000/svg">
<path d="M16 32C24.8366 32 32 24.8366 32 16C32 7.16344 24.8366 0 16 0C7.16344 0 0 7.16344 0 16C0 24.8366 7.16344 32 16 32Z" fill="#FFF706"/>
<path fill-rule="evenodd" clip-rule="evenodd" d="M14.2427 21.9455C14.1793 22.1203 14.092 22.2702 13.9809 22.395C13.8699 22.5199 13.7373 22.6187 13.5831 22.6913C13.429 22.7639 13.2635 22.8003 13.0867 22.8003C12.9099 22.8003 12.7445 22.7639 12.5903 22.6913C12.4362 22.6187 12.3036 22.5199 12.1926 22.395C12.0815 22.2702 11.9942 22.1203 11.9307 21.9455C11.8673 21.7707 11.8355 21.5834 11.8355 21.3836C11.8355 21.1837 11.8673 20.9964 11.9307 20.8217C11.9942 20.6468 12.0815 20.497 12.1926 20.3721C12.3036 20.2472 12.4362 20.1484 12.5903 20.0758C12.7445 20.0032 12.9099 19.9668 13.0867 19.9668C13.2635 19.9668 13.429 20.0032 13.5831 20.0758C13.7373 20.1484 13.8699 20.2472 13.9809 20.3721C14.092 20.497 14.1793 20.6468 14.2427 20.8217C14.3061 20.9964 14.3379 21.1837 14.3379 21.3836C14.3379 21.5834 14.3061 21.7707 14.2427 21.9455ZM15.3981 20.3987C15.2708 20.096 15.0968 19.8341 14.8763 19.6133C14.6558 19.3924 14.3955 19.2183 14.0954 19.0907C13.7953 18.9633 13.4724 18.8996 13.1268 18.8996C12.7814 18.8996 12.4573 18.9633 12.1551 19.0907C11.8526 19.2183 11.5911 19.3924 11.3707 19.6133C11.1502 19.8341 10.9762 20.096 10.8489 20.3987C10.7216 20.7015 10.658 21.0236 10.658 21.3652C10.658 21.7067 10.7216 22.0288 10.8489 22.3316C10.9762 22.6344 11.1502 22.8962 11.3707 23.117C11.5911 23.3379 11.8526 23.512 12.1551 23.6396C12.4573 23.767 12.7814 23.8307 13.1268 23.8307C13.4724 23.8307 13.7953 23.767 14.0954 23.6396C14.3955 23.512 14.6558 23.3379 14.8763 23.117C15.0968 22.8962 15.2708 22.6344 15.3981 22.3316C15.5254 22.0288 15.5891 21.7067 15.5891 21.3652C15.5891 21.0236 15.5254 20.7015 15.3981 20.3987Z" fill="black"/>
<path fill-rule="evenodd" clip-rule="evenodd" d="M8.84709 21.9358C8.78402 22.1095 8.6976 22.2598 8.58794 22.3866C8.4782 22.5134 8.34864 22.6132 8.19921 22.686C8.04981 22.7588 7.8911 22.7952 7.72291 22.7952H6.93144V19.9351H7.72291C7.8911 19.9351 8.04981 19.9727 8.19921 20.0478C8.34864 20.1231 8.4782 20.2251 8.58794 20.3543C8.6976 20.4834 8.78402 20.6361 8.84709 20.8122C8.91008 20.9882 8.94164 21.1774 8.94164 21.3792C8.94164 21.5765 8.91008 21.762 8.84709 21.9358ZM9.99575 20.4036C9.86725 20.1007 9.69219 19.8388 9.4705 19.6181C9.2486 19.3974 8.98713 19.2225 8.68598 19.0933C8.38483 18.9641 8.06375 18.8996 7.72291 18.8996H5.72684V23.8307H7.72291C8.06375 23.8307 8.38483 23.7674 8.68598 23.6405C8.98713 23.5137 9.2486 23.34 9.4705 23.1192C9.69219 22.8985 9.86725 22.6379 9.99575 22.3373C10.1241 22.0368 10.1883 21.7174 10.1883 21.3792C10.1883 21.0317 10.1241 20.7065 9.99575 20.4036Z" fill="black"/>
<path fill-rule="evenodd" clip-rule="evenodd" d="M24.9268 21.9455C24.8634 22.1203 24.7759 22.2702 24.6649 22.395C24.554 22.5199 24.4213 22.6187 24.2672 22.6913C24.1131 22.7639 23.9476 22.8003 23.7706 22.8003C23.5939 22.8003 23.4285 22.7639 23.2744 22.6913C23.1202 22.6187 22.9877 22.5199 22.8765 22.395C22.7655 22.2702 22.6782 22.1203 22.6147 21.9455C22.5513 21.7707 22.5196 21.5834 22.5196 21.3836C22.5196 21.1837 22.5513 20.9964 22.6147 20.8217C22.6782 20.6468 22.7655 20.497 22.8765 20.3721C22.9877 20.2472 23.1202 20.1484 23.2744 20.0758C23.4285 20.0032 23.5939 19.9668 23.7706 19.9668C23.9476 19.9668 24.1131 20.0032 24.2672 20.0758C24.4213 20.1484 24.554 20.2472 24.6649 20.3721C24.7759 20.497 24.8634 20.6468 24.9268 20.8217C24.9902 20.9964 25.0219 21.1837 25.0219 21.3836C25.0219 21.5834 24.9902 21.7707 24.9268 21.9455ZM26.0821 20.3987C25.955 20.096 25.7809 19.8341 25.5605 19.6133C25.34 19.3924 25.0797 19.2183 24.7794 19.0907C24.4794 18.9633 24.1566 18.8996 23.8108 18.8996C23.4655 18.8996 23.1414 18.9633 22.8391 19.0907C22.5367 19.2183 22.2753 19.3924 22.0548 19.6133C21.8342 19.8341 21.6603 20.096 21.533 20.3987C21.4056 20.7015 21.342 21.0236 21.342 21.3652C21.342 21.7067 21.4056 22.0288 21.533 22.3316C21.6603 22.6344 21.8342 22.8962 22.0548 23.117C22.2753 23.3379 22.5367 23.512 22.8391 23.6396C23.1414 23.767 23.4655 23.8307 23.8108 23.8307C24.1566 23.8307 24.4794 23.767 24.7794 23.6396C25.0797 23.512 25.34 23.3379 25.5605 23.117C25.7809 22.8962 25.955 22.6344 26.0821 22.3316C26.2094 22.0288 26.2731 21.7067 26.2731 21.3652C26.2731 21.0236 26.2094 20.7015 26.0821 20.3987Z" fill="black"/>
<path fill-rule="evenodd" clip-rule="evenodd" d="M19.5042 21.9746C19.442 22.149 19.3565 22.2998 19.2481 22.4271C19.1396 22.5543 19.0115 22.6545 18.8638 22.7275C18.7161 22.8006 18.5592 22.8371 18.3931 22.8371H17.6107V19.9668H18.3931C18.5592 19.9668 18.7161 20.0045 18.8638 20.0799C19.0115 20.1554 19.1396 20.2579 19.2481 20.3875C19.3565 20.517 19.442 20.6703 19.5042 20.847C19.5665 21.0237 19.5977 21.2135 19.5977 21.4161C19.5977 21.6141 19.5665 21.8003 19.5042 21.9746ZM20.6798 20.4036C20.5514 20.1007 20.3763 19.8388 20.1546 19.6181C19.9327 19.3974 19.6712 19.2225 19.37 19.0933C19.0689 18.9641 18.7479 18.8996 18.407 18.8996H16.4109V23.8307H18.407C18.7479 23.8307 19.0689 23.7674 19.37 23.6405C19.6712 23.5137 19.9327 23.34 20.1546 23.1192C20.3763 22.8985 20.5514 22.6379 20.6798 22.3373C20.8082 22.0368 20.8724 21.7174 20.8724 21.3792C20.8724 21.0317 20.8082 20.7065 20.6798 20.4036Z" fill="black"/>
<path fill-rule="evenodd" clip-rule="evenodd" d="M13.5491 13.2475C13.2511 13.2475 13.0095 13.5186 13.0095 13.8529V15.3399C13.0095 15.6743 13.2511 15.9453 13.5491 15.9453C13.8471 15.9453 14.0886 15.6743 14.0886 15.3399V13.8529C14.0886 13.5186 13.8471 13.2475 13.5491 13.2475Z" fill="black"/>
<path fill-rule="evenodd" clip-rule="evenodd" d="M17.8655 13.2475C17.5676 13.2475 17.326 13.5186 17.326 13.8529V15.3399C17.326 15.6743 17.5676 15.9453 17.8655 15.9453C18.1636 15.9453 18.4051 15.6743 18.4051 15.3399V13.8529C18.4051 13.5186 18.1636 13.2475 17.8655 13.2475Z" fill="black"/>
<path fill-rule="evenodd" clip-rule="evenodd" d="M17.7304 7.7404C17.8087 7.61739 17.8797 7.48088 17.9394 7.33325C18.0424 7.07866 18.0992 6.82452 18.113 6.59309C18.1691 6.1047 18.0512 5.70804 17.774 5.58986C17.5015 5.47369 17.1443 5.6557 16.8382 6.02281C16.8387 5.99847 16.8392 5.97412 16.8392 5.9495C16.8392 4.93159 16.3771 4.10626 15.807 4.10626C15.2369 4.10626 14.7747 4.93159 14.7747 5.9495C14.7747 6.02172 14.7773 6.09285 14.7818 6.16288C14.435 5.68698 13.9791 5.44314 13.6535 5.60026C13.2462 5.79685 13.197 6.54549 13.5435 7.27252C13.6016 7.39453 13.7319 7.60417 13.8026 7.70785C9.38202 8.4129 6.86549 11.9995 6.54868 17.886H9.0214C9.28214 13.04 11.5343 10.3028 15.603 10.3868C19.3393 10.4639 22.1947 12.9172 22.1563 17.886H24.6289C24.674 12.024 21.793 8.65144 17.7304 7.7404Z" fill="black"/>
</svg>
