<svg width="32" height="32" viewBox="0 0 32 32" fill="none" xmlns="http://www.w3.org/2000/svg">
<mask id="mask0" mask-type="alpha" maskUnits="userSpaceOnUse" x="0" y="0" width="32" height="32">
<path d="M0.196777 0.0834961H31.9193V31.9165H0.196777V0.0834961Z" fill="white"/>
</mask>
<g mask="url(#mask0)">
<path d="M31.9193 16C31.9193 24.7905 24.818 31.9165 16.058 31.9165C7.29807 31.9165 0.196777 24.7905 0.196777 16C0.196777 7.20953 7.29807 0.0834961 16.058 0.0834961C24.818 0.0834961 31.9193 7.20953 31.9193 16Z" fill="#8150E6"/>
</g>
<path d="M31.3265 20.3243L20.0342 9.17324L13.5994 7.96759L9.83337 22.1878L19.3358 31.5755C25.1171 30.3563 29.7394 25.9787 31.3265 20.3243Z" fill="#3C176B"/>
<path d="M14.6887 20.9413V12.1421H16.9049C17.6498 12.1421 18.3338 12.2369 18.9572 12.4267C19.5801 12.6165 20.1197 12.9117 20.5758 13.3122C20.6384 13.3671 20.6986 13.4249 20.7575 13.4845C20.7651 12.2918 20.3347 11.1032 19.7255 10.0283C19.0495 9.83643 18.3537 9.73871 17.6371 9.73871H12.2606V20.9303C13.0778 20.9396 13.8757 21.0063 14.6887 20.9413Z" fill="#6B42BD"/>
<path d="M23.9964 13.9025C23.611 12.968 23.097 12.1915 22.4548 11.5729C21.8122 10.9546 21.0736 10.4945 20.2386 10.192C20.069 10.1306 19.8978 10.0772 19.7255 10.0283C20.3347 11.1032 20.7651 12.2918 20.7575 13.4845C21.1273 13.8593 21.3635 15.3125 21.5854 15.8701L14.6887 22.1881V20.9413C13.8757 21.0063 13.0778 20.9396 12.2607 20.9302V24.5914H17.3481C18.1701 24.5914 19.0083 24.4406 19.8628 24.1381C20.7171 23.8361 21.4942 23.3792 22.1945 22.7678C22.8947 22.1564 23.4664 21.3836 23.9097 20.4487C24.3529 19.5142 24.5745 18.4074 24.5745 17.1283C24.5745 15.8633 24.3818 14.8373 23.9964 13.9025Z" fill="#9B74EC"/>
<path d="M14.0725 19.7813C14.8304 19.7813 15.5467 19.6865 16.2211 19.4967C16.8956 19.3069 17.4833 19.0118 17.9844 18.6113C18.4854 18.2107 18.8805 17.6909 19.1695 17.0511C19.4586 16.4118 19.6031 15.6353 19.6031 14.7215C19.6031 13.8223 19.4745 13.1228 19.2177 12.4761C18.9606 11.8297 18.6041 11.306 18.1482 10.9055C17.692 10.5049 17.1525 10.2097 16.5295 10.02C15.9062 9.83026 15.2221 9.73543 14.4771 9.73543H12.2611V19.7813H14.0725ZM9.83301 7.33203H15.2094C16.1085 7.33203 16.9757 7.48318 17.811 7.78526C18.6459 8.08768 19.3845 8.54781 20.027 9.16622C20.6694 9.78485 21.1833 10.5612 21.5687 11.4957C21.9541 12.4305 22.1468 13.4567 22.1468 14.7215C22.1468 16.0006 21.9252 17.1074 21.4819 18.042C21.0387 18.9769 20.4669 19.7496 19.7669 20.3611C19.0666 20.9725 18.2894 21.4293 17.4352 21.7314C16.5806 22.0338 15.7424 22.1847 14.9204 22.1847H9.83301V7.33203Z" fill="white"/>
</svg>
