<svg height="32" viewBox="0 0 32 32" width="32" xmlns="http://www.w3.org/2000/svg"><g fill="none" fill-rule="evenodd"><circle cx="16" cy="16" fill="#121747" r="16"/><g fill="#fff" fill-rule="nonzero"><path d="M18.032 22.87c0 1.145-.92 2.074-2.056 2.074s-2.055-.929-2.055-2.075V9.08c0-1.145.92-2.074 2.055-2.074s2.056.929 2.056 2.075zm-6.92.005a2.072 2.072 0 0 1-1.015 1.82 2.032 2.032 0 0 1-2.068 0 2.072 2.072 0 0 1-1.014-1.82v-3.1a2.072 2.072 0 0 1 1.014-1.82 2.032 2.032 0 0 1 2.068 0 2.072 2.072 0 0 1 1.014 1.82z"/><path d="M24.956 17.4c0 1.145-.92 2.074-2.056 2.074s-2.056-.93-2.056-2.075v-5.233c0-1.146.92-2.075 2.056-2.075s2.056.929 2.056 2.075z" opacity=".5"/></g></g></svg>