<svg height="32" viewBox="0 0 32 32" width="32" xmlns="http://www.w3.org/2000/svg"><g fill="none" fill-rule="evenodd"><circle cx="16" cy="16" fill="#121747" r="16"/><g fill="#fff" fill-rule="nonzero"><path d="m18.0316667 22.8691589c0 1.1458618-.9203036 2.0747663-2.0555556 2.0747663s-2.0555555-.9289045-2.0555555-2.0747663v-13.78934582c0-1.14586181.9203035-2.07476635 2.0555555-2.07476635s2.0555556.92890454 2.0555556 2.07476635zm-6.9205556.0061682c.0121839.7466528-.3754866 1.4419117-1.0141662 1.8188333-.6386795.3769216-1.42909919.3769216-2.06777872 0-.63867954-.3769216-1.02635008-1.0721805-1.01416618-1.8188333v-3.1009346c-.0121839-.7466527.37548664-1.4419117 1.01416618-1.8188332.63867953-.3769216 1.42909922-.3769216 2.06777872 0 .6386796.3769215 1.0263501 1.0721805 1.0141662 1.8188332z"/><path d="m24.9555556 17.3990654c0 1.1458618-.9203036 2.0747664-2.0555556 2.0747664s-2.0555556-.9289046-2.0555556-2.0747664v-5.2334579c0-1.1458618.9203036-2.0747664 2.0555556-2.0747664s2.0555556.9289046 2.0555556 2.0747664z" opacity=".5"/></g></g></svg>