<svg height="32" viewBox="0 0 32 32" width="32" xmlns="http://www.w3.org/2000/svg"><g fill="none" fill-rule="evenodd"><circle cx="16" cy="16" fill="#1693d4" fill-rule="nonzero" r="16"/><path d="M9.928 16.574a8.07 8.07 0 01-.005-1.08h-2.8L4 12.996h6.494A8.049 8.049 0 0117.954 8C22.398 8 26 11.582 26 16s-3.602 8-8.046 8a8.05 8.05 0 01-7.432-4.928H4l3.123-2.498zm12.609-.425c0-.83-.112-1.554-.337-2.172s-.537-1.136-.935-1.55c-.399-.415-.871-.728-1.418-.938s-1.14-.316-1.783-.316c-.694 0-1.34.118-1.938.354s-1.115.568-1.552.995c-.437.428-.78.944-1.031 1.55s-.376 1.28-.376 2.02c0 .752.125 1.425.376 2.018.25.593.597 1.094 1.04 1.502.444.409.968.724 1.572.948a5.688 5.688 0 001.986.335c1.735 0 3.06-.613 3.972-1.838l-1.543-1.224c-.257.37-.584.66-.983.87-.398.21-.887.316-1.465.316-.334 0-.656-.057-.964-.172s-.585-.271-.83-.469a2.262 2.262 0 01-.848-1.617h7.038c.013-.102.019-.204.019-.306zm-2.314-1.034H15.48c.052-.65.318-1.183.8-1.598.483-.414 1.07-.622 1.765-.622.372 0 .697.06.973.182s.505.284.685.488c.18.204.311.44.395.708a2.8 2.8 0 01.125.842z" fill="#fff"/></g></svg>