<svg height="32" viewBox="0 0 32 32" width="32" xmlns="http://www.w3.org/2000/svg"><g fill="none" fill-rule="evenodd"><circle cx="16" cy="16" fill="#1693d4" fill-rule="nonzero" r="16"/><path d="m9.92778895 16.5738397c-.01351104-.189532-.02038154-.3808881-.02038154-.5738397 0-.170068.00533749-.3388966.01585501-.5063291h-2.79980563l-3.12345679-2.4978903h6.494009c1.1946976-2.929595 4.084508-4.9957806 7.4596947-4.9957806 4.4438467 0 8.0462963 3.581722 8.0462963 8s-3.6024496 8-8.0462963 8c-3.3492012 0-6.2204712-2.034493-7.4318-4.92827h-6.5219037l3.12345679-2.4978903zm12.60924805-.4252633c0-.8292676-.112469-1.5532711-.3374104-2.1720323s-.5366413-1.135451-.935109-1.5500847c-.3984677-.4146338-.8708376-.7271992-1.4171239-.9377056s-1.1407655-.315758-1.7834553-.315758c-.694105 0-1.3399985.1180094-1.9377.3540317s-1.1150591.5677243-1.5520881.9951161c-.4370291.4273917-.780863.9440815-1.031512 1.5500847s-.3759716 1.2789757-.3759716 2.0189375c0 .7527198.1253226 1.4256923.3759716 2.0189375.250649.5932453.5976963 1.0939878 1.0411523 1.5022426.4434559.4082548.9672403.7240097 1.5713687.947274.6041284.2232644 1.2660889.3348949 1.9859015.3348949 1.7352625 0 3.0591836-.6123731 3.9718031-1.8371375l-1.5424478-1.2247583c-.2570759.3699809-.5848428.6602202-.9833105.8707266-.3984676.2105064-.8869046.315758-1.4653254.315758-.3341987 0-.6555388-.0574099-.9640299-.1722316s-.5848435-.2711044-.8290656-.4688528c-.2442222-.1977484-.4402396-.4337672-.5880583-.7080634-.1478186-.2742962-.2345804-.5772933-.260288-.9090003h7.037418c.0128538-.1020637.0192806-.2041259.0192806-.3061896zm-2.3136717-1.0333898h-4.7430269c.0514151-.6506561.3181274-1.1832931.8001448-1.5979269.4820173-.4146338 1.0700696-.6219476 1.7641746-.6219476.3727601 0 .6973136.0605995.9736702.1818001s.5045081.2838622.6844612.4879896c.1799532.2041274.3117026.4401462.3952523.7080634.0835496.2679172.1253238.5485882.1253238.8420214z" fill="#fff"/></g></svg>