<svg height="32" viewBox="0 0 32 32" width="32" xmlns="http://www.w3.org/2000/svg"><g fill="none" fill-rule="nonzero"><circle cx="16" cy="16" fill="#aa15dd" r="16"/><path d="m15.9990499 25.612237c.2405536.0010616.4353023.1991736.4363459.4438815 0 .245149-.1953587.4438815-.4363459.4438815s-.4363459-.1987325-.4363459-.4438815.1953587-.4438815.4363459-.4438815zm-8.78027029-14.2546055c-.20927151-.1232231-.28089528-.3955833-.16005701-.6086411.08861063-.1562351.26103472-.2427599.43682844-.2192066s.32031467.1525432.36613712.32679c.04582245.1742469-.01608349.359413-.15683583.4691098-.14075235.1096968-.33261404.1223072-.48607272.0319479zm0 9.2943749c.20901404-.1216112.47532839-.048906.59640291.1628212.12023055.2123686.0485262.4836743-.16018245.6060777-.20870864.1224034-.47544104.0495841-.59586129-.1626733-.12042026-.2122574-.04895836-.4836292.15964083-.6062256zm17.56054059-9.2943749c-.2090141.1216112-.4753284.0489059-.5964029-.1628212-.0892764-.1561207-.077135-.3516109.0307468-.49506.1078819-.1434492.2901853-.2065096.4616657-.1596946.1714804.0468151.2982509.1942544.321034.3733757.0227831.1791214-.0629235.3545279-.2170436.4442001zm-8.7802703-4.96992234c-.2380055-.00422974-.4287605-.20172876-.4287241-.44388151.000027-.18023299.1071829-.34255719.2711718-.41078246.1639889-.06822526.3522518-.02880582.4764236.09975601.1241717.12856183.1595988.32074078.0896527.48633376-.069946.16559298-.2313778.27172238-.408524.2685742zm7.8008738 14.19451674c-.2189603.3861498-.1246545.8774003.2210311 1.1513783l-7.1511185 4.2003984c-.0610255-.4410408-.4320065-.7690289-.8698337-.7690289s-.8088081.3279881-.8698336.7690289l-7.15302403-4.2003984c.3452394-.2740259.43935271-.7648668.22065106-1.1507891-.21870165-.3859222-.68341486-.5490442-1.08953197-.3824436v-8.4007969c.40546001.1656953.86899618.0030314 1.08779368-.3817282.21879751-.3847595.12632524-.8746185-.21700733-1.1495661l7.15111859-4.20039843c.0610255.44104079.4320064.76902889.8698336.76902889s.8088082-.3279881.8698337-.76902889l7.153024 4.19846013c-.3452394.2740258-.4393527.7648667-.2206511 1.150789.2187017.3859223.6834149.5490443 1.089532.3824436v8.3949819c-.4080424-.1661643-.8740444-.0007019-1.0918175.3876694zm-6.1126534-1.2870625c-1.6089062.9466126-3.6595341.5194112-4.7731287-.9943722l4.7178709-2.7640831 1.6081919-.9439751.7621762-.4496966.0438251-.0213218 3.2392491-1.9053953c.2000278-.1174499.2697348-.3768798.1562461-.5815042-.0546513-.0986951-.1461243-.1707946-.2537177-.1999817s-.2222114-.0129942-.3179145.0449139l-2.3818007 1.4053018c-.9267713-1.3772408-2.3974671-2.2753221-4.0281015-2.4597627v-2.72919286c0-.24300795-.1936525-.44000482-.432535-.44000482s-.432535.19699687-.432535.44000482v2.70399436c-.887438.0429175-1.7518577.3014711-2.5208979.7540171-.6893469.4036611-1.2868003.9513159-1.7530054 1.6068898l-2.1836349-1.2812475c-.1999457-.1172219-.4554476-.0473617-.57067946.156037-.11523187.2033987-.04655773.4633131.15338796.580535l2.166486 1.2734941c-.4634045.9269447-.6677267 1.9655285-.5906866 3.0024999l.2019767 1.1436248c.0891649.3100899.2032404.6121974.3410739.9032698l-2.11885 1.244419c-.20047187.1182924-.26871945.3795085-.15243524.5834425s.37306575.2733602.57353762.1550677l2.12647172-1.2463572c.9974745 1.4467389 2.5910618 2.3494177 4.3253502 2.4500709v2.5780018c0 .2430079.1936525.4400048.432535.4400048s.432535-.1969969.432535-.4400048v-2.5993236c.7767124-.0797772 1.5273741-.3290298 2.2007839-.7307569.7553947-.4478025 1.3948983-1.0724346 1.8654263-1.8220464l2.3360702 1.3684731c.2000895.1137113.4528595.0428685.567469-.159042.1146095-.2019106.0485641-.4600255-.1482721-.5794683l-2.3513137-1.3801032c.0057164-.0135684.0190544-.0290752.0190544-.044582.7145403-1.6437185-1.1966167-2.3492768-1.6215299-1.0835361-.2870879.8537857-.8694772 1.5723-1.6386789 2.0216962zm7.0920499 1.356843c.1003732.0588051.1736439.1557949.2036667.2695975s.0143338.2350788-.0436097.3371052c-.1205151.2122017-.38728.2848977-.5959339.1623978-.208654-.1224999-.2802371-.3938387-.1599117-.6061517s.3870253-.2852557.5957886-.1629488zm-12.4958795-4.0647141c-.0438251-1.6669786.1543407-2.829987 1.733951-3.7584553 1.3079913-.7682743 2.9451122-.642889 4.1252789.3159506z" fill="#fff"/></g></svg>