<svg width="32" height="32" viewBox="0 0 32 32" fill="none" xmlns="http://www.w3.org/2000/svg">
<path d="M0 16C0 7.16344 7.16344 0 16 0C24.8366 0 32 7.16344 32 16C32 24.8366 24.8366 32 16 32C7.16344 32 0 24.8366 0 16Z" fill="#486CDB"/>
<path d="M17.2382 8C12.6667 8 10.762 10.4415 10.762 13.7143V18.9524C10.762 22.2252 12.6667 24.6667 17.2382 24.6667H21.6667C25.8096 24.6667 26.0001 24.0417 26.0001 23C26.0001 21.8096 25.6191 21.3333 24.6667 21.3333H17.2382C14.9524 21.3333 13.8096 19.908 13.8096 18.4762V18H24.6667C25.4286 18 26.0001 17.375 26.0001 16.3333C26.0001 15.2917 25.4286 14.6667 24.6667 14.6667H13.8096V14.1905C13.8096 12.7586 14.9524 11.3333 17.2382 11.3333H24.6667C25.6191 11.3333 26.0001 10.8571 26.0001 9.66667C26.0001 8.62494 25.8096 8 21.6667 8H17.2382Z" fill="white"/>
<path d="M14.7618 24.6667C19.3333 24.6667 21.238 22.2252 21.238 18.9524V13.7143C21.238 10.4415 19.3333 8.00002 14.7618 8.00002H10.3333C6.19042 8.00002 5.99994 8.62496 5.99994 9.66669C5.99994 10.8571 6.38089 11.3334 7.33327 11.3334L14.7618 11.3334C17.0476 11.3334 18.1904 12.7587 18.1904 14.1905V14.6667L7.33327 14.6667C6.57137 14.6667 5.99994 15.2917 5.99994 16.3334C5.99994 17.375 6.57137 18 7.33327 18H18.1904V18.4762C18.1904 19.9081 17.0476 21.3334 14.7618 21.3334H7.33327C6.38089 21.3334 5.99994 21.8096 5.99994 23C5.99994 24.0417 6.19042 24.6667 10.3333 24.6667H14.7618Z" fill="white"/>
</svg>
