<svg height="32" width="32" xmlns="http://www.w3.org/2000/svg"><g fill="none"><circle cx="16" cy="16" fill="#0cf" r="16"/><g fill="#fff"><path d="m7.894 19.161h4.397l-1.893 3.839h-4.398zm2.505-5.08h4.398l-1.887 3.829h-4.4l1.89-3.83zm2.506-5.08h4.398l-1.889 3.83h-4.397l1.888-3.831z" fill-opacity=".4"/><path d="m12.277 19.16h4.398l-1.894 3.838h-4.398l1.894-3.839zm2.506-5.08h4.397l-1.888 3.828h-4.398zm2.505-5.08h4.398l-1.889 3.829h-4.397z" fill-opacity=".6"/><path d="m16.59 19.16h4.398l-1.893 3.838h-4.398l1.894-3.839zm2.506-5.08h4.398l-1.888 3.828h-4.398zm2.506-5.08h4.398l-1.889 3.829h-4.397z"/></g></g></svg>