<svg height="32" viewBox="0 0 32 32" width="32" xmlns="http://www.w3.org/2000/svg"><g fill="none"><circle cx="16" cy="16" fill="#624dbf" r="16"/><path d="M22.313 9c.494.057.994.088 1.482.176.967.183 1.283.643 1.119 1.576-.066.378-.31.611-.698.674a5.12 5.12 0 0 1-.698.05c-3.173.007-6.353.013-9.526.026-.48 0-.955.044-1.422.12-1.574.246-2.166.87-2.298 2.388-.06.713-.06.713.685.713h13.028c.205.006.402.044.573.15.58.354.435.908.402 1.419-.026.41-.283.636-.724.718a3.341 3.341 0 0 1-.56.038h-12.99c-.48 0-.473 0-.434.454.033.416.06.826.165 1.229.197.75.678 1.216 1.455 1.424.862.233 1.751.284 2.64.29 3.1.019 6.195.013 9.296.013.395 0 .763.05.994.397.448.668.099 1.6-.685 1.84-.671.208-1.376.258-2.074.265-2.91.05-5.82.057-8.73 0a15.91 15.91 0 0 1-2.672-.296c-2.074-.41-3.108-1.418-3.457-3.41-.079-.46-.125-.926-.184-1.387v-3.636c.04-.36.072-.718.119-1.071.276-2.257 1.33-3.366 3.647-3.857.823-.177 1.665-.215 2.495-.297C16.27 9 19.29 9 22.313 9z" fill="#fff"/></g></svg>