<?xml version="1.0" encoding="UTF-8"?>
<svg width="32px" height="32px" viewBox="0 0 32 32" version="1.1" xmlns="http://www.w3.org/2000/svg" xmlns:xlink="http://www.w3.org/1999/xlink">
    <!-- Generator: Sketch 53 (72520) - https://sketchapp.com -->
    <title>svg/color/eon</title>
    <desc>Created with Sketch.</desc>
    <g id="color/eon" stroke="none" stroke-width="1" fill="none" fill-rule="evenodd">
        <g id="Group" fill="#443F54" fill-rule="nonzero">
            <circle id="Oval" cx="16" cy="16" r="16"></circle>
        </g>
        <g id="eon" transform="translate(8.000000, 4.000000)" fill="#FEFFFE" fill-rule="nonzero">
            <path d="M7.50769231,22.7076923 C6.09230769,21.8461538 4.36923077,20.8 2.95384615,19.9384615 C2.33846154,19.5692308 1.66153846,19.2 1.04615385,18.7692308 C0.8,18.5846154 0.8,18.4 0.8,18.2769231 C1.41538462,15.3846154 2.09230769,12.2461538 2.76923077,9.41538462 C2.76923077,9.41538462 2.33846154,8.06153846 2.33846154,8.06153846 C2.33846154,8.06153846 0.861538462,15.1384615 0.123076923,18.2769231 C0,18.7076923 0.123076923,18.9538462 0.553846154,19.2 C2.95384615,20.6153846 7.81538462,23.6923077 7.81538462,23.6923077 L7.50769231,22.7076923 Z" id="Path" opacity="0.7"></path>
            <path d="M8.67692308,22.7076923 C10.0923077,21.8461538 11.8153846,20.8 13.2307692,19.9384615 C13.8461538,19.5692308 14.5230769,19.2 15.1384615,18.7692308 C15.3846154,18.5846154 15.3846154,18.4 15.3846154,18.2769231 C14.7692308,15.3846154 14.0923077,12.2461538 13.4153846,9.41538462 C13.4153846,9.41538462 13.9076923,8.12307692 13.9076923,8.12307692 C13.9076923,8.12307692 15.3846154,15.1384615 16.0615385,18.2769231 C16.1846154,18.7076923 16.0615385,18.9538462 15.6307692,19.2 C13.2307692,20.6153846 8.36923077,23.6923077 8.36923077,23.6923077 L8.67692308,22.7076923 Z" id="Path" opacity="0.7"></path>
            <path d="M13.3538462,8.18461538 L13.1076923,7.81538462 C11.6307692,7.81538462 4.61538462,7.81538462 3.13846154,7.81538462 L2.89230769,8.18461538 C2.89230769,8.18461538 3.07692308,8.67692308 3.01538462,8.49230769 C4.55384615,8.49230769 11.7538462,8.49230769 13.2923077,8.49230769 C13.1692308,8.61538462 13.3538462,8.18461538 13.3538462,8.18461538 Z" id="Path" opacity="0.7"></path>
            <path d="M13.6615385,7.63076923 C13.6615385,7.63076923 10.2769231,2.70769231 8.8,0.553846154 C8.49230769,0.184615385 8.30769231,0 8.12307692,0 C7.93846154,0 7.69230769,0.184615385 7.44615385,0.553846154 C5.96923077,2.64615385 2.58461538,7.63076923 2.58461538,7.63076923 C2.27692308,8.06153846 2.27692308,8.18461538 2.52307692,8.73846154 C2.52307692,8.73846154 4.92307692,15.3846154 5.90769231,18.3384615 C6.4,19.6923077 7.69230769,23.5692308 7.69230769,23.5692308 C7.75384615,23.6923077 8,23.7538462 8.12307692,23.7538462 C8.24615385,23.7538462 8.43076923,23.6923077 8.55384615,23.5692308 C8.55384615,23.5692308 9.90769231,19.6923077 10.3384615,18.3384615 C11.3230769,15.4461538 13.7230769,8.73846154 13.7230769,8.73846154 C13.9692308,8.18461538 13.9692308,8.06153846 13.6615385,7.63076923 Z M8.12307692,21.5384615 L8.12307692,21.5384615 L8.12307692,21.5384615 C6.64615385,17.3538462 3.44615385,8.12307692 3.44615385,8.12307692 C3.44615385,8.12307692 6.76923077,3.26153846 8.06153846,1.35384615 C8.06153846,1.35384615 8.06153846,1.35384615 8.06153846,1.35384615 C8.06153846,1.35384615 8.06153846,1.35384615 8.06153846,1.35384615 C9.35384615,3.26153846 12.6769231,8.12307692 12.6769231,8.12307692 C12.6769231,8.12307692 9.53846154,17.3538462 8.12307692,21.5384615 Z" id="Shape"></path>
        </g>
    </g>
</svg>