<svg height="32" viewBox="0 0 32 32" width="32" xmlns="http://www.w3.org/2000/svg"><g fill="none" fill-rule="nonzero"><circle cx="16" cy="16" fill="#f68922" r="16"/><path d="m16.7191076 10.0782274s-4.1258354.6057866-4.7275197 5.1924565c0 0-.6377854 5.134474 4.6080424 6.5199945.3634024.0956553.7374997.143936 1.113116.1436579h.2578647c.5342747-.0002295 1.0467448.2132963 1.4246146.5935802.3778699.3802838.5901685.8961568.5901684 1.4340741.0042835 1.0602848-.8064423 1.9434255-1.8566259 2.0224618-2.5786472.1730819-6.0400512-1.0921467-8.28605286-4.136657 0 0-4.39831247-6.3252774.39539256-12.13650156 1.1338301-1.38356916 2.6087543-2.44299026 4.2771161-3.0722034 1.9700864-.73732882 4.8555925-1.21157317 7.361178.75636782 0 0 3.3522413 2.59622823 1.6331432 6.83673434 0 0-1.2033687 3.3750967-5.3292041 3.6347195l-.5733192-.0320201c-.5484225-.0138741-1.0641094-.2657826-1.4143548-.6908998-.3502454-.4251173-.5008459-.9819283-.4130465-1.5271445.1461517-.9041394.9085237-1.5769879 1.8179463-1.6044691l.5827742-.0398088s1.9769628-.086541 1.805053-2.4231464c0 0-.1719098-2.07698255-3.2662864-1.471196" fill="#fff"/></g></svg>