<svg xmlns="http://www.w3.org/2000/svg" width="32" height="32" viewBox="0 0 32 32">
  <g fill="none">
    <circle cx="16" cy="16" r="16" fill="#23BEE2"/>
    <path fill="#FFF" d="M19.87871,13.4688456 L23.11777,10.0574713 C24.5116423,11.7218331 25.2739465,13.8240124 25.27069,15.9945027 C25.27069,21.112004 21.12006,25.2605597 16,25.2605597 C14.4374719,25.2628069 12.8999583,24.8684632 11.53158,24.1144928 L19.7697,19.8684158 L21.11247,19.1757621 L19.86947,18.3169815 L18.981,17.7030485 L21.57095,16.3808496 L22.85872,15.7232684 L21.70548,14.8510745 L19.87871,13.4688456 Z M12.12129,19.0034783 L9.10124,22.1837481 C7.62669,20.5429285 6.72931,18.3736032 6.72931,15.9945027 C6.72931,10.8770015 10.87994,6.72844578 16,6.72844578 C17.7348316,6.72599255 19.4352084,7.21245357 20.906,8.132004 L12.2303,12.604018 L10.88753,13.2966717 L12.13053,14.1554523 L13.019,14.7693853 L10.42905,16.091914 L9.14128,16.7494953 L10.29452,17.6216892 L12.12129,19.0034783 Z M8.53628,22.7786607 L7.91115,23.4369015 C6.10495,21.4773513 5,18.8626387 5,15.9945027 C5,9.93213393 9.9346,5 16,5 C18.49348,5 20.796,5.83404298 22.64279,7.23705147 L21.74079,7.70189905 C20.055892,6.53075787 18.0522719,5.90405934 16,5.90627686 C10.43455,5.90627686 5.90673,10.4318341 5.90673,15.9945027 C5.90673,18.6042679 6.903,20.986007 8.53628,22.7786607 Z M23.68427,9.46145927 L24.31182,8.80057971 C25.9858,10.7301149 27,13.2458771 27,15.9945027 C27,22.0568716 22.0654,26.9890055 16,26.9890055 C13.7648389,26.9914111 11.5825965,26.3093047 9.74705,25.0345127 L10.67105,24.5581209 C12.2688591,25.5564594 14.1156789,26.0848329 16,26.0827286 C21.56545,26.0827286 26.09327,21.5571714 26.09327,15.9945027 C26.09327,13.5045777 25.18555,11.2228886 23.68427,9.46145927 Z M10.84166,16.8990205 L14.78318,14.8863668 L12.64643,13.409915 L24.47528,7.31192404 L18.52296,13.58 L21.15834,15.5733033 L17.21682,17.585957 L19.35357,19.0624088 L7.52472,25.1603998 L13.47704,18.8923238 L10.84166,16.8990205 Z"/>
  </g>
</svg>
