<svg height="32" width="32" xmlns="http://www.w3.org/2000/svg"><g fill="none"><circle cx="16" cy="16" fill="#23bee2" r="16"/><path d="m19.879 13.469 3.239-3.412a9.225 9.225 0 0 1 2.153 5.938c0 5.117-4.15 9.266-9.271 9.266a9.232 9.232 0 0 1 -4.468-1.147l8.238-4.246 1.342-.692-1.243-.859-.888-.614 2.59-1.322 1.288-.658-1.154-.872zm-7.758 5.534-3.02 3.18a9.228 9.228 0 0 1 -2.372-6.188c0-5.118 4.15-9.267 9.271-9.267a9.23 9.23 0 0 1 4.906 1.404l-8.676 4.472-1.342.693 1.243.858.888.614-2.59 1.323-1.288.657 1.154.873zm-3.585 3.777-.625.658a10.95 10.95 0 0 1 -2.911-7.443c0-6.063 4.935-10.995 11-10.995 2.493 0 4.796.834 6.643 2.237l-.902.465a10.04 10.04 0 0 0 -5.741-1.796c-5.565 0-10.093 4.526-10.093 10.089 0 2.61.996 4.991 2.63 6.784zm15.148-13.32.628-.66a10.944 10.944 0 0 1 2.688 7.195c0 6.062-4.935 10.994-11 10.994a10.941 10.941 0 0 1 -6.253-1.954l.924-.477a10.036 10.036 0 0 0 5.329 1.525c5.565 0 10.093-4.526 10.093-10.088 0-2.49-.907-4.772-2.409-6.534zm-12.842 7.44 3.941-2.013-2.137-1.476 11.83-6.098-5.953 6.268 2.635 1.993-3.941 2.013 2.137 1.476-11.83 6.098 5.953-6.268z" fill="#fff"/></g></svg>