<svg height="32" width="32" xmlns="http://www.w3.org/2000/svg"><g fill="none" fill-rule="evenodd"><circle cx="16" cy="16" fill="#347ffb" fill-rule="nonzero" r="16"/><path d="m19.7 13.055-2.869 7.75-.018.047-.526-1.055-1.1.5 2.885-7.797 1.1-.5.527 1.055zm7.18.183-2.868 7.762-.527-1.058-1.1.5.067-.182 2.867-7.76 1.1-.5.525 1.055zm-6.14 6.712 1.689-4.563-1.103.5-.524-1.057-1.694 4.562.525 1.058zm-9.137-4.5h-5.045l.86.8-.86.813h5.04l.856-.813zm-5.743 3.383h8.155l-.857.807.857.805h-8.155l-.86-.805.86-.808zm2.501-6.768h8.15l-.854.808.855.805h-8.15l-.86-.806.86-.807z" fill="#fff"/></g></svg>