<svg width="32" height="32" viewBox="0 0 32 32" fill="none" xmlns="http://www.w3.org/2000/svg">
<g clip-path="url(#clip0)">
<path fill-rule="evenodd" clip-rule="evenodd" d="M16.0624 5.165C15.7893 6.09816 14.5018 7.36925 12.8086 8.43681L12.7423 8.5021C12.6759 8.70178 13.0154 9.23557 13.4211 9.03588C15.3719 7.76863 16.8778 6.29785 17.1509 5.23029C17.3538 4.36241 16.8115 3.96303 15.6606 3.89391C15.2978 3.88236 14.9346 3.90422 14.576 3.95919H14.3029C15.5903 3.89391 16.3355 4.29329 16.0663 5.16116L16.0624 5.165Z" fill="#1D1D1D"/>
<path fill-rule="evenodd" clip-rule="evenodd" d="M21.0134 6.43609C20.4048 8.70562 15.8595 12.2424 10.8422 14.3775C9.98537 14.7563 9.09961 15.0684 8.19312 15.3107C8.11173 15.331 8.04003 15.3785 7.99025 15.4451C7.78737 15.7139 7.85369 16.3783 8.32968 16.313C9.21141 16.057 10.1608 15.7229 11.1778 15.3107C16.4682 13.1103 21.3528 9.30469 21.9615 6.91227C22.0812 6.5936 22.0704 6.24159 21.9314 5.93061C21.7923 5.61962 21.5359 5.37401 21.2163 5.24564C20.8769 5.11124 20.4711 4.91155 20.1317 4.77715C20.3036 4.82588 20.4637 4.90853 20.6021 5.02009C20.7405 5.13164 20.8545 5.26976 20.937 5.42603C21.0194 5.5823 21.0688 5.75346 21.0819 5.92908C21.095 6.10471 21.0717 6.28113 21.0134 6.44761V6.43609Z" fill="#1D1D1D"/>
<path fill-rule="evenodd" clip-rule="evenodd" d="M27.2519 11.6434C27.2569 11.3923 27.2104 11.1429 27.1153 10.9099L26.9788 10.6411L26.5028 9.90761C26.6494 10.1496 26.7199 10.4288 26.7057 10.7102C26.8145 11.0567 26.9997 11.3754 27.248 11.6434H27.2519Z" fill="#1D1D1D"/>
<path fill-rule="evenodd" clip-rule="evenodd" d="M27.7942 13.5749C27.1153 15.9789 22.9134 19.5848 17.8259 22.1884C17.7553 22.2108 17.6906 22.2483 17.6364 22.2981C17.5822 22.348 17.5399 22.4091 17.5125 22.4769C17.4851 22.5448 17.4733 22.6178 17.4779 22.6907C17.4825 22.7635 17.5034 22.8345 17.5391 22.8985C17.5749 22.9625 17.6245 23.0179 17.6846 23.0608C17.7446 23.1037 17.8135 23.133 17.8864 23.1466C17.9593 23.1602 18.0343 23.1578 18.1062 23.1395C18.178 23.1213 18.2448 23.0876 18.3019 23.0409C23.3192 20.4373 27.4548 16.9658 28.0556 14.5619C28.1751 14.241 28.1981 13.893 28.1219 13.5596C28.0556 13.2255 27.8488 12.757 27.7825 12.4075C27.9251 12.7787 27.9251 13.1884 27.7825 13.5596L27.7942 13.5749Z" fill="#1D1D1D"/>
<path fill-rule="evenodd" clip-rule="evenodd" d="M23.5221 21.2514C23.4022 21.3571 23.3088 21.4885 23.249 21.6354C23.1826 21.9043 23.3855 22.3036 23.7913 22.0195C26.2999 20.2184 28.1297 18.283 28.4731 16.8122C28.5251 16.6155 28.5475 16.4124 28.5394 16.2093V15.8253L28.4809 15.0457C28.49 15.3149 28.4677 15.5842 28.4145 15.8483C28.0244 17.3844 26.1088 19.3851 23.5338 21.2553L23.5221 21.2514Z" fill="#1D1D1D"/>
<path fill-rule="evenodd" clip-rule="evenodd" d="M9.55475 9.03971C10.1608 8.79047 10.7487 8.5005 11.3143 8.17184C11.339 8.15129 11.3588 8.1257 11.3724 8.09685C11.386 8.068 11.393 8.03659 11.393 8.00479C11.393 7.97299 11.386 7.94157 11.3724 7.91273C11.3588 7.88388 11.339 7.85829 11.3143 7.83774C11.2699 7.77649 11.2114 7.72645 11.1436 7.69174C11.0758 7.65703 11.0006 7.63863 10.9242 7.63805C10.4638 7.90852 9.98835 8.15339 9.50013 8.37152C7.93953 9.03971 6.71837 9.10499 6.44916 8.70562C6.40308 8.63744 6.37318 8.55992 6.3617 8.47881C6.35022 8.39771 6.35745 8.3151 6.38284 8.23712C6.47702 7.99588 6.60863 7.77047 6.77299 7.56893L7.72105 6.63577C8.63027 5.99896 9.60756 5.46199 10.6355 5.03443C10.7933 4.89053 10.9773 4.77719 11.1778 4.70034C12.7384 4.23184 13.7567 4.36624 13.5499 5.08435C13.4709 5.38943 13.3059 5.66632 13.0739 5.8831C13.2134 5.97005 13.3699 6.02697 13.5333 6.05013C13.6967 6.0733 13.8632 6.06218 14.022 6.01751C14.3075 5.73934 14.5169 5.39453 14.6306 5.01523C14.9037 4.14736 13.8152 3.86318 12.1883 4.34704C12.0551 4.38266 11.9247 4.42758 11.7981 4.48145L11.408 4.61585C11.2853 4.6792 11.1538 4.72448 11.0178 4.75026C10.8814 4.80406 10.7507 4.87095 10.6277 4.94995C10.4911 5.01523 10.4248 5.01523 10.2882 5.08435C10.1517 5.15348 10.0854 5.14964 9.9488 5.21876C9.8421 5.29541 9.72848 5.36225 9.60937 5.41845L9.33627 5.55285C9.24022 5.58419 9.14948 5.62949 9.06706 5.68726C8.96242 5.73172 8.87011 5.80019 8.79786 5.88694C8.6952 5.93653 8.60264 6.00421 8.52476 6.08663C8.3882 6.15192 8.3882 6.22104 8.25165 6.28632C8.14904 6.33598 8.05649 6.40365 7.97855 6.48601C7.87598 6.53574 7.78344 6.60341 7.70544 6.6857C7.56889 6.8201 7.50257 6.8201 7.36601 6.95451C7.22946 7.08891 7.16314 7.08891 7.02658 7.22332C6.68754 7.43841 6.38917 7.71 6.14485 8.02591C5.97038 8.19393 5.83697 8.39878 5.7547 8.62497C5.7547 8.69026 5.68837 8.75938 5.68837 8.82466V8.95907C5.67157 9.11822 5.69433 9.279 5.7547 9.42756C6.14485 9.96135 7.70544 9.81158 9.62107 9.04355L9.55475 9.03971Z" fill="#1D1D1D"/>
<path fill-rule="evenodd" clip-rule="evenodd" d="M4.19409 11.2401V11.3745C4.2007 11.4253 4.224 11.4725 4.26042 11.5089C4.65057 11.9774 5.61814 12.0427 6.29309 11.893C8.6652 11.628 8.73543 11.2248 8.73543 10.9598C8.73543 10.9598 8.73543 10.4913 8.46232 10.4913C6.5623 11.0904 5.20848 11.0904 4.79883 10.5566C4.69852 10.3251 4.6753 10.0684 4.7325 9.82312C4.80958 9.61815 4.89949 9.41808 5.0017 9.22405C5.06803 9.08965 5.20458 8.95908 5.34113 8.75555L5.13825 8.95524C5.04432 9.09854 4.93002 9.22786 4.79883 9.33926C4.70047 9.46207 4.60929 9.59028 4.52572 9.72327C4.4594 9.85768 4.32284 10.0574 4.25262 10.1918C4.18239 10.3262 4.18629 10.3915 4.11607 10.5259C4.12069 10.5619 4.11714 10.5985 4.10567 10.633C4.0942 10.6676 4.0751 10.6992 4.04974 10.7256C4.08606 10.8842 4.13165 11.0406 4.18629 11.1941L4.19409 11.2401Z" fill="#1D1D1D"/>
<path fill-rule="evenodd" clip-rule="evenodd" d="M10.4365 13.0565C14.9778 11.1748 19.1173 7.96832 19.6557 5.90231C19.8586 5.16884 19.5894 4.63506 18.8403 4.43538C18.6844 4.38168 18.5254 4.33681 18.3643 4.30097C18.2285 4.26006 18.0885 4.2343 17.9469 4.22417C18.0876 4.25728 18.2192 4.32032 18.3325 4.40885C18.4458 4.49738 18.538 4.60925 18.6027 4.73661C18.6674 4.86397 18.703 5.00373 18.707 5.14607C18.711 5.28841 18.6832 5.42988 18.6257 5.56054C18.0834 7.43069 14.3536 10.3684 10.218 12.0888C6.96417 13.4252 4.45551 13.6249 3.77665 12.757C3.68468 12.6213 3.62468 12.4671 3.60106 12.3056C3.57743 12.1442 3.59077 11.9796 3.6401 11.8238C3.70643 11.6894 3.70643 11.555 3.77665 11.4398C3.6401 11.7739 3.43722 12.2424 3.30067 12.5919C3.30067 12.6571 3.23435 12.7263 3.23435 12.7915C3.23435 12.8568 3.16802 12.9912 3.16802 13.0604C3.12794 13.1999 3.12558 13.3474 3.16116 13.4882C3.19674 13.6289 3.26904 13.7581 3.3709 13.863C4.06146 14.7769 6.83932 14.5926 10.4365 13.0565Z" fill="#1D1D1D"/>
<path fill-rule="evenodd" clip-rule="evenodd" d="M2.6374 18.0487C2.63277 18.0848 2.63632 18.1214 2.64779 18.1559C2.65926 18.1904 2.67836 18.222 2.70372 18.2484V18.3828C2.70372 18.4328 2.77005 18.4328 2.77005 18.5172L2.70372 18.4328C2.77005 18.498 2.77005 18.6324 2.84027 18.6977C3.78833 19.9688 7.38161 19.7192 11.9932 17.7799C17.8922 15.3107 23.2529 11.1749 23.998 8.44836C24.101 8.1622 24.1189 7.8531 24.0499 7.55726C23.9808 7.26141 23.8274 6.99107 23.6079 6.77789L23.0656 6.30939L22.6754 6.04442C22.878 6.17171 23.0416 6.35077 23.1488 6.56247C23.256 6.77418 23.3027 7.01056 23.2841 7.24639C23.0812 11.4514 6.53498 21.455 2.80516 17.5918C2.63406 17.3574 2.53887 17.0777 2.53206 16.7892C2.52032 17.1463 2.54252 17.5037 2.59838 17.8567V17.922C2.63669 17.9571 2.66033 18.0051 2.66471 18.0564L2.6374 18.0487Z" fill="#1D1D1D"/>
<path fill-rule="evenodd" clip-rule="evenodd" d="M13.0778 19.9688C19.3202 17.3652 25.0124 12.9605 25.8278 10.0881C25.9212 9.83473 25.9516 9.56302 25.9163 9.29576C25.881 9.02849 25.7811 8.77345 25.625 8.55202C25.3719 8.24624 25.0995 7.95638 24.8096 7.68414C25.1997 8.06816 25.2855 8.6173 25.149 9.28549C24.4038 12.0888 18.774 16.4282 12.6642 18.9627C7.85759 20.9864 4.1941 21.3205 3.17971 19.9688C3.05651 19.8421 2.98439 19.6755 2.97683 19.5003C3.05778 19.8928 3.1713 20.2781 3.31626 20.6523V20.852C3.38259 20.9173 3.38259 20.9864 3.45281 21.0517C4.33455 22.3881 8.1346 22.054 13.0817 19.9842L13.0778 19.9688Z" fill="#1D1D1D"/>
<path fill-rule="evenodd" clip-rule="evenodd" d="M4.39981 23.3213C4.39981 23.256 4.33453 23.256 4.33453 23.1869C4.33089 23.2132 4.33515 23.24 4.34677 23.264C4.35839 23.2879 4.37685 23.3078 4.39981 23.3213Z" fill="#1D1D1D"/>
<path fill-rule="evenodd" clip-rule="evenodd" d="M14.2989 22.319C18.0288 20.7176 21.622 18.5134 24.0527 16.3783C24.1325 16.289 24.1871 16.1806 24.2111 16.064C24.235 15.9474 24.2275 15.8267 24.1892 15.7139C24.1678 15.6485 24.132 15.5885 24.0844 15.5382C24.0368 15.4879 23.9786 15.4485 23.9138 15.4229C23.849 15.3972 23.7793 15.3859 23.7096 15.3898C23.6398 15.3936 23.5718 15.4125 23.5104 15.4451C20.588 17.9061 17.2982 19.9097 13.7566 21.3858C8.73932 23.3904 4.87295 23.7245 3.85856 22.319C3.97744 22.5052 4.06936 22.7068 4.13166 22.918C4.13827 22.9688 4.16157 23.016 4.19799 23.0524C4.19799 23.1177 4.26431 23.1177 4.26431 23.1868C4.26431 23.1216 4.19799 23.1216 4.19799 23.0524C4.19799 23.1177 4.26431 23.1177 4.26431 23.1868C5.21237 24.7229 9.14508 24.4541 14.2989 22.319Z" fill="#1D1D1D"/>
<path fill-rule="evenodd" clip-rule="evenodd" d="M10.097 25.9902C10.3702 25.9249 10.2999 25.7214 10.2336 25.6062C10.1522 25.4856 10.0413 25.3872 9.91103 25.3201C9.78078 25.253 9.63542 25.2193 9.48842 25.2221C7.38551 25.5562 5.89515 25.3566 5.28261 24.6192V24.5232C5.42905 24.6655 5.55983 24.8225 5.67276 24.9917C5.80931 25.1261 5.94586 25.3258 6.06291 25.4602C6.60522 26.1284 8.01365 26.3281 10.0658 25.994L10.097 25.9902Z" fill="#1D1D1D"/>
<path fill-rule="evenodd" clip-rule="evenodd" d="M15.9961 26.259C16.0951 26.232 16.1793 26.1677 16.2305 26.08C16.2816 25.9923 16.2955 25.8882 16.2692 25.7905C16.1841 25.6619 16.0527 25.5697 15.9014 25.5327C15.7501 25.4956 15.5902 25.5164 15.4538 25.5908C11.3845 27.1921 8.26725 27.4571 7.11241 26.5239C7.44488 26.7499 7.76161 26.9975 8.06047 27.2651C9.23091 28.0638 12.196 27.7336 15.9961 26.2667V26.259Z" fill="#1D1D1D"/>
<path fill-rule="evenodd" clip-rule="evenodd" d="M9.41819 28.06C9.79286 28.2108 10.1554 28.3892 10.5028 28.5938C11.7903 29.1276 14.5018 28.7282 17.8961 27.3265C23.0461 25.1914 27.7279 21.5049 28.3365 19.2008C28.3319 19.1647 28.3354 19.1281 28.3469 19.0936C28.3584 19.0591 28.3775 19.0275 28.4028 19.0011C28.4692 18.7323 28.4692 18.3329 28.5394 17.9988V17.7838C27.8605 22.3919 13.9595 29.9302 9.42209 28.0638L9.41819 28.06Z" fill="#1D1D1D"/>
<path fill-rule="evenodd" clip-rule="evenodd" d="M18.5048 27.8603C15.6567 29.0623 13.2846 29.4616 11.9932 29.1276C12.3326 29.1928 12.8749 29.3272 13.2143 29.3925C16.7257 29.9263 25.6991 25.5869 27.5913 21.6508C27.7279 21.3167 27.8644 20.852 27.9815 20.4987C27.3104 22.6569 23.1163 25.9249 18.5048 27.8603Z" fill="#1D1D1D"/>
<path fill-rule="evenodd" clip-rule="evenodd" d="M24.6769 25.4564C23.0884 26.6931 21.3311 27.704 19.4567 28.4594C17.5567 29.2619 15.9454 29.6114 14.8452 29.5269H16.2029C17.4685 29.377 18.7037 29.039 19.8664 28.5246C21.5101 27.8188 23.059 26.916 24.478 25.8365C24.6808 25.7021 24.7472 25.5024 24.8174 25.5024C24.8174 25.4372 24.8837 25.4372 24.8837 25.368V25.3258C24.7472 25.3911 24.6808 25.3911 24.6808 25.4602L24.6769 25.4564Z" fill="#1D1D1D"/>
<path fill-rule="evenodd" clip-rule="evenodd" d="M2.63742 15.5104V15.8445C2.63373 15.8708 2.63806 15.8977 2.64986 15.9216C2.66167 15.9455 2.68042 15.9654 2.70375 15.9789V16.0442C2.70375 16.1286 2.77008 16.1286 2.77008 16.1786V16.2438C2.89737 16.4055 3.06007 16.5367 3.24606 16.6279C3.31387 16.6038 3.37112 16.5574 3.40811 16.4965C3.44509 16.4356 3.45951 16.3639 3.44893 16.2938C3.48757 16.0476 3.46481 15.7959 3.38261 15.5603C3.18374 15.4901 3.0156 15.3544 2.90663 15.1763C2.75986 14.9344 2.68926 14.6551 2.70375 14.3737C2.71914 14.2611 2.74128 14.1496 2.77008 14.0396V14.174L2.70375 14.6425L2.5672 15.3107C2.63352 15.3107 2.63352 15.4451 2.63352 15.5104H2.63742Z" fill="#1D1D1D"/>
<path fill-rule="evenodd" clip-rule="evenodd" d="M28.1999 24.4579C28.0651 24.3599 27.8967 24.3174 27.7306 24.3397C27.5645 24.3619 27.4137 24.447 27.3104 24.577C26.1073 26.2974 24.5376 27.739 22.7106 28.8012C20.5639 30.0162 18.133 30.6607 15.6567 30.6713H15.6059C13.3747 30.6745 11.1738 30.1623 9.18024 29.1759C7.1867 28.1894 5.45616 26.7563 4.12777 24.9917H4.06145C4.06145 24.9744 4.05446 24.9578 4.04202 24.9456C4.02958 24.9333 4.01271 24.9264 3.99512 24.9264L3.9288 24.8612C3.90203 24.8648 3.87476 24.8605 3.85045 24.8489C3.82615 24.8373 3.80589 24.8188 3.79224 24.7959H3.40209C3.37533 24.7922 3.34806 24.7965 3.32375 24.8081C3.29944 24.8197 3.27919 24.8382 3.26554 24.8612H3.17971V24.9226C3.16212 24.9226 3.14525 24.9295 3.13281 24.9417C3.12037 24.954 3.11338 24.9706 3.11338 24.9879L3.04706 25.0532C3.05076 25.0795 3.04643 25.1064 3.03462 25.1303C3.02281 25.1542 3.00406 25.1741 2.98073 25.1876V27.9256C2.98073 28.1028 3.05226 28.2728 3.17957 28.3981C3.30688 28.5234 3.47955 28.5938 3.65959 28.5938C3.75023 28.5994 3.84104 28.586 3.92599 28.5544C4.01095 28.5228 4.0881 28.4738 4.15232 28.4106C4.21653 28.3474 4.26634 28.2714 4.29843 28.1878C4.33053 28.1042 4.34417 28.0148 4.33845 27.9256V27.1921C5.80203 28.7182 7.5683 29.9323 9.52789 30.7593C11.4875 31.5863 13.5987 32.0086 15.7308 32H15.7971C18.493 31.9939 21.1383 31.2794 23.4596 29.9302C25.4851 28.815 27.2075 27.2356 28.4809 25.3258C28.553 25.1736 28.5651 25.0004 28.5146 24.84C28.4641 24.6795 28.3547 24.5433 28.2078 24.4579H28.1999Z" fill="#407BA4"/>
<path fill-rule="evenodd" clip-rule="evenodd" d="M14.978 2.03122V1.89681C14.9817 1.87046 14.9774 1.84363 14.9655 1.8197C14.9537 1.79578 14.935 1.77584 14.9117 1.76241C14.9137 1.73394 14.9065 1.70556 14.8911 1.6814C14.8756 1.65723 14.8528 1.63853 14.8258 1.628L14.7595 1.56272C14.7595 1.49744 14.6932 1.49744 14.6229 1.49744L14.5566 1.43215L12.2001 0.0957794C12.1258 0.0497777 12.0423 0.0200325 11.9553 0.00855912C11.8683 -0.00291427 11.7798 0.00415214 11.6959 0.0292796C11.6119 0.0544071 11.5344 0.0970087 11.4686 0.154198C11.4028 0.211388 11.3502 0.281829 11.3145 0.36075C11.2686 0.433996 11.2391 0.516072 11.2281 0.60146C11.2171 0.686848 11.2247 0.773567 11.2506 0.855787C11.2765 0.938007 11.32 1.01382 11.3781 1.07813C11.4362 1.14244 11.5076 1.19376 11.5876 1.22862L12.3328 1.61264C10.7155 1.96684 9.16114 2.55707 7.72122 3.36375C5.42044 4.71675 3.50722 6.62368 2.1616 8.90509C0.843405 11.0927 0.10313 13.5706 0.00839699 16.1123C-0.0863362 18.654 0.467493 21.1786 1.61929 23.4554C1.68301 23.5579 1.77249 23.6425 1.8791 23.701C1.98571 23.7595 2.10585 23.79 2.22792 23.7895C2.32264 23.7992 2.41783 23.7761 2.49712 23.7242C2.57843 23.6909 2.6513 23.6404 2.71058 23.5763C2.76985 23.5122 2.81408 23.4361 2.84014 23.3533C2.8662 23.2704 2.87344 23.183 2.86136 23.0972C2.84928 23.0113 2.81817 22.9291 2.77023 22.8564C1.1625 19.6534 0.849519 15.9692 1.89448 12.5479C2.93944 9.12662 5.26448 6.22307 8.40008 4.42363C10.2178 3.36965 12.2635 2.75504 14.3694 2.63028C14.406 2.63483 14.4432 2.63134 14.4782 2.62005C14.5133 2.60876 14.5454 2.58996 14.5722 2.565C14.6386 2.49972 14.7088 2.49972 14.7751 2.43059L14.8258 2.36531L14.9117 2.30387V2.2309C14.908 2.20456 14.9123 2.17772 14.9241 2.15379C14.9359 2.12987 14.9547 2.10993 14.978 2.0965V2.03122Z" fill="#D37D41"/>
<path fill-rule="evenodd" clip-rule="evenodd" d="M31.9298 21.2514C31.843 21.1068 31.7046 20.9991 31.5416 20.9494C31.3786 20.8997 31.2027 20.9115 31.048 20.9826L30.4316 21.3205C31.105 19.2851 31.3322 17.1323 31.0981 15.0041C30.8641 12.876 30.1742 10.8209 29.0739 8.97443C27.7986 6.85966 26.0366 5.06919 23.9298 3.7472C21.823 2.42521 19.4302 1.60864 16.9442 1.36325C16.8587 1.35585 16.7726 1.36587 16.6912 1.39269C16.6099 1.41952 16.535 1.46256 16.4713 1.51913C16.4076 1.57571 16.3564 1.64461 16.321 1.72152C16.2855 1.79843 16.2666 1.88171 16.2653 1.96615C16.2578 2.04996 16.2679 2.1344 16.2949 2.21422C16.3219 2.29405 16.3653 2.36756 16.4223 2.43021C16.4794 2.49285 16.5489 2.5433 16.6266 2.57841C16.7043 2.61352 16.7885 2.63256 16.8739 2.63434C19.1542 2.83974 21.3522 3.57614 23.2863 4.78271C25.2203 5.98928 26.8351 7.63142 27.9971 9.5735C29.1278 11.5321 29.7723 13.7259 29.8781 15.9762C29.9838 18.2265 29.5479 20.4695 28.6057 22.5225V22.991C28.6015 23.0174 28.6055 23.0444 28.6174 23.0685C28.6293 23.0925 28.6483 23.1124 28.672 23.1254V23.1907L28.7384 23.256V23.3212C28.8047 23.3865 28.8749 23.3865 28.9412 23.4557H29.4172C29.4348 23.4557 29.4517 23.4488 29.4641 23.4365C29.4765 23.4243 29.4835 23.4077 29.4835 23.3904L31.723 22.1231C31.85 22.0212 31.9388 21.8806 31.9756 21.7234C32.0123 21.5663 31.9948 21.4015 31.9259 21.2552L31.9298 21.2514Z" fill="#E9B520"/>
</g>
<defs>
<clipPath id="clip0">
<rect width="32" height="32" fill="white"/>
</clipPath>
</defs>
</svg>
