<svg width="33" height="33" viewBox="0 0 33 33" fill="none" xmlns="http://www.w3.org/2000/svg">
<g clip-path="url(#clip0)">
<path d="M16.444 32.9373C25.2805 32.9373 32.444 25.7738 32.444 16.9373C32.444 8.1007 25.2805 0.937256 16.444 0.937256C7.60741 0.937256 0.44397 8.1007 0.44397 16.9373C0.44397 25.7738 7.60741 32.9373 16.444 32.9373Z" fill="#202944"/>
<path d="M13.3792 9.29755H15.2589V11.2276H13.3792V9.29755ZM8.63916 9.29755H10.6006V11.2276H8.63916V9.29755ZM10.5188 13.9618V15.8918H8.55743V13.9618H10.5188ZM10.0285 24.5769H9.21124V23.8532H9.94677V24.5769H10.0285ZM10.6006 20.7169H8.63916V18.8673H10.6006V20.7169ZM14.7686 24.5769H14.033V23.8532H14.7686V24.5769ZM14.7686 20.0735H14.033V19.3498H14.7686V20.0735ZM15.3406 15.9722H13.3792V14.0422H15.3406V15.9722ZM19.5086 24.5769H18.7731V23.8532H19.5086V24.5769ZM19.5086 20.0735H18.7731V19.3498H19.5086V20.0735ZM19.5086 15.3289H18.7731V14.6051H19.5086V15.3289ZM20.1624 11.2276H18.201V9.29755H20.1624V11.2276ZM24.3304 24.5769H23.5949V23.8532H24.3304V24.5769ZM24.3304 20.0735H23.5949V19.3498H24.3304V20.0735ZM24.3304 15.3289H23.5949V14.6051H24.3304V15.3289ZM24.3304 10.6646H23.5949V9.94089H24.3304V10.6646Z" fill="white"/>
</g>
<defs>
<clipPath id="clip0">
<rect width="32" height="32" fill="white" transform="translate(0.44397 0.937256)"/>
</clipPath>
</defs>
</svg>
