<svg height="32" width="32" xmlns="http://www.w3.org/2000/svg"><g fill="none" fill-rule="evenodd"><circle cx="16" cy="16" fill="#c40e09" r="16"/><path d="M22.2 7.14c.09.07.171.13.246.195.198.175.397.35.59.531.153.146.298.302.445.455.012.012.022.04.018.056-.09.348-.226.676-.408.982-.16.268-.344.514-.558.735-.29.3-.615.55-.971.755-.155.09-.314.17-.473.25-.507.257-1.047.401-1.597.503-.375.07-.754.12-1.131.172-.496.068-.993.123-1.488.195-.73.106-1.445.272-2.123.587-.746.347-1.367.854-1.789 1.603-.281.5-.395 1.045-.39 1.623.009 1.107.388 2.064 1.042 2.915.4.52.856.982 1.336 1.418.332.303.671.597 1.002.9.423.39.847.779 1.21 1.234.19.24.378.486.541.747.278.446.499.925.644 1.438.08.28.128.565.15.857a4.04 4.04 0 01-.114 1.292c-.043.173-.045.176-.216.207-.241.045-.482.091-.724.13-.177.027-.355.044-.533.064-.062.008-.125.011-.188.016l-.037-.001c.001-.014 0-.028.004-.04.054-.143.114-.284.165-.428a4.23 4.23 0 00.226-.958 2.932 2.932 0 00-.303-1.672 4.005 4.005 0 00-.694-.946c-.376-.395-.79-.741-1.205-1.086-.693-.577-1.363-1.18-1.975-1.852a10.08 10.08 0 01-1.012-1.302 6.405 6.405 0 01-.768-1.606 4.713 4.713 0 01-.025-2.718c.146-.514.343-.997.647-1.43.402-.573.921-1 1.516-1.33.6-.335 1.24-.555 1.899-.72.53-.134 1.067-.234 1.608-.3.61-.074 1.22-.136 1.83-.205.498-.056.993-.125 1.474-.277a3.03 3.03 0 001.177-.672c.291-.272.507-.598.662-.972.143-.345.213-.709.264-1.078.011-.082.017-.166.027-.267zm-7.06 12.826c.219-.043.427-.08.634-.125.532-.118 1.057-.26 1.55-.512a4.1 4.1 0 001.269-1c.36-.426.655-.895.809-1.451a3.11 3.11 0 00.1-1.082 4.316 4.316 0 00-.734-2.066 8.374 8.374 0 00-1.08-1.288c-.07-.071-.144-.14-.215-.21-.01-.01-.018-.022-.033-.04l.38-.059.823-.125c.144-.022.288-.046.432-.065.017-.002.041.017.055.032.256.298.518.59.764.897.32.398.59.834.81 1.304.195.419.338.855.408 1.317.049.323.07.649.037.975-.096.913-.367 1.758-.902 2.496-.332.459-.741.83-1.202 1.14a6.87 6.87 0 01-1.735.823c-.263.084-.529.156-.794.23a.087.087 0 01-.071-.015c-.427-.38-.852-.763-1.277-1.145-.008-.006-.014-.015-.027-.03zm2.116-9.698l-.644.1-.73.113c-.085.014-.171.03-.258.039a.124.124 0 01-.088-.028 7.558 7.558 0 01-.781-.835c-.13-.165-.262-.33-.377-.507-.39-.604-.695-1.249-.824-1.974a3.968 3.968 0 01.098-1.86c.011-.04.023-.06.07-.069.268-.046.533-.106.8-.15.22-.035.444-.053.666-.079L15.37 5c-.016.036-.025.06-.036.081a4.384 4.384 0 00-.391 1.24 2.868 2.868 0 00.271 1.722c.221.445.523.822.865 1.17.356.36.742.684 1.129 1.007.014.012.026.025.049.048zm-3.174 11.288l-.426.045c-.18.02-.36.034-.54.062-.277.043-.555.085-.829.146-1.003.222-1.784.754-2.21 1.777a5.76 5.76 0 00-.347 1.159c-.003.018-.009.036-.017.068-.057-.044-.11-.08-.158-.122-.2-.178-.399-.354-.594-.536-.141-.132-.274-.273-.414-.407-.047-.045-.056-.09-.039-.154a3.884 3.884 0 011.079-1.79 5.145 5.145 0 011.11-.785c.566-.31 1.171-.488 1.791-.622.072-.015.146-.023.216-.042.044-.012.073 0 .104.029l.578.529.641.589a.85.85 0 01.055.054zm4.327-4.378c-.05-.012-.1-.023-.148-.038l-3.451-1.079c-.443-.138-.885-.275-1.327-.414-.17-.053-.257-.192-.244-.334.018-.21.088-.356.285-.395a.346.346 0 01.162.014c.374.115.747.235 1.12.351l2.641.824 1.053.327a.34.34 0 01.247.37c-.029.223-.162.368-.338.374zm-7.29 6.496c.032.008.07.015.107.026l4.805 1.5c.165.052.263.19.248.352-.019.218-.133.363-.304.378a.419.419 0 01-.156-.022c-1.325-.412-2.649-.826-3.973-1.24-.276-.086-.552-.17-.827-.257-.154-.049-.256-.18-.245-.33.016-.198.089-.349.266-.394.023-.007.048-.008.08-.013zM21.249 7.91c-.015.044-.035.136-.078.213-.07.126-.213.173-.354.129L18.5 7.528c-.829-.259-1.658-.518-2.488-.775-.141-.044-.246-.127-.262-.287-.018-.18.065-.421.301-.448a.332.332 0 01.132.018l4.816 1.503c.16.05.25.168.25.371zm-6.915 6.463c.01-.207.1-.363.262-.395a.406.406 0 01.191.012c.486.148.97.301 1.456.453l1.832.57a.34.34 0 01.244.386c-.037.23-.174.37-.36.35-.095-.012-.188-.05-.282-.079l-2.382-.744-.718-.224a.326.326 0 01-.243-.329zm-.332 1.89c.064.017.112.026.159.04l3.02.944c.083.026.167.05.25.077.185.06.275.232.227.428-.037.155-.111.274-.271.301a.349.349 0 01-.156-.013c-.384-.117-.767-.238-1.15-.358-.713-.222-1.425-.445-2.137-.665-.132-.041-.232-.12-.254-.265-.025-.161.017-.31.146-.413.05-.039.116-.053.166-.075zm-2.783 9.187c.014-.216.108-.385.303-.406a.32.32 0 01.127.013c1.108.345 2.216.69 3.324 1.037.178.056.265.232.22.42-.038.16-.12.272-.277.308a.18.18 0 01-.09.002l-3.107-.97c-.091-.029-.183-.056-.275-.086a.329.329 0 01-.225-.318zm.997-2.72c.03.008.07.015.109.027l3.281 1.024c.16.05.26.19.248.346-.017.214-.127.361-.295.382a.416.416 0 01-.168-.021c-.885-.275-1.77-.553-2.654-.83-.211-.065-.423-.13-.633-.197-.154-.05-.247-.177-.234-.335.016-.206.096-.34.268-.385.022-.006.045-.006.078-.01zm7.622-13.562c-.108-.032-.213-.061-.318-.094-1.027-.32-2.054-.643-3.082-.964-.205-.065-.288-.23-.232-.448.035-.139.107-.239.242-.27a.36.36 0 01.18.006c.91.281 1.821.566 2.732.85.195.06.389.122.584.183a.33.33 0 01.226.36c-.017.132-.054.26-.18.325-.047.024-.1.034-.152.052zm.983-2.7c-.019.133-.055.278-.207.352a.322.322 0 01-.245.007l-2.365-.74-.923-.29c-.194-.06-.278-.228-.225-.435.036-.141.104-.25.245-.28a.382.382 0 01.186.01c.622.192 1.243.388 1.864.582l1.425.444c.155.049.246.17.245.35z" fill="#fff"/></g></svg>