<svg height="32" viewBox="0 0 32 32" width="32" xmlns="http://www.w3.org/2000/svg"><g fill="none" fill-rule="evenodd"><circle cx="16" cy="16" fill="#2080a2" r="16"/><path d="m15.9802979 20.2968824c-1.1449816 1.3068885-1.1732224 3.0998117.0129575 4.293858 1.1208607-1.0804887 1.1221897-3.0931777-.0129575-4.293858m.0006645-12.19203344c-2.7049368 3.12862384-2.6026055 6.82614164-.0017277 9.89876724 2.6481894-3.1355831 2.6545021-6.8155404.0017277-9.89876724m1.9120681 9.02542694c2.2493629-2.3010709 4.9948336-2.8265189 8.1069695-2.328062-1.0031796 2.2997701-2.4176781 4.1371147-4.9178857 5.0976069.5520577-.4327678 1.0552755-.7869688 1.5103843-1.1930057.7588468-.6771834 1.2974819-1.4968668 1.5663343-2.4820087.0849217-.3112754-.0252506-.3983623-.3110475-.4444097-1.0471688-.1686455-2.0289518.0513806-2.9683404.4796607-1.5812189.7208245-2.8671387 1.8286945-4.0743165 3.0343177-.0212636.0213327-.0306329.0541123-.0679772.1229233 2.3648511.0891681 4.1658166 1.0337258 5.2332523 3.2151904-1.3862577.3073731-2.6542362.2425295-3.8307146-.5135459.8860301.271927 1.7707976.4704252 2.7396231.0106013-.1188107-.2000592-.1891801-.4349792-.3486575-.5651217-.4378321-.3570627-.8853657-.7187432-1.3799451-.9894995-.7656911-.4191747-1.6206231-.6148763-2.5663908-.8088869 1.2767499 2.2368776.9562002 4.2680377-.6046853 6.2339639-.7260875-.9150301-1.2339567-1.871555-1.3729015-3.0017333-.1395427-1.1340156.1792793-2.1639692.7262205-3.1496314-1.2105003-.1945959-3.8211461 1.2061436-4.2250227 2.2865022.9366642.4738723 1.851068.2577486 2.7924501-.0926152-.6765831.6966951-2.6256633.98189-3.8963663.5626502 1.0546775-2.1493354 2.8468718-3.0966898 5.2646827-3.187549-.1774851-.1794419-.3094527-.3185597-.4475335-.451629-1.005904-.9692725-2.075001-1.8608236-3.3316168-2.5084794-1.0268354-.5292203-2.10344104-.8617634-3.28669723-.6844028-.14027371.0210075-.27848749.0550879-.4747112.0946314.36008678 1.8501572 1.60042261 2.9971806 3.13353243 3.9646319-1.61112087-.1953764-4.33193898-3.0124646-4.8616699-5.0341941 3.1091457-.5043104 5.8706306.0475433 8.1105577 2.3984339-1.8535266-4.1268386-.8675573-7.77947964 1.8687435-11.1966154 2.7153693 3.39092514 3.7118375 7.0174206 1.9137293 11.1302759" fill="#fff"/></g></svg>