<?xml version="1.0" encoding="utf-8"?>
<!-- Generator: Adobe Illustrator 26.0.1, SVG Export Plug-In . SVG Version: 6.00 Build 0)  -->
<svg version="1.1" id="Layer_1" xmlns="http://www.w3.org/2000/svg" xmlns:xlink="http://www.w3.org/1999/xlink" x="0px" y="0px"
	 viewBox="0 0 74.5 71.4" style="enable-background:new 0 0 74.5 71.4;" xml:space="preserve">
<style type="text/css">
	.st0{fill:#F4A427;}
	.st1{fill:#FFFFFF;}
	.st2{fill:#F79422;}
	.st3{fill:none;stroke:#221F1F;stroke-linejoin:round;}
	.st4{fill:#5A595C;}
	.st5{fill:#929497;}
	.st6{fill:none;stroke:#221F1F;stroke-linecap:round;stroke-linejoin:round;}
	.st7{fill:none;stroke:#221F1F;stroke-miterlimit:10;}
	.st8{fill:none;stroke:#171717;stroke-linecap:round;stroke-linejoin:round;}
	.st9{fill:#171717;}
	.st10{fill:#221F1F;}
</style>
<g id="Layer_2_00000096758436641758334450000017841725478599035553_">
	<g id="Layer_4">
		<path class="st0" d="M65.9,53.7c-0.8,9.5-12,17.5-28.8,17.1l0,0c-15.8-0.4-26.9-7-27.7-16.5c-0.1-1.2,0-2.4,0.1-3.7
			c0.5-3.7,1.8-7.2,3.7-10.4l1.2,0.5c3.1-1.2,6.3-2.1,9.6-2.7c4.3-0.6,8.7-0.7,13-0.4l0,0c4.3-0.3,8.7-0.2,13,0.4
			c3.3,0.6,6.5,1.5,9.6,2.7l1.2-0.5l0.8-0.4c1.9,3.2,3.2,6.7,3.9,10.4c0.2,1.1,0.3,2.3,0.2,3.4"/>
		<path class="st1" d="M65.9,53.7C65.1,63.1,54,70.8,37.1,70.7l0,0c-15.8-0.4-26.9-7-27.7-16.5c-0.1-1.2,0-2.4,0.1-3.7
			c1.7-0.4,3.4-0.4,5.1-0.1c3.2,0.5,5,2.5,7.3,3.5c1.3,0.6,2.6-0.4,3.8-1.5c3.2-3.1,7.5-4.9,11.9-5c4.5-0.1,8.2,1.7,12.1,5.3
			c0.8,0.8,1.9,1.3,3,1.2c1-0.3,2-0.8,2.8-1.5c3-2,6.6-2.8,10.1-2.3C65.9,51.4,66,52.5,65.9,53.7"/>
		<path class="st2" d="M19.4,30.3c-1.1,1.1-2.5,1.9-4,2.2l-0.6,0.1c-0.6,0.2-1.2,0.3-1.9,0.3c-0.1,0-0.3,0-0.4,0
			c-0.3-0.1-0.7-0.2-1-0.3c-1.1-0.5-2.1-1.1-3-1.9c-1.8-1.5-3.5-3.2-4.8-5.2C-1.8,17.5-0.1,6.7,7.5,0.7C8,0.4,8.6,0.4,9,0.9
			c0.2,0.3,0.3,0.6,0.2,0.9C8.5,5,7.9,10,10.9,14.3c2.6,3.6,8,7.1,11.3,7.1C22.9,25.4,21.8,28.1,19.4,30.3"/>
		<path class="st3" d="M19.4,30.3c-1.1,1.1-2.5,1.9-4,2.2l-0.6,0.1c-0.6,0.2-1.2,0.3-1.9,0.3c-0.1,0-0.3,0-0.4,0
			c-0.3-0.1-0.7-0.2-1-0.3c-1.1-0.5-2.1-1.1-3-1.9c-1.8-1.5-3.5-3.2-4.8-5.2C-1.8,17.5-0.1,6.7,7.5,0.7C8,0.4,8.6,0.4,9,0.9
			c0.2,0.3,0.3,0.6,0.2,0.9C8.5,5,7.9,10,10.9,14.3c2.6,3.6,8,7.1,11.3,7.1C22.9,25.4,21.8,28.1,19.4,30.3z"/>
		<path class="st4" d="M33.8,16.5l-1.3,12.8h-0.1c-2,0.3-4.7,0.7-8.4,1.3c-3.4,0.5-8,2.9-10.7,4.5L13,33c0.6-0.1,1.3-0.2,1.9-0.3
			l0.6-0.1c1.5-0.3,2.9-1.1,4-2.2c2.3-2.3,3.5-4.9,2.7-9l0.4,0.1c1.2-1.3,2.6-2.3,4.2-3.1C28.9,17.2,31.3,16.6,33.8,16.5"/>
		<path class="st3" d="M33.8,16.5l-1.3,12.8h-0.1c-2,0.3-4.7,0.7-8.4,1.3c-3.4,0.5-8,2.9-10.7,4.5L13,33c0.6-0.1,1.3-0.2,1.9-0.3
			l0.6-0.1c1.5-0.3,2.9-1.1,4-2.2c2.3-2.3,3.5-4.9,2.7-9l0.4,0.1c1.2-1.3,2.6-2.3,4.2-3.1C28.9,17.2,31.3,16.6,33.8,16.5z"/>
		<path class="st5" d="M63,39.5l-0.8,0.4l0,0l-0.8,0.4l-1.2,0.5c-3.1-1.2-6.3-2.1-9.6-2.7c-4.3-0.8-8.6-1.2-13-1.2l0,0
			c-4.4,0-8.7,0.3-13,1.2c-3.3,0.6-6.5,1.5-9.6,2.7c-0.4-0.2-0.8-0.4-1.2-0.5l-1.7-0.8c0.1-1.4,0-2.2,0-3.6c0.3-0.2,0.8-0.5,1.3-0.8
			c0,0,0.1-0.1,0.1-0.1c2.6-1.6,7.2-3.9,10.6-4.5c3.7-0.6,6.3-1,8.4-1.3c1.3-0.1,2.7-0.1,4.1-0.1c2.1,0,4,0,5.9,0.1
			c2,0.3,4.7,0.7,8.5,1.3c3.5,0.5,8.1,2.9,10.8,4.5l0.1,0c0.5,0.3,0.9,0.5,1.2,0.8C63,37.3,62.9,38.1,63,39.5"/>
		<path class="st6" d="M63,39.5l-0.8,0.4l0,0l-0.8,0.4l-1.2,0.5c-3.1-1.2-6.3-2.1-9.6-2.7c-4.3-0.7-8.6-1.1-13-1.1l0,0
			c-4.4,0-8.7,0.3-13,1.1c-3.3,0.6-6.5,1.5-9.6,2.7c-0.4-0.2-0.8-0.4-1.2-0.5l-1.7-0.8c0.1-1.4,0-2.2,0-3.6c0.3-0.2,0.8-0.5,1.3-0.8
			c0,0,0.1-0.1,0.1-0.1c2.6-1.6,7.2-3.9,10.6-4.5c3.7-0.6,6.3-1,8.4-1.3c1.3-0.1,2.7-0.1,4.1-0.1c2.1,0,4,0,5.9,0.1
			c2,0.3,4.7,0.7,8.5,1.3c3.5,0.5,8.1,2.9,10.8,4.5l0.1,0c0.5,0.3,0.9,0.5,1.2,0.8C63,37.3,62.9,38.1,63,39.5z"/>
		<path class="st5" d="M42.4,29.3c-1.8-0.1-3.8-0.2-5.9-0.1c-1.4,0-2.8,0.1-4.1,0.1h0.1l1.3-12.8l0.3-2.6c1-0.6,2.2-0.9,3.3-0.9h0.2
			c1.2,0,2.3,0.3,3.3,0.9l0.3,2.6v0.1L42.4,29.3z"/>
		<path class="st6" d="M42.4,29.3c-1.8-0.1-3.8-0.2-5.9-0.1c-1.4,0-2.8,0.1-4.1,0.1h0.1l1.3-12.8l0.3-2.6c1-0.6,2.2-0.9,3.3-0.9h0.2
			c1.2,0,2.3,0.3,3.3,0.9l0.3,2.6v0.1L42.4,29.3z"/>
		<line class="st6" x1="62.2" y1="39.9" x2="62.2" y2="39.9"/>
		<path class="st6" d="M65.9,53.8C65.1,63.3,53,70.9,37.1,70.9l0,0c-15.8-0.4-26.9-7-27.6-16.5c-0.1-1.2,0-2.4,0.1-3.7
			c0.5-3.7,1.8-7.2,3.7-10.4l1.2,0.5c3.1-1.2,6.3-2.1,9.6-2.7c4.3-0.8,8.6-1.1,13-1.2l0,0c4.4,0,8.7,0.4,13,1.2
			c3.3,0.6,6.5,1.5,9.6,2.7l1.3-0.5l0.8-0.4c1.9,3.2,3.2,6.7,3.9,10.4C66,51.5,66,52.7,65.9,53.8z"/>
		<path class="st2" d="M70.8,25.5c-1.4,1.9-3,3.7-4.9,5.2c-0.9,0.8-1.9,1.4-3,1.9l-0.5,0.2l-0.3,0.1c-0.7,0.2-1.1,0-2.4-0.2
			l-0.6-0.1c-1.5-0.3-2.9-1.1-4-2.2c-2.3-2.3-3.5-4.9-2.7-9c3.2,0.1,8.7-3.4,11.3-7.1C66.6,10,66,5,65.3,1.8
			c-0.1-0.6,0.2-1.1,0.8-1.3c0.3-0.1,0.7,0,0.9,0.2C74.6,6.7,76.3,17.6,70.8,25.5"/>
		<path class="st3" d="M70.8,25.5c-1.4,1.9-3,3.7-4.9,5.2c-0.9,0.8-1.9,1.4-3,1.9l-0.5,0.2l-0.3,0.1c-0.7,0.2-1.1,0-2.4-0.2
			l-0.6-0.1c-1.5-0.3-2.9-1.1-4-2.2c-2.3-2.3-3.5-4.9-2.7-9c3.2,0.1,8.7-3.4,11.3-7.1C66.6,10,66,5,65.3,1.8
			c-0.1-0.6,0.2-1.1,0.8-1.3c0.3-0.1,0.7,0,0.9,0.2C74.6,6.7,76.3,17.6,70.8,25.5z"/>
		<path class="st4" d="M62.1,32.9l-0.4,2.2c-2.7-1.6-7.3-4-10.8-4.5c-3.8-0.6-6.4-1-8.5-1.3l-1.3-12.8c2.3,0.1,4.6,0.8,6.7,1.9
			c1.6,0.8,3,1.9,4.2,3.1l0.4-0.1c-0.8,4,0.4,6.7,2.7,9c1.1,1.1,2.5,1.9,4,2.2c0.1,0,0.5,0.2,0.6,0.2C60.5,33.1,61.3,33.1,62.1,32.9
			"/>
		<path class="st3" d="M62.1,32.9l-0.4,2.2c-2.7-1.6-7.3-4-10.8-4.5c-3.8-0.6-6.4-1-8.5-1.3l-1.3-12.8c2.3,0.1,4.6,0.8,6.7,1.9
			c1.6,0.8,3,1.9,4.2,3.1l0.4-0.1c-0.8,4,0.4,6.7,2.7,9c1.1,1.1,2.5,1.9,4,2.2l0.6,0.1C61,32.9,61.4,33.1,62.1,32.9z"/>
		<path class="st3" d="M41.1,16.5h-0.4"/>
		<path class="st2" d="M62.2,32.4c0.7,0.8,0.5,2-0.3,2.7c-0.1,0.1-0.1,0.1-0.2,0.2"/>
		<path class="st7" d="M62.2,32.4c0.7,0.8,0.5,2-0.3,2.7c-0.1,0.1-0.1,0.1-0.2,0.2"/>
		<path class="st2" d="M12.9,32.4c-0.7,0.8-0.5,2,0.3,2.7c0.1,0.1,0.1,0.1,0.2,0.2"/>
		<path class="st7" d="M12.9,32.4c-0.7,0.8-0.5,2,0.3,2.7c0.1,0.1,0.1,0.1,0.2,0.2"/>
		<path class="st8" d="M33.8,57.6c0.7,0.2,1.5,0.1,2.2-0.3c1.1-0.4,1.8-1.5,1.7-2.7c-0.1,1.2,0.6,2.3,1.7,2.7
			c0.7,0.3,1.4,0.4,2.1,0.3"/>
		<path class="st9" d="M41.6,51.2c0,1.2-1.8,2.8-4,2.8s-4-1.6-4-2.8s1.8-1.6,4-1.6S41.6,50.1,41.6,51.2"/>
		<path class="st1" d="M39.2,50.8c0,0.3-0.8,0.7-1.7,0.7s-1.7-0.4-1.7-0.6s0.8-0.2,1.7-0.2S39.2,50.5,39.2,50.8"/>
		<path class="st8" d="M31.3,54.6c-0.1,1.4,0.8,2.6,2.2,2.9h0.3"/>
		<path class="st8" d="M37.7,53.2c0,0.5,0,0.9,0,1.4"/>
		<path class="st8" d="M41.6,57.6h0.3c1.4-0.3,2.4-1.5,2.2-2.9"/>
		<path class="st3" d="M67,0.7c7.6,6,9.2,16.8,3.7,24.7"/>
		<path class="st3" d="M19.4,30.3c-1.1,1.1-2.5,1.9-4,2.2l-0.6,0.1c-0.6,0.2-1.2,0.3-1.9,0.3c-0.1,0-0.3,0-0.4,0
			c-0.3-0.1-0.7-0.2-1-0.3c-1.1-0.5-2.1-1.1-3-1.9c-1.8-1.5-3.5-3.2-4.8-5.2C-1.8,17.5-0.1,6.7,7.5,0.7C8,0.4,8.6,0.4,9,0.9
			c0.2,0.3,0.3,0.6,0.2,0.9C8.5,5,7.9,10,10.9,14.3c2.6,3.6,8,7.1,11.3,7.1C22.9,25.4,21.8,28.1,19.4,30.3z"/>
		<path class="st10" d="M30.3,44.7c0,2.2-1.3,3.9-2.9,3.9s-2.9-1.8-2.9-3.9c0-1.9,1-3.5,2.3-3.9l3.2,2.4
			C30.2,43.7,30.3,44.2,30.3,44.7z"/>
		<path class="st1" d="M29.2,44.2c0,0.8-0.5,1.4-1,1.4s-1-0.6-1-1.4s0.5-1.4,1-1.4S29.2,43.4,29.2,44.2"/>
		<path class="st10" d="M26.8,47.7c-1.1,0.9-2.1,1.9-3,3c-0.4,0.5-0.8,1.1-1.1,1.8c-0.3,0.6-0.5,1.3-0.6,2c-0.1,0.3-0.1,0.7-0.1,1
			l0,0.5v0.5c0,0.7,0,1.4,0,2.2c0.1,0.7,0.2,1.5,0.3,2.2c0.1,0.4,0.1,0.7,0.2,1.1c0.1,0.3,0.2,0.7,0.4,1c-0.2-0.3-0.3-0.7-0.5-1
			c-0.1-0.3-0.3-0.7-0.4-1c-0.2-0.7-0.4-1.4-0.6-2.2c-0.1-0.7-0.2-1.5-0.3-2.2l0-0.5v-0.6c0-0.4,0-0.8,0-1.1
			c0.1-0.8,0.2-1.6,0.5-2.3c0.3-0.7,0.6-1.4,1-2.1c0.9-1.3,1.8-2.5,2.9-3.5c0.4-0.3,0.9-0.3,1.3,0C27.1,46.7,27.2,47.3,26.8,47.7
			L26.8,47.7L26.8,47.7z"/>
		<path class="st10" d="M26.1,47.4c-0.1,0-0.1,0-0.2,0h-0.1h-0.2l-0.5-0.1c-0.3-0.1-0.6-0.1-0.9-0.1c-0.6,0-1.3,0-1.9,0.2
			c-0.3,0.1-0.6,0.2-0.9,0.3c-0.9,0.4-1.7,1.1-2.2,1.9c0.3-0.7,0.6-1.3,1.1-1.8c0.2-0.3,0.5-0.5,0.8-0.7c0.3-0.2,0.6-0.4,0.9-0.6
			c0.6-0.4,1.3-0.6,2.1-0.8c0.4-0.1,0.7-0.1,1.1-0.1c0.2,0,0.4,0,0.6,0h0.4c0,0,0.1,0,0,0c0.5,0,0.9,0.4,1,0.9S26.7,47.4,26.1,47.4
			C26.2,47.4,26.1,47.4,26.1,47.4"/>
		<path class="st10" d="M50.8,44.7c0,2.2-1.3,3.9-2.8,3.9s-2.9-1.8-2.9-3.9c0-0.5,0.1-1,0.2-1.5l3.2-2.4
			C49.8,41.2,50.8,42.8,50.8,44.7z"/>
		<path class="st1" d="M46.1,44.2c0,0.8,0.5,1.4,1,1.4s1-0.6,1-1.4s-0.5-1.4-1-1.4S46.1,43.4,46.1,44.2"/>
		<path class="st10" d="M49.8,46.3c1.1,1.1,2,2.2,2.8,3.5c0.4,0.6,0.8,1.3,1.1,2c0.3,0.7,0.5,1.5,0.6,2.2c0.1,0.8,0.1,1.5,0,2.3
			c-0.1,0.7-0.2,1.5-0.3,2.2c-0.1,0.7-0.3,1.4-0.5,2.1c-0.1,0.3-0.2,0.7-0.4,1c-0.1,0.3-0.3,0.7-0.5,1c0.1-0.3,0.3-0.7,0.4-1
			c0.1-0.3,0.2-0.7,0.3-1c0.1-0.7,0.3-1.4,0.3-2.1c0.1-0.7,0.1-1.4,0.1-2.2c0-0.7-0.1-1.4-0.2-2.1c-0.2-0.7-0.4-1.3-0.7-1.9
			c-0.3-0.6-0.7-1.2-1.2-1.7c-0.9-1.1-1.9-2.1-3-3l0,0c-0.4-0.4-0.4-0.9,0-1.3c0.3-0.3,0.8-0.4,1.2-0.1L49.8,46.3"/>
		<path class="st10" d="M49.2,45.6L49.2,45.6h0.5c0.2,0,0.4,0,0.6,0c0.4,0,0.8,0,1.2,0.1c0.8,0.1,1.5,0.3,2.2,0.6
			c0.7,0.3,1.3,0.8,1.9,1.3c0.5,0.5,0.9,1.2,1.2,1.8c-0.4-0.6-0.9-1.1-1.5-1.5c-0.6-0.4-1.2-0.7-1.9-0.8C52.7,47,52,47,51.3,47
			c-0.3,0-0.7,0.1-1,0.1l-0.5,0.1h-0.2h-0.1h-0.1h-0.1c-0.5,0.1-1-0.3-1-0.8c-0.1-0.5,0.3-1,0.8-1c0.1,0,0.1,0,0.2,0"/>
	</g>
</g>
</svg>
