<svg width="32" height="32" viewBox="0 0 32 32" fill="none" xmlns="http://www.w3.org/2000/svg">
<path d="M16 32C24.8366 32 32 24.8366 32 16C32 7.16344 24.8366 0 16 0C7.16344 0 0 7.16344 0 16C0 24.8366 7.16344 32 16 32Z" fill="#00EF8B"/>
<path d="M23.008 13.504H18.496V18.016H23.008V13.504Z" fill="white"/>
<path d="M13.984 19.712C13.984 20.64 13.216 21.408 12.288 21.408C11.36 21.408 10.592 20.64 10.592 19.712C10.592 18.784 11.36 18.016 12.288 18.016H13.984V13.504H12.288C8.86399 13.504 6.07999 16.288 6.07999 19.712C6.07999 23.136 8.86399 25.92 12.288 25.92C15.712 25.92 18.496 23.136 18.496 19.712V18.016H13.984V19.712Z" fill="white"/>
<path d="M20.192 11.232H25.28V6.71997H20.192C16.768 6.71997 13.984 9.50397 13.984 12.928V13.504H18.496V12.928C18.496 12 19.264 11.232 20.192 11.232Z" fill="white"/>
<path d="M18.496 13.504H13.984V18.016H18.496V13.504Z" fill="#16FF99"/>
</svg>
