<svg height="32" viewBox="0 0 32 32" width="32" xmlns="http://www.w3.org/2000/svg"><g fill="none"><circle cx="16" cy="16" fill="#27323a" r="16"/><path d="m24.6026605 6s1.6471455 1.46351945.4782036 4.4432029c-.2231617.5475037-.5313373 1.0581562-.9139001 1.5056352l-4.0647301 4.7695993-3.2624108 4.2589469s-3.7459277-.6159416-5.2017918.894958l6.174139.2737518s-1.3177164 1.4424616-6.5195082.4106278c0 0 .0690738 1.447726 2.4282113 1.8583538 0 0-2.0828421.689644-3.3314846-1.3055857 0 0 0 1.4477261 1.4558641 2.0636677 0 0-1.1795688.2737518-2.15191595-.9633959l-1.66308563 1.7846514s-.34536923.068438-.13814769-.2737518l1.38679025-1.6477755s.13814769-1.1687098-.69605181-.758082c0 0-.55259075.2053139-.34536922.82652 0 0-.8341995-.6843796.13814769-1.5793376l-1.87562054-1.8583538 2.42821129 1.3055857-1.04142104-2.5427335 1.73215948 2.2005437s-.14346106-2.4742955.62166457-3.1586751c0 0 .2072216 2.4058575 1.1795687 2.6111714l-.0690738-5.0170289 1.041421-.894958.1381477 3.1586751s.2762954.3421898.5525908-.0684379c0 0 .6269779-1.0318339.6269779-4.0536331l1.6630857-1.5793375.2072215 1.2371477s.2816088.4790658.626978.068438l.3453692-2.4058575s2.2209898-2.54273344 8.0497595-5.5645326zm-11.0996354 13.9508149c5.7543826-5.2907807 8.8095718-10.44468557 8.8042654-10.44468557-2.8426613 1.98996527-8.8042654 10.44468557-8.8042654 10.44468557z" fill="#fff"/></g></svg>