<svg width="32" height="33" viewBox="0 0 32 33" fill="none" xmlns="http://www.w3.org/2000/svg">
<g clip-path="url(#clip0)">
<path d="M16 32.1152C24.8366 32.1152 32 24.9517 32 16.1152C32 7.27862 24.8366 0.115173 16 0.115173C7.16344 0.115173 0 7.27862 0 16.1152C0 24.9517 7.16344 32.1152 16 32.1152Z" fill="#5FCADE"/>
<g clip-path="url(#clip1)">
<path d="M12.0886 8.11619C16.3918 8.11484 20.6953 8.11484 24.9991 8.11619C25.0004 9.53797 25.0004 10.9595 24.9991 12.3808C20.6957 12.3822 16.3923 12.3822 12.0886 12.3808C12.0872 10.959 12.0872 9.53748 12.0886 8.11619Z" fill="white"/>
<path d="M7.0054 13.9852C8.39372 13.9778 9.78228 13.9778 11.1711 13.9852C11.1783 15.4043 11.1783 16.8236 11.1711 18.2432C9.78234 18.2505 8.39378 18.2506 7.0054 18.2435C6.9982 16.8242 6.9982 15.4048 7.0054 13.9852Z" fill="white"/>
<path d="M12.0918 13.9852C15.1978 13.9785 18.3036 13.9785 21.4092 13.9852C21.4158 15.4043 21.4158 16.8237 21.4092 18.2433C18.3032 18.2499 15.1975 18.2499 12.0918 18.2433C12.0854 16.8241 12.0854 15.4048 12.0918 13.9852Z" fill="white"/>
<path d="M12.0957 19.8555C13.4817 19.8401 14.8674 19.8401 16.2529 19.8555C16.2673 21.2713 16.2675 22.6878 16.2535 24.1049C14.8676 24.1189 13.4819 24.1187 12.0964 24.1042C12.082 22.6885 12.0818 21.2723 12.0957 19.8555Z" fill="white"/>
</g>
</g>
<defs>
<clipPath id="clip0">
<rect width="32" height="32" fill="white" transform="translate(0 0.115173)"/>
</clipPath>
<clipPath id="clip1">
<rect width="18" height="16" fill="white" transform="translate(7 8.11517)"/>
</clipPath>
</defs>
</svg>
