<?xml version="1.0" encoding="utf-8"?>
<!-- Generator: Adobe Illustrator 26.0.1, SVG Export Plug-In . SVG Version: 6.00 Build 0)  -->
<svg version="1.1" id="Layer_1" xmlns="http://www.w3.org/2000/svg" xmlns:xlink="http://www.w3.org/1999/xlink" x="0px" y="0px"
	 viewBox="0 0 328 328" style="enable-background:new 0 0 328 328;" xml:space="preserve">
<style type="text/css">
	.st0{fill:#FF0000;}
	.st1{fill-rule:evenodd;clip-rule:evenodd;fill:#FFFFFF;}
</style>
<circle class="st0" cx="164" cy="164" r="164"/>
<path class="st1" d="M246.5,85.4c1.6-1.6,1.6-4.1,0-5.7c-1.6-1.6-4.1-1.6-5.7,0l-71.7,71.7V83.2c0-2.2-1.8-4-4-4s-4,1.8-4,4V152
	l-47.1-47.1c-1.6-1.6-4.1-1.6-5.7,0c-1.6,1.6-1.6,4.1,0,5.7l47.1,47.1H86.7c-2.2,0-4,1.8-4,4s1.8,4,4,4h68.2l-71.1,71.1
	c-1.6,1.6-1.6,4.1,0,5.7c1.6,1.6,4.1,1.6,5.7,0l71.7-71.7V239c0,2.2,1.8,4,4,4s4-1.8,4-4v-67.7l47.1,47.1c1.6,1.6,4.1,1.6,5.7,0
	c1.6-1.6,1.6-4.1,0-5.7l-47.1-47.1h68.8c2.2,0,4-1.8,4-4s-1.8-4-4-4h-69.4L246.5,85.4z"/>
</svg>
