<svg height="32" viewBox="0 0 32 32" width="32" xmlns="http://www.w3.org/2000/svg"><g fill="none" fill-rule="evenodd"><circle cx="16" cy="16" fill="#1666af" r="16"/><path d="m15.6985697 11.0061376v2.0605902h-4.7004694c-.60923 0-1.36022159.2129653-1.91887078.6095544-.69305481.4920046-1.07952442 1.2283332-1.07952442 2.3267866s.38646961 1.8347819 1.07952442 2.3267866c.55864919.3965891 1.30964078.6095544 1.91887078.6095544h2.0008676v2.0605902h-2.0008676c-.9940952 0-2.14021024-.325014-3.05336137-.9732666-1.2275322-.871434-1.94473893-2.2379058-1.94473893-4.0236646s.71720673-3.1522306 1.94473893-4.0236646c.91315113-.6482527 2.05926617-.9732666 3.05336137-.9732666zm-4.9992627 6.1817705v-2.0605901h5.0005781v5.872682h-1.9997051v-3.8120919zm8.2987762-4.1273179v-2.0605902h7.0019168v10h-9.0016219v-7.9332722h1.9997051v5.872682h5.0022117v-5.8788196z" fill="#fff" fill-rule="nonzero"/></g></svg>