<svg height="32" viewBox="0 0 32 32" width="32" xmlns="http://www.w3.org/2000/svg"><g fill="none" fill-rule="evenodd"><circle cx="16" cy="16" fill="#efb914" fill-rule="nonzero" r="16"/><path d="m21.0016811 9.85510634c1.6897551 1.33163836 2.783213 3.29254076 2.9983189 5.42275566l-2.8469125-.7079642c-.516741-1.7465785-1.9381257-3.1886804-3.8595386-3.6664934-2.8669261-.7129411-5.7614386.9909294-6.4650747 3.8057014s1.0500569 5.6745486 3.9169829 6.3874898c1.9214129.4778129 3.8552168-.1299277 5.1335833-1.4301011l2.8469137.7079631c-1.1926169 1.7801454-3.0810774 2.9995105-5.1998433 3.3840538l-.8103066 3.2414886-2.5955144-.6454471.6435642-2.5744648c-.2182891-.0358764-.4369079-.0808557-.6554199-.1351948-.2185119-.0543391-.4327125-.1169924-.6423373-.1875288l-.6435642 2.5744648-2.5955144-.6454471.8103066-3.2414885c-2.37860505-1.8744976-3.57563879-4.9958905-2.80436501-8.081235s3.29742791-5.2808629 6.27993531-5.82217012l.8103067-3.24148858 2.5955144.64544711-.6435642 2.57446483c.2182891.03587638.4369079.08085562.6554198.13519472.218512.0543391.4327126.11699249.6423374.18752883l.6435642-2.57446483 2.5955144.64544711z" fill="#fff"/></g></svg>