<?xml version="1.0" encoding="UTF-8"?>
<svg width="32px" height="32px" viewBox="0 0 32 32" version="1.1" xmlns="http://www.w3.org/2000/svg" xmlns:xlink="http://www.w3.org/1999/xlink">
    <!-- Generator: Sketch 53 (72520) - https://sketchapp.com -->
    <title>svg/color/grin</title>
    <desc>Created with Sketch.</desc>
    <g id="color/grin" stroke="none" stroke-width="1" fill="none" fill-rule="evenodd">
        <g id="Group" fill="#FFF300" fill-rule="nonzero">
            <circle id="Oval" cx="16" cy="16" r="16"></circle>
        </g>
        <g id="grin" transform="translate(4.000000, 5.000000)" fill="#FFFFFF" fill-rule="nonzero">
            <path d="M18.6399899,4.56793554 C18.3008957,3.80672409 17.9849747,2.30280634 17.1153998,1.96838011 C15.9959221,1.5379272 15.3038966,4.35604335 15.1390174,5.06807447 L14.9723045,5.06807447 C14.6900594,3.84806891 14.3112875,2.11892192 12.9717488,1.73381495 C12.3515765,4.33853848 13.6195954,7.14848569 14.8055915,9.40261184 C16.0719433,8.79744373 16.688948,6.90225063 16.8061472,5.56821339 L16.9728602,5.56821339 L18.306564,9.56932481 C19.3795287,9.26090581 19.7527991,8.19911086 20.14024,7.23534315 C20.971971,5.16676855 21.6698316,2.62272854 21.1406846,0.400111142 C19.5394064,0.853570436 19.0522711,3.14337316 18.6399899,4.56793554 L18.6399899,4.56793554 Z M2.63554426,9.90275076 C4.06844229,9.21856071 4.75029836,7.05295916 4.96952592,5.56821339 L5.1362389,5.56821339 C5.305786,6.2839122 5.75907858,8.13025841 6.65332698,8.24879133 C7.79264346,8.39949986 8.38997605,5.8714643 8.47049842,5.06807447 L8.63721139,5.06807447 C9.00047897,6.32325646 9.38325196,7.95554321 10.6377671,8.56904696 C11.1005623,6.62517366 10.5464084,4.5520978 9.83554426,2.7340928 C9.65282684,2.26662962 9.27755593,1.00627952 8.63304357,1.00627952 C7.57708358,1.00627952 6.98341867,3.78971937 6.80336866,4.56793554 L6.63665568,4.56793554 L5.30295188,0.566824118 C2.95696688,1.68713532 1.68261289,7.64429008 2.63554426,9.90275076 L2.63554426,9.90275076 Z M0.134849625,11.9033065 C1.87583323,19.4972492 9.90623056,23.8022784 17.1395732,20.5953876 C19.7721378,19.4282301 21.8603845,17.3486524 23.0643856,14.7374271 C23.375472,14.0627396 23.9864751,12.8415671 23.6302094,11.9563212 C23.2754442,11.0745763 19.8346551,12.5153098 18.9749163,12.891581 C18.8542161,12.9452626 18.7690258,13.0566268 18.7491869,13.1873298 C18.7491869,13.1873298 18.7491869,13.1873298 18.7491869,13.1873298 C18.7210124,13.3722145 18.7710263,13.5606002 18.8875587,13.7071409 C19.0039244,13.8536816 19.1761389,13.9450403 19.3626907,13.9593776 C19.9930325,14.0078911 20.8072586,14.0705752 20.8072586,14.0705752 C18.1920322,19.1328147 11.121068,21.3711031 6.13651675,17.326813 C5.02087352,16.4217283 4.02559705,15.3462629 3.35574432,14.0705752 C3.03182101,13.4537371 2.73140422,12.6648513 2.18075126,12.2415671 C1.65177099,11.8347874 0.849214726,11.6954154 0.134849625,11.9033065 Z" id="path847"></path>
        </g>
    </g>
</svg>