<svg width="32" height="32" viewBox="0 0 32 32" fill="none" xmlns="http://www.w3.org/2000/svg">
<path d="M32 16C32 24.8365 24.8365 32 16 32C7.1635 32 0 24.8365 0 16C0 7.1635 7.1635 0 16 0C24.8365 0 32 7.1635 32 16Z" fill="url(#paint0_linear)"/>
<path fill-rule="evenodd" clip-rule="evenodd" d="M14.3333 19.2222C11.6333 19.2222 9.44444 17.0334 9.44444 14.3333C9.44444 11.6332 11.6333 9.44444 14.3333 9.44444C17.0335 9.44444 19.2222 11.6332 19.2222 14.3333C19.2222 17.0334 17.0335 19.2222 14.3333 19.2222ZM14.3333 7C18.3834 7 21.6666 10.2832 21.6666 14.3333C21.6666 18.3834 18.3834 21.6666 14.3333 21.6666C10.2833 21.6666 7 18.3834 7 14.3333C7 10.2832 10.2833 7 14.3333 7ZM21.3087 22.0245C21.786 22.5019 21.786 23.2756 21.3087 23.753L16.4197 28.642C15.9423 29.1193 15.1686 29.1193 14.6912 28.642C14.2139 28.1647 14.2139 27.3909 14.6912 26.9136L19.5803 22.0245C20.0576 21.5472 20.8314 21.5472 21.3087 22.0245ZM24.1111 8.22222C24.1111 8.89733 23.5639 9.44444 22.889 9.44444C22.2139 9.44444 21.6668 8.89733 21.6668 8.22222C21.6668 7.54711 22.2139 7 22.889 7C23.5639 7 24.1111 7.54711 24.1111 8.22222Z" fill="white"/>
<defs>
<linearGradient id="paint0_linear" x1="27.5" y1="5.5" x2="8" y2="29.5" gradientUnits="userSpaceOnUse">
<stop stop-color="#3D1B8D"/>
<stop offset="1" stop-color="#4A7DCF"/>
</linearGradient>
</defs>
</svg>
