<svg width="32" height="32" viewBox="0 0 32 32" xmlns="http://www.w3.org/2000/svg"><defs><filter color-interpolation-filters="auto" id="a"><feColorMatrix in="SourceGraphic" values="0 0 0 0 1.000000 0 0 0 0 1.000000 0 0 0 0 1.000000 0 0 0 1.000000 0"/></filter></defs><g fill="none" fill-rule="evenodd"><circle fill="#5942CC" fill-rule="nonzero" cx="16" cy="16" r="16"/><g filter="url(#a)"><path d="M20.707 19.543a1 1 0 010 1.414l-4 4a1 1 0 11-1.414-1.414l4-4a1 1 0 011.414 0zM15 7.25a6 6 0 110 12 6 6 0 010-12zm0 2a4 4 0 100 8 4 4 0 000-8zm7-2a1 1 0 110 2 1 1 0 010-2z" fill="#000" fill-rule="nonzero"/></g></g></svg>