<svg height="32" viewBox="0 0 32 32" width="32" xmlns="http://www.w3.org/2000/svg"><g fill="none" fill-rule="evenodd"><circle cx="16" cy="16" fill="#292929" r="16"/><path d="m15.0069144 18.6570136c0-.4592788.0020016-.9185916-.001301-1.3778022-.0009007-.1277629.0362949-.2257224.1552873-.2779038.109385-.0480261.2252084-.0143397.3211829.097687.2862224.3341385.5702765.6702186.8551312 1.0055493.0998776.1175786.2012563.233897.2980983.3539962.02145.0265675.0375958.0666574.0377626.1005821.0023685.4847905.0029357.9695809.001201 1.4543714-.0016013.450457-.3386965.8220967-.7713327.8542844-.4351048.0324261-.8187362-.2802541-.8881234-.726215-.0085734-.0550426-.0075059-.1119245-.007606-.1679889-.0005337-.4388422-.0003002-.8776843-.0003002-1.3165605zm.0030357-9.00961588c-.0010008-.01965321-.0029022-.03927235-.0029022-.05892556-.0001335-.91085972-.0012343-1.8217535.000467-2.73261322.0007672-.42044919.2880905-.77393443.6783938-.84256738.512198-.09012545.9772927.28846276.9827636.82080239.0096075.93116009.0048038 1.86245642.0058712 2.79368463.0000334.00895804-.0015345.01795015-.0043367.04836664-.1943176-.33246959-.4626595-.4977677-.8283436-.4969843-.3622481.0007834-.6322246.15930338-.8319131.4682368zm-.0030357 12.61235188c.2039919.3102958.4763702.4684411.8413871.4673171.3632156-.0010899.6284217-.1670693.8264088-.4752193v.0718688c0 .7476052.000834 1.4951764-.0005337 2.2427476-.0004337.2268805.0066385.4550552-.0136106.6804029-.040298.4474596-.4241295.7717205-.8696424.7523057-.4257642-.0185973-.7803063-.3889768-.7824079-.8323832-.00427-.8930117-.0015012-1.7859894-.0016013-2.6790011 0-.0760242 0-.1520143 0-.2280385zm1.6677959-8.8256524c0 .5536619.0000334 1.1072896 0 1.6609515-.0000333.1578387-.0502056.2441834-.1694316.2921754-.1275992.0513299-.2634047.0174392-.3597462-.0946896-.2422216-.281889-.4830087-.5651064-.7243962-.8477447-.124797-.1461218-.2509951-.2910173-.3733234-.4392849-.021817-.0264995-.0390971-.0666915-.0391972-.1006163-.0021683-.7143617-.0041032-1.4287915-.0005337-2.1431532.0022017-.4449391.3216499-.7906925.7663955-.8413072.39464-.0449264.7868447.249531.8784159.6632702.0152452.0689736.0206494.1414895.0208829.2124045.0016679.5459981.000934 1.0919962.000934 1.6379943zm1.7317123-3.3766389c.0000667-.74011183-.0009007-1.48025774.0004003-2.22036958.0007339-.4025331.2301789-.7296551.5860888-.84236301.5406868-.17122473 1.0797056.23743935 1.0830415.8251622.0031358.55379808.0007339 1.10763022.0007339 1.66142829 0 .9315348.0006672 1.8630695-.0003669 2.7946043-.0004003.4129557-.2484931.7468559-.6269205.8495839-.4932833.1338939-.9966077-.2288219-1.0376396-.7483546-.0040031-.050785-.0050706-.1019446-.005104-.152934-.0003336-.7222638-.0002335-1.4445277-.0002335-2.1667575zm-5.0448867 10.7019375c.0002002.8547953.0011342 1.7096246-.0002335 2.564454-.0006672.4255924-.2831534.7685868-.6927383.8472678-.4801397.0922032-.9581779-.2984426-.9727892-.797164-.0042033-.1427498-.0012677-.2857379-.0012677-.4286579-.0000333-1.5845867-.000467-3.1692074.0003336-4.753794.0002002-.3980711.2564993-.7350368.6278546-.831736.5215719-.1358353 1.0354379.2624742 1.0378397.812185.003803.862459.0010008 1.724952.0010008 2.5874451zm.0002335-9.4466187c-.0000333 1.1663514.0006338 2.3327028-.0004337 3.4990202-.0003335.4123767-.2656063.7498192-.6552091.8400128-.5062267.1172039-1.0058816-.2805947-1.0104518-.8104819-.0043701-.5052952-.0011676-1.0106585-.0012009-1.5159878 0-1.8350373-.0003336-3.67004052.0003002-5.50504376.0001334-.41254704.2675412-.75608646.6520734-.84297611.517869-.11699959 1.0117861.27940252 1.0138544.82110894.0033693.89835933.0010008 1.79675271.0010675 2.69511203zm5.0446532 8.1859183c.0000334-1.2658436 0-2.5316532.0000667-3.7974969 0-.3787925.1615255-.6611243.4998217-.8181797.541354-.2513021 1.1492264.1492214 1.1698424.7625922.0006338.0178479.0005004.03573.0005004.0535779 0 2.5316533.0001668 5.0633065-.0001668 7.5949938-.0000334.418133-.2395195.750262-.6161121.8580992-.4945176.1415575-1.0065154-.2202726-1.0482812-.7415084-.0043034-.0533055-.0054042-.1070197-.0054376-.1605296-.0003002-1.2505161-.0002335-2.5010323-.0002335-3.7515485zm5.0933577-3.8658233c0 1.9801713.0002335 3.9603086-.0002001 5.9404798-.0000668.4220842-.2709773.7644996-.6705878.8515595-.4922491.1072582-.9819964-.2855675-.9958404-.7988671-.0007006-.0255117-.000734-.0510234-.000734-.0765351 0-3.9475697-.0000667-7.8951394.0000668-11.84270906 0-.38468513.1932168-.69191551.519537-.82798927.5498606-.22926471 1.1469912.18447447 1.1473582.79828806.0011009 1.98524637.0004003 3.97052687.0004003 5.95577317zm-13.3323597-.0088558c-.0000333 1.9829302.0002669 3.9658604-.0002668 5.9487907-.0001335.4204832-.25946832.7568698-.65204002.8504354-.50082249.119418-1.00107787-.2744977-1.01465509-.7990033-.00043367-.017848-.00043367-.03573-.00043367-.053578 0-3.9607172-.00010008-7.9214685.00010008-11.88221985.00003336-.40924312.24462341-.74157647.62038205-.84576912.51713517-.14336282 1.04087545.25429956 1.04527885.80196665.0053375.65584492.0015679 1.31172382.0016013 1.96760282.0000667 1.3372695.0000333 2.6745051.0000333 4.0117747z" fill="#fff"/></g></svg>