<svg width="32" height="35" viewBox="0 0 32 35" fill="none" xmlns="http://www.w3.org/2000/svg">
<path d="M16 33C24.8365 33 32 25.8365 32 17C32 8.16345 24.8365 1 16 1C7.16345 1 0 8.16345 0 17C0 25.8365 7.16345 33 16 33Z" fill="white"/>
<path d="M22.6848 11C21.2332 11 19.648 11.7443 17.9734 13.2117C17.1804 13.9068 16.4929 14.6507 15.977 15.2474C15.9779 15.2483 15.9788 15.2492 15.9797 15.2506C15.9811 15.2488 15.982 15.2479 15.982 15.2479C15.982 15.2479 16.7958 16.1339 17.6913 17.0823C18.1734 16.5095 18.8698 15.7277 19.6706 15.0262C21.1592 13.7213 22.1315 13.4478 22.6848 13.4478C24.7729 13.4478 26.4714 15.1039 26.4714 17.1391C26.4714 19.1631 24.772 20.8178 22.6821 20.8305C22.5869 20.8305 22.4646 20.8187 22.3138 20.7853C22.9227 21.0489 23.5772 21.2385 24.2006 21.2385C28.0278 21.2385 28.7757 18.741 28.8267 18.5641C28.94 18.1064 29 17.6298 29 17.1396C28.9996 13.7538 26.1667 11 22.6848 11Z" fill="url(#paint0_linear)"/>
<path d="M9.31516 23.2773C10.7668 23.2773 12.352 22.533 14.0266 21.0656C14.8197 20.3705 15.5071 19.6266 16.023 19.0299C16.0221 19.029 16.0212 19.0281 16.0203 19.0267C16.019 19.0285 16.0181 19.0294 16.0181 19.0294C16.0181 19.0294 15.2042 18.1434 14.3087 17.1951C13.8266 17.7679 13.1302 18.5496 12.3294 19.2511C10.8408 20.556 9.86855 20.8295 9.31516 20.8295C7.22711 20.8295 5.52859 19.1734 5.52859 17.1382C5.52859 15.1142 7.22801 13.4595 9.31787 13.4469C9.41311 13.4469 9.53543 13.4586 9.68619 13.492C9.07729 13.2284 8.4228 13.0388 7.79945 13.0388C3.97226 13.0388 3.22433 15.5363 3.17333 15.7132C3.06003 16.1709 3 16.6475 3 17.1377C3.00045 20.5235 5.83327 23.2773 9.31516 23.2773Z" fill="url(#paint1_linear)"/>
<path d="M24.1933 21.1762C22.2339 21.1279 20.1973 19.5829 19.7816 19.1987C18.7082 18.2062 16.2311 15.5187 16.0365 15.3079C14.2207 13.2749 11.7602 11 9.31513 11H9.31197H9.30881C6.33652 11.0149 3.83862 13.0276 3.17419 15.7141C3.2252 15.5372 4.20152 12.9924 7.79716 13.0808C9.75657 13.1291 11.8031 14.6949 12.2184 15.0791C13.2917 16.0716 15.7698 18.7596 15.9634 18.9703C17.7793 21.0029 20.2397 23.2774 22.6848 23.2774H22.688H22.6911C25.6634 23.2625 28.1613 21.2498 28.8257 18.5632C28.7752 18.7401 27.7889 21.2647 24.1933 21.1762Z" fill="#29ABE2"/>
<defs>
<linearGradient id="paint0_linear" x1="19.3977" y1="11.8095" x2="27.9833" y2="20.7002" gradientUnits="userSpaceOnUse">
<stop offset="0.21" stop-color="#F15A24"/>
<stop offset="0.6841" stop-color="#FBB03B"/>
</linearGradient>
<linearGradient id="paint1_linear" x1="12.6023" y1="22.4678" x2="4.01672" y2="13.5772" gradientUnits="userSpaceOnUse">
<stop offset="0.21" stop-color="#ED1E79"/>
<stop offset="0.8929" stop-color="#522785"/>
</linearGradient>
</defs>
</svg>
