<svg height="32" viewBox="0 0 32 32" width="32" xmlns="http://www.w3.org/2000/svg"><g fill="none" fill-rule="evenodd"><circle cx="16" cy="16" fill="#1fc5c9" r="16"/><path d="m11.2961059 22.4716611 2.1639349-2.163935c.7443916.4398622 1.6126984.6922739 2.5399592.6922739 2.7614237 0 5-2.2385763 5-5 0-.9272608-.2524117-1.7955676-.6922739-2.5399592l2.163935-2.1639349c.9612433 1.3202138 1.5283389 2.9458278 1.5283389 4.7038941 0 4.418278-3.581722 8-8 8-1.7580663 0-3.3836803-.5670956-4.7038941-1.5283389zm-1.76776696-1.767767c-.96124334-1.3202138-1.52833894-2.9458278-1.52833894-4.7038941 0-4.418278 3.581722-8 8-8 1.7580663 0 3.3836803.5670956 4.7038941 1.52833894l-2.1639349 2.16393496c-.7443916-.4398622-1.6126984-.6922739-2.5399592-.6922739-2.7614237 0-5 2.2385763-5 5 0 .9272608.2524117 1.7955676.6922739 2.5399592zm14.47166106-10.7038941c-1.1045695 0-2-.8954305-2-2s.8954305-2 2-2 2 .8954305 2 2-.8954305 2-2 2zm-16 16c-1.1045695 0-2-.8954305-2-2s.8954305-2 2-2 2 .8954305 2 2-.8954305 2-2 2z" fill="#fff"/></g></svg>