<svg width="32" height="32" viewBox="0 0 32 32" fill="none" xmlns="http://www.w3.org/2000/svg">
<path d="M32 16C32 24.8365 24.8365 32 16 32C7.1635 32 0 24.8365 0 16C0 7.1635 7.1635 0 16 0C24.8365 0 32 7.1635 32 16Z" fill="white"/>
<path d="M16.0009 5.34221e-05C19.1726 0.000232996 22.2727 0.943068 24.9074 2.70881C27.5422 4.47455 29.5927 6.98353 30.7985 9.91707C32.0043 12.8506 32.3111 16.0764 31.6798 19.1846C31.0485 22.2929 29.5077 25.1434 27.253 27.3741C24.9983 29.6048 22.1315 31.115 19.0166 31.713C15.9018 32.311 12.6795 31.9698 9.75906 30.7326C6.83858 29.4955 4.35169 27.4183 2.61423 24.7648C0.876774 22.1113 -0.032844 19.0013 0.000906255 15.8298C0.0870599 7.10568 7.2173 -0.0225106 16.0009 5.34221e-05ZM16.3414 1.16108C7.84499 1.16313 1.20706 7.79491 1.17219 15.9077C1.13526 24.1005 7.79576 30.841 16.0009 30.8123C20.0645 30.7979 23.5742 29.36 26.446 26.4944C29.7137 23.2349 31.1455 19.2369 30.7721 14.6585C30.5098 11.1994 28.9916 7.95571 26.5034 5.5385C23.6091 2.66672 20.0891 1.21441 16.3373 1.16108H16.3414Z" fill="#004B6A"/>
<path d="M30.3762 14.4287C30.0692 11.1655 28.6156 8.1167 26.2737 5.82363C23.4409 2.98056 19.9886 1.53646 15.964 1.5303C12.1873 1.60679 8.59034 3.15754 5.94197 5.8511C3.2936 8.54465 1.80391 12.1673 1.79132 15.9447C1.77873 19.7222 3.24423 23.3547 5.87459 26.0658C8.50494 28.777 12.0915 30.3517 15.8675 30.4533C19.8757 30.482 23.3527 29.079 26.1834 26.2441C29.4347 22.9908 30.8378 19.0174 30.3762 14.4287ZM22.247 4.74466C22.3344 4.74632 22.4193 4.7739 22.491 4.8239C22.5627 4.8739 22.6179 4.94407 22.6496 5.02549C22.6813 5.10692 22.6881 5.19594 22.6692 5.28125C22.6502 5.36656 22.6063 5.44432 22.5431 5.50465C22.4799 5.56499 22.4002 5.60518 22.3141 5.62013C22.228 5.63508 22.1394 5.62411 22.0595 5.58861C21.9797 5.55312 21.9121 5.4947 21.8655 5.42077C21.8189 5.34684 21.7954 5.26073 21.7978 5.17337C21.8015 5.0573 21.8507 4.94733 21.9347 4.86715C22.0188 4.78697 22.1309 4.74298 22.247 4.74466ZM20.2675 3.82363C20.3874 3.82418 20.5022 3.87218 20.5868 3.95713C20.6713 4.04209 20.7188 4.15709 20.7188 4.27697C20.7151 4.39322 20.6655 4.50329 20.581 4.5832C20.4965 4.66311 20.3838 4.7064 20.2675 4.70363C20.2098 4.7045 20.1524 4.69362 20.099 4.67166C20.0455 4.64969 19.9971 4.61711 19.9566 4.57587C19.9161 4.53463 19.8845 4.48559 19.8635 4.43175C19.8426 4.3779 19.8328 4.32036 19.8347 4.26261C19.8352 4.1474 19.8808 4.03697 19.9617 3.95494C20.0426 3.8729 20.1523 3.82577 20.2675 3.82363ZM18.1834 3.25748C18.2964 3.26857 18.4023 3.31759 18.4839 3.39655C18.5655 3.47552 18.6179 3.57978 18.6327 3.69235C18.6243 3.81441 18.5694 3.9286 18.4793 4.01141C18.3893 4.09422 18.2709 4.13934 18.1486 4.13748C18.0334 4.13373 17.9243 4.08506 17.8445 4.00187C17.7648 3.91868 17.7208 3.80758 17.7219 3.69235C17.7272 3.57409 17.7784 3.46256 17.8645 3.38138C17.9507 3.3002 18.0651 3.25576 18.1834 3.25748ZM16.0009 3.07697C16.0876 3.07657 16.1725 3.10187 16.2449 3.14968C16.3172 3.19748 16.3738 3.26566 16.4075 3.34559C16.4411 3.42553 16.4504 3.51365 16.434 3.59882C16.4176 3.68399 16.3764 3.7624 16.3155 3.82416C16.2546 3.88592 16.1767 3.92825 16.0918 3.94581C16.0069 3.96338 15.9186 3.95539 15.8382 3.92285C15.7578 3.89032 15.6889 3.8347 15.6401 3.76301C15.5913 3.69132 15.5648 3.60677 15.564 3.52004C15.5639 3.40359 15.6098 3.29182 15.6915 3.2089C15.7733 3.12598 15.8844 3.07859 16.0009 3.07697ZM13.845 3.25953C13.9577 3.2659 14.0641 3.31355 14.144 3.39338C14.2238 3.47321 14.2714 3.57963 14.2778 3.69235C14.2776 3.7515 14.2654 3.81 14.2421 3.86437C14.2188 3.91873 14.1848 3.96786 14.1421 4.00881C14.0995 4.04977 14.049 4.08172 13.9937 4.10277C13.9384 4.12381 13.8795 4.13353 13.8204 4.13132C13.7633 4.13079 13.7068 4.11901 13.6543 4.09666C13.6017 4.07431 13.5541 4.04182 13.5141 4.00106C13.4741 3.9603 13.4425 3.91205 13.4211 3.85908C13.3998 3.80612 13.3891 3.74946 13.3896 3.69235C13.3943 3.5764 13.4433 3.46668 13.5265 3.38578C13.6097 3.30488 13.7207 3.25896 13.8368 3.25748L13.845 3.25953ZM11.7363 3.82363C11.8525 3.82525 11.9634 3.87271 12.0449 3.95569C12.1263 4.03867 12.1717 4.15045 12.1711 4.26671C12.1725 4.32429 12.1623 4.38157 12.1409 4.43507C12.1196 4.48858 12.0876 4.53721 12.047 4.57803C12.0064 4.61886 11.9579 4.65104 11.9045 4.67262C11.8511 4.69421 11.7939 4.70476 11.7363 4.70363C11.6768 4.7053 11.6176 4.69492 11.5623 4.67311C11.5069 4.65131 11.4566 4.61853 11.4142 4.57675C11.3719 4.53498 11.3384 4.48507 11.3158 4.43002C11.2933 4.37498 11.2821 4.31593 11.2829 4.25645C11.2887 4.13998 11.339 4.03017 11.4233 3.94964C11.5076 3.86912 11.6197 3.82401 11.7363 3.82363ZM9.75473 4.74466C9.81504 4.74054 9.87555 4.74886 9.93251 4.7691C9.98947 4.78935 10.0417 4.82109 10.0858 4.86235C10.13 4.90361 10.1652 4.95351 10.1893 5.00896C10.2134 5.0644 10.2258 5.12421 10.2258 5.18466C10.2258 5.2451 10.2134 5.30491 10.1893 5.36035C10.1652 5.4158 10.13 5.4657 10.0858 5.50696C10.0417 5.54822 9.98947 5.57996 9.93251 5.60021C9.87555 5.62045 9.81504 5.62878 9.75473 5.62465C9.64323 5.61704 9.53878 5.56737 9.46249 5.48569C9.3862 5.40401 9.34377 5.29642 9.34377 5.18466C9.34377 5.07289 9.3862 4.9653 9.46249 4.88362C9.53878 4.80194 9.64323 4.75227 9.75473 4.74466ZM7.98448 5.98978C8.10078 5.99243 8.21152 6.04008 8.29339 6.12272C8.37527 6.20536 8.42189 6.31654 8.42346 6.43286C8.42292 6.54912 8.37649 6.66046 8.29429 6.74266C8.21208 6.82487 8.10074 6.87129 7.98448 6.87183C7.92684 6.87434 7.86929 6.86508 7.81535 6.84461C7.7614 6.82414 7.7122 6.79289 7.67073 6.75277C7.62927 6.71265 7.59642 6.6645 7.57418 6.61126C7.55195 6.55802 7.54079 6.50081 7.54141 6.44312C7.53917 6.38385 7.54903 6.32475 7.57037 6.26942C7.59171 6.21408 7.6241 6.16367 7.66555 6.12126C7.70701 6.07885 7.75666 6.04532 7.81149 6.02271C7.86632 6.00011 7.92518 5.98891 7.98448 5.98978ZM6.45423 7.52619C6.57049 7.53099 6.68024 7.58113 6.75999 7.66586C6.83974 7.7506 6.88314 7.86319 6.88089 7.97952C6.8782 8.09542 6.82999 8.20559 6.74669 8.28621C6.66338 8.36682 6.55169 8.4114 6.43577 8.41029C6.31944 8.40716 6.20876 8.35941 6.12667 8.27693C6.04457 8.19445 5.99733 8.08356 5.99474 7.96721C5.9995 7.84893 6.04972 7.73705 6.13494 7.65489C6.22016 7.57273 6.3338 7.52662 6.45218 7.52619H6.45423ZM5.1968 9.3149C5.25439 9.31378 5.31161 9.32433 5.36501 9.34591C5.41842 9.3675 5.4669 9.39967 5.50753 9.4405C5.54817 9.48133 5.58011 9.52996 5.60145 9.58346C5.62278 9.63697 5.63306 9.69424 5.63167 9.75183C5.63278 9.86829 5.58798 9.98051 5.50698 10.0642C5.42598 10.1479 5.31528 10.1963 5.19885 10.199C5.07947 10.1969 4.9656 10.1484 4.88137 10.0638C4.79713 9.97914 4.74915 9.86506 4.74757 9.74567C4.7513 9.62977 4.80013 9.5199 4.88365 9.43945C4.96716 9.35899 5.07878 9.31431 5.19474 9.3149H5.1968ZM4.27782 11.2821C4.33716 11.2826 4.39579 11.295 4.45028 11.3185C4.50476 11.342 4.554 11.3761 4.59509 11.419C4.63618 11.4618 4.6683 11.5124 4.68955 11.5678C4.7108 11.6232 4.72076 11.6823 4.71885 11.7416C4.70855 11.8545 4.65557 11.9592 4.57071 12.0343C4.48586 12.1095 4.37551 12.1495 4.2622 12.1461C4.14889 12.1427 4.04114 12.0962 3.96095 12.016C3.88075 11.9359 3.83415 11.8282 3.83064 11.7149C3.83488 11.599 3.88379 11.4892 3.96715 11.4085C4.0505 11.3278 4.16182 11.2825 4.27782 11.2821ZM3.70346 13.3805C3.82283 13.3811 3.93721 13.4284 4.02199 13.5125C4.10678 13.5965 4.15519 13.7104 4.1568 13.8298C4.15358 13.9458 4.10492 14.056 4.02128 14.1366C3.93765 14.2171 3.82574 14.2617 3.70962 14.2605C3.65299 14.2608 3.59687 14.2498 3.54457 14.228C3.49228 14.2063 3.44485 14.1743 3.4051 14.134C3.36534 14.0937 3.33405 14.0458 3.31308 13.9932C3.2921 13.9406 3.28186 13.8843 3.28295 13.8277C3.28126 13.713 3.32454 13.6022 3.40351 13.519C3.48249 13.4358 3.59089 13.3869 3.70552 13.3826L3.70346 13.3805ZM3.07782 16C3.08034 15.8836 3.12715 15.7725 3.20872 15.6895C3.29028 15.6064 3.40046 15.5575 3.5168 15.5528C3.57445 15.5523 3.63164 15.5631 3.6851 15.5847C3.73857 15.6062 3.78726 15.6381 3.82841 15.6785C3.86955 15.7189 3.90234 15.767 3.92489 15.82C3.94745 15.8731 3.95934 15.9301 3.95987 15.9877C3.96256 16.0485 3.95246 16.1091 3.93024 16.1658C3.90801 16.2224 3.87415 16.2737 3.83085 16.3165C3.78754 16.3592 3.73576 16.3923 3.67883 16.4138C3.62191 16.4353 3.56112 16.4445 3.50039 16.441C3.38766 16.4334 3.28185 16.384 3.20368 16.3024C3.12552 16.2208 3.08063 16.113 3.07782 16ZM3.28295 18.1641C3.2824 18.0479 3.32778 17.9361 3.40922 17.8531C3.49066 17.7701 3.60157 17.7227 3.71782 17.721C3.83701 17.7232 3.95065 17.7717 4.03456 17.8564C4.11846 17.9411 4.166 18.0552 4.16705 18.1744C4.1633 18.2906 4.11377 18.4007 4.02925 18.4806C3.94473 18.5605 3.83206 18.6038 3.71577 18.601C3.65784 18.6025 3.60022 18.592 3.5465 18.5703C3.49278 18.5485 3.44411 18.516 3.40352 18.4746C3.36292 18.4332 3.33127 18.384 3.31053 18.3298C3.28979 18.2757 3.2804 18.2179 3.28295 18.16V18.1641ZM4.28808 20.7036C4.1716 20.7058 4.05894 20.6621 3.97448 20.5818C3.89001 20.5016 3.84055 20.3913 3.8368 20.2749C3.83783 20.1555 3.88531 20.0412 3.96916 19.9562C4.05301 19.8712 4.16666 19.8222 4.28603 19.8195C4.40041 19.8251 4.50847 19.8736 4.58869 19.9554C4.6689 20.0371 4.71537 20.1461 4.71885 20.2605C4.71831 20.3768 4.67189 20.4881 4.58968 20.5703C4.50747 20.6525 4.39613 20.699 4.27987 20.6995L4.28808 20.7036ZM5.205 22.679C5.08881 22.678 4.97748 22.6322 4.89418 22.5512C4.81089 22.4702 4.76204 22.3602 4.75782 22.2441C4.75754 22.1851 4.76906 22.1265 4.79172 22.072C4.81437 22.0175 4.8477 21.968 4.88975 21.9265C4.93179 21.8851 4.9817 21.8524 5.03655 21.8305C5.09139 21.8086 5.15006 21.7979 5.2091 21.799C5.26678 21.7978 5.32409 21.8085 5.37752 21.8302C5.43096 21.8519 5.47941 21.8843 5.51991 21.9254C5.56042 21.9665 5.59212 22.0154 5.6131 22.0691C5.63408 22.1229 5.64388 22.1803 5.64192 22.238C5.64194 22.2962 5.63031 22.3539 5.60771 22.4076C5.58511 22.4613 5.55201 22.5099 5.51035 22.5506C5.46868 22.5913 5.4193 22.6233 5.3651 22.6446C5.3109 22.666 5.25298 22.6762 5.19474 22.6749L5.205 22.679ZM5.205 19.2328L5.22756 19.1528H9.90448C11.1188 19.1528 11.1188 19.1528 11.1188 17.9221C11.1188 16.8964 11.1291 15.8708 11.1188 14.8452C11.1188 14.5108 11.164 14.3549 11.564 14.3713C12.444 14.4082 13.3281 14.3959 14.2081 14.3713C14.5158 14.3713 14.6183 14.4657 14.6183 14.7672C14.6087 16.4889 14.6087 18.2113 14.6183 19.9344C14.6183 20.2626 14.5158 20.4287 14.1691 20.3959C14.0682 20.3853 13.9664 20.3853 13.8655 20.3959C13.4696 20.439 13.3342 20.2851 13.3342 19.8974C13.3527 18.6523 13.3342 17.4092 13.3342 16.1641C13.3342 15.8216 13.2275 15.6636 12.8604 15.6636C12.4932 15.6636 12.3722 15.7785 12.3783 16.1436C12.3947 17.3887 12.3783 18.6339 12.3927 19.8769C12.3927 20.2872 12.2676 20.4021 11.8717 20.3959C10.6122 20.3754 9.34858 20.4533 8.0973 20.361C7.50653 20.318 6.93423 19.9857 6.36192 19.76C5.97423 19.6082 5.58859 19.4092 5.1968 19.2287L5.205 19.2328ZM6.49936 24.4677C6.43443 24.4751 6.36867 24.4685 6.30657 24.4481C6.24448 24.4278 6.18751 24.3942 6.13959 24.3498C6.09166 24.3054 6.0539 24.2511 6.0289 24.1907C6.0039 24.1304 5.99225 24.0653 5.99474 24C6.00187 23.8807 6.05343 23.7684 6.13924 23.6853C6.22505 23.6021 6.33889 23.5541 6.45833 23.5508C6.57788 23.5669 6.68803 23.6243 6.7697 23.7131C6.85137 23.8019 6.89941 23.9164 6.90551 24.0369C6.88833 24.1421 6.83944 24.2395 6.76539 24.3161C6.69134 24.3927 6.59566 24.4449 6.49115 24.4656L6.49936 24.4677ZM7.97628 25.9918C7.91875 25.9919 7.8618 25.9802 7.8089 25.9576C7.756 25.935 7.70825 25.9019 7.66854 25.8603C7.62883 25.8186 7.59799 25.7694 7.5779 25.7155C7.55781 25.6616 7.54888 25.6041 7.55166 25.5467C7.55328 25.4302 7.60067 25.3191 7.68359 25.2373C7.76651 25.1556 7.87829 25.1097 7.99474 25.1097C8.11089 25.1139 8.22106 25.1623 8.30268 25.2451C8.38429 25.3278 8.43117 25.4387 8.43371 25.5549C8.43328 25.6147 8.42064 25.6738 8.39655 25.7285C8.37247 25.7832 8.33746 25.8325 8.29367 25.8732C8.24987 25.9139 8.19822 25.9453 8.14188 25.9653C8.08554 25.9853 8.02569 25.9937 7.96602 25.9897L7.97628 25.9918ZM9.7773 27.241C9.71963 27.2432 9.66212 27.2338 9.60819 27.2132C9.55427 27.1927 9.50505 27.1614 9.46349 27.1214C9.42192 27.0814 9.38887 27.0334 9.3663 26.9803C9.34374 26.9271 9.33213 26.87 9.33217 26.8123C9.33025 26.7531 9.34022 26.6941 9.3615 26.6388C9.38278 26.5835 9.41493 26.5331 9.45604 26.4904C9.49716 26.4478 9.54641 26.4138 9.60089 26.3905C9.65536 26.3672 9.71396 26.3551 9.7732 26.3549C9.88933 26.358 9.99978 26.4058 10.0815 26.4884C10.1633 26.5709 10.2101 26.6818 10.2122 26.7979C10.2127 26.8564 10.2016 26.9143 10.1793 26.9683C10.1571 27.0224 10.1243 27.0714 10.0828 27.1125C10.0413 27.1536 9.99196 27.186 9.93773 27.2077C9.88349 27.2294 9.82545 27.2401 9.76704 27.239L9.7773 27.241ZM11.7506 28.1579C11.6904 28.1613 11.6301 28.1523 11.5735 28.1316C11.5169 28.1108 11.4651 28.0787 11.4213 28.0372C11.3775 27.9957 11.3426 27.9457 11.3189 27.8903C11.2951 27.8349 11.2828 27.7752 11.2829 27.7149C11.2896 27.5998 11.3393 27.4914 11.4221 27.4112C11.5049 27.3311 11.6149 27.2849 11.7301 27.282C11.8466 27.2826 11.9581 27.3289 12.0407 27.4111C12.1232 27.4932 12.1701 27.6046 12.1711 27.721C12.1722 27.7781 12.1619 27.8348 12.1407 27.8878C12.1195 27.9408 12.0878 27.989 12.0477 28.0295C12.0075 28.0701 11.9596 28.1021 11.9068 28.1238C11.854 28.1456 11.7974 28.1565 11.7404 28.1559L11.7506 28.1579ZM10.0809 21.4933C9.69115 21.3374 9.31781 21.1405 8.93628 20.9621L8.98345 20.8369C10.9787 20.8369 12.9746 20.8369 14.9711 20.8369C15.8983 20.8369 15.7793 20.919 15.7814 20.0164C15.7814 17.3395 15.7916 14.6605 15.7814 11.9836C15.7814 11.5426 15.9024 11.4093 16.3434 11.4257C17.1968 11.4585 18.0501 11.4462 18.9055 11.4257C19.2132 11.4257 19.3506 11.5057 19.3506 11.8359C19.3438 15.1508 19.3438 18.465 19.3506 21.7785C19.3506 22.1354 19.1988 22.2462 18.8706 22.1887C18.7592 22.1596 18.6451 22.1424 18.5301 22.1374C17.9865 22.1559 17.9845 22.16 17.9845 21.5898C17.9845 18.8547 17.9845 16.1197 17.9845 13.3846C17.9845 13.159 18.0706 12.8677 17.6952 12.8082C17.2563 12.7385 17.125 12.8411 17.125 13.3005C17.125 16.0793 17.125 18.8581 17.125 21.6369C17.125 22.2031 17.125 22.2051 16.5424 22.2051C15.0942 22.2051 13.6481 22.1846 12.1999 22.2051C11.3711 22.238 10.7599 21.7682 10.0706 21.4933H10.0809ZM13.845 28.7179C13.786 28.7201 13.7271 28.7104 13.672 28.6894C13.6168 28.6683 13.5664 28.6363 13.5239 28.5953C13.4814 28.5543 13.4476 28.5052 13.4245 28.4508C13.4014 28.3965 13.3896 28.338 13.3896 28.279C13.3896 28.1609 13.4365 28.0477 13.52 27.9642C13.6035 27.8807 13.7167 27.8338 13.8347 27.8338C13.9528 27.8338 14.066 27.8807 14.1495 27.9642C14.233 28.0477 14.2799 28.1609 14.2799 28.279C14.2788 28.3944 14.2328 28.5048 14.1516 28.5868C14.0704 28.6687 13.9604 28.7158 13.845 28.7179ZM16.0009 28.9231C15.8815 28.9209 15.7679 28.8716 15.6849 28.7858C15.6018 28.7001 15.5562 28.585 15.5578 28.4656C15.5602 28.3781 15.5884 28.2932 15.6389 28.2216C15.6893 28.15 15.7598 28.0948 15.8414 28.0631C15.9231 28.0313 16.0122 28.0244 16.0978 28.0431C16.1834 28.0618 16.2615 28.1053 16.3225 28.1683C16.3834 28.2312 16.4245 28.3107 16.4404 28.3968C16.4564 28.4829 16.4466 28.5718 16.4123 28.6524C16.3779 28.733 16.3206 28.8017 16.2474 28.8498C16.1742 28.898 16.0885 28.9234 16.0009 28.9231ZM18.1342 28.7179C18.0212 28.7101 17.9156 28.659 17.8392 28.5754C17.7628 28.4918 17.7216 28.3819 17.7239 28.2687C17.7261 28.2103 17.7398 28.1528 17.7641 28.0996C17.7885 28.0464 17.8231 27.9986 17.8659 27.9588C17.9088 27.919 17.9591 27.888 18.0139 27.8676C18.0687 27.8472 18.127 27.8378 18.1855 27.84C18.2439 27.8421 18.3014 27.8558 18.3546 27.8802C18.4078 27.9045 18.4556 27.9391 18.4954 27.982C18.5352 28.0248 18.5662 28.0751 18.5866 28.1299C18.607 28.1848 18.6164 28.2431 18.6142 28.3015C18.6114 28.3609 18.5966 28.419 18.5707 28.4725C18.5448 28.526 18.5083 28.5736 18.4634 28.6125C18.4185 28.6515 18.3662 28.6809 18.3096 28.699C18.253 28.7171 18.1933 28.7236 18.1342 28.7179ZM20.2655 28.1559C20.2077 28.157 20.1503 28.1464 20.0968 28.1247C20.0432 28.103 19.9947 28.0706 19.954 28.0296C19.9133 27.9885 19.8814 27.9397 19.8602 27.8859C19.839 27.8322 19.8289 27.7747 19.8306 27.7169C19.8332 27.6024 19.8799 27.4933 19.9609 27.4123C20.0419 27.3313 20.151 27.2847 20.2655 27.282C20.3845 27.2847 20.4978 27.3334 20.5816 27.418C20.6654 27.5026 20.7131 27.6163 20.7147 27.7354C20.7094 27.8502 20.6595 27.9584 20.5756 28.0369C20.4916 28.1155 20.3804 28.1582 20.2655 28.1559ZM22.245 27.2369C22.1873 27.2383 22.13 27.2282 22.0763 27.2072C22.0227 27.1862 21.9737 27.1548 21.9323 27.1147C21.8909 27.0746 21.8578 27.0267 21.8351 26.9737C21.8123 26.9207 21.8004 26.8638 21.7998 26.8062C21.7993 26.6868 21.846 26.5721 21.9298 26.4872C22.0136 26.4022 22.1277 26.3539 22.247 26.3528C22.3635 26.3555 22.4742 26.4039 22.5552 26.4876C22.6362 26.5713 22.6809 26.6835 22.6798 26.8C22.6812 26.8579 22.6709 26.9154 22.6495 26.9691C22.628 27.0229 22.5959 27.0718 22.5551 27.1128C22.5143 27.1538 22.4656 27.1861 22.4119 27.2078C22.3583 27.2295 22.3008 27.2401 22.2429 27.239L22.245 27.2369ZM22.6162 23.0051C22.6819 22.3528 22.5875 13.1857 22.5896 10.4062C22.5896 10.1375 22.6183 9.88721 22.206 9.89336C21.8737 9.89336 21.7957 10.0144 21.7957 10.3282C21.808 11.7744 21.7732 22.5703 21.7732 22.5703C21.7732 22.5703 21.7732 23.4585 21.7732 23.9282C21.6193 23.9446 21.4942 23.9672 21.3629 23.9692C19.4839 23.9692 17.6029 24.0062 15.726 23.9487C15.2542 23.9344 14.7845 23.6349 14.325 23.4421C13.7915 23.229 13.2803 22.9638 12.7988 22.6503C12.9219 22.6503 13.045 22.6277 13.1681 22.6277L19.4614 22.6544C20.4255 22.6544 20.4111 22.6544 20.4111 21.7272C20.4111 17.5016 20.4111 13.2759 20.4111 9.04824C20.4111 8.69337 20.4911 8.52926 20.8932 8.54157C21.8039 8.57029 22.7168 8.56003 23.6275 8.54157C23.9332 8.54157 24.0378 8.64619 24.0378 8.95183C24.0378 12.1217 24.0378 15.291 24.0378 18.4595C24.0378 20.1005 24.0378 21.7415 24.0378 23.3826C24.0378 23.9672 24.0378 23.9672 23.4347 23.9692C22.5034 23.9774 22.5178 23.9528 22.6142 23.0072L22.6162 23.0051ZM24.0214 25.9877C23.9053 25.9888 23.7935 25.9439 23.7105 25.8628C23.6274 25.7816 23.5799 25.6709 23.5783 25.5549C23.5799 25.4355 23.6283 25.3216 23.7131 25.2376C23.7979 25.1535 23.9123 25.1062 24.0316 25.1056C24.1479 25.1089 24.2582 25.1579 24.3385 25.242C24.4187 25.3261 24.4626 25.4386 24.4603 25.5549C24.4621 25.613 24.4518 25.6708 24.4302 25.7248C24.4086 25.7787 24.3761 25.8277 24.3347 25.8685C24.2933 25.9093 24.2439 25.9411 24.1896 25.962C24.1354 25.9829 24.0774 25.9923 24.0193 25.9897L24.0214 25.9877ZM24.0357 6.86978C23.9766 6.87198 23.9177 6.86227 23.8624 6.84122C23.8071 6.82018 23.7566 6.78822 23.714 6.74727C23.6713 6.70631 23.6373 6.65719 23.614 6.60282C23.5907 6.54846 23.5785 6.48996 23.5783 6.43081C23.5804 6.31465 23.6272 6.20376 23.7089 6.12123C23.7907 6.0387 23.9011 5.99088 24.0173 5.98773C24.1333 5.98718 24.2449 6.03263 24.3276 6.11413C24.4102 6.19562 24.4572 6.30654 24.4583 6.4226C24.4617 6.4804 24.4532 6.53827 24.4333 6.59266C24.4135 6.64706 24.3827 6.69682 24.343 6.73889C24.3032 6.78097 24.2553 6.81446 24.2021 6.83733C24.1489 6.86019 24.0916 6.87193 24.0337 6.87183L24.0357 6.86978ZM25.5537 24.4533C25.437 24.4533 25.3251 24.407 25.2426 24.3245C25.16 24.2419 25.1137 24.13 25.1137 24.0133C25.1137 23.8966 25.16 23.7847 25.2426 23.7022C25.3251 23.6197 25.437 23.5733 25.5537 23.5733C25.6704 23.5733 25.7823 23.6197 25.8648 23.7022C25.9473 23.7847 25.9937 23.8966 25.9937 24.0133C25.9937 24.13 25.9473 24.2419 25.8648 24.3245C25.7823 24.407 25.6704 24.4533 25.5537 24.4533ZM25.5537 8.41644C25.4356 8.41644 25.3224 8.36955 25.2389 8.28607C25.1554 8.20259 25.1086 8.08937 25.1086 7.97132C25.1086 7.85326 25.1554 7.74004 25.2389 7.65656C25.3224 7.57309 25.4356 7.52619 25.5537 7.52619C25.6717 7.52619 25.785 7.57309 25.8684 7.65656C25.9519 7.74004 25.9988 7.85326 25.9988 7.97132C25.9988 8.08937 25.9519 8.20259 25.8684 8.28607C25.785 8.36955 25.6717 8.41644 25.5537 8.41644ZM28.7188 13.8318C28.7199 13.8895 28.7093 13.9468 28.6876 14.0002C28.6659 14.0537 28.6335 14.1021 28.5924 14.1426C28.5513 14.1831 28.5024 14.2148 28.4487 14.2358C28.3949 14.2568 28.3375 14.2666 28.2798 14.2646C28.1632 14.2657 28.0509 14.2206 27.9675 14.1391C27.8841 14.0576 27.8363 13.9464 27.8347 13.8298C27.8358 13.769 27.8489 13.709 27.8734 13.6534C27.8979 13.5977 27.9332 13.5475 27.9773 13.5057C28.0215 13.4639 28.0735 13.4313 28.1303 13.4098C28.1872 13.3883 28.2478 13.3783 28.3085 13.3805C28.4219 13.3884 28.5278 13.4398 28.6043 13.5238C28.6807 13.6079 28.7217 13.7182 28.7188 13.8318ZM26.8029 9.31901C26.9192 9.31952 27.0307 9.36553 27.1135 9.44718C27.1963 9.52884 27.2438 9.63966 27.246 9.75593C27.2428 9.87494 27.1935 9.98807 27.1086 10.0715C27.0237 10.1549 26.9096 10.2021 26.7906 10.2031C26.6745 10.1988 26.5648 10.1491 26.485 10.0647C26.4052 9.98033 26.3617 9.86796 26.3639 9.75183C26.3625 9.69317 26.3731 9.63484 26.3952 9.58048C26.4173 9.52612 26.4503 9.4769 26.4923 9.43589C26.5343 9.39489 26.5842 9.36298 26.6391 9.34216C26.6939 9.32134 26.7525 9.31206 26.8111 9.3149L26.8029 9.31901ZM26.8029 22.679C26.7454 22.679 26.6884 22.6676 26.6352 22.6455C26.5821 22.6234 26.5338 22.5911 26.4932 22.5503C26.4526 22.5095 26.4205 22.4611 26.3987 22.4078C26.3768 22.3546 26.3657 22.2976 26.366 22.24C26.3637 22.1824 26.3733 22.1249 26.394 22.071C26.4147 22.0172 26.4462 21.9681 26.4865 21.9269C26.5268 21.8856 26.5751 21.853 26.6285 21.831C26.6818 21.809 26.7391 21.7981 26.7968 21.799C26.8558 21.7976 26.9145 21.8081 26.9695 21.8297C27.0244 21.8514 27.0745 21.8838 27.1167 21.9251C27.1589 21.9664 27.1925 22.0157 27.2154 22.0701C27.2383 22.1245 27.2501 22.183 27.2501 22.2421C27.2454 22.3571 27.1969 22.466 27.1145 22.5465C27.0322 22.6269 26.9221 22.6729 26.807 22.6749L26.8029 22.679ZM27.7219 11.2821C27.8382 11.282 27.9501 11.3271 28.0339 11.4078C28.1177 11.4885 28.1669 11.5986 28.1711 11.7149C28.1711 11.833 28.1242 11.9462 28.0407 12.0297C27.9573 12.1131 27.844 12.16 27.726 12.16C27.6079 12.16 27.4947 12.1131 27.4112 12.0297C27.3278 11.9462 27.2809 11.833 27.2809 11.7149C27.2845 11.5999 27.3324 11.4907 27.4146 11.4101C27.4967 11.3294 27.6068 11.2836 27.7219 11.2821ZM27.7362 20.6995C27.6199 20.7028 27.507 20.6601 27.4221 20.5805C27.3372 20.501 27.2872 20.3911 27.2829 20.2749C27.2777 20.2142 27.285 20.1532 27.3044 20.0954C27.3237 20.0377 27.3547 19.9846 27.3954 19.9393C27.4361 19.894 27.4856 19.8576 27.541 19.8322C27.5963 19.8069 27.6563 19.7931 27.7172 19.7919C27.778 19.7906 27.8385 19.8018 27.8948 19.8249C27.9512 19.8479 28.0022 19.8823 28.0448 19.9258C28.0873 19.9693 28.1205 20.0211 28.1422 20.078C28.1639 20.1349 28.1738 20.1956 28.1711 20.2564C28.1711 20.3725 28.1256 20.484 28.0443 20.5669C27.9629 20.6497 27.8523 20.6973 27.7362 20.6995ZM28.2798 18.5969C28.1639 18.5948 28.0534 18.5475 27.9718 18.4652C27.8902 18.3828 27.844 18.2718 27.8429 18.1559C27.8472 18.0362 27.8985 17.923 27.9856 17.8408C28.0728 17.7587 28.1888 17.7142 28.3085 17.7169C28.4226 17.7248 28.5292 17.7768 28.6057 17.8617C28.6822 17.9467 28.7228 18.058 28.7188 18.1723C28.7188 18.2293 28.7074 18.2857 28.6852 18.3382C28.6629 18.3907 28.6304 18.4381 28.5894 18.4778C28.5484 18.5174 28.4999 18.5484 28.4467 18.5688C28.3935 18.5893 28.3368 18.5989 28.2798 18.5969ZM28.485 16.4308C28.4271 16.4333 28.3694 16.424 28.3153 16.4034C28.2612 16.3828 28.2119 16.3514 28.1705 16.311C28.129 16.2707 28.0961 16.2223 28.074 16.1688C28.0519 16.1153 28.041 16.0579 28.0419 16C28.0362 15.944 28.0422 15.8874 28.0593 15.8338C28.0765 15.7801 28.1045 15.7306 28.1417 15.6883C28.1788 15.6459 28.2243 15.6117 28.2752 15.5877C28.3261 15.5637 28.3815 15.5504 28.4378 15.5487C28.5006 15.5443 28.5638 15.5525 28.6234 15.573C28.683 15.5935 28.7379 15.6257 28.7848 15.6678C28.8317 15.7099 28.8696 15.761 28.8963 15.8181C28.923 15.8752 28.938 15.937 28.9403 16C28.9404 16.0578 28.9288 16.115 28.9062 16.1683C28.8837 16.2215 28.8507 16.2696 28.8091 16.3098C28.7676 16.35 28.7184 16.3814 28.6645 16.4022C28.6105 16.423 28.553 16.4327 28.4952 16.4308H28.485Z" fill="#004B6A"/>
</svg>
