<svg width="32" height="32" viewBox="0 0 32 32" fill="none" xmlns="http://www.w3.org/2000/svg">
<path d="M30.9105 10.24C30.1561 8.27835 29.0219 6.48488 27.5731 4.96235C26.1243 3.43981 24.3893 2.21815 22.4675 1.36736C20.5456 0.516577 18.4748 0.0533911 16.3737 0.00434968C14.2726 -0.0446917 12.1824 0.321376 10.223 1.08157C9.42719 1.38995 8.65791 1.76279 7.9228 2.19639C5.81169 3.43125 4.01172 5.13358 2.66115 7.17261C1.31058 9.21163 0.44536 11.5331 0.131942 13.9587C-0.181475 16.3843 0.0652542 18.8494 0.853178 21.1648C1.6411 23.4801 2.94925 25.584 4.67714 27.315C5.67288 28.3079 6.7978 29.1623 8.02158 29.855C10.0869 31.0451 12.3922 31.7583 14.7687 31.9425C17.1452 32.1267 19.5329 31.7771 21.7569 30.9194C23.9809 30.0618 25.985 28.7177 27.6225 26.9855C29.26 25.2533 30.4895 23.177 31.221 20.9083C31.6545 19.5698 31.9061 18.1791 31.9689 16.7736C32.0754 14.5504 31.7149 12.3295 30.9105 10.2541V10.24Z" fill="#B13932"/>
<path d="M30.9106 10.24C31.7149 12.3154 32.0754 14.5363 31.9689 16.7595C31.467 17.4278 30.935 18.0729 30.3743 18.6928C28.6259 14.6592 25.9408 11.1007 22.5417 8.31271C19.1426 5.52471 15.1275 3.58757 10.8298 2.66207C11.3998 1.86315 12.0122 1.09532 12.6643 0.361889C16.3834 -0.427446 20.2619 0.1331 23.6053 1.94312C26.9487 3.75314 29.5384 6.69437 30.9106 10.24Z" fill="#CC4641"/>
<path d="M31.9548 16.7595C31.8965 18.1644 31.6497 19.5551 31.221 20.8942C31.0908 20.5046 30.9496 20.1187 30.7976 19.737L30.3743 18.6928C30.9345 18.0726 31.4666 17.4275 31.9689 16.7595H31.9548Z" fill="#CC4641"/>
<path d="M30.7976 19.737L31.221 20.8942C30.4926 23.1653 29.2654 25.2447 27.6292 26.98C25.9931 28.7153 23.9894 30.0625 21.765 30.923C19.5406 31.7836 17.1519 32.1355 14.7739 31.9532C12.3958 31.7708 10.0887 31.0588 8.02157 29.8691C7.69517 29.1514 7.40781 28.4165 7.16077 27.6677C11.4618 28.0839 15.8006 27.4892 19.831 25.9309C23.8614 24.3727 27.4718 21.894 30.3743 18.6928L30.7976 19.737Z" fill="#B13932"/>
<path d="M30.3743 18.6928C27.4718 21.8986 23.8596 24.3811 19.8265 25.9419C15.7934 27.5027 11.4511 28.0986 7.14669 27.6819C5.7263 23.5223 5.31822 19.084 5.95631 14.7352C6.5944 10.3864 8.26026 6.25238 10.8157 2.67618C15.1145 3.59821 19.1315 5.53228 22.533 8.31785C25.9346 11.1034 28.6228 14.6601 30.3743 18.6928Z" fill="#BE4137"/>
<path d="M12.6643 0.361877C12.0122 1.09531 11.3998 1.86314 10.8298 2.66206C9.87005 2.45399 8.89961 2.29853 7.92285 2.19638C8.65839 1.76758 9.42767 1.39946 10.223 1.09568C11.0164 0.787772 11.8327 0.542423 12.6643 0.361877Z" fill="#A5322D"/>
<path d="M7.9228 2.19638C8.89956 2.29853 9.87 2.45399 10.8298 2.66206C8.27208 6.2399 6.60494 10.3764 5.96682 14.7278C5.3287 19.0793 5.73801 23.5203 7.16078 27.6819C6.3279 27.6027 5.49913 27.4849 4.67714 27.3291C2.94925 25.5982 1.6411 23.4942 0.853178 21.1789C0.0652542 18.8635 -0.181475 16.3984 0.131942 13.9728C0.44536 11.5472 1.31058 9.22574 2.66115 7.18671C4.01172 5.14768 5.81169 3.44535 7.9228 2.21049V2.19638Z" fill="#A5322D"/>
<path d="M7.54177 28.7261C7.68289 29.1212 7.83811 29.5023 8.00745 29.8692C6.78864 29.1754 5.66852 28.321 4.67712 27.3291C5.49889 27.483 6.32779 27.596 7.16076 27.6677L7.54177 28.7261Z" fill="#B13932"/>
<path d="M5.25574 6.90965H10.6181C11.3431 6.9081 12.0664 6.97901 12.7772 7.12132C13.4264 7.24333 14.048 7.48241 14.6117 7.8269C15.1468 8.15728 15.5888 8.61869 15.8959 9.1675C16.2204 9.73196 16.3756 10.4516 16.3756 11.3266C16.3756 12.4555 16.0793 13.3869 15.4584 14.1489C14.7852 14.9321 13.8339 15.423 12.8054 15.5177L16.8978 22.3477H13.5957L10.0113 15.814H8.00749V22.3618H5.25574V6.90965ZM10.1524 13.4574C10.5335 13.4574 10.9286 13.4433 11.3237 13.401C11.6976 13.3686 12.0642 13.2781 12.4103 13.1328C12.7256 13.0022 12.999 12.7874 13.2005 12.5119C13.3981 12.2297 13.511 11.8346 13.511 11.3125C13.5282 10.9301 13.4299 10.5515 13.2288 10.2259C13.0406 9.95814 12.7816 9.74804 12.4809 9.61907C12.158 9.47781 11.8153 9.38737 11.4648 9.35095C11.1091 9.30582 10.7509 9.28226 10.3923 9.28039H8.00749V13.4715H10.1524V13.4574ZM17.0671 11.1996H19.5507V12.7801H19.5931C19.9423 12.1663 20.4754 11.6777 21.1171 11.383C21.7699 11.0936 22.4776 10.9492 23.1915 10.9597C23.933 10.9467 24.6689 11.091 25.3506 11.383C25.9714 11.6495 26.5292 12.0438 26.9875 12.5402C27.4458 13.0424 27.7963 13.6331 28.0177 14.2759C28.2505 14.9716 28.3649 15.7014 28.3564 16.4349C28.3635 17.1707 28.2393 17.9019 27.9895 18.594C27.7603 19.2374 27.4107 19.8313 26.9593 20.3438C26.5108 20.8424 25.9628 21.2414 25.3506 21.5151C24.7065 21.8005 24.0089 21.9449 23.3044 21.9385C22.8621 21.9438 22.4209 21.8916 21.992 21.7832C21.6484 21.6909 21.3168 21.5583 21.0042 21.3881C20.7368 21.2472 20.4859 21.0768 20.2563 20.8801C20.07 20.7182 19.8999 20.5386 19.7483 20.3438H19.6777V26.6376H17.0671V11.2137V11.1996ZM25.7457 16.4349C25.7449 16.0351 25.6732 15.6386 25.534 15.2637C25.4005 14.8927 25.1942 14.552 24.9272 14.2618C24.4774 13.7999 23.8981 13.4852 23.2657 13.3593C22.6334 13.2333 21.9778 13.302 21.3852 13.5562C21.0169 13.7241 20.6858 13.964 20.4115 14.2618C20.1446 14.552 19.9383 14.8927 19.8048 15.2637C19.5276 16.0248 19.5276 16.8592 19.8048 17.6203C19.938 17.9915 20.1443 18.3322 20.4115 18.6222C20.8614 19.0841 21.4407 19.3988 22.0731 19.5247C22.7054 19.6507 23.361 19.582 23.9536 19.3278C24.3216 19.1593 24.6525 18.9195 24.9272 18.6222C25.1945 18.3322 25.4008 17.9915 25.534 17.6203C25.6732 17.2455 25.7449 16.8489 25.7457 16.4491V16.4349Z" fill="white"/>
</svg>
