<svg height="32" viewBox="0 0 32 32" width="32" xmlns="http://www.w3.org/2000/svg"><g fill="none" fill-rule="evenodd"><circle cx="16" cy="16" fill="#f9c011" r="16"/><path d="m14.8116525 6c1.5185008.8875 2.9464395 1.9144 4.4509369 2.8246-1.8472913 3.2228667-3.6955366 6.4467-5.5447359 9.6715-.7359455-1.2914-1.4254855-2.6084-2.1527428-3.9056 1.0472913-2.8758 2.2428961-5.7005 3.2465418-8.5905zm-4.8116525 20c3.1389097-5.709 6.3999659-11.3554 9.5040204-17.0787.8290971 1.4564667 1.6610903 2.9129 2.4959796 4.3693-2.4058262 4.2327-4.8291312 8.454-7.2174787 12.6952-1.5941397 0-3.1879727-.0199-4.7825213.0142zm5.0822147-.0228c1.3294037-2.2756 2.5832708-4.5911 3.9301533-6.8554.8028961 1.0269 1.6174446 2.0481 2.4145145 3.0806-2.1061329 1.2745-4.2240205 2.5261-6.3446678 3.7748z" fill="#fff" fill-rule="nonzero"/></g></svg>