<?xml version="1.0" encoding="UTF-8"?>
<svg width="32px" height="32px" viewBox="0 0 32 32" version="1.1" xmlns="http://www.w3.org/2000/svg" xmlns:xlink="http://www.w3.org/1999/xlink">
    <!-- Generator: Sketch 53 (72520) - https://sketchapp.com -->
    <title>svg/color/ilk</title>
    <desc>Created with Sketch.</desc>
    <g id="color/ilk" stroke="none" stroke-width="1" fill="none" fill-rule="evenodd">
        <g id="Group" fill="#98C23A" fill-rule="nonzero">
            <circle id="Oval" cx="16" cy="16" r="16"></circle>
        </g>
        <g id="ilk" transform="translate(4.000000, 4.000000)" fill="#FFFFFF" fill-rule="nonzero">
            <path d="M11.79,1.66533454e-16 C5.2785628,-3.33066907e-16 2.55351296e-15,5.2785628 1.77635684e-15,11.79 C9.99200722e-16,18.3014372 5.2785628,23.58 11.79,23.58 C18.3014372,23.58 23.58,18.3014372 23.58,11.79 C23.56899,5.28312873 18.2968713,0.0110099581 11.79,1.66533454e-16 Z M11.79,22 C6.15799789,21.9999973 1.59184416,17.4353319 1.59000545,11.8033301 C1.58816673,6.17132826 6.15133896,1.60368232 11.7833399,1.60000218 C17.4153408,1.59632203 21.9844784,6.1580006 21.99,11.79 C21.9844875,17.4210195 17.4210195,21.9844875 11.79,21.99 L11.79,22 Z M6.58,10.74 L4.68,10.74 L4.68,6.58 C4.68,5.8 5.05,5.41 5.79,5.41 L9.91,5.41 C10.2323607,5.35537056 10.5610686,5.46177975 10.7902605,5.69495759 C11.0194524,5.92813543 11.1201788,6.25862898 11.06,6.58 L11.06,10.74 L9.18,10.74 L9.18,7.04 L6.58,7.04 L6.58,10.74 Z M9.18,11.96 L11.08,11.96 L11.08,16.96 L11.08,16.96 C11.1364258,17.2798297 11.03402,17.6071421 10.8053699,17.8377805 C10.5767198,18.0684188 10.2503062,18.1736547 9.93,18.12 L5.79,18.12 C5.47355381,18.1574835 5.15818914,18.0419071 4.94090346,17.8088188 C4.72361779,17.5757305 4.63042922,17.2530408 4.69,16.94 L4.69,11.94 L9.19,11.94 L9.18,11.96 Z M16.98,12.03 L18.9,12.03 L18.9,17.03 L18.9,17.03 C18.9573858,17.3518624 18.853812,17.6814517 18.6226318,17.9126318 C18.3914517,18.143812 18.0618624,18.2473858 17.74,18.19 L13.57,18.19 C13.2512653,18.2399804 12.927997,18.1331125 12.7018558,17.9030038 C12.4757145,17.6728952 12.3744844,17.3478173 12.43,17.03 L12.43,12.03 L12.43,12.03 L12.43,6.67 C12.3677756,6.3445457 12.4708029,6.00940159 12.7051022,5.77510223 C12.9394016,5.54080287 13.2745457,5.43777558 13.6,5.5 L17.7,5.5 C18.0299662,5.42591991 18.3750188,5.52362897 18.6171555,5.75971229 C18.8592923,5.9957956 18.9657041,6.33826442 18.9,6.67 L18.9,9.67 L16.9,9.67 L16.9,7.13 L14.4,7.13 L14.4,12.03 L16.98,12.03 Z" id="Shape"></path>
        </g>
    </g>
</svg>