<svg width="32" height="32" viewBox="0 0 32 32" fill="none" xmlns="http://www.w3.org/2000/svg">
<path d="M16 32C24.8366 32 32 24.8366 32 16C32 7.16344 24.8366 0 16 0C7.16344 0 0 7.16344 0 16C0 24.8366 7.16344 32 16 32Z" fill="url(#paint0_linear)"/>
<path d="M24.0067 12.0067L22.22 9.32666C21.537 8.3032 20.6119 7.4641 19.5269 6.88377C18.4419 6.30344 17.2305 5.99982 16 5.99982C14.7695 5.99982 13.5581 6.30344 12.4731 6.88377C11.3881 7.4641 10.463 8.3032 9.78 9.32666L7.99334 12.0067C7.15037 13.2748 6.69018 14.7588 6.66772 16.2814C6.64526 17.804 7.06147 19.3009 7.86667 20.5933L9.04 22.4667C9.71634 23.547 10.6559 24.4379 11.7706 25.0559C12.8854 25.6739 14.1388 25.9987 15.4133 26H16.5867C17.9489 25.9987 19.2853 25.6277 20.4533 24.9267C21.4693 24.3134 22.3278 23.471 22.96 22.4667L24.1333 20.5933C24.9385 19.3009 25.3547 17.804 25.3323 16.2814C25.3098 14.7588 24.8496 13.2748 24.0067 12.0067ZM17.8867 16.5533L16 19.6333L14.1133 16.5533C13.5011 15.5501 12.9833 14.4923 12.5667 13.3933C13.6479 12.9142 14.8174 12.6666 16 12.6666C17.1826 12.6666 18.3521 12.9142 19.4333 13.3933C19.0167 14.4923 18.4989 15.5501 17.8867 16.5533Z" fill="white"/>
<path d="M24.5587 11.636L22.7733 8.95867C22.03 7.84347 21.0229 6.92906 19.8413 6.29662C18.6597 5.66417 17.3402 5.33326 16 5.33326C14.6598 5.33326 13.3403 5.66417 12.1587 6.29662C10.9771 6.92906 9.96997 7.84347 9.22666 8.95867L7.44133 11.636C6.52577 13.0104 6.02619 14.6198 6.00254 16.271C5.97889 17.9223 6.43217 19.5453 7.308 20.9453L8.48066 22.822C9.21601 23.9979 10.2381 24.9676 11.451 25.6401C12.6639 26.3126 14.0278 26.6658 15.4147 26.6667H16.5853C17.9728 26.6664 19.3373 26.3134 20.5509 25.6409C21.7644 24.9684 22.787 23.9983 23.5227 22.822L24.6953 20.9453C25.5712 19.5453 26.0244 17.9223 26.0008 16.271C25.9771 14.6198 25.4776 13.0104 24.562 11.636H24.5587ZM21.6667 9.698L22.6427 11.1647C22.4895 14.4672 21.4686 17.6711 19.6827 20.4533C19.3838 20.9096 19.0509 21.3427 18.6867 21.7487C17.9349 21.1784 17.2953 20.4738 16.8 19.6707L16.7793 19.636L18.4527 16.8987C19.9078 14.5098 20.8371 11.8382 21.1787 9.062C21.3538 9.26416 21.5167 9.47653 21.6667 9.698ZM19.028 12.5253C17.0691 11.8413 14.9362 11.8413 12.9773 12.5253C12.7973 11.992 12.6353 11.4587 12.5047 10.91C13.5817 10.3374 14.7829 10.038 16.0027 10.038C17.2225 10.038 18.4236 10.3374 19.5007 10.91C19.3673 11.4567 19.2053 11.994 19.0253 12.5253H19.028ZM18.556 13.7707C18.2053 14.6113 17.7921 15.4244 17.32 16.2033L16 18.358L14.6833 16.2033C14.211 15.4245 13.7976 14.6113 13.4467 13.7707C15.1012 13.2006 16.8988 13.2006 18.5533 13.7707H18.556ZM19.9487 7.93333C19.9113 8.472 19.8502 9.00755 19.7653 9.54C18.5867 8.9869 17.3007 8.70016 15.9987 8.70016C14.6967 8.70016 13.4107 8.9869 12.232 9.54C12.1467 9.00667 12.0856 8.47111 12.0487 7.93333C13.2012 7.11125 14.5816 6.6694 15.9973 6.6694C17.413 6.6694 18.7934 7.11125 19.946 7.93333H19.9487ZM11.8913 24.3573C10.9647 23.7997 10.1825 23.0316 9.608 22.1153L8.43533 20.238C7.75866 19.157 7.37988 17.9162 7.33738 16.6416C7.29488 15.3669 7.59018 14.1037 8.19333 12.98C8.58514 15.8975 9.61142 18.6937 11.2 21.172C12.3302 22.9275 13.8951 24.3609 15.7427 25.3333H15.4147C14.1735 25.3332 12.9557 24.9959 11.8913 24.3573ZM18.5673 25.0307C15.9893 24.3308 13.763 22.6987 12.32 20.4507C10.5346 17.6682 9.51365 14.4645 9.36 11.162L10.336 9.69533C10.4844 9.47399 10.6458 9.26162 10.8193 9.05933C11.1609 11.8356 12.0902 14.5071 13.5453 16.896L15.6647 20.3627C16.7548 22.1379 18.4281 23.479 20.398 24.1567C20.3013 24.2233 20.2093 24.294 20.1093 24.3567C19.6251 24.6441 19.1072 24.8705 18.5673 25.0307ZM23.5673 20.238L22.3947 22.1153C22.1645 22.476 21.9009 22.8141 21.6073 23.1253C20.9876 22.9826 20.3881 22.7631 19.8227 22.472C20.1783 22.0608 20.5063 21.6265 20.8047 21.172C22.3917 18.6936 23.4163 15.8976 23.8067 12.9807C24.4098 14.1043 24.7051 15.3674 24.6626 16.6419C24.6201 17.9165 24.2413 19.1571 23.5647 20.238H23.5673Z" fill="#343C86"/>
<defs>
<linearGradient id="paint0_linear" x1="5" y1="5.5" x2="29.5" y2="34" gradientUnits="userSpaceOnUse">
<stop stop-color="#424E9F"/>
<stop offset="1" stop-color="#191A48"/>
</linearGradient>
</defs>
</svg>
