<svg width="32" height="32" viewBox="0 0 32 32" fill="none" xmlns="http://www.w3.org/2000/svg">
<path d="M19.8889 31.1548C19.8295 31.0786 19.744 31.0276 19.6493 31.0119C17.8612 30.6277 16.1425 29.9661 14.5541 29.0503C11.2924 27.1292 9.21319 24.2226 9.13332 20.9119C9.11074 19.6497 9.36785 18.3984 9.88576 17.25C10.2175 16.5039 11.9988 13.8305 12.2937 13.3424C13.5068 11.4182 13.1168 11.5394 11.4092 9.13641L8.95216 5.45271L7.29058 3C6.33909 3.65588 5.43769 4.38328 4.59402 5.17603C2.87542 6.92118 1.57999 9.04585 0.809496 11.3832C0.0390009 13.7206 -0.185575 16.2069 0.153409 18.6469C0.492393 21.087 1.3857 23.4142 2.76317 25.4458C4.14064 27.4775 5.96473 29.1582 8.0922 30.3559C2.6192 26.2961 0.122269 20.2094 2.21686 14.0698C2.78855 12.4222 3.62493 10.8814 4.6923 9.50943L6.49205 12.1891C6.59521 12.3442 6.64668 12.5286 6.63894 12.7154C6.63121 12.9022 6.56467 13.0816 6.44905 13.2274C5.58968 14.2943 4.91944 15.5038 4.4681 16.8023C2.16773 23.5605 8.38395 30.5611 14.9503 31.702C16.2095 31.9196 18.5037 32.162 19.6893 31.8543C19.759 31.8352 19.8228 31.7982 19.8743 31.7469C19.9258 31.6956 19.9634 31.6317 19.9835 31.5614C20.0035 31.4912 20.0054 31.4168 19.9888 31.3456C19.9722 31.2744 19.9378 31.2087 19.8889 31.1548Z" fill="url(#paint0_linear)"/>
<path d="M12.1111 1.84514C12.1705 1.92143 12.256 1.97245 12.3507 1.98814C14.1388 2.37223 15.8575 3.03389 17.4459 3.94968C20.7076 5.87081 22.7868 8.77738 22.8667 12.0881C22.8893 13.3503 22.6322 14.6016 22.1142 15.75C21.7825 16.4961 20.0012 19.1695 19.7064 19.6576C18.4932 21.5818 18.8832 21.4606 20.5909 23.8636L23.0479 27.5473L24.7095 30C25.6609 29.3441 26.5623 28.6167 27.406 27.8239C29.1246 26.0788 30.42 23.9541 31.1905 21.6168C31.961 19.2794 32.1856 16.7931 31.8466 14.3531C31.5076 11.913 30.6143 9.58578 29.2368 7.55414C27.8593 5.5225 26.0352 3.8418 23.9078 2.64406C29.3808 6.70393 31.8777 12.7906 29.7831 18.9302C29.2115 20.5778 28.3751 22.1186 27.3077 23.4906L25.5079 20.8109C25.4048 20.6558 25.3533 20.4714 25.3611 20.2846C25.3688 20.0978 25.4354 19.9184 25.551 19.7726C26.4104 18.7057 27.0806 17.4962 27.5319 16.1977C29.8323 9.43949 23.616 2.43889 17.0497 1.29802C15.7905 1.08041 13.4963 0.837939 12.3107 1.14569C12.241 1.16482 12.1772 1.20181 12.1257 1.25311C12.0742 1.30441 12.0366 1.36828 12.0166 1.43857C11.9964 1.50885 11.9947 1.58318 12.0112 1.6544C12.0278 1.72561 12.0622 1.7913 12.1111 1.84514Z" fill="url(#paint1_linear)"/>
<defs>
<linearGradient id="paint0_linear" x1="5.88702" y1="29.0658" x2="17.5988" y2="9.02286" gradientUnits="userSpaceOnUse">
<stop stop-color="#174E5B"/>
<stop offset="0.07" stop-color="#195A6C"/>
<stop offset="0.21" stop-color="#1E779A"/>
<stop offset="0.4" stop-color="#27A7E3"/>
<stop offset="0.47" stop-color="#2ABAFF"/>
<stop offset="0.7" stop-color="#1DDAF0"/>
<stop offset="1" stop-color="#0EFFE0"/>
</linearGradient>
<linearGradient id="paint1_linear" x1="26.113" y1="3.93414" x2="14.4012" y2="23.9771" gradientUnits="userSpaceOnUse">
<stop stop-color="#174E5B"/>
<stop offset="0.07" stop-color="#195A6C"/>
<stop offset="0.21" stop-color="#1E779A"/>
<stop offset="0.4" stop-color="#27A7E3"/>
<stop offset="0.47" stop-color="#2ABAFF"/>
<stop offset="0.7" stop-color="#1DDAF0"/>
<stop offset="1" stop-color="#0EFFE0"/>
</linearGradient>
</defs>
</svg>
