<svg viewBox="0 0 34 34" fill="none" xmlns="http://www.w3.org/2000/svg">
<g clip-path="url(#clip0_2326_47159)">
<path d="M4.04488 5.76296C4.25199 5.50346 4.47157 5.25143 4.69116 5.00191C4.70114 4.98943 4.7236 4.98694 4.73358 4.97446C4.75354 4.94951 4.78598 4.93454 4.80594 4.90958L4.8259 4.88463C4.97811 4.7424 5.1428 4.59019 5.32995 4.45544C5.99369 3.9514 6.68238 3.56713 7.411 3.31511C9.74158 2.49666 12.3367 3.0007 14.3728 4.92206C17.2149 7.587 16.9604 11.8764 14.6922 14.7285C11.8251 18.9804 6.89947 24.9116 13.719 30.2265C14.9467 31.1822 15.855 31.9707 19.7176 33.0861C17.1899 33.5527 14.8494 33.408 12.2418 32.7418C10.3978 31.7013 7.49833 29.473 6.51021 26.4612C5.01804 21.8949 9.13523 15.0703 11.124 12.4428C13.8563 8.80469 9.43466 4.86716 6.18083 9.26382C4.47906 11.5545 1.5047 18.0397 2.53774 22.848C3.1416 25.5754 3.94757 27.5641 7.144 30.2939C6.55263 29.9446 5.97622 29.5478 5.41728 29.1037C-2.00613 22.1868 -1.14277 11.4946 4.04488 5.76296Z" fill="url(#paint0_linear_2326_47159)"/>
<path d="M29.3168 27.5955C29.1097 27.855 28.8901 28.107 28.6706 28.3565C28.6606 28.369 28.6381 28.3715 28.6281 28.384C28.6082 28.4089 28.5757 28.4239 28.5558 28.4489L28.5358 28.4738C28.3836 28.6161 28.2189 28.7683 28.0318 28.903C27.368 29.4071 26.6768 29.7913 25.9507 30.0433C23.6201 30.8618 21.0251 30.3577 18.9889 28.4364C16.1468 25.7714 16.4013 21.4821 18.6695 18.63C21.5366 14.3781 26.4623 8.44682 19.6402 3.1319C18.415 2.17622 17.5043 1.38771 13.6416 0.272329C16.1693 -0.194286 18.5098 -0.0495607 21.1174 0.616675C22.9614 1.6572 25.8609 3.88797 26.849 6.89726C28.3412 11.4636 24.224 18.2881 22.2353 20.9157C19.503 24.5538 23.9246 28.4913 27.1784 24.0946C28.8802 21.804 31.8545 15.3188 30.8215 10.5104C30.2176 7.78308 29.4117 5.79435 26.2152 3.06453C26.8066 3.41387 27.383 3.81062 27.9419 4.25477C35.3654 11.1692 34.5045 21.8639 29.3168 27.5955Z" fill="url(#paint1_linear_2326_47159)"/>
</g>
<defs>
<linearGradient id="paint0_linear_2326_47159" x1="5.67836e-05" y1="18.1495" x2="33.3618" y2="18.1495" gradientUnits="userSpaceOnUse">
<stop stop-color="#0082FA"/>
<stop offset="1" stop-color="#00F2FE"/>
</linearGradient>
<linearGradient id="paint1_linear_2326_47159" x1="-3.69359e-05" y1="15.2115" x2="33.3617" y2="15.2115" gradientUnits="userSpaceOnUse">
<stop stop-color="#0082FA"/>
<stop offset="1" stop-color="#00F2FE"/>
</linearGradient>
<clipPath id="clip0_2326_47159">
<rect width="34" height="34" fill="white"/>
</clipPath>
</defs>
</svg>
