<svg height="32" viewBox="0 0 32 32" width="32" xmlns="http://www.w3.org/2000/svg"><g fill="none" fill-rule="evenodd"><circle cx="16" cy="16" fill="#df1a14" r="16"/><path d="m14.8596404 11.5271123c.3070485-.0971496.6564484.0755607.783503.3778038.3070484.7016356.5823332 1.4248601.8999695 2.1264958.1905818.4209813.8364424.4749533 1.0905514.0863551.4235151-.7016356.7623272-1.4464489 1.1752544-2.1588789.3388121-.4425702.952909-.2266823 1.4187756-.2698599.4870424-.0323832.8470302.5828973.5717454 1.0038787-1.3340726 2.4935052-2.678733 4.976216-4.0128056 7.4697212-.2223454.4533646-.952909.4533646-1.1540786-.0215888-.2964606-.7232244-.5293939-1.4788321-.8152666-2.2020565-.169406-.4749534-.8999696-.5505142-1.1434908-.0971496-.4129272.7448133-.772915 1.5220097-1.1858422 2.2560285-.2011697.3346263-.6246848.2806543-.952909.2806543-.3176363-.0215888-.6987999.0755607-.9423211-.1942991-.2223454-.2158879-.2541091-.5828973-.0952909-.8419628 1.2493695-2.3639725 2.5199148-4.7387393 3.7692844-7.1243006.1482303-.2698598.2752848-.6044861.5929211-.6908412zm-4.3622055.1835047c.3705757-.0215888.7411514-.0215888 1.1117271 0 .4129273.0431776.6776242.5721029.4764545.9499067-1.2387816 2.3423837-2.48815119 4.673973-3.72693286 7.0055622-.14823028.2590655-.26469694.6044861-.58233326.6908413-.37057571.053972-.7517393.0215888-1.12231502.0215888-.45527873.0215888-.83644232-.5721029-.5611575-.9714955 1.29172105-2.4179445 2.5834421-4.8466833 3.87516316-7.2754221.10587878-.2050935.28587268-.410187.52939388-.4209814zm13.139556.0215888c.4023393-.1187384.8258544-.0323832 1.2387816-.0647664.3176364.0107944.7199757-.053972.952909.2266823.2858727.2914486.2011697.8419628-.1588182 1.0254675-.7305635.464159-1.4505392.9607011-2.1916906 1.4140657-.4658666.3238319-1.1540786-.2266823-.952909-.766402.1799939-.4317758.434103-.8311684.6352727-1.2521498.1164666-.2158879.2223454-.4965422.4764545-.5828973zm-3.5045875 6.455048c.2117576-.1295327.4764545-.0863551.6776242.0215888.5611575.2806543 1.122315.5828974 1.6940604.8527572.2435212.107944.4976302.3130375.5082181.6044861.0423515.3885982-.2858727.7664021-.6670363.7340189-.8152666 0-1.6305331.0107944-2.4352118 0-.4023394 0-.7199757-.4749534-.5717454-.8635516.1058788-.2806543.2646969-.5289254.3917515-.7987852.0952909-.2050935.1905818-.4533646.4023393-.5505142z" fill="#fff" fill-rule="nonzero"/></g></svg>