<svg height="32" width="32" xmlns="http://www.w3.org/2000/svg"><g fill="none" fill-rule="evenodd"><circle cx="16" cy="16" fill="#b2a3f6" r="16"/><g fill="#fff" fill-rule="nonzero"><path d="M13.446 12.287c-.76 0-1.375-.601-1.375-1.342s.615-1.343 1.375-1.343c.759 0 1.375.601 1.375 1.343s-.616 1.342-1.375 1.342zm3.927-1.534c-.759 0-1.375-.601-1.375-1.342 0-.742.616-1.343 1.375-1.343.76 0 1.375.601 1.375 1.343 0 .741-.615 1.342-1.375 1.342zm1.573 9.205c-.76 0-1.375-.6-1.375-1.342s.615-1.343 1.375-1.343c.759 0 1.375.601 1.375 1.343s-.616 1.342-1.375 1.342zM5.786 18.04A.776.776 0 0 1 5 17.273c0-.423.352-.767.785-.767s.786.344.786.767a.776.776 0 0 1-.786.767zm2.16 4.988a.583.583 0 0 1-.59-.576c0-.318.264-.575.59-.575s.59.257.59.575a.583.583 0 0 1-.59.576zm6.285 3.835c-.326 0-.59-.258-.59-.576s.264-.575.59-.575.59.257.59.575-.264.576-.59.576zm10.215-3.452c-.326 0-.59-.258-.59-.576s.264-.576.59-.576c.325 0 .59.258.59.576s-.265.576-.59.576zm-6.286-1.15a.583.583 0 0 1-.59-.576c0-.318.265-.575.59-.575s.59.257.59.575a.583.583 0 0 1-.59.576zm3.536-2.685c-.326 0-.59-.258-.59-.576s.264-.575.59-.575c.325 0 .59.257.59.575s-.265.576-.59.576zm-4.125 7.287c-.434 0-.786-.344-.786-.767s.352-.767.786-.767c.433 0 .785.343.785.767s-.352.767-.785.767zm3.535-9.59a.776.776 0 0 1-.785-.767c0-.423.351-.767.785-.767.434 0 .785.344.785.767a.776.776 0 0 1-.785.767zm1.18 7.672a.776.776 0 0 1-.786-.767c0-.424.352-.767.785-.767.434 0 .786.343.786.767a.776.776 0 0 1-.786.767zM6.765 21.11c-.542 0-.982-.43-.982-.959s.44-.958.982-.958.982.43.982.958-.44.959-.982.959zm9.43 3.835c-.76 0-1.375-.601-1.375-1.343s.615-1.343 1.375-1.343c.759 0 1.375.602 1.375 1.343s-.616 1.343-1.375 1.343zm-7.465-6.52c-.76 0-1.375-.602-1.375-1.343s.615-1.343 1.375-1.343 1.375.601 1.375 1.343-.616 1.343-1.375 1.343zm7.465 3.067c-.543 0-.983-.429-.983-.958s.44-.958.983-.958c.542 0 .982.429.982.958s-.44.958-.982.958zm-4.715-8.436c-.326 0-.59-.258-.59-.576s.264-.576.59-.576.59.258.59.576-.264.576-.59.576zm3.732 2.3c-.65 0-1.178-.515-1.178-1.15 0-.636.528-1.152 1.178-1.152.65 0 1.178.516 1.178 1.151 0 .636-.527 1.152-1.178 1.152zm2.75 1.15a.776.776 0 0 1-.785-.767c0-.423.351-.767.785-.767.434 0 .785.344.785.767a.776.776 0 0 1-.785.767zm1.375-9.588c-.326 0-.59-.257-.59-.575s.264-.576.59-.576c.326 0 .59.258.59.576s-.264.575-.59.575zm-2.75-.001a.97.97 0 0 1-.982-.959.97.97 0 0 1 .982-.958.97.97 0 0 1 .983.958.97.97 0 0 1-.983.959zm.59 6.137c-.434 0-.785-.343-.785-.767s.351-.767.785-.767c.434 0 .785.344.785.767s-.351.767-.785.767zm-7.465 8.44c-.65 0-1.178-.515-1.178-1.151s.528-1.151 1.178-1.151c.65 0 1.178.515 1.178 1.15 0 .637-.527 1.152-1.178 1.152zm11.393 1.15c-.65 0-1.178-.516-1.178-1.152 0-.635.527-1.15 1.178-1.15s1.178.515 1.178 1.15c0 .636-.528 1.152-1.178 1.152zm-1.57 2.685c-.651 0-1.179-.516-1.179-1.151 0-.636.528-1.152 1.178-1.152s1.178.516 1.178 1.152c0 .635-.527 1.15-1.178 1.15zm-9.233 0c-.76 0-1.375-.601-1.375-1.343s.616-1.342 1.375-1.342 1.375.6 1.375 1.342-.616 1.343-1.375 1.343zm-4.125-9.972c-.65 0-1.178-.516-1.178-1.152 0-.635.527-1.15 1.178-1.15s1.178.515 1.178 1.15c0 .636-.528 1.152-1.178 1.152z"/><path d="M12.07 17.273c-.868 0-1.572-.686-1.572-1.534 0-.847.704-1.534 1.573-1.534s1.572.687 1.572 1.534c0 .848-.704 1.534-1.572 1.534zm8.25-2.3c-.868 0-1.572-.687-1.572-1.535 0-.847.704-1.534 1.573-1.534.868 0 1.572.687 1.572 1.534 0 .848-.704 1.534-1.572 1.534zm4.321 6.521c-.65 0-1.178-.515-1.178-1.151s.528-1.151 1.178-1.151 1.178.515 1.178 1.15c0 .637-.527 1.152-1.178 1.152zm1.18-4.603a1.165 1.165 0 0 1-1.178-1.152c0-.635.527-1.15 1.178-1.15.65 0 1.177.515 1.177 1.15 0 .636-.527 1.152-1.177 1.152zm-4.518-5.37a.97.97 0 0 1-.982-.96.97.97 0 0 1 .982-.958.97.97 0 0 1 .982.959.97.97 0 0 1-.982.958zm.195-3.069c-.433 0-.785-.343-.785-.767s.352-.767.785-.767c.434 0 .786.344.786.767s-.352.767-.786.767zm1.768.767c-.326 0-.59-.258-.59-.575s.264-.576.59-.576.59.258.59.576-.264.575-.59.575zm3.144 4.604c-.325 0-.59-.258-.59-.576s.265-.576.59-.576.59.258.59.576-.264.576-.59.576zM9.516 8.836c-.326 0-.59-.257-.59-.575s.264-.576.59-.576.59.258.59.576-.264.575-.59.575zm-.785 4.987c-.326 0-.59-.258-.59-.576s.264-.576.59-.576.59.258.59.576-.264.576-.59.576zm1.572.767c-.326 0-.59-.258-.59-.576s.264-.576.59-.576.59.258.59.576-.264.576-.59.576zm1.963-7.29c-.326 0-.59-.258-.59-.576s.264-.575.59-.575.59.257.59.575-.264.576-.59.576zM26.41 18.809c-.325 0-.59-.258-.59-.576s.265-.575.59-.575.59.257.59.575-.264.576-.59.576zm-1.964-6.138c-.76 0-1.375-.6-1.375-1.342 0-.742.615-1.343 1.375-1.343.759 0 1.375.601 1.375 1.343 0 .741-.616 1.342-1.375 1.342zm-1.18 3.068a.97.97 0 0 1-.982-.958c0-.53.44-.958.982-.958a.97.97 0 0 1 .982.958.97.97 0 0 1-.982.958zM9.91 11.52a.97.97 0 0 1-.982-.958c0-.53.44-.959.982-.959s.983.43.983.959a.97.97 0 0 1-.983.958zm4.32-2.685a.97.97 0 0 1-.982-.958c0-.53.44-.959.983-.959s.982.43.982.959a.97.97 0 0 1-.982.958zm-2.552.384c-.434 0-.785-.343-.785-.767s.351-.767.785-.767.785.344.785.767-.351.767-.785.767zm-4.322 3.068a.776.776 0 0 1-.785-.767c0-.423.351-.767.785-.767s.785.344.785.767a.776.776 0 0 1-.785.767zm16.5 6.138a.776.776 0 0 1-.785-.767c0-.424.351-.767.785-.767.434 0 .785.343.785.767a.776.776 0 0 1-.785.767zm-8.446.384c-.76 0-1.375-.601-1.375-1.343s.616-1.342 1.375-1.342c.76 0 1.375.6 1.375 1.342s-.615 1.343-1.375 1.343zm-2.554.767a.776.776 0 0 1-.785-.767c0-.424.351-.767.785-.767s.785.343.785.767a.776.776 0 0 1-.785.767zm.392 3.068c-.65 0-1.177-.516-1.177-1.152 0-.635.527-1.15 1.177-1.15s1.178.515 1.178 1.15c0 .636-.527 1.152-1.178 1.152zm0 2.3a.776.776 0 0 1-.785-.766c0-.424.352-.767.785-.767s.786.343.786.767a.776.776 0 0 1-.786.767z" opacity=".5"/></g></g></svg>