<svg height="32" viewBox="0 0 32 32" width="32" xmlns="http://www.w3.org/2000/svg"><g fill="none" fill-rule="evenodd"><circle cx="16" cy="16" fill="#57beea" r="16"/><path d="m7.02599456 19.0087638c-.10514047.012473-.2121274.018888-.32060552.018888-1.49414511 0-2.70538904-1.2170169-2.70538904-2.7182834 0-1.4934805 1.19871294-2.7056522 2.68216507-2.7181853.95974417-4.4098795 4.86923753-7.71119195 9.54613613-7.71119195.873021 0 1.7193022.11503237 2.5246489.33083485.4850789-.73000602 1.3124617-1.210826 2.2516133-1.210826 1.4941451 0 2.7053891 1.21701692 2.7053891 2.71828338 0 .46848248-.1179513.90928465-.3256432 1.29406128 1.6229844 1.75290524 2.6156907 4.10292994 2.6156907 6.68591884 0 2.7325243-1.1109737 5.2043301-2.9038331 6.9842841.3254429.4487424.5174633 1.0014244.5174633 1.599169 0 1.5012665-1.2112439 2.7182834-2.705389 2.7182834-1.1450273 0-2.123912-.7147311-2.5188454-1.7243933-.6951917.1576932-1.4184688.2409291-2.1610946.2409291-4.240609 0-7.85031103-2.7141084-9.20230664-6.507772zm.48916105-.1049725c1.30075829 3.5684338 4.71097009 6.1150119 8.71314559 6.1150119.6948227 0 1.3718032-.076756 2.0230006-.2222896-.0318011-.1666899-.0484497-.33879-.0484497-.514797 0-1.5012664 1.211244-2.7182834 2.7053891-2.7182834.7206139 0 1.3754235.2830847 1.8602839.7446128 1.6899234-1.6881781 2.7361034-4.0262238 2.7361034-6.6097825 0-2.4099813-.9103262-4.606331-2.4043281-6.26084199-.4961153.60984539-1.2506789.99914529-2.095737.99914529-1.4941451 0-2.705389-1.21701697-2.705389-2.71828342 0-.3746131.0754192-.73152713.2118337-1.05624943-.7302591-.1856654-1.4950178-.28431025-2.2827069-.28431025-4.41675 0-8.11254451 3.10148993-9.04777955 7.2551448 1.26757579.2256352 2.23025643 1.3381087 2.23025643 2.6764999 0 1.2178337-.79706186 2.2486164-1.89562247 2.5944229zm8.71314559-.4839262c-1.495969 0-2.7086915-1.2185026-2.7086915-2.7216016 0-1.5030991 1.2127225-2.7216016 2.7086915-2.7216016s2.7086915 1.2185025 2.7086915 2.7216016c0 1.503099-1.2127225 2.7216016-2.7086915 2.7216016z" fill="#fff" fill-rule="nonzero"/></g></svg>