<svg xmlns="http://www.w3.org/2000/svg" width="32" height="32" viewBox="0 0 32 32"><path d="M16.363 29.155c-1.077-.358-1.87-.815-2.608-1.506l-.496-.464-.381.09c-.631.147-2.026.107-2.735-.079-1.276-.334-2.69-1.297-3.473-2.364l-.277-.376-.686-.096a6.65 6.65 0 01-5.543-4.926c-.215-.84-.22-2.37-.01-3.16a6.664 6.664 0 011.97-3.284l.62-.577.098-.59c.262-1.583 1.222-3.035 2.64-3.993.624-.422.988-.601 1.658-.815l.555-.178.335-.574c1.33-2.283 3.908-3.742 6.604-3.739 1.425.002 2.877.418 4.036 1.156l.42.27.604-.143c.851-.2 2.36-.18 3.176.04a6.442 6.442 0 013 1.817c.534.565 1.168 1.544 1.333 2.058.124.386.19.45.525.513.16.03.608.218.994.417 1.344.693 2.287 1.816 2.743 3.266.266.845.25 2.219-.034 3.077l-.203.612.223.53c.424 1.012.549 1.651.549 2.817 0 1.662-.349 2.759-1.304 4.098-1.12 1.57-3.081 2.7-4.947 2.85l-.616.05-.323.48c-.466.694-1.345 1.52-2.142 2.012-.827.512-2.07.955-2.804 1l-.512.032.74-.162c2.066-.45 3.595-1.435 4.664-3.002l.302-.443.536-.054a7.076 7.076 0 004.499-2.212c1.847-1.984 2.336-4.988 1.214-7.462l-.232-.513.198-.583c.268-.79.326-1.945.14-2.783-.406-1.823-1.87-3.38-3.643-3.873-.483-.135-.486-.137-.653-.577-.567-1.49-1.882-2.869-3.357-3.521-.867-.383-1.697-.528-2.793-.485-.542.021-1.18.093-1.418.16l-.434.12-.433-.26c-1.108-.666-2.05-.99-3.318-1.141-2.905-.347-6.076 1.331-7.387 3.91-.15.294-.22.345-.7.503-2.14.704-3.649 2.208-4.196 4.184-.088.317-.16.71-.16.874 0 .216-.049.336-.177.434-.446.342-1.464 1.451-1.703 1.855-1.496 2.525-1.179 5.689.785 7.819.396.43 1.228 1.052 1.765 1.32.61.307 1.655.61 2.284.663.527.044.581.066.71.282.227.386 1.15 1.32 1.615 1.635 1.149.779 2.054 1.055 3.468 1.057.542.001 1.12-.039 1.285-.089l.3-.09.579.528c.992.905 2.267 1.512 3.728 1.777l.61.11-.434.006c-.305.003-.712-.088-1.373-.308zm1.61-.762c-1.447-.165-2.949-.944-3.935-2.042l-.421-.47-.443.155c-.56.197-1.906.266-2.524.13-1.352-.297-2.594-1.194-3.345-2.414l-.296-.483-.645-.009c-2.357-.033-4.505-1.75-5.1-4.078-.57-2.225.398-4.705 2.307-5.914.281-.178.296-.207.296-.607 0-1.101.585-2.384 1.496-3.28.797-.782 1.518-1.147 3.049-1.544.05-.014.165-.19.255-.391.628-1.42 2.064-2.768 3.566-3.347 1.78-.686 3.654-.585 5.38.29.3.152.72.41.933.572l.388.296.445-.178c.928-.371 2.108-.423 3.204-.142 1.383.355 2.709 1.446 3.374 2.776.203.405.37.777.37.827 0 .05.037.224.082.386.077.278.1.296.396.296.376 0 1.075.225 1.587.511 1.702.953 2.553 3.074 1.964 4.896-.1.308-.24.658-.313.777-.129.212-.124.232.245.976.207.418.428 1.008.491 1.311.147.706.147 1.817 0 2.522-.149.712-.727 1.88-1.23 2.486-1.09 1.309-2.823 2.124-4.515 2.124h-.59l-.252.474c-.439.822-1.287 1.69-2.185 2.235-1.14.693-2.66 1.016-4.034.86z" fill="#ee5ca1"/><path d="M16.363 29.155c-1.077-.358-1.87-.815-2.608-1.506l-.496-.464-.381.09c-.631.147-2.026.107-2.735-.079-1.276-.334-2.69-1.297-3.473-2.364l-.277-.376-.686-.096a6.65 6.65 0 01-5.543-4.926c-.215-.84-.22-2.37-.01-3.16a6.664 6.664 0 011.97-3.284l.62-.577.098-.59c.262-1.583 1.222-3.035 2.64-3.993.624-.422.988-.601 1.658-.815l.555-.178.335-.574c1.33-2.283 3.908-3.742 6.604-3.739 1.425.002 2.877.418 4.036 1.156l.42.27.604-.143c.851-.2 2.36-.18 3.176.04a6.442 6.442 0 013 1.817c.534.565 1.168 1.544 1.333 2.058.124.386.19.45.525.513.16.03.608.218.994.417 1.344.693 2.287 1.816 2.743 3.266.266.845.25 2.219-.034 3.077l-.203.612.223.53c.424 1.012.549 1.651.549 2.817 0 1.662-.349 2.759-1.304 4.098-1.12 1.57-3.081 2.7-4.947 2.85l-.616.05-.323.48c-.466.694-1.345 1.52-2.142 2.012-.827.512-2.07.955-2.804 1l-.512.032.74-.162c2.066-.45 3.595-1.435 4.664-3.002l.302-.443.536-.054a7.076 7.076 0 004.499-2.212c1.847-1.984 2.336-4.988 1.214-7.462l-.232-.513.198-.583c.268-.79.326-1.945.14-2.783-.406-1.823-1.87-3.38-3.643-3.873-.483-.135-.486-.137-.653-.577-.567-1.49-1.882-2.869-3.357-3.521-.867-.383-1.697-.528-2.793-.485-.542.021-1.18.093-1.418.16l-.434.12-.433-.26c-1.108-.666-2.05-.99-3.318-1.141-2.905-.347-6.076 1.331-7.387 3.91-.15.294-.22.345-.7.503-2.14.704-3.649 2.208-4.196 4.184-.088.317-.16.71-.16.874 0 .216-.049.336-.177.434-.446.342-1.464 1.451-1.703 1.855-1.496 2.525-1.179 5.689.785 7.819.396.43 1.228 1.052 1.765 1.32.61.307 1.655.61 2.284.663.527.044.581.066.71.282.227.386 1.15 1.32 1.615 1.635 1.149.779 2.054 1.055 3.468 1.057.542.001 1.12-.039 1.285-.089l.3-.09.579.528c.992.905 2.267 1.512 3.728 1.777l.61.11-.434.006c-.305.003-.712-.088-1.373-.308zm1.61-.762c-1.447-.165-2.949-.944-3.935-2.042l-.421-.47-.443.155c-.56.197-1.906.266-2.524.13-1.352-.297-2.594-1.194-3.345-2.414l-.296-.483-.645-.009c-2.357-.033-4.505-1.75-5.1-4.078-.57-2.225.398-4.705 2.307-5.914.281-.178.296-.207.296-.607 0-1.101.585-2.384 1.496-3.28.797-.782 1.518-1.147 3.049-1.544.05-.014.165-.19.255-.391.628-1.42 2.064-2.768 3.566-3.347 1.78-.686 3.654-.585 5.38.29.3.152.72.41.933.572l.388.296.445-.178c.928-.371 2.108-.423 3.204-.142 1.383.355 2.709 1.446 3.374 2.776.203.405.37.777.37.827 0 .05.037.224.082.386.077.278.1.296.396.296.376 0 1.075.225 1.587.511 1.702.953 2.553 3.074 1.964 4.896-.1.308-.24.658-.313.777-.129.212-.124.232.245.976.207.418.428 1.008.491 1.311.147.706.147 1.817 0 2.522-.149.712-.727 1.88-1.23 2.486-1.09 1.309-2.823 2.124-4.515 2.124h-.59l-.252.474c-.439.822-1.287 1.69-2.185 2.235-1.14.693-2.66 1.016-4.034.86zm2.047-1.374c.196-.046.658-.227 1.026-.4.538-.255.787-.436 1.26-.919.963-.978 1.309-1.881 1.249-3.252-.03-.681-.062-.807-.365-1.439-.266-.554-.457-.818-.962-1.326-.347-.348-.63-.679-.63-.735 0-.154.228-.349.408-.349.224 0 .858.55 1.28 1.113.346.46.357.467.407.265.029-.113.035-.585.014-1.048-.059-1.307-.454-2.21-1.357-3.095-1.51-1.482-3.851-1.533-5.574-.123-.455.373-.667.442-.837.272-.19-.19-.099-.438.29-.785.889-.792 1.796-1.17 2.95-1.23l.774-.04-.053-.324a4.259 4.259 0 00-2.21-3.062c-.744-.388-1.339-.532-2.185-.532-1.299 0-2.21.39-3.222 1.376-.29.283-.565.515-.61.515-.118 0-.399-.295-.399-.42 0-.149.516-.73.96-1.08l.38-.3-.493-.324c-.74-.485-1.579-.73-2.541-.738-.93-.01-1.444.1-2.246.48-.67.316-1.516 1.091-1.801 1.65-.226.443-.406 1.153-.406 1.602v.364l.487-.1c.533-.11.73-.06.815.211.076.24-.15.442-.56.504a4.073 4.073 0 00-3.5 4.05c0 1.217.37 2.114 1.222 2.968.875.877 1.695 1.22 2.917 1.22h.638l-.034-.703c-.041-.875.132-1.714.502-2.423l.266-.51-.372-.166c-.533-.238-1.507-.279-2.224-.093l-.554.144-.17-.17c-.39-.39.227-.77 1.395-.861.65-.05 1.279.054 1.94.32l.477.194.554-.428c.792-.612 1.206-.661 1.206-.143 0 .185-.072.274-.388.48-.866.567-1.45 1.344-1.733 2.305-.16.549-.162 1.616-.001 2.235.625 2.414 3.326 3.54 5.563 2.319.509-.278.593-.252.854.259.583 1.143 2.05 2.138 3.472 2.355.564.086 1.575.047 2.12-.083zm-1.466-3.49c-.13-.09-.173-.23-.21-.66-.025-.3-.097-.668-.16-.818l-.114-.274-.623.036c-1.394.08-2.579-.463-3.444-1.58-.194-.25-.366-.494-.381-.541-.018-.052-.244.018-.578.18-.396.19-.72.436-1.163.882-.585.587-.624.612-.788.503a.502.502 0 01-.197-.313c-.05-.412 1.348-1.652 2.125-1.885.3-.09.3-.091.242-.413-.11-.61-.055-1.48.129-2.028.217-.65.696-1.358.943-1.394.395-.056.524.31.246.7-.088.123-.256.43-.373.682-.188.401-.214.553-.215 1.249 0 .757.013.818.297 1.392a3.258 3.258 0 001.54 1.536c.408.2.525.22 1.317.22.82 0 .897-.014 1.39-.257a4.44 4.44 0 00.933-.65c.227-.216.46-.393.516-.393.163 0 .35.23.35.43 0 .21-.676.87-1.216 1.187l-.335.196.15.441c.081.243.17.663.194.934.043.454.032.502-.14.622-.225.158-.232.158-.435.016zM10.8 14.948c-.75-.174-1.655-.76-1.655-1.073 0-.154.237-.398.386-.398.053 0 .26.124.459.276.577.441 1.36.614 1.978.438.305-.088.461-.043.573.165.11.206.029.42-.199.523-.31.142-1.078.176-1.542.069zm15.23 8.5c.896-.19 1.516-.538 2.233-1.255.956-.958 1.372-1.939 1.372-3.239 0-.75-.147-1.382-.486-2.088-.188-.393-.422-.682-.997-1.238-.698-.674-.746-.74-.666-.915.151-.332.374-.312.852.077l.433.353.199-.433c.883-1.929-.33-4.094-2.362-4.214-.73-.044-1.264.088-1.89.466-.413.249-.552.298-.67.235-.199-.107-.262-.299-.16-.488.099-.186.833-.67 1.127-.743.115-.03.224-.078.243-.109.019-.03-.016-.301-.079-.602-.391-1.885-2.001-3.199-3.937-3.213-1.5-.01-2.591.608-3.564 2.022-.278.403-.466.462-.69.214-.123-.137-.128-.186-.037-.405.134-.324.646-.989 1.007-1.306l.285-.25-.224-.183c-.777-.633-1.682-1.02-2.755-1.177-1.745-.257-3.723.555-4.815 1.975-.33.43-.752 1.182-.752 1.341 0 .045.133.082.296.083.795.003 2.047.483 2.797 1.071l.453.356.512-.173c.282-.095.512-.213.512-.261 0-.048-.054-.262-.118-.475-.165-.544-.152-.937.038-1.108.144-.13.17-.132.347-.016.133.088.208.229.244.464.028.186.108.502.177.702l.125.364.717.041c1.343.077 2.75.729 3.533 1.638.343.399.454.47.454.289 0-.16.749-1.332 1.01-1.58.289-.275.57-.26.674.034.062.177.025.264-.261.627a5.737 5.737 0 00-.87 1.6c-.085.264-.076.379.065.867.09.31.174.72.188.91l.026.349.628.263a5.164 5.164 0 012.588 2.383c.297.569.523 1.255.523 1.59 0 .121.053.233.125.26.18.07 1.116.053 1.529-.027.4-.077.595-.007.674.242.086.273-.18.459-.796.555-.3.047-.746.067-.99.045l-.445-.04-.053.473c-.03.26-.118.68-.197.933-.13.42-.133.502-.03.953.067.288.104.764.09 1.145-.02.527-.003.658.093.684.275.074 1.181.04 1.674-.065zm-2.254-8.854c-.26-.287-.138-.483.5-.805.492-.249 1.436-.313 1.657-.113.187.17.2.376.032.544-.088.088-.278.124-.65.125-.415 0-.6.042-.87.197-.41.234-.498.241-.669.052z" fill="#9ea3a5"/><path d="M17.185 29.396c-.155-.05-.163-.063-.04-.062.087 0 .264.029.394.062.213.054.217.06.04.061a1.532 1.532 0 01-.394-.061zm2.955-.044c.589-.133.73-.13.315.007a2.122 2.122 0 01-.552.101c-.151 0-.066-.04.237-.108zm-3.546-.114c-.1-.043-.114-.068-.04-.068.065 0 .19.03.276.068.1.043.114.068.04.068a.868.868 0 01-.276-.068zm4.334-.079c.216-.093.34-.093.197 0a.487.487 0 01-.237.072c-.077-.002-.064-.027.04-.072zm-5.373-.309a6.978 6.978 0 01-1.841-1.237l-.448-.427-.4.086c-.221.047-.5.071-.622.053-.198-.03-.192-.035.055-.047.151-.008.43-.05.617-.093l.342-.079.484.448c.567.525 1.128.897 1.9 1.26.307.143.522.262.479.264-.044.001-.298-.101-.566-.228zm6.469-.13c1.105-.556 2.116-1.426 2.787-2.398l.299-.433.555-.05c.305-.027.676-.072.825-.099.239-.043.247-.04.075.034-.107.046-.473.105-.813.13l-.619.049-.323.48c-.619.917-1.969 2.044-2.926 2.442-.505.21-.439.136.14-.155zm-4.406-.428c-1.336-.24-2.496-.872-3.447-1.881l-.53-.562-.612.172c-.719.201-1.801.234-2.464.074-.238-.057-.728-.244-1.088-.416-.801-.38-1.657-1.159-2.09-1.9l-.297-.507-.766-.046c-1.443-.088-2.622-.611-3.6-1.598-1.723-1.738-2.07-4.222-.898-6.42.318-.598 1.06-1.412 1.658-1.817l.461-.314V12.6c0-1.113.503-2.228 1.417-3.143.684-.684 1.481-1.141 2.513-1.439l.65-.187.278-.546c.842-1.65 2.288-2.836 4.093-3.358.817-.237 2.54-.253 3.343-.032.7.192 1.56.6 2.178 1.032l.515.36.602-.208c1.277-.44 2.726-.33 4.034.304.958.466 1.899 1.406 2.346 2.345.174.367.358.847.408 1.066l.092.4.588.098c2.733.46 4.297 3.493 3.06 5.935l-.206.405.325.61c.467.876.654 1.654.654 2.713 0 1.703-.624 3.137-1.855 4.264-1.074.983-2.193 1.445-3.66 1.51l-.887.038-.243.457c-.733 1.374-2.192 2.503-3.814 2.95-.552.152-2.18.223-2.758.119zm2.402-1.273c.196-.046.658-.227 1.026-.4.538-.255.787-.436 1.26-.919.963-.978 1.309-1.881 1.249-3.252-.03-.681-.062-.807-.365-1.439-.266-.554-.457-.818-.962-1.326-.347-.348-.63-.679-.63-.735 0-.154.228-.349.408-.349.224 0 .858.55 1.28 1.113.346.46.357.467.407.265.029-.113.035-.585.014-1.048-.059-1.307-.454-2.21-1.357-3.095-1.51-1.482-3.851-1.533-5.574-.123-.455.373-.667.442-.837.272-.19-.19-.099-.438.29-.785.889-.792 1.796-1.17 2.95-1.23l.774-.04-.053-.324a4.259 4.259 0 00-2.21-3.062c-.744-.388-1.339-.532-2.185-.532-1.299 0-2.21.39-3.222 1.376-.29.283-.565.515-.61.515-.118 0-.399-.295-.399-.42 0-.149.516-.73.96-1.08l.38-.3-.493-.324c-.74-.485-1.579-.73-2.541-.738-.93-.01-1.444.1-2.246.48-.67.316-1.516 1.091-1.801 1.65-.226.443-.406 1.153-.406 1.602v.364l.487-.1c.533-.11.73-.06.815.211.076.24-.15.442-.56.504a4.073 4.073 0 00-3.5 4.05c0 1.217.37 2.114 1.222 2.968.875.877 1.695 1.22 2.917 1.22h.638l-.034-.703c-.041-.875.132-1.714.502-2.423l.266-.51-.372-.166c-.533-.238-1.507-.279-2.224-.093l-.554.144-.17-.17c-.39-.39.227-.77 1.395-.861.65-.05 1.279.054 1.94.32l.477.194.554-.428c.792-.612 1.206-.661 1.206-.143 0 .185-.072.274-.388.48-.866.567-1.45 1.344-1.733 2.305-.16.549-.162 1.616-.001 2.235.625 2.414 3.326 3.54 5.563 2.319.509-.278.593-.252.854.259.583 1.143 2.05 2.138 3.472 2.355.564.086 1.575.047 2.12-.083zm-1.466-3.49c-.13-.09-.173-.23-.21-.66-.025-.3-.097-.668-.16-.818l-.114-.274-.623.036c-1.394.08-2.579-.463-3.444-1.58-.194-.25-.366-.494-.381-.541-.018-.052-.244.018-.578.18-.396.19-.72.436-1.163.882-.585.587-.624.612-.788.503a.502.502 0 01-.197-.313c-.05-.412 1.348-1.652 2.125-1.885.3-.09.3-.091.242-.413-.11-.61-.055-1.48.129-2.028.217-.65.696-1.358.943-1.394.395-.056.524.31.246.7-.088.123-.256.43-.373.682-.188.401-.214.553-.215 1.249 0 .757.013.818.297 1.392a3.258 3.258 0 001.54 1.536c.408.2.525.22 1.317.22.82 0 .897-.014 1.39-.257a4.44 4.44 0 00.933-.65c.227-.216.46-.393.516-.393.163 0 .35.23.35.43 0 .21-.676.87-1.216 1.187l-.335.196.15.441c.081.243.17.663.194.934.043.454.032.502-.14.622-.225.158-.232.158-.435.016zM10.8 14.948c-.75-.174-1.655-.76-1.655-1.073 0-.154.237-.398.386-.398.053 0 .26.124.459.276.577.441 1.36.614 1.978.438.305-.088.461-.043.573.165.11.206.029.42-.199.523-.31.142-1.078.176-1.542.069zm15.23 8.5c.896-.19 1.516-.538 2.233-1.255.956-.958 1.372-1.939 1.372-3.239 0-.75-.147-1.382-.486-2.088-.188-.393-.422-.682-.997-1.238-.698-.674-.746-.74-.666-.915.151-.332.374-.312.852.077l.433.353.199-.433c.883-1.929-.33-4.094-2.362-4.214-.73-.044-1.264.088-1.89.466-.413.249-.552.298-.67.235-.199-.107-.262-.299-.16-.488.099-.186.833-.67 1.127-.743.115-.03.224-.078.243-.109.019-.03-.016-.301-.079-.602-.391-1.885-2.001-3.199-3.937-3.213-1.5-.01-2.591.608-3.564 2.022-.278.403-.466.462-.69.214-.123-.137-.128-.186-.037-.405.134-.324.646-.989 1.007-1.306l.285-.25-.224-.183c-.777-.633-1.682-1.02-2.755-1.177-1.745-.257-3.723.555-4.815 1.975-.33.43-.752 1.182-.752 1.341 0 .045.133.082.296.083.795.003 2.047.483 2.797 1.071l.453.356.512-.173c.282-.095.512-.213.512-.261 0-.048-.054-.262-.118-.475-.165-.544-.152-.937.038-1.108.144-.13.17-.132.347-.016.133.088.208.229.244.464.028.186.108.502.177.702l.125.364.717.041c1.343.077 2.75.729 3.533 1.638.343.399.454.47.454.289 0-.16.749-1.332 1.01-1.58.289-.275.57-.26.674.034.062.177.025.264-.261.627a5.737 5.737 0 00-.87 1.6c-.085.264-.076.379.065.867.09.31.174.72.188.91l.026.349.628.263a5.164 5.164 0 012.588 2.383c.297.569.523 1.255.523 1.59 0 .121.053.233.125.26.18.07 1.116.053 1.529-.027.4-.077.595-.007.674.242.086.273-.18.459-.796.555-.3.047-.746.067-.99.045l-.445-.04-.053.473c-.03.26-.118.68-.197.933-.13.42-.133.502-.03.953.067.288.104.764.09 1.145-.02.527-.003.658.093.684.275.074 1.181.04 1.674-.065zm-2.254-8.854c-.26-.287-.138-.483.5-.805.492-.249 1.436-.313 1.657-.113.187.17.2.376.032.544-.088.088-.278.124-.65.125-.415 0-.6.042-.87.197-.41.234-.498.241-.669.052zM10.105 27.187c-.99-.26-1.914-.804-2.738-1.613-.397-.39-.764-.798-.815-.907-.079-.165-.065-.158.086.04 1.066 1.401 2.57 2.314 4.206 2.552.392.057.418.07.154.074-.173.003-.575-.063-.893-.146zm16.812-1.574a.868.868 0 01.276-.068c.074 0 .06.025-.04.068a.868.868 0 01-.275.068c-.075 0-.06-.025.04-.068zm1.182-.466c1.118-.57 1.987-1.321 2.742-2.371.136-.19.136-.187 0 .067-.201.377-.987 1.217-1.524 1.63-.477.367-1.469.927-1.809 1.021-.108.03.158-.126.591-.347zm-22.696-.834a5.847 5.847 0 01-.867-.231c-.321-.13-.275-.123.552.073.26.062.686.145.946.184.311.047.378.073.197.075a5.668 5.668 0 01-.828-.101zm-1.866-.633c-.289-.148-.545-.3-.568-.339-.035-.056 1.095.496 1.206.59.12.1-.192-.022-.638-.25zm-1.168-.774a5.85 5.85 0 01-.75-.729c-.439-.537-.597-.776-.229-.347.408.475.795.858 1.176 1.162.174.139.298.253.276.254-.022.002-.234-.151-.473-.34zm28.87-.898c.308-.616.42-.936.61-1.754.075-.325.14-.51.144-.412.013.327-.31 1.389-.623 2.048-.17.357-.328.65-.352.65-.025 0 .075-.24.221-.532zM.84 21.102c-.41-.7-.847-1.996-.828-2.456.003-.09.072.119.151.466.188.815.338 1.225.671 1.831.305.554.31.676.006.159zm31.015-3.37c-.056-.27-.087-.503-.07-.52.05-.05.24.803.203.911-.018.054-.078-.123-.133-.391zM.053 16.826c.141-1.276.973-2.819 2.058-3.817.365-.336.633-.65.663-.777l.05-.213.002.237c.002.195-.081.305-.483.635-1.112.913-1.839 2.164-2.217 3.817-.106.466-.113.477-.073.118zm31.597.063a5.993 5.993 0 00-.29-.737l-.236-.516.218-.627c.194-.557.218-.734.216-1.61-.002-.851-.03-1.061-.2-1.537-.312-.867-.318-.892-.104-.458.487.99.548 2.4.159 3.627l-.206.648.189.376c.223.445.399.963.345 1.017-.02.02-.061-.062-.09-.183zM2.854 11.743c0-.108.018-.152.04-.098a.304.304 0 010 .197c-.022.054-.04.01-.04-.099zm.073-.36c.004-.093.023-.111.048-.048.022.056.02.124-.007.15-.026.027-.044-.02-.04-.103zm.076-.249c-.004-.12.243-.747.28-.71.016.016-.04.204-.124.418-.084.214-.154.346-.156.292zm27.709-.642c-.321-.52-1.06-1.24-1.59-1.552-.449-.262-.462-.34-.018-.098.432.235 1.544 1.346 1.779 1.778.264.488.161.41-.171-.128zm-27.397-.199c0-.032.16-.307.356-.61.395-.61.97-1.256 1.336-1.503.131-.088.016.042-.255.29-.272.249-.707.774-.966 1.167-.259.394-.471.689-.471.656zm24.528-1.921c-.314-.108-.571-.227-.571-.265 0-.038.062-.035.138.006.075.042.315.131.532.2.367.115.728.289.551.265a9.126 9.126 0 01-.65-.206zM5.326 7.959c.1-.163 1.138-.71 1.734-.913l.632-.216.353-.59c.77-1.29 2.257-2.564 3.657-3.135.673-.274 1.887-.583 2.252-.573.108.003-.194.085-.67.183-2.219.455-4.025 1.687-5.148 3.513l-.406.66-.69.247c-.38.136-.932.393-1.226.572-.294.18-.514.292-.488.252zm21.655-.555c-.136-.3-.232-.547-.211-.547.053 0 .526 1.026.49 1.063-.017.016-.142-.216-.279-.516zm-.54-.96c-.82-1.24-2.36-2.262-3.895-2.586-.37-.078-.58-.144-.468-.147.658-.018 1.983.508 2.878 1.142.512.364 1.394 1.272 1.63 1.68.209.359.112.3-.145-.09zM18.84 3.852l-.197-.165.225.134c.188.113.28.121.566.05.493-.125.622-.093.154.037-.505.14-.515.14-.748-.056zm1.28-.122c.076-.02.2-.02.276 0 .076.02.014.036-.138.036-.152 0-.214-.016-.138-.036zm-2.266-.385a8.732 8.732 0 00-1.3-.506c-.325-.086-.449-.138-.276-.114.174.023.493.099.71.168.413.131 1.615.707 1.615.774 0 .05.065.077-.749-.322zm3.015.303c.184-.017.485-.017.67 0 .184.016.033.03-.335.03-.369 0-.52-.014-.335-.03zm-5.536-1.046l-.237-.06.237-.002c.13 0 .325.027.433.062l.197.063-.197-.001a2.234 2.234 0 01-.433-.062z" fill="#ae5187"/><path d="M17.185 29.396c-.155-.05-.163-.063-.04-.062.087 0 .264.029.394.062.213.054.217.06.04.061a1.532 1.532 0 01-.394-.061zm2.955-.044c.589-.133.73-.13.315.007a2.122 2.122 0 01-.552.101c-.151 0-.066-.04.237-.108zm-3.546-.114c-.1-.043-.114-.068-.04-.068.065 0 .19.03.276.068.1.043.114.068.04.068a.868.868 0 01-.276-.068zm4.334-.079c.216-.093.34-.093.197 0a.487.487 0 01-.237.072c-.077-.002-.064-.027.04-.072zm-5.373-.309a6.978 6.978 0 01-1.841-1.237l-.448-.427-.4.086c-.221.047-.5.071-.622.053-.198-.03-.192-.035.055-.047.151-.008.43-.05.617-.093l.342-.079.484.448c.567.525 1.128.897 1.9 1.26.307.143.522.262.479.264-.044.001-.298-.101-.566-.228zm6.469-.13c1.105-.556 2.116-1.426 2.787-2.398l.299-.433.555-.05c.305-.027.676-.072.825-.099.239-.043.247-.04.075.034-.107.046-.473.105-.813.13l-.619.049-.323.48c-.619.917-1.969 2.044-2.926 2.442-.505.21-.439.136.14-.155zm-4.406-.428c-1.336-.24-2.496-.872-3.447-1.881l-.53-.562-.612.172c-.719.201-1.801.234-2.464.074-.238-.057-.728-.244-1.088-.416-.801-.38-1.657-1.159-2.09-1.9l-.297-.507-.766-.046c-1.443-.088-2.622-.611-3.6-1.598-1.723-1.738-2.07-4.222-.898-6.42.318-.598 1.06-1.412 1.658-1.817l.461-.314V12.6c0-1.113.503-2.228 1.417-3.143.684-.684 1.481-1.141 2.513-1.439l.65-.187.278-.546c.842-1.65 2.288-2.836 4.093-3.358.817-.237 2.54-.253 3.343-.032.7.192 1.56.6 2.178 1.032l.515.36.602-.208c1.277-.44 2.726-.33 4.034.304.958.466 1.899 1.406 2.346 2.345.174.367.358.847.408 1.066l.092.4.588.098c2.733.46 4.297 3.493 3.06 5.935l-.206.405.325.61c.467.876.654 1.654.654 2.713 0 1.703-.624 3.137-1.855 4.264-1.074.983-2.193 1.445-3.66 1.51l-.887.038-.243.457c-.733 1.374-2.192 2.503-3.814 2.95-.552.152-2.18.223-2.758.119zm2.785-1.363c1.263-.441 2.23-1.265 2.768-2.361.839-1.708.507-3.5-.907-4.9-.323-.32-.587-.65-.587-.73 0-.187.146-.339.328-.339.181 0 1.096.859 1.395 1.31.128.193.252.322.275.285.022-.037.065-.334.095-.66.162-1.786-.885-3.712-2.426-4.466-1.498-.732-3.379-.457-4.642.68-.305.273-.427.336-.577.298-.225-.056-.322-.294-.207-.51.106-.198.961-.84 1.45-1.087.538-.273 1.484-.5 2.085-.5h.51l-.053-.4c-.277-2.086-2.48-3.763-4.714-3.584a5.965 5.965 0 00-1.064.19c-.574.178-1.45.752-1.94 1.27-.38.4-.57.477-.744.303-.244-.244.028-.702.747-1.257l.438-.338-.25-.208c-.389-.325-1.01-.608-1.739-.792-2.713-.685-5.517 1.133-5.517 3.579 0 .38.022.458.118.422a3.52 3.52 0 01.511-.098c.45-.06.632.037.632.334 0 .22-.092.264-.977.469-1.675.386-2.896 1.836-3.081 3.657-.098.966.293 2.196.967 3.044.775.974 2.518 1.696 3.604 1.493l.285-.054-.05-.606a4.82 4.82 0 01.482-2.448c.324-.66.332-.642-.363-.851-.576-.174-1.498-.168-2.064.014-.506.162-.694.095-.694-.245 0-.361.759-.608 1.842-.598.602.005 1.101.118 1.836.416.237.096.265.088.561-.18.462-.417 1.006-.716 1.196-.656.232.074.304.436.113.572l-.61.428c-1.157.806-1.762 2.286-1.557 3.808.204 1.518 1.143 2.685 2.575 3.202.92.333 2.196.21 3.081-.295.505-.288.595-.257.94.332.6 1.028 1.86 1.92 3.105 2.2.79.177 2.096.112 2.824-.143zm-1.867-3.434c-.061-.04-.133-.314-.172-.66-.037-.326-.118-.715-.18-.865l-.114-.273-.47.076c-1.318.212-2.96-.563-3.727-1.757-.289-.451-.293-.451-1.048-.054-.28.148-.652.45-.956.78-.504.543-.723.644-.91.42-.169-.205-.01-.52.537-1.067.387-.387.698-.61 1.166-.834l.64-.307-.04-.837c-.046-.988.11-1.63.574-2.37.331-.527.534-.627.777-.384l.168.169-.18.292c-.536.87-.608 1.109-.608 2.028 0 .819.015.899.253 1.383.996 2.022 3.493 2.473 5.176.935.234-.214.492-.388.575-.388.189 0 .34.146.34.329 0 .192-.776.94-1.217 1.174-.25.133-.347.227-.315.309.255.657.353 1.7.176 1.876-.11.11-.294.12-.445.025zm-8.05-8.65a4.43 4.43 0 01-.788-.42c-.349-.234-.438-.338-.458-.535-.018-.183.018-.267.14-.333.177-.094.218-.079.633.24.489.377.946.497 1.686.445.703-.05.836-.001.836.305 0 .296-.203.38-.973.403-.51.015-.826-.016-1.076-.106zm15.718 8.599c.642-.168 1.483-.627 1.982-1.083 1.61-1.471 1.953-3.957.802-5.81-.186-.3-.56-.726-.9-1.024-.578-.51-.69-.726-.485-.93.168-.169.374-.103.743.238l.361.333.15-.185c.264-.326.489-1.226.443-1.77-.066-.782-.322-1.337-.875-1.9-.548-.557-1.09-.81-1.897-.883-.575-.052-1.356.172-1.852.53-.466.338-.793.28-.793-.14 0-.138.119-.26.477-.491.262-.17.581-.331.709-.36.274-.06.29-.179.115-.85-.503-1.932-2.258-3.225-4.217-3.108-1.318.08-2.423.737-3.196 1.902-.316.476-.445.56-.67.439-.344-.184-.084-.771.708-1.601l.44-.461-.316-.266c-.774-.653-2.172-1.137-3.287-1.137-1.547 0-2.919.61-3.982 1.77-.39.426-1.045 1.46-1.045 1.65 0 .026.09.048.2.048.425 0 1.44.261 1.967.507.304.14.764.418 1.024.616.437.332.486.351.67.256a3.43 3.43 0 01.54-.194c.27-.073.33-.119.29-.225-.112-.285-.278-1.004-.278-1.197 0-.25.133-.394.361-.394.234 0 .318.13.376.577.028.208.112.52.189.692l.138.313.63.034c1.368.072 2.432.533 3.385 1.47.344.337.629.606.632.596.197-.582.99-1.759 1.271-1.887.153-.07.219-.059.347.057.217.197.2.289-.121.674a4.961 4.961 0 00-.87 1.527l-.177.487.16.469c.087.257.177.671.2.919.04.436.051.453.326.541 1.609.514 2.98 2.032 3.387 3.748l.147.619h1.015c.56 0 1.06.029 1.115.064.139.09.122.41-.028.534-.085.07-.448.115-1.103.137-.538.018-.978.055-.978.082-.002.211-.185 1.144-.282 1.441-.108.332-.106.43.013 1.02.086.423.116.823.087 1.14-.026.269-.024.51.003.537.097.098 1.498.046 1.949-.071zm-2.4-8.864c-.199-.199-.198-.275.008-.48.553-.553 2.005-.724 2.216-.261.143.313-.051.44-.702.457-.433.012-.62.059-.91.228-.435.256-.414.254-.612.056zM10.105 27.187c-.99-.26-1.914-.804-2.738-1.613-.397-.39-.764-.798-.815-.907-.079-.165-.065-.158.086.04 1.066 1.401 2.57 2.314 4.206 2.552.392.057.418.07.154.074-.173.003-.575-.063-.893-.146zm16.812-1.574a.868.868 0 01.276-.068c.074 0 .06.025-.04.068a.868.868 0 01-.275.068c-.075 0-.06-.025.04-.068zm1.182-.466c1.118-.57 1.987-1.321 2.742-2.371.136-.19.136-.187 0 .067-.201.377-.987 1.217-1.524 1.63-.477.367-1.469.927-1.809 1.021-.108.03.158-.126.591-.347zm-22.696-.834a5.847 5.847 0 01-.867-.231c-.321-.13-.275-.123.552.073.26.062.686.145.946.184.311.047.378.073.197.075a5.668 5.668 0 01-.828-.101zm-1.866-.633c-.289-.148-.545-.3-.568-.339-.035-.056 1.095.496 1.206.59.12.1-.192-.022-.638-.25zm-1.168-.774a5.85 5.85 0 01-.75-.729c-.439-.537-.597-.776-.229-.347.408.475.795.858 1.176 1.162.174.139.298.253.276.254-.022.002-.234-.151-.473-.34zm28.87-.898c.308-.616.42-.936.61-1.754.075-.325.14-.51.144-.412.013.327-.31 1.389-.623 2.048-.17.357-.328.65-.352.65-.025 0 .075-.24.221-.532zM.84 21.102c-.41-.7-.847-1.996-.828-2.456.003-.09.072.119.151.466.188.815.338 1.225.671 1.831.305.554.31.676.006.159zm31.015-3.37c-.056-.27-.087-.503-.07-.52.05-.05.24.803.203.911-.018.054-.078-.123-.133-.391zM.053 16.826c.141-1.276.973-2.819 2.058-3.817.365-.336.633-.65.663-.777l.05-.213.002.237c.002.195-.081.305-.483.635-1.112.913-1.839 2.164-2.217 3.817-.106.466-.113.477-.073.118zm31.597.063a5.993 5.993 0 00-.29-.737l-.236-.516.218-.627c.194-.557.218-.734.216-1.61-.002-.851-.03-1.061-.2-1.537-.312-.867-.318-.892-.104-.458.487.99.548 2.4.159 3.627l-.206.648.189.376c.223.445.399.963.345 1.017-.02.02-.061-.062-.09-.183zM2.854 11.743c0-.108.018-.152.04-.098a.304.304 0 010 .197c-.022.054-.04.01-.04-.099zm.073-.36c.004-.093.023-.111.048-.048.022.056.02.124-.007.15-.026.027-.044-.02-.04-.103zm.076-.249c-.004-.12.243-.747.28-.71.016.016-.04.204-.124.418-.084.214-.154.346-.156.292zm27.709-.642c-.321-.52-1.06-1.24-1.59-1.552-.449-.262-.462-.34-.018-.098.432.235 1.544 1.346 1.779 1.778.264.488.161.41-.171-.128zm-27.397-.199c0-.032.16-.307.356-.61.395-.61.97-1.256 1.336-1.503.131-.088.016.042-.255.29-.272.249-.707.774-.966 1.167-.259.394-.471.689-.471.656zm24.528-1.921c-.314-.108-.571-.227-.571-.265 0-.038.062-.035.138.006.075.042.315.131.532.2.367.115.728.289.551.265a9.126 9.126 0 01-.65-.206zM5.326 7.959c.1-.163 1.138-.71 1.734-.913l.632-.216.353-.59c.77-1.29 2.257-2.564 3.657-3.135.673-.274 1.887-.583 2.252-.573.108.003-.194.085-.67.183-2.219.455-4.025 1.687-5.148 3.513l-.406.66-.69.247c-.38.136-.932.393-1.226.572-.294.18-.514.292-.488.252zm21.655-.555c-.136-.3-.232-.547-.211-.547.053 0 .526 1.026.49 1.063-.017.016-.142-.216-.279-.516zm-.54-.96c-.82-1.24-2.36-2.262-3.895-2.586-.37-.078-.58-.144-.468-.147.658-.018 1.983.508 2.878 1.142.512.364 1.394 1.272 1.63 1.68.209.359.112.3-.145-.09zM18.84 3.852l-.197-.165.225.134c.188.113.28.121.566.05.493-.125.622-.093.154.037-.505.14-.515.14-.748-.056zm1.28-.122c.076-.02.2-.02.276 0 .076.02.014.036-.138.036-.152 0-.214-.016-.138-.036zm-2.266-.385a8.732 8.732 0 00-1.3-.506c-.325-.086-.449-.138-.276-.114.174.023.493.099.71.168.413.131 1.615.707 1.615.774 0 .05.065.077-.749-.322zm3.015.303c.184-.017.485-.017.67 0 .184.016.033.03-.335.03-.369 0-.52-.014-.335-.03zm-5.536-1.046l-.237-.06.237-.002c.13 0 .325.027.433.062l.197.063-.197-.001a2.234 2.234 0 01-.433-.062z" fill="#8d4b79"/><path d="M17.185 29.396c-.155-.05-.163-.063-.04-.062.087 0 .264.029.394.062.213.054.217.06.04.061a1.532 1.532 0 01-.394-.061zm2.797 0c.13-.033.308-.061.394-.062.124-.001.115.012-.04.062a1.518 1.518 0 01-.393.061c-.177 0-.173-.007.04-.061zm-3.206-.133c.057-.023.125-.02.15.006.027.027-.02.045-.103.042-.091-.004-.11-.023-.047-.048zm4.152-.104c.216-.093.34-.093.197 0a.487.487 0 01-.237.072c-.077-.002-.064-.027.04-.072zm-5.576-.399c-.249-.128-.453-.251-.453-.273 0-.035.938.411 1.018.485.103.094-.171-.009-.565-.212zm6.246.163a.473.473 0 01.197-.076c.043 0 .025.034-.04.076a.473.473 0 01-.197.076c-.043 0-.025-.034.04-.076zm.551-.245l.532-.321c.141-.086.256-.138.256-.116 0 .053-.907.603-.995.603-.038 0 .056-.075.207-.166zm-7.852-.572a7.072 7.072 0 01-.734-.631c-.237-.25-.308-.282-.551-.248l-.28.04.264-.083c.254-.08.281-.066.71.342.244.233.595.523.78.645.304.201.389.28.304.28-.017 0-.239-.156-.493-.345zm3.321.186c-1.336-.24-2.496-.872-3.447-1.881l-.53-.562-.612.172c-.719.201-1.801.234-2.464.074-.238-.057-.728-.244-1.088-.416-.801-.38-1.657-1.159-2.09-1.9l-.297-.507-.766-.046c-1.443-.088-2.622-.611-3.6-1.598-1.723-1.738-2.07-4.222-.898-6.42.318-.598 1.06-1.412 1.658-1.817l.461-.314V12.6c0-1.113.503-2.228 1.417-3.143.684-.684 1.481-1.141 2.513-1.439l.65-.187.278-.546c.842-1.65 2.288-2.836 4.093-3.358.817-.237 2.54-.253 3.343-.032.7.192 1.56.6 2.178 1.032l.515.36.602-.208c1.277-.44 2.726-.33 4.034.304.958.466 1.899 1.406 2.346 2.345.174.367.358.847.408 1.066l.092.4.588.098c2.733.46 4.297 3.493 3.06 5.935l-.206.405.325.61c.467.876.654 1.654.654 2.713 0 1.703-.624 3.137-1.855 4.264-1.074.983-2.193 1.445-3.66 1.51l-.887.038-.243.457c-.733 1.374-2.192 2.503-3.814 2.95-.552.152-2.18.223-2.758.119zm2.367-1.222a5.314 5.314 0 002.363-1.333c.93-.93 1.352-2.017 1.279-3.298-.036-.62-.077-.769-.408-1.453-.301-.623-.474-.866-.955-1.339-.608-.598-.706-.82-.427-.97.128-.069.216-.053.429.08.302.186.99.913 1.199 1.265.18.304.23.293.289-.063.329-1.99-.742-4.118-2.491-4.948-.522-.248-.686-.286-1.417-.327-1.335-.076-2.279.245-3.19 1.086-.373.343-.531.365-.709.097-.104-.158-.091-.195.174-.488.701-.777 1.981-1.338 3.177-1.394l.683-.032-.024-.258c-.144-1.53-1.44-3.046-3.034-3.547-.784-.246-2.157-.242-2.848.009-.62.225-1.322.69-1.852 1.229-.444.45-.622.522-.79.319-.174-.209-.014-.488.602-1.056l.603-.555-.19-.16c-.296-.252-1.245-.698-1.762-.83-.613-.155-1.75-.152-2.401.008-1.229.303-2.382 1.19-2.852 2.194-.26.555-.466 1.648-.335 1.779.046.046.26.04.566-.018.427-.08.51-.075.619.034.083.084.109.194.075.327-.039.156-.115.21-.345.25-1.164.197-1.889.563-2.57 1.3-.804.868-1.222 2.05-1.126 3.184.191 2.26 2.106 3.98 4.33 3.888l.56-.023-.021-.833c-.025-.976.108-1.597.499-2.337.293-.554.29-.56-.312-.776-.521-.187-1.751-.192-2.227-.01-.397.152-.553.111-.622-.162-.09-.36.385-.561 1.474-.627.772-.046 1.348.053 1.96.337l.427.197.243-.227c.268-.252.877-.67 1.086-.745.075-.028.209.012.305.09.245.198.147.4-.33.68-1.103.65-1.882 2.052-1.882 3.386 0 1.137.363 2.063 1.117 2.849 1.227 1.277 3.016 1.566 4.549.736.236-.128.476-.233.533-.233.056 0 .246.228.422.505.67 1.063 1.85 1.919 3.038 2.206.63.152 1.931.156 2.52.007zm-1.441-3.604c-.044-.055-.104-.306-.135-.56a6.137 6.137 0 00-.165-.83l-.11-.37-.786.032c-1.567.063-2.61-.5-3.638-1.966-.125-.179-.126-.179-.493-.039-.497.19-1.24.749-1.518 1.142-.242.343-.403.438-.608.359-.598-.23.544-1.53 1.851-2.108l.447-.197-.07-.303c-.235-1.011.088-2.39.735-3.134.272-.313.46-.324.614-.035.063.118.028.224-.168.51a3.243 3.243 0 00-.512 2.58c.557 2.506 3.616 3.418 5.445 1.624.23-.227.469-.39.569-.39.217 0 .369.262.265.457-.13.24-.837.86-1.188 1.04-.278.14-.326.198-.285.341.307 1.072.367 1.67.187 1.85-.122.123-.338.121-.437-.003zm-7.842-8.572c-.634-.16-1.477-.74-1.477-1.015 0-.346.35-.416.684-.137.554.462 1.304.659 1.98.518.317-.066.445-.064.532.008.17.142.14.45-.054.554-.223.12-1.293.166-1.665.072zm15.167 8.635c2.273-.405 3.995-2.589 3.82-4.844-.1-1.302-.588-2.282-1.557-3.13-.615-.538-.734-.754-.53-.959.158-.157.312-.11.703.22.206.174.406.316.444.316.04 0 .146-.15.237-.335.594-1.195.371-2.597-.558-3.511-.98-.965-2.422-1.147-3.56-.45-.59.361-.673.392-.814.304-.375-.235.006-.723.832-1.066.38-.157.416-.194.416-.425 0-.413-.292-1.233-.616-1.733-.365-.565-1.08-1.233-1.6-1.497-1.093-.554-2.654-.571-3.678-.04-.532.275-1.233.907-1.582 1.425-.271.404-.385.511-.543.511-.555 0-.342-.636.508-1.516.459-.475.487-.523.36-.624-.717-.567-1.497-.969-2.264-1.166-.61-.158-1.916-.158-2.528-.001-1.088.28-2.186.97-2.857 1.798-.33.408-.883 1.343-.883 1.495 0 .024.169.066.375.092 1.126.145 2.11.532 2.819 1.11l.417.339.523-.183c.288-.1.544-.203.567-.226.024-.024-.01-.214-.077-.423-.209-.655-.237-1.012-.092-1.157.29-.289.547-.078.616.503.026.225.111.538.189.696l.14.288.788.052c1.305.086 2.322.543 3.263 1.466.321.315.592.563.602.551.01-.011.124-.233.255-.493.26-.52.814-1.294 1-1.398.168-.094.436.07.436.266 0 .09-.102.293-.226.45a5.858 5.858 0 00-.877 1.563c-.169.47-.17.5-.043.832.072.19.175.604.228.92l.097.574.588.229c1.514.59 2.688 1.995 3.046 3.646l.129.593.422.053c.232.03.692.013 1.022-.036.665-.1.815-.048.815.274 0 .284-.249.362-1.3.407l-.964.042-.046.52a4.606 4.606 0 01-.18.909c-.118.34-.122.449-.033.897.056.28.099.823.095 1.204l-.006.694.29.03c.564.06.77.052 1.372-.056zm-2.091-8.922c-.101-.102-.051-.397.088-.524.537-.486 2.02-.651 2.177-.243.025.067.01.19-.035.273-.067.125-.169.152-.571.153a1.97 1.97 0 00-.912.197c-.424.197-.65.24-.747.144zm-.762 13.577c0-.016.062-.078.138-.138.125-.098.128-.095.03.03-.103.131-.168.173-.168.108zm.831-.722c.305-.302.707-.772.893-1.046.186-.274.38-.51.43-.525.05-.016.358-.045.683-.066.358-.023.498-.014.355.023a3.56 3.56 0 01-.647.071c-.397.009-.417.02-.663.384-.408.6-.826 1.078-1.23 1.404-.281.226-.236.164.18-.245zm-13.064-.17a.861.861 0 01.315 0c.075.02-.005.036-.178.035-.174 0-.235-.017-.137-.036zm1.497 0a.861.861 0 01.315 0c.075.02-.005.036-.178.035-.173 0-.235-.017-.137-.036zm-2.426-.172a3.577 3.577 0 01-.59-.238c-.156-.098-.156-.098 0-.042.087.032.424.139.75.238.324.1.52.182.433.182-.087 0-.353-.063-.593-.14zm-1.2-.527c-.295-.16-.277-.227.02-.074.13.068.236.14.236.16 0 .05-.008.048-.256-.086zm-.587-.395l-.22-.202.255.178c.141.098.256.19.256.203 0 .062-.087.008-.29-.179zm-.875-.776c-.305-.321-.595-.667-.644-.768-.062-.127-.035-.111.09.053.097.13.407.476.686.768.28.293.49.532.466.532-.023 0-.292-.263-.598-.585zm19.356.295c.057-.023.125-.02.15.006.027.026-.02.045-.103.041-.092-.003-.11-.022-.047-.047zm.315-.079c.057-.023.125-.02.15.006.027.026-.02.045-.103.042-.091-.004-.11-.023-.047-.048zm.645-.197c.108-.052.401-.194.65-.317.25-.122.453-.205.453-.183 0 .056-.868.484-1.103.544l-.197.05zm1.182-.565c0-.018.093-.094.207-.168.114-.075.183-.097.153-.05-.056.092-.36.275-.36.218zm.922-.706c.227-.208.56-.545.74-.748.18-.204.255-.264.167-.134-.163.24-.867.933-1.161 1.146-.088.063.026-.055.254-.264zm-23.52.207c.077-.02.2-.02.277 0 .075.02.013.036-.138.036-.152 0-.214-.016-.138-.036zm-1.118-.15c-.236-.064-.449-.138-.473-.165-.024-.026.045-.023.154.007.108.03.445.104.748.162.37.072.461.108.276.109a3.357 3.357 0 01-.705-.114zm-1.437-.547c-.289-.148-.545-.3-.568-.339-.035-.056 1.095.496 1.206.59.12.1-.192-.022-.638-.25zm-1.136-.766l-.15-.177.177.15c.167.14.213.204.15.204-.015 0-.094-.08-.177-.177zm28.378-.089c.075-.113.15-.206.169-.206.057 0-.127.303-.217.36-.048.029-.026-.04.048-.154zm-28.887-.344l-.271-.296.295.272c.275.252.332.32.272.32-.014 0-.147-.134-.296-.296zm29.241-.257c.089-.173.179-.315.2-.315.022 0-.033.142-.121.315-.089.174-.179.316-.2.316-.022 0 .033-.142.121-.316zm-29.68-.256c-.232-.265-.368-.453-.328-.453.02 0 .15.142.29.315.27.337.297.434.038.138zm29.96-.256c.03-.086.138-.406.239-.709.1-.303.185-.495.187-.426.004.156-.27.964-.392 1.153-.08.126-.084.125-.034-.018zM.671 20.798c-.112-.22-.19-.415-.174-.431.016-.016.124.165.24.402.117.237.195.431.175.431-.02 0-.13-.18-.241-.402zm31.186-.504c.002-.087.031-.264.064-.394l.06-.237.004.237c.002.13-.027.307-.064.394l-.068.157.004-.157zm-31.603-.53a6.194 6.194 0 01-.202-.894c-.033-.278-.003-.21.104.242.083.346.19.733.238.858.049.125.072.244.052.263-.02.02-.106-.19-.192-.469zm31.632-1.918c-.03-.158-.036-.305-.014-.327.021-.021.063.09.093.249.03.158.036.305.015.327-.022.021-.064-.09-.094-.249zm-.116-.553c.004-.092.022-.11.047-.048.023.057.02.125-.006.151-.026.026-.045-.02-.041-.103zM.017 16.945c0-.109.018-.153.04-.099a.304.304 0 010 .197c-.022.054-.04.01-.04-.098zm31.535-.334c-.095-.27-.16-.503-.146-.518.04-.04.367.863.34.941-.012.038-.1-.153-.194-.423zm-31.456-.06c0-.109.018-.153.04-.099a.304.304 0 010 .197c-.022.054-.04.01-.04-.099zm.078-.316c0-.065.03-.189.067-.276.043-.099.068-.113.068-.039 0 .065-.03.19-.068.276-.042.1-.067.114-.067.04zm31-.471c-.027-.043.044-.37.158-.73.119-.373.236-.986.275-1.439l.068-.788-.028.788c-.02.575-.084.965-.235 1.44-.114.358-.186.686-.16.729.027.042.03.077.009.077-.022 0-.061-.035-.088-.077zm-30.809-.16c.03-.108.086-.25.126-.314.05-.083.057-.059.02.078-.028.109-.085.25-.125.316-.051.082-.057.058-.02-.08zm.468-1.024c.067-.13.14-.236.161-.236.022 0-.015.106-.083.236-.067.13-.14.237-.161.237-.022 0 .015-.107.083-.237zm.448-.661c.143-.212.536-.638.871-.946.428-.392.614-.619.622-.757.01-.195.011-.195.046-.012.028.15-.098.315-.667.867-.387.375-.8.806-.918.958-.127.162-.108.117.046-.11zm30.262-1.348c.001-.13.019-.174.039-.097a.45.45 0 01-.003.236c-.022.054-.038-.01-.036-.14zm-.225-.818c-.093-.287-.159-.533-.145-.547.042-.045.362.874.338.973-.013.053-.1-.139-.193-.426zm-28.47-.056c.004-.091.023-.11.048-.047.023.057.02.125-.006.15-.027.027-.045-.02-.042-.103zm.155-.563c-.004-.12.243-.747.28-.71.016.016-.04.204-.124.418-.084.214-.154.346-.156.292zm27.664-.72c-.28-.438-1.01-1.153-1.445-1.419-.362-.221-.393-.31-.04-.113.485.27 2.003 1.916 1.767 1.916-.02 0-.147-.173-.282-.384zm-27.352-.163c0-.041.035-.096.078-.123.044-.027.058.004.03.075-.052.136-.108.161-.108.048zm.236-.399c.047-.087.102-.158.124-.158.022 0 .001.071-.045.158-.046.087-.102.158-.124.158-.021 0-.001-.071.045-.158zm.47-.667c.215-.298.75-.842.988-1.004.13-.09.081-.023-.11.147-.19.17-.49.468-.669.663-.178.195-.272.282-.209.194zm23.625-.882c-.206-.063-.374-.156-.374-.205 0-.065.026-.064.094.005.052.052.15.096.217.098.067.002.228.052.359.111.304.14.178.136-.296-.01zM5.285 8.01c0-.017.062-.079.138-.138.125-.098.128-.095.03.03-.103.13-.168.173-.168.108zm.315-.24c0-.022.071-.078.158-.125.087-.046.157-.066.157-.044 0 .021-.07.077-.157.123-.087.047-.158.067-.158.045zm21.333-.481c-.116-.238-.194-.432-.174-.432.053 0 .45.798.415.834-.016.016-.124-.165-.24-.402zm-20.939.239c0-.054.483-.293.519-.257.017.017-.093.09-.244.162-.151.072-.275.115-.275.095zm.71-.355a.473.473 0 01.197-.077c.043 0 .025.035-.04.077a.473.473 0 01-.197.076c-.043 0-.026-.034.04-.076zm.63-.216c.195-.069.4-.181.457-.25.09-.108.092-.103.025.038-.044.09-.217.205-.388.256-.446.134-.512.103-.094-.044zm18.965-.71c-.548-.741-1.276-1.35-2.201-1.841-.641-.34-.668-.418-.035-.1.867.435 1.874 1.296 2.41 2.059.279.398.136.301-.174-.118zm-18.203-.1a4.02 4.02 0 01.323-.453c.101-.119.053-.012-.107.237-.303.473-.46.63-.216.216zm1.011-1.248c.544-.57 1.694-1.47 1.694-1.328 0 .018-.204.168-.453.332-.249.165-.754.586-1.123.936l-.67.636zm13.791-.967c-.365-.114-.402-.137-.16-.102.172.026.42.094.552.151.334.147.166.126-.392-.049zm-4.058-.08l-.197-.165.221.132c.144.087.31.117.473.089.193-.034.215-.028.094.028-.245.114-.378.095-.591-.084zm.847-.041a.304.304 0 01.197 0c.054.022.01.04-.099.04-.108 0-.153-.018-.098-.04zm.435-.082a.45.45 0 01.236.003c.053.022-.01.038-.14.037-.13-.002-.173-.02-.096-.04zm1.97 0a.45.45 0 01.236.003c.054.022-.01.038-.14.037-.13-.002-.173-.02-.096-.04zm-3.69-.146c-.147-.118-.146-.12.024-.037.097.047.177.102.177.123 0 .06-.04.042-.202-.086zm2.467.065c.184-.017.485-.017.67 0 .184.016.033.03-.335.03-.369 0-.52-.014-.335-.03zm-9.989-.139c0-.054.483-.293.519-.257.017.017-.093.09-.244.162-.151.072-.275.115-.275.095zm6.739-.293a5.56 5.56 0 00-.71-.27c-.303-.099-.495-.181-.426-.183.069-.002.322.064.561.147.46.158.944.394.81.396a.654.654 0 01-.235-.09zm-5.95-.102a.87.87 0 01.275-.112c.043 0-.01.05-.118.112a.87.87 0 01-.276.113c-.043 0 .01-.05.118-.113zm.787-.279c.239-.08.505-.144.591-.144.087 0-.073.068-.354.15-.65.19-.81.185-.237-.006zm3.606-.128a.304.304 0 01.197 0c.054.022.01.04-.099.04-.108 0-.153-.018-.098-.04zm-2.62-.105c.13-.033.324-.06.433-.06.176 0 .171.006-.04.06-.13.033-.325.06-.433.06-.176 0-.172-.006.04-.06zm1.97 0c-.213-.054-.217-.06-.04-.062.108 0 .286.027.394.062.154.05.163.063.04.062a2.137 2.137 0 01-.395-.062z" fill="#5d5066"/><path d="M17.909 28.29c-1.522-.209-2.97-.972-3.853-2.033a17.342 17.342 0 01-.383-.467c-.005-.01-.219.057-.475.151-.646.237-2.3.258-2.948.037-1.258-.429-2.376-1.32-2.901-2.315l-.26-.493-.646-.001c-.836-.002-1.51-.164-2.337-.564-.934-.452-1.876-1.394-2.348-2.35a5.421 5.421 0 01.523-5.675c.345-.457 1.065-1.112 1.426-1.299.2-.104.217-.154.26-.767.149-2.099 1.744-3.899 3.957-4.465.346-.088.642-.198.657-.244.102-.307.652-1.225.984-1.645 1.23-1.554 3.038-2.403 5.098-2.395 1.411.006 2.784.455 3.845 1.258l.416.315.505-.183c2.751-.998 5.924.56 6.75 3.318.22.733.25.785.47.808.987.103 1.933.542 2.593 1.203 1.235 1.237 1.56 3.181.788 4.722l-.214.428.308.571c.419.777.617 1.496.67 2.437.156 2.75-1.602 5.179-4.274 5.903-.258.07-.85.149-1.315.176-.71.04-.853.07-.89.187-.086.27-.69 1.145-1.05 1.521-1.33 1.386-3.451 2.124-5.356 1.862zm1.85-1.139c.88-.166 1.799-.64 2.475-1.278 1.946-1.836 1.95-4.368.009-6.29-.502-.497-.587-.618-.517-.73.178-.284.406-.206.957.326.292.281.619.655.727.83.109.176.221.32.25.322.199.008.224-1.63.037-2.352-.329-1.264-1.245-2.414-2.363-2.967-1.489-.736-3.278-.486-4.599.642-.45.385-.753.44-.795.143-.033-.232.217-.514.83-.933.754-.514 1.53-.77 2.483-.818.881-.044.862-.02.651-.829-.503-1.932-2.29-3.295-4.335-3.306-1.308-.007-2.348.433-3.34 1.414-.276.273-.53.497-.565.497-.092 0-.311-.233-.311-.332 0-.147.527-.735.942-1.052.38-.29.393-.31.26-.44-.27-.267-1.092-.707-1.635-.877-.75-.234-2.133-.234-2.851 0-1.036.339-1.971 1.028-2.485 1.834-.32.5-.55 1.307-.52 1.822.021.374.043.421.182.4.713-.111.955-.106 1.062.022.178.215.001.381-.518.486-1.712.347-2.895 1.405-3.373 3.018-.182.613-.168 1.747.03 2.386.573 1.856 2.582 3.22 4.422 3.002l.385-.046-.05-.649c-.075-.984.176-2.089.624-2.74.083-.121.134-.266.112-.322-.021-.056-.274-.178-.56-.273-.641-.21-1.438-.223-2.141-.036-.479.127-.514.127-.643-.002-.192-.192-.055-.375.41-.548.824-.308 2.128-.232 2.964.173.432.208.428.208.728-.075.405-.384.976-.722 1.174-.694.128.019.188.086.205.233.02.175-.039.246-.373.452-1.507.927-2.239 2.773-1.8 4.542.613 2.48 3.416 3.712 5.633 2.477.225-.125.456-.21.512-.19.056.022.2.215.321.43.501.89 1.468 1.69 2.525 2.088.958.36 1.838.434 2.864.24zm-1.178-3.699c-.061-.061-.133-.336-.16-.61a4.266 4.266 0 00-.158-.815l-.11-.315-.662.027c-1.53.06-2.843-.598-3.628-1.82-.133-.205-.259-.374-.28-.374-.022 0-.276.112-.564.248-.37.176-.692.419-1.1.832-.637.644-.898.73-.946.316-.021-.184.07-.315.552-.79.519-.514 1.158-.92 1.742-1.11.123-.039.133-.098.079-.46-.156-1.044.05-2.08.574-2.878.265-.404.365-.463.618-.366.19.073.15.3-.122.705-.673.996-.713 2.422-.097 3.474.272.465.983 1.109 1.472 1.333 1.239.567 2.625.312 3.714-.683.364-.333.478-.398.583-.332a.416.416 0 01.157.26c.033.226-.635.875-1.192 1.157-.299.151-.372.225-.329.328.144.345.258.806.309 1.244.045.393.032.505-.075.611-.159.16-.232.163-.377.018zm-8.267-8.74c-.54-.227-1.089-.646-1.089-.832 0-.16.148-.324.291-.324.056 0 .26.12.453.268.518.395 1.031.54 1.792.508.536-.023.65-.006.723.109.069.107.057.167-.051.276-.11.11-.298.144-.905.16-.66.02-.828-.004-1.214-.166zm16.196 8.703c1.503-.53 2.697-1.806 3.08-3.29.16-.62.16-1.721 0-2.342-.225-.87-.615-1.49-1.403-2.225-.603-.563-.702-.688-.63-.802.154-.246.404-.205.795.13.203.173.398.297.434.275.14-.086.446-.807.534-1.256.235-1.195-.441-2.576-1.55-3.166-1.067-.567-2.072-.493-3.207.235l-.386.248-.15-.184c-.218-.27-.062-.453.708-.831l.642-.316-.048-.354c-.072-.535-.353-1.25-.69-1.756-1.14-1.717-3.479-2.34-5.297-1.411-.436.223-1.304 1.043-1.642 1.551-.308.465-.525.552-.675.272-.117-.219.187-.737.821-1.4l.477-.497-.313-.272c-.172-.15-.632-.43-1.022-.62-1.59-.783-3.125-.781-4.751.003-.976.471-1.874 1.34-2.363 2.286-.181.352-.307.662-.28.69.029.028.182.05.341.05.385 0 1.352.253 1.89.494.24.106.656.36.927.566l.492.372.532-.174c.293-.095.557-.196.586-.223.03-.027-.013-.244-.096-.483-.2-.577-.203-1.072-.008-1.176.226-.121.373.054.469.558.047.245.138.573.204.73.117.281.12.282.614.284 1.44.004 3.195.83 3.925 1.847.108.151.215.276.236.277.022.001.155-.237.295-.53.315-.654.92-1.438 1.11-1.438.156 0 .33.144.33.273 0 .047-.16.297-.354.556-.414.552-.795 1.299-.869 1.702-.034.185-.006.419.08.67.072.211.155.613.184.893l.052.508.485.174c.754.27 1.199.562 1.84 1.208.676.681 1.103 1.44 1.31 2.33.198.847.1.788 1.29.788.906 0 1.058.018 1.133.136.145.23-.092.368-.78.457-.346.044-.81.058-1.03.032l-.403-.05-.054.533a5.5 5.5 0 01-.209.99c-.146.433-.147.483-.028.991.082.351.114.76.093 1.183-.027.538-.012.654.09.686.31.096 1.794-.025 2.24-.182zm-2.703-8.87c-.168-.203-.05-.393.392-.631.373-.201.519-.234 1.053-.237.508-.002.637.022.71.135.064.1.064.175 0 .276-.067.107-.202.14-.6.145-.4.005-.595.053-.887.217-.43.24-.535.255-.668.095zM13.865 27.76c-.098-.125-.096-.128.03-.03.075.06.137.121.137.138 0 .065-.064.023-.167-.108zm9.94-.202c0-.014.115-.13.255-.257l.256-.231-.231.256c-.216.239-.28.292-.28.232zm-13.097-.266c.057-.023.125-.02.15.006.027.026-.02.045-.103.042-.091-.004-.11-.023-.047-.048zm1.812 0c.057-.023.125-.02.151.006.027.026-.02.045-.103.042-.092-.004-.11-.023-.048-.048zm11.915-.449c0-.016.062-.078.138-.138.125-.098.127-.095.03.03-.104.131-.168.173-.168.108zM7.639 25.87c-.098-.125-.095-.128.03-.03.076.06.138.122.138.138 0 .065-.065.023-.168-.108zm18.078.005a.45.45 0 01.236.003c.054.021-.01.038-.14.036-.13-.002-.173-.02-.096-.04zM6.893 25.12l-.15-.178.177.15c.167.141.213.205.15.205-.015 0-.094-.08-.177-.177zm-.799-.745a.45.45 0 01.237.003c.053.022-.01.038-.14.037-.13-.002-.173-.02-.097-.04zm-.666-.078c.057-.022.125-.02.15.007.027.026-.02.044-.103.041-.091-.004-.11-.022-.047-.048zm24.523-.458c.28-.282.525-.512.547-.512.022 0-.189.23-.468.512-.28.282-.526.512-.547.512-.022 0 .189-.23.468-.512zM1.892 22.48l-.271-.295.295.272c.275.252.332.32.272.32-.014 0-.147-.134-.296-.296zm30.035-2.43c.004-.091.023-.11.048-.047.023.057.02.125-.006.151-.026.026-.045-.02-.042-.103zm0-2.206c.004-.092.023-.11.048-.047.023.056.02.124-.006.15-.026.027-.045-.02-.042-.103zm-.791-2.2c0-.043.034-.132.076-.197.042-.065.076-.083.076-.04a.473.473 0 01-.076.198c-.042.065-.076.083-.076.04zm.397-1.267c.004-.092.023-.11.048-.048.023.057.02.125-.006.151-.026.026-.045-.02-.042-.103zm.1-.979c0-.325.013-.458.03-.295a3.43 3.43 0 010 .59c-.017.163-.03.03-.03-.295zm-30.091.158c.078-.087.16-.158.182-.158.021 0-.025.071-.103.158-.079.087-.16.158-.182.158-.022 0 .024-.071.103-.158zm.354-.34c0-.014.116-.129.256-.256l.257-.232-.232.257c-.216.238-.28.292-.28.231zM30.377 9.99l-.15-.177.177.15c.098.082.178.162.178.177 0 .063-.064.017-.205-.15zm-.668-.67l-.191-.217.216.191c.203.179.253.243.191.243-.014 0-.111-.098-.216-.217zM4.497 8.63c.235-.238.446-.433.467-.433.022 0-.153.195-.388.434-.236.238-.446.433-.468.433-.021 0 .154-.195.389-.433zm21.546-2.738l-.15-.177.177.15c.167.141.213.204.15.204-.015 0-.095-.08-.177-.177zM8.595 5.41c0-.016.062-.078.138-.138.125-.098.128-.095.03.03-.103.131-.168.173-.168.108zm16.738-.226l-.15-.177.178.15c.166.14.213.204.15.204-.015 0-.095-.08-.178-.177zM20.672 3.65c.076-.02.2-.02.276 0 .075.02.013.036-.138.036-.152 0-.214-.016-.138-.036zm.788 0c.076-.02.2-.02.276 0 .075.02.013.036-.138.036-.152 0-.214-.016-.138-.036z" fill="#0d3647"/><path d="M17.32 28.135c-1.226-.258-2.268-.857-3.152-1.81l-.519-.562-.577.179c-.744.23-1.996.247-2.7.035a5.3 5.3 0 01-2.045-1.156c-.471-.441-.976-1.101-1.096-1.434-.091-.253.01-.142.288.315.617 1.014 1.76 1.883 2.849 2.167.777.202 1.804.197 2.639-.013l.669-.168.553.586c.961 1.02 2.05 1.594 3.45 1.821.916.149 1.284.148 2.142-.001 1.824-.318 3.316-1.336 4.142-2.824.172-.31.312-.512.313-.45.002.247-.682 1.254-1.182 1.739-1.493 1.449-3.621 2.03-5.774 1.576zm6.484-.576c0-.014.116-.13.256-.257l.256-.231-.231.256c-.216.239-.28.292-.28.232zm-5.771-.268a.861.861 0 01.315.002c.075.02-.005.035-.178.034-.174 0-.235-.017-.137-.036zm1.102 0c.098-.019.257-.019.355 0 .097.019.017.034-.178.034s-.274-.015-.177-.034zm-1.576-.075a.304.304 0 01.197 0c.054.022.01.04-.099.04-.108 0-.152-.018-.098-.04zm2.206 0a.304.304 0 01.197 0c.055.022.01.04-.098.04s-.153-.018-.099-.04zm-2.516-.08c.057-.023.124-.02.15.006.027.026-.02.044-.103.041-.092-.004-.11-.022-.047-.048zm-1.049-.419c-.028-.044.004-.058.074-.03.137.052.162.108.048.108-.04 0-.095-.035-.122-.078zm4.925.051c0-.02.168-.135.374-.256.489-.286 1.155-.917 1.488-1.41.146-.216.266-.364.266-.33 0 .148-.495.765-.963 1.2-.439.407-1.165.904-1.165.796zm-5.34-.287c-.263-.161-.363-.302-.117-.167.183.1.463.318.413.32-.021.002-.154-.067-.295-.153zm-.776-.651c-.29-.314-.457-.532-.408-.532.02 0 .187.177.37.394.374.444.397.527.038.138zm10.83.044c.056-.022.124-.02.15.007.027.026-.02.045-.103.041-.092-.004-.11-.022-.048-.048zM6.85 25.081c-.098-.125-.095-.128.03-.03.131.103.173.168.108.168-.016 0-.078-.062-.138-.138zm4.68.082a1.74 1.74 0 01.433 0c.119.018.021.032-.217.032s-.336-.014-.217-.032zm-1.813-.498c-.228-.13-.414-.254-.414-.276 0-.02.204.075.453.213.527.291.543.302.447.301-.04 0-.259-.107-.486-.238zm3.375.21c.08-.074.703-.364.703-.329 0 .045-.595.358-.68.358-.03 0-.04-.014-.023-.03zm1.008-.21c-.132-.148-.169-.234-.101-.234.059 0 .162.106.23.236.15.293.133.292-.13-.003zm11.086-.08c1.607-.108 2.667-.54 3.716-1.518a5.688 5.688 0 001.754-3.51c.061-.52.061-.521.072-.123.025.994-.607 2.487-1.44 3.396a5.527 5.527 0 01-4.24 1.826l-.733-.012zm-19.093-.209a.45.45 0 01.237.003c.053.022-.01.038-.14.037-.13-.002-.173-.02-.097-.04zm23.384-.054c0-.016.062-.078.138-.137.125-.098.128-.096.03.03-.103.13-.168.172-.168.107zm-20.694-.384l-.15-.177.178.15c.166.141.213.205.15.205-.015 0-.095-.08-.178-.178zm15.473-.268a.304.304 0 01.197 0c.055.021.01.04-.098.04s-.153-.019-.099-.04zm1.46-.003a.45.45 0 01.236.003c.054.022-.01.038-.14.036-.13-.001-.173-.019-.096-.039zm.437-.078c.057-.023.124-.02.15.006.027.027-.02.045-.103.042-.092-.004-.11-.023-.047-.048zm4.152-.104c.078-.086.16-.157.182-.157.021 0-.025.07-.104.157-.078.087-.16.158-.182.158-.021 0 .025-.07.104-.158zm-11.749-.106a.854.854 0 01-.011-.34c.033-.22.034-.22.045.028.014.3.129.393.304.248.108-.09.122-.087.09.013-.053.16-.371.198-.428.051zM8.201 23.17c-.047-.087-.067-.157-.045-.157.022 0 .077.07.124.157.046.087.066.158.045.158-.022 0-.078-.071-.124-.158zm15.548-.236c0-.239.015-.336.033-.217.018.12.018.314 0 .433-.018.12-.033.022-.033-.216zm3.372.29c.134-.106.624-.374.624-.343 0 .051-.512.368-.594.368-.035 0-.048-.012-.03-.026zm-20.89-.098c.276-.061.771-.072.737-.016-.02.033-.221.056-.446.051-.225-.005-.356-.02-.291-.035zm-1.383-.253c-1.585-.538-2.757-1.673-3.316-3.212-.349-.962-.39-2.296-.102-3.374.155-.583.723-1.564 1.198-2.072.443-.474 1.095-.974 1.27-.974.046 0-.057.093-.23.207-.465.308-1.116.956-1.452 1.448-.652.953-.911 1.929-.853 3.22.065 1.465.588 2.614 1.618 3.558.796.73 1.463 1.06 2.62 1.297.453.093.475.106.196.111-.173.003-.6-.09-.949-.21zm22.975-.048c0-.016.062-.078.138-.138.125-.098.128-.095.03.03-.103.131-.168.173-.168.108zm-25.93-.344l-.272-.296.295.272c.275.252.332.32.272.32-.014 0-.147-.134-.296-.296zm26.29.036c.03-.078.074-.122.098-.098.024.025 0 .088-.054.142-.078.077-.087.068-.044-.044zm-4.445-.214c0-.108.018-.152.04-.098a.304.304 0 010 .197c-.022.054-.04.01-.04-.099zm-15.919-.079c0-.108.018-.152.04-.098a.304.304 0 010 .197c-.022.054-.04.01-.04-.099zm-1.45-.052a.304.304 0 01.197 0c.054.022.01.04-.099.04-.108 0-.153-.018-.098-.04zm-1.137-.13c-.392-.145-.407-.224-.019-.097.191.062.419.128.505.148.124.027.115.035-.039.038a1.517 1.517 0 01-.447-.09zm23.419-.054a.77.77 0 01.17-.158c.016 0-.016.071-.07.158-.054.087-.131.158-.17.158-.04 0-.009-.071.07-.158zm.44-.586c.092-.155.182-.28.2-.28.056 0-.2.458-.285.511-.044.027-.005-.077.086-.231zm-25.355-.25l-.382-.364.355.296c.476.397.512.431.457.431-.026 0-.22-.163-.43-.363zm13.192.07c.141-.018.372-.018.513 0 .14.017.025.032-.256.032-.282 0-.397-.015-.257-.032zm-5.603-.16a11.4 11.4 0 00.337-.335c.105-.108.075-.046-.066.138-.14.184-.293.335-.337.335-.045 0-.015-.062.066-.138zm3.771.044c-.256-.145-.558-.414-.831-.741-.246-.295-.243-.294.084.035a5.1 5.1 0 00.642.542c.166.11.302.213.302.23 0 .04-.02.034-.197-.066zm1.28.042a.304.304 0 01.198 0c.054.022.01.04-.099.04-.108 0-.152-.018-.098-.04zm1.42 0a.304.304 0 01.196 0c.055.022.01.04-.098.04-.109 0-.153-.018-.099-.04zm1.41-.08c.093-.08.297-.243.454-.365a2.18 2.18 0 00.411-.414c.108-.165.111-.213.019-.33-.098-.125-.095-.128.03-.03.076.06.138.138.138.175 0 .128-.5.635-.86.87-.199.13-.285.173-.192.094zm-8.22-.07c-.027-.068-.017-.155.022-.193.04-.04.07.012.07.123 0 .224-.026.243-.093.07zm-7.931-.527c-.214-.29-.358-.538-.24-.414.146.154.507.67.468.67-.021 0-.124-.115-.228-.256zm20.04.099c-.046-.087-.067-.158-.045-.158.022 0 .077.07.124.158.046.086.066.157.045.157-.022 0-.078-.07-.124-.157zm-8.183-.217l-.296-.296.28.237c.153.13.313.262.354.295.041.033.049.06.017.06s-.192-.134-.355-.296zm4.557-.084c.238-.225.449-.409.468-.409.068 0-.43.49-.664.652-.13.09-.042-.019.196-.243zm-12.208.176c.004-.092.023-.11.048-.048.023.057.02.125-.006.151-.026.026-.045-.02-.042-.103zm4.328-.309c.236-.238.446-.433.468-.433.022 0-.153.195-.389.433-.235.239-.446.434-.467.434-.022 0 .153-.195.388-.434zm.394.246c0-.016.063-.078.138-.138.125-.098.128-.095.03.03-.103.131-.168.173-.168.108zm12.143-.174c.003-.091.022-.11.047-.047.023.057.02.125-.006.15-.026.027-.045-.02-.041-.103zm-16.387-.032c0-.065.03-.19.068-.276.042-.1.067-.114.067-.04 0 .065-.03.19-.067.276-.043.1-.068.114-.068.04zm15.6-.103c-.1-.166-.098-.167.038-.037.078.075.125.153.104.173-.02.021-.084-.04-.142-.136zm.471.057c.004-.092.023-.11.048-.048.023.057.02.125-.006.151-.026.026-.045-.02-.042-.103zm-16.469-.033c-.008-.152.152-.734.192-.694.016.016-.019.205-.078.42-.059.216-.11.339-.114.274zm4.992.008c.056-.09.36-.274.36-.217 0 .018-.093.094-.207.168-.114.075-.183.097-.153.05zm10.358-.146c-.098-.125-.095-.128.03-.03.13.103.173.168.108.168-.017 0-.079-.062-.138-.138zm1.527-.296c.001-.173.017-.235.036-.137a.861.861 0 01-.002.316c-.02.075-.035-.005-.034-.179zm-.307-.512c0-.412.014-.58.03-.374a5.76 5.76 0 010 .748c-.016.206-.03.038-.03-.374zm-9.722.374c-.193-.316-.346-.762-.283-.826.026-.026.048.008.048.076s.104.322.232.565c.252.48.254.597.003.185zm8.742.038a8.436 8.436 0 01-.307-.375c-.115-.152-.113-.152.067.002.183.157.523.592.462.592-.018 0-.118-.099-.222-.22zm-15.002-.038a.794.794 0 01.125-.254c.04-.042.032.038-.016.177-.1.287-.192.352-.11.077zm4.212.144c0-.022.071-.078.158-.124.086-.046.157-.067.157-.045 0 .022-.07.078-.157.124s-.158.067-.158.045zm9.903-.334c-.166-.152-.29-.288-.275-.303.014-.014.162.098.328.25s.29.289.275.303c-.014.014-.162-.098-.328-.25zm7.776-.42c0-.325.014-.458.03-.296a3.43 3.43 0 010 .591c-.016.163-.03.03-.03-.295zm-17.048.394a.473.473 0 01.197-.077c.043 0 .025.035-.04.077a.473.473 0 01-.197.076c-.043 0-.026-.034.04-.076zm-5.157-.181c.03-.078.073-.121.098-.097.024.024 0 .088-.054.141-.078.077-.087.068-.044-.044zm17.233.044a3.43 3.43 0 01.591 0c.163.017.03.031-.295.031-.325 0-.458-.014-.296-.03zm1.104-.075c.076-.02.2-.02.276 0 .075.02.013.036-.138.036-.152 0-.214-.016-.138-.036zm.5-.135c.04-.102.01-.185-.093-.263-.148-.111-.148-.113.006-.086.181.032.254.277.121.409-.068.067-.076.053-.034-.06zm-4.628-.146c.133-.169.175-.17.37-.015.145.117.144.118-.03.034-.14-.068-.213-.065-.315.015-.12.093-.122.09-.025-.034zm3.064-.037c.14-.018.371-.018.512 0 .14.017.026.032-.256.032-.282 0-.397-.015-.256-.032zM7.85 18.655c.03-.078.074-.121.098-.097.024.024 0 .088-.054.141-.077.078-.087.068-.044-.044zm16.569.048c.057-.023.125-.02.151.006.026.027-.02.045-.103.042-.092-.004-.111-.023-.048-.048zm1.376 0a.45.45 0 01.236.002c.053.022-.01.038-.14.037-.13-.002-.173-.02-.096-.04zm4.877-.222c-.023-.54-.4-1.791-.686-2.271-.299-.503-.326-.65-.165-.883.058-.086.18-.35.271-.589.09-.238.167-.363.17-.276.001.087-.105.386-.236.664l-.24.507.35.685c.38.742.632 1.684.581 2.172l-.031.306zm-16.87-.085c.003-.092.022-.11.047-.048.023.057.02.125-.006.151-.027.026-.045-.02-.042-.103zm-5.032-.19c.054-.087.13-.158.17-.158.04 0 .008.07-.07.157a.769.769 0 01-.17.158c-.016 0 .016-.07.07-.158zm15.046 0c0-.109.018-.153.04-.1a.304.304 0 010 .198c-.022.054-.04.01-.04-.099zm-10.47-.355c.001-.26.016-.357.033-.216a2.1 2.1 0 010 .473c-.019.119-.033.003-.032-.257zm10.779.23c.003-.092.022-.11.047-.048.023.057.02.125-.006.151-.026.026-.045-.02-.041-.103zm-14.94-.27c.078-.086.16-.157.182-.157.022 0-.025.07-.103.157-.079.087-.16.158-.182.158-.022 0 .024-.07.103-.158zm-4.61-.07c0-.07.237-.192.283-.145.014.013-.045.068-.13.12-.084.053-.153.065-.153.026zm3.31-.008c-.065-.042-.083-.077-.04-.077.044 0 .132.035.197.077.065.042.083.076.04.076a.473.473 0 01-.197-.076zm.63.049c0-.017.062-.079.138-.138.125-.098.128-.096.03.03-.103.13-.168.172-.168.108zm1.042-.252c.075-.079.158-.121.184-.095.027.027-.034.09-.136.143-.176.09-.178.088-.048-.048zm-.634-.078c.073-.084.25-.22.394-.302.309-.176.228-.089-.21.227-.184.132-.26.163-.184.075zm4.878-.16c.004-.091.023-.11.048-.047.023.057.02.125-.006.151-.027.026-.045-.02-.042-.103zm-.394-.236c.004-.092.023-.11.048-.047.023.056.02.124-.006.15-.027.027-.045-.02-.042-.103zm10.25-.328c-.086-.201-.084-.206.027-.064.065.084.12.182.12.217 0 .12-.054.064-.147-.153zm-.512-.118l-.141-.257.163.187c.141.16.213.326.141.326-.012 0-.086-.116-.163-.256zm5.946-.104c-.091-.154-.13-.258-.086-.231.085.053.341.512.285.512-.018 0-.108-.126-.2-.28zm-15.06-.001c.001-.089.299-.585.351-.585.021 0-.038.133-.131.296-.209.364-.22.378-.22.289zm9.378-.19c-.046-.088-.066-.159-.045-.159.022 0 .078.071.124.158.046.087.067.158.045.158-.022 0-.077-.071-.124-.158zm-9.729-.1a.794.794 0 01.126-.254c.04-.042.032.038-.017.178-.1.286-.192.35-.109.077zm9.12-.078c-.117-.153-.192-.296-.153-.296.02 0 .093.089.164.197.133.203.125.274-.01.099zm.25-.315l-.232-.257.256.232c.239.216.293.28.232.28-.014 0-.13-.115-.256-.255zm5.592.078l-.15-.177.177.15a.916.916 0 01.178.177c0 .064-.064.017-.205-.15zm-12.588.046c-.107-.106-.048-.2.066-.105.095.079.145.077.256-.01.125-.098.128-.095.03.03-.112.142-.26.178-.352.085zm-13.287-.308c-.003-.047.123-.225.279-.394.185-.203.22-.225.098-.063a7.675 7.675 0 00-.279.394c-.051.081-.096.11-.098.063zm13.235-.035c0-.08.615-.615.827-.718.087-.042.051.004-.079.102-.13.098-.351.292-.492.43-.141.138-.256.222-.256.186zm.551.05c0-.016.098-.093.217-.17l.217-.139-.15.17c-.133.15-.284.224-.284.14zm5.664-.1c-.098-.12-.092-.123.07-.037.183.098.228.168.107.168-.038 0-.117-.06-.177-.131zm6 .012c-.055-.066-.064-.118-.02-.118.043 0 .123.053.177.118.055.066.063.119.02.119-.044 0-.124-.054-.178-.119zm-13.97-.206c.053-.054.117-.078.141-.054.024.024-.02.068-.097.098-.112.043-.121.033-.044-.044zm8.21-.123l-.19-.21.256.176c.258.179.31.245.19.245-.035 0-.15-.095-.255-.21zm-.959-.188c-.162-.086-.295-.174-.295-.195 0-.022.142.033.315.121.173.089.315.178.315.199 0 .052 0 .051-.335-.125zm6.218.019c-.179-.198-.163-.387.037-.45.124-.04.22.004.374.17l.208.222-.213-.185c-.338-.294-.622-.084-.327.243.072.079.113.144.091.144-.022 0-.098-.065-.17-.144zm.727.006c-.098-.125-.096-.128.03-.03.075.06.137.122.137.138 0 .065-.064.023-.167-.108zm-11.102.02c0-.054.483-.293.519-.257.017.017-.093.09-.244.162-.151.072-.275.115-.275.095zm11.68-.159c.03-.047.09-.173.133-.28.049-.12.079-.144.082-.063.003.071-.057.197-.133.28-.076.083-.113.111-.082.063zm-17.648-.093a.45.45 0 01.237.003c.053.021-.01.038-.14.036-.13-.001-.173-.019-.097-.039zm.752-.08c.229-.044.302-.222.162-.391-.092-.112-.09-.125.01-.092.155.05.202.384.067.47a.52.52 0 01-.263.057c-.132-.008-.127-.016.024-.044zm-8.575-.048c0-.013.116-.128.256-.256l.257-.231-.232.256c-.216.239-.28.292-.28.231zm6.497-.176c-.144-.116-.142-.118.044-.03.241.116.286.152.186.152-.042 0-.146-.055-.23-.122zm11.274.001c-.198-.095-.205-.106-.04-.066a.762.762 0 01.272.117c.103.096.046.083-.232-.05zm-2.34-.011c.057-.023.125-.02.151.006.027.026-.02.045-.103.041-.092-.004-.11-.022-.048-.047zm.946 0c.057-.023.125-.02.151.006.026.026-.02.045-.103.041-.092-.004-.11-.022-.048-.047zm3.9-.076c-.057-.149.055-.359.218-.407.062-.018.045.019-.037.082-.1.076-.135.173-.106.285.052.198-.002.228-.074.04zm-13.5-.265c-.064-.042-.082-.076-.039-.076.043 0 .132.034.197.076.065.042.083.077.04.077a.473.473 0 01-.197-.077zm8.024.025c.057-.022.125-.02.15.007.027.026-.02.044-.102.04-.092-.003-.111-.022-.048-.047zm11.97-.537c.052-.757-.084-1.365-.48-2.145-.397-.782-.903-1.278-1.743-1.708-.217-.11-.346-.202-.287-.203.244-.005 1.058.52 1.457.938.495.518.87 1.212 1.036 1.916.127.536.148 1.423.04 1.675-.04.094-.05-.095-.023-.473zm-20.936.398c-.201-.242.106-.596.326-.376.05.05.005.063-.126.038-.161-.03-.203-.008-.203.112 0 .083.042.194.094.246.052.052.075.094.05.094-.026 0-.089-.051-.141-.114zm9.356.059a.861.861 0 01.315.001c.075.02-.005.035-.178.034-.173 0-.235-.017-.137-.035zm6.344 0a.45.45 0 01.237.004c.053.021-.01.038-.14.036-.13-.002-.173-.02-.097-.04zm.373.025c0-.017.105-.046.232-.065.128-.018.215-.005.193.03-.04.064-.425.095-.425.035zm-21.006-.162c.084-.068.187-.123.23-.123.1 0 .055.037-.186.151-.186.089-.188.087-.044-.028zm27.168-.241c.002-.13.02-.174.04-.097a.45.45 0 01-.003.236c-.022.054-.038-.01-.037-.14zm-5.847.04c-.07-.047-.08-.078-.024-.078.052 0 .116.034.143.077.06.098.033.098-.119 0zm-24.35-.11c0-.016.062-.078.137-.137.125-.098.128-.095.03.03-.103.13-.167.173-.167.108zm4.777-.242c.026-.068.003-.177-.051-.243-.083-.099-.078-.11.03-.069.142.054.176.31.052.387-.045.028-.058-.004-.031-.075zm14.142-.01c.004-.092.022-.11.048-.047.022.056.02.124-.007.15-.026.027-.044-.02-.041-.103zm11.281-.348c0-.152.016-.214.036-.138.02.076.02.2 0 .276-.02.076-.036.014-.036-.138zm-27.588-.437c-.03-1.428.8-2.915 2.102-3.763.662-.431 1.37-.743 1.828-.804.268-.035.18.011-.367.194-1.287.43-2.373 1.303-2.977 2.392-.334.603-.446 1.007-.518 1.866l-.057.67zm16.15.148a1.3 1.3 0 00-.052-.236c-.043-.138-.041-.138.045-.004.05.078.073.184.051.237-.028.068-.04.07-.045.003zm-.68-.676l-.124-.256.16.197c.155.19.205.315.127.315-.02 0-.094-.115-.162-.256zm.527.177c0-.065.03-.19.067-.276.043-.1.068-.114.068-.04 0 .066-.03.19-.068.277-.042.099-.067.114-.067.039zm9.065-.198c-.054-.12-.082-.233-.063-.252.054-.054.222.288.19.385-.016.045-.073-.014-.127-.133zM11.53 11.69c-.117-.047-.131-.312-.02-.38.046-.029.057.006.026.085-.032.084.003.173.095.24.144.106.093.133-.1.055zm7.66-.032c-.028-.046-.034-.1-.013-.121.02-.02.058.017.084.084.053.139.008.163-.07.037zm9.61-.093l-.15-.177.178.15c.098.082.177.162.177.177 0 .063-.063.017-.204-.15zm-23.673.07c0-.086.313-.68.358-.68.022 0-.036.15-.13.334-.182.363-.228.431-.228.345zm6.699-.001c0-.016.062-.079.138-.138.125-.098.128-.095.03.03-.103.13-.168.173-.168.108zm7.008-.424l-.191-.216.216.19c.203.18.253.243.191.243-.014 0-.111-.097-.216-.217zm.362-.157c-.17-.206-.226-.304-.127-.217.176.153.519.591.462.591-.015 0-.166-.168-.335-.374zm-7.134.263c0-.015.053-.071.118-.125.069-.057.119-.064.119-.018 0 .044-.054.1-.119.125-.065.025-.118.033-.118.018zm16.46-.106c-.098-.125-.095-.127.03-.03.076.06.138.122.138.139 0 .064-.065.023-.167-.109zm-16.617-.374c.147-.152.285-.276.306-.276.022 0-.08.124-.228.276-.147.152-.285.276-.306.276-.022 0 .08-.124.228-.276zm12.083.073c-.027-.07.015-.181.097-.256.135-.124.138-.124.041.005-.057.075-.082.19-.057.256.025.065.028.12.006.12s-.06-.057-.087-.125zm3.993-.12c-.17-.138-.173-.149-.024-.076.095.047.195.12.221.163.071.115.024.094-.197-.086zm-22.398-.032c.045-.086.182-.246.306-.354l.223-.197-.235.276c-.374.436-.38.441-.294.275zm14.596-.04c.047-.086.102-.157.124-.157.022 0 .001.071-.045.158-.046.087-.102.158-.124.158-.021 0-.001-.071.045-.158zm-2.202-.163c-.193-.126-.317-.23-.275-.23.086 0 .665.38.665.436 0 .05.002.052-.39-.206zm-5.087.085c.053-.086.512-.342.512-.286 0 .019-.126.109-.28.2-.155.09-.259.13-.232.086zm5.745-.098l-.15-.178.177.15c.098.083.178.163.178.178 0 .063-.064.016-.205-.15zm-6.218-.138c.078-.087.16-.158.182-.158.022 0-.025.071-.103.158-.079.086-.16.157-.182.157-.022 0 .024-.07.103-.157zm12.806.078a.487.487 0 01.236-.072c.078.003.065.028-.04.072-.216.094-.34.094-.196 0zm1.93-.041c-.173-.057-.244-.105-.157-.107.087 0 .264.047.394.106.298.137.176.137-.237 0zm-6.737-.116c.046-.087.102-.158.123-.158.022 0 .002.071-.045.158-.046.087-.102.157-.123.157-.022 0-.002-.07.045-.157zm.541.019c.041-.077.155-.21.254-.296.147-.128.14-.103-.042.139-.233.313-.336.388-.212.157zm-2.846-.143c-.295-.16-.277-.226.02-.073.13.067.236.139.236.16 0 .05-.009.047-.256-.087zm6.639.006a.87.87 0 01.276-.113c.043 0-.01.05-.118.113a.87.87 0 01-.276.112c-.044 0 .01-.05.118-.112zm1.36.061a1.74 1.74 0 01.433 0c.119.018.021.033-.217.033s-.336-.015-.217-.033zM6.31 9.97c.101-.108.202-.197.224-.197.022 0-.044.089-.146.197-.102.109-.203.197-.224.197-.022 0 .044-.088.145-.197zm24.104.06c-.098-.126-.095-.128.03-.03.13.103.173.167.108.167-.017 0-.079-.062-.138-.138zm-9.84.034c0-.014.114-.129.255-.256l.256-.232-.231.256c-.216.24-.28.293-.28.232zm-7.576-.271c-.098-.125-.095-.128.03-.03.13.103.173.168.108.168-.017 0-.079-.062-.138-.138zm.483.059a.473.473 0 01.197-.076c.043 0 .025.034-.04.076a.473.473 0 01-.197.076c-.043 0-.025-.034.04-.076zm3.822-.042c-.197-.095-.204-.106-.04-.066.224.055.475.183.355.18-.043 0-.185-.051-.315-.114zm-5.083-.123c-.17-.138-.173-.149-.024-.076.095.046.194.12.221.163.071.115.024.094-.197-.087zm3.014.108a3.43 3.43 0 01.591 0c.163.017.03.03-.295.03-.325 0-.458-.013-.296-.03zm-8.513-.146c.075-.078.158-.12.184-.094.027.026-.034.09-.136.142-.176.09-.178.088-.048-.048zm20.162-.202c-.236-.039-.449-.093-.473-.12-.068-.074.865.046 1.01.13.158.093.072.091-.537-.01zM14.36 9.154a1.892 1.892 0 01-.086-.414c.003-.06.059.063.123.273.065.21.104.397.086.414-.017.018-.072-.105-.123-.273zm-2.105.103c-.147-.118-.146-.12.024-.037.097.047.177.102.177.123 0 .06-.04.042-.201-.086zm13.962-.123a11.33 11.33 0 01-.124-.493c-.106-.457-.436-1.125-.823-1.663-.837-1.167-2.541-2.01-4.066-2.01-.604 0-1.434.164-1.918.378l-.345.153-.385-.29c-2.14-1.61-4.952-1.77-7.264-.412-.784.46-1.644 1.327-2.107 2.125-.206.355-.387.645-.402.645-.134 0 .55-1.132.978-1.616.756-.855 1.888-1.567 3.09-1.943.506-.158.753-.184 1.733-.184.835.001 1.28.038 1.655.138.636.17 1.807.74 2.306 1.12l.375.287.61-.21c.444-.154.824-.222 1.398-.25.999-.047 1.684.093 2.613.535 1.26.6 2.331 1.893 2.672 3.223.07.27.106.51.082.533-.024.024-.06-.005-.078-.066zM4.103 9.04c0-.013.115-.128.256-.256l.256-.231-.231.256c-.216.239-.281.292-.281.231zm7.447-.096c-.13-.06-.183-.109-.118-.11.065 0 .207.05.315.113.25.142.116.14-.197-.003zm3.162-.08a.664.664 0 01-.044-.22c.003-.05.039-.006.08.098.042.103.062.202.044.22-.017.017-.053-.027-.08-.097zm-5.938-.011a.45.45 0 01.236.003c.053.021-.01.038-.14.036-.13-.002-.173-.02-.096-.04zm1.18 0c.076-.02.2-.02.276 0 .076.02.014.036-.138.036-.152 0-.214-.016-.138-.036zm-5.181-.497c.078-.087.16-.158.182-.158.021 0-.025.071-.103.158-.079.086-.16.157-.182.157-.022 0 .024-.07.103-.157zm12.281-.2c-.025-.068-.029-.14-.007-.161.021-.022.058.033.08.121.05.188-.005.217-.073.04zm.407-.066c.075-.114.15-.207.169-.207.057 0-.127.304-.218.36-.047.03-.025-.04.05-.153zm7.268-.25c-.116-.193-.195-.351-.175-.351.053 0 .449.64.415.673-.015.016-.123-.13-.24-.322zm-10.487.023c.02-.032.085-.059.145-.059.06 0 .125.027.145.06.02.032-.045.058-.145.058-.1 0-.166-.026-.145-.059zM8.639 7.78c.03-.078.074-.121.098-.097.024.024 0 .088-.054.141-.077.077-.086.068-.044-.044zm8.467.028c0-.041.035-.096.078-.123.044-.027.058.004.03.075-.052.136-.108.161-.108.048zm-7.408-.079c0-.04.035-.096.078-.122.045-.028.058.004.031.074-.052.136-.109.161-.109.048zm8.022-.044c.046-.087.271-.335.5-.552l.418-.394-.467.512c-.256.282-.482.53-.5.552-.02.022.003-.031.049-.118zm-.375-.237c.26-.363.632-.775.8-.89.1-.067-.028.105-.285.384-.583.63-.657.704-.515.506zm-7.413-.113a.646.646 0 01.169-.207c.047-.03.025.04-.05.153-.157.24-.239.277-.119.054zm14.109-.33c-.213-.192-.26-.257-.119-.163.218.144.58.491.505.486-.017-.001-.191-.147-.386-.323zm-5.28-.335c0-.016.062-.078.138-.138.125-.098.127-.095.03.03-.104.131-.168.173-.168.108zm-8.038-.315c.151-.164.346-.335.433-.38.184-.096.13-.04-.355.376l-.354.303zm12.51.063c-.024-.025-.252-.13-.505-.234-.253-.104-.407-.19-.342-.19.138-.002.945.363.945.426 0 .056-.04.055-.097-.002zm-3.645-.274c.174-.082.369-.149.434-.148.065.001-.06.071-.276.156-.493.192-.573.188-.158-.008zm-1.547-.127c-.098-.119-.091-.122.07-.037.183.098.228.168.108.168-.038 0-.118-.059-.178-.13zm-6.49-.342c.052-.085.511-.341.511-.285 0 .018-.126.108-.28.199-.155.091-.259.13-.232.086zm5.747-.201c-.147-.118-.146-.12.025-.037.097.048.177.103.177.123 0 .06-.041.043-.202-.086zm-8.703-.065c0-.016.062-.078.138-.138.125-.098.128-.095.03.03-.103.131-.168.173-.168.108zm3.782-.206a.473.473 0 01.197-.077c.044 0 .026.035-.039.077a.473.473 0 01-.197.076c-.043 0-.026-.034.04-.076zm4.335 0c-.065-.042-.083-.077-.04-.077.044 0 .132.035.197.077.065.042.083.076.04.076a.473.473 0 01-.197-.076zm8.58-.06c-.099-.125-.096-.127.03-.03.13.104.172.168.107.168-.016 0-.078-.062-.138-.138zm-4.655-1.492c.057-.022.125-.02.151.007.026.026-.02.044-.103.041-.092-.004-.11-.022-.048-.048zm.941.002a.304.304 0 01.197 0c.054.022.01.04-.098.04-.109 0-.153-.018-.099-.04z" fill="#072b38"/></svg>