<svg width="32" height="32" viewBox="0 0 32 32" fill="none" xmlns="http://www.w3.org/2000/svg">
<path d="M32 16C32 24.8365 24.8365 32 16 32C7.1635 32 0 24.8365 0 16C0 7.1635 7.1635 0 16 0C24.8365 0 32 7.1635 32 16Z" fill="white"/>
<path d="M1.09554 19.5745C1.03202 19.5745 1.00017 19.5335 1 19.4514V12.3119C1 12.2298 1.03185 12.1889 1.09554 12.189H1.92963C1.98413 12.189 2.01138 12.23 2.01138 12.3119V19.4514C2.01138 19.5333 1.98413 19.5744 1.92963 19.5745H1.09554Z" fill="#1D1D1B"/>
<path d="M9.14831 19.5745C9.07558 19.5745 9.03922 19.5335 9.03922 19.4514V15.1524C9.06767 14.672 8.92773 14.1966 8.6435 13.8082C8.52467 13.6541 8.37145 13.5299 8.19605 13.4456C8.02066 13.3614 7.82796 13.3193 7.6334 13.3228H5.62723C5.43241 13.3214 5.23991 13.365 5.06471 13.4502C4.8895 13.5355 4.73634 13.66 4.61713 13.8141C4.32644 14.1973 4.18156 14.6714 4.20839 15.1517V19.4514C4.20839 19.5334 4.16265 19.5745 4.07171 19.5745H3.30762C3.23456 19.5745 3.19827 19.5334 3.19827 19.4514V15.2888C3.19827 14.306 3.41211 13.5439 3.83976 13.0027C4.05196 12.7351 4.32483 12.5219 4.63579 12.3807C4.94676 12.2396 5.28689 12.1745 5.62801 12.1908H7.63417C7.97094 12.1746 8.30676 12.2384 8.61403 12.3772C8.92131 12.516 9.19128 12.7257 9.40173 12.9892C9.82478 13.5215 10.0363 14.2927 10.0363 15.3026V19.4514C10.0387 19.4681 10.0371 19.4851 10.0318 19.5011C10.0265 19.5171 10.0175 19.5317 10.0056 19.5436C9.99369 19.5556 9.97914 19.5646 9.96315 19.5699C9.94715 19.5753 9.93013 19.5769 9.91342 19.5745H9.14831Z" fill="#1D1D1B"/>
<path d="M14.3795 19.3829C14.3156 19.5102 14.261 19.5738 14.2157 19.574H13.2056C13.1598 19.574 13.1052 19.5148 13.0419 19.3965L10.3117 12.3681V12.3135C10.3094 12.2968 10.3109 12.2798 10.3163 12.2638C10.3216 12.2479 10.3306 12.2333 10.3425 12.2215C10.3544 12.2096 10.369 12.2006 10.3849 12.1953C10.4009 12.19 10.4179 12.1884 10.4346 12.1908H11.2533C11.308 12.1908 11.3671 12.259 11.4306 12.3952L13.7107 18.1822L15.9897 12.3955C16.0533 12.259 16.1036 12.1911 16.1399 12.1911H17.0136C17.0861 12.1911 17.1227 12.232 17.1227 12.3137V12.3684L14.3795 19.3829Z" fill="#1D1D1B"/>
<path d="M20.3515 12.3681C20.2879 12.2499 20.2334 12.1908 20.1877 12.1908H19.1763C19.1309 12.1908 19.0762 12.2545 19.0123 12.3819L16.2704 19.3972V19.4516C16.2704 19.5334 16.3067 19.5745 16.3792 19.5745H22.9572C22.9739 19.5769 22.9909 19.5753 23.0069 19.5699C23.0228 19.5646 23.0374 19.5556 23.0493 19.5437C23.0612 19.5318 23.0702 19.5173 23.0755 19.5013C23.0809 19.4853 23.0824 19.4683 23.0801 19.4516V19.3972L20.3515 12.3681ZM19.6821 13.5839L21.6439 18.5654H17.7202L19.6821 13.5839Z" fill="#1D1D1B"/>
<path d="M27.1174 16.8285C27.6399 16.8285 28.0634 16.405 28.0634 15.8825C28.0634 15.3601 27.6399 14.9366 27.1174 14.9366C26.595 14.9366 26.1714 15.3601 26.1714 15.8825C26.1714 16.405 26.595 16.8285 27.1174 16.8285Z" fill="#1D1D1B"/>
<path d="M27.1174 19.7661C26.3494 19.7661 25.5987 19.5384 24.9601 19.1117C24.3216 18.685 23.8238 18.0786 23.53 17.369C23.2361 16.6595 23.1592 15.8788 23.309 15.1255C23.4588 14.3723 23.8286 13.6804 24.3717 13.1373C24.9148 12.5943 25.6067 12.2244 26.3599 12.0746C27.1131 11.9248 27.8939 12.0017 28.6034 12.2956C29.313 12.5895 29.9194 13.0872 30.3461 13.7257C30.7728 14.3643 31.0005 15.1151 31.0005 15.8831C30.9995 16.9126 30.5901 17.8997 29.8621 18.6277C29.1341 19.3557 28.147 19.7651 27.1174 19.7661ZM27.1174 13.0029C26.5477 13.0029 25.9907 13.1719 25.517 13.4885C25.0433 13.805 24.6741 14.2549 24.456 14.7813C24.238 15.3077 24.181 15.8869 24.2922 16.4457C24.4034 17.0045 24.6778 17.5178 25.0807 17.9207C25.4836 18.3235 25.9969 18.5978 26.5558 18.7089C27.1146 18.82 27.6938 18.7629 28.2202 18.5448C28.7465 18.3267 29.1964 17.9574 29.5128 17.4836C29.8293 17.0098 29.9982 16.4528 29.9981 15.8831C29.9973 15.1193 29.6936 14.3869 29.1536 13.8468C28.6135 13.3067 27.8812 13.0028 27.1174 13.0019V13.0029Z" fill="#1D1D1B"/>
</svg>
