<svg width="32" height="32" viewBox="0 0 32 32" fill="none" xmlns="http://www.w3.org/2000/svg">
<path d="M8.26667 19.7105V19.1579H6V19.7105C6 21.909 6.89553 24.0175 8.48959 25.5721C10.0837 27.1266 12.2457 28 14.5 28C16.7543 28 18.9163 27.1266 20.5104 25.5721C22.1045 24.0175 23 21.909 23 19.7105V7H20.7333V19.7105C20.7333 21.3228 20.0766 22.869 18.9076 24.009C17.7387 25.149 16.1532 25.7895 14.5 25.7895C12.8468 25.7895 11.2613 25.149 10.0924 24.009C8.92339 22.869 8.26667 21.3228 8.26667 19.7105Z" fill="black"/>
<path d="M22 4C23.1046 4 24 3.10457 24 2C24 0.89543 23.1046 0 22 0C20.8954 0 20 0.89543 20 2C20 3.10457 20.8954 4 22 4Z" fill="black"/>
<path d="M26.2867 3.74507L24.9128 5.37813C27.4101 7.47385 29.0891 10.3824 29.6549 13.593C30.2208 16.8036 29.6374 20.111 28.0072 22.9342C26.3769 25.7574 23.8041 27.9159 20.7406 29.0307C17.677 30.1455 14.3186 30.1453 11.2552 29.0301C8.19181 27.9148 5.61929 25.7559 3.98945 22.9325C2.3596 20.1091 1.77666 16.8016 2.34299 13.5911C2.90933 10.3806 4.58873 7.47225 7.08625 5.37688C9.58377 3.28152 12.7397 2.1331 15.9998 2.13333C16.3326 2.13333 16.6629 2.14471 16.9907 2.16747L17.1422 0.0405334C16.7657 0.0138668 16.3827 0 15.9998 0C12.2383 5.01458e-05 8.59705 1.32536 5.71554 3.74319C2.83403 6.16101 0.896501 9.51676 0.2432 13.2211C-0.410102 16.9255 0.2626 20.7415 2.14317 23.9992C4.02374 27.2569 6.99193 29.7479 10.5265 31.0346C14.061 32.3214 17.936 32.3218 21.4708 31.0356C25.0056 29.7495 27.9742 27.2591 29.8554 24.0018C31.7365 20.7444 32.4099 16.9285 31.7573 13.224C31.1047 9.51952 29.1678 6.16342 26.2867 3.74507Z" fill="black"/>
</svg>
