<svg height="32" viewBox="0 0 32 32" width="32" xmlns="http://www.w3.org/2000/svg"><g fill="none" fill-rule="evenodd"><circle cx="16" cy="16" fill="#0050db" r="16"/><path d="m16 26c-.6477951.0000249-1.2840866-.1741967-1.8444014-.5050115l-5.30539014-3.1205252c-1.14312572-.673324-1.84791798-1.914651-1.85020846-3.2587102v-6.2310502c.00466052-1.3434091.70881989-2.5836214 1.85020846-3.2587102l5.30539014-3.12052524c.5632007-.330569 1.2018232-.50486856 1.8519952-.505466.645529-.00058469 1.2795507.17389001 1.8368076.505466l5.3058368 3.12052524c1.1429539.6734392 1.8475637 1.9147446 1.8497618 3.2587102v6.2310502c-.0045678 1.3433159-.708545 2.5835068-1.8497618 3.2587102l-5.3058368 3.1205252c-.5602983.330855-1.1966007.5050795-1.8444014.5050115zm-3.0522633-6.428782-.9827278 1.0000226c.5159402.5321897 1.2219045.82873 1.9565218.8218368 1.5313809-.001753 2.77245-1.26446 2.7744193-2.8227912v-.852292c.4200362.2472298.8968339.3770735 1.3820726.3763721.7369822.0149552 1.4476265-.278907 1.9654557-.8127456l-.9827279-1.0000227c-.2600466.2663235-.6137829.4160348-.9827278.4159185-.7626859-.0015007-1.3805979-.6302871-1.3820726-1.4063955v-4.6960154h-1.3820727v7.9842717c0 .7782371-.619975 1.4091229-1.3847528 1.4091229-.3686737-.0006076-.7218892-.1507935-.9813878-.4172822z" fill="#fff" fill-rule="nonzero"/></g></svg>