<?xml version="1.0" encoding="UTF-8"?>
<svg width="32px" height="32px" viewBox="0 0 32 32" version="1.1" xmlns="http://www.w3.org/2000/svg" xmlns:xlink="http://www.w3.org/1999/xlink">
    <title>svg/color/klown</title>
    <g id="color/klown" stroke="none" stroke-width="1" fill="none" fill-rule="evenodd">
        <circle id="Combined-Shape" fill="#EA0017" fill-rule="nonzero" cx="16" cy="16" r="16"></circle>
        <g id="Group" transform="translate(5.000000, 5.000000)" fill="#FFFFFF" fill-rule="nonzero">
            <path d="M15.7166555,10.4121377 C15.748421,10.4121377 15.8225405,10.4439031 15.8860714,10.4827276 C16.0625463,10.5886125 16.1543132,10.8039119 16.1366657,11.0615652 C16.1260772,11.2380401 16.0837233,11.358043 15.9072484,11.7180518 C15.7872455,11.9615871 15.5613576,12.3710088 15.4060597,12.6286621 C15.1413474,13.0663198 15.0142855,13.2957372 15.0142855,13.3310321 C15.0142855,13.3416206 15.1942899,13.1792638 15.4131187,12.9710234 C15.82607,12.5827787 16.1154888,12.3992448 16.2460802,12.4415988 C16.422555,12.4980707 16.4754975,12.833373 16.3590241,13.1686753 C16.2919636,13.3698566 16.1119593,13.7333949 15.9319549,14.0404612 C15.8279951,14.2108396 15.8185442,14.2441803 15.9944596,14.1443493 L16.1401952,14.0581086 C16.5037335,13.8392798 16.7366803,13.8145733 16.8637422,13.9875187 C17.0049221,14.1781116 16.9802157,14.7569492 16.8072703,15.2581378 C16.7684458,15.3710817 16.7472688,15.4734372 16.7578573,15.4840257 C16.7684458,15.4946141 16.8778602,15.4593192 16.9978631,15.4063767 C17.1213956,15.3499047 17.3049294,15.2863738 17.4108144,15.2616673 C17.7672936,15.1769594 17.919062,15.3287278 17.9861225,15.8334459 C18.0461239,16.2711036 17.8802375,16.6346419 17.5767007,16.7440563 C17.5237583,16.7617038 17.5166993,16.7546448 17.5343468,16.6875843 C17.5484648,16.6417009 17.5661122,16.5605224 17.5802302,16.5040505 C17.5978777,16.4122835 17.5943482,16.408754 17.5308173,16.444049 C17.4284618,16.4969915 17.3119884,16.7087613 17.2696345,16.9205312 C17.1425725,17.5487817 16.9837452,17.8593775 16.5672644,18.2829172 C16.1084298,18.7488109 15.6319476,19.0629362 14.8907531,19.3947089 C14.5448623,19.5500068 14.0577917,19.8570731 13.5389555,20.2488474 L13.5389555,20.2488474 L13.3871871,20.3653208 L13.0871798,20.09002 L12.9368418,19.9581937 C12.6355482,19.703576 12.3338842,19.505636 12.0918615,19.4088269 C11.9824471,19.366473 11.8836212,19.324119 11.8765622,19.3205895 C11.8695032,19.3135305 11.9295046,19.2358816 12.0106831,19.1441146 C12.0918615,19.0488182 12.1695105,18.9146973 12.1906875,18.8335188 C12.2401004,18.6393965 12.2683364,18.593513 12.3777508,18.529982 C12.5048128,18.4593921 12.7095236,18.5158641 13.1965943,18.7593994 C13.4118936,18.8652843 13.5954275,18.9535218 13.613075,18.9535218 C13.6518995,18.9535218 13.6448405,18.8511663 13.5954275,18.7205749 C13.556603,18.61469 13.570721,18.551159 13.7330779,18.0640884 C13.9483773,17.4217198 14.0048492,17.188773 13.9624952,17.146419 C13.9095528,17.0934765 13.8671988,17.1781845 13.620134,17.806435 C13.4895426,18.1346783 13.3765986,18.4135086 13.3695397,18.4205676 C13.3589512,18.4311561 13.2813022,18.4029201 13.1930648,18.3605662 C13.0483554,18.2899762 13.0342374,18.2687992 13.0518849,18.1911503 C13.1542403,17.7817286 13.2142418,16.8570002 13.1507108,16.6311124 C13.1048273,16.472285 13.0554144,16.5393454 13.0130604,16.8181757 C12.9212935,17.4111313 12.818938,17.8805545 12.7765841,17.9229085 C12.7377596,17.9617329 12.7130531,17.9511444 12.6354042,17.8593775 L12.6354042,17.8593775 L12.5436372,17.7464336 L12.5436372,14.4287059 L13.3271857,13.4192696 L13.4884436,13.2111008 C14.74082,11.5942878 15.0999817,11.1279198 15.3778238,10.7721464 C15.5331217,10.5744946 15.6848901,10.4121377 15.7166555,10.4121377 Z M8.84472378,15.4310832 C9.18002605,15.1134284 9.2541455,15.0851924 9.37061892,15.2475493 C9.45885636,15.3675522 9.50826933,15.649912 9.50826933,16.0346273 L9.50826933,16.0346273 L9.50826933,16.3522821 L9.67062621,16.5252274 L9.73696974,16.6008359 C9.80232059,16.6814077 9.86121908,16.7714099 9.88239607,16.8217052 C9.93533853,16.9522966 9.95651552,17.4534853 9.91416154,17.6229012 C9.90004355,17.6793731 9.93533853,17.7852581 10.030635,17.9687919 C10.683592,19.2182341 10.8177129,19.4900054 10.8000654,19.5111824 L10.8000654,19.5111824 L10.7785024,19.5152082 L10.7387404,19.5116236 C10.7074161,19.5067705 10.6677093,19.4970644 10.6271201,19.4829464 C10.4753517,19.4335334 10.2953473,19.4264744 9.65650822,19.4441219 C9.27179299,19.4547104 9.04237565,19.3911795 9.02119866,19.267647 C9.01061017,19.2182341 9.15531957,18.9888167 9.45885636,18.5688065 C9.5506233,18.4417446 9.56121179,18.3676252 9.50826933,18.2829172 C9.48356284,18.2405632 9.36003043,18.2264453 8.90825474,18.2123273 C8.15294226,18.1876208 8.12823578,18.1452668 8.66118991,17.7429041 C8.88354826,17.5734882 9.14473108,17.3052464 9.17649656,17.2134795 C9.18708505,17.1781845 9.16943756,17.111124 9.13767208,17.0617111 L9.13767208,17.0617111 L9.07767062,16.9699441 L8.64707192,16.9946506 L8.5308043,17.0007243 C8.05708759,17.0204556 7.97117314,16.9528009 8.13176528,16.7299383 C8.17058975,16.6769958 8.19176674,16.6240534 8.17764875,16.6099354 C8.16706025,16.5993469 7.9588199,16.5887584 7.72234356,16.5887584 C7.31645134,16.5887584 6.9493836,16.5428749 6.88585264,16.486403 C6.87173465,16.472285 7.04468003,16.401695 7.27409737,16.3311051 C7.6658716,16.2111022 8.19176674,15.9710963 8.43177257,15.8016804 C8.48824453,15.7593265 8.6753079,15.5934401 8.84472378,15.4310832 Z M10.1519451,12.3919244 C10.1682854,12.4027743 10.2071098,12.7168996 10.2494638,13.0945558 C10.2882883,13.472212 10.3200538,13.8181028 10.3200538,13.8604568 C10.3200538,13.9063402 10.3341718,13.9416352 10.3518192,13.9416352 C10.3694667,13.9416352 10.4753517,13.8004553 10.5882956,13.6239804 C10.704769,13.4510351 10.8071244,13.3063257 10.8177129,13.3063257 C10.8459489,13.3063257 10.8635964,13.4404466 10.9588928,14.4428239 C11.0047763,14.9051881 11.0506598,15.2828443 11.0612483,15.2828443 C11.0718367,15.2828443 11.1283087,15.0851924 11.1812512,14.8416571 C11.2377231,14.5981218 11.2941951,14.4004699 11.3083131,14.4004699 C11.3294901,14.4004699 12.3001019,17.20995 12.296582,17.2664219 C12.296582,17.3440709 12.2118645,17.2523039 11.8730327,16.8146462 C11.6683218,16.5464044 11.4741995,16.2993396 11.442434,16.2569856 L11.442434,16.2569856 L11.378903,16.1828662 L11.2836066,16.2887511 L11.2438221,16.3339004 C11.1784276,16.4077658 11.0683072,16.5308746 10.9694813,16.6381714 L10.9694813,16.6381714 L10.747123,16.8817067 L10.7294755,16.7617038 L10.7256543,16.7326882 C10.7099028,16.6012137 10.6649819,16.1321698 10.6200611,15.6252056 C10.5741776,15.0640154 10.5247646,14.5910628 10.5106466,14.5734153 C10.5000581,14.5557678 10.3659372,14.6545937 10.2106393,14.7957736 C10.0553414,14.9369535 9.91416154,15.0604859 9.89298456,15.0640154 C9.87180757,15.0710744 9.86827808,15.0216615 9.87886657,14.940483 C9.90357305,14.7604787 10.1435789,12.4945412 10.1435789,12.4274808 C10.1435789,12.3992448 10.1506379,12.3851268 10.1612264,12.3921858 Z M5.62229252,10.4439031 C5.87641634,10.4121377 6.40231148,10.4403736 6.64584681,10.5074341 C6.91408862,10.5744946 7.21409591,10.7015565 7.45410175,10.8392069 C7.69057808,10.9803868 8.27294518,11.5415769 8.36118262,11.7180518 C8.43177257,11.8592317 8.46706755,11.8768792 8.03999834,11.5521654 C7.73646155,11.3192185 7.27762687,11.0792127 6.93173611,10.9697983 C6.73408425,10.9080321 6.62290507,10.8922045 6.31682456,10.8892127 L6.31682456,10.8892127 L6.17289413,10.8886198 C5.72817744,10.8886198 5.6505285,10.8992083 5.39640467,10.9839163 C3.78342429,11.5309884 2.96811035,13.5816265 3.81166027,14.968719 C4.0622546,15.3851997 4.46461732,15.755797 5.00815994,16.0699223 C5.31522623,16.2499266 5.29051974,16.2781626 4.91286351,16.1828662 C4.21755249,15.9993323 3.68812785,15.5687336 3.36341408,14.9122471 C3.16929171,14.5169433 3.08458377,14.1498756 3.05987729,13.6239804 C3.02458231,12.7733715 3.24694066,12.0992375 3.77636529,11.4568689 C4.1963755,10.9450918 4.94109949,10.5391996 5.62229252,10.4439031 Z M4.32343741,13.1933817 C4.37637988,13.0310249 4.38343887,13.0416133 4.51755978,13.4157401 C4.75403612,14.0722266 5.2128708,14.8028326 5.71758895,15.3216688 C5.84112136,15.4522602 5.94347679,15.5687336 5.94347679,15.5828516 C5.94347679,15.6393235 5.66464649,15.5687336 5.39993417,15.4487307 C4.75756561,15.1487234 4.37990938,14.5240023 4.29873093,13.6098625 C4.28461294,13.4192696 4.28814244,13.2922077 4.32343741,13.1933817 Z M7.28468586,7.92384189 C7.72940256,7.85678144 7.75057954,7.86384043 7.46116074,7.99796134 C7.31645134,8.06502179 7.17527144,8.12855275 7.15056496,8.14620024 L7.12331348,8.16291429 C7.04355255,8.22085891 7.18968356,8.24296729 7.69763708,8.25914416 C8.34353513,8.27679164 8.34706463,8.28032114 8.29412217,8.492091 C8.27294518,8.57679894 8.26588619,8.57679894 7.87411196,8.57679894 C7.65881261,8.58032843 7.35527582,8.60150542 7.19997792,8.6297414 C6.92467711,8.67915437 6.52584389,8.84504075 6.52584389,8.91210121 C6.52584389,8.92974869 6.69173028,8.96504367 6.89644113,8.98975015 C7.5246917,9.0638696 8.13529478,9.22975599 8.55883448,9.44152584 C8.72472087,9.52976328 8.81295831,9.6427072 9.14473108,10.2180153 C10.037694,11.7604057 10.1718149,11.9792346 10.4929991,12.4063038 C10.9024209,12.9498464 11.3436081,13.4439761 11.8236197,13.8992813 L11.8236197,13.8992813 L12.2612774,14.3122325 L12.2604336,14.8854928 C12.2570996,15.0931878 12.2441341,15.2530957 12.2259824,15.2651968 C12.1906875,15.2863738 12.2118645,15.3216688 11.7318528,14.5063548 C11.364785,13.8886928 11.0930137,13.4686826 10.5988841,12.776901 C10.4541747,12.5721902 10.3235833,12.3780678 10.3094653,12.3427728 C10.2988768,12.3110074 10.2671113,12.2827714 10.2424048,12.2792419 C10.2176983,12.2792419 10.1012249,12.166298 9.9847515,12.0286475 C9.65297873,11.6404028 8.90472524,10.9662688 8.3964776,10.6027305 C8.1035293,10.3909607 7.71881406,10.1297779 7.69763708,10.1297779 C7.69057808,10.1297779 7.56704567,10.0662469 7.42233627,9.98506846 C7.15409446,9.83682957 6.67055329,9.6356482 6.41995896,9.56858775 C6.17642363,9.5015273 5.68935297,9.48387981 5.37875718,9.52623378 C4.99404195,9.58270574 4.45402882,9.7803576 4.10460857,9.99212746 C3.94931067,10.0874239 3.81166027,10.1650728 3.80107178,10.1650728 C3.77636529,10.1650728 3.46576951,10.3874312 3.22576367,10.5815535 C3.11634925,10.669791 3.02811181,10.719204 3.02105282,10.698027 C3.00340533,10.648614 3.29988312,10.2356628 3.55753644,9.94271449 C3.80460127,9.66388418 4.35167339,9.19446101 4.71168215,8.95798467 C5.44228814,8.47091401 6.5117259,8.04031531 7.28468586,7.92384189 Z M4.87403903,12.3251253 C4.74344762,11.9686461 4.74697712,11.9404101 4.91286351,12.0357065 C4.98345346,12.0780605 5.13875135,12.1804159 5.25522477,12.2651239 C5.89759332,12.7239586 6.52937339,13.48633 6.86114616,14.202818 C7.01291455,14.5240023 7.11879948,14.8240096 7.094093,14.8487161 L7.094093,14.8487161 L7.07530457,14.8527517 L7.04242324,14.8429769 C6.87134248,14.772228 6.34113352,14.3423508 5.94347679,13.9416352 C5.43875864,13.4298581 5.08580889,12.9039629 4.87403903,12.3251253 Z M6.04936172,11.372161 C6.04936172,11.329807 6.42701796,11.428633 6.6493763,11.5309884 C7.11174048,11.7392287 7.45057225,12.1415915 7.59881115,12.6427801 C7.69763708,12.9816119 7.72587306,13.2392652 7.69057808,13.5039775 C7.6623421,13.7404539 7.6658716,13.7475129 7.44351325,13.2498537 C7.22115491,12.762783 6.80820369,12.1627685 6.40231148,11.7498172 C6.20818911,11.5486359 6.04936172,11.37922 6.04936172,11.372161 Z M11.8377377,5.47790008 C12.0106831,5.42848712 12.0071536,5.42848712 12.0636256,5.51319506 C12.158922,5.66143396 12.3318674,6.23674206 12.4059868,6.65675227 C12.4518703,6.93205308 12.4836358,7.30970931 12.4977538,7.761485 L12.4977538,7.761485 L12.5189307,8.44620753 L12.3459854,8.42150104 L12.3069822,8.41550708 C12.0633432,8.37605876 11.863503,8.30061575 10.5424121,7.74736701 C9.8294536,7.44735972 9.24002751,7.21088338 9.22943902,7.22147188 C9.21179153,7.23911936 9.56474129,7.93443038 9.80121762,8.3473816 C10.2318163,9.09563508 11.0294828,9.5015273 11.9506816,9.44152584 C12.215394,9.42387835 12.3106904,9.43093735 12.3918688,9.46976182 C12.5824617,9.57211725 12.7059941,9.74859213 12.8224675,10.0944829 C12.9671769,10.5180226 13.2318892,11.0333292 13.4577771,11.329807 C13.5530735,11.4568689 13.627193,11.5627539 13.627193,11.5627539 C13.6236635,11.5662834 13.5107196,11.5451064 13.3730692,11.5203999 C12.7554071,11.393338 11.6859693,10.9450918 11.3965505,10.690968 C11.0647777,10.3980197 11.3683145,10.8674429 11.7212643,11.1886271 C12.151863,11.5839309 12.7730546,11.9262921 13.4824836,12.1627685 C13.6942534,12.2333584 13.8742578,12.2968894 13.8777873,12.3004189 C13.9166118,12.3357138 12.87541,13.5533905 12.811879,13.5533905 C12.7483481,13.5533905 12.3883393,13.3380911 12.0389191,13.0945558 C11.6542038,12.826314 10.7824179,11.9686461 10.4718222,11.5592244 C9.58944777,10.3803722 8.94707921,9.04622211 8.55177549,7.56030364 L8.55177549,7.56030364 L8.44236106,7.15794092 L8.58001147,7.01676102 L8.66891702,6.93258469 C9.19430281,6.47368248 10.5222732,5.86323817 11.8377377,5.47790008 Z M17.2484575,4.28492991 C17.3225769,4.2919889 17.4214028,4.32375438 17.4672863,4.35551986 C17.5166993,4.38728534 17.5802302,4.45081629 17.6119957,4.50022926 C17.6437612,4.54611273 18.0178879,5.95085275 18.4414276,7.6132461 C19.2885071,10.9274443 19.2814481,10.8815608 19.0908552,11.0827422 C19.0343832,11.1392142 18.9426163,11.2027451 18.8826148,11.2239221 C18.7202579,11.2768646 16.2037262,11.8239367 16.1896082,11.8098187 C16.1825492,11.8027597 16.2143147,11.7074633 16.2637276,11.5980488 C16.443732,11.1886271 16.4543205,10.8074414 16.2849046,10.5356701 C16.1684312,10.3450772 15.8684239,10.1650728 15.6743016,10.1650728 C15.5613576,10.1650728 15.5260627,10.2003678 14.9260481,10.9768573 C14.5801573,11.4251035 14.2836795,11.7780532 14.2695615,11.7639352 C14.2554435,11.7498172 13.9342593,10.3733132 13.549544,8.71091984 C13.0554144,6.56498533 12.861292,5.65437496 12.8789395,5.58025551 C12.9071755,5.4567231 13.0130604,5.3120137 13.1189453,5.25201224 C13.2707137,5.17083379 17.1108071,4.27081192 17.2484575,4.28492991 Z M17.8308246,8.29090964 C17.8237656,8.27679164 17.6967037,8.37914707 17.5484648,8.52032698 C17.4002259,8.65797738 17.0966891,8.94033719 16.8778602,9.14857754 L16.4754975,9.52623378 L15.6107706,9.24740347 C15.1378179,9.09210558 14.7354552,8.97210266 14.7178077,8.97563216 C14.7036897,8.97916166 15.0354625,9.29328694 15.4590022,9.67094318 C15.8860714,10.0485994 16.3484356,10.4650801 16.493145,10.599201 C16.6378544,10.7297924 16.7684458,10.8250889 16.7825638,10.8109709 C16.8213883,10.7721464 17.8414131,8.31914562 17.8308246,8.29090964 Z M15.7166555,9.39211287 C15.9601909,9.47329132 16.2319622,9.54741077 16.3201996,9.56152876 L16.479027,9.58270574 L16.5955004,10.1086009 C16.6590314,10.3980197 16.7049148,10.641555 16.6943264,10.648614 C16.6872674,10.655673 16.6025594,10.585083 16.5107925,10.4933161 C16.415496,10.3980197 16.0837233,10.0944829 15.7731275,9.81565258 C15.4625317,9.53682227 15.2048784,9.29328694 15.1978194,9.27916895 C15.1766424,9.22622649 15.2613503,9.24387398 15.7166555,9.39211287 Z M7.0905635,4.99082942 C7.68351909,4.84259052 7.91999542,4.80729555 7.91999542,4.867297 C7.91999542,4.88494449 7.83528748,4.92023947 7.73646155,4.94141645 C7.44704275,5.0120064 6.70231877,5.27318922 6.33172152,5.43554611 C5.9293588,5.61202099 5.41405216,5.91202828 5.21992979,6.08144416 L5.21992979,6.08144416 L5.07874989,6.20144708 L5.20228231,6.22968306 L5.35372952,6.26607218 C5.8584512,6.40044015 6.78314426,6.7492251 7.22468441,6.97793654 C7.54586868,7.14382293 7.9552904,7.42265324 7.9552904,7.4791252 C7.9552904,7.49324319 7.84940547,7.51794967 7.71881406,7.53206766 C7.17880094,7.58501012 6.29289705,7.80383897 5.66111699,8.03678581 C4.88815702,8.32620461 3.9069567,8.85209975 3.30694212,9.30387543 C2.91516789,9.60035323 2.91516789,9.60035323 3.05281829,9.40270137 C3.21870468,9.16269553 3.72342283,8.64032989 4.03048912,8.39326506 C4.69403466,7.86736993 5.56582055,7.48618419 6.49054891,7.32029781 L6.49054891,7.32029781 L6.63172882,7.29559132 L6.38113449,7.1791179 L6.25744464,7.12614331 C5.71021669,6.90822375 4.56290025,6.62552979 3.87872072,6.54733784 C3.7622473,6.53321985 3.64577388,6.50851337 3.6175379,6.49439538 C3.52577097,6.44498241 4.72227064,5.80261386 5.43169965,5.52378355 C5.9364178,5.32260219 6.5081964,5.14259781 7.0905635,4.99082942 Z M15.5613576,5.65437496 C15.2966453,6.43439392 14.6613358,8.40385356 14.6613358,8.44620753 C14.6613358,8.47797301 14.6472178,8.51326798 14.6260408,8.52385647 C14.5130969,8.59444643 14.6436883,8.65444788 15.4695907,8.9262192 C15.9531319,9.08151709 16.3731421,9.2121085 16.4049076,9.2121085 C16.4754975,9.2121085 17.7849411,7.98737285 17.7849411,7.92384189 C17.7849411,7.89913541 17.3331654,7.40853525 16.7860933,6.83675664 C16.2354917,6.26144854 15.7519505,5.74967139 15.713126,5.70025843 C15.6390066,5.60496199 15.5860641,5.58731451 15.5613576,5.65437496 Z M10.8530079,8.60150542 C10.8177129,8.50267949 10.8177129,8.50267949 10.9306568,8.52385647 C10.9906583,8.53797446 11.1318382,8.59091693 11.2377231,8.64385939 C11.4953765,8.76739181 11.5059649,8.82386377 11.2730181,8.82386377 C11.0541893,8.82386377 10.8988914,8.74268532 10.8530079,8.60150542 Z M15.6107706,5.84496783 C15.6284181,5.86261532 15.7237145,6.24027155 15.8225405,6.68498825 L16.0060743,7.49677268 L15.9072484,7.59206912 C15.769598,7.72619003 14.7213372,8.50973848 14.7072192,8.492091 C14.6966307,8.485032 14.7213372,8.41797155 14.7601617,8.3403226 C14.8307516,8.2026722 15.5260627,6.10262115 15.5613576,5.91555778 C15.5754756,5.85908582 15.5966526,5.82732034 15.6107706,5.84496783 Z M7.83528748,5.29436621 L7.8070515,5.54849003 L7.79584259,5.64923237 C7.77451395,5.86068512 7.78763927,5.91202828 7.84940547,5.91202828 C7.88822995,5.91202828 7.91293643,5.98614773 7.94117241,6.19438809 C8.00117387,6.59675081 8.01529186,6.99558403 7.97293789,7.01323152 C7.9517609,7.01676102 7.80352201,6.94264157 7.63763562,6.84734513 C7.26703838,6.62498679 6.79055621,6.39556945 6.43054746,6.26144854 C6.27877906,6.20497658 6.15524665,6.14850462 6.15524665,6.13791613 C6.15524665,6.06379668 6.58937485,5.73202391 6.85055767,5.60496199 C7.18585993,5.44260511 7.60587014,5.29789571 7.74705004,5.29436621 L7.74705004,5.29436621 L7.83528748,5.29436621 Z M13.2318892,3.60020738 C14.4672134,3.36726054 14.7248667,3.34608356 14.9436956,3.45902748 C15.017815,3.49785195 15.1131114,3.5755009 15.1519359,3.63197286 C15.2401734,3.75197578 15.4731202,4.23551694 15.4731202,4.2919889 C15.4731202,4.31669539 15.2754683,4.36257885 14.9719315,4.41199182 C12.7518776,4.76141208 10.9306568,5.28730721 9.5435643,5.98261823 C9.12002459,6.19438809 8.83766479,6.36027447 8.58354097,6.55086734 C8.34706463,6.73087172 8.37177111,6.78028468 8.28706317,5.97908874 C8.22706171,5.43554611 8.22706171,5.40378063 8.28706317,5.24495324 C8.34353513,5.09671435 8.37530061,5.06847837 8.58354097,4.96259344 C8.86943027,4.81788404 9.70239169,4.48964077 10.0906364,4.36610835 C11.0330123,4.06610106 11.9753881,3.83668372 13.2318892,3.60020738 Z M9.80822368,1.21664944 L9.84357159,1.21779653 C9.86474858,1.21779653 9.92827953,1.31662246 9.99181049,1.43309588 C10.2918178,1.980168 10.8988914,3.67079733 10.8247719,3.74491678 C10.8071244,3.76256427 10.733005,3.78727075 10.6659445,3.79785925 L10.6659445,3.79785925 L10.5424121,3.81903623 L10.4224092,3.56138291 L10.3620265,3.43211567 C10.0020177,2.68201513 9.35552051,1.65976806 9.27885198,1.73310317 C9.26826349,1.74369167 9.29296997,1.8460471 9.33179445,1.96252052 C9.51179882,2.47782716 9.75533415,3.63197286 9.75533415,3.96021613 C9.75533415,4.05904206 9.73768667,4.09080754 9.66709672,4.12257302 C9.61768375,4.1472795 9.55415279,4.16492699 9.52944631,4.16492699 C9.50826933,4.16492699 9.39179591,4.03786508 9.27885198,3.88256719 C9.16590806,3.72726929 9.06002314,3.61079587 9.04590515,3.62491386 C9.03531665,3.64256135 9.00002168,3.81903623 8.9682562,4.02021759 C8.91531374,4.38375584 8.86237127,4.51081775 8.80589931,4.41905082 C8.79178132,4.39434433 8.76001584,4.03786508 8.73530936,3.62491386 C8.71413238,3.21549215 8.68589639,2.83430641 8.6753079,2.77783445 C8.66471941,2.72489199 8.6717784,2.68253802 8.68942589,2.68253802 C8.70707338,2.68253802 8.84472378,2.79901144 8.99296268,2.94372084 C9.14120158,3.08490074 9.26826349,3.19431516 9.27532249,3.18019717 C9.30355847,3.12725471 8.92237273,1.987227 8.6823669,1.4083894 C8.66118991,1.35897643 8.69648489,1.34132895 8.89766625,1.30956347 C9.14120158,1.2672095 9.78004064,1.20720804 9.84357159,1.21779653 Z M6.93526561,1.97310901 C7.21762541,1.79310463 7.45763124,1.73310317 7.61645864,1.79663413 C7.6644598,1.81357572 7.67631891,1.84632946 7.67733541,2.09006244 L7.67646009,2.31547027 C7.6729306,2.58371209 7.6623421,2.91901435 7.65175361,3.06019426 L7.65175361,3.06019426 L7.62704713,3.31078858 L6.97056058,3.29314109 L6.70253936,3.28861203 C6.10417923,3.28624754 5.67876448,3.34299525 5.08580889,3.49432246 C4.86345054,3.55079442 4.65873968,3.60373688 4.6340332,3.60726638 C4.60932672,3.61432537 4.58462023,3.59314839 4.57756124,3.56491241 C4.55638425,3.43785049 5.36816869,2.85901289 6.27877906,2.35076525 C6.55055037,2.19546735 6.84702817,2.02605147 6.93526561,1.97310901 Z M10.4859401,1.20014904 L10.69771,1.56015779 L10.7674624,1.68045196 C11.1265302,2.31227166 11.6259679,3.36946648 11.6259679,3.50844045 C11.6259679,3.5684419 11.3894915,3.62844336 11.3471376,3.5790304 C11.3330196,3.56138291 11.2906656,3.47667497 11.2553706,3.38843753 C11.1000727,3.01784028 10.6271201,2.06840544 10.3941732,1.66957222 C10.2565228,1.42956638 10.1435789,1.22838502 10.1435789,1.21779653 C10.1435789,1.20720804 10.2212278,1.20014904 10.3129948,1.20014904 L10.4859401,1.20014904 Z M11.1349522,1.23510573 L11.1918397,1.23544402 C11.3224311,1.23544402 11.7212643,1.2601505 12.0777435,1.28838648 C12.4306933,1.31662246 12.7589366,1.34838794 12.8083495,1.35897643 C12.8577625,1.36956493 12.9354115,1.38368292 12.9848244,1.39427141 C13.0942388,1.41897789 13.1789468,1.5530988 13.4260116,2.08252343 C13.5883685,2.43900269 13.8283743,3.07078275 13.8036679,3.08843024 C13.8001384,3.09195973 13.620134,3.12372521 13.4013051,3.15549069 C13.1860058,3.19078567 12.7942316,3.26137562 12.5295192,3.31431808 C12.0706846,3.40961451 11.9789176,3.40961451 11.9789176,3.30725908 C11.9789176,3.23313964 11.421257,2.08605293 11.1883102,1.68369021 C10.9059504,1.20014904 10.9059504,1.23544402 11.1918397,1.23544402 Z" id="Combined-Shape"></path>
            <path d="M11.7847952,8.19843398 C11.8730327,7.98313463 11.9189162,7.75371728 11.9647996,7.27017612 C12.0106831,6.75486948 12.095391,6.04191097 12.144804,5.74543317 C12.165981,5.59366478 12.2259824,5.5618993 12.2259824,5.69954971 C12.2259824,5.74896267 12.201276,5.94308504 12.17304,6.13367791 C12.1483335,6.32074128 12.0989205,6.75486948 12.0671551,7.09370124 C12.0353896,7.43253301 11.9930356,7.78195326 11.9753881,7.86313171 C11.9295046,8.07843106 11.8483262,8.25843543 11.7989132,8.25843543 C11.7742068,8.25843543 11.7706773,8.23372895 11.7847952,8.19843398 Z" id="Path" transform="translate(12.001260, 6.935228) scale(-1, 1) rotate(-180.000000) translate(-12.001260, -6.935228) "></path>
            <path d="M12.5436372,11.3476245 C12.5436372,11.1923266 13.0377669,10.0558284 13.2001238,9.84052907 C13.3095382,9.68876068 13.2813022,9.82641108 13.1542403,10.0558284 C12.9883539,10.3487767 12.7907021,10.7829049 12.6848171,11.0899712 C12.6036387,11.3158591 12.5436372,11.4252735 12.5436372,11.3476245 Z" id="Path" transform="translate(12.905829, 10.574580) scale(-1, 1) rotate(-180.000000) translate(-12.905829, -10.574580) "></path>
            <path d="M8.36824161,0.30992473 C11.1706627,-0.367738801 14.0648507,0.0734483937 16.5602054,1.55936687 C18.1202434,2.48762472 19.5496899,3.94883671 20.4355938,5.52299262 C21.3956171,7.22068095 21.8650954,8.97837073 21.8650954,10.8631224 C21.8685698,12.14433 21.7026834,13.1749433 21.3109092,14.350266 C20.9579594,15.4091153 20.3650038,16.5456135 19.7120468,17.4103404 C19.2496826,18.0280025 18.3920147,18.9174359 17.8025886,19.393918 C16.0625463,20.8021875 14.0472032,21.606913 11.7495003,21.8010354 C9.30355847,22.0128052 6.59996334,21.2539632 4.58814973,19.7927512 C2.21985687,18.0774154 0.652759955,15.5891197 0.158630297,12.7690511 C-0.374323834,9.73368321 0.451578594,6.53948792 2.39633175,4.12178209 C2.69633904,3.74765535 3.38106157,3.03822634 3.80107178,2.6676291 C5.0611024,1.55583737 6.69525977,0.712287451 8.36824161,0.30992473 Z M11.5906729,0.874604418 C10.5882956,0.800484969 9.4059139,0.913428891 8.40353659,1.17461171 C7.15762395,1.49932549 5.72464794,2.198166 4.81403757,2.9252425 C4.68697566,3.02406843 4.52108928,3.15818934 4.44344033,3.2181908 C3.99166464,3.56761105 3.00693483,4.64763731 2.63633758,5.20176842 C1.43630841,6.99122368 0.861000311,8.85479839 0.861000311,10.937202 C0.861000311,12.6101838 1.19983208,14.0113943 1.97985104,15.5361373 C2.91869739,17.3820645 4.43638134,18.9032779 6.27877906,19.8491833 C7.47880823,20.4668454 8.8200173,20.8550901 10.1082839,20.9574455 C12.3248084,21.1339204 14.4001529,20.6186138 16.3590241,19.4079961 C17.2625755,18.8503355 18.4202507,17.7808977 18.9990883,16.9726428 C20.0791145,15.4584883 20.6755996,14.0219828 20.9297234,12.313706 C21.0214904,11.7031029 21.0250199,10.0371801 20.9332529,9.49716695 C20.6155981,7.57359078 19.8179317,5.79472401 18.684963,4.48175092 C18.5755485,4.35468901 18.4378981,4.19233212 18.3814262,4.12527167 C18.1625973,3.86408885 17.5872892,3.32407572 17.2484575,3.0664224 C16.2072557,2.26875595 15.4131187,1.83109826 14.2201486,1.40049955 C13.4118936,1.11108075 12.6212862,0.952253364 11.5906729,0.874604418 Z" id="Combined-Shape"></path>
        </g>
    </g>
</svg>