<svg xmlns="http://www.w3.org/2000/svg" width="32" height="32" viewBox="0 0 32 32">
  <g fill="none" fill-rule="evenodd">
    <circle cx="16" cy="16" r="16" fill="#326464"/>
    <path fill="#FFF" d="M16,5 L23.4818815,8.20652064 C23.7054026,8.30231538 23.8826411,8.48166384 23.9757841,8.70630285 L27,16 L23.9772548,23.3790544 C23.8833131,23.6083826 23.7019223,23.7908657 23.4731622,23.8861824 L16,27 L8.52683779,23.8861824 C8.29807769,23.7908657 8.11668687,23.6083826 8.0227452,23.3790544 L5,16 L8.02421589,8.70630285 C8.1173589,8.48166384 8.29459744,8.30231538 8.51811852,8.20652064 L16,5 Z M16,9.47457627 L11.4322034,11.4322034 L9.47457627,16 L11.4322034,20.5677966 L16,22.5254237 L20.5677966,20.5677966 L22.5254237,16 L20.5677966,11.4322034 L16,9.47457627 Z M16,11.4322034 L19.2627119,12.7372881 L20.5677966,16 L19.2627119,19.2627119 L16,20.5677966 L12.7372881,19.2627119 L11.4322034,16 L12.7372881,12.7372881 L16,11.4322034 Z"/>
  </g>
</svg>
