<svg xmlns="http://www.w3.org/2000/svg" width="32" height="32"><g fill="none"><circle cx="16" cy="16" r="16" fill="#188C92"/><path fill="#FFF" d="M21.836 21.03a.545.545 0 0 0-.038.56l-5.926 4.638a.592.592 0 0 0-.263-.118l-.18-11.416a.593.593 0 0 0 .18-.07l6.227 6.407zm.166-.158L15.78 14.47a.546.546 0 0 0 .087-.474l6.326-3.08c.08.098.193.17.323.199l-.315 9.678a.593.593 0 0 0-.198.08zm-6.74 5.277l-3.35-4.503a.55.55 0 0 0 .155-.382.572.572 0 0 0-.528-.56l-1.046-9.467a.567.567 0 0 0 .441-.546.548.548 0 0 0-.131-.355l4.205-4.513c.054.03.114.053.178.066v7.704a.568.568 0 0 0-.467.551c0 .275.205.504.476.553l.18 11.416a.595.595 0 0 0-.112.036zm.158-12.556V5.89a.59.59 0 0 0 .273-.134l6.427 4.575a.543.543 0 0 0-.034.386l-6.325 3.08a.588.588 0 0 0-.341-.203zM15.303 5c.193 0 .35.151.35.337a.344.344 0 0 1-.35.338.344.344 0 0 1-.35-.338c0-.186.156-.337.35-.337zm-4.953 5.354c.194 0 .35.15.35.337a.344.344 0 0 1-.35.338.344.344 0 0 1-.35-.338c0-.186.157-.337.35-.337zm1.133 10.572c.194 0 .35.151.35.338a.344.344 0 0 1-.35.337.344.344 0 0 1-.35-.337c0-.187.157-.338.35-.338zM22.65 10.23c.193 0 .35.151.35.337a.344.344 0 0 1-.35.338.344.344 0 0 1-.35-.338c0-.186.156-.337.35-.337zm-7.347 3.577c.193 0 .35.15.35.337a.344.344 0 0 1-.35.338.344.344 0 0 1-.35-.338c0-.186.156-.337.35-.337zm.198 12.518c.194 0 .35.151.35.338a.344.344 0 0 1-.35.337.344.344 0 0 1-.35-.337c0-.187.157-.338.35-.338zm6.822-5.32c.193 0 .35.151.35.338a.344.344 0 0 1-.35.337.344.344 0 0 1-.35-.337c0-.187.156-.338.35-.338z"/></g></svg>