<svg xmlns="http://www.w3.org/2000/svg" width="32" height="32"><path d="M10.506.03h-7.01V32l13.837-.03c3.901 0 6.857-.941 8.777-2.79 1.586-1.548 2.408-3.671 2.408-6.31 0-3.458-1.981-6.066-4.51-7.371 1.706-1.122 3.109-2.973 3.383-6.309.212-2.609-.67-4.701-2.165-6.279C22.91.424 19.161 0 16.51.03h-3.657v2.244h3.657c3.17-.06 5.669.728 7.04 2.153 1.007 1.093 1.707 2.61 1.554 4.52-.304 3.58-2.072 4.824-4.632 5.582h-7.62v2.274h7.711c3.383.152 5.67 3.246 5.67 6.037 0 2.032-.55 3.579-1.708 4.671-1.95 1.88-5.303 2.214-7.771 2.153H5.78V2.275H8.16L8.19 27.3h11.125c2.286 0 4.297-1.88 4.297-4.004a4.01 4.01 0 00-4.023-4.003h-6.736v2.305h6.736a1.7 1.7 0 011.707 1.7c0 .878-.975 1.698-1.981 1.698h-8.837L10.505.03zm2.346 6.946h5.883c.792 0 1.433.637 1.433 1.425 0 .79-.641 1.425-1.433 1.425-.03.031-3.445.031-5.883.031v2.306h5.883a3.738 3.738 0 003.749-3.732 3.737 3.737 0 00-3.75-3.73h-5.882v2.274z" fill="currentColor"/></svg>
