<svg width="32" height="32" viewBox="0 0 32 32" fill="none" xmlns="http://www.w3.org/2000/svg">
<path d="M32 16C32 24.8365 24.8365 32 16 32C7.1635 32 0 24.8365 0 16C0 7.1635 7.1635 0 16 0C24.8365 0 32 7.1635 32 16Z" fill="white"/>
<path d="M22.2007 26L6.71413 15.1288C6.186 14.7588 5.75483 14.267 5.45715 13.695C5.15947 13.123 5.00404 12.4877 5.00404 11.8429C5.00404 11.1981 5.15947 10.5628 5.45715 9.99077C5.75483 9.41879 6.186 8.92698 6.71413 8.55702L10.4654 5.93625L25.952 16.8089C26.4798 17.1791 26.9107 17.6709 27.2082 18.2429C27.5057 18.8149 27.661 19.4501 27.661 20.0948C27.661 20.7395 27.5057 21.3747 27.2082 21.9466C26.9107 22.5186 26.4798 23.0105 25.952 23.3806L22.2007 26ZM10.464 7.68437L7.54002 9.72999C7.20013 9.96783 6.9226 10.2841 6.73099 10.6521C6.53938 11.02 6.43933 11.4288 6.43933 11.8436C6.43933 12.2584 6.53938 12.6672 6.73099 13.0351C6.9226 13.4031 7.20013 13.7194 7.54002 13.9572L22.205 24.2519L25.1289 22.2077C25.4685 21.9696 25.7458 21.6533 25.9372 21.2853C26.1286 20.9174 26.2286 20.5088 26.2286 20.0941C26.2286 19.6793 26.1286 19.2707 25.9372 18.9028C25.7458 18.5349 25.4685 18.2185 25.1289 17.9804L10.464 7.68437Z" fill="#4BC0C8"/>
<path d="M10.4498 24.242L7.5301 22.1921C7.19049 21.9541 6.91323 21.6377 6.72182 21.2698C6.5304 20.9018 6.43046 20.4932 6.43046 20.0785C6.43046 19.6637 6.5304 19.2551 6.72182 18.8872C6.91323 18.5193 7.19049 18.2029 7.5301 17.9649L15.0878 12.6808L13.8412 11.8082L6.71271 16.7919C6.18458 17.1619 5.75342 17.6537 5.45573 18.2257C5.15805 18.7976 5.00262 19.433 5.00262 20.0778C5.00262 20.7226 5.15805 21.3579 5.45573 21.9299C5.75342 22.5019 6.18458 22.9937 6.71271 23.3637L10.454 25.9901L15.0822 22.7517L13.8355 21.8762L10.4498 24.242Z" fill="#02819B"/>
<path d="M25.9591 8.57261L22.2163 5.94617L17.5839 9.18743L18.8306 10.0629L22.2149 7.69996L25.136 9.74983C25.4756 9.98787 25.7529 10.3042 25.9443 10.6722C26.1357 11.0401 26.2356 11.4487 26.2356 11.8634C26.2356 12.2782 26.1357 12.6868 25.9443 13.0547C25.7529 13.4226 25.4756 13.739 25.136 13.9771L17.5769 19.2568L18.8235 20.1323L25.9534 15.1444C26.4815 14.7744 26.9127 14.2826 27.2104 13.7106C27.5081 13.1386 27.6635 12.5033 27.6635 11.8585C27.6635 11.2137 27.5081 10.5784 27.2104 10.0064C26.9127 9.43438 26.4815 8.94257 25.9534 8.57261H25.9591Z" fill="#02819B"/>
<path d="M13.4934 12.0437L7.60394 16.1645L8.42502 17.338L14.3145 13.2172L13.4934 12.0437Z" fill="#02819B"/>
<path d="M24.3738 14.4998L21.5052 16.5086L22.3254 17.6815L25.3003 15.5977C24.9887 15.2379 24.6813 14.8695 24.3738 14.4998Z" fill="#02819B"/>
</svg>
