<svg height="32" viewBox="0 0 32 32" width="32" xmlns="http://www.w3.org/2000/svg"><g fill="none" fill-rule="nonzero"><circle cx="16" cy="16" fill="#0d4ea0" r="16"/><path d="m14.2486775 24.9582111c-.0138628.0139297-.0415885.0278593-.0554513.0417889h-1.5526387c-.0277257 0-.0415886-.0139296-.0554514-.0278592l-4.57473897-5.1678886c-.01386284-.0278592-.01386284-.0557185 0-.0835777l5.69762947-9.83431086c.0277257-.04178886.0970399-.04178886.1247656 0l1.5942272 2.75806456c.0138628.0139296.0138628.0417888 0 .069648l-3.853871 6.6444282c-.0138629.0278592 0 .0557185.0138628.0835777l2.3012324 2.5909091c.0138628.0139296.0415885.0278592.0554513.0278592h2.7171177c.0693143 0 .0970399.0696481.0554514.111437zm1.6912672-18.91642224c.0277257-.05571848.0970399-.05571848.1109027 0l7.9434104 13.65102634c.0138629.0278593 0 .0557185-.0138628.0835778l-4.574739 5.1678885c-.0138628.0139296-.0415885.0278593-.0554514.0278593h-3.7152425c-.0693143 0-.0970399-.0696481-.0554514-.111437l2.4814493-2.813783 2.328958-2.6187683c.0277257-.0278592.0277257-.0557185.0138629-.0835777l-4.4083848-7.6055719-1.6635415-2.86950143c-.0138628-.01392962-.0138628-.04178886 0-.0696481z" fill="#fff"/></g></svg>