<svg xmlns="http://www.w3.org/2000/svg" width="32" height="32" viewBox="0 0 32 32">
  <g fill="none" fill-rule="evenodd">
    <circle cx="16" cy="16" r="16" fill="#5592D7"/>
    <g fill="#FFF" fill-rule="nonzero" transform="translate(6 6)">
      <path d="M14.2457143,6.66666667 L14.2457143,19.6410256 L3.29142857,13.3333333 C0.0514285714,11.4358974 0.257142857,10.2564103 0.257142857,7.69230769 L11.52,14.2051282 L11.52,8.25641026 L14.2457143,6.66666667 Z"/>
      <path d="M11.52,14.2051282 L0.257142857,7.69230769 L11.2114286,1.38461538 C14.4514286,-0.461538462 15.3771429,0.307692308 17.64,1.58974359 L6.37714286,8.1025641 L11.52,11.0769231 L11.52,14.2051282 Z" opacity=".6"/>
      <path d="M6.37714286,8.1025641 L17.64,1.58974359 L17.64,14.2051282 C17.64,17.9487179 16.5085714,18.3589744 14.2457143,19.6410256 L14.2457143,6.66666667 L9.05142857,9.64102564 L6.37714286,8.1025641 Z" opacity=".2"/>
    </g>
  </g>
</svg>
