<svg width="32" height="32" viewBox="0 0 32 32" fill="none" xmlns="http://www.w3.org/2000/svg">
<path d="M32 16C32 24.8365 24.8365 32 16 32C7.1635 32 0 24.8365 0 16C0 7.1635 7.1635 0 16 0C24.8365 0 32 7.1635 32 16Z" fill="#77D563"/>
<path d="M10.1692 19.3417C10.1066 19.2779 10.0039 19.2774 9.9408 19.3406L7.28946 21.9907L7.46096 22.8045C7.72996 24.2047 9.09584 25.173 10.4962 24.9041L14.5587 24.1234C14.6688 24.1023 14.711 23.967 14.6325 23.887L10.1692 19.3417Z" fill="white"/>
<path d="M9.37648 18.7347C9.44296 18.6683 9.4436 18.5608 9.37776 18.4938L6.36149 15.4223C6.24285 15.3016 6.03973 15.4082 6.07173 15.5745L7.05161 20.6746C7.07749 20.809 7.24311 20.8601 7.34011 20.7634L9.37648 18.7347Z" fill="white"/>
<path d="M14.1433 13.6947C14.223 13.7757 14.3534 13.7763 14.4338 13.6961L19.1806 8.96704C19.2926 8.85544 19.1925 8.66608 19.0371 8.69592L11.0811 10.2246C10.9554 10.2486 10.9071 10.4033 10.997 10.4946L14.1433 13.6947Z" fill="white"/>
<path d="M23.3117 14.6058L26.3639 17.6769C26.4639 17.7774 26.6337 17.6881 26.6075 17.5487L25.6328 12.3675C25.6114 12.2541 25.472 12.2106 25.39 12.2918L23.3129 14.3434C23.2399 14.4154 23.2394 14.533 23.3117 14.6058Z" fill="white"/>
<path d="M19.1956 10.4026L22.4613 13.7431C22.5393 13.8229 22.6674 13.824 22.7467 13.7454L25.3889 11.1302L25.2223 10.1386C24.9531 8.7384 23.6331 7.81278 22.2329 8.08192L21.0463 8.29624L19.1983 10.1186C19.1194 10.1964 19.1181 10.3234 19.1956 10.4026Z" fill="white"/>
<path d="M10.2058 17.8414L13.5343 14.5892C13.622 14.5034 13.6235 14.3628 13.5375 14.2754L9.82593 10.5006L7.8048 10.8538C6.48329 11.1077 5.58517 12.2686 5.71429 13.5832L9.89289 17.8382C9.97857 17.9254 10.1184 17.9267 10.2058 17.8414Z" fill="white"/>
<path d="M18.544 17.9618L21.9345 14.5998C21.9916 14.5432 21.9921 14.4512 21.9357 14.3941L18.5569 10.9656C18.5001 10.9081 18.4073 10.9078 18.3502 10.965L14.9782 14.337C14.9217 14.3935 14.9212 14.485 14.9773 14.542L18.3377 17.9603C18.3942 18.018 18.4867 18.0185 18.544 17.9618Z" fill="white"/>
<path d="M18.5406 19.3584C18.4773 19.2936 18.3735 19.293 18.3093 19.3569L14.9297 22.7278C14.8662 22.7912 14.8661 22.8941 14.9295 22.9578L15.824 23.8551L21.504 22.7618C21.6333 22.7369 21.683 22.5782 21.591 22.484L18.5406 19.3584Z" fill="white"/>
<path d="M26.9631 19.5001L22.7389 15.2131C22.666 15.1391 22.5469 15.1389 22.4736 15.2125L19.1653 18.538C19.0931 18.6105 19.0928 18.7276 19.1645 18.8006L22.7988 22.4977L24.9242 22.0892C26.1809 21.8478 26.9913 20.7402 26.9631 19.5001Z" fill="white"/>
<path d="M14.2406 17.6946C13.719 17.6946 13.2961 18.1173 13.2961 18.6389C13.2961 19.1606 13.719 19.5834 14.2406 19.5834C14.7622 19.5834 15.185 19.1606 15.185 18.6389C15.185 18.1173 14.7622 17.6946 14.2406 17.6946Z" fill="white"/>
<path d="M11.5297 9.64824L12.315 9.47672C12.4026 9.4576 12.4674 9.38296 12.4741 9.29344L12.4628 8.9352C12.4841 8.65208 12.6275 8.36136 12.8114 8.14512C13.0274 7.89097 13.279 7.69197 13.5981 7.62759L15.4963 7.23872C15.9244 7.15234 16.5368 7.35184 16.8702 7.71297C17.0858 7.95259 17.2046 8.20384 17.2615 8.35136C17.2904 8.42608 17.3678 8.47008 17.4466 8.45568L18.2164 8.31512C18.3084 8.29824 18.369 8.20856 18.3486 8.1172C18.303 7.91446 18.1638 7.53322 17.7406 6.99071C17.2868 6.37959 16.1474 5.99346 15.3213 6.16022L13.4519 6.53746C12.5218 6.72522 11.6943 7.40734 11.4721 8.36112C11.3474 8.74144 11.3435 9.24736 11.3519 9.51008C11.355 9.6016 11.4402 9.66784 11.5297 9.64824Z" fill="white"/>
</svg>
