<svg width="96" height="96" viewBox="0 0 96 96" fill="none" xmlns="http://www.w3.org/2000/svg">
<g id="color/matic">
<path id="Oval" d="M48 96C74.5097 96 96 74.5097 96 48C96 21.4903 74.5097 0 48 0C21.4903 0 0 21.4903 0 48C0 74.5097 21.4903 96 48 96Z" fill="#2B6DEF"/>
<path id="matic" fill-rule="evenodd" clip-rule="evenodd" d="M68.0023 24L58.0138 29.7589L58.0048 29.7582V29.7641V41.2778L57.9694 41.2829L28.0007 24L18.005 29.7597L18 29.7582V29.7626V65.5693L27.9947 71.3319L28.0012 71.2863V71.3294L37.9988 65.5683V52.8082L47.9775 58.5583L47.9832 58.571L47.9914 58.5663L47.9915 58.5664V58.5662L58.0048 52.8336V65.5738L67.9578 71.3102V71.3396L67.9833 71.3249L68.0008 71.335L68.0146 71.3069L77.9555 65.58V29.7897L78 29.7641L68.0023 24Z" fill="white"/>
</g>
</svg>
