<svg height="32" viewBox="0 0 32 32" width="32" xmlns="http://www.w3.org/2000/svg"><g fill="none" fill-rule="evenodd"><circle cx="16" cy="16" fill="#1e252c" r="16"/><path d="M14.22 15.589a1.507 1.507 0 110-3.014 1.507 1.507 0 010 3.014zm3.698 0a1.507 1.507 0 110-3.014 1.507 1.507 0 010 3.014zm-3.699 3.699a1.507 1.507 0 110-3.014 1.507 1.507 0 010 3.014zm3.699 0a1.507 1.507 0 110-3.014 1.507 1.507 0 010 3.014zm3.698-4.11a1.096 1.096 0 110-2.192 1.096 1.096 0 010 2.192zm0 3.699a1.096 1.096 0 110-2.192 1.096 1.096 0 010 2.192zm-11.232-3.699a1.096 1.096 0 110-2.192 1.096 1.096 0 010 2.192zm0 3.699a1.096 1.096 0 110-2.192 1.096 1.096 0 010 2.192zm3.835 3.698a1.096 1.096 0 110-2.191 1.096 1.096 0 010 2.191zm3.699 0a1.096 1.096 0 110-2.191 1.096 1.096 0 010 2.191zM14.219 11.48a1.096 1.096 0 110-2.191 1.096 1.096 0 010 2.191zm3.699 0a1.096 1.096 0 110-2.191 1.096 1.096 0 010 2.191zm-3.699-4.11a.685.685 0 110-1.369.685.685 0 010 1.37zm3.699 0a.685.685 0 110-1.369.685.685 0 010 1.37zm7.397 7.398a.685.685 0 110-1.37.685.685 0 010 1.37zm0 3.699a.685.685 0 110-1.37.685.685 0 010 1.37zm-18.63-3.699a.685.685 0 110-1.37.685.685 0 010 1.37zm0 3.699a.685.685 0 110-1.37.685.685 0 010 1.37zM14.219 26a.685.685 0 110-1.37.685.685 0 010 1.37zm3.699 0a.685.685 0 110-1.37.685.685 0 010 1.37z" fill="#fff" fill-rule="nonzero"/></g></svg>