<svg height="32" viewBox="0 0 32 32" width="32" xmlns="http://www.w3.org/2000/svg"><g fill="none" fill-rule="evenodd"><circle cx="16" cy="16" fill="#00b0ff" r="16"/><path d="m15.8408443 16.0050916-8.8408443-5.0031822.00256703 10.0019093 2.94566457 1.6675153v-6.657332l5.8932544 3.3350306v-3.335667l-.0019252-.0006365.0019252-.0006364zm5.0294495-7.15885942-2.6036081 1.47148672-2.4251997-1.35883397-2.4316172 1.37474537-2.6042499-1.48548875 5.0410012-2.84814155zm-4.8702938 7.38034622 9-5.1031059-.0019253 10.1998473-2.9982886 1.7012474v-6.7890784l-5.9997861 3.401222v-3.4018585l.0019253-.0006364-.0019253-.0006365zm-.3786366 6.7273422 2.3558899-1.4167516 2.5227467 1.5294043-4.8844124 2.9334267-4.8651598-2.9308809 2.522105-1.5160387z" fill="#fff" fill-rule="nonzero"/></g></svg>