<svg xmlns="http://www.w3.org/2000/svg" width="32" height="32"><g fill="none" fill-rule="evenodd"><circle cx="16" cy="16" r="16" fill="#242424"/><path fill="#FFF" fill-rule="nonzero" d="M22.257 6.77c0 .701-.57 1.27-1.274 1.27a1.272 1.272 0 01-1.274-1.27c0-.702.57-1.27 1.274-1.27.704 0 1.274.568 1.274 1.27zm-.918 4.424c-.596 0-1.08-.482-1.08-1.076 0-.594.484-1.075 1.08-1.075.596 0 1.079.481 1.079 1.075s-.483 1.076-1.08 1.076zm-.335 2.653a.91.91 0 01-.912-.91.91.91 0 01.912-.909.91.91 0 01.912.91.91.91 0 01-.912.909zm-.054 1.372a.779.779 0 01-1.56 0 .779.779 0 011.56 0zm-1.234 1.724c0 .37-.3.667-.669.667a.668.668 0 11.67-.667zm-1.35 1.223a.574.574 0 11-1.148 0 .574.574 0 011.148 0zm6.874-7.409a1.084 1.084 0 01-2.11-.491 1.083 1.083 0 012.11.491zm-.518 2.803a.917.917 0 01-1.786-.417.916.916 0 011.786.417zm-.964 2.237a.775.775 0 01-1.51-.352.776.776 0 011.51.352zM22.516 17.5a.663.663 0 01-1.29-.3.661.661 0 01.795-.493.66.66 0 01.495.793zm-1.357 1.189a.569.569 0 01-1.108-.26.569.569 0 011.108.26zm-1.355.751a.49.49 0 01-.952-.222.49.49 0 01.952.222zm7.104-4.856a.923.923 0 01-1.232.427.917.917 0 01-.428-1.229.923.923 0 011.231-.427.92.92 0 01.429 1.229zm-.961 2.215a.785.785 0 01-1.413-.681.788.788 0 011.048-.364.78.78 0 01.365 1.045zm-1.208 1.68a.68.68 0 01-.906.314.674.674 0 01-.314-.902.678.678 0 011.22.589zm-1.346 1.188a.59.59 0 01-.785.272.587.587 0 11.512-1.056.587.587 0 01.273.784zm-1.355.732a.503.503 0 01-.905-.437.504.504 0 01.905.437zm-1.273.369a.428.428 0 01-.57.198.425.425 0 11.372-.766.425.425 0 01.198.568zm1.036 4.856a1.267 1.267 0 01-.468-1.734 1.277 1.277 0 011.74-.466c.61.35.82 1.127.469 1.734a1.276 1.276 0 01-1.74.466zm-2.99-1.532a1.072 1.072 0 01-.396-1.468 1.081 1.081 0 011.473-.395c.516.296.693.954.396 1.468a1.08 1.08 0 01-1.473.395zm-2.202-1.84a.908.908 0 01-.335-1.243.914.914 0 011.246-.333.907.907 0 01.335 1.24.913.913 0 01-1.246.336zm-1.501-1.974a.777.777 0 11.779-1.346c.372.214.5.689.285 1.06a.78.78 0 01-1.064.286zm-.883-1.926a.666.666 0 01-.246-.911.671.671 0 01.915-.245c.32.184.43.592.246.91a.67.67 0 01-.915.246zm-.389-1.777a.572.572 0 01-.21-.783.576.576 0 01.784-.21.573.573 0 11-.574.993zm3.75 9.926a1.081 1.081 0 01-1.083-1.08 1.08 1.08 0 011.083-1.079c.598 0 1.083.483 1.083 1.08 0 .596-.485 1.079-1.083 1.079zm-2.918-2.138a.912.912 0 01-.043-1.292.92.92 0 011.297-.042c.37.345.388.923.042 1.292a.92.92 0 01-1.296.042zm-1.465-1.948a.772.772 0 01-.035-1.093.777.777 0 011.096-.036.77.77 0 01.036 1.093.778.778 0 01-1.097.036zm-.859-1.924a.658.658 0 01-.03-.933.664.664 0 01.936-.031.66.66 0 01.031.934.664.664 0 01-.937.03zm-.356-1.764a.566.566 0 01-.026-.801.57.57 0 01.805-.027c.23.214.24.573.026.802a.57.57 0 01-.805.026zm.024-1.546a.485.485 0 01-.023-.688.49.49 0 01.691-.022.489.489 0 01-.668.71zm.675 8.56a.918.918 0 01.244-1.277.924.924 0 011.282.243.916.916 0 01-.244 1.276.925.925 0 01-1.282-.242zm-1.446-1.936a.78.78 0 01.207-1.087.787.787 0 011.09.206.78.78 0 01-.207 1.087.786.786 0 01-1.09-.206zm-.858-1.883a.674.674 0 01.179-.938.68.68 0 01.942.178.674.674 0 01-.18.94.68.68 0 01-.941-.18zm-.36-1.754a.586.586 0 01.155-.815.59.59 0 01.818.155.584.584 0 01-.156.815.59.59 0 01-.817-.155zm.04-1.536a.5.5 0 01.132-.696.504.504 0 01.699.132.503.503 0 01-.831.564zm.314-1.283a.427.427 0 11.706-.48.427.427 0 01-.706.48zm-4.74-1.542a1.276 1.276 0 011.74.466 1.268 1.268 0 01-.467 1.734c-.61.35-1.388.141-1.739-.465a1.268 1.268 0 01.466-1.735zm2.83-1.81a1.08 1.08 0 011.474.393c.297.515.12 1.172-.396 1.469a1.082 1.082 0 01-1.473-.394 1.073 1.073 0 01.395-1.469zm2.701-.977a.915.915 0 011.246.333.91.91 0 01-.334 1.243.915.915 0 01-1.246-.334.908.908 0 01.334-1.242zm2.467-.306a.78.78 0 011.064.285.775.775 0 01-.285 1.06.78.78 0 01-1.066-.285.775.775 0 01.287-1.06zm2.114.204a.67.67 0 01.914.245.67.67 0 01-1.16.667.666.666 0 01.246-.912zm1.738.554a.577.577 0 01.785.21.571.571 0 01-.21.783.573.573 0 11-.575-.993zM7.614 11.24a1.084 1.084 0 011.35.722 1.084 1.084 0 01-2.073.624 1.077 1.077 0 01.723-1.346zm2.694-.953a.915.915 0 01.53 1.75.914.914 0 11-.53-1.75zM12.734 10a.772.772 0 11.447 1.48.772.772 0 11-.447-1.48zm2.1.223a.66.66 0 01.382 1.265.663.663 0 01-.825-.442.66.66 0 01.444-.823zm1.71.577a.568.568 0 01.328 1.086.566.566 0 11-.328-1.086zm1.33.795a.487.487 0 11.283.932.486.486 0 11-.283-.932zm-7.77-3.707a.92.92 0 01.988.85.922.922 0 01-1.84.134.92.92 0 01.853-.984zm2.407-.278a.783.783 0 01.113 1.56.783.783 0 11-.113-1.56zm2.064.204a.677.677 0 01.098 1.348.676.676 0 01-.098-1.348zm1.703.568a.587.587 0 01.085 1.17.587.587 0 11-.085-1.17zm1.314.804zm.957.915z"/></g></svg>