<svg width="32" height="32" viewBox="0 0 32 32" fill="none" xmlns="http://www.w3.org/2000/svg">
<path d="M32 16C32 24.8365 24.8365 32 16 32C7.1635 32 0 24.8365 0 16C0 7.1635 7.1635 0 16 0C24.8365 0 32 7.1635 32 16Z" fill="white"/>
<path d="M27.1788 7.5469L18.1141 2.51202C16.891 1.82933 15.3928 1.82933 14.1697 2.51202L5.0955 7.5469C3.80596 8.26753 3 9.63292 3 11.1026V20.8974C3 22.3766 3.80596 23.7325 5.0955 24.4531L14.1602 29.488C15.3833 30.1707 16.8815 30.1707 18.1046 29.488L27.1693 24.4531C28.4589 23.7325 29.2648 22.3766 29.2648 20.8974V11.1026C29.2648 9.63292 28.4683 8.26753 27.1788 7.5469ZM12.7284 21.0017C12.7284 22.3481 11.6285 23.448 10.2821 23.448C8.93566 23.448 7.83576 22.3481 7.83576 21.0017V12.3921C7.83576 11.0457 8.93566 9.94582 10.2821 9.94582C11.6285 9.94582 12.7284 11.0457 12.7284 12.3921V21.0017ZM16.1324 16.5547C14.7765 16.5547 13.6766 15.4548 13.6766 14.0989C13.6766 12.743 14.7765 11.6431 16.1324 11.6431C17.4883 11.6431 18.5882 12.743 18.5882 14.0989C18.5882 15.4548 17.4883 16.5547 16.1324 16.5547ZM24.4385 21.0017C24.4385 22.3481 23.3386 23.448 21.9922 23.448C20.6458 23.448 19.5459 22.3481 19.5459 21.0017V12.3921C19.5459 11.0457 20.6458 9.94582 21.9922 9.94582C23.3386 9.94582 24.4385 11.0457 24.4385 12.3921V21.0017Z" fill="#2EA6A3"/>
</svg>
