<?xml version="1.0" encoding="utf-8"?>
<!-- Generator: Adobe Illustrator 24.1.2, SVG Export Plug-In . SVG Version: 6.00 Build 0)  -->
<svg
	version="1.1"
	id="Capa_1"
	xmlns="http://www.w3.org/2000/svg"
	xmlns:xlink="http://www.w3.org/1999/xlink"
	x="0px"
	y="0px"
	viewBox="0 0 32 32"
	xml:space="preserve"
>
	<style type="text/css">
		.st0 {
			fill: #242732;
		}
	</style>
	<g id="Layer_1-2">
		<path
			class="st0"
			d="M23.3,3C19,3.8,16,6.6,13,9.5c-1,0.9-1.9,1.8-2.9,2.7c-0.4-0.2-1-0.3-1.4-0.3c-0.2,0-0.4-0.1-0.6-0.1
		c-2.2-0.2-4.8,0.4-6.4,2.1c-2.5,2.8-2.4,7.2,1.9,7.8c1,0.2,2.1,0.1,3.1-0.1c0,0.1,0.1,0.3,0.1,0.4c0,0.1,0.1,0.2,0.1,0.2
		c0.2,0.4,0.3,0.9,0.4,1.3l0,0c0.2,0.6,0.4,1.3,0.7,1.9c0.1,0.1,0.2,0.2,0.4,0.2c0.1,0.1,0.2,0.2,0.4,0.2c3.3-1.4,6.8-2.5,10.4-3.1
		c2-0.4,4-0.6,6-0.8l0,0c1.1-0.1,2.3-0.2,3.5-0.4c0.6,0,0.8-0.5,0.7-0.9c0.1-0.1,0.1-0.3,0.1-0.4c-0.1-0.4-0.2-0.8-0.4-1.3l0,0
		L29,18.8c0-0.1-0.1-0.2-0.1-0.3c-0.1-0.5-0.3-1-0.4-1.4l0,0c0.5-0.3,1-0.9,1.4-1.4c0.1-0.1,0.2-0.2,0.3-0.3
		c0.7-0.9,1.1-1.8,1.4-2.9C33.3,6.6,29.2,2.2,23.3,3z M29.1,14.8c-0.3,0.4-0.7,0.8-1.2,1.2c-0.2,0-0.4-0.1-0.5-0.1l0,0
		c-0.1,0-0.1,0-0.2,0c0.5-0.9,0.8-2.4,0.8-3c0.1-0.8-1.1-0.9-1.2-0.1c0,0.5-0.1,1-0.2,1.4c-0.1,0.5-0.4,0.9-0.7,1.3
		c-0.1,0-0.2,0.1-0.3,0.2c0,0,0,0.1-0.1,0.1c-0.5,0-0.9,0-1.4,0c0.4-0.8,0.6-1.8,0.5-2.2c-0.1-0.5-0.2-1-0.3-1.5
		c-0.3-0.8-1.4-0.4-1.2,0.4c0.4,1.1,0.3,2.4-0.5,3.3c-0.9,0.1-1.8,0.2-2.7,0.3c-1.1,0.2-2.2,0.5-3.3,0.9c-0.3,0.1-0.5,0.4-0.4,0.8
		c0.1,0.3,0.4,0.5,0.8,0.4c0.2-0.1,0.5-0.1,0.7-0.2l0,0c0.6-0.2,1.2-0.4,1.8-0.5c1.1-0.3,2.2-0.4,3.3-0.4c0.1,0,0.2,0,0.2,0
		c0.3,0,0.5,0,0.8,0c1.1-0.1,2.3,0,3.4,0c0,0.3,0.1,0.6,0.2,0.9l0,0c0.1,0.2,0.1,0.3,0.1,0.5c0.1,0.3,0.2,0.6,0.3,1l0,0
		c0.1,0.3,0.2,0.6,0.3,0.9c-1,0.1-2,0.2-3,0.3l0,0c-2.6,0.3-5.1,0.5-7.7,1.1c-1.9,0.4-3.7,0.9-5.5,1.5h0l0,0c-1,0.3-2.1,0.7-3,1.2
		c-0.1-0.4-0.3-0.8-0.4-1.2c-0.2-0.7-0.4-1.4-0.7-2c0.7-0.2,1.5-0.6,1.3-1.3c-0.1-0.3-0.5-0.4-0.8-0.3c-2,1.1-4.7,1.5-6.5-0.1
		c-1.2-1.5-0.1-3.8,1.1-5c1.6-1.4,3.9-1.7,6-1.3c-0.3,0.2-0.7,0.5-1,0.7c-0.7,0.5,0,1.5,0.7,1c1.9-1.2,3.5-2.8,5.1-4.3l0,0
		c1-1,2-2,3.1-2.9c2.5-2.1,5.7-4,9-3.5C27.4,4.6,29.2,5.3,30,7C31.4,9.4,30.8,12.6,29.1,14.8z"
		/>
		<path
			class="st0"
			d="M14.8,19.5c-1.3,0.3-2.5,0.7-3.7,1.1L11,20.7c-0.5,0.2-1.4,0.5-1,1.2c0.4,0.5,0.8,0.2,1.3,0
		c0.2-0.1,0.4-0.2,0.6-0.3c0.6-0.2,1.1-0.4,1.7-0.6c0.4-0.1,0.7-0.2,1.1-0.3l0,0l0.4-0.1C16,20.4,15.6,19.3,14.8,19.5z"
		/>
	</g>
</svg>
