<svg width="32" height="32" viewBox="0 0 32 32" fill="none" xmlns="http://www.w3.org/2000/svg">
<g clip-path="url(#clip0)">
<path d="M31.5167 19.8708C29.3792 28.4417 20.7 33.6583 12.125 31.5208C3.55416 29.3833 -1.65835 20.7 0.479156 12.1292C2.61249 3.55834 11.2958 -1.65833 19.8625 0.479171C28.4375 2.61667 33.6542 11.3 31.5167 19.8708Z" fill="#0007BC"/>
<path d="M25.6042 16.975L25.4042 16.6542L22.1875 11.5583C21.9333 11.1625 21.6 10.825 21.2083 10.5667C20.4792 10.1042 19.5875 9.95834 18.75 10.1667C17.9208 10.3667 17.2125 10.8958 16.7833 11.6333C16.5667 11.9917 16.2958 12.4375 16.0208 12.875L15.1458 11.525L15.1125 11.4792V11.4667C14.8167 11.0708 14.4458 10.7375 14.0208 10.4875C13.3833 10.1417 12.6458 10.025 11.925 10.15C11.2333 10.2875 10.6 10.6375 10.1125 11.1542C9.97499 11.3083 9.85415 11.475 9.75415 11.6542L7.37915 15.4208L6.38332 16.9917C5.92915 17.7167 5.77082 18.5917 5.94582 19.4292C6.10832 20.2667 6.61249 21 7.33332 21.4583C7.82499 21.7667 8.39165 21.9292 8.97082 21.925C10.1083 21.9208 11.1625 21.3417 11.7667 20.3792L12.525 19.1792L13.2583 20.3208C13.4542 20.6042 13.6875 20.8667 13.9417 21.0958C14.0125 21.1583 14.0833 21.2208 14.1583 21.275H14.1667C14.2167 21.3125 14.2667 21.3458 14.325 21.3833C14.8167 21.7 15.3917 21.8708 15.9792 21.8708C16.6 21.8667 17.2083 21.6875 17.725 21.3458L17.7875 21.3042L17.8458 21.2667C18.1292 21.0667 18.3833 20.8208 18.5917 20.5417L19.4542 19.2L20.1917 20.3667C20.8042 21.325 21.8583 21.9042 22.9958 21.9042C23.5708 21.9083 24.1375 21.7458 24.6292 21.4417C26.1083 20.5167 26.55 18.475 25.6042 16.975ZM10.2167 11.9292C10.3042 11.7792 10.4042 11.6417 10.5167 11.5125C10.9167 11.0833 11.4458 10.7875 12.0208 10.6625C12.6208 10.5542 13.2333 10.6542 13.7667 10.9417C14.1292 11.1583 14.4458 11.4458 14.6958 11.7833L14.7167 11.8125L15.725 13.3625C15.2542 14.0667 14.8583 14.6458 14.8583 14.6583C14.4875 15.225 13.9208 15.6375 13.2667 15.8083H13.2333C12.55 16.0083 11.8208 15.9292 11.1917 15.5917L11.0917 15.5333L11.0042 15.475L10.9208 15.4167L10.85 15.3583L10.7833 15.3042L10.7292 15.2583L10.6917 15.225L10.6708 15.2042L10.6125 15.1375L10.5417 15.075L10.5208 15.0542L10.4875 15.0208L10.4667 15L10.4458 14.9792L10.35 14.9L10.3292 14.8833L10.3 14.8625L10.25 14.825L10.225 14.8083H10.2125L10.1417 14.7625L10.1167 14.75H10.0958L10.0292 14.7125L9.99582 14.6917L9.90832 14.65L9.86665 14.6208L9.82082 14.6L9.73749 14.5667H9.73332L9.62915 14.5333L9.58749 14.525L9.50415 14.5042H9.46249L9.38332 14.475H9.33749H9.30415H9.26249H9.20415H9.07499H9.03332H8.88749H8.86665L8.72499 14.4958H8.71249L8.56249 14.5292L10.2167 11.9292ZM11.3458 20.1C10.9583 20.7083 10.3542 21.1417 9.65832 21.3167C8.97082 21.4958 8.23749 21.3875 7.63749 21.0083C6.41665 20.2417 6.05415 18.5292 6.84582 17.2625L7.83749 15.6917C7.90832 15.5833 7.98749 15.4875 8.07915 15.3958C8.34999 15.1375 8.71249 14.9917 9.08749 14.9917H9.18749H9.22082H9.28749H9.32082H9.37915H9.40415L9.44999 15H9.46665H9.49165L9.54582 15.0208H9.57082L9.65832 15.0542L9.68332 15.0625L9.72082 15.0833H9.74165L9.77499 15.1L9.80832 15.1208H9.82499L9.85832 15.1417L9.90832 15.175H9.92499H9.93749L9.96665 15.1958L9.99999 15.2167H10.0125L10.0875 15.2833H10.0958L10.1417 15.3292L10.1542 15.3417L10.1708 15.3625L10.1958 15.3917L12.2542 18.7L11.3458 20.1ZM18.1875 20.225C18.0083 20.4667 17.8 20.6792 17.55 20.8542L17.5042 20.8875L17.4458 20.925C16.5958 21.4958 15.4875 21.5083 14.6208 20.9625L14.4875 20.8708H14.4708C14.4125 20.825 14.35 20.7792 14.2917 20.725C14.0708 20.525 13.8708 20.3 13.7 20.0542L12.7542 18.5625L11.2958 16.2417L11.3458 16.2625L11.4833 16.3083L11.5625 16.3333L11.7 16.3667L11.7917 16.3917L11.9375 16.4167L12.0167 16.4292L12.2083 16.45H12.2333H12.45H12.5375H12.7H12.7833L12.9417 16.4292H13.0125C13.0875 16.4167 13.1625 16.4042 13.2292 16.3833C13.4875 16.3167 13.7375 16.2208 13.975 16.0958H14C14.0667 16.0625 14.125 16.0292 14.1917 15.9958C14.6333 15.7417 15.0083 15.3875 15.2833 14.9583C15.2833 14.9583 15.7333 14.2792 16.225 13.5125C16.575 12.9667 16.95 12.3708 17.2167 11.9125C17.5708 11.3 18.1667 10.8542 18.8542 10.6917C19.5583 10.5208 20.2958 10.6375 20.9083 11.025C21.2333 11.2417 21.5125 11.5292 21.7292 11.8583L24.2042 15.7833C24.1333 15.75 24.0625 15.725 23.9875 15.7L23.95 15.6875C23.8792 15.6625 23.8042 15.6417 23.7333 15.6208H23.7125C23.6417 15.6 23.5667 15.5875 23.4958 15.575H23.4625C23.3917 15.5625 23.3125 15.5542 23.2458 15.5458H23.2042C23.1292 15.5458 23.0542 15.5458 22.9875 15.5375H22.9792C22.9083 15.5375 22.8292 15.5375 22.7625 15.5375H22.7167C22.6458 15.5375 22.5708 15.5458 22.5 15.5625H22.4542C22.3792 15.575 22.3042 15.5875 22.225 15.6083C22.1208 15.6333 22.0208 15.6625 21.9167 15.6958C21.225 15.9333 20.6333 16.4042 20.2542 17.0292L19.3542 18.4417L18.1875 20.225ZM24.3708 20.9917C23.15 21.7583 21.45 21.3417 20.6583 20.0792L19.7833 18.7042L20.6833 17.2917L20.7542 17.1792C21.4125 16.225 22.6167 15.8083 23.7208 16.1458L23.8208 16.1792H23.85L23.9208 16.2083L23.975 16.2292L24.0208 16.25L24.0958 16.2833H24.1167C24.1875 16.3167 24.2625 16.3542 24.3333 16.4C24.4042 16.4458 24.4333 16.4667 24.4833 16.5L24.5167 16.5208C24.6208 16.5958 24.7208 16.6792 24.8083 16.7667L24.8292 16.7875C24.8667 16.825 24.9042 16.8708 24.9417 16.9125L24.9625 16.9333L25.15 17.2333C25.95 18.5125 25.5917 20.225 24.3708 20.9917Z" fill="white"/>
</g>
<defs>
<clipPath id="clip0">
<rect width="31.9958" height="32" fill="white"/>
</clipPath>
</defs>
</svg>
