<svg width="32" height="32" viewBox="0 0 32 32" fill="none" xmlns="http://www.w3.org/2000/svg">
<path d="M16 32C24.8366 32 32 24.8366 32 16C32 7.16344 24.8366 0 16 0C7.16344 0 0 7.16344 0 16C0 24.8366 7.16344 32 16 32Z" fill="#36C7CE"/>
<path fill-rule="evenodd" clip-rule="evenodd" d="M25.9794 16C25.9794 21.5115 21.5115 25.9794 16 25.9794C10.4885 25.9794 6.02062 21.5115 6.02062 16C6.02062 10.4885 10.4885 6.02062 16 6.02062C21.5115 6.02062 25.9794 10.4885 25.9794 16ZM27 16C27 22.0751 22.0751 27 16 27C9.92487 27 5 22.0751 5 16C5 9.92487 9.92487 5 16 5C22.0751 5 27 9.92487 27 16ZM10.9649 20.8196H13.0062V14.5825L15.7278 18.7216L18.5062 14.5825V20.8196H20.6041V17.6443H22.9289V16.6804H20.6041V15.6598H22.9289V14.7526H20.6041V11.1237H18.3361L15.7845 15.2062L13.233 11.1237H10.9649V14.7526H8.64021V15.6598H10.9649V16.6804H8.64021V17.5876H10.9649V20.8196Z" fill="white"/>
</svg>
