<svg xmlns="http://www.w3.org/2000/svg" width="32" height="32" viewBox="0 0 32 32"><g fill="none" fill-rule="evenodd"><circle cx="16" cy="16" r="16" fill="#DEC799" fill-rule="nonzero"/><path fill="#FFF" fill-rule="nonzero" d="M23.529471,13.4135726 L22.1057935,7 L19.3088161,11.4136848 C17.1345088,10.8887269 14.8664987,10.8887269 12.6921914,11.4136848 L9.90125945,7 L8.47254408,13.4135726 C6.93602015,14.6421761 6,16.247336 6,18.0089736 C6,21.868424 10.4755668,24.9979809 15.9969773,24.9979809 C21.5183879,24.9979809 25.9939547,21.868424 25.9939547,18.0089736 C25.9929471,16.247336 25.0639798,14.6421761 23.529471,13.4135726 Z M10.4433249,16.351318 L9.77732997,16.351318 L11.4035264,14.4745934 L12.5884131,14.4745934 L10.4433249,16.351318 Z M15.9465995,20.9346046 L13.1808564,16.0625911 L13.8639798,15.6729108 L14.4806045,16.7581604 L17.502267,16.7581604 L18.1460957,15.6678632 L18.8221662,16.0696579 L15.9465995,20.9346046 Z M21.5596977,16.351318 L19.413602,14.4745934 L20.6055416,14.4745934 L22.2307305,16.351318 L21.5596977,16.351318 Z M15.9596977,19.365788 L14.9269521,17.5466068 L17.0347607,17.5466068 L15.9596977,19.365788 Z"/></g></svg>