<svg height="32" viewBox="0 0 32 32" width="32" xmlns="http://www.w3.org/2000/svg"><g fill="none" fill-rule="nonzero"><circle cx="16" cy="16" fill="#47b95c" r="16"/><g fill="#fff" transform="translate(6 6)"><path d="m10 0c-5.52 0-10 4.48-10 10 0 .1333333.01333333.26.02.3933333h4.69333333l2.26666667-3.89999997 3.02 4.32666667 3.0133333-4.32666667 2.2666667 3.89999997h4.6933333c.0066667-.1333333.02-.26.02-.3933333.0066667-5.52-4.4733333-10-9.9933333-10zm6.8933333 9.18666667c-.4066666-3.44666667-3.34-6.12666667-6.8933333-6.12666667-3.55333333 0-6.48666667 2.68666667-6.89333333 6.12666667h-1.21333334c.40666667-4.11333334 3.88666667-7.33333334 8.10666667-7.33333334s7.6933333 3.22 8.1066667 7.33333334z"/><path d="m12.9266667 8.73333333-2.9266667 4.19999997-2.92666667-4.19999997-1.66666666 2.86666667h-5.26666667c.76666667 4.76 4.88 8.4 9.86 8.4s9.0933333-3.64 9.86-8.4066667h-5.2666667zm3.42 4.06666667h1.2933333c-1.1466667 3.1133333-4.1333333 5.3466667-7.64 5.3466667-3.50666667 0-6.49333333-2.2333334-7.64-5.3466667h1.29333333c1.08 2.4333333 3.51333334 4.14 6.34666667 4.14 2.8333333 0 5.2666667-1.7066667 6.3466667-4.14z"/></g></g></svg>