<svg xmlns="http://www.w3.org/2000/svg" width="32" height="32" viewBox="0 0 32 32">
  <g fill="none">
    <circle cx="16" cy="16" r="16" fill="#FFF"/>
    <path fill="#FBBF02" d="M18.6505051,0.226262626 C17.7777778,0.0808080808 16.9050505,0 16,0 C7.15959596,0 0,7.15959596 0,16 C0,19.3939394 1.06666667,22.5292929 2.86060606,25.1313131 C3.95959596,23.5151515 6.4969697,22.4 9.43838384,22.4 C11.4585859,22.4 13.2848485,22.9333333 14.5939394,23.789899 L18.6505051,0.226262626 Z M27.1515152,4.54141414 C29.9151515,10.6505051 27.4909091,13.9151515 27.4909091,13.9151515 C25.6161616,8.27474747 20.1858586,7.45050505 20.1858586,7.45050505 C20.1858586,7.45050505 16.6141414,26.6989899 16.6141414,26.9414141 C16.6141414,29.0262626 14.4,30.7878788 11.3939394,31.3212121 C12.8484848,31.7575758 14.4,32 16,32 C24.840404,32 32,24.840404 32,16 C32,11.5070707 30.1414141,7.45050505 27.1515152,4.54141414 Z"/>
  </g>
</svg>
