<svg xmlns="http://www.w3.org/2000/svg" width="32" height="32" viewBox="0 0 32 32">
  <g fill="none" fill-rule="evenodd">
    <circle cx="16" cy="16" r="16" fill="#186C9D"/>
    <path fill="#FFF" fill-rule="nonzero" d="M19.2613073,23.5 L19.2621542,23.4982843 C19.4083809,23.5008578 19.5619472,23.4859888 19.7200301,23.4488162 C20.5956966,23.2432231 21.3367104,22.4777536 21.5131422,21.6519501 L25,8.55575889 L22.2279029,8.54231957 L19.9419108,17.1103168 L13.7622797,8.51343932 L13.7583276,8.5165847 L13.7614328,8.50772046 L12.7392573,8.5 L12.7381281,8.50142972 C12.5921837,8.49885623 12.4383351,8.51343932 12.2799699,8.55004003 C11.4045857,8.75591902 10.6644188,9.5211026 10.4874224,10.3457623 L7,23.444813 L9.77322627,23.4568226 L12.0580892,14.8893972 L18.2388495,23.4874185 L18.2405433,23.4865607 L19.2613073,23.5 Z M12.6681199,12.6055702 L13.1508375,10.7952648 L19.3324446,19.3947158 L18.8491625,21.205593 L12.6681199,12.6055702 Z"/>
  </g>
</svg>
