<svg height="32" viewBox="0 0 32 32" width="32" xmlns="http://www.w3.org/2000/svg"><g fill="none"><circle cx="16" cy="16" fill="#4a90e2" r="16"/><path d="m24.9497751 11c-.8575712 0-1.5832084.6926537-1.5832084 1.5832084 0 1.2533733-.197901 1.5832084-1.5832084 1.5832084h-.131934c-.7916042.065967-1.4182909.7256372-1.4182909 1.5502249v.0329835c0 1.2203898-.2308845 1.5172414-1.5832084 1.5172414-.065967 0-.131934 0-.1649175.0329835-.7916042.0989505-1.4182909.7586207-1.4182909 1.5502249 0 .8575712.6926537 1.5832084 1.5832084 1.5832084.8245877 0 1.5172414-.6596702 1.5502249-1.4512744v-.131934c0-1.1214393.3628186-1.5502249 1.5502249-1.5832084h.0329835c.8245877 0 1.5172414-.6596702 1.5502249-1.4842579v-.0989505c0-1.1544228.3628186-1.5832084 1.5832084-1.5832084.8575712 0 1.5832084-.6926537 1.5832084-1.5832084 0-.8245877-.6926537-1.5172414-1.5502249-1.5172414zm-9.3013493 3.1664168c.7916042.065967 1.4182908.7256372 1.4512743 1.5172414 0 .8905547-.6926536 1.5832084-1.5832083 1.5832084-.8905548 0-1.5832084-.7256372-1.5832084-1.5832084 0-1.1214393-.3628186-1.5502249-1.5832084-1.5502249s-1.5832084.4287856-1.5832084 1.5832084v.0989505c-.0329835.7916042-.7256372 1.4512744-1.55022492 1.4512744-.89055472 0-1.5832084-.7256372-1.5832084-1.5832084 0-.8245877.62668666-1.4842579 1.41829086-1.5502249h.13193403c1.38530733 0 1.58320843-.2968516 1.58320843-1.5502249 0-.8905547.7256371-1.5832084 1.5832084-1.5832084.8905547 0 1.5832084.7256372 1.5832084 1.5832084 0 1.2533733.197901 1.5832084 1.5832084 1.5832084zm-9.5652174 6.2668666c-.87438186 0-1.5832084-.7088266-1.5832084-1.5832084 0-.8743819.70882654-1.5832084 1.5832084-1.5832084.87438185 0 1.58320839.7088265 1.58320839 1.5832084 0 .8743818-.70882654 1.5832084-1.58320839 1.5832084z" fill="#fff"/></g></svg>