<svg height="32" viewBox="0 0 32 32" width="32" xmlns="http://www.w3.org/2000/svg"><g fill="none" fill-rule="evenodd"><circle cx="16" cy="16" fill="#222" r="16"/><path d="m12.7307107 18.6550286c1.0621527 2.1546689 2.0881319 4.2362191 3.1456249 6.3816869.5497149-1.6241908 1.0777257-3.1842186 1.6155463-4.7730769-1.5723833-.5313369-3.1242887-1.0555583-4.7611712-1.60861m-5.75404234-2.7688164c1.62314882.5508434 3.18277944 1.0802175 4.76472724 1.6170751.53733-1.5851777 1.0655861-3.1432427 1.6172629-4.7702551-2.1563097 1.0653729-4.23806523 2.0939412-6.38199014 3.15318m6.03141354 2.0233988c.0745543.0407306.1060681.0641629.1413833.0763084 1.5355966.5222585 3.0703349 1.0477067 4.610346 1.5569608.1237257.0409759.3021408.0063795.425376-.0538575 1.7608535-.8588986 3.5166794-1.7279799 5.2732411-2.5954663.4998077-.2468368.9977761-.4966179 1.5427087-.7681138-.1195565-.0461285-.1824617-.0728732-.2468383-.0948334-1.487774-.5042241-2.9740765-1.0126195-4.4660197-1.5040847-.1423643-.0469873-.342974-.0354552-.4772452.0298118-1.8717039.9106705-3.7367861 1.8353269-5.6033398 2.7569162-.3884669.1918751-.7759527.3857131-1.1996121.5963585m6.498849-4.0647093c-1.130821-2.2934225-2.2457012-4.55433429-3.3898881-6.87474695-1.1693244 3.45056185-2.3113041 6.82076675-3.4792797 10.26666665 2.3277355-1.1494103 4.5836144-2.2633654 6.8691678-3.3919197m-14.5069309 2.1574906c1.09366657-.5418876 2.12626733-1.0549449 3.16033955-1.5651805 1.75791052-.8676091 3.51557575-1.7355863 5.27679715-2.5965705.1879797-.091889.2960097-.212363.3635745-.4136847.6884005-2.0525972 1.3866108-4.1020047 2.0827365-6.15202561.025628-.07557228.056774-.14942702.1047193-.27493099.0703851.13617733.1217637.23174683.169709.32903388 1.3455323 2.7293127 2.6878765 5.46034292 4.0443223 8.18425762.0653576.1312701.2407072.2415614.3885894.2925972 2.0358949.7019881 4.0760815 1.3918305 6.1151645 2.0849854.0767614.0260087.1529098.0539802.2940478.1039119-.1884702.0956922-.3272784.1678294-.4674355.2370222-2.6279143 1.2971197-5.2542346 2.5974292-7.8865634 3.8852251-.2594684.1268535-.4013421.2906343-.4929408.5649519-.678836 2.0340722-1.3747165 4.0623784-2.065692 6.0922794-.0188839.0554524-.0421821.1094326-.087307.2257354-.1774342-.3551652-.3305892-.6578224-.480556-.9619518-1.2235234-2.4823532-2.4483956-4.9638477-3.6659105-7.4491454-.1012859-.2065969-.2280771-.3302607-.4532113-.4057103-2.04214859-.683463-4.080128-1.3800529-6.11896577-2.0734532-.07528997-.0255179-.14874061-.0565565-.28141773-.107347" fill="#fff"/></g></svg>