<svg height="32" viewBox="0 0 32 32" width="32" xmlns="http://www.w3.org/2000/svg"><g fill="none" fill-rule="evenodd"><circle cx="16" cy="16" fill="#36a9cf" fill-rule="nonzero" r="16"/><path d="M26.31 18.475c.176.077.241.316.146.534a.445.445 0 01-.345.277l-2.225 4.103a.538.538 0 01-.162.509.545.545 0 01-.429.167l-4.339 2.598a.524.524 0 01-.41.326c-.214.041-.418-.037-.516-.182l-5.098-.357a.534.534 0 01-.451.094c-.252-.055-.426-.256-.416-.463l-3.939-2.842a.528.528 0 01-.46-.14c-.172-.156-.234-.383-.168-.555l-1.62-3.757c-.177-.035-.33-.209-.37-.439-.033-.207.035-.402.162-.506l.239-5.687a.545.545 0 01-.07-.516c.08-.233.273-.38.463-.37l4.252-4.455c-.037-.21.123-.433.374-.512a.532.532 0 01.47.063l6.118-1.112c.079-.18.303-.286.545-.243.22.038.385.189.424.363l2.826 1.612a.57.57 0 01.473.058.586.586 0 01.286.428l1.216.818a.53.53 0 01.46.09c.228.164.31.45.18.64l-.008.01 1.783 3.48c.17-.023.344.109.406.318.068.229-.026.462-.208.52-.183.06-.386-.078-.453-.306l-.012-.05-3.669-1.965a.562.562 0 01-.23.188v9.794a.566.566 0 01.324.641l1.49 1.518a.473.473 0 01.242-.034l2.25-3.976a.45.45 0 01-.021-.428c.095-.218.315-.331.49-.254zm.004.475c.038-.088.011-.183-.059-.214-.07-.03-.158.015-.196.102-.038.087-.012.182.059.214.07.03.157-.015.196-.102zm-2.665 4.792c.08-.08.094-.198.031-.264s-.179-.055-.26.024c-.08.08-.094.199-.031.265s.18.055.26-.025zm-.629-.25l.011-.024-1.429-1.454a.54.54 0 01-.285.082.551.551 0 01-.499-.32H18.9a.566.566 0 01-.23.248l.187 2.707c.074.032.14.078.19.135zm-4.168 2.786l3.467-2.076-3.16 1.092a.52.52 0 01-.313.351l-.096.564a.44.44 0 01.102.069zm-.325.538c.11-.02.185-.11.169-.202-.016-.09-.12-.148-.23-.126-.109.02-.185.11-.169.201.017.091.12.148.23.127zm-.504-.398a.53.53 0 01.292-.23l.091-.535a.557.557 0 01-.213-.142l-3.978.642zm-3.721-4.336l-1.294 3.817 5.016-.81-3.549-3.08a.554.554 0 01-.173.073zm-1.665 3.555l1.234-3.639a.559.559 0 01-.188-.223h-2.256a.697.697 0 01-.047.08zm-.153.735c.11.024.214-.03.232-.12.02-.09-.053-.183-.163-.208-.11-.023-.214.03-.233.12-.019.092.054.184.164.208zM8.397 22.96l3.805 2.746L11 22.09a.55.55 0 01-.473-.17l-2.123.925a.44.44 0 01-.006.115zm-.356-.598a.634.634 0 01.15.093l2.183-.95a.576.576 0 01.1-.302l-3.376-3.489zm-.023.609c.06-.068.04-.186-.043-.262-.084-.075-.2-.081-.26-.012-.06.07-.042.188.042.263.084.075.201.08.26.011zm-1.79-4.333l1.162 2.693-.779-3.838-.307.654a.574.574 0 01-.076.491zm-.028-4.34l-.14 3.352.278-.59a.558.558 0 01.023-.56zM6 11.647c-.038.108.003.22.088.251.086.03.184-.032.221-.14.037-.108-.002-.22-.088-.251-.086-.03-.184.032-.222.14zm.844 5.153c0-.114-.083-.206-.183-.206-.101 0-.184.092-.184.206 0 .115.083.207.184.207.1 0 .183-.092.183-.207zm-.23-4.886a.6.6 0 01-.137.227l.29 3.99 1.78-5.629-1.905 1.293a.654.654 0 01-.028.119zM9.64 8.329l-2.434 2.55 1.247-.846a.597.597 0 01.142-.307.57.57 0 01.302-.187zm1.254-1.207L9.307 9.704a.416.416 0 01.048.233l1.175.361a.546.546 0 01.897.148h1.967a.557.557 0 01.39-.31l1.069-2.274a.573.573 0 01-.11-.259l-3.268-.724a.572.572 0 01-.308.224.584.584 0 01-.273.02zm.058-.653c-.107.033-.172.132-.146.22.027.089.135.133.241.1.107-.033.173-.132.146-.22-.026-.089-.133-.134-.241-.1zm6.248-.764l-4.932.898 2.58.571a.548.548 0 01.625-.193zm.605.097l-1.839 1.36 5.045.14.011-.038-2.674-1.524a.545.545 0 01-.428.095.59.59 0 01-.115-.033zm.238-.619c-.11-.02-.213.038-.228.13-.015.09.06.18.171.2.11.02.212-.038.228-.13.016-.09-.061-.18-.171-.2zm3.233 2.725a.62.62 0 01-.175-.162L15.838 7.6a.489.489 0 01-.021.092l2.124 2.449a.555.555 0 01.62.306h2.257a.562.562 0 01.266-.268zm.04 2.558c-.121 0-.22.102-.22.227s.099.226.22.226c.123 0 .223-.101.223-.226s-.1-.227-.222-.227zm.099-3.2c-.055.096-.014.226.092.288.105.064.236.037.29-.06.056-.096.015-.225-.091-.288-.106-.063-.236-.036-.291.06zm3.915 5.318l-3.627-4.587-.183 2.169a.566.566 0 01.35.48zm-2.293-3.997l-.814-.546 2.627 3.42-1.278-2.287a.58.58 0 01-.296-.109c-.17-.121-.26-.31-.24-.478zm.38-.057c-.052.076-.02.19.072.256.091.065.208.057.26-.02.052-.075.02-.19-.071-.255-.093-.065-.209-.057-.26.02zm-5.57 2.163c0 .122.095.221.216.221a.22.22 0 00.217-.221.22.22 0 00-.217-.222.22.22 0 00-.217.222zm.119 4.773a.224.224 0 00-.222.226c0 .125.1.227.222.227a.224.224 0 00.221-.227.223.223 0 00-.221-.226zm-2.897-8.024c0 .125.099.226.221.226a.224.224 0 00.222-.226c0-.125-.1-.227-.222-.227a.224.224 0 00-.221.227zm.162.637l-1.014 2.155a.568.568 0 01.153.746l3.38 4.19a.56.56 0 01.096-.03v-3.926a.566.566 0 01-.257-.814l-2.06-2.374a.553.553 0 01-.298.053zm-1.56 2.614c0 .125.1.226.222.226.121 0 .221-.101.221-.226s-.1-.227-.221-.227a.225.225 0 00-.222.227zm-2.96 0c0 .122.096.221.216.221s.217-.099.217-.221c0-.123-.097-.222-.217-.222s-.216.1-.216.222zm.216 10.61a.223.223 0 00-.22.226c0 .125.098.226.22.226a.224.224 0 00.222-.226.223.223 0 00-.222-.226zM8.731 9.843c-.073.086-.079.205-.01.266.067.06.182.042.256-.045.074-.085.079-.204.011-.265-.068-.062-.182-.042-.257.044zm-1.625 6.659a.555.555 0 01.085.298c0 .11-.03.212-.082.295l3.602 3.722v-9.603a.565.565 0 01-.337-.501l-1.222-.375a.579.579 0 01-.126.087zm11.294 4.46c.239 0 .442.155.52.37h1.878a.56.56 0 01.302-.324v-9.794a.559.559 0 01-.302-.324h-2.216a.565.565 0 01-.302.324v4.01a.57.57 0 01.24.468.561.561 0 01-.554.567.56.56 0 01-.554-.567c0-.07.012-.137.036-.2l-3.428-4.248a.555.555 0 01-.647-.354h-1.926a.565.565 0 01-.303.324v9.794c.14.06.249.178.303.324h2.215a.565.565 0 01.303-.324v-4.07a.568.568 0 01-.266-.482.56.56 0 01.555-.567.56.56 0 01.52.763l3.483 4.33a.59.59 0 01.143-.02zm.24 4.047c-.12 0-.22.09-.22.202s.1.201.22.201c.123 0 .223-.09.223-.2s-.1-.203-.222-.203zm-.461-3.48c0 .125.099.226.22.226a.224.224 0 00.223-.226.224.224 0 00-.222-.226.224.224 0 00-.221.226zm-4.147-5.073c0 .125.1.226.222.226s.221-.101.221-.226c0-.126-.099-.226-.221-.226s-.222.1-.222.226zm.15 4.847a.224.224 0 00-.222.226c0 .125.1.226.222.226s.221-.101.221-.226a.223.223 0 00-.221-.226zm.216-.295a.566.566 0 01.326.637l3.593 3.117a.575.575 0 01.103-.047l-.184-2.644a.567.567 0 01-.39-.542c0-.1.025-.193.07-.273l-3.443-4.28a.495.495 0 01-.075.026zm7.14.52a.223.223 0 00-.221-.225.224.224 0 00-.222.226c0 .125.1.226.222.226s.222-.101.222-.226zm-15.71-3.021c.09-.015.147-.119.128-.231-.02-.113-.107-.192-.196-.176-.09.015-.146.12-.127.232.018.113.106.192.195.175zM25.8 12.793c-.072.023-.11.117-.083.208.027.091.108.146.18.123.074-.023.11-.117.084-.208-.026-.092-.108-.146-.18-.123z" fill="#fff"/></g></svg>