<svg height="32" viewBox="0 0 32 32" width="32" xmlns="http://www.w3.org/2000/svg"><g fill="none" fill-rule="evenodd"><circle cx="16" cy="16" fill="#622fba" fill-rule="nonzero" r="16"/><path d="m18.5862069 17.375694c-.08718.0270416-.171688.0601336-.2530304.0987838l-3.6757152-3.8215945c.1630209-.2809151.2563318-.6071127.2563318-.9550505 0-.8755544-.5908747-1.6134435-1.3965517-1.838524v-2.67344183l-.9837488-.54953843 2.2720565-1.31557944c.7385948-.42766547 1.650307-.42766547 2.3889018 0l4.5185965 2.61638412-1.7859971 1.03294025c-.2360992-.10392689-.4972324-.16163696-.7718779-.16163696-1.0569587 0-1.9137931.85471769-1.9137931 1.90906539 0 .8567081.5657114 1.5816137 1.3448276 1.8232804zm1.137931 0v-3.8349117c.7791163-.2416667 1.3448276-.9665723 1.3448276-1.8232804 0-.3456043-.0920635-.6697591-.2530613-.9493925l2.0308313-1.17454142.9684051.56073152c.7334574.4246908 1.1848594 1.2067123 1.1848594 2.0526836v7.5860338c0 .8459713-.451402 1.6279928-1.1848594 2.0526836l-4.0910027 2.3687962v-3.1922418c.7791163-.2416668 1.3448276-.9665723 1.3448276-1.8232804s-.5657113-1.5816137-1.3448276-1.8232805zm-2.2269716.8691694c-.162684.2807028-.255787.6065611-.255787.9541111 0 .8567081.5657114 1.5816136 1.3448276 1.8232804v3.8511333l-1.391756.8058627c-.7385948.4276655-1.650307.4276655-2.3889018 0l-4.86406816-2.8164212 1.82761246-1.428047c.3327483.2790868.7621461.4472026 1.2309066.4472026 1.0569587 0 1.9137931-.8547177 1.9137931-1.9090654 0-.8755544-.5908747-1.6134435-1.3965517-1.838524v-3.5980391c.1051943-.0293879.2067268-.067518.3037603-.1135552zm-5.117856-.0783655c-.7523048.2571565-1.2931034.9687901-1.2931034 1.806422 0 .173525.0232088.3416427.0666989.5014327l-2.27133638 1.774761-.69670999-.4034131c-.73345739-.4246908-1.18485943-1.2067123-1.18485943-2.0526836v-7.5860338c0-.8459713.45140204-1.6279928 1.18485943-2.0526836l3.20505057-1.85580707.9894003.55269549v2.04022288c-.7523048.2571565-1.2931034.9687901-1.2931034 1.806422s.5407986 1.5492655 1.2931034 1.806422zm.6206897-4.6431233c-.4570632 0-.8275862-.3696077-.8275862-.8255418s.370523-.8255418.8275862-.8255418.8275862.3696077.8275862.8255418-.370523.8255418-.8275862.8255418zm0 7.2750871c-.4570632 0-.8275862-.3696076-.8275862-.8255418 0-.4559341.370523-.8255418.8275862-.8255418s.8275862.3696077.8275862.8255418c0 .4559342-.370523.8255418-.8275862.8255418zm6.1551724-8.255418c-.4570632 0-.8275862-.3696076-.8275862-.8255418 0-.4559341.370523-.8255418.8275862-.8255418.4570633 0 .8275862.3696077.8275862.8255418 0 .4559342-.3705229.8255418-.8275862.8255418zm0 7.4814726c-.4570632 0-.8275862-.3696077-.8275862-.8255418 0-.4559342.370523-.8255418.8275862-.8255418.4570633 0 .8275862.3696076.8275862.8255418 0 .4559341-.3705229.8255418-.8275862.8255418z" fill="#fff"/></g></svg>