<svg width="32" height="33" viewBox="0 0 32 33" fill="none" xmlns="http://www.w3.org/2000/svg">
<g clip-path="url(#clip0)">
<path d="M16 32.7834C24.8365 32.7834 32 25.62 32 16.7834C32 7.94689 24.8365 0.783447 16 0.783447C7.16345 0.783447 0 7.94689 0 16.7834C0 25.62 7.16345 32.7834 16 32.7834Z" fill="white"/>
<path d="M22.0528 7.79872L17.8722 14.0057C17.8127 14.0951 17.7875 14.203 17.8014 14.3095C17.8153 14.416 17.8673 14.5139 17.9477 14.585C18.0282 14.6562 18.1317 14.6958 18.2391 14.6965C18.3465 14.6972 18.4505 14.659 18.5319 14.589L22.6472 11.0196C22.6713 10.998 22.7012 10.9839 22.7332 10.979C22.7652 10.9741 22.7979 10.9787 22.8274 10.9921C22.8568 11.0055 22.8817 11.0272 22.8991 11.0545C22.9164 11.0818 22.9254 11.1136 22.925 11.1459V22.3209C22.925 22.3552 22.9144 22.3885 22.8948 22.4166C22.8752 22.4446 22.8474 22.4659 22.8152 22.4775C22.7831 22.4892 22.7481 22.4907 22.7151 22.4818C22.682 22.473 22.6525 22.4541 22.6306 22.4279L10.1917 7.53761C9.99159 7.30136 9.74246 7.11151 9.4616 6.98127C9.18073 6.85103 8.87487 6.78353 8.56528 6.78345H8.13056C7.5655 6.78345 7.02358 7.00792 6.62403 7.40747C6.22447 7.80703 6 8.34894 6 8.914V24.6529C6 25.218 6.22447 25.7599 6.62403 26.1594C7.02358 26.559 7.5655 26.7834 8.13056 26.7834C8.49488 26.7835 8.85316 26.6903 9.17119 26.5125C9.48922 26.3348 9.7564 26.0785 9.94722 25.7682L14.1278 19.5612C14.1873 19.4718 14.2125 19.3639 14.1986 19.2574C14.1847 19.1509 14.1327 19.053 14.0523 18.9819C13.9718 18.9107 13.8683 18.8711 13.7609 18.8704C13.6535 18.8697 13.5495 18.9079 13.4681 18.9779L9.35278 22.5473C9.32866 22.5689 9.29878 22.583 9.26679 22.5879C9.2348 22.5928 9.20208 22.5882 9.17263 22.5748C9.14317 22.5614 9.11826 22.5397 9.10092 22.5124C9.08358 22.4851 9.07458 22.4533 9.075 22.4209V11.2432C9.07501 11.209 9.08555 11.1756 9.10519 11.1476C9.12483 11.1196 9.15261 11.0983 9.18477 11.0866C9.21693 11.0749 9.2519 11.0734 9.28494 11.0823C9.31797 11.0912 9.34748 11.11 9.36944 11.1362L21.8069 26.0293C22.007 26.2655 22.2562 26.4554 22.537 26.5856C22.8179 26.7159 23.1237 26.7834 23.4333 26.7834H23.8681C24.148 26.7836 24.4252 26.7287 24.6838 26.6217C24.9425 26.5147 25.1775 26.3578 25.3755 26.1599C25.5735 25.9621 25.7305 25.7271 25.8377 25.4685C25.9448 25.21 26 24.9328 26 24.6529V8.914C26 8.34894 25.7755 7.80703 25.376 7.40747C24.9764 7.00792 24.4345 6.78345 23.8694 6.78345C23.5051 6.78335 23.1468 6.87662 22.8288 7.05436C22.5108 7.2321 22.2436 7.48837 22.0528 7.79872Z" fill="black"/>
</g>
<defs>
<clipPath id="clip0">
<rect width="32" height="32" fill="white" transform="translate(0 0.783447)"/>
</clipPath>
</defs>
</svg>
