<svg height="32" viewBox="0 0 32 32" width="32" xmlns="http://www.w3.org/2000/svg"><g fill="none"><circle cx="16" cy="16" fill="#b3ba00" r="16"/><g fill="#fff" transform="translate(4 4)"><path d="m9.12920592 6.66379928-.12920592.07885305 6 9.25734767v-9.26523297l-2.9959623-1.73476703z"/><path d="m9 17.1653137 3.1361761 1.8346863 2.8638239-1.6723247-6-9.3276753z"/><path d="m6 8.35578584v7.28842836l2 1.3557858v-10z"/><path d="m16 17 2-1.3869863v-7.2260274l-2-1.3869863z"/><path d="m12 0c-6.62465753 0-12 5.37534247-12 12 0 6.6246575 5.37534247 12 12 12 6.6246575 0 12-5.3753425 12-12 0-6.62465753-5.3753425-12-12-12zm-.0493151 19.6191781-6.4767123-3.8383562v-7.66849313l6.4767123-3.83013699 6.4767124 3.83013699v7.66849313z"/></g></g></svg>