<svg width="32" height="32" viewBox="0 0 32 32" fill="none" xmlns="http://www.w3.org/2000/svg">
<g clip-path="url(#clip0)">
<path d="M16 32.4556C24.8365 32.4556 32 25.2921 32 16.4556C32 7.61901 24.8365 0.455566 16 0.455566C7.16345 0.455566 0 7.61901 0 16.4556C0 25.2921 7.16345 32.4556 16 32.4556Z" fill="white"/>
<path d="M10.709 6.12453L21.4956 12.3493V18.6985L5 9.17465L10.2866 6.12453C10.3515 6.0895 10.424 6.07117 10.4978 6.07117C10.5715 6.07117 10.6441 6.0895 10.709 6.12453Z" fill="#3CA9E5"/>
<path d="M21.4955 6L15.9955 9.17462L21.4955 12.3492V6Z" fill="#2853C3"/>
<path d="M21.4955 6L26.7866 9.05012C26.8502 9.08883 26.9031 9.14291 26.9404 9.2074C26.9777 9.27188 26.9982 9.34469 27 9.41916V21.8686L21.4955 18.6985V6Z" fill="#1A4199"/>
<path d="M26.9955 21.8731L21.709 24.9232C21.6414 24.9622 21.5647 24.9828 21.4867 24.9828C21.4086 24.9828 21.3319 24.9622 21.2643 24.9232L10.4822 18.6985V12.3403L26.9955 21.8731Z" fill="#2853C3"/>
<path d="M5.00001 9.17456V21.624C4.99956 21.7008 5.01898 21.7763 5.05638 21.8433C5.09378 21.9103 5.14788 21.9665 5.21343 22.0064L10.5 25.0565V12.3403L5.00001 9.17456Z" fill="#60BEFF"/>
<path d="M10.5 25.0477L15.9956 21.8731L10.5 18.6985V25.0477Z" fill="#3CA9E5"/>
</g>
<defs>
<clipPath id="clip0">
<rect width="32" height="32" fill="white"/>
</clipPath>
</defs>
</svg>
