<svg height="32" viewBox="0 0 32 32" width="32" xmlns="http://www.w3.org/2000/svg"><g fill="none" fill-rule="evenodd"><circle cx="16" cy="16" fill="#f80000" r="16"/><path d="m20.5 16.8417508-6.6960352 9.1582492.246696-7.4410774h-1.5506608l.6343612-6.5319866 7.0837005-.9764309-2.3259912 5.9259259zm-5.4977974 6.4983165v-1.7508417c0-.1301681-.1104495-.2356902-.246696-.2356902s-.246696.1055221-.246696.2356902v1.7508417c0 .1301682.1104495.2356903.246696.2356903s.246696-.1055221.246696-.2356903zm-1.8325991-5.2861952h1.4096917l-.064141 2.6936026c-.0015134.0708221.0268302.1392536.0786585.1899094s.1227918.079285.1969362.0794509h.0119824c.1500316.00003.272525-.1146042.2755947-.2579124l.0648458-3.176431h-1.4096916l.4722467-5.2195286c.0055359-.060403-.0157365-.1202503-.0586278-.1649417s-.1034574-.0701174-.1669229-.0700752h-.0401762c-.1169926.0002081-.2146509.0853457-.2255507.196633zm0-6.5993266 2.6079295-2.1548822c.1409692-2.15488216-1.2687224-2.49158249-1.2687224-2.49158249l.2114537-.80808081c2.3259912.67340067 1.9735683 3.23232323 1.9735683 3.23232323l3.3832599 1.41414137z" fill="#fff" fill-rule="nonzero"/></g></svg>