<svg xmlns="http://www.w3.org/2000/svg" width="32" height="32"><g fill="none" fill-rule="evenodd"><circle cx="16" cy="16" r="16" fill="#186C9D"/><path fill="#FFF" fill-rule="nonzero" d="M19.261 23.5l.001-.002c.146.003.3-.012.458-.05.876-.205 1.617-.97 1.793-1.796L25 8.556l-2.772-.014-2.286 8.568-6.18-8.597-.004.004.003-.01L12.74 8.5v.001c-.147-.002-.3.012-.459.049-.875.206-1.616.971-1.793 1.796L7 23.445l2.773.012 2.285-8.568 6.18 8.598h.003l1.02.013zm-6.593-10.894l.483-1.81 6.181 8.599-.483 1.81-6.18-8.6z"/></g></svg>