<svg width="32" height="32" viewBox="0 0 32 32" fill="none" xmlns="http://www.w3.org/2000/svg">
<path d="M16 32C24.8366 32 32 24.8366 32 16C32 7.16344 24.8366 0 16 0C7.16344 0 0 7.16344 0 16C0 24.8366 7.16344 32 16 32Z" fill="black"/>
<path fill-rule="evenodd" clip-rule="evenodd" d="M15.3525 4.71292C15.7386 4.42903 16.2614 4.42903 16.6475 4.71292L25.5465 11.2578C25.8314 11.4673 26 11.8021 26 12.1584V19.6988C26 20.0551 25.8314 20.3898 25.5465 20.5994L16.6475 27.1442C16.2614 27.4281 15.7386 27.4281 15.3526 27.1442L6.45347 20.5994C6.16857 20.3898 6 20.0551 6 19.6988V12.1584C6 11.8021 6.16857 11.4673 6.45347 11.2578L15.3525 4.71292ZM6.77982 13.4464H8.24878L7.72705 13.8125L7.98855 14.1937L9.71452 12.9824H6.77982V13.4464ZM10.0138 11.7761H8.04128V11.3122H10.0138V11.7761ZM11.0688 9.34032H11.544L10.6244 9.93346L10.871 10.3247L13.1165 8.87636H11.0688V9.34032ZM12.5536 10.1669L12.5596 9.5491L13.4343 10.6498L14.3297 9.5491V10.1699L13.4281 11.4642L12.5536 10.1669ZM10.4266 11.7761H10.7477V11.3122H10.4266V11.7761ZM15.8676 8.91819L15.3401 7.94387L15.7425 7.72102L16.27 8.69534L15.8676 8.91819ZM15.0138 9.10834V9.5491H15.4725V9.10834H15.0138ZM18.8952 10.4845L18.5176 10.7479L17.5596 9.34296V11.057H17.1009V7.853L18.8952 10.4845ZM17.9495 8.06443H19.1422V7.60047H17.9495V8.06443ZM19.3716 9.20113H19.0046V8.73717H19.3716V9.20113ZM19.6468 10.0827H21.7798V9.6187H19.6468V10.0827ZM15.656 11.9385V10.245H16.1147V12.4025H14.1422V11.6833H14.6009V11.9385H15.656ZM12.1009 11.3586V11.9849H12.5596V11.3586H12.1009ZM11.4223 12.3956H12.2156L10.8318 13.3573L12.2156 14.1937H11.4223L10.0214 13.3499L11.4223 12.3956ZM8.93578 15.279V16.7637H9.3945V15.279H8.93578ZM7.8578 16.1606H7.42202V15.6966H7.8578V16.1606ZM7.58257 17.9468V17.4828H6.75688V19.4779H8.88991V19.0139H7.2156V17.9468H7.58257ZM12.0685 16.4888L11.6288 16.621L11.1729 15.0702H11.0313L10.5539 16.6238L10.1158 16.4861L10.6935 14.6063H11.5151L12.0685 16.4888ZM9.83028 17.8308H11.8486V17.3669H9.83028V17.8308ZM9.73182 19.1668V18.3644L10.636 19.6936L11.5553 18.3644V19.1696L10.63 20.5148L9.73182 19.1668ZM9.34862 21.7513H10.4954V21.2873H9.34862V21.7513ZM13.1025 20.1167L13.347 20.5093L12.3447 21.1481H13.9817V21.6121H10.7563L13.1025 20.1167ZM12.078 23.5839H13.867V23.12H12.078V23.5839ZM14.3069 25.4564L13.7794 24.4589L14.1839 24.2401L14.7114 25.2376L14.3069 25.4564ZM14.3716 22.7488H16.1147V23.7927H15.7706V24.2567H16.5734V22.2848H14.3716V22.7488ZM19.5238 22.5994L19.7698 22.991L18.7385 23.6535H19.2339V24.1175H17.1606L19.5238 22.5994ZM15.7706 25.347V26.3677H16.2294V25.347H15.7706ZM16.8716 25.347V24.8598H17.3303V25.347H16.8716ZM16.0513 20.4248L16.5559 21.3527L16.9578 21.1291L16.4533 20.2012L16.0513 20.4248ZM14.8073 21.5193V19.849H15.2661V21.5193H14.8073ZM14.578 18.4108V17.622L12.9954 15.1906V18.4108H13.4541V16.6665L14.578 18.4108ZM15.0826 17.2277V16.1142H15.5413V17.2277H15.0826ZM14.9679 14.9543H16.6422V16.0446H16.344V16.5085H17.1009V14.4903H14.9679V14.9543ZM15.4266 13.9103H13.4312V13.4464H15.4266V13.9103ZM12.422 14.9543H13.4312V14.4903H12.422V14.9543ZM16.344 13.9103H16V13.4464H16.344V13.9103ZM17.1009 12.0545V13.5392H17.5596V12.0545H17.1009ZM19.1422 12.6808H18.7064V12.2169H19.1422V12.6808ZM21.6516 12.9786L22.0915 12.847L21.5613 11.0338H20.6452L20.1149 12.847L20.5548 12.9786L20.9879 11.4977H21.2186L21.6516 12.9786ZM18.867 13.7712V14.2351H18.5688V15.3022H20.2202V15.7662H18.1101V13.7712H18.867ZM17.1009 17.4596H17.5138V16.9957H17.1009V17.4596ZM18.3394 17.0885H17.9495V16.6245H18.3394V17.0885ZM20.8165 16.6245H19.4633V17.0885H20.8165V16.6245ZM20.7248 14.4439H20.3349V13.9799H20.7248V14.4439ZM21.8716 14.4439H23.867V13.9799H21.8716V14.4439ZM22.9037 12.1705V10.709H23.3624V12.1705H22.9037ZM22.9037 13.4H23.3165V12.936H22.9037V13.4ZM24.6052 12.7441L24.1007 11.793L24.5049 11.5736L25.0094 12.5248L24.6052 12.7441ZM24.7615 17.6452H25.2202V15.2094H23.2936V16.0214H23.7523V15.6734H24.7615V17.6452ZM23.7422 17.8218L23.9918 18.211L22.9448 18.8979H24.578V19.3619H21.3947L23.7422 17.8218ZM21.367 16.8565V18.2948H21.8257V16.8565H21.367ZM20.7706 19.5243H20.3119V18.2484H19.2339V18.6195H18.7752V17.7844H20.7706V19.5243ZM19.364 22.0169L18.8831 20.1738H18.0298L17.5 22.0111L17.9404 22.141L18.3739 20.6378H18.5297L18.9204 22.1352L19.364 22.0169ZM20.2406 21.3766L20.6127 21.1053L21.1406 21.8459L21.6876 21.1024L22.0556 21.3794L21.1347 22.631L20.2406 21.3766ZM22.5367 20.9394H22.9037V20.4754H22.5367V20.9394ZM16.9174 7.67006H16.4587V6.48696H15.4266V6.81173H14.9679V6.023H16.9174V7.67006ZM14.2569 8.92276V6.83493H13.7982V8.92276H14.2569ZM17.4106 17.8922L17.6628 18.2798L16.5595 19.0139H18.3394V19.4779H15.0276L17.4106 17.8922ZM12.6284 19.4779H13.0872V19.0139H12.6284V19.4779ZM11.5505 22.9112H11.1606V22.4472H11.5505V22.9112Z" fill="white"/>
</svg>
