<svg width="32" height="32" viewBox="0 0 32 32" xmlns="http://www.w3.org/2000/svg"><g fill="none"><circle fill="#EEC315" cx="16" cy="16" r="16"/><g fill="#FFF"><path d="M18.99 8.185a.684.684 0 00-.684-.685h-5.174l.008.01H8.147C7.513 7.51 7 8.024 7 8.658v14.684c0 .634.513 1.148 1.147 1.148h1.855c.634 0 1.147-.514 1.147-1.148V12.618c0-1.016 1.222-1.531 1.948-.821l3.975 3.886c.659.644 1.725.28 1.918-.55.02-.086.03-.176.03-.271l-.03-6.677z"/><path d="M23.965 7.51h-2.08c-.57 0-1.034.464-1.034 1.036v11.102c0 .917-1.103 1.382-1.758.74l-4.355-4.257c-.656-.64-1.758-.176-1.758.741v2.364c0 .036.002.072.005.108l-.005-.005v4.224c0 .518.419.937.936.937h5.74l-.014-.01h4.323c.572 0 1.035-.464 1.035-1.036V8.546c0-.572-.463-1.036-1.035-1.036z"/></g></g></svg>