<?xml version="1.0" encoding="utf-8"?>
<!-- Generator: Adobe Illustrator 24.0.0, SVG Export Plug-In . SVG Version: 6.00 Build 0)  -->
<svg version="1.1" id="Layer_1" xmlns="http://www.w3.org/2000/svg" xmlns:xlink="http://www.w3.org/1999/xlink" x="0px" y="0px"
	 viewBox="0 0 579 374" style="enable-background:new 0 0 579 374;" xml:space="preserve">
<style type="text/css">
	.st0{fill:#1E65F3;}
</style>
<path class="st0" d="M442.8,0.2l-48.3,22.9c-0.2,0.1-0.5,0.3-0.6,0.5c-0.2,0.2-0.3,0.4-0.4,0.7c-0.1,0.3-0.1,0.5-0.1,0.8
	c0,0.3,0.1,0.5,0.2,0.8l73.4,154.7c27.3,57.6,20,101.2-21.5,121c-33.6,15.9-62.5,4.8-85.1-34L273.4,84.3
	c-35.2-74.3-83.2-94-140.2-66.9c-37,17.6-58.5,49-58.1,88.9c0,0.5-0.1,0.9-0.4,1.3c-0.3,0.4-0.7,0.6-1.2,0.7
	c-0.5,0.1-0.9,0.1-1.4-0.1c-0.4-0.2-0.8-0.5-1-1l-19-40c-0.1-0.2-0.3-0.5-0.5-0.6c-0.2-0.2-0.4-0.3-0.7-0.4C50.7,66,50.5,66,50.2,66
	c-0.3,0-0.5,0.1-0.8,0.2L1.2,89.1c-0.5,0.2-0.9,0.6-1,1.2c-0.2,0.5-0.2,1.1,0.1,1.6l133.3,281.1c0.2,0.5,0.7,0.9,1.2,1.1
	c0.5,0.2,1.1,0.2,1.6-0.1l48.3-22.9c0.2-0.1,0.5-0.3,0.6-0.5c0.2-0.2,0.3-0.4,0.4-0.7c0.1-0.3,0.1-0.5,0.1-0.8
	c0-0.3-0.1-0.5-0.2-0.8l-71.4-150.4C85.1,136.5,90.6,92.1,135.1,71c34.2-16.2,60.8-5.3,84.7,36.3c0,0,0.1,0.1,0.1,0.2l86.1,181.4
	c33.2,70,84.8,94,139.2,68.2c42.1-20,59.6-50,58.5-89.6c0-0.5,0.1-0.9,0.4-1.3c0.3-0.4,0.7-0.6,1.2-0.7c0.5-0.1,0.9-0.1,1.4,0.1
	c0.4,0.2,0.8,0.5,1,1l19.2,40.4c0.1,0.2,0.3,0.5,0.5,0.6c0.2,0.2,0.4,0.3,0.7,0.4c0.3,0.1,0.5,0.1,0.8,0.1c0.3,0,0.5-0.1,0.8-0.2
	l48.3-22.9c0.2-0.1,0.5-0.3,0.6-0.5c0.2-0.2,0.3-0.4,0.4-0.7c0.1-0.3,0.1-0.5,0.1-0.8s-0.1-0.5-0.2-0.8L445.5,1.2
	c-0.2-0.5-0.7-0.9-1.2-1.1C443.8-0.1,443.2,0,442.8,0.2z"/>
</svg>
