<?xml version="1.0" encoding="utf-8"?>
<!-- Generator: Adobe Illustrator 26.0.1, SVG Export Plug-In . SVG Version: 6.00 Build 0)  -->
<svg version="1.1" id="Layer_1" xmlns="http://www.w3.org/2000/svg" xmlns:xlink="http://www.w3.org/1999/xlink" x="0px" y="0px"
	 viewBox="0 0 200 200" style="enable-background:new 0 0 200 200;" xml:space="preserve">
<style type="text/css">
	.st0{fill:#141521;}
	.st1{fill:#FFFFFF;}
</style>
<g>
	<path class="st0" d="M170.7,29.3C131.7-9.8,68.3-9.8,29.3,29.3c-39.1,39.1-39.1,102.4,0,141.4c39.1,39.1,102.4,39.1,141.4,0
		C209.8,131.7,209.8,68.3,170.7,29.3z M162.1,162.1c-34.3,34.3-90,34.3-124.3,0c-34.3-34.3-34.3-90,0-124.3
		c34.3-34.3,90-34.3,124.3,0C196.5,72.2,196.5,127.8,162.1,162.1z"/>
	<path class="st1" d="M162.1,37.9c-34.3-34.3-90-34.3-124.3,0c-34.3,34.3-34.3,90,0,124.3c34.3,34.3,90,34.3,124.3,0
		C196.5,127.8,196.5,72.2,162.1,37.9z M63,170.7c-6.2-3.3-11.9-7.5-16.9-12.3V41.7c5.2-5,11.1-9.2,17.5-12.6L137,140.9V29.3
		c6.2,3.3,11.9,7.5,16.9,12.3v116.7c-5.2,5-11.1,9.2-17.5,12.6L63,59.1V170.7z"/>
	<path class="st0" d="M154,158.3V41.7c-5.1-4.8-10.8-9-16.9-12.3v111.5L63.5,29c-6.4,3.4-12.3,7.6-17.5,12.6v116.7
		c5.1,4.8,10.8,9,16.9,12.3V59.1L136.5,171C142.9,167.6,148.8,163.3,154,158.3z"/>
</g>
</svg>
