<svg width="33" height="33" viewBox="0 0 33 33" fill="none" xmlns="http://www.w3.org/2000/svg">
<g clip-path="url(#clip0)">
<path d="M16.222 32.9373C25.0585 32.9373 32.222 25.7738 32.222 16.9373C32.222 8.1007 25.0585 0.937256 16.222 0.937256C7.38543 0.937256 0.221985 8.1007 0.221985 16.9373C0.221985 25.7738 7.38543 32.9373 16.222 32.9373Z" fill="#EFF2F5"/>
<path d="M8.47508 16.5471C8.47519 16.7661 8.4096 16.9802 8.28662 17.1623C8.16363 17.3445 7.98876 17.4864 7.78414 17.5703C7.57951 17.6542 7.35432 17.6762 7.13705 17.6335C6.91977 17.5909 6.72017 17.4855 6.56349 17.3307C6.40682 17.1759 6.3001 16.9786 6.25684 16.7639C6.21359 16.5491 6.23573 16.3265 6.32048 16.1242C6.40522 15.9219 6.54876 15.7489 6.73294 15.6273C6.91712 15.5056 7.13366 15.4407 7.35518 15.4407C7.6521 15.4407 7.93686 15.5572 8.14687 15.7647C8.35687 15.9722 8.47493 16.2536 8.47508 16.5471ZM26.2686 16.5471C26.2687 16.7661 26.2031 16.9803 26.0801 17.1624C25.9571 17.3445 25.7822 17.4865 25.5775 17.5704C25.3728 17.6542 25.1476 17.6762 24.9303 17.6335C24.713 17.5908 24.5134 17.4853 24.3568 17.3305C24.2001 17.1756 24.0935 16.9783 24.0503 16.7635C24.0071 16.5487 24.0293 16.3261 24.1141 16.1238C24.199 15.9215 24.3426 15.7486 24.5268 15.627C24.7111 15.5054 24.9277 15.4405 25.1492 15.4407C25.4457 15.4414 25.7297 15.5583 25.9391 15.7657C26.1485 15.9731 26.2662 16.2541 26.2663 16.5471H26.2686ZM17.3721 20.9144C17.3722 21.1334 17.3066 21.3475 17.1836 21.5297C17.0606 21.7118 16.8857 21.8538 16.681 21.9376C16.4764 22.0215 16.2512 22.0435 16.0339 22.0008C15.8166 21.9581 15.617 21.8526 15.4603 21.6978C15.3037 21.5429 15.197 21.3456 15.1538 21.1308C15.1106 20.916 15.1328 20.6934 15.2177 20.4911C15.3025 20.2888 15.4461 20.1159 15.6304 19.9943C15.8146 19.8727 16.0312 19.8078 16.2528 19.8079C16.5496 19.8081 16.8342 19.9247 17.0441 20.1322C17.254 20.3397 17.372 20.621 17.3721 20.9144ZM12.8931 18.7584C12.8931 18.9774 12.8274 19.1914 12.7043 19.3735C12.5813 19.5555 12.4064 19.6974 12.2018 19.7812C11.9971 19.865 11.7719 19.8869 11.5547 19.8442C11.3375 19.8015 11.1379 19.696 10.9813 19.5412C10.8247 19.3864 10.718 19.1891 10.6748 18.9744C10.6316 18.7597 10.6538 18.5371 10.7385 18.3348C10.8233 18.1325 10.9668 17.9596 11.151 17.838C11.3352 17.7163 11.5517 17.6514 11.7732 17.6514C12.0702 17.6514 12.355 17.768 12.5651 17.9756C12.7751 18.1832 12.8931 18.4648 12.8931 18.7584ZM21.7901 18.7584C21.7907 18.9776 21.7254 19.192 21.6026 19.3745C21.4798 19.5569 21.3049 19.6992 21.1002 19.7834C20.8955 19.8676 20.6701 19.8897 20.4526 19.8472C20.2351 19.8046 20.0353 19.6991 19.8785 19.5442C19.7217 19.3893 19.615 19.1918 19.5718 18.9768C19.5286 18.7619 19.5509 18.5391 19.6359 18.3367C19.721 18.1343 19.8649 17.9614 20.0494 17.8399C20.2339 17.7184 20.4508 17.6537 20.6725 17.6542C20.9686 17.6548 21.2525 17.7713 21.4619 17.9782C21.6714 18.1852 21.7894 18.4657 21.7901 18.7584ZM8.11176 19.8979C8.11165 20.0458 8.06717 20.1903 7.98394 20.3133C7.90071 20.4362 7.78248 20.532 7.64419 20.5885C7.5059 20.645 7.35377 20.6597 7.20702 20.6307C7.06028 20.6018 6.92553 20.5304 6.8198 20.4257C6.71407 20.3211 6.64211 20.1878 6.61303 20.0427C6.58394 19.8976 6.59904 19.7472 6.65641 19.6106C6.71377 19.474 6.81084 19.3572 6.93532 19.2751C7.0598 19.1931 7.20611 19.1493 7.35575 19.1494C7.4551 19.1495 7.55347 19.1689 7.64523 19.2066C7.737 19.2442 7.82036 19.2994 7.89056 19.3689C7.96077 19.4384 8.01643 19.5208 8.05439 19.6116C8.09234 19.7024 8.11184 19.7996 8.11176 19.8979ZM25.9053 19.8979C25.9051 20.0458 25.8607 20.1903 25.7774 20.3133C25.6942 20.4362 25.576 20.532 25.4377 20.5885C25.2994 20.645 25.1473 20.6597 25.0005 20.6307C24.8538 20.6018 24.719 20.5304 24.6133 20.4257C24.5076 20.3211 24.4356 20.1878 24.4065 20.0427C24.3774 19.8976 24.3925 19.7472 24.4499 19.6106C24.5073 19.474 24.6043 19.3572 24.7288 19.2751C24.8533 19.1931 24.9996 19.1493 25.1492 19.1494C25.3499 19.1496 25.5422 19.2284 25.6841 19.3686C25.8259 19.5089 25.9051 19.6996 25.9053 19.8979ZM17.0088 24.3243C17.0089 24.4723 16.9646 24.617 16.8815 24.7401C16.7984 24.8631 16.6803 24.9591 16.542 25.0158C16.4037 25.0724 16.2516 25.0873 16.1047 25.0585C15.9579 25.0296 15.8231 24.9584 15.7172 24.8537C15.6114 24.7491 15.5393 24.6158 15.5101 24.4707C15.481 24.3255 15.496 24.1751 15.5533 24.0384C15.6107 23.9018 15.7077 23.785 15.8322 23.7028C15.9567 23.6207 16.1031 23.5769 16.2528 23.577C16.4532 23.5773 16.6453 23.6561 16.787 23.7962C16.9287 23.9363 17.0085 24.1262 17.0088 24.3243ZM12.5303 22.1097C12.5303 22.2577 12.4859 22.4023 12.4028 22.5253C12.3196 22.6483 12.2014 22.7441 12.0631 22.8007C11.9249 22.8573 11.7727 22.8721 11.6259 22.8432C11.4792 22.8143 11.3444 22.743 11.2386 22.6384C11.1328 22.5337 11.0608 22.4004 11.0316 22.2553C11.0025 22.1102 11.0176 21.9598 11.0749 21.8231C11.1323 21.6865 11.2293 21.5697 11.3538 21.4876C11.4783 21.4055 11.6247 21.3617 11.7743 21.3618C11.8736 21.3618 11.972 21.3812 12.0638 21.4188C12.1555 21.4563 12.2389 21.5114 12.3091 21.5809C12.3793 21.6504 12.435 21.7328 12.4729 21.8235C12.5109 21.9143 12.5304 22.0115 12.5303 22.1097ZM21.4274 22.1097C21.4277 22.2578 21.3836 22.4026 21.3006 22.5258C21.2176 22.6491 21.0994 22.7452 20.9611 22.802C20.8228 22.8588 20.6705 22.8738 20.5236 22.845C20.3767 22.8162 20.2417 22.7449 20.1358 22.6402C20.0299 22.5355 19.9578 22.4021 19.9287 22.2569C19.8995 22.1116 19.9146 21.9611 19.9721 21.8244C20.0296 21.6877 20.1268 21.5709 20.2515 21.4888C20.3762 21.4068 20.5227 21.3632 20.6725 21.3635C20.8724 21.3641 21.064 21.4429 21.2054 21.5827C21.3467 21.7226 21.4269 21.912 21.4274 22.1097ZM7.74901 22.5297C7.74901 22.6071 7.72581 22.6827 7.68235 22.747C7.63889 22.8113 7.57712 22.8614 7.50485 22.891C7.43257 22.9205 7.35305 22.9283 7.27632 22.9132C7.1996 22.8981 7.12912 22.8609 7.07381 22.8062C7.01849 22.7515 6.98082 22.6819 6.96556 22.606C6.9503 22.5302 6.95813 22.4516 6.98807 22.3801C7.01801 22.3087 7.0687 22.2476 7.13374 22.2046C7.19879 22.1617 7.27526 22.1388 7.35349 22.1388C7.45838 22.1388 7.55899 22.1799 7.63316 22.2533C7.70734 22.3266 7.74901 22.426 7.74901 22.5297ZM25.5425 22.5297C25.5425 22.6071 25.5193 22.6827 25.4758 22.747C25.4324 22.8113 25.3706 22.8614 25.2983 22.891C25.2261 22.9205 25.1465 22.9283 25.0698 22.9132C24.9931 22.8981 24.9226 22.8609 24.8673 22.8062C24.812 22.7515 24.7743 22.6819 24.7591 22.606C24.7438 22.5302 24.7516 22.4516 24.7816 22.3801C24.8115 22.3087 24.8622 22.2476 24.9272 22.2046C24.9923 22.1617 25.0688 22.1388 25.147 22.1388C25.2519 22.1388 25.3525 22.1799 25.4267 22.2533C25.5008 22.3266 25.5425 22.426 25.5425 22.5297ZM16.6455 26.9573C16.6455 27.0347 16.6223 27.1103 16.5788 27.1746C16.5354 27.2389 16.4736 27.289 16.4013 27.3186C16.329 27.3482 16.2495 27.3559 16.1728 27.3408C16.0961 27.3257 16.0256 27.2885 15.9703 27.2338C15.915 27.1791 15.8773 27.1095 15.862 27.0336C15.8468 26.9578 15.8546 26.8792 15.8845 26.8077C15.9145 26.7363 15.9652 26.6752 16.0302 26.6322C16.0953 26.5893 16.1717 26.5664 16.25 26.5664C16.3548 26.5664 16.4555 26.6075 16.5296 26.6809C16.6038 26.7542 16.6455 26.8536 16.6455 26.9573ZM12.167 24.7438C12.167 24.8211 12.1438 24.8967 12.1004 24.961C12.0569 25.0253 11.9951 25.0754 11.9228 25.105C11.8506 25.1346 11.771 25.1424 11.6943 25.1273C11.6176 25.1122 11.5471 25.075 11.4918 25.0203C11.4365 24.9656 11.3988 24.8959 11.3836 24.8201C11.3683 24.7442 11.3761 24.6656 11.4061 24.5942C11.436 24.5228 11.4867 24.4617 11.5517 24.4187C11.6168 24.3758 11.6933 24.3528 11.7715 24.3528C11.8764 24.3528 11.977 24.394 12.0512 24.4674C12.1253 24.5407 12.167 24.6401 12.167 24.7438ZM21.064 24.7438C21.064 24.8211 21.0408 24.8967 20.9974 24.961C20.9539 25.0253 20.8922 25.0754 20.8199 25.105C20.7476 25.1346 20.6681 25.1424 20.5914 25.1273C20.5146 25.1122 20.4442 25.075 20.3888 25.0203C20.3335 24.9656 20.2959 24.8959 20.2806 24.8201C20.2653 24.7442 20.2732 24.6656 20.3031 24.5942C20.333 24.5228 20.3837 24.4617 20.4488 24.4187C20.5138 24.3758 20.5903 24.3528 20.6685 24.3528C20.7734 24.3528 20.874 24.394 20.9482 24.4674C21.0224 24.5407 21.064 24.6401 21.064 24.7438ZM17.7343 8.02203C17.7343 8.31792 17.6455 8.60716 17.4792 8.85317C17.3129 9.09917 17.0765 9.29089 16.7999 9.40407C16.5234 9.51725 16.2191 9.54681 15.9255 9.489C15.632 9.43119 15.3623 9.28862 15.1508 9.07932C14.9392 8.87002 14.7952 8.60339 14.7369 8.31316C14.6787 8.02293 14.7088 7.72215 14.8235 7.44885C14.9382 7.17555 15.1323 6.94201 15.3813 6.77779C15.6303 6.61356 15.9229 6.52602 16.2223 6.52625C16.6234 6.52654 17.008 6.68426 17.2915 6.96475C17.575 7.24523 17.7343 7.62552 17.7343 8.02203ZM17.7343 12.4468C17.7343 12.7427 17.6455 13.0319 17.4792 13.2779C17.3129 13.5239 17.0766 13.7156 16.8001 13.8288C16.5235 13.942 16.2193 13.9716 15.9257 13.9139C15.6322 13.8561 15.3626 13.7136 15.151 13.5043C14.9394 13.2951 14.7953 13.0285 14.737 12.7383C14.6787 12.4481 14.7087 12.1474 14.8233 11.874C14.9379 11.6007 15.132 11.3672 15.3809 11.2029C15.6298 11.0386 15.9224 10.9509 16.2217 10.9511C16.6229 10.9512 17.0076 11.1089 17.2913 11.3894C17.575 11.6699 17.7343 12.0502 17.7343 12.4468ZM17.7343 16.8147C17.7343 17.1105 17.6455 17.3998 17.4792 17.6458C17.3129 17.8917 17.0766 18.0835 16.8001 18.1967C16.5235 18.3099 16.2193 18.3394 15.9257 18.2817C15.6322 18.2239 15.3626 18.0814 15.151 17.8722C14.9394 17.6629 14.7953 17.3963 14.737 17.1062C14.6787 16.816 14.7087 16.5152 14.8233 16.2419C14.9379 15.9686 15.132 15.735 15.3809 15.5707C15.6298 15.4064 15.9224 15.3188 16.2217 15.3189C16.4206 15.319 16.6174 15.3578 16.8011 15.4331C16.9848 15.5085 17.1516 15.6189 17.2921 15.758C17.4326 15.8971 17.5439 16.0622 17.6198 16.2439C17.6957 16.4256 17.7346 16.6203 17.7343 16.8169V16.8147ZM26.6319 12.4468C26.6319 12.7427 26.5431 13.0319 26.3769 13.2779C26.2106 13.5238 25.9743 13.7156 25.6978 13.8288C25.4213 13.942 25.1171 13.9716 24.8235 13.9139C24.53 13.8562 24.2604 13.7137 24.0488 13.5045C23.8371 13.2953 23.693 13.0288 23.6346 12.7387C23.5763 12.4485 23.6062 12.1478 23.7207 11.8744C23.8353 11.6011 24.0292 11.3675 24.2781 11.2031C24.5269 11.0388 24.8195 10.9511 25.1187 10.9511C25.52 10.9511 25.9049 11.1086 26.1887 11.3892C26.4725 11.6697 26.6319 12.0501 26.6319 12.4468ZM8.8384 12.4468C8.83884 12.7428 8.75048 13.0322 8.58448 13.2785C8.41848 13.5247 8.18232 13.7168 7.90586 13.8304C7.62941 13.9439 7.32509 13.9739 7.03142 13.9164C6.73774 13.8589 6.46791 13.7167 6.25607 13.5076C6.04422 13.2984 5.89988 13.0319 5.84131 12.7417C5.78275 12.4515 5.81258 12.1506 5.92704 11.8772C6.0415 11.6037 6.23544 11.37 6.48433 11.2055C6.73322 11.0411 7.02586 10.9533 7.32523 10.9533C7.72616 10.9533 8.11069 11.1106 8.3944 11.3906C8.67811 11.6706 8.8378 12.0505 8.8384 12.4468ZM13.3169 10.2333C13.3173 10.5292 13.229 10.8185 13.0631 11.0647C12.8972 11.3109 12.6612 11.503 12.3848 11.6166C12.1085 11.7302 11.8043 11.7603 11.5107 11.703C11.2171 11.6458 10.9473 11.5037 10.7353 11.2948C10.5234 11.0859 10.3789 10.8196 10.3201 10.5296C10.2612 10.2395 10.2907 9.9387 10.4049 9.66521C10.519 9.39172 10.7126 9.15782 10.9612 8.99309C11.2097 8.82837 11.5022 8.74021 11.8014 8.73977C12.2028 8.73977 12.5876 8.89736 12.8714 9.17787C13.1552 9.45839 13.3146 9.83885 13.3146 10.2356L13.3169 10.2333ZM13.3146 14.6028C13.3146 14.8987 13.2259 15.1879 13.0596 15.4339C12.8933 15.6798 12.657 15.8716 12.3805 15.9848C12.104 16.098 11.7998 16.1276 11.5062 16.0699C11.2127 16.0122 10.9431 15.8697 10.7315 15.6605C10.5198 15.4513 10.3757 15.1848 10.3173 14.8947C10.259 14.6045 10.2889 14.3037 10.4035 14.0304C10.518 13.7571 10.7119 13.5235 10.9608 13.3591C11.2096 13.1948 11.5022 13.107 11.8014 13.107C12.2028 13.107 12.5876 13.2646 12.8714 13.5452C13.1552 13.8257 13.3146 14.2061 13.3146 14.6028ZM22.2139 10.2356C22.2139 10.5314 22.1251 10.8206 21.9589 11.0666C21.7926 11.3126 21.5563 11.5043 21.2798 11.6175C21.0033 11.7307 20.699 11.7603 20.4055 11.7026C20.112 11.6449 19.8424 11.5024 19.6308 11.2932C19.4191 11.084 19.275 10.8175 19.2166 10.5274C19.1583 10.2372 19.1882 9.93646 19.3027 9.66314C19.4173 9.38982 19.6112 9.15621 19.8601 8.99185C20.1089 8.82749 20.4014 8.73977 20.7007 8.73977C21.102 8.73977 21.4869 8.89736 21.7707 9.17787C22.0545 9.45839 22.2139 9.83885 22.2139 10.2356ZM22.2139 14.6028C22.2139 14.8987 22.1251 15.1879 21.9589 15.4339C21.7926 15.6798 21.5563 15.8716 21.2798 15.9848C21.0033 16.098 20.699 16.1276 20.4055 16.0699C20.112 16.0122 19.8424 15.8697 19.6308 15.6605C19.4191 15.4513 19.275 15.1848 19.2166 14.8947C19.1583 14.6045 19.1882 14.3037 19.3027 14.0304C19.4173 13.7571 19.6112 13.5235 19.8601 13.3591C20.1089 13.1948 20.4014 13.107 20.7007 13.107C21.102 13.107 21.4869 13.2646 21.7707 13.5452C22.0545 13.8257 22.2139 14.2061 22.2139 14.6028Z" fill="#141414"/>
</g>
<defs>
<clipPath id="clip0">
<rect width="32" height="32" fill="white" transform="translate(0.221985 0.937256)"/>
</clipPath>
</defs>
</svg>
