<svg width="32" height="32" viewBox="0 0 32 32" fill="none" xmlns="http://www.w3.org/2000/svg">
<path d="M32 16C32 24.8365 24.8365 32 16 32C7.1635 32 0 24.8365 0 16C0 7.1635 7.1635 0 16 0C24.8365 0 32 7.1635 32 16Z" fill="white"/>
<path d="M19.9363 18.9482C20.3562 19.2481 20.5661 19.428 20.8061 19.578C22.2458 20.5378 23.8054 20.6278 24.8251 19.668C25.9049 18.6182 25.9949 17.2986 25.4849 15.9489C24.9451 14.4193 23.6854 13.4895 22.1558 13.7294C21.4659 13.8494 20.6561 14.3592 20.2662 14.9291C19.3064 16.3088 18.9765 18.0784 17.3869 19.0082C17.177 19.1282 17.2369 19.818 17.2369 20.2379C17.267 23.2371 15.0774 25.5466 11.9282 25.8465C9.43873 26.0865 5.71965 24.077 5.74964 21.2877C7.06933 21.8875 8.32901 22.7273 9.73867 23.0272C10.9084 23.2972 12.3181 23.1772 13.4878 22.7872C15.0175 22.2774 15.7373 20.8077 15.5573 19.4881C15.3774 18.3483 14.9275 18.0484 12.618 17.6585C12.4681 16.9986 12.3181 16.2788 12.1681 15.469C12.4081 15.439 12.588 15.379 12.768 15.379C13.8178 15.289 14.9574 15.259 15.0474 13.7894C15.1374 12.6197 14.0277 11.24 12.738 11.36C11.4783 11.4799 10.3086 12.1398 8.8689 12.6496C8.59899 12.2298 8.1491 11.5399 7.72918 10.8501C9.55875 8.69056 12.5581 8.27069 14.7475 9.86034C16.757 11.2999 16.937 13.6095 15.1674 16.3088C15.6773 16.7887 16.1872 17.2685 16.907 17.9584C17.1469 17.2386 17.2669 16.7287 17.4469 16.2488C17.6868 15.559 17.8667 14.8091 18.2567 14.1793C19.2164 12.5297 20.5362 11.3899 22.6057 11.6299C24.6152 11.8699 25.6375 13.0626 26.408 14.9246C27.2428 17.1078 26.9023 18.7506 26.408 19.9972C25.9137 21.2437 24.0753 22.5173 22.7556 22.3074C21.016 22.0375 20.0263 20.9277 19.9363 18.9482Z" fill="black"/>
<path d="M14.1477 7.46085C16.9071 9.38043 19.3365 9.11045 21.7959 7.43085C22.2458 8.15068 22.6357 8.75054 23.0256 9.35041C20.1163 11.6298 15.3774 10.4601 14.1477 7.46085Z" fill="black"/>
<path d="M16.3373 6.35122C16.8771 5.69138 17.2971 5.21149 17.8069 4.61163C18.4068 5.24149 18.7967 5.66138 19.2766 6.20126C18.8267 6.71114 18.4068 7.16103 17.8669 7.7309C17.357 7.281 16.9071 6.86111 16.3373 6.35122Z" fill="#F01871"/>
<path d="M31.5 16C31.5 24.5604 24.5604 31.5 16 31.5C7.43959 31.5 0.5 24.5604 0.5 16C0.5 7.43959 7.43959 0.5 16 0.5C24.5604 0.5 31.5 7.43959 31.5 16Z" stroke="#EB1A6B"/>
</svg>
