<svg width="33" height="33" viewBox="0 0 33 33" fill="none" xmlns="http://www.w3.org/2000/svg">
<g clip-path="url(#clip0)">
<path d="M16.8887 32.9462C25.7252 32.9462 32.8887 25.7828 32.8887 16.9462C32.8887 8.10967 25.7252 0.946228 16.8887 0.946228C8.05212 0.946228 0.888672 8.10967 0.888672 16.9462C0.888672 25.7828 8.05212 32.9462 16.8887 32.9462Z" fill="#EFF2F5"/>
<path d="M21.5466 8.75421C20.6108 8.75348 19.7129 9.12512 19.0501 9.78753C18.3873 10.4499 18.0136 11.349 18.0112 12.2874V16.2048C17.6471 16.2295 17.2748 16.245 16.8889 16.245C16.503 16.245 16.1325 16.2605 15.7666 16.2824V12.2874C15.7517 11.3572 15.3727 10.4701 14.7114 9.81751C14.0501 9.16496 13.1595 8.79923 12.2316 8.79923C11.3038 8.79923 10.4132 9.16496 9.75189 9.81751C9.09058 10.4701 8.7116 11.3572 8.69672 12.2874V21.6501C8.7116 22.5804 9.09058 23.4675 9.75189 24.12C10.4132 24.7726 11.3038 25.1383 12.2316 25.1383C13.1595 25.1383 14.0501 24.7726 14.7114 24.12C15.3727 23.4675 15.7517 22.5804 15.7666 21.6501V17.7327C16.1307 17.7081 16.503 17.6926 16.8889 17.6926C17.2748 17.6926 17.6453 17.677 18.0112 17.6551V21.6501C18.0261 22.5804 18.4051 23.4675 19.0664 24.12C19.7277 24.7726 20.6183 25.1383 21.5462 25.1383C22.474 25.1383 23.3646 24.7726 24.0259 24.12C24.6872 23.4675 25.0662 22.5804 25.0811 21.6501V12.2874C25.0787 11.3492 24.7052 10.4502 24.0425 9.78785C23.3799 9.12546 22.4823 8.75373 21.5466 8.75421ZM12.2312 10.2018C12.7835 10.2016 13.3133 10.421 13.7044 10.812C14.0956 11.203 14.316 11.7336 14.3175 12.2874V16.4357C13.2832 16.586 12.2733 16.8723 11.3137 17.2873C10.8979 17.4703 10.5065 17.7045 10.1486 17.9846V12.2874C10.15 11.7342 10.37 11.2042 10.7603 10.8133C11.1506 10.4224 11.6795 10.2025 12.2312 10.2018ZM14.3175 21.6501C14.3175 22.205 14.0977 22.7371 13.7064 23.1294C13.3152 23.5217 12.7845 23.7421 12.2312 23.7421C11.6779 23.7421 11.1472 23.5217 10.756 23.1294C10.3647 22.7371 10.1449 22.205 10.1449 21.6501V20.7109C10.1449 19.8813 10.8003 19.0954 11.899 18.6062C12.6731 18.2713 13.4854 18.0331 14.3175 17.897V21.6501ZM21.5466 23.7357C20.9943 23.736 20.4645 23.5165 20.0734 23.1255C19.6823 22.7345 19.4618 22.2039 19.4603 21.6501V17.5018C20.4946 17.3515 21.5045 17.0652 22.4641 16.6502C22.8799 16.4672 23.2713 16.233 23.6293 15.9529V21.6501C23.6278 22.2033 23.4078 22.7334 23.0175 23.1242C22.6272 23.5151 22.0983 23.735 21.5466 23.7357ZM21.8789 15.3259C21.1047 15.6607 20.2925 15.8989 19.4603 16.035V12.2874C19.4603 11.7326 19.6801 11.2005 20.0714 10.8081C20.4627 10.4158 20.9933 10.1954 21.5466 10.1954C22.0999 10.1954 22.6306 10.4158 23.0218 10.8081C23.4131 11.2005 23.6329 11.7326 23.6329 12.2874V13.2266C23.6329 14.0526 22.9775 14.8385 21.8789 15.3259Z" fill="url(#paint0_linear)"/>
</g>
<defs>
<linearGradient id="paint0_linear" x1="9.73439" y1="23.9176" x2="23.9888" y2="9.66323" gradientUnits="userSpaceOnUse">
<stop stop-color="#00AEE9"/>
<stop offset="1" stop-color="#69FABD"/>
</linearGradient>
<clipPath id="clip0">
<rect width="32" height="32" fill="white" transform="translate(0.888672 0.946228)"/>
</clipPath>
</defs>
</svg>
