<svg height="32" viewBox="0 0 32 32" width="32" xmlns="http://www.w3.org/2000/svg"><g fill="none" fill-rule="evenodd"><circle cx="16" cy="16" fill="#25aae1" fill-rule="nonzero" r="16"/><path d="m16.3455283 24.9929957c-1.638648.0177041-3.0162105-.2777961-4.3149193-.9225807-.0800055-.0397742-.1403335-.0420772-.220435.0021111-.7979908.4402997-1.6440713.7433326-2.55028788.8620317-.38414138.0503295-.77217024.1044014-1.15803939.0256685-1.04655008-.2135528-1.45751993-1.4551912-.74678159-2.2603202.46525069-.5270451.79549517-1.126058 1.00959495-1.7930087.02423681-.0753743.01545397-.1324689-.02634852-.199447-.7117942-1.1410273-1.14349731-2.3834814-1.27778361-3.7183902-.29396126-2.9216095.61590283-5.4249414 2.71020284-7.47689059 1.3521258-1.32473738 2.9892861-2.13063409 4.8630551-2.40459195 2.5374736-.3709706 4.848849.21566385 6.8796054 1.78840267 1.8123852 1.40366217 2.9400926 3.25328557 3.3337847 5.51149477.4982223 2.85751-.2234106 5.4036869-2.1405179 7.5793729-1.4168213 1.6079071-3.2165842 2.5629693-5.334689 2.902418-.4015151.0643393-.8103252.0826671-1.0264408.1037297zm-6.42880898-2.3880147c.0640449-.0184452.10201318-.0279876.13907498-.0401955.5741644-.1891423 1.1020415-.4708834 1.5945099-.8170757.3519003-.2474097.6984146-.2605771 1.0699923-.0478187.7957885.4556902 1.6486894.7392971 2.5633422.8370135 1.487804.1588625 2.8907124-.1238381 4.1451604-.9290791 2.1704873-1.3932988 3.2498651-3.3971521 3.1331338-5.991782-.0747102-1.6619257-.725771-3.0973391-1.904869-4.2656182-1.421306-1.40822551-3.1496649-2.05049916-5.1528676-1.91200091-1.3509686.09345167-2.5708079.55799123-3.6087511 1.42448491-2.01306802 1.6806374-2.79077886 3.8335975-2.34486429 6.4175655.14670066.8501277.48500279 1.6302065.96355299 2.3486596.1834958.2754505.2470608.5678535.1709108.8987459-.1149182.4994574-.2746838.9823887-.4799367 1.4508199-.088735.2024697-.1847223.4016875-.28838868.6262808zm6.09068538-10.4117368c.1977339.4020607.3836827.7794925.5689917 1.1572441.2013068.410377.406613.8189948.6000275 1.2331035.0504467.1080585.1173179.1460149.2294098.1615813.8398893.1168546 1.6788721.2397331 2.5180682.361119.0291161.0042115.0576457.0124212.0940143.0204709-.1548063.1595555-.298894.3147397-.450234.4625671-.4735376.4625138-.9484617.9236415-1.4262121 1.381784-.0838823.0803908-.1167313.1544378-.0948142.2777428.1500069.8432507.2896152 1.688314.4322097 2.5328974.0035729.0213771.003093.043394.0057593.0839093-.0453807-.018072-.0806294-.028414-.1124652-.0452065-.7420355-.3915588-1.4847643-.7819448-2.2244002-1.1780881-.1006267-.053896-.1780565-.059067-.2816162-.0037317-.7439553.3974761-1.4914301.7882352-2.2378918 1.1808602-.0305559.0160995-.0623384.0299066-.1210507.0577876.0373818-.2268856.0693242-.4298351.1044129-.6323048.1183844-.6820959.2352224-1.3645117.3596326-2.0454881.0185576-.1013414-.0374884-.1477741-.0928411-.2020965-.5960281-.5851258-1.1925895-1.1697718-1.7905373-1.7528719-.0341289-.0332651-.0820159-.0524033-.1235038-.0780985.0102387-.0162594.0205307-.0324655.0307693-.0487249.3052931-.0437672.6105862-.0875876.9159327-.1312482.5757107-.0824166 1.1512082-.1665391 1.7274523-.2454905.0924145-.0126877.134329-.0615726.1724573-.1394579.3771769-.7690438.7576068-1.5364883 1.1375034-2.3042526.0133849-.027028.0296494-.0525633.0589256-.104007z" fill="#fff"/></g></svg>