<svg height="32" viewBox="0 0 32 32" width="32" xmlns="http://www.w3.org/2000/svg"><g fill="none"><circle cx="16" cy="16" fill="#bbdfd0" r="16"/><path d="m23.0821087 23.9981669c-1.7687715-1.7270297-3.9501464-2.4414136-6.3630676-2.5904367-2.0526769-.1268099-4.0159253.217604-5.8519058 1.1578949-.681989.3493741-1.29797907.7900815-1.83576042 1.3332289-.03585942.0362314-.07633877.0680417-.11362817.101146-4.69472443-3.8260781-5.32710425-10.8802008-1.04278321-15.49388035 4.3209504-4.65282243 11.8399894-4.68053513 16.2006492-.04841636 4.3310703 4.60084761 3.72828 11.68322211-.993504 15.54046361zm-11.0628519-8.2027441c.00121 2.1607281 1.7703115 3.9000506 3.9709361 3.9035012 2.2121744.0038819 4.0028355-1.7392146 4.0051455-3.8987566.0022-2.1521015-1.801331-3.9153626-3.9998656-3.9097554-2.1963347.0048524-3.977206 1.7542033-3.976216 3.9050108z" fill="#fff"/></g></svg>