<svg height="32" viewBox="0 0 32 32" width="32" xmlns="http://www.w3.org/2000/svg"><g fill="none" fill-rule="evenodd"><circle cx="16" cy="16" fill="#4392cd" fill-rule="nonzero" r="16"/><path d="m16.8583691 25.5h-1.7167382c-1.2875536 0-1.6523605-1.1942099-1.6523605-2.106152s.0643777-1.3244873.0643777-1.7370326c0-.6496539-.3280173-2.2731893-.9227468-2.9529553-1.1587983-1.3244874-1.888412-2.5117063-1.888412-4.2340169-1.00858372-.5211098-2.7896996-.9987937-3.47639488-1.7804584s-1.26609442-1.8890229-1.26609442-3.47406514c0-.4053076.08583691-.97708082.25751073-1.71531966.39560737 1.23407934 1.00361881 2.08088272 1.82403433 2.5404101 1.20171674.6731002 2.55562834 1.172497 3.71244634 1.172497h8.4120172c1.156818 0 2.5107296-.4993968 3.7124463-1.172497.8204156-.45952738 1.428427-1.30633076 1.8240344-2.5404101.1716738.73823884.2575107 1.31001206.2575107 1.71531966 0 1.58504224-.5793991 2.69240044-1.2660944 3.47406514s-2.4678112 1.2593486-3.4763949 1.7804584c0 1.7223106-.7296137 2.9095295-1.888412 4.2340169-.5947295.679766-.9227468 2.3033014-.9227468 2.9529553 0 .4125453.0643777.8250905.0643777 1.7370326s-.3648069 2.106152-1.6523605 2.106152z" fill="#fff"/></g></svg>