<svg height="32" viewBox="0 0 32 32" width="32" xmlns="http://www.w3.org/2000/svg"><g fill="none" fill-rule="evenodd"><circle cx="16" cy="16" fill="#00acff" r="16"/><path d="m15.0808004 20.1558894c.2609718-.1083153.5598609.016593.6675877.2789905.1077267.2623974-.016503.5629193-.2774747.6712345l-3.4061447 1.4137057-.4521759 2.4801799h-2.34342001l.25671309-1.4264275-1.38227509.5737073c-.26097177.1083152-.55986096-.0165931-.66758768-.2789905-.10772671-.2623974.01650295-.5629194.27747472-.6712346l1.98869625-.8253998.15093234-.8386563-2.68672875 1.1151152c-.26097177.1083152-.55986096-.0165931-.66758767-.2789905-.10772672-.2623974.01650294-.5629194.27747471-.6712346l3.29314989-1.3668077 2.3973835-13.32107322h6.7736801c4.1463345-.14277771 6.2195018 1.24216613 6.2195018 4.15483152 0 3.6953773-2.7019761 6.5534972-7.284702 6.5534972h-5.2751433l-.283606 1.5555758 1.4870386-.617189c.2609717-.1083152.5598609.0165931.6675876.2789905.1077268.2623974-.0165029.5629194-.2774747.6712346l-2.0965108.8701478-.1530614.83954zm-.5709991-11.04704919-1.1713781 6.42499719h5.2176796c3.2117688 0 4.430462-2.184499 4.430462-3.7693317 0-1.5848326-.7668107-2.65566549-3.3228465-2.65566549z" fill="#fff"/></g></svg>