<svg width="32" height="33" viewBox="0 0 32 33" fill="none" xmlns="http://www.w3.org/2000/svg">
<g clip-path="url(#clip0)">
<path d="M16 32.7835C24.8365 32.7835 32 25.62 32 16.7835C32 7.94696 24.8365 0.783508 16 0.783508C7.16345 0.783508 0 7.94696 0 16.7835C0 25.62 7.16345 32.7835 16 32.7835Z" fill="white"/>
<path d="M10.2242 7.97655C10.7191 7.41306 11.1742 6.93626 11.6076 6.5317C4.2895 6.29692 6.42065 11.5887 4.0222 16.9599C1.277 23.151 4.34729 25.5098 8.92023 26.2466C8.28163 25.4857 7.76053 24.6334 7.37425 23.7181C4.42315 19.9868 5.61876 13.1852 10.2242 7.97655Z" fill="#EFE812"/>
<path d="M27.8333 14.5723C26.9691 16.8332 25.7188 18.9268 24.1381 20.7598C22.8709 22.2998 21.353 23.615 19.6482 24.6501C17.6684 25.9046 15.3673 26.5583 13.0236 26.532C11.6553 26.5443 10.2881 26.4489 8.93469 26.2466C9.6861 27.1442 10.6177 27.874 11.6691 28.3886C18.2865 31.5889 18.7018 25.647 25.7021 22.6309C29.6321 20.9368 29.6466 17.6281 27.8297 14.5723" fill="#EDE70A"/>
<path d="M19.6483 8.39559C20.6063 8.56327 21.5293 8.8905 22.379 9.36364C24.605 10.6152 26.4806 12.4063 27.8333 14.5723C29.0253 11.213 28.4691 8.5762 25.8647 8.0994C22.9967 7.57564 20.7572 7.40587 18.6044 5.90323C15.9531 4.06106 13.6269 4.66067 11.6113 6.53535L12.0484 6.55342C14.8442 6.71957 17.5171 7.27584 19.6338 8.38837" fill="#EDE70A"/>
<path d="M10.2242 7.97656C5.6188 13.1852 4.42319 19.9868 7.38873 23.7182C6.70271 22.0984 6.40333 20.3412 6.5143 18.5857C6.62527 16.8302 7.14355 15.1247 8.02808 13.6042C10.524 9.44308 15.534 7.63702 19.6482 8.39557C17.5171 7.26859 14.8441 6.72677 12.0628 6.56061L11.6257 6.53894C11.1778 6.95072 10.7227 7.41307 10.2242 7.97656Z" fill="#DEC21C"/>
<path d="M22.379 9.35645C21.5288 8.88583 20.6058 8.56105 19.6483 8.39563C22.4513 9.86937 24.3115 12.369 24.3115 16.3206C24.2953 17.9887 23.8596 19.6259 23.0447 21.0815C22.2298 22.5371 21.0618 23.7643 19.6483 24.6501C21.3538 23.6162 22.8719 22.3009 24.1381 20.7599C25.7188 18.9269 26.9691 16.8332 27.8333 14.5723C26.4815 12.4037 24.6058 10.61 22.379 9.35645Z" fill="#E5CB22"/>
<path d="M19.6483 8.39557C15.5341 7.63703 10.5241 9.44309 8.02812 13.5862C7.1399 15.1086 6.61955 16.8174 6.50855 18.5765C6.39755 20.3355 6.69897 22.0962 7.38878 23.7182C7.77369 24.6341 8.29491 25.4866 8.93476 26.2466C10.2881 26.4489 11.6553 26.5443 13.0237 26.532C15.3674 26.5583 17.6685 25.9046 19.6483 24.6501C21.0621 23.7645 22.2303 22.5374 23.0452 21.0817C23.8601 19.6261 24.2956 17.9887 24.3115 16.3206C24.3115 12.3689 22.4513 9.86932 19.6483 8.39557ZM19.1859 22.7718C17.6643 23.7492 15.8176 24.0843 14.0496 23.7039C12.2816 23.3235 10.7361 22.2585 9.7511 20.7418C7.70664 17.5884 8.71803 13.5176 11.7847 11.3503C15.2162 8.91211 19.6158 9.87293 21.2196 13.3803C22.7836 16.7974 22.3538 20.7454 19.1859 22.7718Z" fill="#CCA727"/>
</g>
<defs>
<clipPath id="clip0">
<rect width="32" height="32" fill="white" transform="translate(0 0.783508)"/>
</clipPath>
</defs>
</svg>
