<svg width="32" height="32" viewBox="0 0 32 32" fill="none" xmlns="http://www.w3.org/2000/svg">
<path d="M32 16C32 24.8365 24.8365 32 16 32C7.1635 32 0 24.8365 0 16C0 7.1635 7.1635 0 16 0C24.8365 0 32 7.1635 32 16Z" fill="white"/>
<path fill-rule="evenodd" clip-rule="evenodd" d="M10.4942 5.07116C11.9522 3.64295 14.2846 3.64295 15.7426 5.07116L19.1942 8.45239C20.6954 9.92288 20.6954 12.3396 19.1942 13.8101L13.1788 19.7028L17.493 23.9289C18.3149 24.734 18.3285 26.0531 17.5234 26.875C16.7182 27.6969 15.3991 27.7105 14.5772 26.9054L4.12584 16.6673C2.62472 15.1968 2.62472 12.78 4.12584 11.3096L10.4942 5.07116ZM10.2017 16.7864L15.9746 11.1313L13.1184 8.33331L7.34548 13.9884L10.2017 16.7864Z" fill="#3CEAAA"/>
<path fill-rule="evenodd" clip-rule="evenodd" d="M19.1742 7.92836C20.6321 6.50012 22.9645 6.50012 24.4225 7.92836L27.8742 11.3096C29.3753 12.78 29.3753 15.1968 27.8742 16.6673L17.4229 26.9054C16.6009 27.7106 15.2818 27.697 14.4767 26.875C13.6715 26.0531 13.6851 24.734 14.507 23.9288L18.8212 19.7028L15.7225 16.6673C14.2213 15.1968 14.2213 12.78 15.7225 11.3096L19.1742 7.92836ZM21.7983 16.7864L24.6546 13.9884L21.7983 11.1905L18.9421 13.9884L21.7983 16.7864Z" fill="#03BCE4"/>
<path opacity="0.95" d="M18.9405 13.9955L15.9064 11.1136L12.9962 13.9717L15.9583 16.9186L18.9405 13.9955Z" fill="#00A4E1"/>
</svg>
