<svg width="32" height="32" viewBox="0 0 32 32" xmlns="http://www.w3.org/2000/svg"><g fill="none"><circle cx="16" cy="16" r="16" fill="#22B573"/><path d="M15.22 26.804c.877.05 1.918-.002 2.666-.135 1.623-.28 3.288-1.005 4.654-2.027.613-.461 1.664-1.512 2.12-2.12 1.028-1.372 1.705-2.907 2.055-4.67.129-.667.146-2.967.03-3.65-.643-3.615-2.85-6.558-6.085-8.111a15.057 15.057 0 0 0-.257-.12l.42 1.492c.24.829.73 2.575 1.098 3.871.975 3.428.964 3.37.999 4.24.017.455.006.963-.035 1.273-.415 3.112-2.885 5.576-6.01 5.997-.636.087-1.71.047-2.311-.082-.222-.053-.415-.082-.433-.07-.017.023.946 3.498 1.098 3.965.032.096.043.134-.01.147zm-1.643-.23zm-1.937-.643a.27.27 0 0 1-.02-.016c-.035-.04-.303-.893-.59-1.903-.285-1.01-.817-2.88-1.173-4.146-.362-1.267-.69-2.505-.736-2.745-.093-.525-.105-1.752-.017-2.277a7.31 7.31 0 0 1 .584-1.869c.975-2.044 2.692-3.393 4.957-3.889.613-.134 2.032-.134 2.651 0 .251.059.48.082.503.053.023-.024-.217-.952-.532-2.062a64.449 64.449 0 0 1-.552-2.005 41.861 41.861 0 0 0-.64-.003c-1.301-.006-1.634.029-2.639.262-2.172.508-4.274 1.805-5.728 3.516-2.412 2.838-3.223 6.71-2.149 10.23.391 1.297.876 2.249 1.688 3.352a10.99 10.99 0 0 0 4.393 3.502zm2.573 1.905c-.315-.046-.619-.099-.671-.122a8.684 8.684 0 0 0-.561-.146c-1.857-.45-3.83-1.553-5.308-2.967-1.127-1.08-2.254-2.715-2.727-3.947-.064-.158-.14-.345-.17-.409-.157-.333-.437-1.308-.595-2.096-.17-.823-.181-.97-.181-2.167 0-.735.03-1.436.064-1.635.041-.192.117-.619.181-.94.059-.327.146-.654.187-.73a.451.451 0 0 0 .059-.14c-.03 0 .239-.87.286-.934.023-.03.093-.187.151-.35.1-.275.427-.94.55-1.14.034-.046.186-.303.344-.566.163-.268.321-.52.35-.554.035-.041.228-.286.427-.543 1.74-2.214 4.385-3.814 7.17-4.333.824-.158 3.632-.152 4.467.006 1.338.25 2.763.805 3.971 1.541.584.362.625.386 1.285.911.56.444 1.489 1.378 1.892 1.904.158.21.356.461.438.56.082.106.152.205.152.228 0 .03.064.129.14.228.076.1.257.42.409.706.146.292.292.555.315.584.023.035.134.275.24.543.788 1.992 1.062 3.89.846 5.94-.088.88-.485 2.44-.788 3.106-.059.14-.111.268-.111.286 0 .052-.502 1.057-.654 1.308-1.232 2.044-2.978 3.69-4.952 4.671-.339.17-.66.327-.718.357-.392.204-1.682.595-2.64.794-.595.122-3.089.152-3.848.046zm2.622-8.35c1.267-.321 2.365-1.401 2.68-2.633.117-.462.123-1.355.006-1.805-.485-1.915-2.476-3.136-4.35-2.663-.771.193-1.18.42-1.723.964-.776.777-1.098 1.547-1.092 2.633.006 1.653 1.08 3.049 2.692 3.48.485.13 1.326.14 1.787.024z" fill="#FEFFFF"/></g></svg>