<svg width="32" height="32" viewBox="0 0 32 32" fill="none" xmlns="http://www.w3.org/2000/svg">
<path d="M32 16C32 24.8365 24.8365 32 16 32C7.1635 32 0 24.8365 0 16C0 7.1635 7.1635 0 16 0C24.8365 0 32 7.1635 32 16Z" fill="black"/>
<path d="M26.7832 9.99959L16.3916 4.00002L5.99997 9.99959V15.3852L8.40446 13.99V11.3875L16.3916 6.77617L24.3787 11.3875V12.4215L26.7832 11.0259V9.99959Z" fill="white"/>
<path d="M24.3788 20.6105L16.3916 25.2218L8.40449 20.6105V18.3156L11.9105 16.281L14.8196 17.97L17.4604 16.4387L14.5513 14.7504L11.9105 13.2191L9.26968 14.7504L8.40449 15.2526L6 16.6479V22.0005L16.3916 28L26.7833 22.0005V16.6127L24.3788 18.0083V20.6105Z" fill="white"/>
<path d="M24.3788 13.6827L18.5466 17.0676L15.9061 18.5989L18.5466 20.1302L21.1874 18.5989L24.3788 16.7467L26.7833 15.3515V12.2875L24.3788 13.6827Z" fill="#F22F54"/>
</svg>
