<svg width="32" height="32" viewBox="0 0 32 32" fill="none" xmlns="http://www.w3.org/2000/svg">
<path d="M16 32C24.8366 32 32 24.8366 32 16C32 7.16344 24.8366 0 16 0C7.16344 0 0 7.16344 0 16C0 24.8366 7.16344 32 16 32Z" fill="#0000E7"/>
<path fill-rule="evenodd" clip-rule="evenodd" d="M7.05237 7.1585C7.11409 7.0598 7.22127 7 7.33645 7H24.6635C24.8038 7 24.9293 7.08831 24.9786 7.2216C25.0278 7.35489 24.9904 7.5052 24.8847 7.59878L17.0934 14.4967V27.6585C17.0934 27.8184 16.9841 27.9569 16.8304 27.9917C16.6767 28.0266 16.5197 27.9486 16.4526 27.8039L7.03202 7.48686C6.98298 7.38109 6.99066 7.2572 7.05237 7.1585ZM16.222 14.3671L8.20312 8.40864L12.5158 17.7097L16.222 14.3671ZM12.8145 18.3539L16.4206 26.131V15.1017L12.8145 18.3539ZM8.36553 7.68293H23.766L16.7386 13.9046L8.36553 7.68293Z" fill="white"/>
</svg>
