<svg xmlns="http://www.w3.org/2000/svg" width="32" height="32" viewBox="0 0 32 32">
  <g fill="none" fill-rule="evenodd">
    <circle cx="16" cy="16" r="16" fill="#5E4778" fill-rule="nonzero"/>
    <path fill="#FFF" stroke="#FFF" d="M10.5,12.2413819 L16.6534697,12.2413819 L16.6534697,13.4963255 L10.5,13.4963255 L10.5,12.2413819 Z M22.5,12.8312751 C22.5,15.8052883 20.389135,17.7255853 17.4722838,17.7255853 L13.429679,17.7255853 L13.429679,24 L11.8305342,24 L11.8305342,16.307296 L17.2552934,16.307296 C19.4301427,16.307296 20.8501623,15.0147738 20.8501623,12.8312751 C20.8501623,10.6729298 19.4301427,9.41798621 17.2807944,9.41798621 L15.5917006,9.41798621 L11.5490959,9.43056292 L11.5490959,8 L17.4591469,8 C20.3888259,8 22.4996909,9.85726191 22.4996909,12.8312751 L22.5,12.8312751 Z"/>
  </g>
</svg>
