<svg height="32" viewBox="0 0 32 32" width="32" xmlns="http://www.w3.org/2000/svg"><g fill="none" fill-rule="evenodd"><circle cx="16" cy="16" fill="#00bfff" r="16"/><path d="m8.40974867 20.902439h-.09748667v4.097561h-2.312262v-13.875h2.2604722v.6402439h.0883473c.78903275-.7560976 1.794364-.777439 2.3579589-.777439 2.3640518 0 3.9146991 2.2530488 3.9146991 5.2621951v.3902439c0 3.1310976-1.794364 4.9969512-3.9543031 4.9969512-1.01142421.0030488-1.760853-.2286585-2.25742573-.7347561zm4.06397563-4.0762195v-.6829268c0-1.9603659-.7463823-3.2713415-2.0776847-3.2713415-1.4379284 0-2.2086824 1.5243903-2.2086824 3.2713415v.679878c0 1.6646342.75856816 2.9390244 2.2482864 2.9390244 1.1728865-.0030488 2.0380807-.9176829 2.0380807-2.9359756zm3.2658035-9.8262195h2.3153085v14.5762195h-2.3153085zm8.9291698 6.4085366c-1.2977913 0-2.5864432 1.0304878-2.5864432 2.3323171v5.8445122h-2.3031226v-10.3628049h2.1325209v.6371951h.0883473c.5178979-.5457317 1.7852247-.8018293 2.8271135-.7865854.1035796 0 .0182787.0030488.1188119.0030488l.0121858 2.3323171zm-.9718202 5.6859756h2.3031226v2.4817073h-2.3031226z" fill="#fff" fill-rule="nonzero"/></g></svg>