<svg height="32" viewBox="0 0 32 32" width="32" xmlns="http://www.w3.org/2000/svg"><g fill="none" fill-rule="evenodd"><circle cx="16" cy="16" fill="#dcd6cc" r="16"/><path d="m24.7584869 7.73227751c-.8050436-.79286072-1.8816683-1.23227751-3.0164888-1.23227751-1.1445199 0-2.2114452.43941679-3.0164889 1.23227751l-9.8545102 9.70537959c-.09699318.0955254-.1551891.2388135-.14548978.3821016v4.9959779l-2.72550922 2.6842634h1.50339477l2.01745877-1.9869281h5.04364696c.1454898 0 .2812803-.0573152.3782735-.1623932l9.8060136-9.6576169.0096993-.0095525c.7953443-.7928607 1.2415131-1.84364 1.2415131-2.9612871 0-1.13675214-.4364694-2.18753143-1.2415131-2.98994469zm-5.7322987 1.1271996.4170708-.41075917c.6110572-.60180998 1.4258002-.93614883 2.2987391-.93614883.8632395 0 1.6779825.33433885 2.2987391.93614883.0096993.00955252.0193986.02865762.0387973.03821014.5916585.60180998.9117361 1.38511818.9117361 2.22574162 0 .8501759-.3394762 1.6525892-.9505334 2.2639517l-.4267702.4203117h-3.8118331l2.5024248-2.464555c.2036857-.2006034.2036857-.5062846.0193986-.7164404-.0096993-.0095526-.0096993-.0191051-.0193986-.0286577-.2036857-.20060329-.543162-.20060329-.7468477 0l-2.5218235 2.4836602v-3.81146309zm-8.4772066 13.64102569 2.056256-2.0251383h3.8118332l-2.056256 2.0251383zm5.9844811-5.9034691 2.4345296-2.3976873h3.8118331l-2.4345295 2.3976873zm2.9776915.8215183-2.2696411 2.2352941h-3.8118332l2.2696412-2.2352941zm-3.7536372-5.3398693 2.4442289-2.40723977v3.80191047l-2.4442289 2.4167924zm-3.1037828 3.0568125 2.2696411-2.2352941v3.8019105l-2.2696411 2.2352941zm-2.90979627 2.8657617 2.08535397-2.0442433v3.8019105l-2.08535397 2.0442433z" fill="#fff" fill-rule="nonzero"/></g></svg>