<svg height="32" width="32" xmlns="http://www.w3.org/2000/svg"><g fill="none" fill-rule="evenodd"><circle cx="16" cy="16" fill="#05bca9" fill-rule="nonzero" r="16"/><path d="m27.995 15.954a.206.206 0 0 1 -.114.231l-.076.036-2.306 2.312.894 3.345a.206.206 0 0 1 -.145.252l-3.209.861-.885 3.31a.205.205 0 0 1 -.25.146l-3.39-.91-2.398 2.403a.204.204 0 0 1 -.29 0l-2.369-2.375-3.282.882a.204.204 0 0 1 -.25-.145l-.886-3.31-3.208-.862a.205.205 0 0 1 -.145-.252l.865-3.237-2.49-2.497a.206.206 0 0 1 0-.29l2.421-2.429-.865-3.236a.206.206 0 0 1 .146-.252l3.355-.902.874-3.27a.206.206 0 0 1 .252-.146l3.174.853 2.408-2.414a.21.21 0 0 1 .29 0l2.437 2.442 3.282-.882a.205.205 0 0 1 .251.146l.023.086a.203.203 0 0 1 .011.04l.84 3.144 3.356.902c.11.03.174.142.145.252l-.894 3.344 2.257 2.263a.205.205 0 0 1 .171.158zm-2.619 2.12 1.346-1.348-1.517.707.171.642zm.491 3.427-.703-2.632-1.397 1.4v.001zm-2.21-.82-.495 1.852 2.505-.673-2.01-1.178zm-1.798 5.136.723-2.703-1.974.53zm-2.504-1.125-.507.509 1.989.534zm-3.179 2.606 1.88-1.885-1.88-.505zm-.41-2.353-1.851.497 1.85 1.856v-2.353zm-5.189.968 2.546-.683-1.364-1.368zm-1.08-2.799.565 2.114.17-1.916zm-3.09-1.255 2.51.674-.5-1.867zm1.807-1.55-1.328-1.332-.674 2.52zm-3.48-4.07 1.94 1.944.519-1.944zm2.08-1.575-.209-.78-1.634 1.638zm-.672-4.102.675 2.527 1.35-1.353zm2.338.86.516-1.928-2.65.712 2.121 1.229zm1.772-5.04-.676 2.53 1.847-.496-1.171-2.033zm2.342.916.489-.49-1.916-.515zm3.172-2.598-1.89 1.895 1.89.508zm.41 2.44 1.92-.516-1.92-1.924zm5.396-1.024-2.684.72 1.438 1.443zm.303 2.628.628.168-.483-1.807zm3.85 1.46-2.642-.71.51 1.912 2.131-1.203zm-1.925 1.557 1.432 1.435.707-2.643zm3.442 4.031-1.797-1.801-.482 1.801zm-2.366.411.22.825 1.771-.825h-1.99zm-.31 1.072.153-.07-.067-.25-.085.32zm-.138.518-.45 1.681 1.063-1.065-.214-.802zm-1.241 3.057-2.283 2.288 1.8-.483zm-2.867 2.293 3.079-3.087.544-2.037-5.183 2.415zm-.088.67-.582.583 1.544 1.087zm-1.091.225.168.118.223-.224zm-.517.138-1.792.482 1.559.419.624-.626-.39-.275zm-3.377.482-2.887-.776 1.22 1.224zm-4.557-1.868-.02.213.317.085zm-.379-.38-1.369-1.37.432 1.617.895.24.042-.485zm-2.161-2.747-.724-2.708-.418 1.563zm-1.025-3.835-.204-.761-1.633.76h1.837zm.464-1.073-.29.136.127.476zm.139-.517.54-2.022-1.328 1.332.251.94zm1.332-3.398 1.859-1.863-1.466.394-.393 1.47zm2.684-2.69.556-.557-1.476-1.039zm1.16-.132-.263-.185-.35.35zm.517-.139 1.826-.49-1.706-.458-.606.606zm3.41-.49 2.77.744-1.17-1.173zm4.577 1.974.028-.312-.463-.124zm.378.38 1.282 1.285-.443-1.657-.787-.212zm2.074 2.66.792 2.964.458-1.711-1.25-1.252zm-5.774 6.861.468.813 5.528-2.575.347-1.298h-3.215l-.163 1.834a.205.205 0 0 1 -.38.087l-.998-1.69zm-.784 1.397.879-.41-.329-.57zm-3.486-.37 4.887 3.44 1.283-.345-1.6-2.777-1.488.694a.205.205 0 0 1 -.265-.288l.933-1.663-3.23.036-.52.902zm-.206.357-1.57 2.724 4 1.074 2.146-.577zm.249-1.255-1.297.015.917.645zm-2.59-3.154-.532 6.018.934.935 1.602-2.782-1.468-1.032a.206.206 0 0 1 .116-.374l1.984-.023-1.62-2.742h-1.015zm-.41 0h-3.2l1.07 4.005 1.63 1.633zm1.182-.411-.639-1.082-.096 1.082zm1.45-3.822-5.416 2.524-.347 1.298h3.167l.155-1.754a.206.206 0 0 1 .38-.087l1.003 1.697 1.567-2.793-.51-.885zm-.206-.357-1.63-2.829-2.807 2.815-.635 2.377zm5.007.162-4.95-3.485-1.296.349 1.612 2.8 1.6-.746a.205.205 0 0 1 .265.288l-.936 1.668 3.222-.036zm.206-.358 1.591-2.763-4.05-1.088-2.18.586zm-.212 1.19 1.17-.012-.827-.583-.343.596zm2.516 3.561h-.79l.687 1.162zm-6.568-3.73.62-1.103-.99.461.37.643zm3.563 6.467 1.634-2.914-1.745-2.954-.005-.011-3.327.037-1.68 2.994 1.705 2.883 3.398-.038c.007 0 .013.002.02.003zm3.942-8.664-.489 5.516h3.092l-1.062-3.97zm-.9 5.516.522-5.896-.947-.949-1.58 2.742 1.38.97a.206.206 0 0 1 -.116.375l-1.945.021 1.617 2.737h1.068zm.633-7.157.16-1.803-.92 1.598zm-10.838 14.784-.165 1.858.95-1.648z" fill="#fff"/></g></svg>