<svg width="32" height="33" viewBox="0 0 32 33" fill="none" xmlns="http://www.w3.org/2000/svg">
<g clip-path="url(#clip0)">
<path d="M16 32.7835C24.8365 32.7835 32 25.62 32 16.7835C32 7.94696 24.8365 0.783508 16 0.783508C7.16345 0.783508 0 7.94696 0 16.7835C0 25.62 7.16345 32.7835 16 32.7835Z" fill="white"/>
<path fill-rule="evenodd" clip-rule="evenodd" d="M14.8524 29.7835H17.315C15.1022 26.2324 12.9073 22.6634 10.6945 19.1123C10.3555 18.5769 10.2662 18.0773 10.5161 17.4348C10.641 17.1315 10.8908 16.846 11.1228 16.6318C11.0514 16.5426 10.98 16.4355 10.9087 16.3285C10.5518 15.7753 10.3019 15.1685 10.1413 14.5261C7.91073 15.6147 7.41107 17.8096 8.6959 19.9867L14.8524 29.7835ZM13.9066 21.9674C15.352 22.128 16.6904 22.128 18.118 21.9674C19.8668 21.7711 21.4371 21.3607 22.4008 20.7183C23.4179 20.058 24.096 19.0052 24.096 17.7739C24.096 16.3463 23.2216 15.2399 22.026 14.5975C21.919 15.1328 21.7405 15.6325 21.5085 16.0786C21.3836 16.3285 21.2409 16.5604 21.0624 16.7746C21.3301 17.0601 21.5799 17.417 21.5799 17.756C21.5799 18.3271 20.9375 18.9517 20.4557 19.2193C19.9025 19.5227 19.0995 19.719 18.4749 19.7904C17.654 19.8796 16.8332 19.9153 16.0123 19.9331C15.584 19.9331 15.1201 19.9153 14.6918 19.8796C13.9601 19.8439 13.175 19.7904 12.4612 19.5941L13.9066 21.9674Z" fill="#020202"/>
<path fill-rule="evenodd" clip-rule="evenodd" d="M16.1015 3.78351C18.3143 7.40602 17.547 9.56525 17.2436 10.9215C16.7796 13.0272 19.4385 13.7231 19.6348 11.2784C19.6883 10.7073 19.6527 10.0471 19.617 9.42249C22.3472 13.8123 20.5627 17.7739 16.1015 17.7739C12.3541 17.7739 10.2484 14.3477 11.7295 10.9393C11.5689 12.7416 12.8359 13.3305 12.6218 12.4918C12.5682 12.2777 12.4612 11.9208 12.3719 11.1891C12.0329 7.69154 16.3335 6.79929 16.1015 3.78351Z" fill="#EA7437"/>
</g>
<defs>
<clipPath id="clip0">
<rect width="32" height="32" fill="white" transform="translate(0 0.783508)"/>
</clipPath>
</defs>
</svg>
