<svg width="32" height="32" viewBox="0 0 32 32" fill="none" xmlns="http://www.w3.org/2000/svg">
<path d="M32 16C32 24.8365 24.8365 32 16 32C7.1635 32 0 24.8365 0 16C0 7.1635 7.1635 0 16 0C24.8365 0 32 7.1635 32 16Z" fill="white"/>
<path d="M16.7512 28.6056C16.6288 28.7305 16.4835 28.8297 16.3235 28.8973C16.1635 28.965 15.992 28.9999 15.8188 29C15.6456 29.0001 15.4741 28.9654 15.314 28.898C15.1539 28.8306 15.0085 28.7316 14.8859 28.6069L14.8847 28.6056L11.915 25.5795L6.78538 25.594L4.85718 23.2983H12.8637C13.2137 23.2984 13.5494 23.4397 13.7974 23.6913L15.8188 25.7518L19.9207 21.5714V25.3759L16.7512 28.6056Z" fill="#093252"/>
<path d="M28.2038 14.8358C28.449 15.0829 28.587 15.4181 28.5873 15.7678C28.5877 16.1175 28.4504 16.4531 28.2056 16.7006L28.2038 16.7024L25.2613 19.6726L25.2763 24.8024L23.0436 26.7302V18.7238C23.0441 18.3737 23.1819 18.038 23.427 17.7901L25.4293 15.7691L21.3651 11.6667H25.0643L28.2038 14.8358Z" fill="#0872BA"/>
<path d="M3.38371 16.9575C3.26228 16.8352 3.1659 16.6901 3.10006 16.5302C3.03422 16.3704 3.00022 16.199 3 16.0259C2.99978 15.8528 3.03334 15.6814 3.09877 15.5214C3.1642 15.3613 3.26022 15.2159 3.38134 15.0933L3.38371 15.0909L6.32565 12.1217L6.31109 6.99168L8.54377 5.06348V13.07C8.54339 13.42 8.40572 13.7555 8.16086 14.0033L6.15769 16.0251L10.2222 20.127H6.52273L3.38371 16.9575Z" fill="#093252"/>
<path d="M14.8358 3.39464C15.0827 3.1424 15.4178 3.00045 15.7674 3C16.117 2.99956 16.4525 3.14066 16.7 3.39227L16.7023 3.39467L19.6726 6.42065L24.8023 6.40572L26.7301 8.70174H18.7238C18.3737 8.7012 18.0381 8.55962 17.7901 8.30788L15.7686 6.2479L11.6666 10.4286V6.62379L14.8358 3.39464Z" fill="#0A3353"/>
<path d="M18.904 17.24C18.904 17.756 18.74 18.19 18.412 18.542C18.088 18.89 17.64 19.118 17.068 19.226V20.18H15.64V19.256C14.832 19.16 14.196 18.92 13.732 18.536L14.164 17.564C14.276 17.668 14.434 17.778 14.638 17.894C14.842 18.006 15.076 18.102 15.34 18.182C15.604 18.258 15.872 18.296 16.144 18.296C16.476 18.296 16.756 18.222 16.984 18.074C17.216 17.922 17.332 17.684 17.332 17.36C17.332 17.18 17.264 17.028 17.128 16.904C16.996 16.78 16.834 16.68 16.642 16.604C16.45 16.524 16.2 16.44 15.892 16.352C15.476 16.232 15.116 16.088 14.812 15.92C14.508 15.752 14.26 15.526 14.068 15.242C13.876 14.954 13.78 14.596 13.78 14.168C13.78 13.848 13.852 13.556 13.996 13.292C14.144 13.024 14.356 12.798 14.632 12.614C14.912 12.43 15.248 12.304 15.64 12.236V11.072H17.068V12.242C17.408 12.306 17.704 12.404 17.956 12.536C18.212 12.668 18.392 12.8 18.496 12.932L18.016 13.856C17.968 13.792 17.864 13.71 17.704 13.61C17.544 13.506 17.354 13.416 17.134 13.34C16.918 13.26 16.7 13.22 16.48 13.22C16.14 13.22 15.854 13.294 15.622 13.442C15.394 13.59 15.28 13.804 15.28 14.084C15.28 14.384 15.41 14.614 15.67 14.774C15.93 14.93 16.256 15.052 16.648 15.14C17.316 15.296 17.858 15.552 18.274 15.908C18.694 16.264 18.904 16.708 18.904 17.24Z" fill="#0A3353"/>
</svg>
