<svg xmlns="http://www.w3.org/2000/svg" width="32" height="32"><g fill="none"><circle cx="16" cy="16" r="16" fill="#FF8C00"/><path fill="#FFF" d="M22.59 19.445c.051.401-.063.556-.19.556s-.305-.155-.495-.465c-.19-.31-.267-.66-.165-.84.063-.117.203-.169.368-.104.33.13.457.633.482.853zm-1.777.88c.393.336.508.723.304 1.008a.664.664 0 0 1-.52.232.896.896 0 0 1-.597-.22c-.355-.31-.457-.827-.229-1.111a.489.489 0 0 1 .407-.181c.203 0 .432.09.635.271zM7 14.894C7 9.981 10.91 6 15.734 6c4.825 0 8.735 3.982 8.735 8.894a9.074 9.074 0 0 1-1.231 4.564c-.026.039-.09.026-.102-.026-.304-2.185-1.612-3.387-3.516-3.749-.166-.026-.191-.13.025-.155.584-.052 1.409-.039 1.84.039.026-.22.039-.453.039-.686 0-3.245-2.59-5.882-5.777-5.882-3.186 0-5.776 2.637-5.776 5.882 0 3.246 2.59 5.883 5.776 5.883h.267a8.078 8.078 0 0 1-.115-1.59c.013-.362.09-.414.242-.13.8 1.41 1.942 2.677 4.177 3.18 1.828.415 3.656.893 5.624 3.44.177.22-.089.452-.292.271-2.006-1.81-3.834-2.405-5.497-2.405-1.867.014-3.136.26-4.419.26C10.91 23.79 7 19.806 7 14.893z"/></g></svg>