<svg height="32" viewBox="0 0 32 32" width="32" xmlns="http://www.w3.org/2000/svg"><g fill="none" fill-rule="evenodd"><circle cx="16" cy="16" fill="#252525" r="16"/><path d="m25.6278511 21.2087325c.2049872.0013513.370839.172459.3721489.3839421v1.9073254h-6.2785114l-.0240096-1.6596208c.0007747-.1104868.0491713-.2148864.1320528-.2848603.0249207-.0319206.0530936-.0609862.0840336-.0866966 2.7672019-1.9293541 3.8310109-5.6047528 2.542336-8.7836238-1.2886749-3.17887099-4.5720051-4.97853168-7.846642-4.30090551-3.2746368.67762617-5.63130623 3.64438161-5.63206852 7.09007801-.00197797 2.3551912 1.12057912 4.5602718 3.00120052 5.8953694.0405888.0228027.0739361.0572067.0960384.0990819.1377542.0631797.2269569.2036458.2280912.3591717l-.0240096 1.6596208h-6.2785114v-1.9073254c0-.2120454.16661672-.3839422.37214886-.3839422s.37214886.1718968.37214886.3839422v1.1518263h4.80192078l.0120048-.7183433h-.0120048c-2.76123555-2.0013933-3.9466701-5.6182496-2.92938728-8.9377965 1.01728282-3.31954685 4.00259928-5.5759759 7.37716638-5.5759759s6.3598836 2.25642905 7.3771664 5.5759759c1.0172828 3.3195469-.1681518 6.9364032-2.9293873 8.9377965l.0120048.7307286h4.8019208v-1.1518264c.0013098-.2114831.1671617-.3825908.3721488-.3839421zm-4.9579832-5.1757877c.8283314 1.0527446 1.0804322 1.9940221.7202882 2.6132836-.2761105.4830239-.8643458.7431138-1.7166867.7431138-.535411-.01304-1.0673936-.0920398-1.5846339-.2353194-.4681872 1.6348504-1.2244898 2.6875949-2.0888355 2.6875949s-1.6206483-1.0527445-2.0768307-2.6875949c-.5172403.1432796-1.0492229.2222794-1.5846339.2353194-.8523409 0-1.4405762-.2600899-1.7166867-.7431138-.4441776-.7678843.060024-1.9692516 1.212485-3.1953894-.1739851-.1805318-.3382949-.3707212-.4921968-.5697205-.8283314-1.0527446-1.0804322-1.9816368-.7202882-2.6256688.2761105-.483024.8643458-.7431138 1.7166867-.7431138.535411.0130399 1.0673936.0920398 1.5846339.2353194.4681872-1.6348504 1.2244898-2.68759493 2.0888355-2.68759493s1.6206483 1.05274453 2.0768307 2.69998013c.5172403-.1432796 1.0492229-.2222794 1.5846339-.2353194.8523409 0 1.4405762.2600899 1.7166867.7431138.360144.644032.1080432 1.5729242-.7202882 2.6256688-.1539019.1989993-.3182117.3891887-.4921968.5697206.1739851.1805318.3382949.3707212.4921968.5697205zm-.9843937-4.0499702c-.4980577.0157623-.9930604.0863453-1.4765906.210549.1287353.5878223.2209597 1.1835252.2761104 1.7834731.4743907.3507692.9274264.7313009 1.3565426 1.1394411.1680672-.1733932.3241297-.3591716.4681873-.5325649.6842737-.8793513.9363745-1.6348503.6842737-2.0931038-.2280912-.4210978-.8403361-.5077945-1.3085234-.5077945zm-2.6410564 5.3380342c.3481392-.2105489.6842737-.4334831.9963985-.6564172.0360144-.3963274.0480192-.7926547.0480192-1.2137526 0-.4210978-.0240096-.8298104-.0480192-1.2137525-.3121248-.2229341-.6482593-.4334831-.9963985-.644032-.3481393-.1981636-.6962785-.3839421-1.0444178-.5573353-.357681.1660947-.7063358.3521483-1.0444178.5573353-.360144.2105489-.6842737.4210979-.9963985.644032-.0360144.3839421-.0480192.7926547-.0480192 1.2137525 0 .4210979.0240096.8298104.0480192 1.2137526.3121248.2229341.6482593.433483.9963985.6440319.3481393.2105489.6962785.3963274 1.0444178.5697206.357681-.1660947.7063358-.3521483 1.0444178-.5573353zm.9483793-.0371557c-.240096.1486227-.4681873.2972455-.7082833.4458683-.240096.1486227-.4801921.2848602-.7202881.4087125.3948028.177919.7997089.3309515 1.212485.4582536.0840336-.4087126.1560624-.8421957.2160864-1.3128344zm-2.5330132.8545808-.7202881-.4087125c-.240096-.1486228-.4801921-.2972456-.7082833-.4458683.0426208.4422256.1148217.8808827.2160864 1.3128344.4121245-.1293169.816918-.2823068 1.212485-.4582536zm-1.9687875-1.833014c-.0120048-.2724751-.0240096-.5573353-.0240096-.8545809 0-.2972455.0120048-.5697205.0240096-.8545808-.3490064.263244-.6817834.5486567-.9963986.8545808.316664.3035282.6493013.5888211.9963986.8545809zm.5402161-2.6628244c.2280912-.161008.4441777-.2972456.6962785-.4458683.2521008-.1486228.4921969-.2848603.7322929-.4087126-.3948028-.177919-.7997089-.3309515-1.212485-.4582535-.0840336.4087126-.1560624.8421956-.2160864 1.3128344zm2.5210084-.8545809c.240096.1238523.4801921.2600898.7202881.4087126.240096.1486227.4801921.2972455.7082833.4458683-.0426208-.4422257-.1148217-.8808827-.2160864-1.3128344-.4121245.1293168-.816918.2823068-1.212485.4582535zm1.9807923 1.8206288c.0120048.2848603.0240096.5573353.0240096.8545809 0 .2972455-.0120048.5821058-.0240096.8545808.3481393-.2848603.6842737-.5697205.9843938-.8545808-.309408-.3070567-.6382647-.5925468-.9843938-.8545809zm-2.5210084-5.0779443c-.6122449 0-1.2364946.8669661-1.6446579 2.3395699.5613022.1772762 1.1107053.3924171 1.6446579.644032.5339825-.2511936 1.0833851-.4659205 1.6446579-.6427934-.4081633-1.4738424-1.0444178-2.3408085-1.6446579-2.3408085zm-4.9819928 2.96007c-.2641056.4582535-.0120048 1.2261377.6842737 2.0794801.1440576.1857784.3001201.3591717.4681873.5449501.4272178-.4100138.8803991-.7902541 1.3565426-1.1382026.0551507-.5999479.1473751-1.1956508.2761105-1.7834731-.4825329-.1294613-.9781108-.2001263-1.4765907-.210549-.4681873 0-1.0684274.0866967-1.3085234.5077945zm1.3085234 6.4403196c.4994554-.0093754.9956899-.0847126 1.4765907-.2241727-.128685-.5874149-.2209092-1.1827024-.2761105-1.7822346-.4832874-.3437947-.9407661-.7246877-1.3685474-1.1394412-1.032413 1.1022855-1.4405762 2.0931039-1.1404562 2.638054.2280912.4210979.8403361.5077945 1.3085234.5077945zm3.6734694 2.4522755c.6002401 0 1.2364946-.8669661 1.6446579-2.3408085-.5613021-.1772761-1.1107053-.392417-1.6446579-.6440319-.5339526.2516149-1.0833557.4667558-1.6446579.6440319.4081633 1.4738424 1.0444178 2.3408085 1.6446579 2.3408085zm4.9819928-2.96007c.2521008-.4458682 0-1.2137525-.6842737-2.0931038-.1440576-.1733933-.3001201-.3591717-.4681873-.5325649-.4271801.4104393-.8803623.791094-1.3565426 1.1394411-.0551507.5999479-.1473751 1.1956508-.2761104 1.7834732.4825328.1294612.9781107.2001262 1.4765906.2105489.4681873 0 1.0684274-.0866966 1.3085234-.5077945zm-4.9819928-4.7806987c.9699512-.0000232 1.7581076.8075781 1.7647059 1.8082435-.0000227.997048-.782307 1.8059358-1.7487269 1.8081965-.9664199.0022608-1.7522517-.8029586-1.7566571-1.7999962-.0044053-.9970376.7742784-1.8096147 1.7406781-1.8164438zm0 3.1582336c.7138699-.0053958 1.2912886-.6011127 1.2965186-1.3376048 0-.7387388-.5804711-1.3376049-1.2965186-1.3376049s-1.2965186.5988661-1.2965186 1.3376049c0 .7387387.5804711 1.3376048 1.2965186 1.3376048z" fill="#fff" fill-rule="nonzero"/></g></svg>