<svg width="32" height="32" viewBox="0 0 32 32" version="1.1" xmlns="http://www.w3.org/2000/svg" xmlns:xlink="http://www.w3.org/1999/xlink"><title>svg/color/rap</title><desc>Created with Sketch.</desc><g id="color/rap" stroke="none" stroke-width="1" fill="none" fill-rule="evenodd"><g id="Group" fill="#000" fill-rule="nonzero"><circle id="Oval" cx="16" cy="16" r="16"/></g><g id="Rapture-(RAP)" transform="translate(9.000000, 6.000000)" fill="#FFF" fill-rule="nonzero"><path d="M3.47826087,0.434782609 L3.47826087,19.9130435 L0,19.9130435 L0,0 L3.47826087,0 L3.47826087,0.434782609 Z M5.95652174,0 L7.91304348,0 C11.9565217,0 14.6521739,2.56521739 14.6521739,6.2173913 C14.6521739,9.17391304 13.0434783,11.4347826 10.1304348,12.173913 L15.2173913,19.9130435 L11.1304348,19.9130435 L4.17391304,9.13043478 L7.52173913,9.13043478 C9.73913043,9.13043478 11.1304348,8.13043478 11.1304348,6.17391304 C11.1304348,4.2173913 9.73913043,3.2173913 7.52173913,3.2173913 L6,3.2173913 L6,0 L5.95652174,0 Z" id="Shape"/></g></g></svg>