<?xml version="1.0" encoding="utf-8"?>
<!-- Generator: Adobe Illustrator 24.1.2, SVG Export Plug-In . SVG Version: 6.00 Build 0)  -->
<svg
	version="1.1"
	id="katman_1"
	xmlns="http://www.w3.org/2000/svg"
	xmlns:xlink="http://www.w3.org/1999/xlink"
	x="0px"
	y="0px"
	viewBox="0 0 32 32"
	xml:space="preserve"
>
	<style type="text/css">
		.st0 {
			fill: url(#SVGID_1_);
		}
		.st1 {
			fill: url(#SVGID_2_);
		}
		.st2 {
			fill: url(#SVGID_3_);
		}
		.st3 {
			fill: url(#SVGID_4_);
		}
	</style>
	<g>
		<linearGradient
			id="SVGID_1_"
			gradientUnits="userSpaceOnUse"
			x1="151.6273"
			y1="-337.2337"
			x2="122.2375"
			y2="-325.4808"
			gradientTransform="matrix(1 0 0 1 -120.9449 347.3622)"
		>
			<stop offset="0" style="stop-color: #7d4695" />
			<stop offset="0.4897" style="stop-color: #4267b0" />
			<stop offset="0.4898" style="stop-color: #4368b0" />
			<stop offset="1" style="stop-color: #60bfbb" />
		</linearGradient>
		<path
			class="st0"
			d="M28.4,12v11.2L16,30.3L3.6,23.2V8.8L16,1.7l9.5,5.5L27,6.3L16,0L2.1,8v16L16,32l13.9-8V11.2L28.4,12z"
		/>

		<linearGradient
			id="SVGID_2_"
			gradientUnits="userSpaceOnUse"
			x1="151.0565"
			y1="-338.6609"
			x2="121.6668"
			y2="-326.908"
			gradientTransform="matrix(1 0 0 1 -120.9449 347.3622)"
		>
			<stop offset="0" style="stop-color: #7d4695" />
			<stop offset="0.4897" style="stop-color: #4267b0" />
			<stop offset="0.4898" style="stop-color: #4368b0" />
			<stop offset="1" style="stop-color: #60bfbb" />
		</linearGradient>
		<path
			class="st1"
			d="M12.5,23.2h-2.1v-7h6.9c0.7,0,1.3-0.3,1.7-0.7c0.5-0.5,0.7-1.1,0.7-1.7c0-0.3-0.1-0.6-0.2-0.9
		c-0.1-0.3-0.3-0.6-0.5-0.8c-0.2-0.2-0.5-0.4-0.8-0.5c-0.3-0.1-0.6-0.2-0.9-0.2h-6.9V9.1h6.9c1.2,0,2.4,0.5,3.2,1.4
		c0.9,0.9,1.3,2,1.4,3.2c0,0.9-0.3,1.8-0.8,2.6c-0.5,0.7-1.2,1.3-2,1.6c-0.8,0.3-1.6,0.4-2.5,0.4h-4.2V23.2z"
		/>

		<linearGradient
			id="SVGID_3_"
			gradientUnits="userSpaceOnUse"
			x1="153.9984"
			y1="-331.3043"
			x2="124.6086"
			y2="-319.5514"
			gradientTransform="matrix(1 0 0 1 -120.9449 347.3622)"
		>
			<stop offset="0" style="stop-color: #7d4695" />
			<stop offset="0.4897" style="stop-color: #4267b0" />
			<stop offset="0.4898" style="stop-color: #4368b0" />
			<stop offset="1" style="stop-color: #60bfbb" />
		</linearGradient>
		<path
			class="st2"
			d="M21.9,23h-2.4l-1.9-3.3c0.7,0,1.5-0.2,2.2-0.4L21.9,23z"
		/>

		<linearGradient
			id="SVGID_4_"
			gradientUnits="userSpaceOnUse"
			x1="150.8662"
			y1="-339.1308"
			x2="121.4765"
			y2="-327.3779"
			gradientTransform="matrix(1 0 0 1 -120.9449 347.3622)"
		>
			<stop offset="0" style="stop-color: #7d4695" />
			<stop offset="0.4897" style="stop-color: #4267b0" />
			<stop offset="0.4898" style="stop-color: #4368b0" />
			<stop offset="1" style="stop-color: #60bfbb" />
		</linearGradient>
		<path
			class="st3"
			d="M27,9.7l1.4,0.8l1.4-0.8V8l-1.4-0.8L27,8L27,9.7L27,9.7z"
		/>
	</g>
</svg>
