<?xml version="1.0" encoding="UTF-8"?><svg id="a" xmlns="http://www.w3.org/2000/svg" viewBox="0 0 115.79176 106.58205"><circle cx="53.29103" cy="53.29103" r="53.29103" style="fill:#fff;"/><circle cx="53.29103" cy="53.29103" r="46.64" style="fill:#ff9931;"/><path d="M108.87654,23.74726c-2.45668-1.05583-6.04248-2.24315-9.94234-2.38346-3.20397-.11829-6.09527,.50203-8.58465,1.84005-.50673,.27449-.98965,.57288-1.44339,.89144-3.98904,2.79447-6.02668,7.20765-7.04697,10.58285l-.43766,1.44507,1.32782-.7078,7.01133-3.75379c.4387-.2399,.929-.35444,1.42735-.33778,.98662,.0362,1.86377,.56924,2.35204,1.42886,.00735,.01103,.01559,.01747,.01839,.02762l.03857,.07001c.04516,.08573,.08473,.17514,.11985,.26367l.00007,.00021,16.16493-8.95349c-.14752-.06742-.8487-.34427-1.00533-.41347Z" style="fill:#006e3c;"/><path d="M106.31604,34.58118c-8.00879,13.23623-22.27605,6.64312-22.27605,6.64312l5.1472-2.7615c.43012-.25538,3.23647-1.73456,3.23647-1.73456,2.46769-1.56424,1.06138-4.00389,1.17336-3.76697l16.28485-8.80053s-.31784,5.05246-3.56583,10.42045Z" style="fill:#06b23c;"/><path d="M114.27223,20.00603c-.70624-.4129-7.22095-4.11737-15.12379-4.40394-4.20508-.15252-8.06788,.69859-11.45542,2.52678-1.13434,.61157-2.16536,1.30116-3.10489,2.05674-7.13491,5.70727-8.98195,14.95384-9.45759,19.01734l-.03833,.32371-.28607,.1596-2.09478,1.11622c-2.00011-2.05198-4.98632-3.55548-7.27381-4.1843l-.40409-.11094,2.09146-8.328-4.96855-1.28474-2.07573,8.26534c-1.29325-.34877-2.54361-.68357-3.74351-1.00301l2.06745-8.23243-4.96858-1.28474-2.0611,8.20726c-6.02996-1.57813-9.89087-2.53875-9.89087-2.53875,0,0-.83237,4.17436-1.19216,5.17702,0,0,1.02363,.24778,2.12703,.57054,.72401,.21179,4.27601,.59207,3.0906,4.99478-.66546,2.4715-4.54245,19.04188-4.84515,20.17469-.35196,1.31709-.71252,2.05793-2.34683,1.69355-2.54337-.56711-3.96513-.88336-3.96513-.88336l-2.48766,5.93103c.90458,.31058,4.02495,1.0328,9.94662,2.53178l-2.05548,8.18475,4.96858,1.28474,2.05807-8.19508c1.1724,.30435,2.42411,.63204,3.74879,.98201l-2.0551,8.18318,4.96855,1.28471,2.08867-8.31683c5.77843,1.0746,9.1089,.73402,9.89905,.58759,4.82351-.89375,6.87527-4.60449,7.76505-8.14705,2.5067-9.98024-5.71046-10.85915-4.67103-11.06919,4.59978-.9295,6.79892-5.32569,6.54897-9.23026l2.34821-1.25481,.29066-.15872,.28227,.15651c3.07608,1.60047,7.8928,3.54904,13.36152,3.74914,3.47717,.12417,6.73813-.50003,9.71303-1.85272,.41969-.19086,.83303-.39736,1.23902-.61493,11.71945-6.3008,13.23522-21.6471,13.36721-23.37328l.11437-1.7825-1.51953-.9094Zm-50.92172,44.2718c-1.36611,5.43978-10.59007,2.69638-10.59007,2.69638l-4.38044-1.13264,2.73222-10.87956,5.2322,1.3529s8.54122,1.85017,7.00609,7.96292Zm1.64249-16.21485c-1.25319,4.99016-8.93275,2.67573-8.93275,2.67573l-3.65036-.94388,2.50642-9.98031,4.36015,1.12742s7.12477,1.51355,5.71653,7.12104Zm44.71588-23.47466l-.00697,.06102c-.80922,4.521-3.19131,12.6587-10.05281,16.34602-.0582,.03172-.12082,.06259-.18354,.0934-2.35428,1.22548-5.02261,1.79374-7.93502,1.68494-1.94591-.06693-3.9799-.43933-6.06363-1.09515l-1.4269-.45425,1.31871-.70965,7.06495-3.78642c.65935-.35479,1.15346-.95824,1.37905-1.69145,.07155-.24991,.1085-.49226,.1144-.7455,.01521-.40027-.04978-.80193-.20024-1.17727-.03512-.08853-.07473-.17794-.11985-.26367l-.03857-.07001c-.00279-.01015-.01104-.01659-.01839-.02762-.48827-.85962-1.36542-1.39267-2.35207-1.42886-.49831-.01666-.98862,.09788-1.42731,.33778l-7.01133,3.75379-1.32785,.7078,.4377-1.44507c1.02029-3.3752,3.05793-7.78837,7.04697-10.58285,.45374-.31856,.93663-.61696,1.44339-.89144,2.48938-1.33802,5.38068-1.95834,8.58465-1.84005,3.89982,.14031,7.48567,1.32763,9.94234,2.38346,.15697,.06935,.31036,.13324,.45819,.2008l.43704,.21267-.06289,.42761Z" style="fill:#fff;"/></svg>