<svg xmlns="http://www.w3.org/2000/svg" width="32" height="32" viewBox="0 0 32 32">
  <g fill="none" fill-rule="evenodd">
    <circle cx="16" cy="16" r="16" fill="#E30613"/>
    <g fill="#FFF" transform="translate(5 5)">
      <path d="M10.3614336,22 C4.63897185,22 0,17.4073947 0,11.7421289 C0,6.07686318 4.63897185,1.48425787 10.3614336,1.48425787 C16.0838954,1.48425787 20.7228672,6.07686318 20.7228672,11.7421289 C20.7228672,17.4073947 16.0838954,22 10.3614336,22 Z M12.1490863,4.42297851 C14.5647552,5.4116042 16.3014336,7.2722039 17.5330338,9.78081959 L18.463786,9.1337931 C17.4188693,6.62242879 15.4898435,4.64803598 12.3869662,3.36750625 L12.1490863,4.42297851 Z" opacity=".75"/>
      <path fill-rule="nonzero" d="M21.991893,4.32149925 C21.991893,1.93503248 20.0373246,0 17.6267643,0 C15.2162039,0 13.2616355,1.93503248 13.2616355,4.32149925 C13.2616893,4.54881447 13.2797354,4.77577603 13.3156083,5.00029985 C14.7687633,5.84687656 15.9365068,7.0609995 16.869369,8.57681159 C17.1196129,8.62048898 17.3732165,8.64256096 17.6273195,8.64277861 C20.0373246,8.6429985 21.991893,6.70818591 21.991893,4.32149925 Z"/>
    </g>
  </g>
</svg>
