<svg height="32" width="32" xmlns="http://www.w3.org/2000/svg"><g fill="none" fill-rule="evenodd"><circle cx="16" cy="16" fill="#e30613" r="16"/><g fill="#fff"><path d="m15.361 27c-5.721 0-10.361-4.593-10.361-10.258s4.639-10.258 10.361-10.258c5.723 0 10.362 4.593 10.362 10.258s-4.64 10.258-10.363 10.258zm1.789-17.577c2.416.989 4.152 2.85 5.384 5.358l.93-.647c-1.044-2.512-2.973-4.486-6.076-5.766z" opacity=".75"/><path d="m26.992 9.321c0-2.386-1.955-4.321-4.365-4.321s-4.365 1.935-4.365 4.321c0 .228.018.455.054.68 1.453.846 2.62 2.06 3.553 3.576.25.043.504.066.758.066 2.41 0 4.365-1.935 4.365-4.322z" fill-rule="nonzero"/></g></g></svg>