<?xml version="1.0" encoding="UTF-8"?>
<svg width="32px" height="32px" viewBox="0 0 32 32" version="1.1" xmlns="http://www.w3.org/2000/svg" xmlns:xlink="http://www.w3.org/1999/xlink">
    <!-- Generator: Sketch 53 (72520) - https://sketchapp.com -->
    <title>svg/color/ren</title>
    <desc>Created with Sketch.</desc>
    <g id="color/ren" stroke="none" stroke-width="1" fill="none" fill-rule="evenodd">
        <g id="Group" fill="#001B3A" fill-rule="nonzero">
            <circle id="Oval" cx="16" cy="16" r="16"></circle>
        </g>
        <g id="ren" transform="translate(6.000000, 5.000000)" fill="#FFFFFF" fill-rule="nonzero">
            <path d="M3.02609687,4.63566952 L2.79794872,4.26210826 L-1.24344979e-14,5.87168091 L-1.24344979e-14,5.62849003 L9.74267806,-4.09006162e-13 L9.95327635,0.13037037 L10.3945299,0.373561254 L10.8332764,0.634301994 L4.86381766,4.08159544 L4.63566952,3.70803419 L3.02609687,4.63566952 Z M3.02609687,8.18074074 L2.79794872,7.80717949 L-2.66453526e-14,9.41675214 L-2.66453526e-14,9.1560114 L12.8164103,1.77253561 L13.0295157,1.90290598 L13.4682621,2.14609687 L13.9070085,2.40683761 L7.92,5.85663818 L7.70940171,5.4805698 L3.02609687,8.18074074 Z M3.02609687,9.95327635 L2.79794872,9.56467236 L1.59872116e-14,11.1892877 L1.59872116e-14,10.9310541 L14.345755,2.65002849 L14.5563533,2.78039886 L14.9976068,3.0411396 L15.4363533,3.28683761 L9.44934473,6.73413105 L9.23874644,6.3605698 L3.02609687,9.95327635 Z M3.02609687,11.7107692 L2.79794872,11.337208 L1.77635684e-15,12.9467806 L1.77635684e-15,12.7035897 L15.8750997,3.54507123 L16.085698,3.66039886 L16.5244444,3.91863248 L16.965698,4.16433048 L11.0288319,7.5965812 L10.8157265,7.22051282 L3.02609687,11.7107692 Z M3.02609687,13.4833048 L2.79794872,13.1097436 L-1.24344979e-14,14.7193162 L-1.24344979e-14,14.4761254 L17.4044444,4.42507123 L17.6325926,4.55293447 L18.0537892,4.79863248 L18.4950427,5.05937322 L12.5581766,8.49162393 L12.3450712,8.10051282 L3.02609687,13.4833048 Z M19.1594302,5.43293447 L19.4853561,5.62849003 L19.4853561,5.7588604 L19.4853561,6.26279202 L12.5581766,10.2466097 L12.3450712,9.87304843 L3.02609687,15.2558405 L2.79794872,14.8822792 L1.24344979e-14,16.4918519 L1.24344979e-14,16.248661 L18.9337892,5.3025641 L19.1594302,5.43293447 Z M1.2034188,17.5674074 L0.992820513,17.437037 L19.4853561,6.76672365 L19.4853561,7.00991453 L19.4853561,7.51384615 L19.4853561,8.01777778 L12.5230769,12.0517379 L12.2974359,11.6631339 L2.99350427,17.0459259 L2.76535613,16.6723647 L1.2034188,17.5674074 Z M12.2974359,13.4356695 L4.55293447,17.9083761 L4.32729345,17.5348148 L2.73276353,18.4624501 L2.52216524,18.3320798 L19.4853561,8.53925926 L19.4853561,8.78245014 L19.4853561,9.28638177 L19.4853561,9.79282051 L12.5230769,13.8267806 L12.2974359,13.4356695 Z M4.26210826,19.339943 L4.04900285,19.2095726 L19.4853561,10.2967521 L19.4853561,10.5549858 L19.4853561,11.0614245 L19.4853561,11.5653561 L12.5230769,15.5817664 L12.2974359,15.2082051 L6.0822792,18.8034188 L5.87168091,18.4123077 L4.26210826,19.339943 Z M5.80649573,20.2174359 L5.57834758,20.1046154 L19.4853561,12.0692877 L19.4853561,12.3300285 L19.4853561,12.8339601 L19.4853561,13.3378917 L12.5230769,17.354302 L12.2974359,16.9807407 L7.61162393,19.6809117 L7.40102564,19.3073504 L5.80649573,20.2174359 Z M7.10769231,20.9821083 L19.4853561,13.8418234 L19.4853561,14.0850142 L19.4853561,14.6064957 L19.4853561,15.1104274 L12.5230769,19.1293447 L12.2974359,18.7532764 L9.14096866,20.5759544 L8.93037037,20.1848433 L7.33584046,21.1124786 L7.10769231,20.9821083 Z M8.86518519,21.9899715 L8.65207977,21.877151 L19.4853561,15.614359 L19.4853561,15.860057 L19.4853561,16.3639886 L19.4853561,16.882963 L12.5230769,20.9018803 L12.2974359,20.5107692 L10.6853561,21.4534473 L10.4597151,21.079886 L8.86518519,21.9899715 Z M12.3776638,1.51179487 L6.39316239,4.96159544 L6.18005698,4.58803419 L3.02609687,6.40820513 L2.79794872,6.03464387 L-1.24344979e-14,7.64421652 L-1.24344979e-14,7.40102564 L11.2720228,0.877492877 L11.5001709,1.00786325 L11.9389174,1.26860399 L12.3776638,1.51179487 Z" id="Combined-Shape"></path>
        </g>
    </g>
</svg>