<?xml version="1.0" encoding="UTF-8"?>
<svg width="32px" height="32px" viewBox="0 0 32 32" version="1.1" xmlns="http://www.w3.org/2000/svg" xmlns:xlink="http://www.w3.org/1999/xlink">
    <title>svg/color/req</title>
    <g id="color/req" stroke="none" stroke-width="1" fill="none" fill-rule="evenodd">
        <circle id="Combined-Shape" fill="#00E6A0" fill-rule="nonzero" cx="16" cy="16" r="16"></circle>
        <path d="M18.9934489,16.9950207 L23.2338714,12.7677672 C23.5520991,12.4507534 23.7305273,12.0197673 23.7295052,11.5705841 L23.7366883,8.15382354 C23.736289,7.97854171 23.6685736,7.81011048 23.5475334,7.68333058 L15.4126742,15.800232 C15.0933263,16.1167675 14.9136802,16.5477732 14.9136802,16.9974151 C14.9136802,17.447057 15.0933263,17.8780627 15.4126742,18.1945982 L21.1483785,23.9123447 C21.5760908,24.3379184 22.1983542,24.502983 22.780768,24.3453601 C23.3631819,24.1877373 23.8172637,23.7313737 23.9719652,23.148177 C24.1266668,22.5649804 23.9584852,21.9435522 23.5307728,21.5179785 L18.9934489,16.9950207 Z" id="Path" fill="#FFFFFF" fill-rule="nonzero"></path>
        <path d="M23.0734489,7.5 L10.2959137,7.5 C9.26274467,7.5 8.5,8.28072495 8.5,9.34621791 L8.5,22.6768517 C8.49428396,23.1344606 8.67356709,23.5750229 8.99728461,23.898515 C9.32100213,24.2220071 9.76168928,24.4009833 10.219294,24.3948095 L10.219294,24.3948095 C10.6772887,24.4026682 11.1188389,24.2241943 11.4427377,23.9002954 C11.7666365,23.5763966 11.9451104,23.1348464 11.9372517,22.6768517 L11.9372517,10.7888235 L20.4372517,10.7888235 L23.5499278,7.69171086 C23.4239626,7.56541342 23.2517815,7.49619489 23.0734489,7.5 Z" id="Path" fill="#FFFFFF" fill-rule="nonzero"></path>
    </g>
</svg>