<svg height="32" viewBox="0 0 32 32" width="32" xmlns="http://www.w3.org/2000/svg"><g fill="none"><circle cx="16" cy="16" fill="#8d181b" r="16"/><path d="m25.6960784 15.7315373c.720136 0 1.3039216.5709112 1.3039216 1.2751658s-.5837856 1.2751658-1.3039216 1.2751658c-.5504884 0-1.0213015-.3336076-1.2125769-.8053679h-3.7190673l-1.3729187 2.4411661c-.2254739.4009117-.8443166.2821445-.8981311-.1723678l-.3086512-2.6068383-1.1398367 8.4531383c-.0758376.5624185-.9168681.5359625-.9555897-.0300596l-.9349275-13.6665167-.9904381 9.0542638c-.0591237.5404895-.8532385.5675071-.9506274.0323424l-1.0473351-5.7552411-.4842436 1.8942577c-.0534637.2091385-.2456124.3558552-.4660488.3558552h-4.73529414c-.26531327 0-.48039216-.2103357-.48039216-.4697979s.21507889-.4697979.48039216-.4697979h4.36021524l.9384418-3.6709842c.1256568-.4915427.8482323-.4672047.9390096.031628l.8496549 4.6689634 1.2193255-11.14667789c.0624681-.57106314.9177856-.55442822.9569874.01861228l.980927 14.33892651 1.0144636-7.5233593c.0740104-.5488681.888359-.5425623.9534729.0073831l.5818461 4.9142158.7847287-1.3953142c.0844297-.1501232.2457325-.2433935.4209273-.2433935h4.0031093c.1912754-.4717604.6620885-.8053679 1.2125769-.8053679z" fill="#fff"/></g></svg>