<svg width="33" height="33" viewBox="0 0 33 33" fill="none" xmlns="http://www.w3.org/2000/svg">
<g clip-path="url(#clip0)">
<path fill-rule="evenodd" clip-rule="evenodd" d="M16.1118 32.9279C24.9246 32.9279 32.1118 25.7407 32.1118 16.9279C32.1118 8.11672 24.9246 0.927917 16.1118 0.927917C7.3006 0.927917 0.111817 8.11672 0.111817 16.9279C0.110217 25.7407 7.29901 32.9279 16.1118 32.9279Z" fill="black"/>
<path fill-rule="evenodd" clip-rule="evenodd" d="M12.0079 8.63507H14.3119C14.3999 8.63507 14.4703 8.70707 14.4703 8.79507V12.1615C14.4703 12.2511 14.5423 12.3215 14.6303 12.3215H17.5887C17.6767 12.3215 17.7487 12.2511 17.7487 12.1615V8.79507C17.7487 8.70707 17.8191 8.63507 17.9087 8.63507H20.2111C20.2991 8.63507 20.3711 8.70707 20.3711 8.79507V12.1615C20.3711 12.2511 20.4415 12.3215 20.5311 12.3215H23.3471C23.4367 12.3215 23.5071 12.3935 23.5071 12.4815V14.7791C23.5071 14.8687 23.4367 14.9391 23.3471 14.9391H20.5311C20.4415 14.9391 20.3711 15.0111 20.3711 15.0991V18.675C20.3711 18.763 20.4415 18.835 20.5311 18.835H23.3471C23.4367 18.835 23.5071 18.9054 23.5071 18.995V21.2926C23.5071 21.3806 23.4367 21.4526 23.3471 21.4526H20.5311C20.4415 21.4526 20.3711 21.5246 20.3711 21.6126V24.979C20.3711 25.067 20.2991 25.139 20.2111 25.139H17.9087C17.8191 25.139 17.7487 25.067 17.7487 24.979V21.6126C17.7487 21.523 17.6767 21.4526 17.5887 21.4526H14.6319C14.5439 21.4526 14.4719 21.5246 14.4719 21.6126V24.979C14.4719 25.067 14.4015 25.139 14.3135 25.139H12.0095C11.9215 25.139 11.8495 25.067 11.8495 24.979V21.6126C11.8495 21.523 11.7791 21.4526 11.6895 21.4526H8.87353C8.78393 21.4526 8.71353 21.3806 8.71353 21.2926V18.995C8.71353 18.9054 8.78393 18.835 8.87353 18.835H11.6895C11.7791 18.835 11.8495 18.763 11.8495 18.675V15.0991C11.8495 15.0111 11.7791 14.9391 11.6895 14.9391H8.87353C8.78393 14.9391 8.71353 14.8687 8.71353 14.7791V12.4815C8.71353 12.3935 8.78393 12.3215 8.87353 12.3215H11.6895C11.7791 12.3215 11.8495 12.2511 11.8495 12.1615V8.79507C11.8463 8.70707 11.9199 8.63507 12.0079 8.63507ZM17.7503 18.6766V15.0991C17.7503 15.0111 17.6783 14.9391 17.5903 14.9391H14.6319C14.5439 14.9391 14.4719 15.0111 14.4719 15.0991V18.675C14.4719 18.763 14.5439 18.835 14.6319 18.835H17.5903C17.6783 18.8366 17.7503 18.763 17.7503 18.6766Z" fill="white"/>
</g>
<defs>
<clipPath id="clip0">
<rect width="32" height="32" fill="white" transform="translate(0.111145 0.928284)"/>
</clipPath>
</defs>
</svg>
