<?xml version="1.0" encoding="utf-8"?>
<!-- Generator: Adobe Illustrator 24.0.0, SVG Export Plug-In . SVG Version: 6.00 Build 0)  -->
<svg version="1.1" id="Layer_1" xmlns="http://www.w3.org/2000/svg" xmlns:xlink="http://www.w3.org/1999/xlink" x="0px" y="0px"
	 viewBox="0 0 2000 2000" style="enable-background:new 0 0 2000 2000;" xml:space="preserve">
<style type="text/css">
	.st0{fill-rule:evenodd;clip-rule:evenodd;}
	.st1{fill-rule:evenodd;clip-rule:evenodd;fill:#FFFFFF;}
</style>
<g transform="translate(-15.95 40.474)">
	<path class="st0" d="M1016,1959.5c550.8,0,1000-449.2,1000-1000c0-550.7-449.2-1000-1000-1000c-550.7,0-1000,449.3-1000,1000
		C15.9,1510.3,465.2,1959.5,1016,1959.5z"/>
	<path class="st1" d="M759.5,441.2h144c5.5,0,9.9,4.5,9.9,10v210.4c0,5.6,4.5,10,10,10h184.9c5.5,0,10-4.4,10-10V451.2
		c0-5.5,4.4-10,10-10h143.9c5.5,0,10,4.5,10,10v210.4c0,5.6,4.4,10,10,10h176c5.6,0,10,4.5,10,10v143.6c0,5.6-4.4,10-10,10h-176
		c-5.6,0-10,4.5-10,10v223.5c0,5.5,4.4,10,10,10h176c5.6,0,10,4.4,10,10v143.6c0,5.5-4.4,10-10,10h-176c-5.6,0-10,4.5-10,10v210.4
		c0,5.5-4.5,10-10,10h-143.9c-5.6,0-10-4.5-10-10v-210.4c0-5.6-4.5-10-10-10H923.5c-5.5,0-10,4.5-10,10v210.4c0,5.5-4.4,10-9.9,10
		h-144c-5.5,0-10-4.5-10-10v-210.4c0-5.6-4.4-10-10-10h-176c-5.6,0-10-4.5-10-10v-143.6c0-5.6,4.4-10,10-10h176c5.6,0,10-4.5,10-10
		V845.2c0-5.5-4.4-10-10-10h-176c-5.6,0-10-4.4-10-10V681.6c0-5.5,4.4-10,10-10h176c5.6,0,10-4.4,10-10V451.2
		C749.4,445.7,754,441.2,759.5,441.2L759.5,441.2z M1118.4,1068.8V845.2c0-5.5-4.5-10-10-10H923.5c-5.5,0-10,4.5-10,10v223.5
		c0,5.5,4.5,10,10,10h184.9C1113.9,1078.8,1118.4,1074.2,1118.4,1068.8z"/>
</g>
</svg>
