<svg height="32" viewBox="0 0 32 32" width="32" xmlns="http://www.w3.org/2000/svg"><g fill="none" fill-rule="evenodd"><circle cx="16" cy="16" fill="#384182" r="16"/><path d="m9.5 27 3.6180422-16.7888403 2.0307721 12.6006565zm3.6880689-16.8851204 5.49709 12.7089716-3.4429757-.0601751zm.0816977-.09628 7.2010712 1.0229759-1.6689679 11.7822757zm5.6604855 12.6247264 1.6222834-11.4934354 1.0620705 1.3479212zm1.5172435-11.7100656-7.0260046-.99890591 6.3257383-2.0820569zm-7.061018-1.10722101 4.3066374-2.98468272 2.0541143.90262582zm-.1050399-.03610504.8286484-1.58862144 3.5130023-1.40809628zm.8286484-1.66083151.3968175-1.23960612 2.8944338-.09628009zm.3734753-1.33588621.9336883-.99890591 2.0074299.90262582zm.9920439-1.05908096 1.4005324-.68599563 1.8090212 2.11816193zm1.5989412-.60175055 2.0891276.91466083-.3734753 1.13129103zm1.7856789 2.08205689.3851465-1.15536105.4668441 1.58862145zm-1.9374032-2.21444201h1.5289146l.7572859.8417474c.0123794.01376007.0157734.03339904.0087302.05051575-.010117.02458689-.0382501.03631703-.062837.02620001zm2.4159185.96280088 3.1100644.86857243c.024436.00682444.0434978.02597235.0502121.05043886.0105541.03845863-.012067.0781913-.0505257.08874539l-2.6429066.72528489z" fill="#fff"/></g></svg>