<svg width="32" height="33" viewBox="0 0 32 33" fill="none" xmlns="http://www.w3.org/2000/svg">
<g clip-path="url(#clip0)">
<path d="M16 32.7835C24.8365 32.7835 32 25.62 32 16.7835C32 7.94696 24.8365 0.783508 16 0.783508C7.16345 0.783508 0 7.94696 0 16.7835C0 25.62 7.16345 32.7835 16 32.7835Z" fill="white"/>
<path d="M16.0001 0.783508C7.1639 0.783508 0 7.94732 0 16.7835C0 25.6196 7.1639 32.7835 16.0001 32.7835C24.8362 32.7835 32.0001 25.6196 32.0001 16.7835C32.0001 7.94732 24.8362 0.783508 16.0001 0.783508ZM26.6775 25.5824C26.9749 22.4197 26.4506 19.9834 25.5834 18.1337C25.4347 19.1494 25.117 20.2355 24.5718 21.3586C21.632 27.424 15.4881 27.2876 15.4881 27.2876C20.8061 24.4304 21.2315 18.0965 21.2315 18.0965C21.2728 16.0649 20.9341 14.3557 20.3849 12.9269C20.1786 12.8361 20.0589 12.7949 20.0589 12.7949C19.7325 12.6545 19.4105 12.5307 19.0925 12.415C19.2661 12.7782 19.4228 13.1664 19.5592 13.5836C21.4008 19.2734 17.5566 22.6673 17.5566 22.6673C17.5566 22.6673 19.6667 17.4029 14.5094 12.5966C14.1255 12.2663 13.7373 11.9772 13.3534 11.7214C8.7617 12.2746 6.07779 15.4003 6.07779 15.4003C7.89877 12.9229 9.97988 11.5933 11.8834 10.908C7.43636 8.90938 3.55088 11.1804 3.55088 11.1804C7.13095 6.66324 11.8009 7.43936 11.8009 7.43936C11.8009 7.43936 15.2855 7.70781 17.7382 10.4083C17.9199 10.4456 18.019 10.4702 18.019 10.4702C18.019 10.4702 18.531 10.557 19.328 10.8541C17.0157 7.27835 13.4276 6.18422 13.4276 6.18422C20.2694 5.43703 23.7418 10.4868 23.7418 10.4868C23.7418 10.4868 25.4969 12.7287 25.6785 16.0856C25.6948 16.1105 25.7115 16.1394 25.7281 16.1641C28.7463 21.0529 26.6775 25.5824 26.6775 25.5824Z" fill="#13D3FD"/>
</g>
<defs>
<clipPath id="clip0">
<rect width="32" height="32" fill="white" transform="translate(0 0.783508)"/>
</clipPath>
</defs>
</svg>
