<svg height="32" viewBox="0 0 32 32" width="32" xmlns="http://www.w3.org/2000/svg"><g fill="none" fill-rule="evenodd"><circle cx="16" cy="16" fill="#4ba2f2" r="16"/><path d="m9.86984444 8.22893617c.21617776.03659575-.32173333 1.4693617-.02153333 3.10680853.25882219 1.4029787 3.50655559 6.8365957 3.37271109 8.7-.1038666 1.1702127-2.7706222 3.9148936-3.0509778 3.7319149-.30695551-.0846809.8098223-1.9497873.3956223-3.5038298-.4813334-1.8119149-3.33977781-6.4961702-3.33640003-8.5638298 0-1.512766 2.44762222-3.56893617 2.64057777-3.47106383zm6.10913336-2.13914894c.2736.04638298-.4108222 1.87489362-.0282889 3.95787237.3297555 1.7919149 4.4730222 8.72 4.3016 11.0953191-.1338445 1.4944681-3.5327333 4.9914894-3.8924667 4.759149-.3892889-.106383 1.0340222-2.4851064.5062445-4.4668085-.6134889-2.3085107-4.2585334-8.2825533-4.2551556-10.919149 0-1.93148935 3.1223333-4.55106382 3.3680667-4.42638297zm6.3050444 2.13914894c.2161778.03659575-.3213111 1.4693617-.0215333 3.10680853.2592444 1.4029787 3.5065555 6.8365957 3.3731333 8.7-.1021778 1.1702127-2.7693555 3.9148936-3.0514 3.7319149-.3065333-.0846809.8098222-1.9497873.3960445-3.5038298-.4817556-1.8119149-3.3397778-6.4961702-3.3368223-8.5638298 0-1.512766 2.4493112-3.56893617 2.6405778-3.47106383z" fill="#fff" fill-rule="nonzero"/></g></svg>