<svg xmlns="http://www.w3.org/2000/svg" width="32" height="32"><g fill="none" fill-rule="evenodd"><circle cx="16" cy="16" r="16" fill="#00CBA0"/><path fill="#FFF" fill-rule="nonzero" d="M22.189 14.008a5.953 5.953 0 0 0-5.69-.339l-.003-.004a2.728 2.728 0 0 1-3.053-.56L9.79 9.453l-.003-.003a1.239 1.239 0 0 1-.307-.968h-.003a1.25 1.25 0 1 0-.997.997l.001.001c.343-.038.702.057.975.301l.003.003 3.669 3.67c.03.03.054.064.082.095.738.824.89 1.985.454 2.949l.003.003a5.957 5.957 0 0 0 1.165 6.732 6.09 6.09 0 0 0 3.722 1.749c.35.03 5.351.013 5.351.013.271 0 .55-.134.742-.326.192-.191.352-.496.352-.768v-4.844c0-.241-.052-.588-.056-.638-.12-1.34-.69-2.56-1.714-3.583a5.94 5.94 0 0 0-1.041-.828zm.32 4.055c.14.691.148.995.148 1.04v2.455c0 .271-.121.59-.313.78-.192.193-.51.313-.781.313H19.18c-.046 0-.605-.006-1.12-.148a3.603 3.603 0 0 1-1.57-6.008 3.61 3.61 0 0 1 5.092-.001c.452.451.808.984.927 1.57z"/></g></svg>