<svg height="32" width="32" xmlns="http://www.w3.org/2000/svg"><g fill="none"><circle cx="16" cy="16" fill="#0072ff" r="16"/><path d="m24.027 12.803-4.812 10.697h-1.923l5.065-11.26a5.384 5.384 0 0 1 1.67.563zm-8.42-6.284-7.403 16.459c-1.888-.896-3.204-2.859-3.204-5.145 0-3.13 2.462-5.666 5.5-5.666 0-2.995 2.254-5.44 5.107-5.648zm5.894 5.648-5.099 11.333h-2.083l6.402-14.23c.493.848.78 1.836.78 2.897zm1.894 10.982 3.266-7.256c.216.608.339 1.26.339 1.943 0 2.438-1.5 4.515-3.605 5.313zm1.442-9.814c.456.36.86.788 1.186 1.279l-3.986 8.858a5.025 5.025 0 0 1 -.536.028h-1.236zm-8.817-6.835c.78.003 1.519.174 2.19.481l-7.43 16.519h-.28c-.69 0-1.35-.136-1.957-.377zm4.267 2.118-6.695 14.882h-2.246l7.327-16.285c.622.358 1.17.836 1.614 1.403z" fill="#fff"/></g></svg>