<svg width="32" height="32" viewBox="0 0 32 32" xmlns="http://www.w3.org/2000/svg">
<g>
	<circle fill="#ffb700" cx="16" cy="16" r="16"/>
</g>
<g>
	<g>
		<g>
			<path fill="#fff" fill-opacity="0.7" d="M17.33,8.64c-0.17-0.07-0.34-0.13-0.51-0.17c-2.21-0.55-3.11,0.99-3.11,0.99c-1.39-1.74-2.18-3.96,1.33-4.83
				c3.13-0.77,5.89,1.72,6.46,2.27c0.07,0.07,0.11,0.11,0.11,0.11c3.69,3.78,3.07,9.19,1.49,13.05c-1.74,4.26-5.86,6.72-6.93,7.37
				c-0.21,0.13-0.44,0.23-0.69,0.31c0.19-0.07,3.24-1.31,3.58-5.89c0.04-0.59,0.02-1.19-0.07-1.81c0.79-1.04,1.76-3.49,1.73-5.85
				C20.68,12.03,19.28,9.46,17.33,8.64z"/>
			<path fill="#fff" fill-opacity="0.4" d="M20.71,14.2c0.03,2.36-0.94,4.81-1.73,5.85c-0.13-0.93-0.39-1.87-0.73-2.8c0.02-0.02,0.61-0.84,0.97-3.74
				c0.36-2.91-1.83-4.81-1.9-4.86C19.28,9.46,20.68,12.03,20.71,14.2z"/>
			<path fill="#fff" d="M8.77,9.27C8.43,7.91,8.87,7.25,9.6,6.36c1.21-1.47,5.65-4.23,10.74-0.46c0.43,0.32,0.82,0.65,1.17,1.01
				c-0.57-0.56-3.33-3.04-6.46-2.27c-3.52,0.87-2.73,3.08-1.33,4.83c0.96,1.2,3.3,4.38,4.54,7.79c0.34,0.93,0.6,1.88,0.73,2.8
				c0.09,0.61,0.11,1.22,0.07,1.81c-0.34,4.58-3.39,5.81-3.58,5.89c-0.01,0-0.01,0-0.01,0c-0.88,0.3-1.94,0.31-2.96,0.17
				c2.14-0.13,3.7-2.17,3.94-5.13s-2.16-7.4-4.95-10.17c-2.26-2.25-2.66-3.1-2.73-3.3c0-0.01,0-0.02-0.01-0.02c0-0.01,0-0.01,0-0.02
				C8.77,9.28,8.77,9.27,8.77,9.27C8.77,9.27,8.77,9.27,8.77,9.27z"/>
			<path fill="#fff" fill-opacity="0.7" d="M11.5,12.62c2.78,2.77,5.19,7.2,4.95,10.17s-1.8,5.01-3.94,5.13c-0.12-0.02-0.24-0.03-0.37-0.05
				c-0.68-0.11-1.18-0.48-1.5-0.83c-0.34-0.36-0.51-0.84-0.48-1.33c0.03-0.45,0.06-1.07,0.1-1.62c0.01-0.19,0.06-0.36,0.13-0.5
				c-0.25,0.55,0.07,1.76,1.57,1.5c1.54-0.27,1.93-3.18,1.94-3.3c0,0,0,0,0,0c0.07-0.29,0.14-1.11-0.47-2.89
				c-0.81-2.35-2.8-5.38-4.03-7.96C9.1,10.3,8.9,9.77,8.78,9.32C8.85,9.53,9.24,10.37,11.5,12.62z"/>
			<path fill="#fff" fill-opacity="0.4" d="M13.86,21.92c0,0,0.02-0.04,0.05-0.13c-0.02,0.12-0.4,3.03-1.94,3.3c-1.5,0.26-1.83-0.95-1.57-1.5
				c0.01-0.01,0.01-0.03,0.02-0.04c0.01-0.01,0.01-0.02,0.02-0.03c0.3-0.51,0.95-0.67,1.56-0.8C12.78,22.54,13.86,21.92,13.86,21.92
				z"/>
			<path fill="#fff" d="M10.4,23.54c-0.01,0.01-0.01,0.03-0.02,0.04C10.39,23.57,10.4,23.56,10.4,23.54z"/>
			<path fill="#fff" d="M8.77,9.28c0,0.01,0,0.01,0,0.02C8.77,9.29,8.77,9.28,8.77,9.28z"/>
			<path fill="#fff" d="M8.77,9.27c0,0,0,0.01,0,0.01C8.77,9.28,8.77,9.27,8.77,9.27z"/>
		</g>
	</g>
</g>
</svg>
