<svg height="32" viewBox="0 0 32 32" width="32" xmlns="http://www.w3.org/2000/svg"><g fill="none"><circle cx="16" cy="16" fill="#0b1c26" r="16"/><path d="m16 27c-6.06793-.0181-11-4.942738-11-11 0-6.05726196 4.93207-10.98179026 11-11 6.06793.01820974 11 4.94273804 11 11 0 6.057262-4.93207 10.9879333-11 11zm9.7548-9.2494515c-.17006.3937034-.56485.6723343-1.02047.6723343-.1459371-.0000318-.2904266-.0288501-.42515-.0847959.38874.4058798.63173.9509653.63173 1.5506801 0 .1755156-.02431.3391839-.06072.5027424.4131989-.8355058.7075693-1.7243828.87461-2.6409609zm-1.02047.109039c.3052754 0 .55275-.2467934.55275-.5512286 0-.3044351-.2474746-.5512286-.55275-.5512286s-.55275.2467935-.55275.5512286c.0010849.3038576.2477245.5499652.55242.5512286zm.24904-6.0269855c.176252.4981461.2667384 1.0224352.26763 1.5506801.0011162 1.093033-.3862423 2.1510909-1.09329 2.9862879.16401-.0968627.35838-.1635586.5709-.1635586.57706 0 1.05083.4421896 1.09934 1.0115182.04862-.3997367.07898-.7995831.07898-1.2114963.0070832-1.442302-.3083868-2.868034-.92345-4.1734313zm-.56485 1.5446468c0-2.1019087-1.71292-3.81603774-3.82657-3.81603774-2.10771 0-3.82657 1.70820534-3.82657 3.81603774 0 2.1019087 1.71292 3.8160377 3.82657 3.8160377 2.10771 0 3.82657-1.7142387 3.82657-3.8160377zm-3.97848 6.5115182c-.0001536-.8303855.4603822-1.5927083 1.19658-1.9806933-.9335885.217219-1.9117053.1410427-2.80016-.2180781.7561405.5797682 1.3158245 1.3768207 1.60358 2.2836771.00616-.0364195 0-.0606626 0-.0849057zm.21868 1.4780606c-.0010352.3674265-.0459005.7334255-.13365 1.0902808.1814324-.3630491.5528841-.5928054.95964-.5935718.0571895-.0002596.1142294.0058481.17006.0182098-.4683762-.2410014-.8378967-.6372396-1.045-1.1205573.0318642.2003292.0482291.402806.04895.6056385zm2.02873-.0665863c.78353 0 1.42131-.6362439 1.42131-1.4113646 0-.7813734-.638-1.4113646-1.42131-1.4113646s-1.41526.6362439-1.41526 1.4113646c0 .7812637.63778 1.4112549 1.41581 1.4112549zm.935-3.9857393c.0015784-.1864695.0495826-.3696273.1397-.5330189-.4032631.3727415-.8675306.6738944-1.37269.8904125.09713-.0120667.19437-.0242431.29766-.0242431.4042081-.0007486.8010145.1081145 1.14796.3149407-.138233-.1879672-.2125477-.4151026-.21208-.6482009zm-7.623-.5997148c.5994727-.0004161 1.1933718.1147588 1.749.3391838-.9337929-.7162452-1.5591429-1.7601371-1.749-2.9195919-.19437 1.1872532-.8382 2.2169811-1.749 2.9195919.54054-.2120447 1.12981-.3391838 1.749-.3391838zm0-6.1723344c-.4236804.0008648-.8388046-.1188999-1.19658-.3452172.6311002.6665919 1.0479882 1.5060952 1.19713 2.4107065.1528863-.9033255.5690443-1.7417822 1.19658-2.4108162-.3577662.2263503-.7728895.3461528-1.19658.3453269zm2.27172-2.26546728c-.0001635.5075137-.1712711 1.00026241-.48587 1.39918824.4717969-.35688608 1.0079286-.62009905 1.57927-.77534006-.02431 0-.04257.00603335-.06072.00603335-.46772 0-.869-.29069768-1.03257-.7026108-.00528.02424309.00044.04848618.00044.07272927zm1.72502-1.33830627c.24904.20590171.41305.50877577.41305.85410267.0005914.43845682-.2593613.83560357-.66209 1.01151821.2785712-.05078349.5610672-.07713839.84425-.07876261 1.42736 0 2.69687.64205792 3.553 1.64150948-1.0436575-1.49824351-2.4778054-2.68379355-4.14766-3.42869685zm-.6985.30890741c-.3052754 0-.55275.24679346-.55275.55122861s.2474746.55122861.55275.55122861.55275-.24679346.55275-.55122861c-.0009037-.30394347-.2475292-.55023308-.55231-.5515577zm-2.61129-1.13306275c.7436639.23694077 1.3127623.83878822 1.50634 1.59302326.04257-.56943835.51634-1.0236946 1.09934-1.0236946.036717.0010231.0732871.00505897.10934.01206669-.8503-.31483106-1.76748-.50866608-2.71502-.58139535zm-2.11981 2.16246161c0 .78740676.64383 1.42902589 1.43341 1.42902589s1.43341-.64205792 1.43341-1.42946468-.64383-1.42902589-1.43341-1.42902589-1.43341.64205792-1.43341 1.42946468zm-1.97406-1.58095656c.0360529-.00700723.0726231-.01104309.10934-.0120667.583 0 1.05688.44822291 1.09934 1.02369461.1935445-.75427699.7626484-1.35617179 1.50634-1.59313296-.94754.07272927-1.85867.26656429-2.71502.58150505zm1.13575 1.58095656c-.0010111-.02439939.0010212-.04882954.00605-.07272927-.16401.41191312-.56485.7026108-1.03257.7026108-.02431 0-.04257-.00603335-.06072-.00603335.5708623.15650173 1.1067634.41960153 1.57927.77534006-.3189889-.39691687-.4925685-.890526-.49203-1.39918824zm-1.57916-.47849934c0 .30443515.2474746.55122861.55275.55122861s.55275-.24679346.55275-.55122861c0-.30443516-.2474746-.55122861-.55275-.55122861-.3048244.00108309-.5516639.24724322-.55275.55122861zm-4.29429 2.57426502c.85646-1.00548486 2.12586-1.64150943 3.553-1.64150943.2831969.00133945.5657179.02769668.84425.07876262-.3539708-.15378707-.6014545-.48105659-.6524039-.86273109-.0509493-.3816745.1020632-.76211201.4033639-1.0028898-1.67618.73903028-3.11564 1.93835016-4.14821 3.4283677zm-.27335 3.0044976c0 2.1019087 1.71292 3.8160377 3.82657 3.8160377 2.10771 0 3.82657-1.7082053 3.82657-3.8160377 0-2.1019087-1.71292-3.81603774-3.82657-3.81603774-2.10771.00592365-3.82657 1.71412904-3.82657 3.81603774zm3.97848 6.5115182c0 .0242431-.00605.0548486-.00605.0787626.2893617-.9060343.8487371-1.7026091 1.60358-2.2835673-.8885538.3591897-1.8667968.4353669-2.80049.2180781.71698.381527 1.20296 1.1265906 1.20296 1.9867266zm-3.18296-2.5743747c.00104787.2342135-.07586409.4621537-.21868.6480912.34706491-.2066725.74394892-.3153464 1.14818-.3143922.0997616-.001211.19941744.0069055.29766.0242431-.50763667-.2121315-.9726963-.5139227-1.3728-.8908513.09547127.1614475.14576577.3454794.14564.5329092zm-.48587 2.5743747c0 .7813734.638 1.4113646 1.41526 1.4113646.78353 0 1.41526-.6362439 1.41526-1.4113646 0-.7813734-.638-1.4113646-1.41526-1.4113646-.77737-.0060334-1.41515.6296621-1.41515 1.4113646zm2.44783 1.9928697c.055-.0060334.10934-.0182098.17006-.0182098.4067559.0007664.7782076.2305227.95964.5935718-.0877028-.3568243-.1325311-.7227857-.13354-1.0901711.0018777-.2045939.0160934-.4088899.04257-.6117815-.2024863.4857107-.5702652.8846403-1.03862 1.1265906zm-4.17296-4.6701404c.04862-.5632953.52239-1.0115182 1.09934-1.0115182.20180208.0010841.39939062.0576809.57101.1635585-.70704765-.8351969-1.09440621-1.8932549-1.09329-2.9862878 0-.5451953.09713-1.0600044.2673-1.5506801-.59521 1.2660158-.92323 2.6834137-.92323 4.1734313.00147787.4050586.02781712.8096473.07887 1.2114963zm1.1-.4482229c-.3052754 0-.55275.2467934-.55275.5512286 0 .3044351.2474746.5512286.55275.5512286s.55275-.2467935.55275-.5512286c-.00108608-.3039854-.24792561-.5501455-.55275-.5512286zm-.20647 3.1256033c-.00041876-.5793017.22629631-1.1358093.63173-1.5506801-.13454493.0565273-.27915339.0853694-.42515.0847959-.45551 0-.85041-.2786309-1.02047-.6723343.17006.9324265.462 1.8171347.87461 2.6409609-.03685-.1636682-.06116-.3272268-.06116-.5028521zm2.84262 2.1624616c-.18832.0548486-.38874.0787626-.59521.0787626-.58916 0-1.12365-.2303642-1.5246-.5997148.52958036.7823178 1.16761128 1.4858838 1.89508 2.0897324-.1518-.1878017-.24904-.4179465-.24904-.6783677.00017045-.356691.17741606-.6901606.47333-.8905222zm.08503.8904125c0 .2877139.233882.5209521.52239.5209521s.52239-.2332382.52239-.5209521c0-.287714-.233882-.5209522-.52239-.5209522-.2877643.0018515-.52067049.2338723-.52283.5208425zm4.67082 2.8771391c-1.4459367-.4382949-2.5906093-1.5459881-3.0734-2.9741115 0 .0302764.0121.0605529.0121.0968627.0017173.3711435-.1889682.7168317-.504223.9140911-.3152547.1972594-.7103312.2180909-1.044687.0550839 1.3178.9934182 2.89696 1.6717859 4.61021 1.9080738zm5.16252-4.4520623c0-2.1019088-1.71292-3.8100044-3.82052-3.8160378-2.10771 0-3.82052 1.7082054-3.82052 3.8160378 0 2.1078323 1.71281 3.8100043 3.82052 3.8160377 2.10771-.0060334 3.82052-1.7142387 3.82052-3.8160377zm2.13807 2.5440982c-.3343558.1630069-.7294323.1421755-1.044687-.0550839-.3152548-.1972594-.5059403-.5429476-.504223-.9140911.0010379-.03259.0050884-.0650149.0121-.0968627-.4827907 1.4281234-1.6274633 2.5358166-3.0734 2.9741115 1.70687-.2363976 3.28603-.9147653 4.61021-1.9081835zm.055-.969175c0-.287714-.233882-.5209522-.52239-.5209522s-.52239.2332382-.52239.5209522c0 .2877139.233882.5209521.52239.5209521.2875487-.0022706.5200253-.2343028.52206-.5210618zm2.20451-1.4114744c-.40084.3694603-.935.5997148-1.5246.5997148-.2009377-.0011529-.4009243-.0276166-.59521-.0787626.296049.2002407.4734641.5336781.47377.8904125 0 .2604212-.09713.4906757-.24904.6783677.7274687-.6038486 1.3654996-1.3074146 1.89508-2.0897324z" fill="#fff"/></g></svg>