<svg width="32" height="32" viewBox="0 0 32 32" fill="none" xmlns="http://www.w3.org/2000/svg">
<path d="M16 32C24.8366 32 32 24.8366 32 16C32 7.16344 24.8366 0 16 0C7.16344 0 0 7.16344 0 16C0 24.8366 7.16344 32 16 32Z" fill="#090816"/>
<path d="M17.12 14.766C17.8015 14.766 18.3539 15.3185 18.3539 16C18.3539 16.6815 17.8015 17.2339 17.12 17.2339H13.917C10.8148 17.2339 8.30002 14.7191 8.30002 11.617C8.30002 8.51481 10.8148 6 13.917 6H22.1773C22.8588 6 23.4113 6.55246 23.4113 7.23395C23.4113 7.91545 22.8588 8.46791 22.1773 8.46791H13.917C12.1778 8.46791 10.7679 9.87779 10.7679 11.617C10.7679 13.3562 12.1778 14.766 13.917 14.766H17.12Z" fill="white"/>
<path d="M14.5913 17.234C13.9098 17.234 13.3573 16.6815 13.3573 16C13.3573 15.3185 13.9098 14.7661 14.5913 14.7661L17.7943 14.7661C20.8964 14.7661 23.4112 17.2809 23.4112 20.383C23.4112 23.4852 20.8964 26 17.7943 26H9.53396C8.85247 26 8.3 25.4475 8.3 24.766C8.3 24.0846 8.85247 23.5321 9.53396 23.5321H17.7943C19.5334 23.5321 20.9433 22.1222 20.9433 20.383C20.9433 18.6438 19.5334 17.234 17.7943 17.234H14.5913Z" fill="white"/>
<path d="M10.509 25.5023L8.50296 24.0648L21.1203 6.45667L23.1263 7.89413L10.509 25.5023Z" fill="white" fill-opacity="0.5"/>
</svg>
