<svg width="32" height="32" viewBox="0 0 32 32" version="1.1" xmlns="http://www.w3.org/2000/svg" xmlns:xlink="http://www.w3.org/1999/xlink"><title>svg/color/soc</title><desc>Created with Sketch.</desc><g id="color/soc" stroke="none" stroke-width="1" fill="none" fill-rule="evenodd"><g id="Group" fill="#199248" fill-rule="nonzero"><circle id="Oval" cx="16" cy="16" r="16"/></g><g id="All-Sports-(SOC)" transform="translate(4.000000, 4.000000)" fill="#FFF" fill-rule="nonzero"><path d="M12,0 C5.372583,-4.05812251e-16 8.11624501e-16,5.372583 0,12 C-8.11624501e-16,18.627417 5.372583,24 12,24 C18.627417,24 24,18.627417 24,12 C24,8.81740212 22.7357179,5.76515517 20.4852814,3.51471863 C18.2348448,1.26428208 15.1825979,1.94877915e-16 12,0 Z M14.743125,22.235625 C10.9836035,23.2374562 6.97742516,22.0982478 4.30756498,19.2681394 C1.63770481,16.4380309 0.733680829,12.3723204 1.95270317,8.67750625 C3.17172551,4.98269205 6.317682,2.25318322 10.1475,1.5675 C15.7274907,0.591778025 21.0882195,4.17678401 22.3177464,9.70639462 C23.5472734,15.2360052 20.2108175,20.7548586 14.743125,22.235625 Z" id="Shape"/><path d="M14.930625,3.286875 C14.930625,3.804375 14.930625,4.32 14.949375,4.8375 C14.2580935,4.56903619 13.5384401,4.3803159 12.804375,4.275 C12.774375,3.80625 12.9075,3.290625 12.770625,2.84625 C12.2477011,2.80906766 11.7230373,2.80280676 11.199375,2.8275 C11.173125,3.309375 11.1825,3.793125 11.199375,4.276875 C10.4644235,4.38665015 9.74422971,4.57912115 9.0525,4.850625 C9.0675,4.329375 9.073125,3.808125 9.065625,3.285 C5.32348497,4.54623042 2.80351984,8.05478631 2.80351984,12.00375 C2.80351984,15.9527137 5.32348497,19.4612696 9.065625,20.7225 C9.065625,20.21125 9.060625,19.700625 9.050625,19.190625 C9.73703627,19.4593801 10.4535224,19.6438532 11.184375,19.74 C11.184375,20.20875 11.184375,20.6775 11.15625,21.1425 C11.7159694,21.2215971 12.2840306,21.2215971 12.84375,21.1425 C12.8175,20.679375 12.80625,20.218125 12.804375,19.755 C13.5351508,19.6520833 14.252519,19.4697549 14.94375,19.21125 C14.930625,19.7175 14.925,20.22375 14.94375,20.731875 C18.6850783,19.4682322 21.202782,15.9580499 21.2002342,12.0090849 C21.1976865,8.06011997 18.6754557,4.55318923 14.9325,3.294375 L14.930625,3.286875 Z M16.299375,17.221875 C15.091875,18.316875 13.37625,18.575625 11.799375,18.553125 C10.4175,18.553125 8.953125,18.178125 7.95375,17.176875 C7.423125,16.665 7.123125,15.980625 6.855,15.301875 C7.820625,15.0525 8.818125,14.968125 9.79125,14.76 C9.91448595,15.3587799 10.3486492,15.8458724 10.929375,16.036875 C11.8125,16.3125 12.905625,16.351875 13.6425,15.721875 C14.16375,15.28875 14.17875,14.341875 13.531875,14.0175 C12.015,13.23375 10.125,13.5 8.690625,12.508125 C6.71625,11.263125 6.57,7.96125 8.503125,6.616875 C9.980625,5.58 11.956875,5.450625 13.670625,5.866875 C15.22125,6.25875 16.325625,7.573125 16.858125,9.028125 C15.90375,9.193125 14.95125,9.361875 13.996875,9.523125 C13.745625,8.008125 11.625,7.648125 10.57125,8.53125 C9.97125,9.03 10.125,10.093125 10.875,10.359375 C12.515625,11.038125 14.484375,10.843125 15.9375,11.98125 C17.625,13.125 17.80125,15.856875 16.299375,17.221875 Z" id="Shape"/></g></g></svg>