<svg width="32" height="32" viewBox="0 0 32 32" fill="#000" xmlns="http://www.w3.org/2000/svg">
	<path d="M16 32C24.8366 32 32 24.8366 32 16C32 7.16344 24.8366 0 16 0C7.16344 0 0 7.16344 0 16C0 24.8366 7.16344 32 16 32Z" fill="black"/>
	<path fill-rule="evenodd" clip-rule="evenodd" d="M9.8745 20.4104C9.93474 20.3442 10.0081 20.2913 10.0899 20.255C10.1717 20.2188 10.2603 20.2001 10.3497 20.2L25.0121 20.212C25.0746 20.2122 25.1356 20.2304 25.1879 20.2646C25.2402 20.2987 25.2814 20.3474 25.3065 20.4045C25.3317 20.4616 25.3397 20.5249 25.3296 20.5865C25.3196 20.6481 25.2918 20.7054 25.2497 20.7516L22.1273 24.1896C22.0671 24.2558 21.9936 24.3088 21.9118 24.345C21.8299 24.3813 21.7413 24.4 21.6517 24.4L6.98972 24.388C6.92728 24.3878 6.86621 24.3696 6.81395 24.3354C6.76168 24.3013 6.72047 24.2526 6.69531 24.1955C6.67015 24.1384 6.66211 24.0751 6.6722 24.0135C6.68228 23.9519 6.71005 23.8946 6.75211 23.8484L9.8745 20.4104ZM25.2497 17.5484C25.2918 17.5946 25.3196 17.6519 25.3296 17.7135C25.3397 17.7751 25.3317 17.8384 25.3065 17.8955C25.2814 17.9526 25.2402 18.0013 25.1879 18.0354C25.1356 18.0696 25.0746 18.0878 25.0121 18.088L10.3501 18.1C10.2606 18.1 10.172 18.0813 10.0901 18.045C10.0082 18.0088 9.93474 17.9558 9.8745 17.8896L6.75211 14.4496C6.71005 14.4034 6.68228 14.3461 6.6722 14.2845C6.66211 14.2229 6.67015 14.1596 6.69531 14.1025C6.72047 14.0454 6.76168 13.9967 6.81395 13.9626C6.86621 13.9284 6.92728 13.9102 6.98972 13.91L21.6521 13.898C21.7416 13.8981 21.8301 13.9168 21.912 13.953C21.9938 13.9893 22.0672 14.0422 22.1273 14.1084L25.2497 17.5484ZM9.8745 7.81041C9.93474 7.74419 10.0081 7.69127 10.0899 7.65504C10.1717 7.61881 10.2603 7.60006 10.3497 7.60001L25.0121 7.61201C25.0746 7.61213 25.1356 7.63039 25.1879 7.66456C25.2402 7.69873 25.2814 7.74733 25.3065 7.80448C25.3317 7.86163 25.3397 7.92485 25.3296 7.98647C25.3196 8.04809 25.2918 8.10545 25.2497 8.15161L22.1273 11.5896C22.0671 11.6558 21.9936 11.7088 21.9118 11.745C21.8299 11.7813 21.7413 11.8 21.6517 11.8L6.98972 11.788C6.92728 11.7878 6.86621 11.7696 6.81395 11.7354C6.76168 11.7013 6.72047 11.6526 6.69531 11.5955C6.67015 11.5384 6.66211 11.4751 6.6722 11.4135C6.68228 11.3519 6.71005 11.2946 6.75211 11.2484L9.8745 7.81041Z" fill="url(#paint0_linear_6662:231815)"/>
	<defs>
		<linearGradient id="paint0_linear_6662:231815" x1="7.23452" y1="24.7664" x2="24.7673" y2="7.23359" gradientUnits="userSpaceOnUse">
			<stop stop-color="#9945FF"/>
			<stop offset="0.2" stop-color="#7962E7"/>
			<stop offset="1" stop-color="#00D18C"/>
		</linearGradient>
	</defs>
</svg>
