<svg height="32" viewBox="0 0 32 32" width="32" xmlns="http://www.w3.org/2000/svg"><g fill="none" fill-rule="evenodd"><circle cx="16" cy="16" fill="#ff3b81" r="16"/><path d="m8.45852837 22.1410722v.1413054h-1.47634914v-2.667239l-.04578634.147548-1.41184067-.4252388.79758082-2.5700023-.0981834.1434216-1.22394964-.8132865 1.52936914-2.2336942-.14585468.1163878-.92909654-1.1302846 2.20087319-1.7557636-.28123748.1063891-.52907233-1.35781756 2.62874083-.99407384-.3072239.02116143-.10298436-1.4508538 2.75223943-.1895905-.2484793-.05651687.3320933-1.4171172 2.6290899.59793725-.1656707-.09420009.7381879-1.25954392 2.2930227 1.30419453-.0892528-.09427415 1.0797329-.99189686 1.7856459 1.88639032-.038021-.07687946 1.3269233-.63756201 1.1455178 2.31373208-.0104182-.06474338 1.458171-.22751707.4296162 2.6722013.0305564-.1902412 1.458171.2275383-.4360067 2.712207.10778-.217804 1.3269232.6375937-1.2285948 2.4815475.1795259-.1896592 1.0797328.9918889-1.9087847 2.0165251.2310798-.1314653.738188 1.2595809-2.3994063 1.3647004.2413905-.054914.3320933 1.4171278-2.6512151.6029949.2042826.0140723-.1030006 1.4508273-2.6538465-.1828347.1352217.0511578-.5290723 1.3578229-2.5403741-.9606759.1605153.1280795-.9290987 1.1302847-2.0967954-1.6727049.1035374.1511455-1.2239764.8132865-1.4988235-2.1890966.0445727.1435803-1.41259948.4254504zm0-1.7282007.92209594-.2776909.71662129 2.3091348.7973032-.5297763 1.3626351 1.9901792.608605-.7403854 1.8884853 1.5064819.3377857-.8668778 2.2757306.8605822.0666979-.9390911 2.4351719.1677572-.2191042-.9350176 2.3872159-.5429493-.4945956-.8439705 2.1308426-1.2119678-.7298105-.6704468 1.6832362-1.7781947-.8979515-.4314814 1.0825253-2.1865043-.9821563-.1532616.3860101-2.4009754-.9391409.14649-.385849-2.3999702-.8458606.4064052-1.0747385-2.17077079-.6894266.63335618-1.6630442-1.75689033-.4758537.81195332-2.1052266-1.19736108-.2175469.92833587-2.3683129-.53863763.0687386.96868542-2.4310905.16747152.3594813.92252706-2.28908629.86560816.61588164.7492731-1.92176982 1.5330924.81110997.5389286-1.38547995 2.0235084.93357743.2811825-.72368845 2.3318833h.96998204zm7.25005783-2.7244393c0-.3679585-.1295011-.6493639-.3885998-.8441623-.2590772-.1991045-.7254098-.4068751-1.3990084-.6233656-.6735933-.2207428-1.2068562-.4371795-1.5997887-.6493101-1.0708479-.580089-1.6062691-1.3614357-1.6062691-2.3440937 0-.5108035.142494-.9653367.4274768-1.3635942.2892995-.4025905.7016626-.7164318 1.2370839-.9415345.5397379-.2251028 1.1442479-.3376541 1.8135298-.3376541.6735933 0 1.273808.1233759 1.8005636.3701223.5268094.2424188.9348557.5865644 1.2241391 1.0324369.2936323.4458778.4404216.9523536.4404216 1.5194221h-1.9430523c0-.4328734-.1359976-.7683583-.4080517-1.0064494-.2720274-.2424188-.6541628-.3636255-1.1464063-.3636255-.4749714 0-.8441567.1017268-1.1075506.305186-.2633885.1991314-.3950855.4631938-.3950855.7922034 0 .3073498.1532858.56491.4598575.7726806.3108884.2077706.7664292.402569 1.3666224.5843952 1.1054084.333348 1.9106556.7467361 2.4158815 1.2402182.5051721.4935359.757785 1.1082355.757785 1.8440986 0 .8181641-.3087193 1.4610149-.9262115 1.9285526-.6174386.4631777-1.4486398.6947935-2.4935767.6947935-.7254098 0-1.3860529-.1320366-1.9819295-.3961098-.5958712-.2683793-1.051412-.6341847-1.3666224-1.0973625-.3108884-.4631777-.4663347-.9999902-.4663347-1.6103298h1.9495456c0 1.043213.6217768 1.5648463 1.865341 1.5648463.4620159 0 .8225624-.0930661 1.0816396-.2791984.2590987-.1904385.3885998-.4545117.3885998-.7921658zm5.9300971-5.7980967-1.8723201 6.8514566-1.5434432-.1077226 1.1671409-7.0638881zm-1.6333376 7.5659487-.4869731 2.4207101-2.0525982-.5986763.4713967-2.3223568z" fill="#fff" fill-rule="nonzero"/></g></svg>