<svg version="1.1" id="Layer_1" xmlns="http://www.w3.org/2000/svg" xmlns:xlink="http://www.w3.org/1999/xlink" x="0px" y="0px"
	 width="100%" viewBox="0 0 200 200" enable-background="new 0 0 200 200" xml:space="preserve">
<path fill="#231C47" opacity="1.000000" stroke="none" 
	d="
M201.000000,101.000000 
	C201.000000,107.687645 201.000000,114.375290 200.638855,121.597244 
	C199.549454,123.895325 198.862869,125.677689 198.085831,127.419708 
	C194.431137,135.613083 190.751587,143.795380 186.603958,151.987305 
	C178.141235,151.992111 170.155472,151.991241 162.086212,151.585114 
	C160.515961,150.597519 159.029190,150.015182 158.234253,149.703827 
	C156.985229,147.813904 155.999969,146.323074 155.010132,144.374207 
	C155.019119,101.578369 155.032700,59.240555 155.387024,16.982903 
	C162.155609,22.360023 168.583466,27.656982 175.008636,33.376358 
	C175.003296,35.204384 175.000656,36.609993 174.998642,38.458405 
	C174.999176,41.264977 174.999084,43.628742 174.838791,46.349030 
	C172.836014,47.136021 171.007797,47.841839 169.147827,47.938961 
	C165.411819,48.134045 161.658478,47.996964 157.912292,47.996964 
	C157.925293,48.328865 157.938293,48.660763 157.951294,48.992664 
	C167.607788,48.992664 177.264267,48.992664 187.040619,49.320499 
	C191.027054,58.661251 194.867981,67.685356 198.790741,76.673744 
	C199.315033,77.875076 200.253387,78.895699 201.000000,80.000000 
	C201.000000,86.354401 201.000000,92.708794 200.531342,99.530334 
	C185.997177,99.997482 171.931671,99.997482 157.866150,99.997482 
	C157.867935,100.331657 157.869720,100.665825 157.871506,101.000000 
	C172.247665,101.000000 186.623840,101.000000 201.000000,101.000000 
M175.621735,131.918533 
	C175.621735,131.918533 175.387680,131.984421 175.387680,131.984421 
	C175.387680,131.984421 175.619049,132.061050 175.621735,131.918533 
M175.471146,58.498253 
	C175.471146,58.498253 175.514374,58.481129 175.471146,58.498253 
M175.498169,69.529030 
	C175.498169,69.529030 175.482086,69.486427 175.498169,69.529030 
M175.470428,79.497894 
	C175.470428,79.497894 175.513992,79.480736 175.470428,79.497894 
M175.471573,90.498245 
	C175.471573,90.498245 175.513901,90.481491 175.471573,90.498245 
M175.502045,111.470695 
	C175.502045,111.470695 175.518097,111.513412 175.502045,111.470695 
M175.502396,121.470337 
	C175.502396,121.470337 175.519348,121.513863 175.502396,121.470337 
M175.470596,142.497894 
	C175.470596,142.497894 175.513992,142.480774 175.470596,142.497894 
z"/>
<path fill="#231C47" opacity="1.000000" stroke="none" 
	d="
M1.000001,122.000000 
	C1.000000,115.312355 1.000000,108.624710 1.468657,101.468201 
	C14.397371,100.999512 26.857430,100.999443 39.317486,100.999947 
	C46.996727,101.000259 46.998787,101.000656 46.999680,108.582542 
	C47.001282,122.149246 47.000134,135.715958 47.000134,149.282654 
	C47.340008,149.285217 47.679886,149.287781 48.019760,149.290359 
	C48.019760,147.194183 48.019760,145.098007 48.466179,143.001297 
	C58.938107,143.001190 68.963615,143.001602 79.242004,143.004593 
	C79.663452,143.008652 79.832031,143.010117 79.992805,143.421387 
	C79.655746,146.549057 79.326500,149.266907 78.528900,151.989655 
	C57.011520,151.991058 35.962502,151.987595 14.687803,151.735855 
	C11.702781,145.724960 8.877393,139.992767 6.206815,134.189316 
	C4.360531,130.177139 2.728032,126.066589 1.000001,122.000000 
z"/>
<path fill="#000000" opacity="1.000000" stroke="none" 
	d="
M175.011322,32.953941 
	C168.583466,27.656982 162.155609,22.360023 155.258514,16.778187 
	C154.574326,16.242887 154.313522,16.056776 153.821365,15.715822 
	C153.099289,15.301115 152.562683,15.105560 151.911804,14.717140 
	C151.608582,14.283080 151.372437,14.104120 150.958694,13.795472 
	C150.628922,13.350806 150.372162,13.189559 149.670105,13.071339 
	C147.580490,12.439715 145.826385,11.974604 144.188263,11.247993 
	C141.102448,9.879239 138.083527,8.359751 134.898193,6.715770 
	C134.529510,6.301787 134.254257,6.167855 133.646088,5.972382 
	C129.579620,4.927748 125.800858,4.037552 121.785759,2.941323 
	C121.366280,2.156860 121.183136,1.578430 121.000000,1.000000 
	C147.593094,1.000000 174.186172,1.000000 201.000000,1.000000 
	C201.000000,27.020479 201.000000,53.041580 201.000000,79.531342 
	C200.253387,78.895699 199.315033,77.875076 198.790741,76.673744 
	C194.867981,67.685356 191.027054,58.661251 186.985352,49.097591 
	C186.660034,48.265949 186.440079,48.059334 186.040710,47.597046 
	C182.635162,42.832291 179.339264,38.397499 175.907898,33.759727 
	C175.559769,33.304001 175.306061,33.103065 175.011322,32.953941 
z"/>
<path fill="#000000" opacity="1.000000" stroke="none" 
	d="
M1.000001,80.000000 
	C1.000000,53.739780 1.000000,27.479559 1.000000,1.000000 
	C27.020483,1.000000 53.041584,1.000000 79.585251,1.317373 
	C80.063499,2.061554 80.019180,2.488362 79.571793,2.951429 
	C75.601860,4.296190 72.034988,5.604692 68.094955,6.854998 
	C61.141628,9.838911 54.561466,12.881021 47.769924,16.040012 
	C47.288528,16.346315 47.083385,16.590284 46.604820,16.972309 
	C43.488060,19.017881 40.709583,20.979937 37.656113,23.108013 
	C35.897972,24.481766 34.414829,25.689495 32.653889,27.072193 
	C30.574677,29.135904 28.773260,31.024647 26.694227,33.094490 
	C24.918116,35.171444 23.419617,37.067291 21.674768,39.184666 
	C19.634966,42.290787 17.841515,45.175385 15.879148,48.145813 
	C15.463276,48.352055 15.318171,48.547909 15.089773,49.131660 
	C11.959962,55.704021 8.969902,61.943108 6.087350,68.231483 
	C4.306930,72.115517 2.690212,76.074608 1.000001,80.000000 
z"/>
<path fill="#000000" opacity="1.000000" stroke="none" 
	d="
M187.080902,151.981628 
	C190.751587,143.795380 194.431137,135.613083 198.085831,127.419708 
	C198.862869,125.677689 199.549454,123.895325 200.638855,122.065781 
	C201.000000,148.260223 201.000000,174.520432 201.000000,201.000000 
	C174.979523,201.000000 148.958420,201.000000 122.534210,200.637955 
	C124.076813,199.518661 126.062019,198.848724 127.961464,197.989243 
	C136.663483,194.051559 145.341507,190.060822 154.305817,185.948486 
	C155.417404,185.216324 156.251328,184.624832 157.385895,183.877075 
	C163.461533,178.829941 169.236557,173.939087 175.289246,168.870605 
	C176.996979,166.804962 178.427048,164.916946 180.036621,162.738556 
	C182.187424,159.655075 184.158676,156.861969 186.354599,153.874634 
	C186.746475,153.114151 186.913696,152.547882 187.080902,151.981628 
z"/>
<path fill="#000000" opacity="1.000000" stroke="none" 
	d="
M1.000001,122.468658 
	C2.728032,126.066589 4.360531,130.177139 6.206815,134.189316 
	C8.877393,139.992767 11.702781,145.724960 14.742507,152.027863 
	C15.304684,153.066452 15.586478,153.564758 15.978241,154.392334 
	C23.437675,166.723907 32.714390,176.827759 45.132694,184.265579 
	C46.206367,185.028000 47.095177,185.543915 48.202244,186.315781 
	C57.851265,192.571014 67.938179,196.941391 79.234390,199.091278 
	C79.645462,199.861649 79.822731,200.430817 80.000000,201.000000 
	C53.739780,201.000000 27.479559,201.000000 1.000000,201.000000 
	C1.000000,174.979523 1.000000,148.958420 1.000001,122.468658 
z"/>
<path fill="#231C47" opacity="1.000000" stroke="none" 
	d="
M1.000001,80.468399 
	C2.690212,76.074608 4.306930,72.115517 6.087350,68.231483 
	C8.969902,61.943108 11.959962,55.704021 15.536609,49.129761 
	C23.348497,48.845703 30.528408,48.876003 38.009178,48.926292 
	C38.711643,48.964455 39.113251,48.982628 39.628700,49.456863 
	C39.776695,56.289497 39.810844,62.666073 39.597069,69.362106 
	C39.214214,71.447044 39.135452,73.218971 38.933197,74.976692 
	C38.446396,79.207321 40.443073,80.585892 44.635075,79.836731 
	C45.066948,79.879128 45.237854,79.912254 45.325581,80.367676 
	C45.906235,84.039482 46.570068,87.289001 47.182278,90.981430 
	C47.086422,92.611244 47.042191,93.798157 46.995796,95.405167 
	C47.367016,99.714211 44.933144,100.040276 41.933140,100.026665 
	C28.289000,99.964714 14.644421,99.999809 1.000000,100.000000 
	C1.000000,93.645599 1.000000,87.291206 1.000001,80.468399 
z"/>
<path fill="#231C47" opacity="1.000000" stroke="none" 
	d="
M80.468658,201.000000 
	C79.822731,200.430817 79.645462,199.861649 79.234200,198.636902 
	C79.000572,193.662323 79.000938,189.343323 79.257011,185.018158 
	C79.683189,185.007629 79.853661,185.003265 80.476334,184.999100 
	C83.947922,185.000275 86.967300,185.001251 90.181900,184.860718 
	C90.623886,184.509338 90.835869,184.268814 91.422943,184.005585 
	C94.551971,184.343140 97.271126,184.672699 100.184349,184.860214 
	C100.624153,184.508331 100.835342,184.268143 101.465012,183.998093 
	C104.941231,183.998520 107.964462,183.998444 111.101089,184.099991 
	C111.214500,184.201630 111.644051,184.250137 111.644051,184.250137 
	C111.644051,184.250137 112.012314,183.998352 112.426826,184.006516 
	C115.887848,184.343323 118.934349,184.671967 122.240143,185.001785 
	C122.672295,185.002151 122.845146,185.001373 123.466446,185.000397 
	C126.606285,185.000610 129.297699,185.001038 132.245361,185.001617 
	C132.672440,185.001587 132.843277,185.001434 133.439423,185.000641 
	C136.905151,184.665909 139.945572,184.331787 143.132080,184.189713 
	C143.492416,184.625381 143.737701,184.832169 144.466873,185.001602 
	C147.935150,185.000519 150.950607,184.999954 153.980820,185.271881 
	C154.006424,185.725937 154.017273,185.907532 154.028137,186.089142 
	C145.341507,190.060822 136.663483,194.051559 127.961464,197.989243 
	C126.062019,198.848724 124.076813,199.518661 122.065552,200.637955 
	C108.312439,201.000000 94.624878,201.000000 80.468658,201.000000 
z"/>
<path fill="#221C47" opacity="1.000000" stroke="none" 
	d="
M79.974869,2.915170 
	C80.019180,2.488362 80.063499,2.061554 80.053909,1.317373 
	C93.354225,1.000000 106.708458,1.000000 120.531342,1.000000 
	C121.183136,1.578430 121.366280,2.156860 121.784119,3.284230 
	C122.346184,4.893574 122.673553,5.953978 123.000725,7.450302 
	C123.000351,9.923691 123.000175,11.961159 122.666962,14.076132 
	C119.317581,15.617249 120.063362,17.283243 122.718933,19.091154 
	C122.813126,17.394104 122.907318,15.697052 123.376450,14.072088 
	C129.681564,15.418605 129.970093,15.088869 130.333130,7.002837 
	C131.110443,7.003530 131.554611,7.004630 131.998993,7.432834 
	C131.659851,11.384067 131.048508,14.908028 131.046310,18.432367 
	C131.043213,23.424536 131.542389,28.415693 131.663712,33.411247 
	C131.676239,33.927109 130.581146,34.469872 129.998779,34.598213 
	C129.496140,28.045565 129.496140,28.045565 122.998383,29.606663 
	C121.997849,27.808933 120.998924,26.404543 119.998543,24.593906 
	C119.424057,18.835381 118.703880,18.381126 113.779961,20.105513 
	C113.262383,20.286772 112.596878,20.045630 112.144852,19.669647 
	C112.193230,17.225866 112.096771,15.112895 112.354973,13.078587 
	C113.016319,13.272971 113.324234,13.491248 113.629501,13.487612 
	C115.480087,13.465571 118.696167,13.882923 118.924812,13.245504 
	C119.618156,11.312597 119.155052,8.964864 119.142448,6.778727 
	C117.199837,7.300981 115.252213,7.805717 113.318253,8.358254 
	C112.855682,8.490411 112.438606,8.781830 111.750458,8.999880 
	C111.333534,8.999687 111.166771,8.999615 110.999756,8.668325 
	C110.999031,7.895485 110.998566,7.453862 111.099335,6.899111 
	C111.332657,6.478825 111.261940,6.215971 110.539230,5.998073 
	C107.394585,6.000126 104.699120,6.001526 101.669060,6.002469 
	C100.888313,6.002540 100.442177,6.003067 99.546951,6.002568 
	C96.402664,6.000253 93.707451,5.998964 90.817535,6.139485 
	C90.376648,6.491325 90.165031,6.731773 89.573227,6.994278 
	C86.113625,6.657675 83.068764,6.329434 80.017990,5.615884 
	C79.999672,4.458773 79.987274,3.686972 79.974869,2.915170 
z"/>
<path fill="#2F2852" opacity="1.000000" stroke="none" 
	d="
M1.000000,100.250000 
	C14.644421,99.999809 28.289000,99.964714 41.933140,100.026665 
	C44.933144,100.040276 47.367016,99.714211 47.215767,95.711624 
	C47.933926,98.907608 49.628414,100.418289 53.176788,100.066238 
	C56.130280,99.773216 59.140625,100.053261 61.761810,100.287231 
	C59.101059,100.662346 56.771580,101.156067 54.514244,100.929863 
	C49.658024,100.443214 47.725296,102.001686 47.885391,107.232758 
	C48.249985,119.145996 48.012554,131.077652 48.019760,143.001831 
	C48.019760,145.098007 48.019760,147.194183 48.019760,149.290359 
	C47.679886,149.287781 47.340008,149.285217 47.000134,149.282654 
	C47.000134,135.715958 47.001282,122.149246 46.999680,108.582542 
	C46.998787,101.000656 46.996727,101.000259 39.317486,100.999947 
	C26.857430,100.999443 14.397371,100.999512 1.468657,100.999672 
	C1.000000,101.000000 1.000000,100.500000 1.000000,100.250000 
z"/>
<path fill="#2B244E" opacity="1.000000" stroke="none" 
	d="
M201.000000,100.750000 
	C186.623840,101.000000 172.247665,101.000000 157.871506,101.000000 
	C157.869720,100.665825 157.867935,100.331657 157.866150,99.997482 
	C171.931671,99.997482 185.997177,99.997482 200.531342,99.998741 
	C201.000000,100.000000 201.000000,100.500000 201.000000,100.750000 
z"/>
<path fill="#C2C2FB" opacity="1.000000" stroke="none" 
	d="
M155.014709,144.832245 
	C155.999969,146.323074 156.985229,147.813904 158.234253,149.703827 
	C159.029190,150.015182 160.515961,150.597519 162.017395,151.919159 
	C162.077942,153.108536 162.123795,153.558624 162.101395,154.433868 
	C162.006775,156.864487 161.980423,158.869934 161.500488,160.918640 
	C157.697968,161.021942 154.349045,161.081970 150.649536,160.936829 
	C150.149994,159.300552 150.001038,157.869446 149.874817,156.656601 
	C147.141571,155.706146 144.625671,154.831268 141.969254,153.645691 
	C141.122772,151.539932 140.416809,149.744873 139.387360,147.127274 
	C139.498260,147.135651 138.258698,147.042007 136.977249,146.570175 
	C136.580719,145.088760 136.226089,143.985519 136.101471,142.645370 
	C138.176590,142.934082 140.021698,143.459702 141.914505,144.424347 
	C141.962204,146.791138 141.962204,148.718918 141.962204,150.780670 
	C144.056580,150.888000 145.516968,150.962830 147.195114,151.338928 
	C149.622223,152.080383 151.831558,152.520569 153.987549,153.387329 
	C154.003418,160.112747 154.887314,160.809753 160.666168,159.122467 
	C160.873962,153.663284 160.280319,153.124680 153.964920,152.642776 
	C153.018723,149.825745 152.067352,147.403732 151.476501,144.986206 
	C152.553726,144.938477 153.270416,144.886276 154.244110,144.891235 
	C154.672318,144.909683 154.843521,144.870956 155.014709,144.832245 
z"/>
<path fill="#2F2852" opacity="1.000000" stroke="none" 
	d="
M155.010132,144.374207 
	C154.843521,144.870956 154.672318,144.909683 154.248505,144.433167 
	C153.994949,132.611557 153.994003,121.305168 153.996368,109.530258 
	C153.997177,92.708267 153.994690,76.354797 153.994110,59.667511 
	C153.994202,58.888607 153.992416,58.443527 153.994873,57.530346 
	C153.996674,51.041958 153.994202,45.021667 153.993423,38.667587 
	C153.994003,37.888741 153.992920,37.443684 153.995483,36.530380 
	C153.996506,29.708200 153.993866,23.354269 153.996399,16.734016 
	C154.003326,16.290123 154.005066,16.112549 154.006821,15.934975 
	C154.313522,16.056776 154.574326,16.242887 154.917755,16.698025 
	C155.032700,59.240555 155.019119,101.578369 155.010132,144.374207 
z"/>
<path fill="#221B47" opacity="1.000000" stroke="none" 
	d="
M176.043350,33.962711 
	C179.339264,38.397499 182.635162,42.832291 185.582214,47.615395 
	C181.821915,47.306637 178.410446,46.649574 174.998993,45.992512 
	C174.999084,43.628742 174.999176,41.264977 175.212631,38.174747 
	C175.631775,36.286430 175.837570,35.124569 176.043350,33.962711 
z"/>
<path fill="#2B244E" opacity="1.000000" stroke="none" 
	d="
M162.169662,154.008713 
	C162.123795,153.558624 162.077942,153.108536 162.100891,152.324402 
	C170.155472,151.991241 178.141235,151.992111 186.603943,151.987305 
	C186.913696,152.547882 186.746475,153.114151 185.889130,153.855347 
	C182.133072,154.027023 179.067139,154.023758 175.537766,154.016403 
	C170.772766,154.011124 166.471207,154.009918 162.169662,154.008713 
z"/>
<path fill="#2B244E" opacity="1.000000" stroke="none" 
	d="
M174.838791,46.349030 
	C178.410446,46.649574 181.821915,47.306637 185.691864,47.945354 
	C186.440079,48.059334 186.660034,48.265949 186.865479,48.769756 
	C177.264267,48.992664 167.607788,48.992664 157.951294,48.992664 
	C157.938293,48.660763 157.925293,48.328865 157.912292,47.996964 
	C161.658478,47.996964 165.411819,48.134045 169.147827,47.938961 
	C171.007797,47.841839 172.836014,47.136021 174.838791,46.349030 
z"/>
<path fill="#2B244E" opacity="1.000000" stroke="none" 
	d="
M175.907898,33.759727 
	C175.837570,35.124569 175.631775,36.286430 175.212006,37.731945 
	C175.000656,36.609993 175.003296,35.204384 175.008636,33.376358 
	C175.306061,33.103065 175.559769,33.304001 175.907898,33.759727 
z"/>
<path fill="#2B244E" opacity="1.000000" stroke="none" 
	d="
M175.620392,131.989792 
	C175.619049,132.061050 175.387680,131.984421 175.387680,131.984421 
	C175.387680,131.984421 175.621735,131.918533 175.620392,131.989792 
z"/>
<path fill="#2B244E" opacity="1.000000" stroke="none" 
	d="
M175.492767,58.489693 
	C175.514374,58.481129 175.471146,58.498253 175.492767,58.489693 
z"/>
<path fill="#2B244E" opacity="1.000000" stroke="none" 
	d="
M175.490128,69.507729 
	C175.482086,69.486427 175.498169,69.529030 175.490128,69.507729 
z"/>
<path fill="#2B244E" opacity="1.000000" stroke="none" 
	d="
M175.492218,79.489319 
	C175.513992,79.480736 175.470428,79.497894 175.492218,79.489319 
z"/>
<path fill="#2B244E" opacity="1.000000" stroke="none" 
	d="
M175.492737,90.489868 
	C175.513901,90.481491 175.471573,90.498245 175.492737,90.489868 
z"/>
<path fill="#2B244E" opacity="1.000000" stroke="none" 
	d="
M175.510071,111.492050 
	C175.518097,111.513412 175.502045,111.470695 175.510071,111.492050 
z"/>
<path fill="#2B244E" opacity="1.000000" stroke="none" 
	d="
M175.510864,121.492096 
	C175.519348,121.513863 175.502396,121.470337 175.510864,121.492096 
z"/>
<path fill="#2B244E" opacity="1.000000" stroke="none" 
	d="
M175.492294,142.489334 
	C175.513992,142.480774 175.470596,142.497894 175.492294,142.489334 
z"/>
<path fill="#241D48" opacity="1.000000" stroke="none" 
	d="
M135.871445,142.882278 
	C136.226089,143.985519 136.580719,145.088760 137.030731,146.927139 
	C138.319611,151.279480 136.277191,152.005478 133.309357,151.997177 
	C125.872444,151.976364 118.435440,151.992554 110.998840,151.554321 
	C110.995934,149.972763 110.949562,148.828949 110.997543,147.689133 
	C111.136154,144.397141 109.625511,142.936340 106.296692,142.994568 
	C103.121460,143.050125 101.924522,144.643341 102.004562,147.605164 
	C102.044212,149.072281 102.006424,150.541504 101.699028,152.185867 
	C93.928680,152.236237 86.462967,152.110504 78.997253,151.984772 
	C79.326500,149.266907 79.655746,146.549057 79.993423,143.166138 
	C80.001579,142.331039 80.001297,142.160965 79.992111,141.565704 
	C79.989288,134.763702 79.995354,128.386887 79.859985,121.816124 
	C79.509018,121.377007 79.268936,121.166718 79.005127,120.636063 
	C79.025902,119.807251 79.039841,119.333694 79.402130,118.915543 
	C80.445053,118.931892 81.139641,118.892845 82.194107,118.968750 
	C85.022636,119.336983 87.491287,119.590256 90.280106,119.995781 
	C93.410904,121.689629 96.221527,123.231232 99.273903,124.776520 
	C99.809120,124.591019 99.970192,124.322441 99.990906,123.979294 
	C99.982948,123.984116 99.975243,124.001053 100.261093,123.866302 
	C100.769279,123.147911 100.991623,122.564270 101.353577,121.863190 
	C101.672745,121.433273 101.852280,121.120789 102.327652,120.602005 
	C102.837952,120.287010 103.052429,120.178322 103.446274,120.014885 
	C103.416534,119.641525 103.207420,119.322914 102.651077,118.986565 
	C101.469757,118.293579 100.635681,117.618340 99.774040,116.577194 
	C100.223282,115.144630 100.700081,114.077965 101.479309,113.146751 
	C107.505608,119.135422 113.229485,124.988647 119.022644,130.912720 
	C120.302940,130.155289 121.316422,129.555710 122.267471,128.993073 
	C122.909859,130.875320 123.449234,132.455734 124.189774,134.342560 
	C125.594772,134.841705 126.798615,135.034470 128.045471,135.581757 
	C129.614777,136.301147 131.141068,136.666016 132.711670,137.399933 
	C133.233063,139.815460 129.010513,144.725388 135.871445,142.882278 
z"/>
<path fill="#241D48" opacity="1.000000" stroke="none" 
	d="
M80.001427,122.010063 
	C79.995354,128.386887 79.989288,134.763702 79.800217,141.709900 
	C79.374054,142.490829 79.164696,142.731735 78.989128,143.002014 
	C68.963615,143.001602 58.938107,143.001190 48.466179,143.001297 
	C48.012554,131.077652 48.249985,119.145996 47.885391,107.232758 
	C47.725296,102.001686 49.658024,100.443214 54.514244,100.929863 
	C56.771580,101.156067 59.101059,100.662346 61.890320,100.263054 
	C62.382801,100.031128 62.645123,100.000473 62.726498,100.417938 
	C62.790119,102.533722 62.772369,104.232048 62.471107,105.904861 
	C61.209473,106.274178 59.445171,106.563713 59.375999,107.080254 
	C58.749878,111.755989 62.930611,111.787842 66.291000,112.991402 
	C65.567795,110.704491 64.844589,108.417587 64.486298,106.088699 
	C67.469345,106.590858 69.808289,109.286888 72.855560,107.428055 
	C73.671097,109.692947 74.192680,111.737923 75.227188,113.477943 
	C76.098793,114.943939 75.699997,118.021606 78.957314,117.084763 
	C78.956131,117.043777 78.874306,117.048988 78.913254,117.349991 
	C78.986069,118.054047 79.019928,118.457100 79.053787,118.860146 
	C79.039841,119.333694 79.025902,119.807251 79.146790,120.829880 
	C79.491150,121.624008 79.731087,121.834373 80.001427,122.010063 
z"/>
<path fill="#29224C" opacity="1.000000" stroke="none" 
	d="
M78.528900,151.989655 
	C86.462967,152.110504 93.928680,152.236237 102.148560,152.183563 
	C105.601311,152.001419 108.299896,151.997665 110.998474,151.993896 
	C118.435440,151.992554 125.872444,151.976364 133.309357,151.997177 
	C136.277191,152.005478 138.319611,151.279480 137.072632,147.305313 
	C138.258698,147.042007 139.498260,147.135651 139.387360,147.127274 
	C140.416809,149.744873 141.122772,151.539932 141.493652,153.655090 
	C130.026520,153.983200 118.894035,153.944656 107.762779,154.043640 
	C105.837257,154.060760 103.916931,154.660706 101.662941,154.992294 
	C100.890022,154.992157 100.448372,154.991196 99.659973,154.764069 
	C97.342773,154.358383 95.372650,154.027161 93.401825,154.022949 
	C75.268005,153.984268 57.134060,154.002213 38.531509,154.002808 
	C30.664671,154.022324 23.266474,154.042694 15.868275,154.063065 
	C15.586478,153.564758 15.304684,153.066452 14.968185,152.276154 
	C35.962502,151.987595 57.011520,151.991058 78.528900,151.989655 
z"/>
<path fill="#29224C" opacity="1.000000" stroke="none" 
	d="
M79.242004,143.004593 
	C79.164696,142.731735 79.374054,142.490829 79.809113,142.135101 
	C80.001297,142.160965 80.001579,142.331039 80.001236,142.756348 
	C79.832031,143.010117 79.663452,143.008652 79.242004,143.004593 
z"/>
<path fill="#241D48" opacity="1.000000" stroke="none" 
	d="
M153.991821,36.998627 
	C153.992920,37.443684 153.994003,37.888741 153.558380,38.667168 
	C148.219910,38.136833 143.400192,41.956696 138.346619,39.259472 
	C137.893997,39.017887 135.627792,40.887699 135.245010,42.104469 
	C134.676117,43.912830 135.036758,46.013611 134.601456,47.993439 
	C133.133606,47.994804 132.066071,47.992668 130.998901,47.552284 
	C130.996109,45.961357 130.986053,44.808651 130.991257,43.656010 
	C131.002945,41.066582 130.245895,38.550312 127.233139,39.305260 
	C125.579041,39.719749 124.074112,41.879601 123.136467,43.598602 
	C122.512245,44.743015 123.008286,46.498486 122.668846,47.985031 
	C121.889351,47.990025 121.443909,47.990433 120.998802,47.563370 
	C120.902931,39.168686 120.433434,38.810719 112.467422,40.482571 
	C111.847206,40.612743 111.152107,40.612747 110.531952,40.482338 
	C102.231018,38.736866 101.034515,39.925785 103.005188,48.258278 
	C103.004997,48.499798 103.005371,48.983238 102.920303,49.333847 
	C102.030693,50.519619 101.226151,51.354782 100.231552,51.972717 
	C99.296921,50.868095 98.552338,49.980698 98.164185,48.941750 
	C98.662643,46.086716 99.316345,43.242256 98.634048,40.765896 
	C98.430092,40.025631 94.492607,40.261162 92.260658,40.157799 
	C91.328987,40.114651 90.380844,40.470806 89.446060,40.443642 
	C85.964043,40.342438 82.484467,40.157490 79.018265,39.676056 
	C79.355553,38.562744 79.678535,37.777344 80.431030,36.994320 
	C85.833862,37.654552 90.460144,34.478649 95.842773,36.410450 
	C98.633965,37.412193 100.403145,34.175022 99.650154,30.625444 
	C99.218246,28.589428 99.652565,26.380011 99.590698,24.251745 
	C99.543915,22.642601 99.350517,21.036083 99.182335,19.432592 
	C99.033134,18.010124 98.573555,16.570061 98.700951,15.178972 
	C98.982307,12.106745 99.546959,9.060462 99.996033,6.003595 
	C100.442177,6.003067 100.888313,6.002540 101.668198,6.439317 
	C102.034851,12.184024 102.060501,17.491499 102.112877,22.798710 
	C102.117661,23.284174 102.367256,23.766457 102.377090,24.252768 
	C102.420174,26.382483 102.297905,28.522678 102.467850,30.640438 
	C102.604294,32.340836 102.587486,34.425461 103.552254,35.568527 
	C104.309593,36.465828 106.456505,36.316345 107.998306,36.396091 
	C110.335350,36.516968 112.687721,36.524792 115.024437,36.403931 
	C116.564987,36.324253 118.711365,36.454174 119.465073,35.552673 
	C120.425148,34.404354 120.534630,32.299076 120.474663,30.625534 
	C120.430786,29.400925 119.522568,28.207283 119.195808,26.791733 
	C119.594666,26.055777 119.797333,25.527927 120.000000,25.000038 
	C120.000000,25.000000 120.000000,25.000153 120.000000,25.000153 
	C120.998924,26.404543 121.997849,27.808933 122.998451,30.023306 
	C123.000595,32.222088 123.001060,33.610893 123.214172,35.292809 
	C125.790466,37.327354 128.077850,38.212883 130.000000,35.000076 
	C130.000000,35.000000 130.000000,35.000153 130.000000,35.000153 
	C130.581146,34.469872 131.676239,33.927109 131.663712,33.411247 
	C131.542389,28.415693 131.043213,23.424536 131.046310,18.432367 
	C131.048508,14.908028 131.659851,11.384067 132.267181,7.384945 
	C133.001373,6.648910 133.467575,6.387866 133.933792,6.126822 
	C134.254257,6.167855 134.529510,6.301787 134.888336,7.168909 
	C135.019882,15.991167 134.844070,24.180645 135.187546,32.348293 
	C135.250549,33.846809 138.173172,36.673569 138.509171,36.495621 
	C143.853180,33.665283 148.845398,38.111454 153.991821,36.998627 
z"/>
<path fill="#221B47" opacity="1.000000" stroke="none" 
	d="
M153.995483,36.530380 
	C148.845398,38.111454 143.853180,33.665283 138.509171,36.495621 
	C138.173172,36.673569 135.250549,33.846809 135.187546,32.348293 
	C134.844070,24.180645 135.019882,15.991167 135.026932,7.356060 
	C138.083527,8.359751 141.102448,9.879239 144.188263,11.247993 
	C145.826385,11.974604 147.580490,12.439715 149.817108,13.242053 
	C150.570190,13.675145 150.815903,13.850532 151.089127,13.987396 
	C151.372437,14.104120 151.608582,14.283080 151.985870,15.020039 
	C152.779861,16.010647 153.385544,16.505491 153.991226,17.000338 
	C153.993866,23.354269 153.996506,29.708200 153.995483,36.530380 
M141.471939,16.648634 
	C142.431091,17.535038 143.390259,18.421442 144.349411,19.307846 
	C144.693314,18.009785 145.037231,16.711723 145.381149,15.413664 
	C144.137543,15.607845 142.893921,15.802027 141.471939,16.648634 
M144.785858,25.733156 
	C143.626953,26.329496 142.468033,26.925835 141.309128,27.522173 
	C142.029755,28.244904 142.750381,28.967634 143.470993,29.690369 
	C144.070160,28.533215 144.669327,27.376062 144.785858,25.733156 
z"/>
<path fill="#29224C" opacity="1.000000" stroke="none" 
	d="
M133.646088,5.972383 
	C133.467575,6.387866 133.001373,6.648910 132.266968,6.957841 
	C131.554611,7.004630 131.110443,7.003530 129.895660,7.001680 
	C127.083679,7.005414 125.042297,7.009899 123.000916,7.014381 
	C122.673553,5.953978 122.346184,4.893574 122.020454,3.490263 
	C125.800858,4.037552 129.579620,4.927748 133.646088,5.972383 
z"/>
<path fill="#241D48" opacity="1.000000" stroke="none" 
	d="
M153.996399,16.734016 
	C153.385544,16.505491 152.779861,16.010647 152.100128,15.212904 
	C152.562683,15.105560 153.099289,15.301115 153.821365,15.715822 
	C154.005066,16.112549 154.003326,16.290123 153.996399,16.734016 
z"/>
<path fill="#241D48" opacity="1.000000" stroke="none" 
	d="
M150.958694,13.795472 
	C150.815903,13.850532 150.570190,13.675145 150.204971,13.290522 
	C150.372162,13.189559 150.628922,13.350806 150.958694,13.795472 
z"/>
<path fill="#231C47" opacity="1.000000" stroke="none" 
	d="
M80.001526,36.991947 
	C79.678535,37.777344 79.355553,38.562744 79.008385,39.949360 
	C78.977425,40.732800 78.970634,40.915024 78.499161,41.054752 
	C68.027679,40.950264 58.020889,40.888275 48.011166,40.368538 
	C47.999252,31.914902 47.990280,23.919018 47.981308,15.923133 
	C54.561466,12.881021 61.141628,9.838911 68.598320,6.866145 
	C72.983429,6.964385 76.492020,6.993280 79.991821,7.445653 
	C79.989334,14.241086 79.995636,20.613041 79.899803,27.099030 
	C79.664444,27.521366 79.732536,27.788679 80.001617,28.463898 
	C80.001373,31.605844 80.001450,34.298897 80.001526,36.991947 
z"/>
<path fill="#241D48" opacity="1.000000" stroke="none" 
	d="
M39.514854,49.000801 
	C39.113251,48.982628 38.711643,48.964455 37.787994,48.759632 
	C36.513275,48.427071 35.760593,48.281155 35.005753,47.683121 
	C34.999424,46.075600 35.356358,44.750973 34.911652,43.802017 
	C34.123611,42.120434 32.848572,40.667072 31.777317,39.118210 
	C30.199095,40.637009 28.300926,41.953342 27.163361,43.750992 
	C26.487444,44.819122 27.009167,46.645130 26.619822,48.149796 
	C25.501549,48.164040 24.755880,48.158878 24.008099,47.715179 
	C23.311029,44.505478 22.616074,41.734306 21.921120,38.963139 
	C23.419617,37.067291 24.918116,35.171444 26.776508,33.445251 
	C29.103331,34.525780 31.070259,35.436646 33.037186,36.347515 
	C33.572197,34.176949 34.335011,32.026939 34.533596,29.826017 
	C34.616661,28.905428 33.501865,27.876755 32.931683,26.897223 
	C34.414829,25.689495 35.897972,24.481766 37.891689,23.388779 
	C38.798573,25.203972 39.647392,26.940727 39.514370,28.598707 
	C38.872990,36.592873 39.057869,36.901871 46.986549,37.380272 
	C46.990238,38.784775 46.988781,39.806202 46.539307,40.898407 
	C44.044491,40.969185 41.997692,40.969185 40.011650,40.969185 
	C39.815987,44.132454 39.665421,46.566628 39.514854,49.000801 
z"/>
<path fill="#221B47" opacity="1.000000" stroke="none" 
	d="
M46.981411,36.997192 
	C39.057869,36.901871 38.872990,36.592873 39.514370,28.598707 
	C39.647392,26.940727 38.798573,25.203972 38.166683,23.222757 
	C40.709583,20.979937 43.488060,19.017881 46.620201,17.450432 
	C46.976383,24.229090 46.978897,30.613142 46.981411,36.997192 
z"/>
<path fill="#221B47" opacity="1.000000" stroke="none" 
	d="
M32.653889,27.072193 
	C33.501865,27.876755 34.616661,28.905428 34.533596,29.826017 
	C34.335011,32.026939 33.572197,34.176949 33.037186,36.347515 
	C31.070259,35.436646 29.103331,34.525780 27.054123,33.264153 
	C28.773260,31.024647 30.574677,29.135904 32.653889,27.072193 
z"/>
<path fill="#221B47" opacity="1.000000" stroke="none" 
	d="
M21.674767,39.184666 
	C22.616074,41.734306 23.311029,44.505478 23.564476,47.719639 
	C20.764668,48.128414 18.406364,48.094196 16.048063,48.059978 
	C17.841515,45.175385 19.634966,42.290787 21.674767,39.184666 
z"/>
<path fill="#29224C" opacity="1.000000" stroke="none" 
	d="
M80.000603,7.022176 
	C76.492020,6.993280 72.983429,6.964385 68.971481,6.924342 
	C72.034988,5.604692 75.601860,4.296190 79.571793,2.951429 
	C79.987274,3.686972 79.999672,4.458773 80.012154,5.871125 
	C80.008354,6.681843 80.004478,6.852010 80.000603,7.022176 
z"/>
<path fill="#2F2852" opacity="1.000000" stroke="none" 
	d="
M46.986549,37.380272 
	C46.978897,30.613142 46.976383,24.229090 46.958488,17.366917 
	C47.083385,16.590284 47.288528,16.346315 47.769928,16.040012 
	C47.990280,23.919018 47.999252,31.914902 47.754547,40.425030 
	C47.329685,40.902058 47.158504,40.864841 46.987328,40.827629 
	C46.988781,39.806202 46.990238,38.784775 46.986549,37.380272 
z"/>
<path fill="#484371" opacity="1.000000" stroke="none" 
	d="
M15.879148,48.145813 
	C18.406364,48.094196 20.764668,48.128414 23.566589,48.158173 
	C24.755880,48.158878 25.501549,48.164040 27.064827,48.161499 
	C30.257595,48.147606 32.632755,48.141422 35.007915,48.135239 
	C35.760593,48.281155 36.513275,48.427071 37.487137,48.739647 
	C30.528408,48.876003 23.348497,48.845703 15.721752,48.817303 
	C15.318171,48.547909 15.463276,48.352055 15.879148,48.145813 
z"/>
<path fill="#231C47" opacity="1.000000" stroke="none" 
	d="
M162.101395,154.433868 
	C166.471207,154.009918 170.772766,154.011124 175.537537,154.463242 
	C176.000671,157.602051 176.000565,160.289963 175.779907,163.292755 
	C175.376740,165.421188 175.194153,167.234695 175.011566,169.048218 
	C169.236557,173.939087 163.461533,178.829941 157.022034,183.715027 
	C155.906296,182.062378 155.133881,180.428741 155.065445,178.766144 
	C154.877167,174.191879 154.983963,169.605453 155.406677,165.016907 
	C158.711761,164.865463 162.371445,165.885254 161.954071,160.875381 
	C161.980423,158.869934 162.006775,156.864487 162.101395,154.433868 
z"/>
<path fill="#221B47" opacity="1.000000" stroke="none" 
	d="
M176.000473,162.977859 
	C176.000565,160.289963 176.000671,157.602051 176.000992,154.467316 
	C179.067139,154.023758 182.133072,154.027023 185.664459,154.049591 
	C184.158676,156.861969 182.187424,159.655075 179.652847,162.731384 
	C178.059845,163.002350 177.030167,162.990097 176.000473,162.977859 
z"/>
<path fill="#29224C" opacity="1.000000" stroke="none" 
	d="
M154.974014,165.023849 
	C154.983963,169.605453 154.877167,174.191879 155.065445,178.766144 
	C155.133881,180.428741 155.906296,182.062378 156.721390,183.871277 
	C156.251328,184.624832 155.417404,185.216324 154.305817,185.948486 
	C154.017273,185.907532 154.006424,185.725937 153.989258,184.803589 
	C153.997421,177.716400 154.011887,171.369949 154.263275,165.021378 
	C154.500183,165.019241 154.974014,165.023849 154.974014,165.023849 
z"/>
<path fill="#2B244E" opacity="1.000000" stroke="none" 
	d="
M175.779907,163.292755 
	C177.030167,162.990097 178.059845,163.002350 179.473328,163.021759 
	C178.427048,164.916946 176.996979,166.804962 175.289246,168.870605 
	C175.194153,167.234695 175.376740,165.421188 175.779907,163.292755 
z"/>
<path fill="#221C47" opacity="1.000000" stroke="none" 
	d="
M154.026352,165.023514 
	C154.011887,171.369949 153.997421,177.716400 153.974487,184.531113 
	C150.950607,184.999954 147.935150,185.000519 144.320694,184.809509 
	C143.507568,184.374283 143.262329,184.167542 142.985977,183.997681 
	C139.945572,184.331787 136.905151,184.665909 133.325729,184.898987 
	C132.479813,184.665329 132.213943,184.733154 131.989105,185.001465 
	C129.297699,185.001038 126.606285,185.000610 123.351387,184.897919 
	C122.477936,184.662048 122.208923,184.730377 121.980858,185.000610 
	C118.934349,184.671967 115.887848,184.343323 112.170593,184.006027 
	C111.329124,183.997696 111.158409,183.998032 110.987686,183.998352 
	C107.964462,183.998444 104.941231,183.998520 101.270554,184.139893 
	C100.377258,184.490906 100.166313,184.731262 99.990273,185.002258 
	C97.271126,184.672699 94.551971,184.343140 91.227608,184.147110 
	C90.375687,184.490509 90.163780,184.731033 89.986679,185.002228 
	C86.967300,185.001251 83.947922,185.000275 80.360489,184.897217 
	C79.478539,184.662064 79.214828,184.738449 79.001305,185.024323 
	C79.000938,189.343323 79.000572,193.662323 79.000397,198.435699 
	C67.938179,196.941391 57.851265,192.571014 48.209084,185.841751 
	C47.997665,175.659164 47.997665,166.206573 47.997665,156.753983 
	C47.653717,156.747314 47.309772,156.740662 46.965824,156.733994 
	C46.965824,158.822464 46.965824,160.910919 46.534050,162.999435 
	C39.138912,162.906036 39.040642,162.808701 39.000698,155.942261 
	C38.996941,155.296082 39.000168,154.649857 39.000153,154.003662 
	C57.134060,154.002213 75.268005,153.984268 93.401825,154.022949 
	C95.372650,154.027161 97.342773,154.358383 99.657974,155.189606 
	C100.175453,157.866455 100.348175,159.891586 100.520905,161.916733 
	C101.012001,161.871246 101.503105,161.825775 101.994202,161.780304 
	C101.994202,159.517349 101.994202,157.254410 101.994202,154.991455 
	C103.916931,154.660706 105.837257,154.060760 107.762779,154.043640 
	C118.894035,153.944656 130.026520,153.983200 141.634186,153.965790 
	C144.625671,154.831268 147.141571,155.706146 149.874817,156.656601 
	C150.001038,157.869446 150.149994,159.300552 150.658127,161.302200 
	C152.020325,162.922989 153.023346,163.973251 154.026352,165.023514 
M79.497749,163.529831 
	C79.497749,163.529831 79.480583,163.485992 79.497749,163.529831 
M122.529259,163.502060 
	C122.529259,163.502060 122.486160,163.518814 122.529259,163.502060 
M58.498165,184.528641 
	C58.498165,184.528641 58.481560,184.486176 58.498165,184.528641 
z"/>
<path fill="#231C47" opacity="1.000000" stroke="none" 
	d="
M38.531509,154.002808 
	C39.000168,154.649857 38.996941,155.296082 39.000698,155.942261 
	C39.040642,162.808701 39.138912,162.906036 46.543312,163.468018 
	C46.988724,169.146912 47.144058,174.364258 46.903275,179.563278 
	C46.833241,181.075485 45.631050,182.535263 44.947830,184.019073 
	C32.714390,176.827759 23.437675,166.723907 15.978241,154.392334 
	C23.266474,154.042694 30.664671,154.022324 38.531509,154.002808 
z"/>
<path fill="#2F2852" opacity="1.000000" stroke="none" 
	d="
M45.132698,184.265579 
	C45.631050,182.535263 46.833241,181.075485 46.903275,179.563278 
	C47.144058,174.364258 46.988724,169.146912 46.975082,163.467957 
	C46.965824,160.910919 46.965824,158.822464 46.965824,156.733994 
	C47.309772,156.740662 47.653717,156.747314 47.997665,156.753983 
	C47.997665,166.206573 47.997665,175.659164 47.990826,185.585785 
	C47.095177,185.543915 46.206367,185.028000 45.132698,184.265579 
z"/>
<path fill="#3936C2" opacity="1.000000" stroke="none" 
	d="
M45.408760,79.945389 
	C45.237854,79.912254 45.066948,79.879128 44.292416,79.628746 
	C42.787083,78.107567 41.426682,76.909782 41.094440,75.474068 
	C40.631252,73.472481 40.936871,71.292969 40.900604,69.098648 
	C40.887741,69.007683 41.000881,68.862915 41.376225,68.949081 
	C43.033852,69.168343 44.316135,69.301437 45.613789,69.818649 
	C45.370136,73.432159 46.955574,74.471367 50.399811,73.886665 
	C53.580963,74.482094 56.362526,74.854874 59.020355,75.644272 
	C60.656109,76.130096 62.017128,77.524673 63.650230,78.038704 
	C68.971962,79.713737 68.656342,74.224968 71.115028,72.308235 
	C71.831711,73.041481 72.408592,73.525757 73.009720,74.459068 
	C73.135719,83.867455 72.601357,82.956612 80.850090,83.041077 
	C81.498795,83.047722 82.146294,83.171387 82.989014,83.512306 
	C85.546692,86.682922 87.427025,90.275192 92.295433,90.054573 
	C92.997314,90.497047 93.440277,90.832474 93.912834,91.599220 
	C93.961830,93.771225 93.981232,95.511909 93.565750,97.207680 
	C91.328987,97.032875 89.527092,96.902977 87.459755,96.753944 
	C87.232780,95.181313 87.028954,93.769051 86.815186,92.287888 
	C85.097908,92.073586 83.635201,91.891060 82.185333,91.371941 
	C82.135880,90.365913 82.073593,89.696465 81.803314,88.647873 
	C77.470551,88.268730 73.345772,88.268730 69.366821,88.268730 
	C68.839615,86.094734 68.498489,84.688034 68.055153,82.859901 
	C63.285488,82.859901 58.640636,82.859901 54.011024,82.519180 
	C53.332943,81.199104 52.639626,80.219749 51.576756,79.177460 
	C49.981102,79.231445 48.754997,79.348351 47.169518,79.440933 
	C46.373123,79.604042 45.936096,79.791489 45.465664,79.999802 
	C45.432255,80.020676 45.408760,79.945389 45.408760,79.945389 
z"/>
<path fill="#261F44" opacity="1.000000" stroke="none" 
	d="
M51.946304,79.240387 
	C52.639626,80.219749 53.332943,81.199104 53.720528,82.715958 
	C54.257557,83.492218 55.112564,83.694946 55.940910,83.976189 
	C59.028061,85.024307 62.106468,86.098198 65.125885,87.521240 
	C62.084396,89.952408 59.209717,92.055328 62.597099,96.132843 
	C62.408707,96.551155 62.474056,96.814812 62.795395,97.026161 
	C62.884769,97.010941 63.066006,97.016212 62.987869,97.386406 
	C62.821529,98.504555 62.733326,99.252518 62.645119,100.000473 
	C62.645123,100.000473 62.382801,100.031128 62.254295,100.055298 
	C59.140625,100.053261 56.130280,99.773216 53.176788,100.066238 
	C49.628414,100.418289 47.933926,98.907608 47.217934,95.291534 
	C47.042191,93.798157 47.086422,92.611244 47.450031,90.922684 
	C48.250793,89.347969 48.732178,88.274910 49.213562,87.201843 
	C49.639259,85.535194 50.375713,84.213524 50.927074,82.818695 
	C51.380756,81.670967 51.614876,80.436440 51.946304,79.240387 
z"/>
<path fill="#C2C2FB" opacity="1.000000" stroke="none" 
	d="
M46.539307,40.898407 
	C47.158504,40.864841 47.329685,40.902058 47.757484,40.882782 
	C58.020889,40.888275 68.027679,40.950264 78.519989,41.486259 
	C79.064194,43.975735 79.122871,45.991199 79.144157,48.260780 
	C79.390640,48.668259 79.674522,48.821617 79.973389,49.006012 
	C79.988373,49.037048 80.053864,49.015583 80.220436,49.311768 
	C79.951233,51.213505 79.515457,52.819057 79.259178,53.763283 
	C81.064835,55.118546 82.415733,56.132473 83.781677,57.566017 
	C83.779068,59.944275 83.761406,61.902924 83.466255,64.049652 
	C83.456657,65.175659 83.724548,66.113586 84.261200,67.264191 
	C85.786797,67.951645 87.043640,68.426407 88.273048,69.290527 
	C88.308945,70.455399 88.372276,71.230904 88.370392,72.328705 
	C88.338287,73.086266 88.371407,73.521530 88.207733,74.050377 
	C88.010948,74.143967 87.588745,74.252022 87.440094,73.859787 
	C87.021782,72.516251 86.958229,70.870499 86.450935,70.719955 
	C80.714760,69.017639 82.505157,64.370949 82.174141,60.495945 
	C82.054878,59.099926 81.714699,56.730843 81.013268,56.544418 
	C77.572281,55.629898 77.936447,53.138424 77.914650,50.654774 
	C77.836708,41.775562 77.830162,41.774956 69.005524,42.077503 
	C68.673256,42.088898 68.342278,42.137955 67.543304,42.120193 
	C60.096294,42.052319 53.106285,42.256916 46.140865,41.932888 
	C41.837868,41.732719 40.734520,43.432610 40.884659,47.428009 
	C41.152832,54.564358 40.985901,61.717052 41.000881,68.862915 
	C41.000881,68.862915 40.887741,69.007683 40.639175,69.024414 
	C40.208736,69.041641 40.026867,69.042145 39.844997,69.042648 
	C39.810844,62.666073 39.776695,56.289497 39.628700,49.456863 
	C39.665421,46.566628 39.815987,44.132454 40.011650,40.969185 
	C41.997692,40.969185 44.044491,40.969185 46.539307,40.898407 
z"/>
<path fill="#F8D157" opacity="1.000000" stroke="none" 
	d="
M51.576759,79.177460 
	C51.614876,80.436440 51.380756,81.670967 50.927074,82.818695 
	C50.375713,84.213524 49.639259,85.535194 49.213562,87.201843 
	C48.732178,88.274910 48.250793,89.347969 47.501656,90.479782 
	C46.570068,87.289001 45.906235,84.039482 45.325581,80.367676 
	C45.408760,79.945389 45.432255,80.020676 45.837173,80.122826 
	C46.671028,79.971733 47.099960,79.718498 47.528893,79.465256 
	C48.754997,79.348351 49.981102,79.231445 51.576759,79.177460 
z"/>
<path fill="#484371" opacity="1.000000" stroke="none" 
	d="
M39.597069,69.362106 
	C40.026867,69.042145 40.208736,69.041641 40.652039,69.115372 
	C40.936871,71.292969 40.631252,73.472481 41.094440,75.474068 
	C41.426682,76.909782 42.787083,78.107567 44.031448,79.619492 
	C40.443073,80.585892 38.446396,79.207321 38.933197,74.976692 
	C39.135452,73.218971 39.214214,71.447044 39.597069,69.362106 
z"/>
<path fill="#29224C" opacity="1.000000" stroke="none" 
	d="
M100.184349,184.860214 
	C100.166313,184.731262 100.377258,184.490906 100.817551,184.139374 
	C100.835342,184.268143 100.624153,184.508331 100.184349,184.860214 
z"/>
<path fill="#29224C" opacity="1.000000" stroke="none" 
	d="
M79.257011,185.018158 
	C79.214828,184.738449 79.478539,184.662064 79.908279,184.897034 
	C79.853661,185.003265 79.683189,185.007629 79.257011,185.018158 
z"/>
<path fill="#29224C" opacity="1.000000" stroke="none" 
	d="
M90.181900,184.860718 
	C90.163780,184.731033 90.375687,184.490509 90.817734,184.139130 
	C90.835869,184.268814 90.623886,184.509338 90.181900,184.860718 
z"/>
<path fill="#29224C" opacity="1.000000" stroke="none" 
	d="
M111.101089,184.099991 
	C111.158409,183.998032 111.329124,183.997696 111.756073,183.997864 
	C112.012314,183.998352 111.644051,184.250137 111.644051,184.250137 
	C111.644051,184.250137 111.214500,184.201630 111.101089,184.099991 
z"/>
<path fill="#29224C" opacity="1.000000" stroke="none" 
	d="
M122.240143,185.001770 
	C122.208923,184.730377 122.477936,184.662048 122.902954,184.898132 
	C122.845146,185.001373 122.672295,185.002151 122.240143,185.001770 
z"/>
<path fill="#29224C" opacity="1.000000" stroke="none" 
	d="
M132.245361,185.001617 
	C132.213943,184.733154 132.479813,184.665329 132.900421,184.899628 
	C132.843277,185.001434 132.672440,185.001587 132.245361,185.001617 
z"/>
<path fill="#29224C" opacity="1.000000" stroke="none" 
	d="
M143.132080,184.189713 
	C143.262329,184.167542 143.507568,184.374283 143.867859,184.810028 
	C143.737701,184.832169 143.492416,184.625381 143.132080,184.189713 
z"/>
<path fill="#221B47" opacity="1.000000" stroke="none" 
	d="
M79.991821,7.445653 
	C80.004478,6.852010 80.008354,6.681843 80.018066,6.256435 
	C83.068764,6.329434 86.113625,6.657675 89.768089,6.852505 
	C90.623878,6.509110 90.835396,6.268637 91.012238,5.997676 
	C93.707451,5.998964 96.402664,6.000253 99.546951,6.002568 
	C99.546959,9.060462 98.982307,12.106745 98.700951,15.178972 
	C98.573555,16.570061 99.033134,18.010124 99.182335,19.432592 
	C99.350517,21.036083 99.543915,22.642601 99.590698,24.251745 
	C99.652565,26.380011 99.218246,28.589428 99.650154,30.625444 
	C100.403145,34.175022 98.633965,37.412193 95.842773,36.410450 
	C90.460144,34.478649 85.833862,37.654552 80.431030,36.994320 
	C80.001450,34.298897 80.001373,31.605844 80.002380,28.206299 
	C80.002953,27.328203 80.002449,27.156599 80.001938,26.984997 
	C79.995636,20.613041 79.989334,14.241086 79.991821,7.445653 
M88.401772,15.820624 
	C89.151909,16.977623 89.902046,18.134621 90.652184,19.291620 
	C91.238579,18.265518 91.824974,17.239416 92.411369,16.213312 
	C91.176765,15.887237 89.942162,15.561161 88.401772,15.820624 
M88.415833,26.824341 
	C89.343147,27.740694 90.270462,28.657045 91.197777,29.573400 
	C91.661484,28.665962 92.125198,27.758526 92.588905,26.851089 
	C91.303726,26.639376 90.018555,26.427662 88.415833,26.824341 
z"/>
<path fill="#221B47" opacity="1.000000" stroke="none" 
	d="
M118.999611,26.999842 
	C119.522568,28.207283 120.430786,29.400925 120.474663,30.625534 
	C120.534630,32.299076 120.425148,34.404354 119.465073,35.552673 
	C118.711365,36.454174 116.564987,36.324253 115.024437,36.403931 
	C112.687721,36.524792 110.335350,36.516968 107.998306,36.396091 
	C106.456505,36.316345 104.309593,36.465828 103.552254,35.568527 
	C102.587486,34.425461 102.604294,32.340836 102.467850,30.640438 
	C102.297905,28.522678 102.420174,26.382483 102.377090,24.252768 
	C102.367256,23.766457 102.117661,23.284174 102.112877,22.798710 
	C102.060501,17.491499 102.034851,12.184024 102.002800,6.439774 
	C104.699120,6.001526 107.394585,6.000126 110.541695,6.251798 
	C110.994926,6.673993 110.996513,6.843116 110.998100,7.012239 
	C110.998566,7.453862 110.999031,7.895485 110.998566,9.070042 
	C110.665108,11.538794 109.940598,13.313869 110.109413,14.999477 
	C110.280960,16.712404 111.333344,18.337116 112.000000,20.000458 
	C112.596878,20.045630 113.262383,20.286772 113.779961,20.105513 
	C118.703880,18.381126 119.424057,18.835381 119.998543,24.593908 
	C120.000000,25.000153 120.000000,25.000000 119.750763,25.060196 
	C119.334221,25.746874 119.166916,26.373360 118.999611,26.999842 
M114.324089,26.579870 
	C113.549469,26.053072 112.774849,25.526274 111.330048,25.154755 
	C110.682472,26.130962 109.891609,27.053062 109.488167,28.121462 
	C109.387421,28.388269 110.895363,29.665424 111.051132,29.561314 
	C112.125175,28.843481 113.036743,27.882557 114.324089,26.579870 
z"/>
<path fill="#221B47" opacity="1.000000" stroke="none" 
	d="
M112.000610,9.000001 
	C112.438606,8.781830 112.855682,8.490411 113.318253,8.358254 
	C115.252213,7.805717 117.199837,7.300981 119.142448,6.778727 
	C119.155052,8.964864 119.618156,11.312597 118.924812,13.245504 
	C118.696167,13.882923 115.480087,13.465571 113.629501,13.487612 
	C113.324234,13.491248 113.016319,13.272971 112.354919,12.678600 
	C112.000343,11.133301 112.000473,10.066650 112.000610,9.000001 
z"/>
<path fill="#221B47" opacity="1.000000" stroke="none" 
	d="
M123.000717,7.450302 
	C125.042297,7.009899 127.083679,7.005414 129.562531,7.002088 
	C129.970093,15.088869 129.681564,15.418605 123.375687,14.072088 
	C123.000000,14.000000 123.000000,13.998627 123.000000,13.998627 
	C123.000175,11.961159 123.000351,9.923691 123.000717,7.450302 
z"/>
<path fill="#221B47" opacity="1.000000" stroke="none" 
	d="
M123.001526,34.999695 
	C123.001060,33.610893 123.000595,32.222088 123.000061,30.416643 
	C129.496140,28.045565 129.496140,28.045565 129.998779,34.598213 
	C130.000000,35.000153 130.000000,35.000000 129.562546,35.000031 
	C127.083900,34.999939 125.042717,34.999817 123.001526,34.999695 
z"/>
<path fill="#241D48" opacity="1.000000" stroke="none" 
	d="
M111.750458,8.999880 
	C112.000473,10.066650 112.000343,11.133301 112.000259,12.599937 
	C112.096771,15.112895 112.193230,17.225866 112.144852,19.669647 
	C111.333344,18.337116 110.280960,16.712404 110.109413,14.999477 
	C109.940598,13.313869 110.665108,11.538794 110.998817,9.401258 
	C111.166771,8.999615 111.333534,8.999687 111.750458,8.999880 
z"/>
<path fill="#241D48" opacity="1.000000" stroke="none" 
	d="
M123.000755,14.000000 
	C122.907318,15.697052 122.813126,17.394104 122.718933,19.091154 
	C120.063362,17.283243 119.317581,15.617249 122.666962,14.076132 
	C123.000000,13.998627 123.000000,14.000000 123.000755,14.000000 
z"/>
<path fill="#29224C" opacity="1.000000" stroke="none" 
	d="
M111.099335,6.899111 
	C110.996513,6.843116 110.994926,6.673993 110.990875,6.251144 
	C111.261940,6.215971 111.332657,6.478825 111.099335,6.899111 
z"/>
<path fill="#29224C" opacity="1.000000" stroke="none" 
	d="
M90.817535,6.139485 
	C90.835396,6.268637 90.623878,6.509110 90.182838,6.860867 
	C90.165031,6.731773 90.376648,6.491325 90.817535,6.139485 
z"/>
<path fill="#241D48" opacity="1.000000" stroke="none" 
	d="
M153.993057,109.998779 
	C153.994003,121.305168 153.994949,132.611557 153.991501,144.376007 
	C153.270416,144.886276 152.553726,144.938477 151.329620,144.690125 
	C149.893707,143.897781 148.965210,143.405975 148.006897,142.492859 
	C147.977097,140.497589 147.977097,138.923676 147.977097,137.516647 
	C145.666687,136.985809 143.834961,136.564957 141.719696,135.971191 
	C140.646301,135.164978 139.856415,134.531693 139.032043,133.572723 
	C138.944153,132.814911 138.890747,132.382782 138.906189,131.525146 
	C138.975067,129.834625 138.975067,128.569656 138.975067,127.304672 
	C138.616989,127.555428 138.258926,127.806183 137.900848,128.056946 
	C136.217667,126.723846 134.534470,125.390755 132.851288,124.057655 
	C133.091248,123.720551 133.331207,123.383446 133.571167,123.046341 
	C132.151459,122.831573 130.731766,122.616806 130.327087,122.555595 
	C127.856544,119.127174 125.905701,116.419945 123.508110,113.092766 
	C123.077698,113.046837 121.647949,112.894257 120.456886,112.767151 
	C119.989693,111.231155 119.996696,109.542381 119.174545,108.874878 
	C116.788177,106.937393 114.016815,105.480934 111.529198,103.654968 
	C111.083405,103.327744 111.270767,102.137932 111.479523,101.207352 
	C114.601639,102.385094 117.008560,102.728363 118.636917,99.190216 
	C119.235107,97.890450 120.699547,96.989357 122.031860,96.234146 
	C122.535980,99.499504 122.773201,102.437462 123.019142,105.374680 
	C123.366135,109.518646 126.436493,111.094711 129.892410,108.842873 
	C130.957245,108.149033 131.866150,107.215874 133.101883,106.177704 
	C135.713150,109.445847 138.556473,111.300522 142.467529,108.598190 
	C142.991959,108.235847 144.036728,108.551445 144.825714,108.660431 
	C147.884735,109.083015 150.937790,109.548973 153.993057,109.998779 
z"/>
<path fill="#615EE8" opacity="1.000000" stroke="none" 
	d="
M139.066544,133.898407 
	C139.856415,134.531693 140.646301,135.164978 141.714600,136.407959 
	C142.007004,139.366196 142.020996,141.714737 141.976044,144.080231 
	C141.917114,144.097168 141.866806,143.985321 141.866806,143.985321 
	C140.021698,143.459702 138.176590,142.934082 136.101471,142.645370 
	C129.010513,144.725388 133.233063,139.815460 132.843689,137.388748 
	C132.931412,137.008530 133.188141,136.945267 133.516754,136.888123 
	C135.585754,135.853455 137.326157,134.875931 139.066544,133.898407 
z"/>
<path fill="#615EE8" opacity="1.000000" stroke="none" 
	d="
M148.036697,142.914185 
	C148.965210,143.405975 149.893707,143.897781 150.969101,144.685638 
	C152.067352,147.403732 153.018723,149.825745 153.985229,152.623535 
	C154.000381,152.999313 154.040909,152.960754 154.040909,152.960754 
	C151.831558,152.520569 149.622223,152.080383 147.202988,150.900696 
	C146.986481,148.116791 146.979858,146.072388 147.171005,143.862671 
	C147.591415,143.436295 147.814056,143.175232 148.036697,142.914185 
z"/>
<path fill="#615EE8" opacity="1.000000" stroke="none" 
	d="
M153.980072,153.018555 
	C160.280319,153.124680 160.873962,153.663284 160.666168,159.122467 
	C154.887314,160.809753 154.003418,160.112747 153.987549,153.387329 
	C154.040909,152.960754 154.000381,152.999313 153.980072,153.018555 
z"/>
<path fill="#221B47" opacity="1.000000" stroke="none" 
	d="
M154.263275,165.021378 
	C153.023346,163.973251 152.020325,162.922989 151.008728,161.507355 
	C154.349045,161.081970 157.697968,161.021942 161.500488,160.918640 
	C162.371445,165.885254 158.711761,164.865463 155.406677,165.016907 
	C154.974014,165.023849 154.500183,165.019241 154.263275,165.021378 
z"/>
<path fill="#3936C2" opacity="1.000000" stroke="none" 
	d="
M146.973236,144.027985 
	C146.979858,146.072388 146.986481,148.116791 146.985229,150.599426 
	C145.516968,150.962830 144.056580,150.888000 141.962204,150.780670 
	C141.962204,148.718918 141.962204,146.791138 141.914505,144.424347 
	C141.866806,143.985321 141.917114,144.097168 142.386414,144.040436 
	C144.228210,143.998459 145.600723,144.013229 146.973236,144.027985 
z"/>
<path fill="#221B47" opacity="1.000000" stroke="none" 
	d="
M153.996368,109.530258 
	C150.937790,109.548973 147.884735,109.083015 144.825714,108.660431 
	C144.036728,108.551445 142.991959,108.235847 142.467529,108.598190 
	C138.556473,111.300522 135.713150,109.445847 133.101883,106.177704 
	C131.866150,107.215874 130.957245,108.149033 129.892410,108.842873 
	C126.436493,111.094711 123.366135,109.518646 123.019142,105.374680 
	C122.773201,102.437462 122.535980,99.499504 122.067375,95.931412 
	C121.823883,94.895630 121.807884,94.490318 122.075287,93.859322 
	C132.330215,85.322952 129.671646,97.658928 133.276001,101.451920 
	C134.052795,98.649849 134.889252,96.982231 134.919632,95.300056 
	C135.094208,85.636177 135.300064,75.962868 135.040726,66.304970 
	C134.890579,60.713303 136.287201,59.271652 141.517410,60.973267 
	C142.545715,61.307816 143.726852,61.442581 144.798584,61.322361 
	C147.873840,60.977398 150.929092,60.454369 153.992218,60.001335 
	C153.994690,76.354797 153.997177,92.708267 153.996368,109.530258 
M141.729401,91.777214 
	C143.015182,91.570793 144.300964,91.364372 145.586746,91.157959 
	C145.127136,90.248581 144.667526,89.339203 144.207901,88.429825 
	C143.277710,89.341911 142.347519,90.253990 141.729401,91.777214 
M145.692963,69.498100 
	C144.527802,68.914810 143.362625,68.331528 142.197464,67.748238 
	C142.037903,68.752296 141.878326,69.756355 141.718750,70.760414 
	C143.006302,70.564728 144.293869,70.369041 145.692963,69.498100 
M145.100052,80.915329 
	C144.180222,80.278175 143.260391,79.641022 142.340561,79.003876 
	C142.089020,79.661858 141.837494,80.319847 141.585953,80.977829 
	C142.613602,81.102707 143.641235,81.227585 145.100052,80.915329 
z"/>
<path fill="#241D48" opacity="1.000000" stroke="none" 
	d="
M153.994110,59.667511 
	C150.929092,60.454369 147.873840,60.977398 144.798584,61.322361 
	C143.726852,61.442581 142.545715,61.307816 141.517410,60.973267 
	C136.287201,59.271652 134.890579,60.713303 135.040726,66.304970 
	C135.300064,75.962868 135.094208,85.636177 134.919632,95.300056 
	C134.889252,96.982231 134.052795,98.649849 133.276001,101.451920 
	C129.671646,97.658928 132.330215,85.322952 121.678009,93.812782 
	C120.595421,92.425758 120.193512,90.859596 119.776222,89.233482 
	C121.861160,88.946404 123.245033,88.755859 125.069107,88.504700 
	C123.504494,86.800369 122.275848,85.462013 121.014519,83.745956 
	C119.617020,82.231308 118.252213,81.094368 116.938889,79.640900 
	C117.025673,78.898712 117.060974,78.473053 117.341507,77.968628 
	C117.665611,77.587791 117.744484,77.285713 117.897263,76.631439 
	C117.584503,75.203537 117.197845,74.127815 116.867935,72.781502 
	C116.886856,72.330521 116.849030,72.150131 116.736847,71.610291 
	C115.448059,71.151115 114.233635,71.051384 112.960434,70.660477 
	C112.896935,69.972778 112.892220,69.576241 113.308029,69.141510 
	C114.546783,69.060455 115.584129,69.320854 116.142082,68.917732 
	C117.801323,67.718918 120.133453,66.471443 120.537285,64.832611 
	C120.846893,63.576218 118.925247,60.746883 117.474510,60.296398 
	C114.603416,59.404861 112.527435,61.124584 111.991318,64.323189 
	C111.835487,65.252861 111.308594,66.120338 110.630066,66.940300 
	C109.522598,66.635651 108.736870,66.407028 107.718445,66.103691 
	C107.485764,66.028976 107.014206,66.157501 106.716232,66.023651 
	C105.340958,65.273849 104.263657,64.657906 103.026962,63.701149 
	C100.677223,58.203804 96.318748,58.999119 91.686218,59.329174 
	C88.776299,58.531208 86.271461,57.838806 83.766624,57.146404 
	C82.415733,56.132473 81.064835,55.118546 79.259178,53.763283 
	C79.515457,52.819057 79.951233,51.213505 80.594116,49.137714 
	C85.910057,48.958748 91.018883,49.250015 95.785629,49.678062 
	C94.310028,50.563229 93.176506,51.311623 92.042984,52.060013 
	C93.408752,53.041077 94.662865,54.522900 96.172325,54.859455 
	C97.621750,55.182632 99.335785,54.319061 101.189438,54.214874 
	C104.726540,61.701466 111.548500,53.938656 115.754181,57.760895 
	C116.248573,58.210205 118.203743,57.768650 118.891296,57.117050 
	C119.865173,56.194115 120.552521,54.755592 120.877205,53.419533 
	C121.216797,52.022106 120.982124,50.485126 121.332581,49.008663 
	C122.112114,49.011993 122.557541,49.015808 123.002228,49.457100 
	C123.010818,51.226398 122.558891,52.822517 123.135704,53.829163 
	C124.039719,55.406837 125.638580,56.586365 126.943130,57.934532 
	C128.284439,56.624306 130.062027,55.526157 130.833603,53.938961 
	C131.490204,52.588276 130.988037,50.674267 131.398834,49.006920 
	C132.866669,49.006260 133.934219,49.008160 135.001373,49.448097 
	C135.356216,52.269646 134.948105,55.412022 136.316406,56.788441 
	C137.348282,57.826435 140.652069,56.571705 142.949661,56.407974 
	C143.578583,56.363152 144.225677,56.571808 144.864304,56.665077 
	C147.906433,57.109352 150.948532,57.553951 153.990631,57.998444 
	C153.992416,58.443527 153.994202,58.888607 153.994110,59.667511 
M125.603470,60.704712 
	C125.069588,61.136555 124.535713,61.568398 123.706757,62.672935 
	C123.471680,64.115189 123.236595,65.557442 123.001099,67.922409 
	C123.004532,70.229813 123.117264,72.543419 122.986725,74.843216 
	C122.770599,78.650581 125.024544,79.135696 128.050064,78.986992 
	C131.412704,78.821709 132.061874,76.837616 131.923874,73.970268 
	C131.784058,71.065872 132.079681,68.130028 131.789413,65.247742 
	C131.642258,63.786579 130.624283,62.413116 129.200012,60.999905 
	C128.133347,60.999866 127.066673,60.999828 125.603470,60.704712 
z"/>
<path fill="#221B47" opacity="1.000000" stroke="none" 
	d="
M153.994888,57.530342 
	C150.948532,57.553951 147.906433,57.109352 144.864304,56.665077 
	C144.225677,56.571808 143.578583,56.363152 142.949661,56.407974 
	C140.652069,56.571705 137.348282,57.826435 136.316406,56.788441 
	C134.948105,55.412022 135.356216,52.269646 135.468399,49.444214 
	C140.716217,49.002289 145.496597,49.002289 150.276978,49.002289 
	C150.277695,48.664837 150.278412,48.327389 150.279129,47.989937 
	C145.186676,47.989937 140.094223,47.989937 135.001770,47.989937 
	C135.036758,46.013611 134.676117,43.912830 135.245010,42.104469 
	C135.627792,40.887699 137.893997,39.017887 138.346619,39.259472 
	C143.400192,41.956696 148.219910,38.136833 153.556702,39.000957 
	C153.994202,45.021667 153.996674,51.041958 153.994888,57.530342 
z"/>
<path fill="#C2C2FB" opacity="1.000000" stroke="none" 
	d="
M82.172493,91.708527 
	C83.635201,91.891060 85.097908,92.073586 86.815186,92.287888 
	C87.028954,93.769051 87.232780,95.181313 87.459755,96.753944 
	C89.527092,96.902977 91.328987,97.032875 93.735931,97.487000 
	C96.543755,98.847198 98.746544,99.883171 101.109627,101.182610 
	C101.881134,101.978065 102.492340,102.510056 103.060547,103.452354 
	C103.051353,110.331680 104.659264,111.788193 112.016022,112.019341 
	C111.994598,112.005402 111.966759,111.962547 111.983826,112.377617 
	C112.894363,116.414268 113.787827,120.035851 114.768181,124.009636 
	C118.383636,124.658447 122.208878,125.344910 126.011810,126.022423 
	C125.989502,126.013474 125.956543,125.978500 125.975525,126.370346 
	C125.325874,129.186844 124.657249,131.611511 123.988617,134.036163 
	C123.449234,132.455734 122.909859,130.875320 122.267471,128.993073 
	C121.316422,129.555710 120.302940,130.155289 119.022644,130.912720 
	C113.229485,124.988647 107.505608,119.135422 101.362488,112.901703 
	C100.660332,112.304115 100.377426,112.087006 100.050919,111.479736 
	C99.347115,109.435692 98.686928,107.781792 97.657059,106.057701 
	C94.825554,103.762650 92.322792,101.581070 89.912941,99.301285 
	C87.287857,96.817863 84.748970,94.243332 82.172493,91.708527 
z"/>
<path fill="#FEEB99" opacity="1.000000" stroke="none" 
	d="
M98.026741,106.127899 
	C98.686928,107.781792 99.347115,109.435692 99.707901,111.546173 
	C95.055496,111.989883 92.466042,114.276154 91.114716,118.268486 
	C90.915710,118.856422 90.353882,119.321564 89.959930,119.843521 
	C87.491287,119.590256 85.022636,119.336983 82.093163,118.669380 
	C80.712990,117.853027 79.793648,117.451004 78.874306,117.048981 
	C78.874306,117.048988 78.956131,117.043777 78.944000,116.774574 
	C79.931839,114.507538 80.931816,112.509697 82.247566,110.469719 
	C88.433113,111.566895 93.355270,109.298187 98.026741,106.127899 
z"/>
<path fill="#F9AE39" opacity="1.000000" stroke="none" 
	d="
M90.280106,119.995773 
	C90.353882,119.321564 90.915710,118.856422 91.114716,118.268486 
	C92.466042,114.276154 95.055496,111.989883 99.751518,111.936325 
	C100.377426,112.087006 100.660332,112.304115 101.060059,112.766266 
	C100.700081,114.077965 100.223282,115.144630 99.551163,116.672997 
	C97.053970,119.649757 98.114601,121.861488 99.975243,124.001053 
	C99.975243,124.001053 99.982948,123.984116 99.822617,124.104233 
	C99.432701,124.384735 99.222664,124.567566 99.032150,124.772835 
	C96.221527,123.231232 93.410904,121.689629 90.280106,119.995773 
z"/>
<path fill="#221C47" opacity="1.000000" stroke="none" 
	d="
M110.998840,151.554321 
	C108.299896,151.997665 105.601311,152.001419 102.453201,152.007477 
	C102.006424,150.541504 102.044212,149.072281 102.004562,147.605164 
	C101.924522,144.643341 103.121460,143.050125 106.296692,142.994568 
	C109.625511,142.936340 111.136154,144.397141 110.997543,147.689133 
	C110.949562,148.828949 110.995934,149.972763 110.998840,151.554321 
z"/>
<path fill="#615EE8" opacity="1.000000" stroke="none" 
	d="
M124.189774,134.342560 
	C124.657249,131.611511 125.325874,129.186844 126.371124,126.343079 
	C128.814850,126.666618 130.881943,127.409264 132.963150,128.553833 
	C132.989014,130.297974 133.000793,131.640198 132.614517,132.964233 
	C130.811813,133.706436 129.407135,134.466827 128.002457,135.227219 
	C126.798615,135.034470 125.594772,134.841705 124.189774,134.342560 
z"/>
<path fill="#3936C2" opacity="1.000000" stroke="none" 
	d="
M128.045471,135.581757 
	C129.407135,134.466827 130.811813,133.706436 132.628769,133.361816 
	C133.090088,134.833481 133.139114,135.889374 133.188141,136.945267 
	C133.188141,136.945267 132.931412,137.008530 132.799393,137.019714 
	C131.141068,136.666016 129.614777,136.301147 128.045471,135.581757 
z"/>
<path fill="#F8D157" opacity="1.000000" stroke="none" 
	d="
M100.261093,123.866302 
	C98.114601,121.861488 97.053970,119.649757 99.578735,117.038910 
	C100.635681,117.618340 101.469757,118.293579 102.751114,119.244583 
	C103.221222,119.703438 103.244057,119.886536 103.266899,120.069641 
	C103.052429,120.178322 102.837952,120.287010 102.093582,120.545090 
	C101.447113,121.123199 101.330536,121.551910 101.213959,121.980629 
	C100.991623,122.564270 100.769279,123.147911 100.261093,123.866302 
z"/>
<path fill="#F8D157" opacity="1.000000" stroke="none" 
	d="
M78.913254,117.349991 
	C79.793648,117.451004 80.712990,117.853027 81.733276,118.554428 
	C81.139641,118.892845 80.445053,118.931892 79.402130,118.915543 
	C79.019928,118.457100 78.986069,118.054047 78.913254,117.349991 
z"/>
<path fill="#29224C" opacity="1.000000" stroke="none" 
	d="
M101.353584,121.863190 
	C101.330536,121.551910 101.447113,121.123199 101.797760,120.751396 
	C101.852280,121.120789 101.672745,121.433273 101.353584,121.863190 
z"/>
<path fill="#29224C" opacity="1.000000" stroke="none" 
	d="
M103.446274,120.014885 
	C103.244057,119.886536 103.221222,119.703438 103.098358,119.262329 
	C103.207420,119.322914 103.416534,119.641525 103.446274,120.014885 
z"/>
<path fill="#29224C" opacity="1.000000" stroke="none" 
	d="
M79.859985,121.816124 
	C79.731087,121.834373 79.491150,121.624008 79.139961,121.185135 
	C79.268936,121.166718 79.509018,121.377007 79.859985,121.816124 
z"/>
<path fill="#F8D157" opacity="1.000000" stroke="none" 
	d="
M99.273903,124.776520 
	C99.222664,124.567566 99.432701,124.384735 99.830574,124.099411 
	C99.970192,124.322441 99.809120,124.591019 99.273903,124.776520 
z"/>
<path fill="#F9AE39" opacity="1.000000" stroke="none" 
	d="
M62.726494,100.417938 
	C62.733326,99.252518 62.821529,98.504555 63.339039,97.388763 
	C64.470528,97.040726 65.172707,97.060516 65.920776,97.471771 
	C65.029099,103.552895 70.918205,103.790482 73.094009,106.959442 
	C72.993492,107.005486 72.783897,107.075966 72.783897,107.075966 
	C69.808289,109.286888 67.469345,106.590858 64.144447,106.040642 
	C63.210003,105.999840 62.982311,105.965111 62.754620,105.930374 
	C62.772369,104.232048 62.790119,102.533722 62.726494,100.417938 
z"/>
<path fill="#F8D157" opacity="1.000000" stroke="none" 
	d="
M81.931793,110.511864 
	C80.931816,112.509697 79.931839,114.507538 78.945175,116.815552 
	C75.699997,118.021606 76.098793,114.943939 75.227188,113.477943 
	C74.192680,111.737923 73.671097,109.692947 72.855560,107.428055 
	C72.783897,107.075966 72.993492,107.005486 73.396622,107.005325 
	C74.206833,106.999947 74.613930,106.994728 75.342323,107.134163 
	C77.753014,108.356506 79.842400,109.434189 81.931793,110.511864 
z"/>
<path fill="#B5885A" opacity="1.000000" stroke="none" 
	d="
M62.471107,105.904861 
	C62.982311,105.965111 63.210003,105.999840 63.779541,106.082626 
	C64.844589,108.417587 65.567795,110.704491 66.291000,112.991402 
	C62.930611,111.787842 58.749878,111.755989 59.375999,107.080254 
	C59.445171,106.563713 61.209473,106.274178 62.471107,105.904861 
z"/>
<path fill="#241D48" opacity="1.000000" stroke="none" 
	d="
M101.662941,154.992294 
	C101.994202,157.254410 101.994202,159.517349 101.994202,161.780304 
	C101.503105,161.825775 101.012001,161.871246 100.520905,161.916733 
	C100.348175,159.891586 100.175453,157.866455 100.004715,155.415771 
	C100.448372,154.991196 100.890022,154.992157 101.662941,154.992294 
z"/>
<path fill="#221B47" opacity="1.000000" stroke="none" 
	d="
M96.127708,49.541283 
	C91.018883,49.250015 85.910057,48.958748 80.427551,48.841530 
	C80.053864,49.015583 79.988373,49.037048 79.872742,48.823570 
	C79.593910,48.381618 79.402061,48.180477 79.181549,48.006664 
	C79.122871,45.991199 79.064194,43.975735 78.984680,41.528763 
	C78.970634,40.915024 78.977425,40.732800 78.994095,40.277275 
	C82.484467,40.157490 85.964043,40.342438 89.446060,40.443642 
	C90.380844,40.470806 91.328987,40.114651 92.260658,40.157799 
	C94.492607,40.261162 98.430092,40.025631 98.634048,40.765896 
	C99.316345,43.242256 98.662643,46.086716 97.884628,49.017757 
	C96.874992,49.343971 96.501350,49.442627 96.127708,49.541283 
z"/>
<path fill="#221B47" opacity="1.000000" stroke="none" 
	d="
M120.998474,49.009148 
	C120.982124,50.485126 121.216797,52.022106 120.877205,53.419533 
	C120.552521,54.755592 119.865173,56.194115 118.891296,57.117050 
	C118.203743,57.768650 116.248573,58.210205 115.754181,57.760895 
	C111.548500,53.938656 104.726540,61.701466 101.177094,53.900879 
	C100.746445,52.962650 100.584023,52.576298 100.421608,52.189945 
	C101.226151,51.354782 102.030693,50.519619 103.387619,49.338146 
	C109.626160,48.997604 115.312317,49.003376 120.998474,49.009148 
z"/>
<path fill="#221B47" opacity="1.000000" stroke="none" 
	d="
M103.005371,48.016754 
	C101.034515,39.925785 102.231018,38.736866 110.531952,40.482338 
	C111.152107,40.612747 111.847206,40.612743 112.467422,40.482571 
	C120.433434,38.810719 120.902931,39.168686 120.531052,47.566940 
	C114.377098,48.004238 108.691238,48.010498 103.005371,48.016754 
z"/>
<path fill="#221B47" opacity="1.000000" stroke="none" 
	d="
M123.002914,47.980453 
	C123.008286,46.498486 122.512245,44.743015 123.136467,43.598602 
	C124.074112,41.879601 125.579041,39.719749 127.233139,39.305260 
	C130.245895,38.550312 131.002945,41.066582 130.991257,43.656010 
	C130.986053,44.808651 130.996109,45.961357 130.554962,47.555969 
	C127.741440,47.992088 125.372177,47.986271 123.002914,47.980453 
z"/>
<path fill="#2F2852" opacity="1.000000" stroke="none" 
	d="
M122.668854,47.985031 
	C125.372177,47.986271 127.741440,47.992088 130.554626,47.994217 
	C132.066071,47.992668 133.133606,47.994804 134.601440,47.993439 
	C140.094223,47.989937 145.186676,47.989937 150.279129,47.989937 
	C150.278412,48.327389 150.277695,48.664837 150.276978,49.002289 
	C145.496597,49.002289 140.716217,49.002289 135.468811,49.006176 
	C133.934219,49.008160 132.866669,49.006260 130.954895,49.003227 
	C127.741432,49.007942 125.372200,49.013783 123.002960,49.019623 
	C122.557541,49.015808 122.112114,49.011993 121.332581,49.008663 
	C115.312317,49.003376 109.626160,48.997604 103.472687,48.987534 
	C103.005371,48.983238 103.004997,48.499798 103.005188,48.258278 
	C108.691238,48.010498 114.377098,48.004238 120.530716,47.994408 
	C121.443909,47.990433 121.889351,47.990025 122.668854,47.985031 
z"/>
<path fill="#B5885A" opacity="1.000000" stroke="none" 
	d="
M100.231552,51.972717 
	C100.584023,52.576298 100.746445,52.962650 100.921204,53.662994 
	C99.335785,54.319061 97.621750,55.182632 96.172325,54.859455 
	C94.662865,54.522900 93.408752,53.041077 92.042984,52.060013 
	C93.176506,51.311623 94.310028,50.563229 95.785629,49.678062 
	C96.501350,49.442627 96.874992,49.343971 97.528198,49.169308 
	C98.552338,49.980698 99.296921,50.868095 100.231552,51.972717 
z"/>
<path fill="#221C47" opacity="1.000000" stroke="none" 
	d="
M123.214172,35.292809 
	C125.042717,34.999817 127.083900,34.999939 129.562546,35.000107 
	C128.077850,38.212883 125.790466,37.327354 123.214172,35.292809 
z"/>
<path fill="#221C47" opacity="1.000000" stroke="none" 
	d="
M119.195808,26.791733 
	C119.166916,26.373360 119.334221,25.746874 119.750763,25.060234 
	C119.797333,25.527927 119.594666,26.055777 119.195808,26.791733 
z"/>
<path fill="#241D48" opacity="1.000000" stroke="none" 
	d="
M141.561127,16.322422 
	C142.893921,15.802027 144.137543,15.607845 145.381149,15.413662 
	C145.037231,16.711723 144.693314,18.009785 144.349411,19.307846 
	C143.390259,18.421442 142.431091,17.535038 141.561127,16.322422 
z"/>
<path fill="#241D48" opacity="1.000000" stroke="none" 
	d="
M145.027161,25.976032 
	C144.669327,27.376062 144.070160,28.533215 143.470993,29.690367 
	C142.750381,28.967634 142.029755,28.244904 141.309128,27.522173 
	C142.468033,26.925835 143.626953,26.329496 145.027161,25.976032 
z"/>
<path fill="#29224C" opacity="1.000000" stroke="none" 
	d="
M79.899803,27.099030 
	C80.002449,27.156599 80.002953,27.328203 80.002701,27.757404 
	C79.732536,27.788679 79.664444,27.521366 79.899803,27.099030 
z"/>
<path fill="#221B47" opacity="1.000000" stroke="none" 
	d="
M35.005753,47.683121 
	C32.632755,48.141422 30.257595,48.147606 27.437431,48.142094 
	C27.009167,46.645130 26.487444,44.819122 27.163361,43.750992 
	C28.300926,41.953342 30.199095,40.637009 31.777317,39.118210 
	C32.848572,40.667072 34.123611,42.120434 34.911652,43.802017 
	C35.356358,44.750973 34.999424,46.075600 35.005753,47.683121 
z"/>
<path fill="#29224C" opacity="1.000000" stroke="none" 
	d="
M79.489166,163.507904 
	C79.480583,163.485992 79.497749,163.529831 79.489166,163.507904 
z"/>
<path fill="#29224C" opacity="1.000000" stroke="none" 
	d="
M122.507706,163.510437 
	C122.486160,163.518814 122.529259,163.502060 122.507706,163.510437 
z"/>
<path fill="#29224C" opacity="1.000000" stroke="none" 
	d="
M58.489861,184.507416 
	C58.481560,184.486176 58.498165,184.528641 58.489861,184.507416 
z"/>
<path fill="#FFFEFE" opacity="1.000000" stroke="none" 
	d="
M82.247566,110.469719 
	C79.842400,109.434189 77.753014,108.356506 75.239632,106.781784 
	C72.341003,101.132019 69.866379,95.979294 67.479897,90.742661 
	C67.568039,90.658752 67.726555,90.474060 68.017021,90.514603 
	C68.810661,90.082100 69.313835,89.609039 70.287544,89.093384 
	C74.509163,89.042870 78.260231,89.034950 82.011307,89.027023 
	C82.073593,89.696465 82.135880,90.365913 82.185333,91.371948 
	C84.748970,94.243332 87.287857,96.817863 89.912941,99.301285 
	C92.322792,101.581070 94.825554,103.762650 97.657059,106.057701 
	C93.355270,109.298187 88.433113,111.566895 82.247566,110.469719 
z"/>
<path fill="#7976F9" opacity="1.000000" stroke="none" 
	d="
M68.010696,42.169460 
	C68.342278,42.137955 68.673256,42.088898 69.005524,42.077503 
	C77.830162,41.774956 77.836708,41.775562 77.914650,50.654774 
	C77.936447,53.138424 77.572281,55.629898 81.013268,56.544418 
	C81.714699,56.730843 82.054878,59.099926 82.174141,60.495945 
	C82.505157,64.370949 80.714760,69.017639 86.450935,70.719955 
	C86.958229,70.870499 87.021782,72.516251 87.401718,74.281410 
	C87.883698,78.223618 85.590698,82.553917 91.357643,83.315247 
	C91.815536,83.375702 91.986732,85.607826 92.176353,87.208664 
	C92.053200,88.373589 92.044861,89.160553 92.036514,89.947525 
	C87.427025,90.275192 85.546692,86.682922 83.035072,83.041077 
	C83.103615,73.997505 83.103615,73.997101 74.929901,73.993996 
	C74.281761,73.993752 73.633614,74.004440 72.985474,74.010040 
	C72.408592,73.525757 71.831711,73.041481 71.240585,72.034866 
	C71.490425,70.760536 71.754509,70.008537 72.277031,69.081703 
	C72.826553,68.610474 73.117622,68.314079 73.773369,67.998833 
	C77.988960,67.402344 77.838020,64.005280 76.248909,62.621349 
	C72.351242,59.226936 73.067528,55.116405 72.987946,50.588295 
	C73.048553,46.477329 70.258820,47.127666 68.006767,46.551079 
	C68.006737,44.824036 68.008713,43.496750 68.010696,42.169460 
z"/>
<path fill="#7D7AF7" opacity="1.000000" stroke="none" 
	d="
M67.543304,42.120193 
	C68.008713,43.496750 68.006737,44.824036 67.537407,46.567051 
	C61.766380,46.989780 56.455719,47.165928 51.161385,46.947018 
	C47.343105,46.789139 45.787350,48.083881 45.896946,52.057430 
	C46.056515,57.842648 45.722172,63.641491 45.598419,69.434525 
	C44.316135,69.301437 43.033852,69.168343 41.376225,68.949081 
	C40.985901,61.717052 41.152832,54.564358 40.884659,47.428009 
	C40.734520,43.432610 41.837868,41.732719 46.140865,41.932888 
	C53.106285,42.256916 60.096294,42.052319 67.543304,42.120193 
z"/>
<path fill="#9695F8" opacity="1.000000" stroke="none" 
	d="
M45.613789,69.818649 
	C45.722172,63.641491 46.056515,57.842648 45.896946,52.057430 
	C45.787350,48.083881 47.343105,46.789139 51.161385,46.947018 
	C56.455719,47.165928 61.766380,46.989780 67.539413,46.966805 
	C70.258820,47.127666 73.048553,46.477329 72.520988,50.594208 
	C68.084595,50.993515 64.103294,51.174850 60.145180,50.949314 
	C56.346779,50.732880 54.437500,52.003380 54.591785,56.011913 
	C50.824760,55.676064 49.888031,57.444416 49.968819,60.481285 
	C50.087181,64.930809 49.966702,69.386696 49.947998,73.839867 
	C46.955574,74.471367 45.370136,73.432159 45.613789,69.818649 
z"/>
<path fill="#7D7AF7" opacity="1.000000" stroke="none" 
	d="
M50.399811,73.886665 
	C49.966702,69.386696 50.087181,64.930809 49.968819,60.481285 
	C49.888031,57.444416 50.824760,55.676064 54.584888,56.004997 
	C54.998833,55.998821 54.986828,55.986755 54.986134,56.452518 
	C54.985142,57.901310 54.987942,58.884346 54.984074,59.867363 
	C54.941681,70.633263 54.695679,68.741158 63.865391,69.492645 
	C64.545982,71.202332 65.182533,72.511299 65.819092,73.820267 
	C66.689041,72.856415 67.437622,71.727219 68.462753,70.974800 
	C69.506256,70.208885 70.822037,69.813927 72.018585,69.256546 
	C71.754509,70.008537 71.490425,70.760536 71.100784,71.785904 
	C68.656342,74.224968 68.971962,79.713737 63.650230,78.038704 
	C62.017128,77.524673 60.656109,76.130096 59.020355,75.644272 
	C56.362526,74.854874 53.580963,74.482094 50.399811,73.886665 
z"/>
<path fill="#615EE8" opacity="1.000000" stroke="none" 
	d="
M73.009720,74.459068 
	C73.633614,74.004440 74.281761,73.993752 74.929901,73.993996 
	C83.103615,73.997101 83.103615,73.997505 82.840408,82.769440 
	C82.146294,83.171387 81.498795,83.047722 80.850090,83.041077 
	C72.601357,82.956612 73.135719,83.867455 73.009720,74.459068 
z"/>
<path fill="#7976F9" opacity="1.000000" stroke="none" 
	d="
M100.949326,100.919144 
	C98.746544,99.883171 96.543755,98.847198 94.170799,97.531906 
	C93.981232,95.511909 93.961830,93.771225 94.277718,91.667633 
	C95.807953,91.402046 97.002899,91.499390 98.593399,91.636337 
	C99.792496,93.043938 100.596031,94.411926 101.278687,96.196022 
	C101.088310,98.047798 101.018814,99.483475 100.949326,100.919144 
z"/>
<path fill="#C2C2FB" opacity="1.000000" stroke="none" 
	d="
M81.803314,88.647873 
	C78.260231,89.034950 74.509163,89.042870 69.986938,89.059174 
	C68.811806,89.059418 68.407814,89.051285 67.854919,88.768509 
	C66.866722,88.050041 66.027435,87.606232 65.188156,87.162422 
	C62.106468,86.098198 59.028061,85.024307 55.940910,83.976189 
	C55.112564,83.694946 54.257557,83.492218 53.705284,83.056671 
	C58.640636,82.859901 63.285488,82.859901 68.055153,82.859901 
	C68.498489,84.688034 68.839615,86.094734 69.366821,88.268730 
	C73.345772,88.268730 77.470551,88.268730 81.803314,88.647873 
z"/>
<path fill="#C6C5FF" opacity="1.000000" stroke="none" 
	d="
M98.197845,91.596725 
	C97.002899,91.499390 95.807953,91.402046 94.248123,91.236298 
	C93.440277,90.832474 92.997314,90.497047 92.295441,90.054573 
	C92.044861,89.160553 92.053200,88.373589 92.564980,87.237282 
	C96.590881,86.482948 98.222305,88.137932 98.197845,91.596725 
z"/>
<path fill="#484371" opacity="1.000000" stroke="none" 
	d="
M47.169521,79.440933 
	C47.099960,79.718498 46.671028,79.971733 45.870583,80.101952 
	C45.936096,79.791489 46.373123,79.604042 47.169521,79.440933 
z"/>
<path fill="#F8D157" opacity="1.000000" stroke="none" 
	d="
M65.125885,87.521240 
	C66.027435,87.606232 66.866722,88.050041 67.808380,89.007553 
	C67.818687,89.832916 67.757286,90.150520 67.726555,90.474060 
	C67.726555,90.474060 67.568039,90.658752 67.195801,90.942787 
	C66.507339,93.177986 66.191116,95.129143 65.874893,97.080307 
	C65.172707,97.060516 64.470528,97.040726 63.417175,97.018570 
	C63.066006,97.016212 62.884769,97.010941 62.853630,96.768372 
	C62.776398,96.355629 62.730309,96.185448 62.684216,96.015266 
	C59.209717,92.055328 62.084396,89.952408 65.125885,87.521240 
z"/>
<path fill="#2F2852" opacity="1.000000" stroke="none" 
	d="
M62.597099,96.132843 
	C62.730309,96.185448 62.776398,96.355629 62.764259,96.783600 
	C62.474056,96.814812 62.408707,96.551155 62.597099,96.132843 
z"/>
<path fill="#FEEB99" opacity="1.000000" stroke="none" 
	d="
M113.019211,70.951645 
	C114.233635,71.051384 115.448059,71.151115 116.524994,71.662994 
	C116.115494,72.380455 115.843491,72.685776 115.571487,72.991089 
	C115.984718,73.011421 116.397949,73.031761 116.811188,73.052094 
	C117.197845,74.127815 117.584503,75.203537 117.667740,76.641037 
	C117.002464,77.203690 116.640602,77.404564 116.278740,77.605438 
	C116.551247,77.752754 116.823761,77.900070 117.096268,78.047386 
	C117.060974,78.473053 117.025673,78.898712 116.745178,79.661247 
	C116.499969,79.998116 116.112053,80.033890 115.735550,80.025589 
	C113.917107,80.715141 112.475166,81.413002 111.017616,82.475449 
	C111.058685,84.884254 111.115372,86.928467 110.906250,89.092072 
	C109.691170,90.124580 108.741882,91.037697 107.492516,92.085907 
	C106.825829,93.424194 106.459221,94.627403 106.040039,95.865372 
	C105.987480,95.900131 105.861557,95.905434 105.651932,95.913589 
	C105.442299,95.921738 105.026611,95.864769 104.963943,95.556053 
	C104.901268,91.779434 104.901268,88.311531 104.901268,83.132774 
	C102.030876,79.145668 97.060486,74.424149 89.699913,72.605133 
	C89.177231,72.316711 88.806419,72.161560 88.435608,72.006409 
	C88.372276,71.230904 88.308945,70.455399 88.666931,69.308105 
	C90.433533,69.345734 91.758453,69.849022 93.128113,70.146011 
	C96.514786,70.880363 100.084999,72.930084 103.189209,68.901375 
	C103.675713,68.524635 103.927200,68.274178 104.491264,67.998322 
	C105.540627,67.367783 106.277412,66.762642 107.014206,66.157501 
	C107.014206,66.157501 107.485764,66.028976 107.844345,66.400063 
	C109.136765,67.179413 110.070618,67.587677 111.124786,68.123154 
	C111.245102,68.250366 111.140633,68.584618 111.171722,68.921692 
	C111.808289,69.823051 112.413750,70.387344 113.019211,70.951645 
M104.764885,76.852997 
	C104.847198,77.232948 104.929512,77.612907 105.414497,78.135796 
	C105.710999,78.103806 106.007492,78.071815 106.303993,78.039825 
	C105.887604,77.686287 105.471222,77.332748 104.764885,76.852997 
z"/>
<path fill="#FFFEFE" opacity="1.000000" stroke="none" 
	d="
M89.851776,72.738411 
	C97.060486,74.424149 102.030876,79.145668 104.901268,83.132774 
	C104.901268,88.311531 104.901268,91.779434 104.601845,95.593597 
	C103.334801,95.886551 102.367188,95.833229 101.399567,95.779907 
	C100.596031,94.411926 99.792496,93.043938 98.593399,91.636337 
	C98.222305,88.137932 96.590881,86.482948 92.679787,86.859329 
	C91.986732,85.607826 91.815536,83.375702 91.357643,83.315247 
	C85.590698,82.553917 87.883698,78.223618 87.550369,74.673645 
	C87.588745,74.252022 88.010948,74.143967 88.426193,73.947922 
	C89.178215,73.414055 89.514999,73.076233 89.851776,72.738411 
z"/>
<path fill="#F9AE39" opacity="1.000000" stroke="none" 
	d="
M102.954193,69.027649 
	C100.084999,72.930084 96.514786,70.880363 93.128113,70.146011 
	C91.758453,69.849022 90.433533,69.345734 88.694366,68.918747 
	C87.043640,68.426407 85.786797,67.951645 84.625076,67.060852 
	C88.123886,66.392639 91.527580,66.140472 95.149628,66.123306 
	C97.278488,67.208656 99.188995,68.059006 101.415253,68.943405 
	C102.154465,69.005211 102.577904,69.032959 103.003441,69.033485 
	C103.005531,69.006264 102.954193,69.027649 102.954193,69.027649 
z"/>
<path fill="#DCA947" opacity="1.000000" stroke="none" 
	d="
M83.781677,57.566017 
	C86.271461,57.838806 88.776299,58.531208 91.750549,59.636757 
	C92.471420,61.061359 92.722885,62.072819 92.598724,62.955170 
	C89.396652,63.171234 86.570198,63.516407 83.743744,63.861572 
	C83.761406,61.902924 83.779068,59.944275 83.781677,57.566017 
z"/>
<path fill="#29224C" opacity="1.000000" stroke="none" 
	d="
M83.466255,64.049660 
	C86.570198,63.516407 89.396652,63.171234 92.729416,63.256989 
	C93.800903,64.421371 94.366089,65.154839 94.931274,65.888306 
	C91.527580,66.140472 88.123886,66.392639 84.356316,66.848160 
	C83.724548,66.113586 83.456657,65.175659 83.466255,64.049660 
z"/>
<path fill="#F8E494" opacity="1.000000" stroke="none" 
	d="
M89.699913,72.605133 
	C89.514999,73.076233 89.178215,73.414055 88.622971,73.854324 
	C88.371407,73.521530 88.338287,73.086266 88.370392,72.328712 
	C88.806419,72.161560 89.177231,72.316711 89.699913,72.605133 
z"/>
<path fill="#29224C" opacity="1.000000" stroke="none" 
	d="
M79.144157,48.260780 
	C79.402061,48.180477 79.593910,48.381618 79.857758,48.792534 
	C79.674522,48.821617 79.390640,48.668259 79.144157,48.260780 
z"/>
<path fill="#241D48" opacity="1.000000" stroke="none" 
	d="
M88.554665,15.527855 
	C89.942162,15.561161 91.176765,15.887237 92.411369,16.213314 
	C91.824974,17.239416 91.238579,18.265518 90.652184,19.291618 
	C89.902046,18.134621 89.151909,16.977623 88.554665,15.527855 
z"/>
<path fill="#241D48" opacity="1.000000" stroke="none" 
	d="
M88.574600,26.520145 
	C90.018555,26.427662 91.303726,26.639376 92.588905,26.851089 
	C92.125198,27.758526 91.661484,28.665962 91.197777,29.573399 
	C90.270462,28.657045 89.343147,27.740694 88.574600,26.520145 
z"/>
<path fill="#241D48" opacity="1.000000" stroke="none" 
	d="
M114.000549,26.999788 
	C113.036743,27.882557 112.125175,28.843481 111.051132,29.561314 
	C110.895363,29.665424 109.387421,28.388269 109.488167,28.121462 
	C109.891609,27.053062 110.682472,26.130962 111.812057,25.324680 
	C112.862900,25.996330 113.431725,26.498058 114.000549,26.999788 
z"/>
<path fill="#221C47" opacity="1.000000" stroke="none" 
	d="
M114.162323,26.789829 
	C113.431725,26.498058 112.862900,25.996330 112.147156,25.247040 
	C112.774849,25.526274 113.549469,26.053072 114.162323,26.789829 
z"/>
<path fill="#C6C5FF" opacity="1.000000" stroke="none" 
	d="
M101.278687,96.196014 
	C102.367188,95.833229 103.334801,95.886551 104.664520,95.902313 
	C105.026611,95.864769 105.442299,95.921738 105.705467,96.246231 
	C104.972794,101.131622 110.169754,98.953163 111.165787,101.346390 
	C111.270767,102.137932 111.083405,103.327744 111.529198,103.654968 
	C114.016815,105.480934 116.788177,106.937393 119.174545,108.874878 
	C119.996696,109.542381 119.989693,111.231155 120.456886,112.767151 
	C121.647949,112.894257 123.077698,113.046837 123.508110,113.092766 
	C125.905701,116.419945 127.856544,119.127174 130.327087,122.555595 
	C130.731766,122.616806 132.151459,122.831573 133.571167,123.046341 
	C133.331207,123.383446 133.091248,123.720551 132.851288,124.057655 
	C134.534470,125.390755 136.217667,126.723846 137.900848,128.056946 
	C138.258926,127.806183 138.616989,127.555428 138.975067,127.304672 
	C138.975067,128.569656 138.975067,129.834625 138.655884,131.261047 
	C138.166382,127.654518 135.617722,127.804382 132.949051,128.151917 
	C130.881943,127.409264 128.814850,126.666618 126.352142,125.951233 
	C125.956543,125.978500 125.989502,126.013474 126.048645,125.629608 
	C125.354584,123.180824 124.601372,121.115891 123.895485,118.634888 
	C124.603287,114.008194 122.132370,113.642586 118.632492,113.954910 
	C116.199600,113.159508 114.083176,112.561028 111.966759,111.962547 
	C111.966759,111.962547 111.994598,112.005402 112.002472,111.616043 
	C111.675018,105.364578 109.200211,103.090431 103.103554,103.042038 
	C102.492340,102.510056 101.881134,101.978065 101.109627,101.182610 
	C101.018814,99.483475 101.088310,98.047798 101.278687,96.196014 
z"/>
<path fill="#F8D157" opacity="1.000000" stroke="none" 
	d="
M111.479530,101.207352 
	C110.169754,98.953163 104.972794,101.131622 105.915100,96.238075 
	C105.861557,95.905434 105.987480,95.900131 106.353401,95.833008 
	C109.015800,95.039612 110.655136,94.128456 107.792595,91.950821 
	C108.741882,91.037697 109.691170,90.124580 111.310631,89.094604 
	C115.925056,89.082039 119.395676,88.301674 121.047211,84.123657 
	C122.275848,85.462013 123.504494,86.800369 125.069107,88.504700 
	C123.245033,88.755859 121.861160,88.946404 119.776222,89.233482 
	C120.193512,90.859596 120.595421,92.425758 121.394608,94.038460 
	C121.807884,94.490318 121.823883,94.895630 121.804367,95.603683 
	C120.699547,96.989357 119.235107,97.890450 118.636917,99.190216 
	C117.008560,102.728363 114.601639,102.385094 111.479530,101.207352 
z"/>
<path fill="#7976F9" opacity="1.000000" stroke="none" 
	d="
M132.963150,128.553833 
	C135.617722,127.804382 138.166382,127.654518 138.587021,131.686584 
	C138.890747,132.382782 138.944153,132.814911 139.032043,133.572723 
	C137.326157,134.875931 135.585754,135.853455 133.516754,136.888123 
	C133.139114,135.889374 133.090088,134.833481 133.026810,133.380005 
	C133.000793,131.640198 132.989014,130.297974 132.963150,128.553833 
z"/>
<path fill="#7976F9" opacity="1.000000" stroke="none" 
	d="
M147.171005,143.862671 
	C145.600723,144.013229 144.228210,143.998459 142.445343,144.023499 
	C142.020996,141.714737 142.007004,139.366196 141.998123,136.580872 
	C143.834961,136.564957 145.666687,136.985809 147.977097,137.516647 
	C147.977097,138.923676 147.977097,140.497589 148.006897,142.492859 
	C147.814056,143.175232 147.591415,143.436295 147.171005,143.862671 
z"/>
<path fill="#241D48" opacity="1.000000" stroke="none" 
	d="
M141.573364,91.471642 
	C142.347519,90.253990 143.277710,89.341911 144.207901,88.429825 
	C144.667526,89.339203 145.127136,90.248581 145.586746,91.157959 
	C144.300964,91.364372 143.015182,91.570793 141.573364,91.471642 
z"/>
<path fill="#241D48" opacity="1.000000" stroke="none" 
	d="
M145.637192,69.835724 
	C144.293869,70.369041 143.006302,70.564728 141.718750,70.760414 
	C141.878326,69.756355 142.037903,68.752296 142.197464,67.748238 
	C143.362625,68.331528 144.527802,68.914810 145.637192,69.835724 
z"/>
<path fill="#241D48" opacity="1.000000" stroke="none" 
	d="
M144.884460,81.133896 
	C143.641235,81.227585 142.613602,81.102707 141.585953,80.977829 
	C141.837494,80.319847 142.089020,79.661858 142.340561,79.003876 
	C143.260391,79.641022 144.180222,80.278175 144.884460,81.133896 
z"/>
<path fill="#221C47" opacity="1.000000" stroke="none" 
	d="
M130.000000,61.000000 
	C130.624283,62.413116 131.642258,63.786579 131.789413,65.247742 
	C132.079681,68.130028 131.784058,71.065872 131.923874,73.970268 
	C132.061874,76.837616 131.412704,78.821709 128.050064,78.986992 
	C125.024544,79.135696 122.770599,78.650581 122.986725,74.843216 
	C123.117264,72.543419 123.004532,70.229813 123.434013,67.461052 
	C128.535431,67.682281 130.741974,65.848167 130.000000,61.000000 
z"/>
<path fill="#221B47" opacity="1.000000" stroke="none" 
	d="
M111.140633,68.584618 
	C111.140633,68.584618 111.245102,68.250366 111.190956,67.874008 
	C111.075134,67.337212 111.013466,67.176765 110.951805,67.016327 
	C111.308594,66.120338 111.835487,65.252861 111.991318,64.323189 
	C112.527435,61.124584 114.603416,59.404861 117.474510,60.296398 
	C118.925247,60.746883 120.846893,63.576218 120.537285,64.832611 
	C120.133453,66.471443 117.801323,67.718918 116.142082,68.917732 
	C115.584129,69.320854 114.546783,69.060455 113.007790,69.067078 
	C111.904900,68.882103 111.522766,68.733360 111.140633,68.584618 
z"/>
<path fill="#F8D157" opacity="1.000000" stroke="none" 
	d="
M95.149628,66.123299 
	C94.366089,65.154839 93.800903,64.421371 93.105034,63.386097 
	C92.722885,62.072819 92.471420,61.061359 92.155624,59.742317 
	C96.318748,58.999119 100.677223,58.203804 102.744461,63.739700 
	C102.800842,65.031570 102.980316,65.944069 103.086166,66.929245 
	C103.012527,67.001915 102.867973,67.149956 102.597748,67.206116 
	C101.918175,67.811302 101.508835,68.360329 101.099503,68.909355 
	C99.188995,68.059006 97.278488,67.208656 95.149628,66.123299 
z"/>
<path fill="#221B47" opacity="1.000000" stroke="none" 
	d="
M123.002228,49.457100 
	C125.372200,49.013783 127.741432,49.007942 130.554596,49.005791 
	C130.988037,50.674267 131.490204,52.588276 130.833603,53.938961 
	C130.062027,55.526157 128.284439,56.624306 126.943130,57.934532 
	C125.638580,56.586365 124.039719,55.406837 123.135704,53.829163 
	C122.558891,52.822517 123.010818,51.226398 123.002228,49.457100 
z"/>
<path fill="#221C47" opacity="1.000000" stroke="none" 
	d="
M121.014519,83.745956 
	C119.395676,88.301674 115.925056,89.082039 111.576431,88.975212 
	C111.115372,86.928467 111.058685,84.884254 111.387932,82.418915 
	C113.219925,81.343147 114.665993,80.688522 116.112053,80.033890 
	C116.112053,80.033890 116.499969,79.998116 116.693687,79.977768 
	C118.252213,81.094368 119.617020,82.231308 121.014519,83.745956 
z"/>
<path fill="#221B47" opacity="1.000000" stroke="none" 
	d="
M129.600006,60.999954 
	C130.741974,65.848167 128.535431,67.682281 123.434219,66.999695 
	C123.236595,65.557442 123.471680,64.115189 124.135139,62.281013 
	C125.042351,61.592659 125.521179,61.296227 126.000000,60.999794 
	C127.066673,60.999828 128.133347,60.999866 129.600006,60.999954 
z"/>
<path fill="#FEE88F" opacity="1.000000" stroke="none" 
	d="
M103.159798,66.856567 
	C102.980316,65.944069 102.800842,65.031570 102.903862,64.080521 
	C104.263657,64.657906 105.340958,65.273849 106.716232,66.023651 
	C106.277412,66.762642 105.540627,67.367783 104.337639,67.788589 
	C103.634224,67.355019 103.397011,67.105789 103.159798,66.856567 
z"/>
<path fill="#FEE88F" opacity="1.000000" stroke="none" 
	d="
M110.630066,66.940300 
	C111.013466,67.176765 111.075134,67.337212 111.070633,67.746796 
	C110.070618,67.587677 109.136765,67.179413 108.077026,66.474777 
	C108.736870,66.407028 109.522598,66.635651 110.630066,66.940300 
z"/>
<path fill="#FEE88F" opacity="1.000000" stroke="none" 
	d="
M111.171722,68.921692 
	C111.522766,68.733360 111.904900,68.882103 112.587265,69.105270 
	C112.892220,69.576241 112.896935,69.972778 112.960434,70.660477 
	C112.413750,70.387344 111.808289,69.823051 111.171722,68.921692 
z"/>
<path fill="#221C47" opacity="1.000000" stroke="none" 
	d="
M125.801735,60.852253 
	C125.521179,61.296227 125.042351,61.592659 124.282677,61.944672 
	C124.535713,61.568398 125.069588,61.136555 125.801735,60.852253 
z"/>
<path fill="#FEE88F" opacity="1.000000" stroke="none" 
	d="
M116.867935,72.781502 
	C116.397949,73.031761 115.984718,73.011421 115.571487,72.991089 
	C115.843491,72.685776 116.115494,72.380455 116.599350,72.022438 
	C116.849030,72.150131 116.886856,72.330521 116.867935,72.781502 
z"/>
<path fill="#FEE88F" opacity="1.000000" stroke="none" 
	d="
M117.341507,77.968628 
	C116.823761,77.900070 116.551247,77.752754 116.278740,77.605438 
	C116.640602,77.404564 117.002464,77.203690 117.593842,76.993225 
	C117.744484,77.285713 117.665611,77.587791 117.341507,77.968628 
z"/>
<path fill="#615EE8" opacity="1.000000" stroke="none" 
	d="
M123.848160,119.050957 
	C124.601372,121.115891 125.354584,123.180824 126.070953,125.638565 
	C122.208878,125.344910 118.383636,124.658447 114.768181,124.009636 
	C113.787827,120.035851 112.894363,116.414268 111.983826,112.377617 
	C114.083176,112.561028 116.199600,113.159508 118.648621,114.347229 
	C118.603683,118.673561 120.932861,119.208916 123.848160,119.050957 
z"/>
<path fill="#615EE8" opacity="1.000000" stroke="none" 
	d="
M103.060547,103.452354 
	C109.200211,103.090431 111.675018,105.364578 112.023895,111.629990 
	C104.659264,111.788193 103.051353,110.331680 103.060547,103.452354 
z"/>
<path fill="#FEEB99" opacity="1.000000" stroke="none" 
	d="
M65.920776,97.471771 
	C66.191116,95.129143 66.507339,93.177986 67.107658,91.026703 
	C69.866379,95.979294 72.341003,101.132019 74.918327,106.637115 
	C74.613930,106.994728 74.206833,106.999947 73.497131,106.959282 
	C70.918205,103.790482 65.029099,103.552895 65.920776,97.471771 
z"/>
<path fill="#FEEB99" opacity="1.000000" stroke="none" 
	d="
M68.017021,90.514603 
	C67.757286,90.150520 67.818687,89.832916 67.957298,89.282196 
	C68.407814,89.051285 68.811806,89.059418 69.516396,89.101761 
	C69.313835,89.609039 68.810661,90.082100 68.017021,90.514603 
z"/>
<path fill="#7D7AF7" opacity="1.000000" stroke="none" 
	d="
M55.005730,56.005737 
	C54.437500,52.003380 56.346779,50.732880 60.145180,50.949314 
	C64.103294,51.174850 68.084595,50.993515 72.522720,50.984154 
	C73.067528,55.116405 72.351242,59.226936 76.248909,62.621349 
	C77.838020,64.005280 77.988960,67.402344 73.662712,67.627151 
	C71.822021,66.456200 70.456657,65.638084 69.061798,64.385239 
	C68.866707,56.003994 68.866707,56.004734 60.890957,56.000198 
	C58.922913,55.999077 56.954872,55.991413 54.986828,55.986755 
	C54.986828,55.986755 54.998833,55.998821 55.005730,56.005737 
z"/>
<path fill="#C6C5FF" opacity="1.000000" stroke="none" 
	d="
M69.091293,64.819962 
	C70.456657,65.638084 71.822021,66.456200 73.298042,67.646011 
	C73.117622,68.314079 72.826553,68.610474 72.277039,69.081703 
	C70.822037,69.813927 69.506256,70.208885 68.462753,70.974800 
	C67.437622,71.727219 66.689041,72.856415 65.819092,73.820267 
	C65.182533,72.511299 64.545982,71.202332 63.922329,69.090118 
	C63.865459,64.471413 66.790123,65.109322 69.091293,64.819962 
z"/>
<path fill="#9695F8" opacity="1.000000" stroke="none" 
	d="
M69.061798,64.385239 
	C66.790123,65.109322 63.865459,64.471413 63.878296,68.689407 
	C54.695679,68.741158 54.941681,70.633263 54.984074,59.867363 
	C54.987942,58.884346 54.985142,57.901310 54.986134,56.452518 
	C56.954872,55.991413 58.922913,55.999077 60.890957,56.000198 
	C68.866707,56.004734 68.866707,56.003994 69.061798,64.385239 
z"/>
<path fill="#F8E494" opacity="1.000000" stroke="none" 
	d="
M107.492516,92.085907 
	C110.655136,94.128456 109.015800,95.039612 106.405960,95.798248 
	C106.459221,94.627403 106.825829,93.424194 107.492516,92.085907 
z"/>
<path fill="#FEE88F" opacity="1.000000" stroke="none" 
	d="
M115.735550,80.025589 
	C114.665993,80.688522 113.219925,81.343147 111.403542,82.054321 
	C112.475166,81.413002 113.917107,80.715141 115.735550,80.025589 
z"/>
<path fill="#FEE88F" opacity="1.000000" stroke="none" 
	d="
M105.054832,76.979210 
	C105.471222,77.332748 105.887604,77.686287 106.303993,78.039825 
	C106.007492,78.071815 105.710999,78.103806 105.221588,77.810883 
	C105.037384,77.317047 105.046104,77.148132 105.054832,76.979210 
z"/>
<path fill="#F8E494" opacity="1.000000" stroke="none" 
	d="
M104.909859,76.916107 
	C105.046104,77.148132 105.037384,77.317047 105.020248,77.739410 
	C104.929512,77.612907 104.847198,77.232948 104.909859,76.916107 
z"/>
<path fill="#F8D157" opacity="1.000000" stroke="none" 
	d="
M103.086166,66.929245 
	C103.397011,67.105789 103.634224,67.355019 104.025063,67.813980 
	C103.927200,68.274178 103.675713,68.524635 103.189209,68.901375 
	C102.954193,69.027649 103.005531,69.006264 102.992973,68.713226 
	C102.942932,67.996773 102.905449,67.573364 102.867973,67.149956 
	C102.867973,67.149956 103.012527,67.001915 103.086166,66.929245 
z"/>
<path fill="#FEE88F" opacity="1.000000" stroke="none" 
	d="
M102.597748,67.206116 
	C102.905449,67.573364 102.942932,67.996773 102.990883,68.740448 
	C102.577904,69.032959 102.154465,69.005211 101.415260,68.943405 
	C101.508835,68.360329 101.918175,67.811302 102.597748,67.206116 
z"/>
<path fill="#7976F9" opacity="1.000000" stroke="none" 
	d="
M123.895493,118.634888 
	C120.932861,119.208916 118.603683,118.673561 118.965103,114.544159 
	C122.132370,113.642586 124.603287,114.008194 123.895493,118.634888 
z"/>
</svg>