<?xml version="1.0" encoding="utf-8"?>
<!-- Generator: Adobe Illustrator 24.0.0, SVG Export Plug-In . SVG Version: 6.00 Build 0)  -->
<svg version="1.1" id="Layer_1" xmlns="http://www.w3.org/2000/svg" xmlns:xlink="http://www.w3.org/1999/xlink" x="0px" y="0px"
	 viewBox="0 0 251 283.9" style="enable-background:new 0 0 251 283.9;" xml:space="preserve">
<style type="text/css">
	.st0{fill:url(#SVGID_1_);}
	.st1{fill:url(#SVGID_2_);}
	.st2{fill:url(#SVGID_3_);}
</style>
<linearGradient id="SVGID_1_" gradientUnits="userSpaceOnUse" x1="125.5" y1="52.0877" x2="125.5" y2="253.0878" gradientTransform="matrix(1 0 0 -1 0 285.9755)">
	<stop  offset="0" style="stop-color:#05AAC5"/>
	<stop  offset="1" style="stop-color:#71E0EC"/>
</linearGradient>
<path class="st0" d="M125.5,233.9c-43.1,0-78.1-35-78.1-78.1c0-41.9,70.7-115.9,73.7-119l3.7-3.9l3.8,3.8c3.1,3.1,75,77.1,75,119
	C203.6,198.9,168.6,233.9,125.5,233.9L125.5,233.9z M124.9,48c-6.2,6.7-19.2,21.2-32.1,38.2c-22.9,30.2-35,54.2-35,69.5
	c0,37.3,30.4,67.7,67.7,67.7s67.7-30.4,67.7-67.7c0-15.3-12.3-39.3-35.6-69.5C144.5,69.3,131.2,54.7,124.9,48z"/>
<linearGradient id="SVGID_2_" gradientUnits="userSpaceOnUse" x1="125.6" y1="27.0877" x2="125.6" y2="269.3627" gradientTransform="matrix(1 0 0 -1 0 285.9755)">
	<stop  offset="0" style="stop-color:#05AAC5"/>
	<stop  offset="1" style="stop-color:#71E0EC"/>
</linearGradient>
<path class="st1" d="M125.5,258.9c-56.9,0-103.1-46.3-103.1-103.1c0-55.6,77.6-133.2,80.9-136.4c2-2,5.4-2,7.4,0s2,5.4,0,7.4
	c-0.8,0.8-77.8,77.8-77.8,129c0,51.1,41.6,92.7,92.7,92.7s92.7-41.6,92.7-92.7c0-21-13.6-50-39.4-84.1
	c-19.8-26.1-39.7-45.9-39.9-46.1c-2.1-2-2.1-5.3,0-7.4c2-2.1,5.3-2.1,7.4,0c3.4,3.3,82.4,81.9,82.4,137.6
	C228.6,212.6,182.4,258.9,125.5,258.9L125.5,258.9z"/>
<linearGradient id="SVGID_3_" gradientUnits="userSpaceOnUse" x1="125.5" y1="2.0877" x2="125.5" y2="285.9755" gradientTransform="matrix(1 0 0 -1 0 285.9755)">
	<stop  offset="0" style="stop-color:#05AAC5"/>
	<stop  offset="1" style="stop-color:#71E0EC"/>
</linearGradient>
<path class="st2" d="M125.5,283.9C56.3,283.9,0,227.6,0,158.4c0-28.6,14.4-63.8,42.7-104.5C63.6,23.9,84.1,2.5,85,1.6
	c2-2.1,5.3-2.1,7.4-0.1s2.1,5.3,0.1,7.4C92.3,9.1,71.6,30.7,51.2,60c-26.7,38.3-40.8,72.3-40.8,98.4c0,63.4,51.6,115.1,115.1,115.1
	s115.1-51.6,115.1-115.1c0-26.1-14.2-60.1-41.1-98.4C178.9,30.7,158,9.1,157.8,8.9c-2-2.1-2-5.4,0.1-7.4s5.4-2,7.4,0.1
	c3.5,3.6,85.7,89,85.7,156.8C251,227.6,194.7,283.9,125.5,283.9z"/>
</svg>
