<svg height="32" viewBox="0 0 32 32" width="32" xmlns="http://www.w3.org/2000/svg"><g fill="none" fill-rule="evenodd"><circle cx="16" cy="16" fill="#1c1c1c" r="16"/><path d="m15.7152874 13.4328186c.3059465.1247476.611893.0623738.8566501 0 .1835679.6237378.4895144 1.1851018.7954608 1.434597-.1835679 1.5593445-.7342715 2.1207085-1.3461644 2.1207085-.8566501 0-1.2849751-1.8088396-1.2849751-2.1207085.1835678-.1247476.7342715-.4989903.9790286-1.434597zm-.9178391 5.4888927c.3671357-.3118689.6118929-.8108592.9178394-1.6217183.2447571.1247475.6118929.0623738.8566501 0 .1835678.8732329.3671357 1.4345969.7954608 1.6840921-.1223786.9979804-.7342715 1.684092-1.2849752 1.684092-.7954608 0-1.1625965-1.2474756-1.2849751-1.7464658zm-4.89514337 1.9335872c.24475717-.3118689.24475717-.8108592.12237857-1.7464659.1835679.0623738.3671358.0623738.4895144 0 .3671357.8732329.6730822 1.434597 1.1625965 1.7464659.0611893.4366164 0 .9356067-.1835679.9979804-.6730822.3118689-1.2849751-.4989902-1.59092157-.9979804zm-2.56995026-1.6840921c.12237858 0 .18356787 0 .30594646.0623738.42832504 1.122728 1.16259654 1.7464658 1.16259654 1.7464658.24475717.4989903.36713576.9979805.18356788.9979805-.55070363.0623738-.97902867-.3118689-1.40735372-1.122728.0611893-.1871214 0-.3118689-.24475716-1.6840921zm-1.65211089 0c.61189292 2.6196988 1.77448947 2.4949512 1.71330018 2.3702036-.24475717-.4366164-.48951434-.6237378-.73427151-.8108591-.55070362-.561364-.97902867-1.7464658-.97902867-1.5593445zm7.46509362 1.6840921c.4283251-.3118689.4895143-.9979805.5507036-1.8712134.2447572.0623737.5507037.0623737.7342715 0 .1223786.561364.3059465 1.3722231.8566501 1.7464658-.0611893.6861116-.2447571 1.0603543-.6730822 1.122728-.3059464.1247476-1.1625965.1247476-1.468543-.9979804zm-5.26227911-1.9335872c.24475717-.3118689.30594646-.8108592.36713576-1.4969708.18356787.0623738.42832504.0623738.55070362 0 .18356788.8108592.48951434 1.3098494.85665009 1.5593446.12237859 1.3098493 0 1.7464658-.24475716 1.7464658-.55070363 0-1.28497514-1.1851018-1.52973231-1.8088396zm-1.89686805 0c0-.1247476.06118929-.9356067.12237859-1.4969708h.24475716c.30594646 1.1851019.73427151 1.5593446.73427151 1.5593446.30594646 1.4345969.30594646 1.8088396.06118929 1.684092-.55070363-.1871213-.97902867-1.2474756-1.16259655-1.7464658zm4.89514336 0c.3059465-.2494951.4895143-.6861116.6118929-1.4969708.3059465.1247476.6118929.0623738.7954608 0 .1835679.8108592.4895144 1.3098494.9178394 1.5593446 0 .6861115-.0611893 1.8088396-.9178394 1.6217182-.7342715-.1871213-1.3461644-1.4345969-1.4073537-1.684092zm-.5507036-.1871214c-.73427153 0-1.16259657-1.1851018-1.16259657-1.5593445.36713575-.3742427.55070363-1.0603542.7342715-2.2454561.12237857.0623738.30594647.0623738.48951437 0 .0611893 1.3098494.428325 1.8712134.7342715 2.1830823-.1223786 1.0603543-.4283251 1.6217183-.7954608 1.6217183zm-3.79373613-1.5593445c.12237858-.2494951.12237858-.3118689.48951434-2.2454561h.30594646c0 1.3098494.36713575 1.9335872.55070362 2.1830823-.06118929.6861116.0611893 1.6217183-.48951433 1.6217183-.24475717 0-.55070363-.3118689-.85665009-1.5593445zm-1.22378584-2.1830823c.18356788.0623738.06118929 1.6840921.30594646 2.2454561 0 0 0 1.5593445-.12237858 1.434597-.91783938-1.1227281-.30594646-3.7424269-.18356788-3.6800531zm7.34271507 2.1830823c.428325-.3118689.6730822-.9979805 1.0402179-2.2454561.2447572.0623738.5507037.0623738.7342715 0 .1223786.9356067.3671358 1.6217183.8566501 2.1207086-.1223786.9979804-.6118929 1.684092-1.2237858 1.684092-.9790287 0-1.3461644-1.3722231-1.4073537-1.5593445zm-5.01752197-2.4325774c.48951433-.1871213.79546079-1.2474756.85665008-1.3722232.12237859.1247476.36713576.1247476.48951434 0 0 .8108592.24475717 1.1851019.42832505 1.3098494-.18356788 1.0603543-.42832505 2.3078299-.97902868 2.3078299-.48951433 0-.7342715-1.1227281-.79546079-2.2454561zm-1.5297323 2.3078299c-.42832505 0-.55070363-1.6217183-.42832505-2.3078299 0 0 .36713575-.561364.61189292-1.3722232.06118929 0 .18356788.0623738.24475717 0-.06118929.8108592.06118929 1.1851019.18356788 1.3722232 0 0-.30594646 2.3078299-.61189292 2.3078299zm4.65038617-2.3078299c.2447572-.1247476.7342715-.8108591.9790287-1.4345969.2447572.1247475.4895143.1247475.7954608.0623737.1223786.6861116.3059464 1.1227281.7342715 1.3722232-.1835679 1.122728-.5507036 2.2454561-1.3461644 2.2454561-.7342715 0-1.1014073-1.4969707-1.1625966-2.2454561zm.5507036-1.6840921c-.3671357.9979805-.7342715 1.5593445-1.2237858 1.5593445-.61189291 0-.6730822-1.3098493-.6730822-1.4345969.48951433-.3742427.8566501-1.122728 1.1625965-1.7464658h.4283251c-.1223786.9356067.1223786 1.3722231.3059464 1.6217182zm-2.99827526-1.5593445c-.30594646.873233-.18356788 1.3098494-.06118929 1.6217183-.48951434 1.2474756-.73427151 1.5593445-1.10140726 1.5593445-.36713575-.0623738-.36713575-.8108591-.24475717-1.4345969.36713575-.2494951 1.16259655-1.6840921 1.16259655-1.7464659zm-1.77448947.0623738c.18356788-.0623738-.48951434.8732329-.42832504 1.3098494.06118929.6237378-.67308222 1.6840921-.73427151 1.6217183-.24475717-.0623738.24475717-2.3078299 1.16259655-2.9315677zm8.68887943 1.4969707c-.1835678.6861116-.428325 1.5593445-1.468543 1.5593445-.5507036-.0623737-.8566501-.8108591-.9790286-1.4345969.6118929-.4366165.9178393-1.1851018 1.1014072-1.7464658.1835679.0623737.4895143.0623737.6730822 0 .1223786.9356067.4283251 1.3722231.6730822 1.6217182zm-8.32174368-1.684092c.12237859-.0623738.91783938-1.1227281 1.34616443-1.1227281.24475716.0623738-.42832505.6861116-.36713576.9979805-.18356787.3118689-1.04021796 1.8712134-1.34616442 1.8712134-.24475717 0-.24475717-.8108591.36713575-1.7464658zm15.05256588 7.7343487c-.0611893.9356067-.0611893 1.434597.1223785 1.7464659-.2447571.4989902-.9178393 1.2474756-1.5909215.9979804-.2447572-.0623737-.2447572-.561364-.1835679-.9979804.5507036-.3118689.9178394-.9356067 1.1625965-1.7464659.1223786.0623738.3059465.0623738.4895144 0zm2.4475716 0c.0611893.0623738.1835679.0623738.3059465-.0623738-.2447572 1.3722232-.3059465 1.4969708-.2447572 1.6840921-.428325.8108591-.8566501 1.122728-1.4073537 1.122728-.2447572 0-.1223786-.4366164.1835679-.9979804 0 0 .7342715-.6237378 1.1625965-1.7464659zm.9790287 1.6217183c-.2447572.2494951-.4895143.3742427-.6730822.8108591-.0611893.1247476 1.1014073.2494952 1.7133002-2.3702036-.1223786-.1871213-.4895144.9979805-1.040218 1.5593445zm-7.0367686-1.6217183c0 .7484854.1835679 1.434597.5507037 1.8712134-.3059465 1.0603543-1.1625966 1.0603543-1.468543.9979805-.4283251-.1247476-.5507037-.4989902-.6730823-1.122728.4895144-.4366165.7342715-1.1851019.8566501-1.7464659.2447572.0623738.4895144.0623738.7342715 0zm5.5070363-1.7464658c0 .7484853.0611893 1.2474756.3671358 1.4969707-.2447572.6237378-1.040218 1.8088396-1.5297323 1.8088396-.2447572 0-.3671358-.4366164-.2447572-1.7464658.3671357-.2494951.6730822-.873233.8566501-1.5593445.1223786.0623737.3059464.1247475.5507036 0zm2.2028145.1247475c0 .4989903 0 1.3098494.1223786 1.4969708-.2447572.4989902-.6730822 1.5593445-1.1625965 1.7464658-.3059465.0623738-.2447572-.3118689.0611893-1.6840921 0 0 .428325-.4366164.7342715-1.5593445zm-5.445847-.1247475c.1223786.8732329.2447572 1.3098494.611893 1.4969707-.0611893.3118689-.7342715 1.5593445-1.4073538 1.6840921-.85665.1871213-.9178393-.9979805-.9178393-1.6217183.428325-.2494951.7342715-.8108592.9178393-1.5593445.1835679.0623737.4895144.1247475.7954608 0zm2.3251931-.1871214c-.0611893.3742427-.5507036 1.5593445-1.1625965 1.5593445-.3671358 0-.6730822-.6237378-.7954608-1.6217183.3059464-.2494951.6730822-.8732329.7342715-2.1830823.1835679.0623738.3059465.0623738.4895143 0 .2447572 1.1227281.4283251 1.8712134.7342715 2.2454561zm2.1416253-2.2454561c.3059464 1.9335872.3671357 1.995961.4895143 2.2454561-.3059465 1.1851018-.6118929 1.5593445-.8566501 1.5593445-.5507036 0-.428325-.9979805-.4895143-1.6217183.2447571-.2494951.5507036-.8732329.5507036-2.1830823.1223786.0623738.1835679 0 .3059465 0zm1.2849751 2.2454561c.3059464-.4989902.1835679-2.1207085.3059464-2.2454561.1835679-.0623737.7342716 2.6820726-.1835678 3.6800531-.1223786.1247475-.1223786-1.434597-.1223786-1.434597zm-7.8322294-2.2454561c.1835679 1.2474756.4895143 1.9335872 1.040218 2.2454561-.0611893.1871214-.5507037 1.5593445-1.4073537 1.5593445-.6730823.0623738-1.040218-.7484853-1.2237859-1.684092.4283251-.4989903.7342715-1.1851019.8566501-2.1207086.1223786.0623738.428325.0623738.7342715 0zm5.0787112-1.5593445c0 .1247476.3671358 1.1851019.7954608 1.4969708 0 1.0603542-.3059464 2.245456-.7954608 2.245456-.5507036 0-.7954608-1.1851018-.9790286-2.3078298.1835678-.1871214.428325-.6237378.428325-1.3722232.1835679.0623738.3671358.0623738.5507036-.0623738zm2.7535182 1.3722232c.0611893.6861116-.0611893 2.3078299-.3671358 2.2454561-.3059464 0-.6118929-2.3078299-.6118929-2.3078299.1223786-.1871213.2447572-.6237378.1835679-1.3098494.0611893.0623738.1835679.0623738.2447572 0 .2447571.8108592.5507036 1.3722232.5507036 1.3722232zm-5.9965506-1.3722232c.2447571.5613641.6730822 1.2474756 1.0402179 1.434597-.0611893.7484853-.4895143 2.2454561-1.1625965 2.2454561-.9178394.0623737-1.1625966-1.0603543-1.3461644-2.2454561.3671357-.2494951.6118929-.7484854.6730822-1.3722232.2447571.0623738.5507036.0623738.7954608-.0623738zm1.5297323 1.1851019c-.4283251.0623737-.7954608-.4989903-1.2237859-1.4969708.2447572-.2494951.4283251-.7484853.3059465-1.6217182.1835679.0623737.3059464.0623737.428325 0 .3671358.6861115.7342715 1.3722231 1.1625966 1.684092 0 .1871214-.0611893 1.434597-.6730822 1.434597zm1.9580573-1.4969708c.0611893-.2494951.1835679-.6861115-.1835679-1.6217182h.2447572c0 .0623737.8566501 1.5593445 1.1625966 1.7464658.1223785.6861116.1223785 1.3722232-.2447572 1.4345969-.3059465 0-.5507036-.3118689-.9790287-1.5593445zm2.0804359-.1871213c.0611893-.4366165-.5507036-1.3722232-.4895143-1.3098494.9790287.6237378 1.3461644 2.8691939 1.1625966 2.9315677-.0611893.0623738-.7342716-1.0603543-.6730823-1.6217183zm-7.77104 1.6840921c-.9178394.0623737-1.1625966-.8108592-1.3461645-1.4969708.3059465-.1871213.611893-.7484853.6730822-1.6217182.1835679.0623737.4895144.0623737.6730823 0 .1835678.561364.4895143 1.3098493.9790286 1.684092-.0611893.7484854-.3671357 1.3722232-.9790286 1.434597zm5.6906041-4.3037909c.3059465 0 1.2237859 1.0603543 1.2849751 1.1227281.6730823.9979805.6730823 1.7464658.4283251 1.7464658-.3671358 0-1.1625966-1.5593445-1.3461644-1.8712134.0611893-.3118689-.611893-.9979805-.3671358-.9979805zm-13.5840228.1871214c-.1223786.3742426-.1835679.7484853 0 .9356067-.36713577.7484853-.97902869 1.8088396-1.52973232 1.7464658-.61189292-.1247475-.12237858-1.5593445-.06118929-1.684092.36713575-.1871214 1.22378584-1.3722232 1.52973231-1.3722232.1835679.0623738.0611893.3742427.0611893.3742427zm2.8758967-.0623738c0 .3742427.0611893.8108591.3671358.9979805-.2447572.7484853-.7342715 1.7464658-1.5297323 1.684092-.5507037-.0623737-.6730823-.9979804-.5507037-1.684092.5507037-.1871214 1.040218-1.3722232 1.4073537-1.3722232.3059465 0 .3059465.3118689.3059465.3742427zm8.6888795.9979805c.1223786-.1871214.1223786-.5613641 0-.9356067 0-.0623738-.1223786-.3742427.0611893-.3742427.3059464 0 1.1625965 1.1851018 1.5297323 1.3722232.0611893.1247475.5507036 1.5593445-.0611893 1.684092-.6118929.0623738-1.1625966-1.0603542-1.5297323-1.7464658zm-3.2430325 0c.2447572-.1871214.3059465-.6237378.3671358-.9979805 0-.0623738 0-.3742427.3059464-.3742427.3059465-.06237377.9178394 1.1851018 1.4073537 1.3722232.1835679.8108591.0611893 1.6217183-.5507036 1.684092-.8566501.1247476-1.2849751-.9979804-1.5297323-1.684092zm-2.5699503-1.3722232c.611893 0 .611893 1.1851018 1.1014073 1.434597 0 .3118689-.1835679 1.684092-1.1625966 1.684092-.85665 0-1.0402179-1.122728-1.1014072-1.684092.7342715-.3118689.4895143-1.434597 1.1625965-1.434597z" fill="#fff" fill-rule="nonzero"/></g></svg>