<svg width="32" height="32" viewBox="0 0 32 32" fill="none" xmlns="http://www.w3.org/2000/svg">
<path d="M16 32C24.8366 32 32 24.8366 32 16C32 7.16344 24.8366 0 16 0C7.16344 0 0 7.16344 0 16C0 24.8366 7.16344 32 16 32Z" fill="#5546FF"/>
<path d="M22.5282 24.4305L19.0838 19.0238H24.03V16.9812H7.80975V19.0238H12.7559L9.31163 24.4305H11.8748L15.9199 18.0826L19.9649 24.4305H22.5282ZM24.03 14.9987V12.9562H19.184L22.5882 7.6095H20.005L15.9199 14.0576L11.8348 7.6095H9.25156L12.6558 12.9562H7.80975V15.0188L24.03 14.9987Z" fill="white"/>
</svg>
