<svg height="32" viewBox="0 0 32 32" width="32" xmlns="http://www.w3.org/2000/svg"><g fill="none" fill-rule="evenodd"><circle cx="16" cy="16" fill="#01aef0" r="16"/><path d="m21.068724 18.8905721c-.0131106 2.0732933-1.2111108 3.838599-3.1215032 4.5645806-.4478967.1702882-.9137652.2944471-1.3780869.4109561-.2775325.0696146-.4285991.206396-.4505483.5104056-.027547.3810447-.0667315.7620129-.1202788 1.1400741-.0630487.4456869-.2159567.5471254-.6266576.4492824-.7056159-.1679932-.7819225-.2815187-.6873494-1.0226472.0081021-.0631887.0169407-.1262244.0241589-.1895661.0692358-.6077132-.0167197-.6946168-.5970483-.6656234-.2616229.0130814-.3707061.1416008-.3949386.3981806-.0347652.3676573-.0697514.7363856-.129854 1.1002179-.061281.3716352-.2163987.4636643-.5745098.3860172-.7637297-.1654688-.8209597-.2495419-.7196103-1.0583726.1257293-1.0030633.1227831-.9923533-.8031352-1.2710415-.4108482-.1236234-.8084384-.2959771-1.2090485-.4545609-.2440194-.0966955-.32415612-.2779997-.2581611-.5493439.0841877-.3456254.141786-.6980592.2143363-1.0468211.1237406-.5949377.411953-.7754003.9620093-.5589828.9732785.3829572 1.9738094.6186526 3.014556.6438209.9387342.0227204 1.8681143-.0389383 2.7249441-.5000016.5664814-.3048511.9824854-.752374 1.191003-1.392829.3099407-.952191.0316717-1.7223894-.8607335-2.1051936-.734415-.3150255-1.5234821-.4909747-2.2643051-.7922302-.6581084-.2675958-1.3424379-.5362625-1.9108343-.9567046-1.2762956-.9440055-1.4995443-2.3411184-1.2184764-3.8314844.3170116-1.6811561 1.3461206-2.77112302 2.8732855-3.34884831.4066498-.15376427.5915241-.36781027.5977112-.82497212.0067762-.49495267.0855135-.98959935.1453951-1.48271603.0460345-.37882622.193492-.48546672.547994-.42732699.7523869.12331742.8416568.24196836.7680754 1.02325919-.0286518.30446857-.0542838.60939613-.0896383.91302321-.0296093.2548203.0508221.37232375.3174535.38020321.6089067.01797742.635128.00696147.706868-.62286007.0461081-.4049891.0805051-.81158469.1350098-1.21527329.0603972-.4482114.2055714-.55064441.6177454-.46595931.6950095.14274833.7725683.24862383.7048056.97238693-.029683.31716751-.0457398.6373185-.1004655.94989603-.0631961.36123131.0471392.52746503.4050294.61046714.6813833.15804825 1.3546646.35840081 2.0241158.56609733.5029171.15598277.5227303.212975.4263894.73623254-.0575246.31303654-.114681.62668504-.1881151.93589664-.1381033.5814737-.4280835.7549749-.9825591.5683923-.9479411-.3190035-1.8997124-.6086311-2.9051781-.6511649-.8798839-.0372554-1.7479829-.0246329-2.511639.52823-1.0755118.7786898-1.0819934 2.3603964.0617966 3.0259433.7286699.4240375 1.5690746.6404549 2.35851.952497.4809678.1901781.9748253.3535048 1.437232.5841512 1.2374057.6172756 1.8585392 1.6510153 1.8442501 3.0843125" fill="#fff"/></g></svg>