<svg width="32" height="32" viewBox="0 0 32 32" fill="none" xmlns="http://www.w3.org/2000/svg">
<path d="M31.1086 15.9999C31.1086 24.3442 24.3442 31.1086 15.9999 31.1086C7.65552 31.1086 0.891098 24.3442 0.891098 15.9999C0.891098 7.65552 7.65552 0.891098 15.9999 0.891098C24.3442 0.891098 31.1086 7.65552 31.1086 15.9999Z" stroke="#17105D" stroke-miterlimit="10"/>
<path d="M15.6066 15.226L26.4488 12.7975C26.6043 12.7626 26.7432 12.6759 26.8428 12.5515C26.9424 12.4271 26.9966 12.2725 26.9967 12.1132V12.0904C26.9967 11.9199 26.9345 11.7551 26.8218 11.6271C26.7091 11.4991 26.5537 11.4165 26.3845 11.3949L15.5376 10.0057C15.4754 9.9977 15.4124 9.99812 15.3503 10.007L5.60297 11.3879C5.43568 11.4115 5.28256 11.4948 5.17177 11.6223C5.06099 11.7499 4.99999 11.9132 5 12.0821C5.00002 12.2383 5.05214 12.3899 5.1481 12.5131C5.24406 12.6362 5.37837 12.7239 5.52976 12.762L15.2818 15.2217C15.3883 15.2485 15.4995 15.25 15.6066 15.226Z" fill="#17105D"/>
<path d="M9.43629 14.7542L8.37381 19.3753C8.37381 19.3753 8.37381 20.1609 10.4072 20.6692C12.4405 21.1774 14.1503 21.5471 15.3517 21.5471C16.5531 21.5471 19.4646 20.9927 19.4646 20.9927C19.4646 20.9927 22.4682 20.2071 22.607 19.3291L21.4978 14.7542L15.4905 16.3485L9.43629 14.7542Z" fill="#17105D"/>
<path d="M25.2405 14.4308C25.2405 14.1756 25.0336 13.9686 24.7784 13.9686C24.5232 13.9686 24.3163 14.1756 24.3163 14.4308V19.6064C24.3163 19.8616 24.5232 20.0685 24.7784 20.0685C25.0336 20.0685 25.2405 19.8616 25.2405 19.6064V14.4308Z" fill="#17105D"/>
<path d="M25.2405 21.5242C25.2405 21.269 25.0336 21.062 24.7784 21.062C24.5232 21.062 24.3163 21.269 24.3163 21.5242V22.3636C24.3163 22.6189 24.5232 22.8258 24.7784 22.8258C25.0336 22.8258 25.2405 22.6189 25.2405 22.3636V21.5242Z" fill="#17105D"/>
</svg>
