<svg xmlns="http://www.w3.org/2000/svg" width="32" height="32" viewBox="0 0 32 32">
  <g fill="none" fill-rule="evenodd">
    <circle cx="16" cy="16" r="16" fill="#2D9CDB" fill-rule="nonzero"/>
    <path fill="#FFF" fill-rule="nonzero" d="M18.0614472,9.08360478 C21.4650326,12.6497964 22.3293003,13.2801031 23.1558541,13.5071797 C20.28106,13.1466884 18.6587409,12.9432546 15.9497238,11.5214169 L14.2402237,13.5114549 L25,15.8995114 C21.6335799,18.7622014 20.1757625,20.2866178 18.0614472,22.9144951 L13.988829,22.9144951 C12.1999787,20.2959826 11.0067489,19.4457926 8.70950012,18.3870793 C11.7674882,18.6690147 13.4672239,18.8575597 15.9497238,20.3273751 L17.8100525,18.2378257 L7,15.8995114 C9.51413856,13.8284066 10.9773868,12.4464305 13.988829,9.08360478 L18.0614472,9.08360478 Z M14.2397163,8.58706569 C15.1704264,7.44244028 15.5509826,6.88545331 16.0497688,6 C16.5397353,6.91150923 16.9187953,7.47482356 17.8095451,8.58706569 L14.2397163,8.58706569 Z M17.8095176,23.4129343 C16.8788075,24.5575597 16.4982513,25.1145467 15.9994651,26 C15.5094986,25.0884908 15.1304386,24.5251764 14.2396888,23.4129343 L17.8095176,23.4129343 Z"/>
  </g>
</svg>
