<svg width="33" height="33" viewBox="0 0 33 33" fill="none" xmlns="http://www.w3.org/2000/svg">
<g clip-path="url(#clip0)">
<path d="M16.4442 32.9457C25.2806 32.9457 32.4439 25.7824 32.4439 16.946C32.4439 8.10955 25.2806 0.946228 16.4442 0.946228C7.60778 0.946228 0.444458 8.10955 0.444458 16.946C0.444458 25.7824 7.60778 32.9457 16.4442 32.9457Z" fill="url(#paint0_linear)"/>
<path fill-rule="evenodd" clip-rule="evenodd" d="M15.8649 6.7182C14.9359 6.82527 14.0721 7.24914 13.4191 7.91845C12.9287 8.40395 12.4642 8.90239 11.9674 9.39274C11.7187 9.64789 11.4674 9.89604 11.216 10.148C10.9646 10.3999 10.6873 10.6674 10.4262 10.9318C10.1652 11.1961 9.94831 11.428 9.70664 11.6735C9.32903 12.0511 8.95143 12.4287 8.57382 12.8101C8.28414 13.1095 8.00094 13.4186 7.7145 13.7174C7.54565 13.896 7.36386 14.0616 7.20473 14.2493C6.548 15.0506 6.18907 16.0545 6.18896 17.0905C6.18896 17.1515 6.18896 17.2141 6.19274 17.2745C6.20617 17.8694 6.36231 18.4523 6.64803 18.9742C6.81068 19.2897 6.99904 19.5912 7.2112 19.8757C7.35145 20.0731 7.45341 20.0698 7.6379 19.9172C7.67314 19.8879 7.70614 19.856 7.73661 19.8217C7.9184 19.6302 8.09642 19.4392 8.28144 19.2483C8.54253 18.9742 8.81009 18.7008 9.07118 18.4235C9.33227 18.1462 9.61547 17.8409 9.88951 17.5544C10.0201 17.4142 10.1592 17.2847 10.2909 17.1466C10.5708 16.8505 10.8449 16.5452 11.1248 16.2522C11.4048 15.9593 11.6885 15.6853 11.9626 15.3989C12.2366 15.1124 12.5738 14.7618 12.8823 14.4435C13.1909 14.1252 13.4525 13.8577 13.7389 13.5648C14.1117 13.1791 14.4747 12.7842 14.8437 12.399C15.073 12.1633 15.3087 11.9373 15.538 11.7048C15.8562 11.3865 16.1524 11.0682 16.4647 10.75C16.7771 10.4317 17.009 10.2181 17.2766 9.94405C17.8746 9.33987 18.4718 8.73211 19.068 8.12074C19.1065 8.08279 19.1426 8.04243 19.1759 7.99991C19.3227 7.81488 19.3351 7.77388 19.1538 7.64334C18.8771 7.42529 18.5807 7.23333 18.2686 7.06992C17.7169 6.81191 17.1153 6.67822 16.5063 6.67828H16.476C16.2726 6.67833 16.0694 6.69112 15.8676 6.71658L15.8643 6.71335L15.8649 6.7182ZM21.1346 10.6378H21.0963C20.835 10.6379 20.5769 10.6949 20.3399 10.8049C20.1029 10.9149 19.8927 11.0753 19.724 11.2748C19.6938 11.3083 19.6619 11.3401 19.6285 11.3703L18.6543 12.3257C18.336 12.6445 17.9919 12.9913 17.6574 13.3258C17.3807 13.6025 17.1034 13.8733 16.8299 14.1506C16.5564 14.4279 16.263 14.7364 15.9668 15.0261C15.6707 15.3158 15.3556 15.6195 15.0498 15.9178L13.9639 17.0128L11.9453 19.032C11.0534 19.9274 10.1628 20.8211 9.27347 21.713C9.10193 21.8818 9.09869 21.9039 9.27347 22.0852C9.70017 22.5167 10.1333 22.9451 10.5471 23.3798C10.8031 23.6512 11.1409 23.8312 11.5089 23.8923C11.8561 23.9622 12.2148 23.9501 12.5565 23.8572C12.8125 23.7939 13.0488 23.6681 13.2443 23.491L14.3016 22.4698C14.5497 22.2314 14.8016 21.9956 15.0465 21.7534C15.5369 21.2679 16.0208 20.7792 16.5111 20.297C16.9092 19.9053 17.317 19.5169 17.7211 19.1253L19.3788 17.5097C19.8945 17.0031 20.4134 16.4939 20.9356 15.9874C20.9704 15.9356 21.0187 15.8944 21.0753 15.8682C21.1319 15.8421 21.1945 15.8319 21.2565 15.8388C21.3185 15.8458 21.3773 15.8696 21.4267 15.9077C21.4761 15.9458 21.5141 15.9966 21.5365 16.0548C21.8019 16.4424 21.9439 16.9013 21.9438 17.371C21.9437 17.4514 21.9396 17.5317 21.9314 17.6116C21.8886 18.0852 21.6932 18.5322 21.3747 18.8852C20.9922 19.2963 20.5849 19.6847 20.1879 20.0796C19.9047 20.3595 19.615 20.6336 19.3313 20.9168C18.965 21.2798 18.6052 21.6493 18.2389 22.0124C18.185 22.0728 18.1343 22.1364 18.0771 22.1936L17.7173 22.5664C17.4476 22.8361 17.173 23.0983 16.9081 23.3685C16.6433 23.6388 16.339 23.9549 16.0558 24.25C16.0305 24.2785 16.0019 24.2974 15.9765 24.3228C15.6577 24.6189 15.3648 24.9162 15.0622 25.2145C14.9192 25.3547 14.7822 25.4977 14.642 25.6379C14.4003 25.8834 14.1516 26.1234 13.9191 26.3737C13.7762 26.5232 13.7762 26.6154 13.945 26.7335C14.2222 26.9463 14.5173 27.1348 14.827 27.2967C15.5973 27.645 16.451 27.7665 17.2879 27.6468C18.1186 27.5482 18.8979 27.1932 19.5174 26.631C19.9883 26.2173 20.4091 25.7523 20.8482 25.3067C21.1665 24.9879 21.4853 24.6475 21.8257 24.3195L22.7459 23.3928C23.0264 23.1096 23.3032 22.8258 23.5869 22.5459C23.8707 22.2659 24.2235 21.9315 24.5417 21.6159C24.86 21.3003 25.1788 20.9793 25.4971 20.6417C25.7509 20.3832 25.9852 20.1065 26.1983 19.8136C26.5956 19.2133 26.8436 18.5268 26.9217 17.8112C26.9649 17.4558 26.9649 17.0964 26.9217 16.741C26.827 16.1085 26.5978 15.5037 26.2496 14.9673C25.9991 14.5878 25.6995 14.2431 25.3584 13.9424C24.4765 13.0669 23.5972 12.1849 22.7346 11.2899C22.5466 11.0806 22.3166 10.9131 22.0596 10.7984C21.8027 10.6838 21.5245 10.6244 21.2431 10.6243H21.2312L21.1357 10.6372L21.1346 10.6378Z" fill="white"/>
</g>
<defs>
<linearGradient id="paint0_linear" x1="2.62462" y1="7.65955" x2="28.3032" y2="25.2291" gradientUnits="userSpaceOnUse">
<stop stop-color="#FF3B3B"/>
<stop offset="1" stop-color="#FF9914"/>
</linearGradient>
<clipPath id="clip0">
<rect width="32" height="32" fill="white" transform="translate(0.444458 0.946228)"/>
</clipPath>
</defs>
</svg>
