<svg height="32" viewBox="0 0 32 32" width="32" xmlns="http://www.w3.org/2000/svg"><g fill="none"><circle cx="16" cy="16" fill="#0082c6" r="16"/><path d="m18.04586 15.1026012c-.0435418-.0081273-.0870836.0081274-.1136925.0417978-.0387038.0487641-.0278184.1184271.0229804.1555807 4.3783702 3.1777942-1.8541551 10.4540952-13.9551479 2.711052 10.2601421 9.6552927 24.5466915-1.0101136 14.04586-2.9084305zm-5.8442776-4.2471213c-9.0857229 2.9061084 1.323187 9.7621093 2.2266795 6.2986969.0157234-.0592136-.0205615-.1207493-.0834552-.1358429-.0205614-.0058053-.0435418-.0046442-.0641032.001161-1.3364914.4342328-8.70110364-1.6243091-2.0791211-6.164015zm15.7984176 1.7462194c-7.8665524-5.61019414-22.6284332-.9834095-15.0134556 2.9769325.0568462.0290262.1269969.0081273.1572343-.046442.0169329-.0301874.0181424-.067341.0036284-.0986893-3.0975155-6.54251736 12.6331704-4.5524775 14.8525929-2.8318012zm-6.527642 8.1517328c4.1582422-1.8913506.7764955-8.3618829-4.7242856-7.112593-.0628937.0127716-.124578-.0255431-.1378824-.0847566-.009676-.0406368.0060475-.0824346.0399133-.1091387 4.2804012-3.2172699 12.3138638 4.2912412 4.8222547 7.3064883z" fill="#fff"/></g></svg>