<svg xmlns="http://www.w3.org/2000/svg" width="32" height="32" viewBox="0 0 32 32">
  <g fill="none">
    <circle cx="16" cy="16" r="16" fill="#24DD7B"/>
    <path fill="#FFF" d="M13.0917431,7.91273446 L17.4954128,6 L17.4587156,11.0525061 L23,11.0525061 L23,14.5531711 L17.4220183,14.5531711 L17.4220183,20.6161784 C17.4220183,22.4567342 20.5412844,22.6732702 21.7155963,22.0597516 L22.7798165,25.2356126 C20.1743119,26.7513644 13.0550459,26.3904711 13.0550459,20.6522678 L13.0550459,7.91273446 L13.0917431,7.91273446 Z M8.98165138,15.4914936 C7.88721554,15.4914936 7,14.4250826 7,13.1095979 C7,11.7941132 7.88721554,10.7277022 8.98165138,10.7277022 C10.0760872,10.7277022 10.9633028,11.7941132 10.9633028,13.1095979 C10.9633028,14.4250826 10.0760872,15.4914936 8.98165138,15.4914936 Z"/>
  </g>
</svg>
