<svg width="32" height="32" viewBox="0 0 32 32" fill="none" xmlns="http://www.w3.org/2000/svg">
<path d="M16 32C24.8366 32 32 24.8366 32 16C32 7.16344 24.8366 0 16 0C7.16344 0 0 7.16344 0 16C0 24.8366 7.16344 32 16 32Z" fill="white"/>
<mask id="mask0" mask-type="alpha" maskUnits="userSpaceOnUse" x="2" y="2" width="17" height="28">
<path d="M4.01787 18.0104C2.90343 18.0104 2 17.1103 2 16C2 14.8897 2.90343 13.9896 4.01787 13.9896C5.13231 13.9896 6.03574 14.8897 6.03574 16C6.03574 17.1103 5.13231 18.0104 4.01787 18.0104ZM18.0696 28C18.0696 29.1046 17.1716 30 16.0639 30C14.9562 30 14.0583 29.1046 14.0583 28C14.0583 26.8954 13.1603 26 12.0527 26C10.945 26 10.047 25.1046 10.047 24C10.047 22.8954 9.14906 22 8.04138 22C6.93369 22 6.03574 21.1046 6.03574 20C6.03574 18.8954 6.93369 18 8.04138 18C9.14906 18 10.047 17.1046 10.047 16C10.047 14.8954 9.14906 14 8.04138 14C6.93369 14 6.03574 13.1046 6.03574 12C6.03574 10.8954 6.93369 10 8.04138 10C9.14906 10 10.047 9.10457 10.047 8C10.047 6.89543 10.945 6 12.0527 6C13.1603 6 14.0583 5.10457 14.0583 4C14.0583 2.89543 14.9562 2 16.0639 2C17.1716 2 18.0696 2.89543 18.0696 4C18.0696 5.10457 17.1716 6 16.0639 6C14.9562 6 14.0583 6.89543 14.0583 8C14.0583 9.10457 13.1603 10 12.0527 10C10.945 10 10.047 10.8954 10.047 12C10.047 13.1046 10.945 14 12.0527 14C13.1603 14 14.0583 14.8954 14.0583 16C14.0583 17.1046 13.1603 18 12.0527 18C10.945 18 10.047 18.8954 10.047 20C10.047 21.1046 10.945 22 12.0527 22C13.1603 22 14.0583 22.8954 14.0583 24C14.0583 25.1046 14.9562 26 16.0639 26C17.1716 26 18.0696 26.8954 18.0696 28Z" fill="white"/>
</mask>
<g mask="url(#mask0)">
<path fill-rule="evenodd" clip-rule="evenodd" d="M-8.93317 56.1723H71.7815V-24.2454H-8.93317V56.1723Z" fill="url(#paint0_linear)"/>
</g>
<mask id="mask1" mask-type="alpha" maskUnits="userSpaceOnUse" x="2" y="2" width="17" height="28">
<path d="M4.01787 18.0104C2.90343 18.0104 2 17.1103 2 16C2 14.8897 2.90343 13.9896 4.01787 13.9896C5.13231 13.9896 6.03574 14.8897 6.03574 16C6.03574 17.1103 5.13231 18.0104 4.01787 18.0104ZM18.0696 28C18.0696 29.1046 17.1716 30 16.0639 30C14.9562 30 14.0583 29.1046 14.0583 28C14.0583 26.8954 13.1603 26 12.0527 26C10.945 26 10.047 25.1046 10.047 24C10.047 22.8954 9.14906 22 8.04138 22C6.93369 22 6.03574 21.1046 6.03574 20C6.03574 18.8954 6.93369 18 8.04138 18C9.14906 18 10.047 17.1046 10.047 16C10.047 14.8954 9.14906 14 8.04138 14C6.93369 14 6.03574 13.1046 6.03574 12C6.03574 10.8954 6.93369 10 8.04138 10C9.14906 10 10.047 9.10457 10.047 8C10.047 6.89543 10.945 6 12.0527 6C13.1603 6 14.0583 5.10457 14.0583 4C14.0583 2.89543 14.9562 2 16.0639 2C17.1716 2 18.0696 2.89543 18.0696 4C18.0696 5.10457 17.1716 6 16.0639 6C14.9562 6 14.0583 6.89543 14.0583 8C14.0583 9.10457 13.1603 10 12.0527 10C10.945 10 10.047 10.8954 10.047 12C10.047 13.1046 10.945 14 12.0527 14C13.1603 14 14.0583 14.8954 14.0583 16C14.0583 17.1046 13.1603 18 12.0527 18C10.945 18 10.047 18.8954 10.047 20C10.047 21.1046 10.945 22 12.0527 22C13.1603 22 14.0583 22.8954 14.0583 24C14.0583 25.1046 14.9562 26 16.0639 26C17.1716 26 18.0696 26.8954 18.0696 28Z" fill="white"/>
</mask>
<g mask="url(#mask1)">
<path fill-rule="evenodd" clip-rule="evenodd" d="M-8.93317 56.1723H71.7815V-24.2454H-8.93317V56.1723Z" fill="url(#paint1_linear)"/>
</g>
<mask id="mask2" mask-type="alpha" maskUnits="userSpaceOnUse" x="13" y="6" width="9" height="21">
<path d="M21.9652 24.1078C21.9652 25.2105 21.0659 26.1043 19.9565 26.1043C18.8472 26.1043 17.9478 25.2105 17.9478 24.1078C17.9478 23.0052 17.0485 22.1113 15.9391 22.1113C14.8298 22.1113 13.9304 21.2174 13.9304 20.1148C13.9304 19.0121 14.8298 18.1183 15.9391 18.1183C17.0485 18.1183 17.9478 17.2244 17.9478 16.1217C17.9478 15.0191 17.0485 14.1252 15.9391 14.1252C14.8298 14.1252 13.9304 13.2313 13.9304 12.1287C13.9304 11.026 14.8298 10.1322 15.9391 10.1322C17.0485 10.1322 17.9478 9.2383 17.9478 8.13565C17.9478 7.033 18.8472 6.13913 19.9565 6.13913C21.0659 6.13913 21.9652 7.033 21.9652 8.13565C21.9652 9.2383 21.0659 10.1322 19.9565 10.1322C18.8472 10.1322 17.9478 11.026 17.9478 12.1287C17.9478 13.2313 18.8472 14.1252 19.9565 14.1252C21.0659 14.1252 21.9652 15.0191 21.9652 16.1217C21.9652 17.2244 21.0659 18.1183 19.9565 18.1183C18.8472 18.1183 17.9478 19.0121 17.9478 20.1148C17.9478 21.2174 18.8472 22.1113 19.9565 22.1113C21.0659 22.1113 21.9652 23.0052 21.9652 24.1078Z" fill="white"/>
</mask>
<g mask="url(#mask2)">
<path fill-rule="evenodd" clip-rule="evenodd" d="M-9.14192 56.1251H71.943V-24.0273H-9.14192V56.1251Z" fill="url(#paint2_linear)"/>
</g>
<mask id="mask3" mask-type="alpha" maskUnits="userSpaceOnUse" x="13" y="6" width="9" height="21">
<path d="M21.9652 24.1078C21.9652 25.2105 21.0659 26.1043 19.9565 26.1043C18.8472 26.1043 17.9478 25.2105 17.9478 24.1078C17.9478 23.0052 17.0485 22.1113 15.9391 22.1113C14.8298 22.1113 13.9304 21.2174 13.9304 20.1148C13.9304 19.0121 14.8298 18.1183 15.9391 18.1183C17.0485 18.1183 17.9478 17.2244 17.9478 16.1217C17.9478 15.0191 17.0485 14.1252 15.9391 14.1252C14.8298 14.1252 13.9304 13.2313 13.9304 12.1287C13.9304 11.026 14.8298 10.1322 15.9391 10.1322C17.0485 10.1322 17.9478 9.2383 17.9478 8.13565C17.9478 7.033 18.8472 6.13913 19.9565 6.13913C21.0659 6.13913 21.9652 7.033 21.9652 8.13565C21.9652 9.2383 21.0659 10.1322 19.9565 10.1322C18.8472 10.1322 17.9478 11.026 17.9478 12.1287C17.9478 13.2313 18.8472 14.1252 19.9565 14.1252C21.0659 14.1252 21.9652 15.0191 21.9652 16.1217C21.9652 17.2244 21.0659 18.1183 19.9565 18.1183C18.8472 18.1183 17.9478 19.0121 17.9478 20.1148C17.9478 21.2174 18.8472 22.1113 19.9565 22.1113C21.0659 22.1113 21.9652 23.0052 21.9652 24.1078Z" fill="white"/>
</mask>
<g mask="url(#mask3)">
<path fill-rule="evenodd" clip-rule="evenodd" d="M-9.14192 56.1251H71.943V-24.0273H-9.14192V56.1251Z" fill="url(#paint3_linear)"/>
</g>
<mask id="mask4" mask-type="alpha" maskUnits="userSpaceOnUse" x="21" y="9" width="9" height="13">
<path d="M23.9739 13.8124C22.8645 13.8124 21.9652 12.9122 21.9652 11.8018C21.9652 10.6915 22.8645 9.79131 23.9739 9.79131C25.0833 9.79131 25.9826 10.6915 25.9826 11.8018C25.9826 12.9122 26.8819 13.8124 27.9913 13.8124C29.1007 13.8124 30 14.7125 30 15.8229C30 16.9333 29.1007 17.8335 27.9913 17.8335C26.8819 17.8335 25.9826 16.9333 25.9826 15.8229C25.9826 14.7125 25.0833 13.8124 23.9739 13.8124ZM23.9923 21.9652C22.8728 21.9652 21.9652 21.0568 21.9652 19.9362C21.9652 18.8157 22.8728 17.9072 23.9923 17.9072C25.1119 17.9072 26.0195 18.8157 26.0195 19.9362C26.0195 21.0568 25.1119 21.9652 23.9923 21.9652Z" fill="white"/>
</mask>
<g mask="url(#mask4)">
<path fill-rule="evenodd" clip-rule="evenodd" d="M-9.21565 56.4211H71.8693V-24.7383H-9.21565V56.4211Z" fill="url(#paint4_linear)"/>
</g>
<mask id="mask5" mask-type="alpha" maskUnits="userSpaceOnUse" x="21" y="9" width="9" height="13">
<path d="M23.9739 13.8124C22.8645 13.8124 21.9652 12.9122 21.9652 11.8018C21.9652 10.6915 22.8645 9.79131 23.9739 9.79131C25.0833 9.79131 25.9826 10.6915 25.9826 11.8018C25.9826 12.9122 26.8819 13.8124 27.9913 13.8124C29.1007 13.8124 30 14.7125 30 15.8229C30 16.9333 29.1007 17.8335 27.9913 17.8335C26.8819 17.8335 25.9826 16.9333 25.9826 15.8229C25.9826 14.7125 25.0833 13.8124 23.9739 13.8124ZM23.9923 21.9652C22.8728 21.9652 21.9652 21.0568 21.9652 19.9362C21.9652 18.8157 22.8728 17.9072 23.9923 17.9072C25.1119 17.9072 26.0195 18.8157 26.0195 19.9362C26.0195 21.0568 25.1119 21.9652 23.9923 21.9652Z" fill="white"/>
</mask>
<g mask="url(#mask5)">
<path fill-rule="evenodd" clip-rule="evenodd" d="M-9.21565 56.4211H71.8693V-24.7383H-9.21565V56.4211Z" fill="url(#paint5_linear)"/>
</g>
<defs>
<linearGradient id="paint0_linear" x1="2.00001" y1="2.00001" x2="2.00001" y2="76.8616" gradientUnits="userSpaceOnUse">
<stop stop-color="#FEDE00"/>
<stop offset="1" stop-color="#FF5320"/>
</linearGradient>
<linearGradient id="paint1_linear" x1="2.56575" y1="8.44242" x2="18.5795" y2="23.616" gradientUnits="userSpaceOnUse">
<stop stop-color="#FEDE00"/>
<stop offset="1" stop-color="#FF5320"/>
</linearGradient>
<linearGradient id="paint2_linear" x1="13.9304" y1="6.13914" x2="13.9304" y2="80.7537" gradientUnits="userSpaceOnUse">
<stop stop-color="#0072FF"/>
<stop offset="1" stop-color="#00EFFE"/>
</linearGradient>
<linearGradient id="paint3_linear" x1="17.5121" y1="25.4972" x2="16.4986" y2="6.99641" gradientUnits="userSpaceOnUse">
<stop stop-color="#0072FF"/>
<stop offset="1" stop-color="#00EFFE"/>
</linearGradient>
<linearGradient id="paint4_linear" x1="21.9652" y1="9.7913" x2="21.9652" y2="85.3433" gradientUnits="userSpaceOnUse">
<stop stop-color="#A6E50F"/>
<stop offset="1" stop-color="#02D0E1"/>
</linearGradient>
<linearGradient id="paint5_linear" x1="18.3909" y1="15.612" x2="25.9981" y2="21.9583" gradientUnits="userSpaceOnUse">
<stop stop-color="#A6E50F"/>
<stop offset="1" stop-color="#02D0E1"/>
</linearGradient>
</defs>
</svg>
