<?xml version="1.0" encoding="UTF-8"?>
<svg width="32px" height="32px" viewBox="0 0 32 32" version="1.1" xmlns="http://www.w3.org/2000/svg" xmlns:xlink="http://www.w3.org/1999/xlink">
    <!-- Generator: Sketch 52.5 (67469) - http://www.bohemiancoding.com/sketch -->
    <title>svg/color/tomo</title>
    <desc>Created with Sketch.</desc>
    <g id="color/tomo" stroke="none" stroke-width="1" fill="none" fill-rule="evenodd">
        <g id="Group" fill="#1A1F36" fill-rule="nonzero">
            <circle id="Oval" cx="16" cy="16" r="16"></circle>
        </g>
        <g id="tomo" transform="translate(4.000000, 4.000000)" fill="#FFFFFF" fill-rule="nonzero">
            <path d="M14.5248,10.464 C14.8270102,10.4772548 15.0827452,10.2430102 15.096,9.9408 C15.1092548,9.63858978 14.8750102,9.38285483 14.5728,9.3696 L10.7328,9.3696 L10.7328,8.4096 C10.6555382,8.13693229 10.4066027,7.94873332 10.1232,7.94873332 C9.83979734,7.94873332 9.59086181,8.13693229 9.5136,8.4096 L9.5136,9.3696 L8.4864,9.3696 C8.29090426,9.36959999 8.11025875,9.47389572 8.01251088,9.64319999 C7.91476301,9.81250427 7.91476301,10.0210957 8.01251088,10.1904 C8.11025875,10.3597043 8.29090426,10.464 8.4864,10.464 L9.5136,10.464 L9.5136,13.8048 C9.52412851,15.5538017 10.9421745,16.9675635 12.6912,16.9728 C13.3918702,16.9621507 14.0684151,16.7152117 14.6112,16.272 L14.8416,16.08 C15.043295,15.9381948 15.1461797,15.6935719 15.1064694,15.4502353 C15.0667591,15.2068987 14.8914428,15.0076756 14.6551298,14.9373494 C14.4188168,14.8670232 14.1630982,14.9379711 13.9968,15.12 L13.824,15.264 C13.2625208,15.7288991 12.4797999,15.8192131 11.8272,15.4944 C11.1604151,15.1768269 10.7348907,14.5049461 10.7328,13.7664 L10.7328,10.464 L14.5248,10.464 Z M20.7648,14.1888 C20.7902873,14.0640396 20.7651564,13.9342644 20.6949385,13.8280373 C20.6247205,13.7218102 20.5151706,13.6478374 20.3904,13.6224 L20.1504,13.6224 C19.9303893,13.6212752 19.7389879,13.7728013 19.6896,13.9872 C19.0554296,16.7683557 16.8961805,18.9476198 14.1209942,19.6074234 C11.345808,20.2672269 8.43680021,19.2929464 6.61879488,17.0947982 C4.80078954,14.8966499 4.38961718,11.8565041 5.5584,9.2544 C6.25312462,7.57653854 7.58613854,6.24352462 9.264,5.5488 C12.6098108,4.05471186 16.5453972,5.18032198 18.5952,8.2176 C18.7411638,8.43079142 19.0296921,8.4901943 19.248,8.352 L19.3344,8.2944 C19.5741971,8.14227258 19.6469625,7.82552895 19.4976,7.584 C17.2688045,4.3030656 13.0923934,2.96107191 9.3696,4.3296 C7.04460862,5.12881723 5.20825244,6.94045324 4.3776,9.2544 C3.21340896,12.26094 3.83242373,15.6663123 5.98021205,18.0708142 C8.12800036,20.475316 11.4421887,21.4732614 14.5605536,20.6544671 C17.6789185,19.8356728 20.0753314,17.3382852 20.7648,14.1888 Z M12.8736,0.9504 L11.9136,0.9504 C8.3991413,1.09863656 5.1481344,2.85500005 3.09773414,5.71319053 C1.04733389,8.57138101 0.425394511,12.2137772 1.4112,15.5904 C1.49893457,15.8791481 1.80387691,16.0423567 2.0928,15.9552 L2.1696,15.9552 C2.40926035,15.8393832 2.53081531,15.5679104 2.4576,15.312 C1.15026968,10.8342099 3.00023413,6.03527072 6.97494767,3.59367927 C10.9496612,1.15208782 16.0665425,1.67142524 19.4696375,4.86182672 C22.8727324,8.05222819 23.7207683,13.1250007 21.5404195,17.2488091 C19.3600707,21.3726175 14.690337,23.528023 10.1376,22.512 C9.94224501,22.4708385 9.74061266,22.5455172 9.6192,22.704 C9.49839747,22.8545097 9.46414896,23.0568414 9.52868782,23.2387237 C9.59322667,23.4206059 9.74734776,23.5560969 9.936,23.5968 C14.093985,24.3582767 18.3328498,22.7634932 20.9577504,19.4500988 C23.582651,16.1367043 24.1652461,11.6453914 22.4725941,7.77194132 C20.779942,3.89849129 17.0882564,1.27498864 12.8736,0.9504 Z" id="Shape"></path>
        </g>
    </g>
</svg>