<?xml version="1.0" encoding="utf-8"?>
<!-- Generator: Adobe Illustrator 26.0.1, SVG Export Plug-In . SVG Version: 6.00 Build 0)  -->
<svg version="1.1" id="Layer_1" xmlns="http://www.w3.org/2000/svg" xmlns:xlink="http://www.w3.org/1999/xlink" x="0px" y="0px"
	 viewBox="0 0 56 56" style="enable-background:new 0 0 56 56;" xml:space="preserve">
<style type="text/css">
	.st0{fill:#0088CC;}
	.st1{fill-rule:evenodd;clip-rule:evenodd;fill:#FFFFFF;}
</style>
<circle class="st0" cx="28" cy="28" r="28"/>
<path class="st1" d="M20.2,18.5h15.7c0.6,0,1.1,0.1,1.7,0.4c0.7,0.3,1.1,0.8,1.3,1.2c0,0,0,0.1,0.1,0.1c0.3,0.5,0.5,1.1,0.5,1.8
	c0,0.6-0.1,1.2-0.5,1.8c0,0,0,0,0,0l-9.9,17c-0.2,0.4-0.6,0.6-1.1,0.6c-0.4,0-0.8-0.2-1.1-0.6l-9.7-17c0,0,0,0,0,0
	c-0.2-0.4-0.6-0.9-0.6-1.7c-0.1-0.7,0.1-1.3,0.4-1.9c0.3-0.6,0.8-1.1,1.5-1.3C19.1,18.5,19.8,18.5,20.2,18.5z M26.8,20.9h-6.6
	c-0.4,0-0.6,0-0.7,0.1c-0.2,0.1-0.3,0.2-0.4,0.4C19,21.5,19,21.7,19,21.9c0,0.1,0.1,0.2,0.3,0.6c0,0,0,0,0,0l7.5,13V20.9z
	 M29.2,20.9v14.7l7.6-13.1c0.1-0.2,0.1-0.4,0.1-0.6c0-0.2,0-0.4-0.1-0.5c-0.1-0.1-0.1-0.2-0.2-0.2c0,0-0.1-0.1-0.1-0.1
	c-0.2-0.1-0.4-0.1-0.7-0.1H29.2z"/>
</svg>
