<svg width="32" height="32" viewBox="0 0 32 32" version="1.1" xmlns="http://www.w3.org/2000/svg" xmlns:xlink="http://www.w3.org/1999/xlink"><title>svg/color/trtl</title><desc>Created with Sketch.</desc><g id="color/trtl" stroke="none" stroke-width="1" fill="none" fill-rule="evenodd"><g id="Group" fill="#00843D" fill-rule="nonzero"><circle id="Oval" cx="16" cy="16" r="16"/></g><g id="TurtleCoin-(TRTL)" transform="translate(5.000000, 4.000000)" fill="#FFF" fill-rule="nonzero"><path d="M11.0058511,1.59929078 C11.3999761,1.599217 11.7871696,1.70294396 12.1284752,1.90003546 L19.2878369,6.03400709 C19.9825381,6.43509305 20.410483,7.17633872 20.410461,7.97851064 L20.410461,16.4126241 C20.410483,17.214796 19.9825381,17.9560417 19.2878369,18.3571277 L12.1269149,22.4918794 C11.4322327,22.8929544 10.5763489,22.8929544 9.88166667,22.4918794 L2.72074468,18.3571277 C2.02610231,17.9559828 1.59817903,17.2147745 1.59812057,16.4126241 L1.59812057,7.97890071 C1.59817903,7.17675035 2.02610231,6.43554201 2.72074468,6.03439716 L9.88166667,1.89964539 C10.2229722,1.70255389 10.6101657,1.59882693 11.0042908,1.59890071 L11.0058511,1.59929078 Z M11.0042908,0.0386170213 C10.3363138,0.0388485301 9.68013281,0.214664134 9.10152482,0.548439716 L1.94060284,4.68319149 C0.764804241,5.3646307 0.0400734242,6.61990964 0.0378368794,7.97890071 L0.0378368794,16.4126241 C0.039934611,17.7717546 0.76468396,19.0272142 1.94060284,19.7087234 L9.10152482,23.8434752 C10.2789605,24.523268 11.7296211,24.523268 12.9070567,23.8434752 L20.0679787,19.7087234 C21.2438358,19.0273426 21.968588,17.7720267 21.9707447,16.4130142 L21.9707447,7.97890071 C21.9687268,6.61974878 21.2439561,5.36425219 20.0679787,4.68280142 L12.9070567,0.548049645 C12.3284488,0.214274064 11.6722678,0.0384584591 11.0042908,0.0382269504 L11.0042908,0.0386170213 Z" id="Shape"/><path d="M10.1266312,13.5198582 C9.95943262,13.519826 9.80494681,13.4306138 9.72134752,13.2858156 L8.85968085,11.7930142 C8.7760655,11.6481881 8.7760655,11.4697551 8.85968085,11.3249291 L9.72134752,9.83212766 C9.80494681,9.68732944 9.95943262,9.59811722 10.1266312,9.59808511 L11.8846809,9.59808511 C12.0518794,9.59811722 12.2063653,9.68732944 12.2899645,9.83212766 L13.1516312,11.3249291 C13.2352466,11.4697551 13.2352466,11.6481881 13.1516312,11.7930142 L12.2899645,13.2858156 C12.2063653,13.4306138 12.0518794,13.519826 11.8846809,13.5198582 L10.1266312,13.5198582 Z" id="Shape"/><path d="M7.77840426,11.1689007 C7.94560284,11.1688686 8.10008865,11.0796564 8.18368794,10.9348582 L9.04535461,9.44205674 C9.12896996,9.2972307 9.12896996,9.11879767 9.04535461,8.97397163 L7.97070922,7.11255319 L5.87446809,8.25702128 C5.72084228,8.34083292 5.62679884,8.50333998 5.63067376,8.67829787 C5.64826133,9.51601284 5.74583215,10.3501323 5.92205674,11.1692908 L7.77840426,11.1689007 Z" id="Shape"/><path d="M14.2329078,11.1689007 C14.0657092,11.1688686 13.9112234,11.0796564 13.8276241,10.9348582 L12.9655674,9.44205674 C12.881952,9.2972307 12.881952,9.11879767 12.9655674,8.97397163 L14.0402128,7.11255319 L16.1364539,8.25663121 C16.2900797,8.34044285 16.3841231,8.50294991 16.3802482,8.6779078 C16.3627889,9.51561025 16.2653488,10.3497296 16.0892553,11.1689007 L14.2329078,11.1689007 Z" id="Shape"/><path d="M11.2301418,5.57840426 C11.0903518,5.50209012 10.9213504,5.50209012 10.7815603,5.57840426 L8.65606383,6.73886525 L9.72173759,8.58429078 C9.80533688,8.729089 9.9598227,8.81830122 10.1270213,8.81833333 L11.8850709,8.81833333 C12.0522695,8.81830122 12.2067553,8.729089 12.2903546,8.58429078 L13.3560284,6.73886525 L11.2301418,5.57840426 Z" id="Shape"/><path d="M6.11592199,11.9490426 C6.51715618,13.3757178 7.15807678,14.7237748 8.0112766,15.9355674 L9.04574468,14.1439716 C9.12936003,13.9991456 9.12936003,13.8207126 9.04574468,13.6758865 L8.18407801,12.1830851 C8.10047873,12.0382869 7.94599291,11.9490747 7.77879433,11.9490426 L6.11592199,11.9490426 Z" id="Shape"/><path d="M15.8942199,11.9490426 C15.4929785,13.3757152 14.8520585,14.7237709 13.9988652,15.9355674 L12.9643972,14.1439716 C12.8807818,13.9991456 12.8807818,13.8207126 12.9643972,13.6758865 L13.826844,12.1830851 C13.9104433,12.0382869 14.0649291,11.9490747 14.2321277,11.9490426 L15.8942199,11.9490426 Z" id="Shape"/><path d="M10.1266312,14.3 C9.95943262,14.3000321 9.80494681,14.3892443 9.72134752,14.5340426 L8.52187943,16.6131206 C9.16781175,17.4162152 9.90551269,18.1409556 10.7199291,18.7725532 C10.8886963,18.9033233 11.1245661,18.9033233 11.2933333,18.7725532 C12.1077474,18.1409529 12.845448,17.4162128 13.491383,16.6131206 L12.2911348,14.5340426 C12.2075355,14.3892443 12.0530496,14.3000321 11.8858511,14.3 L10.1266312,14.3 Z" id="Shape"/></g></g></svg>