<svg width="32" height="32" viewBox="0 0 32 32" fill="none" xmlns="http://www.w3.org/2000/svg">
<path d="M32 16C32 24.8365 24.8365 32 16 32C7.1635 32 0 24.8365 0 16C0 7.1635 7.1635 0 16 0C24.8365 0 32 7.1635 32 16Z" fill="white"/>
<path d="M23.3013 16.0001C25.0503 14.1401 26.008 11.7412 26.008 9.17366C26.008 8.49989 25.9324 7.80407 25.7834 7.10616L25.6284 6.38024L24.9025 6.22499C24.2049 6.07599 23.509 6.0003 22.8344 6.0003C20.339 6.0003 18.0033 6.90531 16.1661 8.56157C16.1313 8.59435 16.0231 8.69269 16.0043 8.71027C14.1433 6.95895 11.743 6 9.17395 6C8.50078 6 7.80496 6.07569 7.10616 6.22499L6.37994 6.38024L6.22499 7.10616C6.07599 7.80496 6.0003 8.50048 6.0003 9.17336C6.0003 11.7412 6.95806 14.1398 8.70699 15.9999H8.7067C6.95776 17.8599 6 20.2588 6 22.8263C6 23.5001 6.07569 24.1959 6.22469 24.8938L6.37965 25.6198L7.10556 25.775C7.80317 25.924 8.49899 25.9997 9.17366 25.9997C11.6691 25.9997 14.0048 25.0947 15.8419 23.4384C15.8768 23.4059 15.9849 23.3073 16.0037 23.2897C17.8647 25.041 20.2651 26 22.8341 26C23.5073 26 24.2031 25.9243 24.9019 25.775L25.6278 25.6198L25.7828 24.8938C25.9318 24.195 26.0074 23.4995 26.0074 22.8266C26.0077 20.2591 25.05 17.8605 23.3013 16.0001ZM23.7167 22.8266C23.7167 23.0987 23.7004 23.3773 23.6673 23.6595C23.3851 23.6923 23.1068 23.709 22.8344 23.709C20.8012 23.709 18.9041 22.9289 17.4526 21.5062C18.017 20.625 18.4446 19.6649 18.7057 18.6499L16.4868 18.079C16.1369 19.4378 15.4059 20.6775 14.3743 21.6764C12.9481 22.9899 11.1234 23.7087 9.17366 23.7087C8.90099 23.7087 8.62266 23.6923 8.34046 23.6595C8.30768 23.3773 8.29129 23.099 8.29129 22.8263C8.29129 20.6784 9.16084 18.6812 10.7399 17.2026L11.9438 15.9999L10.7399 14.7971C9.16084 13.3185 8.29129 11.3213 8.29129 9.17306C8.29129 8.90099 8.30768 8.62236 8.34076 8.34016C8.62296 8.30738 8.90129 8.29069 9.17366 8.29069C11.2069 8.29069 13.1039 9.07085 14.5555 10.4935C13.9911 11.3747 13.5634 12.3348 13.3024 13.3498L15.5213 13.9207C15.8711 12.5619 16.6021 11.3222 17.6338 10.3233C19.06 9.00976 20.8846 8.29099 22.8344 8.29099C23.107 8.29099 23.3854 8.30738 23.6676 8.34016C23.7004 8.62236 23.7167 8.90069 23.7167 9.17336C23.7167 11.3213 22.8472 13.3185 21.2681 14.7971L20.0642 15.9999L21.2681 17.2026C22.8472 18.6815 23.7167 20.6787 23.7167 22.8266Z" fill="#0050FF"/>
</svg>
