<svg height="32" viewBox="0 0 32 32" width="32" xmlns="http://www.w3.org/2000/svg"><g fill="none" fill-rule="evenodd"><circle cx="16" cy="16" fill="#374851" r="16"/><path d="m17.7 15.4v7.5981394c.2035136-.0492633.4036505-.1071732.6-.1733189v2.9094059c-.7384547.1738154-1.5084884.2657736-2.3.2657736-.579501 0-1.1474891-.0492929-1.7-.1439145v-10.4560855h-3.5v-2.8h10.4v2.8zm1.4 10.1102072v-3.0098907c2.4248137-1.1584721 4.1-3.633764 4.1-6.5003165 0-3.9764502-3.2235498-7.2-7.2-7.2s-7.2 3.2235498-7.2 7.2c0 2.8665525 1.6751863 5.3418444 4.0999996 6.5003163l.0000004 3.0098909c-4.00537532-1.3047439-6.9-5.0694376-6.9-9.5102072 0-5.5228475 4.4771525-10 10-10s10 4.4771525 10 10c0 4.4407696-2.8946247 8.2054633-6.9 9.5102072z" fill="#fff"/></g></svg>