<svg height="32" viewBox="0 0 32 32" width="32" xmlns="http://www.w3.org/2000/svg"><g fill="none" fill-rule="evenodd"><circle cx="16" cy="16" fill="#f58634" r="16"/><g fill="#fff" fill-rule="nonzero" transform="translate(5 9)"><path d="m8.28793103 13.7318182h.00379311c1.18913793-.1442424 2.18893676-.5042424 2.99939656-1.08 1.0747126-.769697 1.612069-1.7475758 1.612069-2.93363638 0-1-.3935345-1.83727273-1.1777587-2.52181818-.7877011-.68363637-1.85387928-1.09787879-3.19853445-1.24272728-.45706896-.05818181-1.10474138-.10181818-1.93732758-.14909091-1.81405173-.11090909-2.99086207-.35818181-3.53612069-.74727272-.19549891-.14100182-.35879776-.31890064-.47982759-.52272728-.1042731-.18768983-.15805232-.39735471-.15646552-.61 0-.56090909.32431035-1.03454545.97672414-1.40727272.65241379-.37272728 1.47646552-.56272728 2.47784483-.56272728.94930874-.00023232 1.89097692.16264561 2.78034483.4809091 3.82629313 1.36363636 7.47905173 6.13181818 9.91327583 9.54545455-1.9837931 1.2054545-4.6844827 1.9481818-7.6601724 1.9481818-.8764801.0006329-1.75163396-.0653312-2.61724137-.1972727zm-4.27862069-1.9418182c-3.49344827-1.2754545-5.02206896-4.42636364-3.29715517-7.48636364.04805956.430882.20707945.84355599.46275862 1.20090909.31956897.44818182.79086207.81363637 1.40724138 1.1009091 2.15448276.93545454 6.11827586.33727272 7.74931033 1.52636363.5493678.4.8240517.91151515.8240517 1.53454546 0 .78303026-.3827873 1.42363636-1.148362 1.92181816-.76557474.4981818-1.7612644.7472727-2.98706899.7472727-1.02969798-.0062039-2.04972578-.1909997-3.01077587-.5454545z"/><path d="m20.9123276 9.87545455v-5.85454546c.6571552.88909091 1.0241379 1.88181818 1.0241379 2.92727273 0 1.04545454-.3669827 2.03727273-1.0241379 2.92727273zm-1.6490517-7.4609091.0047413 7.46181819c-2.3431896-3.32636364-5.8442241-7.51181819-10.14655168-8.90909091-.74300573-.24289308-1.51269187-.40303673-2.29387931-.47727273 1.33200346-.3285315 2.70220982-.49318801 4.07758619-.49 3.3388793 0 6.3344828.93636364 8.3581035 2.41454545z" opacity=".5"/></g></g></svg>