<svg width="32" height="33" viewBox="0 0 32 33" fill="none" xmlns="http://www.w3.org/2000/svg">
<g clip-path="url(#clip0)">
<g opacity="0.98">
<path opacity="0.98" d="M16 32.7835C12.8355 32.7835 9.74207 31.8451 7.11088 30.087C4.4797 28.3289 2.42894 25.83 1.21793 22.9064C0.0069325 19.9828 -0.309921 16.7657 0.307443 13.662C0.924806 10.5583 2.44866 7.70739 4.6863 5.46975C6.92394 3.23211 9.77487 1.70825 12.8786 1.09089C15.9823 0.473526 19.1993 0.79038 22.1229 2.00138C25.0466 3.21238 27.5454 5.26314 29.3035 7.89433C31.0616 10.5255 32 13.619 32 16.7835C32 21.0269 30.3143 25.0966 27.3137 28.0972C24.3131 31.0977 20.2435 32.7835 16 32.7835Z" fill="white"/>
</g>
<path d="M16.7463 18.8583C16.7463 18.8583 14.3397 20.1189 14.4543 22.1015C14.5689 24.084 17.2276 27.098 18.8319 26.502C20.4363 25.9061 24.9057 23.3162 25.364 20.7721C25.8224 18.228 21.376 16.9675 21.376 16.9675L16.7463 18.8583Z" fill="#2844AD"/>
<path d="M22.9576 8.05176C21.4878 6.85551 19.7113 6.09656 17.8309 5.8615C15.9505 5.62645 14.0419 5.92477 12.3228 6.72242L9.72147 10.4354C9.846 10.853 10.0725 11.2329 10.3806 11.541C10.6888 11.8491 11.0687 12.0757 11.4863 12.2002C12.9761 12.693 19.4279 10.2062 19.4279 10.2062L22.9576 8.05176Z" fill="#2844AD"/>
<path d="M6.00842 11.696C6.00842 11.696 8.18579 7.6965 11.0966 6.76826C14.0074 5.84001 13.5948 8.75081 11.0966 9.93117C8.59834 11.1115 7.02835 11.7877 6.00842 11.696Z" fill="#5493F7"/>
<path d="M5.59582 12.9337C5.59582 12.9337 2.24955 22.3193 11.4174 26.5938C11.4174 26.5938 12.1279 22.8464 10.833 20.4742C9.87215 18.5763 8.71199 16.7862 7.37209 15.1339C6.73295 14.4398 6.13961 13.7048 5.59582 12.9337Z" fill="#5493F7"/>
<path d="M25.6735 22.0099C25.6735 22.0099 23.2784 26.5938 19.8175 26.5938C19.7291 26.566 19.6474 26.52 19.5778 26.4588C19.5082 26.3976 19.4521 26.3224 19.4133 26.2383C19.3744 26.1541 19.3536 26.0627 19.3522 25.97C19.3508 25.8773 19.3687 25.7853 19.405 25.7C19.6227 25.0353 21.7886 22.6746 25.6735 22.0099Z" fill="#5493F7"/>
<path d="M23.0378 8.12056C24.3765 9.14257 25.4237 10.4979 26.0747 12.0513C27.1355 14.5962 27.2892 17.4284 26.5102 20.0732C25.9257 21.6202 25.0204 21.2191 23.0722 20.8066C21.124 20.394 13.7095 18.3083 11.7957 15.7643C9.88194 13.2202 11.3603 11.1803 13.8356 9.86245C16.3109 8.54457 21.3991 7.11209 23.0378 8.12056Z" fill="#5493F7"/>
<path d="M12.7353 23.9466L12.5634 19.8439L18.11 19.5116C18.11 19.695 18.11 19.8783 18.11 20.0617C18.11 20.245 18.11 20.4513 18.11 20.6461C18.11 20.8409 18.11 21.0472 18.11 21.242C18.11 21.4368 18.11 21.6317 18.11 21.8265C18.11 22.0213 18.11 22.2276 18.11 22.4224C18.11 22.6172 18.11 22.8235 18.11 23.0183C18.11 23.2131 18.11 23.385 18.11 23.5569C18.11 23.7288 18.11 23.5569 18.11 23.5569L12.7239 23.8778C12.7239 23.8778 12.7697 23.9695 12.7353 23.9466Z" fill="#3C3B6E"/>
<path d="M26.7965 26.0666C26.7965 26.25 26.7965 26.4448 26.7965 26.6281C26.7965 26.8115 26.7965 26.6281 26.7965 26.6281L12.9301 27.4647C12.9301 27.4647 12.9301 27.098 12.9301 26.9146H13.0218L26.7736 26.0895C26.7736 26.0895 26.7622 26.0437 26.7965 26.0666Z" fill="#B12234"/>
<path d="M26.7966 26.0666H26.7393L12.8958 26.9032V26.3073H12.9875L26.7393 25.4822C26.7689 25.4717 26.8013 25.4717 26.8309 25.4822L26.7966 26.0666Z" fill="#FEFEFE"/>
<path d="M26.7277 24.3018V24.8977H26.659L12.9072 25.7343C12.8775 25.7448 12.8452 25.7448 12.8155 25.7343V25.1384H12.9186L26.6704 24.3018C26.6704 24.3018 26.7048 24.3018 26.7277 24.3018Z" fill="#FEFEFE"/>
<path d="M26.7278 24.3018L12.8614 25.1384V24.5539L26.6132 23.7173C26.6132 23.7173 26.6819 23.7173 26.7163 23.7173L26.7278 24.3018Z" fill="#B12234"/>
<path d="M26.7163 23.6944H26.659L12.8041 24.531V23.935L18.2933 23.6142H18.4309L26.6246 23.1214C26.6246 23.1214 26.6819 23.1214 26.7163 23.1214V23.6944Z" fill="#FEFEFE"/>
<path d="M12.8041 25.7229L26.659 24.8863V25.4707L12.8041 26.3073V25.7229Z" fill="#B12234"/>
<path d="M18.2018 20.0617V19.4658L26.5331 18.9615C26.5331 18.9615 26.5331 19.3397 26.5331 19.5231H26.4299L18.2934 20.0617C18.2934 20.0617 18.2247 20.0846 18.2018 20.0617Z" fill="#B12234"/>
<path d="M18.2018 20.0617L19.2102 19.9929L26.5101 19.5574V20.1419L18.2934 20.6576C18.2808 20.6689 18.2645 20.6751 18.2476 20.6751C18.2307 20.6751 18.2144 20.6689 18.2018 20.6576V20.0617Z" fill="#FEFEFE"/>
<path d="M18.2933 23.0183V22.4224H18.385L26.5673 21.9182C26.5673 21.9182 26.6361 21.9182 26.659 21.9182V22.5141L18.4538 23.0068C18.4538 23.0068 18.2933 23.0412 18.2933 23.0183Z" fill="#FEFEFE"/>
<path d="M26.6476 21.9181L18.2933 22.4224V21.8265H18.385L26.5673 21.3337C26.5673 21.3337 26.6361 21.3337 26.659 21.3337L26.6476 21.9181Z" fill="#B12234"/>
<path d="M26.6246 21.3223L24.9515 21.4254L18.2933 21.8265V21.242L26.51 20.7493H26.5903L26.6246 21.3223Z" fill="#FEFEFE"/>
<path d="M18.2933 23.0183L26.6017 22.514V23.0985L18.3163 23.5913L18.2933 23.0183Z" fill="#B12234"/>
<path d="M26.6132 20.7263H26.5559L18.2933 21.242V20.6461L20.8603 20.4971L26.5903 20.1418L26.6132 20.7263Z" fill="#B12234"/>
<path d="M16.7577 22.6516V22.5141C16.7577 22.5141 16.7577 22.5141 16.7577 22.4568C16.722 22.4416 16.6906 22.418 16.666 22.3881H16.7921V22.2505C16.7921 22.2505 16.7921 22.3193 16.7921 22.3537C16.7921 22.3881 16.7921 22.411 16.8723 22.3537H16.964L16.8723 22.4339C16.8692 22.4759 16.8692 22.518 16.8723 22.56L16.7577 22.4912V22.6516Z" fill="#FDFDFD"/>
<path d="M13.8928 22.5599H13.996C13.996 22.5599 13.996 22.5599 14.0532 22.5599C14.0445 22.5222 14.0445 22.483 14.0532 22.4453C14.0532 22.4453 14.0532 22.5255 14.0532 22.5714C14.0532 22.6172 14.0532 22.5714 14.0532 22.5714H14.1908C14.1908 22.5714 14.1908 22.6287 14.0991 22.6401C14.0074 22.6516 14.0991 22.6401 14.0991 22.7318C14.1025 22.7661 14.1025 22.8007 14.0991 22.8349L13.996 22.7662C13.9668 22.7991 13.9319 22.8263 13.8928 22.8464C13.898 22.8045 13.898 22.7622 13.8928 22.7204C13.8928 22.7204 13.8928 22.7203 13.8928 22.663L13.7897 22.5943L13.8928 22.5599Z" fill="#FDFDFD"/>
<path d="M15.5773 21.4712L15.4742 21.4024L15.3711 21.4941C15.3683 21.4483 15.3683 21.4024 15.3711 21.3566L15.2679 21.2764H15.394C15.3907 21.2306 15.3907 21.1846 15.394 21.1389V21.242C15.394 21.242 15.394 21.242 15.4627 21.242H15.5659L15.4742 21.3222C15.4701 21.3312 15.4679 21.341 15.4679 21.3509C15.4679 21.3607 15.4701 21.3705 15.4742 21.3795C15.5135 21.4041 15.5483 21.4351 15.5773 21.4712Z" fill="#FDFDFD"/>
<path d="M16.9985 19.8897L16.9183 19.947C16.9112 19.9523 16.9054 19.9593 16.9014 19.9672C16.8974 19.9752 16.8954 19.9839 16.8954 19.9928C16.8954 20.0017 16.8974 20.0105 16.9014 20.0185C16.9054 20.0264 16.9112 20.0333 16.9183 20.0387V20.1418L16.8037 20.0731L16.7006 20.1647V20.0272L16.5974 19.947H16.712C16.712 19.947 16.712 19.947 16.7693 19.947C16.764 19.909 16.764 19.8704 16.7693 19.8324C16.7693 19.8324 16.7693 19.8324 16.7693 19.9012C16.7693 19.9699 16.7693 19.9814 16.8724 19.9699H16.9527L16.9985 19.8897Z" fill="#FDFDFD"/>
<path d="M13.3772 21.3452H13.5033V21.2191C13.508 21.261 13.508 21.3033 13.5033 21.3452H13.6294C13.604 21.3743 13.5727 21.3977 13.5377 21.4139V21.4942V21.6088L13.4345 21.54C13.4345 21.54 13.4345 21.54 13.3772 21.54L13.2741 21.6202C13.2675 21.5823 13.2675 21.5435 13.2741 21.5056C13.2741 21.5056 13.2741 21.4483 13.2741 21.4254H13.1939L13.3772 21.3452Z" fill="#FDFDFD"/>
<path d="M16.5744 21.1618L16.4713 21.242C16.4796 21.2836 16.4796 21.3265 16.4713 21.3681L16.3681 21.2993C16.3681 21.2993 16.3681 21.2993 16.3108 21.2993C16.2819 21.3354 16.247 21.3664 16.2077 21.391C16.2077 21.3337 16.2077 21.2878 16.2077 21.2535C16.2077 21.2191 16.2077 21.2535 16.2077 21.2535C16.1721 21.2331 16.141 21.2058 16.116 21.1732H16.2306C16.2262 21.1313 16.2262 21.0891 16.2306 21.0472V21.1389C16.2306 21.2076 16.2306 21.2076 16.3108 21.1962H16.4025L16.5744 21.1618Z" fill="#FDFDFD"/>
<path d="M17.8005 22.1588C17.8035 22.2008 17.8035 22.2429 17.8005 22.2849H17.9266L17.8349 22.3536C17.8349 22.3536 17.8349 22.3536 17.8349 22.4224C17.8464 22.4597 17.8464 22.4997 17.8349 22.537L17.7317 22.4682C17.705 22.5036 17.6694 22.5312 17.6286 22.5484V22.4339C17.6286 22.4339 17.6286 22.4338 17.6286 22.3651C17.593 22.3499 17.5615 22.3263 17.5369 22.2963H17.663L17.8005 22.1588Z" fill="#FDFDFE"/>
<path d="M14.8554 22.5026H14.97C14.9649 22.4608 14.9649 22.4184 14.97 22.3766V22.4912H15.0388H15.1419L15.0502 22.5714C15.0502 22.5714 15.0502 22.5714 15.0502 22.6287C15.0531 22.6707 15.0531 22.7128 15.0502 22.7548L14.9471 22.686L14.844 22.7777V22.6402C14.8481 22.6312 14.8502 22.6214 14.8502 22.6115C14.8502 22.6016 14.8481 22.5919 14.844 22.5829H14.7523L14.8554 22.5026Z" fill="#FDFDFE"/>
<path d="M13.0678 19.9586C13.0659 19.9967 13.0659 20.035 13.0678 20.0732H13.1824L13.1022 20.1419C13.1022 20.1419 13.1022 20.1419 13.1022 20.2221C13.1041 20.2603 13.1041 20.2986 13.1022 20.3367L12.9876 20.2565L12.8844 20.3253V20.2107L12.7698 20.1419H12.8959C12.8959 20.1419 12.8959 20.1419 12.9532 20.1419C12.9803 20.0745 13.0191 20.0125 13.0678 19.9586Z" fill="#FDFDFD"/>
<path d="M15.0617 20.2565L14.9586 20.1877L14.8554 20.2794C14.8527 20.2336 14.8527 20.1877 14.8554 20.1419L14.7523 20.0617H14.8554V19.9471C14.8602 19.989 14.8602 20.0313 14.8554 20.0731H14.9815L14.8783 20.1534C14.8783 20.1534 14.8783 20.1534 14.8783 20.2107C14.9426 20.2079 15.0063 20.2238 15.0617 20.2565Z" fill="#FDFDFD"/>
<path d="M15.8524 19.7866C15.8555 19.8286 15.8555 19.8707 15.8524 19.9127H15.9785L15.8753 20.0044C15.8753 20.0044 15.8753 20.0846 15.8753 20.1304L15.7837 20.0617C15.7837 20.0617 15.7264 20.0617 15.7034 20.0617L15.6232 20.1304C15.6168 20.0925 15.6168 20.0537 15.6232 20.0158V19.9471L15.5201 19.8783H15.6576L15.8524 19.7866Z" fill="#FDFDFD"/>
<path d="M17.6515 19.8897C17.6425 19.8482 17.6425 19.8052 17.6515 19.7637C17.6451 19.8054 17.6451 19.848 17.6515 19.8897Z" fill="#FDFDFD"/>
<path d="M15.8294 22.686V22.5714L15.7148 22.4912H15.8409V22.3651C15.8409 22.3651 15.8409 22.4568 15.8409 22.4912C15.8409 22.5256 15.8409 22.4912 15.8409 22.4912H15.9784L15.8753 22.5828C15.8722 22.6248 15.8722 22.6669 15.8753 22.7089L15.7607 22.6401L15.669 22.7204L15.8294 22.686Z" fill="#FDFDFD"/>
<path d="M14.5003 21.116C14.5003 21.2191 14.5003 21.2191 14.6492 21.2191L14.5576 21.2993C14.564 21.3411 14.564 21.3836 14.5576 21.4254L14.4544 21.3566C14.4544 21.3566 14.4544 21.3566 14.3971 21.3566L14.3054 21.4368C14.299 21.3951 14.299 21.3526 14.3054 21.3108L14.2023 21.2306H14.3169L14.5003 21.116Z" fill="#FDFDFD"/>
<path d="M12.976 23.4423H13.1135V23.3048C13.1116 23.343 13.1116 23.3812 13.1135 23.4194H13.2396L13.1365 23.5111C13.1334 23.5531 13.1334 23.5952 13.1365 23.6371L13.0219 23.5684L12.9187 23.6486V23.5225L12.976 23.4423Z" fill="#FDFDFE"/>
<path d="M15.8639 23.5225C15.8639 23.5225 15.8639 23.4423 15.8639 23.4079C15.8639 23.3736 15.8639 23.4079 15.8639 23.4079L15.7493 23.3277H15.8868L16.0014 23.1558C16.0061 23.1977 16.0061 23.24 16.0014 23.2819C16.0388 23.2704 16.0787 23.2704 16.116 23.2819L16.0129 23.3621C16.0176 23.404 16.0176 23.4463 16.0129 23.4882L16.0014 23.4423C16.0014 23.4423 16.0014 23.4423 15.9441 23.4423L15.8524 23.5111L15.8639 23.5225Z" fill="#FDFDFE"/>
<path d="M17.8351 22.9839C17.8351 22.9839 17.8351 23.0756 17.8351 23.1214C17.8351 23.1672 17.8351 23.1214 17.8351 23.1214H17.9726L17.8694 23.2131C17.8694 23.2131 17.8694 23.2131 17.8694 23.2704V23.3964L17.7548 23.3162L17.6517 23.4079V23.2704L17.6288 23.1558H17.7548C17.7747 23.0955 17.8016 23.0378 17.8351 22.9839Z" fill="#FDFDFE"/>
<path d="M14.248 20.8639C14.2087 20.8885 14.1739 20.9194 14.1449 20.9556C14.1496 20.9975 14.1496 21.0397 14.1449 21.0816L14.0303 21.0129L13.9157 21.1046C13.9196 21.0588 13.9196 21.0128 13.9157 20.967L13.8011 20.8868C13.8429 20.8812 13.8853 20.8812 13.9271 20.8868C13.9271 20.8868 13.9271 20.8868 13.9844 20.8295C13.9791 20.7953 13.9791 20.7605 13.9844 20.7264C13.9937 20.764 13.9937 20.8033 13.9844 20.841L14.248 20.8639Z" fill="#FEFEFE"/>
<path d="M16.9641 20.9785L16.8495 20.8982L16.7464 20.9899V20.8524L16.6318 20.7722H16.7235C16.7922 20.7722 16.7922 20.7722 16.8151 20.692V20.6003V20.7378H16.9412L16.8381 20.8295L16.9641 20.9785Z" fill="#FEFEFE"/>
<path d="M13.7095 22.4109V22.3422C13.7095 22.3422 13.7095 22.3422 13.6407 22.3422L13.5491 22.4224C13.5491 22.3651 13.5491 22.3307 13.5491 22.2849C13.5491 22.239 13.5491 22.2849 13.5491 22.2849L13.4459 22.2047H13.572C13.5617 22.1594 13.5617 22.1124 13.572 22.0671C13.572 22.0671 13.572 22.1588 13.572 22.1932H13.7095L13.5949 22.2849C13.6357 22.3244 13.674 22.3665 13.7095 22.4109Z" fill="#FEFEFE"/>
<path d="M16.1847 22.0099H16.3222V21.8724C16.3252 21.9143 16.3252 21.9565 16.3222 21.9984H16.4482L16.3451 22.0901C16.3418 22.1359 16.3418 22.1819 16.3451 22.2276L16.2419 22.1474C16.2419 22.1474 16.242 22.1474 16.1847 22.1474L16.0815 22.2276V22.1016C16.0815 22.1016 16.0815 22.1016 16.0815 22.0443L16.1847 22.0099Z" fill="#FEFEFE"/>
<path d="M14.7409 20.8638H14.8555C14.8555 20.8638 14.9128 20.8638 14.9242 20.8065V20.6919C14.9242 20.6919 14.9242 20.7836 14.9242 20.8294C14.9242 20.8753 14.9242 20.8294 14.9242 20.8294H15.0618L14.9586 20.9211C14.9633 20.963 14.9633 21.0053 14.9586 21.0471L14.8555 20.9784C14.8265 21.0145 14.7916 21.0455 14.7523 21.0701C14.7523 21.0128 14.7523 20.9784 14.7523 20.9325C14.7523 20.8867 14.7523 20.9325 14.7523 20.9325L14.7409 20.8638Z" fill="#FEFEFE"/>
<path d="M13.9043 23.385H14.0189C14.0189 23.385 14.0761 23.385 14.0876 23.3277C14.0833 23.2897 14.0833 23.2512 14.0876 23.2131C14.0907 23.2551 14.0907 23.2972 14.0876 23.3392H14.2137L14.1105 23.4309C14.1075 23.4728 14.1075 23.515 14.1105 23.5569L13.9959 23.4882L13.8928 23.5799V23.4538C13.8928 23.4538 13.8928 23.4538 13.8928 23.385H13.9043Z" fill="#FDFDFE"/>
<path d="M17.0443 23.4653L16.9411 23.3851L16.8265 23.4767C16.8265 23.4767 16.8265 23.3851 16.8265 23.3507C16.8265 23.3163 16.8265 23.3507 16.8265 23.2934L16.7119 23.2132H16.8495C16.8393 23.1718 16.8393 23.1285 16.8495 23.0871V23.1673C16.8495 23.2361 16.8495 23.2361 16.9526 23.2361H17.1474L17.0443 23.3278C17.0443 23.3278 17.0443 23.3278 17.0443 23.3851C17.0454 23.4118 17.0454 23.4385 17.0443 23.4653Z" fill="#FDFDFE"/>
<path d="M14.3283 22.113H14.4428C14.4428 22.113 14.4428 22.113 14.4428 22.0557V21.9411C14.4428 21.9411 14.4428 22.0328 14.4428 22.0786C14.4428 22.1245 14.4428 22.0786 14.4428 22.0786H14.5804L14.4772 22.1703C14.4742 22.2123 14.4742 22.2544 14.4772 22.2964L14.3626 22.2276C14.3305 22.2571 14.296 22.2839 14.2595 22.3078V22.1818L14.3283 22.113Z" fill="#FEFEFE"/>
<path d="M15.2565 22.0099H15.394C15.394 22.0099 15.394 21.9297 15.394 21.8724V21.9984H15.5201L15.417 22.0901V22.2047L15.3138 22.1474H15.2451L15.1534 22.2276C15.1534 22.1703 15.1534 22.136 15.1534 22.0901C15.1534 22.0443 15.1534 22.0901 15.1534 22.0901L15.2565 22.0099Z" fill="#FEFEFE"/>
<path d="M17.4683 22.1933L17.3651 22.113C17.3651 22.113 17.3651 22.113 17.3078 22.113L17.2047 22.1933C17.2018 22.1513 17.2018 22.1092 17.2047 22.0672L17.1474 22.0099H17.2849C17.2849 22.0099 17.2849 21.9297 17.2849 21.8724V21.9755C17.2849 21.9755 17.2849 22.0443 17.3537 22.0328H17.4568L17.3651 22.113C17.3651 22.113 17.3651 22.113 17.3651 22.1818L17.4683 22.1933Z" fill="#FEFEFE"/>
<path d="M16.1046 20.7607L16.0015 20.8638V21.0013L15.8983 20.9211H15.8296L15.7379 21.0013C15.7313 20.9596 15.7313 20.917 15.7379 20.8753C15.7379 20.8753 15.7379 20.8753 15.7379 20.818L15.6348 20.7492H15.7494V20.6232C15.7494 20.6232 15.7494 20.7148 15.7494 20.7492L16.1046 20.7607Z" fill="#FEFEFE"/>
<path d="M12.9876 21.2076C12.9822 21.1657 12.9822 21.1234 12.9876 21.0815L12.873 21.0013H12.9761C13.0334 21.0013 13.0334 21.0013 13.0563 20.9211C13.0533 20.8906 13.0533 20.8599 13.0563 20.8294V20.9555H13.1938L13.0792 21.0471C13.0857 21.0889 13.0857 21.1314 13.0792 21.1732L12.9761 21.1044C12.9761 21.1044 12.9761 21.1044 12.9188 21.1044C12.9484 21.1338 12.9718 21.1689 12.9876 21.2076Z" fill="#FEFEFE"/>
<path d="M15.7035 22.8693C15.7035 22.8693 15.6003 22.9266 15.5889 22.9724C15.5854 23.022 15.5854 23.0718 15.5889 23.1214L15.4857 23.0412C15.4857 23.0412 15.4857 23.0412 15.4284 23.0412L15.3253 23.1214C15.3253 23.1214 15.3253 23.0297 15.3253 22.9839C15.3253 22.938 15.3253 22.9839 15.3253 22.9839L15.2221 22.9151H15.3482V22.7891C15.3528 22.8271 15.3528 22.8656 15.3482 22.9037C15.3482 22.9037 15.3482 22.9037 15.4055 22.9037L15.7035 22.8693Z" fill="#FEFEFE"/>
<path d="M13.847 21.7348H13.973V21.5973C13.9763 21.6431 13.9763 21.689 13.973 21.7348H14.1106L14.0074 21.8265C14.0041 21.8723 14.0041 21.9182 14.0074 21.964L13.9043 21.8838C13.9043 21.8838 13.9043 21.8838 13.847 21.8838L13.9387 22.0098V21.8723L13.847 21.7348Z" fill="#FEFEFE"/>
<path d="M14.6836 20.4398L14.5919 20.5201C14.5919 20.5201 14.5919 20.52 14.5919 20.5773V20.7034L14.4773 20.6232L14.3856 20.7034V20.5659L14.2825 20.4971H14.4085C14.4085 20.4971 14.4085 20.4169 14.4085 20.3596C14.4085 20.3023 14.4085 20.4513 14.4085 20.4971C14.4085 20.543 14.4085 20.4971 14.4085 20.4971H14.5346L14.6836 20.4398Z" fill="#FEFEFE"/>
<path d="M17.4683 20.2794L17.3881 20.3482C17.3881 20.3482 17.3881 20.3482 17.3881 20.4169C17.3945 20.4548 17.3945 20.4936 17.3881 20.5315L17.285 20.4628C17.285 20.4628 17.285 20.4628 17.2277 20.4628L17.1245 20.5544C17.1218 20.5086 17.1218 20.4627 17.1245 20.4169V20.3596L17.0329 20.2909H17.1475V20.1648C17.1522 20.2067 17.1522 20.249 17.1475 20.2909H17.2621L17.4683 20.2794Z" fill="#FEFEFE"/>
<path d="M13.0105 22.0098C13.0105 21.9525 13.0105 21.9182 13.0105 21.8723C13.0105 21.8265 13.0105 21.8723 13.0105 21.8723L12.9073 21.8036H13.0334C13.0334 21.8036 13.0334 21.7234 13.0334 21.6661C13.0334 21.6088 13.0334 21.7577 13.0334 21.7921C13.0334 21.8265 13.0334 21.7921 13.0334 21.7921H13.148C13.148 21.7921 13.148 21.7921 13.0907 21.8609C13.0334 21.9296 13.0907 21.8609 13.0907 21.9755V22.0671L12.9761 21.9869L13.0105 22.0098Z" fill="#FEFEFE"/>
<path d="M15.7951 21.8723V21.7463C15.7951 21.7463 15.7951 21.7463 15.7951 21.689C15.7559 21.6742 15.7207 21.6507 15.692 21.6202H15.8066C15.8094 21.5782 15.8094 21.5361 15.8066 21.4941V21.6317H15.9441L15.8295 21.7233C15.8295 21.7233 15.8295 21.8036 15.8295 21.8609L16.0014 21.7806L15.7951 21.8723Z" fill="#FEFEFE"/>
<path d="M17.1474 22.7776H17.2505V22.663C17.2505 22.663 17.2505 22.7432 17.2505 22.7891C17.2505 22.8349 17.2505 22.7891 17.2505 22.7891H17.3651C17.3477 22.821 17.3192 22.8455 17.2849 22.8578C17.2849 22.8578 17.2849 22.8578 17.2849 22.9381C17.2868 22.9762 17.2868 23.0145 17.2849 23.0527L17.1932 22.9954C17.1932 22.9954 17.1359 22.9954 17.1016 22.9954L17.0213 23.0641C17.0147 23.0262 17.0147 22.9874 17.0213 22.9495V22.8808L17.1474 22.7891V22.7776Z" fill="#FEFEFE"/>
<path d="M16.6317 22.8121L16.5401 22.8923C16.5401 22.8923 16.5401 22.8923 16.5401 22.9496C16.537 22.9915 16.537 23.0337 16.5401 23.0756L16.4369 23.0069C16.4369 23.0069 16.4369 23.0069 16.3682 23.0069L16.2765 23.0871V22.9496C16.2387 22.9321 16.2039 22.9089 16.1733 22.8808H16.2994C16.2956 22.8389 16.2956 22.7967 16.2994 22.7548C16.3044 22.7928 16.3044 22.8313 16.2994 22.8694H16.3682L16.6317 22.8121Z" fill="#FEFEFE"/>
<path d="M14.7868 22.9152L14.6836 23.0069C14.6836 23.0069 14.6836 23.0069 14.6836 23.0642C14.692 23.1058 14.692 23.1486 14.6836 23.1902L14.6149 23.1559C14.6149 23.1559 14.6149 23.1559 14.5461 23.1559L14.443 23.2361V23.11C14.443 23.11 14.443 23.11 14.443 23.0527L14.3284 22.984H14.4544C14.4573 22.942 14.4573 22.8999 14.4544 22.8579C14.4592 22.8998 14.4592 22.9421 14.4544 22.984C14.4544 22.984 14.4544 22.984 14.5117 22.984L14.7868 22.9152Z" fill="#FEFEFE"/>
<path d="M13.6293 22.8235C13.6326 22.8693 13.6326 22.9152 13.6293 22.961H13.7554L13.6523 23.0527C13.6556 23.0985 13.6556 23.1444 13.6523 23.1902L13.7096 23.1558C13.6806 23.192 13.6457 23.2229 13.6064 23.2475C13.6064 23.1902 13.6064 23.1558 13.6064 23.11C13.6064 23.0641 13.6064 23.11 13.6064 23.11L13.4918 23.0412H13.6293C13.6293 23.0412 13.6179 22.8808 13.6293 22.8235Z" fill="#FEFEFE"/>
<path d="M15.3368 20.4055C15.333 20.3635 15.333 20.3214 15.3368 20.2794C15.3415 20.3213 15.3415 20.3636 15.3368 20.4055Z" fill="#FEFEFE"/>
<path d="M16.3336 20.1648C16.3369 20.2106 16.3369 20.2565 16.3336 20.3023H16.4597L16.368 20.3825C16.368 20.3825 16.368 20.4628 16.368 20.5086L16.2649 20.4398L16.1617 20.5201C16.1551 20.4821 16.1551 20.4434 16.1617 20.4055C16.1617 20.4055 16.1617 20.3482 16.1617 20.3252L16.0815 20.2679H16.1961C16.1961 20.2679 16.3222 20.2221 16.3336 20.1648Z" fill="#FEFEFE"/>
<path d="M14.7867 21.6776H14.9128V21.54C14.9128 21.54 14.9128 21.5973 14.9128 21.6317C14.9139 21.6421 14.9174 21.652 14.9229 21.6608C14.9284 21.6697 14.9359 21.6771 14.9447 21.6826C14.9535 21.6882 14.9635 21.6916 14.9739 21.6927C14.9842 21.6938 14.9947 21.6925 15.0045 21.689C15.0045 21.689 15.0045 21.689 15.0847 21.689L14.993 21.7692C14.9965 21.8112 14.9965 21.8533 14.993 21.8953L14.8784 21.8151L14.7753 21.9068V21.7692L14.7867 21.6776Z" fill="#FEFEFE"/>
<path d="M17.9841 21.4942L17.8924 21.5629C17.8924 21.5629 17.8924 21.5629 17.8924 21.6202V21.7463L17.7892 21.6775L17.6976 21.7578C17.6909 21.716 17.6909 21.6734 17.6976 21.6317C17.7017 21.6227 17.7038 21.6129 17.7038 21.603C17.7038 21.5932 17.7017 21.5834 17.6976 21.5744C17.6584 21.5596 17.6231 21.5361 17.5944 21.5056H17.7205C17.7115 21.4641 17.7115 21.4211 17.7205 21.3796V21.4942C17.7205 21.4942 17.7205 21.4942 17.7778 21.4942H17.8924H17.9841Z" fill="#FEFEFE"/>
</g>
<defs>
<clipPath id="clip0">
<rect width="32" height="32" fill="white" transform="translate(0 0.783447)"/>
</clipPath>
</defs>
</svg>
