<svg height="32" viewBox="0 0 32 32" width="32" xmlns="http://www.w3.org/2000/svg"><g fill="none"><circle cx="16" cy="16" fill="#338be5" r="16"/><path d="m22.6308579 16.917768c.7282468.1957905 1.448491.4229075 2.0967107.8223201.288823.177321.5571482.384766.8002713.618698.3601221.3994126.336114.8223201.0080028 1.2452276-.2880977.3680862-.6802306.6030348-1.0963717.7988253-1.0563581.5090553-2.1767379.7988252-3.3211259.9711209-.9283147.1409691-1.8726348.2192853-2.8089522.3367596-.0894978.019243-.1673486.0728557-.2160732.1488008-.6562225.9789525-1.3044422 1.9579051-1.9606647 2.9368576-.0527843.0645221-.1009169.1325605-.1440488.2036221-.1440489-.2192854-.280095-.4229075-.4161411-.6265296-.5521872-.8301518-1.0963717-1.6681351-1.6405562-2.5061185-.0571059-.0994088-.1635916-.1619343-.2800949-.164464-1.8726348-.1331375-3.7212615-.3759178-5.48986105-1.010279-.56018991-.1957905-1.09637167-.4385707-1.56052902-.8066569-.02400814-.0234948-.05601899-.0391581-.08002713-.0626529-.68023059-.5717083-.69623602-1.1825747-.04001356-1.7699462.52017634-.4698972 1.16039337-.7361723 1.82461854-.9397944s1.33645305-.3524229 2.00868092-.5247186c.0320109-.0078316.0640217-.0078316.1200407-.0234948-1.44849102-2.2163485-2.88097663-4.4092022-4.34547309-6.6333823.08802984-.00783162.15205154-.01566324.20807053-.01566324.90430656-.00783162 1.80861312 0 2.71291967-.00783162.13171089-.00735441.25494719.06376961.31210581.18012726 2.19007578 3.3388807 4.37748398 6.680372 6.56222458 10.0244738.0320428.0556579.0695672.1081181.112038.1566324.5041709-.7596671.9923364-1.4880078 1.4724991-2.2163485 1.7605969-2.6601403 3.5211937-5.3176701 5.2817906-7.9725893.0640217-.09397946.1120379-.16446404.2560868-.16446404.9523228.00783162 1.9046456.00783162 2.8569685.00783162.0454746-.00029093.09092.00232518.1360461.00783162-1.4885046 2.247675-2.9690065 4.4718551-4.4655138 6.7195301.3761275.0939794.7362496.1722956 1.0963717.2662751zm-13.73265537 1.8795888c.18557601.2081406.40450704.3853601.64821975.5247186 1.00033912.5325502 2.10471352.7283407 3.24910142.9006363-.0160054-.0548213-.0160054-.0783162-.0240081-.0939794-.6482198-.9789526-1.2884368-1.9657367-1.9366565-2.9446892-.052308-.0514843-.1269353-.0748544-.2000679-.062653-.3805345.1243986-.75215395.2735313-1.11237706.4464024-.23480906.1290569-.44362256.2989055-.61620889.5012237-.2024622.2011357-.20599861.522991-.00800272.7283406zm12.60427287.845815c.4379011-.1186095.8374173-.3451053 1.1603933-.6578561.3201085-.3210964.3201085-.6813509 0-1.010279-.0794848-.0854838-.1711204-.1593351-.2720922-.2192854-.3441167-.1722956-.7042388-.3367596-1.0563581-.5090553-.1200407-.0626529-.1920651-.0156632-.2640895.0939795-.3761276.5795399-.7602578 1.1512481-1.144388 1.7229564-.2400814.3602545-.4801628.7283407-.7282469 1.1042585.0637588.0080311.1283064.0080311.1920651 0 .7042388-.1722957 1.4164802-.3289281 2.1127163-.5247186zm.0080027-10.6431718-5.4818584 8.7322565-5.5538827-8.7322565z" fill="#fff"/></g></svg>