<svg height="32" viewBox="0 0 32 32" width="32" xmlns="http://www.w3.org/2000/svg"><g fill="none" fill-rule="evenodd"><circle cx="16" cy="16" fill="#408af1" r="16"/><path d="m23.048789 10.276775c.4597121-.76587524 1.4404233-1.00620988 2.1904798-.53680251.7500566.46940741.9854273 1.47080171.5257152 2.23667691-1.7039022 2.838682-3.6266649 5.8083754-5.2299764 8.0763103-2.3406057 3.3108609-2.847422 4.4470403-4.535025 4.4470403s-2.0678346-1.0027463-4.4748469-4.4558611c-1.4295633-2.0508605-3.22309026-4.7951674-5.27055472-8.0356677-.47692377-.7548222-.26428106-1.7615034.47495078-2.24848551.73923185-.48698206 1.72512076-.26985473 2.20204453.48496751 2.02343181 3.202464 6.59365841 9.8762725 7.08144381 10.4715026.5090843-.6045374 5.3720079-7.6678736 7.0357689-10.4396808z" fill="#fff" fill-rule="nonzero"/></g></svg>