<svg height="32" viewBox="0 0 32 32" width="32" xmlns="http://www.w3.org/2000/svg"><g fill="none" fill-rule="nonzero"><circle cx="16" cy="16" fill="#ffb500" r="16"/><g fill="#fff" transform="translate(4 4)"><path d="m23.897561 10.5268293c-.2829269-2.3170732-1.2634147-4.54146345-2.7804878-6.31219515-1.0585366-1.25365854-2.3902439-2.27317074-3.8634147-2.99024391-1.9756097-.9707317-4.2195122-1.3707317-6.4097561-1.15609756-2.56585362.24390244-5.0439024 1.34146342-6.94146338 3.09268293-1.11219512 1.0097561-2.02439024 2.24390244-2.68292682 3.59512195-1.06829269 2.18536585-1.44390244 4.70243904-1.06341464 7.10243904.35609756 2.297561 1.4 4.4829268 2.97073171 6.2 2.24390244 2.502439 5.5902439 3.9658536 8.95121953 3.9268293 2.604878-.0097561 5.1951219-.9024391 7.2536585-2.5024391 1.4585366-1.1219512 2.6439025-2.5853658 3.4487805-4.2390244 1.0097561-2.0634146 1.4048781-4.4292683 1.1170732-6.7170731zm-3.6536586-2.59024393c-.0536585.07804878-.102439.15609756-.1414634.24390243-1.7609756 3.7073171-3.5170731 7.4097561-5.2780488 11.1170732-.2536585.5317073-.507317 1.0682927-.7951219 1.5804878-1.3073171-.0097561-2.6146342-.0048781-3.9219512-.0048781-2.08292686-4.2878048-4.15609759-8.5804878-6.24390247-12.8634146-.04390243-.08292683-.08780487-.17073171-.13170731-.25365854.03414634-.02439024.11219512-.06829268.14634146-.08780488.81463415-1.01463414 1.63902439-2.02439024 2.45853659-3.03902439.10243902-.13170731.21951219-.25853658.33658536-.37560975.05365854.08780487.10731707.17560975.15121951.27317073.45365854 1.04390244.91707317 2.09268293 1.38048781 3.13658536.46829268 0 .93658536.0097561 1.4097561-.01951219.1707317.16097561.26341463.37560976.33170731.59512195.08780484-.22439024.12195124-.46341463.13170734-.70731707.1512195-1.4.1756097-2.81463415.3268292-4.21463415.0243903-.30243902.4780488-.30243902.5170732-.0097561.1463415 1.32682927.1804878 2.66829269.2878049 4 .0195122.4.0341463.8.1219512 1.19024391.2-.26341464.1365854-.72682927.502439-.83414635.3024391-.10243902.6439025.06829269.9317074-.11219512.3951219-.23902439.5414634-.70731707.7902439-1.07317073.1414634-.23902439.4682926-.4097561.7317073-.27317073.2634146.10243902.3756097.38536585.5121951.6097561.1560976.25853658.297561.54634146.5512195.71707317.2243903.09756097.4780488.11219512.7219512.10731707.492683-1.11219512 1-2.21951219 1.5024391-3.32682927.8780487 1.10243903 1.707317 2.23902439 2.5853658 3.34146342.1317073.05853658.1560976.15609756.0829268.28292683z"/><path d="m14.0731707 6.54146341c-.3951219.4292683-.5365853 1.12195122-1.1268292 1.34146342-.3024391.14634146-.6682927.02439024-.9707317.13658537-.2634147.51707317-.2292683 1.12682926-.4292683 1.66341463-.1365854.25365854-.5463415.12682927-.5463415-.15121951-.1707317-1.45853659-.1853659-2.93170732-.3414634-4.39024391-.1658537 1.31219513-.2097561 2.63902439-.4146342 3.94146342 0 .33658537-.53170728.3902439-.58048777.05365854-.10243902-.38048781-.12682926-.78048781-.31707317-1.13658537-.33170731-.00487805-.66341463-.00487805-.9902439 0 1.24390244 2.8195122 2.47804874 5.6390244 3.72195124 8.4585366 1.2585366-2.8195122 2.5609756-5.6195122 3.8097561-8.44390245l.004878-.0097561c-.3268292-.03902439-.6829268-.07317073-.9560975-.27804878-.3804878-.31707317-.5268293-.82439025-.8634147-1.18536586z"/></g></g></svg>