<svg xmlns="http://www.w3.org/2000/svg" viewBox="0 0 32 32"><g fill="none" fill-rule="evenodd"><circle cx="16" cy="16" fill="#399b32" r="16"/><path d="M21.89 7.468c-.108.434-.089.99.031 1.04.12.051.422-.236.599-.562.17-.3.321-.389.53-.312.277.108.233.204-.335.695-.472.409-.567.556-.44.683.075.077.131.064.402-.083.34-.178.53-.166.53.039 0 .095-.126.172-.586.35-.328.128-.65.294-.725.377-.151.166-.416.69-.731 1.462-.271.67-.53 1.162-.7 1.353-.139.153-.605.25-1.588.326-.46.038-.517.032-.542-.077a9.679 9.679 0 01-.17-.9c0-.019.233-.013.523.007.517.038 1.033.178 1.273.344.183.128.202.109.284-.249.1-.408.315-.944.642-1.608.246-.492.253-.53.227-.996-.031-.517-.12-.74-.428-1.079-.114-.12-.183-.255-.164-.306a.76.76 0 00.038-.121c0-.013.056-.026.12-.026.075 0 .207.115.327.287.334.473.435.383.435-.402 0-.357.025-.51.107-.6.126-.14.227-.146.334-.019.063.077.063.16.007.377zm-5.011 2.674c.044.473.132.638.416.74.113.045.27.11.346.135.183.076.234.35.429 2.138.208 1.94.252 2.215.448 2.815.296.912.27 1.972-.076 3.038-.177.549-.372.798-.775 1.015-.807.427-1.64.115-2.288-.856-.482-.7-.66-1.57-.492-2.406.095-.447.145-1.123.1-1.29-.018-.082-.22-.337-.447-.58-.706-.734-1.45-2.049-1.304-2.285.044-.064.075-.262.075-.434 0-.351-.1-.492-.542-.74-.29-.166-.309-.332-.069-.792.132-.268.208-.325.87-.664.674-.344.977-.44 1.979-.619.416-.077.718-.07.945.026.265.115.34.261.385.76zm-5.963 2.381c0 .325.107.645.183.562.032-.032.1-.211.164-.396.1-.32.284-.51.41-.428.107.07.069.44-.07.67-.189.313-.189.907.007 1.303.195.383.598.804.775.804.107-.007.233-.16.58-.753l.44-.747.07.447c.07.504.038.657-.246 1.149-.315.555-.668.989-.8.989-.151 0-.492-.338-.782-.772-.113-.18-.428-.524-.693-.773l-.485-.453-.296.051a3.48 3.48 0 01-.549.058c-.227.006-.252-.007-.27-.166-.02-.14.012-.185.144-.217a1.38 1.38 0 01.435-.007c.176.026.309.013.378-.038.107-.077.101-.09-.006-.217-.063-.077-.252-.179-.429-.236-.44-.14-.725-.332-.725-.479 0-.191.24-.236.435-.077.65.537.832.613 1.003.44.12-.12.088-.35-.114-.752-.176-.358-.24-.69-.145-.785.063-.07.227-.051.34.038.133.108.246.46.246.785zm11.528 5.75c-.157.167-.611.697-1.008 1.175-1.173 1.417-1.292 1.57-1.242 1.622.05.05 1.046-.39 1.273-.562.284-.224.8-.772.895-.958.044-.076.107-.312.152-.517.075-.383.283-.676.472-.676.126 0 .183.147.133.338a3.823 3.823 0 01-.315.62c-.158.261-.265.497-.253.523.063.095.297.05.568-.109.157-.09.384-.325.554-.568.334-.472.561-.676.763-.676.17 0 .372.217.328.344-.02.051-.31.3-.637.55-.567.427-.744.65-.643.816.057.096.58-.032 1.135-.28.945-.428 1.204-.454 1.355-.167.126.237-.183.383-1.393.651-.334.077-.7.198-.813.268l-.208.128.145.121c.126.103.258.122.882.122.561 0 .77.025.864.095.12.096.113.103-.063.262-.114.096-.22.147-.284.121-.277-.115-1.216-.287-1.557-.287-.611 0-.662.224-.107.44.252.103.347.218.296.352-.056.153-.208.127-.756-.128-1.11-.517-1.311-.543-2.64-.37-.631.083-.814.09-.883.025-.139-.115-.114-.223.082-.395.157-.134 1.374-2.4 1.317-2.451-.032-.032-1.26.408-2.15.778-.113.045-.113.039 0-.14.417-.683 1.62-1.45 3.02-1.928.725-.249.769-.255 1.071-.249.202.013.259.039.271.14.02.16-.233.556-.624.97zM7.992 20.528c.233.332.769.894.85.894.083 0 .013-.556-.138-1.137-.139-.53-.151-.785-.044-.893.082-.083.36-.102.473-.026.044.026.094.39.132.939.07 1.002.12 1.187.365 1.346.158.109.17.109.246.007.038-.058.082-.294.089-.53.018-.632.17-.913.44-.823.209.063.228.325.07.823-.183.58-.214 1.002-.132 1.57.12.773.41 1.462.554 1.315.032-.025.05-.887.057-1.908.006-1.596.019-1.915.114-2.215.176-.55.214-.575.907-.575 1.141 0 3.259.307 3.542.51.303.218.24.295-.359.486-1.305.402-1.941.479-2.729.326-.258-.052-.492-.083-.517-.07-.025.012 0 .159.05.325.158.517.114.836-.258 1.972-.195.581-.378 1.258-.403 1.5-.025.243-.095.485-.133.536-.164.198-.346.109-.643-.306-.371-.51-.958-1.072-1.298-1.251-.145-.077-.624-.217-1.059-.32-.781-.178-1.033-.3-.939-.452.032-.058.17-.064.473-.039.554.058.599-.019.227-.37a4.705 4.705 0 00-1.374-.849c-.473-.191-.555-.255-.555-.408 0-.122.176-.25.347-.25.056 0 .309.173.554.39.517.44.876.651 1.072.62.36-.052-.07-.888-.744-1.45-.246-.204-.485-.453-.536-.549-.082-.16-.082-.178.032-.261a.585.585 0 01.346-.077c.196.02.24.058.473.466.139.249.34.58.448.734zm9.038-10.96c.322-.05.39.211.39.205.171.44.07.99.07.99-.227-.045-.397-.326-.397-.326-.132-.313-.063-.868-.063-.868zm-4.544 1.82s.485.268.668.555c0 0 .126.3.031.517 0 0-.504-.236-.756-.632 0 .007-.164-.204.057-.44z" fill="#fff" fill-rule="nonzero"/></g></svg>