<svg xmlns="http://www.w3.org/2000/svg" width="32" height="32" viewBox="0 0 32 32">
  <g fill="none" fill-rule="evenodd">
    <circle cx="16" cy="16" r="16" fill="#0096DC"/>
    <g fill="#FFF" transform="translate(6 6)">
      <path d="M16.5197925,5.61786525 L11.5596734,0.64431338 C10.7029814,-0.214771127 9.30113487,-0.214771127 8.44437062,0.64431338 L3.49450621,5.60758288 C3.20853298,5.89433058 3.20853298,6.36203345 3.49450621,6.64870873 L4.99608231,8.15435136 L5.99554431,9.08164706 C6.29198878,9.35673658 6.74542966,9.35673658 7.04165749,9.08164706 L9.04079813,7.22712807 C9.59006893,6.71749921 10.4344121,6.71749921 10.9835385,7.22720048 L12.9827513,9.08164706 C13.2790514,9.35673658 13.7325645,9.35673658 14.0287923,9.08164706 L15.0284709,8.15442377 L16.5197925,6.65906351 C16.8057657,6.3722434 16.8057657,5.90461294 16.5197925,5.61786525 Z"/>
      <path d="M0.671459366,11.562087 L8.44400955,19.3556866 C9.30070157,20.2147711 10.7025481,20.2147711 11.5593846,19.3556866 L19.3322958,11.5616526 C20.6796919,10.2106799 19.7303475,9.81024689 18.7420789,8.87143783 L17.5225041,7.71300611 C17.2293816,7.43465809 16.7727632,7.43813382 16.4763187,7.71300611 L14.4773225,9.56759751 C13.9279795,10.0772988 13.0837086,10.0772988 12.5344377,9.56759751 L10.5352249,7.71300611 C10.2389971,7.43813382 9.78548397,7.43813382 9.48918393,7.71300611 L7.49018772,9.56759751 C6.94070027,10.0772988 6.09650152,10.0772988 5.5471585,9.56759751 L3.54809008,7.71300611 C3.25164561,7.43813382 2.79834915,7.43820623 2.5019769,7.71300611 L1.38220394,8.7518148 C0.349089544,9.71031966 -0.736381067,10.1504339 0.671459366,11.562087 Z" opacity=".7"/>
    </g>
  </g>
</svg>
