<svg width="32" height="32" viewBox="0 0 32 32" fill="none" xmlns="http://www.w3.org/2000/svg">
<path d="M16 32C24.8366 32 32 24.8366 32 16C32 7.16344 24.8366 0 16 0C7.16344 0 0 7.16344 0 16C0 24.8366 7.16344 32 16 32Z" fill="#F09242"/>
<path fill-rule="evenodd" clip-rule="evenodd" d="M5.86784 16C5.86441 10.4019 10.3999 5.86119 15.998 5.85778V5.86383C21.5952 5.86601 26.1336 10.4007 26.1402 15.998C26.138 21.592 21.6043 26.1269 16.0101 26.1302C10.412 26.1336 5.87126 21.5981 5.86784 16ZM5 15.998C4.99879 22.0733 9.92292 26.999 15.998 27C22.0714 26.9934 26.9934 22.0714 27 15.998C26.999 9.92434 22.0757 5.00123 16.002 5C9.92695 4.99877 5.00121 9.9227 5 15.998ZM21.7749 9.66942C18.5077 6.68173 13.5004 6.68173 10.2332 9.66942L9.61507 9.06537C13.2201 5.74042 18.7739 5.74042 22.3789 9.06537L21.7749 9.66942ZM22.3347 10.2211L22.9387 9.61704V9.60294C26.2637 13.208 26.2637 18.7619 22.9387 22.3668L22.3347 21.7627C25.3222 18.4956 25.3222 13.4883 22.3347 10.2211ZM9.66947 21.7688C6.6856 18.5024 6.6856 13.4996 9.66947 10.2332L9.06541 9.62913C5.74044 13.2342 5.74044 18.788 9.06541 22.393L9.66947 21.7688ZM10.2272 22.3265C13.4944 25.3142 18.5017 25.3142 21.7688 22.3265L22.387 22.9305C18.7819 26.2555 13.2282 26.2555 9.62312 22.9305L10.2272 22.3265ZM17.8303 14.4617C17.8303 15.5661 16.252 15.5381 15.5226 15.5251C15.4541 15.5239 15.3931 15.5228 15.3416 15.5228V13.3945C15.4018 13.3945 15.4749 13.3926 15.5579 13.3904C16.3015 13.371 17.8303 13.3313 17.8303 14.4617ZM18.3237 17.7659C18.3237 18.9785 16.4163 18.9507 15.5458 18.9379C15.5075 18.9374 15.4712 18.9368 15.4372 18.9365C15.4021 18.9361 15.3695 18.9358 15.3396 18.9358V16.592C15.4134 16.5922 15.5034 16.5902 15.6054 16.588C16.5002 16.5682 18.3237 16.5279 18.3237 17.7659ZM19.8137 13.9845C19.6929 12.724 18.6055 12.3012 17.2303 12.1723V10.4346H16.1671V12.138C15.8873 12.138 15.6013 12.138 15.3174 12.1481V10.4346H14.2603V12.1823H13.5838H12.1058V13.32C12.1058 13.32 12.8911 13.3059 12.879 13.32C13.1734 13.2876 13.4404 13.4942 13.4831 13.7871V18.5733C13.4702 18.7809 13.2916 18.9386 13.084 18.9259L13.0818 18.9259L13.0804 18.9257C13.0945 18.9378 12.3072 18.9257 12.3072 18.9257L12.0958 20.1963H13.4811H14.2422V21.9722H15.3053V20.2224H16.1551V21.9641H17.2202V20.2083C19.0163 20.0996 20.2687 19.6566 20.4258 17.9753C20.5526 16.6222 19.9164 16.0181 18.8995 15.7745C19.5177 15.4604 19.9063 14.9067 19.8137 13.9845Z" fill="white"/>
</svg>
