<svg width="32" height="32" viewBox="0 0 32 32" fill="none" xmlns="http://www.w3.org/2000/svg">
<path d="M32 16C32 24.8365 24.8365 32 16 32C7.1635 32 0 24.8365 0 16C0 7.1635 7.1635 0 16 0C24.8365 0 32 7.1635 32 16Z" fill="white"/>
<mask id="mask0" mask-type="alpha" maskUnits="userSpaceOnUse" x="0" y="0" width="28" height="23">
<path d="M0 0H28V22.5566H0V0Z" fill="white"/>
</mask>
<g mask="url(#mask0)">
<path fill-rule="evenodd" clip-rule="evenodd" d="M3.27861 21.7189C2.44657 19.9376 1.98181 17.9504 1.98181 15.8546C1.98181 8.19285 8.19285 1.98184 15.8546 1.98184C20.1208 1.98184 23.937 3.90767 26.4818 6.93725L28 5.66337C25.0917 2.20095 20.7302 0 15.8546 0C7.09834 0 0 7.09834 0 15.8546C0 18.2498 0.531127 20.5209 1.48205 22.5566L3.27861 21.7189Z" fill="black"/>
</g>
<path fill-rule="evenodd" clip-rule="evenodd" d="M15.8547 25.2682C10.6557 25.2682 6.44107 21.0535 6.44107 15.8545C6.44107 10.6555 10.6557 6.44086 15.8547 6.44086C18.7496 6.44086 21.3388 7.74801 23.0657 9.80381L24.5842 8.52959C22.4939 6.04099 19.3591 4.45905 15.8547 4.45905C9.56115 4.45905 4.45923 9.56097 4.45923 15.8545C4.45923 22.1481 9.56115 27.25 15.8547 27.25V25.2682Z" fill="black"/>
<path fill-rule="evenodd" clip-rule="evenodd" d="M19.2703 18.7207C18.4523 19.6945 17.2258 20.3136 15.8545 20.3136C13.3919 20.3136 11.3954 18.3173 11.3954 15.8545C11.3954 13.3919 13.3919 11.3954 15.8545 11.3954C17.2258 11.3954 18.4523 12.0146 19.2703 12.9884L20.9781 11.5554C19.7512 10.0947 17.9115 9.16589 15.8545 9.16589C12.1605 9.16589 9.16589 12.1605 9.16589 15.8545C9.16589 19.5486 12.1605 22.5432 15.8545 22.5432C17.7396 22.5432 19.4419 21.7628 20.6576 20.5081L19.2703 18.7207Z" fill="black"/>
</svg>
