<svg width="32" height="32" viewBox="0 0 32 32" fill="none" xmlns="http://www.w3.org/2000/svg">
<path d="M16 32C24.8366 32 32 24.8366 32 16C32 7.16344 24.8366 0 16 0C7.16344 0 0 7.16344 0 16C0 24.8366 7.16344 32 16 32Z" fill="white"/>
<path d="M16.0003 30.9486C24.2562 30.9486 30.9489 24.2559 30.9489 16C30.9489 7.74415 24.2562 1.05145 16.0003 1.05145C7.74446 1.05145 1.05176 7.74415 1.05176 16C1.05176 24.2559 7.74446 30.9486 16.0003 30.9486Z" fill="#0A1B2B"/>
<path d="M7.83978 15.9997H7.29932C7.30195 13.6929 8.21946 11.4814 9.85059 9.85023C11.4817 8.2191 13.6933 7.30158 16 7.29895V7.83904C13.8365 7.84158 11.7623 8.70219 10.2325 10.2321C8.70271 11.7619 7.84222 13.8361 7.83978 15.9997Z" fill="#455E44"/>
<path d="M11.4869 23.44C9.68312 22.3457 8.33809 20.6336 7.7019 18.622L8.21712 18.4593C8.81443 20.3454 10.0759 21.9507 11.7673 22.977L11.4869 23.44Z" fill="#376641"/>
<path d="M9.40608 13.8325L8.89294 13.664C9.20944 12.7084 9.71451 11.8261 10.3782 11.0692C11.0419 10.3124 11.8508 9.69643 12.7569 9.25787L12.9917 9.74468C12.151 10.1515 11.4004 10.7229 10.7845 11.4251C10.1686 12.1272 9.69988 12.9459 9.40608 13.8325Z" fill="#2F5166"/>
<path d="M14.6205 23.3522C13.0838 23.0666 11.6756 22.3057 10.5946 21.1767C9.51353 20.0478 8.81424 18.6079 8.59546 17.0603L9.13024 16.9843C9.33337 18.4199 9.98214 19.7556 10.985 20.8028C11.9878 21.85 13.2942 22.5559 14.7197 22.821L14.6205 23.3522Z" fill="#5D7342"/>
<path d="M16.0004 23.4791V22.939C16.8015 22.94 17.5967 22.802 18.3506 22.5311L18.5332 23.0392C17.7207 23.3312 16.8637 23.4801 16.0004 23.4791Z" fill="#50A592"/>
<path d="M10.7372 25.75C8.35871 24.4631 6.53289 22.351 5.60363 19.8114C4.67438 17.2718 4.70583 14.48 5.69203 11.962C6.67824 9.44398 8.55116 7.37347 10.958 6.14048C13.3648 4.90748 16.1394 4.59713 18.7592 5.26784L18.6252 5.79124C16.1325 5.15079 13.4916 5.44449 11.2005 6.61696C8.90945 7.78943 7.12648 9.75965 6.18791 12.1561C5.24933 14.5525 5.22 17.2095 6.10541 19.6261C6.99081 22.0427 8.72979 24.0518 10.9944 25.2746L10.7372 25.75Z" fill="#71A17A"/>
<path d="M16.0003 27.0779C14.9318 27.0787 13.8688 26.9251 12.8442 26.622L12.9981 26.104C14.9125 26.6706 16.9484 26.6825 18.8694 26.1384C20.7903 25.5943 22.5175 24.5164 23.8504 23.03L24.253 23.3906C23.2132 24.5499 21.9409 25.4774 20.5191 26.1127C19.0973 26.7479 17.5576 27.0768 16.0003 27.0779Z" fill="#8DC368"/>
<path d="M7.65781 11.671L7.17847 11.4222C7.8065 10.217 8.67406 9.1528 9.72801 8.2948C10.782 7.43681 12.0001 6.80312 13.3076 6.43262L13.4533 6.95284C12.2169 7.30323 11.0652 7.90244 10.0686 8.71375C9.07203 9.52506 8.25167 10.5314 7.65781 11.671Z" fill="#80A4CD"/>
<path d="M14.2236 25.7784C11.9324 25.3646 9.85965 24.1585 8.36785 22.3709C6.87606 20.5834 6.06019 18.3282 6.063 16C6.063 15.698 6.07684 15.3931 6.1042 15.0942L6.64219 15.1433C6.61696 15.4275 6.6038 15.7139 6.6038 16C6.60091 18.2015 7.37217 20.334 8.78266 22.0244C10.1931 23.7148 12.153 24.8554 14.3195 25.2468L14.2236 25.7784Z" fill="#4F829C"/>
<path d="M16.0004 28.1517C14.1006 28.1517 12.2273 27.7062 10.5309 26.8511C8.83441 25.9961 7.36207 24.7551 6.23201 23.228C5.10196 21.7009 4.34568 19.9301 4.02388 18.0578C3.70208 16.1855 3.82372 14.2638 4.37904 12.447C4.93437 10.6302 5.9079 8.96892 7.2215 7.59648C8.5351 6.22404 10.1522 5.17869 11.9429 4.54434C13.7336 3.90999 15.6481 3.70432 17.5328 3.94383C19.4174 4.18333 21.2196 4.86133 22.7947 5.92343L22.4923 6.37116C20.8533 5.26813 18.9599 4.60165 16.9913 4.43482C15.0227 4.26798 13.0442 4.60632 11.2429 5.41778C9.44158 6.22923 7.87715 7.48697 6.69774 9.07193C5.51833 10.6569 4.76294 12.5166 4.50305 14.4751C4.24317 16.4335 4.4874 18.4259 5.21264 20.2636C5.93787 22.1013 7.12012 23.7235 8.64744 24.9767C10.1748 26.2298 11.9966 27.0725 13.9406 27.4248C15.8845 27.7772 17.8863 27.6276 19.7562 26.9902L19.9303 27.5022C18.6651 27.9339 17.3372 28.1533 16.0004 28.1517Z" fill="#A6DDD3"/>
</svg>
