<svg width="32" height="32" viewBox="0 0 32 32" version="1.1" xmlns="http://www.w3.org/2000/svg" xmlns:xlink="http://www.w3.org/1999/xlink"><title>svg/color/wicc</title><desc>Created with Sketch.</desc><g id="color/wicc" stroke="none" stroke-width="1" fill="none" fill-rule="evenodd"><g id="Group" fill="#5783CB" fill-rule="nonzero"><circle id="Oval" cx="16" cy="16" r="16"/></g><g id="WaykiChain-(WICC)" transform="translate(4.000000, 4.000000)" fill="#FFF" fill-rule="nonzero"><path d="M11.24,0 L12.48,0 C15.1876116,0.130331862 17.7637722,1.20609121 19.76,3.04 C20.1,3.26 20.1,3.8 19.7,3.94 C19.36,4.02 19.1,3.72 18.84,3.54 C14.2463779,0.0417622177 7.70892254,0.801520543 4.04,5.26 C1.07810938,8.90282207 0.894509249,14.0691906 3.59034062,17.9130743 C6.28617199,21.756958 11.2061606,23.3440261 15.64,21.8 C19.2305081,20.5573275 21.9039152,17.519365 22.68,13.8 C22.8562519,13.0710139 22.9699976,12.3283216 23.02,11.58 C23.0467146,11.3520675 23.2506816,11.1872668 23.4791405,11.2090248 C23.7075994,11.2307828 23.8767911,11.4311224 23.86,11.66 L23.82,12.9 C23.664425,15.791942 22.4381742,18.522489 20.38,20.56 C18.2929479,22.6289764 15.5151574,23.8540532 12.58,24 L11.4,24 C5.22258136,23.6877868 0.290574141,18.7384743 0,12.56 L0,11.44 C0.300984712,5.32698264 5.13324126,0.408742879 11.24,0 Z" id="Shape"/><path d="M21,6.22 C21.8,5.34 23.46,5.82 23.64,7 C23.9,8.06 22.88,8.96 21.84,8.88 C20.46,10.28 19.36,11.94 18.42,13.68 C18.04,14.2 18.52,14.88 18.22,15.42 C17.86,16.48 16.3,16.7 15.62,15.82 C15.12,15.26 15.26,14.48 15.52,13.86 C15.1393735,13.0700343 14.6327551,12.3472587 14.02,11.72 L13.42,11.74 C12.1065263,13.1874185 11.0207832,14.8261487 10.2,16.6 C10.34,17.14 10.44,17.78 10.06,18.26 C9.56,19.08 8.24,19.16 7.62,18.4 C7.16,17.88 7.22,17.14 7.46,16.52 C6.76954268,14.6423432 5.78380966,12.8869282 4.54,11.32 C3.76,11.28 2.94,10.82 2.84,10 C2.58,8.88 3.86,7.8 4.92,8.3 C5.86,8.64 6.12,9.84 5.66,10.66 C6.41555481,12.5775835 7.47587549,14.3605432 8.8,15.94 C10.2393091,14.5133587 11.4111811,12.8402235 12.26,11 C12.1,10.46 12,9.84 12.36,9.34 C12.9,8.46 14.34,8.44 14.9,9.32 C15.32,9.86 15.18,10.58 14.94,11.16 C15.311285,11.9515967 15.8038836,12.6803726 16.4,13.32 L17,13.28 C18.46,11.74 19.8,10.04 20.7,8.1 C20.6,7.46 20.48,6.7 21.02,6.22 L21,6.22 Z" id="Shape"/></g></g></svg>