<?xml version="1.0" standalone="no"?>
<!DOCTYPE svg PUBLIC "-//W3C//DTD SVG 20010904//EN"
 "http://www.w3.org/TR/2001/REC-SVG-20010904/DTD/svg10.dtd">
<svg version="1.0" xmlns="http://www.w3.org/2000/svg"
 width="2161.000000pt" height="2160.000000pt" viewBox="0 0 2161.000000 2160.000000"
 preserveAspectRatio="xMidYMid meet">

<g transform="translate(0.000000,2160.000000) scale(0.100000,-0.100000)"
fill="#000000" stroke="none">
<path d="M10450 17369 c-925 -54 -1772 -279 -2588 -688 -423 -211 -797 -450
-1147 -730 -1780 -1425 -2692 -3618 -2444 -5878 298 -2718 2262 -4974 4917
-5647 1302 -330 2696 -251 3952 224 1164 440 2194 1218 2941 2223 392 527 706
1114 928 1735 181 507 301 1067 353 1642 20 223 17 959 -5 1170 -86 829 -287
1540 -636 2255 -375 767 -857 1410 -1486 1984 -990 903 -2232 1484 -3545 1660
-367 49 -896 71 -1240 50z m695 -1239 c1160 -78 2203 -496 3095 -1239 63 -53
187 -167 275 -253 l160 -157 -1960 -1 c-2099 0 -2062 1 -2360 -50 -618 -106
-1225 -386 -1707 -788 -653 -545 -1091 -1270 -1262 -2090 -14 -67 -26 -124
-26 -127 0 -3 -418 -5 -930 -5 l-929 0 4 28 c3 15 12 79 20 142 64 467 227
1016 436 1460 271 580 611 1063 1074 1525 442 443 873 752 1430 1025 641 315
1287 482 2055 534 113 7 490 5 625 -4z m4487 -3037 c165 -343 300 -733 386
-1113 32 -140 76 -389 88 -497 l7 -63 -3742 0 c-3305 0 -3741 2 -3741 15 0 25
58 199 101 302 214 514 619 960 1109 1222 304 162 663 263 1005 284 28 2 1099
4 2381 5 l2331 2 75 -157z m-8272 -2918 c0 -3 12 -60 26 -127 146 -700 471
-1308 973 -1822 614 -627 1382 -999 2256 -1091 119 -13 439 -15 2098 -15 1076
0 1957 -4 1957 -8 0 -5 -48 -56 -107 -113 -908 -881 -1981 -1383 -3239 -1515
-212 -23 -768 -26 -979 -6 -1127 106 -2110 513 -2976 1232 -160 133 -516 489
-649 649 -277 334 -493 662 -680 1031 -280 556 -441 1080 -534 1748 l-6 42
930 0 c511 0 930 -2 930 -5z m8746 -57 c-4 -35 -18 -128 -32 -208 -81 -484
-219 -927 -436 -1395 l-74 -160 -2389 0 c-2632 0 -2446 -4 -2730 60 -351 79
-704 251 -990 479 -174 140 -384 373 -512 567 -121 186 -248 458 -301 647
l-20 72 3745 0 3746 0 -7 -62z"/>
</g>
</svg>
