<svg width="32" height="32" viewBox="0 0 32 32" fill="none" xmlns="http://www.w3.org/2000/svg">
<path d="M16 32C24.8365 32 32 24.8365 32 16C32 7.16345 24.8365 0 16 0C7.16345 0 0 7.16345 0 16C0 24.8365 7.16345 32 16 32Z" fill="#2C2C2C"/>
<path d="M6.56068 18.6939C8.0022 18.6939 9.15541 17.5407 9.15541 16.0992C9.15541 14.6289 7.97337 13.4468 6.50303 13.4757C4.97502 13.5045 3.82181 14.6577 3.85064 16.0992C3.85064 17.5984 5.03268 18.6939 6.56068 18.6939ZM16.017 9.06463C17.4585 9.0358 18.6117 7.88259 18.6117 6.44107C18.6117 4.99956 17.3432 3.7887 15.9017 3.81753C14.4025 3.87519 13.2205 5.05722 13.2781 6.49874C13.307 7.96908 14.5178 9.09346 16.017 9.06463ZM25.5022 18.4921C26.9437 18.5498 28.1546 17.4542 28.2122 16.0127C28.2699 14.5424 27.1167 13.3027 25.6752 13.2738C24.1472 13.245 22.9363 14.3406 22.9074 15.8109C22.8786 17.3101 23.9742 18.4633 25.5022 18.4921ZM16.1612 28.1503C17.6027 28.1503 18.7559 26.9971 18.7847 25.5844C18.8135 24.1717 17.6315 22.9608 16.2188 22.932C14.6908 22.9032 13.4511 24.0852 13.4511 25.5555C13.4511 26.9682 14.6908 28.1214 16.1612 28.1503ZM25.6175 20.3084C24.349 20.2796 23.2534 19.9048 22.3308 18.9534C21.2641 17.8867 19.9668 17.7425 19.0154 18.5786C18.0063 19.4435 17.9486 20.7697 18.9577 21.9806C20.0532 23.3068 20.8893 24.6906 20.4569 26.5069C20.0532 28.2079 18.6982 29.5629 17.0261 29.8512C15.1809 30.1972 13.3358 29.4476 12.3844 27.8908C11.3753 26.2763 11.433 24.633 12.4421 23.0185C12.6727 22.6437 12.9898 22.3266 13.2493 21.9806C14.1719 20.8274 14.143 19.53 13.1052 18.6651C12.1249 17.829 10.8276 17.9444 9.84733 18.9534C8.63646 20.2508 7.13729 20.7409 5.40747 20.3373C3.59117 19.9048 2.29381 18.4633 2.03434 16.6182C1.80369 14.8883 2.75509 13.0432 4.28309 12.2071C5.95525 11.3134 7.94454 11.5152 9.38605 12.7261C9.55904 12.8702 9.73201 13.072 9.905 13.2162C10.8852 14.1099 12.2402 14.1099 13.134 13.245C13.9989 12.4089 14.0566 11.1116 13.2493 10.1025C12.5574 9.26644 11.8366 8.51686 11.606 7.39248C11.1735 5.34553 12.1249 3.29858 13.9989 2.43367C15.9305 1.53993 18.2081 2.05887 19.4478 3.7022C20.7163 5.34552 20.6875 7.62312 19.3325 9.23761C19.1019 9.49708 18.8712 9.78538 18.6406 10.0449C17.8621 11.0827 17.9486 12.3513 18.8424 13.1874C19.7649 14.0234 21.12 14.0234 22.0425 13.0432C23.0228 12.0342 24.1471 11.4287 25.5887 11.4287C28.0392 11.4287 29.9997 13.3892 29.9997 15.8686C30.0285 18.3191 28.0392 20.2796 25.6175 20.3084Z" fill="white"/>
<path d="M16.1612 27.2854C17.1414 27.2854 17.891 26.5358 17.9198 25.5555C17.9198 24.5753 17.1126 23.7392 16.1323 23.7681C15.2098 23.7969 14.3449 24.633 14.316 25.4979C14.316 26.4493 15.2098 27.3142 16.1612 27.2854ZM16.19 28.1503C14.6908 28.1503 13.48 26.9971 13.48 25.5555C13.48 24.0852 14.7197 22.9032 16.2477 22.932C17.6603 22.9608 18.8136 24.1429 18.8136 25.5844C18.7847 26.9971 17.6027 28.1503 16.19 28.1503Z" fill="#2C2C2C"/>
<path d="M25.5887 17.6272C26.5689 17.656 27.3473 16.9065 27.3761 15.9262C27.405 14.946 26.5977 14.1099 25.6175 14.0811C24.6373 14.0811 23.7724 14.9172 23.7724 15.8397C23.7724 16.8488 24.5508 17.6272 25.5887 17.6272ZM25.5022 18.4921C23.9742 18.4345 22.8786 17.3101 22.9074 15.8109C22.9363 14.3406 24.1471 13.245 25.6752 13.2738C27.1455 13.3027 28.2987 14.5712 28.2122 16.0127C28.1546 17.4542 26.9437 18.5498 25.5022 18.4921Z" fill="#2C2C2C"/>
<path d="M17.7468 6.46991C17.7468 5.48969 16.9684 4.71127 15.9882 4.71127C14.9791 4.71127 14.1431 5.51852 14.1431 6.46991C14.1431 7.39248 15.0945 8.28622 16.017 8.25739C16.9684 8.22856 17.7468 7.42131 17.7468 6.46991ZM16.017 9.06464C14.5179 9.09347 13.307 7.96909 13.2782 6.49875C13.2493 5.05723 14.4314 3.8752 15.9017 3.81754C17.3432 3.75988 18.6117 4.99957 18.6117 6.44108C18.6117 7.8826 17.4585 9.03581 16.017 9.06464Z" fill="#2C2C2C"/>
<path d="M6.53186 14.3118C5.55163 14.3118 4.68672 15.119 4.68672 16.0704C4.68672 16.9641 5.66695 17.8579 6.64718 17.8579C7.54092 17.8579 8.2905 17.0506 8.2905 16.1281C8.31933 15.119 7.54091 14.3118 6.53186 14.3118ZM6.56069 18.6939C5.03268 18.6939 3.85064 17.5984 3.85064 16.1281C3.82181 14.6865 5.00386 13.5333 6.50303 13.5045C7.97338 13.4757 9.15541 14.6289 9.15541 16.1281C9.15541 17.5407 8.0022 18.6939 6.56069 18.6939Z" fill="#2C2C2C"/>
<path d="M16.1612 27.2854C15.2098 27.2854 14.316 26.4204 14.316 25.4979C14.316 24.6041 15.1809 23.7681 16.1323 23.7681C17.1126 23.7392 17.9486 24.5753 17.9198 25.5555C17.9198 26.5646 17.1702 27.2854 16.1612 27.2854Z" fill="white"/>
<path d="M25.5886 17.6272C24.5796 17.5984 23.7723 16.8488 23.7723 15.8686C23.7723 14.946 24.6372 14.1099 25.6175 14.1099C26.5977 14.1099 27.405 14.9748 27.3761 15.9551C27.3473 16.9065 26.5689 17.656 25.5886 17.6272Z" fill="white"/>
<path d="M17.7469 6.46991C17.7469 7.45013 16.9684 8.22856 16.017 8.25739C15.0945 8.28622 14.1431 7.39247 14.1431 6.46991C14.1431 5.51851 14.9792 4.71126 15.9882 4.71126C16.9684 4.71126 17.7469 5.48968 17.7469 6.46991Z" fill="white"/>
<path d="M6.53184 14.3117C7.5409 14.3117 8.31932 15.0901 8.29049 16.128C8.29049 17.0794 7.54091 17.8578 6.64717 17.8578C5.66694 17.8578 4.68671 16.9641 4.68671 16.0704C4.68671 15.1478 5.55161 14.3117 6.53184 14.3117Z" fill="white"/>
</svg>
