<svg height="32" viewBox="0 0 32 32" width="32" xmlns="http://www.w3.org/2000/svg"><g fill="none" fill-rule="evenodd"><circle cx="16" cy="16" fill="#8200ff" fill-rule="nonzero" r="16"/><g fill="#fff"><path d="m18.4137931 13.1663838-.6793595.1663108c-.6140234.1503161-1.0447784.690553-1.0447784 1.3103223v4.5376575l-2.2465272.5499615c-.3695137.0904589-.7439513-.1295354-.8363297-.4913709-.013676-.0535671-.0205914-.1085745-.0205914-.1637903v-7.5558344c0-.3098847.2153775-.5800031.5223892-.6551612l3.4482759-.8441558c.3695137-.09045892.7439513.1295353.8363297.4913708.013676.0535672.0205914.1085746.0205914.1637903zm-7.5862069-.0422078-.85177327.2085186c-.61402345.1503161-1.04477845.690553-1.04477845 1.3103223v4.5798653l-2.07411336.5077537c-.36951373.0904589-.74395131-.1295354-.83632974-.4913709-.01367597-.0535671-.02059138-.1085745-.02059138-.1637903v-7.5558344c0-.3098847.2153775-.5800031.52238922-.6551612l3.44827587-.8441558c.36951371-.09045892.74395131.1295353.83632971.4913708.013676.0535672.0205914.1085746.0205914.1637903zm10.8672168-2.2390726 3.4482759-.8441558c.3695137-.09045891.7439513.1295353.8363297.4913708.013676.0535672.0205914.1085746.0205914.1637903v7.5558345c0 .3098846-.2153775.5800031-.5223892.6551612l-3.4482759.8441558c-.3695137.0904589-.7439513-.1295353-.8363297-.4913709-.013676-.0535671-.0205914-.1085745-.0205914-.1637902v-7.5558345c0-.3098847.2153775-.5800031.5223892-.6551612z"/><path d="m12.8965517 13.3137913v5.7616834c0 .1104316.0138309.2204463.0411828.3275806.1712415.6707329.8270869 1.0977691 1.5105414 1.0126095v.9390307c0 .3098847-.2153775.5800031-.5223893.6551612l-3.4482758.8441558c-.3695138.0904589-.74395133-.1295353-.83632977-.4913709-.01367596-.0535671-.02059137-.1085745-.02059137-.1637902v-7.5558345c0-.3098846.21537749-.5800031.52238924-.6551612zm7.5862069.0422078v5.7401c0 .1104315.0138308.2204462.0411828.3275805.1847568.7236711.933632 1.1636595 1.6726595.9827418l.0102957-.0025205v.9507946c0 .3098847-.2153775.5800031-.5223893.6551612l-3.4482758.8441558c-.3695138.0904589-.7439513-.1295353-.8363298-.4913709-.0136759-.0535671-.0205914-.1085745-.0205914-.1637902v-7.5558345c0-.3098846.2153775-.5800031.5223893-.6551612z" opacity=".504"/></g></g></svg>