<svg width="32" height="32" viewBox="0 0 32 32" fill="none" xmlns="http://www.w3.org/2000/svg">
<g clip-path="url(#clip0)">
<path d="M26.0926 6.71572L25.214 7.59436C27.3106 9.88711 28.4732 12.8815 28.4732 15.9883C28.4732 19.0951 27.3106 22.0895 25.214 24.3822L26.0926 25.2608C28.4242 22.7318 29.7187 19.4179 29.7187 15.978C29.7187 12.5382 28.4242 9.22429 26.0926 6.69522V6.71572Z" fill="#5A5564"/>
<path d="M7.61484 6.79187C9.90759 4.6953 12.9019 3.53264 16.0088 3.53264C19.1156 3.53264 22.1099 4.6953 24.4027 6.79187L25.2813 5.91323C22.7523 3.58162 19.4384 2.28713 15.9985 2.28713C12.5587 2.28713 9.24477 3.58162 6.7157 5.91323L7.61484 6.79187Z" fill="#5A5564"/>
<path d="M6.79191 24.391C4.69782 22.0988 3.53669 19.1062 3.53669 16.0015C3.53669 12.8967 4.69782 9.90417 6.79191 7.61193L5.91327 6.73329C3.58166 9.26236 2.28717 12.5762 2.28717 16.0161C2.28717 19.456 3.58166 22.7698 5.91327 25.2989L6.79191 24.391Z" fill="#5A5564"/>
<path d="M24.391 25.2023C22.0983 27.2988 19.1039 28.4615 15.9971 28.4615C12.8903 28.4615 9.89594 27.2988 7.60319 25.2023L6.72455 26.0809C9.25362 28.4125 12.5675 29.707 16.0074 29.707C19.4472 29.707 22.7611 28.4125 25.2902 26.0809L24.391 25.2023Z" fill="#5A5564"/>
<path d="M15.997 32C12.8328 31.9994 9.73976 31.0606 7.10903 29.3023C4.47829 27.544 2.42798 25.0451 1.21734 22.1216C0.00670466 19.1981 -0.309902 15.9812 0.307555 12.8778C0.925012 9.7744 2.4488 6.92374 4.68627 4.68628C6.92373 2.44881 9.77439 0.92502 12.8778 0.307563C15.9812 -0.309894 19.1981 0.00671229 22.1216 1.21735C25.0451 2.42799 27.5439 4.4783 29.3023 7.10903C31.0606 9.73977 31.9994 12.8328 32 15.9971C32.0004 18.0987 31.5867 20.1798 30.7826 22.1216C29.9785 24.0633 28.7998 25.8276 27.3137 27.3137C25.8276 28.7998 24.0633 29.9785 22.1216 30.7826C20.1798 31.5867 18.0987 32.0004 15.997 32ZM15.997 1.24765C13.0818 1.24997 10.2327 2.11648 7.80977 3.73767C5.38688 5.35886 3.49898 7.66195 2.3847 10.3558C1.27042 13.0497 0.97978 16.0135 1.54951 18.8725C2.11924 21.7316 3.52377 24.3575 5.58557 26.4185C7.64737 28.4795 10.2739 29.883 13.1332 30.4516C15.9924 31.0202 18.9561 30.7284 21.6495 29.613C24.343 28.4977 26.6453 26.6089 28.2655 24.1853C29.8858 21.7618 30.7512 18.9123 30.7523 15.9971C30.7531 14.0594 30.3719 12.1406 29.6306 10.3504C28.8893 8.56023 27.8023 6.9337 26.432 5.56386C25.0616 4.19402 23.4346 3.10774 21.6441 2.36713C19.8536 1.62652 17.9347 1.24611 15.997 1.24765Z" fill="#282138"/>
<path d="M20.8712 10.5437H22.8183L18.7661 14.5559C17.2986 16.0082 14.9193 16.0082 13.4508 14.5559L9.39694 10.5437H11.3457L14.4244 13.5915C14.8729 14.0336 15.4774 14.2815 16.1072 14.2815C16.7371 14.2815 17.3416 14.0336 17.7901 13.5915L20.8712 10.5437Z" fill="#23292F"/>
<path d="M11.3207 21.7005H9.37219L13.4508 17.6635C14.9183 16.2113 17.2975 16.2113 18.7661 17.6635L22.8446 21.7005H20.8975L17.7925 18.6279C17.3439 18.1858 16.7394 17.938 16.1096 17.938C15.4798 17.938 14.8753 18.1858 14.4267 18.6279L11.3207 21.7005Z" fill="#23292F"/>
</g>
<defs>
<clipPath id="clip0">
<rect width="32" height="32" fill="white"/>
</clipPath>
</defs>
</svg>
