<?xml version="1.0" encoding="utf-8"?>
<!-- Generator: Adobe Illustrator 24.1.2, SVG Export Plug-In . SVG Version: 6.00 Build 0)  -->
<svg
	version="1.1"
	id="Capa_1"
	xmlns="http://www.w3.org/2000/svg"
	xmlns:xlink="http://www.w3.org/1999/xlink"
	x="0px"
	y="0px"
	width="32px"
	height="32px"
	viewBox="0 0 32 32"
	xml:space="preserve"
>
	<style type="text/css">
		.st0 {
			fill: url(#SVGID_1_);
		}
		.st1 {
			fill: url(#SVGID_2_);
			filter: url(#Adobe_OpacityMaskFilter);
		}
		.st2 {
			mask: url(#mask0_1_);
		}
		.st3 {
			fill: url(#SVGID_3_);
		}
		.st4 {
			fill: url(#SVGID_4_);
		}
		.st5 {
			fill: url(#SVGID_5_);
		}
	</style>
	<linearGradient
		id="SVGID_1_"
		gradientUnits="userSpaceOnUse"
		x1="40.8394"
		y1="37.9991"
		x2="-4.4695"
		y2="-14.2193"
		gradientTransform="matrix(1 0 0 -1 0 32)"
	>
		<stop offset="0" style="stop-color: #ff6746" />
		<stop offset="1" style="stop-color: #ff0546" />
	</linearGradient>
	<path
		class="st0"
		d="M12.4,2.3c1.5-3.1,5.7-3.1,7.2,0l11.6,23.1c2,4.1-2.5,8.3-6,5.6l-6.9-5.2c-1.4-1.1-3.3-1.1-4.8,0l-6.9,5.2
	c-3.5,2.7-8-1.6-6-5.6L12.4,2.3z"
	/>
	<defs>
		<filter
			id="Adobe_OpacityMaskFilter"
			filterUnits="userSpaceOnUse"
			x="-3.7"
			y="5.1"
			width="39.4"
			height="34.2"
		>
			<feColorMatrix
				type="matrix"
				values="1 0 0 0 0  0 1 0 0 0  0 0 1 0 0  0 0 0 1 0"
			/>
		</filter>
	</defs>
	<mask
		maskUnits="userSpaceOnUse"
		x="-3.7"
		y="5.1"
		width="39.4"
		height="34.2"
		id="mask0_1_"
	>
		<linearGradient
			id="SVGID_2_"
			gradientUnits="userSpaceOnUse"
			x1="40.8394"
			y1="37.9991"
			x2="-4.4695"
			y2="-14.2193"
			gradientTransform="matrix(1 0 0 -1 0 32)"
		>
			<stop offset="0" style="stop-color: #ff6746" />
			<stop offset="1" style="stop-color: #ff0546" />
		</linearGradient>
		<path
			class="st1"
			d="M12.4,2.3c1.5-3.1,5.7-3.1,7.2,0l11.6,23.1c2,4.1-2.5,8.3-6,5.6l-6.9-5.2c-1.4-1.1-3.3-1.1-4.8,0l-6.9,5.2
		c-3.5,2.7-8-1.6-6-5.6L12.4,2.3z"
		/>
	</mask>
	<g class="st2">
		<linearGradient
			id="SVGID_3_"
			gradientUnits="userSpaceOnUse"
			x1="16"
			y1="24.0013"
			x2="16"
			y2="2.9151"
			gradientTransform="matrix(1 0 0 -1 0 32)"
		>
			<stop offset="0" style="stop-color: #ff6644" />
			<stop offset="1" style="stop-color: #ff0546" />
		</linearGradient>
		<path
			class="st3"
			d="M-3.7,13.3c0-3.2,1.8-6.2,4.6-7.5c3-1.4,6.4-0.6,8.6,1.9l0.2,0.3c3.1,3.5,8.3,3.7,11.6,0.3L22,7.6
		c2.3-2.4,5.7-3.1,8.7-1.8c3,1.3,4.9,4.4,4.9,7.9v15.4H-3.7V13.3z"
		/>

		<linearGradient
			id="SVGID_4_"
			gradientUnits="userSpaceOnUse"
			x1="16"
			y1="18.8662"
			x2="16"
			y2="-2.2199"
			gradientTransform="matrix(1 0 0 -1 0 32)"
		>
			<stop offset="0" style="stop-color: #ff6644" />
			<stop offset="1" style="stop-color: #ff0546" />
		</linearGradient>
		<path
			class="st4"
			d="M-3.7,18.5c0-3.2,1.8-6.2,4.6-7.5c3-1.4,6.4-0.6,8.6,1.9l0.2,0.3c3.1,3.5,8.3,3.7,11.6,0.3l0.7-0.8
		c2.3-2.4,5.7-3.1,8.7-1.8c3,1.3,4.9,4.4,4.9,7.9v15.4H-3.7V18.5z"
		/>

		<linearGradient
			id="SVGID_5_"
			gradientUnits="userSpaceOnUse"
			x1="16"
			y1="13.7313"
			x2="16"
			y2="-7.3548"
			gradientTransform="matrix(1 0 0 -1 0 32)"
		>
			<stop offset="0" style="stop-color: #ff6644" />
			<stop offset="1" style="stop-color: #ff0546" />
		</linearGradient>
		<path
			class="st5"
			d="M-3.7,23.6c0-3.2,1.8-6.2,4.6-7.5c3-1.4,6.4-0.6,8.6,1.9l0.2,0.3c3.1,3.5,8.3,3.7,11.6,0.3l0.7-0.8
		c2.3-2.4,5.7-3.1,8.7-1.8c3,1.3,4.9,4.4,4.9,7.9v15.4H-3.7V23.6z"
		/>
	</g>
</svg>
