<?xml version="1.0" encoding="UTF-8"?>
<svg width="32px" height="32px" viewBox="0 0 32 32" version="1.1" xmlns="http://www.w3.org/2000/svg" xmlns:xlink="http://www.w3.org/1999/xlink">
    <!-- Generator: Sketch 53 (72520) - https://sketchapp.com -->
    <title>svg/color/xbp</title>
    <desc>Created with Sketch.</desc>
    <g id="color/xbp" stroke="none" stroke-width="1" fill="none" fill-rule="evenodd">
        <g id="Group" fill="#21AF67" fill-rule="nonzero">
            <circle id="Oval" cx="16" cy="16" r="16"></circle>
        </g>
        <g id="xbp" transform="translate(4.000000, 4.000000)" fill="#FFFFFF" fill-rule="nonzero">
            <path d="M12,24 C5.372583,24 0,18.627417 0,12 C0,5.372583 5.372583,0 12,0 C18.627417,0 24,5.372583 24,12 C24,18.627417 18.627417,24 12,24 Z M16.6134857,7.6512 C16.4372571,7.4112 16.1499429,7.21577143 15.7563429,7.06422857 C15.3627429,6.91268571 14.8217143,6.83657143 14.136,6.83657143 L12.6857143,6.83657143 L13.8630857,3.60205714 L14.6482286,1.44548571 C13.8591383,1.24840175 13.0504168,1.14052622 12.2372571,1.12388571 C12.1577143,1.12388571 12.0788571,1.11771429 11.9986286,1.11771429 C11.8752,1.11771429 11.7524571,1.1232 11.6304,1.12731429 C5.80114286,1.32274286 1.11771429,6.12342857 1.11771429,12 C1.11742865,15.1326063 2.47033121,18.1126417 4.8288,20.1744 L5.68114286,17.8285714 C4.21189446,16.2432845 3.39581164,14.1614405 3.39634286,12 C3.39634286,7.67245714 6.60822857,4.08274286 10.7732571,3.48548571 C10.9789714,3.45531429 11.1915429,3.43405714 11.4034286,3.41691429 L8.26148571,12.0514286 L14.5296,11.4342857 C14.5262959,11.4326217 14.5228546,11.4312451 14.5193143,11.4301714 C14.7145018,11.3673918 14.9023348,11.2837061 15.0795429,11.1805714 C15.298182,11.055456 15.5047767,10.9103806 15.6966857,10.7472 C15.906856,10.5701488 16.0974315,10.3710675 16.2651429,10.1533714 C16.4433537,9.92234635 16.5842628,9.66482282 16.6827429,9.39017143 C16.7934209,9.09626822 16.8561632,8.7864926 16.8685714,8.47268571 C16.8810606,8.17760293 16.7909191,7.88730851 16.6134857,7.6512 Z M13.9392,9.75634286 C13.8020571,10.128 13.5894857,10.3899429 13.2939429,10.5414857 C13.0176637,10.688484 12.7099696,10.7665837 12.3970286,10.7691429 L11.2669714,10.7691429 L12.0253714,8.68525714 L13.1554286,8.68525714 C13.2901293,8.68494411 13.4242936,8.70223332 13.5545143,8.73668571 C13.673648,8.76534574 13.7837276,8.82333198 13.8747429,8.90537143 C13.9636078,8.99356121 14.0174542,9.11100012 14.0262857,9.23588571 C14.0376184,9.41375753 14.0078191,9.59184901 13.9392,9.75634286 Z M15.2002286,1.5984 L14.4185143,3.74468571 C17.4822946,4.64004952 19.7985022,7.15812389 20.4353238,10.2858842 C21.0721453,13.4136445 19.9248881,16.6368909 17.4550953,18.6589071 C14.9853024,20.6809233 11.5990048,21.1692924 8.65851429,19.9275429 C8.48228571,19.8528 8.31017143,19.7705143 8.14011429,19.6848 L9.03154286,17.2402286 L10.4804571,17.2402286 C11.7915429,17.2402286 12.8678857,17.0176 13.7094857,16.5723429 C14.5510857,16.1270857 15.1501714,15.4155429 15.5067429,14.4377143 C15.6384,14.0756571 15.6864,13.7574857 15.648,13.4838857 C15.6193254,13.2343698 15.5367312,12.9940745 15.4059429,12.7796571 C15.2884732,12.5913659 15.1314772,12.4308602 14.9458286,12.3092571 C14.8007785,12.215397 14.6469046,12.1359337 14.4864,12.072 L8.16,12.696 L6.12548571,18.2770286 L5.2944,20.5611429 C5.93218307,21.0623536 6.62375159,21.4910479 7.35634286,21.8393143 C7.52868571,21.9202286 7.70285714,21.9968 7.87885714,22.0690286 C9.18626915,22.6066802 10.586354,22.8829698 12,22.8822857 C18.0006857,22.8822857 22.8822857,18.0006857 22.8822857,12 C22.8822857,7.11291429 19.6436571,2.96845714 15.2002286,1.5984 Z M10.56,13.0731429 L11.8806857,13.0731429 C12.0380316,13.0742469 12.1949769,13.0891613 12.3497143,13.1177143 C12.5007092,13.1419187 12.6451562,13.1967573 12.7741714,13.2788571 C12.8940963,13.3595281 12.9800414,13.4816093 13.0155429,13.6217143 C13.0580571,13.7730286 13.0352,13.9709714 12.9469714,14.2155429 C12.868203,14.4506068 12.7398162,14.665988 12.5705143,14.8470857 C12.4288647,14.9941888 12.2609485,15.1134976 12.0754286,15.1988571 C11.9039936,15.2762301 11.7221973,15.3282049 11.5357714,15.3531429 C11.3708033,15.3761441 11.2045025,15.3882846 11.0379429,15.3894857 L9.71451429,15.3894857 L10.56,13.0731429 Z" id="Combined-Shape"></path>
        </g>
    </g>
</svg>