<svg width="32" height="32" viewBox="0 0 32 32" fill="none" xmlns="http://www.w3.org/2000/svg">
<path d="M32 16C32 24.8365 24.8365 32 16 32C7.1635 32 0 24.8365 0 16C0 7.1635 7.1635 0 16 0C24.8365 0 32 7.1635 32 16Z" fill="black"/>
<path d="M18.625 14.2362H20.8851V20.8426H18.625V14.2362Z" fill="#3AAC59"/>
<path d="M15.522 13.7391C14.6531 13.7391 13.7645 13.9471 13.5433 14.3343C13.5403 14.3392 13.5374 14.3437 13.5346 14.3487V11.577H11.214V15.9742V15.9817C11.4448 16.0875 11.6816 16.2082 11.9211 16.3448C12.0021 16.3913 12.0706 16.4318 12.1212 16.4622C12.1529 16.4813 12.1846 16.5004 12.2163 16.5202C12.2196 16.5222 10.8899 18.5928 9.07911 19.0275C8.00927 19.2846 6.74544 18.9734 6.4894 17.9001C6.47869 17.8556 6.47279 17.811 6.46587 17.7664C6.63647 17.6649 6.81093 17.5716 6.98633 17.4852C7.42951 17.2921 7.76772 17.1473 7.89571 17.0982C7.90692 17.0941 7.91829 17.0897 7.92943 17.0857C7.92965 17.0857 7.92994 17.0856 7.93009 17.0856C7.93023 17.0856 7.93023 17.0854 7.93045 17.0853C8.98704 16.7021 9.8739 16.5699 9.8739 16.5699C9.06848 16.5002 8.37691 16.5563 7.79817 16.671C7.79795 16.6707 7.79737 16.6706 7.79737 16.6706C7.79737 16.6706 7.793 16.6716 7.7852 16.6736C7.26117 16.7785 6.83009 16.9312 6.49537 17.0835C6.68185 16.31 7.35492 15.638 8.15146 15.4465C8.22146 15.4297 8.29241 15.4167 8.36358 15.4056C8.38404 15.4025 8.40444 15.3997 8.42498 15.397C8.48027 15.3894 8.53585 15.3836 8.59179 15.3791C8.60964 15.3777 8.62763 15.3758 8.64555 15.3748C8.71708 15.3703 8.78883 15.368 8.86087 15.3683C8.87501 15.3684 8.88914 15.3692 8.90327 15.3693C8.963 15.3702 9.02273 15.3725 9.08254 15.3763C9.10366 15.3776 9.12471 15.379 9.14569 15.3807C9.16667 15.3824 9.18765 15.3843 9.20855 15.3863C9.5515 15.4217 9.97282 15.5138 10.4399 15.6725V14.1524C10.2145 14.0827 9.97537 14.0152 9.72712 13.9541C9.0727 13.7798 7.94895 13.5942 6.71995 13.8935C4.74321 14.3753 4.18261 15.8377 4.18261 17.6248C4.18261 17.8525 4.20067 18.0656 4.23367 18.266C3.80455 18.5502 3.38308 18.8766 3 19.2491C3 19.2491 3.57014 18.9949 4.32319 18.6603C4.82588 20.3766 6.57936 20.954 7.89978 20.954C9.27681 20.954 10.1608 20.5609 11.214 19.9038V20.7361H13.5346V16.6074C13.5374 16.602 13.5403 16.5967 13.5433 16.5911V16.521C13.7641 15.9309 14.1396 15.7786 14.5569 15.7786C15.1085 15.7786 15.4531 16.1703 15.4531 16.7928V20.7361H17.7737V16.1244C17.7737 14.6725 16.866 13.7391 15.522 13.7391Z" fill="#3AAC59"/>
<path d="M19.7181 11C19.0174 11 18.5233 11.4955 18.5233 12.1984C18.5233 12.9013 19.0174 13.3967 19.7181 13.3967C20.4188 13.3967 20.9129 12.9013 20.9129 12.1984C20.9129 11.4955 20.4188 11 19.7181 11Z" fill="#3AAC59"/>
<path d="M28.6025 16.9947H28.6053L28.6029 14.0519H26.2795L26.2668 14.4702C24.0258 13.0264 22.5952 14.5112 22.5952 14.5112C21.911 15.1379 21.5139 16.1272 21.5139 17.3694C21.5139 19.5718 22.8338 20.8819 24.5495 20.8819C25.1926 20.8819 25.785 20.7362 26.2966 20.0269C26.3559 20.1923 26.4879 20.5971 26.5824 20.7362H29.0001C28.5857 20.0538 28.589 17.6876 28.6025 16.9947ZM25.0912 18.9739C24.3388 18.9739 23.8082 18.319 23.8082 17.3897C23.8082 16.4604 24.3388 15.8053 25.0912 15.8053C25.6189 15.8053 26.0372 16.1277 26.2401 16.6407V18.1385C26.0372 18.6515 25.6189 18.9739 25.0912 18.9739Z" fill="#3AAC59"/>
</svg>
