<svg height="32" viewBox="0 0 32 32" width="32" xmlns="http://www.w3.org/2000/svg"><g fill="none" fill-rule="evenodd"><circle cx="16" cy="16" fill="#4f7aa2" r="16"/><path d="m13.3090129 12h2.7381974c1.3218884 0 3.6824034.8028085 3.6824034 4s-2.360515 4-3.6824034 4h-2.7381974zm1.5107296 6.3797468h1.1330472c.944206 0 2.0772532-.5775316 2.0772532-2.3797468s-1.1330472-2.3797468-2.0772532-2.3797468h-1.1330472zm5.9484978-6.3797468h.5665236l5.0987125 7.025641v-7.025641h.5665236v8h-.5665236l-5.0987125-6.8717949v6.8717949h-.5665236zm-15.7682403 0h1.88841202v2h-1.88841202zm2.83261803 0h1.88841201v2h-1.88841201zm2.83261807 0h1.888412v2h-1.888412zm0 3h1.888412v2h-1.888412zm0 3h1.888412v2h-1.888412zm-2.83261807-3h1.88841201v2h-1.88841201z" fill="#fff" fill-rule="nonzero"/></g></svg>