<?xml version="1.0" encoding="UTF-8"?><svg id="Layer_1" fill="#0074c2" xmlns="http://www.w3.org/2000/svg" xmlns:xlink="http://www.w3.org/1999/xlink" viewBox="0 0 32 32"><defs><style>.cls-1{fill:#fff;}.cls-2{fill:url(#New_Gradient_Swatch_2);}</style><linearGradient id="New_Gradient_Swatch_2" x1="-3.41" y1="-7.3" x2="35.02" y2="38.83" gradientTransform="matrix(1, 0, 0, 1, 0, 0)" gradientUnits="userSpaceOnUse"><stop offset="0" stop-color="#273498"/><stop offset=".53" stop-color="#0074c2"/><stop offset="1" stop-color="#00abe7"/></linearGradient></defs><path class="cls-1" d="M18.14,12.48l-3.96,2.28c-.1,.06-.16,.16-.16,.29v1.92c0,.12,.06,.21,.16,.28l1.66,.96c.1,.06,.21,.06,.32,0l6.85-3.94c1.16-.67,1.16-2.61,0-3.28l-6.16-3.55c-.54-.32-1.16-.32-1.7,0l-6.16,3.55c-.54,.32-.86,.86-.86,1.48,0,2.37,.01,4.74,0,7.1,0,.62,.32,1.16,.86,1.48l6.16,3.56c.54,.31,1.16,.31,1.7,0l6.16-3.56c.54-.32,.85-.85,.85-1.48v-3.09l-7.33,4.24c-.34,.19-.72,.19-1.06,0l-3.27-1.9c-.34-.19-.53-.53-.53-.92v-3.78c0-.38,.19-.71,.52-.91,1.09-.63,2.19-1.26,3.28-1.9,.34-.19,.72-.19,1.06,0l1.62,.93c.09,.06,.09,.19,0,.24Z"/><path class="cls-1" d="M16,0C7.16,0,0,7.16,0,16s7.16,16,16,16,16-7.16,16-16S24.84,0,16,0Zm2.14,12.23l-1.62-.93c-.34-.19-.72-.19-1.06,0-1.09,.63-2.19,1.26-3.28,1.9-.33,.19-.52,.53-.52,.91v3.78c0,.39,.19,.72,.53,.92l3.27,1.9c.34,.19,.72,.19,1.06,0l7.33-4.24v3.09c0,.63-.31,1.16-.85,1.48l-6.16,3.56c-.54,.31-1.16,.31-1.7,0l-6.16-3.56c-.54-.32-.86-.86-.86-1.48,.01-2.36,0-4.73,0-7.1,0-.62,.32-1.16,.86-1.48l6.16-3.55c.54-.32,1.16-.32,1.7,0l6.16,3.55c1.16,.67,1.16,2.61,0,3.28l-6.85,3.94c-.1,.06-.21,.06-.32,0l-1.66-.96c-.1-.06-.16-.15-.16-.28v-1.92c0-.12,.06-.22,.16-.29l3.96-2.28c.09-.05,.09-.18,0-.24Z"/><path class="cls-2" d="M16,0C7.16,0,0,7.16,0,16s7.16,16,16,16,16-7.16,16-16S24.84,0,16,0Zm2.14,12.23l-1.62-.93c-.34-.19-.72-.19-1.06,0-1.09,.63-2.19,1.26-3.28,1.9-.33,.19-.52,.53-.52,.91v3.78c0,.39,.19,.72,.53,.92l3.27,1.9c.34,.19,.72,.19,1.06,0l7.33-4.24v3.09c0,.63-.31,1.16-.85,1.48l-6.16,3.56c-.54,.31-1.16,.31-1.7,0l-6.16-3.56c-.54-.32-.86-.86-.86-1.48,.01-2.36,0-4.73,0-7.1,0-.62,.32-1.16,.86-1.48l6.16-3.55c.54-.32,1.16-.32,1.7,0l6.16,3.55c1.16,.67,1.16,2.61,0,3.28l-6.85,3.94c-.1,.06-.21,.06-.32,0l-1.66-.96c-.1-.06-.16-.15-.16-.28v-1.92c0-.12,.06-.22,.16-.29l3.96-2.28c.09-.05,.09-.18,0-.24Z"/></svg>