<svg xmlns="http://www.w3.org/2000/svg" width="32" height="32"><g fill="none" fill-rule="evenodd"><circle cx="16" cy="16" r="16" fill="#14B6E7"/><path fill="#FFF" d="M12.779 13.527a172.718 172.718 0 0 1 2.11-3.656c2.103-3.533 7.724-3.9 8.03-3.68l-.003.006.004-.004c.306.22 1.86 5.75-.688 8.962a170.192 170.192 0 0 1-2.641 3.241c.93 1.462 1.564 3.931-.625 7.411-.104.164-.3.298-.315-.042-.034-.829-.323-2.477-1.903-4.017l-.1.118c-.485.584-.889.505-1.556.025l-.053-.039c-.076.286-.201.563-.377.819-.02.028-.042.054-.063.082-1.48 2.083-3.567 3.108-4.705 2.286-1.138-.82-.9-3.178.518-5.306.019-.03.035-.06.055-.09.175-.253.385-.465.62-.634h-.001c-.667-.481-.875-.843-.501-1.507l.053-.096c-1.952-.953-3.57-.67-4.352-.423-.325.103-.266-.133-.146-.29 2.472-3.223 4.95-3.522 6.639-3.166zm-1.046 5.947a1.823 1.823 0 0 0-.254.29c-.014.02-.025.04-.038.06-1 1.465-1.175 3.081-.382 3.64.792.557 2.254-.152 3.296-1.586.015-.02.031-.037.045-.057.069-.097.126-.199.173-.303L13.09 20.45l-1.356-.976zm4.932-8.77a2.337 2.337 0 0 0 .549 3.219 2.245 2.245 0 0 0 3.164-.558 2.336 2.336 0 0 0-.55-3.22 2.245 2.245 0 0 0-3.163.559z"/></g></svg>