<svg height="32" viewBox="0 0 32 32" width="32" xmlns="http://www.w3.org/2000/svg"><g fill="none" fill-rule="evenodd"><circle cx="16" cy="16" fill="#ec1076" fill-rule="nonzero" r="16"/><path d="m21.0491803 21c-.6010929 0-1.2622951-.3030303-1.2622951-1.2121212 0-.4474371.3493831-1.8246835 1.0481492-4.1317392.142764-.3566183.2141459-.6763416.2141459-.9591699 0-.5454545-.420765-1.0909091-1.2021858-1.0909091-.4538134 0-1.4426229.1818182-1.7431694 1.1515152-.2003643.6464646-.6612021 2.3636363-1.3825136 5.1515151-.28051.7272727-.7814208 1.0909091-1.5027323 1.0909091-1.0819672 0-1.262295-.7878788-1.262295-1.2727273 0-.192602.288116-1.3529967.8643482-3.4811841.225225-.7095136.3378375-1.2258866.3378375-1.5491189 0-.4848485-.3606557-1.0909091-1.2021857-1.0909091-.8415301 0-1.6229509.6060606-1.9836066 1.9393939-.2404372.8888889-.5810565 2.2222223-1.0218579 4-.2404372.969697-.7814208 1.4545455-1.62295085 1.4545455-.76138433 0-1.16211293-.4242424-1.20218579-1.2727273l1.38251366-5.7575757h-3.06557377c-.81019458 0-1.44262295-.6376551-1.44262295-1.4242425 0-.7865873.63242837-1.4242424 1.41256831-1.4242424h5.13934429c.7213114 0 1.1621129.3434344 1.3224043 1.0303031.7213115-.909091 1.6830601-1.1515152 2.5245902-1.1515152s1.9234973.4848485 2.4043716 1.5757576c.6612022-.7272728 1.8032787-1.5757576 3.4262295-1.5757576 1.5027322 0 2.7650273 1.030303 2.7650273 2.8484848 0 .6868687-.3406193 2.1212122-1.0218579 4.3030304l2.6372357-.0173478c.7711143-.0000211 1.3900867.6415221 1.3900867 1.4329058 0 .7913836-.6189724 1.4329268-1.3825137 1.4329268z" fill="#fff"/></g></svg>