<svg width="32" height="32" viewBox="0 0 32 32" fill="none" xmlns="http://www.w3.org/2000/svg">
<path d="M16 0C10.8032 0 6.1952 2.4832 3.2768 6.2976C1.2288 8.9856 0 12.3648 0 16C0 24.832 7.168 32 16 32C21.1968 32 25.8048 29.5168 28.7232 25.7024C30.7712 23.0144 32 19.6608 32 16C32 7.168 24.832 0 16 0Z" fill="url(#paint0_radial)"/>
<path d="M14.848 20.4288C14.3104 20.4288 14.0288 20.608 14.0288 20.9664C14.0288 21.12 14.1056 21.248 14.2336 21.3248C14.3104 21.376 14.4128 21.4272 14.5664 21.4784C14.72 21.5296 14.9248 21.6064 15.1808 21.6832C15.4368 21.76 15.6416 21.8368 15.7952 21.9392C15.9744 22.016 16.1024 22.1184 16.2048 22.2208C16.3072 22.3232 16.384 22.4512 16.4352 22.6048C16.4864 22.7584 16.512 22.9376 16.512 23.1424C16.512 23.3984 16.4608 23.6544 16.384 23.8336C16.3072 24.0384 16.1792 24.192 16.0256 24.3456C15.872 24.4736 15.6928 24.576 15.488 24.6528C15.2832 24.7296 15.0272 24.7552 14.7712 24.7552C14.3872 24.7552 13.9008 24.704 13.3632 24.576L13.1072 24.5248L13.2096 23.7312C13.8752 23.808 14.3872 23.8592 14.7456 23.8592C15.2832 23.8592 15.5392 23.6288 15.5392 23.1936C15.5392 23.04 15.488 22.912 15.36 22.8096C15.232 22.7328 14.976 22.6304 14.6432 22.528C14.3616 22.4512 14.1056 22.3488 13.9008 22.272C13.696 22.1696 13.5424 22.0672 13.4144 21.9648C13.2864 21.8368 13.2096 21.7088 13.1584 21.5552C13.1072 21.4016 13.0816 21.2224 13.0816 21.0176C13.0816 20.5056 13.2352 20.1216 13.5424 19.8912C13.8496 19.6352 14.2592 19.5328 14.7968 19.5328C14.976 19.5328 15.1808 19.5328 15.4112 19.5584C15.6416 19.584 15.8976 19.6096 16.1792 19.6608L16.4352 19.712L16.3584 20.5312C16 20.48 15.7184 20.4544 15.4624 20.4544C15.1808 20.4288 14.976 20.4288 14.848 20.4288Z" fill="white"/>
<path d="M19.8913 22.8608H19.4305V21.9648H20.8897V24.576C20.5313 24.6272 20.2241 24.6784 19.9169 24.704C19.6353 24.7296 19.3793 24.7552 19.1489 24.7552C18.7649 24.7552 18.4321 24.704 18.1761 24.6016C17.9201 24.4992 17.6897 24.3456 17.5361 24.1152C17.3825 23.9104 17.2545 23.6288 17.2033 23.296C17.1265 22.9632 17.1009 22.5792 17.1009 22.1184C17.1009 21.6576 17.1265 21.2736 17.2033 20.9408C17.2801 20.608 17.3825 20.352 17.5617 20.1472C17.7153 19.9424 17.9201 19.7888 18.2017 19.6864C18.4577 19.584 18.7649 19.5328 19.1489 19.5328C19.6097 19.5328 20.0961 19.584 20.6337 19.6864L20.8897 19.7376L20.8641 20.5312C20.5569 20.5056 20.3009 20.48 20.0449 20.4544C19.8145 20.4288 19.5841 20.4288 19.4049 20.4288C19.2257 20.4288 19.0465 20.4288 18.9185 20.4544C18.7905 20.48 18.6881 20.5056 18.5857 20.5568C18.5089 20.608 18.4321 20.6592 18.3809 20.7616C18.3297 20.8384 18.2785 20.9408 18.2529 21.0688C18.1761 21.2992 18.1505 21.7344 18.1505 22.2976C18.1505 22.5792 18.1761 22.8352 18.2017 23.04C18.2273 23.2448 18.2785 23.3984 18.3809 23.5264C18.4577 23.6544 18.5857 23.7312 18.7137 23.7824C18.8673 23.8336 19.0465 23.8592 19.2513 23.8592L19.8657 23.8336V22.8608H19.8913Z" fill="white"/>
<path d="M23.5776 24.6784H21.888V19.6096H23.5776C24.0384 19.6096 24.3968 19.6608 24.6784 19.7632C24.96 19.8656 25.1648 20.0192 25.344 20.224C25.4976 20.4288 25.6 20.6848 25.6512 20.992C25.7024 21.2992 25.728 21.6576 25.728 22.0672C25.728 22.4768 25.7024 22.8352 25.6512 23.168C25.6 23.5008 25.4976 23.7568 25.344 23.9872C25.1904 24.2176 24.9856 24.3712 24.704 24.4992C24.3968 24.6016 24.0384 24.6784 23.5776 24.6784ZM24.6528 22.656C24.6528 22.5792 24.6528 22.4768 24.6528 22.3744C24.6528 22.272 24.6528 22.144 24.6528 21.9904C24.6528 21.7088 24.6528 21.4784 24.6272 21.3248C24.6016 21.1712 24.5504 21.0176 24.4736 20.864C24.3968 20.7104 24.2944 20.6336 24.1408 20.5824C23.9872 20.5312 23.808 20.5056 23.552 20.5056H22.8864V23.7824H23.552C23.936 23.7824 24.192 23.7056 24.3456 23.5264C24.5248 23.3472 24.6016 23.0656 24.6528 22.656Z" fill="white"/>
<path d="M5.55522 24.576C3.76322 22.272 2.79042 19.4304 2.79042 16.4608C2.79042 13.5424 3.73762 10.7776 5.50402 8.4736C8.03842 5.1968 11.8528 3.3024 15.9744 3.3024C16 3.3024 16 3.3024 16.0256 3.3024C19.1232 3.3024 22.0672 4.3776 24.4224 6.3488L25.216 5.9136C22.6816 3.6864 19.456 2.4576 16.0512 2.4576C11.648 2.432 7.55202 4.4544 4.86402 7.9616C2.96962 10.4192 1.94562 13.3632 1.94562 16.4608C1.94562 19.584 2.94402 22.5792 4.81282 25.0112L5.55522 24.576Z" fill="#02143D"/>
<path d="M27.3664 8.2432L26.624 8.6528C28.3136 10.9312 29.2096 13.6448 29.2096 16.5376C29.2096 19.456 28.2624 22.2208 26.496 24.5248C23.9616 27.8272 20.1472 29.696 16 29.696C15.9744 29.696 15.9744 29.696 15.9488 29.696C12.9536 29.696 10.0864 28.672 7.78237 26.8288L7.01437 27.2896C9.52317 29.3888 12.6464 30.5408 15.9744 30.5408C16 30.5408 16 30.5408 16.0256 30.5408C20.4288 30.5408 24.4992 28.544 27.1872 25.0368C29.0816 22.5792 30.08 19.6352 30.08 16.5376C30.0544 13.5168 29.1328 10.6496 27.3664 8.2432Z" fill="#02143D"/>
<path d="M25.2417 5.4016V5.9136L24.7809 5.5808L25.2417 5.4016Z" fill="#02143D"/>
<path d="M26.624 8.1664V8.67841L27.008 8.7296L26.9824 8.1664H26.624Z" fill="#02143D"/>
<path d="M5.55518 24.064V24.576L5.17118 24.6016L5.09438 24.1664L5.55518 24.064Z" fill="#02143D"/>
<path d="M7.01437 26.8032V27.3152L7.62877 27.264L7.55197 26.9056L7.01437 26.8032Z" fill="#02143D"/>
<path d="M5.55522 24.064C3.76322 21.76 2.79042 18.9184 2.79042 15.9488C2.79042 13.0304 3.73762 10.2656 5.50402 7.9616C8.03842 4.6848 11.8528 2.7904 15.9744 2.7904C16 2.7904 16 2.7904 16.0256 2.7904C19.1232 2.7904 22.0672 3.8656 24.4224 5.8368L25.216 5.4016C22.6816 3.1744 19.456 1.9456 16.0512 1.9456C11.648 1.92 7.55202 3.9424 4.86402 7.4496C2.96962 9.9072 1.94562 12.8512 1.94562 15.9488C1.94562 19.072 2.94402 22.0672 4.81282 24.4992L5.55522 24.064Z" fill="white"/>
<path d="M27.3664 7.7312L26.624 8.1408C28.3136 10.4192 29.2096 13.1328 29.2096 16.0256C29.2096 18.944 28.2624 21.7088 26.496 24.0128C23.9616 27.3152 20.1472 29.184 16 29.184C15.9744 29.184 15.9744 29.184 15.9488 29.184C12.9536 29.184 10.0864 28.16 7.78237 26.3168L7.01437 26.7776C9.52317 28.8768 12.6464 30.0288 15.9744 30.0288C16 30.0288 16 30.0288 16.0256 30.0288C20.4288 30.0288 24.4992 28.032 27.1872 24.5248C29.0816 22.0672 30.08 19.1232 30.08 16.0256C30.0544 13.0048 29.1328 10.1376 27.3664 7.7312Z" fill="white"/>
<path d="M13.824 17.8432H11.648L9.21598 20.9408L7.75678 17.8432H5.55518L7.91038 22.0928L4.19838 26.5984H6.42558L8.78078 23.6288L10.24 26.5984H12.3904L10.0864 22.4768L13.824 17.8432Z" fill="#02143D"/>
<path d="M4.19838 26.3424V26.5984L4.60798 26.5216L4.55678 26.2656L4.19838 26.3424Z" fill="#02143D"/>
<path d="M12.3904 26.3424V26.5984L12.0064 26.2912L12.3904 26.3424Z" fill="#02143D"/>
<path d="M5.55515 17.5872V17.8432L5.86235 17.9968L5.75995 17.6384L5.55515 17.5872Z" fill="#02143D"/>
<path d="M13.824 17.5872V17.8432L13.4144 17.8944L13.824 17.5872Z" fill="#02143D"/>
<path d="M13.824 17.5872H11.648L9.21598 20.6848L7.75678 17.5872H5.55518L7.91038 21.8368L4.19838 26.3424H6.42558L8.78078 23.3728L10.24 26.3424H12.3904L10.0864 22.1952L13.824 17.5872Z" fill="white"/>
<path d="M15.5904 10.8032C15.7696 10.5728 16 10.2912 16.1536 9.984C16.4096 9.4976 16.512 9.0368 16.4864 8.576C16.4608 8.2688 16.384 8.0128 16.2304 7.7824C16.128 7.6288 16.0512 7.5264 15.9744 7.4496C15.8464 7.5264 15.7184 7.552 15.5904 7.5776C15.6416 7.7824 15.6416 7.9616 15.616 8.1408C15.5904 8.448 15.5136 8.704 15.36 8.9088C15.1296 9.216 14.848 9.472 14.464 9.728C14.336 9.8048 14.208 9.8816 14.1056 9.9584C13.9776 10.0352 13.8752 10.0864 13.7728 10.1632C13.4144 10.3936 13.1072 10.5984 12.8512 10.8288C12.5952 11.0336 12.288 11.3152 12.0576 11.6736C11.6992 12.2624 11.5712 12.8768 11.648 13.5424C11.7248 14.1312 11.904 14.6432 12.2112 15.0784C12.4928 15.5136 12.8 15.8976 13.1584 16.2304C13.44 16.4864 13.7728 16.7424 14.208 17.024L14.2592 17.0752C14.2592 17.0496 14.2592 17.024 14.2336 17.024C14.1824 16.64 14.2592 16.256 14.4896 15.9232C14.336 15.7696 14.208 15.616 14.08 15.4112C13.8752 15.0784 13.7728 14.72 13.7472 14.336C13.7216 13.7984 13.8496 13.2608 14.1568 12.7232C14.4128 12.2624 14.7456 11.8528 15.0272 11.4944C15.104 11.392 15.2064 11.2896 15.2832 11.2128C15.4112 11.0336 15.5136 10.9312 15.5904 10.8032Z" fill="white"/>
<path d="M18.048 10.7008C18.2528 10.368 18.3808 10.0864 18.432 9.8048C18.4832 9.5232 18.4832 9.2672 18.432 9.0112C18.3808 8.7296 18.2528 8.448 18.0736 8.1408C17.8432 7.7824 17.536 7.4752 17.152 7.2704C16.9728 7.168 16.768 7.0912 16.5376 7.0144C16.512 7.0144 16.512 7.0144 16.512 7.0144C16.512 7.0144 16.512 7.0144 16.512 7.04C16.4608 7.1424 16.384 7.2192 16.3072 7.296L16.2816 7.3216L16.3072 7.3472C16.4608 7.5008 16.5632 7.68 16.6656 7.8592C16.8448 8.2688 16.896 8.7296 16.8192 9.216C16.7424 9.6 16.6144 9.984 16.384 10.3936C16.2304 10.6752 16.0256 10.9312 15.7696 11.2128C15.36 11.648 15.0016 12.0832 14.6944 12.5184C14.5664 12.7232 14.3872 12.9792 14.2848 13.2352C14.1568 13.568 14.08 13.8496 14.08 14.1056C14.08 14.2848 14.1056 14.4384 14.1312 14.6176C14.2336 15.0016 14.4128 15.36 14.6944 15.6416C14.848 15.4112 15.0528 15.2064 15.3088 14.976C15.616 14.6944 15.9744 14.4384 16.3584 14.208C16.3328 13.9776 16.3072 13.7728 16.3328 13.5424C16.3584 13.2864 16.4096 13.0816 16.4864 12.8768C16.64 12.4672 16.896 12.1088 17.2544 11.7248C17.6128 11.3152 17.8688 11.008 18.048 10.7008Z" fill="white"/>
<path d="M16.7168 13.9776C17.0752 13.7984 17.3824 13.6448 17.664 13.5168C17.792 13.4656 17.92 13.3888 18.0736 13.3376C18.304 13.2352 18.56 13.1328 18.7904 13.0048C18.9952 12.9024 19.2 12.8 19.3536 12.6208C19.6352 12.3392 19.8912 12.0064 20.0448 11.6224C20.2752 11.1104 20.3776 10.5728 20.3776 10.1376C20.3776 9.8048 20.352 9.5232 20.3264 9.2416V9.216C20.3008 9.0112 20.2496 8.7808 20.1728 8.6016C19.9936 8.192 19.7376 7.7824 19.3536 7.3984C19.072 7.1168 18.7392 6.8608 18.3808 6.6816C18.2016 6.5792 17.9712 6.4768 17.7408 6.4C17.3824 6.2976 17.024 6.2464 16.5888 6.272C16.5888 6.2976 16.6144 6.2976 16.6144 6.3232C16.64 6.4512 16.64 6.5536 16.64 6.656C16.9216 6.7328 17.152 6.8352 17.3824 6.9632C17.664 7.1168 17.8432 7.2704 17.9968 7.424C18.1248 7.5776 18.2272 7.7056 18.3296 7.8336C18.5856 8.192 18.7392 8.5504 18.816 8.9344C18.8928 9.344 18.8672 9.728 18.7392 10.112C18.6112 10.4704 18.432 10.8032 18.1248 11.2384C17.9712 11.4688 17.7664 11.6736 17.5872 11.8528C17.536 11.904 17.4848 11.9552 17.4336 12.032C17.2032 12.288 17.024 12.544 16.896 12.8512C16.7168 13.2352 16.6656 13.5936 16.7168 13.9776Z" fill="white"/>
<path d="M16 7.04C16.1536 6.912 16.2304 6.8096 16.2816 6.6816C16.3328 6.5536 16.256 6.4 16.128 6.3232C16.0512 6.272 15.9488 6.2976 15.8464 6.2976H15.8208C15.3344 6.2976 14.8224 6.2976 14.336 6.2976H13.9264C13.8496 6.4512 13.7472 6.5536 13.568 6.5536C13.4144 6.5536 13.2864 6.4768 13.2352 6.3488C13.2096 6.2976 13.2096 6.2976 13.1328 6.2976C12.8 6.2976 12.4672 6.2976 12.1344 6.2976C11.9296 6.2976 11.7504 6.3488 11.5968 6.4512C11.4688 6.5536 11.392 6.656 11.392 6.8096C11.4432 6.784 11.52 6.7584 11.5712 6.7584C11.5968 6.7584 11.5968 6.7584 11.6224 6.7584C11.648 6.7584 11.6992 6.7328 11.7248 6.7584C11.776 6.784 11.776 6.8352 11.776 6.912C11.776 6.9632 11.7504 7.0144 11.6736 7.0144C11.5968 7.04 11.5456 7.04 11.4944 7.0656C11.392 7.0912 11.3408 7.1424 11.2896 7.2192C11.2384 7.296 11.2384 7.3984 11.264 7.4752C11.2896 7.5264 11.2896 7.5776 11.3152 7.6288C11.3664 7.7568 11.4176 7.9104 11.4688 8.0384C11.5712 7.9616 11.7248 7.9104 11.8528 7.8848C12.1344 7.8336 12.416 7.8336 12.6976 7.8848C12.8256 7.9104 12.928 7.9616 13.0048 8.064C13.056 8.1408 13.0816 8.2432 13.056 8.32C13.0304 8.4224 12.9536 8.5248 12.8512 8.576C12.416 8.832 11.8016 8.7296 11.4688 8.3456C11.392 8.4992 11.3664 8.6784 11.3408 8.8576C11.3408 9.1648 11.4176 9.4208 11.5968 9.6768L11.6224 9.6512C11.776 9.4464 12.0064 9.344 12.3136 9.3184C12.4928 9.2928 12.672 9.2928 12.8512 9.2928C12.9536 9.2928 13.056 9.2928 13.1328 9.2928C13.2352 9.2928 13.3376 9.2928 13.44 9.2928C13.6448 9.2928 13.8496 9.2928 14.08 9.2672C14.7712 9.1648 15.2576 8.6272 15.2832 7.936C15.2832 7.7312 15.232 7.5264 15.1552 7.3216C15.1296 7.296 15.1296 7.2448 15.1552 7.2192C15.1808 7.1936 15.232 7.1936 15.2576 7.1936C15.5392 7.2704 15.7696 7.1936 16 7.04Z" fill="white"/>
<path d="M20.4032 11.9296C20.7616 11.6224 21.0688 11.2384 21.3248 10.752C21.4784 10.4704 21.5808 10.1632 21.632 9.856C21.6832 9.5488 21.6576 9.2416 21.5808 8.8576C21.4784 8.32 21.2736 7.8336 20.992 7.3984C20.7616 7.04 20.4544 6.6816 20.0704 6.3488C19.7376 6.0672 19.3536 5.8112 18.9184 5.632C18.4832 5.4528 18.0736 5.376 17.6896 5.4016C17.1008 5.4272 16.5632 5.6064 16.0768 5.9392H16.1536C16.2816 5.9392 16.4096 5.9392 16.5376 5.9392C16.5888 5.9392 16.6144 5.9392 16.6656 5.9392C16.9984 5.9392 17.28 5.9648 17.536 6.0416C18.048 6.1696 18.5088 6.3744 18.8928 6.656C19.1232 6.8096 19.3024 6.9632 19.456 7.1168C19.5584 7.2192 19.6352 7.296 19.7376 7.3984C19.8656 7.5264 19.9936 7.7056 20.1216 7.8592C20.3776 8.2432 20.5568 8.704 20.6336 9.2416C20.6592 9.472 20.6848 9.7024 20.7104 9.9328C20.7104 10.1632 20.7104 10.3936 20.6848 10.5984C20.6592 10.7008 20.6336 10.8288 20.608 10.9312C20.5824 10.9824 20.5824 11.0592 20.5568 11.1104C20.48 11.4176 20.3776 11.7248 20.224 12.032C20.224 12.0576 20.1984 12.0832 20.1984 12.1088C20.224 12.0832 20.2496 12.0576 20.2752 12.032C20.3264 11.9808 20.3776 11.9552 20.4032 11.9296Z" fill="white"/>
<path d="M18.3552 5.0944C18.5856 5.1456 18.7648 5.1968 18.944 5.248C18.688 5.0688 18.432 4.9408 18.176 4.8384C17.8688 4.736 17.6128 4.6592 17.3824 4.6336C17.0496 4.5824 16.7424 4.5568 16.4096 4.5568C16.3328 4.5568 16.2816 4.5568 16.2304 4.5568H16.2048C16.0256 4.5568 15.8464 4.5568 15.6672 4.608C15.3344 4.6848 15.0528 4.864 14.8224 5.12C14.72 5.2224 14.6176 5.2992 14.464 5.3504C14.3616 5.376 14.2848 5.376 14.1824 5.4016C14.1312 5.4016 14.1056 5.4016 14.0544 5.4016C14.0032 5.4016 13.9776 5.4016 13.9264 5.4272C13.8496 5.4272 13.7472 5.4528 13.6704 5.4528C13.3888 5.5296 13.184 5.7088 13.0048 5.9136H13.8496C14.3872 5.9136 14.9248 5.9136 15.4368 5.9136C15.5392 5.9136 15.5904 5.888 15.6416 5.8368C15.6672 5.8112 15.6672 5.8112 15.6928 5.7856H15.7184C16 5.5296 16.3584 5.3248 16.7424 5.1968C17.3312 5.0176 17.8432 4.992 18.3552 5.0944Z" fill="white"/>
<defs>
<radialGradient id="paint0_radial" cx="0" cy="0" r="1" gradientUnits="userSpaceOnUse" gradientTransform="translate(11.187 10.6789) scale(19.6432)">
<stop stop-color="#028BF4"/>
<stop offset="0.1537" stop-color="#0387EF"/>
<stop offset="0.3256" stop-color="#057CE2"/>
<stop offset="0.5063" stop-color="#0869CC"/>
<stop offset="0.6919" stop-color="#0D4FAD"/>
<stop offset="0.7802" stop-color="#10409B"/>
<stop offset="0.8383" stop-color="#143E8E"/>
<stop offset="0.9455" stop-color="#1F386C"/>
<stop offset="1" stop-color="#253558"/>
</radialGradient>
</defs>
</svg>
