<svg xmlns="http://www.w3.org/2000/svg" width="32" height="32" viewBox="0 0 32 32">
  <g fill="none">
    <circle cx="16" cy="16" r="16" fill="#25AAE3"/>
    <path fill="#FFF" d="M27,15.9995187 C27,22.0750399 22.075417,27 16.000361,27 C9.92530489,27 5,22.0752806 5,15.9995187 C5,9.92375681 9.92530489,5 16.000361,5 C22.075417,5 27,9.92496007 27,16.0004813 L27,15.9995187 Z M23.2304621,16.3460588 C23.2369593,16.2206786 23.2304621,16.3460588 23.2304621,16.2194754 C23.2304621,12.6116082 20.5649549,9.4075565 17.1080011,8.86921613 L17.1080011,6.76952023 L14.8686574,7.46741342 L14.8686574,8.87017874 C11.4129068,9.4075565 8.76592836,12.3897263 8.76592836,15.9949463 C8.76592836,19.6858387 11.5368335,22.7250432 15.1102543,23.1603842 L15.1102543,25.2283139 L17.3508012,24.5304207 L17.3508012,23.0840972 C19.8842002,22.5984598 21.9454744,20.7906758 22.7913043,18.4033998 L20.4689418,18.4033998 C19.6098769,20.0015752 17.9302488,21.0888446 15.9890511,21.0888446 C13.2999617,21.0888446 11.1029696,19.0038286 10.9116653,16.3633858 L23.2304621,16.3460588 Z M11.2507192,14.1303682 C11.9950014,12.2407622 13.8344107,10.9012886 15.9890511,10.9012886 C18.1436916,10.9012886 19.9818977,12.2407622 20.7273831,14.1303682 L11.2507192,14.1303682 Z"/>
  </g>
</svg>
