<svg width="32" height="32" viewBox="0 0 32 32" fill="none" xmlns="http://www.w3.org/2000/svg">
<path d="M32 16C32 24.8365 24.8365 32 16 32C7.1635 32 0 24.8365 0 16C0 7.1635 7.1635 0 16 0C24.8365 0 32 7.1635 32 16Z" fill="#31363A"/>
<path d="M7.21098 23.9259C6.99224 23.926 6.77765 23.8662 6.59049 23.7529C6.45385 23.6714 6.33461 23.5638 6.2396 23.4361C6.14458 23.3085 6.07566 23.1634 6.03675 23.0091C5.99785 22.8548 5.98973 22.6944 6.01287 22.5369C6.036 22.3795 6.08994 22.2282 6.17159 22.0916L8.77937 17.7296C8.87351 17.5721 9.00216 17.438 9.15564 17.3375C9.30911 17.2369 9.48341 17.1725 9.66539 17.1491C9.84737 17.1257 10.0323 17.144 10.2062 17.2024C10.3801 17.2608 10.5385 17.358 10.6694 17.4865L12.1206 18.9162L14.2737 15.2333C14.3729 15.062 14.5125 14.9176 14.6803 14.8127C14.8482 14.7077 15.0392 14.6455 15.2366 14.6314C15.4341 14.6173 15.632 14.6517 15.813 14.7317C15.9941 14.8118 16.1528 14.9349 16.2753 15.0904L18.2269 17.5652L23.767 8.55804C23.9384 8.29058 24.2081 8.10111 24.5178 8.03041C24.8275 7.9597 25.1527 8.01341 25.4232 8.17997C25.6938 8.34654 25.8881 8.61265 25.9645 8.92105C26.0408 9.22945 25.9931 9.5555 25.8315 9.82905L19.3821 20.3145C19.28 20.4807 19.1393 20.6198 18.9719 20.7199C18.8046 20.8201 18.6155 20.8783 18.4208 20.8897C18.2261 20.901 18.0315 20.8652 17.8536 20.7852C17.6757 20.7053 17.5198 20.5835 17.3991 20.4303L15.4661 17.9841L13.4231 21.4769C13.3299 21.636 13.2017 21.7719 13.0482 21.8741C12.8946 21.9762 12.7198 22.042 12.537 22.0664C12.3542 22.0908 12.1682 22.0732 11.9932 22.0149C11.8182 21.9566 11.6589 21.8591 11.5273 21.7299L10.0704 20.2945L8.25181 23.3355C8.144 23.5153 7.99149 23.6642 7.80911 23.7677C7.62673 23.8712 7.42067 23.9257 7.21098 23.9259Z" fill="#EDBC83"/>
</svg>
