<svg height="32" viewBox="0 0 32 32" width="32" xmlns="http://www.w3.org/2000/svg"><g fill="none"><circle cx="16" cy="16" fill="#21a5de" r="16"/><path d="m21.490858 16.5748321c.3382119.3637603.544645.8487755.544645 1.3813723 0 1.1287571-.927221 2.0437956-2.071006 2.0437956-1.1437849 0-2.0710059-.9150385-2.0710059-2.0437956 0-.5325968.2064331-1.017612.544645-1.3813723-.1256242.0971655-.2839007.1550949-.4558876.1550949-.4084946 0-.7396449-.3267994-.7396449-.729927 0-.1697272.0587006-.3259242.1571598-.4498978-.3686034.3337683-.8600759.537489-1.3997634.537489s-1.03116-.2037207-1.3997634-.537489c.0984592.1239736.1571598.2801706.1571598.4498978 0 .4031276-.3311503.729927-.7396449.729927-.1719869 0-.3302634-.0579294-.4558876-.1550949.3382119.3637603.544645.8487755.544645 1.3813723 0 1.1287571-.927221 2.0437956-2.0710059 2.0437956-1.143785 0-2.07100596-.9150385-2.07100596-2.0437956 0-.5325968.20643306-1.017612.54464496-1.3813723-.1256242.0971655-.2839007.1550949-.4558876.1550949-.4084946 0-.73964493-.3267994-.73964493-.729927 0-.1697272.05870064-.3259242.15715982-.4498978-.36860334.3337683-.86007585.537489-1.39976337.537489-1.14378499 0-2.07100592-.9150384-2.07100592-2.0437956 0-1.1287571.92722093-2.0437956 2.07100592-2.0437956 1.14378498 0 2.07100588.9150385 2.07100588 2.0437956 0 .5325968-.206433 1.017612-.54464493 1.3813723.12562417-.0971655.28390074-.1550949.45588753-.1550949.4084947 0 .739645.3267994.739645.729927 0 .1697272-.0587006.3259242-.1571598.4498978.3686033-.3337683.8600758-.537489 1.3997634-.537489.5396875 0 1.03116.2037207 1.3997633.537489-.0984591-.1239736-.1571598-.2801706-.1571598-.4498978 0-.4031276.3311503-.729927.739645-.729927.1719868 0 .3302634.0579294.4558876.1550949-.338212-.3637603-.544645-.8487755-.544645-1.3813723 0-1.1287571.9272209-2.0437956 2.0710059-2.0437956s2.0710059.9150385 2.0710059 2.0437956c0 .5325968-.206433 1.017612-.544645 1.3813723.1256242-.0971655.2839008-.1550949.4558876-.1550949.4084947 0 .739645.3267994.739645.729927 0 .1697272-.0587007.3259242-.1571598.4498978.3686033-.3337683.8600758-.537489 1.3997633-.537489.5396876 0 1.0311601.2037207 1.3997634.537489-.0984592-.1239736-.1571598-.2801706-.1571598-.4498978 0-.4031276.3311503-.729927.739645-.729927.1719868 0 .3302634.0579294.4558875.1550949-.3382119-.3637603-.5446449-.8487755-.5446449-1.3813723 0-1.1287571.9272209-2.0437956 2.0710059-2.0437956s2.0710059.9150385 2.0710059 2.0437956c0 1.1287572-.9272209 2.0437956-2.0710059 2.0437956-.5396875 0-1.03116-.2037207-1.3997634-.537489.0984592.1239736.1571598.2801706.1571598.4498978 0 .4031276-.3311503.729927-.7396449.729927-.1719869 0-.3302634-.0579294-.4558876-.1550949z" fill="#fff"/></g></svg>