<svg width="32" height="33" viewBox="0 0 32 33" fill="none" xmlns="http://www.w3.org/2000/svg">
<g clip-path="url(#clip0)">
<path d="M16 32.7835C7.17696 32.7835 0 25.6065 0 16.7835C0 7.96047 7.17696 0.783508 16 0.783508C24.823 0.783508 32 7.96047 32 16.7835C32 25.6065 24.823 32.7835 16 32.7835ZM16 3.37423C8.60288 3.37423 2.59072 9.38639 2.59072 16.7835C2.59072 24.1806 8.60288 30.1928 16 30.1928C23.3971 30.1928 29.4093 24.1806 29.4093 16.7835C29.4093 9.38639 23.3971 3.37423 16 3.37423Z" fill="#E6201A"/>
<path d="M23.4752 11.4203C22.9056 10.0994 21.6614 9.26991 20.224 9.26991L11.7504 9.19183H11.7248C10.3258 9.19183 9.0944 9.98159 8.5376 11.2642C7.9552 12.5723 8.20096 14.0494 9.18528 15.099L10.3514 16.356L12.1139 14.4514L11.0899 13.3378C10.688 12.8974 10.8442 12.4443 10.9082 12.301C10.9734 12.1461 11.2064 11.7698 11.7248 11.7698H11.7376L20.2099 11.8478C20.7923 11.8478 21.0394 12.301 21.1034 12.4443C21.1814 12.6133 21.3107 13.0536 20.9485 13.4414L16.7514 18.0021C16.5184 18.2478 16.233 18.2875 16.0909 18.2875C15.8182 18.2875 15.5597 18.171 15.3779 17.9637L14.665 17.1995L12.9024 19.1042L13.472 19.7134C14.1453 20.4392 15.104 20.8667 16.0896 20.8667C17.0611 20.8667 18.007 20.452 18.6547 19.739L22.8518 15.1784C23.799 14.1659 24.032 12.7157 23.4752 11.4203Z" fill="#E6201A"/>
<path d="M22.9823 18.2351L21.7906 16.9397L19.7567 19.1426L20.7807 20.2562C21.0534 20.5544 20.9753 20.8783 20.8972 21.046C20.846 21.1624 20.6514 21.5247 20.1842 21.5247L11.712 21.6028C11.2845 21.6028 11.1155 21.3173 11.0643 21.1881C10.999 21.0588 10.8953 20.7093 11.2064 20.3714L15.4816 15.7467C15.6364 15.5778 15.831 15.4882 16.0511 15.4882C16.1676 15.4882 16.3878 15.5138 16.5695 15.7083L17.4502 16.667L19.4841 14.4641L18.7711 13.6872C18.071 12.9358 17.0867 12.4955 16.0639 12.4955C15.0144 12.4955 14.0172 12.9358 13.3043 13.7128L9.02912 18.3375C7.99233 19.4511 7.73377 21.0063 8.34305 22.3925C8.93952 23.7404 10.2349 24.5826 11.712 24.5826L20.2111 24.5046C21.7138 24.4918 23.0348 23.6239 23.6313 22.2249C24.2392 20.8514 23.9935 19.3231 22.9823 18.2351Z" fill="#E6201A"/>
</g>
<defs>
<clipPath id="clip0">
<rect width="32" height="32" fill="white" transform="translate(0 0.783508)"/>
</clipPath>
</defs>
</svg>
