<?xml version="1.0" encoding="UTF-8"?>
<svg width="32px" height="32px" viewBox="0 0 32 32" version="1.1" xmlns="http://www.w3.org/2000/svg" xmlns:xlink="http://www.w3.org/1999/xlink">
    <!-- Generator: Sketch 52.5 (67469) - http://www.bohemiancoding.com/sketch -->
    <title>svg/color/zen</title>
    <desc>Created with Sketch.</desc>
    <g id="color/zen" stroke="none" stroke-width="1" fill="none" fill-rule="evenodd">
        <g id="Group" fill="#16203A" fill-rule="nonzero">
            <circle id="Oval" cx="16" cy="16" r="16"></circle>
        </g>
        <g id="zen" transform="translate(4.000000, 4.000000)" fill="#FFFFFF">
            <g id="Group" opacity="0.7" transform="translate(5.520000, 5.520000)">
                <g id="g24" transform="translate(1.840000, 6.440000)">
                    <path d="M4.0848,1.1224 C2.60524992,1.5176542 1.21749913,2.19902734 -8.8817842e-16,3.128 C1.04018972,4.64063329 2.76430963,5.53717564 4.6,5.52 C7.26930836,5.53409395 9.56625719,3.63610925 10.0556,1.012 C9.09493118,0.822081081 8.11844403,0.723508245 7.1392,0.7176 C6.1026216,0.714427508 5.06992107,0.844288054 4.0664,1.104" id="Path"></path>
                    <g id="g26">
                        <g id="g32">
                            <g id="g34">
                                <path d="M4.0848,1.1224 C2.60524992,1.5176542 1.21749913,2.19902734 -8.8817842e-16,3.128 C1.04018972,4.64063329 2.76430963,5.53717564 4.6,5.52 C7.26930836,5.53409395 9.56625719,3.63610925 10.0556,1.012 C9.09493118,0.822081081 8.11844403,0.723508245 7.1392,0.7176 C6.1026216,0.714427508 5.06992107,0.844288054 4.0664,1.104" id="path44"></path>
                            </g>
                        </g>
                    </g>
                </g>
                <g id="g46">
                    <path d="M13.616,2.8796 C14.1667533,3.98564934 14.4533361,5.20441335 14.4532,6.44 C14.4532,8.56523278 13.6089546,10.6034216 12.1061881,12.1061881 C10.6034216,13.6089546 8.56523278,14.4532 6.44,14.4532 C5.20510598,14.45653 3.98630386,14.1730877 2.8796,13.6252 L0.0276,15.4652 C1.90204169,16.7903127 4.14451899,17.4949074 6.44,17.48 C12.5372236,17.48 17.48,12.5372236 17.48,6.44 C17.4862257,4.13163828 16.7687236,1.87938961 15.4284,0 L13.616,2.8796 Z" id="Path"></path>
                    <g id="g48">
                        <g id="g54">
                            <g id="g56">
                                <path d="M13.616,2.8796 C14.1667533,3.98564934 14.4533361,5.20441335 14.4532,6.44 C14.4532,8.56523278 13.6089546,10.6034216 12.1061881,12.1061881 C10.6034216,13.6089546 8.56523278,14.4532 6.44,14.4532 C5.20510598,14.45653 3.98630386,14.1730877 2.8796,13.6252 L0.0276,15.4652 C1.90204169,16.7903127 4.14451899,17.4949074 6.44,17.48 C12.5372236,17.48 17.48,12.5372236 17.48,6.44 C17.4862257,4.13163828 16.7687236,1.87938961 15.4284,0 L13.616,2.8796 Z" id="path64"></path>
                            </g>
                        </g>
                    </g>
                </g>
            </g>
            <g id="g68">
                <g id="g74">
                    <path d="M4.4068,14.6372 C3.31193672,11.5516713 4.20427957,8.11041848 6.66056401,5.94572922 C9.11684845,3.78103997 12.6429759,3.32835652 15.5664,4.8024 L18.4184,2.9624 C13.993147,-0.281079763 7.85746798,0.21739748 4.01380863,4.13266346 C0.170149287,8.04792944 -0.215001102,14.1917634 3.1096,18.5564 C5.93481988,13.4192755 11.7917168,10.7393808 17.526,11.96 C17.3176782,8.91138818 14.6774118,6.60887819 11.6288,6.8172 C8.58018818,7.02552181 6.27767819,9.66578818 6.486,12.7144 C5.73624485,13.2810134 5.04302068,13.9187796 4.416,14.6188" id="path76"></path>
                </g>
            </g>
        </g>
    </g>
</svg>