<svg width="32" height="32" viewBox="0 0 32 32" xmlns="http://www.w3.org/2000/svg"><g fill="none" fill-rule="evenodd"><circle cx="16" cy="16" r="16" fill="#16203A" fill-rule="nonzero"/><g fill="#FFF"><g opacity=".7"><path d="M15.445 17.082a11.72 11.72 0 00-4.085 2.006 5.52 5.52 0 004.6 2.392 5.52 5.52 0 005.456-4.508 15.52 15.52 0 00-2.917-.294 12.116 12.116 0 00-3.073.386"/><path d="M15.445 17.082a11.72 11.72 0 00-4.085 2.006 5.52 5.52 0 004.6 2.392 5.52 5.52 0 005.456-4.508 15.52 15.52 0 00-2.917-.294 12.116 12.116 0 00-3.073.386"/><path d="M23.136 12.4a8.013 8.013 0 01-7.176 11.574 7.976 7.976 0 01-3.56-.829l-2.852 1.84A10.985 10.985 0 0015.96 27C22.057 27 27 22.057 27 15.96a11.04 11.04 0 00-2.052-6.44l-1.812 2.88z"/><path d="M23.136 12.4a8.013 8.013 0 01-7.176 11.574 7.976 7.976 0 01-3.56-.829l-2.852 1.84A10.985 10.985 0 0015.96 27C22.057 27 27 22.057 27 15.96a11.04 11.04 0 00-2.052-6.44l-1.812 2.88z"/></g><path d="M8.407 18.637a8.013 8.013 0 0111.16-9.835l2.851-1.84A11.04 11.04 0 007.11 22.556a13.294 13.294 0 0114.416-6.596 5.533 5.533 0 00-11.04.754 14.582 14.582 0 00-2.07 1.905"/></g></g></svg>