<svg height="32" viewBox="0 0 32 32" width="32" xmlns="http://www.w3.org/2000/svg"><g fill="none" fill-rule="evenodd"><circle cx="16" cy="16" fill="#234871" r="16"/><path d="m18.665794 17.298457-1.3446781-.804707v-3.6268382l-3.1603219-1.8455883v-1.67239054l4.505 2.62061054zm-1.8346137-3.669323v1.5341013l-3.2154078 1.8882353v3.7404412l-1.2998068.7770226v-5.2873044zm-2.2965017 3.4846213 1.4446776-.8347112 3.0877253 1.8389706 3.1088842-1.8389706 1.4001284.8368664-4.5237513 2.6644434zm4.5174459 3.1351418 4.918691-2.8970589v5.7727942l-4.918691 2.8753676-4.918691-2.8904412v-5.7639706zm-7.1374464-4.1996324v5.7595588l-4.9146781-2.8625v-5.7830882l4.8975322-2.8863971 4.9336481 2.8841912zm12.0561374-7.18860294v5.79375004l-4.903734 2.8841911v-5.8025735l-4.9062875-2.85404411 4.9124893-2.88198529z" fill="#fff" fill-rule="nonzero"/></g></svg>