<?xml version="1.0" encoding="UTF-8"?>
<svg width="32px" height="32px" viewBox="0 0 32 32" version="1.1" xmlns="http://www.w3.org/2000/svg" xmlns:xlink="http://www.w3.org/1999/xlink">
    <!-- Generator: Sketch 52.5 (67469) - http://www.bohemiancoding.com/sketch -->
    <title>svg/color/zest</title>
    <desc>Created with Sketch.</desc>
    <g id="color/zest" stroke="none" stroke-width="1" fill="none" fill-rule="evenodd">
        <g id="Group" fill="#07BC9C" fill-rule="nonzero">
            <circle id="Oval" cx="16" cy="16" r="16"></circle>
        </g>
        <g id="zest" transform="translate(8.000000, 3.000000)" fill="#FFFFFF">
            <path d="M15.8968421,3.69473684 C15.3284211,3.55263158 14.0021053,3.57157895 13.5947368,4.13052632 C14.0021053,4.35789474 14.2863158,4.70842105 14.7031579,4.71789474 C15.12,4.72736842 15.6031579,4.32947368 16.1336842,4.55684211 C15.9063158,4.55684211 14.8831579,4.74631579 14.8168421,5.05894737 C14.9602859,5.29386413 15.1321045,5.51022827 15.3284211,5.70315789 C15.5936842,5.92105263 15.6221053,5.99684211 16.02,5.77894737 C16.5071916,5.47148008 16.8748312,5.00691732 17.0621053,4.46210526 C17.0621053,4.17789474 17.1473684,4.36736842 16.9389474,4.13052632 C16.6331598,3.90097463 16.2750108,3.75120325 15.8968421,3.69473684 Z" id="Path"></path>
            <path d="M10.5536842,4.19684211 C11.3232656,3.7863712 12.2174636,3.67501825 13.0642105,3.88421053 C12.9822269,2.97159422 12.5553332,2.12458286 11.8705263,1.51578947 C12.6902197,2.02546241 13.2679881,2.84596187 13.4715789,3.78947368 C13.9357895,3.71368421 14.4189474,3.53368421 14.8642105,3.46736842 C14.7840435,2.56014534 14.3845505,1.71080303 13.7368421,1.07052632 C13.4242105,0.776842105 12.5431579,0 12.0410526,0 C11.5389474,0 10.8852632,1.13684211 10.6957895,1.60105263 C10.3715999,2.42875772 10.3217858,3.33869425 10.5536842,4.19684211 Z" id="Path"></path>
            <path d="M10.4305263,5.68421053 C10.26,5.27684211 11.0084211,5.11578947 11.2357895,5.14421053 C11.6431955,5.26374933 12.0165274,5.47800941 12.3252632,5.76947368 C12.9221053,6.21473684 14.0968421,7.53157895 14.9589474,7.21894737 C15.8210526,6.90631579 14.7978947,5.38105263 14.3242105,4.98315789 C13.5391307,4.24251144 12.4504973,3.91592143 11.3873684,4.10210526 C10.9089973,4.24586441 10.5177102,4.59213618 10.3168421,5.04947368 C10.26,5.25789474 10.0515789,5.68421053 10.4305263,5.68421053 Z" id="Path"></path>
            <path d="M14.3905263,11.3684211 C13.86,11.0463158 13.6705263,10.0989474 13.3389474,9.57789474 C12.8842105,8.84842105 12.2210526,8.25157895 11.8231579,7.49368421 C11.4252632,6.73578947 11.3778947,6.15789474 10.6957895,5.79789474 C10.1651048,5.51828105 9.53068465,5.51828105 9,5.79789474 C8.15289371,6.18239627 7.26213182,6.46235001 6.34736842,6.63157895 C5.94153609,6.72745391 5.54271578,6.85089829 5.15368421,7.00105263 C4.82931774,7.1837708 4.49024192,7.33904851 4.14,7.46526316 C3.26842105,7.58842105 1.65789474,6.51789474 1.80947368,8.17578947 C1.80947368,8.47894737 2.12210526,8.64 2.02736842,9.02842105 C1.93263158,9.41684211 1.51578947,9.75789474 1.31684211,10.0610526 C0.908386263,10.7468171 0.589976266,11.4823442 0.369473684,12.2494737 C-0.168949451,13.9866825 -0.0647126228,15.8595829 0.663157895,17.5263158 C1.01379088,18.3461037 1.47953121,19.1117043 2.04631579,19.8 C2.32263196,20.1229375 2.56693628,20.4719437 2.77578947,20.8421053 C2.93560099,21.279551 3.1353935,21.7013352 3.37263158,22.1021053 C3.7906513,22.6269127 4.46813108,22.8722703 5.12526316,22.7368421 C5.45616236,22.6229618 5.77379381,22.473675 6.07263158,22.2915789 C6.58366226,22.088618 7.11851129,21.9517222 7.66421053,21.8842105 C9.65477922,21.572183 11.4705303,20.565297 12.7894737,19.0421053 C13.4141782,18.2880551 13.89868,17.4281448 14.22,16.5031579 C14.4067041,15.9869811 14.5431267,15.4539812 14.6273684,14.9115789 C14.6747368,14.5705263 14.5705263,13.7084211 14.8168421,13.4810526 C14.9778947,13.3294737 15.3568421,13.2915789 15.4705263,13.1494737 C15.556997,12.9610994 15.6236704,12.764254 15.6694737,12.5621053 C15.8494737,12.0031579 14.7978947,11.5578947 14.3905263,11.3684211 Z M15.1105263,12.7231579 C14.9684211,13.0452632 14.4094737,13.2347368 14.1631579,13.5757895 C13.8089096,14.2148814 13.3362946,14.7807333 12.7705263,15.2431579 C11.595561,15.8551155 10.1514492,15.5448105 9.33157895,14.5042105 C8.91201109,13.9801494 8.68465122,13.3281616 8.68736842,12.6568421 C8.68736842,12.1357895 9.25578947,10.8284211 8.68736842,10.5442105 C8.11894737,10.26 7.85368421,11.1789474 7.63578947,11.4915789 C7.25474959,12.1247204 6.6752639,12.6142859 5.98736842,12.8842105 C4.89636717,13.2537556 3.69049516,12.9914511 2.85157895,12.2021053 C2.29403554,11.4084516 2.1300193,10.4034159 2.40631579,9.47368421 C2.41893001,9.00628292 2.37760443,8.53898597 2.28315789,8.08105263 C2.28315789,7.39894737 2.88,7.64526316 3.36315789,7.74 C4.5604692,7.95316532 5.69783191,8.42168121 6.69789474,9.11368421 C7.63718963,9.89430168 8.76366208,10.4167237 9.96631579,10.6294737 C10.7712775,10.7045767 11.569366,10.8407585 12.3536842,11.0368421 C12.7421053,11.1505263 13.1021053,11.34 13.4810526,11.4726316 C13.8816708,11.6021655 14.2687532,11.7703242 14.6368421,11.9747368 C14.8926316,12.0884211 15.2621053,12.3157895 15.12,12.6852632 L15.1105263,12.7231579 Z" id="Shape" fill-rule="nonzero"></path>
        </g>
    </g>
</svg>