<svg height="32" viewBox="0 0 32 32" width="32" xmlns="http://www.w3.org/2000/svg"><g fill="none"><circle cx="16" cy="16" fill="#00004d" r="16"/><path d="m15.5045214 6.27364147c-.0919913.39008152-.367965 1.62100541-.4934077 2.44451084-.050177.33807064-.259248.78883151.3261509 1.03154889-.1338055.02600544-.1756197.04334239-.2174339.03467392-.4181421-.05201087-.844647-.11269022-1.2627891-.16470109-.0919912-.00866848-.209071-.02600543-.2926994.01733696-.5603104.29472825-.8111956.99687501-.526859 1.59500001.158894.3380706.209071.6501358.1421683 1.0055434-.0167257.0866848.0167257.1907065.050177.2687228.3261508.7975.3846907 1.595.1254427 2.4271739-.0418143.1300272-.0167257.2860598-.0083629.4247555.0167257.2687228.0334514.5374456.0585399.8061684-.4097792-.3294021-.8613727-.6241304-1.2042492-1.0228804-.3345136-.3900815-.5101333-.9015217-.4683191-1.4649728.0083629-.1040217-.0752655-.2253804-.1421683-.3207337-.1923453-.2860598-.418142-.5461141-.577036-.8495109-.2257968-.4334239-.5017705-.6154619-.953364-.4767662-.22579667.0693478-.4348677.2167119-.62721305.364076-.16725683.1213587-.30942513.2773913-.45995628.416087-.01672568-.017337-.04181421-.0346739-.05853989-.0520109.02508852-.0606793.03345137-.1300272.06690273-.1907065.23415956-.4334239.22579672-.4247554-.10035409-.7888315-.62721311-.7021467-1.1707978-1.4563043-1.40495736-2.40983693-.11707978-.4767663-.25924808-.94486412-.3846907-1.41296194-.6272131.78016303-.71084152 3.58874997-.09199126 4.69831517-.19234535-.9795381-.3846907-1.9070652-.16725682-2.86059781.0418142.21671191.06690273.42475541.07526557.64146741.03345136.7714945.21743388 1.4996467.54358469 2.1844565.06690273.1473641.25924808.2340489.40141639.3380706.05017704.0346739.11707977.0520109.17561966.0780163-.00836284.0346739-.00836284.0693478-.01672568.0953533-.30942513-.017337-.61048742-.0520109-.91991255-.0606794-.20070819-.0086685-.43486775-.0606793-.59376174.0260055-.20907103.1126902-.37632786.3294021-.49340764.5461141-.03345137.0606793.13380546.3033967.25924808.39875.33451366.2513858.56031038.5287771.51013333.996875-.00836284.1126902.11707978.3120652.22579671.3554076.30106229.1126902.38469071.3380706.43486776.6241304.03345136.182038.05853989.4160869.17561967.5201087.37632786.3467391.49340764.7628261.50177048 1.2655978.00836284.3207337.17561967.6501358.13380546.9622011-.03345137.2687228.01672568.4680978.12544262.6241304h-.00836284c.00836284.0086685.01672568.0173369.02508852.0260054.06690273.1040218.15889399.1907065.26761093.2687228.12544262.1213587.21743387.2080435.21743387.2080435s.37632787.4074185.38469071.8061685-.02508853.4507608.09199125.8061684c.11707978.3467392.27597377.6241305.32615082.9188587.05017704.2947283-.05853989.3814131.11707978.5721196.17561966.1907065.36796497.3207337.56867317.5374456.1923454.2253805.4683192.3033968.6523017.4941033s.4766819.5461141.7024786.7714945c.1170798.1213587.2759738.216712.3930536.2860598.0334514.0346739.050177.0520109.0418142.0693478-.158894.3467392.1672568.3380707.2926994.4507609.2174339.1907065.5268591.3120652.685753.5461141.2843366.4247555.6523017.6414674 1.1122579.7714946.0418142.0086685.0919913.0173369.108717.0433424.0585399.0693478.1003541.1560326.1505311.2340489-.0167257.0260054-.0418142.0520108-.0585399.0780163.4599563.1647011.9199126.3380706 1.3798689.4941032.0919912.0346739.209071.0346739.2926994.0086685.3846907-.1300272.7693814-.2687228 1.1540721-.4074185.0752656-.0260054.1923454-.1040217.1839825-.1386956-.0585399-.2773913.1672569-.2340489.2926995-.3033967.3010623-.1647011.6523016-.2860598.8780983-.5201087.2759738-.2947283.526859-.598125.8948241-.7975.1505311-.0866848.4515934-.1213587.3010622-.4507609-.0083628-.0173369.0752656-.0866848.1170798-.1300272.0585399-.0520108.1254426-.0953532.2090711-.164701.0585398-.0260055.1254426-.0693479.2341595-.1473642.2425224-.1907065.7442929-.6674728.9450011-.9188586.2007082-.2513859.526859-.5634511.526859-.5634511s-.209071-.4941033-.0752656-.9275272l.7108415-.5287772c.1505312-.3207336.1923454-.4420923.3596022-.7714945.158894-.3294022.2007082-.9622011.4265049-1.2135869.2007082-.216712.4432306-.3900816.4348678-.5287772.050177-.1300272.0669027-.2773913.050177-.4594294-.0250885-.2253804.0501771-.4594293.0752656-.6848097.0167257-.1907065 0-.3814131.0501771-.5634511.0836284-.2947283.1421683-.6414674.3261508-.8495109.2007082-.2253804.3345136-.4247554.3596021-.7281521.0250886-.2600544.1254427-.4680978.3846907-.5894565.1254427-.0606794.2508853-.2687229.2508853-.4074185-.0083629-.3900815.1170798-.6674728.4348677-.8755163.0919913-.0606793.158894-.1647011.2508853-.2340489.1505311-.1126902.1254426-.2427174.0418142-.3900815-.2174339-.3900815-.5435847-.5287772-.9784525-.4507609-.3261508.0606794-.8195584.0953533-.9951781.0953533-.1756196 0-.050177-.1300272-.050177-.1300272.6188502-.017337.6941158-.5287772.8362841-.9448641.1170798-.3467391.1839825-.7108152.2425224-1.0748913.0585399-.3467391.0585399-.5114402.1254426-1.04888586.0669028-.53744564.2257968 1.04021736-.0250885 2.33182066.5017705-.7628261.3428765-3.52807064-.2174339-4.34290758-.0167256.01733695-.0334513.02600543-.0334513.04334239-.0250886.10402174-.0418142.20804347-.0669028.31206521-.2425224 1.32627715-.7442928 2.51385868-1.6725682 3.48472818-.3428765.3554076-.3261509.3640761-.0919913.8235055.0250885.0433423.0250885.1040217.0334514.164701-.2007082-.0953532-.3512394-.2340489-.5017705-.364076-.2843366-.2600544-.6021246-.3900816-.9951781-.3814131-.4014164 0-.5101334.2947283-.6272131.5807881-.2174339.5201086-.7275672.8408423-.7442929 1.5343206-.0250885 1.0142119-.9282754 1.5256521-1.5136743 2.2017934-.0083629.0086685-.0334514-.0086685-.0669027-.0086685-.0083629-.0346739-.0334514-.0780163-.0250886-.1126902 0-.6241304.1672569-1.2569293-.1087169-1.8550543-.0167257-.0346739-.0083628-.0866848 0-.1213587.1087169-.8755163.209071-1.7423641.3261508-2.6092119.0167257-.1126902.0752656-.216712.1254426-.3207337.2926995-.6241304.0752656-1.33494562-.5184961-1.64701083-.0669028-.03467392-.158894-.0433424-.2341596-.03467392-.3261508.04334239-.6439388.10402174-.9617268.14736413-.1588939.02600544-.3261508.02600544-.4850448.03467391-.0083628-.02600543-.0167256-.05201087-.0250885-.06934782.2676109-.08668478.4014164-.25138587.3428765-.54611412-.2007082-.99687499-.4014164-2.00241845-.6021246-2.99929344-.0167256-.0780163-.0334513-.46809782.0585399-.26872282.0919913.20804348.3846907 1.10089672.5519476 1.6643478.1588939.54611412.2843366 1.1095652.4265049 1.6643478-.2341596-1.55165758-.5937618-3.05997278-1.480223-4.4382608-.2425224.29472826-.4515934.68480977-.5603103.97953803-.108717.29472826-.4181421 1.27426628-.6021246 1.90706519-.1421683.49410325-.5101333 1.4649728-.3512393 1.49097824.1588939.02600543.9366382-2.88660322.9868152-3.0946467.0501771-.20804347.1421683-.19937499.0501771.19070652z" fill="#fff"/></g></svg>