<svg xmlns="http://www.w3.org/2000/svg" width="32" height="32" viewBox="0 0 32 32"><g fill="none"><circle cx="16" cy="16" r="16" fill="#00004D"/><path fill="#FFF" d="M15.505 6.274c-.092.39-.368 1.62-.494 2.444-.05.338-.26.789.326 1.032-.134.026-.175.043-.217.034-.418-.052-.845-.112-1.263-.164-.092-.009-.209-.026-.293.017-.56.295-.81.997-.527 1.595.16.338.21.65.143 1.006a.499.499 0 0 0 .05.268c.326.798.385 1.595.125 2.427-.042.13-.016.287-.008.425.017.269.033.538.058.806-.41-.329-.86-.624-1.204-1.023a1.993 1.993 0 0 1-.468-1.464c.008-.104-.075-.226-.142-.321-.193-.286-.418-.546-.577-.85-.226-.433-.502-.615-.954-.476-.225.069-.435.216-.627.364-.167.12-.31.277-.46.416-.017-.018-.042-.035-.058-.052.025-.061.033-.13.067-.191.234-.433.225-.425-.1-.789-.628-.702-1.172-1.456-1.406-2.41-.117-.476-.26-.945-.384-1.413-.628.78-.711 3.59-.092 4.699-.193-.98-.385-1.907-.168-2.861.042.217.067.425.076.642.033.771.217 1.5.543 2.184.067.147.26.234.402.338.05.035.117.052.175.078-.008.035-.008.07-.017.095-.309-.017-.61-.052-.92-.06-.2-.009-.434-.061-.593.026-.21.112-.377.33-.494.546-.033.06.134.303.26.399.334.251.56.528.51.996-.009.113.117.313.226.356.3.113.384.338.434.624.034.182.059.416.176.52.376.347.493.763.502 1.266.008.32.175.65.134.962-.034.269.016.468.125.624h-.008l.025.026c.067.104.159.19.267.269l.218.208s.376.407.384.806c.009.399-.025.45.092.806.118.347.276.624.327.919.05.295-.059.381.117.572.175.19.368.32.568.538.193.225.469.303.653.494.184.19.476.546.702.771.117.122.276.217.393.286.034.035.05.052.042.07-.159.346.167.338.293.45.217.191.527.312.685.546.285.425.653.642 1.113.772.042.009.092.017.108.043.059.07.1.156.151.234-.017.026-.042.052-.059.078.46.165.92.338 1.38.494.092.035.21.035.293.01.385-.13.77-.27 1.154-.408.075-.026.192-.104.184-.139-.058-.277.167-.234.293-.303.3-.165.652-.286.878-.52.276-.295.527-.599.895-.798.15-.087.451-.121.3-.45-.008-.018.076-.087.118-.13.058-.053.125-.096.209-.165.058-.026.125-.07.234-.148a7.87 7.87 0 0 0 .945-.919c.2-.251.527-.563.527-.563s-.21-.494-.075-.928l.71-.528c.151-.321.193-.443.36-.772.159-.33.2-.962.427-1.214.2-.216.443-.39.434-.528a.995.995 0 0 0 .05-.46c-.024-.225.05-.46.076-.685.017-.19 0-.381.05-.563.084-.295.142-.641.326-.85.2-.225.335-.424.36-.728.025-.26.125-.468.385-.59.125-.06.25-.268.25-.407-.008-.39.117-.667.435-.875.092-.06.16-.165.251-.234.15-.113.126-.243.042-.39-.217-.39-.544-.529-.978-.45-.327.06-.82.094-.996.094-.175 0-.05-.13-.05-.13.619-.017.694-.528.836-.944.118-.347.184-.711.243-1.075.059-.347.059-.512.125-1.05.067-.537.226 1.041-.025 2.333.502-.763.343-3.529-.217-4.343-.017.017-.034.026-.034.043-.025.104-.041.208-.066.312-.243 1.326-.745 2.514-1.673 3.485-.343.355-.326.364-.092.823.025.044.025.104.033.165-.2-.095-.35-.234-.501-.364a1.36 1.36 0 0 0-.996-.381c-.4 0-.51.294-.627.58-.217.52-.727.841-.744 1.535-.025 1.014-.928 1.525-1.514 2.201-.008.01-.033-.008-.067-.008-.008-.035-.033-.078-.025-.113 0-.624.168-1.257-.108-1.855-.017-.035-.009-.087 0-.121.108-.876.209-1.743.326-2.61.016-.112.075-.216.125-.32.293-.624.075-1.335-.518-1.647a.432.432 0 0 0-.234-.035c-.327.043-.644.104-.962.147-.16.026-.326.026-.485.035-.009-.026-.017-.052-.025-.07.267-.086.401-.25.343-.545l-.603-3c-.016-.078-.033-.468.059-.268.092.208.385 1.1.552 1.664.159.546.284 1.11.426 1.664-.234-1.551-.593-3.06-1.48-4.438a3.67 3.67 0 0 0-.56.98 43.68 43.68 0 0 0-.602 1.907c-.142.494-.51 1.465-.351 1.49.158.027.936-2.886.986-3.094.05-.208.143-.2.05.19z"/></g></svg>