<svg width="32" height="32" viewBox="0 0 32 32" fill="none" xmlns="http://www.w3.org/2000/svg">
<path d="M32 16C32 24.8365 24.8365 32 16 32C7.1635 32 0 24.8365 0 16C0 7.1635 7.1635 0 16 0C24.8365 0 32 7.1635 32 16Z" fill="#D62825"/>
<path d="M13.5338 21.0386L11.6945 21.791L29 9H9.10289C7.51447 9 6.17685 10.3376 6.17685 12.0096C6.17685 12.7621 6.42765 13.2637 6.42765 13.2637C10.1061 10.3376 15.5402 10.4212 18.4662 10.4212L20.3055 9.66881L3 22.3762H25.6559C27.2444 22.3762 28.582 21.0386 28.582 19.4502C28.582 17.7781 27.9132 16.8585 27.9132 16.8585C24.9035 20.4534 19.135 21.0386 13.5338 21.0386Z" fill="white"/>
</svg>
