<svg id="Слой_1" data-name="Слой 1" xmlns="http://www.w3.org/2000/svg" viewBox="0 0 948.6 948.67"><defs><style>.cls-1{fill:#f1cb60;}.cls-2{fill:#eabe52;}</style></defs><title>2Give coin (2GIVE)</title><rect class="cls-1" x="207.35" y="506.1" width="24.26" height="24.26"/><rect class="cls-1" x="328.68" y="530.37" width="24.26" height="24.26"/><rect class="cls-1" x="304.42" y="554.63" width="24.26" height="24.26"/><path class="cls-1" d="M315.14,687.52H218.08V808.85H339.41V687.52Zm0,97.07h-72.8v-72.8h72.8Z" transform="translate(-10.71 -11.56)"/><polygon class="cls-1" points="231.63 651.69 255.89 651.69 280.15 651.69 280.15 627.43 304.42 627.43 304.42 578.9 280.15 578.9 280.15 554.63 255.89 554.63 255.89 530.37 231.63 530.37 231.63 578.9 207.35 578.9 207.35 627.43 231.63 627.43 231.63 651.69"/><rect class="cls-1" x="328.68" y="578.9" width="24.26" height="24.26"/><path class="cls-1" d="M242.31,420.61h24.26V299.27H145.24V420.61ZM169.5,396.27V323.53h72.81v72.74Z" transform="translate(-10.71 -11.56)"/><rect class="cls-1" x="401.48" y="700.24" width="24.26" height="24.26"/><rect class="cls-1" x="255.89" y="506.1" width="24.26" height="24.26"/><rect class="cls-1" x="304.38" y="336.2" width="24.26" height="24.26"/><polygon class="cls-1" points="328.68 651.69 352.96 651.69 352.96 627.43 328.68 627.43 304.42 627.43 304.42 651.69 328.68 651.69"/><polygon class="cls-1" points="377.22 360.5 377.22 360.46 377.19 360.46 377.19 384.71 401.44 384.71 401.44 409.04 401.48 409.04 401.48 360.5 377.22 360.5"/><path class="cls-1" d="M342.48,132.4l-2.77-.08c-2-.08-4-.12-5.9-.12-17.58,0-30.06,3.35-37,10-4.77,4.6-7.1,11.37-7.1,20.7,0,34.73,16.31,42.38,44.46,43.87,23.52,1.24,78.61.87,114.52.45-16.15-24.72-36-44-59.42-57.68C363.62,134.57,343.79,132.56,342.48,132.4Z" transform="translate(-10.71 -11.56)"/><rect class="cls-1" x="401.48" y="336.23" width="24.26" height="24.26"/><path class="cls-1" d="M388.74,247.63c-22.53,0-43.76-.23-56.64-.91-14.75-.78-33.81-3.11-50.55-14.32-21.11-14.15-31.82-37.53-31.82-69.51,0-14.1,3.37-34.13,19.38-49.54,23.79-22.89,60.18-21.49,72.13-21h1.6c7.4,0,33.5,3.83,64.38,21.29,29.49,16.67,55.95,37.45,76.08,68.27l1.7,3V11.56c-262,0-474.3,212.32-474.3,474.32S223.06,960.19,485,960.19V248.32C479.74,248.4,430.71,247.63,388.74,247.63ZM339.37,275H388v24.26H339.37ZM169.5,444.86H121V275H290.84V444.86Zm242.7,388.21H388V784.59h24.27ZM485,493.34H460.74V517.6H485V663.26H460.74V639H388v48.52h24.27V663.26h24.26v24.26h24.27v48.54h-24.3V760.4H485v72.67H460.74V784.59H436.47V760.33H388V687.52H363.62V833.07H193.81V663.26h24.27V639H193.81V517.65h24.27V493.39H193.81V469.13h24.27v24.26h24.26V469.13h48.54v24.26h24.26V469.13H388v24.26H315.14v24.26h48.48V542H388v48.47h24.27v24.26h48.54v-72.8h-24.3v24.26H412.21V541.93h24.26V493.39h24.27V469.13H485Zm0-97.07H460.74V372.06H436.47v48.55h24.27v24.26H436.47V420.61H412.21v24.26H388v-48.6H363.62V372H339.37v48.59h24.25V445H339.37V420.61H315.11V445H290.84V420.61h24.27V372H290.84V347.76h24.27V323.5H290.84V275h24.27V323.5h24.26v24.26h24.25V323.5H388v24.26H412.3V323.42H388V275h24.27v48.54h24.26v24.34h24.27V323.53H485Zm0-97.06H436.47V275H485Z" transform="translate(-10.71 -11.56)"/><polygon class="cls-2" points="668.41 530.37 668.41 506.1 644.15 506.1 644.15 578.9 668.41 578.9 668.41 554.63 692.68 554.63 692.68 530.37 668.41 530.37"/><path class="cls-2" d="M727.66,687.52H630.59v72.81h0v48.51H751.91V687.52Zm0,97.06H654.85v-72.8h72.8Z" transform="translate(-10.71 -11.56)"/><polygon class="cls-2" points="595.61 336.2 595.61 311.97 571.35 311.97 571.35 360.5 595.61 360.5 595.61 360.46 619.88 360.46 619.88 336.2 595.61 336.2"/><path class="cls-2" d="M751.92,420.61h72.84V299.27H703.39V420.61Zm-24.27-97.07h72.77v72.73H727.65Z" transform="translate(-10.71 -11.56)"/><path class="cls-2" d="M630.63,207.78c28.16-1.49,44.45-9.14,44.45-43.87,0-9.33-2.33-16.11-7.1-20.7-7.64-7.36-22.06-10.67-42.86-9.87l-2.7.08c-1.35.11-21.15,2.16-46.84,17.13-23.4,13.63-43.27,33-59.39,57.68C552,208.65,607.1,209,630.63,207.78Z" transform="translate(-10.71 -11.56)"/><path class="cls-2" d="M485,11.56V185l2.31-5.41c19.32-27.44,43.13-49.48,70.32-64.83C588.51,97.23,614.6,93.35,622,93.35h1.56c12-.46,48.35-1.87,72.15,21,8.83,8.51,19.37,24,19.37,49.54,0,32-10.71,55.38-31.81,69.51-16.73,11.21-35.81,13.52-50.56,14.32-12.87.68-34.11.91-56.64.91-36.34,0-77.66-.11-91.08-.32V347.8h24.25V275h24.27v48.54h48.54V275h24.26V323.5h24.26v24.26h24.26V323.5h24.27V299.22H630.59V275H849V444.86H679.13V396.27H654.85V372H630.59v48.59h24.26V445H630.59V420.61H606.33V445H582.07V396.27H557.8V444.8H533.54V396.27H509.26V372.06H485v24.21h24.23v48.52H485v24.34h24.25v72.8h24.27v48.53h48.54v24.26H557.8v24.34h24.27v24.26H557.8V639H533.54V614.66H485V736h24.25V663.26h24.27v72.8H509.26V760.4H485V960.19c261.95,3.38,474.3-209,474.3-470.93S747,14.91,485,11.56ZM703.4,469.13h24.26v24.26H703.4Zm-121.33,0h24.26v72.8H582.07Zm-48.54,24.34V469.13H557.8v24.26Zm24.26,72.8V541.93h24.27v24.26Zm218.4,72.81H727.66V614.74H776.2Zm0-48.54H727.66V566.2H703.4v97.06h72.8v24.26h0v24.34h0v24.26h0v48.54h0v48.41H582.07V808.85h24.25V784.59H582.07V760.33H557.8v24.26H533.54v48.48H509.26V784.59h24.27V760.33H557.8V736h24.27V711.79H557.8V687.45h24.27V663.26h24.26V639h72.8V614.66h-72.8V541.93h24.27V517.59h24.26V493.39H630.61V469.13h24.26v24.26h24.26v24.26h24.34V542H752v24.26h24.26Zm0-72.81H751.94v-48.6H776.2Z" transform="translate(-10.71 -11.56)"/><rect class="cls-2" x="474.3" y="530.37" width="24.25" height="24.26"/></svg>