<svg xmlns="http://www.w3.org/2000/svg" version="1.1" id="svg1294" width="300" height="300"><defs id="defs1264"><linearGradient id="linear-gradient" x1="23.32" y1="82.13" x2="171.76" y2="82.13" gradientUnits="userSpaceOnUse" gradientTransform="matrix(1.824 0 0 1.824 -27.913 .21)"><stop offset="0" stop-color="#e168fd" id="stop1259"/><stop offset="1" stop-color="#7b00fc" id="stop1261"/></linearGradient><style id="style1257"></style></defs><path d="M150 299.801a42.19 42.19 0 01-21.049-5.618l-93.28-53.862a42.207 42.207 0 01-21.048-36.48V96.15a42.207 42.207 0 0121.049-36.48L128.95 5.828a42.17 42.17 0 0142.098 0l93.28 53.845a42.207 42.207 0 0121.048 36.48v107.725a42.207 42.207 0 01-21.049 36.48L171.05 294.22A42.19 42.19 0 01150 299.8zm0-285a27.36 27.36 0 00-13.753 3.648l-93.28 53.9a27.524 27.524 0 00-13.734 23.803v107.725a27.579 27.579 0 0013.735 23.712l93.279 53.936a27.524 27.524 0 0027.47 0l93.297-53.863a27.524 27.524 0 0013.735-23.712V96.152a27.524 27.524 0 00-13.735-23.803l-93.28-53.9A27.488 27.488 0 00150 14.801zm0 236.117a22.672 22.672 0 01-11.345-3.046l-67.762-39.088A22.727 22.727 0 0159.64 189.12V110.89a22.764 22.764 0 0111.254-19.663l67.762-39.107a22.745 22.745 0 0122.709 0l67.743 39.107a22.764 22.764 0 0111.345 19.663v78.231a22.745 22.745 0 01-11.345 19.663l-67.762 39.106A22.672 22.672 0 01150 250.936zm0-190.9a11.619 11.619 0 00-5.873 1.569l-67.762 39.125a11.82 11.82 0 00-5.782 10.178v78.231a11.801 11.801 0 005.892 10.178l67.743 39.107a11.747 11.747 0 0011.746 0l67.762-39.107a11.82 11.82 0 005.873-10.178V110.89a11.801 11.801 0 00-5.891-10.178l-67.835-39.107A11.582 11.582 0 00150 60.037zm0 141.306a11.783 11.783 0 01-5.819-1.55L109.8 179.945a11.692 11.692 0 01-5.819-10.105v-39.69a11.637 11.637 0 015.819-10.068l34.382-19.845a11.637 11.637 0 0111.638 0l34.382 19.845a11.637 11.637 0 015.819 10.068v39.69a11.692 11.692 0 01-5.82 10.087l-34.381 19.845a11.783 11.783 0 01-5.819 1.569zm0-95.36a4.378 4.378 0 00-2.17.566l-34.383 19.882a4.341 4.341 0 00-2.17 3.648v39.781a4.396 4.396 0 002.17 3.758l34.382 19.954a4.396 4.396 0 004.342 0l34.382-19.845a4.378 4.378 0 002.152-3.867v-39.69a4.323 4.323 0 00-2.152-3.648L152.17 106.55A4.378 4.378 0 00150 106z" id="path1290" fill="url(#linear-gradient)" stroke-width="1.824"/></svg>
