<?xml version="1.0" encoding="UTF-8"?>
<svg width="267px" height="211px" viewBox="0 0 267 211" version="1.1" xmlns="http://www.w3.org/2000/svg" xmlns:xlink="http://www.w3.org/1999/xlink">
    <title>algo</title>
    <g id="algo" stroke="none" stroke-width="1" fill="none" fill-rule="evenodd">
        <g id="algorand" transform="translate(11.000000, 31.000000)" fill="#000000" fill-rule="nonzero">
            <polygon id="Path" points="19.6 113.4 36 85 52.4 56.7 68.7 28.3 71.4 23.8 72.6 28.3 77.6 47 72 56.7 55.6 85 39.3 113.4 58.9 113.4 75.3 85 83.8 70.3 87.8 85 95.4 113.4 113 113.4 105.4 85 97.8 56.7 95.8 49.4 108 28.3 90.2 28.3 89.6 26.2 83.4 3 82.6 0 65.5 0 65.1 0.6 49.1 28.3 32.7 56.7 16.4 85 0 113.4"></polygon>
        </g>
    </g>
</svg>