<svg id="Слой_1" data-name="Слой 1" xmlns="http://www.w3.org/2000/svg" viewBox="0 0 224.95 225.15"><defs><style>.cls-1{fill:#a71435}</style></defs><title>Argentum (ARG)</title><path class="cls-1" d="M63,12.1A112.4,112.4,0,0,1,197.8,186.5c-5.6-12.2-9.9-25-14.7-37.6l-29-76c-2.8-7.7-7.5-15.1-14.8-19.1a57.2,57.2,0,0,0-32.9-5.1c-9,1-18.4,4.1-24.5,11.2-5.8,6.7-8.4,15.3-11.7,23.4l-20.9,53c-7,16.8-12.9,34.2-20.5,50.9A103.8,103.8,0,0,1,5.3,145.7,112.5,112.5,0,0,1,63.1,12Z" transform="translate(-0.39 -0.37)"/><path d="M104.8,88.7c2-6,10-8,15.2-4.6,2.8,2.1,3.8,5.7,5.1,8.9,13,34,25.8,68.2,38.7,102.3,1.7,4.9,4.2,9.6,5.2,14.7a11.83,11.83,0,0,1-2.8,2.2,112.7,112.7,0,0,1-92.6,6.2c-5.6-2.3-11.4-4.3-16.3-7.8.5-4.6,2.8-8.7,4.5-12.9C76.2,161.4,90.3,125,104.8,88.7Z" transform="translate(-0.39 -0.37)"/></svg>