<svg id="Layer_1" data-name="Layer 1" xmlns="http://www.w3.org/2000/svg" viewBox="0 0 2305.04 2305.04"><defs><style>.cls-1{fill:#2e3148;}.cls-2{fill:#1b1e36;}.cls-3{fill:#6f7390;}.cls-4{fill:#b7b9c8;}</style></defs><title>atom-logo</title><circle class="cls-1" cx="1152.52" cy="1152.52" r="1152.52"/><circle class="cls-2" cx="1152.52" cy="1152.52" r="668.75"/><path class="cls-3" d="M1258.26,248C1133.85,248,1033,699.21,1033,1255.84S1133.85,2263.7,1258.26,2263.7s225.29-451.24,225.29-1007.86S1382.66,248,1258.26,248Zm15.56,1958.81c-14.23,19-28.46,4.75-28.46,4.75-57.3-66.4-85.94-189.72-85.94-189.72-100.22-322.52-76.36-1015-76.36-1015,47.09-549.74,132.8-679.6,161.92-708.44a17.79,17.79,0,0,1,22.81-1.8c42.31,30,77.79,155.33,77.79,155.33,104.77,388.91,95.28,754.11,95.28,754.11,9.49,317.78-52.5,673.49-52.5,673.49C1340.64,2149.87,1273.82,2206.78,1273.82,2206.78Z" transform="translate(-103.37 -100.94)"/><path class="cls-3" d="M2132.47,754.28C2070.53,646.33,1629,783.4,1146,1060.43s-823.79,589.06-761.9,697,503.51-29.13,986.52-306.16,823.79-589.06,761.9-697ZM441.15,1742.55c-23.71-3-18.35-22.48-18.35-22.48,29.07-82.72,121.65-168.94,121.65-168.94C774.44,1303.69,1387,979.8,1387,979.8c500.23-232.73,655.61-222.92,695-212.1a17.78,17.78,0,0,1,12.95,19c-4.74,51.6-96,144.75-96,144.75-285.05,284.58-606.57,458.12-606.57,458.12C1121.43,1556,782,1679.14,782,1679.14c-258.25,93-340.87,63.41-340.87,63.41Z" transform="translate(-103.37 -100.94)"/><path class="cls-3" d="M2130.29,1761c62.41-107.66-277.46-421.17-758.87-700.24s-922.82-417.85-985.19-310,277.46,421.17,759.1,700.24S2067.92,1868.81,2130.29,1761ZM427.59,792.31c-9.25-21.86,10.24-27.13,10.24-27.13C524,748.92,645.05,786,645.05,786c329.3,75,916.47,442.79,916.47,442.79C2013.61,1545.1,2083,1684.45,2093.34,1724a17.78,17.78,0,0,1-9.87,20.67c-47.14,21.58-173.4-10.57-173.4-10.57-389.15-104.35-700.38-295.53-700.38-295.53-279.64-150.83-556.15-382.89-556.15-382.89C443.43,878.78,427.69,792.5,427.69,792.5Z" transform="translate(-103.37 -100.94)"/><circle class="cls-4" cx="1152.52" cy="1152.52" r="118.57"/><ellipse class="cls-4" cx="1638.67" cy="697.2" rx="68.77" ry="71.14"/><ellipse class="cls-4" cx="509.86" cy="939.09" rx="68.77" ry="71.14"/><ellipse class="cls-4" cx="1012.61" cy="1811.78" rx="68.77" ry="71.14"/></svg>