<?xml version="1.0" encoding="UTF-8" standalone="yes"?>
<!DOCTYPE svg PUBLIC "-//W3C//DTD SVG 1.1//EN" "http://www.w3.org/Graphics/SVG/1.1/DTD/svg11.dtd">

<svg width="1024" height="1024" viewBox="0 0 1024 1024" xmlns="http://www.w3.org/2000/svg" xmlns:xlink="http://www.w3.org/1999/xlink" version="1.1" baseProfile="full">
    <defs>
        <radialGradient id="34068224" cx="50%" cy="50%" r="50%" fx="50%" fy="50%">
            <stop offset="0%" style="stop-color:#000cff;stop-opacity:1.000000"></stop>
            <stop offset="100%" style="stop-color:#000049;stop-opacity:1.000000"></stop>
        </radialGradient>
    </defs>
    <g transform="scale(1,-1) translate(0,-1024)">
        <path d="M 1016.000000 514.000000 C 1016.000000 791.246944 791.246944 1016.000000 514.000000 1016.000000 C 236.753056 1016.000000 12.000000 791.246944 12.000000 514.000000 C 12.000000 236.753056 236.753056 12.000000 514.000000 12.000000 C 791.246944 12.000000 1016.000000 236.753056 1016.000000 514.000000 Z M 1026.000000 514.000000 C 1026.000000 231.230208 796.769792 2.000000 514.000000 2.000000 C 231.230208 2.000000 2.000000 231.230208 2.000000 514.000000 C 2.000000 796.769792 231.230208 1026.000000 514.000000 1026.000000 C 796.769792 1026.000000 1026.000000 796.769792 1026.000000 514.000000 Z" transform="scale(1.000000,1.000000) translate(-2.000000,-2.000000)" opacity="1.000000"></path>
        <path d="M 978.000000 490.000000 C 978.000000 759.514958 759.514958 978.000000 490.000000 978.000000 C 220.485042 978.000000 2.000000 759.514958 2.000000 490.000000 C 2.000000 220.485042 220.485042 2.000000 490.000000 2.000000 C 759.514958 2.000000 978.000000 220.485042 978.000000 490.000000 Z" transform="scale(1.000000,1.000000) translate(22.000000,22.000000)" fill="url(#34068224)" opacity="1.000000"></path>
        <path d="M 429.176000 9.757200 L 432.956200 15.252000 L 440.353600 26.399300 L 447.530600 37.746400 L 454.483400 49.281100 L 461.208300 60.991000 L 467.701800 72.864000 L 473.960200 84.887800 L 479.979700 97.050000 L 485.756700 109.338500 L 491.287600 121.741000 L 496.568700 134.245100 L 501.596200 146.838700 L 506.366600 159.509400 L 510.876100 172.245100 L 513.640100 180.571600 L 590.133500 181.243900 L 598.527500 231.473200 L 528.009500 230.853400 L 529.383000 236.467300 L 532.250500 249.334700 L 534.831500 262.181100 L 537.122300 274.994300 L 539.119200 287.761900 L 540.818600 300.471800 L 542.216900 313.111700 L 543.310200 325.669200 L 543.741500 331.913300 L 544.095100 338.132200 L 544.370700 344.324400 L 544.390300 344.937200 L 598.960900 362.748100 L 584.301400 413.694200 L 543.108300 400.249500 L 542.490100 406.846500 L 541.561900 414.926900 L 540.480500 422.839100 L 539.248100 430.582100 L 537.866800 438.154700 L 536.338800 445.555700 L 534.666200 452.784100 L 532.851200 459.838600 L 530.895900 466.718300 L 528.802500 473.421900 L 526.573000 479.948200 L 524.209700 486.296300 L 521.714700 492.464900 L 519.090100 498.452900 L 516.338200 504.259200 L 513.460900 509.882700 L 510.460500 515.322200 L 507.339200 520.576500 L 504.099000 525.644700 L 500.742100 530.525400 L 497.270700 535.217700 L 493.686900 539.720300 L 489.992800 544.032100 L 486.190700 548.152100 L 482.282500 552.079000 L 478.270600 555.811800 L 474.157000 559.349300 L 469.943800 562.690400 L 465.633300 565.833900 L 461.227600 568.778700 L 456.728700 571.523700 L 452.138900 574.067800 L 447.460400 576.409800 L 442.695100 578.548600 L 437.845400 580.483000 L 432.913300 582.212000 L 427.901000 583.734400 L 422.810600 585.049000 L 417.644300 586.154800 L 412.404300 587.050600 L 407.092600 587.735300 L 401.711400 588.207700 L 396.262800 588.466700 L 390.749100 588.511200 L 385.172300 588.340100 L 379.534600 587.952200 L 373.838200 587.346400 L 368.085100 586.521500 L 362.277600 585.476500 L 356.417800 584.210100 L 350.507700 582.721300 L 344.549700 581.009000 L 338.545700 579.072000 L 332.498000 576.909100 L 326.408800 574.519300 L 320.280000 571.901300 L 314.114000 569.054200 L 307.912800 565.976700 L 301.678600 562.667700 L 295.413500 559.126100 L 289.119800 555.350800 L 282.799400 551.340600 L 276.454600 547.094400 L 270.087500 542.611000 L 263.737900 537.917500 L 257.445400 533.044000 L 251.211700 527.994600 L 245.038500 522.773200 L 238.927500 517.383600 L 232.880400 511.829900 L 226.899100 506.115900 L 220.985100 500.245500 L 215.140200 494.222800 L 209.366200 488.051500 L 203.664800 481.735700 L 198.037700 475.279200 L 192.486500 468.686000 L 187.013200 461.960000 L 181.619300 455.105100 L 176.306500 448.125300 L 171.076700 441.024400 L 165.931600 433.806400 L 160.872800 426.475300 L 155.902100 419.034800 L 151.021200 411.489100 L 146.231800 403.841900 L 141.535700 396.097300 L 136.934600 388.259000 L 132.430200 380.331200 L 128.024200 372.317600 L 123.718400 364.222200 L 119.514400 356.049000 L 115.414100 347.801800 L 111.419100 339.484500 L 107.531100 331.101200 L 103.752000 322.655700 L 100.083300 314.152000 L 96.526800 305.593900 L 93.084300 296.985400 L 89.757500 288.330400 L 86.548100 279.632900 L 83.457800 270.896700 L 80.488300 262.125800 L 77.641400 253.324200 L 75.928700 247.770400 L 4.410200 224.428000 L 19.069700 173.481900 L 27.707100 176.301000 L 58.418300 176.570900 L 57.819400 173.371000 L 56.293100 164.477300 L 54.908200 155.595900 L 53.666600 146.730800 L 52.570000 137.885900 L 51.620200 129.065200 L 50.818700 120.272500 L 50.167400 111.511800 L 49.668000 102.787000 L 49.322100 94.102100 L 49.131600 85.460900 L 49.098200 76.867400 L 49.223500 68.325500 L 49.509400 59.839200 L 49.957400 51.412300 L 50.569400 43.048700 L 126.506800 97.848700 L 125.944600 106.015500 L 125.608400 114.290100 L 125.495800 122.664200 L 125.604300 131.129100 L 125.931200 139.676400 L 126.474100 148.297600 L 127.230500 156.984200 L 128.197700 165.727800 L 129.373300 174.519800 L 129.792200 177.198200 L 442.386900 179.945400 L 440.551000 174.928900 L 438.237900 168.867600 L 435.836300 162.825600 L 433.346700 156.805700 L 430.769600 150.810700 L 428.105400 144.843400 L 425.354600 138.906500 L 422.517700 133.002900 L 419.595000 127.135300 L 416.587100 121.306600 L 413.494400 115.519500 L 410.317300 109.776800 L 407.056400 104.081300 L 403.712000 98.435800 L 400.284600 92.843100 L 396.774600 87.306000 L 393.182600 81.827300 L 389.509000 76.409700 L 385.754200 71.056000 L 425.342000 4.316900 Z M 158.807500 280.714400 L 162.460600 289.364100 L 166.286600 297.943500 L 170.282800 306.444000 L 174.446800 314.857200 L 178.776000 323.174600 L 183.267800 331.387600 L 187.919800 339.488000 L 192.729300 347.467000 L 197.694000 355.316300 L 202.811100 363.027400 L 208.078200 370.591800 L 211.891000 375.847600 L 215.737800 380.973200 L 219.616700 385.968300 L 223.525900 390.832400 L 227.463500 395.565000 L 231.427600 400.165700 L 235.416400 404.634100 L 239.428100 408.969700 L 243.460800 413.172100 L 247.512700 417.240900 L 251.581900 421.175500 L 255.666600 424.975700 L 259.764900 428.640900 L 263.874900 432.170700 L 267.994900 435.564600 L 272.122900 438.822300 L 276.257200 441.943300 L 280.395800 444.927100 L 284.537000 447.773400 L 288.678800 450.481600 L 292.819500 453.051300 L 296.957100 455.482200 L 301.089800 457.773700 L 305.215900 459.925400 L 309.333300 461.936900 L 313.440400 463.807800 L 317.535100 465.537500 L 321.615800 467.125800 L 325.680500 468.572100 L 329.727300 469.875900 L 333.754500 471.037000 L 337.760200 472.054700 L 341.742500 472.928700 L 345.699600 473.658600 L 349.629600 474.243900 L 353.530800 474.684100 L 357.401100 474.978900 L 361.238900 475.127800 L 365.042200 475.130300 L 368.809200 474.986000 L 372.538000 474.694600 L 376.226800 474.255400 L 379.873800 473.668200 L 383.477000 472.932400 L 387.034700 472.047700 L 390.545000 471.013500 L 394.006100 469.829500 L 397.416000 468.495200 L 400.773000 467.010200 L 404.075200 465.374000 L 407.320700 463.586200 L 410.507800 461.646400 L 413.634500 459.554100 L 416.699000 457.308900 L 419.699400 454.910300 L 422.634000 452.357900 L 425.500800 449.651300 L 428.298000 446.790100 L 431.023800 443.773700 L 433.676300 440.601800 L 436.253600 437.273900 L 438.754000 433.789600 L 441.175500 430.148500 L 443.516300 426.350000 L 445.761400 422.417300 L 447.897200 418.375600 L 449.924100 414.227500 L 451.842600 409.976000 L 453.653200 405.623800 L 455.356300 401.173700 L 456.952400 396.628500 L 458.441900 391.991000 L 459.825300 387.264000 L 461.103000 382.450200 L 462.275500 377.552500 L 463.014100 374.108200 L 156.102000 273.937500 Z M 468.348800 320.118600 L 468.358300 318.935200 L 468.303500 313.247800 L 468.149500 307.512800 L 467.896600 301.732800 L 467.545300 295.910800 L 467.096000 290.049400 L 466.549200 284.151600 L 465.905400 278.220000 L 465.164900 272.257500 L 464.328400 266.266900 L 463.396100 260.251000 L 462.368600 254.212400 L 461.246300 248.154100 L 460.029700 242.078900 L 458.719200 235.989400 L 457.394500 230.232800 L 185.630700 227.844400 Z" transform="scale(1.000000,1.000000) translate(190.000000,241.000000)" fill="#ffeb00" opacity="1.000000"></path>
    </g>
</svg>