<?xml version="1.0" encoding="UTF-8"?>
<svg width="105px" height="108px" viewBox="0 0 105 108" version="1.1" xmlns="http://www.w3.org/2000/svg" xmlns:xlink="http://www.w3.org/1999/xlink">
    <title>bal</title>
    <g id="bal" stroke="none" stroke-width="1" fill="none" fill-rule="evenodd">
        <g id="balancer-bal-logo" transform="translate(0.000000, 3.000000)">
            <path d="M52.5,0 C81.4905,0 105,23.5095 105,52.5 C105,81.4905 81.4905,105 52.5,105 C23.5095,105 0,81.4905 0,52.5 C0,23.5095 23.5095,0 52.5,0 Z" id="SVGID" fill="#1E1E1E"></path>
            <g id="Group" transform="translate(22.890000, 28.675500)" fill="#FFFFFF" fill-rule="nonzero">
                <path d="M30.3975,45.7695 C13.608,45.7695 3.55271368e-14,40.9185 3.55271368e-14,34.419 C3.55271368e-14,31.0275 3.7065,27.972 9.639,25.8195 C14.2695,28.791 22.0395,30.3135 30.849,30.3135 C39.4485,30.3135 47.0505,28.455 51.723,25.6095 C57.3195,27.741 60.795,30.7125 60.795,33.9885 C60.795,40.4985 47.187,45.7695 30.3975,45.7695 Z" id="SVGID-2"></path>
                <path d="M30.576,28.854 C17.85,28.854 7.5285,24.864 7.5285,19.9395 C7.5285,17.2095 10.71,14.763 15.6975,13.1355 C19.257,14.994 24.591,16.1805 30.576,16.1805 C36.561,16.1805 41.895,14.994 45.4545,13.1355 C50.4525,14.7735 53.623508,17.2095 53.623508,19.9395 C53.634,24.864 43.3125,28.854 30.576,28.854 Z" id="SVGID-3"></path>
                <path d="M30.492,14.7 C20.6535,14.7 12.6735,11.403 12.6735,7.35 C12.6735,3.297 20.6535,-9.05941988e-14 30.492,-9.05941988e-14 C40.3305,-9.05941988e-14 48.3105,3.297 48.3105,7.35 C48.3105,11.403 40.3305,14.7 30.492,14.7 L30.492,14.7 Z" id="SVGID-4"></path>
            </g>
        </g>
    </g>
</svg>