<svg height="167.981" viewBox="0 0 44.444885 44.444946" width="167.981" xmlns="http://www.w3.org/2000/svg"><g transform="translate(-54.128747 -130.39062)"><ellipse cx="19.55" cy="169.523" fill="#fff" rx="21.958" ry="21.958" transform="matrix(.93969244 -.34202065 .34201962 .93969281 0 0)"/><path d="m70.662258 138.1539a15.574955 15.574981.31937392 0 0 -8.788251 8.3612 15.574955 15.574981.31937392 0 0 7.400931 20.18502 15.574955 15.574981.31937392 0 0 20.51245-6.43763l-13.63118-7.53475 5.529861-14.56034a15.574955 15.574981.31937392 0 0 -11.023811-.0135zm.97194 2.79871a12.611479 12.611499.60340334 0 1 8.92632.0109l-4.4777 11.7899 11.037451 6.10113a12.611479 12.611499.60340334 0 1 -16.609441 5.21262 12.611479 12.611499.60340334 0 1 -5.99283-16.3442 12.611479 12.611499.60340334 0 1 7.1162-6.77031zm5.19411-10.2922a21.957846 21.957808 89.210933 0 0 -7.98716 1.31901 21.957846 21.957808 89.210933 0 0 -13.123578 28.14372 21.957846 21.957808 89.210933 0 0 28.143678 13.12358 21.957846 21.957808 89.210933 0 0 13.123561-28.14371 21.957846 21.957808 89.210933 0 0 -20.156501-14.4426zm.0292 2.48951a19.618753 19.618786 0 0 1 6.190789 1.26289l-6.965519 18.34056 17.17012 9.49113a19.618753 19.618786 0 0 1 -25.83818 8.10898 19.618753 19.618786 0 0 1 -9.322428-25.42562 19.618753 19.618786 0 0 1 11.070128-10.53222 19.618753 19.618786 0 0 1 7.69508-1.24572zm13.393359 6.78134c.47054-.00032.907142.0561 1.3097.16986 1.184752.3259 1.9856 1.06183 2.402732 2.2079.253259.69584.308718 1.37877.166269 2.04867-.12882.66493-.43629 1.26348-.92239 1.79578.912971-.0387 1.7131.16449 2.400459.60962.682392.43149 1.184941 1.09071 1.50772 1.97755.456872 1.25523.318341 2.40274-.415708 3.44248-.725382 1.02112-2.02266 1.87182-3.891852 2.55216l-7.408619 2.69648-5.21412-14.32582 6.999259-2.54756c1.146082-.41713 2.168231-.62621 3.06655-.62712zm-1.085398 2.96351c-.425051.001-.918951.10441-1.481762.30926l-3.294959 1.1993 1.22905 3.37689 3.295049-1.19931c.818621-.29796 1.38715-.66713 1.705822-1.10759.31867-.44046.37623-.94029.172628-1.49968-.2036-.5594-.56655-.89871-1.08883-1.01764-.164758-.0414-.343789-.0618-.536998-.0612zm2.77899 5.5558c-.448111.004-.974661.11644-1.579681.33665l-3.868061 1.40779 1.28868 3.54064 3.867981-1.40788c.873199-.31781 1.475959-.69935 1.80826-1.14478.345969-.45039.409819-.97575.19132-1.57607-.283519-.77897-.853029-1.16444-1.708499-1.15635z" fill="#004ab5"/></g></svg>