<svg version="1.1" id="Layer_1" xmlns="http://www.w3.org/2000/svg" xmlns:xlink="http://www.w3.org/1999/xlink" x="0" y="0" viewBox="0 0 1000 1000" xml:space="preserve" enable-background="new 0 0 1000 1000"><style type="text/css">.st0{fill:#fff}.st1{fill:url(#XMLID_52_)}</style><g id="XMLID_40_"><circle id="XMLID_50_" class="st0" cx="499.3" cy="502.3" r="482.2"/><linearGradient id="XMLID_52_" gradientUnits="userSpaceOnUse" x1="-481.149" y1="248.605" x2="397.167" y2="-308.961" gradientTransform="matrix(1 0 0 1 535.4571 536.2386)"><stop offset="0" stop-color="#00C7FF"/><stop offset=".357" stop-color="#00BEFF"/><stop offset=".948" stop-color="#00A4FF"/><stop offset=".994" stop-color="#00A2FF"/></linearGradient><circle id="XMLID_751_" class="st1" cx="499.3" cy="502.3" r="473"/><path id="XMLID_49_" class="st0" d="M665.8,475.6c-27.5-0.6-52.1,11.9-68,31.7c-4.6,5.7-12.8,7.1-19,3.2l-62.6-38.5 c-4.3-2.7-7-7.4-7-12.5v-0.6c0-6.8,4.7-12.5,11.2-14.2c38.3-9.9,66-46,63-88c-3-42.4-37.9-76.3-80.3-78.3 c-48.5-2.2-88.6,36.4-88.6,84.5c0,37.4,24.3,69.1,57.9,80.3c6,2,10.1,7.6,10.1,13.9v3.6c0,5.3-2.9,10.2-7.5,12.8l-59.6,33.4 c-5.9,3.3-13.4,2.2-17.9-2.9c-15.8-17.7-38.9-28.7-64.5-28.3c-45.8,0.7-83.1,38.6-83.2,84.5c-0.1,47.6,39.3,86.1,87.2,84.6 c43.7-1.3,79.6-36.5,81.8-80.1c0.3-5.6,0-11-0.7-16.3c-0.8-5.7,1.9-11.4,6.8-14.4l61.9-38.2c4.7-2.9,10.5-2.9,15.2-0.1l70.5,42.2 c4.8,2.9,7.6,8.3,7,14c-0.5,5.2-0.6,10.4-0.1,15.8c3.6,41.8,38,75,79.9,77.1c49.7,2.5,90.6-38,88.9-87.5 C746.7,512.6,710.2,476.6,665.8,475.6z"/><path id="XMLID_46_" class="st0" d="M497.9,62.3c-242.3,0-438.7,196.4-438.7,438.7s196.4,438.7,438.7,438.7 c242.3,0,438.7-196.4,438.7-438.7S740.2,62.3,497.9,62.3z M497.9,902C276.4,902,96.9,722.4,96.9,500.9S276.4,99.9,497.9,99.9 C719.4,99.9,899,279.4,899,500.9S719.4,902,497.9,902z"/><path id="XMLID_45_" class="st0" d="M712.2,368.8c-0.6,23-4.9,45.2-12.3,65.8c54.6,15.6,94.5,65.9,94.5,125.5 c0,72.1-58.5,130.6-130.6,130.6c-67.7,0-123.4-51.6-129.9-117.6c-11.3,1.9-22.9,2.8-34.8,2.8c-10.9,0-21.7-0.8-32.2-2.4 c6.9,102.7,92.4,183.9,196.9,183.9c109,0,197.3-88.3,197.3-197.3C861.1,467.8,797.7,390.3,712.2,368.8z"/><g id="XMLID_43_"><path id="XMLID_44_" class="st0" d="M334.4,690.7c-72.1,0-130.6-58.5-130.6-130.6c0-72.1,58.5-130.6,130.6-130.6 c28.7,0,55.2,9.3,76.7,25c-23.3-22.4-38.1-53.5-39.1-88.1c-12.2-2.4-24.8-3.6-37.7-3.6c-109,0-197.3,88.3-197.3,197.3 c0,109,88.3,197.3,197.3,197.3c62.6,0,118.3-29.1,154.5-74.6c-15.5-22.1-27-47.2-33.2-74.3C436.4,656.7,389.4,690.7,334.4,690.7z"/></g><g id="XMLID_41_"><path id="XMLID_42_" class="st0" d="M626.2,362.8c0,36-15,68.5-39.1,91.6c21.5-15.6,48-24.9,76.7-24.9c7.7,0,15.2,0.7,22.5,1.9 c7.9-21.4,12.2-44.6,12.2-68.7c0-110.1-89.2-199.3-199.3-199.3c-105.5,0-191.8,82-198.8,185.7c11.1-1.8,22.5-2.7,34.1-2.7 c13.1,0,25.8,1.2,38.2,3.4c6.5-64.1,60.6-114.2,126.4-114.2C569.3,235.7,626.2,292.6,626.2,362.8z"/></g></g></svg>