<?xml version="1.0" encoding="utf-8"?>
<!-- Generator: Adobe Illustrator 22.1.0, SVG Export Plug-In . SVG Version: 6.00 Build 0)  -->
<svg version="1.1" id="Layer_1" xmlns="http://www.w3.org/2000/svg" xmlns:xlink="http://www.w3.org/1999/xlink" x="0px" y="0px"
	 viewBox="0 0 208 200" style="enable-background:new 0 0 208 200;" xml:space="preserve">
<style type="text/css">
	.st0{display:none;}
	.st1{display:inline;}
</style>
<g id="BTT_Black" class="st0">
	<g class="st1">
		<path d="M196.9,79.9c-1.3-6.3-3.2-12.4-5.7-18.3c-2.4-5.8-5.5-11.3-9-16.6c-3.5-5.2-7.5-10-11.9-14.4s-9.2-8.4-14.4-11.9
			c-5.2-3.5-10.8-6.5-16.6-9c-5.9-2.5-12-4.4-18.3-5.7c-6.4-1.3-13-2-19.6-2s-13.2,0.7-19.6,2c-6.3,1.3-12.4,3.2-18.3,5.7
			c-5.8,2.4-11.3,5.5-16.6,9c-5.2,3.5-10,7.5-14.4,11.9s-8.4,9.2-11.9,14.4c-3.5,5.2-6.5,10.8-9,16.6c-2.5,5.9-4.4,12-5.7,18.3
			c-1.3,6.4-2,13-2,19.6c0,6.6,0.7,13.2,2,19.6c1.3,6.3,3.2,12.4,5.7,18.3c2.4,5.8,5.5,11.3,9,16.6c3.5,5.2,7.5,10,11.9,14.4
			c4.4,4.4,9.2,8.4,14.4,11.9c5.2,3.5,10.8,6.5,16.6,9c5.9,2.5,12,4.4,18.3,5.7c6.4,1.3,13,2,19.6,2s13.2-0.7,19.6-2
			c6.3-1.3,12.4-3.2,18.3-5.7c5.8-2.4,11.3-5.5,16.6-9c5.2-3.5,10-7.5,14.4-11.9c4.4-4.4,8.4-9.2,11.9-14.4c3.5-5.2,6.5-10.8,9-16.6
			c2.5-5.9,4.4-12,5.7-18.3c1.3-6.4,2-13,2-19.6C198.9,92.9,198.2,86.3,196.9,79.9z M101.5,184.8c-47.1,0-85.2-38.2-85.2-85.2
			s38.2-85.2,85.2-85.2s85.2,38.2,85.2,85.2C186.7,146.6,148.5,184.8,101.5,184.8z"/>
		<path d="M103,177.4c0.3,0,0.5,0,0.8,0c0.1,0,0.3,0,0.4,0c0.3,0,0.6,0,0.8,0c0.1,0,0.2,0,0.3,0c0.4,0,0.8,0,1.2-0.1c0,0,0,0,0.1,0
			c0.4,0,0.7,0,1.1-0.1c0.1,0,0.2,0,0.3,0c0.3,0,0.6,0,0.9-0.1c0.1,0,0.2,0,0.3,0c0.3,0,0.6-0.1,1-0.1c0.1,0,0.1,0,0.2,0
			c0.4,0,0.8-0.1,1.2-0.1c0,0,0,0,0,0c0.4,0,0.7-0.1,1.1-0.2c0.1,0,0.2,0,0.2,0c0.3,0,0.6-0.1,0.9-0.1c0.1,0,0.1,0,0.2,0
			c0.4-0.1,0.7-0.1,1.1-0.2c0,0,0,0,0,0c0.8-0.1,1.6-0.3,2.3-0.5c0.1,0,0.1,0,0.2,0c0.3-0.1,0.7-0.1,1-0.2c0,0,0.1,0,0.1,0
			c0.8-0.2,1.5-0.4,2.3-0.6l0,0c-9.6,0.3-17.4-1-22.3-2.1c-11-2.4-21.5-6.7-30.4-14.1c-14.8-12.4-22.4-30.2-22.2-47.9
			c0.1-13.2,4.6-26.4,13.7-37.2c11.4-13.5,27.6-20.6,44.2-21c0.8,0,1.5,0,2.3,0V39.5c-0.9,0-1.7,0-2.6,0c-5.1,0.1-10.1,0.7-15,1.8
			c-5,1.1-9.8,2.8-14.4,4.9c-4.7,2.2-9.1,4.9-13.2,8c-4.2,3.2-8.1,6.9-11.5,11c-3.2,3.8-6,7.9-8.3,12.3c-2.3,4.2-4.1,8.7-5.5,13.3
			c-1.3,4.5-2.3,9.2-2.7,13.9c-0.1,1.5-0.2,2.9-0.3,4.4c0,0.6,0,1.1,0,1.7c0,0.3,0,0.6,0,0.9c0.1,5.1,0.7,10.1,1.8,15
			c1.1,5,2.8,9.8,4.9,14.4c2.5,5.5,7,13.6,13.7,19.7c0,0,0,0,0,0c13.2,10.4,29.9,16.6,48,16.6c0.4,0,0.8,0,1.2,0
			C102.7,177.4,102.9,177.4,103,177.4z"/>
		<path d="M124.8,164.6c-4.6-0.1-10.3-0.8-14.7-1.6c-20.6-3.7-38.3-16.3-44.8-35.3c-7.9-23.1,4.2-48.1,27.2-55.7
			c4.5-1.5,9-2.2,13.6-2.2c5.9,0,11.8,1.2,17.2,3.4l5.6-11.9c-1.7-0.7-3.4-1.3-5.1-1.9c-5.7-1.8-11.7-2.7-17.7-2.7
			c-6,0-12,1-17.7,2.9c-7.3,2.4-14,6.3-19.7,11.4c-2.7,2.4-5.3,5.2-7.5,8.1c-2.2,2.9-4.1,6-5.7,9.3c-1.6,3.3-2.9,6.7-3.8,10.2
			c-0.9,3.5-1.6,7.2-1.8,10.9c-0.5,7.6,0.5,15.2,3,22.4c2.5,7.3,6.5,14,12,19.9c4.9,5.3,10.6,9.3,17.5,13c7.2,3.8,16.1,5.8,25.4,7.1
			c6,0.8,14,1,18.7,1c4.1-1.5,5.8-2.2,8-3.1c1.9-0.9,3.8-1.8,5.7-2.9c1.9-1.1,2.2-1.3,5.4-3.4c0.3-0.2,0.6-0.4,0.8-0.6
			C135.4,164.8,132.6,164.7,124.8,164.6z"/>
		<path d="M149.4,149.7c-3.1,0.2-7.5,0.5-12.5,0.5c-8.9,0-19.8-0.8-29.1-3.9c-14.4-4.8-28-17.1-28-32.3s12.3-27.4,27.4-27.4
			c10.3,0,19.2,5.7,23.9,14l11.9-5.9c-1.9-3.5-4.2-6.7-7.1-9.5c-3.7-3.7-8.1-6.7-12.9-8.7c-5-2.1-10.3-3.2-15.8-3.2
			c-5.5,0-10.8,1.1-15.8,3.2c-4.8,2-9.2,5-12.9,8.7c-3.7,3.7-6.7,8.1-8.7,12.9c-2.1,5-3.2,10.3-3.2,15.8c0,5.5,1.2,11,3.5,16.2
			c2.1,4.6,5,8.9,8.7,12.9c6.5,7,15.4,12.6,24.9,15.8c9.1,3,22.5,4.1,35.5,3.2c3.6-0.3,6.3-0.6,10.9-1.6c4.4-3.5,8.5-7.5,12-11.9
			l0,0C159,148.8,153.3,149.4,149.4,149.7z"/>
	</g>
	<g class="st1">
		<g>
			<path d="M557.8,116.8c0-15.5,9.3-22,21.2-20.4h0.6V76.7c-1-0.5-2.4-0.8-4.5-0.6c-6.5,0.3-12.8,3.8-17.9,12.3h-0.5V77.2h-21.9
				v71.7h22.8V116.8z"/>
			<path d="M736.1,148.7v-39.6c0-8.9,5.1-15.2,12.6-15.2c7.3,0,11.2,5.3,11.2,12.8v42.2h22.7v-46.6c0-16-9.3-27.1-24.9-27.1
				c-9.9,0-16.8,4.2-22,11.8h-0.5v-9.7h-21.9v71.5H736.1z"/>
			<path d="M609.2,148.9v-32.1c0-15.5,9.3-22,21.2-20.4h0.6V76.7c-1-0.5-2.4-0.8-4.5-0.6c-6.5,0.3-12.8,3.8-17.9,12.3h-0.5V77.2
				h-21.9v71.7H609.2z"/>
			<path d="M669.9,150.8c9.1,0,16.3-2.4,22.4-6.5c6.2-4.3,10.4-10.5,12-16.9H682c-1.9,4.5-5.7,7.2-11.8,7.2
				c-9.4,0-14.7-6.1-16.1-15.6c0,0,51.3,0,51.4,0c0.2-14.5-4.2-27-12.6-34.8c-6.1-5.6-14.2-8.9-24.4-8.9
				c-21.7,0-36.7,16.3-36.7,37.7C631.7,134.5,646.2,150.8,669.9,150.8z M668.7,91.2c7.3,0,12.8,5.6,13.6,14.1H654
				C655.6,96.7,660.1,91.2,668.7,91.2z"/>
			<path d="M796.6,129.9c0,15.3,9.4,19.6,22.8,19.6c6.1,0,13.9-0.5,15.8-1.1v-16.6c-0.8,0-6.5,0.2-8.5,0.2c-5,0-8-1.4-8-7V91.4h12.9
				V77.2h-12.9V54.5h-22.2v22.7h-9.6v14.2h9.6V129.9z"/>
			<polygon points="415,148.7 439.8,148.7 439.8,69.7 465.8,69.7 465.8,48.8 389.5,48.8 389.5,69.7 415,69.7 			"/>
			<path d="M298.8,141.7c6.5-4.9,10.2-12.3,10.2-22.4c0-11.8-7-21.1-17.9-24.4v-0.5c8.9-3.4,14.1-9.7,14.1-19.6
				c0-8-2.9-14.4-8.6-19.2c-5.3-4.3-12.9-6.9-23.3-6.9H225v100.1h49.2C284.7,148.9,292.9,146.3,298.8,141.7z M249.4,68.4h20.3
				c7.2,0,11.8,3.7,11.8,9.9c0,6.5-4.8,10.1-12,10.1h-20.1V68.4z M249.4,128.9v-23.8h21.9c7.5,0,13.4,4,13.4,12
				c0,7.2-5,11.8-13.1,11.8H249.4z"/>
			<path d="M450.5,113.1c0,21.6,15.3,37.8,38.3,37.8c23,0,38.2-16.3,38.2-37.8s-15.2-37.8-38.2-37.8
				C465.8,75.3,450.5,91.6,450.5,113.1z M488.6,91.2c9.9,0,15.2,8.9,15.2,21.9s-5.3,21.6-15.2,21.7c-10.1,0-15.2-8.6-15.2-21.7
				S478.7,91.2,488.6,91.2z"/>
			<path class="st0" d="M230.1,30.5v150h522.7v-150H230.1z M738.7,166.4H244.2V44.6h494.5V166.4z"/>
			<rect x="318.6" y="77.2" width="22.8" height="71.5"/>
			<path d="M358.2,129.9c0,15.3,9.6,19.6,22.8,19.6c6.1,0,13.9-0.5,15.8-1.1v-16.6c-0.8,0-6.5,0.2-8.5,0.2c-5,0-8-1.4-8-7V91.4h12.9
				V77.2h-12.9V54.5h-22.2v22.7h-9.6v14.2h9.6V129.9L358.2,129.9z"/>
			<rect x="318.6" y="48.8" width="22.8" height="18.5"/>
		</g>
	</g>
</g>
<g id="BTT_White">
	<g>
		<path d="M196.9,79.9c-1.3-6.3-3.2-12.4-5.7-18.3c-2.4-5.8-5.5-11.3-9-16.6c-3.5-5.2-7.5-10-11.9-14.4s-9.2-8.4-14.4-11.9
			c-5.2-3.5-10.8-6.5-16.6-9c-5.9-2.5-12-4.4-18.3-5.7c-6.4-1.3-13-2-19.6-2s-13.2,0.7-19.6,2c-6.3,1.3-12.4,3.2-18.3,5.7
			c-5.8,2.4-11.3,5.5-16.6,9c-5.2,3.5-10,7.5-14.4,11.9s-8.4,9.2-11.9,14.4c-3.5,5.2-6.5,10.8-9,16.6c-2.5,5.9-4.4,12-5.7,18.3
			c-1.3,6.4-2,13-2,19.6c0,6.6,0.7,13.2,2,19.6c1.3,6.3,3.2,12.4,5.7,18.3c2.4,5.8,5.5,11.3,9,16.6c3.5,5.2,7.5,10,11.9,14.4
			c4.4,4.4,9.2,8.4,14.4,11.9c5.2,3.5,10.8,6.5,16.6,9c5.9,2.5,12,4.4,18.3,5.7c6.4,1.3,13,2,19.6,2s13.2-0.7,19.6-2
			c6.3-1.3,12.4-3.2,18.3-5.7c5.8-2.4,11.3-5.5,16.6-9c5.2-3.5,10-7.5,14.4-11.9c4.4-4.4,8.4-9.2,11.9-14.4c3.5-5.2,6.5-10.8,9-16.6
			c2.5-5.9,4.4-12,5.7-18.3c1.3-6.4,2-13,2-19.6C198.9,92.9,198.2,86.3,196.9,79.9z M101.5,184.8c-47.1,0-85.2-38.2-85.2-85.2
			s38.2-85.2,85.2-85.2s85.2,38.2,85.2,85.2C186.7,146.6,148.5,184.8,101.5,184.8z"/>
		<path d="M103,177.4c0.3,0,0.5,0,0.8,0c0.1,0,0.3,0,0.4,0c0.3,0,0.6,0,0.8,0c0.1,0,0.2,0,0.3,0c0.4,0,0.8,0,1.2-0.1c0,0,0,0,0.1,0
			c0.4,0,0.7,0,1.1-0.1c0.1,0,0.2,0,0.3,0c0.3,0,0.6,0,0.9-0.1c0.1,0,0.2,0,0.3,0c0.3,0,0.6-0.1,1-0.1c0.1,0,0.1,0,0.2,0
			c0.4,0,0.8-0.1,1.2-0.1c0,0,0,0,0,0c0.4,0,0.7-0.1,1.1-0.2c0.1,0,0.2,0,0.2,0c0.3,0,0.6-0.1,0.9-0.1c0.1,0,0.1,0,0.2,0
			c0.4-0.1,0.7-0.1,1.1-0.2c0,0,0,0,0,0c0.8-0.1,1.6-0.3,2.3-0.5c0.1,0,0.1,0,0.2,0c0.3-0.1,0.7-0.1,1-0.2c0,0,0.1,0,0.1,0
			c0.8-0.2,1.5-0.4,2.3-0.6l0,0c-9.6,0.3-17.4-1-22.3-2.1c-11-2.4-21.5-6.7-30.4-14.1c-14.8-12.4-22.4-30.2-22.2-47.9
			c0.1-13.2,4.6-26.4,13.7-37.2c11.4-13.5,27.6-20.6,44.2-21c0.8,0,1.5,0,2.3,0V39.5c-0.9,0-1.7,0-2.6,0c-5.1,0.1-10.1,0.7-15,1.8
			c-5,1.1-9.8,2.8-14.4,4.9c-4.7,2.2-9.1,4.9-13.2,8c-4.2,3.2-8.1,6.9-11.5,11c-3.2,3.8-6,7.9-8.3,12.3c-2.3,4.2-4.1,8.7-5.5,13.3
			c-1.3,4.5-2.3,9.2-2.7,13.9c-0.1,1.5-0.2,2.9-0.3,4.4c0,0.6,0,1.1,0,1.7c0,0.3,0,0.6,0,0.9c0.1,5.1,0.7,10.1,1.8,15
			c1.1,5,2.8,9.8,4.9,14.4c2.5,5.5,7,13.6,13.7,19.7c0,0,0,0,0,0c13.2,10.4,29.9,16.6,48,16.6c0.4,0,0.8,0,1.2,0
			C102.7,177.4,102.9,177.4,103,177.4z"/>
		<path d="M124.8,164.6c-4.6-0.1-10.3-0.8-14.7-1.6c-20.6-3.7-38.3-16.3-44.8-35.3c-7.9-23.1,4.2-48.1,27.2-55.7
			c4.5-1.5,9-2.2,13.6-2.2c5.9,0,11.8,1.2,17.2,3.4l5.6-11.9c-1.7-0.7-3.4-1.3-5.1-1.9c-5.7-1.8-11.7-2.7-17.7-2.7
			c-6,0-12,1-17.7,2.9c-7.3,2.4-14,6.3-19.7,11.4c-2.7,2.4-5.3,5.2-7.5,8.1c-2.2,2.9-4.1,6-5.7,9.3c-1.6,3.3-2.9,6.7-3.8,10.2
			c-0.9,3.5-1.6,7.2-1.8,10.9c-0.5,7.6,0.5,15.2,3,22.4c2.5,7.3,6.5,14,12,19.9c4.9,5.3,10.6,9.3,17.5,13c7.2,3.8,16.1,5.8,25.4,7.1
			c6,0.8,14,1,18.7,1c4.1-1.5,5.8-2.2,8-3.1c1.9-0.9,3.8-1.8,5.7-2.9c1.9-1.1,2.2-1.3,5.4-3.4c0.3-0.2,0.6-0.4,0.8-0.6
			C135.4,164.8,132.6,164.7,124.8,164.6z"/>
		<path d="M149.4,149.7c-3.1,0.2-7.5,0.5-12.5,0.5c-8.9,0-19.8-0.8-29.1-3.9c-14.4-4.8-28-17.1-28-32.3s12.3-27.4,27.4-27.4
			c10.3,0,19.2,5.7,23.9,14l11.9-5.9c-1.9-3.5-4.2-6.7-7.1-9.5c-3.7-3.7-8.1-6.7-12.9-8.7c-5-2.1-10.3-3.2-15.8-3.2
			c-5.5,0-10.8,1.1-15.8,3.2c-4.8,2-9.2,5-12.9,8.7c-3.7,3.7-6.7,8.1-8.7,12.9c-2.1,5-3.2,10.3-3.2,15.8c0,5.5,1.2,11,3.5,16.2
			c2.1,4.6,5,8.9,8.7,12.9c6.5,7,15.4,12.6,24.9,15.8c9.1,3,22.5,4.1,35.5,3.2c3.6-0.3,6.3-0.6,10.9-1.6c4.4-3.5,8.5-7.5,12-11.9
			l0,0C159,148.8,153.3,149.4,149.4,149.7z"/>
	</g>
	<g>
		<g>
			<path class="st0" d="M230.1,30.5v150h522.7v-150H230.1z M738.7,166.4H244.2V44.6h494.5V166.4z"/>
		</g>
	</g>
</g>
</svg>
