<svg xmlns="http://www.w3.org/2000/svg" xmlns:xlink="http://www.w3.org/1999/xlink" viewBox="0 0 103.97 100.74"><defs><linearGradient id="a" x1="87.7" y1="40.86" x2="100.82" y2="40.86" gradientUnits="userSpaceOnUse"><stop offset="0" stop-color="#ffe8a3"/><stop offset="0.5" stop-color="#ffca05"/><stop offset="1" stop-color="#faac18"/></linearGradient><linearGradient id="b" x1="93.55" y1="42.17" x2="95.86" y2="42.17" xlink:href="#a"/><linearGradient id="c" x1="93.55" y1="39.7" x2="95.43" y2="39.7" xlink:href="#a"/><linearGradient id="d" x1="42.36" y1="8.54" x2="55.35" y2="8.54" xlink:href="#a"/><linearGradient id="e" x1="0.01" y1="42.78" x2="13.75" y2="42.78" xlink:href="#a"/><linearGradient id="f" x1="1.05" y1="48.57" x2="12.73" y2="48.57" xlink:href="#a"/><linearGradient id="g" x1="24.35" y1="91.61" x2="37.57" y2="91.61" xlink:href="#a"/><linearGradient id="h" x1="69.76" y1="90.36" x2="82.71" y2="90.36" xlink:href="#a"/><linearGradient id="i" x1="24.02" y1="52.28" x2="74.32" y2="52.28" xlink:href="#a"/></defs><title>v1_new</title><path d="M97.59,33l-.14,0v2.17q.28.16.54.35Z" transform="translate(-0.01 -1.91)" fill="none"/><path d="M92.15,31.85l-.27,0a1.52,1.52,0,0,1-1-.38L89,32.15l2.19,3a6.43,6.43,0,0,1,1.73-.63Z" transform="translate(-0.01 -1.91)" fill="none"/><path d="M96,34.63l.55-1.71a1.84,1.84,0,0,1-1.12-1.68,1.8,1.8,0,0,1,.29-1L87,23.56,91.1,29a1.53,1.53,0,1,1,1.37,2.73l.79,2.71a6.48,6.48,0,0,1,2.77.16Z" transform="translate(-0.01 -1.91)" fill="none"/><path d="M97.12,33.05l-.24,0-.55,1.71a6.43,6.43,0,0,1,.78.32Z" transform="translate(-0.01 -1.91)" fill="none"/><path d="M88.06,39a6.49,6.49,0,0,1,2.86-3.68L88.7,32.26,84.83,33.6a1.57,1.57,0,0,1-2.21.77l-2.69.94q.49.79.93,1.61Z" transform="translate(-0.01 -1.91)" fill="none"/><path d="M52.68,19.7l4.27-5.31,0,0L45.78,19.27l2.7.62a33,33,0,0,1,3.57-.2Z" transform="translate(-0.01 -1.91)" fill="none"/><path d="M75.43,29.54l7.62-5-3.7-5.09a1.66,1.66,0,0,1-1.39.29L74.79,28.9Z" transform="translate(-0.01 -1.91)" fill="none"/><path d="M82.31,34.16A1.57,1.57,0,0,1,81.79,33,1.59,1.59,0,1,1,85,33a1.43,1.43,0,0,1,0,.26L88.51,32l-1.23-1.69-10.67.5A32.8,32.8,0,0,1,79.77,35Z" transform="translate(-0.01 -1.91)" fill="none"/><path d="M64.5,22l-.13.09.39.16Z" transform="translate(-0.01 -1.91)" fill="none"/><path d="M62.5,21.27v-.09h-.72l.52.17Z" transform="translate(-0.01 -1.91)" fill="none"/><path d="M68.34,21.33a1.22,1.22,0,0,1-1.18,0A1.58,1.58,0,0,1,65,20.88l-.06,0A1.06,1.06,0,0,1,65,21a1.22,1.22,0,0,1-.25.74l.87.84a32.64,32.64,0,0,1,5.14,2.93Z" transform="translate(-0.01 -1.91)" fill="none"/><path d="M77.67,19.6a1.6,1.6,0,0,1-.49-.34,1.66,1.66,0,0,1-.47-1.37l-3.88-1.26-4,2.88a1.23,1.23,0,0,1-.19,1.65L71.31,26a32.85,32.85,0,0,1,3.23,2.69Z" transform="translate(-0.01 -1.91)" fill="none"/><path d="M87.06,30l-3.83-5.27-7.58,5,.7.75Z" transform="translate(-0.01 -1.91)" fill="none"/><path d="M33.58,85.69a6.48,6.48,0,0,1,3.82,5.25l7.18,2.81a1.22,1.22,0,0,1,.37-.42l-5.89-11a32.59,32.59,0,0,1-4.33-2.28Z" transform="translate(-0.01 -1.91)" fill="none"/><path d="M82.52,64.23l10.33,3.94a1.24,1.24,0,0,1,.45-.48l-.06-.13A1.64,1.64,0,0,1,93,67l-.4-.9-7-15.61a1.22,1.22,0,0,1-.91-.07c0,.66.06,1.33.06,2A32.6,32.6,0,0,1,82.52,64.23Z" transform="translate(-0.01 -1.91)" fill="none"/><path d="M75.15,75.49,92.73,69a1.13,1.13,0,0,1,0-.28,1.15,1.15,0,0,1,0-.29L82.4,64.52A32.72,32.72,0,0,1,75.15,75.49Z" transform="translate(-0.01 -1.91)" fill="none"/><path d="M88,39.3l-6.92-2a32.45,32.45,0,0,1,3.32,10.27l.33.56a1.21,1.21,0,0,1,.5-.11,1.23,1.23,0,0,1,.85.34l3.57-3A6.47,6.47,0,0,1,88,39.3Z" transform="translate(-0.01 -1.91)" fill="none"/><path d="M72.75,77.71l3.52,6.17a6.45,6.45,0,0,1,4.45,1.81l4.47-6.15-12-2.25-.35.3Z" transform="translate(-0.01 -1.91)" fill="none"/><path d="M89.85,45.6l-3.59,3a1.22,1.22,0,0,1,.2.67,1.15,1.15,0,0,1,0,.32l4.17,1.7a1.58,1.58,0,1,1,2.81,1.14l1,.42V47.33h-.16A6.45,6.45,0,0,1,89.85,45.6Z" transform="translate(-0.01 -1.91)" fill="none"/><path d="M97.44,46.5v6.38l.25,0,.36-.63v.31s0,.08,0,.11,0,.08,0,.12v.08L98,53a1.58,1.58,0,0,1,.37,2.57l2.83,3.74a1.84,1.84,0,0,1,.53-.23L99.44,44.75A6.5,6.5,0,0,1,97.44,46.5Z" transform="translate(-0.01 -1.91)" fill="none"/><path d="M62.5,20.87a1.24,1.24,0,0,1,.34-.7l-4.37-5.58a1.25,1.25,0,0,1-1.29,0l-4.12,5.13a32.66,32.66,0,0,1,7.57,1.12Z" transform="translate(-0.01 -1.91)" fill="none"/><path d="M23.17,67.67l.35,6.83h.18a1.58,1.58,0,0,1,1.57,1.43l4.08,0A32.79,32.79,0,0,1,23.17,67.67Z" transform="translate(-0.01 -1.91)" fill="none"/><path d="M29.64,76.16l-4.37,0a1.58,1.58,0,0,1-1.58,1.46,1.5,1.5,0,0,1-.44-.07L22.59,80a1.57,1.57,0,0,1,.79,2.11l3.34,4.6a6.47,6.47,0,0,1,6.57-1.15l1.16-5.66A32.82,32.82,0,0,1,29.64,76.16Z" transform="translate(-0.01 -1.91)" fill="none"/><path d="M19.59,48.6l-1.16-4.8h0l-1.11,7.6a1.59,1.59,0,0,1,1.2,1.54,1.5,1.5,0,0,1,0,.37l1,.1c0-.34,0-.69,0-1A33,33,0,0,1,19.59,48.6Z" transform="translate(-0.01 -1.91)" fill="none"/><path d="M72.32,78A32.55,32.55,0,0,1,59,84.32l-1.81,1a1.21,1.21,0,0,1,.1.47.52.52,0,0,1,0,.06L70.4,87.55a6.48,6.48,0,0,1,5.52-3.66l-3.41-6Z" transform="translate(-0.01 -1.91)" fill="none"/><path d="M47.79,84.78l-1.73,8.39a1.25,1.25,0,0,1,.45.27l8.45-7a1.22,1.22,0,0,1,.21-1.57c-1,.1-2.07.15-3.12.15A33,33,0,0,1,47.79,84.78Z" transform="translate(-0.01 -1.91)" fill="none"/><path d="M29.11,29.11l-6.9-2.63-1.43,2,3.72,6.28.07,0A32.83,32.83,0,0,1,29.11,29.11Z" transform="translate(-0.01 -1.91)" fill="none"/><path d="M18.86,43.69l-.12,0,1,4q.16-1.11.39-2.2Z" transform="translate(-0.01 -1.91)" fill="none"/><path d="M70,92q0-.18-.08-.36l-1.56.51Z" transform="translate(-0.01 -1.91)" fill="none"/><path d="M55.43,96.35a1.69,1.69,0,0,1-.06.91l5.52,2.62a1.82,1.82,0,0,1,2.83-.4L71,94.18a6.45,6.45,0,0,1-.95-1.87l-3,.27Z" transform="translate(-0.01 -1.91)" fill="none"/><path d="M45.22,93.18a1.11,1.11,0,0,1,.54-.08l1.72-8.37a32.45,32.45,0,0,1-8-2.17Z" transform="translate(-0.01 -1.91)" fill="none"/><path d="M72.27,95.48a6.51,6.51,0,0,1-1.06-1l-7.27,5.28Z" transform="translate(-0.01 -1.91)" fill="none"/><path d="M57,85.07l1-.56q-.68.13-1.37.22A1.25,1.25,0,0,1,57,85.07Z" transform="translate(-0.01 -1.91)" fill="none"/><path d="M56,87.05a1.23,1.23,0,0,1-.85-.34l-8.45,7a1.2,1.2,0,0,1,.16.4l20-1.79,3-1a6.52,6.52,0,0,1-.07-1,6.45,6.45,0,0,1,.51-2.52L57.2,86.18A1.23,1.23,0,0,1,56,87.05Z" transform="translate(-0.01 -1.91)" fill="none"/><path d="M87.34,87.8a1.84,1.84,0,0,1-.17-.34l-4.84.75a6.45,6.45,0,0,1,.36,2Z" transform="translate(-0.01 -1.91)" fill="none"/><path d="M97.12,52.85V46.67a6.43,6.43,0,0,1-1,.39Z" transform="translate(-0.01 -1.91)" fill="none"/><path d="M87.09,87.14a1.66,1.66,0,0,1,0-.31A1.82,1.82,0,0,1,88.55,85l-.36-3.49a1.58,1.58,0,0,1-1-.4l-5.74,5.3a6.46,6.46,0,0,1,.83,1.44Z" transform="translate(-0.01 -1.91)" fill="none"/><path d="M94.75,53l1.26.51a1.59,1.59,0,0,1,.81-.56l-1-5.79a6.46,6.46,0,0,1-1.07.17Z" transform="translate(-0.01 -1.91)" fill="none"/><path d="M86.92,80.9A1.56,1.56,0,0,1,86.6,80a1.13,1.13,0,0,1,0-.15l-1.06-.2L81,85.93l.23.26Z" transform="translate(-0.01 -1.91)" fill="none"/><path d="M80,78.26h0l5.34,1,7.14-9.83L74.61,76q-.54.52-1.11,1Z" transform="translate(-0.01 -1.91)" fill="none"/><path d="M42.23,20l-2.68-.27,3,1.39.1,0A1.58,1.58,0,0,1,42.23,20Z" transform="translate(-0.01 -1.91)" fill="none"/><path d="M40.83,92.61l-3.4-1.33c0,.07,0,.15,0,.23Z" transform="translate(-0.01 -1.91)" fill="none"/><path d="M19.3,41.77a1.24,1.24,0,0,1-.18,1.76l1.06,1.59a32.43,32.43,0,0,1,2.18-6.42Z" transform="translate(-0.01 -1.91)" fill="none"/><path d="M32.32,19l-2.81-.28a1.63,1.63,0,0,1-.45.85,1.67,1.67,0,0,1-2,.26l-4.65,6.4,7,2.65a32.82,32.82,0,0,1,5.07-4Z" transform="translate(-0.01 -1.91)" fill="none"/><path d="M45.32,19.48a1.54,1.54,0,0,1,.08.48,1.58,1.58,0,0,1-.06.42q1.11-.23,2.24-.39Z" transform="translate(-0.01 -1.91)" fill="none"/><path d="M38.61,19.61,32.66,19l2,5.66a32.52,32.52,0,0,1,7.44-3.46Z" transform="translate(-0.01 -1.91)" fill="none"/><path d="M56.77,12.91a1.23,1.23,0,0,1,2.25.23L61,12.77l-6-2q-.11.29-.24.57Z" transform="translate(-0.01 -1.91)" fill="none"/><path d="M23.74,35.86a1.21,1.21,0,0,1,.07-.4l.06-.14a1.25,1.25,0,0,1,.35-.44l-3.65-6.17-1,1.42-.88,11.23a1.23,1.23,0,0,1,.41.2l3.69-3.69q.47-.94,1-1.85A1.19,1.19,0,0,1,23.74,35.86Z" transform="translate(-0.01 -1.91)" fill="none"/><path d="M35.33,96.4l25.35,4,0-.09-6-2.25a1.65,1.65,0,0,1-2.09-.2,1.59,1.59,0,0,1-.41-.74L46.68,95a1.22,1.22,0,0,1-1,.53h0l-.36-.08-.15,0a1.24,1.24,0,0,1-.65-.71l-8.62,1.07A6.51,6.51,0,0,1,35.33,96.4Z" transform="translate(-0.01 -1.91)" fill="none"/><path d="M21.95,83a1.59,1.59,0,0,1-1.59-1.59,1.57,1.57,0,0,1,.12-.59L13,75.46a1.85,1.85,0,0,1-.32.31L25.31,88.45a6.5,6.5,0,0,1,1.17-1.51L23.2,82.43A1.58,1.58,0,0,1,21.95,83Z" transform="translate(-0.01 -1.91)" fill="none"/><path d="M44.43,94.43s0-.06,0-.09a1,1,0,0,1,0-.21l-7-2.28a6.44,6.44,0,0,1-1.26,3.6Z" transform="translate(-0.01 -1.91)" fill="none"/><path d="M18.33,53.63a1.58,1.58,0,0,1-.62.67l2,2.77a32.85,32.85,0,0,1-.31-3.33Z" transform="translate(-0.01 -1.91)" fill="none"/><path d="M17.41,54.44a1.57,1.57,0,0,1-.51.09,1.44,1.44,0,0,1-.34,0L13,65.18a1.69,1.69,0,0,1,.27.16L21,62.44a32.46,32.46,0,0,1-1.14-4.66Z" transform="translate(-0.01 -1.91)" fill="none"/><path d="M13.54,65.57a1.66,1.66,0,0,1,0,2.3,1.59,1.59,0,0,1-.31.23l8.57,11.79.19,0a1.48,1.48,0,0,1,.33,0L23,77.46a1.58,1.58,0,0,1,.28-2.91L22.84,67a32.47,32.47,0,0,1-1.79-4.29Z" transform="translate(-0.01 -1.91)" fill="none"/><path d="M12.27,48.55v.78l3.46,2.55a1.58,1.58,0,0,1,.52-.38L12.84,41a1.67,1.67,0,0,1-.56,0v1.27a6.48,6.48,0,0,1,0,6.23Z" transform="translate(-0.01 -1.91)" fill="none"/><path d="M32.2,18.65l-.07-.2a1.58,1.58,0,0,1-1-.94L29.51,18a1.74,1.74,0,0,1,0,.34Z" transform="translate(-0.01 -1.91)" fill="none"/><path d="M37.69,19.19l-3.58-1.64a1.58,1.58,0,0,1-1.46,1h-.16l.05.15Z" transform="translate(-0.01 -1.91)" fill="none"/><path d="M22.07,26.1l4.69-6.46L21,25a1.57,1.57,0,0,1,.31.83Z" transform="translate(-0.01 -1.91)" fill="none"/><path d="M19.85,27.49h-.1l-.16,2,.8-1.11Z" transform="translate(-0.01 -1.91)" fill="none"/><path d="M86.11,23.53a.86.86,0,0,1-.63-.27l-2,1.31L87.45,30l3-.14a1.52,1.52,0,0,1,.4-.63L86.5,23.43A.86.86,0,0,1,86.11,23.53Z" transform="translate(-0.01 -1.91)" fill="none"/><path d="M21.89,26.36l-.61-.23a1.57,1.57,0,0,1-1.1,1.31l.42.71Z" transform="translate(-0.01 -1.91)" fill="none"/><path d="M14,40.05l3.33,1.8a1.2,1.2,0,0,1,.2-.22l.12-.09a1.24,1.24,0,0,1,.68-.21l.84-10.68-5.52,7.6A1.66,1.66,0,0,1,14,40.05Z" transform="translate(-0.01 -1.91)" fill="none"/><path d="M63.72,19.8a1.23,1.23,0,0,1,1.08.63,1.51,1.51,0,0,1-.08-.47,1.59,1.59,0,0,1,.69-1.3l-6.63-4.33-.07.07L63.08,20A1.24,1.24,0,0,1,63.72,19.8Z" transform="translate(-0.01 -1.91)" fill="none"/><path d="M76,14.52a.76.76,0,0,1-.07.33l2.13,1.6a1.66,1.66,0,0,1,1.42.47,1.63,1.63,0,0,1,.46,1L85.52,22l.14-.11-8.36-10a1.8,1.8,0,0,1-1,.33,1.71,1.71,0,0,1-.38,0l-.3,1.59A.77.77,0,0,1,76,14.52Z" transform="translate(-0.01 -1.91)" fill="none"/><path d="M87,22.65a.87.87,0,0,1-.1.4l8.54,6.55L77.58,11.76l8.4,10A.87.87,0,0,1,87,22.65Z" transform="translate(-0.01 -1.91)" fill="none"/><path d="M74.65,14.05h0l-.48-.57.59.45a.77.77,0,0,1,.49-.19l.3-1.62a1.82,1.82,0,0,1-1.1-1.35l-4.28.41a1.44,1.44,0,0,1,0,.3,1.55,1.55,0,0,1-.09.51Z" transform="translate(-0.01 -1.91)" fill="none"/><path d="M74.64,15a.77.77,0,0,1-.14-.45.71.71,0,0,1,0-.17L70,12.28a1.57,1.57,0,0,1-1.36.78A1.6,1.6,0,0,1,67.1,11.9l-4.88.94,10.57,3.43Z" transform="translate(-0.01 -1.91)" fill="none"/><path d="M66.31,18.38a1.59,1.59,0,0,1,1.26.63l.21,0a1.23,1.23,0,0,1,.79.29l3.89-2.77L61.56,13l-2.49.48a.67.67,0,0,1,0,.08,1.22,1.22,0,0,1-.13.54l6.77,4.42A1.57,1.57,0,0,1,66.31,18.38Z" transform="translate(-0.01 -1.91)" fill="none"/><path d="M42.26,19.65a1.59,1.59,0,0,1,.4-.77L34.23,17a1.47,1.47,0,0,1,0,.3l4.43,2Z" transform="translate(-0.01 -1.91)" fill="none"/><path d="M94.42,65V53.18l-1.27-.52a1.57,1.57,0,0,1-2.57-1L86.3,49.87a1.23,1.23,0,0,1-.44.45L93,66.23A1.63,1.63,0,0,1,94.42,65Z" transform="translate(-0.01 -1.91)" fill="none"/><path d="M17,51.36l1.1-7.59a1.23,1.23,0,0,1-.8-.6L17.2,43a1.21,1.21,0,0,1-.09-.47,1.28,1.28,0,0,1,0-.18v0l0-.14,0-.09-3.34-1.8a1.49,1.49,0,0,1-.2.25,1.61,1.61,0,0,1-.51.34L16.56,51.4A1.18,1.18,0,0,1,17,51.36Z" transform="translate(-0.01 -1.91)" fill="none"/><path d="M95.76,65.44l.15.18L100.7,62a1.81,1.81,0,0,1,.23-2.46L98.1,55.8a1.58,1.58,0,0,1-.82.23,1.47,1.47,0,0,1-.35,0l-2,9A1.63,1.63,0,0,1,95.76,65.44Z" transform="translate(-0.01 -1.91)" fill="none"/><path d="M95.69,54.45a1.54,1.54,0,0,1,.16-.68l-1.1-.45V64.38l1.88-8.49A1.57,1.57,0,0,1,95.69,54.45Z" transform="translate(-0.01 -1.91)" fill="none"/><path d="M96.08,65.9a1.65,1.65,0,0,1-.32,1.89,1.63,1.63,0,0,1-.72.42,1.15,1.15,0,0,1,.1.29v0c-.18.47-.33.85-.48,1.21v0h0a1.22,1.22,0,0,1-.69.22h-.13L89.55,85.11h0l11.57-22.71a1.84,1.84,0,0,1-.23-.18Z" transform="translate(-0.01 -1.91)" fill="none"/><path d="M88.94,78.57A1.59,1.59,0,0,1,89.77,80a1.58,1.58,0,0,1-1.26,1.55L88.87,85h0a1.72,1.72,0,0,1,.34,0l4.23-15Z" transform="translate(-0.01 -1.91)" fill="none"/><path d="M13.36,74.31a1.83,1.83,0,0,1-.23.87l7.5,5.39a1.57,1.57,0,0,1,.78-.61L12.89,68.25a1.68,1.68,0,0,1-.58.1l-.41,4.17A1.83,1.83,0,0,1,13.36,74.31Z" transform="translate(-0.01 -1.91)" fill="none"/><path d="M12.69,65.08l3.56-10.7a1.58,1.58,0,0,1-.71-2.25l-3.26-2.4V65h0A1.7,1.7,0,0,1,12.69,65.08Z" transform="translate(-0.01 -1.91)" fill="none"/><path d="M65.55,92.71,46.91,94.38a1.18,1.18,0,0,1,0,.19l5.32,1.73A1.66,1.66,0,0,1,53.81,95h0a1.65,1.65,0,0,1,1.17.49,1.61,1.61,0,0,1,.35.51Z" transform="translate(-0.01 -1.91)" fill="none"/><path d="M93.23,69.77a1.26,1.26,0,0,1-.31-.31l-7.17,9.87.92.17a1.58,1.58,0,0,1,1.52-1.14,1.55,1.55,0,0,1,.48.08Z" transform="translate(-0.01 -1.91)" fill="none"/><path d="M55.05,10.51l6.56,2.13,5.43-1a.89.89,0,0,1,0-.12,1.59,1.59,0,0,1,1.59-1.59,1.57,1.57,0,0,1,1.45,1l4.34-.42h0a1.22,1.22,0,0,1,0-.16l-19.23-3a6.5,6.5,0,0,1-.15,3.29Z" transform="translate(-0.01 -1.91)" fill="none"/><path d="M11.29,40.56A1.66,1.66,0,0,1,13.4,38l5.82-8,.2-2.55a1.58,1.58,0,1,1,1.33-2.74l5.81-5.35a1.66,1.66,0,0,1-.27-.54l-4,.72a1.5,1.5,0,0,1,0,.16,1.84,1.84,0,0,1-1.83,1.83,1.79,1.79,0,0,1-.73-.16L10.21,40.06a6.5,6.5,0,0,1,.89.72Z" transform="translate(-0.01 -1.91)" fill="none"/><path d="M11.95,41a1.69,1.69,0,0,1-.41-.2l-.21.25a6.5,6.5,0,0,1,.62.77Z" transform="translate(-0.01 -1.91)" fill="none"/><polygon points="11.93 47.18 11.93 47.18 11.93 47.18 11.93 47.18" fill="none"/><path d="M42.4,8.36,22,18.75a1.81,1.81,0,0,1,.21.48l4-.72a1.65,1.65,0,0,1,3.17-.78l1.67-.54a1.64,1.64,0,0,1,0-.24,1.58,1.58,0,0,1,3-.73L44.11,13A6.45,6.45,0,0,1,42.4,8.58C42.4,8.5,42.4,8.43,42.4,8.36Z" transform="translate(-0.01 -1.91)" fill="none"/><path d="M8.22,51.71l3.29,20.77h.07L12,68.32a1.64,1.64,0,0,1-.85-.45,1.66,1.66,0,0,1,.8-2.79V49.49l-.19-.14A6.48,6.48,0,0,1,8.22,51.71Z" transform="translate(-0.01 -1.91)" fill="none"/><path d="M90.37,30.16l-2.7.13,1.16,1.6,1.83-.64a1.52,1.52,0,0,1-.3-.91A1.41,1.41,0,0,1,90.37,30.16Z" transform="translate(-0.01 -1.91)" fill="none"/><path d="M48.87,15.05a6.45,6.45,0,0,1-4.51-1.83L34.17,16.53l0,.1,8.76,2a1.58,1.58,0,0,1,2.2.5l.09,0,11.49-5.07a1.19,1.19,0,0,1-.14-.55,1.16,1.16,0,0,1,0-.3l-2.09-1.54A6.47,6.47,0,0,1,48.87,15.05Z" transform="translate(-0.01 -1.91)" fill="none"/><path d="M85.24,22.65a.84.84,0,0,1,.06-.32l-5.43-3.58a1.67,1.67,0,0,1-.27.43l3.73,5.13,2-1.32A.84.84,0,0,1,85.24,22.65Z" transform="translate(-0.01 -1.91)" fill="none"/><path d="M74.87,15.18l-1.71,1.21,3.62,1.18a1.61,1.61,0,0,1,.36-.62l-1.5-1.75A.78.78,0,0,1,74.87,15.18Z" transform="translate(-0.01 -1.91)" fill="none"/><path d="M77.39,16.74a1.64,1.64,0,0,1,.32-.18l-1.34-1Z" transform="translate(-0.01 -1.91)" fill="none"/><path d="M80,18.43l1.87,1.23L80,18.28S80,18.38,80,18.43Z" transform="translate(-0.01 -1.91)" fill="none"/><path d="M102.15,59.06H102L99.71,44.36c-.09.13-.17.26-.27.39l2.28,14.37a1.84,1.84,0,0,0-.53.23L98.36,55.6A1.58,1.58,0,0,0,98,53l.06-.11v-.08s0-.08,0-.12,0-.08,0-.11V52.3l-.36.63-.25,0V46.5l-.33.17v6.17l-1-5.78-.3.08,1,5.79a1.59,1.59,0,0,0-.81.56L94.75,53V47.32l-.33,0v5.51l-1-.42a1.58,1.58,0,1,0-2.81-1.14l-4.17-1.7a1.15,1.15,0,0,0,0-.32,1.22,1.22,0,0,0-.2-.67l3.59-3-.22-.22-3.57,3a1.23,1.23,0,0,0-.85-.34,1.21,1.21,0,0,0-.5.11l-.33-.56q.2,1.38.29,2.8a1.22,1.22,0,0,0,.91.07l7,15.61.4.9a1.64,1.64,0,0,0,.28.62l.06.13a1.24,1.24,0,0,0-.45.48L82.52,64.23l-.11.29,10.34,3.94a1.15,1.15,0,0,0,0,.29,1.13,1.13,0,0,0,0,.28L75.15,75.49l-.54.53,17.92-6.59-7.14,9.83-5.34-1h0L73.5,77l-.3.26,12,2.25-4.47,6.15.23.24,4.59-6.32,1.06.2a1.13,1.13,0,0,0,0,.15,1.56,1.56,0,0,0,.32.95l-5.73,5.29.2.26,5.74-5.3a1.58,1.58,0,0,0,1,.4L88.55,85a1.82,1.82,0,0,0-1.48,1.79,1.66,1.66,0,0,0,0,.31l-4.88.75.12.31,4.84-.75a1.84,1.84,0,0,0,.17.34L82.7,90.16c0,.07,0,.13,0,.2s0,.11,0,.17l4.85-2.47a1.83,1.83,0,1,0,2.32-2.78l11.57-22.7a1.79,1.79,0,0,0,.71.15,1.83,1.83,0,1,0,0-3.67ZM96.93,56a1.47,1.47,0,0,0,.35,0,1.58,1.58,0,0,0,.82-.23l2.82,3.74A1.81,1.81,0,0,0,100.7,62l-4.79,3.62-.15-.18a1.63,1.63,0,0,0-.83-.44Zm-2.18-2.67,1.1.45a1.54,1.54,0,0,0-.16.68,1.57,1.57,0,0,0,.94,1.45l-1.88,8.49ZM93,66.23,85.86,50.32a1.23,1.23,0,0,0,.44-.45l4.29,1.75a1.57,1.57,0,0,0,2.57,1l1.27.52V65A1.63,1.63,0,0,0,93,66.23ZM86.67,79.51l-.92-.17,7.17-9.87a1.26,1.26,0,0,0,.31.31l-4.57,8.68a1.55,1.55,0,0,0-.48-.08A1.58,1.58,0,0,0,86.67,79.51ZM88.9,85h0l-.36-3.49A1.58,1.58,0,0,0,89.77,80a1.59,1.59,0,0,0-.82-1.39L93.47,70,89.23,85A1.72,1.72,0,0,0,88.9,85Zm.69.14h0L93.81,70h.13a1.22,1.22,0,0,0,.69-.22h0v0c.15-.35.3-.73.48-1.21v0a1.15,1.15,0,0,0-.1-.29,1.63,1.63,0,0,0,.72-.42,1.65,1.65,0,0,0,.32-1.89l4.84-3.66a1.84,1.84,0,0,0,.23.18Z" transform="translate(-0.01 -1.91)"/><path d="M81.06,37.31l6.92,2,.08-.3-7.2-2.07Z" transform="translate(-0.01 -1.91)"/><path d="M63.94,99.72l7.27-5.28-.2-.26-7.29,5.3a1.82,1.82,0,0,0-2.83.4l-5.52-2.62a1.69,1.69,0,0,0,.06-.91L67,92.58l3-.27L70,92l-1.64.15,1.56-.51q0-.16-.06-.32l-3,1-20,1.79a1.2,1.2,0,0,0-.16-.4l8.45-7a1.23,1.23,0,0,0,2-.53l13.07,1.66.13-.29L57.25,85.87a.52.52,0,0,0,0-.06,1.21,1.21,0,0,0-.1-.47l1.81-1-1,.19-1,.56a1.25,1.25,0,0,0-.38-.34q-.72.1-1.45.17A1.22,1.22,0,0,0,55,86.47l-8.45,7a1.25,1.25,0,0,0-.45-.27l1.73-8.39-.31,0L45.77,93.1a1.11,1.11,0,0,0-.54.08l-5.7-10.62-.45-.19,5.89,11a1.22,1.22,0,0,0-.37.42L37.4,90.94q0,.17,0,.34l3.4,1.33-3.39-1.1s0,.07,0,.11,0,.16,0,.24l7,2.28a1,1,0,0,0,0,.21s0,.06,0,.09l-8.26,1-.29.37,8.62-1.07a1.24,1.24,0,0,0,.65.71l.15,0,.36.08h0a1.22,1.22,0,0,0,1-.53l5.54,2.08a1.59,1.59,0,0,0,.41.74,1.65,1.65,0,0,0,2.09.2l6,2.25,0,.09-25.35-4-.33.28,25.64,4.06a.66.66,0,0,0,0,.08,1.83,1.83,0,1,0,3.67,0,1.8,1.8,0,0,0-.19-.8l8.47-4.31-.29-.22ZM49.8,95.87l2.36.77s0,.08,0,.12Zm4-.84h0a1.66,1.66,0,0,0-1.61,1.27l-5.32-1.73a1.18,1.18,0,0,0,0-.19l18.64-1.67L55.33,96a1.61,1.61,0,0,0-.35-.51A1.65,1.65,0,0,0,53.81,95ZM55,97.83a1.65,1.65,0,0,0,.21-.28l3.65,1.74Z" transform="translate(-0.01 -1.91)"/><path d="M72.84,77.59l-.53.42.2-.11,3.41,6h.35l-3.52-6.17Z" transform="translate(-0.01 -1.91)"/><path d="M34.45,79.92l-1.16,5.66.29.12,1.15-5.6Z" transform="translate(-0.01 -1.91)"/><path d="M20.17,27.43l.42.71,1.3-1.78-.61-.23A1.57,1.57,0,0,1,20.17,27.43Z" transform="translate(-0.01 -1.91)" fill="none"/><path d="M31.17,17.51,29.51,18a1.74,1.74,0,0,1,0,.34l2.66.26-.07-.2A1.58,1.58,0,0,1,31.17,17.51Z" transform="translate(-0.01 -1.91)" fill="none"/><path d="M21.29,25.8l.79.3,4.69-6.46L21,25A1.57,1.57,0,0,1,21.29,25.8Z" transform="translate(-0.01 -1.91)" fill="none"/><path d="M14,40.05l3.33,1.8a1.2,1.2,0,0,1,.2-.22l.12-.09a1.24,1.24,0,0,1,.68-.21l.84-10.68-5.52,7.6A1.66,1.66,0,0,1,14,40.05Z" transform="translate(-0.01 -1.91)" fill="none"/><path d="M19.75,27.5l-.16,2,.8-1.11-.55-.92Z" transform="translate(-0.01 -1.91)" fill="none"/><path d="M87,22.65a.87.87,0,0,1-.1.4l8.54,6.55L77.58,11.76l8.4,10A.87.87,0,0,1,87,22.65Z" transform="translate(-0.01 -1.91)" fill="none"/><path d="M34.2,17.25l4.43,2,3.63.36a1.59,1.59,0,0,1,.4-.77L34.23,17A1.47,1.47,0,0,1,34.2,17.25Z" transform="translate(-0.01 -1.91)" fill="none"/><path d="M74.65,14.05h0l-.48-.57.59.45a.77.77,0,0,1,.49-.19l.3-1.62a1.82,1.82,0,0,1-1.1-1.35l-4.28.41a1.44,1.44,0,0,1,0,.3,1.55,1.55,0,0,1-.09.51Z" transform="translate(-0.01 -1.91)" fill="none"/><path d="M32.65,18.54h-.16l.05.15,5.16.51-3.58-1.64A1.58,1.58,0,0,1,32.65,18.54Z" transform="translate(-0.01 -1.91)" fill="none"/><path d="M96.88,33l-.55,1.71a6.43,6.43,0,0,1,.78.32v-2Z" transform="translate(-0.01 -1.91)" fill="none"/><path d="M91.89,31.87a1.52,1.52,0,0,1-1-.38L89,32.15l2.19,3a6.43,6.43,0,0,1,1.73-.63l-.78-2.68Z" transform="translate(-0.01 -1.91)" fill="none"/><path d="M95.45,31.23a1.8,1.8,0,0,1,.29-1L87,23.56,91.1,29a1.53,1.53,0,1,1,1.37,2.73l.79,2.71a6.48,6.48,0,0,1,2.77.16l.55-1.71A1.84,1.84,0,0,1,95.45,31.23Z" transform="translate(-0.01 -1.91)" fill="none"/><path d="M12.32,68.35l-.41,4.17a1.82,1.82,0,0,1,1.23,2.66l7.5,5.39a1.57,1.57,0,0,1,.78-.61L12.89,68.25A1.68,1.68,0,0,1,12.32,68.35Z" transform="translate(-0.01 -1.91)" fill="none"/><path d="M15.31,52.94a1.57,1.57,0,0,1,.22-.8l-3.26-2.4V65h0a1.7,1.7,0,0,1,.38,0l3.56-10.7A1.57,1.57,0,0,1,15.31,52.94Z" transform="translate(-0.01 -1.91)" fill="none"/><path d="M97.44,33.06v2.17q.28.16.54.35L97.59,33Z" transform="translate(-0.01 -1.91)" fill="none"/><path d="M17.27,43.17,17.2,43a1.21,1.21,0,0,1-.09-.47,1.28,1.28,0,0,1,0-.18v0l0-.14,0-.09-3.34-1.8a1.49,1.49,0,0,1-.2.25,1.61,1.61,0,0,1-.51.34L16.56,51.4a1.18,1.18,0,0,1,.4,0l1.1-7.59A1.23,1.23,0,0,1,17.27,43.17Z" transform="translate(-0.01 -1.91)" fill="none"/><path d="M85.24,22.65a.84.84,0,0,1,.06-.32l-5.43-3.58a1.67,1.67,0,0,1-.27.43l3.73,5.13,2-1.32A.84.84,0,0,1,85.24,22.65Z" transform="translate(-0.01 -1.91)" fill="none"/><path d="M91.71,42.52a.64.64,0,0,0-.65.64v1h1.29v-1A.64.64,0,0,0,91.71,42.52Z" transform="translate(-0.01 -1.91)" fill="none"/><path d="M90.85,29.22,86.5,23.43a.86.86,0,0,1-1-.18l-2,1.31L87.45,30l3-.14A1.52,1.52,0,0,1,90.85,29.22Z" transform="translate(-0.01 -1.91)" fill="none"/><path d="M90.36,30.34a1.41,1.41,0,0,1,0-.18l-2.7.13,1.16,1.6,1.83-.64A1.52,1.52,0,0,1,90.36,30.34Z" transform="translate(-0.01 -1.91)" fill="none"/><path d="M74.49,14.52a.71.71,0,0,1,0-.17L70,12.28a1.57,1.57,0,0,1-1.36.78A1.6,1.6,0,0,1,67.1,11.9l-4.88.94,10.57,3.43L74.64,15A.77.77,0,0,1,74.49,14.52Z" transform="translate(-0.01 -1.91)" fill="none"/><path d="M74.87,15.18l-1.71,1.21,3.62,1.18a1.61,1.61,0,0,1,.36-.62l-1.5-1.75A.78.78,0,0,1,74.87,15.18Z" transform="translate(-0.01 -1.91)" fill="none"/><path d="M77.39,16.74a1.64,1.64,0,0,1,.32-.18l-1.34-1Z" transform="translate(-0.01 -1.91)" fill="none"/><path d="M59.07,13.45a.67.67,0,0,1,0,.08,1.22,1.22,0,0,1-.13.54l6.77,4.42a1.57,1.57,0,0,1,1.85.51l.21,0a1.23,1.23,0,0,1,.79.29l3.89-2.77L61.56,13Z" transform="translate(-0.01 -1.91)" fill="none"/><path d="M81.84,19.66,80,18.28s0,.1,0,.15Z" transform="translate(-0.01 -1.91)" fill="none"/><path d="M85.52,22l.14-.11-8.36-10a1.8,1.8,0,0,1-1,.33,1.71,1.71,0,0,1-.38,0l-.3,1.59a.77.77,0,0,1,.48.71.76.76,0,0,1-.07.33l2.13,1.6a1.66,1.66,0,0,1,1.42.47,1.63,1.63,0,0,1,.46,1Z" transform="translate(-0.01 -1.91)" fill="none"/><path d="M58.72,14.4,63.08,20a1.23,1.23,0,0,1,1.72.46,1.51,1.51,0,0,1-.08-.47,1.59,1.59,0,0,1,.69-1.3l-6.63-4.33Z" transform="translate(-0.01 -1.91)" fill="none"/><path d="M89,32.15l1.87-.65a1.52,1.52,0,0,0,1,.38l.27,0,.78,2.68.32-.06-.79-2.71A1.53,1.53,0,1,0,91.1,29L87,23.56l8.73,6.7a1.8,1.8,0,0,0-.29,1,1.84,1.84,0,0,0,1.12,1.68L96,34.63l.31.1L96.88,33l.24,0v2l.33.17V33.06l.14,0,.4,2.53.38.28-.46-2.9a1.83,1.83,0,1,0-1.79-3.12L77.75,11.47a1.8,1.8,0,0,0,.33-1,1.83,1.83,0,0,0-3.6-.48L55.12,6.88c0,.11.06.23.08.34l19.23,3a1.22,1.22,0,0,0,0,.16h0l-4.34.42a1.57,1.57,0,0,0-1.45-1A1.59,1.59,0,0,0,67,11.48a.89.89,0,0,0,0,.12l-5.43,1-6.56-2.13-.11.31,6,2L59,13.14a1.23,1.23,0,0,0-2.25-.23l-2.06-1.52-.15.29,2.09,1.54a1.16,1.16,0,0,0,0,.3,1.19,1.19,0,0,0,.14.55L45.25,19.15l-.09,0a1.58,1.58,0,0,0-2.2-.5l-8.76-2,0-.1,10.19-3.31L44.11,13,34.05,16.22a1.58,1.58,0,0,0-3,.73,1.64,1.64,0,0,0,0,.24l-1.67.54a1.65,1.65,0,0,0-3.17.78l-4,.72a1.81,1.81,0,0,0-.21-.48L42.4,8.36c0-.13,0-.25,0-.38L21.79,18.49a1.83,1.83,0,1,0-2.36,2.75L9.93,39.89l.28.18L19.72,21.4a1.79,1.79,0,0,0,.73.16,1.84,1.84,0,0,0,1.83-1.83,1.5,1.5,0,0,0,0-.16l4-.72a1.66,1.66,0,0,0,.27.54l-5.81,5.35a1.57,1.57,0,0,0-1-.4,1.58,1.58,0,0,0-.29,3.14L19.22,30,13.4,38a1.66,1.66,0,0,0-2.11,2.53l-.19.22.23.23.21-.25a1.69,1.69,0,0,0,.41.2v.81q.18.26.33.53V41.06a1.67,1.67,0,0,0,.56,0L16.25,51.5a1.58,1.58,0,0,0-.52.38l-3.46-2.55v-.78q-.15.28-.33.53h0l-.19.27.19.14V65.07a1.66,1.66,0,0,0,0,3.24l-.41,4.17h-.07L8.22,51.71l-.32.07,3.28,20.74a1.83,1.83,0,0,0,.34,3.63,1.8,1.8,0,0,0,.82-.2L25.15,88.75l.16-.3L12.63,75.77a1.85,1.85,0,0,0,.32-.31l7.52,5.41a1.57,1.57,0,0,0-.12.59,1.58,1.58,0,0,0,2.84,1l3.28,4.52.24-.22-3.34-4.6A1.57,1.57,0,0,0,22.59,80l.67-2.43a1.5,1.5,0,0,0,.44.07,1.58,1.58,0,0,0,1.58-1.46l4.37,0-.29-.28-4.08,0a1.58,1.58,0,0,0-1.57-1.43h-.18l-.35-6.83L22.84,67l.4,7.53A1.58,1.58,0,0,0,23,77.46l-.68,2.45a1.48,1.48,0,0,0-.33,0l-.19,0L13.19,68.1a1.59,1.59,0,0,0,.31-.23,1.66,1.66,0,0,0,0-2.3l7.51-2.83-.1-.29-7.69,2.9a1.69,1.69,0,0,0-.27-.16l3.56-10.7a1.44,1.44,0,0,0,.34,0,1.57,1.57,0,0,0,.51-.09l2.41,3.34q-.06-.35-.11-.71l-2-2.77a1.58,1.58,0,0,0,.62-.67l1.08.12c0-.11,0-.22,0-.33l-1-.1a1.5,1.5,0,0,0,0-.37,1.59,1.59,0,0,0-1.2-1.54l1.11-7.6h0l1.16,4.8q0-.43.11-.86l-1-4,.12,0,1.23,1.85.09-.42-1.06-1.59a1.24,1.24,0,0,0,.18-1.76l3.06-3.06q.19-.42.4-.84l-3.69,3.69a1.23,1.23,0,0,0-.41-.2l.88-11.23,1-1.42,3.65,6.17a1.25,1.25,0,0,0-.35.44l-.06.14a1.21,1.21,0,0,0-.07.4,1.19,1.19,0,0,0,0,.15q.39-.67.8-1.32l-.07,0-3.72-6.28,1.43-2,6.9,2.63.24-.24-7-2.65L27,19.81a1.67,1.67,0,0,0,2-.26,1.63,1.63,0,0,0,.45-.85l2.81.28,2.1,5.86.27-.17-2-5.66,5.95.59,3.52,1.62.44-.14-3-1.39,2.68.27a1.58,1.58,0,0,0,.45,1.09q1.31-.39,2.67-.68A1.58,1.58,0,0,0,45.4,20a1.54,1.54,0,0,0-.08-.48l2.26.52.9-.11-2.7-.62,11.14-4.92,0,0L52.68,19.7h.39l4.12-5.13a1.25,1.25,0,0,0,1.29,0l4.37,5.58a1.24,1.24,0,0,0-.34.7l-1.86,0,1.13.33h.72v.09l-.21.07q1.05.35,2.07.76L64.5,22l.26.25.82.36-.87-.84A1.22,1.22,0,0,0,65,21a1.06,1.06,0,0,0,0-.15l.06,0a1.58,1.58,0,0,0,2.14.42,1.22,1.22,0,0,0,1.18,0l2.38,4.21.6.43-2.72-4.82a1.23,1.23,0,0,0,.19-1.65l4-2.88,3.88,1.26a1.66,1.66,0,0,0,.47,1.37,1.6,1.6,0,0,0,.49.34l-3.13,9.07.24.24L78,19.69a1.66,1.66,0,0,0,1.39-.29l3.7,5.09-7.62,5,.22.22,7.58-5L87.06,30l-10.71.51.26.3,10.67-.5L88.51,32l-3.57,1.25A1.43,1.43,0,0,0,85,33a1.59,1.59,0,1,0-3.17,0,1.57,1.57,0,0,0,.52,1.17L79.77,35l.17.27,2.69-.94a1.57,1.57,0,0,0,2.21-.77l3.86-1.35,2.22,3.06.29-.16ZM21.41,80a1.57,1.57,0,0,0-.78.61l-7.5-5.39a1.82,1.82,0,0,0-1.23-2.66l.41-4.17a1.68,1.68,0,0,0,.58-.1ZM12.69,65.08a1.7,1.7,0,0,0-.38,0h0V49.73l3.26,2.4a1.58,1.58,0,0,0,.71,2.25ZM17,51.36a1.18,1.18,0,0,0-.4,0L13.15,40.93a1.61,1.61,0,0,0,.51-.34,1.49,1.49,0,0,0,.2-.25l3.34,1.8,0,.09,0,.14v0a1.28,1.28,0,0,0,0,.18,1.21,1.21,0,0,0,.09.47l.07.13a1.23,1.23,0,0,0,.8.6Zm1.38-10a1.24,1.24,0,0,0-.68.21l-.12.09a1.2,1.2,0,0,0-.2.22L14,40.05a1.66,1.66,0,0,0-.35-1.81l5.52-7.6Zm1.25-11.81.16-2h.1l.55.92Zm1-1.38-.42-.71a1.57,1.57,0,0,0,1.1-1.31l.61.23Zm1.48-2-.79-.3A1.57,1.57,0,0,0,21,25l5.79-5.33Zm7.47-7.71a1.74,1.74,0,0,0,0-.34l1.66-.54a1.58,1.58,0,0,0,1,.94l.07.2Zm3,.3-.05-.15h.16a1.58,1.58,0,0,0,1.46-1l3.58,1.64Zm9.73,1-3.63-.36-4.43-2a1.47,1.47,0,0,0,0-.3l8.43,1.92A1.59,1.59,0,0,0,42.26,19.65Zm53.16,10-8.54-6.55a.87.87,0,0,0-.9-1.26l-8.4-10ZM70.18,11.18l4.28-.41a1.82,1.82,0,0,0,1.1,1.35l-.3,1.62a.77.77,0,0,0-.49.19l-.59-.45.48.57h0L70.13,12a1.55,1.55,0,0,0,.09-.51A1.44,1.44,0,0,0,70.18,11.18ZM64.72,20a1.51,1.51,0,0,0,.08.47A1.23,1.23,0,0,0,63.08,20L58.72,14.4l.07-.07,6.63,4.33A1.59,1.59,0,0,0,64.72,20Zm3.85-.68a1.23,1.23,0,0,0-.79-.29l-.21,0a1.57,1.57,0,0,0-1.85-.51l-6.77-4.42a1.22,1.22,0,0,0,.13-.54.67.67,0,0,0,0-.08L61.56,13l10.9,3.54Zm4.23-3L62.22,12.84l4.88-.94a1.6,1.6,0,0,0,1.53,1.17A1.57,1.57,0,0,0,70,12.28l4.52,2.07a.71.71,0,0,0,0,.17.77.77,0,0,0,.14.45Zm4,1.3-3.62-1.18,1.71-1.21a.78.78,0,0,0,.78,0L77.14,17A1.61,1.61,0,0,0,76.78,17.57Zm.61-.83-1-1.19,1.34,1A1.64,1.64,0,0,0,77.39,16.74Zm.71-.3L76,14.84a.76.76,0,0,0,.07-.33.77.77,0,0,0-.48-.71l.3-1.59a1.71,1.71,0,0,0,.38,0,1.8,1.8,0,0,0,1-.33l8.36,10-.14.11L80,17.86a1.63,1.63,0,0,0-.46-1A1.66,1.66,0,0,0,78.11,16.45Zm3.73,3.21L80,18.43c0-.05,0-.1,0-.15Zm-2.24-.48a1.67,1.67,0,0,0,.27-.43l5.43,3.58a.83.83,0,0,0,0,.66l-2,1.32Zm3.91,5.38,2-1.31a.86.86,0,0,0,1,.18l4.35,5.79a1.52,1.52,0,0,0-.4.63l-3,.14Zm4.16,5.73,2.7-.13a1.41,1.41,0,0,0,0,.18,1.52,1.52,0,0,0,.3.91l-1.83.64Z" transform="translate(-0.01 -1.91)"/><path d="M52.05,85.36a33,33,0,1,1,33-33A33,33,0,0,1,52.05,85.36Zm0-65A32.06,32.06,0,1,0,84.11,52.37,32.1,32.1,0,0,0,52.05,20.31Z" transform="translate(-0.01 -1.91)" fill="#404041"/><path d="M100.82,40.87a6.56,6.56,0,1,1-6.54-6.56A6.54,6.54,0,0,1,100.82,40.87Zm-8-2.92H91.08v.87h.42c.52,0,.58.07.58.59q0,1.38,0,2.77c0,.81.11.89-.8.88,0,0,0,0-.08,0l-.14,1h1.61v1.27h.88V44.09h.58v1.27H95V44.08a4.13,4.13,0,0,0,.44-.08,6.36,6.36,0,0,0,1.27-.42,1.67,1.67,0,0,0,.76-1.8,1.21,1.21,0,0,0-1-1,1.2,1.2,0,0,1-.18-.1c.58-.5,1-1,.66-1.82s-1.05-.83-1.79-.9V36.65h-.87v1.27h-.59V36.66H92.8Z" transform="translate(-0.01 -1.91)" fill="url(#a)"/><path d="M93.55,43.11V41.24c.59.07,1.15.11,1.7.21a.73.73,0,0,1,0,1.44C94.71,43,94.15,43,93.55,43.11Z" transform="translate(-0.01 -1.91)" fill="url(#b)"/><path d="M93.55,38.79c.41,0,.79,0,1.15.11a.78.78,0,0,1,.72.75.74.74,0,0,1-.64.76c-.39.1-.8.14-1.23.2Z" transform="translate(-0.01 -1.91)" fill="url(#c)"/><path d="M42.36,8.53a6.49,6.49,0,1,1,13-.09,6.5,6.5,0,1,1-13,.09Zm3,4.27h6.93l.43-1.65H48.39c.18-.71.35-1.37.54-2a.47.47,0,0,1,.24-.25c.26-.12.53-.2.79-.31.07,0,.17-.09.19-.15.1-.33.17-.66.26-1l-1.15.43.9-3.5H47.54c0,.07,0,.13-.06.2-.31,1.19-.67,2.37-.91,3.57a1.25,1.25,0,0,1-1,1.16.34.34,0,0,0-.22.19c-.1.32-.17.64-.26,1l1-.37Z" transform="translate(-0.01 -1.91)" fill="url(#d)"/><path d="M0,45.54v-.82a2.59,2.59,0,0,0,.08-.33,6.83,6.83,0,0,1,5.21-5.9c.39-.09.78-.15,1.17-.22h.82a2.58,2.58,0,0,0,.33.07,6.83,6.83,0,0,1,5.9,5.11c.08.33.15.66.22,1v1.37c-.08.38-.17.75-.25,1.13a.37.37,0,0,1-.44.35,9.26,9.26,0,0,0-1.23,0c-.35,0-.45-.09-.45-.44,0-1.65,0-3.3,0-4.94,0-.12,0-.23,0-.35l-.09,0L6.82,46,2.39,41.54c0,.16,0,.28,0,.4,0,1.67,0,3.34,0,5,0,.25-.07.35-.33.34-.45,0-.89,0-1.34,0a.37.37,0,0,1-.44-.35C.2,46.47.11,46,0,45.54Z" transform="translate(-0.01 -1.91)" fill="url(#e)"/><path d="M6.12,52l-.67-.15a6.81,6.81,0,0,1-4.19-2.78c-.06-.09-.12-.19-.22-.35H2.33c.42,0,.85,0,1.27,0s.35-.09.34-.35c0-1.05,0-2.1,0-3.19l2.89,2.91,2.89-2.94.12.06v3.51h2.9A6.5,6.5,0,0,1,11,50.59a6.72,6.72,0,0,1-3.12,1.32A1.27,1.27,0,0,0,7.7,52Z" transform="translate(-0.01 -1.91)" fill="url(#f)"/><path d="M37.57,91.63a6.61,6.61,0,1,1-6.5-6.73A6.64,6.64,0,0,1,37.57,91.63ZM26.64,94.39a1.73,1.73,0,0,0,.25,0c2,0,3.93,0,5.89,0a1.94,1.94,0,0,0,1.79-1.34c.35-.89.62-1.82.89-2.74a1,1,0,0,0-1-1.4c-1.94,0-3.88,0-5.82,0-.11,0-.28.06-.31.14-.16.41-.28.84-.44,1.33h5.5c-.25.78-.5,1.48-.7,2.2-.09.32-.24.39-.55.39-1.58,0-3.15,0-4.73,0-.14,0-.36.07-.4.16C26.89,93.54,26.78,93.95,26.64,94.39Zm-.2-2h3.21a.23.23,0,0,0,.18-.1c.14-.38.26-.77.4-1.21H27a.23.23,0,0,0-.18.11C26.7,91.52,26.58,91.91,26.44,92.34Z" transform="translate(-0.01 -1.91)" fill="url(#g)"/><path d="M82.7,90.16a6.45,6.45,0,0,0-.36-2l-.12-.31a6.46,6.46,0,0,0-.83-1.44l-.2-.26L81,85.93l-.23-.24a6.45,6.45,0,0,0-4.45-1.81h-.35a6.48,6.48,0,0,0-5.52,3.66l-.13.29a6.45,6.45,0,0,0-.51,2.52,6.52,6.52,0,0,0,.07,1q0,.16.06.32T70,92l.09.3A6.45,6.45,0,0,0,71,94.18l.2.26a6.51,6.51,0,0,0,1.06,1l.29.22A6.47,6.47,0,0,0,82.7,90.53c0-.06,0-.11,0-.17S82.7,90.23,82.7,90.16Zm-2.3,3.44a1.85,1.85,0,0,1-.23.4,1.21,1.21,0,0,1-.35.18h-6.5l-.19-.07a.61.61,0,0,1-.15-1c1.72-1.71,3.43-3.43,5.14-5.15l.19-.2H74c0,.36,0,.71,0,1.06s0,.24.24.24h1.17l-2.62,2.61V87.11c.07-.19.13-.39.33-.48l.25-.1h6.5l.09,0a.55.55,0,0,1,.45.57.65.65,0,0,1-.23.49L75,92.77l-.17.19h4.36c0-.41,0-.8,0-1.2,0,0-.06-.08-.09-.09a1.46,1.46,0,0,0-.25,0h-1l.14-.15L80.41,89Z" transform="translate(-0.01 -1.91)" fill="url(#h)"/><path d="M52.89,65.67a10.86,10.86,0,0,0,4.61-.8,8,8,0,0,0,1.65-.81.43.43,0,0,1,.64.08L63.54,68c.27.28.26.37-.06.59a17.87,17.87,0,0,1-4.21,2.13,19.94,19.94,0,0,1-5.72,1.06,19.84,19.84,0,0,1-7.32-1,18,18,0,0,1-5.57-3.13,20.64,20.64,0,0,1-3.9-4.28,16.94,16.94,0,0,1-1.59-2.78q-.5-1.15-.9-2.35a20.92,20.92,0,0,1-.84-4.49,13.54,13.54,0,0,1,.05-3.36,24.38,24.38,0,0,1,.58-3.27A20.51,20.51,0,0,1,36,42.41a19.2,19.2,0,0,1,7.64-7.36,19,19,0,0,1,3.81-1.56,17.06,17.06,0,0,1,3.29-.64,12.72,12.72,0,0,1,2.59-.06,3.55,3.55,0,0,0,.46,0,16.11,16.11,0,0,1,4.17.66,15.47,15.47,0,0,1,3.33,1.31,17.08,17.08,0,0,1,3.13,2c.19.17.34.09.49-.07l2.31-2.44,3.33-3.54c.39-.42.49-.43.91-.05A30.65,30.65,0,0,1,75,34.43a28,28,0,0,1,3.45,5.48,32.79,32.79,0,0,1,1.84,5c.4,1.41.53,2.85.84,4.26a.34.34,0,0,1,0,.08c0,1.31.29,2.62.15,3.93-.16,1.49-.24,3-.55,4.47a33.84,33.84,0,0,1-1,3.65,28.1,28.1,0,0,1-4.35,8.24c-.29.38-.38.39-.71,0-1.1-1.11-2.2-2.24-3.31-3.34-.23-.23-.2-.41,0-.66a22.88,22.88,0,0,0,2.82-5.32,25.68,25.68,0,0,0,1.29-5.48,28.78,28.78,0,0,0,.09-4.31A15.64,15.64,0,0,0,75.27,48a22.52,22.52,0,0,0-3.9-9.12c-.21-.3-.47-.57-.66-.89s-.21-.23-.39-.05c-1.06,1.07-2.15,2.11-3.18,3.2-.36.38-.77.68-1.11,1.07s-.75.76-1.13,1.14l-1.16,1.16c-.18.18-.32.11-.44-.06a12.92,12.92,0,0,0-3.71-3.6,12.34,12.34,0,0,0-4.67-1.8A14.06,14.06,0,0,0,51,39a12.08,12.08,0,0,0-4.56,1.44,12.72,12.72,0,0,0-3.9,3.32,12.91,12.91,0,0,0-2.11,3.91,15.47,15.47,0,0,0-.71,5.19A12.51,12.51,0,0,0,43,61.39a13.28,13.28,0,0,0,4.6,3.29A11.79,11.79,0,0,0,52.89,65.67Z" transform="translate(-0.01 -1.91)" fill="#404041"/><path d="M74,70.45,63.88,60.15c-.22-.23-.4-.24-.58,0a12.73,12.73,0,0,1-2.57,2.76c-.24.19-.24.34,0,.56.91.91,1.81,1.84,2.71,2.75,1.17,1.19,2.34,2.38,3.52,3.57.21.21.2.31,0,.49-.47.35-.93.71-1.42,1A22.06,22.06,0,0,1,57,74.82a17,17,0,0,1-3.63.42c-.16,0-.33,0-.49,0a12.93,12.93,0,0,1-2.59-.08c-1-.15-1.94-.27-2.89-.48a21.33,21.33,0,0,1-3.52-1.13,22.89,22.89,0,0,1-5.39-3.17,23.61,23.61,0,0,1-4.31-4.42,21.84,21.84,0,0,1-3.08-5.69A18.82,18.82,0,0,1,29.74,54a4.55,4.55,0,0,1,0-.68c0-.84,0-1.63,0-2.36a1.84,1.84,0,0,1,0-.77c0-.19.08-.37.11-.56A20.7,20.7,0,0,1,30.32,47a22.92,22.92,0,0,1,1.09-3.41,24.26,24.26,0,0,1,2.3-4.27,23,23,0,0,1,4.88-5.19,22.74,22.74,0,0,1,3.18-2.08h0a22.07,22.07,0,0,1,9-2.71l.58,0A22.43,22.43,0,0,1,61,30.86l.86.36h0q.53.24,1.05.5a23.59,23.59,0,0,1,2.7,1.59.41.41,0,0,0,.61-.06c1.06-1.21,2.18-2.36,3.29-3.52.21-.22.22-.42,0-.6a28.57,28.57,0,0,0-6.39-3.5,29.16,29.16,0,0,0-6-1.62,31.25,31.25,0,0,0-3.88-.37,27.7,27.7,0,0,0-6,.56,29,29,0,0,0-3.72,1,27.5,27.5,0,0,0-6.15,2.95,29.09,29.09,0,0,0-6.19,5.31,28.28,28.28,0,0,0-5.47,9.34,31.86,31.86,0,0,0-1.19,4.45,38.4,38.4,0,0,0-.45,4,21,21,0,0,0,.2,4.31,26.22,26.22,0,0,0,.81,4.19c.27.93.54,1.86.89,2.76a28.8,28.8,0,0,0,2.62,5.17,30.18,30.18,0,0,0,4.57,5.5A28.39,28.39,0,0,0,36.76,76a27.32,27.32,0,0,0,5.46,2.89,27.7,27.7,0,0,0,5.95,1.62,37.23,37.23,0,0,0,4.61.4c1,0,2-.16,2.94-.18a14.13,14.13,0,0,0,2.11-.32c.77-.13,1.53-.33,2.29-.53a28.84,28.84,0,0,0,4.38-1.56,27,27,0,0,0,3.62-2,29.06,29.06,0,0,0,6-5.12C74.41,70.87,74.4,70.81,74,70.45Z" transform="translate(-0.01 -1.91)" fill="url(#i)"/></svg>