<?xml version="1.0" encoding="UTF-8"?>
<svg width="457px" height="457px" viewBox="0 0 457 457" version="1.1" xmlns="http://www.w3.org/2000/svg" xmlns:xlink="http://www.w3.org/1999/xlink">
    <title>celo</title>
    <g id="Page-1" stroke="none" stroke-width="1" fill="none" fill-rule="evenodd">
        <g id="celo" fill-rule="nonzero">
            <path d="M180.394718,408.894352 C253.457684,408.894352 312.684884,349.667152 312.684884,276.605648 C312.684884,203.544144 253.457684,144.316213 180.394718,144.316213 C107.332482,144.316213 48.1052824,203.544144 48.1052824,276.605648 C48.1052824,349.667152 107.332482,408.894352 180.394718,408.894352 Z M180.394718,457 C80.7687176,457 0,376.231648 0,276.605648 C0,176.979648 80.7687176,96.2109304 180.394718,96.2109304 C280.020352,96.2109304 360.788704,176.979648 360.788704,276.605648 C360.788704,376.231648 280.020352,457 180.394718,457 Z" id="Shape" fill="#FBCC5C"></path>
            <path d="M276.605648,312.684884 C349.667152,312.684884 408.894352,253.457684 408.894352,180.394718 C408.894352,107.332482 349.667152,48.1052824 276.605648,48.1052824 C203.544144,48.1052824 144.316213,107.332482 144.316213,180.394718 C144.316213,253.457684 203.544144,312.684884 276.605648,312.684884 Z M276.605648,360.788704 C176.979648,360.788704 96.2109304,280.020352 96.2109304,180.394718 C96.2109304,80.7687176 176.979648,0 276.605648,0 C376.231648,0 457,80.7687176 457,180.394718 C457,280.020352 376.231648,360.788704 276.605648,360.788704 Z" id="Shape" fill="#35D07F"></path>
            <path d="M282.566756,360.790532 C295.073932,345.632756 304.040272,327.871908 308.807696,308.807696 C327.871908,304.040272 345.632756,295.077588 360.790532,282.570412 C360.09772,304.650824 355.34492,326.413164 346.76246,346.767944 C326.409508,355.34492 304.647168,360.101376 282.566756,360.790532 Z M148.193584,148.193584 C129.129372,152.960825 111.368889,161.922778 96.2109304,174.430136 C96.9037424,152.349907 101.656542,130.587019 110.238454,110.233701 C130.591772,101.656542 152.35466,96.8989896 174.434889,96.2109304 C161.92753,111.368889 152.960825,129.129372 148.193584,148.193584 Z" id="Shape" fill="#5EA33B"></path>
        </g>
    </g>
</svg>