<?xml version="1.0" encoding="utf-8"?>
<!-- Generator: Adobe Illustrator 19.0.0, SVG Export Plug-In . SVG Version: 6.00 Build 0)  -->
<svg version="1.1" id="Layer_1" xmlns="http://www.w3.org/2000/svg" xmlns:xlink="http://www.w3.org/1999/xlink" x="0px" y="0px"
	 viewBox="-39 461 1920 1080" style="enable-background:new -39 461 1920 1080;" xml:space="preserve">
<style type="text/css">
	.st0{fill:#00ADEE;}
	.st1{fill:#888888;}
	.st2{fill:#878787;}
	.st3{fill:#00ACED;}
</style>
<path id="Path" class="st0" d="M599.7,712.3v132.5l321.8,185.8l208.8-120.7v107.9l112.1,65.6V712.3L920.2,898.1L599.7,712.3z"/>
<path id="Path-2" class="st1" d="M921,526L599.7,711.8v371.6L921,1269.2l320.5-185.8l-113.6-66.2l-206.7,119.6l-207.8-119.6V778
	l207.8-119.6L1128,778l113.6-65.7v-0.5L921,526z"/>
<path id="Path-3" class="st2" d="M337.5,1469.8c30.9,0,48.8-13.2,62.1-31.2l-29.3-21.2c-8.4,10.5-17.1,17.4-31.7,17.4
	c-19.7,0-33.5-16.8-33.5-38.4v-0.4c0-20.9,13.9-38.1,33.5-38.1c13.5,0,22.7,6.8,30.7,16.8l29.3-23c-12.5-16.9-30.9-28.8-59.7-28.8
	c-42.6,0-73.9,31.8-73.9,73.5v0.4C265,1439.5,297.3,1469.7,337.5,1469.8L337.5,1469.8L337.5,1469.8z"/>
<path id="Path-4" class="st2" d="M414,1466.6h38.2v-58.5c0-12,7-18.4,16.4-18.4c9.4,0,15.8,6.4,15.8,18.4v58.5h38.2v-70.7
	c0-24.4-13.9-39.5-37.2-39.5c-15.7,0-26,8.1-33.1,17v-52.6H414V1466.6L414,1466.6L414,1466.6z"/>
<path id="Composite_Path" class="st2" d="M572.5,1468c12.2,0.3,23.9-4.6,32.2-13.5v12.1h36.6v-62c0-16.1-3.3-27.4-11.4-35.2
	c-8.4-8.4-21.3-12.9-40.8-12.9c-15.1-0.3-30.1,2.5-44,8.2l7.8,26.5c9.8-3.9,18.7-6.5,30.2-6.5c14.7,0,21.8,6.9,21.8,19v1.8
	c-8.4-2.8-17.3-4.2-26.2-4.2c-25.5,0-42.6,11.3-42.6,33.7v0.4C536.2,1456.3,551.8,1468,572.5,1468L572.5,1468L572.5,1468z
	 M586.2,1445.2c-7.9,0-13.5-4.4-13.5-11.7v-0.4c0-8.2,6.4-13.3,17.5-13.3c5.2,0,10.3,0.9,15.1,2.8v5
	C605.4,1438.3,597.5,1445.2,586.2,1445.2L586.2,1445.2L586.2,1445.2z"/>
<path id="Composite_Path-2" class="st2" d="M662.6,1347.7h39.8v-28.1h-39.8V1347.7L662.6,1347.7L662.6,1347.7z M663.4,1466.6h38.2
	V1358h-38.2V1466.6L663.4,1466.6z"/>
<path id="Path-5" class="st2" d="M722,1466.6h38.2v-58.9c0-12.1,7-18.5,16.4-18.5c9.4,0,15.8,6.4,15.8,18.5v58.9h38.2v-71.1
	c0-24-13.9-39.1-37.2-39.1c-15.7,0-26,8.6-33.1,17.5v-16H722V1466.6L722,1466.6z"/>
<path id="Path-6" class="st3" d="M849.2,1466.6h38.2v-59.1c0-11.9,6.4-18.3,15.4-18.3s15,6.4,15,18.3v59.1H956v-59.1
	c0-11.9,6.6-18.3,15.6-18.3s14.8,6.4,14.8,18.3v59.1h38.2v-71.3c0-24.5-14.1-38.8-37.2-38.8c-15.8,0-26.9,6.7-36.3,17.4
	c-5.9-11.1-17-17.4-31.5-17.4c-15.2,0-25.3,8.1-32.3,17v-15.6h-38.2V1466.6L849.2,1466.6z"/>
<path id="Composite_Path-3" class="st3" d="M1076.4,1468c12.2,0.3,23.9-4.6,32.2-13.5v12.1h36.6v-62c0-16.1-3.3-27.4-11.4-35.2
	c-8.4-8.4-21.3-12.9-40.8-12.9c-15.1-0.3-30.1,2.5-44,8.2l7.8,26.5c9.8-3.9,18.7-6.5,30.2-6.5c14.7,0,21.8,6.9,21.8,19v1.8
	c-8.4-2.8-17.3-4.2-26.2-4.2c-25.5,0-42.6,11.3-42.6,33.7v0.4C1040,1456.3,1055.7,1468,1076.4,1468L1076.4,1468L1076.4,1468z
	 M1090.1,1445.2c-7.9,0-13.5-4.4-13.5-11.7v-0.4c0-8.2,6.4-13.3,17.5-13.3c5.2,0,10.3,0.9,15.1,2.8v5
	C1109.2,1438.3,1101.4,1445.2,1090.1,1445.2L1090.1,1445.2L1090.1,1445.2z"/>
<path id="Path-7" class="st3" d="M1165.6,1466.6h38.2v-25.7l9.8-11.4l21.7,37.1h42.2l-38.8-65.2l37.8-43.4h-43.2l-29.5,36.3V1320
	h-38.2L1165.6,1466.6L1165.6,1466.6L1165.6,1466.6z"/>
<path id="Composite_Path-4" class="st3" d="M1335.4,1469.9c21.3,0,36.3-8.8,46.6-21.9l-20.9-17.9c-7.8,7.9-14.7,11.5-23.9,11.5
	c-11.8,0-20.3-6.3-23.3-18.6h72.1c0.2-2.4,0.2-5.1,0.2-7.3c0-32-17-59.5-54-59.5c-32.1,0-54.8,25.1-54.8,57.1v0.4
	C1277.7,1447.2,1301.6,1469.9,1335.4,1469.9L1335.4,1469.9L1335.4,1469.9z M1313.3,1404.9c2-12.6,8.9-20.5,18.9-20.5
	c10.4,0,17.7,8,19.1,20.5H1313.3L1313.3,1404.9z"/>
<path id="Path-8" class="st3" d="M1403.3,1466.6h38.2v-33.9c0-26.1,11.2-37.8,31.1-37.8h3.2v-38.3c-18.1-0.8-28.1,8.4-34.3,22.6
	V1358h-38.2V1466.6L1403.3,1466.6z"/>
<path id="Path-9" class="st3" d="M1532.1,1468.3c26.8,0,44.8-12.4,44.8-36v-0.4c0-20.7-17.2-28-38.9-33.9c-11.4-3.3-18-5.3-18-9.5
	v-0.4c0-3.2,3.1-5.3,9-5.3c8.8,0,21.2,3.7,32.5,10.1l13.2-23.9c-13.6-8.3-29.3-12.7-45.3-12.7c-25.4,0-44,12.9-44,35.8v0.4
	c0,21.3,17.2,28.4,38.9,33.9c11.7,3.2,18,4.9,18,9.3v0.4c0,3.7-3.3,5.7-10,5.7c-11.4,0-25-4.1-37.6-12.2l-14.3,22.6
	C1495.5,1462.8,1513.6,1468.5,1532.1,1468.3L1532.1,1468.3z"/>
</svg>
