<svg id="Слой_1" data-name="Слой 1" xmlns="http://www.w3.org/2000/svg" xmlns:xlink="http://www.w3.org/1999/xlink" viewBox="0 0 55.65 67.16"><defs><style>.cls-1{fill:url(#Безымянный_градиент)}</style><linearGradient id="Безымянный_градиент" x1="46.84" y1="-132.45" x2="137.26" y2="-217.17" gradientTransform="translate(-31.85 140.09) scale(0.62)" gradientUnits="userSpaceOnUse"><stop offset="0" stop-color="#0097ff"/><stop offset="1" stop-color="#36dbe1"/></linearGradient></defs><title>Commercium (CMM)</title><g id="Layer_2" data-name="Layer 2"><g id="Layer_1-2" data-name="Layer 1-2"><path class="cls-1" d="M24.28,0A33.4,33.4,0,0,0,3,6.72a5,5,0,0,0-.31,7.74h0a4.91,4.91,0,0,0,6.39.31,23.76,23.76,0,0,1,32,2.58,4.58,4.58,0,0,1,.12,6.24,4.5,4.5,0,0,1-6.36.22l-.22-.22a14.84,14.84,0,1,0-1,21q.5-.46,1-1a4.41,4.41,0,0,1,5.27-1,4.47,4.47,0,0,1,1.31,7A23.84,23.84,0,0,1,9.07,52.41a5,5,0,0,0-6.43.31h0a5.06,5.06,0,0,0,.42,7.81A33.58,33.58,0,1,0,24.28,0Zm-.62,41.9A8.31,8.31,0,1,1,32,33.58a8.31,8.31,0,0,1-8.34,8.32Z" transform="translate(-1 0.02)"/></g></g></svg>