<svg id="Layer_1" data-name="Layer 1" xmlns="http://www.w3.org/2000/svg" xmlns:xlink="http://www.w3.org/1999/xlink" viewBox="0 0 54.05 52.74"><defs><style>.cls-1{fill:url(#Безымянный_градиент)}</style><linearGradient id="Безымянный_градиент" x1=".29" y1="40.58" x2="60.9" y2="18.44" gradientTransform="matrix(1, 0, 0, -1, 0, 58)" gradientUnits="userSpaceOnUse"><stop offset="0" stop-color="#7cccc1"/><stop offset="1" stop-color="#61995e"/></linearGradient></defs><title>ColossusXT (COLX)</title><path class="cls-1" d="M54.85,20.11l-4.27-4.27a6.86,6.86,0,0,0-4.89-2H45v-.69a7.12,7.12,0,0,0-2.07-5L38.71,3.89a6.87,6.87,0,0,0-4.89-2H14.12a6.87,6.87,0,0,0-4.89,2L5,8.15a6.88,6.88,0,0,0-2,4.85L2.82,31.45a7,7,0,0,0,2,4.94l4.27,4.27a6.87,6.87,0,0,0,4.89,2h.78v.68a7.12,7.12,0,0,0,2.06,5h0l4.26,4.26a6.87,6.87,0,0,0,4.89,2H45.69a6.87,6.87,0,0,0,4.89-2l4.27-4.27a6.86,6.86,0,0,0,2-4.89V25A6.87,6.87,0,0,0,54.85,20.11ZM14,36.49a.69.69,0,0,1-.49-.2l-2.13-2.13L9.26,32l-.09-.11a.69.69,0,0,1-.1-.25.7.7,0,0,1,0-.14V13.08a.69.69,0,0,1,.2-.49l4.27-4.27a.72.72,0,0,1,.49-.2h19.7a.69.69,0,0,1,.31.07.67.67,0,0,1,.19.13l4.27,4.27a.69.69,0,0,1,.14.2l0,.08h0a.72.72,0,0,1,0,.1.7.7,0,0,1,0,.18v.9a.7.7,0,0,1-.7.7H34.61a.69.69,0,0,1-.49-.2l-1.93-1.93H15.54l-.71.71-1,1v16L15.54,32H32.19l1.93-2,0,0a.71.71,0,0,1,.16-.1.69.69,0,0,1,.3-.07H38a.7.7,0,0,1,.56.29.69.69,0,0,1,.13.41v1a.69.69,0,0,1-.2.49l-2.13,2.13-2.13,2.13h0l-.12.1,0,0-.1,0-.05,0-.1,0H14Zm36.64,6.95a.69.69,0,0,1-.2.49l-4.27,4.27a.72.72,0,0,1-.49.2H26a.69.69,0,0,1-.31-.07.67.67,0,0,1-.19-.13l-4.27-4.27a.69.69,0,0,1-.14-.2l0-.08h0a.72.72,0,0,1,0-.1.7.7,0,0,1,0-.18v-.9a.7.7,0,0,1,.7-.7H25.1a.69.69,0,0,1,.49.2l1.93,1.93H44.17l.71-.71,1-1v-16L44.17,24.5H27.52l-1.93,2,0,0a.71.71,0,0,1-.16.1.69.69,0,0,1-.3.07H21.69a.7.7,0,0,1-.56-.29A.69.69,0,0,1,21,26V25a.69.69,0,0,1,.2-.49l2.13-2.13,2.13-2.13h0l.12-.1,0,0,.1,0,.05,0,.1,0H45.7a.69.69,0,0,1,.49.2l2.13,2.13,2.13,2.13.09.11a.69.69,0,0,1,.1.25.7.7,0,0,1,0,.14Z" transform="translate(-2.82 -1.87)"/></svg>