<?xml version="1.0" encoding="UTF-8"?>
<svg width="125px" height="137px" viewBox="0 0 125 137" version="1.1" xmlns="http://www.w3.org/2000/svg" xmlns:xlink="http://www.w3.org/1999/xlink">
    <title>comp</title>
    <g id="comp" stroke="none" stroke-width="1" fill="none" fill-rule="evenodd">
        <g id="compound-comp-logo" transform="translate(3.000000, 3.000000)">
            <path d="M50,100 C77.615,100 100,77.615 100,50 C100,22.385 77.615,0 50,0 C22.385,0 0,22.385 0,50 C0,77.615 22.385,100 50,100 Z" id="Path" fill="#070A0E" fill-rule="nonzero"></path>
            <path d="M28.885,66.765 C27.39,65.85 26.475,64.225 26.475,62.475 L26.475,52.705 C26.475,51.545 27.42,50.605 28.58,50.6099801 C28.95,50.6099801 29.315,50.71 29.635,50.895 L51.68,63.75 C52.97,64.5 53.7650166,65.88 53.7650166,67.375 L53.7650166,77.495 C53.77,78.885 52.645,80.015 51.255,80.015 C50.79,80.015 50.33,79.885 49.935,79.645 L28.885,66.765 Z M61.745,48.22 C63.035,48.97 63.825,50.355 63.83,51.845 L63.83,72.385 C63.83,72.99 63.505,73.55 62.975,73.845 L58.15,76.56 C58.09,76.595 58.025,76.62 57.955,76.64 L57.955,65.235 C57.955,63.76 57.18,62.39 55.91,61.63 L36.55,50.05 L36.55,37.175 C36.55,36.015 37.495,35.075 38.655,35.0799801 C39.025,35.0799801 39.39,35.18 39.71,35.365 L61.745,48.22 Z M71.395,33.05 C72.69,33.8 73.485,35.185 73.485,36.68 L73.485,66.68 C73.48,67.295 73.14,67.86 72.6,68.155 L68.025,70.625 L68.025,49.74 C68.025,48.265 67.25,46.9 65.99,46.14 L46.2,34.27 L46.2,22.06 C46.2,21.69 46.3,21.325 46.48,21.005 C47.065,20.005 48.35,19.665 49.35,20.245 L71.395,33.05 Z" id="Shape" fill="#00D395"></path>
        </g>
    </g>
</svg>