<svg id="Слой_1" data-name="Слой 1" xmlns="http://www.w3.org/2000/svg" viewBox="0 0 300 257.93"><title>Cortex (CTXC)</title><path d="M148.6,5.5c-2-4.5,5.2-7.7,7.2-3.4Q226,123,296.2,244.1c-2.5,0-4.9-.8-7.3-1.2L164,218c-4.1-.2-5-6.8-1-7.8l49-13.5a4.08,4.08,0,0,0,2.7-5.7L148.6,5.4Z" transform="translate(0 -0.07)"/><path d="M141.4,5.9A14.32,14.32,0,0,1,142.6,8c14.8,42,30,84,44.7,126,1.3,3.5-3.6,6.4-6,3.8-12.6-13.2-24.6-26.8-37-40-2-1.8-4.9-.6-6.2,1.3L9.3,250.4c-1.5,1.6-2.8,4-5.3,4.3-1.8,0-3-1.4-4-2.8v-2.3Q70.8,127.8,141.4,5.9Z" transform="translate(0 -0.07)"/><path d="M102,150c2.4-.7,5.6,1,4.8,3.9-5,17.4-10.3,34.7-15.5,52-.8,2.2,1.2,4.2,3.3,4.3,67.4,13.5,134.8,27.5,202.2,41,1.3.2,2.2,1.2,3.2,2V256l-1.9,2H12C42,222,71.9,185.8,102,150Z" transform="translate(0 -0.07)"/></svg>