<svg id="Layer_1" data-name="Layer 1" xmlns="http://www.w3.org/2000/svg" viewBox="0 0 454.31 368.77"><defs><style>.cls-1{fill:#008de4}</style></defs><title>dash_logo_2018_rgb_for_screens</title><path class="cls-1" d="M312.66,26.11H147.23l-13.71,76.63,149.28.18c73.52,0,95.26,26.69,94.64,71-.32,22.7-10.16,61.07-14.41,73.51-11.33,33.16-34.6,71-121.86,70.85l-145.11-.06L82.32,394.88H247.38c58.22,0,83-6.77,109.2-18.89,58.13-26.84,92.72-84.21,106.57-159.08C483.79,105.42,458.09,26.11,312.66,26.11Z" transform="translate(-15.08 -26.11)"/><path class="cls-1" d="M75.85,172c-43.33,0-49.54,28.24-53.64,45.3-5.37,22.35-7.13,31.4-7.13,31.4H184.46c43.33,0,49.54-28.24,53.64-45.3,5.37-22.35,7.13-31.4,7.13-31.4Z" transform="translate(-15.08 -26.11)"/></svg>