<?xml version="1.0" encoding="UTF-8"?>
<svg width="58px" height="73px" viewBox="0 0 58 73" version="1.1" xmlns="http://www.w3.org/2000/svg" xmlns:xlink="http://www.w3.org/1999/xlink">
    <title>dot</title>
    <g id="dot" stroke="none" stroke-width="1" fill="none" fill-rule="evenodd">
        <g id="Polkadot_symbol_black" transform="translate(0.069307, 0.000000)" fill="#000000" fill-rule="nonzero">
            <path d="M27.4653465,0.505940594 C12.4316832,0.505940594 0.144554455,12.7207921 0.144554455,27.8267327 C0.144554455,30.8623762 0.65049505,33.8257426 1.59009901,36.7168317 C2.24059406,38.6683168 4.40891089,39.7524752 6.43267327,39.1019802 C8.38415842,38.4514851 9.46831683,36.2831683 8.81782178,34.2594059 C8.02277228,32.0188119 7.66138614,29.6336634 7.73366337,27.2485149 C8.02277228,17.0574257 16.2623762,8.67326733 26.4534653,8.16732673 C37.8009901,7.58910891 47.1970297,16.6237624 47.1970297,27.8267327 C47.1970297,38.3069307 38.9574257,46.9079208 28.6217822,47.4861386 C28.6217822,47.4861386 24.7910891,47.7029703 22.9118812,47.9920792 C21.9722772,48.1366337 21.249505,48.2811881 20.7435644,48.3534653 C20.5267327,48.4257426 20.309901,48.2089109 20.3821782,47.9920792 L21.0326733,44.8118812 L24.5742574,28.4772277 C25.0079208,26.4534653 23.7069307,24.429703 21.6831683,23.9960396 C19.6594059,23.5623762 17.6356436,24.8633663 17.2019802,26.8871287 C17.2019802,26.8871287 8.67326733,66.639604 8.6009901,67.0732673 C8.16732673,69.0970297 9.46831683,71.1207921 11.4920792,71.5544554 C13.5158416,71.9881188 15.539604,70.6871287 15.9732673,68.6633663 C16.0455446,68.229703 17.2019802,62.9534653 17.2019802,62.9534653 C18.0693069,58.9059406 21.3940594,55.9425743 25.2970297,55.4366337 C26.1643564,55.2920792 29.5613861,55.0752475 29.5613861,55.0752475 C43.6554455,53.9910891 54.7861386,42.209901 54.7861386,27.8267327 C54.7861386,12.7207921 42.4990099,0.505940594 27.4653465,0.505940594 Z M29.4168317,63.3871287 C26.9594059,62.8811881 24.5019802,64.3990099 23.9960396,66.9287129 C23.490099,69.3861386 25.0079208,71.8435644 27.5376238,72.349505 C29.9950495,72.8554455 32.4524752,71.3376238 32.9584158,68.8079208 C33.4643564,66.2782178 31.9465347,63.8930693 29.4168317,63.3871287 Z" id="Shape"></path>
        </g>
    </g>
</svg>