<?xml version="1.0" standalone="no"?>
<!DOCTYPE svg PUBLIC "-//W3C//DTD SVG 20010904//EN"
 "http://www.w3.org/TR/2001/REC-SVG-20010904/DTD/svg10.dtd">
<svg version="1.0" xmlns="http://www.w3.org/2000/svg"
 width="300.000000pt" height="300.000000pt" viewBox="0 0 300.000000 300.000000"
 preserveAspectRatio="xMidYMid meet">
<metadata>
Created by potrace 1.15, written by Peter Selinger 2001-2017
</metadata>
<g transform="translate(0.000000,300.000000) scale(0.100000,-0.100000)"
fill="#000000" stroke="none">
<path d="M1340 2994 c-14 -2 -68 -12 -120 -20 -290 -49 -558 -191 -780 -414
-223 -222 -359 -479 -416 -785 -26 -139 -26 -411 0 -550 57 -306 193 -563 416
-785 222 -223 479 -359 785 -416 139 -26 411 -26 550 0 306 57 563 193 785
416 223 222 359 479 416 785 26 139 26 411 0 550 -57 306 -193 563 -416 785
-217 218 -462 351 -759 411 -92 19 -398 34 -461 23z m534 -530 c12 -5 16 -20
16 -60 l0 -54 -63 0 c-80 0 -143 -30 -169 -80 -17 -32 -18 -71 -18 -545 0
-280 -4 -515 -8 -522 -21 -32 -175 -41 -244 -14 l-28 11 0 517 c0 482 -1 521
-18 553 -26 50 -89 80 -169 80 l-63 0 0 54 c0 34 5 56 13 59 18 8 732 8 751 1z
m-574 -417 l0 -123 -29 -17 c-43 -25 -115 -100 -144 -149 -14 -24 -33 -69 -42
-101 l-16 -57 -115 0 c-131 0 -127 -5 -99 105 35 133 120 268 223 350 57 46
183 115 208 115 11 0 14 -26 14 -123z m496 88 c174 -88 301 -244 349 -430 28
-110 32 -105 -99 -105 l-115 0 -16 57 c-9 32 -28 77 -42 101 -29 49 -101 124
-144 149 l-29 17 0 123 c0 97 3 123 14 123 7 0 44 -16 82 -35z m-726 -629 c0
-47 31 -143 63 -193 171 -271 563 -271 734 0 32 50 63 146 63 193 l0 34 120 0
119 0 -5 -52 c-25 -243 -159 -439 -369 -543 -97 -48 -182 -68 -295 -68 -350 0
-627 255 -664 611 l-5 52 119 0 120 0 0 -34z m575 -723 c13 -70 85 -113 193
-113 l52 0 0 -55 0 -55 -390 0 -390 0 0 54 0 53 73 5 c47 3 85 12 106 24 31
18 71 78 71 106 0 10 32 13 139 13 l140 0 6 -32z"/>
</g>
</svg>
