<svg id="Слой_1" data-name="Слой 1" xmlns="http://www.w3.org/2000/svg" viewBox="0 0 640 640"><defs><style>.cls-1{fill:#c6de8b}.cls-2{fill:#68c8f2}.cls-3{fill:#00afec}.cls-4{fill:#fff}.cls-5{fill:#aacf52}</style></defs><title>FujiCoin (FJC)</title><path class="cls-1" d="M318.3,0h6.3c10.3.2,20.6.8,30.8,2A872,872,0,0,0,430,206.5l-54.4-12.6c4.4-19.9,9.4-39.6,13.6-59.6l-39.4-9c-4.6,19.8-9.1,39.7-13.8,59.5l-23.6-5.5,13.7-59.5-39.4-9.1c-4.8,19.8-9.2,39.7-13.9,59.5-13.6-3-27.3-6.3-41-9.4A867.3,867.3,0,0,0,284.7,2,288.62,288.62,0,0,1,318.3,0ZM215.5,195.6c5.7,1.4,11.4,2.5,17,4,4.8,1.4,9,4.8,10.4,9.6,2,6-.5,12.2-1.7,18L210.8,359.3a54.39,54.39,0,0,0-5.8.5,321.18,321.18,0,0,1-74,1.8,201.59,201.59,0,0,1-20.3-2.7A884.7,884.7,0,0,0,215.5,195.6ZM325.1,221l44.8,10.4a150,150,0,0,1,38.4,13.5C401.1,254,393,262.4,385,271l2.2,1c-8.1-1.7-16.2-3.7-24.3-5.5-1.9,7-3,14.3-5.2,21.2a24,24,0,0,1-15.9,16c-11.6,3.4-23.5-.8-34.9-3.3L325.2,221Z"/><path class="cls-2" d="M126.9,64.8A319.4,319.4,0,0,1,284.6,2a867.3,867.3,0,0,1-52.7,158.8c-6.2-1.5-12.4-3-18.6-4.3-2.8,12.2-5.7,24.4-8.4,36.7l10.6,2.4A882.88,882.88,0,0,1,110.7,358.9l-.2.2A324.5,324.5,0,0,1,0,320v-6.4A320.4,320.4,0,0,1,126.9,64.9ZM355.4,2A319.1,319.1,0,0,1,480,42.8a321,321,0,0,1-41.5,157.6c-1.2,2.4-3.1,4.6-3.3,7.4l-5.2-1.3A872,872,0,0,1,355.4,2Z"/><path class="cls-3" d="M480,42.8A320.07,320.07,0,0,1,640,312.6v15a319,319,0,0,1-26.8,121,873.75,873.75,0,0,1-138-164.1l14.8-64c-18.3-4.2-36.5-8.6-54.8-12.6.2-2.8,2-5,3.3-7.4A321.7,321.7,0,0,0,480,42.8ZM0,320a322.14,322.14,0,0,0,110.5,39,866,866,0,0,1-83.7,89.4A320.9,320.9,0,0,1,0,324.6ZM298.2,529.4,311.6,471a875.16,875.16,0,0,1,266.1,38.7A321.2,321.2,0,0,1,327.6,640H314.5A320.4,320.4,0,0,1,62.3,509.7,872.36,872.36,0,0,1,201.6,479l-6.2,26.7,39.6,9.1,9.3-40.6,25.3-1.8-11,47.9,39.6,9.1Z"/><path class="cls-4" d="M272.8,170.2c4.7-19.8,9.1-39.7,13.9-59.5l39.4,9.1-13.7,59.5c7.9,2,15.8,3.7,23.6,5.5,4.7-19.8,9.2-39.7,13.8-59.5l39.4,9c-4.2,20-9.2,39.7-13.6,59.7q29.79,6.94,59.6,13.8c18.3,4,36.5,8.4,54.8,12.5l-14.8,64-9.6,41.8-38.7-9c3.3-15.6,6.3-32.2,1.8-48-3-10.5-11-19-20.4-24.3a150,150,0,0,0-38.5-13.5l-44.7-10.4-18.3,79.4c11.4,2.5,23.3,6.7,35,3.4a24,24,0,0,0,15.8-16.1c2.2-7,3.3-14.2,5.2-21.2L387,272l10.2,2.3L368.2,400l-34.5-8c1.8-10.2,6.4-20.4,4.2-31a25,25,0,0,0-15-17c-7.7-3.7-16.4-5-24.7-7l-16.1,70c-1,4.6-1,9.9,2,13.9,2.4,3.5,6.5,5.4,10.5,6.3l25.7,6L311.6,471l-13.5,58.4-39.6-9.1,11-47.9,2.7-11.7-23.6-5.5-4.4,19c-3,13.6-6.2,27.1-9.3,40.6l-39.6-9.1c2-9,4-17.8,6.2-26.7l7.5-33c-19.7-4.6-39.4-9-59-13.7l8.3-36.5c9,1.7,17.7,4.1,26.5,6,4.3.8,9,.3,12.6-2.3s5.6-7.2,6.6-11.5l6.6-28.8,30.5-132c1.2-6,3.6-12,1.7-18a14.8,14.8,0,0,0-10.3-9.6c-5.7-1.6-11.4-2.7-17.1-4L204.8,193l8.4-36.6c6.2,1.3,12.4,2.8,18.6,4.3l41,9.4Z"/><path class="cls-5" d="M408.3,244.8a41.8,41.8,0,0,1,20.4,24.3c4.6,15.8,1.5,32.4-1.8,48l38.7,9,9.6-41.7a869.2,869.2,0,0,0,138,164,319.8,319.8,0,0,1-35.5,61.3,875.3,875.3,0,0,0-266-38.7l8.7-37.8-25.7-6c-4-1-8.1-2.8-10.5-6.3-3-4-3-9.3-2-14L298.3,337c8.3,2,17,3.3,24.8,7A25,25,0,0,1,338,361c2.1,10.6-2.4,20.8-4.2,31l34.6,8,29-125.7L387,272l-2.2-1.1c8-8.4,16.2-16.9,23.4-26ZM110.5,359.1l.2-.2c6.7,1.5,13.5,2,20.4,2.7a321.45,321.45,0,0,0,74-1.8,50.38,50.38,0,0,1,5.7-.5l-6.7,28.8c-1,4.3-2.9,8.8-6.6,11.5a15.9,15.9,0,0,1-12.6,2.2c-8.8-1.8-17.6-4.2-26.5-5.9-2.7,12.2-5.6,24.4-8.4,36.5l59.1,13.7c-2.4,11-5,22-7.5,32.9A871.8,871.8,0,0,0,62.3,509.7a314.16,314.16,0,0,1-35.4-61.3,866,866,0,0,0,83.6-89.3Zm138.2,96.1,23.7,5.5-2.8,11.7-25.3,1.8Z"/></svg>