<?xml version="1.0" standalone="no"?>
<!DOCTYPE svg PUBLIC "-//W3C//DTD SVG 20010904//EN"
 "http://www.w3.org/TR/2001/REC-SVG-20010904/DTD/svg10.dtd">
<svg version="1.0" xmlns="http://www.w3.org/2000/svg"
 width="200.000000pt" height="200.000000pt" viewBox="0 0 200.000000 200.000000"
 preserveAspectRatio="xMidYMid meet">

<g transform="translate(0.000000,200.000000) scale(0.100000,-0.100000)"
fill="#000000" stroke="none">
<path d="M817 1915 c-365 -80 -640 -344 -726 -697 -37 -154 -27 -375 24 -523
65 -188 199 -361 365 -471 168 -112 310 -154 520 -154 195 0 338 39 495 135
67 40 88 58 170 140 76 76 97 101 116 137 6 13 15 25 18 28 4 3 22 37 41 75
75 156 92 234 92 415 0 163 -20 260 -83 399 -47 103 -175 264 -264 332 -59 44
-118 80 -190 114 -81 39 -100 45 -215 70 -79 18 -281 18 -363 0z m-97 -405
c77 -78 96 -89 115 -72 6 5 43 15 83 22 60 11 89 11 150 1 43 -6 89 -17 104
-22 25 -10 32 -6 108 71 l81 82 66 -65 66 -65 -82 -81 c-53 -53 -79 -86 -74
-94 4 -6 10 -33 13 -59 l6 -48 -31 0 c-18 0 -59 -3 -92 -6 l-61 -7 -12 38
c-18 54 -45 81 -96 95 -87 25 -208 -7 -221 -58 -9 -39 9 -75 47 -94 70 -33 72
-33 246 -77 94 -24 214 -107 214 -148 0 -7 4 -13 8 -13 4 0 14 -27 21 -61 12
-50 12 -70 1 -115 -8 -30 -17 -57 -22 -60 -20 -12 -3 -39 62 -104 l71 -70 -66
-65 -65 -66 -79 80 c-43 44 -81 77 -84 74 -12 -11 -134 -32 -187 -32 -58 0
-164 19 -176 32 -17 17 -39 3 -114 -73 l-80 -81 -65 66 -66 65 80 79 80 79
-18 39 c-10 21 -21 57 -24 79 l-5 42 46 6 c84 11 142 8 142 -9 0 -18 37 -93
54 -110 65 -66 226 -65 292 2 28 28 34 41 34 77 0 32 -6 47 -22 62 -32 27 -65
44 -85 44 -9 0 -30 4 -47 10 -17 5 -76 23 -131 40 -55 17 -118 44 -140 58 -83
58 -129 170 -105 257 l13 47 -80 80 -81 81 62 63 c33 34 62 63 64 63 2 1 38
-35 82 -79z"/>
</g>
</svg>
