<?xml version="1.0" encoding="UTF-8" standalone="no"?>
<!-- Created with Inkscape (http://www.inkscape.org/) -->

<svg
   xmlns:dc="http://purl.org/dc/elements/1.1/"
   xmlns:cc="http://creativecommons.org/ns#"
   xmlns:rdf="http://www.w3.org/1999/02/22-rdf-syntax-ns#"
   xmlns:svg="http://www.w3.org/2000/svg"
   xmlns="http://www.w3.org/2000/svg"
   xmlns:sodipodi="http://sodipodi.sourceforge.net/DTD/sodipodi-0.dtd"
   xmlns:inkscape="http://www.inkscape.org/namespaces/inkscape"
   width="302.5491mm"
   height="604.78363mm"
   viewBox="0 0 302.5491 604.78363"
   version="1.1"
   id="svg18643"
   inkscape:version="0.92.3 (2405546, 2018-03-11)"
   sodipodi:docname="gin_logo_.svg">
  <defs
     id="defs18637">
    <clipPath
       clipPathUnits="userSpaceOnUse"
       id="clipPath84033">
      <rect
         y="284.66858"
         x="-216.823"
         height="35.061752"
         width="31.15794"
         id="rect84035"
         style="opacity:1;fill:#ffffff;fill-opacity:1;stroke:#000000;stroke-width:0.07256294;stroke-miterlimit:4;stroke-dasharray:none;stroke-opacity:1" />
    </clipPath>
  </defs>
  <sodipodi:namedview
     id="base"
     pagecolor="#ffffff"
     bordercolor="#666666"
     borderopacity="1.0"
     inkscape:pageopacity="0.0"
     inkscape:pageshadow="2"
     inkscape:zoom="0.24748737"
     inkscape:cx="533.59689"
     inkscape:cy="1465.735"
     inkscape:document-units="mm"
     inkscape:current-layer="layer1"
     showgrid="false"
     inkscape:window-width="1920"
     inkscape:window-height="1027"
     inkscape:window-x="-8"
     inkscape:window-y="22"
     inkscape:window-maximized="1"
     fit-margin-top="0"
     fit-margin-left="0"
     fit-margin-right="0"
     fit-margin-bottom="0" />
  <metadata
     id="metadata18640">
    <rdf:RDF>
      <cc:Work
         rdf:about="">
        <dc:format>image/svg+xml</dc:format>
        <dc:type
           rdf:resource="http://purl.org/dc/dcmitype/StillImage" />
        <dc:title></dc:title>
      </cc:Work>
    </rdf:RDF>
  </metadata>
  <g
     inkscape:label="Layer 1"
     inkscape:groupmode="layer"
     id="layer1"
     transform="translate(534.53906,-21.49245)">
    <g
       id="g22585"
       style="fill:#ffffff;fill-opacity:1"
       transform="matrix(0.12115162,0,0,0.12115162,-458.17917,390.99835)" />
    <g
       id="g22587"
       style="fill:#ffffff;fill-opacity:1"
       transform="matrix(0.12115162,0,0,0.12115162,-458.17917,390.99835)" />
    <g
       id="g22589"
       style="fill:#ffffff;fill-opacity:1"
       transform="matrix(0.12115162,0,0,0.12115162,-458.17917,390.99835)" />
    <g
       id="g22591"
       style="fill:#ffffff;fill-opacity:1"
       transform="matrix(0.12115162,0,0,0.12115162,-458.17917,390.99835)" />
    <g
       id="g22593"
       style="fill:#ffffff;fill-opacity:1"
       transform="matrix(0.12115162,0,0,0.12115162,-458.17917,390.99835)" />
    <g
       id="g22595"
       style="fill:#ffffff;fill-opacity:1"
       transform="matrix(0.12115162,0,0,0.12115162,-458.17917,390.99835)" />
    <g
       id="g22597"
       style="fill:#ffffff;fill-opacity:1"
       transform="matrix(0.12115162,0,0,0.12115162,-458.17917,390.99835)" />
    <g
       id="g22599"
       style="fill:#ffffff;fill-opacity:1"
       transform="matrix(0.12115162,0,0,0.12115162,-458.17917,390.99835)" />
    <g
       id="g22601"
       style="fill:#ffffff;fill-opacity:1"
       transform="matrix(0.12115162,0,0,0.12115162,-458.17917,390.99835)" />
    <g
       id="g22603"
       style="fill:#ffffff;fill-opacity:1"
       transform="matrix(0.12115162,0,0,0.12115162,-458.17917,390.99835)" />
    <g
       id="g22605"
       style="fill:#ffffff;fill-opacity:1"
       transform="matrix(0.12115162,0,0,0.12115162,-458.17917,390.99835)" />
    <g
       id="g22607"
       style="fill:#ffffff;fill-opacity:1"
       transform="matrix(0.12115162,0,0,0.12115162,-458.17917,390.99835)" />
    <g
       id="g22609"
       style="fill:#ffffff;fill-opacity:1"
       transform="matrix(0.12115162,0,0,0.12115162,-458.17917,390.99835)" />
    <g
       id="g22611"
       style="fill:#ffffff;fill-opacity:1"
       transform="matrix(0.12115162,0,0,0.12115162,-458.17917,390.99835)" />
    <g
       id="g22613"
       style="fill:#ffffff;fill-opacity:1"
       transform="matrix(0.12115162,0,0,0.12115162,-458.17917,390.99835)" />
    <g
       id="g22920">
      <rect
         y="21.806297"
         x="-534.22516"
         height="301.9213"
         width="301.9213"
         id="rect22508"
         style="opacity:1;fill:#ffffff;fill-opacity:1;stroke:#008dde;stroke-width:0.62769485;stroke-miterlimit:4;stroke-dasharray:none;stroke-opacity:1" />
      <rect
         style="opacity:1;fill:#008dde;fill-opacity:1;stroke:none;stroke-width:0.229;stroke-miterlimit:4;stroke-dasharray:none;stroke-opacity:1"
         id="rect22510"
         width="302.5491"
         height="302.5491"
         x="-534.53906"
         y="323.72696" />
      <g
         transform="matrix(1.5216082,0,0,1.5216082,-482.51507,57.391362)"
         id="g22565">
        <g
           id="g22426"
           transform="translate(63.075609,-111.18412)">
          <g
             transform="matrix(0.27964049,0,0,0.27964049,-235.46826,143.46346)"
             id="g17142">
            <path
               inkscape:connector-curvature="0"
               style="font-style:normal;font-variant:normal;font-weight:bold;font-stretch:normal;font-size:medium;line-height:1.25;font-family:Akashi;-inkscape-font-specification:'Akashi Bold';letter-spacing:0px;word-spacing:0px;fill:#008dde;fill-opacity:1;stroke:none;stroke-width:2.47306561"
               d="m 909.73227,-1.2072109 c -2.44631,-0.012226 -4.89093,0.022256 -7.3227,0.255385 -3.83815,0.4322933 -6.6721,3.9204131 -6.79246,7.6983365 -0.192,8.5621844 -0.0329,17.1359314 -0.0846,25.7026864 0.1187,4.371449 -0.29378,8.783638 0.34016,13.117625 0.62311,3.86291 4.39921,6.344493 8.15071,6.340059 11.65903,0.07994 23.32096,0.02938 34.98144,0.03885 v 4.828346 h -37.54057 c -1.6101,4.83021 -3.21943,9.660548 -4.82947,14.49077 h 37.36531 c 4.37146,-0.118492 8.78361,0.295117 13.11763,-0.339003 3.8629,-0.623139 6.34449,-4.399179 6.34007,-8.150696 0.0875,-15.253726 0.0119,-30.511203 0.0377,-45.766214 -0.1374,-4.099235 0.3606,-8.2621295 -0.4627,-12.301059 -0.88463,-4.11907989 -5.29666,-6.1429309 -9.1974,-5.8957115 h -26.76553 c -2.44253,0.049269 -4.89125,-0.00816 -7.33755,-0.019437 z m 0.29111,14.5102459 h 28.98152 v 24.150888 h -28.98152 z"
               id="path17136" />
            <path
               inkscape:connector-curvature="0"
               id="path17138"
               style="font-style:normal;font-variant:normal;font-weight:bold;font-stretch:normal;font-size:medium;line-height:1.25;font-family:Akashi;-inkscape-font-specification:'Akashi Bold';letter-spacing:0px;word-spacing:0px;fill:#008dde;fill-opacity:1;stroke:none;stroke-width:2.88792825"
               d="M 977.64617,71.265373 V -1.1882365 h -14.4906 V 71.265373 Z" />
            <path
               inkscape:connector-curvature="0"
               id="path17140"
               style="font-style:normal;font-variant:normal;font-weight:bold;font-stretch:normal;font-size:medium;line-height:1.25;font-family:Akashi;-inkscape-font-specification:'Akashi Bold';letter-spacing:0px;word-spacing:0px;fill:#008dde;fill-opacity:1;stroke:none;stroke-width:2.47400594"
               d="M 987.30659,71.210813 V 8.4249875 c 0,-6.4451882 3.22014,-9.6677824 9.66042,-9.6677824 h 38.68989 c 6.4404,0 9.6605,3.2225942 9.6605,9.6677824 V 71.210813 h -14.4906 l -0.048,-57.951991 h -28.9813 v 57.951991 z" />
          </g>
          <g
             transform="matrix(0.27964049,0,0,0.27964049,-235.46826,143.46346)"
             id="g17240">
            <path
               id="path17198"
               d="m 725.40198,-21.231451 h 73.73567 c 9.84969,0 17.77924,7.929541 17.77924,17.7792396 V 73.591169 c 0,9.849699 -7.92955,17.77924 -17.77924,17.77924 h -73.73567 c -9.8497,0 -17.77924,-7.929541 -17.77924,-17.77924 V -3.4522114 c 0,-9.8496986 7.92954,-17.7792396 17.77924,-17.7792396 z"
               style="fill:#ffffff;fill-opacity:1;stroke:#ffffff;stroke-width:2.18453932;stroke-miterlimit:4;stroke-dasharray:none;stroke-opacity:1"
               inkscape:connector-curvature="0" />
            <g
               id="g17236"
               transform="matrix(0.28472548,0,0,0.28472548,673.67282,-51.966254)"
               style="fill:#008dde;fill-opacity:1">
              <g
                 id="g17204"
                 style="fill:#008dde;fill-opacity:1">
                <g
                   id="g17202"
                   style="fill:#008dde;fill-opacity:1">
                  <path
                     id="path17200"
                     d="m 578.497,329.491 c 12.974,0 23.491,-10.517 23.491,-23.491 0,-12.974 -10.517,-23.491 -23.491,-23.491 h -53.624 v -53.075 h 112.19543 c 12.974,0 23.491,-10.517 23.491,-23.491 0,-12.974 -10.517,-23.491 -23.491,-23.491 H 524.397 C 519.801,130.518 480.289,88.486 429.541,80.036 V 23.491 C 429.541,10.517 419.024,0 406.05,0 393.076,0 382.559,10.517 382.559,23.491 V 78.46 H 329.487 V -45.080429 c 0,-12.974 -10.516,-23.491 -23.49,-23.491 -12.974,0 -23.492,10.517 -23.492,23.491 V 78.46 h -53.07 V 23.491 C 229.434,10.517 218.917,0 205.943,0 192.969,0 182.452,10.517 182.452,23.491 V 80.035 C 131.703,88.485 92.19,130.517 87.596,182.451 H -45.073429 c -12.974,0 -23.491,10.517 -23.491,23.491 0,12.974 10.517,23.491 23.491,23.491 H 87.122 v 53.075 H 33.498 c -12.974,0 -23.491,10.517 -23.491,23.491 0,12.974 10.517,23.491 23.491,23.491 h 53.624 v 53.074 H -15.073429 c -12.974,0 -23.491,10.517 -23.491,23.491 0,12.974 10.517,23.491 23.491,23.491 H 87.598 c 4.594,51.932 44.108,93.965 94.856,102.413 v 36.549 c 0,12.974 10.517,23.491 23.491,23.491 12.974,0 23.491,-10.517 23.491,-23.491 v -34.974 h 53.07 v 106.40257 c 0,12.974 10.518,23.491 23.492,23.491 12.974,0 23.491,-10.517 23.491,-23.491 V 533.534 h 53.072 v 54.974 c 0,12.974 10.517,23.491 23.491,23.491 12.974,0 23.491,-10.517 23.491,-23.491 v -56.545 c 50.749,-8.448 90.261,-50.48 94.856,-102.413 h 155.52857 c 12.974,0 23.491,-10.517 23.491,-23.491 0,-12.974 -10.517,-23.491 -23.491,-23.491 H 524.875 v -53.074 h 53.622 z m -91.145,89.922 c 0,42.238 -34.364,76.602 -76.607,76.602 H 201.249 c -42.241,0 -76.605,-34.362 -76.605,-76.602 v -226.83 c 0,-42.24 34.364,-76.604 76.605,-76.604 h 209.496 c 42.241,0 76.607,34.364 76.607,76.604 z"
                     style="fill:#008dde;fill-opacity:1"
                     inkscape:connector-curvature="0" />
                </g>
              </g>
              <g
                 id="g17206"
                 style="fill:#008dde;fill-opacity:1" />
              <g
                 id="g17208"
                 style="fill:#008dde;fill-opacity:1" />
              <g
                 id="g17210"
                 style="fill:#008dde;fill-opacity:1" />
              <g
                 id="g17212"
                 style="fill:#008dde;fill-opacity:1" />
              <g
                 id="g17214"
                 style="fill:#008dde;fill-opacity:1" />
              <g
                 id="g17216"
                 style="fill:#008dde;fill-opacity:1" />
              <g
                 id="g17218"
                 style="fill:#008dde;fill-opacity:1" />
              <g
                 id="g17220"
                 style="fill:#008dde;fill-opacity:1" />
              <g
                 id="g17222"
                 style="fill:#008dde;fill-opacity:1" />
              <g
                 id="g17224"
                 style="fill:#008dde;fill-opacity:1" />
              <g
                 id="g17226"
                 style="fill:#008dde;fill-opacity:1" />
              <g
                 id="g17228"
                 style="fill:#008dde;fill-opacity:1" />
              <g
                 id="g17230"
                 style="fill:#008dde;fill-opacity:1" />
              <g
                 id="g17232"
                 style="fill:#008dde;fill-opacity:1" />
              <g
                 id="g17234"
                 style="fill:#008dde;fill-opacity:1" />
            </g>
            <path
               id="path17238"
               d="m 745.163,-3.1792849 c -2.5875,-0.013176 -5.1732,0.023532 -7.74527,0.2701275 -4.05955,0.4572457 -7.05704,4.1466197 -7.18437,8.1425413 -0.20298,9.0562281 -0.0347,18.1246911 -0.0896,27.1857531 0.12552,4.623682 -0.31114,9.290461 0.35975,13.874529 0.65908,4.085798 4.65302,6.710583 8.62102,6.705889 12.33176,0.08457 24.66657,0.03137 36.99989,0.04113 v 5.106946 h -39.70668 c -1.70301,5.108917 -3.40522,10.217976 -5.10815,15.326902 h 39.52134 c 4.6237,-0.125317 9.29043,0.312183 13.87452,-0.358568 4.08579,-0.659094 6.71059,-4.653012 6.7059,-8.620986 0.0926,-16.133889 0.0119,-32.271731 0.0398,-48.406976 -0.14511,-4.335762 0.38145,-8.7388657 -0.48936,-13.0108448 -0.93571,-4.356746 -5.60233,-6.497379 -9.72814,-6.2358898 h -28.3099 c -2.58347,0.052094 -5.17349,-0.00846 -7.76096,-0.020713 z m 0.30767,15.3474959 h 30.65379 v 25.544426 h -30.65379 z"
               style="font-style:normal;font-variant:normal;font-weight:bold;font-stretch:normal;font-size:medium;line-height:1.25;font-family:Akashi;-inkscape-font-specification:'Akashi Bold';letter-spacing:0px;word-spacing:0px;fill:#008dde;fill-opacity:1;stroke:none;stroke-width:2.61576366"
               inkscape:connector-curvature="0" />
          </g>
        </g>
        <g
           transform="matrix(0.27964049,0,0,0.27964049,-172.39265,101.07102)"
           id="g22478">
          <path
             id="path22436"
             d="m 725.40198,-21.231451 h 73.73567 c 9.84969,0 17.77924,7.929541 17.77924,17.7792396 V 73.591169 c 0,9.849699 -7.92955,17.77924 -17.77924,17.77924 h -73.73567 c -9.8497,0 -17.77924,-7.929541 -17.77924,-17.77924 V -3.4522114 c 0,-9.8496986 7.92954,-17.7792396 17.77924,-17.7792396 z"
             style="fill:#ffffff;fill-opacity:1;stroke:#ffffff;stroke-width:2.18453932;stroke-miterlimit:4;stroke-dasharray:none;stroke-opacity:1"
             inkscape:connector-curvature="0" />
          <g
             id="g22474"
             transform="matrix(0.28472548,0,0,0.28472548,673.67282,-51.966254)"
             style="fill:#008dde;fill-opacity:1">
            <g
               id="g22442"
               style="fill:#008dde;fill-opacity:1">
              <g
                 id="g22440"
                 style="fill:#008dde;fill-opacity:1">
                <path
                   id="path22438"
                   d="m 578.497,329.491 c 12.974,0 23.491,-10.517 23.491,-23.491 0,-12.974 -10.517,-23.491 -23.491,-23.491 h -53.624 v -53.075 h 112.19543 c 12.974,0 23.491,-10.517 23.491,-23.491 0,-12.974 -10.517,-23.491 -23.491,-23.491 H 524.397 C 519.801,130.518 480.289,88.486 429.541,80.036 V 23.491 C 429.541,10.517 419.024,0 406.05,0 393.076,0 382.559,10.517 382.559,23.491 V 78.46 H 329.487 V -45.080429 c 0,-12.974 -10.516,-23.491 -23.49,-23.491 -12.974,0 -23.492,10.517 -23.492,23.491 V 78.46 h -53.07 V 23.491 C 229.434,10.517 218.917,0 205.943,0 192.969,0 182.452,10.517 182.452,23.491 V 80.035 C 131.703,88.485 92.19,130.517 87.596,182.451 H -45.073429 c -12.974,0 -23.491,10.517 -23.491,23.491 0,12.974 10.517,23.491 23.491,23.491 H 87.122 v 53.075 H 33.498 c -12.974,0 -23.491,10.517 -23.491,23.491 0,12.974 10.517,23.491 23.491,23.491 h 53.624 v 53.074 H -15.073429 c -12.974,0 -23.491,10.517 -23.491,23.491 0,12.974 10.517,23.491 23.491,23.491 H 87.598 c 4.594,51.932 44.108,93.965 94.856,102.413 v 36.549 c 0,12.974 10.517,23.491 23.491,23.491 12.974,0 23.491,-10.517 23.491,-23.491 v -34.974 h 53.07 v 106.40257 c 0,12.974 10.518,23.491 23.492,23.491 12.974,0 23.491,-10.517 23.491,-23.491 V 533.534 h 53.072 v 54.974 c 0,12.974 10.517,23.491 23.491,23.491 12.974,0 23.491,-10.517 23.491,-23.491 v -56.545 c 50.749,-8.448 90.261,-50.48 94.856,-102.413 h 155.52857 c 12.974,0 23.491,-10.517 23.491,-23.491 0,-12.974 -10.517,-23.491 -23.491,-23.491 H 524.875 v -53.074 h 53.622 z m -91.145,89.922 c 0,42.238 -34.364,76.602 -76.607,76.602 H 201.249 c -42.241,0 -76.605,-34.362 -76.605,-76.602 v -226.83 c 0,-42.24 34.364,-76.604 76.605,-76.604 h 209.496 c 42.241,0 76.607,34.364 76.607,76.604 z"
                   style="fill:#008dde;fill-opacity:1"
                   inkscape:connector-curvature="0" />
              </g>
            </g>
            <g
               id="g22444"
               style="fill:#008dde;fill-opacity:1" />
            <g
               id="g22446"
               style="fill:#008dde;fill-opacity:1" />
            <g
               id="g22448"
               style="fill:#008dde;fill-opacity:1" />
            <g
               id="g22450"
               style="fill:#008dde;fill-opacity:1" />
            <g
               id="g22452"
               style="fill:#008dde;fill-opacity:1" />
            <g
               id="g22454"
               style="fill:#008dde;fill-opacity:1" />
            <g
               id="g22456"
               style="fill:#008dde;fill-opacity:1" />
            <g
               id="g22458"
               style="fill:#008dde;fill-opacity:1" />
            <g
               id="g22460"
               style="fill:#008dde;fill-opacity:1" />
            <g
               id="g22462"
               style="fill:#008dde;fill-opacity:1" />
            <g
               id="g22464"
               style="fill:#008dde;fill-opacity:1" />
            <g
               id="g22466"
               style="fill:#008dde;fill-opacity:1" />
            <g
               id="g22468"
               style="fill:#008dde;fill-opacity:1" />
            <g
               id="g22470"
               style="fill:#008dde;fill-opacity:1" />
            <g
               id="g22472"
               style="fill:#008dde;fill-opacity:1" />
          </g>
          <path
             id="path22476"
             d="m 745.163,-3.1792849 c -2.5875,-0.013176 -5.1732,0.023532 -7.74527,0.2701275 -4.05955,0.4572457 -7.05704,4.1466197 -7.18437,8.1425413 -0.20298,9.0562281 -0.0347,18.1246911 -0.0896,27.1857531 0.12552,4.623682 -0.31114,9.290461 0.35975,13.874529 0.65908,4.085798 4.65302,6.710583 8.62102,6.705889 12.33176,0.08457 24.66657,0.03137 36.99989,0.04113 v 5.106946 h -39.70668 c -1.70301,5.108917 -3.40522,10.217976 -5.10815,15.326902 h 39.52134 c 4.6237,-0.125317 9.29043,0.312183 13.87452,-0.358568 4.08579,-0.659094 6.71059,-4.653012 6.7059,-8.620986 0.0926,-16.133889 0.0119,-32.271731 0.0398,-48.406976 -0.14511,-4.335762 0.38145,-8.7388657 -0.48936,-13.0108448 -0.93571,-4.356746 -5.60233,-6.497379 -9.72814,-6.2358898 h -28.3099 c -2.58347,0.052094 -5.17349,-0.00846 -7.76096,-0.020713 z m 0.30767,15.3474959 h 30.65379 v 25.544426 h -30.65379 z"
             style="font-style:normal;font-variant:normal;font-weight:bold;font-stretch:normal;font-size:medium;line-height:1.25;font-family:Akashi;-inkscape-font-specification:'Akashi Bold';letter-spacing:0px;word-spacing:0px;fill:#008dde;fill-opacity:1;stroke:none;stroke-width:2.61576366"
             inkscape:connector-curvature="0" />
        </g>
      </g>
      <g
         transform="translate(1.4715464e-5,-4.367722)"
         id="g22853">
        <g
           id="g22834">
          <path
             inkscape:connector-curvature="0"
             style="font-style:normal;font-variant:normal;font-weight:bold;font-stretch:normal;font-size:medium;line-height:1.25;font-family:Akashi;-inkscape-font-specification:'Akashi Bold';letter-spacing:0px;word-spacing:0px;fill:#ffffff;fill-opacity:1;stroke:none;stroke-width:1.05229747"
             d="m -357.7351,412.59649 c -1.04092,-0.005 -2.08111,0.009 -3.11584,0.10866 -1.63314,0.18395 -2.839,1.66815 -2.89021,3.27567 -0.0817,3.64324 -0.014,7.2914 -0.036,10.93658 0.0505,1.86006 -0.125,3.73747 0.14474,5.58159 0.26514,1.64368 1.87188,2.6996 3.46816,2.69772 4.96095,0.034 9.92314,0.0125 14.88471,0.0165 v 2.05447 h -15.97363 c -0.68511,2.05527 -1.36988,4.1106 -2.05496,6.16587 h 15.89906 c 1.86007,-0.0504 3.73746,0.12558 5.5816,-0.14424 1.64367,-0.26515 2.6996,-1.87187 2.69772,-3.46815 0.0372,-6.49051 0.005,-12.98262 0.016,-19.47367 -0.0585,-1.74424 0.15344,-3.51557 -0.19688,-5.23414 -0.37641,-1.75269 -2.25375,-2.61384 -3.91352,-2.50865 h -11.38882 c -1.03931,0.021 -2.08125,-0.003 -3.12216,-0.008 z m 0.12386,6.17415 h 12.33174 v 10.27629 h -12.33174 z"
             id="path22569" />
          <path
             inkscape:connector-curvature="0"
             id="path22571"
             style="font-style:normal;font-variant:normal;font-weight:bold;font-stretch:normal;font-size:medium;line-height:1.25;font-family:Akashi;-inkscape-font-specification:'Akashi Bold';letter-spacing:0px;word-spacing:0px;fill:#ffffff;fill-opacity:1;stroke:none;stroke-width:1.22882283"
             d="m -328.83752,443.43381 v -30.82925 h -6.1658 v 30.82925 z" />
          <path
             inkscape:connector-curvature="0"
             id="path22573"
             style="font-style:normal;font-variant:normal;font-weight:bold;font-stretch:normal;font-size:medium;line-height:1.25;font-family:Akashi;-inkscape-font-specification:'Akashi Bold';letter-spacing:0px;word-spacing:0px;fill:#ffffff;fill-opacity:1;stroke:none;stroke-width:1.05269754"
             d="m -324.72698,443.41059 v -26.71557 c 0,-2.74245 1.37018,-4.11367 4.11054,-4.11367 h 16.46268 c 2.74041,0 4.11057,1.37122 4.11057,4.11367 v 26.71557 h -6.1658 l -0.0204,-24.65876 h -12.33164 v 24.65876 z" />
          <g
             transform="matrix(0.12115162,0,0,0.12115162,-458.17917,390.99835)"
             style="fill:#ffffff;fill-opacity:1"
             id="g22583">
            <g
               style="fill:#ffffff;fill-opacity:1"
               id="g22581">
              <path
                 inkscape:connector-curvature="0"
                 style="fill:#ffffff;fill-opacity:1"
                 d="m 578.497,329.491 c 12.974,0 23.491,-10.517 23.491,-23.491 0,-12.974 -10.517,-23.491 -23.491,-23.491 h -53.624 v -53.075 h 112.19543 c 12.974,0 23.491,-10.517 23.491,-23.491 0,-12.974 -10.517,-23.491 -23.491,-23.491 H 524.397 C 519.801,130.518 480.289,88.486 429.541,80.036 V 23.491 C 429.541,10.517 419.024,0 406.05,0 393.076,0 382.559,10.517 382.559,23.491 V 78.46 H 329.487 V -45.080429 c 0,-12.974 -10.516,-23.491 -23.49,-23.491 -12.974,0 -23.492,10.517 -23.492,23.491 V 78.46 h -53.07 V 23.491 C 229.434,10.517 218.917,0 205.943,0 192.969,0 182.452,10.517 182.452,23.491 V 80.035 C 131.703,88.485 92.19,130.517 87.596,182.451 H -45.073429 c -12.974,0 -23.491,10.517 -23.491,23.491 0,12.974 10.517,23.491 23.491,23.491 H 87.122 v 53.075 H 33.498 c -12.974,0 -23.491,10.517 -23.491,23.491 0,12.974 10.517,23.491 23.491,23.491 h 53.624 v 53.074 H -15.073429 c -12.974,0 -23.491,10.517 -23.491,23.491 0,12.974 10.517,23.491 23.491,23.491 H 87.598 c 4.594,51.932 44.108,93.965 94.856,102.413 v 36.549 c 0,12.974 10.517,23.491 23.491,23.491 12.974,0 23.491,-10.517 23.491,-23.491 v -34.974 h 53.07 v 106.40257 c 0,12.974 10.518,23.491 23.492,23.491 12.974,0 23.491,-10.517 23.491,-23.491 V 533.534 h 53.072 v 54.974 c 0,12.974 10.517,23.491 23.491,23.491 12.974,0 23.491,-10.517 23.491,-23.491 v -56.545 c 50.749,-8.448 90.261,-50.48 94.856,-102.413 h 155.52857 c 12.974,0 23.491,-10.517 23.491,-23.491 0,-12.974 -10.517,-23.491 -23.491,-23.491 H 524.875 v -53.074 h 53.622 z m -91.145,89.922 c 0,42.238 -34.364,76.602 -76.607,76.602 H 201.249 c -42.241,0 -76.605,-34.362 -76.605,-76.602 v -226.83 c 0,-42.24 34.364,-76.604 76.605,-76.604 h 209.496 c 42.241,0 76.607,34.364 76.607,76.604 z"
                 id="path22579" />
            </g>
          </g>
          <path
             id="path22617"
             d="m -427.75986,411.75736 c -1.10099,-0.006 -2.20122,0.01 -3.29564,0.11494 -1.72735,0.19456 -3.0028,1.7644 -3.05697,3.46468 -0.0864,3.85346 -0.0148,7.71212 -0.0381,11.56763 0.0534,1.96739 -0.13239,3.95312 0.15307,5.90366 0.28045,1.73852 1.97988,2.85537 3.66828,2.85337 5.2472,0.036 10.4957,0.0134 15.74357,0.0175 v 2.17303 H -431.481 c -0.72464,2.17386 -1.44893,4.34778 -2.17354,6.52164 h 16.81646 c 1.9674,-0.0533 3.95311,0.13284 5.90366,-0.15257 1.73851,-0.28045 2.85538,-1.97987 2.85338,-3.66826 0.0394,-6.86502 0.005,-13.73172 0.0169,-20.59732 -0.0617,-1.84488 0.16231,-3.71842 -0.20822,-5.53616 -0.39815,-1.85381 -2.38381,-2.76466 -4.13936,-2.65339 h -12.04595 c -1.09927,0.0222 -2.20134,-0.004 -3.30231,-0.009 z m 0.13091,6.53041 h 13.04329 v 10.86924 h -13.04329 z"
             style="font-style:normal;font-variant:normal;font-weight:bold;font-stretch:normal;font-size:medium;line-height:1.25;font-family:Akashi;-inkscape-font-specification:'Akashi Bold';letter-spacing:0px;word-spacing:0px;fill:#ffffff;fill-opacity:1;stroke:none;stroke-width:1.11301601"
             inkscape:connector-curvature="0" />
        </g>
        <g
           id="g22839">
          <g
             transform="matrix(0.12115162,0,0,0.12115162,-458.17916,495.67233)"
             style="fill:#ffffff;fill-opacity:1"
             id="g22627">
            <path
               inkscape:connector-curvature="0"
               style="fill:#ffffff;fill-opacity:1"
               d="m 578.497,329.491 c 12.974,0 23.491,-10.517 23.491,-23.491 0,-12.974 -10.517,-23.491 -23.491,-23.491 h -53.624 v -53.075 h 112.19543 c 12.974,0 23.491,-10.517 23.491,-23.491 0,-12.974 -10.517,-23.491 -23.491,-23.491 H 524.397 C 519.801,130.518 480.289,88.486 429.541,80.036 V 23.491 C 429.541,10.517 419.024,0 406.05,0 393.076,0 382.559,10.517 382.559,23.491 V 78.46 H 329.487 V -45.080429 c 0,-12.974 -10.516,-23.491 -23.49,-23.491 -12.974,0 -23.492,10.517 -23.492,23.491 V 78.46 h -53.07 V 23.491 C 229.434,10.517 218.917,0 205.943,0 192.969,0 182.452,10.517 182.452,23.491 V 80.035 C 131.703,88.485 92.19,130.517 87.596,182.451 H -45.073429 c -12.974,0 -23.491,10.517 -23.491,23.491 0,12.974 10.517,23.491 23.491,23.491 H 87.122 v 53.075 H 33.498 c -12.974,0 -23.491,10.517 -23.491,23.491 0,12.974 10.517,23.491 23.491,23.491 h 53.624 v 53.074 H -15.073429 c -12.974,0 -23.491,10.517 -23.491,23.491 0,12.974 10.517,23.491 23.491,23.491 H 87.598 c 4.594,51.932 44.108,93.965 94.856,102.413 v 36.549 c 0,12.974 10.517,23.491 23.491,23.491 12.974,0 23.491,-10.517 23.491,-23.491 v -34.974 h 53.07 v 106.40257 c 0,12.974 10.518,23.491 23.492,23.491 12.974,0 23.491,-10.517 23.491,-23.491 V 533.534 h 53.072 v 54.974 c 0,12.974 10.517,23.491 23.491,23.491 12.974,0 23.491,-10.517 23.491,-23.491 v -56.545 c 50.749,-8.448 90.261,-50.48 94.856,-102.413 h 155.52857 c 12.974,0 23.491,-10.517 23.491,-23.491 0,-12.974 -10.517,-23.491 -23.491,-23.491 H 524.875 v -53.074 h 53.622 z m -91.145,89.922 c 0,42.238 -34.364,76.602 -76.607,76.602 H 201.249 c -42.241,0 -76.605,-34.362 -76.605,-76.602 v -226.83 c 0,-42.24 34.364,-76.604 76.605,-76.604 h 209.496 c 42.241,0 76.607,34.364 76.607,76.604 z"
               id="path22625" />
          </g>
          <path
             inkscape:connector-curvature="0"
             style="font-style:normal;font-variant:normal;font-weight:bold;font-stretch:normal;font-size:medium;line-height:1.25;font-family:Akashi;-inkscape-font-specification:'Akashi Bold';letter-spacing:0px;word-spacing:0px;fill:#ffffff;fill-opacity:1;stroke:none;stroke-width:1.11301601"
             d="m -427.75985,516.43134 c -1.10099,-0.006 -2.20122,0.01 -3.29564,0.11494 -1.72735,0.19456 -3.0028,1.7644 -3.05697,3.46468 -0.0864,3.85346 -0.0148,7.71212 -0.0381,11.56763 0.0534,1.96739 -0.13239,3.95312 0.15307,5.90366 0.28045,1.73852 1.97988,2.85537 3.66828,2.85337 5.2472,0.036 10.4957,0.0134 15.74357,0.0175 v 2.17303 h -16.89532 c -0.72464,2.17386 -1.44893,4.34778 -2.17354,6.52164 h 16.81646 c 1.9674,-0.0533 3.95311,0.13284 5.90366,-0.15257 1.73851,-0.28045 2.85538,-1.97987 2.85338,-3.66826 0.0394,-6.86502 0.005,-13.73172 0.0169,-20.59732 -0.0617,-1.84488 0.16231,-3.71842 -0.20822,-5.53616 -0.39815,-1.85381 -2.38381,-2.76466 -4.13936,-2.65339 h -12.04595 c -1.09927,0.0222 -2.20134,-0.004 -3.30231,-0.009 z m 0.13091,6.53041 h 13.04329 v 10.86924 h -13.04329 z"
             id="path22663" />
        </g>
      </g>
    </g>
  </g>
</svg>
