<svg id="Слой_1" data-name="Слой 1" xmlns="http://www.w3.org/2000/svg" xmlns:xlink="http://www.w3.org/1999/xlink" viewBox="0 0 501.3 574.3"><defs><style>.cls-1{fill:#fff}.cls-2{mask:url(#mask)}.cls-3{mask:url(#mask-2)}.cls-4{fill:#f4aa34}.cls-5{mask:url(#mask-3)}.cls-6{fill:#e95a27}.cls-7{mask:url(#mask-5)}.cls-8{fill:#372d2c}.cls-9{mask:url(#mask-7)}.cls-10{fill:#6dc8bd}.cls-11{mask:url(#mask-9)}.cls-12{fill:#4daa9d}.cls-13{mask:url(#mask-11)}.cls-14{fill:#fff5c6}.cls-15{mask:url(#mask-13)}.cls-16{mask:url(#mask-15)}.cls-17{mask:url(#mask-17)}.cls-18{mask:url(#mask-19)}.cls-19{mask:url(#mask-21)}.cls-20{mask:url(#mask-23)}.cls-21{mask:url(#mask-25)}.cls-22{mask:url(#mask-27)}.cls-23{mask:url(#mask-29)}.cls-24{mask:url(#mask-31)}.cls-25{mask:url(#mask-33)}.cls-26{mask:url(#mask-35)}.cls-27{mask:url(#mask-37)}.cls-28{mask:url(#mask-39)}.cls-29{mask:url(#mask-41)}.cls-30{mask:url(#mask-43)}.cls-31{mask:url(#mask-45)}.cls-32{mask:url(#mask-47)}.cls-33{mask:url(#mask-49)}.cls-34{mask:url(#mask-50)}.cls-35{mask:url(#mask-51)}.cls-36{mask:url(#mask-52)}.cls-37{mask:url(#mask-53)}.cls-38{mask:url(#mask-55)}.cls-39{mask:url(#mask-56)}.cls-40{mask:url(#mask-57)}.cls-41{mask:url(#mask-59)}.cls-42{mask:url(#mask-61)}.cls-43{mask:url(#mask-63)}.cls-44{mask:url(#mask-65)}.cls-45{mask:url(#mask-67)}.cls-46{mask:url(#mask-69)}.cls-47{mask:url(#mask-71)}.cls-48{mask:url(#mask-73)}.cls-49{mask:url(#mask-75)}.cls-50{mask:url(#mask-77)}.cls-51{mask:url(#mask-79)}.cls-52{mask:url(#mask-81)}.cls-53{mask:url(#mask-83)}.cls-54{mask:url(#mask-85)}.cls-55{mask:url(#mask-87)}.cls-56{mask:url(#mask-89)}.cls-57{mask:url(#mask-91)}.cls-58{mask:url(#mask-93)}.cls-59{mask:url(#mask-95)}.cls-60{mask:url(#mask-96)}.cls-61{mask:url(#mask-97)}.cls-62{mask:url(#mask-99)}.cls-63{mask:url(#mask-101)}.cls-64{mask:url(#mask-103)}.cls-65{mask:url(#mask-105)}.cls-66{mask:url(#mask-107)}.cls-67{mask:url(#mask-109)}.cls-68{mask:url(#mask-111)}.cls-69{mask:url(#mask-113)}.cls-70{mask:url(#mask-115)}</style><mask id="mask" x="80.24" y="181" width="340.75" height="190.3" maskUnits="userSpaceOnUse"><g transform="translate(50.6 50.6)"><g id="b"><path id="a" class="cls-1" d="M363.3,320.7a177.16,177.16,0,0,0-29.1-156.9l-25.3-33.4H91.1L65.8,163.8A177.53,177.53,0,0,0,36.7,320.7a324.3,324.3,0,0,1,163.3-45C262.7,275.7,319.9,295,363.3,320.7Z"/></g></g></mask><mask id="mask-2" x="-106.2" y="38.7" width="769.6" height="648" maskUnits="userSpaceOnUse"><g transform="translate(50.6 50.6)"><g id="d"><path id="c" class="cls-1" d="M-156.8-11.9H612.8v648H-156.8Z"/></g></g></mask><mask id="mask-3" x="87.3" y="326.3" width="326.6" height="185.6" maskUnits="userSpaceOnUse"><g transform="translate(50.6 50.6)"><g id="f"><path id="e" class="cls-1" d="M200,461.3c68.6,0,127.6-59.5,153.6-114.8a182,182,0,0,0,9.7-25.8c-43.3-25.7-100.6-45-163.3-45S80.1,295,36.7,320.7a182,182,0,0,0,9.7,25.8C72.3,401.8,131.4,461.3,200,461.3Z"/></g></g></mask><mask id="mask-5" x="68.36" y="169.2" width="364.5" height="354.5" maskUnits="userSpaceOnUse"><g transform="translate(50.6 50.6)"><g id="j"><path id="i" class="cls-1" d="M353.6,346.5a223.9,223.9,0,0,1-28.4,45.3c-2.6,2.8-10.1,2.4-9.5-.5l.3-.8.2-.2A115.8,115.8,0,0,0,328,364.5a137,137,0,0,0,5.5-56.4l-.3-2.5-2.5-1.2c-2.6-1.3-5.1-2.6-7.7-3.7l-7.9-3.2a84.5,84.5,0,0,0-8.1-2.6l-8.2-2.2a219.9,219.9,0,0,0-33.3-5.3,311.6,311.6,0,0,0-50.3-.6l-8.4.6-6.6.7h-.4l-6.6-.7-8.4-.6c-5.6-.3-11.2-.6-16.8-.6a311.63,311.63,0,0,0-33.5,1.2,235.47,235.47,0,0,0-33.3,5.3L93,294.9l-8.1,2.6a76.79,76.79,0,0,0-7.9,3.2l-7.7,3.7-2.5,1.2-.3,2.5A135,135,0,0,0,72,364.5a111.47,111.47,0,0,0,11.8,25.8l.1.2.3.8c.6,2.8-6.8,3.3-9.5.5a226.7,226.7,0,0,1-28.4-45.3A177.39,177.39,0,0,1,65.7,163.8l24.2-32a3.7,3.7,0,0,1,2.9-1.4H307a3.7,3.7,0,0,1,2.9,1.4l24.2,32a177.2,177.2,0,0,1,19.5,182.7Zm-43.1,40.6a95.4,95.4,0,0,1-16.2,21.2,113.4,113.4,0,0,1-46.8,26.8,153,153,0,0,1-26.9,5.9c-4.6.7-9.2,1.1-13.8,1.5l-6.8.4-6.8-.4a203.3,203.3,0,0,1-40.7-7.4c-17.5-5.3-34-14.1-46.8-26.8a95.4,95.4,0,0,1-26.1-45.9A129.8,129.8,0,0,1,76,314.7a3.5,3.5,0,0,1,2.2-2.9l2.8-1c2.4-.9,5-1.6,7.4-2.4a65,65,0,0,1,7.6-1.9l7.7-1.6a222.23,222.23,0,0,1,31.5-2.9,309,309,0,0,1,47.8,2.7l7.9,1.1,4.1.7a3.75,3.75,0,0,0,2.7-.6,3.89,3.89,0,0,0,1.5-2.3l.7-4.5.7,4.5a3.62,3.62,0,0,0,1.5,2.3,3.33,3.33,0,0,0,2.7.6l4.1-.7,7.9-1.1a308.1,308.1,0,0,1,47.8-2.7,220.88,220.88,0,0,1,31.5,2.9c2.6.5,5.2.9,7.7,1.6l7.6,1.9c2.5.7,5,1.5,7.4,2.4l2.8,1a3.5,3.5,0,0,1,2.2,2.9,110.12,110.12,0,0,1,.5,21.4,123.1,123.1,0,0,1-13.8,51Zm33.2-230.4L315.9,120a3.7,3.7,0,0,0-2.9-1.4H87a3.7,3.7,0,0,0-2.9,1.4L56.3,156.7A189.1,189.1,0,0,0,35.7,351.5C63.1,410,126.2,473.1,200,473.1S336.9,410,364.4,351.4a189.2,189.2,0,0,0-20.7-194.7Z"/></g></g></mask><mask id="mask-7" x="124.69" y="349.95" width="132.51" height="144.65" maskUnits="userSpaceOnUse"><g transform="translate(50.6 50.6)"><g id="n"><path id="m" class="cls-1" d="M200,302.8S123.8,290,75.1,313.7c0,0-21.3,130.3,131.5,130.3"/></g></g></mask><mask id="mask-9" x="250.6" y="349.95" width="125.91" height="144.65" maskUnits="userSpaceOnUse"><g transform="translate(50.6 50.6)"><g id="r"><path id="q" class="cls-1" d="M324.9,313.7C276.1,290,200,302.8,200,302.8V444C345.6,440.2,324.9,313.7,324.9,313.7Z"/></g></g></mask><mask id="mask-11" x="124.7" y="355.7" width="72.8" height="130.4" maskUnits="userSpaceOnUse"><g transform="translate(50.6 50.6)"><g id="v"><path id="u" class="cls-1" d="M127,307.2c-26.1,3.6-38.9,17-38.9,17s-5.9,77.2,58.8,109.7l-18.7,1.6-25.9-27.4L81.8,380.9l-5.3-16.8-2.4-50.4,40.6-8.6Z"/></g></g></mask><mask id="mask-13" x="120.41" y="342.2" width="137.19" height="152.43" maskUnits="userSpaceOnUse"><g transform="translate(50.6 50.6)"><g id="z"><path id="y" class="cls-1" d="M198.7,311.8l-7.4-1.3-7.6-1.1a290,290,0,0,0-46.3-2.6,208.44,208.44,0,0,0-30.6,2.8l-7.5,1.5q-7.38,1.82-14.6,4.2l-7,2.8,2.7-3.7a111,111,0,0,0-1.1,25.5,131,131,0,0,0,3.9,25.6,103.8,103.8,0,0,0,9.6,24,90,90,0,0,0,15.7,20.6,109.3,109.3,0,0,0,45.5,26c4.3,1.3,8.6,2.4,12.9,3.4s8.8,1.7,13.2,2.4,8.9,1.1,13.4,1.4l13.5.7c-9,.13-18-.13-27-.8a148.8,148.8,0,0,1-26.7-4.6,113.4,113.4,0,0,1-48.2-24.8A99.2,99.2,0,0,1,76,367.7,138.1,138.1,0,0,1,70.5,313l.3-2.5,2.4-1.2,7.5-3.6q7.66-3.16,15.6-5.6l8-2.1a219.54,219.54,0,0,1,32.3-5.2,321.8,321.8,0,0,1,48.9-.5l8.2.6,8.3.9Z"/></g></g></mask><mask id="mask-15" x="244.3" y="342.11" width="137.26" height="152.63" maskUnits="userSpaceOnUse"><g transform="translate(50.6 50.6)"><g id="D-2" data-name="D"><path id="C-2" data-name="C" class="cls-1" d="M198.7,293.7l8.3-.9,8.2-.6a322.8,322.8,0,0,1,48.9.5,219.54,219.54,0,0,1,32.3,5.2c2.7.7,5.3,1.3,8,2.2l7.9,2.5a72.82,72.82,0,0,1,7.7,3.1l7.5,3.6,2.4,1.2.3,2.5a127.5,127.5,0,0,1,0,27.8,129.78,129.78,0,0,1-5.5,26.9,99.2,99.2,0,0,1-29.1,46.2,114.5,114.5,0,0,1-48.2,24.8,149.5,149.5,0,0,1-26.7,4.6c-9,.67-18,.93-27,.8a201.89,201.89,0,0,0,26.9-2.1,152.5,152.5,0,0,0,26.2-5.8c17-5.2,33-13.7,45.5-26A90,90,0,0,0,308,389.6a103.8,103.8,0,0,0,9.6-24,122.8,122.8,0,0,0,4-38.5q-.3-6.3-1.2-12.6l2.7,3.7c-2.3-1-4.6-2-7-2.8l-7.2-2.3-7.4-1.9-7.5-1.5a209.7,209.7,0,0,0-30.6-2.8,289.1,289.1,0,0,0-46.3,2.6l-7.6,1.1-7.4,1.3Z"/></g></g></mask><mask id="mask-17" x="169.7" y="354.2" width="161.8" height="154.6" maskUnits="userSpaceOnUse"><g transform="translate(50.6 50.6)"><g id="H-2" data-name="H"><path id="G-2" data-name="G" class="cls-1" d="M128.8,303.8a136.7,136.7,0,0,0-9.7,51.3c0,59.7,36.2,103.1,80.9,103.1s80.9-43.4,80.9-103.1a135.87,135.87,0,0,0-9.8-51.5A768.7,768.7,0,0,1,128.8,303.8Z"/></g></g></mask><mask id="mask-19" x="50.62" y="231.32" width="399.95" height="35.65" maskUnits="userSpaceOnUse"><g transform="translate(50.6 50.6)"><g id="L-2" data-name="L"><path id="K-2" data-name="K" class="cls-1" d="M392.3,216.2a809.4,809.4,0,0,0-384.6,0A6.2,6.2,0,0,1,.9,207a6.5,6.5,0,0,1,3.9-2.8,823.3,823.3,0,0,1,390.4,0,6.52,6.52,0,0,1,3.9,2.8,6.2,6.2,0,0,1-6.8,9.2Z"/></g></g></mask><mask id="mask-21" x="374.26" y="206.7" width="52.48" height="94.69" maskUnits="userSpaceOnUse"><g transform="translate(50.6 50.6)"><g id="P-2" data-name="P"><path id="O-2" data-name="O" class="cls-1" d="M323.8,226l8.2-52.1a22.3,22.3,0,0,1,44,7L367.8,233a22.3,22.3,0,0,1-44-7Z"/></g></g></mask><mask id="mask-23" x="365.33" y="201.1" width="65.68" height="110.4" maskUnits="userSpaceOnUse"><g transform="translate(50.6 50.6)"><g id="T-2" data-name="T"><path id="S-2" data-name="S" class="cls-1" d="M342.3,251l2.8.1A22.6,22.6,0,0,0,362,243a18.36,18.36,0,0,0,3.4-6.1,33.85,33.85,0,0,0,1.5-7.7l4.5-38.7.6-5.4.3-2.7.2-2.6a18,18,0,0,0-15.9-19,16.9,16.9,0,0,0-17.3,10l-.6,1.8-.2.8a5,5,0,0,0-.2,1.3l-.1.7-.1.3c0-.1-.1.4,0-.2v.3l-.2,1.4-.3,2.7-.6,5.4L332.5,224l-.2,2.1-.1,1v.6l.1,2.4a12.8,12.8,0,0,0,9.6,10.8l.9.2.9.1.5.1h.1l-.5-.1Zm-1.6,9.9-.5-.1h-.1l-.5-.1-.8-.2-1.4-.4-2.4-.8a17.55,17.55,0,0,1-2.4-1.1,31.4,31.4,0,0,1-15.7-16.8,29,29,0,0,1-1.8-15.6l.2-1.4.2-1,.4-2.1,7.7-38.3,1.1-5.3.5-2.7.3-1.3.1-.7.1-.3.2-.7.4-1.4.6-1.9a26,26,0,0,1,5.7-9.1,28.1,28.1,0,0,1,32.5-6.5,27,27,0,0,1,13.6,14.6,24.38,24.38,0,0,1,1.4,12.8l-.5,2.9-.5,2.7-1.1,5.3-7.7,38.3a34.62,34.62,0,0,1-2.3,8.2,23.2,23.2,0,0,1-22.6,13.5l-2.7-.4Z"/></g></g></mask><mask id="mask-25" x="73.73" y="206.23" width="52.95" height="95.75" maskUnits="userSpaceOnUse"><g transform="translate(50.6 50.6)"><g id="X-2" data-name="X"><path id="W-2" data-name="W" class="cls-1" d="M42.1,155.9a22.5,22.5,0,0,1,25.7,18.7l8,50.8a22.47,22.47,0,1,1-44.4,7l-8-50.8A22.5,22.5,0,0,1,42.1,155.9Z"/></g></g></mask><mask id="mask-27" x="70.16" y="201.09" width="65.58" height="110.41" maskUnits="userSpaceOnUse"><g transform="translate(50.6 50.6)"><g id="ab"><path id="aa" class="cls-1" d="M57.2,251l-2.7.4a22.8,22.8,0,0,1-18.3-7.1,21.19,21.19,0,0,1-4.3-6.4,33.3,33.3,0,0,1-2.3-8.2l-7.7-38.3-1.1-5.3-.5-2.7-.5-2.9a26.3,26.3,0,0,1,15-27.4,19.89,19.89,0,0,1,3.4-1.3l3.2-.8A28.1,28.1,0,0,1,73,168.7l.6,1.9L74,172l.2.7.1.3.1.7.3,1.3.5,2.7,1.1,5.3L84,221.3l.4,2.1.2,1,.2,1.4a25.4,25.4,0,0,1,.3,5.5,30.7,30.7,0,0,1-17.8,26.9l-2.4,1.1-2.4.8-1.4.4-.8.2-.5.1h-.1l-.5.1Zm-1.5-9.9-.5.1h.1l.5-.1.9-.1.9-.2A12.8,12.8,0,0,0,67.2,230a9.66,9.66,0,0,0,.1-2.4V227l-.1-1-.2-2.1-4.5-38.7-.6-5.4-.3-2.7-.2-1.4v-.3c.1.6,0,.1,0,.2l-.1-.3-.1-.7-.2-1.3-.2-.8-.6-1.8a17,17,0,0,0-17.3-9.9,17.9,17.9,0,0,0-15.9,19l.2,2.6.3,2.7.6,5.4,4.5,38.7a33.85,33.85,0,0,0,1.5,7.7,21,21,0,0,0,12.8,12.8,24.26,24.26,0,0,0,7.5,1.4l2.8-.1Z"/></g></g></mask><mask id="mask-29" x="95.24" y="113.92" width="155.36" height="247.48" maskUnits="userSpaceOnUse"><g transform="translate(50.6 50.6)"><g id="af"><path id="ae" class="cls-1" d="M96.9,75.7,53.5,128.3A217,217,0,0,0,68.2,288s51.1,22.3,131.8,22.8V63.4A373.7,373.7,0,0,0,96.9,75.7Z"/></g></g></mask><mask id="mask-31" x="250.6" y="113.95" width="155.26" height="247.45" maskUnits="userSpaceOnUse"><g transform="translate(50.6 50.6)"><g id="aj"><path id="ai" class="cls-1" d="M346.5,128.3,303.1,75.7S258.8,62.4,200,63.4V310.8c80.7-.5,131.8-22.8,131.8-22.8s40.9-69.6,14.7-159.7Z"/></g></g></mask><mask id="mask-33" x="108.6" y="114.6" width="141.9" height="62" maskUnits="userSpaceOnUse"><g transform="translate(50.6 50.6)"><g id="an"><path id="am" class="cls-1" d="M199.9,66.3,105.2,86.9,87.4,111.2l25.4,2L58,126,97.5,73.7,197.7,64Z"/></g></g></mask><mask id="mask-35" x="95.4" y="155.1" width="148.1" height="176.1" maskUnits="userSpaceOnUse"><g transform="translate(50.6 50.6)"><g id="ar"><path id="aq" class="cls-1" d="M192.9,106.6s-84.9,11-123.3,39c0,0-24.9,54.2,2.5,135L44.8,229.1l8.8-100.8,75.3-19,60.3-4.8Z"/></g></g></mask><mask id="mask-37" x="89.15" y="105.35" width="322.5" height="258.95" maskUnits="userSpaceOnUse"><g transform="translate(50.6 50.6)"><g id="av"><path id="au" class="cls-1" d="M72.1,280.6c9.6,3.8,57.5,21.1,127.7,21.6,70.2-.5,118.1-17.8,127.7-21.6A214.2,214.2,0,0,0,341,128.2L299.6,77.9a377,377,0,0,0-99.7-11.6c-51.1-.8-91.4,9.3-99.9,11.6L58.6,128.2A214.3,214.3,0,0,0,72.1,280.6Zm127.7,33.1v0c-81.1-.5-132-22.4-134.2-23.3l-1.7-.8L63,288A220.5,220.5,0,0,1,47.8,123.9l.3-1.1L93.3,67.9l1.7-.5c1.8-.6,45.9-13.5,104.9-12.6,58.8-1,102.8,12,104.7,12.5l1.7.5,45.2,54.9.3,1.1a220.5,220.5,0,0,1-15.2,164.1l-.9,1.6-1.7.8c-2.2,1-53.2,22.8-134.2,23.4Z"/></g></g></mask><mask id="mask-39" x="243.4" y="155.7" width="14.4" height="63.7" maskUnits="userSpaceOnUse"><g transform="translate(50.6 50.6)"><g id="az"><path id="ay" class="cls-1" d="M207.2,105.1,200,168.8l-7.2-63.7Z"/></g></g></mask><mask id="mask-41" x="243.4" y="332" width="14.4" height="29.4" maskUnits="userSpaceOnUse"><g transform="translate(50.6 50.6)"><g id="aD-2" data-name="aD"><path id="aC-2" data-name="aC" class="cls-1" d="M192.8,310.8l7.2-29.4,7.2,29.4Z"/></g></g></mask><mask id="mask-43" x="250.5" y="114.6" width="141.8" height="62" maskUnits="userSpaceOnUse"><g transform="translate(50.6 50.6)"><g id="aH-2" data-name="aH"><path id="aG-2" data-name="aG" class="cls-1" d="M341.7,126,302.2,73.7,202,64l-2.1,2.3,94.6,20.6,17.8,24.3-25.3,2Z"/></g></g></mask><mask id="mask-45" x="224.2" y="127.6" width="52.8" height="19.8" maskUnits="userSpaceOnUse"><g transform="translate(50.6 50.6)"><g id="aL-2" data-name="aL"><ellipse id="aK-2" data-name="aK" class="cls-1" cx="200" cy="86.9" rx="26.4" ry="9.9"/></g></g></mask><mask id="mask-47" x="267.9" y="126.1" width="21" height="22.8" maskUnits="userSpaceOnUse"><g transform="translate(50.6 50.6)"><g id="aP-2" data-name="aP"><path id="aO-2" data-name="aO" class="cls-1" d="M238.3,86.9c0-5.6-9-10.3-21-11.4,8.8,2.3,14.6,6.5,14.6,11.4S226,96,217.3,98.3C229.3,97.2,238.3,92.5,238.3,86.9Z"/></g></g></mask><mask id="mask-49" x="242.1" y="73.1" width="17" height="64.4" maskUnits="userSpaceOnUse"><g transform="translate(50.6 50.6)"><g id="aT-2" data-name="aT"><path id="aS-2" data-name="aS" class="cls-1" d="M208.5,22.5h-17l3.7,64.4h9.6Z"/></g></g></mask><mask id="mask-50" x="-106.2" y="22.5" width="769.6" height="664.2" maskUnits="userSpaceOnUse"><g transform="translate(50.6 50.6)"><g id="aV-2" data-name="aV"><path id="aU-2" data-name="aU" class="cls-1" d="M-156.8-11.9H612.8v648H-156.8Z"/></g></g></mask><mask id="mask-51" x="245.2" y="76" width="7.5" height="58.6" maskUnits="userSpaceOnUse"><g transform="translate(50.6 50.6)"><g id="aX-2" data-name="aX"><path id="aW-2" data-name="aW" class="cls-1" d="M194.6,25.4,197.9,84h4.2L200,25.4Z"/></g></g></mask><mask id="mask-52" x="-106.2" y="25.4" width="769.6" height="661.3" maskUnits="userSpaceOnUse"><g transform="translate(50.6 50.6)"><g id="aZ-2" data-name="aZ"><path id="aY-2" data-name="aY" class="cls-1" d="M-156.8-11.9H612.8v648H-156.8Z"/></g></g></mask><mask id="mask-53" x="231.1" y="131.3" width="22.8" height="12.4" maskUnits="userSpaceOnUse"><g transform="translate(50.6 50.6)"><g id="bb"><path id="ba" class="cls-1" d="M197.1,80.7c-9.2,0-16.6,2.8-16.6,6.2s7.4,6.2,16.6,6.2a6.2,6.2,0,0,0,0-12.4Z"/></g></g></mask><mask id="mask-55" x="227.9" y="50.6" width="45.4" height="45" maskUnits="userSpaceOnUse"><g transform="translate(50.6 50.6)"><g id="bf"><path id="be" class="cls-1" d="M200,0a22.5,22.5,0,1,0,22.7,22.5A22.58,22.58,0,0,0,200,0Z"/></g></g></mask><mask id="mask-56" x="-106.2" y="0" width="769.6" height="686.7" maskUnits="userSpaceOnUse"><g transform="translate(50.6 50.6)"><g id="bh"><path id="bg" class="cls-1" d="M-156.8-11.9H612.8v648H-156.8Z"/></g></g></mask><mask id="mask-57" x="101.9" y="153.93" width="193.8" height="30.17" maskUnits="userSpaceOnUse"><g transform="translate(50.6 50.6)"><g id="bj"><path id="bi" class="cls-1" d="M51.3,122.9l2.1-.7,6.1-1.8,9.4-2.5L81.2,115l14.6-3c5.2-.9,10.7-2,16.3-2.7s11.5-1.7,17.5-2.4,12.1-1.3,18.2-1.8l18.2-1.2c6-.4,11.9-.3,17.6-.5s11.3.1,16.5.1,10.2.3,14.7.6,8.7.4,12.4.8l9.6.9,8.3.8-8.4-.3-9.6-.4c-3.7-.2-7.9,0-12.4,0s-9.5,0-14.7.3-10.7.3-16.3.8-11.5.8-17.4,1.5-11.9,1.2-17.9,2.2-12,1.7-17.8,2.8-11.6,2.2-17.1,3.3l-15.9,3.6c-5,1.3-9.8,2.5-14.1,3.8l-11.8,3.5-9,3-5.6,2-2,.8Z"/></g></g></mask><mask id="mask-59" x="337.7" y="163.7" width="60.7" height="19.2" maskUnits="userSpaceOnUse"><g transform="translate(50.6 50.6)"><g id="bn"><path id="bm" class="cls-1" d="M344.7,132.3l-2.3-1-6.3-2.6q-9.73-3.82-19.7-7c-7.2-2.4-14.6-4.5-20.1-6.1l-9.2-2.5,9.5,1.2a369.7,369.7,0,0,1,41.7,7.5l6.9,1.7,2.6.7Z"/></g></g></mask><mask id="mask-61" x="126.86" y="202.8" width="251.84" height="129.23" maskUnits="userSpaceOnUse"><g transform="translate(50.6 50.6)"><g id="br"><path id="bq" class="cls-1" d="M328.1,180.1l-.5-5.2-.8-5.2a46,46,0,0,0-1.3-5l-.8-2.6-.9-3.1-3.6-.5a850,850,0,0,0-90.1-6.2l-3.1-.1-1.3,2.6L209,187.3l-18.6.3L172.7,156l-.9-1.7-1.8.1q-33.7,2-67.2,6.4c-6,.8-12,1.8-18,2.8l-4.3.5-.4,1.3L78.9,169l-1.1,4.9-.8,4.9-.5,5c-.2,3.3-.3,6.7-.2,10l.4,10a224.78,224.78,0,0,0,4,29.8l1.1,4.9,1.4,5,.4,1.2,1.4.5,56.6,18.6q25,8.15,49.9,16.7a29.69,29.69,0,0,0,4.3.6l1,.1h.3l.5.1,2.1.1a40,40,0,0,0,16.4-2.8l14-4.6q42.64-13.15,85.4-25.9l2.8-.8.9-2.6.9-2.6.7-2.5,1.3-4.9a220.1,220.1,0,0,0,4.9-29.3l.8-10,.2-5v-5.1l.1-5.2Z"/></g></g></mask><mask id="mask-63" x="129.56" y="203.7" width="242.17" height="117.87" maskUnits="userSpaceOnUse"><g transform="translate(50.6 50.6)"><g id="bv"><path id="bu" class="cls-1" d="M318,160l-11-1.3-.9-.1-7.3-.8c-24-2.6-47.2-3.9-68.9-4.6h-.3l-17.9,33.7H188.5l-18-33.8q-44.34,1.29-88.4,6.9l-.6,2c-6.9,21.5,2,65.4,5.9,75.5,0,0,75.2,22.5,100.3,31.5a34.69,34.69,0,0,0,15,1.8,32.13,32.13,0,0,0,9.7-1.9q49.88-16.61,100.3-31.5C316.6,226.8,326,180.8,318,160Z"/></g></g></mask><mask id="mask-65" x="128.06" y="198.9" width="249.04" height="127.61" maskUnits="userSpaceOnUse"><g transform="translate(50.6 50.6)"><g id="bz"><path id="by" class="cls-1" d="M82,160c-.4,1.6-.9,3.1-1.2,4.7l-.7,4.8a39,39,0,0,0-.3,4.9l-.1,4.9c.1,3.2.2,6.5.5,9.7s.6,6.5,1.1,9.7c.9,6.4,2,12.8,3.4,19.1l2.3,9.4,1.3,4.6,1.5,4.4-1.7-1.6c9.5,2.5,18.9,5.2,28.4,7.9s18.9,5.3,28.3,8.1l28.2,8.5,14.1,4.5a35.5,35.5,0,0,0,19.1,1.7,38.26,38.26,0,0,0,6.3-2q7-2.52,14-4.9c9.3-3.2,18.7-6.2,28-9.2q28-8.85,56.3-17.4l-3.7,3.4.7-1.9.6-2.1,1.1-4.4a243.5,243.5,0,0,0,4.7-27.6l.8-9.3.2-4.6v-4.6l-.1-4.5-.4-4.4-.7-4.3c-.2-1.4-.7-2.7-1-4l-.1-.2-.1-.2-.4-1.3,4.5,3.5c-7.3-1-14.6-1.8-21.9-2.6l-21.9-2.2c-14.6-1.3-29.3-2.1-44-2.8l4.4-2.5-18.6,33.6-1.3,2.3h-2.5l-23.2-.4h-2.4l-1-2-17.1-34.1,2.7,1.6q-33.18.15-66.3,2.3C96.8,158.8,89.4,159.4,82,160Zm0,0q21.86-3.64,43.9-6.1t44.3-3.6l1.8-.1.9,1.7,18.6,33.3-3.3-2,23.2-.4-3.7,2.2,17.4-34.1,1.3-2.6,3.1.1q44.57.94,88.9,6.1l3.6.5.9,3.1.8,2.7-.1-.4,1.4,5.2a46.71,46.71,0,0,1,.8,5.2l.5,5.1.2,5v5l-.2,4.9a251.6,251.6,0,0,1-5.7,38.9l-1.3,4.8-.7,2.5-.9,2.6-.9,2.6-2.8.8c-18.8,5.5-37.5,11.2-56.3,17l-28.1,8.6-13.9,4.5a43.2,43.2,0,0,1-16.2,2.8l-2.1-.1-.5-.1h-.3l-1-.1-4.2-.6a52.75,52.75,0,0,1-7.7-2.4l-13.8-4.9-27.8-9.4L86.2,239.9l-1.4-.5-.4-1.2c-.6-1.7-1-3.3-1.4-4.9l-1.1-4.9a186.5,186.5,0,0,1-4-29.3c-.2-3.3-.4-6.6-.4-9.9s0-6.6.2-9.9l.5-4.9.7-4.9a41.5,41.5,0,0,1,1.1-4.8A44,44,0,0,0,82,160Z"/></g></g></mask><mask id="mask-67" x="234.4" y="162" width="5.4" height="5.2" maskUnits="userSpaceOnUse"><g transform="translate(50.6 50.6)"><g id="bD-2" data-name="bD"><path id="bC-2" data-name="bC" class="cls-1" d="M186.5,116.6a2.67,2.67,0,0,0,2.7-2.6,2.61,2.61,0,0,0-2.7-2.6,2.6,2.6,0,1,0,0,5.2Z"/></g></g></mask><mask id="mask-69" x="113.6" y="186.4" width="5.4" height="5.2" maskUnits="userSpaceOnUse"><g transform="translate(50.6 50.6)"><g id="bH-2" data-name="bH"><path id="bG-2" data-name="bG" class="cls-1" d="M65.7,141a2.67,2.67,0,0,0,2.7-2.6,2.61,2.61,0,0,0-2.7-2.6,2.67,2.67,0,0,0-2.7,2.6A2.61,2.61,0,0,0,65.7,141Z"/></g></g></mask><mask id="mask-71" x="126.2" y="324.1" width="5.4" height="5.2" maskUnits="userSpaceOnUse"><g transform="translate(50.6 50.6)"><g id="bL-2" data-name="bL"><path id="bK-2" data-name="bK" class="cls-1" d="M78.3,278.7a2.67,2.67,0,0,0,2.7-2.6,2.61,2.61,0,0,0-2.7-2.6,2.67,2.67,0,0,0-2.7,2.6A2.7,2.7,0,0,0,78.3,278.7Z"/></g></g></mask><mask id="mask-73" x="236.6" y="341.5" width="5.4" height="5.2" maskUnits="userSpaceOnUse"><g transform="translate(50.6 50.6)"><g id="bP-2" data-name="bP"><path id="bO-2" data-name="bO" class="cls-1" d="M188.7,296.1a2.67,2.67,0,0,0,2.7-2.6,2.61,2.61,0,0,0-2.7-2.6,2.7,2.7,0,0,0-2.7,2.6A2.8,2.8,0,0,0,188.7,296.1Z"/></g></g></mask><mask id="mask-75" x="261.4" y="162.1" width="5.4" height="5.2" maskUnits="userSpaceOnUse"><g transform="translate(50.6 50.6)"><g id="bT-2" data-name="bT"><path id="bS-2" data-name="bS" class="cls-1" d="M213.5,116.7a2.67,2.67,0,0,0,2.7-2.6,2.61,2.61,0,0,0-2.7-2.6,2.6,2.6,0,1,0,0,5.2Z"/></g></g></mask><mask id="mask-77" x="369.6" y="324.3" width="5.4" height="5.2" maskUnits="userSpaceOnUse"><g transform="translate(50.6 50.6)"><g id="bX-2" data-name="bX"><ellipse id="bW-2" data-name="bW" class="cls-1" cx="321.7" cy="276.3" rx="2.7" ry="2.6"/></g></g></mask><mask id="mask-79" x="259.2" y="341.6" width="5.4" height="5.2" maskUnits="userSpaceOnUse"><g transform="translate(50.6 50.6)"><g id="cb"><path id="ca" class="cls-1" d="M211.3,296.2a2.67,2.67,0,0,0,2.7-2.6,2.61,2.61,0,0,0-2.7-2.6,2.7,2.7,0,0,0-2.7,2.6A2.8,2.8,0,0,0,211.3,296.2Z"/></g></g></mask><mask id="mask-81" x="127.9" y="443.7" width="245.4" height="76.9" maskUnits="userSpaceOnUse"><g transform="translate(50.6 50.6)"><g id="cf"><path id="ce" class="cls-1" d="M77.3,393.1C106,444.2,151.2,470,201,470s93-25.8,121.7-76.9C289,423.5,246.4,446,199.5,446S110.9,423.6,77.3,393.1Z"/></g></g></mask><mask id="mask-83" x="136" y="372.2" width="5.4" height="5.2" maskUnits="userSpaceOnUse"><g transform="translate(50.6 50.6)"><g id="cj"><path id="ci" class="cls-1" d="M88.1,326.8a2.67,2.67,0,0,0,2.7-2.6,2.61,2.61,0,0,0-2.7-2.6,2.6,2.6,0,1,0,0,5.2Z"/></g></g></mask><mask id="mask-85" x="163.4" y="364" width="5.4" height="5.2" maskUnits="userSpaceOnUse"><g transform="translate(50.6 50.6)"><g id="cn"><path id="cm" class="cls-1" d="M115.5,318.6a2.67,2.67,0,0,0,2.7-2.6,2.61,2.61,0,0,0-2.7-2.6,2.6,2.6,0,1,0,0,5.2Z"/></g></g></mask><mask id="mask-87" x="332.4" y="364" width="5.4" height="5.2" maskUnits="userSpaceOnUse"><g transform="translate(50.6 50.6)"><g id="cr"><path id="cq" class="cls-1" d="M284.5,318.6a2.67,2.67,0,0,0,2.7-2.6,2.61,2.61,0,0,0-2.7-2.6,2.6,2.6,0,1,0,0,5.2Z"/></g></g></mask><mask id="mask-89" x="122.7" y="183.5" width="282.6" height="177.9" maskUnits="userSpaceOnUse"><g transform="translate(50.6 50.6)"><g id="cv"><path id="cu" class="cls-1" d="M342.3,132.9s15.9,86.1-26.8,143.2c0,0-107,49.4-243.4,7.3l40.3,15.9,75.3,11.5,79.5-5.7,66.6-16.8L353.1,234l1.6-54.2L350.1,148Z"/></g></g></mask><mask id="mask-91" x="303.5" y="355.7" width="72.3" height="130.4" maskUnits="userSpaceOnUse"><g transform="translate(50.6 50.6)"><g id="cz"><path id="cy" class="cls-1" d="M272.2,307.2c26.1,3.6,39.7,17,39.7,17s2.7,75.3-59,109.9l18.2,1.4L297,408.1l20.5-27.2,5.3-16.8,2.4-50.4-40.6-8.6Z"/></g></g></mask><mask id="mask-93" x="337.6" y="163.8" width="71.2" height="162.9" maskUnits="userSpaceOnUse"><g transform="translate(50.6 50.6)"><g id="cD-2" data-name="cD"><path id="cC-2" data-name="cC" class="cls-1" d="M287,113.2l47.4,23.5s25.2,80.9-18.9,139.4l22.5-5.3,20.2-99.7-16.5-48.6Z"/></g></g></mask><mask id="mask-95" x="234.5" y="55.4" width="24.95" height="35.6" maskUnits="userSpaceOnUse"><g transform="translate(50.6 50.6)"><g id="cH-2" data-name="cH"><path id="cG-2" data-name="cG" class="cls-1" d="M201.5,4.8a17.8,17.8,0,0,0,0,35.6C211.3,40.3,211.3,4.8,201.5,4.8Z"/></g></g></mask><mask id="mask-96" x="-106.2" y="4.7" width="769.6" height="682" maskUnits="userSpaceOnUse"><g transform="translate(50.6 50.6)"><g id="cJ-2" data-name="cJ"><path id="cI-2" data-name="cI" class="cls-1" d="M-156.8-11.9H612.8v648H-156.8Z"/></g></g></mask><mask id="mask-97" x="129.46" y="203.6" width="132.74" height="110.3" maskUnits="userSpaceOnUse"><g transform="translate(50.6 50.6)"><g id="cL-2" data-name="cL"><path id="cK-2" data-name="cK" class="cls-1" d="M188.4,186.8l-18-33.8q-44.34,1.29-88.4,6.9l-.6,2c-6.9,21.5,2,65.4,5.9,75.5,0,0,51.8,15.5,83.7,25.9l40.6-76.4Z"/></g></g></mask><mask id="mask-99" x="236.4" y="204.3" width="88.7" height="117.17" maskUnits="userSpaceOnUse"><g transform="translate(50.6 50.6)"><g id="cP-2" data-name="cP"><path id="cO-2" data-name="cO" class="cls-1" d="M246.6,153.7,185.8,268.2l1.8.7a34.69,34.69,0,0,0,15,1.8,32.13,32.13,0,0,0,9.7-1.9l2.6-.9,59.6-112.3C265,154.8,255.7,154.1,246.6,153.7Z"/></g></g></mask><mask id="mask-101" x="286.6" y="207.7" width="71.5" height="103.7" maskUnits="userSpaceOnUse"><g transform="translate(50.6 50.6)"><g id="cT-2" data-name="cT"><path id="cS-2" data-name="cS" class="cls-1" d="M306.9,158.7l-.9-.1-7.3-.8-7.7-.7L236,260.8l20.8-6.6,50.7-95.5Z"/></g></g></mask><mask id="mask-103" x="204.6" y="374.9" width="91.6" height="90.6" maskUnits="userSpaceOnUse"><g transform="translate(50.6 50.6)"><g id="cX-2" data-name="cX"><path id="cW-2" data-name="cW" class="cls-1" d="M199.8,405.1A35.6,35.6,0,0,1,164,369.7v-.1a35.65,35.65,0,1,1,35.8,35.5Zm0-80.8c-25.3,0-45.8,20.3-45.8,45.3s20.5,45.3,45.8,45.3,45.8-20.3,45.8-45.3S225.1,324.3,199.8,324.3Z"/></g></g></mask><mask id="mask-105" x="214.6" y="384.8" width="71.3" height="71" maskUnits="userSpaceOnUse"><g transform="translate(50.6 50.6)"><g id="db"><path id="da" class="cls-1" d="M199.8,334.2A35.6,35.6,0,0,0,164,369.6v.1a35.65,35.65,0,1,0,35.8-35.5Z"/></g></g></mask><mask id="mask-107" x="200.5" y="370.8" width="99.8" height="99" maskUnits="userSpaceOnUse"><g transform="translate(50.6 50.6)"><g id="df"><path id="de" class="cls-1" d="M199.8,415c-25.3,0-45.8-20.3-45.8-45.3s20.5-45.3,45.8-45.3,45.8,20.3,45.8,45.3S225.1,415,199.8,415Zm0-94.8a49.6,49.6,0,0,0-49.9,49.3q0,.1,0,.2a49.7,49.7,0,0,0,49.9,49.5h0a49.6,49.6,0,0,0,49.9-49.3q0-.1,0-.2A49.6,49.6,0,0,0,200,320.2Z"/></g></g></mask><mask id="mask-109" x="185.4" y="351.3" width="133.5" height="148.9" maskUnits="userSpaceOnUse"><g transform="translate(50.6 50.6)"><g id="dj"><path id="di" class="cls-1" d="M240.4,300.7c5.6,13.7,5.6,29.4,5.6,45.6,0,43-19.2,77.9-46.4,77.9s-46.4-34.9-46.4-77.9c0-16,0-31.7,5.6-45.4l-24,16.8c0,102.6,22.9,131.9,64.9,131.9,40.2,0,68.6-29.3,68.6-131.9Z"/></g></g></mask><mask id="mask-111" x="146" y="203.4" width="75" height="94.4" maskUnits="userSpaceOnUse"><g transform="translate(50.6 50.6)"><g id="dn"><path id="dm" class="cls-1" d="M140.8,154.3,95.4,239.7l24.9,7.5,50.1-94.4Z"/></g></g></mask><mask id="mask-113" x="216.9" y="384.8" width="41.9" height="61" maskUnits="userSpaceOnUse"><g transform="translate(50.6 50.6)"><g id="dr"><path id="dq" class="cls-1" d="M199.8,334.2a39.45,39.45,0,0,0-7.7.8l-25.8,47a35.62,35.62,0,0,0,8.8,13.2l33.1-60.1A40,40,0,0,0,199.8,334.2Z"/></g></g></mask><mask id="mask-115" x="248" y="399" width="35.2" height="56.7" maskUnits="userSpaceOnUse"><g transform="translate(50.6 50.6)"><g id="dv"><path id="du" class="cls-1" d="M199.8,405.1a37.85,37.85,0,0,0,5.8-.5l27-49.1a38.5,38.5,0,0,0-4.1-7.1L197.4,405Z"/></g></g></mask></defs><title>Gimmer (GMR)</title><g class="cls-2"><g class="cls-3"><path class="cls-4" d="M-21,79.7H421V371.3H-21Z" transform="translate(50.6 50.6)"/></g></g><g class="cls-5"><g class="cls-3"><path class="cls-6" d="M-13.9,225.1H413.9V511.9H-13.9Z" transform="translate(50.6 50.6)"/></g></g><g class="cls-7"><g class="cls-3"><path class="cls-8" d="M-32.9,67.9H432.9V523.7H-32.9Z" transform="translate(50.6 50.6)"/></g></g><g class="cls-9"><g class="cls-3"><path class="cls-10" d="M23.5,248.7H257.2V494.6H23.5Z" transform="translate(50.6 50.6)"/></g></g><g class="cls-11"><g class="cls-3"><path class="cls-12" d="M149.4,248.7H376.6V494.6H149.4Z" transform="translate(50.6 50.6)"/></g></g><g class="cls-13"><g class="cls-3"><path class="cls-14" d="M23.5,254.4H197.6V486.1H23.5Z" transform="translate(50.6 50.6)"/></g></g><g class="cls-15"><g class="cls-3"><path class="cls-8" d="M19,240.9H257.5V494.7H19Z" transform="translate(50.6 50.6)"/></g></g><g class="cls-16"><g class="cls-3"><path class="cls-8" d="M142.9,240.9H381.4V494.7H142.9Z" transform="translate(50.6 50.6)"/></g></g><g class="cls-17"><g class="cls-3"><path class="cls-8" d="M68.5,253h263V508.8H68.5Z" transform="translate(50.6 50.6)"/></g></g><g class="cls-18"><g class="cls-3"><path class="cls-8" d="M-50.6,130H450.7V267H-50.6Z" transform="translate(50.6 50.6)"/></g></g><g class="cls-19"><g class="cls-3"><path class="cls-8" d="M262.47,290.18,293.52,94.13l144,22.81L406.47,313Z" transform="translate(50.6 50.6)"/></g></g><g class="cls-20"><g class="cls-3"><path class="cls-8" d="M264,99.8H430.9V311.5H264Z" transform="translate(50.6 50.6)"/></g></g><g class="cls-21"><g class="cls-3"><path class="cls-14" d="M-37.95,117.33l144.4-22.87,30.91,195.17L-7,312.5Z" transform="translate(50.6 50.6)"/></g></g><g class="cls-22"><g class="cls-3"><path class="cls-8" d="M-31.3,99.8H135.6V311.5H-31.3Z" transform="translate(50.6 50.6)"/></g></g><g class="cls-23"><g class="cls-3"><path class="cls-10" d="M-5.9,12.7H250.6V361.4H-5.9Z" transform="translate(50.6 50.6)"/></g></g><g class="cls-24"><g class="cls-3"><path class="cls-12" d="M149.4,12.7H405.9V361.4H149.4Z" transform="translate(50.6 50.6)"/></g></g><g class="cls-25"><g class="cls-3"><path class="cls-14" d="M7.4,13.3H250.5V176.6H7.4Z" transform="translate(50.6 50.6)"/></g></g><g class="cls-26"><g class="cls-3"><path class="cls-14" d="M-5.9,53.9H243.5V331.2H-5.9Z" transform="translate(50.6 50.6)"/></g></g><g class="cls-27"><g class="cls-3"><path class="cls-8" d="M-11.9,4.1H411.5V364.3H-11.9Z" transform="translate(50.6 50.6)"/></g></g><g class="cls-28"><g class="cls-3"><path class="cls-8" d="M142.1,54.4H257.8v165H142.1Z" transform="translate(50.6 50.6)"/></g></g><g class="cls-29"><g class="cls-3"><path class="cls-8" d="M142.1,230.8H257.8V361.5H142.1Z" transform="translate(50.6 50.6)"/></g></g><g class="cls-30"><g class="cls-3"><path class="cls-8" d="M149.3,13.3H392.4V176.6H149.3Z" transform="translate(50.6 50.6)"/></g></g><g class="cls-31"><g class="cls-3"><path class="cls-8" d="M123,26.4H277v121H123Z" transform="translate(50.6 50.6)"/></g></g><g class="cls-32"><g class="cls-3"><path class="cls-8" d="M166.7,24.9H288.9v124H166.7Z" transform="translate(50.6 50.6)"/></g></g><g class="cls-33"><g class="cls-34"><path class="cls-8" d="M140.9-28.1H259.1V137.5H140.9Z" transform="translate(50.6 50.6)"/></g></g><g class="cls-35"><g class="cls-36"><path class="cls-14" d="M144-25.2H252.8V134.7H144Z" transform="translate(50.6 50.6)"/></g></g><g class="cls-37"><g class="cls-3"><path class="cls-14" d="M129.9,30H254.7V143.7H129.9Z" transform="translate(50.6 50.6)"/></g></g><g class="cls-38"><g class="cls-39"><path class="cls-8" d="M126.6-50.6H273.3V95.7H126.6Z" transform="translate(50.6 50.6)"/></g></g><g class="cls-40"><g class="cls-3"><path class="cls-8" d="M.7,52.8H295.8V184.3H.7Z" transform="translate(50.6 50.6)"/></g></g><g class="cls-41"><g class="cls-3"><path class="cls-8" d="M236.4,62.5h162V182.9h-162Z" transform="translate(50.6 50.6)"/></g></g><g class="cls-42"><g class="cls-3"><path class="cls-10" d="M25.7,101.7H378.8V332.1H25.7Z" transform="translate(50.6 50.6)"/></g></g><g class="cls-43"><g class="cls-3"><path class="cls-8" d="M28.3,102.4H371.7V321.5H28.3Z" transform="translate(50.6 50.6)"/></g></g><g class="cls-44"><g class="cls-3"><path class="cls-8" d="M27.3,97.5H377.4V326.3H27.3Z" transform="translate(50.6 50.6)"/></g></g><g class="cls-45"><g class="cls-3"><path class="cls-8" d="M133.2,60.7H239.8V167.2H133.2Z" transform="translate(50.6 50.6)"/></g></g><g class="cls-46"><g class="cls-3"><path class="cls-8" d="M12.4,85.2H119V191.7H12.4Z" transform="translate(50.6 50.6)"/></g></g><g class="cls-47"><g class="cls-3"><path class="cls-8" d="M25,222.9H131.6V329.4H25Z" transform="translate(50.6 50.6)"/></g></g><g class="cls-48"><g class="cls-3"><path class="cls-8" d="M135.4,240.2H242V346.7H135.4Z" transform="translate(50.6 50.6)"/></g></g><g class="cls-49"><g class="cls-3"><path class="cls-8" d="M160.2,60.9H266.8V167.4H160.2Z" transform="translate(50.6 50.6)"/></g></g><g class="cls-50"><g class="cls-3"><path class="cls-8" d="M268.4,223H375V329.5H268.4Z" transform="translate(50.6 50.6)"/></g></g><g class="cls-51"><g class="cls-3"><path class="cls-8" d="M158,240.3H264.6V346.8H158Z" transform="translate(50.6 50.6)"/></g></g><g class="cls-52"><g class="cls-3"><path class="cls-8" d="M26.6,342.5H373.3V520.6H26.6Z" transform="translate(50.6 50.6)"/></g></g><g class="cls-53"><g class="cls-3"><path class="cls-8" d="M34.9,271H141.5V377.5H34.9Z" transform="translate(50.6 50.6)"/></g></g><g class="cls-54"><g class="cls-3"><path class="cls-8" d="M62.2,262.7H168.8V369.2H62.2Z" transform="translate(50.6 50.6)"/></g></g><g class="cls-55"><g class="cls-3"><path class="cls-8" d="M231.2,262.7H337.8V369.2H231.2Z" transform="translate(50.6 50.6)"/></g></g><g class="cls-56"><g class="cls-3"><path class="cls-8" d="M21.5,82.3H405.4V361.4H21.5Z" transform="translate(50.6 50.6)"/></g></g><g class="cls-57"><g class="cls-3"><path class="cls-8" d="M202.2,254.4H375.7V486.1H202.2Z" transform="translate(50.6 50.6)"/></g></g><g class="cls-58"><g class="cls-3"><path class="cls-8" d="M236.4,62.5H408.9V326.7H236.4Z" transform="translate(50.6 50.6)"/></g></g><g class="cls-59"><g class="cls-60"><path class="cls-14" d="M133.3-45.9H259.5V90.9H133.3Z" transform="translate(50.6 50.6)"/></g></g><g class="cls-61"><g class="cls-3"><path class="cls-4" d="M28.3,102.4h234V313.9H28.3Z" transform="translate(50.6 50.6)"/></g></g><g class="cls-62"><g class="cls-3"><path class="cls-4" d="M135.2,103.1h190V321.5h-190Z" transform="translate(50.6 50.6)"/></g></g><g class="cls-63"><g class="cls-3"><path class="cls-4" d="M185.3,106.4H358.1V311.5H185.3Z" transform="translate(50.6 50.6)"/></g></g><g class="cls-64"><g class="cls-3"><path class="cls-8" d="M103.4,273.7H296.2v192H103.4Z" transform="translate(50.6 50.6)"/></g></g><g class="cls-65"><g class="cls-3"><path class="cls-4" d="M113.4,283.5H286.2V455.7H113.4Z" transform="translate(50.6 50.6)"/></g></g><g class="cls-66"><g class="cls-3"><path class="cls-4" d="M99.3,269.5H300.4V469.7H99.3Z" transform="translate(50.6 50.6)"/></g></g><g class="cls-67"><g class="cls-3"><path class="cls-8" d="M84.1,250H318.8V500.1H84.1Z" transform="translate(50.6 50.6)"/></g></g><g class="cls-68"><g class="cls-3"><path class="cls-14" d="M44.8,102.3H221V297.9H44.8Z" transform="translate(50.6 50.6)"/></g></g><g class="cls-69"><g class="cls-3"><path class="cls-14" d="M115.7,283.5H258.8V445.8H115.7Z" transform="translate(50.6 50.6)"/></g></g><g class="cls-70"><g class="cls-3"><path class="cls-14" d="M146.7,297.8H283.2V455.7H146.7Z" transform="translate(50.6 50.6)"/></g></g></svg>