<svg version="1.1" id="Layer_1" xmlns="http://www.w3.org/2000/svg" xmlns:xlink="http://www.w3.org/1999/xlink" x="0" y="0" viewBox="0 0 128 128" xml:space="preserve" enable-background="new 0 0 128 128"><style type="text/css">.st0{fill:url(#SVGID_1_)}</style><linearGradient id="SVGID_1_" gradientUnits="userSpaceOnUse" x1="22.143" y1="106.038" x2="65.874" y2="62.307"><stop offset="0" stop-color="#F58020"/><stop offset=".025" stop-color="#F57D22"/><stop offset=".343" stop-color="#F15F41"/><stop offset=".623" stop-color="#EF4350"/><stop offset=".852" stop-color="#EE2C56"/><stop offset="1" stop-color="#EE2058"/></linearGradient><path class="st0" d="M123,39.1L123,39.1H94.5H64c-13.8,0-25,11.2-25,25c0,13.8,11.2,25,25,25c10.8,0,19.9-6.8,23.4-16.3H64	c-3.7,0-6.6-3-6.6-6.6v-0.8c0-3.7,3-6.6,6.6-6.6h24.4c0,0,0,0,0,0h14.6c0.3,1.8,0.4,3.6,0.4,5.5c0,21.8-17.7,39.4-39.4,39.4	S24.6,85.9,24.6,64.1S42.3,24.7,64,24.7l1.2-0.2c0.3,0.1,0.5,0.2,0.8,0.2c4.1,0,31.5,0,35,0c19.1,0,26.9-10.2,26.9-24.6H64	c-35.3,0-64,28.7-64,64c0,35.3,28.7,64,64,64c35.2,0,63.8-28.5,64-63.7l0,0V44.2C128,41.4,125.8,39.1,123,39.1z"/></svg>