<svg height="770" width="770" xmlns="http://www.w3.org/2000/svg"><path d="M267.16 19.23c33.34-10.5 68-17.08 102.96-18.17 48.01-2.18 96.29 5.57 141.73 21.15 73.54 25.76 138.93 74.38 184.39 137.7 10.61 14.06 19.51 29.31 28.07 44.67 10.05 19.46 19.01 39.56 25.79 60.41 9 28.65 15.67 58.18 17.77 88.19 1.11 6.49.38 13.13 1.27 19.65.31 8.11.25 16.24.03 24.35-.9 6.52-.22 13.15-1.3 19.64-1.89 27.03-7.5 53.7-15.16 79.67-6.19 21.54-15.11 42.17-24.95 62.27-37.47 73.76-99.22 134.95-173.61 171.24-20.94 10.17-42.65 18.87-65.17 24.85-37.67 10.79-76.99 15.39-116.11 14.32-6.52-.89-13.16-.22-19.65-1.31-29.26-2.03-58.09-8.4-86.06-17.09-73.84-23.65-139.93-70.47-187.04-132.02-24.5-31.84-43.82-67.59-57.38-105.4-12.51-36.42-20.52-74.59-21.58-113.14-1.33-18.54.09-37.15 1.64-55.62 2.84-27.34 9.04-54.26 17.37-80.43C45.35 188.21 94.84 120.51 159.83 73.8c14.09-10.6 29.34-19.56 44.74-28.12 20.13-10.4 40.94-19.66 62.59-26.45zm74.09 138.84c.01 29.98-.01 59.95.01 89.92-.23 1.59 1.28 2.48 2.15 3.57 13.79 14.48 27.67 28.9 41.48 43.37-.13-45.63-.11-91.26.02-136.89-14.55.07-29.11.01-43.66.03zm-189.59 46.54c3.29 2.21 5.71 5.4 8.52 8.15 29.67 30.04 59.54 59.9 89.08 90.07 27.07 27.4 54.28 54.67 81.28 82.14-32.71 33.47-65.97 66.42-98.65 99.93-26.07 26.29-52.18 52.56-78.17 78.91-.52.4-1.54 1.18-2.05 1.58 38.45-.01 76.91.09 115.36-.16 39.34-41.11 78.82-82.08 118.01-123.31 39.33 41.11 78.68 82.21 118.05 123.29 38.41.3 76.83.14 115.24.18-5.86-4.65-10.54-10.62-16.01-15.72-27.54-27.85-55.21-55.58-82.63-83.54-26.61-27.13-53.71-53.79-80.06-81.17 6.37-6.42 12.44-13.13 18.96-19.4 50.31-50.68 100.37-101.6 150.7-152.26 3.02-2.89 5.55-6.33 9.05-8.69-38.45.04-76.89-.09-115.33.06-39.27 41.12-78.68 82.1-117.95 123.21-39.21-41.18-78.67-82.16-118-123.25-38.46-.06-76.93-.01-115.4-.02zm233.52 270.04c-.05 45.77.09 91.54-.09 137.31 14.58-.07 29.16-.02 43.74-.03-.03-30 .03-60-.02-90 .09-1.07-.26-1.96-1.05-2.64-7.36-7.97-15.22-15.45-22.48-23.52-6.59-7.14-13.72-13.78-20.1-21.12z"/></svg>