<svg xmlns="http://www.w3.org/2000/svg" xmlns:xlink="http://www.w3.org/1999/xlink" width="973.07" height="1178.39" viewBox="0 0 973.07 1178.39" overflow="visible" enable-background="new 0 0 973.07 1178.39" xml:space="preserve"><metadata><variableSets xmlns="http://ns.adobe.com/Variables/1.0/"><variableSet varSetName="binding1" locked="none"><variables/><v:sampleDataSets xmlns="http://ns.adobe.com/GenericCustomNamespace/1.0/" xmlns:v="http://ns.adobe.com/Variables/1.0/"/></variableSet></variableSets><sfw xmlns="http://ns.adobe.com/SaveForWeb/1.0/"><slices/><sliceSourceBounds y="0" x="0" width="973.07" height="1178.39" bottomLeftOrigin="true"/></sfw></metadata><switch><g><g id="Vrstva_1"><g><defs><path id="XMLID_1_" d="M0,0h973.07v1178.39H0V0z"/></defs><clipPath id="XMLID_2_"><use xlink:href="#XMLID_1_"/></clipPath><path clip-path="url(#XMLID_2_)" fill="#8F4C21" d="M853.256,42.293L596.587,300h0.482v852l243.252-167.015 c35.509-24.877,56.652-65.507,56.652-108.861V60.401C896.974,37.586,869.389,26.16,853.256,42.293"/><path clip-path="url(#XMLID_2_)" fill="#B97929" d="M391.07,300L134.402,42.293 c-16.133-16.133-43.718-4.707-43.718,18.108v815.724c0,43.354,21.144,83.984,56.651,108.861l243.735,166.666V300z"/><path clip-path="url(#XMLID_2_)" fill="#111312" d="M200.188,844.166c0,0,0-216.926-47.952-253.46 c-10.979-4.99-33.166,1.962-55.689,14.421c-28.269,19.626-55.201,57.606-53.916,118.018 c0.945,44.391,28.065,72.765,59.544,90.777C138.612,831.375,200.188,844.166,200.188,844.166"/><path clip-path="url(#XMLID_2_)" fill="#A35E24" d="M90.684,365.251v22.569L391.07,300l-16.073-16.138 L90.684,365.251z"/><path clip-path="url(#XMLID_2_)" fill="#7A411C" d="M199.155,834.151c0,0,0-199.917-58.093-233.587 c-9.45-3.268-26.106-1.333-44.495,4.554c23.405-15.905,47.844-21.242,59.562-16.123c50.57,37.032,50.57,256.91,50.57,256.91 s-57.179-5.532-104.458-31.946C150.449,830.201,199.155,834.151,199.155,834.151"/><path clip-path="url(#XMLID_2_)" fill="#111312" d="M787.47,844.166c0,0,0-216.926,47.952-253.46 c10.979-4.99,33.164,1.962,55.688,14.421c28.269,19.626,55.201,57.606,53.916,118.018 c-0.945,44.391-28.065,72.765-59.544,90.777C849.045,831.375,787.47,844.166,787.47,844.166"/><path clip-path="url(#XMLID_2_)" fill="#5C3115" d="M896.974,365.251v22.569L596.586,300l16.074-16.138 L896.974,365.251z"/><path clip-path="url(#XMLID_2_)" fill="#5C3115" d="M788.503,834.151c0,0,0-199.917,58.093-233.587 c9.45-3.268,26.104-1.333,44.495,4.554c-23.406-15.905-47.845-21.242-59.563-16.123 c-50.568,37.032-50.568,256.91-50.568,256.91s57.179-5.532,104.457-31.946C837.208,830.201,788.503,834.151,788.503,834.151"/><path clip-path="url(#XMLID_2_)" fill="#A65F25" d="M597.07,1152h-206V300h206V1152z"/><path clip-path="url(#XMLID_2_)" fill="#B86A29" d="M134.402,42.293 c-16.133-16.133-43.718-4.707-43.718,18.108v304.85l284.313-81.389L134.402,42.293z"/><path clip-path="url(#XMLID_2_)" fill="#7A411C" d="M853.256,42.293L612.659,283.862l284.314,81.389V60.401 C896.974,37.586,869.389,26.16,853.256,42.293"/><path clip-path="url(#XMLID_2_)" fill="#7A411C" d="M412.16,1152h-21.09V300h21.09V1152z"/><path clip-path="url(#XMLID_2_)" fill="#B97929" d="M597.07,1152h-21.09V300h21.09V1152z"/><path clip-path="url(#XMLID_2_)" fill="#B86A29" d="M391.07,914.867h206V588.729h-206V914.867z"/><path clip-path="url(#XMLID_2_)" fill="#B97929" d="M575.98,567.674H391.07v21.055H575.98V567.674z"/><path clip-path="url(#XMLID_2_)" fill="#7A411C" d="M412.16,935.729h184.91v-20.861H412.16V935.729z"/></g></g></g></switch></svg>