<svg id="Слой_1" data-name="Слой 1" xmlns="http://www.w3.org/2000/svg" viewBox="0 0 238.6 368.63"><defs><style>.cls-1{fill:#c7cce6}</style></defs><title>logo.aeb4723</title><g id="Symbols"><g id="导航0604"><g id="Group"><path id="Fill-3" class="cls-1" d="M206.81,124.51c0-52.93-25.61-98.45-45.09-113.27-.08,0-1.49-.84-1.37,1.27,0,0,0,0,0,.06-1.62,102.2-53.48,129.89-82,167.2-65.79,86.1-4.6,180.5,57.7,197.95,34.86,9.76-8.05-17.27-13.58-74.38-6.68-69,84.35-121.7,84.35-178.84" transform="translate(-50 -11.06)"/><path id="Fill-5" class="cls-1" d="M241,159.3a.94.94,0,0,0-1.45.19c-1.15,12.87-15.08,40.38-32.73,65.65-59.89,85.71-25.76,127-6.57,149.22,11.14,12.88,0,0,27.85-13.17,2.19-1,54.34-28.62,60-91.49,5.47-60.88-33.29-99.25-47.09-110.4" transform="translate(-50 -11.06)"/></g></g></g></svg>