<svg xmlns="http://www.w3.org/2000/svg" xmlns:xlink="http://www.w3.org/1999/xlink" viewBox="0 0 1000 1000"><defs><style>.a{fill:none;}.b{clip-path:url(#a);}.c{clip-path:url(#b);}.d{fill:#b3b4b4;}.e{fill:#0cafa5;}</style><clipPath id="a"><rect class="a" x="212.9" y="100" width="574.2" height="800"/></clipPath><clipPath id="b"><rect class="a" x="212.9" y="100" width="574.2" height="800"/></clipPath></defs><title>IOP Logo</title><g class="b"><g class="c"><path class="d" d="M229.73,291.23c-1.19-.68-2.16-.13-2.16,1.25v82a4.78,4.78,0,0,0,2.16,3.75l103.66,59.92a4.78,4.78,0,0,1,2.16,3.75V738.63a4.82,4.82,0,0,0,2.17,3.75l71,41c1.19.68,2.16.13,2.16-1.25V398.41a4.78,4.78,0,0,0-2.16-3.75Z"/><path class="d" d="M770.27,291.23c1.19-.68,2.17-.13,2.17,1.25v82a4.79,4.79,0,0,1-2.17,3.75L666.62,438.11a4.79,4.79,0,0,0-2.17,3.75V738.63a4.81,4.81,0,0,1-2.16,3.75l-71,41c-1.18.68-2.16.13-2.16-1.25V398.41a4.81,4.81,0,0,1,2.16-3.75Z"/><path class="e" d="M784.32,133.93c0-1.37-1-1.94-2.16-1.24l-280,161.93a4.77,4.77,0,0,1-4.32,0l-280-161.93c-1.19-.7-2.17-.13-2.17,1.24v82a4.79,4.79,0,0,0,2.17,3.75L460.19,359.82a4.81,4.81,0,0,1,2.16,3.75v508.9a4.79,4.79,0,0,0,2.17,3.75l33.31,19.24a4.85,4.85,0,0,0,4.33,0l33.32-19.24a4.79,4.79,0,0,0,2.17-3.75V363.57a4.81,4.81,0,0,1,2.16-3.75L782.16,219.66a4.78,4.78,0,0,0,2.16-3.75ZM500,339.61c-.08,0-.11-.06-.07-.13s.1-.07.14,0,0,.13-.07.13"/><path class="e" d="M464.81,123.19a3.13,3.13,0,0,0-2.46,3V228.54a4.82,4.82,0,0,0,2.17,3.75l33.31,19.23a4.79,4.79,0,0,0,4.33,0l33.31-19.23a4.8,4.8,0,0,0,2.17-3.75V126.15a3.13,3.13,0,0,0-2.46-3l-32.73-6a16.23,16.23,0,0,0-4.92,0Z"/></g></g></svg>