<svg id="Слой_1" data-name="Слой 1" xmlns="http://www.w3.org/2000/svg" xmlns:xlink="http://www.w3.org/1999/xlink" viewBox="0 0 368.82 348.59"><defs><style>.cls-1{fill:url(#Безымянный_градиент_6)}.cls-10,.cls-12,.cls-2,.cls-21{opacity:.9}.cls-10,.cls-11,.cls-12,.cls-13,.cls-14,.cls-15,.cls-16,.cls-17,.cls-18,.cls-2,.cls-20,.cls-21,.cls-22,.cls-23,.cls-3,.cls-4,.cls-5,.cls-7,.cls-8,.cls-9{isolation:isolate}.cls-2{fill:url(#Безымянный_градиент_7)}.cls-13,.cls-3,.cls-4,.cls-5{opacity:.8}.cls-3{fill:url(#Безымянный_градиент_8)}.cls-4{fill:url(#Безымянный_градиент_9)}.cls-5{fill:url(#Безымянный_градиент_10)}.cls-6{fill:url(#Безымянный_градиент_11)}.cls-23,.cls-7{opacity:.4}.cls-7{fill:url(#Безымянный_градиент_12)}.cls-8{opacity:.2;fill:url(#Безымянный_градиент_13)}.cls-9{opacity:.3;fill:url(#Безымянный_градиент_14)}.cls-10{fill:url(#Безымянный_градиент_15)}.cls-11,.cls-22{opacity:.7}.cls-11{fill:url(#Безымянный_градиент_16)}.cls-12{fill:url(#Безымянный_градиент_17)}.cls-13{fill:url(#Безымянный_градиент_18)}.cls-14,.cls-15,.cls-17{opacity:.6}.cls-14{fill:url(#Безымянный_градиент_19)}.cls-15{fill:url(#Безымянный_градиент_20)}.cls-16,.cls-20{opacity:.95}.cls-16{fill:url(#Безымянный_градиент_21)}.cls-17{fill:url(#Безымянный_градиент_22)}.cls-18{opacity:.55;fill:url(#Безымянный_градиент_23)}.cls-19{fill:url(#Безымянный_градиент_24)}.cls-20{fill:url(#Безымянный_градиент_25)}.cls-21{fill:url(#Безымянный_градиент_26)}.cls-22{fill:url(#Безымянный_градиент_27)}.cls-23{fill:url(#Безымянный_градиент_28)}.cls-24{fill:url(#Безымянный_градиент_29)}</style><linearGradient id="Безымянный_градиент_6" x1="-2.5" y1="718.11" x2="3.25" y2="715.22" gradientTransform="matrix(72.82, 0, 0, -83.88, 213.18, 60167.54)" gradientUnits="userSpaceOnUse"><stop offset="0" stop-color="#00dc9c"/><stop offset="1" stop-color="#00d3dc"/></linearGradient><linearGradient id="Безымянный_градиент_7" x1="-3.5" y1="718.61" x2="2.25" y2="715.72" gradientTransform="matrix(72.82, 0, 0, -83.88, 286, 60209.53)" xlink:href="#Безымянный_градиент_6"/><linearGradient id="Безымянный_градиент_8" x1="-3.03" y1="718.37" x2="2.72" y2="715.49" gradientTransform="matrix(72.82, 0, 0, -83.88, 213.18, 60251.42)" xlink:href="#Безымянный_градиент_6"/><linearGradient id="Безымянный_градиент_9" x1="-4.03" y1="718.87" x2="1.72" y2="715.99" gradientTransform="matrix(72.82, 0, 0, -83.88, 286, 60293.42)" xlink:href="#Безымянный_градиент_6"/><linearGradient id="Безымянный_градиент_10" x1="-3.56" y1="718.64" x2="2.19" y2="715.76" gradientTransform="matrix(72.82, 0, 0, -83.88, 213.18, 60335.3)" xlink:href="#Безымянный_градиент_6"/><linearGradient id="Безымянный_градиент_11" x1="-4.56" y1="719.14" x2="1.19" y2="716.26" gradientTransform="matrix(72.82, 0, 0, -83.88, 286, 60377.3)" xlink:href="#Безымянный_градиент_6"/><linearGradient id="Безымянный_градиент_12" x1="-.93" y1="717.32" x2="4.82" y2="714.44" gradientTransform="matrix(72.82, 0, 0, -83.88, 24.94, 60248.59)" xlink:href="#Безымянный_градиент_6"/><linearGradient id="Безымянный_градиент_13" x1="-1.9" y1="717.8" x2="3.86" y2="714.92" gradientTransform="matrix(72.71, 0, 0, -83.88, 116.82, 60279.77)" xlink:href="#Безымянный_градиент_6"/><linearGradient id="Безымянный_градиент_14" x1="-2.1" y1="717.9" x2="3.66" y2="715.02" gradientTransform="matrix(72.82, 0, 0, -83.88, 62.82, 60332.83)" xlink:href="#Безымянный_градиент_6"/><linearGradient id="Безымянный_градиент_15" x1="-2.84" y1="718.28" x2="2.92" y2="715.39" gradientTransform="matrix(72.71, 0, 0, -83.88, 110.82, 60396.12)" xlink:href="#Безымянный_градиент_6"/><linearGradient id="Безымянный_градиент_16" x1="-4.21" y1="718.96" x2="1.55" y2="716.08" gradientTransform="matrix(72.71, 0, 0, -83.88, 212.59, 60432.25)" xlink:href="#Безымянный_градиент_6"/><linearGradient id="Безымянный_градиент_17" x1="-2.11" y1="717.91" x2="3.65" y2="715.03" gradientTransform="matrix(72.71, 0, 0, -83.88, 128.94, 60238.36)" xlink:href="#Безымянный_градиент_6"/><linearGradient id="Безымянный_градиент_18" x1="-1.53" y1="718.12" x2="4.22" y2="715.24" gradientTransform="matrix(72.82, 0, 0, -83.88, 140.35, 60167.54)" xlink:href="#Безымянный_градиент_6"/><linearGradient id="Безымянный_градиент_19" x1="-.85" y1="717.78" x2="4.9" y2="714.9" gradientTransform="matrix(72.82, 0, 0, -83.88, 56.12, 60203.19)" xlink:href="#Безымянный_градиент_6"/><linearGradient id="Безымянный_градиент_20" x1="-1.92" y1="718.31" x2="3.84" y2="715.43" gradientTransform="matrix(72.82, 0, 0, -83.88, 128.94, 60244.72)" xlink:href="#Безымянный_градиент_6"/><linearGradient id="Безымянный_градиент_21" x1="-1.11" y1="717.91" x2="4.65" y2="715.03" gradientTransform="matrix(72.82, 0, 0, -83.88, 43.65, 60279.77)" xlink:href="#Безымянный_градиент_6"/><linearGradient id="Безымянный_градиент_22" x1="-2.6" y1="718.65" x2="3.16" y2="715.77" gradientTransform="matrix(72.71, 0, 0, -83.88, 140.47, 60335.3)" xlink:href="#Безымянный_градиент_6"/><linearGradient id="Безымянный_градиент_23" x1="-.89" y1="717.8" x2="4.87" y2="714.92" gradientTransform="matrix(72.82, 0, 0, -83.88, -10, 60354.83)" xlink:href="#Безымянный_градиент_6"/><linearGradient id="Безымянный_градиент_24" x1="-3.53" y1="719.12" x2="2.22" y2="716.24" gradientTransform="matrix(72.82, 0, 0, -83.88, 286, 60251.42)" xlink:href="#Безымянный_градиент_6"/><linearGradient id="Безымянный_градиент_25" x1="-3.06" y1="718.89" x2="2.69" y2="716.01" gradientTransform="matrix(72.82, 0, 0, -83.88, 213.18, 60293.42)" xlink:href="#Безымянный_градиент_6"/><linearGradient id="Безымянный_градиент_26" x1="-4.06" y1="719.39" x2="1.69" y2="716.51" gradientTransform="matrix(72.82, 0, 0, -83.88, 286, 60335.3)" xlink:href="#Безымянный_градиент_6"/><linearGradient id="Безымянный_градиент_27" x1="-3.59" y1="719.15" x2="2.16" y2="716.27" gradientTransform="matrix(72.82, 0, 0, -83.88, 213.18, 60377.3)" xlink:href="#Безымянный_градиент_6"/><linearGradient id="Безымянный_градиент_28" x1="-2.85" y1="718.78" x2="2.9" y2="715.9" gradientTransform="matrix(72.82, 0, 0, -83.88, 124.23, 60412.25)" xlink:href="#Безымянный_градиент_6"/><linearGradient id="Безымянный_градиент_29" x1="-2.53" y1="718.62" x2="3.22" y2="715.74" gradientTransform="matrix(72.82, 0, 0, -83.88, 213.18, 60209.53)" xlink:href="#Безымянный_градиент_6"/></defs><title>IoTeX (IOTX)</title><g id="Page-1"><g id="logo_iotex_color" data-name="logo iotex color"><g id="Group"><g id="Shape"><polygon class="cls-1" points="223.18 0 223.18 83.88 296 42 223.18 0"/><polygon class="cls-2" points="296 42 296 125.88 368.82 83.88 296 42"/><polygon class="cls-3" points="223.18 83.88 223.18 167.76 296 125.88 223.18 83.88"/><polygon class="cls-4" points="296 125.88 296 209.76 368.82 167.76 296 125.88"/><polygon class="cls-5" points="223.18 167.76 223.18 251.65 296 209.76 223.18 167.76"/><polygon class="cls-6" points="296 209.76 296 293.65 368.82 251.65 296 209.76"/><polygon class="cls-7" points="34.94 81.06 34.94 164.94 107.77 122.94 34.94 81.06"/><polygon class="cls-8" points="126.82 112.23 126.82 196.12 199.53 154.24 126.82 112.23"/><polygon class="cls-9" points="72.82 165.29 72.82 249.18 145.65 207.18 72.82 165.29"/><polygon class="cls-10" points="120.82 228.59 120.82 312.47 193.53 270.47 120.82 228.59"/><polygon class="cls-11" points="222.59 264.71 222.59 348.59 295.29 306.59 222.59 264.71"/><polygon class="cls-12" points="138.94 70.82 138.94 154.71 211.65 112.82 138.94 70.82"/><polygon class="cls-13" points="223.18 0 223.18 83.88 150.35 42 223.18 0"/><polygon class="cls-14" points="138.94 35.65 138.94 119.53 66.12 77.53 138.94 35.65"/><polygon class="cls-15" points="211.76 77.18 211.76 161.06 138.94 119.06 211.76 77.18"/><polygon class="cls-16" points="126.47 112.23 126.47 196.12 53.65 154.24 126.47 112.23"/><polygon class="cls-17" points="223.18 167.76 223.18 251.65 150.47 209.76 223.18 167.76"/><polygon class="cls-18" points="72.82 187.29 72.82 271.18 0 229.18 72.82 187.29"/><polygon class="cls-19" points="368.82 83.88 368.82 167.76 296 125.88 368.82 83.88"/><polygon class="cls-20" points="296 125.88 296 209.76 223.18 167.76 296 125.88"/><polygon class="cls-21" points="368.82 167.76 368.82 251.65 296 209.76 368.82 167.76"/><polygon class="cls-22" points="296 209.76 296 293.65 223.18 251.65 296 209.76"/><polygon class="cls-23" points="207.06 244.71 207.06 328.59 134.24 286.71 207.06 244.71"/><polygon class="cls-24" points="296 42 296 125.88 223.18 83.88 296 42"/></g></g></g></g></svg>