<?xml version="1.0" encoding="UTF-8"?>
<svg width="40px" height="40px" viewBox="0 0 40 40" version="1.1" xmlns="http://www.w3.org/2000/svg" xmlns:xlink="http://www.w3.org/1999/xlink">
    <title>klown</title>
    <g id="klown" stroke="none" stroke-width="1" fill="none" fill-rule="evenodd">
        <g id="Group" fill-rule="nonzero">
            <path d="M28.5757373,18.9311594 C28.6334927,18.9311594 28.7682554,18.9889148 28.8837662,19.0595048 C29.2046296,19.2520228 29.3714786,19.6434762 29.3393923,20.1119368 C29.3201404,20.4328002 29.2431332,20.6509873 28.9222698,21.3055487 C28.7040827,21.7483402 28.2933775,22.4927433 28.0110177,22.9612039 C27.5297226,23.7569451 27.2987009,24.1740676 27.2987009,24.2382403 C27.2987009,24.2574921 27.6259816,23.9622977 28.0238523,23.5836789 C28.7746726,22.8777794 29.3008886,22.5440814 29.5383276,22.6210887 C29.859191,22.723765 29.95545,23.3334054 29.7436802,23.9430459 C29.6217521,24.3088302 29.2944714,24.9698089 28.9671907,25.5281112 C28.736169,25.90673 28.7618381,25.9131473 29.3458095,25.5601975 C30.0067882,25.1623269 30.4303279,25.117406 30.6613495,25.4318522 C30.9180402,25.7783847 30.8731194,26.8308167 30.5586732,27.7420688 C30.4880833,27.9474213 30.4495797,28.1335221 30.4688315,28.1527739 C30.4880833,28.1720257 30.6870186,28.107853 30.9052057,28.011594 C31.1298101,27.9089177 31.4635081,27.7934069 31.6560261,27.748486 C32.3041702,27.5944716 32.5801127,27.8704141 32.7020408,28.7880835 C32.8111344,29.5838247 32.5095228,30.2448034 31.9576377,30.4437387 C31.8613787,30.475825 31.8485442,30.4629905 31.8806305,30.3410624 C31.9062996,30.2576379 31.9383859,30.1100407 31.964055,30.0073645 C31.9961413,29.8405155 31.9897241,29.8340982 31.8742132,29.8982709 C31.6881124,29.9945299 31.4763426,30.379566 31.3993354,30.7646021 C31.1683137,31.9068759 30.8795366,32.4715955 30.122299,33.2416677 C29.2880541,34.0887471 28.4217229,34.659884 27.0740965,35.2631072 C26.4452043,35.545467 25.5596212,36.1037693 24.6162828,36.8160861 L24.6162828,36.8160861 L24.3403403,37.027856 L23.7948725,36.527309 L23.5823896,36.3394829 C23.0145009,35.8515945 22.4415419,35.4713119 21.9852028,35.2887763 C21.7862675,35.211769 21.606584,35.1347618 21.5937494,35.1283445 C21.5809149,35.11551 21.6900085,34.9743301 21.8376056,34.8074811 C21.9852028,34.6342149 22.1263827,34.3903587 22.1648863,34.2427615 C22.2547281,33.8898118 22.3060662,33.8063873 22.5050015,33.6908765 C22.7360232,33.5625311 23.1082247,33.6652074 23.9938078,34.1079989 C24.3852611,34.3005169 24.7189591,34.4609486 24.7510454,34.4609486 C24.8216354,34.4609486 24.8088008,34.2748479 24.7189591,34.0374089 C24.6530751,33.8577254 24.6710435,33.7451238 24.913736,33.010897 L24.913736,33.010897 L24.9692325,32.843797 C25.3606859,31.6758542 25.4633622,31.2523145 25.386355,31.1753073 C25.290096,31.0790483 25.2130887,31.2330627 24.76388,32.3753365 C24.526441,32.9721424 24.3210885,33.4791066 24.3082539,33.4919411 C24.2890021,33.5111929 24.1478222,33.4598548 23.9873905,33.3828476 C23.7242825,33.2545022 23.6986134,33.2159986 23.7306998,33.0748187 C23.9168005,32.3304156 24.0258941,30.6490913 23.9103833,30.2383861 C23.8269588,29.949609 23.737117,30.0715371 23.6601098,30.5785013 C23.4932608,31.6566024 23.3071601,32.5100991 23.2301528,32.5871063 C23.1595629,32.6576963 23.114642,32.6384445 22.9734621,32.4715955 L22.9734621,32.4715955 L22.8066131,32.2662429 L22.8066131,26.2340107 L24.2312467,24.398672 L24.4485048,24.1182174 C26.7870681,21.0992524 27.4489405,20.2397159 27.9596796,19.5857208 C28.2420394,19.2263537 28.5179819,18.9311594 28.5757373,18.9311594 Z M16.081316,28.0565149 C16.6909565,27.4789608 16.8257191,27.4276226 17.0374889,27.7228169 C17.1979207,27.9410041 17.2877624,28.4543855 17.2877624,29.1538678 L17.2877624,29.1538678 L17.2877624,29.7314219 L17.5829568,30.0458681 L17.6636182,30.1352642 C17.797757,30.2925764 17.9252111,30.4833119 17.9679928,30.5849186 C18.0642519,30.8223575 18.1027555,31.7336096 18.0257483,32.0416385 C18.0000792,32.1443148 18.0642519,32.3368328 18.2375181,32.6705308 C19.4247127,34.9422438 19.6685689,35.4363734 19.6364826,35.474877 L19.6364826,35.474877 L19.6080926,35.481859 L19.5572165,35.4799082 C19.4968428,35.4735936 19.4105948,35.4543418 19.3220365,35.4235389 C19.0460939,35.3336971 18.7188132,35.3208626 17.5572877,35.3529489 C16.8578054,35.3722007 16.440683,35.2566899 16.4021794,35.0320855 C16.3829276,34.9422438 16.6460356,34.5251213 17.1979207,33.7614664 C17.3647696,33.5304447 17.3840214,33.3956821 17.2877624,33.2416677 C17.2428415,33.1646605 17.0182371,33.1389914 16.1968268,33.1133223 C14.8235314,33.0684014 14.7786105,32.9913942 15.747618,32.2598256 C16.1519059,31.9517967 16.6267838,31.4640844 16.6845392,31.2972354 C16.703791,31.2330627 16.6717047,31.1111346 16.6139492,31.0212928 L16.6139492,31.0212928 L16.5048557,30.8544439 L15.7219489,30.8993647 L15.5637281,30.9080349 C14.655758,30.9511473 14.4871314,30.8314768 14.7850278,30.4180696 C14.8556177,30.3218106 14.8941213,30.2255516 14.8684523,30.1998825 C14.8492005,30.1806307 14.4705816,30.1613789 14.0406247,30.1613789 C13.3026388,30.1613789 12.6352429,30.0779544 12.5197321,29.9752781 C12.494063,29.949609 12.8085091,29.8212637 13.2256316,29.6929183 C13.9379484,29.4747312 14.8941213,29.0383569 15.3304956,28.7303281 C15.4331719,28.6533208 15.7732871,28.3517092 16.081316,28.0565149 Z M18.4618217,22.5286399 L18.474957,22.5312469 C18.4877916,22.5504987 18.5583815,23.1216356 18.6353888,23.8082833 C18.7059787,24.494931 18.7637341,25.1238233 18.7637341,25.2008305 C18.7637341,25.284255 18.7894032,25.3484277 18.8214895,25.3484277 C18.8535759,25.3484277 19.0460939,25.0917369 19.2514465,24.7708735 C19.4632164,24.4564274 19.6493171,24.1933194 19.6685689,24.1933194 C19.7199071,24.1933194 19.7519934,24.4371756 19.9252597,26.2596798 C20.0086842,27.1003419 20.0921087,27.7869896 20.1113605,27.7869896 C20.1306123,27.7869896 20.2332886,27.4276226 20.3295476,26.9848311 C20.4322239,26.5420396 20.5349002,26.1826726 20.5605692,26.1826726 C20.5990728,26.1826726 22.3638216,31.2908181 22.3574218,31.3934944 C22.3574218,31.5346743 22.2033899,31.3678253 21.5873322,30.5720841 C21.2151306,30.0843717 20.8621808,29.6351629 20.8044254,29.5581557 L20.8044254,29.5581557 L20.6889146,29.423393 L20.5156484,29.6159111 L20.4675095,29.6706356 C20.3531212,29.8001784 20.1370295,30.0422011 19.9445115,30.2512207 L19.9445115,30.2512207 L19.5402236,30.6940122 L19.5081372,30.475825 L19.5037175,30.4436651 C19.4776552,30.2372581 19.3934286,29.3600225 19.3092019,28.4094647 C19.2257774,27.389119 19.1359357,26.529205 19.1102666,26.4971187 C19.0910148,26.4650324 18.8471586,26.6447159 18.5647988,26.9014066 C18.282439,27.1580973 18.0257483,27.3827017 17.9872447,27.389119 C17.948741,27.4019535 17.9423238,27.3121118 17.9615756,27.1645146 C18.0064965,26.8372339 18.4428707,22.7173477 18.4428707,22.5954196 C18.4428707,22.5440814 18.4557052,22.5184124 18.474957,22.5312469 Z M10.22235,18.9889148 C10.6843933,18.9311594 11.6405663,18.9824975 12.0833578,19.1044256 C12.5710702,19.2263537 13.116538,19.4573754 13.5529123,19.7076489 C13.9828692,19.9643396 15.0417185,20.9846852 15.2021502,21.3055487 C15.3304956,21.5622394 15.3946683,21.5943257 14.6181788,21.0039371 C14.0662937,20.5803973 13.2320489,20.1440231 12.6031566,19.9450878 C12.1924514,19.8167424 11.9870988,19.7974906 11.2234439,19.7974906 L11.0346321,19.7979585 C10.3891099,19.8016351 10.2351846,19.829577 9.81164486,19.9707569 C6.87895325,20.9654334 5.39656428,24.6938663 6.9302914,27.2158528 C7.38591745,27.9730904 8.11748603,28.6469036 9.10574535,29.2180405 C9.66404769,29.5453211 9.61912681,29.5966593 8.9324791,29.423393 C7.66827725,29.0896951 6.70568701,28.3067884 6.11529833,27.1131765 C5.76234857,26.3944424 5.60833413,25.7270465 5.56341325,24.7708735 C5.49924057,23.2243119 5.90352847,21.9986136 6.86611871,20.8306708 C7.62977364,19.9001669 8.98381725,19.1621811 10.22235,18.9889148 Z M7.8607953,23.9879668 C7.95705432,23.6927725 7.96988886,23.7120243 8.21374505,24.3922547 C8.64370203,25.5858666 9.47794691,26.9142411 10.3956163,27.8575796 C10.6202207,28.0950185 10.8063214,28.3067884 10.8063214,28.3324574 C10.8063214,28.4351337 10.2993572,28.3067884 9.81806213,28.0886012 C8.6501193,27.5431334 7.96347159,26.4072769 7.81587442,24.7452045 C7.79020535,24.398672 7.79662262,24.1676503 7.8607953,23.9879668 Z M13.2448834,14.4069853 C14.0534592,14.2850572 14.0919628,14.2978917 13.5657468,14.5417479 C13.3026388,14.663676 13.0459481,14.7791868 13.0010272,14.8112732 C12.7635883,14.9396185 12.9881927,14.9845394 13.9957038,15.0166257 C15.1700639,15.0487121 15.1764811,15.0551294 15.0802221,15.4401654 C15.0417185,15.5941799 15.028884,15.5941799 14.3165672,15.5941799 C13.9251138,15.6005972 13.3732288,15.6391008 13.090869,15.6904389 C12.590322,15.7802807 11.8651707,16.0818923 11.8651707,16.2038204 C11.8651707,16.2359067 12.1667823,16.3000794 12.5389839,16.3450003 C13.6812576,16.4797629 14.791445,16.7813745 15.5615172,17.1664106 C15.8631289,17.3268423 16.0235606,17.5321949 16.6267838,18.5782096 C18.2503527,21.3825559 18.4942088,21.7804265 19.0781803,22.556916 C19.8225834,23.5451753 20.6247419,24.4435929 21.4974904,25.2714205 L21.4974904,25.2714205 L22.2932317,26.0222409 L22.2932317,26.8693203 L22.2924744,27.0072594 C22.2879695,27.4124137 22.2637122,27.7318011 22.229059,27.7549033 C22.1648863,27.7934069 22.2033899,27.8575796 21.3306414,26.3751906 C20.6632455,25.2521687 20.1691159,24.4885137 19.2706983,23.2307291 C19.0075903,22.8585276 18.7701514,22.5055778 18.7444823,22.4414051 L18.7236262,22.3998934 C18.697155,22.3607882 18.6562449,22.3307073 18.6225542,22.3258943 C18.5776333,22.3258943 18.3658635,22.1205417 18.1540936,21.8702683 C17.5508704,21.1643688 16.1904095,19.9386705 15.2663229,19.2776919 C14.7336896,18.8926558 14.0342074,18.4177779 13.9957038,18.4177779 C13.9828692,18.4177779 13.7582649,18.3022671 13.4951569,18.1546699 C13.0074445,17.8851447 12.1282787,17.5193604 11.6726527,17.3974323 C11.2298611,17.2755042 10.3442781,17.2434178 9.77955852,17.3204251 C9.08007627,17.4231013 8.09823423,17.7824684 7.46292467,18.1675045 C7.18056486,18.3407707 6.9302914,18.4819506 6.91103959,18.4819506 C6.86611871,18.4819506 6.30139911,18.8862385 5.86502486,19.2391883 C5.66608955,19.39962 5.50565784,19.4894617 5.4928233,19.4509581 C5.46073696,19.3611164 5.9997875,18.610296 6.46824808,18.0776627 C6.91745686,17.5706985 7.91213345,16.7172018 8.56669481,16.2872449 C9.89506935,15.4016618 11.8395016,14.6187551 13.2448834,14.4069853 Z M8.86188915,22.4093188 C8.62445022,21.7611747 8.63086749,21.7098366 8.9324791,21.8831028 C9.06082447,21.96011 9.34318427,22.1462108 9.55495413,22.3002252 C10.722897,23.1344701 11.871588,24.5206001 12.4748112,25.8233055 C12.7507537,26.4072769 12.9432718,26.9527448 12.8983509,26.9976656 L12.8983509,26.9976656 L12.8766717,27.0055533 L12.8415635,27.0003487 C12.5785643,26.9274104 11.5611144,26.1090268 10.8063214,25.3484277 C9.88865208,24.4179238 9.24692525,23.4617508 8.86188915,22.4093188 Z M10.9988395,20.6766564 C10.9988395,20.5996491 11.6854872,20.7793327 12.0897751,20.9654334 C12.9304372,21.3440523 13.546495,22.0756209 13.8160203,22.986873 C13.9957038,23.6029307 14.0470419,24.0713913 13.9828692,24.5526864 C13.9315311,24.9826434 13.9379484,24.9954779 13.5336605,24.0906431 C13.1293726,23.2050601 12.3785522,22.1141245 11.6405663,21.3633041 C11.2876166,20.9975198 10.9988395,20.6894909 10.9988395,20.6766564 Z M21.5231595,9.95981833 C21.8376056,9.86997658 21.8311884,9.86997658 21.9338646,10.023991 C22.1071309,10.2935163 22.421577,11.339531 22.5563397,12.1031859 C22.6397642,12.6037329 22.6975196,13.2903806 22.7231886,14.1117909 L22.7231886,14.1117909 L22.7616923,15.356741 L22.4472461,15.3118201 L22.399731,15.3046408 C21.9454728,15.2337433 21.6121456,15.1096761 19.168022,14.0861218 C17.8717338,13.540654 16.80005,13.1106971 16.7807982,13.1299489 C16.7487119,13.1620352 17.3904387,14.4262371 17.8203957,15.1770574 C18.6033024,16.5375183 20.053605,17.2755042 21.7285121,17.1664106 C22.2098072,17.1343243 22.3830734,17.1471588 22.5306706,17.2177488 C22.8772031,17.4038495 23.1018075,17.724713 23.3135773,18.3536052 C23.5766853,19.1236774 24.0579805,20.0605986 24.4686856,20.5996491 C24.6419519,20.8306708 24.7767145,21.0231889 24.7767145,21.0231889 C24.7702972,21.0296061 24.5649446,20.9911025 24.3146712,20.9461816 C23.1916492,20.71516 21.2472169,19.9001669 20.7210009,19.4381236 C20.1177777,18.9054903 20.6696628,19.758987 21.3113896,20.3429584 C22.0942964,21.0616925 23.2237356,21.6841675 24.5136065,22.1141245 C24.8986426,22.2424698 25.2259233,22.3579807 25.2323405,22.3643979 C25.3029305,22.4285706 23.4098364,24.6425282 23.2943255,24.6425282 C23.1788147,24.6425282 22.5242533,24.2510748 21.8889438,23.8082833 C21.1894615,23.3205709 19.6043963,21.7611747 19.0396767,21.0167716 C17.4353596,18.873404 16.2674168,16.4476766 15.5486827,13.7460066 L15.5486827,13.7460066 L15.3497474,13.014438 L15.6000209,12.7577473 L15.7061154,12.6544254 C16.6203254,11.8148914 19.0835708,10.6744453 21.5231595,9.95981833 Z M31.3608318,7.79078165 C31.4955944,7.80361619 31.6752779,7.8613716 31.7587024,7.91912702 C31.8485442,7.97688243 31.964055,8.09239326 32.0218104,8.18223502 C32.0795658,8.2656595 32.7597962,10.8197323 33.5298684,13.8422656 C35.0700128,19.8680806 35.0571783,19.7846561 34.7106458,20.1504404 C34.6079695,20.2531167 34.4411205,20.3686275 34.332027,20.4071311 C34.0368326,20.5033901 29.4613203,21.4980667 29.4356513,21.4723976 C29.4228167,21.4595631 29.4805722,21.2862969 29.5704139,21.0873615 C29.8976946,20.3429584 29.9169464,19.6498934 29.6089175,19.1557638 C29.3971477,18.8092313 28.8516799,18.4819506 28.4987301,18.4819506 C28.2933775,18.4819506 28.2292048,18.5461233 27.1382692,19.9579223 C26.5093769,20.7729154 25.9703264,21.4146422 25.9446573,21.3889731 C25.9189883,21.3633041 25.3350168,18.8605694 24.6355346,15.8380361 C23.737117,11.936337 23.3841673,10.2806817 23.4162536,10.1459191 C23.4675918,9.92131472 23.6601098,9.65820672 23.8526279,9.54911316 C24.1285704,9.40151599 31.1105583,7.76511258 31.3608318,7.79078165 Z M31.9062996,15.4915036 C31.6367743,15.7417771 31.0848892,16.2551585 30.6870186,16.6337773 L29.95545,17.3204251 L28.3832193,16.8134609 C27.5233053,16.5311011 26.7917367,16.3129139 26.7596504,16.3193312 C26.7339813,16.3257485 27.3372045,16.8968853 28.1072767,17.5835331 C28.8837662,18.2701808 29.7244283,19.0274184 29.9875363,19.2712746 C30.2506443,19.5087135 30.4880833,19.6819798 30.5137523,19.6563107 C30.5843423,19.5857208 32.4389328,15.1257193 32.419681,15.0743812 C32.4068465,15.0487121 32.1758248,15.2348129 31.9062996,15.4915036 Z M28.5757373,17.0765689 C29.0185288,17.224166 29.5126585,17.3589287 29.6730902,17.3845977 L29.9618673,17.4231013 L30.1736371,18.3792743 C30.289148,18.9054903 30.3725724,19.3482818 30.3533206,19.3611164 C30.3404861,19.3739509 30.1864717,19.2456055 30.0196227,19.0787566 C29.8463564,18.9054903 29.2431332,18.3536052 28.6784136,17.8466411 C28.113694,17.3396769 27.6452334,16.8968853 27.6323989,16.8712163 C27.5938953,16.7749573 27.7479097,16.8070436 28.5757373,17.0765689 Z M12.8919336,9.07423531 C13.9700347,8.80471004 14.3999917,8.74053736 14.3999917,8.84963092 C14.3999917,8.88171726 14.2459772,8.94588994 14.0662937,8.98439355 C13.5400777,9.11273892 12.1860341,9.58761677 11.512221,9.88281111 C10.7806524,10.2036745 9.8437312,10.7491423 9.49078144,11.0571712 L9.49078144,11.0571712 L9.23409071,11.2753583 L9.4586951,11.3266965 L9.63531544,11.3673487 C10.5259866,11.58989 12.3032562,12.2559169 13.1357898,12.6871574 C13.7197612,12.988769 14.4641644,13.4957332 14.4641644,13.5984094 C14.4641644,13.6240785 14.2716463,13.6689994 14.0342074,13.6946685 C13.0523653,13.7909275 11.441631,14.1887981 10.29294,14.6123378 C8.88755822,15.1385538 7.10355764,16.0947268 6.01262203,16.9161372 C5.30030525,17.4551877 5.30030525,17.4551877 5.55057872,17.0958207 C5.85219033,16.6594464 6.76985969,15.7096907 7.32816203,15.2604819 C8.53460847,14.304309 10.1196737,13.611244 11.800998,13.3096324 L11.800998,13.3096324 L12.0576888,13.2647115 L11.6020627,13.0529416 L11.4344261,12.9797916 C10.464341,12.5807062 8.3205737,12.0492054 7.05221949,11.9042506 C6.84044964,11.8785815 6.62867979,11.8336607 6.57734164,11.8079916 C6.41049267,11.7181498 8.58594662,10.550207 9.87581754,10.0432428 C10.7934869,9.67745853 11.8330844,9.35017784 12.8919336,9.07423531 Z M28.2933775,10.2806817 C27.8120824,11.698898 26.6569741,15.2797337 26.6569741,15.356741 C26.6569741,15.4144964 26.631305,15.4786691 26.5928014,15.4979209 C26.3874488,15.6262662 26.6248878,15.7353598 28.1265285,16.2294894 C29.0056943,16.5118493 29.7693492,16.7492882 29.8271046,16.7492882 C29.95545,16.7492882 32.3362565,14.5224961 32.3362565,14.4069853 C32.3362565,14.3620644 31.5148462,13.4700641 30.5201696,12.4304666 C29.5190758,11.3844519 28.63991,10.453948 28.5693201,10.3641062 C28.4345574,10.19084 28.3382984,10.1587536 28.2933775,10.2806817 Z M19.7327416,15.6391008 C19.6685689,15.4594173 19.6685689,15.4594173 19.8739215,15.4979209 C19.9830151,15.5235899 20.2397058,15.619849 20.4322239,15.716108 C20.9006845,15.9407124 20.9199363,16.0433887 20.4963966,16.0433887 C20.0985259,16.0433887 19.8161661,15.8957915 19.7327416,15.6391008 Z M28.3832193,10.6272142 C28.4153056,10.6593006 28.5885719,11.3459483 28.7682554,12.1545241 L29.1019533,13.6304958 L28.9222698,13.803762 C28.6719963,14.0476182 26.7660677,15.4722518 26.7403986,15.4401654 C26.7211468,15.4273309 26.7660677,15.3054028 26.8366576,15.1642229 C26.965003,14.9139494 28.2292048,11.0956748 28.2933775,10.7555596 C28.3190466,10.6528833 28.3575502,10.5951279 28.3832193,10.6272142 Z M14.2459772,9.62612038 L14.1946391,10.0881637 L14.1802225,10.2144071 C14.1334077,10.6466889 14.1539964,10.7491423 14.2716463,10.7491423 C14.3422363,10.7491423 14.3871571,10.883905 14.4384953,11.2625238 C14.5475889,11.9940924 14.5732579,12.7192437 14.4962507,12.75133 C14.4577471,12.7577473 14.1882218,12.6229847 13.8866102,12.4497184 C13.212797,12.0454305 12.3464658,11.6283081 11.6919045,11.3844519 C11.4159619,11.2817756 11.1913575,11.1790993 11.1913575,11.1598475 C11.1913575,11.0250849 11.9806815,10.4218616 12.4555594,10.19084 C13.0651999,9.89564565 13.8288548,9.63253765 14.0855455,9.62612038 L14.0855455,9.62612038 L14.2459772,9.62612038 Z M24.0579805,6.5458316 C26.3040244,6.1222919 26.7724849,6.08378829 27.1703556,6.28914087 C27.3051182,6.35973082 27.4783844,6.50091073 27.5489744,6.60358702 C27.7094061,6.82177414 28.1329458,7.70093989 28.1329458,7.80361619 C28.1329458,7.84853707 27.7735788,7.93196155 27.2216937,8.02180331 C23.185232,8.65711287 19.8739215,9.61328584 17.3519351,10.8774877 C16.5818629,11.2625238 16.0684814,11.5641354 15.6064381,11.9106679 C15.1764811,12.2379486 15.221402,12.3277903 15.0673876,10.8710704 C14.958294,9.88281111 14.958294,9.8250557 15.0673876,9.53627862 C15.1700639,9.26675336 15.2278193,9.21541521 15.6064381,9.02289716 C16.1262369,8.75978916 17.6407122,8.16298321 18.3466117,7.93837882 C20.0600223,7.39291102 21.7734329,6.97578858 24.0579805,6.5458316 Z M17.8572833,2.21195613 L17.8974029,2.21417551 C17.9359065,2.21417551 18.0514173,2.39385902 18.1669282,2.60562888 C18.712396,3.60030546 19.8161661,6.67417697 19.6814035,6.8089396 C19.6493171,6.84102594 19.5145545,6.88594682 19.3926264,6.90519863 L19.3926264,6.90519863 L19.168022,6.94370224 L18.9498349,6.47524165 L18.8805979,6.32548707 C18.2353326,4.95536404 17.0129658,3.01495892 16.87064,3.15109668 C16.8513882,3.17034849 16.896309,3.35644927 16.966899,3.56821912 C17.2941797,4.50514029 17.7369712,6.60358702 17.7369712,7.20039297 C17.7369712,7.38007648 17.7048848,7.4378319 17.5765395,7.49558731 C17.4866977,7.54050819 17.3711869,7.57259453 17.326266,7.57259453 C17.2877624,7.57259453 17.0759926,7.34157287 16.87064,7.05921307 C16.6652874,6.77685326 16.4727693,6.56508341 16.4471003,6.59075248 C16.4278485,6.62283882 16.3636758,6.94370224 16.3059204,7.30948653 C16.2096613,7.97046516 16.1134023,8.20148682 16.010726,8.03463785 C15.9850569,7.98971697 15.9273015,7.34157287 15.8823807,6.59075248 C15.843877,5.84634936 15.7925389,5.15328439 15.7732871,5.05060809 C15.7540353,4.95434907 15.7668698,4.87734185 15.7989562,4.87734185 C15.8310425,4.87734185 16.081316,5.0891117 16.3508412,5.3522197 C16.6203665,5.60891043 16.8513882,5.80784575 16.8642227,5.78217668 C16.9155608,5.68591765 16.2224959,3.61314 15.7861216,2.560708 C15.747618,2.47086624 15.8117907,2.4387799 16.177575,2.38102449 C16.6203665,2.30401727 17.7818921,2.19492371 17.8974029,2.21417551 Z M12.6095738,3.58747092 C13.1229553,3.26019024 13.5593295,3.15109668 13.8481066,3.26660751 C13.9572002,3.30511112 13.9636174,3.38853561 13.9572002,4.20994595 C13.9507829,4.69765834 13.9315311,5.30729882 13.9122793,5.56398956 L13.9122793,5.56398956 L13.8673584,6.0196156 L12.6737465,5.98752926 L12.3150641,5.98028272 C11.1583166,5.96721675 10.3670303,6.06745342 9.24692525,6.35331355 C8.84263735,6.45598985 8.47043579,6.55224887 8.42551491,6.55866614 L8.42551491,6.55866614 L8.3923256,6.55926776 L8.36214438,6.54422729 C8.34369474,6.52978843 8.32925588,6.50732799 8.32283862,6.48165892 C8.28433501,6.25063726 9.76030671,5.19820526 11.4159619,4.27411863 C11.9100916,3.99175883 12.4491421,3.68372995 12.6095738,3.58747092 Z M19.0653457,2.18208917 L19.4503818,2.83665053 L19.5340718,2.9799556 C20.1892478,4.11787597 21.1381234,6.12068758 21.1381234,6.37898263 C21.1381234,6.48807619 20.7081664,6.59716975 20.6311592,6.50732799 C20.6054901,6.47524165 20.5284829,6.32122721 20.4643102,6.16079551 C20.1819504,5.48698234 19.3220365,3.76073717 18.8984967,3.03558585 C18.6482233,2.59921161 18.4428707,2.23342732 18.4428707,2.21417551 C18.4428707,2.19492371 18.5840506,2.18208917 18.7508996,2.18208917 L18.7508996,2.18208917 L19.0653457,2.18208917 Z M20.2710446,2.24587545 L20.4252232,2.24734666 C20.7174476,2.25448232 21.3703118,2.29584983 21.9595337,2.34252088 C22.6012606,2.39385902 23.1980665,2.45161444 23.2879083,2.47086624 C23.37775,2.49011805 23.5189299,2.51578712 23.6087717,2.53503892 C23.807707,2.5799598 23.9617214,2.823816 24.4109302,3.78640624 C24.7061245,4.43455034 25.1424988,5.58324136 25.0975779,5.6153277 C25.0911606,5.62174497 24.76388,5.67950038 24.3660093,5.7372558 C23.974556,5.80142848 23.2622392,5.92977385 22.7809441,6.02603287 C21.9466992,6.19929912 21.7798502,6.19929912 21.7798502,6.01319834 C21.7798502,5.8784357 20.7659218,3.79282351 20.3423821,3.06125492 C19.8290007,2.18208917 19.8290007,2.24626185 20.3487994,2.24626185 Z" id="Combined-Shape" fill="#000000"></path>
            <path d="M21.4269005,14.9062436 C21.5873322,14.5147902 21.6707566,14.0976678 21.7541811,13.218502 C21.8376056,12.2815809 21.9916201,10.9852927 22.0814618,10.4462421 C22.1199654,10.1702996 22.229059,10.1125442 22.229059,10.3628176 C22.229059,10.4526594 22.1841381,10.8056092 22.1328,11.1521416 C22.0878791,11.4922569 21.9980373,12.2815809 21.9402819,12.8976386 C21.8825265,13.5136964 21.8055193,14.1490059 21.7734329,14.2966031 C21.6900085,14.6880565 21.5424113,15.0153372 21.4525695,15.0153372 C21.4076486,15.0153372 21.4012314,14.9704163 21.4269005,14.9062436 Z" id="Path" fill="#FFFFFF" transform="translate(21.820473, 12.609506) scale(-1, 1) rotate(-180.000000) translate(-21.820473, -12.609506) "></path>
            <path d="M22.8066131,20.6320446 C22.8066131,20.3496848 23.7050307,18.2833244 24.000225,17.891871 C24.1991604,17.6159285 24.1478222,17.866202 23.9168005,18.2833244 C23.6151889,18.8159577 23.2558219,19.6052817 23.0633039,20.163584 C22.9157067,20.5742892 22.8066131,20.7732245 22.8066131,20.6320446 Z" id="Path" fill="#FFFFFF" transform="translate(23.465143, 19.226508) scale(-1, 1) rotate(-180.000000) translate(-23.465143, -19.226508) "></path>
            <path d="M15.2149848,0.563499509 C20.3102958,-0.668616002 25.5724558,0.133542534 30.1094644,2.83521248 C32.945897,4.52295404 35.5448907,7.17970311 37.155625,10.0418048 C38.901122,13.1285108 39.7547188,16.3243104 39.7547188,19.7511317 C39.7610359,22.0806001 39.4594243,23.9544424 38.7471076,26.0913927 C38.1053807,28.0165732 37.0272797,30.0829336 35.840085,31.6551644 C34.9994229,32.7781863 33.4400267,34.3953379 32.3683429,35.2616691 C29.2046296,37.8221592 25.5403694,39.2852963 21.3627278,39.6382461 C16.9155608,40.0232822 11.9999333,38.6435695 8.34209042,35.9868204 C4.0361034,32.8680281 1.18683628,28.3438539 0.288418722,23.2164566 C-0.680588789,17.6976058 0.821051989,11.889978 4.35696681,7.49414926 C4.90243462,6.81391882 6.14738467,5.52404789 6.91103959,4.85023472 C9.20200437,2.82879521 12.1731996,1.29506809 15.2149848,0.563499509 Z M21.0739507,1.59018985 C19.2514465,1.45542722 17.1016616,1.6607798 15.2791574,2.13565765 C13.0138617,2.72604634 10.4084508,3.99666546 8.75279559,5.31862272 C8.52177393,5.49830624 8.22016232,5.74216243 8.07898242,5.85125599 C7.25757208,6.48656555 5.46715423,8.45024965 4.79334106,9.45776077 C2.61146984,12.7113158 1.56545511,16.0996334 1.56545511,19.8858217 C1.56545511,22.9276069 2.18151287,25.4752624 3.59972916,28.2475223 C5.30672252,31.6037536 8.06614788,34.3695963 11.4159619,36.0894242 C13.5978331,37.2124461 16.0363951,37.9183456 18.378698,38.1044464 C22.4087425,38.4253098 26.1820963,37.4883886 29.7436802,35.2872656 C31.3865008,34.2733372 33.4913648,32.3289049 34.5437968,30.8593505 C36.5074809,28.1063424 37.5919993,25.4945142 38.0540426,22.3885564 C38.2208916,21.278369 38.2273088,18.2494183 38.0604599,17.2675763 C37.4829057,13.7701651 36.0326031,10.5358618 33.97266,8.14863804 C33.7737246,7.91761638 33.5234512,7.62242204 33.4207749,7.50049394 C33.0229042,7.02561609 31.9768895,6.04377404 31.3608318,5.57531346 C29.4677376,4.12501082 28.0238523,3.32926956 25.8548156,2.54636282 C24.3852611,2.02014683 22.947793,1.73136975 21.0739507,1.59018985 Z" id="Combined-Shape" fill="#000000"></path>
        </g>
    </g>
</svg>