<svg xmlns="http://www.w3.org/2000/svg" viewBox="0 0 235.4 235.4"><title>KMD_Mark_Black</title><g id="Layer_2" data-name="Layer 2"><g id="Layer_1-2" data-name="Layer 1"><path d="M0,117.7a117.7,117.7,0,0,0,235.4.45v-.9a118.33,118.33,0,0,0-3.22-26.9,12.62,12.62,0,1,0-24.56,5.85,92.5,92.5,0,1,1-68.47-68.43A12.62,12.62,0,0,0,145,3.21,117.69,117.69,0,0,0,0,117.7"/><path d="M177.19,31.61c-.17.16-.28.35-.44.52a18.61,18.61,0,0,0-5,11.13v0c0,.66,0,1.32,0,2,0,.46-.1.91-.15,1.37a33.61,33.61,0,0,1-41.12,29.41q-1.27-.28-2.52-.69A43.3,43.3,0,0,0,88.2,85.73c-.43.4-.9.74-1.32,1.16a43.55,43.55,0,0,0,61.59,61.59,42.65,42.65,0,0,0,4.88-5.94,43.53,43.53,0,0,0,6.66-35c-.25-.79-.45-1.57-.64-2.37,0-.12-.07-.23-.1-.35a33.63,33.63,0,0,1,29.95-41.07c.25,0,.49-.07.74-.08.71,0,1.42-.08,2.13-.08h.17a18.63,18.63,0,0,0,11.5-5.41,19.84,19.84,0,0,0,2-2.44,18.76,18.76,0,0,0-28.56-24.12"/></g></g></svg>