<svg xmlns="http://www.w3.org/2000/svg" width="300" height="300"><path d="M98.378.013H32.602v299.989l129.837-.283c36.61 0 64.346-8.83 82.36-26.187 14.878-14.52 22.599-34.44 22.599-59.204 0-32.443-18.595-56.915-42.329-69.164 16.013-10.526 29.176-27.892 31.749-59.195 1.993-24.48-6.29-44.118-20.31-58.921C214.774 3.708 179.594-.28 154.717.013h-34.313v21.06h34.313c29.738-.574 53.195 6.832 66.062 20.203 9.445 10.252 16.013 24.481 14.583 42.413-2.859 33.583-19.444 45.258-43.463 52.372h-71.504v21.343h72.353c31.749 1.423 53.203 30.455 53.203 56.642 0 19.071-5.156 33.583-16.022 43.835-18.3 17.64-49.763 20.777-72.924 20.203H54.048V21.082H76.36l.286 234.81h104.38c21.454 0 40.326-17.649 40.326-37.57 0-20.777-16.87-37.569-37.753-37.569h-63.203v21.635h63.203c8.883.005 16.07 7.155 16.021 15.943 0 8.246-9.15 15.935-18.595 15.935H98.11L98.37.013zm22.018 65.178h55.196c7.435 0 13.448 5.975 13.448 13.372 0 7.406-6.013 13.372-13.448 13.372-.286.291-32.32.291-55.196.291v21.635h55.196c19.453 0 35.18-15.66 35.18-35.015 0-19.346-15.727-35.007-35.18-35.007h-55.196v21.344z" fill="currentColor"/></svg>
