<svg id="_ÎÓÈ_1" data-name="ÎÓÈ 1" xmlns="http://www.w3.org/2000/svg" viewBox="0 0 167.83 148.67"><defs><style>.cls-1{fill:#48beff}.cls-2{fill:#3c91e6}</style></defs><title>Loom Network (LOOM)</title><path class="cls-1" d="M133.44,154.34,18.74,73.87a29.73,29.73,0,0,1,0-48.67L46.54,5.66l114.7,80.46a29.73,29.73,0,0,1,0,48.67ZM46.52,18.7,24.86,33.85a19.1,19.1,0,0,0,0,31.31l108.6,76.14,21.66-15.15a19.1,19.1,0,0,0,0-31.31Z" transform="translate(-6.09 -5.66)"/><path class="cls-2" d="M46.42,141.3,24.79,126.13a19.1,19.1,0,0,1,0-31.31l56-39.08-9.2-6.48L18.74,86.13a29.73,29.73,0,0,0,0,48.67l27.7,19.45,34.28-24-9.2-6.48ZM161.28,25.25,133.55,5.8l-34.3,24,9.2,6.48,25.06-17.54,21.63,15.17a19.1,19.1,0,0,1,0,31.31l-56,39.08,9.2,6.48,52.88-36.94a29.73,29.73,0,0,0,0-48.67Z" transform="translate(-6.09 -5.66)"/><path class="cls-2" d="M25.3,81.46,68.92,50.94,75,59.62,31.38,90.15Z" transform="translate(-6.09 -5.66)"/><path class="cls-2" d="M149.55,69.16,128.31,84l6.07,8.69,22-15.43c-2.34-2.67-4.6-5.4-6.87-8.14Z" transform="translate(-6.09 -5.66)"/></svg>