<svg enable-background="new 0 0 148 50" height="50" viewBox="0 0 148 50" width="148" xmlns="http://www.w3.org/2000/svg" xmlns:xlink="http://www.w3.org/1999/xlink"><linearGradient id="a"><stop offset="0" stop-color="#b92484"/><stop offset=".023" stop-color="#b92484"/><stop offset="1" stop-color="#7d358b"/></linearGradient><linearGradient id="b" gradientUnits="userSpaceOnUse" x1="27.09" x2="39.899" xlink:href="#a" y1="25.233" y2="25.233"/><linearGradient id="c" gradientUnits="userSpaceOnUse" x1="15.539" x2="28.347" xlink:href="#a" y1="25.233" y2="25.233"/><linearGradient id="d" gradientUnits="userSpaceOnUse" x1="10.642" x2="19.06" xlink:href="#a" y1="26.484" y2="26.484"/><linearGradient id="e" gradientUnits="userSpaceOnUse" x1="25.932" x2="30.887" xlink:href="#a" y1="25.223" y2="25.223"/><path d="m25.3 2.7c12.4 0 22.5 10.1 22.5 22.5s-10.1 22.5-22.5 22.5-22.5-10.1-22.5-22.5 10.1-22.5 22.5-22.5m0-1.8c-13.5 0-24.4 10.9-24.4 24.3 0 13.5 10.9 24.4 24.4 24.4s24.4-10.9 24.4-24.4c-.1-13.4-11-24.3-24.4-24.3z" fill="#7f368a"/><path d="m39.9 34.5c-.2-1.2-.6-2.4-.9-3.5-.3-1.2-.6-2.4-.9-3.6-.8-3-1.6-6-2.4-9-.2-.7-.3-1.4-.5-2.1-.1-.3-.2-.7-.5-.9-.3-.1-.6-.1-.9-.1-.4 0-.8 0-1.2 0-.8 0-1.7 0-2.5 0-.6 0-1.1 0-1.7.1-.5.1-1 .4-1.2.9-.1.2 0 .5.2.6.1.1.3 0 .4-.1.1 0 .4-.3.5-.3l4.7 17.3v.1c.1.4.3.8.6.9.2.1.4.2.7.2h.5.8 2.4 1.3c.3.1.7-.1.6-.5z" fill="url(#b)"/><path d="m28.3 34.5c-.2-1.2-.6-2.4-.9-3.5-.3-1.2-.6-2.4-.9-3.6-.8-3-1.6-6-2.4-9-.2-.7-.3-1.4-.5-2.1-.1-.3-.2-.7-.5-.9-.3-.1-.6-.1-.9-.1-.4 0-.8 0-1.2 0-.8 0-1.7 0-2.5 0-.6 0-1.1 0-1.7.1-.5.1-1 .4-1.2.9-.1.2 0 .5.2.6.1.1.3 0 .4-.1.1 0 .4-.3.5-.3l4.7 17.3v.1c.1.4.3.8.6.9.2.1.4.2.7.2h.5.8 2.4 1.3c.3.1.7-.1.6-.5z" fill="url(#c)"/><path d="m19.1 30.7-3.2-12.5c0-.2-.2-.4-.5-.4-.2 0-.4.2-.5.4l-4.2 15.8v.2c0 .5.4 1 1 1h5.3c.4 0 .8-.3.9-.7z" fill="url(#d)"/><path d="m30.9 30.4-3.5-12.6c0-.2-.2-.3-.4-.3s-.4.1-.4.3l-.7 2.5 3.5 12.2c.1.2.2.3.4.3s.3-.1.4-.3z" fill="url(#e)"/><g fill="#222e3b"><path d="m97.9 25.9v6.7c0 .1.1.3.3.3h2.6c.1 0 .3-.1.3-.3v-8c0-2-1.7-3.6-3.7-3.6-1.4 0-2.7.8-3.3 1.9v-1.7c0-.1-.1-.3-.3-.3h-2.6c-.1 0-.3.1-.3.3v11.3c0 .1.1.3.3.3h2.6c.1 0 .3-.1.3-.3v-6.8c0-1 .9-1.9 2-1.9.9.2 1.8 1 1.8 2.1"/><path d="m82.5 21.1c-3.3 0-6.1 2.6-6.1 5.9s2.7 5.9 6.1 5.9c3.3 0 6.1-2.6 6.1-5.9s-2.7-5.9-6.1-5.9zm0 9c-1.7 0-3.2-1.4-3.2-3.1s1.4-3.1 3.2-3.1c1.7 0 3.2 1.4 3.2 3.1s-1.4 3.1-3.2 3.1z"/><path d="m59.5 17.8v14.9c0 .1.1.3.3.3h2.6c.1 0 .3-.1.3-.3v-9l3.2 5.2c0 .1.1.1.2.1h1.7c.1 0 .1 0 .2-.1l3.3-5.2v9c0 .1.1.2.2.2h2.6c.1 0 .2-.1.2-.2v-14.9c0-.1-.1-.3-.3-.3h-2.6c-.1 0-.2.1-.2.1l-4.3 7.6-4.3-7.6c0-.1-.1-.1-.2-.1h-2.6c-.2 0-.3.1-.3.3"/><path d="m115.6 32.5-4.6-11.3c0-.1-.1-.2-.2-.2h-2.6c-.1 0-.2.1-.2.1l-4.7 11.3v.1c0 .1.1.3.3.3h2.6c.1 0 .2-.1.2-.2l.6-1.6c.7.3 1.6.5 2.5.5s1.8-.2 2.5-.5l.6 1.6c0 .1.1.1.2.1h2.6c.1 0 .3-.1.3-.3-.1.2-.1.2-.1.1zm-6.1-3.5c-.6 0-1.1-.1-1.6-.3l1.3-3.5c0-.1.1-.2.2-.2s.2.1.2.2l1.4 3.6c-.5.1-1 .2-1.5.2z"/><path d="m120.8 21.1h-2.6c-.1 0-.3.1-.3.3v11.3c0 .1.1.3.3.3h2.6c.1 0 .3-.1.3-.3v-11.4c-.1-.1-.2-.2-.3-.2z"/><path d="m120.8 17.5h-2.6c-.1 0-.3.1-.3.3v1.7c0 .1.1.3.3.3h2.6c.1 0 .3-.1.3-.3v-1.7c-.1-.2-.2-.3-.3-.3z"/><path d="m133.1 23.8c0 .1 0 .1-.1.2l-5.8 6h5.6c.1 0 .3.1.3.3v2.4c0 .1-.1.3-.3.3h-9.3c-.1 0-.3-.1-.3-.3v-2.4c0-.1 0-.1.1-.2l5.5-5.9h-5.4c-.1 0-.3-.1-.3-.3v-2.5c0-.1.1-.3.3-.3h9.3c.1 0 .3.1.3.3z"/><path d="m145.9 23.5c-1-1.5-2.7-2.5-4.6-2.5s-3.6 1-4.7 2.5c-.7 1-1.1 2.1-1.1 3.4 0 3.3 2.8 5.9 6.3 5.9 1.8 0 3.4-.8 4.5-1.9s.1-.1.1-.1c0-.1 0-.1-.1-.2l-1.4-1.5c0-.1-.1-.1-.2-.1s-.1 0-.2.1c-.6.6-1.5 1-2.6 1-1.7 0-3.1-1-3.1-2.2h8.1c.1 0 .3-.1.3-.3v-.6c-.1-1.3-.5-2.5-1.3-3.5zm-7.1 2.6c0-1.3 1.1-2.4 2.6-2.4 1.4 0 2.6 1.1 2.6 2.4z"/></g></svg>