<svg version="1.1" id="Layer_1" xmlns="http://www.w3.org/2000/svg" xmlns:xlink="http://www.w3.org/1999/xlink" x="0" y="0" viewBox="0 0 300 300" xml:space="preserve" enable-background="new 0 0 300 300"><style type="text/css">.st0{fill:#4cb860}.st1{fill:#658289}</style><g><g><g><path class="st0" d="M104.728,97.412L150,162.345l45.25-64.933l34.019,58.461h70.435c0.075-1.964,0.296-3.891,0.296-5.873 C300,67.158,232.842,0,150,0C67.155,0,0,67.158,0,150c0,1.982,0.219,3.909,0.296,5.873h70.433L104.728,97.412z M28.421,137.814 C34.558,76.132,86.729,27.805,150,27.805s115.44,48.327,121.576,110.009h-18.218c-6.064-51.69-50.067-91.95-103.358-91.95 c-53.293,0-97.297,40.26-103.361,91.95H28.421z"/></g><g><path class="st1" d="M193.875,130.954L150,193.948l-43.894-62.994l-25.008,42.977H2.085C13.568,245.369,75.321,300,150,300 c74.674,0,136.429-54.631,147.911-126.069h-79.013L193.875,130.954z M245.217,191.99h19.387 c-17.176,46.724-61.991,80.205-114.604,80.205c-52.616,0-97.433-33.481-114.609-80.205h19.391 c16.18,36.549,52.742,62.146,95.217,62.146C192.473,254.136,229.035,228.538,245.217,191.99z"/></g></g></g></svg>