<svg xmlns:dc="http://purl.org/dc/elements/1.1/" xmlns:cc="http://creativecommons.org/ns#" xmlns:rdf="http://www.w3.org/1999/02/22-rdf-syntax-ns#" xmlns:svg="http://www.w3.org/2000/svg" xmlns="http://www.w3.org/2000/svg" viewBox="0 0 292 292" height="292" width="292" xml:space="preserve" id="svg2" version="1.1"><metadata id="metadata8"><rdf:RDF><cc:Work><dc:format>image/svg+xml</dc:format><dc:type rdf:resource="http://purl.org/dc/dcmitype/StillImage"/></cc:Work></rdf:RDF></metadata><defs id="defs6"><clipPath id="clipPath20" clipPathUnits="userSpaceOnUse"><path id="path18" d="M 0,1095 C 0,1699.76 490.262,2190 1094.99,2190 1699.74,2190 2190,1699.76 2190,1095 2190,490.242 1699.74,0 1094.99,0 490.262,0 0,490.242 0,1095" clip-rule="evenodd"/></clipPath><clipPath id="clipPath26" clipPathUnits="userSpaceOnUse"><path id="path24" d="M 0,0 H 2190 V 2190 H 0 Z"/></clipPath><clipPath id="clipPath36" clipPathUnits="userSpaceOnUse"><path id="path34" d="M 805.477,635.641 1090.45,466.832 1350.83,621.07 805.477,1482.53 Z m -49.887,898.249 -199.242,-118 V 783.195 L 755.59,665.172 Z m 613.53,33.3 -278.67,165.04 -267.04,-158.17 -11.945,-7.08 557.655,-880.835 z m 49.89,-905.764 205.55,121.769 v 632.695 l -205.55,121.74 z m 262.11,88.258 -590.67,-349.848 -590.657,349.848 v 699.696 l 590.657,349.87 590.67,-349.87 z" clip-rule="evenodd"/></clipPath><clipPath id="clipPath42" clipPathUnits="userSpaceOnUse"><path id="path40" d="M 0,0 H 2190 V 2190 H 0 Z"/></clipPath></defs><g transform="matrix(1.3333333,0,0,-1.3333333,0,292)" id="g10"><g transform="scale(0.1)" id="g12"><g id="g14"><g clip-path="url(#clipPath20)" id="g16"><g clip-path="url(#clipPath26)" id="g22"><path id="path28" d="M 0,0 H 2240 V 2240 H 0 Z" fill="#d6e300" fill-opacity="1" fill-rule="nonzero" stroke="none"/></g></g></g><g id="g30"><g clip-path="url(#clipPath36)" id="g32"><g clip-path="url(#clipPath42)" id="g38"><path id="path44" d="m 449.793,349.836 h 1281.33 v 1499.42 H 449.793 Z" fill="#1d2e37" fill-opacity="1" fill-rule="nonzero" stroke="none"/></g></g></g></g></g></svg>