<svg id="Слой_1" data-name="Слой 1" xmlns="http://www.w3.org/2000/svg" viewBox="0 0 99.46 86.14"><defs><style>.cls-1{fill:#3ca9e5}.cls-2{fill:#2853c3}.cls-3{fill:#1a4199}.cls-4{fill:#60beff}</style></defs><title>Nexo (NEXO)</title><g id="Page-1"><g id="logo-nexo-symbol"><path id="Shape" class="cls-1" d="M26.3.62,75.08,28.78V57.49L.5,14.42,24.43.62a1.91,1.91,0,0,1,1.91,0" transform="translate(-0.5 -0.07)"/><polygon id="Shape-2" data-name="Shape" class="cls-2" points="74.58 0 49.73 14.36 74.58 28.71 74.58 0"/><path id="Shape-3" data-name="Shape" class="cls-3" d="M75.08.07,99,13.87a1.91,1.91,0,0,1,1,1.67V71.85L75.08,57.49Z" transform="translate(-0.5 -0.07)"/><path id="Shape-4" data-name="Shape" class="cls-2" d="M100,71.85,76,85.65a2,2,0,0,1-1.91,0L25.35,57.49V28.74Z" transform="translate(-0.5 -0.07)"/><path id="Shape-5" data-name="Shape" class="cls-4" d="M.5,14.42V70.74a1.91,1.91,0,0,0,1,1.67l23.93,13.8V28.74Z" transform="translate(-0.5 -0.07)"/><polygon id="Shape-6" data-name="Shape" class="cls-1" points="24.89 86.14 49.73 71.78 24.89 57.43 24.89 86.14"/></g></g></svg>