<svg id="Слой_1" data-name="Слой 1" xmlns="http://www.w3.org/2000/svg" viewBox="0 0 860.49 479.48"><title>OKcash (OK)</title><path d="M861.3,168v2.3c-49.8,31.2-100,62-150,93.1a6.44,6.44,0,0,0-2.2,2.7c13.4,3.6,27.2,6.3,39.9,12.1,11.7,5.2,23.7,12,30.3,23.4a50.7,50.7,0,0,1,4.4,37.8c-1.9,9.5-5.9,18.4-9.5,27.4-15,36-30.1,71.9-45,108a21,21,0,0,1-2.9,5c-4.9-.1-9.6-1.9-14.4-3-24.3-6-48.7-11.9-73-18-7.9-2.2-16-3.5-23.8-6.1.2-4.9,3-9.1,4.7-13.5l33.3-79.8c2.5-5.5,4-12.4.4-17.8C649,333.9,640,331,632,328.8c-29.3-7.5-58.8-14.5-88.2-21.8-4.2-.9-8.3-2.8-12.7-2.2-2.6,4.5-4.1,9.6-6.2,14.5-12.5,29.3-24.5,58.8-36.9,88.1-1.8,4.1-2.9,8.6-5.6,12.2-4.9,0-9.5-1.9-14.2-3-25.1-6.2-50.2-12.5-75.4-18.6-7.1-1.9-14.5-3.1-21.5-5.5a16.84,16.84,0,0,1,1.3-5.8L499.5,82.5a6.5,6.5,0,0,1,2-2.6c4.4.3,8.6,2.1,12.9,3.1,21.4,5.1,42.8,10.6,64.2,15.8,11.1,2.9,22.5,5.1,33.5,8.4.6,2.1-.4,4.2-1.2,6.2-8.6,19.6-16.5,39.5-24.9,59.1l-25.9,62.2c-2.9,7.3-6.7,14.3-8.7,22,3.7-1.3,6.9-3.5,10.2-5.7l169-106c3.1-1.9,5.9-4.5,9.4-5.4,5.2-.4,10.1,1.6,15,2.7,17.2,3.7,34.2,8.6,51.3,12.6,18.5,4.1,36.7,9.2,55,13.1ZM462.5,107c.9,18.1-6,35.3-13.1,51.5C430.3,204.4,411,250.2,392,296.1c-6.9,16.2-12.9,33.1-23.5,47.4A66,66,0,0,1,338.3,367a103.6,103.6,0,0,1-47.3,3.4c-27.3-3.4-53.9-10.8-80.6-17.2-36.3-9.1-72.8-17.9-109.1-27-24.1-5.8-48.4-12-70.8-23A59.4,59.4,0,0,1,6.7,282.3,40,40,0,0,1,1,257.5c1.9-15.9,7.8-31,14.2-45.6Q44.45,141.55,73.7,71.3c4.7-10.8,8.8-21.9,14.8-32.1a87.3,87.3,0,0,1,20.1-24.7A70.6,70.6,0,0,1,141.5.8c8.8-.8,17.6-.4,26.4-.2a692.4,692.4,0,0,1,80.7,16.9c37.2,9,74.3,18.4,111.5,27.4,17.1,4.2,34.1,8.5,50.8,14.2,11.2,4.1,22.6,8.3,32.4,15.4A42.3,42.3,0,0,1,462.5,107Zm-130,32c.7-5.3-3.1-9.8-7.5-12.1-9-4.9-19.2-6.7-29-9.2Q257.15,108,218.1,98.5a51.8,51.8,0,0,0-22.8-1.4c-8.8,2.5-13.2,11.4-16.2,19.2-14.7,35-29.1,70.1-43.9,105-1.6,4.1-3.2,8.2-3.6,12.6,0,5,3.5,9.4,7.8,11.5,6.4,3.3,13.4,5.1,20.2,6.9l81,19.9c9.4,2.2,19.3,4.6,28.9,2.5,8.1-2.6,12.2-10.9,15.2-18.2l39.7-95.2c3.1-7.2,7.1-14.3,8.1-22.3Z" transform="translate(-0.81 -0.32)"/></svg>