<?xml version="1.0" encoding="utf-8"?>
<!-- Generator: Adobe Illustrator 22.1.0, SVG Export Plug-In . SVG Version: 6.00 Build 0)  -->
<svg version="1.1" id="Layer_1" xmlns="http://www.w3.org/2000/svg" xmlns:xlink="http://www.w3.org/1999/xlink" x="0px" y="0px"
	 viewBox="0 0 115.5 115.5" style="enable-background:new 0 0 115.5 115.5;" xml:space="preserve">
<style type="text/css">
	.st0{fill:#E9E223;}
	.st1{fill:#B2CC3A;}
	.st2{fill:#55B14B;}
	.st3{fill:#1893D2;}
	.st4{fill:#00855D;}
	.st5{fill:#035127;}
</style>
<g>
	<path class="st0" d="M71.5,20.5c1.8,0.5,3.7,1.5,5.6,2.8c9.6,2.8,19.2,9.2,27.6,21.3c0.8,1.2,1.6,2.4,2.3,3.5
		c4.4-11.7,3.6-20.8-0.6-24.8c-7.5-7.2-18.2-3.2-30.5-8.2c-10-7.3-16-9-24.3-9c0,0-7,0.5-15,7.3C49.2,13.4,63.7,18.3,71.5,20.5z"/>
	<path class="st1" d="M20.3,39.5c4.5-13.2,10.7-20.9,16.2-26c-7.2,0.2-13.8,2-18,7c-4.9,5.8-6,21.7-6.8,25.7
		c-0.8,4-9.3,20.2-8.3,29.2c0.9,8.4,7.4,18.4,25.9,20.8C29.8,91.8,6.2,75.7,20.3,39.5z"/>
	<path class="st2" d="M18,61.5c1.3-21,20.2-32.3,20.2-32.3c9.4-5.8,24.1-10.2,38.9-5.8c-1.9-1.3-3.9-2.5-5.7-3.1
		c-7.6-2.4-22.2-7.1-34.9-6.8c-5.6,4.8-11.7,12.8-16.2,26C6.2,75.7,29.7,95.3,30.8,96.3c0.5,0.1-2.1-0.2-1.5-0.1
		C23.1,89,18.4,78.1,18,61.5z"/>
	<path class="st3" d="M106.9,48.2c-3.5,9.3-10.5,20.2-21.8,31.3c-0.8,0.8-1.6,1.6-2.5,2.3C76.3,89.4,67.5,93.4,58,95.3
		c-13,3.5-24.3,1.1-28.7,0.9c9.2,10.5,21.8,12.8,27.6,12.2c9.7-1,22.8-15.8,31-21.7C95.7,81.1,123.7,75.9,106.9,48.2z"/>
	<path class="st4" d="M77.1,23.4C87.5,30.5,97.4,48,89.5,69.9c-1.7,4.7-4,8.7-6.8,12c0.8-0.7,1.6-1.5,2.5-2.3
		c11.3-11.2,18.2-22,21.8-31.3c-0.7-1.1-1.4-2.3-2.3-3.5C96.3,32.6,86.7,26.2,77.1,23.4z"/>
	<g>
		<path class="st5" d="M29.3,96.2C29.2,96.1,29.4,96.3,29.3,96.2L29.3,96.2z"/>
		<path class="st5" d="M77.1,23.4c-15.6-4.6-29.5,0.1-38.9,5.8c0,0-18.8,11.3-20.2,32.3c0.4,16.6,5.1,27.5,11.3,34.6
			C33.5,97,45,98.8,58,95.3c9.5-1.9,18.3-5.8,24.7-13.4c2.8-3.3,5.1-7.2,6.8-12C97.4,48,87.5,30.5,77.1,23.4z M62.3,85.4
			c-22,4.8-33.5-14.8-34.5-18.8s-3-24.3,14-34.3c12.6-7.4,30.3-8,37.8,8.5S84.3,80.7,62.3,85.4z"/>
	</g>
</g>
</svg>
