<?xml version="1.0" encoding="utf-8"?>
<!-- Generator: Adobe Illustrator 16.0.0, SVG Export Plug-In . SVG Version: 6.00 Build 0)  -->
<!DOCTYPE svg PUBLIC "-//W3C//DTD SVG 1.1//EN" "http://www.w3.org/Graphics/SVG/1.1/DTD/svg11.dtd">
<svg version="1.1" id="Capa_1" xmlns="http://www.w3.org/2000/svg" xmlns:xlink="http://www.w3.org/1999/xlink" x="0px" y="0px"
	 width="1083.524px" height="1083.535px" viewBox="0 0 1083.524 1083.535" enable-background="new 0 0 1083.524 1083.535"
	 xml:space="preserve">
<g>
	<g>
		<path fill="#333333" d="M1083.524,541.773C1083.524,242.563,840.974,0.012,541.75,0C242.55,0,0,242.563,0,541.773
			s242.55,541.762,541.75,541.762C840.974,1083.535,1083.524,840.984,1083.524,541.773z M47.103,541.762
			c0-273.176,221.46-494.66,494.647-494.66c273.188,0,494.67,221.484,494.67,494.672s-221.482,494.66-494.67,494.66
			C268.563,1036.434,47.103,814.961,47.103,541.762z"/>
		<path fill="#22B573" d="M541.75,1036.434c-273.188,0-494.647-221.473-494.647-494.672c0-273.176,221.46-494.66,494.647-494.66
			c273.188,0,494.67,221.484,494.67,494.672S814.938,1036.434,541.75,1036.434z"/>
	</g>
	<g>
		<g>
			<polygon fill="#FFFFFF" points="344.938,416.633 217.157,672.172 472.719,672.172 			"/>
			<polygon fill="#FFFFFF" points="738.575,154.184 610.794,409.77 866.368,409.77 			"/>
			<polygon fill="#FFFFFF" points="607.362,416.633 479.57,672.172 735.155,672.172 			"/>
			<polygon fill="#FFFFFF" points="472.719,676.406 217.157,676.406 344.938,931.98 			"/>
			<polygon fill="#FFFFFF" points="866.368,414.016 610.794,414.016 738.575,669.555 			"/>
			<polygon fill="#FFFFFF" points="603.931,414.016 348.37,414.016 476.139,669.555 			"/>
			<polygon fill="#FFFFFF" points="735.155,151.566 479.57,151.566 607.362,407.152 			"/>
		</g>
		<g>
			<polygon opacity="0.25" fill="#22B573" points="344.938,415.313 217.157,670.863 472.719,670.863 			"/>
			<polygon opacity="0.05" fill="#22B573" points="738.575,152.863 610.794,408.461 866.368,408.461 			"/>
			<polygon opacity="0.15" fill="#22B573" points="607.362,415.313 479.57,670.863 735.155,670.863 			"/>
			<polygon opacity="0.3" fill="#22B573" points="472.719,675.086 217.157,675.086 344.938,930.672 			"/>
			<polygon opacity="0.1" fill="#22B573" points="866.368,412.684 610.794,412.684 738.575,668.234 			"/>
			<polygon opacity="0.2" fill="#22B573" points="603.931,412.684 348.37,412.684 476.139,668.234 			"/>
		</g>
	</g>
</g>
</svg>
