<!DOCTYPE svg PUBLIC "-//W3C//DTD SVG 20010904//EN" "http://www.w3.org/TR/2001/REC-SVG-20010904/DTD/svg10.dtd">
<svg version="1.0" xmlns="http://www.w3.org/2000/svg" width="412px" height="410px" viewBox="0 0 4120 4100" preserveAspectRatio="xMidYMid meet">
<g id="layer101" fill="#333233" stroke="none">
 <path d="M1756 4085 c-54 -8 -106 -17 -115 -21 -9 -3 -52 -15 -96 -25 -318 -77 -656 -266 -909 -508 -193 -185 -386 -465 -467 -676 -11 -27 -24 -59 -29 -70 -27 -57 -75 -224 -102 -359 -29 -141 -31 -166 -31 -371 0 -126 5 -246 11 -280 7 -33 20 -106 31 -161 10 -56 25 -112 32 -125 7 -13 11 -24 10 -24 -5 0 41 -149 49 -160 4 -5 16 -32 26 -60 17 -47 73 -161 94 -195 6 -8 32 -52 59 -97 28 -46 55 -89 60 -95 6 -7 39 -49 73 -93 298 -379 751 -653 1228 -742 141 -27 622 -26 765 1 229 43 473 138 680 264 100 62 107 66 220 156 96 76 255 236 324 326 27 36 61 79 75 96 14 18 26 35 26 39 0 5 11 22 24 39 13 17 44 72 70 121 25 50 50 95 54 100 4 6 23 47 41 93 135 341 182 666 145 1017 -15 151 -83 418 -135 532 -10 24 -19 46 -19 49 0 9 -86 181 -112 224 -211 350 -510 632 -848 800 -58 29 -113 56 -123 61 -67 35 -288 102 -452 136 -102 21 -529 26 -659 8z m629 -200 c278 -48 563 -172 797 -347 105 -79 285 -259 363 -363 176 -235 292 -498 352 -800 22 -114 25 -508 5 -625 -110 -619 -488 -1123 -1042 -1389 -151 -72 -271 -113 -439 -148 -114 -24 -147 -27 -346 -27 -223 -1 -280 5 -452 45 -372 87 -732 309 -981 602 -413 486 -552 1149 -368 1752 67 222 150 385 289 574 320 435 839 720 1362 749 151 9 331 0 460 -23z"/>
 </g>
<g id="layer102" fill="#21b573" stroke="none">
 <path d="M1990 3910 l-54 -5 -99 -348 c-54 -192 -97 -351 -95 -353 3 -2 36 3 74 12 103 22 287 29 396 14 535 -72 958 -494 1029 -1027 7 -53 9 -140 6 -218 -6 -147 -6 -146 -152 -660 -53 -187 -137 -482 -186 -655 -49 -173 -89 -318 -89 -322 0 -14 171 77 265 140 388 260 665 648 778 1087 46 179 52 237 52 480 0 180 -4 250 -18 320 -79 397 -246 715 -522 990 -226 226 -478 379 -777 469 -191 57 -452 90 -608 76z"/>
 <path d="M1191 3699 c-397 -214 -714 -567 -867 -966 -192 -503 -171 -1029 61 -1508 184 -380 492 -683 885 -868 244 -116 449 -164 737 -174 l171 -6 12 39 c97 331 186 661 180 667 -4 5 -43 1 -86 -9 -106 -23 -349 -23 -454 0 -388 85 -682 316 -849 666 -45 93 -84 219 -100 320 -15 90 -13 300 3 390 8 41 64 253 126 470 61 217 150 530 196 695 47 165 87 308 90 318 3 9 2 17 -3 17 -4 0 -50 -23 -102 -51z"/>
 <path d="M1899 2651 c-209 -56 -369 -209 -435 -416 -49 -153 -33 -331 44 -480 48 -94 174 -220 262 -263 263 -129 556 -76 751 136 106 116 159 256 159 420 0 179 -54 307 -185 438 -87 88 -177 140 -290 169 -79 20 -223 18 -306 -4z"/>
 </g>
<g id="layer103" fill="#feffff" stroke="none">
 <path d="M1745 3889 c-165 -29 -397 -101 -433 -133 -6 -7 -52 -153 -101 -326 -49 -173 -140 -493 -201 -710 -62 -217 -118 -429 -126 -470 -16 -90 -18 -300 -3 -390 16 -101 55 -227 100 -320 167 -350 461 -581 849 -666 105 -23 348 -23 454 0 43 10 82 14 86 9 4 -4 -37 -163 -91 -353 -54 -189 -97 -346 -95 -347 6 -6 187 19 275 38 97 21 235 64 313 98 l43 18 73 259 c41 142 125 441 188 663 167 587 165 577 171 726 3 78 1 165 -6 218 -71 533 -494 955 -1029 1027 -109 15 -293 8 -396 -14 -38 -9 -71 -14 -74 -12 -3 4 162 599 188 679 9 27 8 27 -33 26 -23 0 -91 -9 -152 -20z m460 -1234 c217 -55 405 -240 459 -451 20 -79 21 -232 1 -309 -83 -328 -424 -537 -745 -456 -132 33 -202 72 -295 165 -133 133 -188 265 -187 451 1 283 185 522 461 596 83 22 227 24 306 4z"/>
 </g>

</svg>