<svg id="Слой_1" data-name="Слой 1" xmlns="http://www.w3.org/2000/svg" viewBox="0 0 603.1 523.95"><title>Polis (POLIS)</title><path d="M593,503.8V473.6c0-6-4-10-10.1-10H562.8V433.3c0-6-4-10.1-10-10.1H532.7V201.4h20c6,0,10.1-4,10.1-10.1V161.1h20.1a9.73,9.73,0,0,0,10-8.1c1-5-1-9-5-11.1L306.5.8a13.88,13.88,0,0,0-9,0L6,141.9a10.05,10.05,0,0,0-5,11c0,5.1,4,8.2,9,8.2H40.2v30.2c0,6,4,10,10,10H70.3V423.2h-20c-6,0-10.1,4-10.1,10v30.3H20.1c-6,0-10,4-10,10v30.3c-6,0-10.1,4-10.1,10.1S4,524,10,524H593c6,0,10.1-4,10.1-10s-4-10.2-10-10.2ZM60.2,181.2V161.1H542.6v20.1H60.2Zm412,20.2V423.2H432.1V201.4Zm-100.5,0V423.2H331.5V201.4Zm-100.5,0V423.2H231.1V201.4Zm-100.5,0V423.2H130.6V201.4ZM542.6,463.5H60.3V443.3H542.7v20.2Z" transform="translate(0 -0.05)"/></svg>