<svg xmlns="http://www.w3.org/2000/svg" xmlns:xlink="http://www.w3.org/1999/xlink" viewBox="0 0 77.72 87.71"><defs><style>.cls-1{fill:url(#linear-gradient);}.cls-2{fill:url(#linear-gradient-2);}.cls-3{fill:url(#linear-gradient-3);}.cls-4{fill:url(#linear-gradient-4);}.cls-5{fill:url(#linear-gradient-5);}.cls-6{fill:url(#linear-gradient-6);}.cls-7{fill:url(#linear-gradient-7);}.cls-8{fill:url(#linear-gradient-8);}.cls-9{fill:url(#linear-gradient-9);}.cls-10{fill:url(#linear-gradient-10);}.cls-11{fill:url(#linear-gradient-11);}.cls-12{fill:url(#linear-gradient-12);}.cls-13{fill:url(#linear-gradient-13);}</style><linearGradient id="linear-gradient" y1="11.71" x2="43.21" y2="11.71" gradientUnits="userSpaceOnUse"><stop offset="0" stop-color="#001c3a"/><stop offset="0.57" stop-color="#001e3d"/><stop offset="0.69" stop-color="#001f3f"/><stop offset="1" stop-color="#002042"/></linearGradient><linearGradient id="linear-gradient-2" y1="22.32" x2="55.47" y2="22.32" xlink:href="#linear-gradient"/><linearGradient id="linear-gradient-3" y1="27.6" x2="61.57" y2="27.6" xlink:href="#linear-gradient"/><linearGradient id="linear-gradient-4" y1="32.89" x2="67.67" y2="32.89" xlink:href="#linear-gradient"/><linearGradient id="linear-gradient-5" y1="38.18" x2="73.76" y2="38.18" xlink:href="#linear-gradient"/><linearGradient id="linear-gradient-6" y1="43.47" x2="77.72" y2="43.47" xlink:href="#linear-gradient"/><linearGradient id="linear-gradient-7" x1="3.96" y1="48.53" x2="77.72" y2="48.53" xlink:href="#linear-gradient"/><linearGradient id="linear-gradient-8" x1="10.06" y1="53.85" x2="77.72" y2="53.85" xlink:href="#linear-gradient"/><linearGradient id="linear-gradient-9" x1="16.15" y1="59.1" x2="77.72" y2="59.1" xlink:href="#linear-gradient"/><linearGradient id="linear-gradient-10" x1="22.25" y1="64.39" x2="77.72" y2="64.39" xlink:href="#linear-gradient"/><linearGradient id="linear-gradient-11" x1="28.35" y1="69.71" x2="77.72" y2="69.71" xlink:href="#linear-gradient"/><linearGradient id="linear-gradient-12" x1="34.51" y1="75" x2="77.72" y2="75" xlink:href="#linear-gradient"/><linearGradient id="linear-gradient-13" y1="17" x2="49.37" y2="17" xlink:href="#linear-gradient"/></defs><title>Asset 2@alt</title><g id="Layer_2" data-name="Layer 2"><g id="Layer_1-2" data-name="Layer 1"><polygon class="cls-1" points="12.07 18.49 18.49 14.79 19.4 16.28 43.21 2.53 41.46 1.49 39.7 0.52 38.86 0 0 22.45 0 23.42 11.16 17 12.07 18.49"/><polygon class="cls-2" points="12.07 32.63 30.75 21.86 31.59 23.36 55.47 9.6 53.72 8.56 51.97 7.59 51.12 7.07 0 36.52 0 37.56 11.16 31.14 12.07 32.63"/><polygon class="cls-3" points="12.07 39.7 36.85 25.37 37.69 26.86 61.57 13.11 59.82 12.13 58.06 11.09 57.22 10.57 0 43.6 0 44.63 11.16 38.15 12.07 39.7"/><polygon class="cls-4" points="12.07 46.71 43.14 28.8 43.99 30.3 67.67 16.61 65.91 15.63 64.16 14.6 63.32 14.14 0 50.67 0 51.64 11.16 45.22 12.07 46.71"/><polygon class="cls-5" points="12.07 53.78 49.24 32.31 50.09 33.87 73.77 20.18 72.01 19.14 70.33 18.16 69.42 17.65 0 57.74 0 58.71 11.16 52.29 12.07 53.78"/><polygon class="cls-6" points="76.42 21.67 75.52 21.15 0 64.81 0 65.78 11.16 59.36 12.07 60.85 49.24 39.38 50.09 40.87 77.72 24.98 77.72 22.97 77.72 22.45 76.42 21.67"/><polygon class="cls-7" points="4.8 70.07 11.03 66.5 11.94 67.99 49.05 46.52 49.95 48.07 77.72 31.98 77.72 29.97 77.72 27.96 77.72 26.99 3.96 69.55 4.8 70.07"/><polyline class="cls-8" points="49.05 53.59 49.95 55.15 77.72 39.06 77.72 37.04 77.72 35.03 77.72 34.06 10.06 73.12 10.9 73.64 17.26 69.94 18.16 71.43"/><polygon class="cls-9" points="17 77.14 23.42 73.44 24.26 75 49.05 60.66 49.95 62.15 77.72 46.13 77.72 44.12 77.72 42.1 77.72 41.07 16.15 76.62 17 77.14"/><polygon class="cls-10" points="23.16 80.64 29.52 77.01 30.36 78.5 49.05 67.73 49.95 69.22 77.72 53.2 77.72 51.19 77.72 49.18 77.72 48.14 22.25 80.19 23.16 80.64"/><polygon class="cls-11" points="28.35 83.69 29.26 84.21 35.62 80.51 36.46 82.07 49.05 74.8 49.95 76.3 77.72 60.27 77.72 58.26 77.72 56.18 77.72 55.21 28.35 83.69"/><polygon class="cls-12" points="35.36 87.71 41.72 84.08 42.62 85.57 49.05 81.81 49.95 83.37 77.72 67.34 77.72 65.27 77.72 63.26 77.72 62.28 34.51 87.26 35.36 87.71"/><polygon class="cls-13" points="49.37 6.03 47.62 5.06 47.62 5.06 45.87 4.02 44.96 3.5 0 29.52 0 30.49 11.16 24.07 12.07 25.56 24.65 18.3 25.5 19.79 49.37 6.03"/></g></g></svg>