<?xml version="1.0" encoding="UTF-8"?>
<svg width="78px" height="88px" viewBox="0 0 78 88" version="1.1" xmlns="http://www.w3.org/2000/svg" xmlns:xlink="http://www.w3.org/1999/xlink">
    <title>ren</title>
    <defs>
        <linearGradient x1="0%" y1="50%" x2="100%" y2="50%" id="linearGradient-1">
            <stop stop-color="#001C3A" offset="0%"></stop>
            <stop stop-color="#001E3D" offset="57%"></stop>
            <stop stop-color="#001F3F" offset="69%"></stop>
            <stop stop-color="#002042" offset="100%"></stop>
        </linearGradient>
        <linearGradient x1="0%" y1="50.0163988%" x2="100%" y2="50.0163988%" id="linearGradient-2">
            <stop stop-color="#001C3A" offset="0%"></stop>
            <stop stop-color="#001E3D" offset="57%"></stop>
            <stop stop-color="#001F3F" offset="69%"></stop>
            <stop stop-color="#002042" offset="100%"></stop>
        </linearGradient>
        <linearGradient x1="0%" y1="50%" x2="100%" y2="50%" id="linearGradient-3">
            <stop stop-color="#001C3A" offset="0%"></stop>
            <stop stop-color="#001E3D" offset="57%"></stop>
            <stop stop-color="#001F3F" offset="69%"></stop>
            <stop stop-color="#002042" offset="100%"></stop>
        </linearGradient>
        <linearGradient x1="0%" y1="50%" x2="100%" y2="50%" id="linearGradient-4">
            <stop stop-color="#001C3A" offset="0%"></stop>
            <stop stop-color="#001E3D" offset="57%"></stop>
            <stop stop-color="#001F3F" offset="69%"></stop>
            <stop stop-color="#002042" offset="100%"></stop>
        </linearGradient>
        <linearGradient x1="0%" y1="50%" x2="99.9864444%" y2="50%" id="linearGradient-5">
            <stop stop-color="#001C3A" offset="0%"></stop>
            <stop stop-color="#001E3D" offset="57%"></stop>
            <stop stop-color="#001F3F" offset="69%"></stop>
            <stop stop-color="#002042" offset="100%"></stop>
        </linearGradient>
        <linearGradient x1="0%" y1="50.0112032%" x2="100%" y2="50.0112032%" id="linearGradient-6">
            <stop stop-color="#001C3A" offset="0%"></stop>
            <stop stop-color="#001E3D" offset="57%"></stop>
            <stop stop-color="#001F3F" offset="69%"></stop>
            <stop stop-color="#002042" offset="100%"></stop>
        </linearGradient>
        <linearGradient x1="0%" y1="50%" x2="100%" y2="50%" id="linearGradient-7">
            <stop stop-color="#001C3A" offset="0%"></stop>
            <stop stop-color="#001E3D" offset="57%"></stop>
            <stop stop-color="#001F3F" offset="69%"></stop>
            <stop stop-color="#002042" offset="100%"></stop>
        </linearGradient>
        <linearGradient x1="0%" y1="50%" x2="100%" y2="50%" id="linearGradient-8">
            <stop stop-color="#001C3A" offset="0%"></stop>
            <stop stop-color="#001E3D" offset="57%"></stop>
            <stop stop-color="#001F3F" offset="69%"></stop>
            <stop stop-color="#002042" offset="100%"></stop>
        </linearGradient>
        <linearGradient x1="0%" y1="49.9861381%" x2="100%" y2="49.9861381%" id="linearGradient-9">
            <stop stop-color="#001C3A" offset="0%"></stop>
            <stop stop-color="#001E3D" offset="57%"></stop>
            <stop stop-color="#001F3F" offset="69%"></stop>
            <stop stop-color="#002042" offset="100%"></stop>
        </linearGradient>
        <linearGradient x1="0%" y1="50%" x2="100%" y2="50%" id="linearGradient-10">
            <stop stop-color="#001C3A" offset="0%"></stop>
            <stop stop-color="#001E3D" offset="57%"></stop>
            <stop stop-color="#001F3F" offset="69%"></stop>
            <stop stop-color="#002042" offset="100%"></stop>
        </linearGradient>
        <linearGradient x1="0%" y1="50%" x2="100%" y2="50%" id="linearGradient-11">
            <stop stop-color="#001C3A" offset="0%"></stop>
            <stop stop-color="#001E3D" offset="57%"></stop>
            <stop stop-color="#001F3F" offset="69%"></stop>
            <stop stop-color="#002042" offset="100%"></stop>
        </linearGradient>
        <linearGradient x1="0%" y1="50.0196618%" x2="100%" y2="50.0196618%" id="linearGradient-12">
            <stop stop-color="#001C3A" offset="0%"></stop>
            <stop stop-color="#001E3D" offset="57%"></stop>
            <stop stop-color="#001F3F" offset="69%"></stop>
            <stop stop-color="#002042" offset="100%"></stop>
        </linearGradient>
        <linearGradient x1="0%" y1="50.0185254%" x2="100%" y2="50.0185254%" id="linearGradient-13">
            <stop stop-color="#001C3A" offset="0%"></stop>
            <stop stop-color="#001E3D" offset="57%"></stop>
            <stop stop-color="#001F3F" offset="69%"></stop>
            <stop stop-color="#002042" offset="100%"></stop>
        </linearGradient>
    </defs>
    <g id="ren" stroke="none" stroke-width="1" fill="none" fill-rule="evenodd">
        <g id="ren_cryptocurrency_logo_icon_131404-(1)" fill-rule="nonzero">
            <polygon id="Path" fill="url(#linearGradient-1)" points="12.07 18.49 18.49 14.79 19.4 16.28 43.21 2.53 41.46 1.49 39.7 0.52 38.86 0 0 22.45 0 23.42 11.16 17"></polygon>
            <polygon id="Path" fill="url(#linearGradient-2)" points="12.07 32.63 30.75 21.86 31.59 23.36 55.47 9.6 53.72 8.56 51.97 7.59 51.12 7.07 0 36.52 0 37.56 11.16 31.14"></polygon>
            <polygon id="Path" fill="url(#linearGradient-3)" points="12.07 39.7 36.85 25.37 37.69 26.86 61.57 13.11 59.82 12.13 58.06 11.09 57.22 10.57 0 43.6 0 44.63 11.16 38.15"></polygon>
            <polygon id="Path" fill="url(#linearGradient-4)" points="12.07 46.71 43.14 28.8 43.99 30.3 67.67 16.61 65.91 15.63 64.16 14.6 63.32 14.14 0 50.67 0 51.64 11.16 45.22"></polygon>
            <polygon id="Path" fill="url(#linearGradient-5)" points="12.07 53.78 49.24 32.31 50.09 33.87 73.77 20.18 72.01 19.14 70.33 18.16 69.42 17.65 0 57.74 0 58.71 11.16 52.29"></polygon>
            <polygon id="Path" fill="url(#linearGradient-6)" points="76.42 21.67 75.52 21.15 0 64.81 0 65.78 11.16 59.36 12.07 60.85 49.24 39.38 50.09 40.87 77.72 24.98 77.72 22.97 77.72 22.45"></polygon>
            <polygon id="Path" fill="url(#linearGradient-7)" points="4.8 70.07 11.03 66.5 11.94 67.99 49.05 46.52 49.95 48.07 77.72 31.98 77.72 29.97 77.72 27.96 77.72 26.99 3.96 69.55"></polygon>
            <polyline id="Path" fill="url(#linearGradient-8)" points="49.05 53.59 49.95 55.15 77.72 39.06 77.72 37.04 77.72 35.03 77.72 34.06 10.06 73.12 10.9 73.64 17.26 69.94 18.16 71.43"></polyline>
            <polygon id="Path" fill="url(#linearGradient-9)" points="17 77.14 23.42 73.44 24.26 75 49.05 60.66 49.95 62.15 77.72 46.13 77.72 44.12 77.72 42.1 77.72 41.07 16.15 76.62"></polygon>
            <polygon id="Path" fill="url(#linearGradient-10)" points="23.16 80.64 29.52 77.01 30.36 78.5 49.05 67.73 49.95 69.22 77.72 53.2 77.72 51.19 77.72 49.18 77.72 48.14 22.25 80.19"></polygon>
            <polygon id="Path" fill="url(#linearGradient-11)" points="28.35 83.69 29.26 84.21 35.62 80.51 36.46 82.07 49.05 74.8 49.95 76.3 77.72 60.27 77.72 58.26 77.72 56.18 77.72 55.21"></polygon>
            <polygon id="Path" fill="url(#linearGradient-12)" points="35.36 87.71 41.72 84.08 42.62 85.57 49.05 81.81 49.95 83.37 77.72 67.34 77.72 65.27 77.72 63.26 77.72 62.28 34.51 87.26"></polygon>
            <polygon id="Path" fill="url(#linearGradient-13)" points="49.37 6.03 47.62 5.06 47.62 5.06 45.87 4.02 44.96 3.5 0 29.52 0 30.49 11.16 24.07 12.07 25.56 24.65 18.3 25.5 19.79"></polygon>
        </g>
    </g>
</svg>