<?xml version="1.0" encoding="UTF-8"?>
<svg width="134px" height="133px" viewBox="0 0 134 133" version="1.1" xmlns="http://www.w3.org/2000/svg" xmlns:xlink="http://www.w3.org/1999/xlink">
    <title>repv2</title>
    <g id="repv2" stroke="none" stroke-width="1" fill="none" fill-rule="evenodd">
        <g id="Black" transform="translate(7.000000, 8.000000)" fill="#0E0E21">
            <path d="M27.2977,56.9705 L19.8606,52.1405 C19.1899,51.7105 18.9828,50.8105 19.3872,50.1205 L48.09,1.45049 C48.6226,0.550489 49.5794,0.000488281 50.615,0.000488281 L57.3814,0.000488281 C58.4171,0.000488281 59.3738,0.550489 59.9065,1.45049 L88.6093,50.1205 C89.0137,50.8105 88.8065,51.7105 88.1358,52.1405 L80.6987,56.9705 C80.0083,57.4205 79.0713,57.2005 78.6471,56.4805 L54.6295,15.7605 C54.3434,15.2805 53.653,15.2805 53.367,15.7605 L29.3493,56.4805 C28.9252,57.2005 27.998,57.4205 27.2977,56.9705 Z M96.1647,62.9404 L107.587,82.3104 C108.395,83.6904 107.981,85.4804 106.659,86.3504 L55.5961,119.53 C54.6295,120.16 53.3867,120.16 52.4201,119.53 L1.35668,86.3504 C0.0152383,85.4804 -0.39903,83.6904 0.419641,82.3104 L11.8416,62.9404 C12.2657,62.2204 13.1929,62.0004 13.8932,62.4504 L21.3303,67.2804 C22.001,67.7104 22.2081,68.6104 21.8037,69.3004 L15.2741,80.3704 C15.0768,80.7104 15.1754,81.1604 15.5108,81.3804 L53.6037,106.13 C53.8404,106.29 54.1462,106.29 54.3928,106.13 L92.4955,81.3804 C92.8308,81.1604 92.9393,80.7204 92.7322,80.3704 L86.2026,69.3004 C85.7981,68.6104 86.0053,67.7104 86.676,67.2804 L94.1131,62.4504 C94.8035,62.0004 95.7406,62.2204 96.1647,62.9404 Z" id="Shape"></path>
        </g>
    </g>
</svg>