<svg id="Слой_1" data-name="Слой 1" xmlns="http://www.w3.org/2000/svg" viewBox="0 0 3698.02 4266.23"><defs><style>.cls-1{fill:#fdc50c;}.cls-2{fill:#050708;}</style></defs><title>SmartCash (SMART)</title><g id="Layer_1"><path class="cls-1" d="M551,1332.56V3470.27c10.84.9,158.43,88.9,173.67,98.06L956,3702.07c19.4,11.66,38.7,22.43,57.83,33.45l114.53,65.92c9.6,5.2,18.2,10.73,28.33,16.25,11.12,6.07,18.4,11.27,29.7,17,29.43,14.92,57.63,33,85.9,50l145.45,83.82c10.07,5.59,18.16,10.46,28.12,16.45,56.78,34.17,115.8,64.94,172.48,99.24l203,117.59c133.86,79.18,270.55,152.84,403.89,233l158.61,91.89c25.08,17,34.47-2.27,74.18-23.9l347.31-200.39c19.25-11.08,37.93-21.93,58.08-33.2l56.66-32.5c9.56-5.16,18.36-10.76,28-16.58l318.7-184.42c95.2-56.95,193.37-108.69,288.45-165.85l634.45-367.54c9.15-5.52,18.32-11.14,28.18-16.4,10.18-5.43,19.78-12.92,31.14-15.57V1332.55c-18-12.07-36.61-21.41-56.09-33.07l-578-332.73c-19.75-11.87-38.21-22.15-57.88-33.4-19.12-10.94-37.7-22.74-57.32-34C3384,833.16,3267.6,769,3153.19,700.36l-549-317.14c-32.14-19.32-197.06-116.35-204.2-116.35-2.83,0-23.76,13.61-28.27,16.31L1621.56,715.46c-11,6.14-18.6,11-29.65,17.06-10,5.48-18.88,10.76-28.2,16.37l-57.56,33.72c-10.06,6.06-19.18,11.31-29.49,17.21l-56.52,32.64c-19.94,11.79-38.49,21.86-58.11,33.17L1245.87,932c-9.92,5.28-18.56,10.87-28.2,16.38l-145.36,83.9c-20,11.8-38.77,21.61-58.43,32.85L899,1132.9c-57.71,33-115.5,68.21-174,99.88-25.68,13.91-160.71,96.2-174.07,99.78Z" transform="translate(-550.99 -266.88)"/><path class="cls-2" d="M2247.73,1431.41H1748.64V1833c0,1.86,6.08,7.8,7.5,9.42s2.7,2.72,4.23,4.23c11.59,11.51,22,24.16,33.46,35.76,2,2,2.38,3.06,4.2,5,5.72,6.19,11.59,11.86,17.32,18.06l12.49,13.67.35.42,3.69,4c11.65,11.59,22.47,24.33,33.85,36.15l16.91,18.47c1.55,1.54,2.78,2.64,4.24,4.22l63.34,68.19.37.4,28.57,30.66a51.47,51.47,0,0,1,4.26,5L2176.79,2294a37.71,37.71,0,0,1,3.92,4.54l21.05,22.79c13.08,13.22,25.08,27.19,38.1,40.36,2,2,2.38,3.06,4.2,5,1.46,1.58,2.69,2.68,4.25,4.21l16.51,18.1c5.16,5.22,18,18.3,21.36,23.26-2.28,3.41-5.49,5.36-8.13,8.79-4.6,6-25.89,27.7-33.21,36-2.93,3.33-6,5.55-8.65,9l-12.54,13.61c-1.54,1.8-2.9,3-4.58,4.65l-16.53,18.08c-2.93,3.33-6,5.55-8.65,9s-5.6,5.84-8.67,9l-16.51,18.1c-1.59,1.57-2.7,2.6-4.25,4.21l-37.66,40.79c-11.81,11.7-22.11,24.47-33.84,36.16l-16.61,18c-2.59,3.24-5.88,5.76-8.64,9l-1,1.26c-9.07,10.85-24,24.25-32.61,35.08l-6.44,6.64c-.59.64-.48.55-1.09,1.22l-.37.4-42.74,45.71a47.65,47.65,0,0,1-3.87,4.59l-4.24,4.22-25.63,27.45c-2.79,3.62-5.2,5.54-8.15,8.78l-21.18,22.66c-.6.67-.6.7-1.06,1.25l-.35.42c-6.22,7.45-13,14-19.78,21l-31.46,33.92c-.52.6-.46.54-1.06,1.25l-9.39,9.84c-1.73,1.87-2,2.74-3.82,4.64l-8.74,9-.35.42L1815,2917.94a37.65,37.65,0,0,0-3.92,4.55,47.59,47.59,0,0,1-4.15,4.31l-50.75,54.62c-2.47,2.45-7.5,6-7.5,10.19v400.05h499.09v143.87h260.7c1.77,0,2.31-.54,2.31-2.31V3391.66h540.62V2991.61c0-3.86-13.75-2.31-20.76-2.31H2307.71l49-54.06c1.53-1.59,2.8-2.59,4.24-4.22l16.5-18.11a46.6,46.6,0,0,1,3.87-4.59c8.6-8.54,16-18.39,24.62-26.92a45.56,45.56,0,0,0,4.16-4.31,37.32,37.32,0,0,1,3.92-4.55l19.88-21.65.35-.42,1.4-1.68c.59-.69.51-.62,1.08-1.23l43.06-46.94c.9-.95,1-1.13,1.8-2,11.24-13.34,23.63-25.68,35.12-38.72,1.56-1.77,3-2.87,4.62-4.61,9.61-10.39,18.57-21.38,28.44-31.56l20.27-22c10.68-12.67,22.64-23.85,33.34-36.65l49.19-53.88c5.55-7.19,24-25.51,30.86-33.75l34.76-38.32c7.77-7.67,17.92-20.31,24.6-26.93,3.33-3.3,5.24-6,8.47-9.22l49.62-54.22a46.6,46.6,0,0,0,3.87-4.59l20.74-22.33a48.14,48.14,0,0,0,3.87-4.59c1.7-2,2.95-2.7,4.39-4.84-3.4-5.07-7.6-9.21-11.72-13.66l-98.84-108.07c-7.29-7.36-13.38-15.78-20.74-23.11-1.54-1.53-2.84-2.64-4.23-4.23l-55-60.42c-.6-.67-.6-.7-1.06-1.25l-153.52-168.76c-11.28-11.71-21.48-24.71-33.08-36.14l-60.1-66c-7.07-8.39-14.92-15.62-22-24.12-2.78-3.33-5.56-5.64-8-8.89L2324,1852c-5.35-6.08-11.92-11.68-16.34-18.28h743.64V1428.33H2512.27c-1.77,0-2.31-.54-2.31-2.31V1266c-87.77,0-174.52-1.54-262.24-1.54v166.94Z" transform="translate(-550.99 -266.88)"/></g></svg>