<svg id="Слой_1" data-name="Слой 1" xmlns="http://www.w3.org/2000/svg" viewBox="0 0 128 128"><defs><style>.cls-1{fill:#25e44c}</style></defs><title>All Sports (SOC)</title><circle class="cls-1" cx="64" cy="64" r="64"/><path d="M54.12,8.35A56.52,56.52,0,1,1,14.92,36,56.56,56.56,0,0,1,54.12,8.35Zm5.61,6.72c-.14,2.57-.09,5.15,0,7.73a52.61,52.61,0,0,0-11.45,3.06c.08-2.78.11-5.56.07-8.35a49.07,49.07,0,0,0,0,93q0-4.1-.08-8.17a48.6,48.6,0,0,0,11.38,2.93c0,2.5,0,5-.15,7.48a32.16,32.16,0,0,0,9,0c-.14-2.47-.2-4.93-.21-7.4a54.12,54.12,0,0,0,11.41-2.9c-.07,2.7-.1,5.4,0,8.11a49.07,49.07,0,0,0-.06-93c0,2.76,0,5.51.1,8.27a52,52,0,0,0-11.44-3c-.16-2.5.55-5.25-.18-7.62a71,71,0,0,0-8.38-.1Z"/><path d="M45.39,35.29c7.88-5.53,18.42-6.22,27.56-4,8.27,2.09,14.16,9.1,17,16.86-5.09.88-10.17,1.78-15.26,2.64-1.34-8.08-12.65-10-18.27-5.29C53.18,48.16,54,53.83,58,55.25c8.75,3.62,19.25,2.58,27,8.65,9,6.12,9.89,20.67,1.88,28-6.44,5.84-15.59,7.22-24,7.1-7.37,0-15.18-2-20.51-7.34-2.83-2.73-4.43-6.38-5.86-10,5.15-1.33,10.47-1.78,15.66-2.89a9.1,9.1,0,0,0,6.07,6.81C63,87,68.83,87.21,72.76,83.85c2.78-2.31,2.86-7.36-.59-9.09C64.08,70.58,54,72,46.35,66.71,35.82,60.07,35,42.46,45.39,35.29Z"/></svg>