<svg id="Слой_1" data-name="Слой 1" xmlns="http://www.w3.org/2000/svg" viewBox="0 0 211.1 200"><defs><style>.cls-1{fill:#313333;}.cls-2{fill:#f2941b;}</style></defs><title>Straks (STAK)</title><path class="cls-1" d="M110.9,0h.1c18.3,18.1,36.4,36.4,54.6,54.6H211L108.8,199.4c-1.7-17-3-34-4.5-51,14.8-21.3,30-42.4,44.8-63.6L115.3,51.1a78.52,78.52,0,0,0-1-11.9C113.2,26.2,112.5,13,110.9,0Z" transform="translate(0.1)"/><path class="cls-2" d="M0,145.4C34.3,97.2,68.3,48.8,102.5.5l4.3,51.2C91.9,73,76.9,94,62,115.2c11.1,11.1,22.2,22.4,33.5,33.5,1.5,17,2.8,34.2,4.5,51.3h-.2L45.5,145.6c-15.2.2-30.4-.1-45.6.2v-.4Z" transform="translate(0.1)"/></svg>