<svg xmlns="http://www.w3.org/2000/svg" width="278" height="278"><g fill="none"><path fill="#211D1D" d="M278 139a139 139 0 1 1-278 0 139 139 0 0 1 278 0"/><path fill="#211D1D" d="M260 139a121 121 0 1 1-242 0 121 121 0 0 1 242 0"/><path fill="#FFF" d="M139 255.3a116.3 116.3 0 1 1 0-232.6 116.3 116.3 0 0 1 0 232.6M139 18a121 121 0 1 0 0 242.2 121 121 0 0 0 0-242.2"/><path fill="#FFF" d="M152.3 151H183v45.3c0 4.5-4.6 6.9-9 9.2-4.3 2.3-11.3 1.8-23.1 1.8h-14.4c-22.1.5-28.3-1.2-33.6-3.5-5.3-2.4-8-5.8-8-10.2V151H79v48c0 2.6 1.3 5.6 3.3 8.3 2.3 3.1 2 4 7 6.5 4.5 2.3 9 4.1 17.1 5.1 6.3.8 5.2.6 16.4.8h26.6c20-.4 24.1 1 36-5 9.7-4.8 13-10.4 13.7-14v-65.3h-46.7V151m-41.5-92.4c-8.1.5-14.8 3-20 5-5.3 2-6.4 4.4-8.6 7a13.2 13.2 0 0 0-3.2 8.5v53.2h16V84.2c0-4.1 2.5-7.4 7.4-9.8 5-2.5 12.3-3.7 19.1-3.7h31.2c11.9 0 18.3-.2 22 2 3.8 2.4 8.3 4.5 8.3 9v12.7h16V77.3c-.3-2.2-2.7-8.5-14-13.8-10.2-4.8-13.5-5.1-29.5-5.1"/></g></svg>