<?xml version="1.0" standalone="no"?>
<!DOCTYPE svg PUBLIC "-//W3C//DTD SVG 20010904//EN"
 "http://www.w3.org/TR/2001/REC-SVG-20010904/DTD/svg10.dtd">
<svg version="1.0" xmlns="http://www.w3.org/2000/svg"
 width="927.000000pt" height="927.000000pt" viewBox="0 0 927.000000 927.000000"
 preserveAspectRatio="xMidYMid meet">

<g transform="translate(0.000000,927.000000) scale(0.100000,-0.100000)"
fill="#000000" stroke="none">
<path d="M4385 9259 c-1027 -54 -2024 -459 -2797 -1138 -466 -409 -837 -892
-1109 -1445 -515 -1043 -616 -2256 -283 -3375 269 -899 803 -1694 1539 -2286
279 -224 517 -376 845 -539 498 -247 973 -387 1560 -458 143 -18 857 -18 1000
0 587 71 1062 211 1560 458 328 163 565 314 845 539 753 606 1299 1431 1560
2360 72 255 125 540 150 809 20 211 20 681 0 892 -88 931 -456 1809 -1064
2537 -185 223 -500 523 -739 705 -751 572 -1630 892 -2587 942 -209 11 -259
11 -480 -1z m705 -614 c747 -87 1428 -362 2013 -813 822 -632 1369 -1551 1526
-2562 38 -241 46 -360 46 -655 -1 -378 -28 -610 -111 -951 -280 -1153 -1070
-2136 -2139 -2661 -421 -206 -846 -331 -1335 -390 -203 -25 -695 -25 -900 0
-803 97 -1510 398 -2130 905 -162 133 -438 415 -573 584 -445 560 -718 1178
-831 1879 -90 556 -70 1080 60 1615 237 979 840 1836 1689 2401 560 373 1184
592 1873 658 185 18 621 12 812 -10z"/>
<path d="M4385 8494 c-1122 -90 -2102 -608 -2787 -1474 -589 -745 -887 -1709
-818 -2652 7 -96 29 -271 50 -393 139 -805 502 -1505 1080 -2084 550 -549
1257 -922 2020 -1065 265 -50 392 -61 720 -60 330 0 478 13 752 69 1458 295
2623 1402 2988 2839 74 292 108 538 117 847 11 401 -43 809 -162 1210 -55 186
-164 477 -224 598 -117 238 -329 560 -505 771 -652 777 -1530 1252 -2541 1375
-124 16 -579 28 -690 19z m1187 -1184 c168 -11 288 -35 409 -80 117 -45 292
-131 369 -181 96 -63 220 -191 258 -268 l32 -64 0 -299 0 -298 -264 0 -265 0
-3 238 -3 237 -28 47 c-43 73 -226 200 -337 232 -102 30 -348 38 -1125 33
-812 -5 -830 -6 -1030 -63 -189 -53 -326 -148 -382 -262 l-28 -57 -3 -837 -3
-838 -264 0 -265 0 0 918 c0 977 -1 952 48 1049 29 57 153 214 193 244 97 74
371 174 619 225 73 15 163 19 630 24 925 10 1289 10 1442 0z m1068 -3655 c0
-1247 8 -1137 -90 -1266 -80 -107 -199 -199 -365 -281 -214 -107 -350 -144
-579 -158 -210 -13 -1688 -13 -1876 0 -353 24 -622 100 -825 231 -58 38 -81
61 -131 135 -34 49 -71 109 -84 133 -51 101 -50 78 -50 959 l0 822 265 0 264
0 3 -747 3 -748 28 -56 c69 -141 258 -248 517 -293 181 -31 402 -38 1160 -33
821 4 814 4 941 68 145 73 225 135 262 204 22 40 22 42 25 823 l2 782 -515 0
-515 0 0 260 0 260 780 0 780 0 0 -1095z"/>
</g>
</svg>
