<?xml version="1.0" standalone="no"?>
<!DOCTYPE svg PUBLIC "-//W3C//DTD SVG 20010904//EN"
 "http://www.w3.org/TR/2001/REC-SVG-20010904/DTD/svg10.dtd">
<svg version="1.0" xmlns="http://www.w3.org/2000/svg"
 width="400.000000pt" height="400.000000pt" viewBox="0 0 400.000000 400.000000"
 preserveAspectRatio="xMidYMid meet">

<g transform="translate(0.000000,400.000000) scale(0.100000,-0.100000)"
fill="#000000" stroke="none">
<path d="M1845 3994 c-16 -2 -70 -9 -120 -15 -123 -15 -329 -69 -453 -118
-669 -267 -1125 -835 -1249 -1556 -23 -139 -23 -471 0 -610 151 -877 795
-1521 1672 -1672 139 -23 471 -23 610 0 446 77 829 276 1130 588 290 301 469
658 542 1084 23 139 23 471 0 610 -77 446 -276 829 -588 1130 -300 289 -664
472 -1079 540 -91 15 -402 28 -465 19z m-325 -1344 l0 -160 160 0 160 0 0 160
0 160 160 0 160 0 0 -160 0 -160 160 0 160 0 0 160 0 160 475 0 475 0 0 -160
0 -160 -475 0 -475 0 0 -160 0 -160 475 0 475 0 0 -160 0 -160 -475 0 -475 0
-2 -477 -3 -478 -157 -3 -158 -3 0 481 0 480 -160 0 -160 0 0 -480 0 -481
-157 3 -158 3 -3 478 -2 477 -475 0 -475 0 0 160 0 160 475 0 475 0 0 160 0
160 -475 0 -475 0 0 160 0 160 475 0 475 0 0 -160z"/>
<path d="M1840 2330 l0 -160 -160 0 -160 0 0 -160 0 -160 160 0 160 0 0 160 0
160 160 0 160 0 0 -160 0 -160 160 0 160 0 0 160 0 160 -160 0 -160 0 0 160 0
160 -160 0 -160 0 0 -160z"/>
</g>
</svg>
