<svg xmlns="http://www.w3.org/2000/svg" xmlns:xlink="http://www.w3.org/1999/xlink" viewBox="0 0 200 200"><defs><style>.cls-1{fill:url(#linear-gradient);}.cls-2{fill:url(#linear-gradient-2);}.cls-3{fill:url(#linear-gradient-3);}</style><linearGradient id="linear-gradient" x1="12.99" y1="50.47" x2="180.26" y2="150.47" gradientUnits="userSpaceOnUse"><stop offset="0" stop-color="#ff694d"/><stop offset="1" stop-color="#ffcc4d"/></linearGradient><linearGradient id="linear-gradient-2" x1="14.08" y1="48.64" x2="181.36" y2="148.64" xlink:href="#linear-gradient"/><linearGradient id="linear-gradient-3" x1="15.48" y1="46.61" x2="182.76" y2="146.61" xlink:href="#linear-gradient"/></defs><title>Originals</title><g id="Layer_2" data-name="Layer 2"><g id="Layer_4" data-name="Layer 4"><path class="cls-1" d="M90.71,137.52a27.5,27.5,0,0,0,11.9,2.72,27.17,27.17,0,0,0,17.16-6.13c.66-.53,1.33-1.1,2-1.7a5.48,5.48,0,1,0-7.41-8.08c-.49.45-1,.87-1.47,1.27a16.12,16.12,0,0,1-17.45,2,16.42,16.42,0,0,1-9.57-15.12V83.3h32.81a4.8,4.8,0,1,0,0-9.59H85.85V65.23a5.48,5.48,0,1,0-11,0v8.48h-9a4.8,4.8,0,0,0,0,9.59h9v29.21A27.48,27.48,0,0,0,90.71,137.52Z"/><path class="cls-2" d="M173.25,115.76a4.2,4.2,0,0,0-4.12-5.06h-1.26a4.13,4.13,0,0,0-4.05,3.22,65.59,65.59,0,0,1-61.11,51.36c-46.17,1.87-82.41-44.45-62.42-92.67A59.87,59.87,0,0,1,72.67,40.27c33.08-13.69,65.26-.91,81.58,23.37a4.17,4.17,0,0,0,5.68,1.2l.74-.47A4.5,4.5,0,0,0,162,58c-18-26.45-52.35-40.87-88.39-28.42A70.85,70.85,0,0,0,30,72.63C11,125.36,49.83,174.92,100,174.92A75.05,75.05,0,0,0,173.25,115.76Z"/><path class="cls-3" d="M95.41.1C44,2.42,2.37,44.09.1,95.51A99.89,99.89,0,0,0,4,128.07a4.75,4.75,0,0,0,6.59,2.9l.08,0a4.76,4.76,0,0,0,2.52-5.66A90.11,90.11,0,0,1,9.66,96.34C11.54,49.67,49.29,11.73,96,9.68a90.41,90.41,0,1,1-15.47,178.6A4.54,4.54,0,0,0,76,189.92a4.87,4.87,0,0,0,2.73,7.79,100.76,100.76,0,0,0,24.95,2.23c51.84-1.86,94.05-43.73,96.28-95.56A100.11,100.11,0,0,0,95.41.1Z"/></g></g></svg>