<?xml version="1.0" encoding="UTF-8" standalone="no"?>
<svg
   xmlns:dc="http://purl.org/dc/elements/1.1/"
   xmlns:cc="http://creativecommons.org/ns#"
   xmlns:rdf="http://www.w3.org/1999/02/22-rdf-syntax-ns#"
   xmlns:svg="http://www.w3.org/2000/svg"
   xmlns="http://www.w3.org/2000/svg"
   xmlns:sodipodi="http://sodipodi.sourceforge.net/DTD/sodipodi-0.dtd"
   xmlns:inkscape="http://www.inkscape.org/namespaces/inkscape"
   height="500"
   width="500"
   xml:space="preserve"
   version="1.1"
   id="svg27"
   sodipodi:docname="new.svg"
   inkscape:version="0.92.3 (2405546, 2018-03-11)"><sodipodi:namedview
     pagecolor="#ffffff"
     bordercolor="#666666"
     borderopacity="1"
     objecttolerance="10"
     gridtolerance="10"
     guidetolerance="10"
     inkscape:pageopacity="0"
     inkscape:pageshadow="2"
     inkscape:window-width="1366"
     inkscape:window-height="705"
     id="namedview29"
     showgrid="false"
     width="500px"
     inkscape:zoom="0.47782792"
     inkscape:cx="840.54663"
     inkscape:cy="216.97534"
     inkscape:window-x="-8"
     inkscape:window-y="-8"
     inkscape:window-maximized="1"
     inkscape:current-layer="g25" /><rect
     id="backgroundrect"
     width="100%"
     height="100%"
     x="0"
     y="66.049316"
     style="fill:none;stroke:none" /><metadata
     id="metadata3719"><rdf:RDF><cc:Work
         rdf:about=""><dc:format>image/svg+xml</dc:format><dc:type
           rdf:resource="http://purl.org/dc/dcmitype/StillImage" /><dc:title /></cc:Work></rdf:RDF></metadata><defs
     id="defs3717"><clipPath
       id="clipPath3729"
       clipPathUnits="userSpaceOnUse"><path
         id="path3727"
         d="M 0,325.463 H 1260.816 V 0 H 0 Z"
         inkscape:connector-curvature="0" /></clipPath></defs><g
     class="currentLayer"
     id="g25"
     transform="translate(0,66.049338)"><title
       id="title7">Layer 1</title><g
       id="g43"
       transform="translate(58.598502,-22.932628)"><g
         style="stroke-width:0"
         class=""
         id="g3731"><path
           inkscape:connector-curvature="0"
           d="m 329.68744,206.93697 c 0,76.40399 -61.93733,138.34132 -138.33999,138.34132 -76.404,0 -138.34132,-61.93733 -138.34132,-138.34132 0,-76.404 61.93733,-138.339992 138.34132,-138.339992 76.40266,0 138.33999,61.935992 138.33999,138.339992"
           style="fill:#3058a6;fill-opacity:1;fill-rule:nonzero;stroke:none;stroke-width:0"
           id="path3733" /></g><g
         style="stroke-width:0"
         class=""
         id="g3735"><path
           inkscape:connector-curvature="0"
           d="m 191.34706,331.42722 c -68.64533,0 -124.490653,-55.84667 -124.490653,-124.49066 0,-68.64533 55.845333,-124.490653 124.490653,-124.490653 68.64533,0 124.492,55.845333 124.492,124.490653 0,68.64399 -55.84667,124.49066 -124.492,124.49066"
           style="fill:#3058a6;fill-opacity:1;fill-rule:nonzero;stroke:none;stroke-width:0"
           id="path3737" /></g><g
         style="stroke-width:0"
         class=""
         id="g3739"><path
           inkscape:connector-curvature="0"
           d="m 191.34706,327.5835 c -66.63199,0 -120.647992,-54.01333 -120.647992,-120.64666 0,-66.63067 54.016002,-120.647997 120.647992,-120.647997 66.632,0 120.64799,54.017327 120.64799,120.647997 0,66.63333 -54.01599,120.64666 -120.64799,120.64666 m 0,-248.97999 c -70.764,0 -128.334657,57.57067 -128.334657,128.33333 0,70.76399 57.570667,128.33465 128.334657,128.33465 70.764,0 128.33466,-57.57066 128.33466,-128.33465 0,-70.76266 -57.57067,-128.33333 -128.33466,-128.33333"
           style="fill:#ffffff;fill-opacity:1;fill-rule:nonzero;stroke:none;stroke-width:0"
           id="path3741" /></g><g
         style="stroke-width:0"
         class=""
         id="g3743"><path
           inkscape:connector-curvature="0"
           d="m 236.53705,252.8387 -6.69067,29.01066 -1.62133,7.02267 -7.20667,-0.003 -37.028,-0.0147 h -0.072 l -0.0733,-0.003 c -14.848,-0.248 -26.50266,-4.188 -34.148,-11.15867 6.60667,11.64 20.62133,18.388 40.19067,18.71067 h 0.0707 0.0747 l 37.02667,0.016 7.208,0.004 1.62,-7.02267 6.69066,-29.01066 -5.224,-11.088 z"
           style="fill:#ffffff;fill-opacity:1;fill-rule:nonzero;stroke:none;stroke-width:0"
           id="path3745" /></g><g
         style="stroke-width:0"
         class=""
         id="g3747"><path
           inkscape:connector-curvature="0"
           d="m 224.89838,128.44804 -5.284,-10.99733 -0.75734,3.44533 -5.024,22.868 h 7.70134 z"
           style="fill:#ffffff;fill-opacity:1;fill-rule:nonzero;stroke:none;stroke-width:0"
           id="path3749" /></g><g
         style="stroke-width:0"
         class=""
         id="g3751"><path
           inkscape:connector-curvature="0"
           d="m 251.63025,154.90189 -6.66933,28.22 -1.648,6.97333 h -7.164 -32.96134 l -10.19066,46.52533 c -0.21334,1.33067 -0.35334,2.68667 -0.35334,3.428 0,0.66933 0.0827,1.088 0.144,1.28533 0.24134,0.112 0.94134,0.36667 2.39334,0.41467 h 0.88933 3.5 l 9.66,-44.10133 h 32.95866 7.164 l 1.648,-6.97333 6.672,-28.22 -5.19466,-11.13867 z"
           style="fill:#ffffff;fill-opacity:1;fill-rule:nonzero;stroke:none;stroke-width:0"
           id="path3753" /></g><g
         style="stroke-width:0"
         class=""
         id="g3755"><path
           inkscape:connector-curvature="0"
           d="m 152.07092,190.09456 h -24.37866 -3.588 l 9.62933,7.552 h 16.68533 z"
           style="fill:#ffffff;fill-opacity:1;fill-rule:nonzero;stroke:none;stroke-width:0"
           id="path3757" /></g><g
         style="stroke-width:0"
         class=""
         id="g3759"><path
           inkscape:connector-curvature="0"
           d="m 196.0696,250.80482 h -1.02 c -7.792,-0.2 -11.46267,-4.25199 -11.46267,-10.756 0,-1.53866 0.25867,-3.59333 0.51333,-5.13199 l 11.80133,-53.876 h 40.248 l 6.66933,-28.22134 h -40.24666 l 7.44,-33.86666 h -32.83733 l -7.44267,33.86666 H 134.1056 l -6.41333,28.22134 h 35.62666 l -13.85466,63.36933 c -0.76934,3.07733 -1.02667,6.668 -1.02667,8.46533 0,18.08267 14.26267,26.56933 35.55867,26.92133 l 37.02666,0.0187 6.692,-29.01067 H 204.7496 Z"
           style="fill:#ffffff;fill-opacity:1;fill-rule:nonzero;stroke:none;stroke-width:0"
           id="path3761" /></g></g></g></svg>