<?xml version="1.0" encoding="UTF-8"?>
<svg width="257px" height="64px" viewBox="0 0 257 64" version="1.1" xmlns="http://www.w3.org/2000/svg" xmlns:xlink="http://www.w3.org/1999/xlink">
    <title>uma</title>
    <g id="uma" stroke="none" stroke-width="1" fill="none" fill-rule="evenodd">
        <g id="uma-uma-logo" fill="#FF4A4A" fill-rule="nonzero">
            <path d="M164.4,63.8 L153.6,63.8 C151.6,63.8 149.9,62.2 149.9,60.1 L149.9,31.7 L131,43.5 C129.4,44.5 127.4,44.5 125.8,43.5 L107,31.7 L107,60.1 C107,62.1 105.4,63.8 103.3,63.8 L92.6,63.8 C90.6,63.8 88.9,62.2 88.9,60.1 L88.9,60.1 L88.9,5.3 C88.9,2.6 91.1,0.4 93.8,0.4 C94.8,0.4 95.7,0.7 96.5,1.3 L126.3,21.8 C127.5,22.7 129.2,22.7 130.4,21.8 L160.2,1.3 C162.4,-0.2 165.5,0.4 167,2.6 C167.6,3.4 167.8,4.4 167.9,5.3 L167.9,60.1 C168,62.1 166.4,63.8 164.4,63.8 C164.4,63.8 164.4,63.8 164.4,63.8 Z" id="Path"></path>
            <path d="M72.8,63.7 L5.8,63.7 C3.1,63.7 0.9,61.5 0.9,58.8 C0.9,58.8 0.9,58.8 0.9,58.8 L0.9,3.7 C1,1.6 2.6,0 4.7,0 L15.5,0 C17.5,0 19.2,1.6 19.2,3.7 L19.2,3.7 L19.2,45.6 L59.8,45.6 L59.8,3.7 C59.8,1.7 61.4,0 63.5,0 L74,0 C76,0 77.7,1.6 77.7,3.7 L77.7,58.8 C77.7,61.5 75.5,63.7 72.8,63.7 L72.8,63.7 Z" id="Path"></path>
            <path d="M184.2,0 L251.2,0 C253.9,0 256.1,2.2 256.1,4.9 L256.1,60 C256.1,62 254.5,63.7 252.5,63.7 C252.5,63.7 252.5,63.7 252.5,63.7 L241.7,63.7 C239.7,63.7 238,62.1 238,60 C238,60 238,60 238,60 L238,20.5 C238,19.2 236.9,18.1 235.6,18.1 L235.6,18.1 L199.9,18.1 C198.6,18.1 197.5,19.2 197.5,20.5 C197.5,20.5 197.5,20.5 197.5,20.5 L197.5,60 C197.5,62 195.9,63.7 193.8,63.7 L183,63.7 C181,63.7 179.3,62.1 179.3,60 C179.3,60 179.3,60 179.3,60 L179.3,4.9 C179.3,2.2 181.5,0 184.2,0 C184.2,0 184.2,0 184.2,0 L184.2,0 Z" id="Path"></path>
            <path d="M212.3,29.7 L223,29.7 C225,29.7 226.7,31.3 226.7,33.4 L226.7,44.3 C226.7,46.3 225.1,48 223,48 L212.3,48 C210.3,48 208.6,46.4 208.6,44.3 L208.6,33.3 C208.6,31.3 210.3,29.7 212.3,29.7 Z" id="Path"></path>
        </g>
    </g>
</svg>