<?xml version="1.0" encoding="utf-8"?>
<!-- Generator: Adobe Illustrator 24.1.2, SVG Export Plug-In . SVG Version: 6.00 Build 0)  -->
<svg version="1.1" id="Capa_1" xmlns="http://www.w3.org/2000/svg" xmlns:xlink="http://www.w3.org/1999/xlink" x="0px" y="0px" width="32px" height="32px"
	 viewBox="0 0 32 32" style="enable-background:new 0 0 32 32;" xml:space="preserve">
<style type="text/css">
	.st0{fill:#2775CA;}
	.st1{fill:#FFFFFF;}
</style>
<path class="st0" d="M16,32c8.9,0,16-7.1,16-16S24.9,0,16,0S0,7.1,0,16S7.1,32,16,32z"/>
<path class="st1" d="M20.4,18.5c0-2.3-1.4-3.1-4.2-3.5c-2-0.3-2.4-0.8-2.4-1.7c0-0.9,0.7-1.5,2-1.5c1.2,0,1.9,0.4,2.2,1.4
	c0.1,0.2,0.3,0.3,0.5,0.3h1.1c0.3,0,0.5-0.2,0.5-0.5V13c-0.3-1.5-1.5-2.6-3-2.7V8.7c0-0.3-0.2-0.5-0.5-0.5h-1
	c-0.3,0-0.5,0.2-0.5,0.5v1.5c-2,0.3-3.3,1.6-3.3,3.3c0,2.2,1.3,3.1,4.1,3.4c1.9,0.3,2.5,0.7,2.5,1.8s-0.9,1.8-2.2,1.8
	c-1.7,0-2.3-0.7-2.5-1.7c-0.1-0.3-0.3-0.4-0.5-0.4h-1.1c-0.3,0-0.5,0.2-0.5,0.5v0.1c0.3,1.7,1.3,2.9,3.5,3.2v1.6
	c0,0.3,0.2,0.5,0.5,0.5h1c0.3,0,0.5-0.2,0.5-0.5v-1.6C19.1,21.7,20.4,20.3,20.4,18.5L20.4,18.5z"/>
<path class="st1" d="M12.6,25.5c-5.2-1.9-7.9-7.7-5.9-12.8c1-2.8,3.2-4.9,5.9-5.9C12.9,6.7,13,6.5,13,6.1V5.2c0-0.3-0.1-0.5-0.4-0.5
	c-0.1,0-0.2,0-0.3,0.1c-6.3,2-9.8,8.7-7.8,15.1c1.2,3.7,4.1,6.6,7.8,7.8c0.3,0.1,0.5,0,0.6-0.3c0.1-0.1,0.1-0.1,0.1-0.3v-0.9
	C13,25.9,12.8,25.7,12.6,25.5z M19.7,4.7c-0.3-0.1-0.5,0-0.6,0.3C19,5.1,19,5.1,19,5.3v0.9c0,0.3,0.2,0.5,0.4,0.7
	c5.2,1.9,7.9,7.7,5.9,12.8c-1,2.8-3.2,4.9-5.9,5.9c-0.3,0.1-0.4,0.3-0.4,0.7v0.9c0,0.3,0.1,0.5,0.4,0.5c0.1,0,0.2,0,0.3-0.1
	c6.3-2,9.8-8.7,7.8-15.1C26.3,8.8,23.3,5.9,19.7,4.7L19.7,4.7z"/>
</svg>
