<?xml version="1.0" encoding="utf-8"?>
<!-- Generator: Adobe Illustrator 24.1.2, SVG Export Plug-In . SVG Version: 6.00 Build 0)  -->
<svg version="1.1" id="Layer_1" xmlns="http://www.w3.org/2000/svg" xmlns:xlink="http://www.w3.org/1999/xlink" x="0px" y="0px" width="32px" height="32px"
	 viewBox="0 0 32 32" style="enable-background:new 0 0 32 32;" xml:space="preserve">
<style type="text/css">
	.st0{fill-rule:evenodd;clip-rule:evenodd;fill:#50AF95;}
	.st1{fill-rule:evenodd;clip-rule:evenodd;fill:#FFFFFF;}
</style>
<g>
	<path class="st0" d="M5.9,2.3L0,14.4c0,0.1,0,0.2,0.1,0.3l15.8,15.1c0.1,0.1,0.2,0.1,0.3,0l15.8-15.1c0.1-0.1,0.1-0.2,0.1-0.3
		L26,2.3c0-0.1-0.1-0.2-0.2-0.2H6.1C6,2.1,5.9,2.2,5.9,2.3L5.9,2.3z"/>
	<path class="st1" d="M18.1,15.7L18.1,15.7c-0.1,0-0.7,0-2,0c-1,0-1.8,0-2,0l0,0c-4-0.2-7-0.9-7-1.7c0-0.9,3-1.6,7-1.7v2.7
		c0.3,0,1,0.1,2,0.1c1.2,0,1.9-0.1,2-0.1v-2.7c4,0.2,7,0.9,7,1.7S22.1,15.5,18.1,15.7L18.1,15.7L18.1,15.7z M18.1,11.9V9.5h5.6V5.9
		H8.5v3.7h5.6V12c-4.5,0.2-8,1-8,2.1s3.4,2,7.9,2.2v7.8h4v-7.8c4.5-0.2,7.9-1.1,7.9-2.2S22.7,12.2,18.1,11.9L18.1,11.9L18.1,11.9z
		 M18.1,11.9L18.1,11.9z"/>
</g>
</svg>
