<?xml version="1.0" encoding="UTF-8"?>
<svg width="139px" height="133px" viewBox="0 0 139 133" version="1.1" xmlns="http://www.w3.org/2000/svg" xmlns:xlink="http://www.w3.org/1999/xlink">
    <title>wbtc</title>
    <g id="wbtc" stroke="none" stroke-width="1" fill="none" fill-rule="evenodd">
        <g id="wrapped-bitcoin-wbtc-logo" transform="translate(12.000000, 10.000000)" fill-rule="nonzero">
            <path d="M89.09,22.93 L86.09,25.93 C100.927667,42.1560445 100.927667,67.0239555 86.09,83.25 L89.09,86.25 C105.597827,68.3441877 105.597827,40.7658123 89.09,22.86 L89.09,22.93 Z" id="Shape" fill="#5A5564"></path>
            <path d="M26,23.19 C42.2260445,8.35233348 67.0939555,8.35233348 83.32,23.19 L86.32,20.19 C68.4141877,3.68217324 40.8358123,3.68217324 22.93,20.19 L26,23.19 Z" id="Shape-2" fill="#5A5564"></path>
            <path d="M23.19,83.28 C8.3706134,67.0583667 8.3706134,42.2116333 23.19,25.99 L20.19,22.99 C3.68217324,40.8958123 3.68217324,68.4741877 20.19,86.38 L23.19,83.28 Z" id="Shape-3" fill="#5A5564"></path>
            <path d="M83.28,86.05 C67.0539555,100.887667 42.1860445,100.887667 25.96,86.05 L22.96,89.05 C40.8658123,105.557827 68.4441877,105.557827 86.35,89.05 L83.28,86.05 Z" id="Shape-4" fill="#5A5564"></path>
            <path d="M73.57,44.62 C72.97,38.36 67.57,36.26 60.74,35.62 L60.74,27 L55.46,27 L55.46,35.46 C54.07,35.46 52.65,35.46 51.24,35.46 L51.24,27 L46,27 L46,35.68 L35.29,35.68 L35.29,41.33 C35.29,41.33 39.19,41.26 39.13,41.33 C40.5916106,41.1692078 41.9179842,42.1949367 42.13,43.65 L42.13,67.41 C42.0996459,67.908789 41.8688017,68.3740843 41.49,68.7 C41.11825,69.0321824 40.6270663,69.1983181 40.13,69.16 C40.2,69.22 36.29,69.16 36.29,69.16 L35.29,75.47 L45.9,75.47 L45.9,84.29 L51.18,84.29 L51.18,75.6 L55.4,75.6 L55.4,84.25 L60.69,84.25 L60.69,75.53 C69.61,74.99 75.83,72.79 76.61,64.44 C77.24,57.72 74.08,54.72 69.03,53.51 C72.1,52 74,49.2 73.57,44.62 Z M66.17,63.4 C66.17,69.96 54.93,69.21 51.35,69.21 L51.35,57.57 C54.93,57.58 66.17,56.55 66.17,63.4 Z M63.72,47 C63.72,53 54.34,52.27 51.36,52.27 L51.36,41.69 C54.34,41.69 63.72,40.75 63.72,47 Z" id="Shape-5" fill="#F09242"></path>
            <path d="M54.62,109.260001 C24.4512883,109.254477 -0.00183994169,84.7953794 1.01712846e-06,54.6266673 C0.00184197594,24.4579552 24.4579552,0.00184197594 54.6266673,1.01712846e-06 C84.7953794,-0.00183994169 109.254477,24.4512883 109.260001,54.62 C109.262653,69.1122422 103.506807,83.0116815 93.2592444,93.2592444 C83.0116815,103.506807 69.1122422,109.262653 54.62,109.260001 Z M54.62,4.25998408 C26.8258072,4.28208738 4.30896682,26.8257821 4.32000389,54.6199815 C4.33104908,82.4141808 26.8657932,104.939984 54.6599947,104.939984 C82.4541963,104.939984 104.988949,82.4141994 105.000004,54.62 C105.005313,41.2586035 99.6985021,28.4432215 90.2486918,18.9971626 C80.7988815,9.55110369 67.9813933,4.24938202 54.62,4.25998408 Z" id="Shape-6" fill="#282138"></path>
        </g>
    </g>
</svg>