<svg id="Слой_1" data-name="Слой 1" xmlns="http://www.w3.org/2000/svg" viewBox="0 0 119.3 120"><defs><style>.cls-1{fill:#5783cb}</style></defs><title>WaykiChain (WICC)</title><path class="cls-1" d="M56.2,0h6.2A57.92,57.92,0,0,1,98.8,15.2c1.7,1.1,1.7,3.8-.3,4.5-1.7.4-3-1.1-4.3-2a53.7,53.7,0,0,0-74,8.6,52.5,52.5,0,0,0,58,82.7,54,54,0,0,0,35.2-40,65.94,65.94,0,0,0,1.7-11.1,2.11,2.11,0,0,1,4.2.4l-.2,6.2a58.3,58.3,0,0,1-17.2,38.3,59.6,59.6,0,0,1-39,17.2H57A60.1,60.1,0,0,1,0,62.8V57.2A60.3,60.3,0,0,1,56.2,0Z"/><path class="cls-1" d="M105,31.1c4-4.4,12.3-2,13.2,3.9,1.3,5.3-3.8,9.8-9,9.4-6.9,7-12.4,15.3-17.1,24-1.9,2.6.5,6-1,8.7-1.8,5.3-9.6,6.4-13,2-2.5-2.8-1.8-6.7-.5-9.8a40.42,40.42,0,0,0-7.5-10.7l-3,.1A96.4,96.4,0,0,0,51,83c.7,2.7,1.2,5.9-.7,8.3-2.5,4.1-9.1,4.5-12.2.7-2.3-2.6-2-6.3-.8-9.4a94,94,0,0,0-14.6-26c-3.9-.2-8-2.5-8.5-6.6-1.3-5.6,5.1-11,10.4-8.5,4.7,1.7,6,7.7,3.7,11.8A95.7,95.7,0,0,0,44,79.7,84.77,84.77,0,0,0,61.3,55c-.8-2.7-1.3-5.8.5-8.3,2.7-4.4,9.9-4.5,12.7-.1,2.1,2.7,1.4,6.3.2,9.2A42,42,0,0,0,82,66.6l3-.2c7.3-7.7,14-16.2,18.5-25.9-.5-3.2-1.1-7,1.6-9.4Z"/></svg>