<svg xmlns="http://www.w3.org/2000/svg" viewBox="0 0 350 350"><title>Asset 1</title><g id="Layer_2" data-name="Layer 2"><g id="Layer_2-2" data-name="Layer 2"><circle cx="175" cy="175" r="175" style="fill:#fff"/><path d="M242.28,111.58c-2.57-3.5-6.76-6.35-12.5-8.56s-13.63-3.32-23.63-3.32H185l17.17-47.17,11.45-31.45a158.48,158.48,0,0,0-35.16-4.69h0c-1.16,0-2.31-.09-3.48-.09-1.8,0-3.59.08-5.37.14C84.6,19.29,16.3,89.3,16.3,175A158.32,158.32,0,0,0,70.42,294.21L82.85,260a125,125,0,0,1-33.32-85c0-63.11,46.84-115.46,107.58-124.17,3-.44,6.1-.75,9.19-1h0L120.48,175.75l91.41-9a.94.94,0,0,0-.15-.06,41.51,41.51,0,0,0,8.17-3.64,59.56,59.56,0,0,0,9-6.32,56.05,56.05,0,0,0,8.29-8.66,40.73,40.73,0,0,0,6.09-11.13A42.76,42.76,0,0,0,246,123.56,18.63,18.63,0,0,0,242.28,111.58Zm-39,30.7c-2,5.42-5.1,9.24-9.41,11.45a28.34,28.34,0,0,1-13.08,3.32H164.31l11.06-30.39h16.48a22.55,22.55,0,0,1,5.82.75,10.72,10.72,0,0,1,4.67,2.46,7.54,7.54,0,0,1,2.21,4.82A16.92,16.92,0,0,1,203.28,142.28Z" style="fill:#263238"/><path d="M221.67,23.31l-11.4,31.3a125.46,125.46,0,1,1-84,236c-2.57-1.09-5.08-2.29-7.56-3.54l13-35.65h21.13q28.68,0,47.09-9.74t26.21-31.13c1.92-5.28,2.62-9.92,2.06-13.91a25.26,25.26,0,0,0-3.53-10.27,22.33,22.33,0,0,0-6.71-6.86,38.68,38.68,0,0,0-6.7-3.46L119,185.15,89.33,266.54,77.21,299.85a159.48,159.48,0,0,0,30.07,18.64q3.77,1.77,7.62,3.35A157.82,157.82,0,0,0,175,333.7c87.51,0,158.7-71.19,158.7-158.7C333.7,103.73,286.47,43.29,221.67,23.31ZM154,190.65h19.26a39.21,39.21,0,0,1,6.84.65,16.35,16.35,0,0,1,6.19,2.35,8.56,8.56,0,0,1,3.52,5q.93,3.31-1,8.66a25.22,25.22,0,0,1-5.49,9.21,23.88,23.88,0,0,1-7.22,5.13,28.23,28.23,0,0,1-7.87,2.25,55.47,55.47,0,0,1-7.26.53H141.67Z" style="fill:#20af65"/></g></g></svg>