<svg id="Слой_1" data-name="Слой 1" xmlns="http://www.w3.org/2000/svg" viewBox="0 0 256 256"><defs><style>.cls-1{fill:#f60}.cls-2{fill:#4c4c4c}</style></defs><title>Unknownnn-2</title><path class="cls-1" d="M280,152A128,128,0,1,1,49.23,75.67L70.16,96.6a98.84,98.84,0,1,0,163.68,0l20.92-20.92A127.38,127.38,0,0,1,280,152" transform="translate(-24 -24)"/><path class="cls-2" d="M222.84,152A70.84,70.84,0,1,1,90.46,116.91L152,178.44l61.53-61.53A70.71,70.71,0,0,1,222.84,152" transform="translate(-24 -24)"/><path class="cls-1" d="M235.69,55.15,152,138.84,88.23,75.07h0L68.3,55.15a128,128,0,0,1,167.39,0" transform="translate(-24 -24)"/></svg>