<?xml version="1.0" encoding="UTF-8"?>
<svg width="50px" height="50px" viewBox="0 0 50 50" version="1.1" xmlns="http://www.w3.org/2000/svg" xmlns:xlink="http://www.w3.org/1999/xlink">
    <title>yfi</title>
    <g id="yfi" stroke="none" stroke-width="1" fill="none" fill-rule="evenodd">
        <g id="yearn-finance-yfi-logo">
            <path d="M25,0 C38.805,0 50,11.195 50,25 C50,38.805 38.805,50 25,50 C11.195,50 0,38.805 0,25 C0,11.195 11.195,0 25,0 Z" id="SVGID" fill="#006AE3"></path>
            <g id="Group" transform="translate(14.550000, 8.545488)" fill="#FFFFFF" fill-rule="nonzero">
                <polygon id="SVGID-2" points="9.42 26.9945117 9.42 6.19451169 11.685 6.19451169 11.685 26.9945117"></polygon>
                <path d="M20.95,13.1245117 L13.955,14.9795117 L12.395,7.71951169 L14.475,7.24951169 L15.295,10.6895117 C15.295,10.6895117 17.185,7.58951169 14.665,4.37951169 C13.18,2.72951169 12.475,2.65951169 10.81,2.39951169 C9.345,2.18951169 5.94,2.68451169 4.925,6.65951169 C4.495,9.21951169 4.98,11.1145117 8.28,13.5945117 L8.095,16.3545117 C8.095,16.3545117 4.41,13.7595117 3.46,11.9395117 C2.725,10.4995117 1.465,7.65451169 3.74,3.69451169 C4.965,1.71451169 7.38,-0.185488311 11.635,0.0145116892 C13.775,0.104511689 19,2.71951169 18.19,8.82951169 C18.05,9.97451169 17.455,11.4995117 17.455,11.4995117 L20.325,10.8595117 L20.95,13.1245117 Z" id="SVGID-3"></path>
                <path d="M16.955,29.3995117 C15.675,31.3445117 13.21,33.1795117 8.965,32.8695117 C6.825,32.7245117 1.675,29.9695117 2.645,23.8845117 C2.815,22.7445117 3.45,21.2395117 3.45,21.2395117 L0.565,21.7995117 L5.32907052e-15,19.5245117 L7.045,17.8545117 L8.415,25.1545117 L6.32,25.5695117 L5.59,22.1045117 C5.59,22.1045117 3.62,25.1495117 6.05,28.4295117 C7.49,30.1195117 8.19,30.2045117 9.855,30.5095117 C11.31,30.7595117 14.73,30.3495117 15.85,26.4045117 C16.345,23.8595117 15.91,21.9495117 12.68,19.3795117 L12.94,16.6245117 C12.94,16.6245117 16.555,19.3145117 17.455,21.1595117 C18.145,22.6245117 19.33,25.5045117 16.955,29.3995117 L16.955,29.3995117 Z" id="SVGID-4"></path>
            </g>
        </g>
    </g>
</svg>