<svg id="Слой_1" data-name="Слой 1" xmlns="http://www.w3.org/2000/svg" viewBox="0 0 738.58 984.98"><defs><style>.cls-1{fill:#198d9e;}.cls-2{fill:#07bc9c;}.cls-3{fill:#fff;}.cls-4{fill:#09d9b7;}.cls-5{fill:#07f0c3;}.cls-6{fill:#0d2434;}.cls-7{fill:#80f7e1;}.cls-8{fill:#05ffca;}</style></defs><title>ZestCoin (ZEST)</title><path class="cls-1" d="M665,20.47l4.52,1.15a207.84,207.84,0,0,1,54.85,32.81,180.42,180.42,0,0,1,57.25,86c2.89,10.3,5.39,20.69,5.77,31.27a292.9,292.9,0,0,0-44.17,9.33c-5.39,1.06-10.49,3.66-16,4.52-7.6-35.6-28.58-67.93-56.77-90.93-4-3.18-8.08-6.54-12.7-8.95,3.85,2,5.77,6.16,8.76,9.14A200.78,200.78,0,0,1,705,167.59c1.73,6.93,4.14,13.66,4.52,20.78-4-.38-7.7-2-11.55-2.89A159.09,159.09,0,0,0,676.84,182c-8.08.1-16.17-.77-24.06,1a136.35,136.35,0,0,0-52.06,18.86,181.94,181.94,0,0,1-5.39-33.68c-1.44-8.47-.58-17.13-.67-25.79.87-5.29,1-10.58,1.92-16a162.81,162.81,0,0,1,64.18-106c.38-.48,4.14-.48,4.23,0Zm75.05,173.58A137.6,137.6,0,0,1,792.3,177.5c13.37-.58,26.94-.58,39.93,2.6a135.58,135.58,0,0,1,49.55,22.61v10.87a186,186,0,0,1-34.64,49.07c-8.95,8.18-20.3,15.78-33,14a276.77,276.77,0,0,0-29-36.28c-1.25-2.21,1.35-3.18,2.79-4.23,16.26-10.58,35.41-15.88,54.46-18.57l-.77-1.15c-8.95-2.5-18.28-1.64-27.33-1.54a122.15,122.15,0,0,0-37.82,11.55c-1.54.58-3.75,2.12-5.2.48a193.24,193.24,0,0,0-38.58-27.9c1.73-2.5,4.81-3.46,7.31-5Z" transform="translate(-143.21 -20.01)"/><path class="cls-1" d="M638.83,198c21-6.06,43.49-3.46,64,3.08,17.61,5.77,34.06,14.43,49.36,24.73a143.56,143.56,0,0,1,40.32,39.74A86.12,86.12,0,0,1,806.16,304c.1,8.85.48,18.28-3.08,26.56-6.25,3.27-13.66,1.92-20.4,2.21-8.85.29-17.32-3-25.11-6.54-21.84-10.39-40.41-26-59.18-41-15.88-12.61-31.66-25.88-50-35-5.2-3.56-11.55-5-17.7-6.45a31.37,31.37,0,0,0-22.8,2.79,28.58,28.58,0,0,0-12.41,17.22c-.38,1.15.1,2.31.38,3.46-4,1.92-7.51-2.6-10.3-4.91,1.25-12.51,6.16-24.44,12.89-34.93a71.49,71.49,0,0,1,40.41-29.54Z" transform="translate(-143.21 -20.01)"/><path class="cls-2" d="M555.6,263.43c9.72-2.5,20-1.54,29.93-1.06,2.79,2.31,6.25,6.93,10.3,4.91l6.64,2.21a57.06,57.06,0,0,1,23.48,14.34,86.6,86.6,0,0,1,21.55,40.32c1,3.95,3.08,7.6,4.71,11.35,2.79,5.48,5.39,11.26,9.24,16.17a278,278,0,0,0,31.66,41.86,355.36,355.36,0,0,1,35.79,51.09,23.48,23.48,0,0,0,3.37,7.22,392.29,392.29,0,0,1,23.48,50.42c2,5.77,4.62,11.55,6.06,17.61-2.41-.77-4.14-3.56-6.83-3a397.82,397.82,0,0,0-72.07-30.21c0-4.52-2.6-8.47-4-12.51-1.92-5.48-4.81-10.49-6.74-15.88-2.21-6.16-6.16-11.55-9.33-17.32a253.64,253.64,0,0,0-33.2-45.61c-7-6.16-12.8-13.47-19.92-19.53a230,230,0,0,0-131.73-56.1c-3.27-5.77-10.3-8.28-16.74-7.7a30.21,30.21,0,0,0-21.84,7.6c-10-.29-19.92,1.64-29.83,3.37-7.89,1.64-15.78,3.37-23.57,5.77a280,280,0,0,0-58,25.21c-6-1.54-11.93-2.89-17.8-4.81A323.59,323.59,0,0,1,348,329.34c7.6-2.41,14.63-6.06,22.13-8.66A379.36,379.36,0,0,1,432.43,303c15.78-3,31.95-3.95,47.53-8.28,7.41-1.44,14.43-4.14,21.65-6.25,11.45-4.14,23-8.66,32.43-16.55a100.14,100.14,0,0,1,21.36-8.56ZM177,498.79a310.8,310.8,0,0,1,64.47-96.32c.48,7-1,14-2.31,20.88-1.64,7.41-1.64,15-3.46,22.32-.19-3.95.38-8,.29-11.93-8.08,8.66-14,18.86-20.69,28.48a350.63,350.63,0,0,0-39.74,88.24,155.46,155.46,0,0,0-4.52,17.8c-.87,4.81-2.89,9.24-3.85,14-1.25,7.89-2.89,15.78-3.66,23.86-1.92,14.24-1.92,28.58-2.12,42.91.29,8.18,0,16.36.67,24.44a306,306,0,0,0,31.27,112.87,254.22,254.22,0,0,0,60.91,77.75,231.76,231.76,0,0,0,97.38,49.65c13.86,2.89,27.9,5.77,42.24,5.58,4.62-.19,9.33.87,14,.29,5.58-.67,11.26,0,16.84-.48,16.36-1.73,32.72-3.66,48.5-8.47,34.93-9.91,67.64-26.94,96.51-48.88,9.72-7.79,19.63-15.59,28.1-24.83,4.14-4.52,9.14-8.28,13.09-13a320.84,320.84,0,0,0,31.37-39.84c7.6-11.35,14.72-23.09,20.3-35.6a250.18,250.18,0,0,0,18-40.41c1.06-3.46,3.37-6.74,2.31-10.49A116.14,116.14,0,0,0,729.66,663a337.26,337.26,0,0,0,36-51.29,58.69,58.69,0,0,1,12.61-14.91c.1,2.79,0,5.58.29,8.37,1,8,.58,16.07.67,24.06.19,5.77-1.35,11.55-1.06,17.32-.67,8.66-1.92,17.32-3.08,26-1.83,7-2.41,14.43-4.43,21.46a334.75,334.75,0,0,1-12.32,40.89c-4.81,11.93-8.66,24.15-14,35.89a313.88,313.88,0,0,1-74.67,104.4,256.91,256.91,0,0,1-21.36,18.28c-3.27,1.64-6.06,4-9,6.16a383.44,383.44,0,0,1-137.6,61.87c-16.36,4.43-33.39,5.29-50,8.76a226.12,226.12,0,0,0-44.65,13.57,75.35,75.35,0,0,0-12.61,6.74l-8.76,5.77c-3.18.58-5.77,2.5-8.85,3.56a71,71,0,0,1-15.4,4.14,55,55,0,0,0-8.85.77c-4.43.67-8.85-.87-13.28-.58-7,.1-13-4.43-19.63-6.16-7.22-1.92-13.66-5.87-19.44-10.58A81.79,81.79,0,0,1,274.34,944c-2.6-8.56-6.93-16.36-11.26-24.15-9.62-17.32-21.94-32.91-35.12-47.73A381.81,381.81,0,0,1,157,739q-5.07-17.61-8.66-35.6c-.1-3.66-1.25-7-1.54-10.58-1.73-9.24-1.92-18.67-3.27-27.9-.29-10.3-.48-20.5-.29-30.79.19-12.32,1.92-24.44,3.18-36.56,1.06-3.75,1.44-7.7,2.21-11.35a319.45,319.45,0,0,1,9.53-36.76l2.79-8.66c5.39-14,10.2-28.19,16.07-42Z" transform="translate(-143.21 -20.01)"/><path class="cls-3" d="M439.46,319.72A30.21,30.21,0,0,1,461.3,312c6.45-.48,13.47,1.92,16.74,7.79.29,2.69.77,5.58-.38,8.08a22.26,22.26,0,0,1-8.85,9,49.75,49.75,0,0,1-6.25,2.89c-5.77.77-11.55.48-17.32.58a17,17,0,0,1-9-5.48C432.92,329.82,435.22,323.37,439.46,319.72Z" transform="translate(-143.21 -20.01)"/><path class="cls-4" d="M409.73,323.09c9.81-1.73,19.73-3.66,29.83-3.37-4.23,3.75-6.64,10.1-3.37,15.2-5.77,1.92-12.12.67-18.28,1.92-12.51,2-25.31,3.85-37.24,8.66a244,244,0,0,0-29.73,11.74c-1.35.58-2.12,1.92-3,2.89-6.54-2.21-13.28-4-19.92-6.06a280,280,0,0,1,58-25.21A242.57,242.57,0,0,1,409.73,323.09ZM478,319.81a230,230,0,0,1,131.73,56.1c7.12,6,12.89,13.37,19.92,19.53a256.14,256.14,0,0,1,33.2,45.71c3.18,5.77,7.12,11.07,9.43,17.32,1.92,5.29,4.81,10.3,6.74,15.68,1.35,4.14,3.85,8.08,3.95,12.51a416.26,416.26,0,0,0-44.74-11c-6.54-1.54-13.47-.38-20.11-1.35l-6.93-.58c4.43-1.25,9-.67,13.57-.77-3.08-10.49-7.7-20.4-12.7-30.12a200.62,200.62,0,0,0-45.9-59.95,184.07,184.07,0,0,0-81.79-42.34c-5.2-1.25-10.68-1.35-15.59-3.66a22.26,22.26,0,0,0,8.85-9c1.15-2.5.67-5.39.38-8.08ZM215.36,462.22C222,452.6,228,442.4,236,433.74c.1,3.95-.48,8-.29,11.93a88.49,88.49,0,0,1-1,12.32c-.48,11.74-.67,23.38,0,35.12-.58-1-1.54-1.92-1.54-3.27-.29-4.52,0-9-.38-13.47A67,67,0,0,1,229.5,486c-6.74,14-11.55,29-15.68,44.07-2.12,9.62-4.81,19.15-5.77,29-1,10.58-2.89,21.17-2.89,31.75,0,9.62-.48,19.24.77,28.87.77,21.55,5.48,42.72,12.51,63.12,2.79,7,5.1,14.24,8.66,21,7.7,16.26,16.84,31.85,28.58,45.51,6.45,8.28,14.24,15.2,21.65,22.61a193.41,193.41,0,0,0,44.17,29,200.14,200.14,0,0,0,41,13.66c9.33,1.35,18.76,2.79,28.19,3.08,11.16,1.44,22.42,0,33.49-1,10-1.06,19.82-3.27,29.64-5.29a230,230,0,0,0,79.29-40c7.51-5.48,14.24-12,21.17-18.09a275.31,275.31,0,0,0,38-45.9c2.69-4.33,5.68-8.56,7.79-13.18a119.68,119.68,0,0,0,36.37,9.62,194.18,194.18,0,0,0,21.17,0,91.71,91.71,0,0,0,25.31-6.06c1.06,3.66-1.25,7-2.31,10.39a250.17,250.17,0,0,1-18,40.61c-5.58,12.51-12.7,24.15-20.3,35.6A332.35,332.35,0,0,1,610.93,824c-3.85,4.81-8.95,8.47-13.09,13-8.47,9.24-18.28,17-28.1,24.83-28.87,21.94-61.58,39-96.51,48.88-15.78,4.81-32.23,6.74-48.5,8.47-5.58.48-11.26-.19-16.84.48-4.62.58-9.33-.48-14-.38-14.34.29-28.39-2.6-42.24-5.48-35.79-8.66-69.57-25.5-97.38-49.65a254.22,254.22,0,0,1-60.91-77.75,305.41,305.41,0,0,1-31.27-112.87c-.77-8.08-.38-16.36-.67-24.44.19-14.34.1-28.67,2-42.91.77-8.08,2.5-16,3.85-23.86.77-4.81,2.89-9.33,3.85-14a124.42,124.42,0,0,1,4.33-17.9,350.63,350.63,0,0,1,39.74-88.24Z" transform="translate(-143.21 -20.01)"/><path class="cls-5" d="M436.28,334.92a15.9,15.9,0,0,0,8.95,5.48c5.29,3,11.93,1.44,17.32-.58,2.12-.87,4.14-1.83,6.16-2.89,5,2.31,10.49,2.41,15.68,3.75a183.26,183.26,0,0,1,81.79,42.24,200.62,200.62,0,0,1,45.9,59.95c5,9.62,9.62,19.63,12.7,30.12-4.52,0-9.14-.48-13.57.77-24.25-2.21-48.69-4.91-72.17-11.16l2-1.92a162.61,162.61,0,0,0-11.74-36.08c-6.45-12.22-14.14-24-24.34-33.39a108.73,108.73,0,0,0-77.65-31.75c-16.65-.29-33,3.85-48.4,10.1l1.15,1.54-2.41.19q-14.69-6.12-29.83-11.07c1-1.15,1.73-2.41,3.08-2.89a219.89,219.89,0,0,1,29.73-11.84c11.93-4.81,24.73-6.64,37.33-8.66,6.06-1.25,12.32,0,18.28-1.92ZM232.87,476.37c.38,4.43.1,8.95.38,13.47,0,1.25,1,2.21,1.44,3.27,2.21,23.29,11.55,46.38,28.29,63a113.73,113.73,0,0,0,46.57,28.67,38.79,38.79,0,0,0-4.81.48,209.76,209.76,0,0,0,14,19.92,109.69,109.69,0,0,0,53.11,34.54c9.91,3.27,20.4,4.14,30.69,4.81a137.37,137.37,0,0,0,33.68-4.71,144.33,144.33,0,0,0,40.22-19.44,153.28,153.28,0,0,0,29.25-27.52c1.92-2.69,5.2-5.2,4.52-8.85-.48-9.33-.48-18.57-.48-27.9a18.48,18.48,0,0,1,1.06-5.2c.29,10.78-.58,21.65,1,32.43a131.1,131.1,0,0,0,22,60.91A122.2,122.2,0,0,0,567,676.51c10.39,7,21.84,12,33,17.61-2.12,4.62-5.1,8.85-7.79,13.18a276.45,276.45,0,0,1-37.91,45.9c-7,6.06-13.76,12.51-21.27,18.09a230,230,0,0,1-79.38,40c-9.72,2-19.53,4.23-29.54,5.29-11.07,1-22.32,2.41-33.49,1-9.43-.29-18.86-1.73-28.19-3.08a200.14,200.14,0,0,1-41-13.66,193.41,193.41,0,0,1-44.26-29c-7.31-7.41-15.11-14.43-21.55-22.61a199.37,199.37,0,0,1-28.48-45.51c-3.66-6.74-6-14-8.76-21.07a221,221,0,0,1-12.51-63c-1.25-9.62-.77-19.24-.87-28.87,0-10.58,1.92-21.17,3-31.75,1-9.81,3.66-19.44,5.77-29a283,283,0,0,1,15.59-44.17,45.76,45.76,0,0,0,3.46-9.62Z" transform="translate(-143.21 -20.01)"/><path class="cls-6" d="M231.62,365.62c3.56-8.47,6.54-17.22,9.91-25.79,23.29-.19,46.19,4.52,68.7,9.43,5.77,1.92,11.84,3.27,17.8,4.81a399.61,399.61,0,0,1,101.71,43.88c14.63,11.55,29.35,22.8,44.84,33.1,20,13.18,41,25.69,64.47,31.56a435.6,435.6,0,0,0,79.09,11.74c6.74,1,13.47-.19,20.21,1.35A420,420,0,0,1,683,486.76c24.92,7.79,55.81,19.92,78.71,32.52A408.77,408.77,0,0,1,813,553.83a2.42,2.42,0,0,1,1,3.08c-2.21,6.74-7.22,19.24-7.31,18.57-1,2.89-1.92,5.77-2.69,8.76-2.69.67-5.39,1-8,1.64-6.74,2.12-12.51,6.16-17.61,11a58.7,58.7,0,0,0-12.51,14.91,337.26,337.26,0,0,1-36.08,51.19,116.14,116.14,0,0,1-46.86,34.74,92.85,92.85,0,0,1-25.4,6.06,192.42,192.42,0,0,1-21.07,0,118.37,118.37,0,0,1-36.28-9.62c-11.16-5.58-22.71-10.58-33.1-17.61a122.2,122.2,0,0,1-33.2-32.23,130.57,130.57,0,0,1-22-60.91c-1.54-10.78-.67-21.65-1-32.43,1.35-15.49,3.56-31.18,9-45.8.87-4,3.37-8.08,1.92-12.32-1.35-5.48-6.74-9.91-12.41-9.43-4.91-.19-9.14,3.46-11.16,7.7-3.37,7.22-5.87,14.82-10,21.55a172.62,172.62,0,0,1-64.66,67.07,118.33,118.33,0,0,1-48.88,14.72,78,78,0,0,1-21.17-.19c-15-.77-29.54-5.48-44-9.43-17.42-5.77-33.87-15.3-46.57-28.67a102.48,102.48,0,0,1-28.29-63c-.58-11.74-.38-23.38.1-35.12a88.49,88.49,0,0,0,1-12.32c1.83-7.31,1.92-14.91,3.46-22.32,1.44-6.83,2.89-13.86,2.31-20.88.19-11.16-1.54-23.38-9.62-31.75-1.64-1.25-1-3.37-.29-5Z" transform="translate(-143.21 -20.01)"/><path class="cls-7" d="M445.23,340.41c5.77,0,11.55.19,17.32-.58C457.16,341.75,450.52,343.39,445.23,340.41Z" transform="translate(-143.21 -20.01)"/><path class="cls-8" d="M378.93,369.46c15.4-6.06,31.75-10.3,48.4-9.91A108.73,108.73,0,0,1,505,391.31c10.2,9.33,17.9,21.17,24.34,33.29a162.61,162.61,0,0,1,11.84,36.28L539,462.8c-23.38-6-44.36-18.47-64.37-31.75q-23.09-15.58-44.84-33a385.85,385.85,0,0,0-52.06-26.65l2.41-.1-1.15-1.64ZM498.25,491.09c2-4.23,6.25-7.89,11.16-7.7,5.77-.48,11.07,3.95,12.41,9.43,1.44,4.23-1.06,8.28-1.92,12.32-5.48,14.63-7.7,30.21-9,45.71a16.59,16.59,0,0,0-1,5.29c-.1,9.33,0,18.57.38,27.9.67,3.66-2.5,6.16-4.52,8.85-8.28,10.58-18.47,19.53-29.25,27.52a144.33,144.33,0,0,1-40.22,19.44,147.38,147.38,0,0,1-33.68,4.81c-10.3-.77-20.78-1.64-30.79-4.91a109.69,109.69,0,0,1-52.92-34.54,209.76,209.76,0,0,1-14.24-19.92l4.81-.48c14.53,3.85,29.06,8.66,44.17,9.43a77.25,77.25,0,0,0,21.07.19,118.33,118.33,0,0,0,48.88-14.72c27.52-15.4,49.36-39.74,64.66-67.07C492.38,505.91,494.88,498.21,498.25,491.09Z" transform="translate(-143.21 -20.01)"/></svg>