<svg enable-background="new 0 0 792 612" viewBox="0 0 792 612" xmlns="http://www.w3.org/2000/svg" xmlns:xlink="http://www.w3.org/1999/xlink"><clipPath id="a"><path d="m386.2 168.3c-5-.6-10.1-1.3-15.1-1.9-1.1-.1-2.5-.3-3.5.2-6.7 3.4-9.7 11.5-6.3 18.4 1.9 3.9 2.5 7.5 1.7 11.6-.2 1 .2 2.2.6 3.1 3.9 9.2 4.6 18.4 1.5 28-.5 1.5-.2 3.3-.1 4.9.2 3.1.4 6.2.7 9.3-4.9-3.8-10.3-7.2-14.4-11.8-4-4.5-6.1-10.4-5.6-16.9.1-1.2-.9-2.6-1.7-3.7-2.3-3.3-5-6.3-6.9-9.8-2.7-5-6-7.1-11.4-5.5-2.7.8-5.2 2.5-7.5 4.2-2 1.4-3.7 3.2-5.5 4.8-.2-.2-11.5 3.4-11.6 3.8-3.7-.2-7.3-.6-11-.7-2.4-.1-5.2-.7-7.1.3-2.5 1.3-4.5 3.8-5.9 6.3-.4.7 1.6 3.5 3.1 4.6 4 2.9 6.7 6.1 6.1 11.5-.1 1.3 1.4 3.6 2.7 4.1 3.6 1.3 4.6 3.9 5.2 7.2.4 2.1.7 4.8 2.1 6 4.5 4 5.9 8.8 6 14.6.1 3.7 2.1 7.5 1.6 11.1-.4 3.1.2 5.4 1.5 7.2h-.1l.3.3c.8 1.2 1.9 2.2 3.2 3.1 1.5 1.4 2.6 2.4 2.6 2.4s4.5 4.7 4.6 9.3-.3 5.2 1.1 9.3c1.4 4 3.3 7.2 3.9 10.6s-.7 4.4 1.4 6.6 4.4 3.7 6.8 6.2c2.3 2.6 5.6 3.5 7.8 5.7s5.7 6.3 8.4 8.9c1.4 1.4 3.3 2.5 4.7 3.3.4.4.6.6.5.8-1.9 4 2 3.9 3.5 5.2 2.6 2.2 6.3 3.6 8.2 6.3 3.4 4.9 7.8 7.4 13.3 8.9.5.1 1.1.2 1.3.5.7.8 1.2 1.8 1.8 2.7-.2.3-.5.6-.7.9 5.5 1.9 11 3.9 16.5 5.7 1.1.4 2.5.4 3.5.1 4.6-1.5 9.2-3.1 13.8-4.7.9-.3 2.3-1.2 2.2-1.6-.7-3.2 2-2.7 3.5-3.5 3.6-1.9 7.8-3.3 10.5-6 3.3-3.4 6.3-6.9 10.7-9.2 1.8-1 5.4-1.4 3.6-5.2-.1-.2.9-1 1.4-1.5.7-.6 1.5-1.1 2.5-1.9.7-.3 1.5-.8 2.8-1.7 2.9-2.2 8.9-7.7 11.3-10.6s6.3-6.5 6.3-6.5-2.5-5.7-.9-10.7l8.5-6.1c1.8-3.7 2.3-5.1 4.3-8.9 1.9-3.8 2.4-11.1 5.1-14 2.4-2.5 5.3-4.5 5.2-6.1.6-1.5.8-3.2.6-5.3-.3-2.6.6-5.3.9-7.9.2-2.2 0-4.4.6-6.5 1-3.4 1.7-7.4 3.9-9.8 2.4-2.6 4-4.9 4.3-8.4.3-3 1.5-5.4 4.6-6.8 1.5-.7 3-3.1 3-4.7-.1-4.5 1.4-7.7 5.2-10.1 1.1-.7 1.9-1.9 3-2.7 1.8-1.3 1.5-2.8.5-4.5-2.6-4.5-6.5-6.1-11.7-5.2-3.9.7-9.8 1.1-11.9 1.1s-11-5.1-10.9-4.5c-2.4-1.1-4.2-2.7-6-4.2-3.4-3-7.2-4.5-11.9-4.4-4.8 0-6.1 3.4-7.5 6.7-2.6 6-8.7 9.7-8.9 17.7-.3 11.7-11.1 17.6-18.1 25.4-.1.1-.4-.1-.8-.1-.1-.4-.4-.9-.3-1.3 0-7.2 2-14.5-1.3-21.4-.2-.4-.1-1 0-1.4 1.3-10.1 2.5-20.1 3.9-30.1.2-1.3.9-2.5 1.5-3.7 3.5-7.2.9-15.4-6.2-19-.8-.4-1.9-.5-2.8-.4-3.9.5-7.7 1.2-11.5 1.7-1.9.3-3.9.3-5.8.4-.1-.4-18.5 0-19-.1z"/></clipPath><path d="m390.9 127.8c-1.1 4.5-4.4 18.7-5.9 28.2-.6 3.9-3.1 9.1 3.9 11.9-1.6.3-2.1.5-2.6.4-5-.6-10.1-1.3-15.1-1.9-1.1-.1-2.5-.3-3.5.2-6.7 3.4-9.7 11.5-6.3 18.4 1.9 3.9 2.5 7.5 1.7 11.6-.2 1 .2 2.2.6 3.1 3.9 9.2 4.6 18.4 1.5 28-.5 1.5-.2 3.3-.1 4.9.2 3.1.4 6.2.7 9.3-4.9-3.8-10.3-7.2-14.4-11.8-4-4.5-6.1-10.4-5.6-16.9.1-1.2-.9-2.6-1.7-3.7-2.3-3.3-5-6.3-6.9-9.8-2.7-5-6-7.1-11.4-5.5-2.7.8-5.2 2.5-7.5 4.2-2 1.4-3.7 3.2-5.5 4.8-.2-.2-.5-.4-.7-.6.3-.7.4-1.5.8-2.2 2.8-5 2.7-4.9-1.2-9.1-7.5-8.1-14-16.8-16.8-27.8-1.4-5.5-3.1-10.9-4.6-16.3-7.5 9-8.5 41.4-1.1 54.2-2.3-11.3-4.6-22-2-33 .5 2.5.8 4.9.9 7.4.4 8.9 2.6 17.3 6.5 25.2.8 1.7 3.1 2.7 4.8 3.9.6.4 1.4.6 2.1.9-.1.4-.1.8-.2 1.1-3.7-.2-7.3-.6-11-.7-2.4-.1-5.2-.7-7.1.3-2.5 1.3-4.5 3.8-5.9 6.3-.4.7 1.6 3.5 3.1 4.6 4 2.9 6.7 6.1 6.1 11.5-.1 1.3 1.4 3.6 2.7 4.1 3.6 1.3 4.6 3.9 5.2 7.2.4 2.1.7 4.8 2.1 6 4.5 4 5.9 8.8 6 14.6.1 3.7 2.1 7.5 1.6 11.1-.4 3.1.2 5.4 1.5 7.2h-.1l.3.3c.8 1.2 1.9 2.2 3.2 3.1 1.5 1.4 2.6 2.4 2.6 2.4s4.5 4.7 4.6 9.3-.3 5.2 1.1 9.3c1.4 4 3.3 7.2 3.9 10.6s-.7 4.4 1.4 6.6 4.4 3.7 6.8 6.2c2.3 2.6 5.6 3.5 7.8 5.7s5.7 6.3 8.4 8.9c1.4 1.4 3.3 2.5 4.7 3.3.4.4.6.6.5.8-1.9 4 2 3.9 3.5 5.2 2.6 2.2 6.3 3.6 8.2 6.3 3.4 4.9 7.8 7.4 13.3 8.9.5.1 1.1.2 1.3.5.7.8 1.2 1.8 1.8 2.7-.2.3-.5.6-.7.9 5.5 1.9 11 3.9 16.5 5.7 1.1.4 2.5.4 3.5.1 4.6-1.5 9.2-3.1 13.8-4.7.9-.3 2.3-1.2 2.2-1.6-.7-3.2 2-2.7 3.5-3.5 3.6-1.9 7.8-3.3 10.5-6 3.3-3.4 6.3-6.9 10.7-9.2 1.8-1 5.4-1.4 3.6-5.2-.1-.2.9-1 1.4-1.5.7-.6 1.5-1.1 2.5-1.9.7-.3 1.5-.8 2.8-1.7 2.9-2.2 8.9-7.7 11.3-10.6s6.3-6.5 6.3-6.5-2.5-5.7-.9-10.7l8.5-6.1c1.8-3.7 2.3-5.1 4.3-8.9 1.9-3.8 2.4-11.1 5.1-14 2.4-2.5 5.3-4.5 5.2-6.1.6-1.5.8-3.2.6-5.3-.3-2.6.6-5.3.9-7.9.2-2.2 0-4.4.6-6.5 1-3.4 1.7-7.4 3.9-9.8 2.4-2.6 4-4.9 4.3-8.4.3-3 1.5-5.4 4.6-6.8 1.5-.7 3-3.1 3-4.7-.1-4.5 1.4-7.7 5.2-10.1 1.1-.7 1.9-1.9 3-2.7 1.8-1.3 1.5-2.8.5-4.5-2.6-4.5-6.5-6.1-11.7-5.2-3.9.7-9.8 1.1-11.9 1.1s-.6-1.5-.6-1.5c7.4-.2 8.3-6.1 10-10.9 1.4-4 2.2-8.2 2.9-12.4.7-4 .7-5.9 1.5-12.1s2.7 12-.3 26.9c6-8.8 4.1-40.7-2.6-50.1-.2.2-.4.3-.4.5-.3 1.2-.5 2.4-.8 3.6-2.9 15.3-8.9 29-20 40.2-4.1 4.1-3.9 4.2-1.1 9.5.3.5.3 1.2.4 1.9-2.4-1.1-4.2-2.7-6-4.2-3.4-3-7.2-4.5-11.9-4.4-4.8 0-6.1 3.4-7.5 6.7-2.6 6-8.7 9.7-8.9 17.7-.3 11.7-11.1 17.6-18.1 25.4-.1.1-.4-.1-.8-.1-.1-.4-.4-.9-.3-1.3 0-7.2 2-14.5-1.3-21.4-.2-.4-.1-1 0-1.4 1.3-10.1 2.5-20.1 3.9-30.1.2-1.3.9-2.5 1.5-3.7 3.5-7.2.9-15.4-6.2-19-.8-.4-1.9-.5-2.8-.4-3.9.5-7.7 1.2-11.5 1.7-1.9.3-3.9.3-5.8.4-.1-.3-.2-.6-.3-.8 3.2-1 4.8-2.9 4.1-6.3-2.4-11.5-4.8-23.1-7.2-34.6-.2-.9-.4-5.4.7-3.1 1.1 2.4 4.6 12.7 6.6 19.2 1.9 6.3 3.4 12.8 5.1 19.2-2.8-17.9-7.1-35.3-17.7-51.2-2.9 3.4-5.4 7.9-6.7 11.3s-5 14.7-7.2 22c-1.7 5.7-6.1 16.9-4.2 17.2s11.2-33.3 11.8-35.7 1.7-2.3.6 2.2z" fill="#201f32"/><g fill="#111126"><path d="m260.6 394.9h1.9c7.4 0 11.9 1 13.7 3 1.4 2.3 2 5.6 2 10v10.7h-14.4c-.1 0-.1 0-.1-.1v-9.9c-.2-1-.9-1.5-2.1-1.5-1.3 0-1.9.8-1.9 2.4v22.5 3s.3.2.8.6v.9c0 5.8 0 10.4.1 13.7v.6c.3.8.7 1.2 1.2 1.2 1.3-.2 2-.6 2-1.2v-16.2c.1 0 .2 0 .2-.1h14c0 .1.1.1.3.1v16.7l.2-.1h.1v.3c0 5.7-1.3 9.3-3.8 10.8-2.5 1.2-6.5 1.8-12.2 1.8h-1.6c-7.5 0-12-1-13.7-2.9-1.5-2-2.3-5.5-2.3-10.6v-42.4c0-6.5 1.2-10.4 3.5-11.7 2.4-1 6.4-1.6 12.1-1.6z"/><path d="m281.7 394.8h14c.1 0 .2.1.2.2v11.6c.6.4.9.6.9.6v1.3.1.1.4 11.1l.4.1h3c.1 0 .1 0 .1-.1.1-11.6.1-20.1.1-25.4h.1 14.5l.2.1h.4v4.7c-.1.4-.1.5-.1.6v62.5h-.1l.1.1v1.2c0 .1 0 .1-.1.1h-14.9l-.1-.1.1-.4c-.1-19.6-.2-30.2-.2-31.9h-3.6c0 .1 0 .1.1.2-.1 9.2-.1 16.2-.1 21v7.8.3.1.1.4 2.5h-5.4c-.1 0-.4-.1-1-.3h-1.9c-1.1 0-3.4 0-7 .1l-.1-.1v-.1c.1-4.5.1-7.1.1-7.6v-4c0-.2 0-.2.1-.2l-.1-.4v-4c0-1.9 0-4.5.1-7.6h-.1l.1-.2c0-.1 0-.1-.1-.1l.1-.1v-1.8c.2-10 .2-24.3.2-42.9z"/><path d="m336.4 394.8h4.4c.1 0 .1 0 .1.1v.5c.5.1 1 .1 1.2.1h2.7c.3 0 .7 0 1.2-.1l9.2 68.6h-14.8l-1.2-13.4h-4.7l-1.3 13.6c-8.7 0-13.5-.1-14.4-.1 6-45.9 9-68.9 9.1-69.1h.1c3.3-.1 6.1-.2 8.4-.2zm.4 23-1.5 21h3l-1.3-20.9z"/><path d="m357.6 394.8h13.9c.1 0 .1 0 .1.1v4.2c0 1.7 0 4.2.1 7.5.2.1.4.3.8.6.1 3 .1 5.4.1 7.2v36.9c0 2.8 0 7.1-.1 12.9h-5.3c-.5-.2-.9-.3-1-.3h-2.6c-2.2 0-4.4 0-6.4.1v-4.6c0-.1 0-.3.1-.6 0-21.1 0-38.7 0-52.6v-5.5c.2-1.4.2-3.4.3-5.9z"/><path d="m377.1 394.8c7 .1 11 .1 11.8.1l7.2 35v-35h12.8v69.3h-13.7c-4.7-21.7-7.1-32.9-7.3-33.7h-.1v33.7h-12.6v-12.4c.6 0 .9-.1.9-.2v-1.6c0-3.6 0-8.5 0-14.5l-.1-.4c.1-.1.1-.2.1-.2h.6l.1-.1c-.1-4.8-.1-8.2-.1-10.1 0-9.4.1-19.4.4-29.9z"/><path d="m413.5 394.7h26v11.7c0 .5-1.5 6.2-4.5 17.1-5 18.5-7.6 28-7.7 28.7h12.3v.4c.1 3.5.1 6.2.1 8.2v2c0 .3-.1.4-.2.4h-.4v.1c0 .4-.1.6-.2.8-13.1.1-22.3.1-27.5.1v-12l12.4-45.5v-.3c-.7 0-2.2 0-4.3-.1h-.4l.1-.5h-.1c-1.7-.1-3.3-.1-4.7-.1h-.8l-.1.1-.1-.1c.1-4.6.1-8.1.1-10.7z"/><path d="m442.7 394.8h13.9c.1 0 .1 0 .1.1v4.2c0 1.7 0 4.2.1 7.5.2.1.4.3.8.6.1 3 .1 5.4.1 7.2v36.9c0 2.8 0 7.1-.1 12.9h-5.3c-.5-.2-.9-.3-1-.3h-2.6c-2.2 0-4.4 0-6.4.1v-4.6c0-.1 0-.3.1-.6 0-21.1 0-38.7 0-52.6v-5.5c.2-1.4.2-3.4.3-5.9z"/><path d="m460.3 394.8h15v57.6c2.3.1 3.7.1 4.1.1.2-.3.4-.4.6-.4h2.2 2c.1 5.7.1 9.7.1 12.1h-24z"/><path d="m486 394.8h15v57.6c2.3.1 3.7.1 4.1.1.2-.3.4-.4.6-.4h2.2 2c.1 5.7.1 9.7.1 12.1h-24z"/><path d="m529.3 394.8h4.4c.1 0 .1 0 .1.1v.5c.5.1 1 .1 1.2.1h2.7c.3 0 .7 0 1.2-.1l9.2 68.6h-14.8l-1.2-13.4h-4.7l-1.3 13.6c-8.7 0-13.5-.1-14.4-.1 6-45.9 9-68.9 9.1-69.1h.1c3.4-.1 6.1-.2 8.4-.2zm.4 23-1.5 21h3l-1.3-20.9z"/><g clip-path="url(#a)"><path d="m383.6 269.2h.6c2.1 0 3.4.3 3.9.9.4.7.6 1.6.6 2.8v3h-4.1v-2.8c0-.3-.2-.4-.6-.4-.4 0-.6.2-.6.7v6.4.9s.1.1.2.2v.2 3.9.2c.1.2.2.3.3.3.4-.1.6-.2.6-.3v-4.6h.1 4 .1v4.8h.1v.1c0 1.6-.4 2.6-1.1 3.1-.7.3-1.9.5-3.5.5h-.5c-2.1 0-3.4-.3-3.9-.8-.4-.6-.7-1.6-.7-3v-12.3c0-1.9.3-3 1-3.3.7-.4 1.9-.5 3.5-.5z"/><path d="m389.6 269.1h4s.1 0 .1.1v3.3c.2.1.2.2.2.2v.4.1 3.2h.1.9c0-3.3 0-5.7 0-7.2h4.1.1.1v1.3.2 17.8.3h-4.2v-.1c0-5.6-.1-8.6-.1-9.1h-1v.1 6 2.2.1.1.7h-1.5s-.1 0-.3-.1h-.5c-.3 0-1 0-2 0 0-1.3 0-2 0-2.2v-1.1-.1-.1-1.1c0-.6 0-1.3 0-2.2v-.1-.5c0-2.8 0-6.9 0-12.2z"/><path d="m405.1 269.1h1.2v.2h.3.8.3l2.6 19.5h-4.2l-.3-3.8h-1.3l-.4 3.9c-2.5 0-3.8 0-4.1 0 1.7-13 2.6-19.6 2.6-19.6 1.1-.1 1.9-.2 2.5-.2zm.2 6.6-.4 6h.9z"/><path d="m411.2 269.1h4v1.2 2.1s.1.1.2.2v2 10.5 3.7h-1.5c-.2-.1-.3-.1-.3-.1h-.7c-.6 0-1.2 0-1.8 0v-1.3s0-.1 0-.2c0-6 0-11 0-15v-1.6c0-.2 0-.7.1-1.5z"/><path d="m416.7 269.1h3.3l2 9.9v-9.9h3.6v19.7h-3.9c-1.3-6.2-2-9.4-2.1-9.6v9.6h-3.6v-3.5c.2 0 .3 0 .3-.1v-.5c0-1 0-2.4 0-4.1v-.1s0 0 0-.1h.2c0-1.4 0-2.3 0-2.9.1-2.5.1-5.4.2-8.4z"/><path d="m427.1 269.1h7.4v3.3c0 .1-.4 1.8-1.3 4.9-1.4 5.2-2.2 8-2.2 8.1h3.5v.1 2.3.6c0 .1 0 .1-.1.1h-.1c0 .1 0 .2-.1.2-3.7 0-6.3 0-7.8 0v-3.4l3.5-12.9v-.1c-.2 0-.6 0-1.2 0h-.1v-.2c-.5 0-.9 0-1.3 0h-.2c0-1.2 0-2.2 0-3z"/><path d="m435.4 269.1h4v1.2 2.1s.1.1.2.2v2 10.5 3.7h-1.5c-.2-.1-.3-.1-.3-.1h-.7c-.6 0-1.2 0-1.8 0v-1.3s0-.1 0-.2c0-6 0-11 0-15v-1.6c0-.2 0-.7.1-1.5z"/><path d="m440.4 269.1h4.3v16.4h1.2c.1-.1.1-.1.2-.1h.6.6v3.4h-6.8v-19.7z"/><path d="m447.7 269.1h4.3v16.4h1.2c.1-.1.1-.1.2-.1h.6.6v3.4h-6.8v-19.7z"/><path d="m460 269.1h1.2v.2h.3.8.3l2.6 19.5h-4.2l-.3-3.8h-1.3l-.4 3.9c-2.5 0-3.8 0-4.1 0 1.7-13 2.6-19.6 2.6-19.6 1-.1 1.8-.2 2.5-.2zm.1 6.6-.4 6h.9z"/><path d="m296.6 269.2h.6c2.1 0 3.4.3 3.9.9.4.7.6 1.6.6 2.8v3h-4.1v-2.8c0-.3-.2-.4-.6-.4-.4 0-.6.2-.6.7v6.4.9s.1.1.2.2v.2 3.9.2c.1.2.2.3.3.3.4-.1.6-.2.6-.3v-4.6h.1 4 .1v4.8h.1v.1c0 1.6-.4 2.6-1.1 3.1-.7.3-1.9.5-3.5.5h-.5c-2.1 0-3.4-.3-3.9-.8-.4-.6-.7-1.6-.7-3v-12.3c0-1.9.3-3 1-3.3.8-.4 1.9-.5 3.5-.5z"/><path d="m302.6 269.1h4s.1 0 .1.1v3.3c.2.1.2.2.2.2v.4.1 3.2h.1.9c0-3.3 0-5.7 0-7.2h4.1.1.1v1.3.2 17.8.3h-4.2v-.1c0-5.6-.1-8.6-.1-9.1h-1v.1 6 2.2.1.1.7h-1.5s-.1 0-.3-.1h-.5c-.3 0-1 0-2 0 0-1.3 0-2 0-2.2v-1.1-.1-.1-1.1c0-.6 0-1.3 0-2.2v-.1-.5c0-2.8 0-6.9 0-12.2z"/><path d="m318.2 269.1h1.2v.2h.3.8.3l2.6 19.5h-4.2l-.2-3.8h-1.3l-.4 3.9c-2.5 0-3.8 0-4.1 0 1.7-13 2.6-19.6 2.6-19.6 1-.1 1.7-.2 2.4-.2zm.1 6.6-.4 6h.9z"/><path d="m324.2 269.1h4v1.2 2.1s.1.1.2.2v2 10.5 3.7h-1.4c-.2-.1-.3-.1-.3-.1h-.7c-.6 0-1.2 0-1.8 0v-1.3s0-.1 0-.2c0-6 0-11 0-15v-1.6c0-.2 0-.7 0-1.5z"/><path d="m329.8 269.1h3.3l2 9.9v-9.9h3.6v19.7h-3.9c-1.3-6.2-2-9.4-2.1-9.6v9.6h-3.6v-3.5c.2 0 .3 0 .3-.1v-.5c0-1 0-2.4 0-4.1v-.1s0 0 0-.1h.2c0-1.4 0-2.3 0-2.9 0-2.5.1-5.4.2-8.4z"/><path d="m340.1 269.1h7.4v3.3c0 .1-.4 1.8-1.3 4.9-1.4 5.2-2.2 8-2.2 8.1h3.5v.1 2.3.6c0 .1 0 .1-.1.1h-.1c0 .1 0 .2-.1.2-3.7 0-6.3 0-7.8 0v-3.4l3.5-12.9v-.1c-.2 0-.6 0-1.2 0h-.1v-.2c-.5 0-.9 0-1.3 0h-.2c0-1.2 0-2.2 0-3z"/><path d="m348.4 269.1h4v1.2 2.1s.1.1.2.2v2 10.5 3.7h-1.5c-.2-.1-.3-.1-.3-.1h-.7c-.6 0-1.2 0-1.8 0v-1.3s0-.1 0-.2c0-6 0-11 0-15v-1.6c.1-.2.1-.7.1-1.5z"/><path d="m353.4 269.1h4.3v16.4h1.2c.1-.1.1-.1.2-.1h.6.6v3.4h-6.8v-19.7z"/><path d="m360.7 269.1h4.3v16.4h1.2c.1-.1.1-.1.2-.1h.6.6v3.4h-6.8v-19.7z"/><path d="m373 269.1h1.2v.2h.3.8.3l2.6 19.5h-4.2l-.3-3.8h-1.3l-.4 3.9c-2.5 0-3.8 0-4.1 0 1.7-13 2.6-19.6 2.6-19.6 1.1-.1 1.9-.2 2.5-.2zm.2 6.6-.4 6h.9z"/><path d="m470.7 269.2h.6c2.1 0 3.4.3 3.9.9.4.7.6 1.6.6 2.8v3h-4.1v-2.8c0-.3-.2-.4-.6-.4-.4 0-.6.2-.6.7v6.4.9s.1.1.2.2v.2 3.9.2c.1.2.2.3.3.3.4-.1.6-.2.6-.3v-4.6h.1 4 .1v4.8h.1v.1c0 1.6-.4 2.6-1.1 3.1-.7.3-1.9.5-3.5.5h-.5c-2.1 0-3.4-.3-3.9-.8-.4-.6-.7-1.6-.7-3v-12.3c0-1.9.3-3 1-3.3.7-.4 1.8-.5 3.5-.5z"/><path d="m476.7 269.1h4s.1 0 .1.1v3.3c.2.1.2.2.2.2v.4.1 3.2h.1.9c0-3.3 0-5.7 0-7.2h4.1.1.1v1.3.2 17.8.3h-4.2v-.1c0-5.6-.1-8.6-.1-9.1h-1v.1 6 2.2.1.1.7h-1.5s-.1 0-.3-.1h-.5c-.3 0-1 0-2 0 0-1.3 0-2 0-2.2v-1.1-.1-.1-1.1c0-.6 0-1.3 0-2.2v-.1-.5c-.1-2.8 0-6.9 0-12.2z"/><path d="m492.2 269.1h1.2v.2h.3.8.3l2.6 19.5h-4.2l-.2-3.8h-1.3l-.4 3.9c-2.5 0-3.8 0-4.1 0 1.7-13 2.6-19.6 2.6-19.6 1-.1 1.8-.2 2.4-.2zm.1 6.6-.4 6h.9z"/><path d="m498.2 269.1h4v1.2 2.1s.1.1.2.2v2 10.5 3.7h-1.4c-.2-.1-.3-.1-.3-.1h-.7c-.6 0-1.2 0-1.8 0v-1.3s0-.1 0-.2c0-6 0-11 0-15v-1.6c0-.2 0-.7 0-1.5z"/><path d="m503.8 269.1h3.3l2 9.9v-9.9h3.6v19.7h-3.9c-1.3-6.2-2-9.4-2.1-9.6v9.6h-3.6v-3.5c.2 0 .3 0 .3-.1v-.5c0-1 0-2.4 0-4.1v-.1s0 0 0-.1h.2c0-1.4 0-2.3 0-2.9.1-2.5.1-5.4.2-8.4z"/><path d="m514.1 269.1h7.4v3.3c0 .1-.4 1.8-1.3 4.9-1.4 5.2-2.2 8-2.2 8.1h3.5v.1 2.3.6c0 .1 0 .1-.1.1h-.1c0 .1 0 .2-.1.2-3.7 0-6.3 0-7.8 0v-3.4l3.5-12.9v-.1c-.2 0-.6 0-1.2 0h-.1v-.2c-.5 0-.9 0-1.3 0h-.2c0-1.2 0-2.2 0-3z"/><path d="m522.4 269.1h4v1.2 2.1s.1.1.2.2v2 10.5 3.7h-1.5c-.2-.1-.3-.1-.3-.1h-.7c-.6 0-1.2 0-1.8 0v-1.3s0-.1 0-.2c0-6 0-11 0-15v-1.6c.1-.2.1-.7.1-1.5z"/><path d="m527.4 269.1h4.3v16.4h1.2c.1-.1.1-.1.2-.1h.6.6v3.4h-6.8v-19.7z"/><path d="m534.7 269.1h4.3v16.4h1.2c.1-.1.1-.1.2-.1h.6.6v3.4h-6.8v-19.7z"/><path d="m547 269.1h1.2v.2h.3.8.3l2.6 19.5h-4.2l-.3-3.8h-1.3l-.4 3.9c-2.5 0-3.8 0-4.1 0 1.7-13 2.6-19.6 2.6-19.6 1.1-.1 1.9-.2 2.5-.2zm.2 6.6-.4 6h.9z"/></g><g clip-path="url(#a)"><path d="m394 290.7h.6c2.1 0 3.4.3 3.9.9.4.7.6 1.6.6 2.8v3h-4.1v-2.8c0-.3-.2-.4-.6-.4-.4 0-.6.2-.6.7v6.4.9s.1.1.2.2v.2 3.9.2c.1.2.2.3.3.3.4-.1.6-.2.6-.3v-4.7h.1 4 .1v4.8h.1v.1c0 1.6-.4 2.6-1.1 3.1-.7.3-1.9.5-3.5.5h-.5c-2.1 0-3.4-.3-3.9-.8-.4-.6-.7-1.6-.7-3v-12.1c0-1.9.3-3 1-3.3.7-.5 1.9-.6 3.5-.6z"/><path d="m400 290.6h4s.1 0 .1.1v3.3c.2.1.2.2.2.2v.4.1 3.2h.1.9c0-3.3 0-5.7 0-7.2h4.1.1.1v1.3.2 17.8.3h-4.2v-.1c0-5.6-.1-8.6-.1-9.1h-1v.1 6 2.2.1.1.7h-1.5s-.1 0-.3-.1h-.5c-.3 0-1 0-2 0 0-1.3 0-2 0-2.2v-1-.1-.1-1.1c0-.6 0-1.3 0-2.2v-.1-.5c0-2.9 0-7 0-12.3z"/><path d="m415.5 290.6h1.2v.2h.3.8.3l2.6 19.5h-4.2l-.3-3.8h-1.2l-.4 3.9c-2.5 0-3.8 0-4.1 0 1.7-13 2.6-19.6 2.6-19.6 1-.1 1.8-.2 2.4-.2zm.2 6.6-.4 6h.9z"/><path d="m421.6 290.6h4v1.2 2.1s.1.1.2.2v2 10.5 3.7h-1.5c-.2-.1-.3-.1-.3-.1h-.7c-.6 0-1.2 0-1.8 0v-1.2s0-.1 0-.2c0-6 0-11 0-15v-1.6c0-.3 0-.9.1-1.6z"/><path d="m427.1 290.6h3.3l2 9.9v-9.9h3.6v19.7h-3.9c-1.3-6.2-2-9.4-2.1-9.6v9.6h-3.6v-3.5c.2 0 .3 0 .3-.1v-.5c0-1 0-2.4 0-4.1v-.1s0 0 0-.1h.2c0-1.4 0-2.3 0-2.9.1-2.6.1-5.4.2-8.4z"/><path d="m437.5 290.6h7.4v3.3c0 .1-.4 1.8-1.3 4.9-1.4 5.2-2.2 8-2.2 8.1h3.5v.1 2.3.6c0 .1 0 .1-.1.1h-.1c0 .1 0 .2-.1.2-3.7 0-6.3 0-7.8 0v-3.2l3.5-12.9v-.1c-.2 0-.6 0-1.2 0h-.1v-.2c-.5 0-.9 0-1.3 0h-.2c0-1.4 0-2.4 0-3.2z"/><path d="m445.8 290.6h4v1.2 2.1s.1.1.2.2v2 10.5 3.7h-1.5c-.2-.1-.3-.1-.3-.1h-.7c-.6 0-1.2 0-1.8 0v-1.2s0-.1 0-.2c0-6 0-11 0-15v-1.6c0-.3 0-.9.1-1.6z"/><path d="m450.8 290.6h4.3v16.4h1.2c.1-.1.1-.1.2-.1h.6.6v3.4h-6.8v-19.7z"/><path d="m458.1 290.6h4.3v16.4h1.2c.1-.1.1-.1.2-.1h.6.6v3.4h-6.8v-19.7z"/><path d="m470.4 290.6h1.2v.2h.3.8.3l2.6 19.5h-4.2l-.3-3.8h-1.3l-.4 3.9c-2.5 0-3.8 0-4.1 0 1.7-13 2.6-19.6 2.6-19.6 1-.1 1.8-.2 2.5-.2zm.1 6.6-.4 6h.9z"/><path d="m307 290.7h.6c2.1 0 3.4.3 3.9.9.4.7.6 1.6.6 2.8v3h-4.1v-2.8c0-.3-.2-.4-.6-.4-.4 0-.6.2-.6.7v6.4.9s.1.1.2.2v.2 3.9.2c.1.2.2.3.3.3.4-.1.6-.2.6-.3v-4.7h.1 4 .1v4.8h.1v.1c0 1.6-.4 2.6-1.1 3.1-.7.3-1.9.5-3.5.5h-.5c-2.1 0-3.4-.3-3.9-.8-.4-.6-.7-1.6-.7-3v-12.1c0-1.9.3-3 1-3.3.8-.5 1.9-.6 3.5-.6z"/><path d="m313 290.6h4s.1 0 .1.1v3.3c.2.1.2.2.2.2v.4.1 3.2h.1.9c0-3.3 0-5.7 0-7.2h4.1.1.1v1.3.2 17.8.3h-4.2v-.1c0-5.6-.1-8.6-.1-9.1h-1v.1 6 2.2.1.1.7h-1.5s-.1 0-.3-.1h-.5c-.3 0-1 0-2 0 0-1.3 0-2 0-2.2v-1-.1-.1-1.1c0-.6 0-1.3 0-2.2v-.1-.5c0-2.9 0-7 0-12.3z"/><path d="m328.6 290.6h1.2v.2h.3.8.3l2.6 19.5h-4.2l-.3-3.8h-1.3l-.4 3.9c-2.5 0-3.8 0-4.1 0 1.7-13 2.6-19.6 2.6-19.6 1.1-.1 1.8-.2 2.5-.2zm.1 6.6-.4 6h.9z"/><path d="m334.6 290.6h4v1.2 2.1s.1.1.2.2v2 10.5 3.7h-1.5c-.2-.1-.3-.1-.3-.1h-.7c-.6 0-1.2 0-1.8 0v-1.2s0-.1 0-.2c0-6 0-11 0-15v-1.6c.1-.3.1-.9.1-1.6z"/><path d="m340.2 290.6h3.3l2 9.9v-9.9h3.6v19.7h-3.9c-1.3-6.2-2-9.4-2.1-9.6v9.6h-3.6v-3.5c.2 0 .3 0 .3-.1v-.5c0-1 0-2.4 0-4.1v-.1s0 0 0-.1h.2c0-1.4 0-2.3 0-2.9 0-2.6.1-5.4.2-8.4z"/><path d="m350.5 290.6h7.4v3.3c0 .1-.4 1.8-1.3 4.9-1.4 5.2-2.2 8-2.2 8.1h3.5v.1 2.3.6c0 .1 0 .1-.1.1h-.1c0 .1 0 .2-.1.2-3.7 0-6.3 0-7.8 0v-3.2l3.5-12.9v-.1c-.2 0-.6 0-1.2 0h-.1v-.2c-.5 0-.9 0-1.3 0h-.2c0-1.4 0-2.4 0-3.2z"/><path d="m358.8 290.6h4v1.2 2.1s.1.1.2.2v2 10.5 3.7h-1.5c-.2-.1-.3-.1-.3-.1h-.7c-.6 0-1.2 0-1.8 0v-1.2s0-.1 0-.2c0-6 0-11 0-15v-1.6c.1-.3.1-.9.1-1.6z"/><path d="m363.8 290.6h4.3v16.4h1.2c.1-.1.1-.1.2-.1h.6.6v3.4h-6.8v-19.7z"/><path d="m371.1 290.6h4.3v16.4h1.2c.1-.1.1-.1.2-.1h.6.6v3.4h-6.8v-19.7z"/><path d="m383.4 290.6h1.2v.2h.3.8.3l2.6 19.5h-4.2l-.3-3.8h-1.3l-.4 3.9c-2.5 0-3.8 0-4.1 0 1.7-13 2.6-19.6 2.6-19.6 1.1-.1 1.9-.2 2.5-.2zm.2 6.6-.4 6h.9z"/><path d="m481.1 290.7h.6c2.1 0 3.4.3 3.9.9.4.7.6 1.6.6 2.8v3h-4.2v-2.8c0-.3-.2-.4-.6-.4-.4 0-.6.2-.6.7v6.4.9s.1.1.2.2v.2 3.9.2c.1.2.2.3.3.3.4-.1.6-.2.6-.3v-4.7h.1 4 .1v4.8h.1v.1c0 1.6-.4 2.6-1.1 3.1-.7.3-1.9.5-3.5.5h-.5c-2.1 0-3.4-.3-3.9-.8-.4-.6-.7-1.6-.7-3v-12.1c0-1.9.3-3 1-3.3.8-.5 1.9-.6 3.6-.6z"/><path d="m487.1 290.6h4s.1 0 .1.1v3.3c.2.1.2.2.2.2v.4.1 3.2h.1.9c0-3.3 0-5.7 0-7.2h4.1.1.1v1.3.2 17.8.3h-4.2v-.1c0-5.6-.1-8.6-.1-9.1h-1v.1 6 2.2.1.1.7h-1.5s-.1 0-.3-.1h-.6c-.3 0-1 0-2 0 0-1.3 0-2 0-2.2v-1-.1-.1-1.1c0-.6 0-1.3 0-2.2v-.1-.5c0-2.9.1-7 .1-12.3z"/><path d="m502.6 290.6h1.2v.2h.3.8.3l2.6 19.5h-4.2l-.3-3.8h-1.3l-.4 3.9c-2.5 0-3.8 0-4.1 0 1.7-13 2.6-19.6 2.6-19.6 1.1-.1 1.9-.2 2.5-.2zm.1 6.6-.4 6h.9z"/><path d="m508.6 290.6h4v1.2 2.1s.1.1.2.2v2 10.5 3.7h-1.5c-.2-.1-.3-.1-.3-.1h-.7c-.6 0-1.2 0-1.8 0v-1.2s0-.1 0-.2c0-6 0-11 0-15v-1.6c.1-.3.1-.9.1-1.6z"/><path d="m514.2 290.6h3.3l2 9.9v-9.9h3.6v19.7h-3.9c-1.3-6.2-2-9.4-2.1-9.6v9.6h-3.6v-3.5c.2 0 .3 0 .3-.1v-.5c0-1 0-2.4 0-4.1v-.1s0 0 0-.1h.2c0-1.4 0-2.3 0-2.9.1-2.6.1-5.4.2-8.4z"/><path d="m524.5 290.6h7.4v3.3c0 .1-.4 1.8-1.3 4.9-1.4 5.2-2.2 8-2.2 8.1h3.5v.1 2.3.6c0 .1 0 .1-.1.1h-.1c0 .1 0 .2-.1.2-3.7 0-6.3 0-7.8 0v-3.2l3.5-12.9v-.1c-.2 0-.6 0-1.2 0h-.1v-.2c-.5 0-.9 0-1.3 0h-.2c0-1.4 0-2.4 0-3.2z"/><path d="m532.8 290.6h4v1.2 2.1s.1.1.2.2v2 10.5 3.7h-1.5c-.2-.1-.3-.1-.3-.1h-.7c-.6 0-1.2 0-1.8 0v-1.2s0-.1 0-.2c0-6 0-11 0-15v-1.6c.1-.3.1-.9.1-1.6z"/><path d="m537.8 290.6h4.3v16.4h1.2c.1-.1.1-.1.2-.1h.6.6v3.4h-6.8v-19.7z"/><path d="m545.1 290.6h4.3v16.4h1.2c.1-.1.1-.1.2-.1h.6.6v3.4h-6.8v-19.7z"/><path d="m557.4 290.6h1.2v.2h.3.8.3l2.6 19.5h-4.2l-.3-3.8h-1.3l-.4 3.9c-2.5 0-3.8 0-4.1 0 1.7-13 2.6-19.6 2.6-19.6 1.1-.1 1.9-.2 2.5-.2zm.2 6.6-.4 6h.9z"/></g><g clip-path="url(#a)"><path d="m405.2 312.1h.6c2.1 0 3.4.3 3.9.9.4.7.6 1.6.6 2.8v3h-4.1v-2.8c0-.3-.2-.4-.6-.4-.4 0-.6.2-.6.7v6.4.9s.1.1.2.2v.2 3.9.2c.1.2.2.3.3.3.4-.1.6-.2.6-.3v-4.6h.1 4 .1v4.8h.1v.1c0 1.6-.4 2.6-1.1 3.1-.7.3-1.9.5-3.5.5h-.5c-2.1 0-3.4-.3-3.9-.8-.4-.6-.7-1.6-.7-3v-12.2c0-1.9.3-3 1-3.3.7-.4 1.9-.6 3.5-.6z"/><path d="m411.2 312.1h4s.1 0 .1.1v3.3c.2.1.2.2.2.2v.4.1 3.2h.1.9c0-3.3 0-5.7 0-7.2h4.1.1.1v1.3.2 17.8.3h-4.2v-.1c0-5.6-.1-8.6-.1-9.1h-1v.1 6 2.2.1.1.7h-1.5s-.1 0-.3-.1h-.5c-.3 0-1 0-2 0 0-1.3 0-2 0-2.2v-1.1-.1-.1-1.1c0-.6 0-1.3 0-2.2v-.1-.5c0-2.8 0-6.9 0-12.2z"/><path d="m426.7 312.1h1.2v.2h.3.8.3l2.6 19.5h-4.2l-.3-3.8h-1.3l-.4 3.9c-2.5 0-3.8 0-4.1 0 1.7-13 2.6-19.6 2.6-19.6 1.1-.2 1.9-.2 2.5-.2zm.1 6.6-.4 6h.9z"/><path d="m432.7 312.1h4v1.2 2.1s.1.1.2.2v2 10.5 3.7h-1.5c-.2-.1-.3-.1-.3-.1h-.7c-.6 0-1.2 0-1.8 0v-1.3s0-.1 0-.2c0-6 0-11 0-15v-1.6c.1-.2.1-.8.1-1.5z"/><path d="m438.3 312.1h3.3l2 9.9v-9.9h3.6v19.7h-3.9c-1.3-6.2-2-9.4-2.1-9.6v9.6h-3.6v-3.5c.2 0 .3 0 .3-.1v-.5c0-1 0-2.4 0-4.1v-.1s0 0 0-.1h.2c0-1.4 0-2.3 0-2.9.1-2.6.1-5.4.2-8.4z"/><path d="m448.6 312.1h7.4v3.3c0 .1-.4 1.8-1.3 4.9-1.4 5.2-2.2 8-2.2 8.1h3.5v.1 2.3.6c0 .1 0 .1-.1.1h.1c0 .1 0 .2-.1.2-3.7 0-6.3 0-7.8 0v-3.4l3.5-12.9v-.1c-.2 0-.6 0-1.2 0h-.1v-.2c-.5 0-.9 0-1.3 0h-.2c-.2-1.2-.2-2.2-.2-3z"/><path d="m456.9 312.1h4v1.2 2.1s.1.1.2.2v2 10.5 3.7h-1.5c-.2-.1-.3-.1-.3-.1h-.7c-.6 0-1.2 0-1.8 0v-1.3s0-.1 0-.2c0-6 0-11 0-15v-1.6c.1-.2.1-.8.1-1.5z"/><path d="m461.9 312.1h4.3v16.4h1.2c.1-.1.1-.1.2-.1h.6.6v3.4h-6.8v-19.7z"/><path d="m469.3 312.1h4.3v16.4h1.2c.1-.1.1-.1.2-.1h.6.6v3.4h-6.8v-19.7z"/><path d="m481.6 312.1h1.2v.2h.3.8.3l2.6 19.5h-4.2l-.3-3.8h-1.3l-.4 3.9c-2.5 0-3.8 0-4.1 0 1.7-13 2.6-19.6 2.6-19.6 1-.2 1.8-.2 2.5-.2zm.1 6.6-.4 6h.9z"/><path d="m318.2 312.1h.6c2.1 0 3.4.3 3.9.9.4.7.6 1.6.6 2.8v3h-4.1v-2.8c0-.3-.2-.4-.6-.4-.4 0-.6.2-.6.7v6.4.9s.1.1.2.2v.2 3.9.2c.1.2.2.3.3.3.4-.1.6-.2.6-.3v-4.6h.1 4 .1v4.8h.1v.1c0 1.6-.4 2.6-1.1 3.1-.7.3-1.9.5-3.5.5h-.5c-2.1 0-3.4-.3-3.9-.8-.4-.6-.7-1.6-.7-3v-12.2c0-1.9.3-3 1-3.3.8-.4 1.9-.6 3.5-.6z"/><path d="m324.2 312.1h4s.1 0 .1.1v3.3c.2.1.2.2.2.2v.4.1 3.2h.1.9c0-3.3 0-5.7 0-7.2h4.1.1.1v1.3.2 17.8.3h-4.2v-.1c0-5.6-.1-8.6-.1-9.1h-1v.1 6 2.2.1.1.7h-1.5s-.1 0-.3-.1h-.5c-.3 0-1 0-2 0 0-1.3 0-2 0-2.2v-1.1-.1-.1-1.1c0-.6 0-1.3 0-2.2v-.1-.5c0-2.8 0-6.9 0-12.2z"/><path d="m339.8 312.1h1.2v.2h.3.8.3l2.6 19.5h-4.2l-.3-3.8h-1.3l-.4 3.9c-2.5 0-3.8 0-4.1 0 1.7-13 2.6-19.6 2.6-19.6 1-.2 1.8-.2 2.5-.2zm.1 6.6-.4 6h.9z"/><path d="m345.8 312.1h4v1.2 2.1s.1.1.2.2v2 10.5 3.7h-1.5c-.2-.1-.3-.1-.3-.1h-.7c-.6 0-1.2 0-1.8 0v-1.3s0-.1 0-.2c0-6 0-11 0-15v-1.6c.1-.2.1-.8.1-1.5z"/><path d="m351.3 312.1h3.3l2 9.9v-9.9h3.6v19.7h-3.9c-1.3-6.2-2-9.4-2.1-9.6v9.6h-3.6v-3.5c.2 0 .3 0 .3-.1v-.5c0-1 0-2.4 0-4.1v-.1s0 0 0-.1h.2c0-1.4 0-2.3 0-2.9.1-2.6.2-5.4.2-8.4z"/><path d="m361.7 312.1h7.4v3.3c0 .1-.4 1.8-1.3 4.9-1.4 5.2-2.2 8-2.2 8.1h3.5v.1 2.3.6c0 .1 0 .1-.1.1 0 .1 0 .2-.1.2-3.7 0-6.3 0-7.8 0v-3.4l3.5-12.9v-.1c-.2 0-.6 0-1.2 0h-.1v-.2c-.5 0-.9 0-1.3 0h-.2c-.1-1.2-.1-2.2-.1-3z"/><path d="m370 312.1h4v1.2 2.1s.1.1.2.2v2 10.5 3.7h-1.5c-.2-.1-.3-.1-.3-.1h-.7c-.6 0-1.2 0-1.8 0v-1.3s0-.1 0-.2c0-6 0-11 0-15v-1.6c.1-.2.1-.8.1-1.5z"/><path d="m375 312.1h4.3v16.4h1.2c.1-.1.1-.1.2-.1h.6.6v3.4h-6.9z"/><path d="m382.3 312.1h4.3v16.4h1.2c.1-.1.1-.1.2-.1h.6.6v3.4h-6.8v-19.7z"/><path d="m394.6 312.1h1.2v.2h.3.8.3l2.6 19.5h-4.2l-.3-3.8h-1.3l-.4 3.9c-2.5 0-3.8 0-4.1 0 1.7-13 2.6-19.6 2.6-19.6 1.1-.2 1.9-.2 2.5-.2zm.1 6.6-.4 6h.9z"/><path d="m492.2 312.1h.6c2.1 0 3.4.3 3.9.9.4.7.6 1.6.6 2.8v3h-4.1v-2.8c0-.3-.2-.4-.6-.4-.4 0-.6.2-.6.7v6.4.9s.1.1.2.2v.2 3.9.2c.1.2.2.3.3.3.4-.1.6-.2.6-.3v-4.6h.1 4 .1v4.8h.1v.1c0 1.6-.4 2.6-1.1 3.1-.7.3-1.9.5-3.5.5h-.5c-2.1 0-3.4-.3-3.9-.8-.4-.6-.7-1.6-.7-3v-12.2c0-1.9.3-3 1-3.3.8-.4 1.9-.6 3.5-.6z"/><path d="m498.2 312.1h4s.1 0 .1.1v3.3c.2.1.2.2.2.2v.4.1 3.2h.1.9c0-3.3 0-5.7 0-7.2h4.1.1.1v1.3.2 17.8.3h-4.2v-.1c0-5.6-.1-8.6-.1-9.1h-1v.1 6 2.2.1.1.7h-1.5s-.1 0-.3-.1h-.5c-.3 0-1 0-2 0 0-1.3 0-2 0-2.2v-1.1-.1-.1-1.1c0-.6 0-1.3 0-2.2v-.1-.5c0-2.8 0-6.9 0-12.2z"/><path d="m513.8 312.1h1.2v.2h.3.8.3l2.6 19.5h-4.2l-.3-3.8h-1.3l-.4 3.9c-2.5 0-3.8 0-4.1 0 1.7-13 2.6-19.6 2.6-19.6 1.1-.2 1.8-.2 2.5-.2zm.1 6.6-.4 6h.9z"/><path d="m519.8 312.1h4v1.2 2.1s.1.1.2.2v2 10.5 3.7h-1.5c-.2-.1-.3-.1-.3-.1h-.7c-.6 0-1.2 0-1.8 0v-1.3s0-.1 0-.2c0-6 0-11 0-15v-1.6c.1-.2.1-.8.1-1.5z"/><path d="m525.4 312.1h3.3l2 9.9v-9.9h3.6v19.7h-3.9c-1.3-6.2-2-9.4-2.1-9.6v9.6h-3.6v-3.5c.2 0 .3 0 .3-.1v-.5c0-1 0-2.4 0-4.1v-.1s0 0 0-.1h.2c0-1.4 0-2.3 0-2.9 0-2.6.1-5.4.2-8.4z"/><path d="m535.7 312.1h7.4v3.3c0 .1-.4 1.8-1.3 4.9-1.4 5.2-2.2 8-2.2 8.1h3.5v.1 2.3.6c0 .1 0 .1-.1.1 0 .1 0 .2-.1.2-3.7 0-6.3 0-7.8 0v-3.4l3.5-12.9v-.1c-.2 0-.6 0-1.2 0h-.1v-.2c-.5 0-.9 0-1.3 0h-.2c-.1-1.2-.1-2.2-.1-3z"/><path d="m544 312.1h4v1.2 2.1s.1.1.2.2v2 10.5 3.7h-1.5c-.2-.1-.3-.1-.3-.1h-.7c-.6 0-1.2 0-1.8 0v-1.3s0-.1 0-.2c0-6 0-11 0-15v-1.6c.1-.2.1-.8.1-1.5z"/><path d="m549 312.1h4.3v16.4h1.2c.1-.1.1-.1.2-.1h.6.6v3.4h-6.9z"/><path d="m556.3 312.1h4.3v16.4h1.2c.1-.1.1-.1.2-.1h.6.6v3.4h-6.8v-19.7z"/><path d="m568.6 312.1h1.2v.2h.3.8.3l2.6 19.5h-4.2l-.3-3.8h-1.3l-.4 3.9c-2.5 0-3.8 0-4.1 0 1.7-13 2.6-19.6 2.6-19.6 1.1-.2 1.9-.2 2.5-.2zm.2 6.6-.4 6h.9z"/></g><g clip-path="url(#a)"><path d="m416.8 333.6h.6c2.1 0 3.4.3 3.9.9.4.7.6 1.6.6 2.8v3h-4.1v-2.8c0-.3-.2-.4-.6-.4-.4 0-.6.2-.6.7v6.4.9s.1.1.2.2v.2 3.9.2c.1.2.2.3.3.3.4-.1.6-.2.6-.3v-4.6h.1 4 .1v4.8h.1v.1c0 1.6-.4 2.6-1.1 3.1-.7.3-1.9.5-3.5.5h-.5c-2.1 0-3.4-.3-3.9-.8-.4-.6-.7-1.6-.7-3v-12.1c0-1.9.3-3 1-3.3.7-.5 1.9-.7 3.5-.7z"/><path d="m422.8 333.6h4s.1 0 .1.1v3.3c.2.1.2.2.2.2v.4.1 3.2h.1.9c0-3.3 0-5.7 0-7.2h4.1.1.1v1.3.2 17.8.3h-4.2v-.1c0-5.6-.1-8.6-.1-9.1h-1v.1 6 2.2.1.1.7h-1.5s-.1 0-.3-.1h-.5c-.3 0-1 0-2 0 0-1.3 0-2 0-2.2v-1.1-.1-.1-1.1c0-.6 0-1.3 0-2.2v-.1-.5c0-2.9 0-6.9 0-12.2z"/><path d="m438.3 333.6h1.2v.2h.3.8.3l2.6 19.5h-4.2l-.3-3.8h-1.3l-.4 3.9c-2.5 0-3.8 0-4.1 0 1.7-13 2.6-19.6 2.6-19.6 1.1-.2 1.9-.2 2.5-.2zm.1 6.6-.4 6h.9z"/><path d="m444.3 333.6h4v1.2 2.1s.1.1.2.2v2 10.5 3.7h-1.5c-.2-.1-.3-.1-.3-.1h-.7c-.6 0-1.2 0-1.8 0v-1.2s0-.1 0-.2c0-6 0-11 0-15v-1.6c.1-.3.1-.9.1-1.6z"/><path d="m449.9 333.6h3.3l2 9.9v-9.9h3.6v19.7h-3.8c-1.3-6.2-2-9.4-2.1-9.6v9.6h-3.6v-3.5c.2 0 .3 0 .3-.1v-.5c0-1 0-2.4 0-4.1v-.1s0 0 0-.1h.2c0-1.4 0-2.3 0-2.9 0-2.6 0-5.4.1-8.4z"/><path d="m460.3 333.6h7.4v3.3c0 .1-.4 1.8-1.3 4.9-1.4 5.2-2.2 8-2.2 8.1h3.5v.1 2.3.6c0 .1 0 .1-.1.1h-.1c0 .1 0 .2-.1.2-3.7 0-6.3 0-7.8 0v-3.4l3.5-12.9v-.1c-.2 0-.6 0-1.2 0h-.1v-.2c-.5 0-.9 0-1.3 0h-.2c-.1-1.2 0-2.2 0-3z"/><path d="m468.5 333.6h4v1.2 2.1s.1.1.2.2v2 10.5 3.7h-1.5c-.2-.1-.3-.1-.3-.1h-.7c-.6 0-1.2 0-1.8 0v-1.2s0-.1 0-.2c0-6 0-11 0-15v-1.6c.1-.3.1-.9.1-1.6z"/><path d="m473.5 333.6h4.3v16.4h1.2c.1-.1.1-.1.2-.1h.6.6v3.4h-6.8v-19.7z"/><path d="m480.9 333.6h4.3v16.4h1.2c.1-.1.1-.1.2-.1h.6.6v3.4h-6.8v-19.7z"/><path d="m493.2 333.6h1.2v.2h.3.8.3l2.6 19.5h-4.2l-.3-3.8h-1.3l-.4 3.9c-2.5 0-3.8 0-4.1 0 1.7-13 2.6-19.6 2.6-19.6 1-.2 1.8-.2 2.5-.2zm.1 6.6-.4 6h.9z"/><path d="m329.8 333.6h.6c2.1 0 3.4.3 3.9.9.4.7.6 1.6.6 2.8v3h-4.1v-2.8c0-.3-.2-.4-.6-.4-.4 0-.6.2-.6.7v6.4.9s.1.1.2.2v.2 3.9.2c.1.2.2.3.3.3.4-.1.6-.2.6-.3v-4.6h.1 4 .1v4.8h.1v.1c0 1.6-.4 2.6-1.1 3.1-.7.3-1.9.5-3.5.5h-.5c-2.1 0-3.4-.3-3.9-.8-.4-.6-.7-1.6-.7-3v-12.1c0-1.9.3-3 1-3.3.8-.5 1.9-.7 3.5-.7z"/><path d="m335.8 333.6h4s.1 0 .1.1v3.3c.2.1.2.2.2.2v.4.1 3.2h.1.9c0-3.3 0-5.7 0-7.2h4.1.1.1v1.3.2 17.8.3h-4.2v-.1c0-5.6-.1-8.6-.1-9.1h-1v.1 6 2.2.1.1.7h-1.5s-.1 0-.3-.1h-.5c-.3 0-1 0-2 0 0-1.3 0-2 0-2.2v-1.1-.1-.1-1.1c0-.6 0-1.3 0-2.2v-.1-.5c0-2.9 0-6.9 0-12.2z"/><path d="m351.4 333.6h1.2v.2h.3.8.3l2.6 19.5h-4.2l-.3-3.8h-1.3l-.4 3.9c-2.5 0-3.8 0-4.1 0 1.7-13 2.6-19.6 2.6-19.6 1-.2 1.8-.2 2.5-.2zm.1 6.6-.4 6h.9z"/><path d="m357.4 333.6h4v1.2 2.1s.1.1.2.2v2 10.5 3.7h-1.5c-.2-.1-.3-.1-.3-.1h-.7c-.6 0-1.2 0-1.8 0v-1.2s0-.1 0-.2c0-6 0-11 0-15v-1.6c.1-.3.1-.9.1-1.6z"/><path d="m362.9 333.6h3.3l2 9.9v-9.9h3.6v19.7h-3.9c-1.3-6.2-2-9.4-2.1-9.6v9.6h-3.6v-3.5c.2 0 .3 0 .3-.1v-.5c0-1 0-2.4 0-4.1v-.1s0 0 0-.1h.2c0-1.4 0-2.3 0-2.9.1-2.6.2-5.4.2-8.4z"/><path d="m373.3 333.6h7.4v3.3c0 .1-.4 1.8-1.3 4.9-1.4 5.2-2.2 8-2.2 8.1h3.5v.1 2.3.6c0 .1 0 .1-.1.1h-.1c0 .1 0 .2-.1.2-3.7 0-6.3 0-7.8 0v-3.4l3.5-12.9v-.1c-.2 0-.6 0-1.2 0h-.1v-.2c-.5 0-.9 0-1.3 0h-.2c0-1.2 0-2.2 0-3z"/><path d="m381.6 333.6h4v1.2 2.1s.1.1.2.2v2 10.5 3.7h-1.5c-.2-.1-.3-.1-.3-.1h-.7c-.6 0-1.2 0-1.8 0v-1.2s0-.1 0-.2c0-6 0-11 0-15v-1.6c.1-.3.1-.9.1-1.6z"/><path d="m386.6 333.6h4.3v16.4h1.2c.1-.1.1-.1.2-.1h.6.6v3.4h-6.8v-19.7z"/><path d="m393.9 333.6h4.3v16.4h1.2c.1-.1.1-.1.2-.1h.6.6v3.4h-6.8v-19.7z"/><path d="m406.2 333.6h1.2v.2h.3.8.3l2.6 19.5h-4.2l-.3-3.8h-1.3l-.4 3.9c-2.5 0-3.8 0-4.1 0 1.7-13 2.6-19.6 2.6-19.6 1.1-.2 1.9-.2 2.5-.2zm.1 6.6-.4 6h.9z"/><path d="m503.8 333.6h.6c2.1 0 3.4.3 3.9.9.4.7.6 1.6.6 2.8v3h-4.1v-2.8c0-.3-.2-.4-.6-.4-.4 0-.6.2-.6.7v6.4.9s.1.1.2.2v.2 3.9.2c.1.2.2.3.3.3.4-.1.6-.2.6-.3v-4.6h.1 4 .1v4.8h.1v.1c0 1.6-.4 2.6-1.1 3.1-.7.3-1.9.5-3.5.5h-.4c-2.1 0-3.4-.3-3.9-.8-.4-.6-.7-1.6-.7-3v-12.1c0-1.9.3-3 1-3.3.7-.5 1.8-.7 3.4-.7z"/><path d="m509.9 333.6h4s.1 0 .1.1v3.3c.2.1.2.2.2.2v.4.1 3.2h.1.9c0-3.3 0-5.7 0-7.2h4.1.1.1v1.3.2 17.8.3h-4.2v-.1c0-5.6-.1-8.6-.1-9.1h-1v.1 6 2.2.1.1.7h-1.5s-.1 0-.3-.1h-.5c-.3 0-1 0-2 0 0-1.3 0-2 0-2.2v-1.1-.1-.1-1.1c0-.6 0-1.3 0-2.2v-.1-.5c-.1-2.9-.1-6.9 0-12.2z"/><path d="m525.4 333.6h1.2v.2h.3.8.3l2.6 19.5h-4.2l-.3-3.8h-1.3l-.4 3.9c-2.5 0-3.8 0-4.1 0 1.7-13 2.6-19.6 2.6-19.6 1.1-.2 1.8-.2 2.5-.2zm.1 6.6-.4 6h.9z"/><path d="m531.4 333.6h4v1.2 2.1s.1.1.2.2v2 10.5 3.7h-1.5c-.2-.1-.3-.1-.3-.1h-.7c-.6 0-1.2 0-1.8 0v-1.2s0-.1 0-.2c0-6 0-11 0-15v-1.6c.1-.3.1-.9.1-1.6z"/><path d="m537 333.6h3.3l2 9.9v-9.9h3.6v19.7h-3.9c-1.3-6.2-2-9.4-2.1-9.6v9.6h-3.6v-3.5c.2 0 .3 0 .3-.1v-.5c0-1 0-2.4 0-4.1v-.1s0 0 0-.1h.2c0-1.4 0-2.3 0-2.9 0-2.6.1-5.4.2-8.4z"/><path d="m547.3 333.6h7.4v3.3c0 .1-.4 1.8-1.3 4.9-1.4 5.2-2.2 8-2.2 8.1h3.5v.1 2.3.6c0 .1 0 .1-.1.1h-.1c0 .1 0 .2-.1.2-3.7 0-6.3 0-7.8 0v-3.4l3.5-12.9v-.1c-.2 0-.6 0-1.2 0h-.1v-.2c-.5 0-.9 0-1.3 0h-.2c0-1.2 0-2.2 0-3z"/><path d="m555.6 333.6h4v1.2 2.1s.1.1.2.2v2 10.5 3.7h-1.5c-.2-.1-.3-.1-.3-.1h-.7c-.6 0-1.2 0-1.8 0v-1.2s0-.1 0-.2c0-6 0-11 0-15v-1.6c.1-.3.1-.9.1-1.6z"/><path d="m560.6 333.6h4.3v16.4h1.2c.1-.1.1-.1.2-.1h.6.6v3.4h-6.8v-19.7z"/><path d="m567.9 333.6h4.3v16.4h1.2c.1-.1.1-.1.2-.1h.6.6v3.4h-6.8v-19.7z"/><path d="m580.2 333.6h1.2v.2h.3.8.3l2.6 19.5h-4.2l-.3-3.8h-1.3l-.4 3.9c-2.5 0-3.8 0-4.1 0 1.7-13 2.6-19.6 2.6-19.6 1.1-.2 1.9-.2 2.5-.2zm.2 6.6-.4 6h.9z"/></g><g clip-path="url(#a)"><path d="m427.2 355.1h.6c2.1 0 3.4.3 3.9.9.4.7.6 1.6.6 2.8v3h-4.1v-2.8c0-.3-.2-.4-.6-.4-.4 0-.6.2-.6.7v6.4.9s.1.1.2.2v.2 3.9.2c.1.2.2.3.3.3.4-.1.6-.2.6-.3v-4.6h.1 4 .1v4.8h.1v.1c0 1.6-.4 2.6-1.1 3.1-.7.3-1.9.5-3.5.5h-.5c-2.1 0-3.4-.3-3.9-.8-.4-.6-.7-1.6-.7-3v-12.1c0-1.9.3-3 1-3.3.7-.5 1.9-.7 3.5-.7z"/><path d="m433.2 355.1h4s.1 0 .1.1v3.3c.2.1.2.2.2.2v.4.1 3.2h.1.9c0-3.3 0-5.7 0-7.2h4.1.1.1v1.3.2 17.8.3h-4.2v-.1c0-5.6-.1-8.6-.1-9.1h-1v.1 6 2.2.1.1.7h-1.5s-.1 0-.3-.1h-.5c-.3 0-1 0-2 0 0-1.3 0-2 0-2.2v-1.1-.1-.1-1.1c0-.6 0-1.3 0-2.2v-.1-.5c0-2.9 0-6.9 0-12.2z"/><path d="m448.7 355.1h1.2v.2h.3.8.3l2.6 19.5h-4.2l-.3-3.8h-1.3l-.4 3.9c-2.5 0-3.8 0-4.1 0 1.7-13 2.6-19.6 2.6-19.6 1.1-.2 1.9-.2 2.5-.2zm.1 6.5-.4 6h.9z"/><path d="m454.7 355.1h4v1.2 2.1s.1.1.2.2v2 10.5 3.7h-1.5c-.2-.1-.3-.1-.3-.1h-.7c-.6 0-1.2 0-1.8 0v-1.3s0-.1 0-.2c0-6 0-11 0-15v-1.6c.1-.2.1-.8.1-1.5z"/><path d="m460.3 355.1h3.3l2 9.9v-9.9h3.6v19.7h-3.9c-1.3-6.2-2-9.4-2.1-9.6v9.6h-3.6v-3.5c.2 0 .3 0 .3-.1v-.5c0-1 0-2.4 0-4.1v-.1s0 0 0-.1h.2c0-1.4 0-2.3 0-2.9.1-2.6.1-5.4.2-8.4z"/><path d="m470.7 355.1h7.4v3.3c0 .1-.4 1.8-1.3 4.9-1.4 5.2-2.2 8-2.2 8.1h3.5v.1 2.3.6c0 .1 0 .1-.1.1 0 .1 0 .2-.1.2-3.7 0-6.3 0-7.8 0v-3.4l3.5-12.9v-.1c-.2 0-.6 0-1.2 0h-.1v-.2c-.5 0-.9 0-1.3 0h-.2c-.2-1.2-.1-2.3-.1-3z"/><path d="m478.9 355.1h4v1.2 2.1s.1.1.2.2v2 10.5 3.7h-1.5c-.2-.1-.3-.1-.3-.1h-.7c-.6 0-1.2 0-1.8 0v-1.3s0-.1 0-.2c0-6 0-11 0-15v-1.6c.1-.2.1-.8.1-1.5z"/><path d="m483.9 355.1h4.3v16.4h1.2c.1-.1.1-.1.2-.1h.6.6v3.4h-6.8v-19.7z"/><path d="m491.3 355.1h4.3v16.4h1.2c.1-.1.1-.1.2-.1h.6.6v3.4h-6.8v-19.7z"/><path d="m503.6 355.1h1.2v.2h.3.8.3l2.6 19.5h-4.2l-.3-3.8h-1.3l-.4 3.9c-2.5 0-3.8 0-4.1 0 1.7-13 2.6-19.6 2.6-19.6 1-.2 1.8-.2 2.5-.2zm.1 6.5-.4 6h.9z"/><path d="m340.2 355.1h.6c2.1 0 3.4.3 3.9.9.4.7.6 1.6.6 2.8v3h-4.1v-2.8c0-.3-.2-.4-.6-.4-.4 0-.6.2-.6.7v6.4.9s.1.1.2.2v.2 3.9.2c.1.2.2.3.3.3.4-.1.6-.2.6-.3v-4.6h.1 4 .1v4.8h.1v.1c0 1.6-.4 2.6-1.1 3.1-.7.3-1.9.5-3.5.5h-.5c-2.1 0-3.4-.3-3.9-.8-.4-.6-.7-1.6-.7-3v-12.1c0-1.9.3-3 1-3.3.8-.5 1.9-.7 3.5-.7z"/><path d="m346.2 355.1h4s.1 0 .1.1v3.3c.2.1.2.2.2.2v.4.1 3.2h.1.9c0-3.3 0-5.7 0-7.2h4.1.1.1v1.3.2 17.8.3h-4.2v-.1c0-5.6-.1-8.6-.1-9.1h-1v.1 6 2.2.1.1.7h-1.5s-.1 0-.3-.1h-.5c-.3 0-1 0-2 0 0-1.3 0-2 0-2.2v-1.1-.1-.1-1.1c0-.6 0-1.3 0-2.2v-.1-.5c0-2.9 0-6.9 0-12.2z"/><path d="m361.8 355.1h1.2v.2h.3.8.3l2.6 19.5h-4.2l-.3-3.8h-1.3l-.4 3.9c-2.5 0-3.8 0-4.1 0 1.7-13 2.6-19.6 2.6-19.6 1-.2 1.8-.2 2.5-.2zm.1 6.5-.4 6h.9z"/><path d="m367.8 355.1h4v1.2 2.1s.1.1.2.2v2 10.5 3.7h-1.5c-.2-.1-.3-.1-.3-.1h-.7c-.6 0-1.2 0-1.8 0v-1.3s0-.1 0-.2c0-6 0-11 0-15v-1.6c.1-.2.1-.8.1-1.5z"/><path d="m373.3 355.1h3.3l2 9.9v-9.9h3.6v19.7h-3.9c-1.3-6.2-2-9.4-2.1-9.6v9.6h-3.6v-3.5c.2 0 .3 0 .3-.1v-.5c0-1 0-2.4 0-4.1v-.1s0 0 0-.1h.2c0-1.4 0-2.3 0-2.9.1-2.6.2-5.4.2-8.4z"/><path d="m383.7 355.1h7.4v3.3c0 .1-.4 1.8-1.3 4.9-1.4 5.2-2.2 8-2.2 8.1h3.5v.1 2.3.6c0 .1 0 .1-.1.1 0 .1 0 .2-.1.2-3.7 0-6.3 0-7.8 0v-3.4l3.5-12.9v-.1c-.2 0-.6 0-1.2 0h-.1v-.2c-.5 0-.9 0-1.3 0h-.2c-.1-1.2-.1-2.3-.1-3z"/><path d="m392 355.1h4v1.2 2.1s.1.1.2.2v2 10.5 3.7h-1.5c-.2-.1-.3-.1-.3-.1h-.7c-.6 0-1.2 0-1.8 0v-1.3s0-.1 0-.2c0-6 0-11 0-15v-1.6c.1-.2.1-.8.1-1.5z"/><path d="m397 355.1h4.3v16.4h1.2c.1-.1.1-.1.2-.1h.6.6v3.4h-6.9z"/><path d="m404.3 355.1h4.3v16.4h1.2c.1-.1.1-.1.2-.1h.6.6v3.4h-6.8v-19.7z"/><path d="m416.6 355.1h1.2v.2h.3.8.3l2.6 19.5h-4.2l-.3-3.8h-1.3l-.4 3.9c-2.5 0-3.8 0-4.1 0 1.7-13 2.6-19.6 2.6-19.6 1.1-.2 1.9-.2 2.5-.2zm.1 6.5-.4 6h.9z"/><path d="m514.2 355.1h.6c2.1 0 3.4.3 3.9.9.4.7.6 1.6.6 2.8v3h-4.1v-2.8c0-.3-.2-.4-.6-.4-.4 0-.6.2-.6.7v6.4.9s.1.1.2.2v.2 3.9.2c.1.2.2.3.3.3.4-.1.6-.2.6-.3v-4.6h.1 4 .1v4.8h.1v.1c0 1.6-.4 2.6-1.1 3.1-.7.3-1.9.5-3.5.5h-.5c-2.1 0-3.4-.3-3.9-.8-.4-.6-.7-1.6-.7-3v-12.1c0-1.9.3-3 1-3.3.8-.5 1.9-.7 3.5-.7z"/><path d="m520.3 355.1h4s.1 0 .1.1v3.3c.2.1.2.2.2.2v.4.1 3.2h.1.9c0-3.3 0-5.7 0-7.2h4.1.1.1v1.3.2 17.8.3h-4.2v-.1c0-5.6-.1-8.6-.1-9.1h-1v.1 6 2.2.1.1.7h-1.6s-.1 0-.3-.1h-.5c-.3 0-1 0-2 0 0-1.3 0-2 0-2.2v-1.1-.1-.1-1.1c0-.6 0-1.3 0-2.2v-.1-.5c0-2.9 0-6.9.1-12.2z"/><path d="m535.8 355.1h1.2v.2h.3.8.3l2.6 19.5h-4.2l-.3-3.8h-1.3l-.4 3.9c-2.5 0-3.8 0-4.1 0 1.7-13 2.6-19.6 2.6-19.6 1.1-.2 1.8-.2 2.5-.2zm.1 6.5-.4 6h.9z"/><path d="m541.8 355.1h4v1.2 2.1s.1.1.2.2v2 10.5 3.7h-1.5c-.2-.1-.3-.1-.3-.1h-.7c-.6 0-1.2 0-1.8 0v-1.3s0-.1 0-.2c0-6 0-11 0-15v-1.6c.1-.2.1-.8.1-1.5z"/><path d="m547.4 355.1h3.3l2 9.9v-9.9h3.6v19.7h-3.9c-1.3-6.2-2-9.4-2.1-9.6v9.6h-3.6v-3.5c.2 0 .3 0 .3-.1v-.5c0-1 0-2.4 0-4.1v-.1s0 0 0-.1h.2c0-1.4 0-2.3 0-2.9 0-2.6.1-5.4.2-8.4z"/><path d="m557.7 355.1h7.4v3.3c0 .1-.4 1.8-1.3 4.9-1.4 5.2-2.2 8-2.2 8.1h3.5v.1 2.3.6c0 .1 0 .1-.1.1 0 .1 0 .2-.1.2-3.7 0-6.3 0-7.8 0v-3.4l3.5-12.9v-.1c-.2 0-.6 0-1.2 0h-.1v-.2c-.5 0-.9 0-1.3 0h-.2c-.1-1.2-.1-2.3-.1-3z"/><path d="m566 355.1h4v1.2 2.1s.1.1.2.2v2 10.5 3.7h-1.5c-.2-.1-.3-.1-.3-.1h-.7c-.6 0-1.2 0-1.8 0v-1.3s0-.1 0-.2c0-6 0-11 0-15v-1.6c.1-.2.1-.8.1-1.5z"/><path d="m571 355.1h4.3v16.4h1.2c.1-.1.1-.1.2-.1h.6.6v3.4h-6.9z"/><path d="m578.3 355.1h4.3v16.4h1.2c.1-.1.1-.1.2-.1h.6.6v3.4h-6.8v-19.7z"/><path d="m590.6 355.1h1.2v.2h.3.8.3l2.6 19.5h-4.2l-.3-3.8h-1.3l-.4 3.9c-2.5 0-3.8 0-4.1 0 1.7-13 2.6-19.6 2.6-19.6 1.1-.2 1.9-.2 2.5-.2zm.2 6.5-.4 6h.9z"/></g><g clip-path="url(#a)"><path d="m438.4 376.6h.6c2.1 0 3.4.3 3.9.9.4.7.6 1.6.6 2.8v3h-4.1v-2.8c0-.3-.2-.4-.6-.4-.4 0-.6.2-.6.7v6.4.9s.1.1.2.2v.2 3.9.2c.1.2.2.3.3.3.4-.1.6-.2.6-.3v-4.6h.1 4 .1v4.8h.1v.1c0 1.6-.4 2.6-1.1 3.1-.7.3-1.9.5-3.5.5h-.5c-2.1 0-3.4-.3-3.9-.8-.4-.6-.7-1.6-.7-3v-12.1c0-1.9.3-3 1-3.3.7-.5 1.9-.7 3.5-.7z"/><path d="m444.4 376.6h4s.1 0 .1.1v3.3c.2.1.2.2.2.2v.4.1 3.2h.1.9c0-3.3 0-5.7 0-7.2h4.1.1.1v1.3.2 17.8.3h-4.2v-.1c0-5.6-.1-8.6-.1-9.1h-1v.1 6 2.2.1.1.7h-1.5s-.1 0-.3-.1h-.5c-.3 0-1 0-2 0 0-1.3 0-2 0-2.2v-1.1-.1-.1-1.1c0-.6 0-1.3 0-2.2v-.1-.5c0-2.9 0-6.9 0-12.2z"/><path d="m459.9 376.6h1.2v.2h.3.8.3l2.6 19.5h-4.1l-.3-3.8h-1.3l-.4 3.9c-2.5 0-3.8 0-4.1 0 1.7-13 2.6-19.6 2.6-19.6 1-.2 1.8-.2 2.4-.2zm.1 6.5-.4 6h.9z"/><path d="m465.9 376.6h4v1.2 2.1s.1.1.2.2v2 10.5 3.7h-1.5c-.2-.1-.3-.1-.3-.1h-.7c-.6 0-1.2 0-1.8 0v-1.2s0-.1 0-.2c0-6 0-11 0-15v-1.6c.1-.3.1-.9.1-1.6z"/><path d="m471.5 376.6h3.3l2 9.9v-9.9h3.6v19.7h-3.9c-1.3-6.2-2-9.4-2.1-9.6v9.6h-3.6v-3.5c.2 0 .3 0 .3-.1v-.5c0-1 0-2.4 0-4.1v-.1s0 0 0-.1h.2c0-1.4 0-2.3 0-2.9.1-2.6.1-5.4.2-8.4z"/><path d="m481.8 376.6h7.4v3.3c0 .1-.4 1.8-1.3 4.9-1.4 5.2-2.2 8-2.2 8.1h3.5v.1 2.3.6c0 .1 0 .1-.1.1h-.1c0 .1 0 .2-.1.2-3.7 0-6.3 0-7.8 0v-3.4l3.5-12.9v-.1c-.2 0-.6 0-1.2 0h-.1v-.2c-.5 0-.9 0-1.3 0h-.2c0-1.3 0-2.3 0-3z"/><path d="m490.1 376.6h4v1.2 2.1s.1.1.2.2v2 10.5 3.7h-1.5c-.2-.1-.3-.1-.3-.1h-.7c-.6 0-1.2 0-1.8 0v-1.2s0-.1 0-.2c0-6 0-11 0-15v-1.6c.1-.3.1-.9.1-1.6z"/><path d="m495.1 376.6h4.3v16.4h1.2c.1-.1.1-.1.2-.1h.6.6v3.4h-6.8v-19.7z"/><path d="m502.5 376.6h4.3v16.4h1.2c.1-.1.1-.1.2-.1h.6.6v3.4h-6.8v-19.7z"/><path d="m514.8 376.6h1.2v.2h.3.8.3l2.6 19.5h-4.2l-.3-3.8h-1.3l-.4 3.9c-2.5 0-3.8 0-4.1 0 1.7-13 2.6-19.6 2.6-19.6 1-.2 1.8-.2 2.5-.2zm.1 6.5-.4 6h.9z"/><path d="m351.4 376.6h.6c2.1 0 3.4.3 3.9.9.4.7.6 1.6.6 2.8v3h-4.1v-2.8c0-.3-.2-.4-.6-.4-.4 0-.6.2-.6.7v6.4.9s.1.1.2.2v.2 3.9.2c.1.2.2.3.3.3.4-.1.6-.2.6-.3v-4.6h.1 4 .1v4.8h.1v.1c0 1.6-.4 2.6-1.1 3.1-.7.3-1.9.5-3.5.5h-.5c-2.1 0-3.4-.3-3.9-.8-.4-.6-.7-1.6-.7-3v-12.1c0-1.9.3-3 1-3.3.8-.5 1.9-.7 3.5-.7z"/><path d="m357.4 376.6h4s.1 0 .1.1v3.3c.2.1.2.2.2.2v.4.1 3.2h.1.9c0-3.3 0-5.7 0-7.2h4.1.1.1v1.3.2 17.8.3h-4.2v-.1c0-5.6-.1-8.6-.1-9.1h-1v.1 6 2.2.1.1.7h-1.5s-.1 0-.3-.1h-.5c-.3 0-1 0-2 0 0-1.3 0-2 0-2.2v-1.1-.1-.1-1.1c0-.6 0-1.3 0-2.2v-.1-.5c0-2.9 0-6.9 0-12.2z"/><path d="m373 376.6h1.2v.2h.3.8.3l2.6 19.5h-4.2l-.3-3.8h-1.3l-.4 3.9c-2.5 0-3.8 0-4.1 0 1.7-13 2.6-19.6 2.6-19.6 1-.2 1.8-.2 2.5-.2zm.1 6.5-.4 6h.9z"/><path d="m379 376.6h4v1.2 2.1s.1.1.2.2v2 10.5 3.7h-1.5c-.2-.1-.3-.1-.3-.1h-.7c-.6 0-1.2 0-1.8 0v-1.2s0-.1 0-.2c0-6 0-11 0-15v-1.6c.1-.3.1-.9.1-1.6z"/><path d="m384.5 376.6h3.3l2 9.9v-9.9h3.6v19.7h-3.9c-1.3-6.2-2-9.4-2.1-9.6v9.6h-3.4v-3.5c.2 0 .3 0 .3-.1v-.5c0-1 0-2.4 0-4.1v-.1s0 0 0-.1h.2c0-1.4 0-2.3 0-2.9-.1-2.6 0-5.4 0-8.4z"/><path d="m394.9 376.6h7.4v3.3c0 .1-.4 1.8-1.3 4.9-1.4 5.2-2.2 8-2.2 8.1h3.5v.1 2.3.6c0 .1 0 .1-.1.1h-.1c0 .1 0 .2-.1.2-3.7 0-6.3 0-7.8 0v-3.4l3.5-12.9v-.1c-.2 0-.6 0-1.2 0h-.1v-.2c-.5 0-.9 0-1.3 0h-.2c0-1.3 0-2.3 0-3z"/><path d="m403.2 376.6h4v1.2 2.1s.1.1.2.2v2 10.5 3.7h-1.4c-.2-.1-.3-.1-.3-.1h-.7c-.6 0-1.2 0-1.8 0v-1.2s0-.1 0-.2c0-6 0-11 0-15v-1.6c0-.3 0-.9 0-1.6z"/><path d="m408.2 376.6h4.3v16.4h1.2c.1-.1.1-.1.2-.1h.6.6v3.4h-6.8v-19.7z"/><path d="m415.5 376.6h4.3v16.4h1.2c.1-.1.1-.1.2-.1h.6.6v3.4h-6.8v-19.7z"/><path d="m427.8 376.6h1.2v.2h.3.8.3l2.6 19.5h-4.2l-.3-3.8h-1.3l-.4 3.9c-2.5 0-3.8 0-4.1 0 1.7-13 2.6-19.6 2.6-19.6 1.1-.2 1.9-.2 2.5-.2zm.1 6.5-.4 6h.9z"/><path d="m525.4 376.6h.6c2.1 0 3.4.3 3.9.9.4.7.6 1.6.6 2.8v3h-4.1v-2.8c0-.3-.2-.4-.6-.4-.4 0-.6.2-.6.7v6.4.9s.1.1.2.2v.2 3.9.2c.1.2.2.3.3.3.4-.1.6-.2.6-.3v-4.6h.1 4 .1v4.8h.1v.1c0 1.6-.4 2.6-1.1 3.1-.7.3-1.9.5-3.5.5h-.5c-2.1 0-3.4-.3-3.9-.8-.4-.6-.7-1.6-.7-3v-12.1c0-1.9.3-3 1-3.3.8-.5 1.9-.7 3.5-.7z"/><path d="m531.4 376.6h4s.1 0 .1.1v3.3c.2.1.2.2.2.2v.4.1 3.2h.1.9c0-3.3 0-5.7 0-7.2h4.1.1.1v1.3.2 17.8.3h-4.2v-.1c0-5.6-.1-8.6-.1-9.1h-1v.1 6 2.2.1.1.7h-1.5s-.1 0-.3-.1h-.5c-.3 0-1 0-2 0 0-1.3 0-2 0-2.2v-1.1-.1-.1-1.1c0-.6 0-1.3 0-2.2v-.1-.5c0-2.9 0-6.9 0-12.2z"/><path d="m547 376.6h1.2v.2h.3.8.3l2.6 19.5h-4.2l-.3-3.8h-1.3l-.4 3.9c-2.5 0-3.8 0-4.1 0 1.7-13 2.6-19.6 2.6-19.6 1-.2 1.8-.2 2.5-.2zm.1 6.5-.4 6h.9z"/><path d="m553 376.6h4v1.2 2.1s.1.1.2.2v2 10.5 3.7h-1.5c-.2-.1-.3-.1-.3-.1h-.7c-.6 0-1.2 0-1.8 0v-1.2s0-.1 0-.2c0-6 0-11 0-15v-1.6c.1-.3.1-.9.1-1.6z"/><path d="m558.5 376.6h3.3l2 9.9v-9.9h3.6v19.7h-3.9c-1.3-6.2-2-9.4-2.1-9.6v9.6h-3.4v-3.5c.2 0 .3 0 .3-.1v-.5c0-1 0-2.4 0-4.1v-.1s0 0 0-.1h.2c0-1.4 0-2.3 0-2.9-.1-2.6 0-5.4 0-8.4z"/><path d="m568.9 376.6h7.4v3.3c0 .1-.4 1.8-1.3 4.9-1.4 5.2-2.2 8-2.2 8.1h3.5v.1 2.3.6c0 .1 0 .1-.1.1h-.1c0 .1 0 .2-.1.2-3.7 0-6.3 0-7.8 0v-3.4l3.5-12.9v-.1c-.2 0-.6 0-1.2 0h-.1v-.2c-.5 0-.9 0-1.3 0h-.2c0-1.3 0-2.3 0-3z"/><path d="m577.2 376.6h4v1.2 2.1s.1.1.2.2v2 10.5 3.7h-1.4c-.2-.1-.3-.1-.3-.1h-.7c-.6 0-1.2 0-1.8 0v-1.2s0-.1 0-.2c0-6 0-11 0-15v-1.6c0-.3 0-.9 0-1.6z"/><path d="m582.2 376.6h4.3v16.4h1.2c.1-.1.1-.1.2-.1h.6.6v3.4h-6.8v-19.7z"/><path d="m589.5 376.6h4.3v16.4h1.2c.1-.1.1-.1.2-.1h.6.6v3.4h-6.8v-19.7z"/><path d="m601.8 376.6h1.2v.2h.3.8.3l2.6 19.5h-4l-.3-3.8h-1.3l-.4 3.9c-2.5 0-3.8 0-4.1 0 1.7-13 2.6-19.6 2.6-19.6.9-.2 1.7-.2 2.3-.2zm.1 6.5-.4 6h.9z"/></g><g clip-path="url(#a)"><path d="m318.3 140.2h.6c2.1 0 3.4.3 3.9.9.4.7.6 1.6.6 2.8v3h-4.1v-2.8c0-.3-.2-.4-.6-.4-.4 0-.6.2-.6.7v6.4.9s.1.1.2.2v.2 3.9.2c.1.2.2.3.3.3.4-.1.6-.2.6-.3v-4.6h.1 4 .1v4.8h.1v.1c0 1.6-.4 2.6-1.1 3.1-.7.3-1.9.5-3.5.5h-.5c-2.1 0-3.4-.3-3.9-.8-.4-.6-.7-1.6-.7-3v-12.3c0-1.9.3-3 1-3.3.7-.4 1.9-.5 3.5-.5z"/><path d="m324.3 140.1h4s.1 0 .1.1v3.3c.2.1.2.2.2.2v.4.1 3.2h.1.9c0-3.3 0-5.7 0-7.2h4.1.1.1v1.3.2 17.8.3h-4.2v-.1c0-5.6-.1-8.6-.1-9.1h-1v.1 6 2.2.1.1.7h-1.5s-.1 0-.3-.1h-.5c-.3 0-1 0-2 0 0-1.3 0-2 0-2.2v-1.1-.1-.1-1.1c0-.6 0-1.3 0-2.2v-.1-.5c0-2.8 0-6.9 0-12.2z"/><path d="m339.8 140.1h1.2v.2h.3.8.3l2.6 19.5h-4l-.3-3.8h-1.3l-.4 3.9c-2.5 0-3.8 0-4.1 0 1.7-13 2.6-19.6 2.6-19.6.9-.1 1.7-.2 2.3-.2zm.2 6.6-.4 6h.9z"/><path d="m345.9 140.1h4v1.2 2.1s.1.1.2.2v2 10.5 3.7h-1.5c-.2-.1-.3-.1-.3-.1h-.7c-.6 0-1.2 0-1.8 0v-1.3s0-.1 0-.2c0-6 0-11 0-15v-1.6c0-.2 0-.7.1-1.5z"/><path d="m351.4 140.1h3.3l2 9.9v-9.9h3.6v19.7h-3.9c-1.3-6.2-2-9.4-2.1-9.6v9.6h-3.6v-3.5c.2 0 .3 0 .3-.1v-.5c0-1 0-2.4 0-4.1v-.1s0 0 0-.1h.2c0-1.4 0-2.3 0-2.9.1-2.5.1-5.4.2-8.4z"/><path d="m361.8 140.1h7.4v3.3c0 .1-.4 1.8-1.3 4.9-1.4 5.2-2.2 8-2.2 8.1h3.5v.1 2.3.6c0 .1 0 .1-.1.1h-.1c0 .1 0 .2-.1.2-3.7 0-6.3 0-7.8 0v-3.4l3.5-12.9v-.1c-.2 0-.6 0-1.2 0h-.1v-.2c-.5 0-.9 0-1.3 0h-.2c0-1.2 0-2.2 0-3z"/><path d="m370.1 140.1h4v1.2 2.1s.1.1.2.2v2 10.5 3.7h-1.5c-.2-.1-.3-.1-.3-.1h-.7c-.6 0-1.2 0-1.8 0v-1.3s0-.1 0-.2c0-6 0-11 0-15v-1.6c0-.2.1-.7.1-1.5z"/><path d="m375.1 140.1h4.3v16.4h1.2c.1-.1.1-.1.2-.1h.6.6v3.4h-6.8v-19.7z"/><path d="m382.4 140.1h4.3v16.4h1.2c.1-.1.1-.1.2-.1h.6.6v3.4h-6.8v-19.7z"/><path d="m394.7 140.1h1.2v.2h.3.8.3l2.6 19.5h-4.2l-.3-3.8h-1.3l-.4 3.9c-2.5 0-3.8 0-4.1 0 1.7-13 2.6-19.6 2.6-19.6 1.1-.1 1.8-.2 2.5-.2zm.1 6.6-.4 6h.9z"/><path d="m231.3 140.2h.6c2.1 0 3.4.3 3.9.9.4.7.6 1.6.6 2.8v3h-4.1v-2.8c0-.3-.2-.4-.6-.4-.4 0-.6.2-.6.7v6.4.9s.1.1.2.2v.2 3.9.2c.1.2.2.3.3.3.4-.1.6-.2.6-.3v-4.6h.1 4 .1v4.8h.1v.1c0 1.6-.4 2.6-1.1 3.1-.7.3-1.9.5-3.5.5h-.5c-2.1 0-3.4-.3-3.9-.8-.4-.6-.7-1.6-.7-3v-12.3c0-1.9.3-3 1-3.3.8-.4 1.9-.5 3.5-.5z"/><path d="m237.4 140.1h4s.1 0 .1.1v3.3c.2.1.2.2.2.2v.4.1 3.2h.1.9c0-3.3 0-5.7 0-7.2h4.1.1.1v1.3.2 17.8.3h-4.2v-.1c0-5.6-.1-8.6-.1-9.1h-1v.1 6 2.2.1.1.7h-1.5s-.1 0-.3-.1h-.5c-.3 0-1 0-2 0 0-1.3 0-2 0-2.2v-1.1-.1-.1-1.1c0-.6 0-1.3 0-2.2v-.1-.5c-.1-2.8-.1-6.9 0-12.2z"/><path d="m252.9 140.1h1.2v.2h.3.8.3l2.6 19.5h-4.1l-.3-3.8h-1.3l-.4 3.9c-2.5 0-3.8 0-4.1 0 1.7-13 2.6-19.6 2.6-19.6 1-.1 1.7-.2 2.4-.2zm.1 6.6-.4 6h.9z"/><path d="m258.9 140.1h4v1.2 2.1s.1.1.2.2v2 10.5 3.7h-1.5c-.2-.1-.3-.1-.3-.1h-.7c-.6 0-1.2 0-1.8 0v-1.3s0-.1 0-.2c0-6 0-11 0-15v-1.6c.1-.2.1-.7.1-1.5z"/><path d="m264.5 140.1h3.3l2 9.9v-9.9h3.6v19.7h-3.9c-1.3-6.2-2-9.4-2.1-9.6v9.6h-3.6v-3.5c.2 0 .3 0 .3-.1v-.5c0-1 0-2.4 0-4.1v-.1s0 0 0-.1h.2c0-1.4 0-2.3 0-2.9.1-2.5.1-5.4.2-8.4z"/><path d="m274.8 140.1h7.4v3.3c0 .1-.4 1.8-1.3 4.9-1.4 5.2-2.2 8-2.2 8.1h3.5v.1 2.3.6c0 .1 0 .1-.1.1h-.1c0 .1 0 .2-.1.2-3.7 0-6.3 0-7.8 0v-3.4l3.5-12.9v-.1c-.2 0-.6 0-1.2 0h-.1v-.2c-.5 0-.9 0-1.3 0h-.2c0-1.2 0-2.2 0-3z"/><path d="m283.1 140.1h4v1.2 2.1s.1.1.2.2v2 10.5 3.7h-1.5c-.2-.1-.3-.1-.3-.1h-.7c-.6 0-1.2 0-1.8 0v-1.3s0-.1 0-.2c0-6 0-11 0-15v-1.6c.1-.2.1-.7.1-1.5z"/><path d="m288.1 140.1h4.3v16.4h1.2c.1-.1.1-.1.2-.1h.6.6v3.4h-6.8v-19.7z"/><path d="m295.4 140.1h4.3v16.4h1.2c.1-.1.1-.1.2-.1h.6.6v3.4h-6.8v-19.7z"/><path d="m307.7 140.1h1.2v.2h.3.8.3l2.6 19.5h-4.2l-.3-3.8h-1.3l-.4 3.9c-2.5 0-3.8 0-4.1 0 1.7-13 2.6-19.6 2.6-19.6 1.1-.1 1.9-.2 2.5-.2zm.2 6.6-.4 6h.9z"/><path d="m405.4 140.2h.6c2.1 0 3.4.3 3.9.9.4.7.6 1.6.6 2.8v3h-4.1v-2.8c0-.3-.2-.4-.6-.4-.4 0-.6.2-.6.7v6.4.9s.1.1.2.2v.2 3.9.2c.1.2.2.3.3.3.4-.1.6-.2.6-.3v-4.6h.1 4 .1v4.8h.1v.1c0 1.6-.4 2.6-1.1 3.1-.7.3-1.9.5-3.5.5h-.5c-2.1 0-3.4-.3-3.9-.8-.4-.6-.7-1.6-.7-3v-12.3c0-1.9.3-3 1-3.3.7-.4 1.9-.5 3.5-.5z"/><path d="m411.4 140.1h4s.1 0 .1.1v3.3c.2.1.2.2.2.2v.4.1 3.2h.1.9c0-3.3 0-5.7 0-7.2h4.1.1.1v1.3.2 17.8.3h-4.2v-.1c0-5.6-.1-8.6-.1-9.1h-1v.1 6 2.2.1.1.7h-1.5s-.1 0-.3-.1h-.5c-.3 0-1 0-2 0 0-1.3 0-2 0-2.2v-1.1-.1-.1-1.1c0-.6 0-1.3 0-2.2v-.1-.5c0-2.8 0-6.9 0-12.2z"/><path d="m426.9 140.1h1.2v.2h.3.8.3l2.6 19.5h-4.1l-.3-3.8h-1.3l-.4 3.9c-2.5 0-3.8 0-4.1 0 1.7-13 2.6-19.6 2.6-19.6 1-.1 1.8-.2 2.4-.2zm.1 6.6-.4 6h.9z"/><path d="m432.9 140.1h4v1.2 2.1s.1.1.2.2v2 10.5 3.7h-1.5c-.2-.1-.3-.1-.3-.1h-.7c-.6 0-1.2 0-1.8 0v-1.3s0-.1 0-.2c0-6 0-11 0-15v-1.6c.1-.2.1-.7.1-1.5z"/><path d="m438.5 140.1h3.3l2 9.9v-9.9h3.6v19.7h-3.9c-1.3-6.2-2-9.4-2.1-9.6v9.6h-3.6v-3.5c.2 0 .3 0 .3-.1v-.5c0-1 0-2.4 0-4.1v-.1s0 0 0-.1h.2c0-1.4 0-2.3 0-2.9.1-2.5.1-5.4.2-8.4z"/><path d="m448.8 140.1h7.4v3.3c0 .1-.4 1.8-1.3 4.9-1.4 5.2-2.2 8-2.2 8.1h3.5v.1 2.3.6c0 .1 0 .1-.1.1h-.1c0 .1 0 .2-.1.2-3.7 0-6.3 0-7.8 0v-3.4l3.5-12.9v-.1c-.2 0-.6 0-1.2 0h-.1v-.2c-.5 0-.9 0-1.3 0h-.2c0-1.2 0-2.2 0-3z"/><path d="m457.1 140.1h4v1.2 2.1s.1.1.2.2v2 10.5 3.7h-1.5c-.2-.1-.3-.1-.3-.1h-.7c-.6 0-1.2 0-1.8 0v-1.3s0-.1 0-.2c0-6 0-11 0-15v-1.6c.1-.2.1-.7.1-1.5z"/><path d="m462.1 140.1h4.3v16.4h1.2c.1-.1.1-.1.2-.1h.6.6v3.4h-6.8v-19.7z"/><path d="m469.5 140.1h4.3v16.4h1.2c.1-.1.1-.1.2-.1h.6.6v3.4h-6.8v-19.7z"/><path d="m481.8 140.1h1.2v.2h.3.8.3l2.6 19.5h-4.2l-.3-3.8h-1.3l-.4 3.9c-2.5 0-3.8 0-4.1 0 1.7-13 2.6-19.6 2.6-19.6 1-.1 1.8-.2 2.5-.2zm.1 6.6-.4 6h.9z"/></g><g clip-path="url(#a)"><path d="m328.7 161.7h.6c2.1 0 3.4.3 3.9.9.4.7.6 1.6.6 2.8v3h-4.1v-2.8c0-.3-.2-.4-.6-.4-.4 0-.6.2-.6.7v6.4.9s.1.1.2.2v.2 3.9.2c.1.2.2.3.3.3.4-.1.6-.2.6-.3v-4.7h.1 4 .1v4.8h.1v.1c0 1.6-.4 2.6-1.1 3.1-.7.3-1.9.5-3.5.5h-.5c-2.1 0-3.4-.3-3.9-.8-.4-.6-.7-1.6-.7-3v-12.1c0-1.9.3-3 1-3.3.7-.5 1.9-.6 3.5-.6z"/><path d="m334.7 161.6h4s.1 0 .1.1v3.3c.2.1.2.2.2.2v.4.1 3.2h.1.9c0-3.3 0-5.7 0-7.2h4.1.1.1v1.3.2 17.8.3h-4.2v-.1c0-5.6-.1-8.6-.1-9.1h-1v.1 6 2.2.1.1.7h-1.5s-.1 0-.3-.1h-.5c-.3 0-1 0-2 0 0-1.3 0-2 0-2.2v-1-.1-.1-1.1c0-.6 0-1.3 0-2.2v-.1-.5c0-2.9 0-7 0-12.3z"/><path d="m350.2 161.6h1.2v.2h.3.8.3l2.6 19.5h-4.2l-.3-3.8h-1.3l-.4 3.9c-2.5 0-3.8 0-4.1 0 1.7-13 2.6-19.6 2.6-19.6 1.1-.1 1.9-.2 2.5-.2zm.2 6.6-.4 6h.9z"/><path d="m356.3 161.6h4v1.2 2.1s.1.1.2.2v2 10.5 3.7h-1.5c-.2-.1-.3-.1-.3-.1h-.7c-.6 0-1.2 0-1.8 0v-1.2s0-.1 0-.2c0-6 0-11 0-15v-1.6c0-.3 0-.9.1-1.6z"/><path d="m361.8 161.6h3.3l2 9.9v-9.9h3.6v19.7h-3.9c-1.3-6.2-2-9.4-2.1-9.6v9.6h-3.6v-3.5c.2 0 .3 0 .3-.1v-.5c0-1 0-2.4 0-4.1v-.1s0 0 0-.1h.2c0-1.4 0-2.3 0-2.9.1-2.6.1-5.4.2-8.4z"/><path d="m372.2 161.6h7.4v3.3c0 .1-.4 1.8-1.3 4.9-1.4 5.2-2.2 8-2.2 8.1h3.5v.1 2.3.6c0 .1 0 .1-.1.1h-.1c0 .1 0 .2-.1.2-3.7 0-6.3 0-7.8 0v-3.2l3.5-12.9v-.1c-.2 0-.6 0-1.2 0h-.1v-.2c-.5 0-.9 0-1.3 0h-.2c0-1.4 0-2.4 0-3.2z"/><path d="m380.5 161.6h4v1.2 2.1s.1.1.2.2v2 10.5 3.7h-1.5c-.2-.1-.3-.1-.3-.1h-.7c-.6 0-1.2 0-1.8 0v-1.2s0-.1 0-.2c0-6 0-11 0-15v-1.6c0-.3.1-.9.1-1.6z"/><path d="m385.5 161.6h4.3v16.4h1.2c.1-.1.1-.1.2-.1h.6.6v3.4h-6.8v-19.7z"/><path d="m392.8 161.6h4.3v16.4h1.2c.1-.1.1-.1.2-.1h.6.6v3.4h-6.8v-19.7z"/><path d="m405.1 161.6h1.2v.2h.3.8.3l2.6 19.5h-4.2l-.3-3.8h-1.3l-.4 3.9c-2.5 0-3.8 0-4.1 0 1.7-13 2.6-19.6 2.6-19.6 1.1-.1 1.8-.2 2.5-.2zm.1 6.6-.4 6h.9z"/><path d="m241.7 161.7h.6c2.1 0 3.4.3 3.9.9.4.7.6 1.6.6 2.8v3h-4.1v-2.8c0-.3-.2-.4-.6-.4-.4 0-.6.2-.6.7v6.4.9s.1.1.2.2v.2 3.9.2c.1.2.2.3.3.3.4-.1.6-.2.6-.3v-4.7h.1 4 .1v4.8h.1v.1c0 1.6-.4 2.6-1.1 3.1-.7.3-1.9.5-3.5.5h-.5c-2.1 0-3.4-.3-3.9-.8-.4-.6-.7-1.6-.7-3v-12.1c0-1.9.3-3 1-3.3.8-.5 1.9-.6 3.5-.6z"/><path d="m247.8 161.6h4s.1 0 .1.1v3.3c.2.1.2.2.2.2v.4.1 3.2h.1.9c0-3.3 0-5.7 0-7.2h4.1.1.1v1.3.2 17.8.3h-4.2v-.1c0-5.6-.1-8.6-.1-9.1h-1v.1 6 2.2.1.1.7h-1.5s-.1 0-.3-.1h-.5c-.3 0-1 0-2 0 0-1.3 0-2 0-2.2v-1-.1-.1-1.1c0-.6 0-1.3 0-2.2v-.1-.5c-.1-2.9-.1-7 0-12.3z"/><path d="m263.3 161.6h1.2v.2h.3.8.3l2.6 19.5h-4.2l-.3-3.8h-1.3l-.4 3.9c-2.5 0-3.8 0-4.1 0 1.7-13 2.6-19.6 2.6-19.6 1.1-.1 1.8-.2 2.5-.2zm.1 6.6-.4 6h.9z"/><path d="m269.3 161.6h4v1.2 2.1s.1.1.2.2v2 10.5 3.7h-1.5c-.2-.1-.3-.1-.3-.1h-.7c-.6 0-1.2 0-1.8 0v-1.2s0-.1 0-.2c0-6 0-11 0-15v-1.6c.1-.3.1-.9.1-1.6z"/><path d="m274.9 161.6h3.3l2 9.9v-9.9h3.6v19.7h-3.8c-1.3-6.2-2-9.4-2.1-9.6v9.6h-3.6v-3.5c.2 0 .3 0 .3-.1v-.5c0-1 0-2.4 0-4.1v-.1s0 0 0-.1h.2c0-1.4 0-2.3 0-2.9 0-2.6 0-5.4.1-8.4z"/><path d="m285.2 161.6h7.4v3.3c0 .1-.4 1.8-1.3 4.9-1.4 5.2-2.2 8-2.2 8.1h3.5v.1 2.3.6c0 .1 0 .1-.1.1h-.1c0 .1 0 .2-.1.2-3.7 0-6.3 0-7.8 0v-3.2l3.5-12.9v-.1c-.2 0-.6 0-1.2 0h-.1v-.2c-.5 0-.9 0-1.3 0h-.2c0-1.4 0-2.4 0-3.2z"/><path d="m293.5 161.6h4v1.2 2.1s.1.1.2.2v2 10.5 3.7h-1.5c-.2-.1-.3-.1-.3-.1h-.7c-.6 0-1.2 0-1.8 0v-1.2s0-.1 0-.2c0-6 0-11 0-15v-1.6c.1-.3.1-.9.1-1.6z"/><path d="m298.5 161.6h4.3v16.4h1.2c.1-.1.1-.1.2-.1h.6.6v3.4h-6.8v-19.7z"/><path d="m305.8 161.6h4.3v16.4h1.2c.1-.1.1-.1.2-.1h.6.6v3.4h-6.8v-19.7z"/><path d="m318.1 161.6h1.2v.2h.3.8.3l2.6 19.5h-4.2l-.3-3.8h-1.3l-.4 3.9c-2.5 0-3.8 0-4.1 0 1.7-13 2.6-19.6 2.6-19.6 1.1-.1 1.9-.2 2.5-.2zm.2 6.6-.4 6h.9z"/><path d="m415.8 161.7h.6c2.1 0 3.4.3 3.9.9.4.7.6 1.6.6 2.8v3h-4.1v-2.8c0-.3-.2-.4-.6-.4-.4 0-.6.2-.6.7v6.4.9s.1.1.2.2v.2 3.9.2c.1.2.2.3.3.3.4-.1.6-.2.6-.3v-4.7h.1 4 .1v4.8h.1v.1c0 1.6-.4 2.6-1.1 3.1-.7.3-1.9.5-3.5.5h-.5c-2.1 0-3.4-.3-3.9-.8-.4-.6-.7-1.6-.7-3v-12.1c0-1.9.3-3 1-3.3.7-.5 1.9-.6 3.5-.6z"/><path d="m421.8 161.6h4s.1 0 .1.1v3.3c.2.1.2.2.2.2v.4.1 3.2h.1.9c0-3.3 0-5.7 0-7.2h4.1.1.1v1.3.2 17.8.3h-4.2v-.1c0-5.6-.1-8.6-.1-9.1h-1v.1 6 2.2.1.1.7h-1.5s-.1 0-.3-.1h-.5c-.3 0-1 0-2 0 0-1.3 0-2 0-2.2v-1-.1-.1-1.1c0-.6 0-1.3 0-2.2v-.1-.5c0-2.9 0-7 0-12.3z"/><path d="m437.3 161.6h1.2v.2h.3.8.3l2.6 19.5h-4.2l-.3-3.8h-1.3l-.4 3.9c-2.5 0-3.8 0-4.1 0 1.7-13 2.6-19.6 2.6-19.6 1.1-.1 1.9-.2 2.5-.2zm.1 6.6-.4 6h.9z"/><path d="m443.3 161.6h4v1.2 2.1s.1.1.2.2v2 10.5 3.7h-1.5c-.2-.1-.3-.1-.3-.1h-.7c-.6 0-1.2 0-1.8 0v-1.2s0-.1 0-.2c0-6 0-11 0-15v-1.6c.1-.3.1-.9.1-1.6z"/><path d="m448.9 161.6h3.3l2 9.9v-9.9h3.6v19.7h-3.8c-1.3-6.2-2-9.4-2.1-9.6v9.6h-3.6v-3.5c.2 0 .3 0 .3-.1v-.5c0-1 0-2.4 0-4.1v-.1s0 0 0-.1h.2c0-1.4 0-2.3 0-2.9 0-2.6 0-5.4.1-8.4z"/><path d="m459.2 161.6h7.4v3.3c0 .1-.4 1.8-1.3 4.9-1.4 5.2-2.2 8-2.2 8.1h3.5v.1 2.3.6c0 .1 0 .1-.1.1h-.1c0 .1 0 .2-.1.2-3.7 0-6.3 0-7.8 0v-3.2l3.5-12.9v-.1c-.2 0-.6 0-1.2 0h-.1v-.2c-.5 0-.9 0-1.3 0h-.2c0-1.4 0-2.4 0-3.2z"/><path d="m467.5 161.6h4v1.2 2.1s.1.1.2.2v2 10.5 3.7h-1.5c-.2-.1-.3-.1-.3-.1h-.7c-.6 0-1.2 0-1.8 0v-1.2s0-.1 0-.2c0-6 0-11 0-15v-1.6c.1-.3.1-.9.1-1.6z"/><path d="m472.5 161.6h4.3v16.4h1.2c.1-.1.1-.1.2-.1h.6.6v3.4h-6.8v-19.7z"/><path d="m479.9 161.6h4.3v16.4h1.2c.1-.1.1-.1.2-.1h.6.6v3.4h-6.8v-19.7z"/><path d="m492.2 161.6h1.2v.2h.3.8.3l2.6 19.5h-4.2l-.3-3.8h-1.3l-.4 3.9c-2.5 0-3.8 0-4.1 0 1.7-13 2.6-19.6 2.6-19.6 1-.1 1.8-.2 2.5-.2zm.1 6.6-.4 6h.9z"/></g><g clip-path="url(#a)"><path d="m339.9 183.1h.6c2.1 0 3.4.3 3.9.9.4.7.6 1.6.6 2.8v3h-4.1v-2.8c0-.3-.2-.4-.6-.4-.4 0-.6.2-.6.7v6.4.9s.1.1.2.2v.2 3.9.2c.1.2.2.3.3.3.4-.1.6-.2.6-.3v-4.6h.1 4 .1v4.8h.1v.1c0 1.6-.4 2.6-1.1 3.1-.7.3-1.9.5-3.5.5h-.5c-2.1 0-3.4-.3-3.9-.8-.4-.6-.7-1.6-.7-3v-12.2c0-1.9.3-3 1-3.3.7-.4 1.9-.6 3.5-.6z"/><path d="m345.9 183.1h4s.1 0 .1.1v3.3c.2.1.2.2.2.2v.4.1 3.2h.1.9c0-3.3 0-5.7 0-7.2h4.1.1.1v1.3.2 17.8.3h-4.2v-.1c0-5.6-.1-8.6-.1-9.1h-1v.1 6 2.2.1.1.7h-1.5s-.1 0-.3-.1h-.5c-.3 0-1 0-2 0 0-1.3 0-2 0-2.2v-1.1-.1-.1-1.1c0-.6 0-1.3 0-2.2v-.1-.5c0-2.8 0-6.9 0-12.2z"/><path d="m361.4 183.1h1.2v.2h.3.8.3l2.6 19.5h-4.2l-.3-3.8h-1.3l-.4 3.9c-2.5 0-3.8 0-4.1 0 1.7-13 2.6-19.6 2.6-19.6 1.1-.2 1.9-.2 2.5-.2zm.1 6.6-.4 6h.9z"/><path d="m367.5 183.1h4v1.2 2.1s.1.1.2.2v2 10.5 3.7h-1.5c-.2-.1-.3-.1-.3-.1h-.7c-.6 0-1.2 0-1.8 0v-1.3s0-.1 0-.2c0-6 0-11 0-15v-1.6c0-.2 0-.8.1-1.5z"/><path d="m373 183.1h3.3l2 9.9v-9.9h3.6v19.7h-3.9c-1.3-6.2-2-9.4-2.1-9.6v9.6h-3.6v-3.5c.2 0 .3 0 .3-.1v-.5c0-1 0-2.4 0-4.1v-.1s0 0 0-.1h.2c0-1.4 0-2.3 0-2.9.1-2.6.1-5.4.2-8.4z"/><path d="m383.4 183.1h7.4v3.3c0 .1-.4 1.8-1.3 4.9-1.4 5.2-2.2 8-2.2 8.1h3.5v.1 2.3.6c0 .1 0 .1-.1.1h-.1c0 .1 0 .2-.1.2-3.7 0-6.3 0-7.8 0v-3.4l3.5-12.9v-.1c-.2 0-.6 0-1.2 0h-.1v-.2c-.5 0-.9 0-1.3 0h-.2c-.1-1.2 0-2.2 0-3z"/><path d="m391.7 183.1h4v1.2 2.1s.1.1.2.2v2 10.5 3.7h-1.5c-.2-.1-.3-.1-.3-.1h-.7c-.6 0-1.2 0-1.8 0v-1.3s0-.1 0-.2c0-6 0-11 0-15v-1.6c0-.2 0-.8.1-1.5z"/><path d="m396.7 183.1h4.3v16.4h1.2c.1-.1.1-.1.2-.1h.6.6v3.4h-6.8v-19.7z"/><path d="m404 183.1h4.3v16.4h1.2c.1-.1.1-.1.2-.1h.6.6v3.4h-6.9z"/><path d="m416.3 183.1h1.2v.2h.3.8.3l2.6 19.5h-4.2l-.3-3.8h-1.3l-.4 3.9c-2.5 0-3.8 0-4.1 0 1.7-13 2.6-19.6 2.6-19.6 1-.2 1.8-.2 2.5-.2zm.1 6.6-.4 6h.9z"/><path d="m252.9 183.1h.6c2.1 0 3.4.3 3.9.9.4.7.6 1.6.6 2.8v3h-4.1v-2.8c0-.3-.2-.4-.6-.4-.4 0-.6.2-.6.7v6.4.9s.1.1.2.2v.2 3.9.2c.1.2.2.3.3.3.4-.1.6-.2.6-.3v-4.6h.1 4 .1v4.8h.1v.1c0 1.6-.4 2.6-1.1 3.1-.7.3-1.9.5-3.5.5h-.5c-2.1 0-3.4-.3-3.9-.8-.4-.6-.7-1.6-.7-3v-12.2c0-1.9.3-3 1-3.3.8-.4 1.9-.6 3.5-.6z"/><path d="m258.9 183.1h4s.1 0 .1.1v3.3c.2.1.2.2.2.2v.4.1 3.2h.1.9c0-3.3 0-5.7 0-7.2h4.1.1.1v1.3.2 17.8.3h-4.2v-.1c0-5.6-.1-8.6-.1-9.1h-1v.1 6 2.2.1.1.7h-1.5s-.1 0-.3-.1h-.5c-.3 0-1 0-2 0 0-1.3 0-2 0-2.2v-1.1-.1-.1-1.1c0-.6 0-1.3 0-2.2v-.1-.5c0-2.8 0-6.9 0-12.2z"/><path d="m274.5 183.1h1.2v.2h.3.8.3l2.6 19.5h-4.2l-.3-3.8h-1.2l-.4 3.9c-2.5 0-3.8 0-4.1 0 1.7-13 2.6-19.6 2.6-19.6.9-.2 1.7-.2 2.4-.2zm.1 6.6-.4 6h.9z"/><path d="m280.5 183.1h4v1.2 2.1s.1.1.2.2v2 10.5 3.7h-1.5c-.2-.1-.3-.1-.3-.1h-.7c-.6 0-1.2 0-1.8 0v-1.3s0-.1 0-.2c0-6 0-11 0-15v-1.6c.1-.2.1-.8.1-1.5z"/><path d="m286 183.1h3.3l2 9.9v-9.9h3.6v19.7h-3.9c-1.3-6.2-2-9.4-2.1-9.6v9.6h-3.6v-3.5c.2 0 .3 0 .3-.1v-.5c0-1 0-2.4 0-4.1v-.1s0 0 0-.1h.2c0-1.4 0-2.3 0-2.9.1-2.6.2-5.4.2-8.4z"/><path d="m296.4 183.1h7.4v3.3c0 .1-.4 1.8-1.3 4.9-1.4 5.2-2.2 8-2.2 8.1h3.5v.1 2.3.6c0 .1 0 .1-.1.1h-.1c0 .1 0 .2-.1.2-3.7 0-6.3 0-7.8 0v-3.4l3.5-12.9v-.1c-.2 0-.6 0-1.2 0h-.1v-.2c-.5 0-.9 0-1.3 0h-.2c0-1.2 0-2.2 0-3z"/><path d="m304.7 183.1h4v1.2 2.1s.1.1.2.2v2 10.5 3.7h-1.5c-.2-.1-.3-.1-.3-.1h-.7c-.6 0-1.2 0-1.8 0v-1.3s0-.1 0-.2c0-6 0-11 0-15v-1.6c.1-.2.1-.8.1-1.5z"/><path d="m309.7 183.1h4.3v16.4h1.2c.1-.1.1-.1.2-.1h.6.6v3.4h-6.8v-19.7z"/><path d="m317 183.1h4.3v16.4h1.2c.1-.1.1-.1.2-.1h.6.6v3.4h-6.9z"/><path d="m329.3 183.1h1.2v.2h.3.8.3l2.6 19.5h-4.2l-.3-3.8h-1.3l-.4 3.9c-2.5 0-3.8 0-4.1 0 1.7-13 2.6-19.6 2.6-19.6 1.1-.2 1.9-.2 2.5-.2zm.1 6.6-.4 6h.9z"/><path d="m426.9 183.1h.6c2.1 0 3.4.3 3.9.9.4.7.6 1.6.6 2.8v3h-4.1v-2.8c0-.3-.2-.4-.6-.4-.4 0-.6.2-.6.7v6.4.9s.1.1.2.2v.2 3.9.2c.1.2.2.3.3.3.4-.1.6-.2.6-.3v-4.6h.1 4 .1v4.8h.1v.1c0 1.6-.4 2.6-1.1 3.1-.7.3-1.9.5-3.5.5h-.5c-2.1 0-3.4-.3-3.9-.8-.4-.6-.7-1.6-.7-3v-12.2c0-1.9.3-3 1-3.3.8-.4 1.9-.6 3.5-.6z"/><path d="m433 183.1h4s.1 0 .1.1v3.3c.2.1.2.2.2.2v.4.1 3.2h.1.9c0-3.3 0-5.7 0-7.2h4.1.1.1v1.3.2 17.8.3h-4.2v-.1c0-5.6-.1-8.6-.1-9.1h-1v.1 6 2.2.1.1.7h-1.5s-.1 0-.3-.1h-.5c-.3 0-1 0-2 0 0-1.3 0-2 0-2.2v-1.1-.1-.1-1.1c0-.6 0-1.3 0-2.2v-.1-.5c-.1-2.8-.1-6.9 0-12.2z"/><path d="m448.5 183.1h1.2v.2h.3.8.3l2.6 19.5h-4.2l-.3-3.8h-1.2l-.4 3.9c-2.5 0-3.8 0-4.1 0 1.7-13 2.6-19.6 2.6-19.6 1-.2 1.8-.2 2.4-.2zm.1 6.6-.4 6h.9z"/><path d="m454.5 183.1h4v1.2 2.1s.1.1.2.2v2 10.5 3.7h-1.5c-.2-.1-.3-.1-.3-.1h-.7c-.6 0-1.2 0-1.8 0v-1.3s0-.1 0-.2c0-6 0-11 0-15v-1.6c.1-.2.1-.8.1-1.5z"/><path d="m460.1 183.1h3.3l2 9.9v-9.9h3.6v19.7h-3.9c-1.3-6.2-2-9.4-2.1-9.6v9.6h-3.6v-3.5c.2 0 .3 0 .3-.1v-.5c0-1 0-2.4 0-4.1v-.1s0 0 0-.1h.2c0-1.4 0-2.3 0-2.9.1-2.6.1-5.4.2-8.4z"/><path d="m470.4 183.1h7.4v3.3c0 .1-.4 1.8-1.3 4.9-1.4 5.2-2.2 8-2.2 8.1h3.5v.1 2.3.6c0 .1 0 .1-.1.1h-.1c0 .1 0 .2-.1.2-3.7 0-6.3 0-7.8 0v-3.4l3.5-12.9v-.1c-.2 0-.6 0-1.2 0h-.1v-.2c-.5 0-.9 0-1.3 0h-.2c0-1.2 0-2.2 0-3z"/><path d="m478.7 183.1h4v1.2 2.1s.1.1.2.2v2 10.5 3.7h-1.5c-.2-.1-.3-.1-.3-.1h-.7c-.6 0-1.2 0-1.8 0v-1.3s0-.1 0-.2c0-6 0-11 0-15v-1.6c.1-.2.1-.8.1-1.5z"/><path d="m483.7 183.1h4.3v16.4h1.2c.1-.1.1-.1.2-.1h.6.6v3.4h-6.8v-19.7z"/><path d="m491 183.1h4.3v16.4h1.2c.1-.1.1-.1.2-.1h.6.6v3.4h-6.9z"/><path d="m503.3 183.1h1.2v.2h.3.8.3l2.6 19.5h-4.2l-.3-3.8h-1.3l-.4 3.9c-2.5 0-3.8 0-4.1 0 1.7-13 2.6-19.6 2.6-19.6 1.1-.2 1.9-.2 2.5-.2zm.2 6.6-.4 6h.9z"/></g><g clip-path="url(#a)"><path d="m351.5 204.6h.6c2.1 0 3.4.3 3.9.9.4.7.6 1.6.6 2.8v3h-4.1v-2.8c0-.3-.2-.4-.6-.4-.4 0-.6.2-.6.7v6.4.9s.1.1.2.2v.2 3.9.2c.1.2.2.3.3.3.4-.1.6-.2.6-.3v-4.6h.1 4 .1v4.8h.1v.1c0 1.6-.4 2.6-1.1 3.1-.7.3-1.9.5-3.5.5h-.5c-2.1 0-3.4-.3-3.9-.8-.4-.6-.7-1.6-.7-3v-12.1c0-1.9.3-3 1-3.3.7-.5 1.9-.7 3.5-.7z"/><path d="m357.5 204.6h4s.1 0 .1.1v3.3c.2.1.2.2.2.2v.4.1 3.2h.1.9c0-3.3 0-5.7 0-7.2h4.1.1.1v1.3.2 17.8.3h-4.2v-.1c0-5.6-.1-8.6-.1-9.1h-1v.1 6 2.2.1.1.7h-1.5s-.1 0-.3-.1h-.5c-.3 0-1 0-2 0 0-1.3 0-2 0-2.2v-1.1-.1-.1-1.1c0-.6 0-1.3 0-2.2v-.1-.5c0-2.9 0-6.9 0-12.2z"/><path d="m373 204.6h1.2v.2h.3.8.3l2.6 19.5h-4.2l-.3-3.8h-1.3l-.4 3.9c-2.5 0-3.8 0-4.1 0 1.7-13 2.6-19.6 2.6-19.6 1.1-.2 1.9-.2 2.5-.2zm.2 6.6-.4 6h.9z"/><path d="m379.1 204.6h4v1.2 2.1s.1.1.2.2v2 10.5 3.7h-1.5c-.2-.1-.3-.1-.3-.1h-.7c-.6 0-1.2 0-1.8 0v-1.2s0-.1 0-.2c0-6 0-11 0-15v-1.6c0-.3 0-.9.1-1.6z"/><path d="m384.6 204.6h3.3l2 9.9v-9.9h3.6v19.7h-3.9c-1.3-6.2-2-9.4-2.1-9.6v9.6h-3.5v-3.5c.2 0 .3 0 .3-.1v-.5c0-1 0-2.4 0-4.1v-.1s0 0 0-.1h.2c0-1.4 0-2.3 0-2.9 0-2.6 0-5.4.1-8.4z"/><path d="m395 204.6h7.4v3.3c0 .1-.4 1.8-1.3 4.9-1.4 5.2-2.2 8-2.2 8.1h3.5v.1 2.3.6c0 .1 0 .1-.1.1h-.1c0 .1 0 .2-.1.2-3.7 0-6.3 0-7.8 0v-3.4l3.5-12.9v-.1c-.2 0-.6 0-1.2 0h-.1v-.2c-.5 0-.9 0-1.3 0h-.2c0-1.2 0-2.2 0-3z"/><path d="m403.3 204.6h4v1.2 2.1s.1.1.2.2v2 10.5 3.7h-1.5c-.2-.1-.3-.1-.3-.1h-.7c-.6 0-1.2 0-1.8 0v-1.2s0-.1 0-.2c0-6 0-11 0-15v-1.6c0-.3 0-.9.1-1.6z"/><path d="m408.3 204.6h4.3v16.4h1.2c.1-.1.1-.1.2-.1h.6.6v3.4h-6.8v-19.7z"/><path d="m415.6 204.6h4.3v16.4h1.2c.1-.1.1-.1.2-.1h.6.6v3.4h-6.8v-19.7z"/><path d="m427.9 204.6h1.2v.2h.3.8.3l2.6 19.5h-4.1l-.3-3.8h-1.3l-.4 3.9c-2.5 0-3.8 0-4.1 0 1.7-13 2.6-19.6 2.6-19.6.9-.2 1.7-.2 2.4-.2zm.1 6.6-.4 6h.9z"/><path d="m264.5 204.6h.6c2.1 0 3.4.3 3.9.9.4.7.6 1.6.6 2.8v3h-4.1v-2.8c0-.3-.2-.4-.6-.4-.4 0-.6.2-.6.7v6.4.9s.1.1.2.2v.2 3.9.2c.1.2.2.3.3.3.4-.1.6-.2.6-.3v-4.6h.1 4 .1v4.8h.1v.1c0 1.6-.4 2.6-1.1 3.1-.7.3-1.9.5-3.5.5h-.5c-2.1 0-3.4-.3-3.9-.8-.4-.6-.7-1.6-.7-3v-12.1c0-1.9.3-3 1-3.3.8-.5 1.9-.7 3.5-.7z"/><path d="m270.5 204.6h4s.1 0 .1.1v3.3c.2.1.2.2.2.2v.4.1 3.2h.1.9c0-3.3 0-5.7 0-7.2h4.1.1.1v1.3.2 17.8.3h-4.2v-.1c0-5.6-.1-8.6-.1-9.1h-1v.1 6 2.2.1.1.7h-1.5s-.1 0-.3-.1h-.5c-.3 0-1 0-2 0 0-1.3 0-2 0-2.2v-1.1-.1-.1-1.1c0-.6 0-1.3 0-2.2v-.1-.5c0-2.9 0-6.9 0-12.2z"/><path d="m286.1 204.6h1.2v.2h.3.8.3l2.6 19.5h-4.2l-.3-3.8h-1.3l-.4 3.9c-2.5 0-3.8 0-4.1 0 1.7-13 2.6-19.6 2.6-19.6 1-.2 1.8-.2 2.5-.2zm.1 6.6-.4 6h.9z"/><path d="m292.1 204.6h4v1.2 2.1s.1.1.2.2v2 10.5 3.7h-1.5c-.2-.1-.3-.1-.3-.1h-.7c-.6 0-1.2 0-1.8 0v-1.2s0-.1 0-.2c0-6 0-11 0-15v-1.6c.1-.3.1-.9.1-1.6z"/><path d="m297.7 204.6h3.3l2 9.9v-9.9h3.6v19.7h-3.9c-1.3-6.2-2-9.4-2.1-9.6v9.6h-3.6v-3.5c.2 0 .3 0 .3-.1v-.5c0-1 0-2.4 0-4.1v-.1s0 0 0-.1h.2c0-1.4 0-2.3 0-2.9 0-2.6.1-5.4.2-8.4z"/><path d="m308 204.6h7.4v3.3c0 .1-.4 1.8-1.3 4.9-1.4 5.2-2.2 8-2.2 8.1h3.5v.1 2.3.6c0 .1 0 .1-.1.1h-.1c0 .1 0 .2-.1.2-3.7 0-6.3 0-7.8 0v-3.4l3.7-12.8v-.1c-.2 0-.6 0-1.2 0h-.1v-.2c-.5 0-.9 0-1.3 0h-.2c-.2-1.3-.2-2.3-.2-3.1z"/><path d="m316.3 204.6h4v1.2 2.1s.1.1.2.2v2 10.5 3.7h-1.5c-.2-.1-.3-.1-.3-.1h-.7c-.6 0-1.2 0-1.8 0v-1.2s0-.1 0-.2c0-6 0-11 0-15v-1.6c.1-.3.1-.9.1-1.6z"/><path d="m321.3 204.6h4.3v16.4h1.2c.1-.1.1-.1.2-.1h.6.6v3.4h-6.8v-19.7z"/><path d="m328.6 204.6h4.3v16.4h1.2c.1-.1.1-.1.2-.1h.6.6v3.4h-6.8v-19.7z"/><path d="m340.9 204.6h1.2v.2h.3.8.3l2.6 19.5h-4.2l-.3-3.8h-1.3l-.4 3.9c-2.5 0-3.8 0-4.1 0 1.7-13 2.6-19.6 2.6-19.6 1.1-.2 1.9-.2 2.5-.2zm.1 6.6-.4 6h.9z"/><path d="m438.5 204.6h.6c2.1 0 3.4.3 3.9.9.4.7.6 1.6.6 2.8v3h-4.1v-2.8c0-.3-.2-.4-.6-.4-.4 0-.6.2-.6.7v6.4.9s.1.1.2.2v.2 3.9.2c.1.2.2.3.3.3.4-.1.6-.2.6-.3v-4.6h.1 4 .1v4.8h.1v.1c0 1.6-.4 2.6-1.1 3.1-.7.3-1.9.5-3.5.5h-.5c-2.1 0-3.4-.3-3.9-.8-.4-.6-.7-1.6-.7-3v-12.1c0-1.9.3-3 1-3.3.8-.5 1.9-.7 3.5-.7z"/><path d="m444.6 204.6h4s.1 0 .1.1v3.3c.2.1.2.2.2.2v.4.1 3.2h.1.9c0-3.3 0-5.7 0-7.2h4.1.1.1v1.3.2 17.8.3h-4.2v-.1c0-5.6-.1-8.6-.1-9.1h-1v.1 6 2.2.1.1.7h-1.5s-.1 0-.3-.1h-.5c-.3 0-1 0-2 0 0-1.3 0-2 0-2.2v-1.1-.1-.1-1.1c0-.6 0-1.3 0-2.2v-.1-.5c-.1-2.9 0-6.9 0-12.2z"/><path d="m460.1 204.6h1.2v.2h.3.8.3l2.6 19.5h-4.2l-.3-3.8h-1.3l-.4 3.9c-2.5 0-3.8 0-4.1 0 1.7-13 2.6-19.6 2.6-19.6 1.1-.2 1.9-.2 2.5-.2zm.1 6.6-.4 6h.9z"/><path d="m466.1 204.6h4v1.2 2.1s.1.1.2.2v2 10.5 3.7h-1.5c-.2-.1-.3-.1-.3-.1h-.7c-.6 0-1.2 0-1.8 0v-1.2s0-.1 0-.2c0-6 0-11 0-15v-1.6c.1-.3.1-.9.1-1.6z"/><path d="m471.7 204.6h3.3l2 9.9v-9.9h3.6v19.7h-3.9c-1.3-6.2-2-9.4-2.1-9.6v9.6h-3.6v-3.5c.2 0 .3 0 .3-.1v-.5c0-1 0-2.4 0-4.1v-.1s0 0 0-.1h.2c0-1.4 0-2.3 0-2.9.1-2.6.1-5.4.2-8.4z"/><path d="m482 204.6h7.4v3.3c0 .1-.4 1.8-1.3 4.9-1.4 5.2-2.2 8-2.2 8.1h3.5v.1 2.3.6c0 .1 0 .1-.1.1h-.1c0 .1 0 .2-.1.2-3.7 0-6.3 0-7.8 0v-3.4l3.7-12.8v-.1c-.2 0-.6 0-1.2 0h-.1v-.2c-.5 0-.9 0-1.3 0h-.2c-.2-1.3-.2-2.3-.2-3.1z"/><path d="m490.3 204.6h4v1.2 2.1s.1.1.2.2v2 10.5 3.7h-1.5c-.2-.1-.3-.1-.3-.1h-.7c-.6 0-1.2 0-1.8 0v-1.2s0-.1 0-.2c0-6 0-11 0-15v-1.6c.1-.3.1-.9.1-1.6z"/><path d="m495.3 204.6h4.3v16.4h1.2c.1-.1.1-.1.2-.1h.6.6v3.4h-6.8v-19.7z"/><path d="m502.6 204.6h4.3v16.4h1.2c.1-.1.1-.1.2-.1h.6.6v3.4h-6.8v-19.7z"/><path d="m514.9 204.6h1.2v.2h.3.8.3l2.6 19.5h-4.2l-.3-3.8h-1.3l-.4 3.9c-2.5 0-3.8 0-4.1 0 1.7-13 2.6-19.6 2.6-19.6 1.1-.2 1.9-.2 2.5-.2zm.2 6.6-.4 6h.9z"/></g><g clip-path="url(#a)"><path d="m361.9 226.1h.6c2.1 0 3.4.3 3.9.9.4.7.6 1.6.6 2.8v3h-4.1v-2.8c0-.3-.2-.4-.6-.4-.4 0-.6.2-.6.7v6.4.9s.1.1.2.2v.2 3.9.2c.1.2.2.3.3.3.4-.1.6-.2.6-.3v-4.6h.1 4 .1v4.8h.1v.1c0 1.6-.4 2.6-1.1 3.1-.7.3-1.9.5-3.5.5h-.5c-2.1 0-3.4-.3-3.9-.8-.4-.6-.7-1.6-.7-3v-12.1c0-1.9.3-3 1-3.3.7-.5 1.9-.7 3.5-.7z"/><path d="m367.9 226.1h4s.1 0 .1.1v3.3c.2.1.2.2.2.2v.4.1 3.2h.1.9c0-3.3 0-5.7 0-7.2h4.1.1.1v1.3.2 17.8.3h-4.2v-.1c0-5.6-.1-8.6-.1-9.1h-1v.1 6 2.2.1.1.7h-1.5s-.1 0-.3-.1h-.5c-.3 0-1 0-2 0 0-1.3 0-2 0-2.2v-1.1-.1-.1-1.1c0-.6 0-1.3 0-2.2v-.1-.5c0-2.9 0-6.9 0-12.2z"/><path d="m383.4 226.1h1.2v.2h.3.8.3l2.6 19.5h-4.2l-.3-3.8h-1.3l-.4 3.9c-2.5 0-3.8 0-4.1 0 1.7-13 2.6-19.6 2.6-19.6 1.1-.2 1.9-.2 2.5-.2zm.2 6.5-.4 6h.9z"/><path d="m389.5 226.1h4v1.2 2.1s.1.1.2.2v2 10.5 3.7h-1.5c-.2-.1-.3-.1-.3-.1h-.7c-.6 0-1.2 0-1.8 0v-1.3s0-.1 0-.2c0-6 0-11 0-15v-1.6c0-.2 0-.8.1-1.5z"/><path d="m395 226.1h3.3l2 9.9v-9.9h3.6v19.7h-3.9c-1.3-6.2-2-9.4-2.1-9.6v9.6h-3.6v-3.5c.2 0 .3 0 .3-.1v-.5c0-1 0-2.4 0-4.1v-.1s0 0 0-.1h.2c0-1.4 0-2.3 0-2.9.1-2.6.1-5.4.2-8.4z"/><path d="m405.4 226.1h7.4v3.3c0 .1-.4 1.8-1.3 4.9-1.4 5.2-2.2 8-2.2 8.1h3.5v.1 2.3.6c0 .1 0 .1-.1.1h-.1c0 .1 0 .2-.1.2-3.7 0-6.3 0-7.8 0v-3.4l3.5-12.9v-.1c-.2 0-.6 0-1.2 0h-.1v-.2c-.5 0-.9 0-1.3 0h-.2c0-1.2 0-2.3 0-3z"/><path d="m413.7 226.1h4v1.2 2.1s.1.1.2.2v2 10.5 3.7h-1.5c-.2-.1-.3-.1-.3-.1h-.7c-.6 0-1.2 0-1.8 0v-1.3s0-.1 0-.2c0-6 0-11 0-15v-1.6c0-.2 0-.8.1-1.5z"/><path d="m418.7 226.1h4.3v16.4h1.2c.1-.1.1-.1.2-.1h.6.6v3.4h-6.8v-19.7z"/><path d="m426 226.1h4.3v16.4h1.2c.1-.1.1-.1.2-.1h.6.6v3.4h-6.9z"/><path d="m438.3 226.1h1.2v.2h.3.8.3l2.6 19.5h-4.2l-.3-3.8h-1.3l-.4 3.9c-2.5 0-3.8 0-4.1 0 1.7-13 2.6-19.6 2.6-19.6 1-.2 1.8-.2 2.5-.2zm.1 6.5-.4 6h.9z"/><path d="m274.9 226.1h.6c2.1 0 3.4.3 3.9.9.4.7.6 1.6.6 2.8v3h-4.1v-2.8c0-.3-.2-.4-.6-.4-.4 0-.6.2-.6.7v6.4.9s.1.1.2.2v.2 3.9.2c.1.2.2.3.3.3.4-.1.6-.2.6-.3v-4.6h.1 4 .1v4.8h.1v.1c0 1.6-.4 2.6-1.1 3.1-.7.3-1.9.5-3.5.5h-.5c-2.1 0-3.4-.3-3.9-.8-.4-.6-.7-1.6-.7-3v-12.1c0-1.9.3-3 1-3.3.8-.5 1.9-.7 3.5-.7z"/><path d="m280.9 226.1h4s.1 0 .1.1v3.3c.2.1.2.2.2.2v.4.1 3.2h.1.9c0-3.3 0-5.7 0-7.2h4.1.1.1v1.3.2 17.8.3h-4.2v-.1c0-5.6-.1-8.6-.1-9.1h-1v.1 6 2.2.1.1.7h-1.5s-.1 0-.3-.1h-.5c-.3 0-1 0-2 0 0-1.3 0-2 0-2.2v-1.1-.1-.1-1.1c0-.6 0-1.3 0-2.2v-.1-.5c0-2.9 0-6.9 0-12.2z"/><path d="m296.5 226.1h1.2v.2h.3.8.3l2.6 19.5h-4.2l-.3-3.8h-1.2l-.4 3.9c-2.5 0-3.8 0-4.1 0 1.7-13 2.6-19.6 2.6-19.6.9-.2 1.7-.2 2.4-.2zm.1 6.5-.4 6h.9z"/><path d="m302.5 226.1h4v1.2 2.1s.1.1.2.2v2 10.5 3.7h-1.5c-.2-.1-.3-.1-.3-.1h-.7c-.6 0-1.2 0-1.8 0v-1.3s0-.1 0-.2c0-6 0-11 0-15v-1.6c.1-.2.1-.8.1-1.5z"/><path d="m308.1 226.1h3.3l2 9.9v-9.9h3.6v19.7h-3.9c-1.3-6.2-2-9.4-2.1-9.6v9.6h-3.6v-3.5c.2 0 .3 0 .3-.1v-.5c0-1 0-2.4 0-4.1v-.1s0 0 0-.1h.2c0-1.4 0-2.3 0-2.9 0-2.6.1-5.4.2-8.4z"/><path d="m318.4 226.1h7.4v3.3c0 .1-.4 1.8-1.3 4.9-1.4 5.2-2.2 8-2.2 8.1h3.5v.1 2.3.6c0 .1 0 .1-.1.1h-.1c0 .1 0 .2-.1.2-3.7 0-6.3 0-7.8 0v-3.4l3.5-12.9v-.1c-.2 0-.6 0-1.2 0h-.1v-.2c-.5 0-.9 0-1.3 0h-.2c0-1.2 0-2.3 0-3z"/><path d="m326.7 226.1h4v1.2 2.1s.1.1.2.2v2 10.5 3.7h-1.5c-.2-.1-.3-.1-.3-.1h-.7c-.6 0-1.2 0-1.8 0v-1.3s0-.1 0-.2c0-6 0-11 0-15v-1.6c.1-.2.1-.8.1-1.5z"/><path d="m331.7 226.1h4.3v16.4h1.2c.1-.1.1-.1.2-.1h.6.6v3.4h-6.8v-19.7z"/><path d="m339 226.1h4.3v16.4h1.2c.1-.1.1-.1.2-.1h.6.6v3.4h-6.9z"/><path d="m351.3 226.1h1.2v.2h.3.8.3l2.6 19.5h-4.2l-.3-3.8h-1.3l-.4 3.9c-2.5 0-3.8 0-4.1 0 1.7-13 2.6-19.6 2.6-19.6 1.1-.2 1.9-.2 2.5-.2zm.1 6.5-.4 6h.9z"/><path d="m448.9 226.1h.6c2.1 0 3.4.3 3.9.9.4.7.6 1.6.6 2.8v3h-4.1v-2.8c0-.3-.2-.4-.6-.4-.4 0-.6.2-.6.7v6.4.9s.1.1.2.2v.2 3.9.2c.1.2.2.3.3.3.4-.1.6-.2.6-.3v-4.6h.1 4 .1v4.8h.1v.1c0 1.6-.4 2.6-1.1 3.1-.7.3-1.9.5-3.5.5h-.5c-2.1 0-3.4-.3-3.9-.8-.4-.6-.7-1.6-.7-3v-12.1c0-1.9.3-3 1-3.3.8-.5 1.9-.7 3.5-.7z"/><path d="m455 226.1h4s.1 0 .1.1v3.3c.2.1.2.2.2.2v.4.1 3.2h.1.9c0-3.3 0-5.7 0-7.2h4.1.1.1v1.3.2 17.8.3h-4.2v-.1c0-5.6-.1-8.6-.1-9.1h-1v.1 6 2.2.1.1.7h-1.5s-.1 0-.3-.1h-.5c-.3 0-1 0-2 0 0-1.3 0-2 0-2.2v-1.1-.1-.1-1.1c0-.6 0-1.3 0-2.2v-.1-.5c-.1-2.9 0-6.9 0-12.2z"/><path d="m470.5 226.1h1.2v.2h.3.8.3l2.6 19.5h-4.2l-.3-3.8h-1.2l-.4 3.9c-2.5 0-3.8 0-4.1 0 1.7-13 2.6-19.6 2.6-19.6 1-.2 1.8-.2 2.4-.2zm.1 6.5-.4 6h.9z"/><path d="m476.5 226.1h4v1.2 2.1s.1.1.2.2v2 10.5 3.7h-1.5c-.2-.1-.3-.1-.3-.1h-.7c-.6 0-1.2 0-1.8 0v-1.3s0-.1 0-.2c0-6 0-11 0-15v-1.6c.1-.2.1-.8.1-1.5z"/><path d="m482.1 226.1h3.3l2 9.9v-9.9h3.6v19.7h-3.9c-1.3-6.2-2-9.4-2.1-9.6v9.6h-3.6v-3.5c.2 0 .3 0 .3-.1v-.5c0-1 0-2.4 0-4.1v-.1s0 0 0-.1h.2c0-1.4 0-2.3 0-2.9.1-2.6.1-5.4.2-8.4z"/><path d="m492.4 226.1h7.4v3.3c0 .1-.4 1.8-1.3 4.9-1.4 5.2-2.2 8-2.2 8.1h3.5v.1 2.3.6c0 .1 0 .1-.1.1h-.1c0 .1 0 .2-.1.2-3.7 0-6.3 0-7.8 0v-3.4l3.5-12.9v-.1c-.2 0-.6 0-1.2 0h-.1v-.2c-.5 0-.9 0-1.3 0h-.2c0-1.2 0-2.3 0-3z"/><path d="m500.7 226.1h4v1.2 2.1s.1.1.2.2v2 10.5 3.7h-1.5c-.2-.1-.3-.1-.3-.1h-.7c-.6 0-1.2 0-1.8 0v-1.3s0-.1 0-.2c0-6 0-11 0-15v-1.6c.1-.2.1-.8.1-1.5z"/><path d="m505.7 226.1h4.3v16.4h1.2c.1-.1.1-.1.2-.1h.6.6v3.4h-6.8v-19.7z"/><path d="m513 226.1h4.3v16.4h1.2c.1-.1.1-.1.2-.1h.6.6v3.4h-6.9z"/><path d="m525.3 226.1h1.2v.2h.3.8.3l2.6 19.5h-4.2l-.3-3.8h-1.3l-.4 3.9c-2.5 0-3.8 0-4.1 0 1.7-13 2.6-19.6 2.6-19.6 1.1-.2 1.9-.2 2.5-.2zm.2 6.5-.4 6h.9z"/></g><g clip-path="url(#a)"><path d="m373.1 247.6h.6c2.1 0 3.4.3 3.9.9.4.7.6 1.6.6 2.8v3h-4.2v-2.8c0-.3-.2-.4-.6-.4-.4 0-.6.2-.6.7v6.4.9s.1.1.2.2v.2 3.9.2c.1.2.2.3.3.3.4-.1.6-.2.6-.3v-4.6h.1 4 .1v4.8h.1v.1c0 1.6-.4 2.6-1.1 3.1-.7.3-1.9.5-3.5.5h-.5c-2.1 0-3.4-.3-3.9-.8-.4-.6-.7-1.6-.7-3v-12.1c0-1.9.3-3 1-3.3.8-.5 2-.7 3.6-.7z"/><path d="m379.1 247.6h4s.1 0 .1.1v3.3c.2.1.2.2.2.2v.4.1 3.2h.1.9c0-3.3 0-5.7 0-7.2h4.1.1.1v1.3.2 17.8.3h-4.2v-.1c0-5.6-.1-8.6-.1-9.1h-1v.1 6 2.2.1.1.7h-1.5s-.1 0-.3-.1h-.6c-.3 0-1 0-2 0 0-1.3 0-2 0-2.2v-1.1-.1-.1-1.1c0-.6 0-1.3 0-2.2v-.1-.5c.1-2.9.1-6.9.1-12.2z"/><path d="m394.6 247.6h1.2v.2h.3.8.3l2.6 19.5h-4.2l-.3-3.8h-1.3l-.4 3.9c-2.5 0-3.8 0-4.1 0 1.7-13 2.6-19.6 2.6-19.6 1.1-.2 1.9-.2 2.5-.2zm.1 6.5-.4 6h.9z"/><path d="m400.6 247.6h4v1.2 2.1s.1.1.2.2v2 10.5 3.7h-1.5c-.2-.1-.3-.1-.3-.1h-.7c-.6 0-1.2 0-1.8 0v-1.2s0-.1 0-.2c0-6 0-11 0-15v-1.6c.1-.3.1-.9.1-1.6z"/><path d="m406.2 247.6h3.3l2 9.9v-9.9h3.6v19.7h-3.9c-1.3-6.2-2-9.4-2.1-9.6v9.6h-3.6v-3.5c.2 0 .3 0 .3-.1v-.5c0-1 0-2.4 0-4.1v-.1s0 0 0-.1h.2c0-1.4 0-2.3 0-2.9.1-2.6.1-5.4.2-8.4z"/><path d="m416.5 247.6h7.4v3.3c0 .1-.4 1.8-1.3 4.9-1.4 5.2-2.2 8-2.2 8.1h3.5v.1 2.3.6c0 .1 0 .1-.1.1h-.1c0 .1 0 .2-.1.2-3.7 0-6.3 0-7.8 0v-3.4l3.5-12.9v-.1c-.2 0-.6 0-1.2 0h-.1v-.2c-.5 0-.9 0-1.3 0h-.2c0-1.3 0-2.3 0-3z"/><path d="m424.8 247.6h4v1.2 2.1s.1.1.2.2v2 10.5 3.7h-1.5c-.2-.1-.3-.1-.3-.1h-.7c-.6 0-1.2 0-1.8 0v-1.2s0-.1 0-.2c0-6 0-11 0-15v-1.6c.1-.3.1-.9.1-1.6z"/><path d="m429.8 247.6h4.3v16.4h1.2c.1-.1.1-.1.2-.1h.6.6v3.4h-6.8v-19.7z"/><path d="m437.2 247.6h4.3v16.4h1.2c.1-.1.1-.1.2-.1h.6.6v3.4h-6.8v-19.7z"/><path d="m449.5 247.6h1.2v.2h.3.8.3l2.6 19.5h-4.2l-.3-3.8h-1.3l-.4 3.9c-2.5 0-3.8 0-4.1 0 1.7-13 2.6-19.6 2.6-19.6 1-.2 1.8-.2 2.5-.2zm.1 6.5-.4 6h.9z"/><path d="m286.1 247.6h.6c2.1 0 3.4.3 3.9.9.4.7.6 1.6.6 2.8v3h-4.1v-2.8c0-.3-.2-.4-.6-.4-.4 0-.6.2-.6.7v6.4.9s.1.1.2.2v.2 3.9.2c.1.2.2.3.3.3.4-.1.6-.2.6-.3v-4.6h.1 4 .1v4.8h.1v.1c0 1.6-.4 2.6-1.1 3.1-.7.3-1.9.5-3.5.5h-.5c-2.1 0-3.4-.3-3.9-.8-.4-.6-.7-1.6-.7-3v-12.1c0-1.9.3-3 1-3.3.8-.5 1.9-.7 3.5-.7z"/><path d="m292.1 247.6h4s.1 0 .1.1v3.3c.2.1.2.2.2.2v.4.1 3.2h.1.9c0-3.3 0-5.7 0-7.2h4.1.1.1v1.3.2 17.8.3h-4.2v-.1c0-5.6-.1-8.6-.1-9.1h-1v.1 6 2.2.1.1.7h-1.5s-.1 0-.3-.1h-.5c-.3 0-1 0-2 0 0-1.3 0-2 0-2.2v-1.1-.1-.1-1.1c0-.6 0-1.3 0-2.2v-.1-.5c0-2.9 0-6.9 0-12.2z"/><path d="m307.7 247.6h1.2v.2h.3.8.3l2.6 19.5h-4.2l-.3-3.8h-1.3l-.4 3.9c-2.5 0-3.8 0-4.1 0 1.7-13 2.6-19.6 2.6-19.6 1-.2 1.8-.2 2.5-.2zm.1 6.5-.4 6h.9z"/><path d="m313.7 247.6h4v1.2 2.1s.1.1.2.2v2 10.5 3.7h-1.5c-.2-.1-.3-.1-.3-.1h-.7c-.6 0-1.2 0-1.8 0v-1.2s0-.1 0-.2c0-6 0-11 0-15v-1.6c.1-.3.1-.9.1-1.6z"/><path d="m319.2 247.6h3.3l2 9.9v-9.9h3.6v19.7h-3.9c-1.3-6.2-2-9.4-2.1-9.6v9.6h-3.6v-3.5c.2 0 .3 0 .3-.1v-.5c0-1 0-2.4 0-4.1v-.1s0 0 0-.1h.2c0-1.4 0-2.3 0-2.9.1-2.6.2-5.4.2-8.4z"/><path d="m329.6 247.6h7.4v3.3c0 .1-.4 1.8-1.3 4.9-1.4 5.2-2.2 8-2.2 8.1h3.5v.1 2.3.6c0 .1 0 .1-.1.1h-.1c0 .1 0 .2-.1.2-3.7 0-6.3 0-7.8 0v-3.4l3.5-12.9v-.1c-.2 0-.6 0-1.2 0h-.1v-.2c-.5 0-.9 0-1.3 0h-.2c0-1.3 0-2.3 0-3z"/><path d="m337.9 247.6h4v1.2 2.1s.1.1.2.2v2 10.5 3.7h-1.5c-.2-.1-.3-.1-.3-.1h-.7c-.6 0-1.2 0-1.8 0v-1.2s0-.1 0-.2c0-6 0-11 0-15v-1.6c.1-.3.1-.9.1-1.6z"/><path d="m342.9 247.6h4.3v16.4h1.2c.1-.1.1-.1.2-.1h.6.6v3.4h-6.8v-19.7z"/><path d="m350.2 247.6h4.3v16.4h1.2c.1-.1.1-.1.2-.1h.6.6v3.4h-6.8v-19.7z"/><path d="m362.5 247.6h1.2v.2h.3.8.3l2.6 19.5h-4.2l-.3-3.8h-1.2l-.4 3.9c-2.5 0-3.8 0-4.1 0 1.7-13 2.6-19.6 2.6-19.6 1-.2 1.8-.2 2.4-.2zm.1 6.5-.4 6h.9z"/><path d="m460.1 247.6h.6c2.1 0 3.4.3 3.9.9.4.7.6 1.6.6 2.8v3h-4.1v-2.8c0-.3-.2-.4-.6-.4-.4 0-.6.2-.6.7v6.4.9s.1.1.2.2v.2 3.9.2c.1.2.2.3.3.3.4-.1.6-.2.6-.3v-4.6h.1 4 .1v4.8h.1v.1c0 1.6-.4 2.6-1.1 3.1-.7.3-1.9.5-3.5.5h-.5c-2.1 0-3.4-.3-3.9-.8-.4-.6-.7-1.6-.7-3v-12.1c0-1.9.3-3 1-3.3.8-.5 1.9-.7 3.5-.7z"/><path d="m466.1 247.6h4s.1 0 .1.1v3.3c.2.1.2.2.2.2v.4.1 3.2h.1.9c0-3.3 0-5.7 0-7.2h4.1.1.1v1.3.2 17.8.3h-4.2v-.1c0-5.6-.1-8.6-.1-9.1h-1v.1 6 2.2.1.1.7h-1.5s-.1 0-.3-.1h-.5c-.3 0-1 0-2 0 0-1.3 0-2 0-2.2v-1.1-.1-.1-1.1c0-.6 0-1.3 0-2.2v-.1-.5c0-2.9 0-6.9 0-12.2z"/><path d="m481.7 247.6h1.2v.2h.3.8.3l2.6 19.5h-4.2l-.3-3.8h-1.3l-.4 3.9c-2.5 0-3.8 0-4.1 0 1.7-13 2.6-19.6 2.6-19.6 1.1-.2 1.8-.2 2.5-.2zm.1 6.5-.4 6h.9z"/><path d="m487.7 247.6h4v1.2 2.1s.1.1.2.2v2 10.5 3.7h-1.5c-.2-.1-.3-.1-.3-.1h-.7c-.6 0-1.2 0-1.8 0v-1.2s0-.1 0-.2c0-6 0-11 0-15v-1.6c.1-.3.1-.9.1-1.6z"/><path d="m493.3 247.6h3.3l2 9.9v-9.9h3.6v19.7h-3.9c-1.3-6.2-2-9.4-2.1-9.6v9.6h-3.6v-3.5c.2 0 .3 0 .3-.1v-.5c0-1 0-2.4 0-4.1v-.1s0 0 0-.1h.2c0-1.4 0-2.3 0-2.9 0-2.6.1-5.4.2-8.4z"/><path d="m503.6 247.6h7.4v3.3c0 .1-.4 1.8-1.3 4.9-1.4 5.2-2.2 8-2.2 8.1h3.5v.1 2.3.6c0 .1 0 .1-.1.1h-.1c0 .1 0 .2-.1.2-3.7 0-6.3 0-7.8 0v-3.4l3.5-12.9v-.1c-.2 0-.6 0-1.2 0h-.1v-.2c-.5 0-.9 0-1.3 0h-.2c0-1.3 0-2.3 0-3z"/><path d="m511.9 247.6h4v1.2 2.1s.1.1.2.2v2 10.5 3.7h-1.5c-.2-.1-.3-.1-.3-.1h-.7c-.6 0-1.2 0-1.8 0v-1.2s0-.1 0-.2c0-6 0-11 0-15v-1.6c.1-.3.1-.9.1-1.6z"/><path d="m516.9 247.6h4.3v16.4h1.2c.1-.1.1-.1.2-.1h.6.6v3.4h-6.8v-19.7z"/><path d="m524.2 247.6h4.3v16.4h1.2c.1-.1.1-.1.2-.1h.6.6v3.4h-6.8v-19.7z"/><path d="m536.5 247.6h1.2v.2h.3.8.3l2.6 19.5h-4.2l-.3-3.8h-1.2l-.4 3.9c-2.5 0-3.8 0-4.1 0 1.7-13 2.6-19.6 2.6-19.6 1-.2 1.8-.2 2.4-.2zm.2 6.5-.4 6h.9z"/></g></g></svg>